<?xml version="1.0" encoding="UTF-8" standalone="no"?>
<svg xmlns:ffdec="https://www.free-decompiler.com/flash" xmlns:xlink="http://www.w3.org/1999/xlink" ffdec:objectType="frame" height="41.1px" width="81.1px" xmlns="http://www.w3.org/2000/svg">
  <g transform="matrix(2.0, 0.0, 0.0, 2.0, 40.5, 19.2)">
    <use ffdec:characterId="3094" height="19.05" transform="matrix(1.0, 0.0, 0.0, 1.0, -19.25, -8.1)" width="18.3" xlink:href="#text0"/>
    <use ffdec:characterId="3093" height="19.05" transform="matrix(1.0, 0.0, 0.0, 1.0, 2.3, -8.1)" width="18.0" xlink:href="#text1"/>
    <use ffdec:characterId="3092" height="19.05" transform="matrix(1.0, 0.0, 0.0, 1.0, -20.25, -9.6)" width="18.3" xlink:href="#text2"/>
    <use ffdec:characterId="3091" height="19.05" transform="matrix(1.0, 0.0, 0.0, 1.0, 1.3, -9.6)" width="18.0" xlink:href="#text3"/>
    <use ffdec:characterId="3090" height="11.35" transform="matrix(1.0, 0.0, 0.0, 1.0, -4.1, -5.45)" width="5.45" xlink:href="#shape0"/>
  </g>
  <defs>
    <g id="shape0" transform="matrix(1.0, 0.0, 0.0, 1.0, 4.1, 5.45)">
      <path d="M-3.6 4.4 L-0.15 -4.95" fill="none" stroke="#ffffff" stroke-linecap="round" stroke-linejoin="round" stroke-width="1.0"/>
      <path d="M-2.6 5.4 L0.85 -3.95" fill="none" stroke="#000000" stroke-linecap="round" stroke-linejoin="round" stroke-width="1.0"/>
    </g>
  </defs>
</svg>
