<?xml version="1.0" encoding="UTF-8" standalone="no"?>
<svg xmlns:ffdec="https://www.free-decompiler.com/flash" xmlns:xlink="http://www.w3.org/1999/xlink" ffdec:objectType="frame" height="985.9px" width="2159.9px" xmlns="http://www.w3.org/2000/svg">
  <g transform="matrix(2.0, 0.0, 0.0, 2.0, 1090.6, 485.9)">
    <use ffdec:characterId="3429" height="419.85" transform="matrix(1.0, 0.0, 0.0, 1.0, -445.3, -207.9)" width="884.35" xlink:href="#shape0"/>
    <use ffdec:characterId="2108" height="19.65" transform="matrix(-0.5585, -0.8672, 0.8672, -0.5585, 4.9239, 32.0686)" width="7.35" xlink:href="#sprite0"/>
    <use ffdec:characterId="2098" height="5.3" transform="matrix(1.0183, 0.1761, -0.1761, 1.0183, 43.6597, 35.5716)" width="11.75" xlink:href="#sprite2"/>
    <use ffdec:characterId="2090" height="30.4" transform="matrix(0.2421, -1.0044, 1.0044, 0.2421, 14.5697, 25.7408)" width="9.3" xlink:href="#sprite3"/>
    <use ffdec:characterId="2108" height="19.65" transform="matrix(0.1446, -1.0233, 1.0233, 0.1446, 0.8719, 36.4713)" width="7.35" xlink:href="#sprite0"/>
    <use ffdec:characterId="2108" height="19.65" transform="matrix(0.3104, -0.9813, 0.9813, 0.3104, -17.2462, 41.0874)" width="7.35" xlink:href="#sprite0"/>
    <use ffdec:characterId="2090" height="30.4" transform="matrix(-0.0232, -1.032, 1.032, -0.0232, 16.8698, 41.5996)" width="9.3" xlink:href="#sprite3"/>
    <use ffdec:characterId="2098" height="5.3" transform="matrix(1.0151, -0.1883, 0.1883, 1.0151, 42.6624, 27.6617)" width="11.75" xlink:href="#sprite2"/>
    <use ffdec:characterId="2104" height="56.6" transform="matrix(-0.0851, -1.0293, 1.0293, -0.0851, -32.3331, 66.6472)" width="70.8" xlink:href="#sprite5"/>
    <use ffdec:characterId="2094" height="11.35" transform="matrix(-0.5169, -0.893, 0.893, -0.5169, -28.365, 35.6407)" width="7.9" xlink:href="#sprite10"/>
    <use ffdec:characterId="2096" height="18.35" transform="matrix(0.0498, -1.032, 1.032, 0.0498, -1.5193, 45.9079)" width="7.05" xlink:href="#sprite12"/>
    <use ffdec:characterId="2676" height="214.05" id="player5" transform="matrix(1.0, 0.0, 0.0, 1.0, -229.1, -226.25)" width="170.55" xlink:href="#sprite13"/>
    <use ffdec:characterId="2676" height="214.05" id="player6" transform="matrix(-1.0, 0.0, 0.0, 1.0, 227.9, -226.25)" width="170.55" xlink:href="#sprite13"/>
    <use ffdec:characterId="2676" height="214.05" id="player1" transform="matrix(1.0, 0.0, 0.0, 1.0, -289.1, -147.35)" width="170.55" xlink:href="#sprite13"/>
    <use ffdec:characterId="2676" height="214.05" id="player2" transform="matrix(-1.0, 0.0, 0.0, 1.0, 287.9, -147.35)" width="170.55" xlink:href="#sprite13"/>
    <use ffdec:characterId="2676" height="214.05" id="player3" transform="matrix(1.0, 0.0, 0.0, 1.0, -229.1, -73.75)" width="170.55" xlink:href="#sprite13"/>
    <use ffdec:characterId="2676" height="214.05" id="player4" transform="matrix(-1.0, 0.0, 0.0, 1.0, 227.9, -73.75)" width="170.55" xlink:href="#sprite13"/>
  </g>
  <defs>
    <g id="shape0" transform="matrix(1.0, 0.0, 0.0, 1.0, 445.3, 207.9)">
      <path d="M251.75 -75.05 L251.75 -207.4 282.0 -207.4 282.0 -77.15 251.75 -75.05" fill="url(#gradient0)" fill-rule="evenodd" stroke="none"/>
      <path d="M69.75 -67.15 L69.75 -207.4 100.0 -207.4 100.0 -67.9 69.75 -67.15" fill="url(#gradient1)" fill-rule="evenodd" stroke="none"/>
      <path d="M282.0 -77.15 Q359.15 -82.8 436.55 -91.3 L438.55 202.45 -438.55 202.45 -439.55 -88.3 Q-367.0 -80.65 -294.25 -75.65 L-264.0 -73.7 Q-188.25 -69.1 -112.25 -67.3 L-82.0 -66.7 Q-6.25 -65.5 69.75 -67.15 L100.0 -67.9 Q175.75 -70.1 251.75 -75.05 L282.0 -77.15" fill="url(#gradient2)" fill-rule="evenodd" stroke="none"/>
      <path d="M-112.25 -67.3 L-112.25 -207.4 -82.0 -207.4 -82.0 -66.7 -112.25 -67.3" fill="url(#gradient3)" fill-rule="evenodd" stroke="none"/>
      <path d="M-294.25 -75.65 L-294.25 -207.4 -264.0 -207.4 -264.0 -73.7 -294.25 -75.65" fill="url(#gradient4)" fill-rule="evenodd" stroke="none"/>
      <path d="M251.75 -75.05 L251.75 -207.4 282.0 -207.4 282.0 -77.15 Q359.15 -82.8 436.55 -91.3 L438.55 202.45 -438.55 202.45 -439.55 -88.3 Q-367.0 -80.65 -294.25 -75.65 L-294.25 -207.4 -264.0 -207.4 -264.0 -73.7 Q-188.25 -69.1 -112.25 -67.3 L-112.25 -207.4 -82.0 -207.4 -82.0 -66.7 Q-6.25 -65.5 69.75 -67.15 L69.75 -207.4 100.0 -207.4 100.0 -67.9 Q175.75 -70.1 251.75 -75.05 L282.0 -77.15" fill="none" stroke="#000000" stroke-linecap="round" stroke-linejoin="round" stroke-width="1.0"/>
      <path d="M99.9 -67.95 L202.5 201.45 75.3 201.45 69.7 -67.35 99.9 -67.95" fill="url(#gradient5)" fill-rule="evenodd" stroke="none"/>
      <path d="M250.95 -75.5 L252.15 -75.0 282.0 -76.9 437.1 -14.0 437.65 69.25 250.95 -75.5" fill="url(#gradient6)" fill-rule="evenodd" stroke="none"/>
      <path d="M-263.8 -73.7 L-438.9 89.15 -439.2 1.0 -293.95 -75.6 -263.8 -73.7" fill="url(#gradient7)" fill-rule="evenodd" stroke="none"/>
      <path d="M-82.05 -66.75 L-92.35 201.45 -215.2 201.45 -112.2 -67.4 -82.05 -66.75" fill="url(#gradient8)" fill-rule="evenodd" stroke="none"/>
      <path d="M-238.0 105.3 L-295.0 134.0 -423.0 117.8 -423.5 116.35 -443.75 127.4 -445.3 111.25 -309.0 54.15 -400.5 103.9 -400.0 105.3 -298.0 127.8 -238.0 105.3 M-372.75 -81.95 L-372.0 -82.5 -360.0 -80.0 -348.0 -42.55 -303.0 2.35 -354.0 -37.6 -372.75 -81.95 M-292.25 204.35 L-121.05 125.7 -256.75 211.95 -292.25 204.35 M437.8 57.25 L435.25 85.65 370.95 50.4 346.95 21.7 373.95 37.9 437.8 57.25 M328.95 158.95 L213.95 155.25 184.95 119.05 221.45 145.25 318.95 144.0 320.9 142.25 277.95 70.35 373.65 203.85 358.5 205.2 330.2 157.85 328.95 158.95" fill="#000000" fill-opacity="0.101960786" fill-rule="evenodd" stroke="none"/>
      <path d="M52.35 35.65 L43.4 35.8 43.4 35.65 43.3 35.75 30.65 31.8 24.95 31.2 15.65 26.1 15.6 26.05 15.55 25.8 15.45 25.9 15.35 26.05 15.55 26.1 15.7 26.55 Q15.95 26.55 15.4 26.95 L14.15 27.25 11.95 29.8 11.4 30.4 11.15 31.15 10.35 31.4 9.6 33.75 12.4 34.5 15.45 35.75 17.3 36.55 18.6 37.2 19.0 37.55 19.75 38.1 20.75 37.55 23.9 36.85 24.45 36.55 Q24.6 36.2 24.75 36.2 L25.45 36.4 25.85 36.4 26.25 36.25 26.55 36.15 26.75 36.15 26.8 36.15 26.95 36.25 Q30.35 38.05 32.45 38.1 32.7 37.6 33.1 37.6 33.65 37.6 34.0 38.3 L36.65 38.3 36.2 37.75 Q36.55 37.0 36.95 37.0 38.2 36.95 38.2 38.4 L38.2 38.45 46.35 39.85 48.2 42.15 48.15 42.35 48.25 42.35 52.7 43.7 54.6 45.45 54.8 50.45 54.85 50.7 51.45 50.6 44.3 47.1 33.2 47.65 27.6 49.1 17.65 47.3 17.6 47.3 17.4 46.75 17.6 45.7 17.8 43.85 16.85 43.85 14.0 43.65 13.85 43.75 13.95 43.95 13.85 44.3 Q14.0 44.55 13.45 44.4 L12.35 43.5 9.4 43.45 8.75 43.5 8.15 43.85 7.5 43.35 5.75 42.85 5.25 42.7 Q3.85 42.15 3.15 41.25 L2.45 40.5 2.15 40.0 -0.65 40.65 -0.65 40.5 -0.7 40.5 Q-4.8 40.6 -7.95 41.85 L-5.0 43.3 -2.05 45.2 -0.45 46.45 0.6 47.3 1.2 46.15 6.15 45.8 Q7.75 46.95 9.1 47.5 11.45 49.8 13.3 48.5 L13.35 48.35 13.45 48.35 13.5 48.45 15.3 50.0 16.9 49.6 17.65 51.3 14.3 56.2 12.2 55.2 12.15 55.2 Q9.65 54.05 6.9 55.2 L3.3 54.75 1.3 53.5 1.1 53.6 -1.85 53.4 -4.5 52.7 -4.7 52.75 -4.6 52.9 -4.7 53.35 -5.2 53.3 -6.1 52.2 -8.95 51.55 -9.65 51.4 -10.3 51.55 -10.85 50.9 Q-11.7 50.6 -12.5 50.0 L-13.0 49.8 -14.35 48.65 Q-15.8 48.2 -16.95 46.8 L-17.0 47.0 -17.45 47.15 -17.65 46.75 -17.65 45.95 -19.2 43.0 -20.0 38.2 -22.55 36.0 -21.05 32.8 -22.45 34.35 -22.45 34.7 -22.55 35.0 Q-23.05 37.15 -24.55 38.4 -26.05 39.6 -27.75 39.1 -29.4 38.55 -30.25 36.6 -31.1 34.65 -30.55 32.5 -30.0 30.3 -28.5 29.15 L-27.85 28.6 -27.65 28.5 -27.3 28.45 -25.35 26.45 -25.35 26.4 -25.3 26.4 -25.1 26.15 -24.75 26.7 -24.45 27.0 -21.35 25.85 -20.15 30.9 -19.5 29.55 -19.55 29.15 Q-18.75 22.8 -15.8 21.4 L-14.3 23.85 -14.3 23.4 -14.25 23.0 -14.15 22.8 -14.0 22.8 -13.75 23.0 -13.4 24.05 -12.7 24.3 -10.65 23.8 -9.65 24.35 -9.35 24.55 -8.15 25.1 -8.1 25.1 -7.9 25.2 -1.3 26.55 Q-1.0 26.2 -0.55 26.35 0.45 25.75 1.45 25.45 L4.2 25.05 4.15 24.9 4.55 24.85 5.2 24.25 6.75 22.8 9.8 20.4 12.7 18.65 14.45 17.65 Q15.1 17.45 15.75 17.05 L16.2 16.8 19.7 16.65 19.75 16.7 19.9 17.85 20.5 17.7 23.75 18.15 24.3 18.05 24.6 17.85 25.25 18.2 25.75 18.35 26.0 18.35 26.4 18.35 26.5 18.4 26.6 18.55 26.85 18.75 29.35 20.95 30.4 21.65 31.8 22.35 Q32.05 21.85 32.45 22.05 33.05 22.25 33.25 23.1 L35.75 24.0 Q35.7 23.5 35.4 23.35 35.9 22.65 36.35 22.75 37.55 23.2 37.25 24.7 L44.8 28.85 45.45 30.2 47.25 29.5 51.75 28.7 54.0 29.45 55.55 34.3 54.8 34.5 53.95 35.0 52.35 35.65" fill="url(#gradient9)" fill-rule="evenodd" stroke="none"/>
    </g>
    <linearGradient gradientTransform="matrix(0.0185, 0.0, 0.0, 0.0808, 266.85, -141.25)" gradientUnits="userSpaceOnUse" id="gradient0" spreadMethod="pad" x1="-819.2" x2="819.2">
      <stop offset="0.0" stop-color="#5c2c2c"/>
      <stop offset="0.43529411764705883" stop-color="#221a1e"/>
      <stop offset="0.8156862745098039" stop-color="#261e22"/>
      <stop offset="0.9921568627450981" stop-color="#5c2c2c"/>
    </linearGradient>
    <linearGradient gradientTransform="matrix(0.0185, 0.0, 0.0, 0.0856, 84.85, -137.3)" gradientUnits="userSpaceOnUse" id="gradient1" spreadMethod="pad" x1="-819.2" x2="819.2">
      <stop offset="0.0" stop-color="#5c2c2c"/>
      <stop offset="0.3137254901960784" stop-color="#221a1e"/>
      <stop offset="0.7176470588235294" stop-color="#261e22"/>
      <stop offset="0.9921568627450981" stop-color="#5c2c2c"/>
    </linearGradient>
    <radialGradient cx="0" cy="0" gradientTransform="matrix(-1.0E-4, -0.2941, 0.7901, -2.0E-4, 8.0, 24.0)" gradientUnits="userSpaceOnUse" id="gradient2" r="819.2" spreadMethod="pad">
      <stop offset="0.23529411764705882" stop-color="#562a2a"/>
      <stop offset="0.5254901960784314" stop-color="#3a2c35"/>
      <stop offset="1.0" stop-color="#2e1f1f"/>
    </radialGradient>
    <linearGradient gradientTransform="matrix(0.0185, 0.0, 0.0, 0.0859, -97.15, -137.05)" gradientUnits="userSpaceOnUse" id="gradient3" spreadMethod="pad" x1="-819.2" x2="819.2">
      <stop offset="0.0" stop-color="#5c2c2c"/>
      <stop offset="0.3137254901960784" stop-color="#221a1e"/>
      <stop offset="0.7176470588235294" stop-color="#261e22"/>
      <stop offset="0.9921568627450981" stop-color="#5c2c2c"/>
    </linearGradient>
    <linearGradient gradientTransform="matrix(0.0185, 0.0, 0.0, 0.0816, -279.15, -140.55)" gradientUnits="userSpaceOnUse" id="gradient4" spreadMethod="pad" x1="-819.2" x2="819.2">
      <stop offset="0.0" stop-color="#5c2c2c"/>
      <stop offset="0.17647058823529413" stop-color="#221a1e"/>
      <stop offset="0.6" stop-color="#261e22"/>
      <stop offset="0.9921568627450981" stop-color="#5c2c2c"/>
    </linearGradient>
    <linearGradient gradientTransform="matrix(-0.0287, 0.1628, -0.1072, -0.0189, 134.4, 74.4)" gradientUnits="userSpaceOnUse" id="gradient5" spreadMethod="pad" x1="-819.2" x2="819.2">
      <stop offset="0.0" stop-color="#14161f" stop-opacity="0.42352942"/>
      <stop offset="0.7725490196078432" stop-color="#333c4d" stop-opacity="0.0"/>
    </linearGradient>
    <linearGradient gradientTransform="matrix(0.1129, 0.0901, -0.0259, 0.0325, 364.35, -28.55)" gradientUnits="userSpaceOnUse" id="gradient6" spreadMethod="pad" x1="-819.2" x2="819.2">
      <stop offset="0.0" stop-color="#000000" stop-opacity="0.42352942"/>
      <stop offset="0.7725490196078432" stop-color="#000000" stop-opacity="0.0"/>
    </linearGradient>
    <linearGradient gradientTransform="matrix(-0.104, 0.1018, -0.0287, -0.0293, -374.4, -15.4)" gradientUnits="userSpaceOnUse" id="gradient7" spreadMethod="pad" x1="-819.2" x2="819.2">
      <stop offset="0.0" stop-color="#000000" stop-opacity="0.42352942"/>
      <stop offset="0.7725490196078432" stop-color="#000000" stop-opacity="0.0"/>
    </linearGradient>
    <linearGradient gradientTransform="matrix(-0.0306, 0.1734, -0.0727, -0.0128, -130.5, 69.95)" gradientUnits="userSpaceOnUse" id="gradient8" spreadMethod="pad" x1="-819.2" x2="819.2">
      <stop offset="0.0" stop-color="#14161f" stop-opacity="0.42352942"/>
      <stop offset="0.7725490196078432" stop-color="#333c4d" stop-opacity="0.0"/>
    </linearGradient>
    <linearGradient gradientTransform="matrix(0.0, -0.0242, 0.0527, 0.0, 12.4, 36.4)" gradientUnits="userSpaceOnUse" id="gradient9" spreadMethod="pad" x1="-819.2" x2="819.2">
      <stop offset="0.0" stop-color="#1f2025" stop-opacity="0.2"/>
      <stop offset="0.4117647058823529" stop-color="#1c1d20"/>
    </linearGradient>
    <g id="sprite0" transform="matrix(1.0, 0.0, 0.0, 1.0, 3.8, 9.8)">
      <use ffdec:characterId="2107" height="19.65" transform="matrix(1.0, 0.0, 0.0, 1.0, -3.55, -9.8)" width="7.1" xlink:href="#shape1"/>
      <filter id="filter0">
        <feColorMatrix in="SourceGraphic" result="filterResult0" type="matrix" values="0 0 0 0 1.0,0 0 0 0 0.0,0 0 0 0 0.0,0 0 0 1 0"/>
        <feConvolveMatrix divisor="25.0" in="filterResult0" kernelMatrix="1 1 1 1 1 1 1 1 1 1 1 1 1 1 1 1 1 1 1 1 1 1 1 1 1" order="5 5" result="filterResult1"/>
        <feComposite in="SourceGraphic" in2="filterResult1" operator="over" result="filterResult2"/>
      </filter>
      <use ffdec:characterId="2106" filter="url(#filter0)" height="8.85" transform="matrix(1.0, 0.0, 0.0, 1.0, -3.8, -6.05)" width="3.65" xlink:href="#sprite1"/>
    </g>
    <g id="shape1" transform="matrix(1.0, 0.0, 0.0, 1.0, 3.55, 9.8)">
      <path d="M-3.5 -2.25 L-3.45 -2.2 -3.5 -2.25 M-3.1 -2.0 L-3.0 -2.1 -3.05 -1.95 -3.1 -2.0" fill="url(#gradient10)" fill-rule="evenodd" stroke="none"/>
      <path d="M-1.65 -0.9 Q-2.35 -0.45 -3.05 1.2 L-3.4 -1.6 -3.5 -2.25 -3.45 -2.2 -3.15 -1.9 -3.1 -2.0 -3.05 -1.95 -1.65 -0.9" fill="url(#gradient11)" fill-rule="evenodd" stroke="none"/>
      <path d="M3.55 -4.95 L3.55 -3.1 3.4 0.3 2.95 3.4 2.6 5.2 2.3 6.5 2.2 6.95 Q1.05 4.8 0.3 2.45 0.3 1.1 -0.95 -0.25 L-0.6 -1.0 -1.65 -0.9 -3.05 -1.95 -3.0 -2.1 Q-2.95 -3.5 -0.15 -6.05 -1.1 -6.2 -2.5 -4.8 L-3.55 -3.5 -3.4 -5.2 -3.35 -5.7 Q-3.2 -7.1 -2.6 -7.9 L-2.2 -8.65 -1.8 -9.05 -1.35 -9.3 -0.5 -9.65 Q1.35 -10.15 3.3 -8.95 L3.45 -6.75 3.55 -4.95" fill="url(#gradient12)" fill-rule="evenodd" stroke="none"/>
      <path d="M2.2 6.95 Q1.6 8.65 0.45 9.85 L0.4 9.85 -0.5 9.5 Q-1.55 9.05 -1.9 8.15 -2.5 6.85 -2.6 5.5 L-2.9 2.8 -2.95 2.65 -0.95 -0.25 Q0.3 1.1 0.3 2.45 1.05 4.8 2.2 6.95" fill="url(#gradient13)" fill-rule="evenodd" stroke="none"/>
      <path d="M3.55 -4.95 L3.55 -3.1 3.4 0.3 2.95 3.4 2.6 5.2 2.3 6.5 2.2 6.95 Q1.6 8.65 0.45 9.85 L0.4 9.85 -0.5 9.5 Q-1.55 9.05 -1.9 8.15 -2.5 6.85 -2.6 5.5 L-2.9 2.8 -2.95 2.65 M-3.05 1.2 L-3.4 -1.6 -3.5 -2.25 M-3.55 -3.5 L-3.4 -5.2" fill="none" stroke="#000000" stroke-linecap="round" stroke-linejoin="round" stroke-width="0.05"/>
    </g>
    <radialGradient cx="0" cy="0" gradientTransform="matrix(0.0062, -8.0E-4, 0.0016, 0.0128, 0.3, -7.9)" gradientUnits="userSpaceOnUse" id="gradient10" r="819.2" spreadMethod="pad">
      <stop offset="0.0" stop-color="#79b999"/>
      <stop offset="0.49019607843137253" stop-color="#527072"/>
      <stop offset="0.6784313725490196" stop-color="#535368"/>
      <stop offset="1.0" stop-color="#262233"/>
    </radialGradient>
    <radialGradient cx="0" cy="0" gradientTransform="matrix(0.0058, -0.0013, 0.0042, 0.0186, -4.85, 0.0)" gradientUnits="userSpaceOnUse" id="gradient11" r="819.2" spreadMethod="pad">
      <stop offset="0.0" stop-color="#3d292e"/>
      <stop offset="0.49411764705882355" stop-color="#302332"/>
      <stop offset="0.6784313725490196" stop-color="#261c28"/>
      <stop offset="1.0" stop-color="#262233"/>
    </radialGradient>
    <radialGradient cx="0" cy="0" gradientTransform="matrix(0.0062, -8.0E-4, 0.0016, 0.0128, 0.3, -7.9)" gradientUnits="userSpaceOnUse" id="gradient12" r="819.2" spreadMethod="pad">
      <stop offset="0.0" stop-color="#3d292e"/>
      <stop offset="0.49411764705882355" stop-color="#120e14"/>
      <stop offset="0.6784313725490196" stop-color="#000000"/>
      <stop offset="1.0" stop-color="#211b20"/>
    </radialGradient>
    <radialGradient cx="0" cy="0" gradientTransform="matrix(0.0058, -0.0013, 0.0042, 0.0186, -4.85, 0.0)" gradientUnits="userSpaceOnUse" id="gradient13" r="819.2" spreadMethod="pad">
      <stop offset="0.0" stop-color="#3d292e"/>
      <stop offset="0.49411764705882355" stop-color="#120e14"/>
      <stop offset="0.6784313725490196" stop-color="#000000"/>
      <stop offset="1.0" stop-color="#211b20"/>
    </radialGradient>
    <g id="sprite1" transform="matrix(1.0, 0.0, 0.0, 1.0, 1.85, 4.45)">
      <use ffdec:characterId="2105" height="8.85" transform="matrix(1.0, 0.0, 0.0, 1.0, -1.85, -4.45)" width="3.65" xlink:href="#shape2"/>
    </g>
    <g id="shape2" transform="matrix(1.0, 0.0, 0.0, 1.0, 1.85, 4.45)">
      <path d="M1.35 0.6 L1.0 1.35 -1.0 4.25 -1.15 4.4 -1.45 4.35 -1.55 3.9 -1.1 2.8 Q-0.4 1.15 0.3 0.7 L1.35 0.6 M-0.55 -3.2 Q0.85 -4.6 1.8 -4.45 -1.0 -1.9 -1.05 -0.5 L-1.15 -0.4 -1.2 -0.3 -1.5 -0.6 -1.55 -0.65 -1.85 -1.2 -1.6 -1.9 -0.55 -3.2" fill="#fe7070" fill-rule="evenodd" stroke="none"/>
    </g>
    <g id="sprite2" transform="matrix(1.0, 0.0, 0.0, 1.0, 5.85, 2.65)">
      <use ffdec:characterId="2097" height="5.3" transform="matrix(1.0, 0.0, 0.0, 1.0, -5.85, -2.65)" width="11.75" xlink:href="#shape3"/>
    </g>
    <g id="shape3" transform="matrix(1.0, 0.0, 0.0, 1.0, 5.85, 2.65)">
      <path d="M5.15 2.3 L4.25 2.45 3.45 2.6 3.35 2.5 4.25 2.45 5.25 2.15 5.15 2.3 M-5.7 1.2 L-5.85 1.15 -5.85 0.65 -5.7 1.2" fill="#54451b" fill-rule="evenodd" stroke="none"/>
      <path d="M5.7 1.25 L5.85 2.0 5.9 2.2 5.15 2.3 5.25 2.15 5.7 1.25 M3.45 2.6 L2.65 2.65 3.35 2.5 3.45 2.6 M5.85 2.0 L5.25 2.15 5.85 2.0" fill="#000000" fill-rule="evenodd" stroke="none"/>
      <path d="M-1.35 -2.65 L3.0 -2.4 5.05 -1.5 5.7 1.25 5.25 2.15 4.25 2.45 3.35 2.5 2.65 2.65 -5.7 1.2 -5.85 0.65 -5.6 -2.2 -1.35 -2.65" fill="url(#gradient14)" fill-rule="evenodd" stroke="none"/>
      <path d="M-1.35 -2.65 L3.0 -2.4 5.05 -1.5 5.7 1.25 5.85 2.0 5.25 2.15 4.25 2.45 3.35 2.5 2.65 2.65 -5.7 1.2 -5.85 0.65 -5.6 -2.2" fill="none" stroke="#000000" stroke-linecap="round" stroke-linejoin="round" stroke-width="0.05"/>
    </g>
    <radialGradient cx="0" cy="0" gradientTransform="matrix(0.0102, -0.0022, 0.0029, 0.0122, 2.2, -1.4)" gradientUnits="userSpaceOnUse" id="gradient14" r="819.2" spreadMethod="pad">
      <stop offset="0.0" stop-color="#3d292e"/>
      <stop offset="0.49411764705882355" stop-color="#120e14"/>
      <stop offset="0.6784313725490196" stop-color="#000000"/>
      <stop offset="1.0" stop-color="#211b20"/>
    </radialGradient>
    <g id="sprite3" transform="matrix(1.0, 0.0, 0.0, 1.0, 4.6, 15.2)">
      <use ffdec:characterId="2089" height="30.4" transform="matrix(1.0, 0.0, 0.0, 1.0, -4.6, -15.2)" width="9.3" xlink:href="#shape4"/>
      <filter id="filter1">
        <feColorMatrix in="SourceGraphic" result="filterResult3" type="matrix" values="0 0 0 0 1.0,0 0 0 0 0.0,0 0 0 0 0.0,0 0 0 1 0"/>
        <feConvolveMatrix divisor="25.0" in="filterResult3" kernelMatrix="1 1 1 1 1 1 1 1 1 1 1 1 1 1 1 1 1 1 1 1 1 1 1 1 1" order="5 5" result="filterResult4"/>
        <feComposite in="SourceGraphic" in2="filterResult4" operator="over" result="filterResult5"/>
      </filter>
      <use ffdec:characterId="2088" filter="url(#filter1)" height="6.05" transform="matrix(1.0, 0.0, 0.0, 1.0, -2.4, -0.55)" width="6.3" xlink:href="#sprite4"/>
    </g>
    <g id="shape4" transform="matrix(1.0, 0.0, 0.0, 1.0, 4.6, 15.2)">
      <path d="M2.3 -15.2 L3.85 -11.35 4.65 -5.5 4.05 -4.65 3.0 -0.15 2.85 4.95 1.6 13.4 0.15 14.95 -0.55 9.85 Q-1.8 0.2 -2.0 -10.35 L-2.0 -14.55 Q0.3 -13.95 2.3 -15.2" fill="url(#gradient15)" fill-rule="evenodd" stroke="none"/>
      <path d="M0.15 14.95 L-0.1 15.2 -3.55 13.15 -3.7 0.5 -4.6 -4.9 -3.1 -14.5 -3.1 -14.55 -2.75 -14.8 -2.0 -14.55 -2.0 -10.35 Q-1.8 0.2 -0.55 9.85 L0.15 14.95" fill="url(#gradient16)" fill-rule="evenodd" stroke="none"/>
      <path d="M2.3 -15.2 L3.85 -11.35 4.65 -5.5 4.05 -4.65 3.0 -0.15 2.85 4.95 1.6 13.4 M-3.55 13.15 L-3.7 0.5 -4.6 -4.9 -3.1 -14.5 -3.1 -14.55 -2.75 -14.8" fill="none" stroke="#000000" stroke-linecap="round" stroke-linejoin="round" stroke-width="0.05"/>
      <path d="M1.1 -7.2 L2.7 -6.75 2.85 -6.75 3.65 -7.55 3.8 -7.45 3.9 -8.3 4.2 -8.4 4.45 -7.75 4.65 -7.5 4.55 -6.8 4.55 -6.1 4.7 -5.7 Q3.15 -2.0 3.15 0.2 3.25 0.35 2.85 0.35 L2.85 0.3 2.85 0.9 2.85 1.4 2.9 2.9 2.75 5.55 2.6 5.55 2.35 1.85 2.25 0.75 Q1.45 -1.25 0.6 -4.3 L-0.3 -8.15 -0.3 -8.2 -0.3 -8.25 -0.05 -8.85 0.05 -8.65 1.1 -7.15 1.1 -7.2 M3.75 -7.05 L3.75 -7.1 3.55 -6.85 3.75 -6.95 3.75 -7.05" fill="#000000" fill-opacity="0.3019608" fill-rule="evenodd" stroke="none"/>
    </g>
    <radialGradient cx="0" cy="0" gradientTransform="matrix(0.006, 0.0, 0.0, 0.0248, 1.6, -8.65)" gradientUnits="userSpaceOnUse" id="gradient15" r="819.2" spreadMethod="pad">
      <stop offset="0.0" stop-color="#3d292e"/>
      <stop offset="0.49411764705882355" stop-color="#120e14"/>
      <stop offset="0.6784313725490196" stop-color="#000000"/>
      <stop offset="1.0" stop-color="#211b20"/>
    </radialGradient>
    <radialGradient cx="0" cy="0" gradientTransform="matrix(0.008, 0.0, 0.0, 0.0211, -5.75, -1.05)" gradientUnits="userSpaceOnUse" id="gradient16" r="819.2" spreadMethod="pad">
      <stop offset="0.0" stop-color="#3d292e"/>
      <stop offset="0.49411764705882355" stop-color="#120e14"/>
      <stop offset="0.6784313725490196" stop-color="#000000"/>
      <stop offset="1.0" stop-color="#211b20"/>
    </radialGradient>
    <g id="sprite4" transform="matrix(1.0, 0.0, 0.0, 1.0, 3.15, 3.0)">
      <use ffdec:characterId="2087" height="6.05" transform="matrix(1.0, 0.0, 0.0, 1.0, -3.15, -3.0)" width="6.3" xlink:href="#shape5"/>
    </g>
    <g id="shape5" transform="matrix(1.0, 0.0, 0.0, 1.0, 3.15, 3.0)">
      <path d="M2.25 -2.6 Q2.8 -2.35 2.8 -1.9 2.8 -0.65 0.1 -0.65 -2.4 -0.65 -3.15 -2.75 L-2.75 -3.0 Q-1.35 -1.8 0.0 -1.8 L2.25 -2.6 M2.6 1.1 Q3.15 1.45 3.15 1.85 3.15 3.05 2.05 3.05 -2.75 3.05 -2.75 1.7 L-2.75 1.3 -2.25 1.05 Q-1.9 1.8 0.25 1.8 2.3 1.8 2.6 1.1" fill="#fe7070" fill-rule="evenodd" stroke="none"/>
    </g>
    <g id="sprite5" transform="matrix(1.0, 0.0, 0.0, 1.0, 32.95, 28.6)">
      <use ffdec:characterId="2103" height="32.85" transform="matrix(1.0, 0.0, 0.0, 1.0, -9.9, -16.4)" width="19.85" xlink:href="#shape6"/>
      <filter id="filter2">
        <feColorMatrix in="SourceGraphic" result="filterResult6" type="matrix" values="0 0 0 0 1.0,0 0 0 0 0.0,0 0 0 0 0.0,0 0 0 1 0"/>
        <feConvolveMatrix divisor="36.0" in="filterResult6" kernelMatrix="1 1 1 1 1 1 1 1 1 1 1 1 1 1 1 1 1 1 1 1 1 1 1 1 1 1 1 1 1 1 1 1 1 1 1 1" order="6 6" result="filterResult7"/>
        <feComposite in="SourceGraphic" in2="filterResult7" operator="over" result="filterResult8"/>
      </filter>
      <use ffdec:characterId="2102" filter="url(#filter2)" height="21.7" transform="matrix(1.0, 0.0, 0.0, 1.0, -8.4, -13.3)" width="16.05" xlink:href="#sprite6"/>
      <filter id="filter3">
        <feFlood flood-color="#ffff99" flood-opacity="1.0" result="filterResult9"/>
        <feComposite in="filterResult9" in2="SourceGraphic" operator="out" result="filterResult10"/>
        <feConvolveMatrix divisor="25.0" in="filterResult10" kernelMatrix="1 1 1 1 1 1 1 1 1 1 1 1 1 1 1 1 1 1 1 1 1 1 1 1 1" order="5 5" result="filterResult11"/>
        <feComposite in="filterResult11" in2="SourceGraphic" operator="in" result="filterResult12"/>
        <feComposite in="filterResult12" in2="SourceGraphic" operator="over" result="filterResult13"/>
        <feColorMatrix in="filterResult13" result="filterResult14" type="matrix" values="0 0 0 0 1.0,0 0 0 0 0.8,0 0 0 0 0.0,0 0 0 1 0"/>
        <feConvolveMatrix divisor="25.0" in="filterResult14" kernelMatrix="1 1 1 1 1 1 1 1 1 1 1 1 1 1 1 1 1 1 1 1 1 1 1 1 1" order="5 5" result="filterResult15"/>
        <feComposite in="filterResult13" in2="filterResult15" operator="over" result="filterResult16"/>
      </filter>
      <use ffdec:characterId="2100" filter="url(#filter3)" height="18.0" transform="matrix(1.0, 0.0, 0.0, 1.0, -4.8, -7.8)" width="13.55" xlink:href="#sprite7"/>
      <use ffdec:characterId="885" height="56.6" transform="matrix(1.0, 0.0, 0.0, 1.0, -32.95, -28.6)" width="70.8" xlink:href="#sprite8"/>
    </g>
    <g id="shape6" transform="matrix(1.0, 0.0, 0.0, 1.0, 9.9, 16.4)">
      <path d="M7.85 -7.65 L7.5 -6.95 7.4 -7.8 7.85 -7.65 M-5.85 -4.35 L-6.4 -5.55 -6.15 -5.6 -5.85 -4.35" fill="url(#gradient17)" fill-rule="evenodd" stroke="none"/>
      <path d="M5.7 10.05 L5.8 10.05 5.95 13.05 2.15 16.45 -5.0 12.6 -4.7 8.75 -2.3 9.05 5.7 10.05" fill="url(#gradient18)" fill-rule="evenodd" stroke="none"/>
      <path d="M6.55 -1.7 L6.55 -1.65 4.95 5.05 5.0 5.05 5.65 7.35 Q5.85 8.75 5.7 10.05 L-2.3 9.05 -2.5 6.7 Q-2.5 2.85 -0.65 0.1 1.2 -2.6 3.8 -2.6 L4.65 -2.5 Q5.65 -2.35 6.55 -1.7" fill="url(#gradient19)" fill-rule="evenodd" stroke="none"/>
      <path d="M7.5 -6.95 L7.75 -4.2 7.3 -3.3 7.1 -2.95 6.55 -1.7 Q5.65 -2.35 4.65 -2.5 L3.8 -2.6 Q1.2 -2.6 -0.65 0.1 -2.5 2.85 -2.5 6.7 L-2.3 9.05 -4.7 8.75 -5.1 4.45 -4.95 4.45 -4.95 4.4 Q-4.6 -0.75 -5.85 -4.35 L-6.15 -5.6 Q-3.4 -6.7 -2.4 -9.3 -1.95 -10.55 -1.9 -12.15 L-1.9 -12.65 -1.95 -14.05 -1.75 -14.1 -0.05 -16.4 4.4 -13.1 3.35 -12.35 5.4 -11.5 7.4 -7.8 7.5 -6.95" fill="url(#gradient20)" fill-rule="evenodd" stroke="none"/>
      <path d="M-6.15 -5.6 L-6.2 -5.7 -6.25 -5.7 -9.9 -7.8 Q-9.9 -11.6 -5.2 -13.65 L-1.95 -14.05 -1.9 -12.65 -1.9 -12.15 Q-1.95 -10.55 -2.4 -9.3 -3.4 -6.7 -6.15 -5.6" fill="url(#gradient21)" fill-rule="evenodd" stroke="none"/>
      <path d="M4.4 -13.1 L4.65 -13.1 Q9.15 -11.95 9.95 -9.1 L7.85 -7.65 7.4 -7.8 5.4 -11.5 3.35 -12.35 4.4 -13.1" fill="url(#gradient22)" fill-rule="evenodd" stroke="none"/>
      <path d="M4.65 -13.1 Q9.15 -11.95 9.95 -9.1 M7.85 -7.65 L7.5 -6.95 7.75 -4.2 7.3 -3.3 7.1 -2.95 6.55 -1.7 6.55 -1.65 4.95 5.05 5.0 5.05 5.65 7.35 Q5.85 8.75 5.7 10.05 L5.8 10.05 5.95 13.05 M-5.0 12.6 L-4.7 8.75 -5.1 4.45 -5.1 4.4 -4.95 4.45 -4.95 4.4 Q-4.6 -0.75 -5.85 -4.35 L-6.15 -5.6 -6.2 -5.7 -6.25 -5.7 M-9.9 -7.8 Q-9.9 -11.6 -5.2 -13.65 L-1.95 -14.05 -1.75 -14.1 -0.05 -16.4 4.4 -13.1 3.35 -12.35 M7.4 -7.8 L7.5 -6.95 M-2.3 9.05 L5.7 10.05 M-2.3 9.05 L-4.7 8.75" fill="none" stroke="#000000" stroke-linecap="round" stroke-linejoin="round" stroke-width="0.05"/>
      <path d="M0.9 -13.6 Q0.7 -15.15 1.4 -15.15 2.4 -15.15 3.05 -13.75 L3.55 -12.35 4.6 -12.35 Q5.25 -12.35 5.25 -11.75 L4.8 -11.1 4.7 -11.15 4.7 -11.1 4.2 -10.7 4.8 -11.05 4.95 -11.15 5.6 -11.0 5.7 -10.95 Q3.85 -9.9 3.65 -9.9 2.2 -9.9 -2.0 -11.9 L-2.0 -12.0 -3.0 -12.2 -3.8 -11.85 -4.5 -11.85 -4.55 -12.05 Q-4.55 -12.45 -2.1 -12.95 L-1.85 -12.85 -0.65 -12.5 1.2 -12.4 0.9 -13.6 M4.35 -9.35 Q4.95 -7.85 4.95 -4.5 L4.65 -2.8 5.1 -2.5 Q5.65 -2.15 6.5 -2.1 L6.6 -1.8 Q6.6 -1.5 5.9 -1.5 L4.35 -2.2 4.25 -2.0 4.25 -1.95 4.25 -1.3 5.0 -0.75 4.2 -0.65 3.65 4.1 4.6 4.25 4.95 4.55 4.95 4.65 3.6 4.65 3.3 6.65 3.2 6.75 2.7 5.6 2.7 4.7 1.15 5.1 Q0.6 5.4 0.35 5.85 L0.3 5.55 Q0.3 4.2 2.75 4.1 2.8 1.2 3.3 -0.5 0.9 -0.1 0.8 0.75 L0.75 0.8 Q0.3 0.8 0.3 0.45 0.3 -1.25 3.55 -1.35 L4.0 -2.15 3.9 -2.3 Q3.9 -3.0 4.4 -4.65 L4.4 -4.75 3.95 -8.85 Q3.95 -9.3 4.35 -9.35" fill="#000000" fill-opacity="0.3019608" fill-rule="evenodd" stroke="none"/>
    </g>
    <radialGradient cx="0" cy="0" gradientTransform="matrix(0.0222, 0.0, 0.0, 0.0222, 2.85, -1.75)" gradientUnits="userSpaceOnUse" id="gradient17" r="819.2" spreadMethod="pad">
      <stop offset="0.0" stop-color="#6a7249"/>
      <stop offset="1.0" stop-color="#393a2c"/>
    </radialGradient>
    <radialGradient cx="0" cy="0" gradientTransform="matrix(0.0076, 0.0, 0.0, 0.0076, 0.4, 10.45)" gradientUnits="userSpaceOnUse" id="gradient18" r="819.2" spreadMethod="pad">
      <stop offset="0.0" stop-color="#595959"/>
      <stop offset="1.0" stop-color="#000000"/>
    </radialGradient>
    <radialGradient cx="0" cy="0" gradientTransform="matrix(0.0148, 0.0, 0.0, 0.0148, 3.45, 9.45)" gradientUnits="userSpaceOnUse" id="gradient19" r="819.2" spreadMethod="pad">
      <stop offset="0.0" stop-color="#3d292e"/>
      <stop offset="0.49411764705882355" stop-color="#120e14"/>
      <stop offset="0.6784313725490196" stop-color="#000000"/>
      <stop offset="1.0" stop-color="#211b20"/>
    </radialGradient>
    <radialGradient cx="0" cy="0" gradientTransform="matrix(0.0098, 0.0011, -0.0018, 0.0157, 0.8, -3.65)" gradientUnits="userSpaceOnUse" id="gradient20" r="819.2" spreadMethod="pad">
      <stop offset="0.0" stop-color="#3d292e"/>
      <stop offset="0.49411764705882355" stop-color="#120e14"/>
      <stop offset="0.6784313725490196" stop-color="#000000"/>
      <stop offset="1.0" stop-color="#211b20"/>
    </radialGradient>
    <radialGradient cx="0" cy="0" gradientTransform="matrix(0.0076, 0.0, 0.0, 0.0076, -6.55, -9.95)" gradientUnits="userSpaceOnUse" id="gradient21" r="819.2" spreadMethod="pad">
      <stop offset="0.0" stop-color="#3d292e"/>
      <stop offset="0.49411764705882355" stop-color="#120e14"/>
      <stop offset="0.6784313725490196" stop-color="#000000"/>
      <stop offset="1.0" stop-color="#211b20"/>
    </radialGradient>
    <radialGradient cx="0" cy="0" gradientTransform="matrix(0.0065, 0.0, 0.0, 0.0065, 7.6, -9.15)" gradientUnits="userSpaceOnUse" id="gradient22" r="819.2" spreadMethod="pad">
      <stop offset="0.0" stop-color="#3d292e"/>
      <stop offset="0.49411764705882355" stop-color="#120e14"/>
      <stop offset="0.6784313725490196" stop-color="#000000"/>
      <stop offset="1.0" stop-color="#211b20"/>
    </radialGradient>
    <g id="sprite6" transform="matrix(1.0, 0.0, 0.0, 1.0, 8.05, 10.85)">
      <use ffdec:characterId="2101" height="21.7" transform="matrix(1.0, 0.0, 0.0, 1.0, -8.05, -10.85)" width="16.05" xlink:href="#shape7"/>
    </g>
    <g id="shape7" transform="matrix(1.0, 0.0, 0.0, 1.0, 8.05, 10.85)">
      <path d="M3.25 -6.55 L4.2 -3.8 Q6.4 -3.95 6.85 -4.6 L7.6 -6.05 Q8.0 -5.8 8.0 -5.45 8.0 -3.3 4.35 -3.0 L4.35 -2.3 Q4.35 -1.6 2.3 -0.55 0.25 0.5 0.25 2.2 0.25 3.4 1.45 3.55 2.35 3.45 2.45 3.2 L2.45 2.5 1.9 2.75 1.45 2.45 1.45 1.9 Q1.8 1.55 2.4 1.55 L3.1 1.85 Q3.35 1.75 3.35 2.4 3.35 4.35 1.6 4.35 0.5 4.35 -0.15 3.45 L-0.65 2.4 Q-0.65 -0.05 1.5 -1.05 3.25 -1.9 3.55 -2.95 L2.9 -2.95 Q1.15 -2.95 -0.35 -5.15 L-0.4 -5.3 -0.4 -5.15 Q-0.4 -4.05 -0.65 -3.55 L-1.0 -3.55 Q-0.3 -8.4 -4.9 -10.6 L-4.4 -10.85 Q-1.2 -10.85 -0.5 -6.1 L0.55 -5.0 Q1.85 -3.8 2.9 -3.8 L3.55 -3.8 2.95 -6.3 3.25 -6.55 M2.75 7.95 L2.5 8.45 Q2.5 8.85 4.2 10.5 L4.15 10.7 3.6 10.85 Q1.8 10.85 1.6 8.4 1.6 7.7 2.6 7.15 3.45 6.7 4.0 6.7 5.85 6.7 5.45 7.85 L5.4 8.35 Q5.6 8.55 5.0 8.55 4.55 8.55 4.6 8.1 4.6 7.6 4.1 7.6 L2.75 7.95 M-8.05 -9.7 Q-7.9 -9.9 -7.75 -9.9 -3.25 -9.9 -1.9 -2.8 -1.9 -0.75 -3.65 2.45 L-3.95 2.45 -2.55 -2.85 Q-2.55 -4.4 -4.0 -6.45 -5.7 -8.75 -8.0 -9.3 L-8.05 -9.7" fill="#fe8989" fill-rule="evenodd" stroke="none"/>
    </g>
    <g id="sprite7" transform="matrix(1.0, 0.0, 0.0, 1.0, 6.8, 9.0)">
      <use ffdec:characterId="2099" height="18.0" transform="matrix(1.0, 0.0, 0.0, 1.0, -6.8, -9.0)" width="13.55" xlink:href="#shape8"/>
    </g>
    <g id="shape8" transform="matrix(1.0, 0.0, 0.0, 1.0, 6.8, 9.0)">
      <path d="M4.85 -7.8 L5.35 -8.6 5.8 -9.0 6.4 -8.95 6.65 -8.85 6.75 -8.75 6.75 -8.6 6.6 -8.4 5.85 -8.1 5.5 -7.3 5.45 -7.15 5.1 -6.8 4.25 -5.9 4.05 -5.65 4.1 -5.6 4.2 -5.45 3.9 -3.05 3.8 -0.35 Q3.8 1.1 3.0 2.0 2.35 0.95 2.7 -0.65 L3.05 -3.65 3.15 -4.6 3.0 -4.45 2.4 -3.85 2.4 -3.7 2.4 -3.55 2.4 -3.25 2.4 -2.95 2.4 -2.8 2.35 -2.65 1.4 -2.05 1.4 -1.25 1.15 0.5 0.8 2.15 Q-0.05 2.1 0.1 1.05 L0.2 -0.6 0.2 -1.3 0.15 -1.3 Q-1.0 -0.5 -1.75 0.75 -1.4 1.7 -1.6 3.0 L-1.9 6.0 Q-1.95 7.55 -2.6 8.6 -3.4 7.5 -3.0 5.65 -2.7 4.15 -2.7 2.65 L-2.7 2.45 -3.4 3.55 -3.55 3.55 -3.6 3.55 -3.55 4.1 -3.55 5.45 -3.7 6.8 -3.8 6.95 -3.95 7.1 -4.2 7.2 -4.35 7.3 -4.4 7.4 -4.4 7.7 -4.4 8.15 -4.5 8.7 -4.8 9.0 Q-5.45 8.25 -5.3 6.95 L-5.1 4.7 -5.05 4.3 -4.95 3.7 -5.1 3.55 Q-5.9 3.75 -6.8 3.55 L-5.6 2.6 -5.25 2.2 -4.4 1.45 Q-4.1 1.05 -4.2 0.55 L-4.0 0.25 -3.55 -0.15 -3.5 -0.15 Q-3.35 -1.4 -1.9 -2.65 L-0.35 -3.85 -0.8 -4.35 -0.8 -4.5 -0.7 -4.8 -0.45 -5.2 -0.2 -5.4 0.4 -5.35 0.65 -5.3 0.75 -5.15 0.8 -4.85 0.8 -4.65 2.05 -5.4 3.0 -6.0 3.85 -6.8 4.2 -7.05 4.8 -7.8 4.85 -7.8 M1.6 -7.6 Q2.1 -7.5 1.9 -7.05 1.75 -6.65 1.35 -6.95 1.0 -7.2 1.35 -7.45 L1.6 -7.6 M-3.4 -4.2 Q-2.95 -4.1 -3.0 -3.65 -3.05 -3.25 -3.4 -3.25 L-4.25 -3.35 -4.4 -3.45 -4.35 -3.7 -3.65 -4.15 -3.4 -4.2" fill="#ffffff" fill-rule="evenodd" stroke="none"/>
    </g>
    <g id="sprite8" transform="matrix(1.0, 0.0, 0.0, 1.0, 36.75, 32.65)">
      <filter id="filter4">
        <feColorMatrix in="SourceGraphic" result="filterResult17" type="matrix" values="0 0 0 0 1.0,0 0 0 0 0.8,0 0 0 0 0.0,0 0 0 1 0"/>
        <feConvolveMatrix divisor="81.0" in="filterResult17" kernelMatrix="1 1 1 1 1 1 1 1 1 1 1 1 1 1 1 1 1 1 1 1 1 1 1 1 1 1 1 1 1 1 1 1 1 1 1 1 1 1 1 1 1 1 1 1 1 1 1 1 1 1 1 1 1 1 1 1 1 1 1 1 1 1 1 1 1 1 1 1 1 1 1 1 1 1 1 1 1 1 1 1 1" order="9 9" result="filterResult18"/>
        <feComposite in="SourceGraphic" in2="filterResult18" operator="over" result="filterResult19"/>
      </filter>
      <use ffdec:characterId="884" filter="url(#filter4)" height="130.05" transform="matrix(0.4351, 0.0, 0.0, 0.4351, -36.7708, -32.6399)" width="162.75" xlink:href="#sprite9"/>
    </g>
    <g id="sprite9" transform="matrix(1.0, 0.0, 0.0, 1.0, 79.0, 69.85)">
      <use ffdec:characterId="867" height="87.75" transform="matrix(1.0, 0.0, 0.0, 1.0, -28.55, -43.85)" width="64.6" xlink:href="#shape9"/>
    </g>
    <g id="shape9" transform="matrix(1.0, 0.0, 0.0, 1.0, 28.55, 43.85)">
      <path d="M17.5 -42.1 L10.65 -30.45 Q6.5 -23.35 2.45 -20.1 1.95 -20.2 1.95 -21.35 2.45 -21.45 2.45 -20.85 L10.15 -33.85 Q15.9 -43.85 17.95 -43.85 18.5 -43.85 21.0 -40.25 21.0 -37.95 17.1 -27.8 15.15 -22.7 14.6 -20.0 L18.1 -17.8 Q21.9 -15.4 23.25 -15.1 L23.7 -14.35 Q23.35 -13.7 22.5 -13.3 L22.75 -13.2 Q22.75 -11.4 20.55 -10.15 L15.6 -8.2 Q8.4 -5.4 8.25 0.15 8.15 2.95 4.3 7.5 L-2.05 14.7 Q-8.1 22.7 -18.8 43.9 -20.05 42.9 -20.05 40.5 -20.05 38.4 -15.65 28.0 L-11.05 17.45 -10.55 17.9 -15.25 28.6 Q-19.55 38.75 -19.55 40.5 L-19.05 42.95 -18.9 43.15 -11.7 29.15 Q-6.95 20.2 -2.8 14.4 L3.3 7.55 Q7.3 2.9 7.0 0.15 5.8 -10.7 20.0 -12.35 L20.25 -12.6 11.7 -12.2 Q8.5 -12.2 6.85 -13.0 L3.95 -14.85 3.75 -15.6 3.85 -16.05 4.7 -16.2 14.7 -14.7 Q13.35 -15.85 12.2 -17.75 L12.25 -17.9 12.2 -18.0 12.2 -19.35 Q12.2 -21.2 15.7 -30.05 19.2 -38.9 19.2 -40.35 18.35 -41.75 17.5 -42.1 M28.5 19.95 Q28.45 20.45 27.2 20.45 22.55 20.45 16.7 15.45 11.35 10.85 11.45 8.9 L12.2 8.4 17.55 13.45 Q21.55 17.05 24.75 17.95 L21.3 14.9 Q18.75 12.4 18.75 10.65 18.8 6.7 15.8 5.1 L13.7 4.15 Q12.75 3.7 12.75 3.15 12.75 1.9 14.25 1.2 L19.95 6.15 Q21.5 7.45 21.2 8.75 L20.5 10.75 Q20.5 12.0 24.3 15.3 28.25 18.65 28.5 19.95 M-23.7 -11.95 Q-15.6 -12.55 -11.65 -13.45 -10.9 -13.05 -10.65 -12.45 L-12.05 -12.35 -12.55 -12.8 Q-14.3 -13.2 -26.3 -10.2 L-26.3 -10.1 Q-6.2 -6.4 -2.15 -5.2 L-2.05 -4.85 Q-1.55 -4.2 -2.8 -4.2 -5.9 -4.2 -14.55 -5.85 -24.05 -7.65 -28.4 -9.45 L-28.55 -10.2 Q-28.55 -11.6 -23.7 -11.95" fill="#ffffff" fill-rule="evenodd" stroke="none"/>
      <path d="M14.85 -10.5 Q14.5 -10.55 14.5 -11.35 14.5 -13.75 17.55 -13.35 17.8 -13.6 17.8 -12.35 17.8 -11.65 16.5 -10.5 L14.85 -10.5 M35.8 -19.35 Q36.05 -19.5 36.05 -18.25 L35.8 -17.1 Q36.25 -16.85 35.0 -16.85 L32.8 -17.1 32.3 -18.4 32.5 -19.35 34.25 -19.6 35.8 -19.35 M25.8 1.25 Q26.0 0.85 26.0 2.1 L25.8 3.05 Q26.75 3.5 25.5 3.5 23.65 3.5 22.75 3.0 22.5 3.25 22.5 2.0 L22.55 1.25 24.25 1.0 25.8 1.25 M-20.35 -23.35 Q-21.05 -22.35 -22.25 -22.35 L-23.75 -22.6 -24.1 -23.55 Q-24.1 -25.5 -22.25 -25.5 -20.7 -25.5 -20.35 -23.35 M-20.5 5.35 L-20.6 6.75 -22.5 7.05 Q-23.55 7.05 -24.35 6.05 -24.5 6.6 -24.5 5.35 -24.5 4.55 -22.0 3.5 -20.5 3.8 -20.5 5.35" fill="#ffffff" fill-rule="evenodd" stroke="none"/>
    </g>
    <g id="sprite10" transform="matrix(1.0, 0.0, 0.0, 1.0, 2.55, 6.7)">
      <use ffdec:characterId="2093" height="11.35" transform="matrix(1.0, 0.0, 0.0, 1.0, -2.55, -6.7)" width="7.9" xlink:href="#shape10"/>
      <filter id="filter5">
        <feColorMatrix in="SourceGraphic" result="filterResult20" type="matrix" values="0 0 0 0 1.0,0 0 0 0 0.0,0 0 0 0 0.0,0 0 0 1 0"/>
        <feConvolveMatrix divisor="25.0" in="filterResult20" kernelMatrix="1 1 1 1 1 1 1 1 1 1 1 1 1 1 1 1 1 1 1 1 1 1 1 1 1" order="5 5" result="filterResult21"/>
        <feComposite in="SourceGraphic" in2="filterResult21" operator="over" result="filterResult22"/>
      </filter>
      <use ffdec:characterId="2092" filter="url(#filter5)" height="5.7" transform="matrix(1.0, 0.0, 0.0, 1.0, -1.75, -6.05)" width="3.75" xlink:href="#sprite11"/>
    </g>
    <g id="shape10" transform="matrix(1.0, 0.0, 0.0, 1.0, 2.55, 6.7)">
      <path d="M5.0 -1.3 L5.35 1.4 4.5 1.5 4.5 1.6 3.7 4.65 -0.6 3.7 -1.05 0.7 -1.3 0.5 -1.45 0.35 Q-2.55 -0.85 -2.55 -2.55 -2.55 -4.25 -1.45 -5.5 -0.3 -6.7 1.3 -6.7 2.9 -6.7 4.0 -5.5 5.15 -4.25 5.15 -2.55 L5.1 -1.85 5.0 -1.3" fill="url(#gradient23)" fill-rule="evenodd" stroke="none"/>
      <path d="M5.1 -1.85 L5.05 -1.6 5.0 -1.3 5.35 1.4 4.5 1.5 4.5 1.6 3.7 4.65 -0.6 3.7 -1.05 0.7 -1.3 0.5 -1.45 0.35 Q-2.55 -0.85 -2.55 -2.55 -2.55 -4.25 -1.45 -5.5 -0.3 -6.7 1.3 -6.7 2.9 -6.7 4.0 -5.5 5.15 -4.25 5.15 -2.55 L5.1 -1.85 5.0 -1.3" fill="none" stroke="#000000" stroke-linecap="round" stroke-linejoin="round" stroke-width="0.05"/>
      <path d="M3.8 2.55 L3.8 2.85 3.3 2.9 2.85 2.85 3.35 2.45 3.8 2.55 M4.6 0.5 Q5.0 0.5 5.3 1.05 4.85 1.65 3.9 1.65 L3.75 1.25 Q3.75 0.8 4.6 0.5" fill="#000000" fill-rule="evenodd" stroke="none"/>
      <path d="M2.25 -1.5 L3.35 -1.65 4.2 -1.55 4.35 -1.35 3.3 -0.3 Q2.15 -0.7 2.15 -1.25 L2.25 -1.5" fill="#ffffff" fill-rule="evenodd" stroke="none"/>
    </g>
    <radialGradient cx="0" cy="0" gradientTransform="matrix(0.0101, 0.0, 0.0, 0.0101, 4.7, -2.65)" gradientUnits="userSpaceOnUse" id="gradient23" r="819.2" spreadMethod="pad">
      <stop offset="0.0" stop-color="#3d292e"/>
      <stop offset="0.49411764705882355" stop-color="#120e14"/>
      <stop offset="0.6784313725490196" stop-color="#000000"/>
      <stop offset="1.0" stop-color="#211b20"/>
    </radialGradient>
    <g id="sprite11" transform="matrix(1.0, 0.0, 0.0, 1.0, 1.85, 2.85)">
      <use ffdec:characterId="2091" height="5.7" transform="matrix(1.0, 0.0, 0.0, 1.0, -1.85, -2.85)" width="3.75" xlink:href="#shape11"/>
    </g>
    <g id="shape11" transform="matrix(1.0, 0.0, 0.0, 1.0, 1.85, 2.85)">
      <path d="M-1.15 -0.6 L-0.65 -1.2 Q0.5 -2.35 1.9 -2.85 L-0.9 0.7 -0.45 2.65 -0.6 2.85 Q-1.3 2.25 -1.6 1.3 L-1.7 1.3 Q-1.85 1.5 -1.85 0.9 L-1.75 0.5 -1.85 -0.5 Q-1.85 -1.75 -1.4 -1.85 L-1.15 -0.6" fill="#fa6b6b" fill-rule="evenodd" stroke="none"/>
    </g>
    <g id="sprite12" transform="matrix(1.0, 0.0, 0.0, 1.0, 3.55, 9.15)">
      <use ffdec:characterId="2095" height="18.35" transform="matrix(1.0, 0.0, 0.0, 1.0, -3.55, -9.15)" width="7.05" xlink:href="#shape12"/>
    </g>
    <g id="shape12" transform="matrix(1.0, 0.0, 0.0, 1.0, 3.55, 9.15)">
      <path d="M2.0 4.95 L2.0 5.0 1.95 5.05 1.9 4.85 2.0 4.95" fill="url(#gradient24)" fill-rule="evenodd" stroke="none"/>
      <path d="M1.9 4.85 L2.0 4.9 2.0 4.95 1.9 4.85" fill="url(#gradient25)" fill-rule="evenodd" stroke="none"/>
      <path d="M3.0 -6.9 Q3.7 -4.25 3.45 -2.1 2.75 -0.55 2.4 0.8 0.9 3.15 1.9 4.85 L1.95 5.05 Q-0.9 6.25 -2.95 4.05 L-2.95 4.0 Q-2.25 1.55 -3.15 -1.05 L-3.0 -4.55 Q-2.8 -6.1 -0.75 -9.15 L3.0 -6.9" fill="url(#gradient26)" fill-rule="evenodd" stroke="none"/>
      <path d="M1.95 5.05 L0.9 6.85 1.3 8.4 0.15 9.2 -3.55 6.1 -2.95 4.05 Q-0.9 6.25 1.95 5.05" fill="url(#gradient27)" fill-rule="evenodd" stroke="none"/>
      <path d="M3.0 -6.9 Q3.7 -4.25 3.45 -2.1 2.75 -0.55 2.4 0.8 0.9 3.15 1.9 4.85 L2.0 4.95 2.0 5.0 1.95 5.05 0.9 6.85 1.3 8.4 0.15 9.2 -3.55 6.1 -2.95 4.05 -2.95 4.0 Q-2.25 1.55 -3.15 -1.05 L-3.0 -4.55 Q-2.8 -6.1 -0.75 -9.15 M2.0 4.9 L2.0 4.95" fill="none" stroke="#000000" stroke-linecap="round" stroke-linejoin="round" stroke-width="0.05"/>
    </g>
    <radialGradient cx="0" cy="0" gradientTransform="matrix(0.0133, 0.0026, -0.0018, 0.0144, 0.8, -7.0)" gradientUnits="userSpaceOnUse" id="gradient24" r="819.2" spreadMethod="pad">
      <stop offset="0.0" stop-color="#6a7249"/>
      <stop offset="1.0" stop-color="#393a2c"/>
    </radialGradient>
    <radialGradient cx="0" cy="0" gradientTransform="matrix(0.0038, 7.0E-4, -5.0E-4, 0.0041, -0.45, 6.05)" gradientUnits="userSpaceOnUse" id="gradient25" r="819.2" spreadMethod="pad">
      <stop offset="0.0" stop-color="#6a7249"/>
      <stop offset="1.0" stop-color="#393a2c"/>
    </radialGradient>
    <radialGradient cx="0" cy="0" gradientTransform="matrix(0.0104, 0.0, 0.0, 0.0104, 0.0, -2.6)" gradientUnits="userSpaceOnUse" id="gradient26" r="819.2" spreadMethod="pad">
      <stop offset="0.0" stop-color="#3d292e"/>
      <stop offset="0.49411764705882355" stop-color="#120e14"/>
      <stop offset="0.6784313725490196" stop-color="#000000"/>
      <stop offset="1.0" stop-color="#211b20"/>
    </radialGradient>
    <radialGradient cx="0" cy="0" gradientTransform="matrix(0.0062, 0.0, 0.0, 0.0062, 0.1, 8.1)" gradientUnits="userSpaceOnUse" id="gradient27" r="819.2" spreadMethod="pad">
      <stop offset="0.0" stop-color="#3d292e"/>
      <stop offset="0.49411764705882355" stop-color="#120e14"/>
      <stop offset="0.6784313725490196" stop-color="#000000"/>
      <stop offset="1.0" stop-color="#211b20"/>
    </radialGradient>
    <g id="sprite13" transform="matrix(1.0, 0.0, 0.0, 1.0, 50.0, 150.25)">
      <use ffdec:characterId="166" height="213.6" id="inner2" transform="matrix(1.0, 0.0, 0.0, 1.0, -46.65, -150.25)" width="146.55" xlink:href="#sprite14"/>
      <use ffdec:characterId="2675" height="130.05" id="shield" transform="matrix(1.0, 0.0, 0.0, 1.0, -50.0, -66.25)" width="170.55" xlink:href="#sprite32"/>
      <use ffdec:characterId="2674" height="68.8" id="speech" transform="matrix(-1.0, 0.0, 0.0, 1.0, 12.6, -101.25)" width="46.5" xlink:href="#sprite33"/>
    </g>
    <g id="sprite14" transform="matrix(1.0, 0.0, 0.0, 1.0, 46.2, 150.05)">
      <use ffdec:characterId="144" height="19.95" id="shadower" transform="matrix(1.0, 0.0, 0.0, 1.0, -32.5, 26.0)" width="65.05" xlink:href="#sprite15"/>
      <filter id="filter6"/>
      <use ffdec:characterId="130" filter="url(#filter6)" height="19.65" id="arm2" transform="matrix(0.7956, -0.0321, 0.0321, 0.7956, 4.7608, -26.1326)" width="7.1" xlink:href="#sprite16"/>
      <filter id="filter7"/>
      <use ffdec:characterId="121" filter="url(#filter7)" height="18.35" id="hand2" transform="matrix(-0.711, 0.3639, 0.3639, 0.711, 10.7442, -16.298)" width="7.05" xlink:href="#sprite18"/>
      <filter id="filter8"/>
      <use ffdec:characterId="124" filter="url(#filter8)" height="68.95" id="weapon2" transform="matrix(0.7573, 0.2574, -0.2574, 0.7573, 24.3602, -47.2321)" width="6.0" xlink:href="#sprite20"/>
      <filter id="filter9"/>
      <use ffdec:characterId="142" filter="url(#filter9)" height="5.3" id="foot2" transform="matrix(0.8, 0.0, 0.0, 0.8, 6.2701, 30.58)" width="11.75" xlink:href="#sprite22"/>
      <filter id="filter10"/>
      <use ffdec:characterId="130" filter="url(#filter10)" height="19.65" id="leg2" transform="matrix(0.7888, -0.544, 0.4534, 0.6573, -1.293, 0.2396)" width="7.1" xlink:href="#sprite16"/>
      <filter id="filter11"/>
      <use ffdec:characterId="139" filter="url(#filter11)" height="30.4" id="leg4" transform="matrix(0.7989, 0.013, -0.013, 0.7989, 5.8226, 9.2469)" width="9.25" xlink:href="#sprite24"/>
      <filter id="filter12"/>
      <use ffdec:characterId="142" filter="url(#filter12)" height="5.3" id="foot1" transform="matrix(0.998, -0.0312, 0.0312, 0.998, -16.9709, 34.9379)" width="11.75" xlink:href="#sprite22"/>
      <filter id="filter13"/>
      <use ffdec:characterId="130" filter="url(#filter13)" height="19.65" id="leg1" transform="matrix(1.1842, 0.166, -0.1383, 0.9869, -5.2483, -6.5606)" width="7.1" xlink:href="#sprite16"/>
      <filter id="filter14"/>
      <use ffdec:characterId="139" filter="url(#filter14)" height="30.4" id="leg3" transform="matrix(0.9291, 0.3639, -0.3639, 0.9291, -7.3423, 8.4533)" width="9.25" xlink:href="#sprite24"/>
      <filter id="filter15"/>
      <use ffdec:characterId="136" filter="url(#filter15)" height="32.85" id="chest" transform="matrix(0.9921, 0.1225, -0.1225, 0.9921, -7.3627, -34.3324)" width="19.85" xlink:href="#sprite26"/>
      <filter id="filter16"/>
      <use ffdec:characterId="133" filter="url(#filter16)" height="11.35" id="head" transform="matrix(1.0, 0.0, 0.0, 1.0, 2.2, -40.5)" width="7.9" xlink:href="#sprite28"/>
      <filter id="filter17"/>
      <use ffdec:characterId="130" filter="url(#filter17)" height="19.65" id="arm1" transform="matrix(0.8787, 0.4694, -0.4694, 0.8787, -5.619, -30.2776)" width="7.1" xlink:href="#sprite16"/>
      <filter id="filter18"/>
      <use ffdec:characterId="127" filter="url(#filter18)" height="8.45" id="shoulder" transform="matrix(1.0, 0.0, 0.0, 1.0, -8.55, -31.3)" width="8.0" xlink:href="#sprite30"/>
      <filter id="filter19"/>
      <use ffdec:characterId="124" filter="url(#filter19)" height="68.95" id="weapon1" transform="matrix(0.866, 0.5, -0.5, 0.866, 23.0967, -53.8064)" width="6.0" xlink:href="#sprite20"/>
      <filter id="filter20"/>
      <use ffdec:characterId="121" filter="url(#filter20)" height="18.35" id="hand1" transform="matrix(0.6858, -0.7255, 0.7255, 0.6858, -14.4732, -11.1497)" width="7.05" xlink:href="#sprite18"/>
    </g>
    <g id="sprite15" transform="matrix(1.0, 0.0, 0.0, 1.0, 32.5, 9.95)">
      <use ffdec:characterId="143" height="19.95" transform="matrix(1.0, 0.0, 0.0, 1.0, -32.5, -9.95)" width="65.05" xlink:href="#shape13"/>
    </g>
    <g id="shape13" transform="matrix(1.0, 0.0, 0.0, 1.0, 32.5, 9.95)">
      <path d="M1.45 8.25 Q-12.05 10.55 -22.0 9.8 -31.85 9.0 -32.45 5.6 -33.05 2.2 -24.0 -1.85 -14.9 -5.9 -1.4 -8.2 12.1 -10.55 22.0 -9.75 31.95 -9.0 32.5 -5.6 33.1 -2.2 24.0 1.85 14.95 5.9 1.45 8.25" fill="url(#gradient28)" fill-rule="evenodd" stroke="none"/>
    </g>
    <radialGradient cx="0" cy="0" gradientTransform="matrix(0.0432, -0.0074, 0.0018, 0.0106, 0.05, 0.0)" gradientUnits="userSpaceOnUse" id="gradient28" r="819.2" spreadMethod="pad">
      <stop offset="0.3333333333333333" stop-color="#000000" stop-opacity="0.68235296"/>
      <stop offset="0.8627450980392157" stop-color="#000000" stop-opacity="0.0"/>
      <stop offset="1.0" stop-color="#000000" stop-opacity="0.0"/>
    </radialGradient>
    <g id="sprite16" transform="matrix(1.0, 0.0, 0.0, 1.0, 3.55, 9.8)">
      <use ffdec:characterId="129" height="19.65" transform="matrix(1.0, 0.0, 0.0, 1.0, -3.55, -9.8)" width="7.1" xlink:href="#sprite17"/>
    </g>
    <g id="sprite17" transform="matrix(1.0, 0.0, 0.0, 1.0, 3.55, 9.8)">
      <use ffdec:characterId="128" height="19.65" transform="matrix(1.0, 0.0, 0.0, 1.0, -3.55, -9.8)" width="7.1" xlink:href="#shape14"/>
    </g>
    <g id="shape14" transform="matrix(1.0, 0.0, 0.0, 1.0, 3.55, 9.8)">
      <path d="M-3.5 4.0 L-3.55 3.6 -3.35 -0.7 Q-3.2 -2.85 -2.6 -4.1 L-2.2 -5.25 -1.8 -5.85 -0.5 -6.75 Q1.35 -7.55 3.3 -5.75 L3.45 -2.35 3.55 3.3 3.55 3.6 3.55 4.0 Q-0.2 6.9 -3.5 4.0" fill="url(#gradient29)" fill-rule="evenodd" stroke="none"/>
      <path d="M-3.5 4.0 L-3.55 3.6 -3.35 -0.7 Q-3.2 -2.85 -2.6 -4.1 L-2.2 -5.25 -1.8 -5.85 -0.5 -6.75 Q1.35 -7.55 3.3 -5.75 L3.45 -2.35 3.55 3.3 3.55 3.6 3.55 4.0" fill="none" stroke="#000000" stroke-linecap="round" stroke-linejoin="round" stroke-width="0.05"/>
      <path d="M3.55 4.0 Q-0.2 6.9 -3.5 4.0" fill="none" stroke="#000000" stroke-linecap="round" stroke-linejoin="round" stroke-width="0.05"/>
      <path d="M-3.5 -2.65 L-3.55 -2.9 -3.35 -5.7 Q-3.2 -7.1 -2.6 -7.9 L-2.2 -8.65 -1.8 -9.05 -0.5 -9.65 Q1.35 -10.15 3.3 -8.95 L3.45 -6.75 3.55 -3.1 3.55 -2.9 3.55 -2.65 Q-0.2 -0.75 -3.5 -2.65 M2.85 4.1 L2.3 6.5 Q1.8 8.45 0.45 9.85 L-0.5 9.5 Q-1.55 9.05 -1.9 8.15 -2.5 6.85 -2.6 5.5 L-2.8 4.0 Q-0.75 5.0 2.85 4.1" fill="url(#gradient30)" fill-rule="evenodd" stroke="none"/>
      <path d="M-3.5 -2.65 L-3.55 -2.9 -3.35 -5.7 Q-3.2 -7.1 -2.6 -7.9 L-2.2 -8.65 -1.8 -9.05 -0.5 -9.65 Q1.35 -10.15 3.3 -8.95 L3.45 -6.75 3.55 -3.1 3.55 -2.9 3.55 -2.65 M2.85 4.1 L2.3 6.5 Q1.8 8.45 0.45 9.85 L-0.5 9.5 Q-1.55 9.05 -1.9 8.15 -2.5 6.85 -2.6 5.5 L-2.8 4.0" fill="none" stroke="#000000" stroke-linecap="round" stroke-linejoin="round" stroke-width="0.05"/>
      <path d="M3.55 -2.65 Q-0.2 -0.75 -3.5 -2.65 M-2.8 4.0 Q-0.75 5.0 2.85 4.1" fill="none" stroke="#000000" stroke-linecap="round" stroke-linejoin="round" stroke-width="0.05"/>
    </g>
    <radialGradient cx="0" cy="0" gradientTransform="matrix(0.0189, -0.0017, 2.0E-4, 0.0292, -0.2, 16.65)" gradientUnits="userSpaceOnUse" id="gradient29" r="819.2" spreadMethod="pad">
      <stop offset="0.0" stop-color="#161616"/>
      <stop offset="1.0" stop-color="#000000"/>
    </radialGradient>
    <radialGradient cx="0" cy="0" gradientTransform="matrix(0.0189, -0.0011, 2.0E-4, 0.019, -0.2, 5.6)" gradientUnits="userSpaceOnUse" id="gradient30" r="819.2" spreadMethod="pad">
      <stop offset="0.0" stop-color="#161616"/>
      <stop offset="1.0" stop-color="#000000"/>
    </radialGradient>
    <g id="sprite18" transform="matrix(1.0, 0.0, 0.0, 1.0, 3.55, 9.15)">
      <use ffdec:characterId="120" height="18.35" transform="matrix(1.0, 0.0, 0.0, 1.0, -3.55, -9.15)" width="7.05" xlink:href="#sprite19"/>
    </g>
    <g id="sprite19" transform="matrix(1.0, 0.0, 0.0, 1.0, 3.55, 9.15)">
      <use ffdec:characterId="119" height="18.35" transform="matrix(1.0, 0.0, 0.0, 1.0, -3.55, -9.15)" width="7.05" xlink:href="#shape15"/>
    </g>
    <g id="shape15" transform="matrix(1.0, 0.0, 0.0, 1.0, 3.55, 9.15)">
      <path d="M2.0 4.95 L2.0 5.0 1.95 5.05 2.0 4.95" fill="url(#gradient31)" fill-rule="evenodd" stroke="none"/>
      <path d="M1.9 4.85 L2.0 4.9 2.0 4.95 1.9 4.85" fill="url(#gradient32)" fill-rule="evenodd" stroke="none"/>
      <path d="M3.0 -6.9 Q3.7 -4.25 3.45 -2.1 2.75 -0.55 2.4 0.8 0.9 3.15 1.9 4.85 L2.0 4.95 1.95 5.05 Q-0.9 6.25 -2.95 4.05 L-2.95 4.0 Q-2.25 1.55 -3.15 -1.05 L-3.0 -4.55 Q-2.8 -6.1 -0.75 -9.15 L3.0 -6.9" fill="url(#gradient33)" fill-rule="evenodd" stroke="none"/>
      <path d="M1.95 5.05 L0.9 6.85 1.3 8.4 0.15 9.2 -3.55 6.1 -2.95 4.05 Q-0.9 6.25 1.95 5.05" fill="url(#gradient34)" fill-rule="evenodd" stroke="none"/>
      <path d="M3.0 -6.9 Q3.7 -4.25 3.45 -2.1 2.75 -0.55 2.4 0.8 0.9 3.15 1.9 4.85 L2.0 4.95 2.0 5.0 1.95 5.05 0.9 6.85 1.3 8.4 0.15 9.2 -3.55 6.1 -2.95 4.05 -2.95 4.0 Q-2.25 1.55 -3.15 -1.05 L-3.0 -4.55 Q-2.8 -6.1 -0.75 -9.15 M2.0 4.9 L2.0 4.95 M1.95 5.05 Q-0.9 6.25 -2.95 4.05" fill="none" stroke="#000000" stroke-linecap="round" stroke-linejoin="round" stroke-width="0.05"/>
    </g>
    <radialGradient cx="0" cy="0" gradientTransform="matrix(0.0133, 0.0026, -0.0018, 0.0144, 0.8, -7.0)" gradientUnits="userSpaceOnUse" id="gradient31" r="819.2" spreadMethod="pad">
      <stop offset="0.0" stop-color="#161616"/>
      <stop offset="1.0" stop-color="#000000"/>
    </radialGradient>
    <radialGradient cx="0" cy="0" gradientTransform="matrix(0.0038, 7.0E-4, -5.0E-4, 0.0041, -0.45, 6.05)" gradientUnits="userSpaceOnUse" id="gradient32" r="819.2" spreadMethod="pad">
      <stop offset="0.0" stop-color="#161616"/>
      <stop offset="1.0" stop-color="#000000"/>
    </radialGradient>
    <radialGradient cx="0" cy="0" gradientTransform="matrix(0.0133, 0.0026, -0.0018, 0.0144, 0.8, -7.0)" gradientUnits="userSpaceOnUse" id="gradient33" r="819.2" spreadMethod="pad">
      <stop offset="0.0" stop-color="#262116"/>
      <stop offset="1.0" stop-color="#090906"/>
    </radialGradient>
    <radialGradient cx="0" cy="0" gradientTransform="matrix(0.0038, 7.0E-4, -5.0E-4, 0.0041, -0.45, 6.05)" gradientUnits="userSpaceOnUse" id="gradient34" r="819.2" spreadMethod="pad">
      <stop offset="0.0" stop-color="#262116"/>
      <stop offset="1.0" stop-color="#090906"/>
    </radialGradient>
    <g id="sprite20" transform="matrix(1.0, 0.0, 0.0, 1.0, 5.2, 36.9)">
      <use ffdec:characterId="123" height="68.95" transform="matrix(1.0, 0.0, 0.0, 1.0, -5.2, -36.9)" width="6.0" xlink:href="#sprite21"/>
    </g>
    <g id="sprite21" transform="matrix(1.0, 0.0, 0.0, 1.0, 3.75, 41.15)">
      <use ffdec:characterId="122" height="68.95" transform="matrix(1.0, 0.0, 0.0, 1.0, -3.75, -41.15)" width="6.0" xlink:href="#shape16"/>
    </g>
    <g id="shape16" transform="matrix(1.0, 0.0, 0.0, 1.0, 3.75, 41.15)">
      <path d="M1.35 10.2 L-0.15 27.1 Q-2.5 28.5 -3.75 27.1 -2.4 18.25 -1.55 9.95 L1.35 10.2" fill="url(#gradient35)" fill-rule="evenodd" stroke="none"/>
      <path d="M1.7 4.9 L1.35 10.2 -1.55 9.95 -1.1 5.05 1.7 4.9" fill="url(#gradient36)" fill-rule="evenodd" stroke="none"/>
      <path d="M-1.1 5.05 Q1.05 -20.55 -3.2 -41.15 L-0.15 -39.15 Q3.45 -25.1 1.7 4.9 L-1.1 5.05" fill="url(#gradient37)" fill-rule="evenodd" stroke="none"/>
      <path d="M-1.1 5.05 Q1.05 -20.55 -3.2 -41.15 L-0.15 -39.15 Q3.45 -25.1 1.7 4.9 L1.35 10.2 -0.15 27.1 Q-2.5 28.5 -3.75 27.1 -2.4 18.25 -1.55 9.95 L-1.1 5.05" fill="none" stroke="#000000" stroke-linecap="round" stroke-linejoin="round" stroke-width="0.05"/>
      <path d="M-1.1 5.05 L1.7 4.9 M-1.55 9.95 L1.35 10.2" fill="none" stroke="#000000" stroke-linecap="round" stroke-linejoin="round" stroke-width="0.05"/>
    </g>
    <linearGradient gradientTransform="matrix(0.0031, 0.0, 0.0, 0.0109, -1.2, 18.85)" gradientUnits="userSpaceOnUse" id="gradient35" spreadMethod="pad" x1="-819.2" x2="819.2">
      <stop offset="0.0" stop-color="#2c2c2c"/>
      <stop offset="1.0" stop-color="#0b0b0b"/>
    </linearGradient>
    <linearGradient gradientTransform="matrix(0.002, 0.0, 0.0, 0.0032, 0.05, 7.55)" gradientUnits="userSpaceOnUse" id="gradient36" spreadMethod="pad" x1="-819.2" x2="819.2">
      <stop offset="0.0" stop-color="#382020"/>
      <stop offset="1.0" stop-color="#0d0a0a"/>
    </linearGradient>
    <radialGradient cx="0" cy="0" gradientTransform="matrix(0.0419, 0.0, 0.0, 0.0419, -0.25, -29.25)" gradientUnits="userSpaceOnUse" id="gradient37" r="819.2" spreadMethod="pad">
      <stop offset="0.0" stop-color="#a7a59f"/>
      <stop offset="0.41568627450980394" stop-color="#624720"/>
      <stop offset="0.4666666666666667" stop-color="#2e1e07"/>
      <stop offset="0.7294117647058823" stop-color="#855f26"/>
      <stop offset="1.0" stop-color="#8d744e"/>
    </radialGradient>
    <g id="sprite22" transform="matrix(1.0, 0.0, 0.0, 1.0, 5.85, 2.65)">
      <use ffdec:characterId="141" height="5.3" transform="matrix(1.0, 0.0, 0.0, 1.0, -5.85, -2.65)" width="11.75" xlink:href="#sprite23"/>
    </g>
    <g id="sprite23" transform="matrix(1.0, 0.0, 0.0, 1.0, 5.85, 2.65)">
      <use ffdec:characterId="140" height="5.3" transform="matrix(1.0, 0.0, 0.0, 1.0, -5.85, -2.65)" width="11.75" xlink:href="#shape17"/>
    </g>
    <g id="shape17" transform="matrix(1.0, 0.0, 0.0, 1.0, 5.85, 2.65)">
      <path d="M-1.35 -2.65 L3.0 -2.4 5.05 -1.5 5.7 1.25 5.25 2.15 4.25 2.45 3.35 2.5 2.65 2.65 -5.7 1.2 -5.85 0.65 -5.6 -2.2 -1.35 -2.65" fill="url(#gradient38)" fill-rule="evenodd" stroke="none"/>
      <path d="M5.7 1.25 L5.85 2.0 5.9 2.2 4.25 2.45 2.65 2.65 3.35 2.5 4.25 2.45 5.25 2.15 5.7 1.25 M-5.7 1.2 L-5.85 1.15 -5.85 0.65 -5.7 1.2 M5.85 2.0 L5.25 2.15 5.85 2.0" fill="url(#gradient39)" fill-rule="evenodd" stroke="none"/>
      <path d="M-1.35 -2.65 L3.0 -2.4 5.05 -1.5 5.7 1.25 5.85 2.0 5.25 2.15 4.25 2.45 3.35 2.5 2.65 2.65 -5.7 1.2 -5.85 0.65 -5.6 -2.2" fill="none" stroke="#000000" stroke-linecap="round" stroke-linejoin="round" stroke-width="0.05"/>
    </g>
    <radialGradient cx="0" cy="0" gradientTransform="matrix(0.0102, -0.0022, 0.0029, 0.0122, 2.2, -1.4)" gradientUnits="userSpaceOnUse" id="gradient38" r="819.2" spreadMethod="pad">
      <stop offset="0.0" stop-color="#161616"/>
      <stop offset="1.0" stop-color="#000000"/>
    </radialGradient>
    <radialGradient cx="0" cy="0" gradientTransform="matrix(0.0114, 0.0, 0.0, 0.0114, -2.75, -1.4)" gradientUnits="userSpaceOnUse" id="gradient39" r="819.2" spreadMethod="pad">
      <stop offset="0.0" stop-color="#161616"/>
      <stop offset="1.0" stop-color="#000000"/>
    </radialGradient>
    <g id="sprite24" transform="matrix(1.0, 0.0, 0.0, 1.0, 4.6, 15.2)">
      <use ffdec:characterId="138" height="30.4" transform="matrix(1.0, 0.0, 0.0, 1.0, -4.6, -15.2)" width="9.25" xlink:href="#sprite25"/>
    </g>
    <g id="sprite25" transform="matrix(1.0, 0.0, 0.0, 1.0, 4.6, 15.2)">
      <use ffdec:characterId="137" height="30.4" transform="matrix(1.0, 0.0, 0.0, 1.0, -4.6, -15.2)" width="9.25" xlink:href="#shape18"/>
    </g>
    <g id="shape18" transform="matrix(1.0, 0.0, 0.0, 1.0, 4.6, 15.2)">
      <path d="M3.85 -11.35 L4.65 -5.5 4.05 -4.65 -1.3 -2.3 -4.5 -4.25 -4.6 -4.9 -3.9 -10.65 -1.0 -9.25 3.85 -11.35" fill="url(#gradient40)" fill-rule="evenodd" stroke="none"/>
      <path d="M2.85 4.95 L1.6 13.4 -0.1 15.2 -3.55 13.15 -3.6 4.8 Q-0.95 6.8 2.85 4.95" fill="url(#gradient41)" fill-rule="evenodd" stroke="none"/>
      <path d="M4.05 -4.65 L3.0 -0.15 2.85 4.95 Q-0.95 6.8 -3.6 4.8 L-3.7 0.5 -4.5 -4.25 -1.3 -2.3 4.05 -4.65" fill="url(#gradient42)" fill-rule="evenodd" stroke="none"/>
      <path d="M-3.9 -10.65 L-3.1 -14.5 -3.1 -14.55 -2.75 -14.8 Q-0.05 -13.75 2.3 -15.2 L3.85 -11.35 -1.0 -9.25 -3.9 -10.65" fill="url(#gradient43)" fill-rule="evenodd" stroke="none"/>
      <path d="M-3.9 -10.65 L-3.1 -14.5 -3.1 -14.55 -2.75 -14.8 Q-0.05 -13.75 2.3 -15.2 L3.85 -11.35 4.65 -5.5 4.05 -4.65 3.0 -0.15 2.85 4.95 1.6 13.4 -0.1 15.2 -3.55 13.15 -3.6 4.8 -3.7 0.5 -4.5 -4.25 -4.6 -4.9 -3.9 -10.65 -1.0 -9.25 3.85 -11.35 M-4.5 -4.25 L-1.3 -2.3 4.05 -4.65 M2.85 4.95 Q-0.95 6.8 -3.6 4.8" fill="none" stroke="#000000" stroke-linecap="round" stroke-linejoin="round" stroke-width="0.05"/>
    </g>
    <radialGradient cx="0" cy="0" gradientTransform="matrix(0.009, -3.0E-4, -2.0E-4, 0.0083, -2.0, -8.15)" gradientUnits="userSpaceOnUse" id="gradient40" r="819.2" spreadMethod="pad">
      <stop offset="0.0" stop-color="#161616"/>
      <stop offset="1.0" stop-color="#000000"/>
    </radialGradient>
    <radialGradient cx="0" cy="0" gradientTransform="matrix(0.0091, -3.0E-4, -2.0E-4, 0.0085, -1.2, 8.4)" gradientUnits="userSpaceOnUse" id="gradient41" r="819.2" spreadMethod="pad">
      <stop offset="0.0" stop-color="#161616"/>
      <stop offset="1.0" stop-color="#000000"/>
    </radialGradient>
    <radialGradient cx="0" cy="0" gradientTransform="matrix(0.0106, -3.0E-4, -2.0E-4, 0.0098, -1.8, -1.65)" gradientUnits="userSpaceOnUse" id="gradient42" r="819.2" spreadMethod="pad">
      <stop offset="0.0" stop-color="#262116"/>
      <stop offset="1.0" stop-color="#090906"/>
    </radialGradient>
    <radialGradient cx="0" cy="0" gradientTransform="matrix(0.0077, -2.0E-4, -2.0E-4, 0.0071, -2.05, -13.2)" gradientUnits="userSpaceOnUse" id="gradient43" r="819.2" spreadMethod="pad">
      <stop offset="0.0" stop-color="#262116"/>
      <stop offset="1.0" stop-color="#090906"/>
    </radialGradient>
    <g id="sprite26" transform="matrix(1.0, 0.0, 0.0, 1.0, 9.9, 16.4)">
      <use ffdec:characterId="135" height="32.85" transform="matrix(1.0, 0.0, 0.0, 1.0, -9.9, -16.4)" width="19.85" xlink:href="#sprite27"/>
    </g>
    <g id="sprite27" transform="matrix(1.0, 0.0, 0.0, 1.0, 9.9, 16.4)">
      <use ffdec:characterId="134" height="32.85" transform="matrix(1.0, 0.0, 0.0, 1.0, -9.9, -16.4)" width="19.85" xlink:href="#shape19"/>
    </g>
    <g id="shape19" transform="matrix(1.0, 0.0, 0.0, 1.0, 9.9, 16.4)">
      <path d="M7.85 -7.65 L7.5 -6.95 7.4 -7.8 7.85 -7.65" fill="#836201" fill-rule="evenodd" stroke="none"/>
      <path d="M-5.1 4.45 L-5.1 4.4 -4.95 4.45 -5.1 4.45" fill="url(#gradient44)" fill-rule="evenodd" stroke="none"/>
      <path d="M-5.85 -4.35 L-6.4 -5.55 -6.15 -5.6 -5.85 -4.35" fill="#333333" fill-rule="evenodd" stroke="none"/>
      <path d="M-6.2 -5.7 L-6.25 -5.7 -6.3 -5.7 -6.2 -5.7" fill="url(#gradient45)" fill-rule="evenodd" stroke="none"/>
      <path d="M7.5 -6.95 L7.75 -4.2 7.3 -3.3 7.1 -2.95 6.75 -2.1 Q5.35 -3.9 3.4 -3.9 1.35 -3.9 -0.1 -1.95 -1.5 0.05 -1.5 2.85 L-1.35 4.65 -4.95 4.45 Q-4.55 -0.75 -5.85 -4.35 L-6.15 -5.6 Q-3.4 -6.7 -2.4 -9.3 -1.95 -10.55 -1.9 -12.15 L5.2 -6.05 6.45 -9.5 7.4 -7.8 7.5 -6.95" fill="url(#gradient46)" fill-rule="evenodd" stroke="none"/>
      <path d="M6.75 -2.1 L6.55 -1.65 4.95 5.05 -1.35 4.65 -1.5 2.85 Q-1.5 0.05 -0.1 -1.95 1.35 -3.9 3.4 -3.9 5.35 -3.9 6.75 -2.1" fill="url(#gradient47)" fill-rule="evenodd" stroke="none"/>
      <path d="M5.7 10.05 L5.8 10.05 5.95 13.05 2.15 16.45 -5.0 12.6 -4.7 8.75 5.7 10.05" fill="url(#gradient48)" fill-rule="evenodd" stroke="none"/>
      <path d="M-1.75 -14.1 L-0.05 -16.4 4.4 -13.1 3.35 -12.35 -1.75 -14.1" fill="url(#gradient49)" fill-rule="evenodd" stroke="none"/>
      <path d="M-6.15 -5.6 L-6.2 -5.7 -6.3 -5.7 -9.9 -7.8 Q-9.9 -11.6 -5.2 -13.65 L-1.95 -14.05 -1.9 -12.65 -1.9 -12.15 Q-1.95 -10.55 -2.4 -9.3 -3.4 -6.7 -6.15 -5.6" fill="url(#gradient50)" fill-rule="evenodd" stroke="none"/>
      <path d="M4.95 5.05 L5.0 5.05 Q5.75 7.0 5.8 8.8 L5.7 10.05 -4.7 8.75 -5.1 4.45 -4.95 4.45 -1.35 4.65 4.95 5.05" fill="url(#gradient51)" fill-rule="evenodd" stroke="none"/>
      <path d="M-1.95 -14.05 L-1.75 -14.1 3.35 -12.35 5.4 -11.5 6.45 -9.5 5.2 -6.05 -1.9 -12.15 -1.9 -12.65 -1.95 -14.05" fill="url(#gradient52)" fill-rule="evenodd" stroke="none"/>
      <path d="M4.4 -13.1 L4.65 -13.1 Q9.15 -11.95 9.95 -9.1 L7.85 -7.65 7.4 -7.8 6.45 -9.5 5.4 -11.5 3.35 -12.35 4.4 -13.1" fill="url(#gradient53)" fill-rule="evenodd" stroke="none"/>
      <path d="M4.65 -13.1 Q9.15 -11.95 9.95 -9.1 L7.85 -7.65 7.5 -6.95 7.75 -4.2 7.3 -3.3 7.1 -2.95 6.75 -2.1 6.55 -1.65 4.95 5.05 5.0 5.05 Q5.75 7.0 5.8 8.8 L5.7 10.05 5.8 10.05 5.95 13.05 M-5.0 12.6 L-4.7 8.75 -5.1 4.45 -5.1 4.4 -4.95 4.45 Q-4.55 -0.75 -5.85 -4.35 L-6.15 -5.6 -6.2 -5.7 -6.25 -5.7 -6.3 -5.7 -9.9 -7.8 Q-9.9 -11.6 -5.2 -13.65 L-1.95 -14.05 -1.75 -14.1 -0.05 -16.4 4.4 -13.1 3.35 -12.35 5.4 -11.5 6.45 -9.5 7.4 -7.8 7.5 -6.95 M6.45 -9.5 L5.2 -6.05 -1.9 -12.15 Q-1.95 -10.55 -2.4 -9.3 -3.4 -6.7 -6.15 -5.6 M-1.35 4.65 L4.95 5.05 M-1.9 -12.15 L-1.9 -12.65 -1.95 -14.05 M-1.35 4.65 L-4.95 4.45 M3.35 -12.35 L-1.75 -14.1 M-4.7 8.75 L5.7 10.05" fill="none" stroke="#000000" stroke-linecap="round" stroke-linejoin="round" stroke-width="0.05"/>
    </g>
    <radialGradient cx="0" cy="0" gradientTransform="matrix(0.0103, 4.0E-4, -5.0E-4, 0.0101, 3.05, 6.65)" gradientUnits="userSpaceOnUse" id="gradient44" r="819.2" spreadMethod="pad">
      <stop offset="0.0" stop-color="#a89786"/>
      <stop offset="1.0" stop-color="#484037"/>
    </radialGradient>
    <radialGradient cx="0" cy="0" gradientTransform="matrix(0.0077, 0.0, 0.0, 0.0077, -4.5, -11.0)" gradientUnits="userSpaceOnUse" id="gradient45" r="819.2" spreadMethod="pad">
      <stop offset="0.0" stop-color="#454545"/>
      <stop offset="1.0" stop-color="#1b1b1b"/>
    </radialGradient>
    <radialGradient cx="0" cy="0" gradientTransform="matrix(0.0146, 5.0E-4, -8.0E-4, 0.0142, 1.15, -5.65)" gradientUnits="userSpaceOnUse" id="gradient46" r="819.2" spreadMethod="pad">
      <stop offset="0.0" stop-color="#262626"/>
      <stop offset="1.0" stop-color="#000000"/>
    </radialGradient>
    <radialGradient cx="0" cy="0" gradientTransform="matrix(0.0086, 0.0, 0.0, 0.0086, 3.0, 2.75)" gradientUnits="userSpaceOnUse" id="gradient47" r="819.2" spreadMethod="pad">
      <stop offset="0.0" stop-color="#262626"/>
      <stop offset="1.0" stop-color="#000000"/>
    </radialGradient>
    <radialGradient cx="0" cy="0" gradientTransform="matrix(0.0075, 3.0E-4, -4.0E-4, 0.0073, 0.45, 12.0)" gradientUnits="userSpaceOnUse" id="gradient48" r="819.2" spreadMethod="pad">
      <stop offset="0.0" stop-color="#262626"/>
      <stop offset="1.0" stop-color="#000000"/>
    </radialGradient>
    <radialGradient cx="0" cy="0" gradientTransform="matrix(0.0059, 2.0E-4, -3.0E-4, 0.0057, -0.3, -13.9)" gradientUnits="userSpaceOnUse" id="gradient49" r="819.2" spreadMethod="pad">
      <stop offset="0.0" stop-color="#262626"/>
      <stop offset="1.0" stop-color="#000000"/>
    </radialGradient>
    <radialGradient cx="0" cy="0" gradientTransform="matrix(0.0077, 0.0, 0.0, 0.0077, -4.5, -11.0)" gradientUnits="userSpaceOnUse" id="gradient50" r="819.2" spreadMethod="pad">
      <stop offset="0.0" stop-color="#403726"/>
      <stop offset="1.0" stop-color="#10100a"/>
    </radialGradient>
    <radialGradient cx="0" cy="0" gradientTransform="matrix(0.0103, 4.0E-4, -5.0E-4, 0.0101, 3.05, 6.65)" gradientUnits="userSpaceOnUse" id="gradient51" r="819.2" spreadMethod="pad">
      <stop offset="0.0" stop-color="#403726"/>
      <stop offset="1.0" stop-color="#10100a"/>
    </radialGradient>
    <radialGradient cx="0" cy="0" gradientTransform="matrix(0.0146, 5.0E-4, -8.0E-4, 0.0142, 1.15, -5.65)" gradientUnits="userSpaceOnUse" id="gradient52" r="819.2" spreadMethod="pad">
      <stop offset="0.0" stop-color="#403726"/>
      <stop offset="1.0" stop-color="#10100a"/>
    </radialGradient>
    <radialGradient cx="0" cy="0" gradientTransform="matrix(0.0062, 2.0E-4, -3.0E-4, 0.0061, 8.1, -10.65)" gradientUnits="userSpaceOnUse" id="gradient53" r="819.2" spreadMethod="pad">
      <stop offset="0.0" stop-color="#403726"/>
      <stop offset="1.0" stop-color="#10100a"/>
    </radialGradient>
    <g id="sprite28" transform="matrix(1.0, 0.0, 0.0, 1.0, 2.55, 6.7)">
      <use ffdec:characterId="132" height="11.35" transform="matrix(1.0, 0.0, 0.0, 1.0, -2.55, -6.7)" width="7.9" xlink:href="#sprite29"/>
    </g>
    <g id="sprite29" transform="matrix(1.0, 0.0, 0.0, 1.0, 2.55, 6.7)">
      <use ffdec:characterId="131" height="11.35" transform="matrix(1.0, 0.0, 0.0, 1.0, -2.55, -6.7)" width="7.9" xlink:href="#shape20"/>
    </g>
    <g id="shape20" transform="matrix(1.0, 0.0, 0.0, 1.0, 2.55, 6.7)">
      <path d="M-2.55 -2.8 Q-2.45 -4.35 -1.45 -5.5 -0.3 -6.7 1.3 -6.7 2.9 -6.7 4.0 -5.5 5.15 -4.25 5.15 -2.55 L5.15 -2.25 Q1.55 -2.45 -0.1 -1.05 L-2.55 -2.8" fill="url(#gradient54)" fill-rule="evenodd" stroke="none"/>
      <path d="M5.25 0.65 L5.35 1.4 4.5 1.5 4.5 1.6 3.7 4.65 -0.6 3.7 -1.05 0.7 -1.3 0.5 -1.45 0.35 -2.3 -1.05 -2.55 -2.55 -2.55 -2.8 -0.1 -1.05 Q2.4 0.3 5.15 -0.15 L5.25 0.65" fill="url(#gradient55)" fill-rule="evenodd" stroke="none"/>
      <path d="M5.15 -2.25 L5.1 -1.85 5.0 -1.3 5.25 0.65 5.35 1.4 4.5 1.5 4.5 1.6 3.7 4.65 -0.6 3.7 -1.05 0.7 -1.3 0.5 -1.45 0.35 -2.3 -1.05 -2.55 -2.55 -2.55 -2.8 Q-2.45 -4.35 -1.45 -5.5 -0.3 -6.7 1.3 -6.7 2.9 -6.7 4.0 -5.5 5.15 -4.25 5.15 -2.55 L5.15 -2.25 M5.15 -0.15 L5.25 0.65" fill="none" stroke="#000000" stroke-linecap="round" stroke-linejoin="round" stroke-width="0.05"/>
      <path d="M5.15 -2.25 Q1.55 -2.45 -0.1 -1.05 2.4 0.3 5.15 -0.15" fill="none" stroke="#000000" stroke-linecap="round" stroke-linejoin="round" stroke-width="0.05"/>
    </g>
    <radialGradient cx="0" cy="0" gradientTransform="matrix(0.0101, 0.0, 0.0, 0.0101, 4.7, -2.65)" gradientUnits="userSpaceOnUse" id="gradient54" r="819.2" spreadMethod="pad">
      <stop offset="0.0" stop-color="#2b2b2b"/>
      <stop offset="0.6666666666666666" stop-color="#040404"/>
      <stop offset="1.0" stop-color="#404040"/>
    </radialGradient>
    <radialGradient cx="0" cy="0" gradientTransform="matrix(0.0086, 0.0, 0.0, 0.0086, 3.6, 0.45)" gradientUnits="userSpaceOnUse" id="gradient55" r="819.2" spreadMethod="pad">
      <stop offset="0.0" stop-color="#2b2b2b"/>
      <stop offset="0.6666666666666666" stop-color="#040404"/>
      <stop offset="1.0" stop-color="#404040"/>
    </radialGradient>
    <g id="sprite30" transform="matrix(1.0, 0.0, 0.0, 1.0, 4.0, 4.25)">
      <use ffdec:characterId="126" height="8.45" transform="matrix(1.0, 0.0, 0.0, 1.0, -4.0, -4.25)" width="8.0" xlink:href="#sprite31"/>
    </g>
    <g id="sprite31" transform="matrix(1.0, 0.0, 0.0, 1.0, 4.0, 4.25)">
      <use ffdec:characterId="125" height="8.45" transform="matrix(1.0, 0.0, 0.0, 1.0, -4.0, -4.25)" width="8.0" xlink:href="#shape21"/>
    </g>
    <g id="shape21" transform="matrix(1.0, 0.0, 0.0, 1.0, 4.0, 4.25)">
      <path d="M4.0 -2.85 L4.0 -2.35 Q3.95 -0.75 3.5 0.5 2.5 3.1 -0.25 4.2 L-0.3 4.1 -0.35 4.1 -4.0 2.0 Q-4.0 -1.8 0.7 -3.85 L3.95 -4.25 4.0 -2.85" fill="url(#gradient56)" fill-rule="evenodd" stroke="none"/>
      <path d="M4.0 -2.85 L3.95 -4.25 0.7 -3.85 Q-4.0 -1.8 -4.0 2.0 L-0.35 4.1 -0.3 4.1 -0.25 4.2 Q2.5 3.1 3.5 0.5 3.95 -0.75 4.0 -2.35 L4.0 -2.85 Z" fill="none" stroke="#000000" stroke-linecap="round" stroke-linejoin="round" stroke-width="0.05"/>
    </g>
    <radialGradient cx="0" cy="0" gradientTransform="matrix(0.0073, 2.0E-4, -4.0E-4, 0.0072, -0.45, -0.2)" gradientUnits="userSpaceOnUse" id="gradient56" r="819.2" spreadMethod="pad">
      <stop offset="0.0" stop-color="#403726"/>
      <stop offset="1.0" stop-color="#10100a"/>
    </radialGradient>
  </defs>
</svg>
