<?xml version="1.0" encoding="UTF-8" standalone="no"?>
<svg xmlns:ffdec="https://www.free-decompiler.com/flash" xmlns:xlink="http://www.w3.org/1999/xlink" ffdec:objectType="frame" height="985.9px" width="2159.9px" xmlns="http://www.w3.org/2000/svg">
  <g transform="matrix(2.0, 0.0, 0.0, 2.0, 1090.6, 485.9)">
    <use ffdec:characterId="3431" height="349.05" transform="matrix(1.0, 0.0, 0.0, 1.0, -422.05, -140.15)" width="844.1" xlink:href="#shape0"/>
    <use ffdec:characterId="2676" height="214.05" id="player5" transform="matrix(1.0, 0.0, 0.0, 1.0, -229.1, -226.25)" width="170.55" xlink:href="#sprite0"/>
    <use ffdec:characterId="2676" height="214.05" id="player6" transform="matrix(-1.0, 0.0, 0.0, 1.0, 227.9, -226.25)" width="170.55" xlink:href="#sprite0"/>
    <use ffdec:characterId="2676" height="214.05" id="player1" transform="matrix(1.0, 0.0, 0.0, 1.0, -289.1, -147.35)" width="170.55" xlink:href="#sprite0"/>
    <use ffdec:characterId="2676" height="214.05" id="player2" transform="matrix(-1.0, 0.0, 0.0, 1.0, 287.9, -147.35)" width="170.55" xlink:href="#sprite0"/>
    <use ffdec:characterId="2676" height="214.05" id="player3" transform="matrix(1.0, 0.0, 0.0, 1.0, -229.1, -73.75)" width="170.55" xlink:href="#sprite0"/>
    <use ffdec:characterId="2676" height="214.05" id="player4" transform="matrix(-1.0, 0.0, 0.0, 1.0, 227.9, -73.75)" width="170.55" xlink:href="#sprite0"/>
  </g>
  <defs>
    <g id="shape0" transform="matrix(1.0, 0.0, 0.0, 1.0, 422.05, 140.15)">
      <path d="M70.15 -74.85 L95.1 -81.95 115.3 -65.35 141.4 -66.55 148.5 -79.6 219.75 -85.55 224.5 -106.9 275.55 -116.4 286.25 -105.7 306.45 -104.5 320.65 -134.2 358.65 -140.15 422.05 -95.05 422.05 208.9 -422.05 208.9 -422.05 -101.5 -380.95 -127.05 -357.2 -120.0 -344.2 -100.95 -308.55 -98.6 -289.55 -112.85 -270.6 -112.85 -245.65 -85.55 -229.0 -83.15 -226.65 -65.35 -214.8 -62.95 -207.65 -74.85 -150.65 -76.05 -141.15 -64.15 -112.65 -64.15 -99.6 -77.2 -56.85 -86.7 -41.45 -72.45 -28.4 -79.6 27.6 -85.35 70.15 -74.85" fill="url(#gradient0)" fill-rule="evenodd" stroke="none"/>
      <path d="M141.3 -66.0 L141.4 -66.55 148.5 -79.6 161.1 -80.65 218.55 -58.25 218.55 -49.9 217.4 -48.75 141.3 -66.0 M227.45 -107.45 L267.25 -83.15 261.3 -60.6 220.2 -87.6 224.5 -106.9 227.45 -107.45 M231.65 -44.0 L283.85 -44.0 283.85 -36.85 318.3 -4.8 294.6 5.85 232.8 -34.5 231.65 -42.8 231.65 -44.0 M352.4 -115.25 L353.55 -116.4 388.0 -117.6 367.8 -44.0 336.95 -80.8 318.3 -126.9 352.4 -115.25 M350.35 -30.25 L375.25 -20.75 382.4 23.2 342.05 -1.75 338.45 -1.75 337.3 -13.6 337.3 -14.8 350.35 -30.25 M-366.65 -114.5 L-370.95 -116.95 -367.95 -122.35 -367.7 -123.1 -357.2 -120.0 -344.2 -100.95 -358.45 -80.75 -361.1 -80.3 -361.4 -80.25 -385.75 -97.4 -371.35 -109.0 -366.65 -114.5 M-378.6 -33.3 L-402.3 -74.85 -319.25 -54.65 -308.8 -71.4 -308.55 -71.25 -306.2 -46.35 -280.05 -22.6 -324.0 10.65 -352.5 2.35 -408.3 33.2 -378.6 -33.3 M-253.95 -77.2 L-267.0 -72.45 -287.25 -68.35 -299.05 -76.0 -275.35 -111.65 -257.5 -95.0 -255.15 -80.75 -253.95 -77.2 M-277.65 -44.1 L-293.15 -52.3 -251.6 -60.6 -251.6 -48.7 -280.05 -33.3 -277.65 -44.1" fill="#000000" fill-opacity="0.14117648" fill-rule="evenodd" stroke="none"/>
      <path d="M355.1 97.3 L357.5 97.3 422.05 87.05 422.05 208.9 -422.05 208.9 -422.05 92.1 -379.8 98.5 -348.95 115.1 -267.0 147.15 -265.85 148.35 -116.25 165.0 24.5 153.05 89.15 138.85 237.55 131.7 355.1 97.3" fill="url(#gradient1)" fill-rule="evenodd" stroke="none"/>
      <path d="M355.25 97.5 L355.1 97.3 357.5 97.3 369.6 95.4 353.95 115.7 333.75 152.5 322.6 170.3 348.6 172.65 357.3 176.6 375.9 167.05 381.55 162.2 382.4 163.2 412.05 142.4 412.65 141.2 422.05 115.8 422.05 169.25 408.5 177.4 407.9 178.0 377.15 181.95 377.65 185.75 398.45 202.95 398.45 208.9 371.4 208.9 357.5 198.8 356.3 197.6 333.15 186.9 308.7 186.1 281.5 201.15 236.4 202.35 234.1 205.15 238.6 208.9 221.65 208.9 176.4 188.1 175.8 188.1 136.65 172.65 136.5 172.35 102.8 188.7 91.35 208.9 18.1 208.9 -8.25 194.05 -38.05 196.3 -37.9 198.2 -44.6 208.9 -71.45 208.9 -63.4 195.2 -126.7 173.7 -134.65 190.45 -135.25 190.45 -153.95 199.3 -153.65 199.95 -138.35 208.9 -229.4 208.9 -275.95 189.9 -307.4 154.85 -340.2 139.3 -388.75 165.55 -405.2 208.9 -422.05 208.9 -422.05 162.55 -386.95 139.4 -331.95 121.75 -309.25 130.65 -312.35 131.45 -286.65 153.65 -269.4 175.65 -268.85 176.25 -207.65 196.1 -172.05 186.9 -138.4 162.55 -122.25 164.35 -123.25 168.8 -76.5 179.2 -14.75 183.35 22.05 181.0 50.05 195.1 50.55 194.05 93.3 179.8 140.8 139.45 140.65 136.4 174.1 134.75 167.5 142.4 166.3 143.0 154.55 158.15 155.65 159.0 185.9 172.1 196.25 178.8 253.6 182.75 256.0 182.75 293.4 171.5 311.8 144.2 312.35 143.0 337.9 109.75 338.5 109.15 355.25 97.5" fill="url(#gradient2)" fill-rule="evenodd" stroke="none"/>
      <path d="M365.8 147.15 L330.35 143.2 Q351.95 144.75 371.7 138.85 L391.9 116.3 382.4 143.6 365.8 147.15 M355.1 175.05 L382.4 162.6 374.1 173.3 356.3 182.8 334.9 182.8 312.0 172.75 326.6 173.3 Q341.15 177.6 355.1 175.05 M269.6 156.65 L253.0 179.2 181.75 190.5 134.95 186.8 Q191.0 182.65 247.05 169.7 L269.6 156.65 M-287.2 169.7 L-313.35 166.7 -290.95 182.6 Q-322.75 173.4 -334.7 160.2 L-364.35 135.3 -363.25 133.3 Q-341.8 150.05 -312.85 159.2 -272.5 170.5 -230.2 167.35 -263.9 174.95 -287.2 169.7 M-383.45 161.5 L-366.75 173.3 -333.5 182.8 -333.5 183.95 -364.35 182.75 -375.05 177.4 -383.45 161.5" fill="#c0fa85" fill-opacity="0.101960786" fill-rule="evenodd" stroke="none"/>
      <path d="M55.7 -13.0 Q54.55 -11.35 53.75 -12.85 52.75 -14.3 54.7 -14.5 L55.2 -14.55 Q56.45 -13.8 55.7 -13.0 M111.0 -29.95 L110.75 -28.8 110.35 -28.15 Q108.25 -26.55 106.9 -28.3 106.1 -29.35 106.65 -30.6 107.2 -31.8 108.7 -32.15 L109.2 -32.25 Q109.8 -31.6 110.4 -31.1 L111.0 -29.95 M91.25 -13.85 Q94.35 -7.25 97.65 -1.05 L93.6 1.25 Q93.45 1.2 93.45 0.95 68.05 15.4 42.45 27.4 L-36.8 24.15 -36.8 23.2 Q-3.25 24.7 29.95 24.2 61.25 12.6 92.35 -1.6 L91.25 -13.85 M135.45 -18.05 L136.0 -18.2 Q150.0 -3.3 163.95 10.35 L216.65 23.45 164.95 17.5 147.35 28.75 121.75 44.6 139.05 28.75 155.15 13.4 Q145.4 -1.4 135.45 -18.05 M188.55 -21.7 L189.25 -21.85 189.75 -21.95 190.45 -21.35 191.45 -20.3 Q191.75 -19.75 191.65 -19.2 L191.4 -18.55 189.2 -17.55 Q187.1 -16.75 186.15 -18.1 185.7 -18.4 185.65 -19.1 L185.85 -19.6 187.4 -21.05 188.55 -21.7 M229.45 -18.65 Q232.75 -18.35 231.65 -16.05 230.6 -13.75 228.1 -15.2 225.95 -16.2 228.35 -18.15 L229.45 -18.65 M213.65 1.05 Q212.85 -0.4 215.05 -0.45 217.3 -0.05 215.95 1.15 214.3 2.4 213.65 1.05 M217.6 41.4 Q218.45 41.55 219.05 42.1 219.7 42.65 218.75 43.4 L216.75 43.5 Q215.6 43.3 215.0 42.9 214.1 42.25 214.8 41.6 L215.6 41.1 217.6 41.4 M69.85 19.8 L70.75 19.55 71.2 19.45 Q73.55 18.95 72.85 20.2 71.95 21.6 70.6 20.95 68.85 20.2 69.85 19.8 M222.8 62.8 Q111.25 74.0 -0.35 77.0 -72.9 59.8 -135.15 28.75 -147.35 22.7 -159.1 16.1 L-270.95 24.0 -165.35 9.15 Q-156.0 -2.9 -146.8 -15.95 -150.75 -2.75 -154.9 9.45 -138.7 19.4 -121.5 27.35 L-121.45 27.35 -118.45 28.75 Q-60.05 55.85 11.0 70.0 117.0 69.7 222.8 62.8 M-178.85 -25.5 L-179.0 -26.0 -178.05 -26.8 -176.3 -27.65 -175.05 -27.95 -174.55 -27.9 Q-172.65 -26.65 -173.7 -25.2 -174.4 -23.95 -176.1 -24.1 -178.0 -24.0 -178.85 -25.5 M-106.95 -3.9 Q-104.4 -3.0 -105.65 -1.3 -106.9 0.35 -108.75 -1.6 -110.5 -3.35 -108.0 -3.75 L-106.95 -3.9 M-115.7 25.45 Q-116.45 26.85 -119.35 26.45 L-120.7 26.1 Q-122.45 25.45 -122.4 23.95 -122.25 23.05 -121.25 22.7 L-119.35 22.2 -117.35 23.1 Q-116.35 23.55 -115.9 23.95 -115.1 24.8 -115.7 25.45 M-160.1 37.5 L-160.15 37.95 Q-160.15 38.35 -160.5 38.9 -160.85 39.75 -162.15 40.15 L-165.35 40.9 -168.55 39.7 Q-170.1 38.8 -170.45 37.65 -170.65 36.5 -170.0 35.7 L-169.5 35.2 Q-169.1 34.95 -168.7 34.85 -168.15 34.5 -167.6 34.5 L-165.35 34.3 -165.35 34.25 -163.3 34.8 Q-162.5 35.05 -162.05 35.45 -161.4 35.8 -160.95 36.5 -160.45 36.9 -160.1 37.5 M-137.15 53.5 Q-137.15 54.0 -137.5 54.5 -137.95 55.25 -139.2 55.75 L-142.4 56.5 -145.65 55.3 Q-147.2 54.45 -147.55 53.35 -147.8 52.2 -147.0 51.45 L-146.55 50.95 -145.75 50.55 Q-145.2 50.2 -144.65 50.25 L-142.4 50.0 -142.35 49.9 Q-141.25 50.0 -140.3 50.45 -139.6 50.65 -139.1 51.05 L-137.95 52.05 -137.15 53.05 -137.15 53.5 M-87.0 61.9 Q-84.05 61.55 -84.1 63.15 -84.1 63.55 -85.05 63.7 -88.25 64.2 -88.05 62.7 -87.85 62.0 -87.0 61.9 M-186.8 57.9 L-186.7 57.45 -186.05 56.45 -185.2 56.05 -184.15 55.9 Q-181.7 56.1 -181.4 57.7 -180.95 58.85 -182.65 59.55 -184.75 60.4 -186.45 58.85 L-186.85 58.35 -186.8 57.9 M-321.65 51.15 Q-319.6 52.55 -321.55 53.35 -323.5 54.2 -324.25 52.65 -324.9 50.8 -322.15 51.15 L-321.65 51.15 M-292.5 60.0 Q-236.75 78.15 -172.75 84.65 L-245.9 80.8 Q-269.2 70.5 -292.5 60.0" fill="#000000" fill-opacity="0.15294118" fill-rule="evenodd" stroke="none"/>
    </g>
    <radialGradient cx="0" cy="0" gradientTransform="matrix(1.0E-4, -0.3304, 0.8539, 4.0E-4, -23.75, 112.8)" gradientUnits="userSpaceOnUse" id="gradient0" r="819.2" spreadMethod="pad">
      <stop offset="0.0" stop-color="#3a4334"/>
      <stop offset="0.45098039215686275" stop-color="#25211f"/>
      <stop offset="1.0" stop-color="#141812"/>
    </radialGradient>
    <radialGradient cx="0" cy="0" gradientTransform="matrix(1.0E-4, -0.2663, 0.666, 2.0E-4, -24.9, 89.05)" gradientUnits="userSpaceOnUse" id="gradient1" r="819.2" spreadMethod="pad">
      <stop offset="0.3686274509803922" stop-color="#52742e" stop-opacity="0.0"/>
      <stop offset="1.0" stop-color="#0e170b"/>
    </radialGradient>
    <linearGradient gradientTransform="matrix(9.0E-4, 0.0695, -0.5159, 0.0068, -0.05, 157.3)" gradientUnits="userSpaceOnUse" id="gradient2" spreadMethod="pad" x1="-819.2" x2="819.2">
      <stop offset="0.0" stop-color="#7a9c54" stop-opacity="0.18039216"/>
      <stop offset="1.0" stop-color="#7a9c54" stop-opacity="0.0"/>
    </linearGradient>
    <g id="sprite0" transform="matrix(1.0, 0.0, 0.0, 1.0, 50.0, 150.25)">
      <use ffdec:characterId="166" height="213.6" id="inner2" transform="matrix(1.0, 0.0, 0.0, 1.0, -46.65, -150.25)" width="146.55" xlink:href="#sprite1"/>
      <use ffdec:characterId="2675" height="130.05" id="shield" transform="matrix(1.0, 0.0, 0.0, 1.0, -50.0, -66.25)" width="170.55" xlink:href="#sprite19"/>
      <use ffdec:characterId="2674" height="68.8" id="speech" transform="matrix(-1.0, 0.0, 0.0, 1.0, 12.6, -101.25)" width="46.5" xlink:href="#sprite20"/>
    </g>
    <g id="sprite1" transform="matrix(1.0, 0.0, 0.0, 1.0, 46.2, 150.05)">
      <use ffdec:characterId="144" height="19.95" id="shadower" transform="matrix(1.0, 0.0, 0.0, 1.0, -32.5, 26.0)" width="65.05" xlink:href="#sprite2"/>
      <filter id="filter0"/>
      <use ffdec:characterId="130" filter="url(#filter0)" height="19.65" id="arm2" transform="matrix(0.7956, -0.0321, 0.0321, 0.7956, 4.7608, -26.1326)" width="7.1" xlink:href="#sprite3"/>
      <filter id="filter1"/>
      <use ffdec:characterId="121" filter="url(#filter1)" height="18.35" id="hand2" transform="matrix(-0.711, 0.3639, 0.3639, 0.711, 10.7442, -16.298)" width="7.05" xlink:href="#sprite5"/>
      <filter id="filter2"/>
      <use ffdec:characterId="124" filter="url(#filter2)" height="68.95" id="weapon2" transform="matrix(0.7573, 0.2574, -0.2574, 0.7573, 24.3602, -47.2321)" width="6.0" xlink:href="#sprite7"/>
      <filter id="filter3"/>
      <use ffdec:characterId="142" filter="url(#filter3)" height="5.3" id="foot2" transform="matrix(0.8, 0.0, 0.0, 0.8, 6.2701, 30.58)" width="11.75" xlink:href="#sprite9"/>
      <filter id="filter4"/>
      <use ffdec:characterId="130" filter="url(#filter4)" height="19.65" id="leg2" transform="matrix(0.7888, -0.544, 0.4534, 0.6573, -1.293, 0.2396)" width="7.1" xlink:href="#sprite3"/>
      <filter id="filter5"/>
      <use ffdec:characterId="139" filter="url(#filter5)" height="30.4" id="leg4" transform="matrix(0.7989, 0.013, -0.013, 0.7989, 5.8226, 9.2469)" width="9.25" xlink:href="#sprite11"/>
      <filter id="filter6"/>
      <use ffdec:characterId="142" filter="url(#filter6)" height="5.3" id="foot1" transform="matrix(0.998, -0.0312, 0.0312, 0.998, -16.9709, 34.9379)" width="11.75" xlink:href="#sprite9"/>
      <filter id="filter7"/>
      <use ffdec:characterId="130" filter="url(#filter7)" height="19.65" id="leg1" transform="matrix(1.1842, 0.166, -0.1383, 0.9869, -5.2483, -6.5606)" width="7.1" xlink:href="#sprite3"/>
      <filter id="filter8"/>
      <use ffdec:characterId="139" filter="url(#filter8)" height="30.4" id="leg3" transform="matrix(0.9291, 0.3639, -0.3639, 0.9291, -7.3423, 8.4533)" width="9.25" xlink:href="#sprite11"/>
      <filter id="filter9"/>
      <use ffdec:characterId="136" filter="url(#filter9)" height="32.85" id="chest" transform="matrix(0.9921, 0.1225, -0.1225, 0.9921, -7.3627, -34.3324)" width="19.85" xlink:href="#sprite13"/>
      <filter id="filter10"/>
      <use ffdec:characterId="133" filter="url(#filter10)" height="11.35" id="head" transform="matrix(1.0, 0.0, 0.0, 1.0, 2.2, -40.5)" width="7.9" xlink:href="#sprite15"/>
      <filter id="filter11"/>
      <use ffdec:characterId="130" filter="url(#filter11)" height="19.65" id="arm1" transform="matrix(0.8787, 0.4694, -0.4694, 0.8787, -5.619, -30.2776)" width="7.1" xlink:href="#sprite3"/>
      <filter id="filter12"/>
      <use ffdec:characterId="127" filter="url(#filter12)" height="8.45" id="shoulder" transform="matrix(1.0, 0.0, 0.0, 1.0, -8.55, -31.3)" width="8.0" xlink:href="#sprite17"/>
      <filter id="filter13"/>
      <use ffdec:characterId="124" filter="url(#filter13)" height="68.95" id="weapon1" transform="matrix(0.866, 0.5, -0.5, 0.866, 23.0967, -53.8064)" width="6.0" xlink:href="#sprite7"/>
      <filter id="filter14"/>
      <use ffdec:characterId="121" filter="url(#filter14)" height="18.35" id="hand1" transform="matrix(0.6858, -0.7255, 0.7255, 0.6858, -14.4732, -11.1497)" width="7.05" xlink:href="#sprite5"/>
    </g>
    <g id="sprite2" transform="matrix(1.0, 0.0, 0.0, 1.0, 32.5, 9.95)">
      <use ffdec:characterId="143" height="19.95" transform="matrix(1.0, 0.0, 0.0, 1.0, -32.5, -9.95)" width="65.05" xlink:href="#shape1"/>
    </g>
    <g id="shape1" transform="matrix(1.0, 0.0, 0.0, 1.0, 32.5, 9.95)">
      <path d="M1.45 8.25 Q-12.05 10.55 -22.0 9.8 -31.85 9.0 -32.45 5.6 -33.05 2.2 -24.0 -1.85 -14.9 -5.9 -1.4 -8.2 12.1 -10.55 22.0 -9.75 31.95 -9.0 32.5 -5.6 33.1 -2.2 24.0 1.85 14.95 5.9 1.45 8.25" fill="url(#gradient3)" fill-rule="evenodd" stroke="none"/>
    </g>
    <radialGradient cx="0" cy="0" gradientTransform="matrix(0.0432, -0.0074, 0.0018, 0.0106, 0.05, 0.0)" gradientUnits="userSpaceOnUse" id="gradient3" r="819.2" spreadMethod="pad">
      <stop offset="0.3333333333333333" stop-color="#000000" stop-opacity="0.68235296"/>
      <stop offset="0.8627450980392157" stop-color="#000000" stop-opacity="0.0"/>
      <stop offset="1.0" stop-color="#000000" stop-opacity="0.0"/>
    </radialGradient>
    <g id="sprite3" transform="matrix(1.0, 0.0, 0.0, 1.0, 3.55, 9.8)">
      <use ffdec:characterId="129" height="19.65" transform="matrix(1.0, 0.0, 0.0, 1.0, -3.55, -9.8)" width="7.1" xlink:href="#sprite4"/>
    </g>
    <g id="sprite4" transform="matrix(1.0, 0.0, 0.0, 1.0, 3.55, 9.8)">
      <use ffdec:characterId="128" height="19.65" transform="matrix(1.0, 0.0, 0.0, 1.0, -3.55, -9.8)" width="7.1" xlink:href="#shape2"/>
    </g>
    <g id="shape2" transform="matrix(1.0, 0.0, 0.0, 1.0, 3.55, 9.8)">
      <path d="M-3.5 4.0 L-3.55 3.6 -3.35 -0.7 Q-3.2 -2.85 -2.6 -4.1 L-2.2 -5.25 -1.8 -5.85 -0.5 -6.75 Q1.35 -7.55 3.3 -5.75 L3.45 -2.35 3.55 3.3 3.55 3.6 3.55 4.0 Q-0.2 6.9 -3.5 4.0" fill="url(#gradient4)" fill-rule="evenodd" stroke="none"/>
      <path d="M-3.5 4.0 L-3.55 3.6 -3.35 -0.7 Q-3.2 -2.85 -2.6 -4.1 L-2.2 -5.25 -1.8 -5.85 -0.5 -6.75 Q1.35 -7.55 3.3 -5.75 L3.45 -2.35 3.55 3.3 3.55 3.6 3.55 4.0" fill="none" stroke="#000000" stroke-linecap="round" stroke-linejoin="round" stroke-width="0.05"/>
      <path d="M3.55 4.0 Q-0.2 6.9 -3.5 4.0" fill="none" stroke="#000000" stroke-linecap="round" stroke-linejoin="round" stroke-width="0.05"/>
      <path d="M-3.5 -2.65 L-3.55 -2.9 -3.35 -5.7 Q-3.2 -7.1 -2.6 -7.9 L-2.2 -8.65 -1.8 -9.05 -0.5 -9.65 Q1.35 -10.15 3.3 -8.95 L3.45 -6.75 3.55 -3.1 3.55 -2.9 3.55 -2.65 Q-0.2 -0.75 -3.5 -2.65 M2.85 4.1 L2.3 6.5 Q1.8 8.45 0.45 9.85 L-0.5 9.5 Q-1.55 9.05 -1.9 8.15 -2.5 6.85 -2.6 5.5 L-2.8 4.0 Q-0.75 5.0 2.85 4.1" fill="url(#gradient5)" fill-rule="evenodd" stroke="none"/>
      <path d="M-3.5 -2.65 L-3.55 -2.9 -3.35 -5.7 Q-3.2 -7.1 -2.6 -7.9 L-2.2 -8.65 -1.8 -9.05 -0.5 -9.65 Q1.35 -10.15 3.3 -8.95 L3.45 -6.75 3.55 -3.1 3.55 -2.9 3.55 -2.65 M2.85 4.1 L2.3 6.5 Q1.8 8.45 0.45 9.85 L-0.5 9.5 Q-1.55 9.05 -1.9 8.15 -2.5 6.85 -2.6 5.5 L-2.8 4.0" fill="none" stroke="#000000" stroke-linecap="round" stroke-linejoin="round" stroke-width="0.05"/>
      <path d="M3.55 -2.65 Q-0.2 -0.75 -3.5 -2.65 M-2.8 4.0 Q-0.75 5.0 2.85 4.1" fill="none" stroke="#000000" stroke-linecap="round" stroke-linejoin="round" stroke-width="0.05"/>
    </g>
    <radialGradient cx="0" cy="0" gradientTransform="matrix(0.0189, -0.0017, 2.0E-4, 0.0292, -0.2, 16.65)" gradientUnits="userSpaceOnUse" id="gradient4" r="819.2" spreadMethod="pad">
      <stop offset="0.0" stop-color="#161616"/>
      <stop offset="1.0" stop-color="#000000"/>
    </radialGradient>
    <radialGradient cx="0" cy="0" gradientTransform="matrix(0.0189, -0.0011, 2.0E-4, 0.019, -0.2, 5.6)" gradientUnits="userSpaceOnUse" id="gradient5" r="819.2" spreadMethod="pad">
      <stop offset="0.0" stop-color="#161616"/>
      <stop offset="1.0" stop-color="#000000"/>
    </radialGradient>
    <g id="sprite5" transform="matrix(1.0, 0.0, 0.0, 1.0, 3.55, 9.15)">
      <use ffdec:characterId="120" height="18.35" transform="matrix(1.0, 0.0, 0.0, 1.0, -3.55, -9.15)" width="7.05" xlink:href="#sprite6"/>
    </g>
    <g id="sprite6" transform="matrix(1.0, 0.0, 0.0, 1.0, 3.55, 9.15)">
      <use ffdec:characterId="119" height="18.35" transform="matrix(1.0, 0.0, 0.0, 1.0, -3.55, -9.15)" width="7.05" xlink:href="#shape3"/>
    </g>
    <g id="shape3" transform="matrix(1.0, 0.0, 0.0, 1.0, 3.55, 9.15)">
      <path d="M2.0 4.95 L2.0 5.0 1.95 5.05 2.0 4.95" fill="url(#gradient6)" fill-rule="evenodd" stroke="none"/>
      <path d="M1.9 4.85 L2.0 4.9 2.0 4.95 1.9 4.85" fill="url(#gradient7)" fill-rule="evenodd" stroke="none"/>
      <path d="M3.0 -6.9 Q3.7 -4.25 3.45 -2.1 2.75 -0.55 2.4 0.8 0.9 3.15 1.9 4.85 L2.0 4.95 1.95 5.05 Q-0.9 6.25 -2.95 4.05 L-2.95 4.0 Q-2.25 1.55 -3.15 -1.05 L-3.0 -4.55 Q-2.8 -6.1 -0.75 -9.15 L3.0 -6.9" fill="url(#gradient8)" fill-rule="evenodd" stroke="none"/>
      <path d="M1.95 5.05 L0.9 6.85 1.3 8.4 0.15 9.2 -3.55 6.1 -2.95 4.05 Q-0.9 6.25 1.95 5.05" fill="url(#gradient9)" fill-rule="evenodd" stroke="none"/>
      <path d="M3.0 -6.9 Q3.7 -4.25 3.45 -2.1 2.75 -0.55 2.4 0.8 0.9 3.15 1.9 4.85 L2.0 4.95 2.0 5.0 1.95 5.05 0.9 6.85 1.3 8.4 0.15 9.2 -3.55 6.1 -2.95 4.05 -2.95 4.0 Q-2.25 1.55 -3.15 -1.05 L-3.0 -4.55 Q-2.8 -6.1 -0.75 -9.15 M2.0 4.9 L2.0 4.95 M1.95 5.05 Q-0.9 6.25 -2.95 4.05" fill="none" stroke="#000000" stroke-linecap="round" stroke-linejoin="round" stroke-width="0.05"/>
    </g>
    <radialGradient cx="0" cy="0" gradientTransform="matrix(0.0133, 0.0026, -0.0018, 0.0144, 0.8, -7.0)" gradientUnits="userSpaceOnUse" id="gradient6" r="819.2" spreadMethod="pad">
      <stop offset="0.0" stop-color="#161616"/>
      <stop offset="1.0" stop-color="#000000"/>
    </radialGradient>
    <radialGradient cx="0" cy="0" gradientTransform="matrix(0.0038, 7.0E-4, -5.0E-4, 0.0041, -0.45, 6.05)" gradientUnits="userSpaceOnUse" id="gradient7" r="819.2" spreadMethod="pad">
      <stop offset="0.0" stop-color="#161616"/>
      <stop offset="1.0" stop-color="#000000"/>
    </radialGradient>
    <radialGradient cx="0" cy="0" gradientTransform="matrix(0.0133, 0.0026, -0.0018, 0.0144, 0.8, -7.0)" gradientUnits="userSpaceOnUse" id="gradient8" r="819.2" spreadMethod="pad">
      <stop offset="0.0" stop-color="#262116"/>
      <stop offset="1.0" stop-color="#090906"/>
    </radialGradient>
    <radialGradient cx="0" cy="0" gradientTransform="matrix(0.0038, 7.0E-4, -5.0E-4, 0.0041, -0.45, 6.05)" gradientUnits="userSpaceOnUse" id="gradient9" r="819.2" spreadMethod="pad">
      <stop offset="0.0" stop-color="#262116"/>
      <stop offset="1.0" stop-color="#090906"/>
    </radialGradient>
    <g id="sprite7" transform="matrix(1.0, 0.0, 0.0, 1.0, 5.2, 36.9)">
      <use ffdec:characterId="123" height="68.95" transform="matrix(1.0, 0.0, 0.0, 1.0, -5.2, -36.9)" width="6.0" xlink:href="#sprite8"/>
    </g>
    <g id="sprite8" transform="matrix(1.0, 0.0, 0.0, 1.0, 3.75, 41.15)">
      <use ffdec:characterId="122" height="68.95" transform="matrix(1.0, 0.0, 0.0, 1.0, -3.75, -41.15)" width="6.0" xlink:href="#shape4"/>
    </g>
    <g id="shape4" transform="matrix(1.0, 0.0, 0.0, 1.0, 3.75, 41.15)">
      <path d="M1.35 10.2 L-0.15 27.1 Q-2.5 28.5 -3.75 27.1 -2.4 18.25 -1.55 9.95 L1.35 10.2" fill="url(#gradient10)" fill-rule="evenodd" stroke="none"/>
      <path d="M1.7 4.9 L1.35 10.2 -1.55 9.95 -1.1 5.05 1.7 4.9" fill="url(#gradient11)" fill-rule="evenodd" stroke="none"/>
      <path d="M-1.1 5.05 Q1.05 -20.55 -3.2 -41.15 L-0.15 -39.15 Q3.45 -25.1 1.7 4.9 L-1.1 5.05" fill="url(#gradient12)" fill-rule="evenodd" stroke="none"/>
      <path d="M-1.1 5.05 Q1.05 -20.55 -3.2 -41.15 L-0.15 -39.15 Q3.45 -25.1 1.7 4.9 L1.35 10.2 -0.15 27.1 Q-2.5 28.5 -3.75 27.1 -2.4 18.25 -1.55 9.95 L-1.1 5.05" fill="none" stroke="#000000" stroke-linecap="round" stroke-linejoin="round" stroke-width="0.05"/>
      <path d="M-1.1 5.05 L1.7 4.9 M-1.55 9.95 L1.35 10.2" fill="none" stroke="#000000" stroke-linecap="round" stroke-linejoin="round" stroke-width="0.05"/>
    </g>
    <linearGradient gradientTransform="matrix(0.0031, 0.0, 0.0, 0.0109, -1.2, 18.85)" gradientUnits="userSpaceOnUse" id="gradient10" spreadMethod="pad" x1="-819.2" x2="819.2">
      <stop offset="0.0" stop-color="#2c2c2c"/>
      <stop offset="1.0" stop-color="#0b0b0b"/>
    </linearGradient>
    <linearGradient gradientTransform="matrix(0.002, 0.0, 0.0, 0.0032, 0.05, 7.55)" gradientUnits="userSpaceOnUse" id="gradient11" spreadMethod="pad" x1="-819.2" x2="819.2">
      <stop offset="0.0" stop-color="#382020"/>
      <stop offset="1.0" stop-color="#0d0a0a"/>
    </linearGradient>
    <radialGradient cx="0" cy="0" gradientTransform="matrix(0.0419, 0.0, 0.0, 0.0419, -0.25, -29.25)" gradientUnits="userSpaceOnUse" id="gradient12" r="819.2" spreadMethod="pad">
      <stop offset="0.0" stop-color="#a7a59f"/>
      <stop offset="0.41568627450980394" stop-color="#624720"/>
      <stop offset="0.4666666666666667" stop-color="#2e1e07"/>
      <stop offset="0.7294117647058823" stop-color="#855f26"/>
      <stop offset="1.0" stop-color="#8d744e"/>
    </radialGradient>
    <g id="sprite9" transform="matrix(1.0, 0.0, 0.0, 1.0, 5.85, 2.65)">
      <use ffdec:characterId="141" height="5.3" transform="matrix(1.0, 0.0, 0.0, 1.0, -5.85, -2.65)" width="11.75" xlink:href="#sprite10"/>
    </g>
    <g id="sprite10" transform="matrix(1.0, 0.0, 0.0, 1.0, 5.85, 2.65)">
      <use ffdec:characterId="140" height="5.3" transform="matrix(1.0, 0.0, 0.0, 1.0, -5.85, -2.65)" width="11.75" xlink:href="#shape5"/>
    </g>
    <g id="shape5" transform="matrix(1.0, 0.0, 0.0, 1.0, 5.85, 2.65)">
      <path d="M-1.35 -2.65 L3.0 -2.4 5.05 -1.5 5.7 1.25 5.25 2.15 4.25 2.45 3.35 2.5 2.65 2.65 -5.7 1.2 -5.85 0.65 -5.6 -2.2 -1.35 -2.65" fill="url(#gradient13)" fill-rule="evenodd" stroke="none"/>
      <path d="M5.7 1.25 L5.85 2.0 5.9 2.2 4.25 2.45 2.65 2.65 3.35 2.5 4.25 2.45 5.25 2.15 5.7 1.25 M-5.7 1.2 L-5.85 1.15 -5.85 0.65 -5.7 1.2 M5.85 2.0 L5.25 2.15 5.85 2.0" fill="url(#gradient14)" fill-rule="evenodd" stroke="none"/>
      <path d="M-1.35 -2.65 L3.0 -2.4 5.05 -1.5 5.7 1.25 5.85 2.0 5.25 2.15 4.25 2.45 3.35 2.5 2.65 2.65 -5.7 1.2 -5.85 0.65 -5.6 -2.2" fill="none" stroke="#000000" stroke-linecap="round" stroke-linejoin="round" stroke-width="0.05"/>
    </g>
    <radialGradient cx="0" cy="0" gradientTransform="matrix(0.0102, -0.0022, 0.0029, 0.0122, 2.2, -1.4)" gradientUnits="userSpaceOnUse" id="gradient13" r="819.2" spreadMethod="pad">
      <stop offset="0.0" stop-color="#161616"/>
      <stop offset="1.0" stop-color="#000000"/>
    </radialGradient>
    <radialGradient cx="0" cy="0" gradientTransform="matrix(0.0114, 0.0, 0.0, 0.0114, -2.75, -1.4)" gradientUnits="userSpaceOnUse" id="gradient14" r="819.2" spreadMethod="pad">
      <stop offset="0.0" stop-color="#161616"/>
      <stop offset="1.0" stop-color="#000000"/>
    </radialGradient>
    <g id="sprite11" transform="matrix(1.0, 0.0, 0.0, 1.0, 4.6, 15.2)">
      <use ffdec:characterId="138" height="30.4" transform="matrix(1.0, 0.0, 0.0, 1.0, -4.6, -15.2)" width="9.25" xlink:href="#sprite12"/>
    </g>
    <g id="sprite12" transform="matrix(1.0, 0.0, 0.0, 1.0, 4.6, 15.2)">
      <use ffdec:characterId="137" height="30.4" transform="matrix(1.0, 0.0, 0.0, 1.0, -4.6, -15.2)" width="9.25" xlink:href="#shape6"/>
    </g>
    <g id="shape6" transform="matrix(1.0, 0.0, 0.0, 1.0, 4.6, 15.2)">
      <path d="M3.85 -11.35 L4.65 -5.5 4.05 -4.65 -1.3 -2.3 -4.5 -4.25 -4.6 -4.9 -3.9 -10.65 -1.0 -9.25 3.85 -11.35" fill="url(#gradient15)" fill-rule="evenodd" stroke="none"/>
      <path d="M2.85 4.95 L1.6 13.4 -0.1 15.2 -3.55 13.15 -3.6 4.8 Q-0.95 6.8 2.85 4.95" fill="url(#gradient16)" fill-rule="evenodd" stroke="none"/>
      <path d="M4.05 -4.65 L3.0 -0.15 2.85 4.95 Q-0.95 6.8 -3.6 4.8 L-3.7 0.5 -4.5 -4.25 -1.3 -2.3 4.05 -4.65" fill="url(#gradient17)" fill-rule="evenodd" stroke="none"/>
      <path d="M-3.9 -10.65 L-3.1 -14.5 -3.1 -14.55 -2.75 -14.8 Q-0.05 -13.75 2.3 -15.2 L3.85 -11.35 -1.0 -9.25 -3.9 -10.65" fill="url(#gradient18)" fill-rule="evenodd" stroke="none"/>
      <path d="M-3.9 -10.65 L-3.1 -14.5 -3.1 -14.55 -2.75 -14.8 Q-0.05 -13.75 2.3 -15.2 L3.85 -11.35 4.65 -5.5 4.05 -4.65 3.0 -0.15 2.85 4.95 1.6 13.4 -0.1 15.2 -3.55 13.15 -3.6 4.8 -3.7 0.5 -4.5 -4.25 -4.6 -4.9 -3.9 -10.65 -1.0 -9.25 3.85 -11.35 M-4.5 -4.25 L-1.3 -2.3 4.05 -4.65 M2.85 4.95 Q-0.95 6.8 -3.6 4.8" fill="none" stroke="#000000" stroke-linecap="round" stroke-linejoin="round" stroke-width="0.05"/>
    </g>
    <radialGradient cx="0" cy="0" gradientTransform="matrix(0.009, -3.0E-4, -2.0E-4, 0.0083, -2.0, -8.15)" gradientUnits="userSpaceOnUse" id="gradient15" r="819.2" spreadMethod="pad">
      <stop offset="0.0" stop-color="#161616"/>
      <stop offset="1.0" stop-color="#000000"/>
    </radialGradient>
    <radialGradient cx="0" cy="0" gradientTransform="matrix(0.0091, -3.0E-4, -2.0E-4, 0.0085, -1.2, 8.4)" gradientUnits="userSpaceOnUse" id="gradient16" r="819.2" spreadMethod="pad">
      <stop offset="0.0" stop-color="#161616"/>
      <stop offset="1.0" stop-color="#000000"/>
    </radialGradient>
    <radialGradient cx="0" cy="0" gradientTransform="matrix(0.0106, -3.0E-4, -2.0E-4, 0.0098, -1.8, -1.65)" gradientUnits="userSpaceOnUse" id="gradient17" r="819.2" spreadMethod="pad">
      <stop offset="0.0" stop-color="#262116"/>
      <stop offset="1.0" stop-color="#090906"/>
    </radialGradient>
    <radialGradient cx="0" cy="0" gradientTransform="matrix(0.0077, -2.0E-4, -2.0E-4, 0.0071, -2.05, -13.2)" gradientUnits="userSpaceOnUse" id="gradient18" r="819.2" spreadMethod="pad">
      <stop offset="0.0" stop-color="#262116"/>
      <stop offset="1.0" stop-color="#090906"/>
    </radialGradient>
    <g id="sprite13" transform="matrix(1.0, 0.0, 0.0, 1.0, 9.9, 16.4)">
      <use ffdec:characterId="135" height="32.85" transform="matrix(1.0, 0.0, 0.0, 1.0, -9.9, -16.4)" width="19.85" xlink:href="#sprite14"/>
    </g>
    <g id="sprite14" transform="matrix(1.0, 0.0, 0.0, 1.0, 9.9, 16.4)">
      <use ffdec:characterId="134" height="32.85" transform="matrix(1.0, 0.0, 0.0, 1.0, -9.9, -16.4)" width="19.85" xlink:href="#shape7"/>
    </g>
    <g id="shape7" transform="matrix(1.0, 0.0, 0.0, 1.0, 9.9, 16.4)">
      <path d="M7.85 -7.65 L7.5 -6.95 7.4 -7.8 7.85 -7.65" fill="#836201" fill-rule="evenodd" stroke="none"/>
      <path d="M-5.1 4.45 L-5.1 4.4 -4.95 4.45 -5.1 4.45" fill="url(#gradient19)" fill-rule="evenodd" stroke="none"/>
      <path d="M-5.85 -4.35 L-6.4 -5.55 -6.15 -5.6 -5.85 -4.35" fill="#333333" fill-rule="evenodd" stroke="none"/>
      <path d="M-6.2 -5.7 L-6.25 -5.7 -6.3 -5.7 -6.2 -5.7" fill="url(#gradient20)" fill-rule="evenodd" stroke="none"/>
      <path d="M7.5 -6.95 L7.75 -4.2 7.3 -3.3 7.1 -2.95 6.75 -2.1 Q5.35 -3.9 3.4 -3.9 1.35 -3.9 -0.1 -1.95 -1.5 0.05 -1.5 2.85 L-1.35 4.65 -4.95 4.45 Q-4.55 -0.75 -5.85 -4.35 L-6.15 -5.6 Q-3.4 -6.7 -2.4 -9.3 -1.95 -10.55 -1.9 -12.15 L5.2 -6.05 6.45 -9.5 7.4 -7.8 7.5 -6.95" fill="url(#gradient21)" fill-rule="evenodd" stroke="none"/>
      <path d="M6.75 -2.1 L6.55 -1.65 4.95 5.05 -1.35 4.65 -1.5 2.85 Q-1.5 0.05 -0.1 -1.95 1.35 -3.9 3.4 -3.9 5.35 -3.9 6.75 -2.1" fill="url(#gradient22)" fill-rule="evenodd" stroke="none"/>
      <path d="M5.7 10.05 L5.8 10.05 5.95 13.05 2.15 16.45 -5.0 12.6 -4.7 8.75 5.7 10.05" fill="url(#gradient23)" fill-rule="evenodd" stroke="none"/>
      <path d="M-1.75 -14.1 L-0.05 -16.4 4.4 -13.1 3.35 -12.35 -1.75 -14.1" fill="url(#gradient24)" fill-rule="evenodd" stroke="none"/>
      <path d="M-6.15 -5.6 L-6.2 -5.7 -6.3 -5.7 -9.9 -7.8 Q-9.9 -11.6 -5.2 -13.65 L-1.95 -14.05 -1.9 -12.65 -1.9 -12.15 Q-1.95 -10.55 -2.4 -9.3 -3.4 -6.7 -6.15 -5.6" fill="url(#gradient25)" fill-rule="evenodd" stroke="none"/>
      <path d="M4.95 5.05 L5.0 5.05 Q5.75 7.0 5.8 8.8 L5.7 10.05 -4.7 8.75 -5.1 4.45 -4.95 4.45 -1.35 4.65 4.95 5.05" fill="url(#gradient26)" fill-rule="evenodd" stroke="none"/>
      <path d="M-1.95 -14.05 L-1.75 -14.1 3.35 -12.35 5.4 -11.5 6.45 -9.5 5.2 -6.05 -1.9 -12.15 -1.9 -12.65 -1.95 -14.05" fill="url(#gradient27)" fill-rule="evenodd" stroke="none"/>
      <path d="M4.4 -13.1 L4.65 -13.1 Q9.15 -11.95 9.95 -9.1 L7.85 -7.65 7.4 -7.8 6.45 -9.5 5.4 -11.5 3.35 -12.35 4.4 -13.1" fill="url(#gradient28)" fill-rule="evenodd" stroke="none"/>
      <path d="M4.65 -13.1 Q9.15 -11.95 9.95 -9.1 L7.85 -7.65 7.5 -6.95 7.75 -4.2 7.3 -3.3 7.1 -2.95 6.75 -2.1 6.55 -1.65 4.95 5.05 5.0 5.05 Q5.75 7.0 5.8 8.8 L5.7 10.05 5.8 10.05 5.95 13.05 M-5.0 12.6 L-4.7 8.75 -5.1 4.45 -5.1 4.4 -4.95 4.45 Q-4.55 -0.75 -5.85 -4.35 L-6.15 -5.6 -6.2 -5.7 -6.25 -5.7 -6.3 -5.7 -9.9 -7.8 Q-9.9 -11.6 -5.2 -13.65 L-1.95 -14.05 -1.75 -14.1 -0.05 -16.4 4.4 -13.1 3.35 -12.35 5.4 -11.5 6.45 -9.5 7.4 -7.8 7.5 -6.95 M6.45 -9.5 L5.2 -6.05 -1.9 -12.15 Q-1.95 -10.55 -2.4 -9.3 -3.4 -6.7 -6.15 -5.6 M-1.35 4.65 L4.95 5.05 M-1.9 -12.15 L-1.9 -12.65 -1.95 -14.05 M-1.35 4.65 L-4.95 4.45 M3.35 -12.35 L-1.75 -14.1 M-4.7 8.75 L5.7 10.05" fill="none" stroke="#000000" stroke-linecap="round" stroke-linejoin="round" stroke-width="0.05"/>
    </g>
    <radialGradient cx="0" cy="0" gradientTransform="matrix(0.0103, 4.0E-4, -5.0E-4, 0.0101, 3.05, 6.65)" gradientUnits="userSpaceOnUse" id="gradient19" r="819.2" spreadMethod="pad">
      <stop offset="0.0" stop-color="#a89786"/>
      <stop offset="1.0" stop-color="#484037"/>
    </radialGradient>
    <radialGradient cx="0" cy="0" gradientTransform="matrix(0.0077, 0.0, 0.0, 0.0077, -4.5, -11.0)" gradientUnits="userSpaceOnUse" id="gradient20" r="819.2" spreadMethod="pad">
      <stop offset="0.0" stop-color="#454545"/>
      <stop offset="1.0" stop-color="#1b1b1b"/>
    </radialGradient>
    <radialGradient cx="0" cy="0" gradientTransform="matrix(0.0146, 5.0E-4, -8.0E-4, 0.0142, 1.15, -5.65)" gradientUnits="userSpaceOnUse" id="gradient21" r="819.2" spreadMethod="pad">
      <stop offset="0.0" stop-color="#262626"/>
      <stop offset="1.0" stop-color="#000000"/>
    </radialGradient>
    <radialGradient cx="0" cy="0" gradientTransform="matrix(0.0086, 0.0, 0.0, 0.0086, 3.0, 2.75)" gradientUnits="userSpaceOnUse" id="gradient22" r="819.2" spreadMethod="pad">
      <stop offset="0.0" stop-color="#262626"/>
      <stop offset="1.0" stop-color="#000000"/>
    </radialGradient>
    <radialGradient cx="0" cy="0" gradientTransform="matrix(0.0075, 3.0E-4, -4.0E-4, 0.0073, 0.45, 12.0)" gradientUnits="userSpaceOnUse" id="gradient23" r="819.2" spreadMethod="pad">
      <stop offset="0.0" stop-color="#262626"/>
      <stop offset="1.0" stop-color="#000000"/>
    </radialGradient>
    <radialGradient cx="0" cy="0" gradientTransform="matrix(0.0059, 2.0E-4, -3.0E-4, 0.0057, -0.3, -13.9)" gradientUnits="userSpaceOnUse" id="gradient24" r="819.2" spreadMethod="pad">
      <stop offset="0.0" stop-color="#262626"/>
      <stop offset="1.0" stop-color="#000000"/>
    </radialGradient>
    <radialGradient cx="0" cy="0" gradientTransform="matrix(0.0077, 0.0, 0.0, 0.0077, -4.5, -11.0)" gradientUnits="userSpaceOnUse" id="gradient25" r="819.2" spreadMethod="pad">
      <stop offset="0.0" stop-color="#403726"/>
      <stop offset="1.0" stop-color="#10100a"/>
    </radialGradient>
    <radialGradient cx="0" cy="0" gradientTransform="matrix(0.0103, 4.0E-4, -5.0E-4, 0.0101, 3.05, 6.65)" gradientUnits="userSpaceOnUse" id="gradient26" r="819.2" spreadMethod="pad">
      <stop offset="0.0" stop-color="#403726"/>
      <stop offset="1.0" stop-color="#10100a"/>
    </radialGradient>
    <radialGradient cx="0" cy="0" gradientTransform="matrix(0.0146, 5.0E-4, -8.0E-4, 0.0142, 1.15, -5.65)" gradientUnits="userSpaceOnUse" id="gradient27" r="819.2" spreadMethod="pad">
      <stop offset="0.0" stop-color="#403726"/>
      <stop offset="1.0" stop-color="#10100a"/>
    </radialGradient>
    <radialGradient cx="0" cy="0" gradientTransform="matrix(0.0062, 2.0E-4, -3.0E-4, 0.0061, 8.1, -10.65)" gradientUnits="userSpaceOnUse" id="gradient28" r="819.2" spreadMethod="pad">
      <stop offset="0.0" stop-color="#403726"/>
      <stop offset="1.0" stop-color="#10100a"/>
    </radialGradient>
    <g id="sprite15" transform="matrix(1.0, 0.0, 0.0, 1.0, 2.55, 6.7)">
      <use ffdec:characterId="132" height="11.35" transform="matrix(1.0, 0.0, 0.0, 1.0, -2.55, -6.7)" width="7.9" xlink:href="#sprite16"/>
    </g>
    <g id="sprite16" transform="matrix(1.0, 0.0, 0.0, 1.0, 2.55, 6.7)">
      <use ffdec:characterId="131" height="11.35" transform="matrix(1.0, 0.0, 0.0, 1.0, -2.55, -6.7)" width="7.9" xlink:href="#shape8"/>
    </g>
    <g id="shape8" transform="matrix(1.0, 0.0, 0.0, 1.0, 2.55, 6.7)">
      <path d="M-2.55 -2.8 Q-2.45 -4.35 -1.45 -5.5 -0.3 -6.7 1.3 -6.7 2.9 -6.7 4.0 -5.5 5.15 -4.25 5.15 -2.55 L5.15 -2.25 Q1.55 -2.45 -0.1 -1.05 L-2.55 -2.8" fill="url(#gradient29)" fill-rule="evenodd" stroke="none"/>
      <path d="M5.25 0.65 L5.35 1.4 4.5 1.5 4.5 1.6 3.7 4.65 -0.6 3.7 -1.05 0.7 -1.3 0.5 -1.45 0.35 -2.3 -1.05 -2.55 -2.55 -2.55 -2.8 -0.1 -1.05 Q2.4 0.3 5.15 -0.15 L5.25 0.65" fill="url(#gradient30)" fill-rule="evenodd" stroke="none"/>
      <path d="M5.15 -2.25 L5.1 -1.85 5.0 -1.3 5.25 0.65 5.35 1.4 4.5 1.5 4.5 1.6 3.7 4.65 -0.6 3.7 -1.05 0.7 -1.3 0.5 -1.45 0.35 -2.3 -1.05 -2.55 -2.55 -2.55 -2.8 Q-2.45 -4.35 -1.45 -5.5 -0.3 -6.7 1.3 -6.7 2.9 -6.7 4.0 -5.5 5.15 -4.25 5.15 -2.55 L5.15 -2.25 M5.15 -0.15 L5.25 0.65" fill="none" stroke="#000000" stroke-linecap="round" stroke-linejoin="round" stroke-width="0.05"/>
      <path d="M5.15 -2.25 Q1.55 -2.45 -0.1 -1.05 2.4 0.3 5.15 -0.15" fill="none" stroke="#000000" stroke-linecap="round" stroke-linejoin="round" stroke-width="0.05"/>
    </g>
    <radialGradient cx="0" cy="0" gradientTransform="matrix(0.0101, 0.0, 0.0, 0.0101, 4.7, -2.65)" gradientUnits="userSpaceOnUse" id="gradient29" r="819.2" spreadMethod="pad">
      <stop offset="0.0" stop-color="#2b2b2b"/>
      <stop offset="0.6666666666666666" stop-color="#040404"/>
      <stop offset="1.0" stop-color="#404040"/>
    </radialGradient>
    <radialGradient cx="0" cy="0" gradientTransform="matrix(0.0086, 0.0, 0.0, 0.0086, 3.6, 0.45)" gradientUnits="userSpaceOnUse" id="gradient30" r="819.2" spreadMethod="pad">
      <stop offset="0.0" stop-color="#2b2b2b"/>
      <stop offset="0.6666666666666666" stop-color="#040404"/>
      <stop offset="1.0" stop-color="#404040"/>
    </radialGradient>
    <g id="sprite17" transform="matrix(1.0, 0.0, 0.0, 1.0, 4.0, 4.25)">
      <use ffdec:characterId="126" height="8.45" transform="matrix(1.0, 0.0, 0.0, 1.0, -4.0, -4.25)" width="8.0" xlink:href="#sprite18"/>
    </g>
    <g id="sprite18" transform="matrix(1.0, 0.0, 0.0, 1.0, 4.0, 4.25)">
      <use ffdec:characterId="125" height="8.45" transform="matrix(1.0, 0.0, 0.0, 1.0, -4.0, -4.25)" width="8.0" xlink:href="#shape9"/>
    </g>
    <g id="shape9" transform="matrix(1.0, 0.0, 0.0, 1.0, 4.0, 4.25)">
      <path d="M4.0 -2.85 L4.0 -2.35 Q3.95 -0.75 3.5 0.5 2.5 3.1 -0.25 4.2 L-0.3 4.1 -0.35 4.1 -4.0 2.0 Q-4.0 -1.8 0.7 -3.85 L3.95 -4.25 4.0 -2.85" fill="url(#gradient31)" fill-rule="evenodd" stroke="none"/>
      <path d="M4.0 -2.85 L3.95 -4.25 0.7 -3.85 Q-4.0 -1.8 -4.0 2.0 L-0.35 4.1 -0.3 4.1 -0.25 4.2 Q2.5 3.1 3.5 0.5 3.95 -0.75 4.0 -2.35 L4.0 -2.85 Z" fill="none" stroke="#000000" stroke-linecap="round" stroke-linejoin="round" stroke-width="0.05"/>
    </g>
    <radialGradient cx="0" cy="0" gradientTransform="matrix(0.0073, 2.0E-4, -4.0E-4, 0.0072, -0.45, -0.2)" gradientUnits="userSpaceOnUse" id="gradient31" r="819.2" spreadMethod="pad">
      <stop offset="0.0" stop-color="#403726"/>
      <stop offset="1.0" stop-color="#10100a"/>
    </radialGradient>
  </defs>
</svg>
