<?xml version="1.0" encoding="UTF-8" standalone="no"?>
<svg xmlns:ffdec="https://www.free-decompiler.com/flash" xmlns:xlink="http://www.w3.org/1999/xlink" ffdec:objectType="frame" height="216.8px" width="635.1px" xmlns="http://www.w3.org/2000/svg">
  <g transform="matrix(2.0, 0.0, 0.0, 2.0, 12.9, 15.4)">
    <use ffdec:characterId="3364" height="108.4" transform="matrix(1.0, 0.0, 0.0, 1.0, -6.45, -7.7)" width="317.55" xlink:href="#shape0"/>
    <filter id="filter0">
      <feFlood flood-color="#000000" flood-opacity="1.0" result="filterResult0"/>
      <feOffset dx="3.5355799791601" dy="3.535487832104965" in="SourceGraphic" result="filterResult1"/>
      <feComposite in="filterResult0" in2="filterResult1" operator="out" result="filterResult2"/>
      <feConvolveMatrix divisor="81.0" in="filterResult2" kernelMatrix="1 1 1 1 1 1 1 1 1 1 1 1 1 1 1 1 1 1 1 1 1 1 1 1 1 1 1 1 1 1 1 1 1 1 1 1 1 1 1 1 1 1 1 1 1 1 1 1 1 1 1 1 1 1 1 1 1 1 1 1 1 1 1 1 1 1 1 1 1 1 1 1 1 1 1 1 1 1 1 1 1" order="9 9" result="filterResult3"/>
      <feComposite in="filterResult3" in2="SourceGraphic" operator="in" result="filterResult4"/>
      <feColorMatrix in="filterResult4" result="filterResult5" type="matrix" values="1 0 0 0 0,0 1 0 0 0,0 0 1 0 0,0 0 0 1.0078125 0"/>
      <feComposite in="filterResult5" in2="SourceGraphic" operator="over" result="filterResult6"/>
    </filter>
    <use ffdec:characterId="3363" filter="url(#filter0)" height="95.0" transform="matrix(1.0, 0.0, 0.0, 1.0, -0.5, -0.5)" width="306.5" xlink:href="#sprite0"/>
  </g>
  <defs>
    <g id="shape0" transform="matrix(1.0, 0.0, 0.0, 1.0, 6.45, 7.7)">
      <path d="M311.1 -7.7 L311.0 100.7 -6.45 100.7 -6.45 -7.7 311.1 -7.7" fill="url(#gradient0)" fill-rule="evenodd" stroke="none"/>
    </g>
    <linearGradient gradientTransform="matrix(0.0, -0.0662, 0.4701, 0.0, -74.0, 46.5)" gradientUnits="userSpaceOnUse" id="gradient0" spreadMethod="pad" x1="-819.2" x2="819.2">
      <stop offset="0.0" stop-color="#32333d"/>
      <stop offset="1.0" stop-color="#9aabb1"/>
    </linearGradient>
    <g id="sprite0" transform="matrix(1.0, 0.0, 0.0, 1.0, 153.25, 47.5)">
      <use ffdec:characterId="3362" height="95.0" transform="matrix(1.0, 0.0, 0.0, 1.0, -153.25, -47.5)" width="306.5" xlink:href="#shape1"/>
    </g>
    <g id="shape1" transform="matrix(1.0, 0.0, 0.0, 1.0, 153.25, 47.5)">
      <path d="M152.75 47.0 L-152.75 47.0 -152.75 -47.0 152.75 -47.0 152.75 47.0" fill="url(#gradient1)" fill-rule="evenodd" stroke="none"/>
      <path d="M152.75 47.0 L-152.75 47.0 -152.75 -47.0 152.75 -47.0 152.75 47.0 Z" fill="none" stroke="#000000" stroke-linecap="round" stroke-linejoin="round" stroke-width="1.0"/>
    </g>
    <radialGradient cx="0" cy="0" gradientTransform="matrix(0.2121, 0.0, 0.0, 0.071, 0.0, 0.0)" gradientUnits="userSpaceOnUse" id="gradient1" r="819.2" spreadMethod="pad">
      <stop offset="0.0" stop-color="#ffffff"/>
      <stop offset="1.0" stop-color="#a2a2a2"/>
    </radialGradient>
  </defs>
</svg>
