<?xml version="1.0" encoding="UTF-8" standalone="no"?>
<svg xmlns:ffdec="https://www.free-decompiler.com/flash" xmlns:xlink="http://www.w3.org/1999/xlink" ffdec:objectType="frame" height="24.7px" width="22.4px" xmlns="http://www.w3.org/2000/svg">
  <g transform="matrix(2.0, 0.0, 0.0, 2.0, 14.5, 10.6)">
    <use ffdec:characterId="560" height="12.35" transform="matrix(1.0, 0.0, 0.0, 1.0, -7.25, -5.3)" width="11.2" xlink:href="#shape0"/>
    <filter id="filter0">
      <feFlood flood-color="#00ffff" flood-opacity="1.0" result="filterResult0"/>
      <feComposite in="filterResult0" in2="SourceGraphic" operator="out" result="filterResult1"/>
      <feConvolveMatrix divisor="25.0" in="filterResult1" kernelMatrix="1 1 1 1 1 1 1 1 1 1 1 1 1 1 1 1 1 1 1 1 1 1 1 1 1" order="5 5" result="filterResult2"/>
      <feComposite in="filterResult2" in2="SourceGraphic" operator="in" result="filterResult3"/>
      <feComposite in="filterResult3" in2="SourceGraphic" operator="over" result="filterResult4"/>
      <feColorMatrix in="filterResult4" result="filterResult5" type="matrix" values="0 0 0 0 0.0,0 0 0 0 0.6,0 0 0 0 1.0,0 0 0 1 0"/>
      <feConvolveMatrix divisor="25.0" in="filterResult5" kernelMatrix="1 1 1 1 1 1 1 1 1 1 1 1 1 1 1 1 1 1 1 1 1 1 1 1 1" order="5 5" result="filterResult6"/>
      <feComposite in="filterResult4" in2="filterResult6" operator="over" result="filterResult7"/>
    </filter>
    <use ffdec:characterId="545" filter="url(#filter0)" height="8.3" transform="matrix(1.0, 0.0, 0.0, 1.0, -6.85, -5.15)" width="7.2" xlink:href="#sprite0"/>
  </g>
  <defs>
    <g id="shape0" transform="matrix(1.0, 0.0, 0.0, 1.0, 7.25, 5.3)">
      <path d="M2.4 -5.3 Q3.9 -4.25 3.95 -3.2 L3.95 -2.5 Q3.95 -0.2 3.4 1.6 2.1 5.35 -1.75 7.05 L-1.8 6.95 -1.95 6.95 -7.25 4.15 Q-7.3 2.4 -6.85 0.85 L-6.2 -0.7 Q-5.1 -2.85 -2.95 -4.6 L-2.35 -5.1 2.4 -5.3" fill="url(#gradient0)" fill-rule="evenodd" stroke="none"/>
      <path d="M2.4 -5.3 L-2.35 -5.1 -2.95 -4.6 Q-5.1 -2.85 -6.2 -0.7 L-6.85 0.85 Q-7.3 2.4 -7.25 4.15 L-1.95 6.95 -1.8 6.95 -1.75 7.05 Q2.1 5.35 3.4 1.6 3.95 -0.2 3.95 -2.5 L3.95 -3.2 Q3.9 -4.25 2.4 -5.3 Z" fill="none" stroke="#000000" stroke-linecap="round" stroke-linejoin="round" stroke-width="0.05"/>
    </g>
    <radialGradient cx="0" cy="0" gradientTransform="matrix(0.0119, 0.0, 0.0, 0.0119, -4.1, -2.4)" gradientUnits="userSpaceOnUse" id="gradient0" r="819.2" spreadMethod="pad">
      <stop offset="0.0" stop-color="#303950"/>
      <stop offset="1.0" stop-color="#1b161d"/>
    </radialGradient>
    <g id="sprite0" transform="matrix(1.0, 0.0, 0.0, 1.0, 3.6, 4.15)">
      <use ffdec:characterId="544" height="8.3" transform="matrix(1.0, 0.0, 0.0, 1.0, -3.6, -4.15)" width="7.2" xlink:href="#shape1"/>
    </g>
    <g id="shape1" transform="matrix(1.0, 0.0, 0.0, 1.0, 3.6, 4.15)">
      <path d="M-3.6 1.85 L-2.95 0.3 1.7 4.15 -3.6 1.85 M0.9 -4.1 L2.2 -4.15 3.6 1.3 0.3 -3.6 0.9 -4.1" fill="#ffffff" fill-rule="evenodd" stroke="none"/>
    </g>
  </defs>
</svg>
