<?xml version="1.0" encoding="UTF-8" standalone="no"?>
<svg xmlns:ffdec="https://www.free-decompiler.com/flash" xmlns:xlink="http://www.w3.org/1999/xlink" ffdec:objectType="frame" height="73.8px" width="228.1px" xmlns="http://www.w3.org/2000/svg">
  <g transform="matrix(2.0, 0.0, 0.0, 2.0, 108.7, 55.0)">
    <use ffdec:characterId="50" height="10.7" id="flasher" transform="matrix(1.7764, 0.0, 0.0, 1.7764, -27.2675, -20.2866)" width="31.2" xlink:href="#sprite0"/>
  </g>
  <defs>
    <g id="sprite0" transform="matrix(1.0, 0.0, 0.0, 1.0, 15.35, 5.65)">
      <use ffdec:characterId="49" height="10.7" transform="matrix(1.0, 0.0, 0.0, 1.0, -15.35, -5.65)" width="31.2" xlink:href="#shape0"/>
      <use ffdec:characterId="48" height="20.0" id="KN" transform="matrix(0.4716, 0.0, 0.0, 0.4716, -14.8598, -5.1665)" width="62.8" xlink:href="#sprite1"/>
      <use ffdec:characterId="46" height="9.45" transform="matrix(1.0, 0.0, 0.0, 1.0, -14.85, -5.2)" width="29.6" xlink:href="#shape2"/>
    </g>
    <g id="shape0" transform="matrix(1.0, 0.0, 0.0, 1.0, 15.35, 5.65)">
      <path d="M0.35 -0.15 Q-0.7 -1.0 -0.65 -2.3 -0.7 -3.15 -0.2 -3.85 0.3 -4.6 1.2 -4.95 L3.15 -5.3 Q5.05 -5.3 6.05 -4.45 7.05 -3.6 7.1 -2.1 L7.0 -1.75 6.7 -1.6 4.85 -1.55 Q4.65 -1.55 4.5 -1.65 4.35 -1.75 4.35 -1.95 L4.0 -2.6 4.0 -2.65 3.15 -2.85 2.15 -2.6 2.05 -2.45 2.15 -2.25 2.15 -2.2 3.65 -1.7 5.75 -1.0 6.95 0.05 6.95 0.1 Q7.35 0.75 7.4 1.75 7.4 2.7 6.85 3.5 6.35 4.3 5.4 4.7 L3.25 5.05 Q1.35 5.05 0.3 4.15 -0.8 3.25 -0.95 1.5 L-0.85 1.15 -0.55 1.0 1.25 0.8 1.55 0.9 1.75 1.2 Q1.85 1.9 2.25 2.25 2.6 2.55 3.3 2.55 L4.3 2.3 4.6 1.8 4.5 1.5 4.05 1.3 2.6 0.9 Q1.0 0.45 0.35 -0.15 M7.85 -2.3 Q7.8 -3.15 8.3 -3.85 8.75 -4.6 9.65 -4.95 L9.7 -4.95 11.65 -5.3 Q13.55 -5.3 14.55 -4.45 15.55 -3.6 15.6 -2.1 L15.5 -1.75 15.15 -1.6 13.35 -1.55 13.0 -1.65 Q12.85 -1.75 12.85 -1.95 L12.5 -2.6 12.5 -2.65 11.65 -2.85 10.65 -2.6 10.55 -2.45 10.65 -2.25 10.65 -2.2 Q10.95 -2.0 12.15 -1.7 L14.25 -1.0 Q15.0 -0.65 15.45 0.05 L15.45 0.1 Q15.85 0.75 15.85 1.75 15.85 2.7 15.35 3.5 14.85 4.3 13.9 4.7 L11.75 5.05 Q9.8 5.05 8.75 4.15 7.7 3.25 7.5 1.5 L7.65 1.15 Q7.75 1.0 7.95 1.0 L9.7 0.8 10.05 0.9 10.2 1.2 Q10.35 1.9 10.75 2.25 L11.75 2.55 12.8 2.3 13.1 1.8 13.0 1.5 13.0 1.55 12.55 1.3 11.1 0.9 Q9.45 0.45 8.85 -0.15 7.8 -1.0 7.85 -2.3 M-11.0 -4.8 L-9.8 -0.35 -8.6 -4.8 -8.45 -5.1 -8.15 -5.15 -5.4 -5.15 -5.05 -5.05 -4.95 -4.7 -4.95 4.45 -5.05 4.75 -5.4 4.9 -7.1 4.9 -7.45 4.75 -7.6 4.45 -7.6 1.05 -8.5 4.55 -8.65 4.8 -8.95 4.9 -10.7 4.9 -11.0 4.8 -11.15 4.55 -12.05 1.1 -12.05 4.45 -12.15 4.75 -12.5 4.9 -14.2 4.9 -14.55 4.75 -14.7 4.45 -14.7 -4.7 -14.55 -5.05 -14.2 -5.15 -11.45 -5.15 -11.2 -5.1 -11.0 -4.8 M-1.45 -5.05 L-1.3 -4.7 -1.3 4.45 -1.45 4.75 -1.8 4.9 -3.65 4.9 -3.95 4.75 -4.1 4.45 -4.1 -4.7 -3.95 -5.05 -3.65 -5.15 -1.8 -5.15 -1.45 -5.05" fill="#000000" fill-rule="evenodd" stroke="none"/>
      <path d="M2.5 -5.65 Q4.4 -5.65 5.4 -4.8 6.4 -3.95 6.5 -2.45 L6.35 -2.1 6.05 -1.95 4.2 -1.9 3.9 -2.0 3.7 -2.3 3.35 -3.0 2.5 -3.2 1.5 -2.95 1.4 -2.8 1.55 -2.6 Q1.85 -2.35 3.0 -2.05 L5.15 -1.35 5.1 -1.4 6.3 -0.3 Q6.7 0.4 6.75 1.4 6.75 2.35 6.2 3.15 L6.25 3.15 Q5.7 3.95 4.8 4.35 L2.6 4.7 Q0.7 4.7 -0.35 3.8 -1.45 2.85 -1.6 1.15 L-1.5 0.8 Q-1.4 0.65 -1.2 0.65 L0.6 0.45 0.9 0.55 1.1 0.85 Q1.2 1.55 1.6 1.9 L2.65 2.2 3.7 1.95 3.95 1.45 3.9 1.15 3.9 1.2 Q3.75 1.05 3.45 0.95 L2.0 0.55 Q0.35 0.1 -0.3 -0.5 -1.3 -1.35 -1.3 -2.65 -1.3 -3.5 -0.8 -4.2 L0.55 -5.35 2.5 -5.65 M9.05 -5.35 L11.0 -5.65 Q12.9 -5.65 13.9 -4.8 14.9 -3.95 15.0 -2.45 L14.85 -2.1 14.55 -1.95 12.7 -1.9 12.35 -2.0 Q12.2 -2.1 12.2 -2.3 L11.85 -3.0 11.0 -3.2 10.0 -2.95 9.9 -2.8 10.0 -2.6 Q10.3 -2.35 11.5 -2.05 L13.6 -1.35 13.6 -1.4 14.8 -0.3 Q15.2 0.4 15.25 1.4 15.25 2.35 14.7 3.15 14.2 3.95 13.25 4.35 L11.1 4.7 Q9.2 4.7 8.15 3.8 7.05 2.85 6.9 1.15 L7.0 0.8 Q7.1 0.65 7.3 0.65 L9.1 0.45 9.4 0.55 9.6 0.85 Q9.7 1.55 10.1 1.9 10.45 2.2 11.15 2.2 L12.15 1.95 12.45 1.45 12.4 1.2 12.35 1.15 11.9 0.95 10.45 0.55 Q8.85 0.1 8.2 -0.5 7.15 -1.35 7.2 -2.65 7.2 -3.5 7.7 -4.2 8.15 -4.95 9.05 -5.35 M-14.85 -5.55 L-12.1 -5.55 -11.8 -5.45 -11.65 -5.15 -10.45 -0.7 -9.25 -5.15 -9.1 -5.45 -8.8 -5.55 -6.05 -5.55 -5.7 -5.4 -5.55 -5.05 -5.55 4.05 -5.7 4.4 -6.05 4.55 -7.75 4.55 -8.1 4.4 -8.25 4.05 -8.25 0.7 -9.1 4.2 -9.3 4.45 -9.55 4.55 -11.35 4.55 -11.65 4.45 -11.8 4.2 -12.65 0.75 -12.65 4.05 -12.8 4.4 -13.15 4.55 -14.85 4.55 -15.2 4.4 -15.35 4.05 -15.35 -5.05 -15.2 -5.4 -14.85 -5.55 M-2.45 -5.55 L-2.1 -5.4 -1.95 -5.05 -1.95 4.05 -2.1 4.4 -2.45 4.55 -4.25 4.55 -4.6 4.4 -4.75 4.05 -4.75 -5.05 -4.6 -5.4 -4.25 -5.55 -2.45 -5.55" fill="#000000" fill-rule="evenodd" stroke="none"/>
    </g>
    <g id="sprite1" transform="matrix(1.0, 0.0, 0.0, 1.0, 31.4, 10.0)">
      <use ffdec:characterId="47" height="20.0" transform="matrix(1.0, 0.0, 0.0, 1.0, -31.4, -10.0)" width="62.8" xlink:href="#shape1"/>
    </g>
    <g id="shape1" transform="matrix(1.0, 0.0, 0.0, 1.0, 31.4, 10.0)">
      <path d="M2.7 -3.7 Q3.4 -3.1 6.25 -2.4 9.1 -1.75 10.5 -1.0 11.85 -0.3 12.65 0.95 13.4 2.2 13.4 4.0 13.4 5.7 12.45 7.15 11.55 8.6 9.85 9.3 8.15 10.0 5.65 10.0 2.0 10.0 0.0 8.3 -1.95 6.6 -2.3 3.35 L1.45 3.0 Q1.8 4.9 2.85 5.8 3.9 6.7 5.7 6.7 7.6 6.7 8.55 5.9 9.5 5.1 9.5 4.05 9.5 3.35 9.1 2.85 8.7 2.4 7.7 2.05 L4.55 1.2 Q1.4 0.4 0.15 -0.75 -1.65 -2.3 -1.65 -4.6 -1.65 -6.1 -0.8 -7.35 0.05 -8.65 1.65 -9.35 3.2 -10.0 5.45 -10.0 9.05 -10.0 10.9 -8.4 12.75 -6.8 12.85 -4.15 L8.95 -4.0 Q8.7 -5.45 7.85 -6.1 7.05 -6.8 5.4 -6.8 3.7 -6.8 2.7 -6.1 2.1 -5.65 2.1 -4.9 2.1 -4.2 2.7 -3.7 M16.35 -4.6 Q16.35 -6.1 17.2 -7.35 18.05 -8.65 19.65 -9.35 L23.45 -10.0 Q27.05 -10.0 28.9 -8.4 30.75 -6.8 30.85 -4.15 L26.95 -4.0 Q26.7 -5.45 25.85 -6.1 25.05 -6.8 23.4 -6.8 21.7 -6.8 20.7 -6.1 20.1 -5.65 20.1 -4.9 20.1 -4.2 20.7 -3.7 21.4 -3.1 24.25 -2.4 27.1 -1.75 28.5 -1.0 29.85 -0.3 30.65 0.95 31.4 2.2 31.4 4.0 31.4 5.7 30.45 7.15 29.55 8.6 27.85 9.3 26.15 10.0 23.65 10.0 20.0 10.0 18.0 8.3 16.05 6.6 15.7 3.35 L19.45 3.0 Q19.8 4.9 20.85 5.8 21.9 6.7 23.7 6.7 25.6 6.7 26.55 5.9 27.5 5.1 27.5 4.05 27.5 3.35 27.1 2.85 26.7 2.4 25.7 2.05 L22.55 1.2 Q19.4 0.4 18.15 -0.75 16.35 -2.3 16.35 -4.6 M-25.55 -9.7 L-22.05 3.5 -18.55 -9.7 -12.7 -9.7 -12.7 9.65 -16.35 9.65 -16.35 -5.55 -20.2 9.65 -23.95 9.65 -27.75 -5.55 -27.75 9.65 -31.4 9.65 -31.4 -9.7 -25.55 -9.7 M-5.05 -9.7 L-5.05 9.65 -8.95 9.65 -8.95 -9.7 -5.05 -9.7" fill="#663366" fill-rule="evenodd" stroke="none"/>
    </g>
    <g id="shape2" transform="matrix(1.0, 0.0, 0.0, 1.0, 14.85, 5.2)">
      <path d="M1.25 -2.2 Q1.55 -1.95 2.9 -1.6 L4.9 -0.95 5.9 -0.05 Q6.25 0.55 6.25 1.4 6.25 2.2 5.85 2.9 L4.6 3.9 2.6 4.25 Q0.9 4.25 -0.05 3.45 -1.0 2.65 -1.15 1.1 L0.65 0.95 Q0.8 1.8 1.3 2.25 1.75 2.65 2.65 2.7 3.5 2.7 4.0 2.3 L4.45 1.45 4.25 0.85 3.6 0.5 2.1 0.1 Q0.6 -0.3 0.0 -0.85 -0.85 -1.55 -0.8 -2.65 -0.85 -3.35 -0.4 -3.95 L0.75 -4.9 2.5 -5.2 Q4.2 -5.2 5.1 -4.45 5.95 -3.7 6.0 -2.45 L4.2 -2.35 3.65 -3.35 Q3.3 -3.7 2.5 -3.7 1.7 -3.7 1.25 -3.35 0.95 -3.15 0.95 -2.8 0.95 -2.45 1.25 -2.2 M9.2 -4.9 L11.0 -5.2 Q12.7 -5.2 13.6 -4.45 14.45 -3.7 14.5 -2.45 L12.65 -2.35 12.15 -3.35 11.0 -3.7 9.7 -3.35 Q9.4 -3.15 9.45 -2.8 9.4 -2.45 9.7 -2.2 10.05 -1.95 11.4 -1.6 L13.4 -0.95 14.4 -0.05 Q14.75 0.55 14.75 1.4 L14.3 2.9 Q13.9 3.55 13.1 3.9 L11.1 4.25 Q9.35 4.25 8.45 3.45 7.5 2.65 7.35 1.1 L9.15 0.95 Q9.3 1.8 9.8 2.25 10.25 2.65 11.15 2.7 12.0 2.7 12.5 2.3 12.9 1.9 12.9 1.45 L12.75 0.85 12.1 0.5 10.6 0.1 Q9.1 -0.3 8.5 -0.85 7.65 -1.55 7.65 -2.65 7.65 -3.35 8.05 -3.95 L9.2 -4.9 M-2.45 -5.05 L-2.45 4.05 -4.25 4.05 -4.25 -5.05 -2.45 -5.05 M-6.05 -5.05 L-6.05 4.05 -7.75 4.05 -7.75 -3.1 -9.55 4.05 -11.35 4.05 -13.15 -3.1 -13.15 4.05 -14.85 4.05 -14.85 -5.05 -12.1 -5.05 -10.45 1.15 -8.8 -5.05 -6.05 -5.05" fill="url(#gradient0)" fill-rule="evenodd" stroke="none"/>
    </g>
    <linearGradient gradientTransform="matrix(0.0, 0.0058, -0.0181, 0.0, -0.05, -0.5)" gradientUnits="userSpaceOnUse" id="gradient0" spreadMethod="pad" x1="-819.2" x2="819.2">
      <stop offset="0.0" stop-color="#ffffff" stop-opacity="0.0"/>
      <stop offset="1.0" stop-color="#ffffff" stop-opacity="0.49019608"/>
    </linearGradient>
  </defs>
</svg>
