<?xml version="1.0" encoding="UTF-8" standalone="no"?>
<svg xmlns:ffdec="https://www.free-decompiler.com/flash" xmlns:xlink="http://www.w3.org/1999/xlink" ffdec:objectType="frame" height="405.3px" width="444.1px" xmlns="http://www.w3.org/2000/svg">
  <g transform="matrix(2.0, 0.0, 0.0, 2.0, -29.3, -133.8)">
    <clipPath id="clipPath0" transform="matrix(1.0, 0.0, 0.0, 1.0, 0.0, 0.0)">
      <path d="M52.5 198.45 Q51.65 225.6 81.45 243.5 111.25 261.35 151.55 254.15 191.8 246.95 213.35 222.25 234.9 197.5 220.25 168.25 205.55 139.0 178.5 125.3 151.45 111.6 121.7 116.4 91.95 121.2 72.65 146.2 53.35 171.2 52.55 198.35" fill="#0033ff" fill-rule="evenodd" stroke="none"/>
      <path d="M52.55 198.35 Q53.35 171.2 72.65 146.2 91.95 121.2 121.7 116.4 151.45 111.6 178.5 125.3 205.55 139.0 220.25 168.25 234.9 197.5 213.35 222.25 191.8 246.95 151.55 254.15 111.25 261.35 81.45 243.5 51.65 225.6 52.5 198.45" fill="none" stroke="#000000" stroke-linecap="round" stroke-linejoin="round" stroke-opacity="0.0" stroke-width="0.0"/>
    </clipPath>
    <g clip-path="url(#clipPath0)">
      <use ffdec:characterId="3631" height="170.65" transform="matrix(1.0, 0.0, 0.0, 1.0, 41.0, 98.9)" width="195.7" xlink:href="#shape0"/>
      <use ffdec:characterId="3630" height="95.1" transform="matrix(0.9954, -0.0923, 0.0923, 0.9954, 30.85, 103.55)" width="174.5" xlink:href="#sprite0"/>
    </g>
  </g>
  <defs>
    <g id="shape0" transform="matrix(1.0, 0.0, 0.0, 1.0, -41.0, -98.9)">
      <path d="M236.7 196.6 Q236.7 237.3 203.15 248.0 168.95 259.1 130.85 267.25 92.8 275.05 67.05 256.15 41.0 237.3 41.0 196.6 41.0 156.2 69.65 127.55 98.3 98.9 139.0 98.9 179.4 98.9 208.05 127.55 236.7 156.2 236.7 196.6" fill="url(#gradient0)" fill-rule="evenodd" stroke="none"/>
    </g>
    <radialGradient cx="0" cy="0" gradientTransform="matrix(0.1765, -0.0312, 0.0222, 0.1253, 130.2, 162.7)" gradientUnits="userSpaceOnUse" id="gradient0" r="819.2" spreadMethod="pad">
      <stop offset="0.5607843137254902" stop-color="#220000"/>
      <stop offset="1.0" stop-color="#ff0000"/>
    </radialGradient>
    <g id="sprite0" transform="matrix(1.0, 0.0, 0.0, 1.0, 0.0, 0.0)">
      <use ffdec:characterId="3629" height="95.1" transform="matrix(1.0, 0.0, 0.0, 1.0, 0.0, 0.0)" width="174.5" xlink:href="#shape1"/>
    </g>
    <g id="shape1" transform="matrix(1.0, 0.0, 0.0, 1.0, 0.0, 0.0)">
      <path d="M172.25 45.25 Q163.8 65.1 144.25 74.9 126.0 84.35 105.2 85.3 88.9 85.65 72.6 83.7 50.15 80.1 28.0 85.95 15.0 89.2 2.6 94.1 1.3 94.4 0.0 95.1 0.35 87.9 1.3 81.4 6.2 51.1 28.65 28.65 57.3 0.0 98.0 0.0 138.4 0.0 167.05 28.65 L170.95 32.55 174.5 36.45 172.25 45.25" fill="url(#gradient1)" fill-rule="evenodd" stroke="none"/>
    </g>
    <radialGradient cx="0" cy="0" fx="227.20000000000002" fy="0" gradientTransform="matrix(0.0269, 0.1006, -0.1716, 0.046, 71.3, 3.25)" gradientUnits="userSpaceOnUse" id="gradient1" r="819.2" spreadMethod="pad">
      <stop offset="0.0" stop-color="#ffffff" stop-opacity="0.0"/>
      <stop offset="1.0" stop-color="#f0c931" stop-opacity="0.6431373"/>
    </radialGradient>
  </defs>
</svg>
