<?xml version="1.0" encoding="UTF-8" standalone="no"?>
<svg xmlns:ffdec="https://www.free-decompiler.com/flash" xmlns:xlink="http://www.w3.org/1999/xlink" ffdec:objectType="frame" height="405.3px" width="444.1px" xmlns="http://www.w3.org/2000/svg">
  <g transform="matrix(2.0, 0.0, 0.0, 2.0, -29.3, -133.8)">
    <clipPath id="clipPath0" transform="matrix(1.0, 0.0, 0.0, 1.0, 0.0, 0.0)">
      <path d="M52.3 193.8 Q50.25 222.65 76.65 242.45 103.0 262.2 144.25 255.8 185.45 249.4 211.0 226.7 236.5 204.0 223.75 173.75 211.0 143.5 184.8 127.3 158.6 111.1 127.35 114.3 96.1 117.5 75.2 141.2 54.3 164.95 52.3 193.8" fill="#0033ff" fill-rule="evenodd" stroke="none"/>
      <path d="M52.3 193.8 Q54.3 164.95 75.2 141.2 96.1 117.5 127.35 114.3 158.6 111.1 184.8 127.3 211.0 143.5 223.75 173.75 236.5 204.0 211.0 226.7 185.45 249.4 144.25 255.8 103.0 262.2 76.65 242.45 50.25 222.65 52.3 193.8 Z" fill="none" stroke="#000000" stroke-linecap="round" stroke-linejoin="round" stroke-opacity="0.0" stroke-width="0.0"/>
    </clipPath>
    <g clip-path="url(#clipPath0)">
      <use ffdec:characterId="3631" height="170.65" transform="matrix(1.0, 0.0, 0.0, 1.0, 41.0, 98.9)" width="195.7" xlink:href="#shape0"/>
      <use ffdec:characterId="3630" height="95.1" transform="matrix(0.9989, -0.0444, 0.0444, 0.9989, 35.9, 101.0)" width="174.5" xlink:href="#sprite0"/>
    </g>
  </g>
  <defs>
    <g id="shape0" transform="matrix(1.0, 0.0, 0.0, 1.0, -41.0, -98.9)">
      <path d="M236.7 196.6 Q236.7 237.3 203.15 248.0 168.95 259.1 130.85 267.25 92.8 275.05 67.05 256.15 41.0 237.3 41.0 196.6 41.0 156.2 69.65 127.55 98.3 98.9 139.0 98.9 179.4 98.9 208.05 127.55 236.7 156.2 236.7 196.6" fill="url(#gradient0)" fill-rule="evenodd" stroke="none"/>
    </g>
    <radialGradient cx="0" cy="0" gradientTransform="matrix(0.1765, -0.0312, 0.0222, 0.1253, 130.2, 162.7)" gradientUnits="userSpaceOnUse" id="gradient0" r="819.2" spreadMethod="pad">
      <stop offset="0.5607843137254902" stop-color="#220000"/>
      <stop offset="1.0" stop-color="#ff0000"/>
    </radialGradient>
    <g id="sprite0" transform="matrix(1.0, 0.0, 0.0, 1.0, 0.0, 0.0)">
      <use ffdec:characterId="3629" height="95.1" transform="matrix(1.0, 0.0, 0.0, 1.0, 0.0, 0.0)" width="174.5" xlink:href="#shape1"/>
    </g>
    <g id="shape1" transform="matrix(1.0, 0.0, 0.0, 1.0, 0.0, 0.0)">
      <path d="M172.25 45.25 Q163.8 65.1 144.25 74.9 126.0 84.35 105.2 85.3 88.9 85.65 72.6 83.7 50.15 80.1 28.0 85.95 15.0 89.2 2.6 94.1 1.3 94.4 0.0 95.1 0.35 87.9 1.3 81.4 6.2 51.1 28.65 28.65 57.3 0.0 98.0 0.0 138.4 0.0 167.05 28.65 L170.95 32.55 174.5 36.45 172.25 45.25" fill="url(#gradient1)" fill-rule="evenodd" stroke="none"/>
    </g>
    <radialGradient cx="0" cy="0" fx="227.20000000000002" fy="0" gradientTransform="matrix(0.0269, 0.1006, -0.1716, 0.046, 71.3, 3.25)" gradientUnits="userSpaceOnUse" id="gradient1" r="819.2" spreadMethod="pad">
      <stop offset="0.0" stop-color="#ffffff" stop-opacity="0.0"/>
      <stop offset="1.0" stop-color="#f0c931" stop-opacity="0.69803923"/>
    </radialGradient>
  </defs>
</svg>
