<?xml version="1.0" encoding="UTF-8" standalone="no"?>
<svg xmlns:ffdec="https://www.free-decompiler.com/flash" xmlns:xlink="http://www.w3.org/1999/xlink" ffdec:objectType="frame" height="39.3px" width="26.1px" xmlns="http://www.w3.org/2000/svg">
  <g transform="matrix(2.0, 0.0, 0.0, 2.0, 13.6, 26.3)">
    <use ffdec:characterId="1481" height="19.65" transform="matrix(1.0, 0.0, 0.0, 1.0, -6.8, -13.15)" width="13.05" xlink:href="#shape0"/>
    <filter id="filter0">
      <feColorMatrix in="SourceGraphic" result="filterResult0" type="matrix" values="0 0 0 0 1.0,0 0 0 0 0.8,0 0 0 0 0.0,0 0 0 1 0"/>
      <feConvolveMatrix divisor="25.0" in="filterResult0" kernelMatrix="1 1 1 1 1 1 1 1 1 1 1 1 1 1 1 1 1 1 1 1 1 1 1 1 1" order="5 5" result="filterResult1"/>
      <feComposite in="SourceGraphic" in2="filterResult1" operator="over" result="filterResult2"/>
    </filter>
    <use ffdec:characterId="937" filter="url(#filter0)" height="8.15" transform="matrix(1.0, 0.0, 0.0, 1.0, -5.35, -8.15)" width="10.1" xlink:href="#sprite0"/>
  </g>
  <defs>
    <g id="shape0" transform="matrix(1.0, 0.0, 0.0, 1.0, 6.8, 13.15)">
      <path d="M-2.2 -7.9 L-1.85 -8.35 -1.8 -8.3 -1.95 -8.15 -2.2 -7.9" fill="#666666" fill-rule="evenodd" stroke="none"/>
      <path d="M4.05 -0.2 L4.05 0.0 4.0 0.0 4.05 -0.2 M-5.35 -6.5 L-5.3 -6.65 -5.2 -6.7 -5.35 -6.5 M-2.2 -7.9 L-1.95 -8.15 -2.2 -7.9 M-1.95 -8.15 L-1.8 -8.3 -1.95 -8.15" fill="#333333" fill-rule="evenodd" stroke="none"/>
      <path d="M4.05 0.0 L3.95 1.25 Q2.35 4.55 -0.4 6.5 -2.95 2.4 -6.7 1.0 L-6.8 -0.55 Q-6.85 -3.55 -5.35 -6.5 -2.95 -1.0 4.0 0.0 L4.05 0.0" fill="url(#gradient0)" fill-rule="evenodd" stroke="none"/>
      <path d="M6.2 -11.9 L6.25 -11.9 5.35 -6.45 4.95 -4.9 4.9 -4.6 6.2 -11.9" fill="#ffbbff" fill-rule="evenodd" stroke="none"/>
      <path d="M4.9 -4.6 L4.75 -4.25 Q1.2 -4.55 -1.95 -8.15 L-1.8 -8.3 -1.85 -8.35 -1.55 -9.7 -0.75 -13.15 6.2 -11.9 4.9 -4.6" fill="url(#gradient1)" fill-rule="evenodd" stroke="none"/>
      <path d="M6.2 -11.9 L6.25 -11.9 M4.9 -4.6 L4.75 -4.25 Q4.05 -1.45 4.05 -0.2 L4.05 0.0 3.95 1.25 Q2.35 4.55 -0.4 6.5 -2.95 2.4 -6.7 1.0 L-6.8 -0.55 Q-6.85 -3.55 -5.35 -6.5 L-5.3 -6.65 -5.2 -6.7 -2.2 -7.9 -1.85 -8.35 -1.55 -9.7 -0.75 -13.15 6.2 -11.9 4.9 -4.6 M4.0 0.0 L4.05 0.0 M-1.8 -8.3 L-1.85 -8.35" fill="none" stroke="#000000" stroke-linecap="round" stroke-linejoin="round" stroke-width="0.05"/>
    </g>
    <radialGradient cx="0" cy="0" gradientTransform="matrix(0.0132, 0.0, 0.0, 0.0132, -5.75, -2.9)" gradientUnits="userSpaceOnUse" id="gradient0" r="819.2" spreadMethod="pad">
      <stop offset="0.0" stop-color="#ffffff"/>
      <stop offset="0.42745098039215684" stop-color="#7c9aad"/>
      <stop offset="0.44313725490196076" stop-color="#58607c"/>
      <stop offset="0.6470588235294118" stop-color="#7e8aa3"/>
      <stop offset="1.0" stop-color="#c2cde7"/>
    </radialGradient>
    <radialGradient cx="0" cy="0" gradientTransform="matrix(0.0103, 0.0, 0.0, 0.0103, 0.25, -11.4)" gradientUnits="userSpaceOnUse" id="gradient1" r="819.2" spreadMethod="pad">
      <stop offset="0.0" stop-color="#ffffff"/>
      <stop offset="0.42745098039215684" stop-color="#7c9aad"/>
      <stop offset="0.44313725490196076" stop-color="#58607c"/>
      <stop offset="0.6470588235294118" stop-color="#7e8aa3"/>
      <stop offset="1.0" stop-color="#c2cde7"/>
    </radialGradient>
    <g id="sprite0" transform="matrix(1.0, 0.0, 0.0, 1.0, 7.5, -0.55)">
      <use ffdec:characterId="936" height="8.15" transform="matrix(1.0, 0.0, 0.0, 1.0, -7.5, 0.55)" width="10.1" xlink:href="#shape1"/>
    </g>
    <g id="shape1" transform="matrix(1.0, 0.0, 0.0, 1.0, 7.5, -0.55)">
      <path d="M1.85 8.7 Q-5.1 7.7 -7.5 2.2 L-7.35 2.0 -4.35 0.8 -4.1 0.55 Q-0.95 4.15 2.6 4.45 1.9 7.25 1.9 8.5 L1.85 8.7" fill="#ffffff" fill-rule="evenodd" stroke="none"/>
    </g>
  </defs>
</svg>
