<?xml version="1.0" encoding="UTF-8" standalone="no"?>
<svg xmlns:ffdec="https://www.free-decompiler.com/flash" xmlns:xlink="http://www.w3.org/1999/xlink" ffdec:objectType="frame" height="1163.3px" width="1431.1px" xmlns="http://www.w3.org/2000/svg">
  <g transform="matrix(2.0, 0.0, 0.0, 2.0, 499.2, 698.2)">
    <use ffdec:characterId="2684" height="219.0" transform="matrix(1.0, 0.0, 0.0, 1.0, -64.95, -127.3)" width="219.0" xlink:href="#shape0"/>
    <use ffdec:characterId="2680" height="289.75" transform="matrix(0.1461, 0.5964, -0.5964, 0.1461, 119.9725, -54.7794)" width="65.4" xlink:href="#shape1"/>
    <use ffdec:characterId="2680" height="289.75" transform="matrix(0.7956, -0.4017, 0.4017, 0.7956, -51.1023, -139.5032)" width="65.4" xlink:href="#shape1"/>
    <use ffdec:characterId="2683" height="193.0" transform="matrix(0.507, 0.2928, -0.2927, 0.507, 25.9191, -95.2812)" width="193.0" xlink:href="#sprite0"/>
  </g>
  <defs>
    <g id="shape0" transform="matrix(1.0, 0.0, 0.0, 1.0, 109.5, 109.5)">
      <path d="M77.4 -77.45 Q109.5 -45.35 109.5 0.0 109.5 45.35 77.4 77.4 45.35 109.5 0.0 109.5 -45.35 109.5 -77.45 77.4 -109.5 45.35 -109.5 0.0 -109.5 -45.35 -77.45 -77.45 -45.35 -109.5 0.0 -109.5 45.35 -109.5 77.4 -77.45" fill="url(#gradient0)" fill-rule="evenodd" stroke="none"/>
    </g>
    <radialGradient cx="0" cy="0" gradientTransform="matrix(0.1353, 0.0, 0.0, 0.1353, 0.0, 0.0)" gradientUnits="userSpaceOnUse" id="gradient0" r="819.2" spreadMethod="pad">
      <stop offset="0.0" stop-color="#ffffff" stop-opacity="0.0"/>
      <stop offset="0.8705882352941177" stop-color="#ffffff" stop-opacity="0.0"/>
    </radialGradient>
    <g id="shape1" transform="matrix(1.0, 0.0, 0.0, 1.0, 32.7, 244.15)">
      <path d="M-0.05 -243.65 L10.6 -228.8 10.6 -7.9 -0.05 -7.9 -0.05 -243.65" fill="#b3b3b3" fill-rule="evenodd" stroke="none"/>
      <path d="M-0.05 -7.9 L-10.6 -7.9 -10.6 -228.8 -0.05 -243.65 -0.05 -7.9" fill="#ebebeb" fill-rule="evenodd" stroke="none"/>
      <path d="M-10.6 -228.8 L-0.05 -243.65 10.6 -228.8" fill="none" stroke="#5c5c5c" stroke-linecap="round" stroke-linejoin="round" stroke-width="1.0"/>
      <path d="M-10.6 -7.9 L-10.6 -228.8 M10.6 -228.8 L10.6 -7.9" fill="none" stroke="#5c5c5c" stroke-linecap="round" stroke-linejoin="round" stroke-width="1.0"/>
      <path d="M-6.9 31.8 Q-4.05 29.45 0.05 29.45 4.15 29.45 6.9 31.8 9.8 34.15 9.8 37.55 9.8 40.9 6.9 43.25 4.15 45.6 0.05 45.6 -4.05 45.6 -6.9 43.25 -9.65 40.9 -9.75 37.55 -9.65 34.15 -6.9 31.8" fill="url(#gradient1)" fill-rule="evenodd" stroke="none"/>
      <path d="M5.05 31.5 L5.05 31.4 Q4.85 33.1 3.6 34.35 2.1 35.8 -0.05 35.8 -2.1 35.8 -3.55 34.35 -4.75 33.1 -5.0 31.5 L-6.5 1.3 6.5 1.3 5.05 31.5" fill="#515151" fill-rule="evenodd" stroke="none"/>
      <path d="M32.7 -3.75 L32.7 -3.5 32.7 -3.4 32.7 -3.15 32.7 -3.05 32.7 -2.8 32.7 -2.7 32.7 -2.45 32.7 -2.35 32.7 -2.1 32.7 -2.0 32.7 -1.75 32.7 -1.6 32.7 -1.4 32.7 -1.25 32.7 -1.05 32.7 -0.9 Q32.7 0.75 31.55 1.95 30.4 3.0 28.9 3.0 27.4 3.0 26.25 1.95 L26.25 1.8 26.0 1.55 7.3 4.05 -7.3 4.05 -26.0 1.55 -26.25 1.8 -26.25 1.95 Q-27.3 3.0 -28.9 3.0 -30.4 3.0 -31.65 1.95 -32.7 0.75 -32.7 -0.9 L-32.7 -1.25 -32.7 -1.6 -32.7 -2.0 -32.7 -2.35 -32.7 -2.7 -32.7 -3.05 -32.7 -3.4 -32.7 -3.75 Q-32.55 -2.35 -31.65 -1.25 -30.4 -0.2 -28.9 -0.2 -27.3 -0.2 -26.25 -1.25 L-26.25 -1.4 -26.0 -1.6 -7.3 0.85 7.3 0.85 26.0 -1.6 26.25 -1.4 26.25 -1.25 Q27.4 -0.2 28.9 -0.2 30.4 -0.2 31.55 -1.25 32.55 -2.35 32.7 -3.75" fill="#535353" fill-rule="evenodd" stroke="none"/>
      <path d="M-32.7 -3.75 L-32.7 -4.1 Q-32.7 -5.65 -31.65 -6.8 -30.4 -8.0 -28.9 -8.1 -27.3 -8.0 -26.25 -6.8 L-26.0 -6.45 -8.45 -8.6 8.45 -8.6 26.0 -6.45 26.25 -6.8 Q27.4 -8.0 28.9 -8.1 30.4 -8.0 31.55 -6.8 32.7 -5.65 32.7 -4.1 L32.7 -3.85 32.7 -3.75 Q32.55 -2.35 31.55 -1.25 30.4 -0.2 28.9 -0.2 27.4 -0.2 26.25 -1.25 L26.25 -1.4 26.0 -1.6 7.3 0.85 -7.3 0.85 -26.0 -1.6 -26.25 -1.4 -26.25 -1.25 Q-27.3 -0.2 -28.9 -0.2 -30.4 -0.2 -31.65 -1.25 -32.55 -2.35 -32.7 -3.75" fill="url(#gradient2)" fill-rule="evenodd" stroke="none"/>
    </g>
    <radialGradient cx="0" cy="0" gradientTransform="matrix(-0.0147, 0.0, 0.0, -0.0164, 0.25, 31.6)" gradientUnits="userSpaceOnUse" id="gradient1" r="819.2" spreadMethod="pad">
      <stop offset="0.2980392156862745" stop-color="#c6c6c6"/>
      <stop offset="1.0" stop-color="#595959"/>
    </radialGradient>
    <linearGradient gradientTransform="matrix(0.0399, 0.0, 0.0, 0.0058, 0.05, -3.85)" gradientUnits="userSpaceOnUse" id="gradient2" spreadMethod="pad" x1="-819.2" x2="819.2">
      <stop offset="0.0" stop-color="#acacac"/>
      <stop offset="1.0" stop-color="#5f5f5f"/>
    </linearGradient>
    <g id="sprite0" transform="matrix(1.0, 0.0, 0.0, 1.0, 96.5, 96.5)">
      <use ffdec:characterId="2682" height="193.0" transform="matrix(1.0, 0.0, 0.0, 1.0, -96.5, -96.5)" width="193.0" xlink:href="#shape2"/>
    </g>
    <g id="shape2" transform="matrix(1.0, 0.0, 0.0, 1.0, 96.5, 96.5)">
      <path d="M-6.75 -68.25 Q-3.95 -96.5 0.0 -96.5 3.95 -96.5 6.7 -68.25 9.5 -39.95 9.5 0.0 9.5 39.95 6.7 68.2 3.95 96.5 0.0 96.5 -3.95 96.5 -6.75 68.2 -9.5 39.95 -9.5 0.0 -9.5 -39.95 -6.75 -68.25" fill="url(#gradient3)" fill-rule="evenodd" stroke="none"/>
      <path d="M68.25 -6.75 Q96.5 -3.95 96.5 0.0 96.5 3.95 68.25 6.7 39.95 9.5 0.0 9.5 -39.95 9.5 -68.2 6.7 -96.5 3.95 -96.5 0.0 -96.5 -3.95 -68.2 -6.75 -39.95 -9.5 0.0 -9.5 39.95 -9.5 68.25 -6.75" fill="url(#gradient4)" fill-rule="evenodd" stroke="none"/>
      <path d="M24.75 -24.85 Q35.0 -14.55 35.0 0.0 35.0 14.55 24.75 24.7 14.5 35.0 0.0 35.0 -14.5 35.0 -24.7 24.7 -35.0 14.55 -35.0 0.0 -35.0 -14.55 -24.7 -24.85 -14.5 -35.0 0.0 -35.0 14.5 -35.0 24.75 -24.85" fill="url(#gradient5)" fill-rule="evenodd" stroke="none"/>
    </g>
    <radialGradient cx="0" cy="0" gradientTransform="matrix(0.0116, 0.0, 0.0, 0.1183, 0.0, 0.0)" gradientUnits="userSpaceOnUse" id="gradient3" r="819.2" spreadMethod="pad">
      <stop offset="0.0" stop-color="#ffffff" stop-opacity="0.0"/>
      <stop offset="1.0" stop-color="#ffffff" stop-opacity="0.0"/>
    </radialGradient>
    <radialGradient cx="0" cy="0" gradientTransform="matrix(0.0, 0.0116, -0.1183, 0.0, 0.0, 0.0)" gradientUnits="userSpaceOnUse" id="gradient4" r="819.2" spreadMethod="pad">
      <stop offset="0.0" stop-color="#ffffff" stop-opacity="0.0"/>
      <stop offset="1.0" stop-color="#ffffff" stop-opacity="0.0"/>
    </radialGradient>
    <radialGradient cx="0" cy="0" gradientTransform="matrix(0.0, 0.0427, -0.0429, 0.0, 0.0, 0.0)" gradientUnits="userSpaceOnUse" id="gradient5" r="819.2" spreadMethod="pad">
      <stop offset="0.0" stop-color="#ffffff" stop-opacity="0.0"/>
      <stop offset="1.0" stop-color="#ffffff" stop-opacity="0.0"/>
    </radialGradient>
  </defs>
</svg>
