<?xml version="1.0" encoding="UTF-8" standalone="no"?>
<svg xmlns:ffdec="https://www.free-decompiler.com/flash" xmlns:xlink="http://www.w3.org/1999/xlink" ffdec:objectType="frame" height="1163.3px" width="1431.1px" xmlns="http://www.w3.org/2000/svg">
  <g transform="matrix(2.0, 0.0, 0.0, 2.0, 499.2, 698.2)">
    <use ffdec:characterId="2686" height="168.45" transform="matrix(1.4866, 0.0, 0.0, 1.4866, -125.1758, -125.1758)" width="168.45" xlink:href="#button0"/>
    <use ffdec:characterId="2681" height="28.0" transform="matrix(1.1747, 0.0, 0.0, 1.1747, -134.9105, 54.8047)" width="229.7" xlink:href="#shape1"/>
    <use ffdec:characterId="2684" height="219.0" transform="matrix(1.0175, 0.0, 0.0, 1.0175, -111.4198, -141.0198)" width="219.0" xlink:href="#shape2"/>
    <use ffdec:characterId="2680" height="289.75" transform="matrix(-0.5054, -0.2928, 0.2928, -0.5054, -25.9523, 55.9248)" width="65.4" xlink:href="#shape3"/>
    <use ffdec:characterId="2680" height="289.75" transform="matrix(-0.5096, 0.3116, -0.3116, -0.5096, 61.8797, 36.7805)" width="65.4" xlink:href="#shape3"/>
    <use ffdec:characterId="2683" height="193.0" transform="matrix(0.5163, 0.5163, -0.5163, 0.5163, 0.0, -109.654)" width="193.0" xlink:href="#sprite0"/>
    <use ffdec:characterId="2679" height="88.1" transform="matrix(1.2497, 0.0, 0.0, 1.2497, -44.1148, -65.0497)" width="70.65" xlink:href="#shape5"/>
  </g>
  <defs>
    <g id="button0" transform="matrix(1.0, 0.0, 0.0, 1.0, 84.2, 84.2)">
      <use ffdec:characterId="2685" height="168.45" transform="matrix(1.0, 0.0, 0.0, 1.0, -84.2, -84.2)" width="168.45" xlink:href="#shape0"/>
    </g>
    <g id="shape0" transform="matrix(1.0, 0.0, 0.0, 1.0, 84.2, 84.2)">
      <path d="M64.25 -84.2 Q84.25 -84.2 84.25 -64.2 L84.25 64.25 Q84.25 84.25 64.25 84.25 L-64.2 84.25 Q-84.2 84.25 -84.2 64.25 L-84.2 -64.2 Q-84.2 -84.2 -64.2 -84.2 L64.25 -84.2" fill="#ff0000" fill-opacity="0.0" fill-rule="evenodd" stroke="none"/>
    </g>
    <g id="shape1" transform="matrix(1.0, 0.0, 0.0, 1.0, 114.85, 14.0)">
      <path d="M87.3 0.45 L87.3 1.3 92.45 1.3 92.45 0.45 Q92.75 -1.9 90.0 -2.1 87.1 -1.9 87.3 0.45 M89.95 -6.7 Q94.8 -6.6 96.45 -4.2 98.1 -1.85 98.0 1.55 L98.0 5.7 87.3 5.7 87.3 6.3 Q87.05 9.4 90.9 9.15 94.0 9.1 96.95 8.3 L97.8 12.7 Q94.8 13.85 90.3 14.0 81.05 13.6 81.45 5.9 L81.45 1.25 Q81.35 -2.05 83.2 -4.35 85.1 -6.65 89.95 -6.7 M101.2 8.45 Q103.75 9.25 107.2 9.35 109.5 9.4 109.25 7.65 109.35 6.75 108.8 6.35 108.3 5.95 106.0 5.45 102.5 4.6 101.6 3.3 100.6 1.95 100.75 -0.75 100.65 -3.9 102.3 -5.3 103.9 -6.75 108.35 -6.7 L111.25 -6.55 114.4 -6.05 113.85 -1.5 108.4 -2.05 Q106.05 -2.05 106.25 -0.7 106.2 0.15 106.65 0.5 L108.8 1.2 Q112.9 2.05 113.95 3.4 115.0 4.75 114.85 7.65 114.9 10.75 113.3 12.35 111.65 13.95 107.45 14.0 L103.8 13.65 100.25 12.8 101.2 8.45 M19.25 -8.45 Q15.0 -8.2 15.4 -4.75 L15.4 4.6 Q15.0 8.15 19.25 8.5 L22.85 8.25 22.85 4.65 19.65 4.9 19.5 -0.1 22.7 -0.5 28.6 -0.1 28.6 12.7 Q24.05 13.95 19.25 14.0 9.3 13.55 9.25 5.7 L9.25 -5.65 Q9.3 -13.65 19.25 -14.0 L27.95 -13.15 27.2 -7.8 23.05 -8.25 19.25 -8.45 M32.35 -1.3 L31.6 -5.7 Q34.85 -6.65 38.75 -6.7 43.75 -6.8 45.55 -5.0 47.25 -3.25 47.15 0.9 L47.15 13.55 42.3 13.55 41.9 12.3 Q38.35 14.1 36.25 14.0 30.9 13.5 31.05 7.95 30.95 2.15 37.0 2.35 L41.3 2.35 41.3 0.85 Q41.35 -0.7 40.7 -1.3 40.0 -1.95 37.75 -1.9 L32.35 -1.3 M36.7 7.85 Q36.6 9.45 38.3 9.4 40.0 9.35 41.3 8.75 L41.3 6.45 38.45 6.45 Q36.6 6.3 36.7 7.85 M55.0 -4.8 Q59.05 -6.65 62.9 -6.7 65.5 -6.7 66.55 -4.8 70.15 -6.6 74.5 -6.7 79.3 -6.45 79.05 -0.35 L79.05 13.55 73.2 13.55 73.2 0.45 Q73.2 -1.0 71.75 -1.0 69.75 -0.8 67.5 0.45 L67.5 13.55 61.6 13.55 61.6 0.45 Q61.65 -1.0 60.15 -1.0 58.15 -0.8 55.9 0.45 L55.9 13.55 50.0 13.55 50.0 -6.3 54.4 -6.3 55.0 -4.8" fill="url(#gradient0)" fill-rule="evenodd" stroke="none"/>
      <path d="M-67.95 -6.5 L-67.35 -5.0 Q-63.3 -6.85 -59.4 -6.9 -56.85 -6.9 -55.8 -5.0 -52.2 -6.8 -47.85 -6.9 -43.05 -6.65 -43.25 -0.55 L-43.25 13.35 -49.15 13.35 -49.15 0.25 Q-49.1 -1.2 -50.6 -1.2 -52.6 -1.0 -54.85 0.25 L-54.85 13.35 -60.75 13.35 -60.75 0.25 Q-60.7 -1.2 -62.2 -1.2 -64.15 -1.0 -66.45 0.25 L-66.45 13.35 -72.35 13.35 -72.35 -6.5 -67.95 -6.5 M-74.95 -1.9 L-78.25 -0.6 Q-80.1 0.25 -81.15 1.25 L-81.15 13.35 -87.05 13.35 -87.05 -6.5 -82.15 -6.5 -81.75 -4.55 -78.45 -6.15 Q-76.2 -7.1 -74.5 -7.25 L-74.95 -1.9 M-40.9 1.15 Q-41.05 -2.05 -39.05 -4.45 -37.1 -6.8 -31.95 -6.9 -26.75 -6.8 -24.75 -4.45 -22.85 -2.05 -22.95 1.15 L-22.95 5.75 Q-22.85 8.9 -24.75 11.3 -26.75 13.65 -31.95 13.8 -37.15 13.65 -39.05 11.3 -41.05 8.9 -40.9 5.75 L-40.9 1.15 M-31.95 8.85 Q-28.8 8.75 -28.8 5.9 L-28.8 0.95 Q-28.8 -1.9 -31.95 -2.0 -35.1 -1.9 -35.0 0.95 L-35.0 5.9 Q-35.1 8.75 -31.95 8.85 M-15.75 -4.55 Q-14.7 -5.25 -12.45 -6.15 -10.2 -7.1 -8.55 -7.25 L-9.0 -1.9 -12.3 -0.6 Q-14.15 0.25 -15.2 1.25 L-15.2 13.35 -21.1 13.35 -21.1 -6.5 -16.2 -6.5 -15.75 -4.55 M-107.0 8.05 L-108.5 13.35 -114.85 13.35 -106.55 -13.8 -98.4 -13.8 -90.1 13.35 -96.45 13.35 -97.95 8.05 -107.0 8.05 M-102.5 -8.4 L-105.65 2.95 -99.4 2.95 -102.5 -8.4" fill="url(#gradient1)" fill-rule="evenodd" stroke="none"/>
    </g>
    <linearGradient gradientTransform="matrix(0.0, 0.0172, -1.0, 0.0, 159.65, 0.0)" gradientUnits="userSpaceOnUse" id="gradient0" spreadMethod="pad" x1="-819.2" x2="819.2">
      <stop offset="0.0" stop-color="#ffffff"/>
      <stop offset="1.0" stop-color="#bbbbbb"/>
    </linearGradient>
    <linearGradient gradientTransform="matrix(0.0, 0.0172, -1.0, 0.0, 152.25, -0.2)" gradientUnits="userSpaceOnUse" id="gradient1" spreadMethod="pad" x1="-819.2" x2="819.2">
      <stop offset="0.0" stop-color="#ffffff"/>
      <stop offset="1.0" stop-color="#bbbbbb"/>
    </linearGradient>
    <g id="shape2" transform="matrix(1.0, 0.0, 0.0, 1.0, 109.5, 109.5)">
      <path d="M77.4 -77.45 Q109.5 -45.35 109.5 0.0 109.5 45.35 77.4 77.4 45.35 109.5 0.0 109.5 -45.35 109.5 -77.45 77.4 -109.5 45.35 -109.5 0.0 -109.5 -45.35 -77.45 -77.45 -45.35 -109.5 0.0 -109.5 45.35 -109.5 77.4 -77.45" fill="url(#gradient2)" fill-rule="evenodd" stroke="none"/>
    </g>
    <radialGradient cx="0" cy="0" gradientTransform="matrix(0.1353, 0.0, 0.0, 0.1353, 0.0, 0.0)" gradientUnits="userSpaceOnUse" id="gradient2" r="819.2" spreadMethod="pad">
      <stop offset="0.0" stop-color="#ffffff" stop-opacity="0.011764706"/>
      <stop offset="0.8705882352941177" stop-color="#ffffff" stop-opacity="0.0"/>
    </radialGradient>
    <g id="shape3" transform="matrix(1.0, 0.0, 0.0, 1.0, 32.7, 244.15)">
      <path d="M-0.05 -243.65 L10.6 -228.8 10.6 -7.9 -0.05 -7.9 -0.05 -243.65" fill="#b3b3b3" fill-rule="evenodd" stroke="none"/>
      <path d="M-0.05 -7.9 L-10.6 -7.9 -10.6 -228.8 -0.05 -243.65 -0.05 -7.9" fill="#ebebeb" fill-rule="evenodd" stroke="none"/>
      <path d="M-10.6 -228.8 L-0.05 -243.65 10.6 -228.8" fill="none" stroke="#5c5c5c" stroke-linecap="round" stroke-linejoin="round" stroke-width="1.0"/>
      <path d="M-10.6 -7.9 L-10.6 -228.8 M10.6 -228.8 L10.6 -7.9" fill="none" stroke="#5c5c5c" stroke-linecap="round" stroke-linejoin="round" stroke-width="1.0"/>
      <path d="M-6.9 31.8 Q-4.05 29.45 0.05 29.45 4.15 29.45 6.9 31.8 9.8 34.15 9.8 37.55 9.8 40.9 6.9 43.25 4.15 45.6 0.05 45.6 -4.05 45.6 -6.9 43.25 -9.65 40.9 -9.75 37.55 -9.65 34.15 -6.9 31.8" fill="url(#gradient3)" fill-rule="evenodd" stroke="none"/>
      <path d="M5.05 31.5 L5.05 31.4 Q4.85 33.1 3.6 34.35 2.1 35.8 -0.05 35.8 -2.1 35.8 -3.55 34.35 -4.75 33.1 -5.0 31.5 L-6.5 1.3 6.5 1.3 5.05 31.5" fill="#515151" fill-rule="evenodd" stroke="none"/>
      <path d="M32.7 -3.75 L32.7 -3.5 32.7 -3.4 32.7 -3.15 32.7 -3.05 32.7 -2.8 32.7 -2.7 32.7 -2.45 32.7 -2.35 32.7 -2.1 32.7 -2.0 32.7 -1.75 32.7 -1.6 32.7 -1.4 32.7 -1.25 32.7 -1.05 32.7 -0.9 Q32.7 0.75 31.55 1.95 30.4 3.0 28.9 3.0 27.4 3.0 26.25 1.95 L26.25 1.8 26.0 1.55 7.3 4.05 -7.3 4.05 -26.0 1.55 -26.25 1.8 -26.25 1.95 Q-27.3 3.0 -28.9 3.0 -30.4 3.0 -31.65 1.95 -32.7 0.75 -32.7 -0.9 L-32.7 -1.25 -32.7 -1.6 -32.7 -2.0 -32.7 -2.35 -32.7 -2.7 -32.7 -3.05 -32.7 -3.4 -32.7 -3.75 Q-32.55 -2.35 -31.65 -1.25 -30.4 -0.2 -28.9 -0.2 -27.3 -0.2 -26.25 -1.25 L-26.25 -1.4 -26.0 -1.6 -7.3 0.85 7.3 0.85 26.0 -1.6 26.25 -1.4 26.25 -1.25 Q27.4 -0.2 28.9 -0.2 30.4 -0.2 31.55 -1.25 32.55 -2.35 32.7 -3.75" fill="#535353" fill-rule="evenodd" stroke="none"/>
      <path d="M-32.7 -3.75 L-32.7 -4.1 Q-32.7 -5.65 -31.65 -6.8 -30.4 -8.0 -28.9 -8.1 -27.3 -8.0 -26.25 -6.8 L-26.0 -6.45 -8.45 -8.6 8.45 -8.6 26.0 -6.45 26.25 -6.8 Q27.4 -8.0 28.9 -8.1 30.4 -8.0 31.55 -6.8 32.7 -5.65 32.7 -4.1 L32.7 -3.85 32.7 -3.75 Q32.55 -2.35 31.55 -1.25 30.4 -0.2 28.9 -0.2 27.4 -0.2 26.25 -1.25 L26.25 -1.4 26.0 -1.6 7.3 0.85 -7.3 0.85 -26.0 -1.6 -26.25 -1.4 -26.25 -1.25 Q-27.3 -0.2 -28.9 -0.2 -30.4 -0.2 -31.65 -1.25 -32.55 -2.35 -32.7 -3.75" fill="url(#gradient4)" fill-rule="evenodd" stroke="none"/>
    </g>
    <radialGradient cx="0" cy="0" gradientTransform="matrix(-0.0147, 0.0, 0.0, -0.0164, 0.25, 31.6)" gradientUnits="userSpaceOnUse" id="gradient3" r="819.2" spreadMethod="pad">
      <stop offset="0.2980392156862745" stop-color="#c6c6c6"/>
      <stop offset="1.0" stop-color="#595959"/>
    </radialGradient>
    <linearGradient gradientTransform="matrix(0.0399, 0.0, 0.0, 0.0058, 0.05, -3.85)" gradientUnits="userSpaceOnUse" id="gradient4" spreadMethod="pad" x1="-819.2" x2="819.2">
      <stop offset="0.0" stop-color="#acacac"/>
      <stop offset="1.0" stop-color="#5f5f5f"/>
    </linearGradient>
    <g id="sprite0" transform="matrix(1.0, 0.0, 0.0, 1.0, 96.5, 96.5)">
      <use ffdec:characterId="2682" height="193.0" transform="matrix(1.0, 0.0, 0.0, 1.0, -96.5, -96.5)" width="193.0" xlink:href="#shape4"/>
    </g>
    <g id="shape4" transform="matrix(1.0, 0.0, 0.0, 1.0, 96.5, 96.5)">
      <path d="M-6.75 -68.25 Q-3.95 -96.5 0.0 -96.5 3.95 -96.5 6.7 -68.25 9.5 -39.95 9.5 0.0 9.5 39.95 6.7 68.2 3.95 96.5 0.0 96.5 -3.95 96.5 -6.75 68.2 -9.5 39.95 -9.5 0.0 -9.5 -39.95 -6.75 -68.25" fill="url(#gradient5)" fill-rule="evenodd" stroke="none"/>
      <path d="M68.25 -6.75 Q96.5 -3.95 96.5 0.0 96.5 3.95 68.25 6.7 39.95 9.5 0.0 9.5 -39.95 9.5 -68.2 6.7 -96.5 3.95 -96.5 0.0 -96.5 -3.95 -68.2 -6.75 -39.95 -9.5 0.0 -9.5 39.95 -9.5 68.25 -6.75" fill="url(#gradient6)" fill-rule="evenodd" stroke="none"/>
      <path d="M24.75 -24.85 Q35.0 -14.55 35.0 0.0 35.0 14.55 24.75 24.7 14.5 35.0 0.0 35.0 -14.5 35.0 -24.7 24.7 -35.0 14.55 -35.0 0.0 -35.0 -14.55 -24.7 -24.85 -14.5 -35.0 0.0 -35.0 14.5 -35.0 24.75 -24.85" fill="url(#gradient7)" fill-rule="evenodd" stroke="none"/>
    </g>
    <radialGradient cx="0" cy="0" gradientTransform="matrix(0.0116, 0.0, 0.0, 0.1183, 0.0, 0.0)" gradientUnits="userSpaceOnUse" id="gradient5" r="819.2" spreadMethod="pad">
      <stop offset="0.0" stop-color="#ffffff" stop-opacity="0.0"/>
      <stop offset="1.0" stop-color="#ffffff" stop-opacity="0.0"/>
    </radialGradient>
    <radialGradient cx="0" cy="0" gradientTransform="matrix(0.0, 0.0116, -0.1183, 0.0, 0.0, 0.0)" gradientUnits="userSpaceOnUse" id="gradient6" r="819.2" spreadMethod="pad">
      <stop offset="0.0" stop-color="#ffffff" stop-opacity="0.0"/>
      <stop offset="1.0" stop-color="#ffffff" stop-opacity="0.0"/>
    </radialGradient>
    <radialGradient cx="0" cy="0" gradientTransform="matrix(0.0, 0.0427, -0.0429, 0.0, 0.0, 0.0)" gradientUnits="userSpaceOnUse" id="gradient7" r="819.2" spreadMethod="pad">
      <stop offset="0.0" stop-color="#ffffff" stop-opacity="0.0"/>
      <stop offset="1.0" stop-color="#ffffff" stop-opacity="0.0"/>
    </radialGradient>
    <g id="shape5" transform="matrix(1.0, 0.0, 0.0, 1.0, 35.3, 44.05)">
      <path d="M-34.65 -34.4 L-33.95 -34.35 -30.75 -34.3 Q-21.85 -34.3 -14.9 -36.55 -7.95 -38.8 -0.4 -43.1 L-0.05 -43.25 0.25 -43.1 Q7.8 -38.8 14.8 -36.55 21.8 -34.3 30.75 -34.3 L34.0 -34.35 34.7 -34.4 34.65 -33.7 Q34.05 -5.5 26.35 11.75 18.65 28.95 0.3 43.0 L-0.05 43.3 -0.45 43.0 Q-18.75 28.95 -26.4 11.7 -34.1 -5.5 -34.65 -33.7 L-34.65 -34.4" fill="url(#gradient8)" fill-rule="evenodd" stroke="none"/>
      <path d="M25.05 -27.1 L26.2 -27.15 27.0 -26.95 27.55 -26.35 27.75 -25.55 27.7 -24.4 Q27.35 -2.75 21.7 9.75 16.0 22.3 1.55 33.25 L1.6 33.25 0.95 33.75 0.05 34.05 -0.85 33.8 -1.55 33.3 -1.6 33.25 Q-16.0 22.3 -21.65 9.75 L-21.65 9.7 Q-27.3 -2.8 -27.65 -24.4 L-27.7 -25.55 -27.5 -26.35 -26.9 -26.95 -26.1 -27.15 -25.0 -27.1 -22.6 -27.05 Q-15.95 -27.05 -11.4 -28.65 -6.8 -30.3 -1.3 -33.5 L-1.25 -33.5 -0.7 -33.8 0.05 -34.0 0.8 -33.75 1.3 -33.45 1.25 -33.5 Q6.75 -30.3 11.4 -28.65 15.9 -27.05 22.65 -27.05 L25.05 -27.1" fill="url(#gradient9)" fill-rule="evenodd" stroke="none"/>
      <path d="M18.1 -20.0 L20.1 -20.05 20.55 -20.05 20.55 -19.55 Q20.2 -2.1 15.7 7.5 11.25 17.1 0.25 25.35 L-0.05 25.55 -0.3 25.35 Q-11.25 17.1 -15.75 7.5 -20.2 -2.1 -20.55 -19.55 L-20.55 -20.05 -20.1 -20.05 -18.1 -20.0 Q-12.3 -20.0 -8.5 -21.4 -4.65 -22.8 -0.25 -25.4 L-0.05 -25.5 0.2 -25.4 Q4.6 -22.8 8.45 -21.4 12.3 -20.0 18.1 -20.0" fill="url(#gradient10)" fill-rule="evenodd" stroke="none"/>
      <path d="M-14.5 -36.05 Q-21.55 -33.75 -30.75 -33.7 L-34.0 -33.8 Q-33.4 -5.15 -25.65 11.85 -17.9 28.8 -0.05 42.45 17.8 28.8 25.6 11.8 33.35 -5.15 34.05 -33.8 L30.75 -33.7 Q21.5 -33.75 14.4 -36.05 7.3 -38.4 -0.05 -42.6 -7.45 -38.4 -14.5 -36.05 M-35.25 -33.75 L-35.3 -35.1 -33.95 -35.05 -30.75 -35.0 Q-21.95 -35.0 -15.05 -37.25 -8.2 -39.45 -0.7 -43.7 -0.35 -43.85 -0.05 -44.05 L0.55 -43.7 Q8.05 -39.45 14.95 -37.25 21.9 -35.0 30.75 -35.0 L33.95 -35.05 35.35 -35.1 35.3 -33.75 Q34.7 -5.4 26.9 11.95 19.15 29.3 0.7 43.4 L-0.05 44.05 -0.85 43.4 Q-19.25 29.25 -27.0 11.95 -34.7 -5.4 -35.25 -33.75" fill="#404040" fill-rule="evenodd" stroke="none"/>
    </g>
    <linearGradient gradientTransform="matrix(0.0175, -0.0346, 0.0346, 0.0175, -8.25, -3.1)" gradientUnits="userSpaceOnUse" id="gradient8" spreadMethod="pad" x1="-819.2" x2="819.2">
      <stop offset="0.0" stop-color="#949494"/>
      <stop offset="0.5215686274509804" stop-color="#bdbdbd"/>
      <stop offset="1.0" stop-color="#525252"/>
    </linearGradient>
    <radialGradient cx="0" cy="0" gradientTransform="matrix(0.0469, 0.0, 0.0, 0.0469, 0.05, 0.0)" gradientUnits="userSpaceOnUse" id="gradient9" r="819.2" spreadMethod="pad">
      <stop offset="0.0" stop-color="#c4c4c4"/>
      <stop offset="1.0" stop-color="#ffffff"/>
    </radialGradient>
    <linearGradient gradientTransform="matrix(-0.0089, -0.0229, 0.0229, -0.0089, 2.85, -5.1)" gradientUnits="userSpaceOnUse" id="gradient10" spreadMethod="pad" x1="-819.2" x2="819.2">
      <stop offset="0.0" stop-color="#002342"/>
      <stop offset="1.0" stop-color="#004c7c"/>
    </linearGradient>
  </defs>
</svg>
