<?xml version="1.0" encoding="UTF-8" standalone="no"?>
<svg xmlns:ffdec="https://www.free-decompiler.com/flash" xmlns:xlink="http://www.w3.org/1999/xlink" ffdec:objectType="frame" height="1270.4px" width="1476.6px" xmlns="http://www.w3.org/2000/svg">
  <g transform="matrix(2.0, 0.0, 0.0, 2.0, 577.1, 754.2)">
    <use ffdec:characterId="3949" height="331.1" transform="matrix(1.0, 0.0, 0.0, 1.0, -283.05, -177.5)" width="684.2" xlink:href="#shape0"/>
    <use ffdec:characterId="3948" height="524.15" style="mix-blend-mode: overlay" transform="matrix(1.0, 0.0, 0.0, 1.0, -279.05, -266.05)" width="680.2" xlink:href="#sprite0"/>
    <use ffdec:characterId="3812" height="300.0" transform="matrix(1.0259, 0.0, 0.0, 1.0259, -235.8645, -167.1341)" width="533.0" xlink:href="#sprite1"/>
  </g>
  <defs>
    <g id="shape0" transform="matrix(1.0, 0.0, 0.0, 1.0, 283.05, 177.5)">
      <path d="M-283.05 -177.5 L401.15 -177.5 401.15 153.6 -283.05 153.6 -283.05 -177.5" fill="url(#gradient0)" fill-rule="evenodd" stroke="none"/>
    </g>
    <linearGradient gradientTransform="matrix(0.0018, 0.2057, -0.4193, 0.0037, 59.05, -11.95)" gradientUnits="userSpaceOnUse" id="gradient0" spreadMethod="pad" x1="-819.2" x2="819.2">
      <stop offset="0.0" stop-color="#302640"/>
      <stop offset="1.0" stop-color="#652c2c"/>
    </linearGradient>
    <g id="sprite0" transform="matrix(1.0, 0.0, 0.0, 1.0, 0.0, 0.0)">
      <use ffdec:characterId="3947" height="524.15" transform="matrix(1.0, 0.0, 0.0, 1.0, 0.0, 0.0)" width="680.2" xlink:href="#shape1"/>
    </g>
    <g id="shape1" transform="matrix(1.0, 0.0, 0.0, 1.0, 0.0, 0.0)">
      <path d="M680.2 0.0 L680.2 524.15 119.65 524.15 Q45.35 460.7 0.0 387.45 L0.0 0.0 680.2 0.0" fill="url(#gradient1)" fill-rule="evenodd" stroke="none"/>
    </g>
    <radialGradient cx="0" cy="0" gradientTransform="matrix(0.8455, 0.0, 0.0, 0.8455, 615.2, 133.05)" gradientUnits="userSpaceOnUse" id="gradient1" r="819.2" spreadMethod="pad">
      <stop offset="0.0" stop-color="#000000"/>
      <stop offset="1.0" stop-color="#000000" stop-opacity="0.0"/>
    </radialGradient>
    <g id="sprite1" transform="matrix(1.0, 0.0, 0.0, 1.0, 265.1, 150.0)">
      <use ffdec:characterId="3477" height="300.0" transform="matrix(1.0, 0.0, 0.0, 1.0, -265.1, -150.0)" width="533.0" xlink:href="#shape2"/>
    </g>
    <g id="shape2" transform="matrix(1.0, 0.0, 0.0, 1.0, 265.1, 150.0)">
      <path d="M267.9 -150.0 L267.9 150.0 -265.1 150.0 -265.1 -150.0 267.9 -150.0 Z" fill="none" stroke="#ff0000" stroke-linecap="round" stroke-linejoin="round" stroke-width="0.05"/>
      <path d="M1.4 -16.05 L1.45 -16.05 Q9.35 -16.05 14.95 -11.35 20.55 -6.65 20.55 0.0 L39.5 0.0 M20.55 0.0 Q20.55 6.65 14.95 11.35 9.35 16.05 1.45 16.05 L1.4 16.05 1.4 21.45 M-36.65 0.0 L-17.55 0.0 -17.55 -0.05 Q-17.55 -6.65 -11.95 -11.35 -6.4 -16.05 1.4 -16.05 M1.4 16.05 Q-6.4 16.05 -11.95 11.35 -17.55 6.65 -17.55 0.0" fill="none" stroke="#ff0000" stroke-linecap="round" stroke-linejoin="round" stroke-opacity="0.2509804" stroke-width="0.05"/>
      <path d="M1.4 -16.05 L1.4 -21.4" fill="none" stroke="#ff0000" stroke-linecap="round" stroke-linejoin="round" stroke-opacity="0.2509804" stroke-width="1.0"/>
      <path d="M181.15 141.4 L181.15 123.6 191.05 123.6 191.05 141.4 181.15 141.4" fill="#ffffff" fill-rule="evenodd" stroke="none"/>
      <path d="M250.55 123.6 L260.45 123.6 260.45 141.4 260.35 141.4 250.55 141.4 250.55 123.6" fill="#000000" fill-rule="evenodd" stroke="none"/>
      <path d="M230.7 123.6 L240.6 123.6 240.6 141.4 230.7 141.4 230.7 123.6" fill="#ff0000" fill-rule="evenodd" stroke="none"/>
      <path d="M191.05 123.6 L201.0 123.6 201.0 141.4 191.05 141.4 191.05 123.6" fill="#ffff00" fill-rule="evenodd" stroke="none"/>
      <path d="M201.0 123.6 L210.9 123.6 210.9 141.4 201.0 141.4 201.0 123.6" fill="#00ffff" fill-rule="evenodd" stroke="none"/>
      <path d="M210.9 123.6 L220.8 123.6 220.8 141.4 210.9 141.4 210.9 123.6" fill="#00ff00" fill-rule="evenodd" stroke="none"/>
      <path d="M220.8 123.6 L230.7 123.6 230.7 141.4 220.8 141.4 220.8 123.6" fill="#ff00ff" fill-rule="evenodd" stroke="none"/>
      <path d="M240.6 123.6 L250.55 123.6 250.55 141.4 240.6 141.4 240.6 123.6" fill="#0000ff" fill-rule="evenodd" stroke="none"/>
      <path d="M260.35 141.4 L260.35 145.4 181.1 145.4 181.1 141.4 181.15 141.4 191.05 141.4 201.0 141.4 210.9 141.4 220.8 141.4 230.7 141.4 240.6 141.4 250.55 141.4 260.35 141.4" fill="url(#gradient2)" fill-rule="evenodd" stroke="none"/>
    </g>
    <linearGradient gradientTransform="matrix(0.0484, 0.0, 0.0, 0.0024, 220.7, 143.35)" gradientUnits="userSpaceOnUse" id="gradient2" spreadMethod="pad" x1="-819.2" x2="819.2">
      <stop offset="0.0" stop-color="#ffffff"/>
      <stop offset="1.0" stop-color="#000000"/>
    </linearGradient>
  </defs>
</svg>
