<?xml version="1.0" encoding="UTF-8" standalone="no"?>
<svg xmlns:ffdec="https://www.free-decompiler.com/flash" xmlns:xlink="http://www.w3.org/1999/xlink" ffdec:objectType="frame" height="120.6px" width="50.1px" xmlns="http://www.w3.org/2000/svg">
  <g transform="matrix(2.0, 0.0, 0.0, 2.0, 19.8, 42.9)">
    <use ffdec:characterId="1295" height="60.3" transform="matrix(1.0, 0.0, 0.0, 1.0, -9.9, -21.45)" width="25.05" xlink:href="#shape0"/>
    <filter id="filter0">
      <feColorMatrix in="SourceGraphic" result="filterResult0" type="matrix" values="0 0 0 0 1.0,0 0 0 0 0.8,0 0 0 0 0.0,0 0 0 1 0"/>
      <feConvolveMatrix divisor="25.0" in="filterResult0" kernelMatrix="1 1 1 1 1 1 1 1 1 1 1 1 1 1 1 1 1 1 1 1 1 1 1 1 1" order="5 5" result="filterResult1"/>
      <feComposite in="SourceGraphic" in2="filterResult1" operator="over" result="filterResult2"/>
    </filter>
    <use ffdec:characterId="1294" filter="url(#filter0)" height="21.95" transform="matrix(1.0, 0.0, 0.0, 1.0, -0.8, 11.8)" width="11.75" xlink:href="#sprite0"/>
  </g>
  <defs>
    <g id="shape0" transform="matrix(1.0, 0.0, 0.0, 1.0, 9.9, 21.45)">
      <path d="M10.4 -6.65 Q8.1 -7.0 7.4 -4.4 L2.05 -12.75 4.05 -21.45 10.3 -19.15 8.9 -13.9 Q9.8 -11.55 10.4 -6.65" fill="url(#gradient0)" fill-rule="evenodd" stroke="none"/>
      <path d="M10.4 -6.65 Q8.1 -7.0 7.4 -4.4 L2.05 -12.75 4.05 -21.45 10.3 -19.15 8.9 -13.9 Q9.8 -11.55 10.4 -6.65 Z" fill="none" stroke="#000000" stroke-linecap="round" stroke-linejoin="round" stroke-width="0.05"/>
      <path d="M-5.1 4.45 L-5.1 4.4 -4.95 4.45 -5.1 4.45" fill="url(#gradient1)" fill-rule="evenodd" stroke="none"/>
      <path d="M-6.15 -5.6 L-5.85 -4.35 -6.4 -5.55 -6.15 -5.6" fill="#333333" fill-rule="evenodd" stroke="none"/>
      <path d="M-6.3 -5.7 L-6.2 -5.7 -6.25 -5.7 -6.3 -5.7" fill="url(#gradient2)" fill-rule="evenodd" stroke="none"/>
      <path d="M5.8 8.8 L5.7 10.05 5.65 10.05 5.8 8.8" fill="url(#gradient3)" fill-rule="evenodd" stroke="none"/>
      <path d="M-1.9 -12.15 Q-1.95 -10.55 -2.4 -9.3 -3.4 -6.7 -6.15 -5.6 L-6.2 -5.7 -6.3 -5.7 -9.9 -7.8 Q-9.9 -11.6 -5.2 -13.65 L-1.95 -14.05 -1.9 -12.65 -1.9 -12.15 M3.35 -12.35 L-1.75 -14.1 -0.05 -16.4 4.4 -13.1 3.35 -12.35" fill="#1a1a1a" fill-rule="evenodd" stroke="none"/>
      <path d="M6.45 -9.5 L7.4 -7.8 7.75 -4.2 7.3 -3.3 7.1 -2.95 6.75 -2.1 Q5.35 -3.9 3.4 -3.9 2.3 -3.9 1.4 -3.35 L-0.1 -1.95 Q-1.5 0.05 -1.5 2.85 L-1.35 4.65 -4.95 4.45 Q-4.55 -0.75 -5.85 -4.35 L-6.15 -5.6 Q-3.4 -6.7 -2.4 -9.3 -1.95 -10.55 -1.9 -12.15 L5.2 -6.05 6.45 -9.5" fill="url(#gradient4)" fill-rule="evenodd" stroke="none"/>
      <path d="M-1.35 4.65 L-1.5 2.85 Q-1.5 0.05 -0.1 -1.95 L1.4 -3.35 Q2.3 -3.9 3.4 -3.9 5.35 -3.9 6.75 -2.1 L6.55 -1.65 4.95 5.05 -1.35 4.65" fill="url(#gradient5)" fill-rule="evenodd" stroke="none"/>
      <path d="M5.7 10.05 L5.8 10.05 5.95 13.05 2.15 16.45 -5.0 12.6 -4.7 8.75 5.65 10.05 5.7 10.05" fill="url(#gradient6)" fill-rule="evenodd" stroke="none"/>
      <path d="M-4.95 4.45 L-1.35 4.65 4.95 5.05 5.0 5.05 Q5.75 7.0 5.8 8.8 L5.65 10.05 -4.7 8.75 -5.1 4.45 -4.95 4.45" fill="url(#gradient7)" fill-rule="evenodd" stroke="none"/>
      <path d="M6.45 -9.5 L5.2 -6.05 -1.9 -12.15 -1.9 -12.65 -1.95 -14.05 -1.75 -14.1 3.35 -12.35 5.4 -11.5 6.45 -9.5" fill="url(#gradient8)" fill-rule="evenodd" stroke="none"/>
      <path d="M6.75 -2.1 L7.1 -2.95 7.3 -3.3 7.75 -4.2 7.4 -7.8 6.45 -9.5 5.2 -6.05 -1.9 -12.15 Q-1.95 -10.55 -2.4 -9.3 -3.4 -6.7 -6.15 -5.6 L-5.85 -4.35 Q-4.55 -0.75 -4.95 4.45 L-1.35 4.65 4.95 5.05 5.0 5.05 Q5.75 7.0 5.8 8.8 L5.7 10.05 5.8 10.05 5.95 13.05 M6.75 -2.1 L6.55 -1.65 4.95 5.05 M-5.0 12.6 L-4.7 8.75 -5.1 4.45 -5.1 4.4 -4.95 4.45 M6.45 -9.5 L5.4 -11.5 3.35 -12.35 -1.75 -14.1 -1.95 -14.05 -1.9 -12.65 -1.9 -12.15 M3.35 -12.35 L4.4 -13.1 -0.05 -16.4 -1.75 -14.1 M5.7 10.05 L5.65 10.05 -4.7 8.75 M-1.95 -14.05 L-5.2 -13.65 Q-9.9 -11.6 -9.9 -7.8 L-6.3 -5.7 -6.25 -5.7 -6.2 -5.7 -6.15 -5.6" fill="none" stroke="#000000" stroke-linecap="round" stroke-linejoin="round" stroke-width="0.05"/>
      <path d="M15.15 34.35 L3.65 38.85 -3.35 9.1 5.65 10.35 15.15 34.35" fill="url(#gradient9)" fill-rule="evenodd" stroke="none"/>
      <path d="M15.15 34.35 L5.65 10.35 -3.35 9.1 3.65 38.85 15.15 34.35 Z" fill="none" stroke="#000000" stroke-linecap="round" stroke-linejoin="round" stroke-width="0.05"/>
      <path d="M-3.8 -7.1 L-5.15 -9.6 -2.45 -12.85 3.2 -7.75 5.8 -7.3 7.15 -10.25 8.55 -4.75 7.65 -0.35 6.35 -0.1 4.05 0.25 -0.15 -3.65 -3.8 -7.1 M6.5 -5.1 L4.4 -5.35 -1.25 -8.55 3.55 -3.7 7.05 -3.65 7.5 -7.6 6.5 -5.1" fill="url(#gradient10)" fill-rule="evenodd" stroke="none"/>
      <path d="M6.5 -5.1 L7.5 -7.6 7.05 -3.65 3.55 -3.7 -1.25 -8.55 4.4 -5.35 6.5 -5.1" fill="url(#gradient11)" fill-rule="evenodd" stroke="none"/>
      <path d="M-3.8 -7.1 L-0.15 -3.65 1.6 2.35 0.1 2.15 -4.25 -4.3 -3.8 -7.1" fill="url(#gradient12)" fill-rule="evenodd" stroke="none"/>
      <path d="M-0.15 -3.65 L4.05 0.25 6.35 -0.1 5.25 2.85 1.6 2.35 -0.15 -3.65" fill="url(#gradient13)" fill-rule="evenodd" stroke="none"/>
      <path d="M6.35 -0.1 L7.65 -0.35 8.55 -4.75 7.15 -10.25 5.8 -7.3 3.2 -7.75 -2.45 -12.85 -5.15 -9.6 -3.8 -7.1 -0.15 -3.65 4.05 0.25 6.35 -0.1 5.25 2.85 1.6 2.35 0.1 2.15 -4.25 -4.3 -3.8 -7.1" fill="none" stroke="#000000" stroke-linecap="round" stroke-linejoin="round" stroke-width="0.05"/>
    </g>
    <radialGradient cx="0" cy="0" gradientTransform="matrix(0.0144, 0.0, 0.0, 0.0144, 7.6, -10.2)" gradientUnits="userSpaceOnUse" id="gradient0" r="819.2" spreadMethod="pad">
      <stop offset="0.0" stop-color="#37343a"/>
      <stop offset="1.0" stop-color="#090909"/>
    </radialGradient>
    <radialGradient cx="0" cy="0" gradientTransform="matrix(0.0103, 4.0E-4, -5.0E-4, 0.0101, 3.05, 6.65)" gradientUnits="userSpaceOnUse" id="gradient1" r="819.2" spreadMethod="pad">
      <stop offset="0.0" stop-color="#a89786"/>
      <stop offset="1.0" stop-color="#484037"/>
    </radialGradient>
    <radialGradient cx="0" cy="0" gradientTransform="matrix(0.0077, 0.0, 0.0, 0.0077, -4.5, -11.0)" gradientUnits="userSpaceOnUse" id="gradient2" r="819.2" spreadMethod="pad">
      <stop offset="0.0" stop-color="#454545"/>
      <stop offset="1.0" stop-color="#1b1b1b"/>
    </radialGradient>
    <radialGradient cx="0" cy="0" gradientTransform="matrix(0.0103, 4.0E-4, -5.0E-4, 0.0101, 3.05, 6.65)" gradientUnits="userSpaceOnUse" id="gradient3" r="819.2" spreadMethod="pad">
      <stop offset="0.0" stop-color="#a2a2a2"/>
      <stop offset="1.0" stop-color="#6a6a6a"/>
    </radialGradient>
    <radialGradient cx="0" cy="0" gradientTransform="matrix(0.0149, 0.0, 0.0, 0.0149, 3.5, -4.35)" gradientUnits="userSpaceOnUse" id="gradient4" r="819.2" spreadMethod="pad">
      <stop offset="0.0" stop-color="#b3adb8"/>
      <stop offset="0.4235294117647059" stop-color="#222024"/>
      <stop offset="0.44313725490196076" stop-color="#222024"/>
      <stop offset="0.6470588235294118" stop-color="#4e434d"/>
      <stop offset="1.0" stop-color="#3c2b3a"/>
    </radialGradient>
    <radialGradient cx="0" cy="0" gradientTransform="matrix(0.0089, 0.0, 0.0, 0.0089, 2.4, 2.8)" gradientUnits="userSpaceOnUse" id="gradient5" r="819.2" spreadMethod="pad">
      <stop offset="0.0" stop-color="#37343a"/>
      <stop offset="1.0" stop-color="#090909"/>
    </radialGradient>
    <radialGradient cx="0" cy="0" gradientTransform="matrix(0.012, 0.0, 0.0, 0.012, -3.75, 11.4)" gradientUnits="userSpaceOnUse" id="gradient6" r="819.2" spreadMethod="pad">
      <stop offset="0.0" stop-color="#282332"/>
      <stop offset="1.0" stop-color="#110f13"/>
    </radialGradient>
    <radialGradient cx="0" cy="0" gradientTransform="matrix(0.0112, 0.0, 0.0, 0.0112, 3.75, 6.9)" gradientUnits="userSpaceOnUse" id="gradient7" r="819.2" spreadMethod="pad">
      <stop offset="0.0" stop-color="#efece4"/>
      <stop offset="0.41568627450980394" stop-color="#8d662e"/>
      <stop offset="0.4666666666666667" stop-color="#422c0b"/>
      <stop offset="0.7294117647058823" stop-color="#bf8837"/>
      <stop offset="1.0" stop-color="#cba670"/>
    </radialGradient>
    <radialGradient cx="0" cy="0" gradientTransform="matrix(0.007, 0.0, 0.0, 0.007, 2.25, -10.1)" gradientUnits="userSpaceOnUse" id="gradient8" r="819.2" spreadMethod="pad">
      <stop offset="0.0" stop-color="#5b3e3e"/>
      <stop offset="1.0" stop-color="#221b1a"/>
    </radialGradient>
    <radialGradient cx="0" cy="0" gradientTransform="matrix(0.0309, 0.0, 0.0, 0.0309, 3.0, 13.5)" gradientUnits="userSpaceOnUse" id="gradient9" r="819.2" spreadMethod="pad">
      <stop offset="0.0" stop-color="#473030"/>
      <stop offset="1.0" stop-color="#221b1a"/>
    </radialGradient>
    <radialGradient cx="0" cy="0" gradientTransform="matrix(0.0104, 0.0, 0.0, 0.0104, 2.9, -6.95)" gradientUnits="userSpaceOnUse" id="gradient10" r="819.2" spreadMethod="pad">
      <stop offset="0.0" stop-color="#cb2c2c"/>
      <stop offset="1.0" stop-color="#5e2222"/>
    </radialGradient>
    <radialGradient cx="0" cy="0" gradientTransform="matrix(0.0068, 0.0, 0.0, 0.0068, 3.25, -5.2)" gradientUnits="userSpaceOnUse" id="gradient11" r="819.2" spreadMethod="pad">
      <stop offset="0.03137254901960784" stop-color="#761b1b"/>
      <stop offset="1.0" stop-color="#180a0a"/>
    </radialGradient>
    <radialGradient cx="0" cy="0" gradientTransform="matrix(0.0092, 0.0, 0.0, 0.0092, -3.0, -3.6)" gradientUnits="userSpaceOnUse" id="gradient12" r="819.2" spreadMethod="pad">
      <stop offset="0.03137254901960784" stop-color="#761b1b"/>
      <stop offset="1.0" stop-color="#180a0a"/>
    </radialGradient>
    <radialGradient cx="0" cy="0" gradientTransform="matrix(0.0076, 0.0, 0.0, 0.0076, 3.0, 1.75)" gradientUnits="userSpaceOnUse" id="gradient13" r="819.2" spreadMethod="pad">
      <stop offset="0.0" stop-color="#451010"/>
      <stop offset="1.0" stop-color="#180a0a"/>
    </radialGradient>
    <g id="sprite0" transform="matrix(1.0, 0.0, 0.0, 1.0, 5.9, 10.95)">
      <use ffdec:characterId="1293" height="21.95" transform="matrix(1.0, 0.0, 0.0, 1.0, -5.9, -10.95)" width="11.75" xlink:href="#shape1"/>
    </g>
    <g id="shape1" transform="matrix(1.0, 0.0, 0.0, 1.0, 5.9, 10.95)">
      <path d="M0.45 -8.8 L1.1 -7.7 Q1.35 -7.3 1.2 -6.9 L0.9 -6.65 0.7 -6.55 -3.55 -6.25 -3.75 -6.7 -3.75 -6.85 -4.0 -7.75 -4.2 -8.8 -4.3 -9.55 -4.3 -9.65 -5.5 -9.8 -5.75 -9.85 -5.9 -10.0 -5.85 -10.3 -5.75 -10.45 -5.5 -10.5 Q-5.1 -10.6 -4.85 -10.85 L-4.7 -10.95 -4.1 -10.75 -0.1 -10.65 0.25 -10.5 0.25 -10.05 0.2 -9.9 Q0.15 -9.4 0.45 -8.8 M1.7 -3.55 Q2.3 -3.35 2.25 -2.85 L1.9 -2.65 Q0.05 -3.15 0.45 -2.15 L0.5 -2.0 0.5 -1.7 0.55 -1.55 Q0.9 -1.35 1.3 -1.3 L1.65 -1.1 1.6 -0.8 1.55 -0.7 0.8 -0.4 0.75 -0.3 0.85 0.15 0.85 0.6 1.0 1.05 1.15 1.5 0.95 1.95 Q0.35 2.15 0.2 1.5 L-0.3 0.85 -1.6 -0.1 -1.7 -0.25 -1.7 -0.4 -1.45 -0.65 -1.1 -0.9 Q-0.7 -1.05 -0.35 -1.35 L-0.3 -1.55 -0.45 -2.1 Q-1.15 -3.0 -2.35 -2.25 -2.65 -2.05 -2.9 -2.4 -2.9 -2.85 -2.45 -2.95 -1.05 -3.3 -0.9 -3.8 L-0.3 -4.35 0.7 -4.0 Q1.15 -3.7 1.7 -3.55 M2.45 -0.35 L2.7 -0.5 2.7 -0.55 Q3.2 -0.7 3.35 -0.25 3.55 0.15 3.1 0.35 2.65 0.6 2.3 0.2 L2.3 0.05 2.3 -0.1 2.45 -0.35 M1.3 4.6 Q0.95 4.85 1.75 4.95 L2.85 5.3 3.35 5.8 3.55 6.1 3.75 6.0 4.05 5.75 Q4.2 5.5 4.5 5.55 L4.85 5.7 4.5 6.5 3.85 7.2 3.4 7.9 2.75 8.55 Q1.2 9.1 -0.25 8.55 L-1.5 7.65 Q-0.45 6.85 1.2 6.85 L2.75 6.6 Q2.6 6.15 2.05 6.0 L0.65 5.5 0.1 4.9 0.1 4.75 0.2 4.5 0.75 3.85 0.9 3.7 1.5 3.5 1.5 3.45 2.1 3.65 Q2.45 3.85 2.1 4.1 L1.7 4.4 1.3 4.6 M4.3 4.4 Q3.85 3.85 4.5 3.65 5.25 3.65 5.0 4.35 L4.3 4.4 M2.55 7.6 L2.5 7.6 2.3 7.65 1.4 7.75 2.45 7.7 2.55 7.65 2.55 7.6 M4.5 9.05 L5.5 9.15 5.85 9.3 5.85 9.4 Q4.85 10.25 3.2 10.25 L2.8 10.3 2.65 10.45 2.5 10.75 2.1 11.0 1.85 10.95 1.7 10.8 1.7 10.65 1.7 10.5 1.7 10.35 1.7 10.2 1.75 10.05 1.85 9.95 1.9 9.9 2.7 9.45 3.0 9.35 3.3 9.3 4.25 9.15 4.5 9.1 4.5 9.05 M-0.7 -9.7 L-3.55 -9.85 -3.35 -9.0 -3.15 -8.25 Q-3.05 -7.85 -3.1 -7.45 L-3.1 -7.3 0.1 -7.6 -0.25 -8.3 -0.5 -8.95 -0.7 -9.55 -0.7 -9.7 M-0.45 -0.25 L-0.15 0.05 Q0.1 0.25 -0.05 -0.05 L-0.15 -0.2 -0.45 -0.25" fill="#ffffcc" fill-rule="evenodd" stroke="none"/>
    </g>
  </defs>
</svg>
