<?xml version="1.0" encoding="UTF-8" standalone="no"?>
<svg xmlns:ffdec="https://www.free-decompiler.com/flash" xmlns:xlink="http://www.w3.org/1999/xlink" ffdec:objectType="frame" height="191.9px" width="107.2px" xmlns="http://www.w3.org/2000/svg">
  <g transform="matrix(2.0, 0.0, 0.0, 2.0, 44.9, 94.3)">
    <use ffdec:characterId="972" height="95.95" transform="matrix(1.0, 0.0, 0.0, 1.0, -22.45, -47.15)" width="53.6" xlink:href="#shape0"/>
    <filter id="filter0">
      <feColorMatrix in="SourceGraphic" result="filterResult0" type="matrix" values="0 0 0 0 0.2,0 0 0 0 1.0,0 0 0 0 1.0,0 0 0 1 0"/>
      <feConvolveMatrix divisor="25.0" in="filterResult0" kernelMatrix="1 1 1 1 1 1 1 1 1 1 1 1 1 1 1 1 1 1 1 1 1 1 1 1 1" order="5 5" result="filterResult1"/>
      <feComposite in="SourceGraphic" in2="filterResult1" operator="over" result="filterResult2"/>
    </filter>
    <use ffdec:characterId="971" filter="url(#filter0)" height="22.35" transform="matrix(1.0, 0.0, 0.0, 1.0, 9.95, -46.9)" width="20.7" xlink:href="#sprite0"/>
  </g>
  <defs>
    <g id="shape0" transform="matrix(1.0, 0.0, 0.0, 1.0, 22.45, 47.15)">
      <path d="M-2.65 -39.2 L-3.65 -37.3 -3.7 -37.25 -4.7 -37.7 -4.85 -37.8 -4.9 -37.8 -5.55 -38.15 -5.8 -38.8 -6.0 -39.45 -3.95 -39.25 -4.15 -40.4 -2.9 -40.4 -2.7 -39.25 -2.65 -39.2" fill="url(#gradient0)" fill-rule="evenodd" stroke="none"/>
      <path d="M-4.9 -37.8 L-4.9 -37.75 -7.15 -21.65 Q-8.3 -23.3 -10.45 -23.65 -6.9 -29.95 -5.85 -38.2 L-5.55 -38.15 -4.9 -37.8" fill="url(#gradient1)" fill-rule="evenodd" stroke="none"/>
      <path d="M-4.55 -42.75 L-3.3 -42.85 -2.9 -40.4 -4.15 -40.4 -4.55 -42.75" fill="url(#gradient2)" fill-rule="evenodd" stroke="none"/>
      <path d="M-3.65 -37.25 Q-4.2 -31.5 -2.3 -25.75 L-4.2 -25.4 Q-5.3 -31.7 -4.7 -37.7 L-3.7 -37.25 -3.65 -37.25" fill="url(#gradient3)" fill-rule="evenodd" stroke="none"/>
      <path d="M1.25 -4.9 L1.1 48.8 -1.25 48.8 -1.35 -5.1 1.25 -4.9" fill="url(#gradient4)" fill-rule="evenodd" stroke="none"/>
      <path d="M-1.35 -10.45 L-1.4 -38.9 1.35 -38.3 1.25 -10.6 -1.35 -10.45" fill="url(#gradient5)" fill-rule="evenodd" stroke="none"/>
      <path d="M-1.4 -44.25 L-1.4 -46.7 1.35 -46.7 1.35 -44.15 -1.4 -44.25" fill="url(#gradient6)" fill-rule="evenodd" stroke="none"/>
      <path d="M1.35 -44.15 Q7.15 -44.05 12.85 -44.45 L10.8 -41.15 14.45 -44.55 22.05 -45.45 23.8 -43.4 22.9 -45.55 31.15 -47.15 Q29.6 -40.15 27.6 -33.5 L24.55 -31.4 26.65 -30.4 Q24.9 -25.0 22.8 -19.75 L20.8 -18.65 22.35 -18.65 19.0 -11.15 16.2 -10.75 18.45 -10.0 15.55 -4.3 14.8 -4.9 15.3 -3.9 13.8 -1.25 Q11.2 -2.7 8.1 -3.6 L5.95 -7.15 6.3 -4.1 1.25 -4.9 -1.35 -5.1 -2.55 -5.15 -2.9 -10.35 -1.35 -10.45 1.25 -10.6 Q8.3 -10.95 11.2 -9.8 18.3 -23.1 20.15 -37.0 11.6 -36.2 1.35 -38.3 L-1.4 -38.9 -2.65 -39.2 -2.7 -39.25 -2.9 -40.4 -3.3 -42.85 -3.6 -44.4 -1.4 -44.25 1.35 -44.15 M-6.0 -39.45 Q-14.25 -40.0 -22.45 -37.0 -14.3 -43.7 -4.75 -44.05 L-4.55 -42.75 -4.15 -40.4 -3.95 -39.25 -6.0 -39.45" fill="url(#gradient7)" fill-rule="evenodd" stroke="none"/>
      <path d="M1.35 -44.15 Q7.15 -44.05 12.85 -44.45 L10.8 -41.15 14.45 -44.55 22.05 -45.45 23.8 -43.4 22.9 -45.55 31.15 -47.15 Q29.6 -40.15 27.6 -33.5 L24.55 -31.4 26.65 -30.4 Q24.9 -25.0 22.8 -19.75 L20.8 -18.65 22.35 -18.65 19.0 -11.15 16.2 -10.75 18.45 -10.0 15.55 -4.3 14.8 -4.9 15.3 -3.9 13.8 -1.25 Q11.2 -2.7 8.1 -3.6 L5.95 -7.15 6.3 -4.1 1.25 -4.9 1.1 48.8 -1.25 48.8 -1.35 -5.1 -2.55 -5.15 -2.9 -10.35 -1.35 -10.45 -1.4 -38.9 -2.65 -39.2 -3.65 -37.3 -3.65 -37.25 Q-4.2 -31.5 -2.3 -25.75 L-4.2 -25.4 Q-5.3 -31.7 -4.7 -37.7 L-4.85 -37.8 -4.9 -37.8 -4.9 -37.75 -7.15 -21.65 Q-8.3 -23.3 -10.45 -23.65 -6.9 -29.95 -5.85 -38.2 L-5.8 -38.8 -6.0 -39.45 Q-14.25 -40.0 -22.45 -37.0 -14.3 -43.7 -4.75 -44.05 L-4.55 -42.75 -3.3 -42.85 -3.6 -44.4 -1.4 -44.25 -1.4 -46.7 1.35 -46.7 1.35 -44.15 -1.4 -44.25 M1.35 -38.3 Q11.6 -36.2 20.15 -37.0 18.3 -23.1 11.2 -9.8 8.3 -10.95 1.25 -10.6 L-1.35 -10.45 M1.25 -10.6 L1.35 -38.3 -1.4 -38.9 M-5.55 -38.15 L-5.8 -38.8 M-4.15 -40.4 L-2.9 -40.4 -3.3 -42.85 M-4.55 -42.75 L-4.15 -40.4 -3.95 -39.25 -6.0 -39.45 M-2.9 -40.4 L-2.7 -39.25 -2.65 -39.2 M-3.65 -37.3 L-3.7 -37.25 -4.7 -37.7 M-4.9 -37.8 L-5.55 -38.15 M1.25 -4.9 L-1.35 -5.1" fill="none" stroke="#000000" stroke-linecap="round" stroke-linejoin="round" stroke-width="0.05"/>
    </g>
    <linearGradient gradientTransform="matrix(-2.0E-4, -0.0019, 0.002, -2.0E-4, -4.25, -38.75)" gradientUnits="userSpaceOnUse" id="gradient0" spreadMethod="pad" x1="-819.2" x2="819.2">
      <stop offset="0.0" stop-color="#5e2222"/>
      <stop offset="1.0" stop-color="#340707"/>
    </linearGradient>
    <linearGradient gradientTransform="matrix(4.0E-4, -0.0101, 0.0031, 1.0E-4, -7.75, -30.0)" gradientUnits="userSpaceOnUse" id="gradient1" spreadMethod="pad" x1="-819.2" x2="819.2">
      <stop offset="0.0" stop-color="#5e2222"/>
      <stop offset="1.0" stop-color="#941616"/>
    </linearGradient>
    <linearGradient gradientTransform="matrix(0.001, 0.0, 0.0, 0.0015, -3.75, -41.65)" gradientUnits="userSpaceOnUse" id="gradient2" spreadMethod="pad" x1="-819.2" x2="819.2">
      <stop offset="0.0" stop-color="#5e2222"/>
      <stop offset="1.0" stop-color="#340707"/>
    </linearGradient>
    <linearGradient gradientTransform="matrix(-9.0E-4, -0.0075, 0.0013, -2.0E-4, -3.95, -31.6)" gradientUnits="userSpaceOnUse" id="gradient3" spreadMethod="pad" x1="-819.2" x2="819.2">
      <stop offset="0.0" stop-color="#5e2222"/>
      <stop offset="1.0" stop-color="#340707"/>
    </linearGradient>
    <radialGradient cx="0" cy="0" gradientTransform="matrix(0.0349, 0.0, 0.0, 0.0349, 0.1, 20.25)" gradientUnits="userSpaceOnUse" id="gradient4" r="819.2" spreadMethod="pad">
      <stop offset="0.0" stop-color="#473327"/>
      <stop offset="0.6823529411764706" stop-color="#2f221e"/>
      <stop offset="0.9725490196078431" stop-color="#171513"/>
    </radialGradient>
    <radialGradient cx="0" cy="0" gradientTransform="matrix(0.0175, 0.0, 0.0, 0.0175, -0.05, -24.7)" gradientUnits="userSpaceOnUse" id="gradient5" r="819.2" spreadMethod="pad">
      <stop offset="0.0" stop-color="#473327"/>
      <stop offset="0.6823529411764706" stop-color="#2f221e"/>
      <stop offset="0.9725490196078431" stop-color="#171513"/>
    </radialGradient>
    <radialGradient cx="0" cy="0" gradientTransform="matrix(0.0035, 0.0, 0.0, 0.0035, 0.25, -47.15)" gradientUnits="userSpaceOnUse" id="gradient6" r="819.2" spreadMethod="pad">
      <stop offset="0.0" stop-color="#473327"/>
      <stop offset="0.6823529411764706" stop-color="#2f221e"/>
      <stop offset="0.9725490196078431" stop-color="#171513"/>
    </radialGradient>
    <radialGradient cx="0" cy="0" gradientTransform="matrix(0.0628, 0.0, 0.0, 0.0628, 25.0, -41.5)" gradientUnits="userSpaceOnUse" id="gradient7" r="819.2" spreadMethod="pad">
      <stop offset="0.0" stop-color="#256574"/>
      <stop offset="0.6745098039215687" stop-color="#444444"/>
      <stop offset="1.0" stop-color="#242120"/>
    </radialGradient>
    <g id="sprite0" transform="matrix(1.0, 0.0, 0.0, 1.0, 10.35, 11.2)">
      <use ffdec:characterId="970" height="22.35" transform="matrix(1.0, 0.0, 0.0, 1.0, -10.35, -11.2)" width="20.7" xlink:href="#shape1"/>
    </g>
    <g id="shape1" transform="matrix(1.0, 0.0, 0.0, 1.0, 10.35, 11.2)">
      <path d="M8.0 -11.2 Q8.15 -10.95 7.95 -10.6 L7.8 -10.05 7.75 -9.4 8.45 -8.75 9.25 -8.0 9.35 -7.8 10.3 -8.4 Q10.65 -7.7 9.15 -7.1 L6.4 -6.2 Q4.95 -5.85 4.1 -4.9 L5.5 -4.75 Q3.0 -4.15 1.05 -5.5 L0.85 -5.65 0.8 -5.6 1.95 -4.8 2.8 -3.9 3.15 -3.2 5.55 -3.45 5.55 -3.65 Q5.5 -3.95 5.75 -3.9 L5.85 -3.65 6.9 -4.7 7.4 -4.95 Q8.7 -5.15 9.7 -4.6 9.65 -4.1 9.05 -4.3 L8.05 -4.6 7.8 -4.75 7.35 -4.55 Q7.45 -4.0 7.15 -3.35 L6.6 -2.15 6.5 -1.9 7.05 -1.1 7.75 -0.1 Q8.15 0.25 8.15 0.7 7.55 0.95 7.0 0.15 L6.1 -0.9 5.55 -1.5 5.55 -2.25 5.55 -2.95 Q4.6 -1.9 2.8 -2.6 L2.6 -1.7 2.35 -0.6 0.9 0.45 0.55 0.65 0.25 3.45 0.1 4.4 0.1 4.6 0.3 5.0 0.3 5.05 Q1.75 5.6 2.65 6.9 L3.75 9.05 Q4.1 10.1 4.75 11.15 L4.15 10.75 3.85 10.25 3.4 9.8 Q3.25 8.75 2.75 7.8 2.1 6.55 0.9 5.95 L-0.05 5.05 -0.6 6.55 -2.1 9.05 Q-1.65 7.35 -0.8 5.75 -0.05 4.35 -0.05 2.7 0.0 1.6 0.3 0.75 L-0.7 1.3 -0.75 1.25 Q-0.55 0.45 0.35 0.05 L1.7 -0.7 1.75 -0.75 1.55 -2.05 1.25 -3.45 1.15 -4.3 0.1 -5.35 -0.95 -4.9 Q-1.85 -4.65 -2.4 -4.05 L-3.6 -2.8 -7.55 -3.1 -8.45 -2.35 -9.2 -1.85 -9.9 -1.3 Q-10.2 -1.0 -10.35 -1.1 L-9.0 -2.6 -8.55 -2.9 -8.55 -3.0 -8.45 -2.95 Q-7.3 -3.65 -5.9 -3.5 L-6.25 -4.25 -5.85 -3.8 -5.5 -3.45 -5.15 -3.4 -3.8 -3.2 -2.8 -4.35 -1.65 -5.15 -0.1 -5.6 -0.15 -5.65 Q-0.8 -6.4 -1.7 -6.7 L-1.75 -7.45 Q-1.8 -8.0 -2.15 -8.45 -2.45 -8.85 -2.2 -9.3 L-2.05 -9.45 -1.65 -9.15 -1.55 -8.95 -1.45 -8.8 -1.1 -7.95 -1.0 -7.15 -0.3 -6.9 -0.2 -7.05 0.15 -6.7 0.45 -6.5 0.8 -6.1 1.35 -5.65 Q2.2 -5.05 3.25 -5.0 L3.85 -4.95 Q4.6 -6.0 6.0 -6.5 L8.7 -7.5 8.95 -7.6 Q8.55 -7.65 8.2 -8.05 L8.05 -8.3 7.95 -7.9 7.85 -7.35 7.8 -7.25 7.7 -7.9 7.8 -8.45 7.85 -8.55 7.25 -9.05 7.35 -9.8 7.55 -10.55 7.9 -11.15 8.0 -11.2 M2.2 -3.0 L2.25 -3.25 1.35 -4.15 1.55 -3.3 1.85 -1.95 Q2.0 -1.25 1.8 -0.75 L2.0 -0.85 2.1 -1.85 2.2 -3.0 M7.25 -4.5 L5.95 -3.4 5.95 -3.35 6.15 -2.75 6.25 -2.2 6.35 -2.1 6.45 -2.35 6.8 -3.5 Q6.85 -4.15 7.25 -4.5 M6.05 -4.25 Q5.75 -4.4 5.8 -4.6 L6.2 -4.25 Q6.4 -4.05 6.05 -4.25 M-7.15 -7.65 L-6.95 -7.25 -6.65 -6.95 -6.6 -6.9 -6.45 -6.15 -6.35 -5.4 -6.35 -4.75 Q-6.5 -5.8 -7.05 -6.6 -7.6 -7.4 -7.25 -8.0 L-7.15 -7.65" fill="#ffffff" fill-rule="evenodd" stroke="none"/>
    </g>
  </defs>
</svg>
