<?xml version="1.0" encoding="UTF-8" standalone="no"?>
<svg xmlns:ffdec="https://www.free-decompiler.com/flash" xmlns:xlink="http://www.w3.org/1999/xlink" ffdec:objectType="frame" height="164.4px" width="162.8px" xmlns="http://www.w3.org/2000/svg">
  <g transform="matrix(2.0, 0.0, 0.0, 2.0, 80.4, 75.3)">
    <use ffdec:characterId="1241" height="5.6" transform="matrix(1.0, 0.0, 0.0, 1.0, -2.15, -2.2)" width="4.45" xlink:href="#shape0"/>
  </g>
  <defs>
    <g id="shape0" transform="matrix(1.0, 0.0, 0.0, 1.0, 2.15, 2.2)">
      <path d="M1.65 -0.85 L2.1 0.3 2.1 1.4 1.95 1.8 1.8 2.0 1.35 2.15 -0.15 2.2 -0.8 2.05 -1.15 1.65 -1.55 1.3 -1.9 0.9 -2.15 0.55 -2.15 0.15 -2.15 -0.6 -2.05 -1.3 -1.7 -1.85 -1.15 -2.2 0.3 -2.1 0.95 -1.95 1.2 -1.55 1.65 -0.85" fill="#ffffff" fill-rule="evenodd" stroke="none"/>
      <path d="M-0.25 -2.05 Q3.0 -1.2 2.1 1.85 1.35 4.3 -0.55 2.85 -3.4 0.7 -0.9 -1.65 L-0.25 -2.05" fill="#ffffff" fill-rule="evenodd" stroke="none"/>
    </g>
  </defs>
</svg>
