<?xml version="1.0" encoding="UTF-8" standalone="no"?>
<svg xmlns:ffdec="https://www.free-decompiler.com/flash" xmlns:xlink="http://www.w3.org/1999/xlink" ffdec:objectType="frame" height="17.7px" width="7.3px" xmlns="http://www.w3.org/2000/svg">
  <g transform="matrix(2.0, 0.0, 0.0, 2.0, 3.7, 8.9)">
    <use ffdec:characterId="2105" height="8.85" transform="matrix(1.0, 0.0, 0.0, 1.0, -1.85, -4.45)" width="3.65" xlink:href="#shape0"/>
  </g>
  <defs>
    <g id="shape0" transform="matrix(1.0, 0.0, 0.0, 1.0, 1.85, 4.45)">
      <path d="M1.35 0.6 L1.0 1.35 -1.0 4.25 -1.15 4.4 -1.45 4.35 -1.55 3.9 -1.1 2.8 Q-0.4 1.15 0.3 0.7 L1.35 0.6 M-0.55 -3.2 Q0.85 -4.6 1.8 -4.45 -1.0 -1.9 -1.05 -0.5 L-1.15 -0.4 -1.2 -0.3 -1.5 -0.6 -1.55 -0.65 -1.85 -1.2 -1.6 -1.9 -0.55 -3.2" fill="#fe7070" fill-rule="evenodd" stroke="none"/>
    </g>
  </defs>
</svg>
