<?xml version="1.0" encoding="UTF-8" standalone="no"?>
<svg xmlns:ffdec="https://www.free-decompiler.com/flash" xmlns:xlink="http://www.w3.org/1999/xlink" ffdec:objectType="frame" height="46.0px" width="71.4px" xmlns="http://www.w3.org/2000/svg">
  <g transform="matrix(2.0, 0.0, 0.0, 2.0, 38.2, 20.4)">
    <use ffdec:characterId="3298" height="13.3" transform="matrix(1.0, 0.0, 0.0, 1.0, -13.95, -6.65)" width="27.9" xlink:href="#shape0"/>
    <clipPath id="clipPath0" transform="matrix(1.0, 0.0, 0.0, 1.0, 0.0, 0.0)">
      <path d="M13.95 6.65 L-13.95 6.65 -13.95 -6.65 13.95 -6.65 13.95 6.65" fill="#357425" fill-rule="evenodd" stroke="none"/>
    </clipPath>
    <g clip-path="url(#clipPath0)">
      <use ffdec:characterId="3297" height="23.0" transform="matrix(1.0, 0.0, 0.0, 1.0, -14.7, -10.2)" width="31.3" xlink:href="#shape2"/>
    </g>
    <use ffdec:characterId="3294" height="13.3" transform="matrix(1.0, 0.0, 0.0, 1.0, -13.95, -6.65)" width="27.9" xlink:href="#shape3"/>
  </g>
  <defs>
    <g id="shape0" transform="matrix(1.0, 0.0, 0.0, 1.0, 13.95, 6.65)">
      <path d="M13.95 -6.65 L13.95 6.65 -13.95 6.65 -13.95 -6.65 13.95 -6.65" fill="#8fcc33" fill-rule="evenodd" stroke="none"/>
    </g>
    <g id="shape2" transform="matrix(1.0, 0.0, 0.0, 1.0, 14.7, 10.2)">
      <path d="M16.6 -1.85 L6.3 1.25 Q8.9 6.55 8.5 12.75 L7.6 12.8 Q5.7 7.75 1.75 2.65 L-14.6 7.55 -14.7 5.6 0.75 1.4 Q-3.55 -3.85 -9.95 -9.15 L-4.4 -10.2 Q2.4 -5.55 5.65 0.1 L16.45 -2.85 16.6 -1.85 M0.75 1.4 L1.75 2.65 6.3 1.25 5.65 0.1 0.75 1.4" fill="#ffffff" fill-rule="evenodd" stroke="none"/>
    </g>
    <g id="shape3" transform="matrix(1.0, 0.0, 0.0, 1.0, 13.95, 6.65)">
      <path d="M13.95 6.65 L-13.95 6.65 -13.95 -6.65 13.95 -6.65 13.95 6.65 Z" fill="none" stroke="#000000" stroke-linecap="round" stroke-linejoin="round" stroke-width="0.05"/>
    </g>
  </defs>
</svg>
