<?xml version="1.0" encoding="UTF-8" standalone="no"?>
<svg xmlns:ffdec="https://www.free-decompiler.com/flash" xmlns:xlink="http://www.w3.org/1999/xlink" ffdec:objectType="frame" height="46.0px" width="71.4px" xmlns="http://www.w3.org/2000/svg">
  <g transform="matrix(2.0, 0.0, 0.0, 2.0, 38.2, 20.4)">
    <use ffdec:characterId="3300" height="13.3" transform="matrix(1.0, 0.0, 0.0, 1.0, -13.95, -6.65)" width="27.9" xlink:href="#shape0"/>
    <clipPath id="clipPath0" transform="matrix(1.0, 0.0, 0.0, 1.0, 0.0, 0.0)">
      <path d="M13.95 6.65 L-13.95 6.65 -13.95 -6.65 13.95 -6.65 13.95 6.65" fill="#357425" fill-rule="evenodd" stroke="none"/>
    </clipPath>
    <g clip-path="url(#clipPath0)">
      <use ffdec:characterId="3299" height="21.2" transform="matrix(1.0, 0.0, 0.0, 1.0, -9.7, -9.15)" width="19.5" xlink:href="#shape2"/>
    </g>
    <use ffdec:characterId="3294" height="13.3" transform="matrix(1.0, 0.0, 0.0, 1.0, -13.95, -6.65)" width="27.9" xlink:href="#shape3"/>
  </g>
  <defs>
    <g id="shape0" transform="matrix(1.0, 0.0, 0.0, 1.0, 13.95, 6.65)">
      <path d="M13.95 6.65 L-13.95 6.65 -13.95 -6.65 13.95 -6.65 13.95 6.65" fill="#f2ba37" fill-rule="evenodd" stroke="none"/>
    </g>
    <g id="shape2" transform="matrix(1.0, 0.0, 0.0, 1.0, 9.7, 9.15)">
      <path d="M5.4 -9.15 Q14.45 1.45 4.95 12.05 L4.4 11.35 4.25 11.25 Q8.0 0.6 4.5 -9.15 L5.4 -9.15 M0.85 -0.6 Q1.25 -0.15 1.25 0.45 1.25 1.05 0.85 1.45 0.5 1.9 0.0 1.9 -0.5 1.9 -0.9 1.45 -1.25 1.05 -1.25 0.45 L-0.9 -0.6 Q-0.5 -1.0 0.0 -1.0 0.5 -1.0 0.85 -0.6 M-4.15 -8.35 Q-7.1 1.55 -4.4 12.05 L-5.3 12.05 Q-14.35 1.05 -4.85 -9.15 L-4.3 -8.45 -4.15 -8.35" fill="#ffffff" fill-rule="evenodd" stroke="none"/>
    </g>
    <g id="shape3" transform="matrix(1.0, 0.0, 0.0, 1.0, 13.95, 6.65)">
      <path d="M13.95 6.65 L-13.95 6.65 -13.95 -6.65 13.95 -6.65 13.95 6.65 Z" fill="none" stroke="#000000" stroke-linecap="round" stroke-linejoin="round" stroke-width="0.05"/>
    </g>
  </defs>
</svg>
