<?xml version="1.0" encoding="UTF-8" standalone="no"?>
<svg xmlns:ffdec="https://www.free-decompiler.com/flash" xmlns:xlink="http://www.w3.org/1999/xlink" ffdec:objectType="frame" height="46.0px" width="71.4px" xmlns="http://www.w3.org/2000/svg">
  <g transform="matrix(2.0, 0.0, 0.0, 2.0, 38.2, 20.4)">
    <use ffdec:characterId="3302" height="13.3" transform="matrix(1.0, 0.0, 0.0, 1.0, -13.95, -6.65)" width="27.9" xlink:href="#shape0"/>
    <clipPath id="clipPath0" transform="matrix(1.0, 0.0, 0.0, 1.0, 0.0, 0.0)">
      <path d="M13.95 6.65 L-13.95 6.65 -13.95 -6.65 13.95 -6.65 13.95 6.65" fill="#357425" fill-rule="evenodd" stroke="none"/>
    </clipPath>
    <g clip-path="url(#clipPath0)">
      <use ffdec:characterId="3301" height="21.8" transform="matrix(1.0, 0.0, 0.0, 1.0, -14.1, -10.2)" width="28.75" xlink:href="#shape2"/>
    </g>
    <use ffdec:characterId="3294" height="13.3" transform="matrix(1.0, 0.0, 0.0, 1.0, -13.95, -6.65)" width="27.9" xlink:href="#shape3"/>
  </g>
  <defs>
    <g id="shape0" transform="matrix(1.0, 0.0, 0.0, 1.0, 13.95, 6.65)">
      <path d="M-13.95 -6.65 L13.95 -6.65 13.95 6.65 -13.95 6.65 -13.95 -6.65" fill="#f95a17" fill-rule="evenodd" stroke="none"/>
    </g>
    <g id="shape2" transform="matrix(1.0, 0.0, 0.0, 1.0, 14.1, 10.2)">
      <path d="M-0.7 -9.9 L14.65 11.6 12.45 11.5 -3.3 -10.2 -0.7 -9.9 M-11.45 -9.9 L3.9 11.6 1.7 11.5 -14.1 -10.2 -11.45 -9.9 M-6.05 -9.9 L9.25 11.6 7.05 11.5 -8.7 -10.2 -6.05 -9.9" fill="#ffffff" fill-rule="evenodd" stroke="none"/>
    </g>
    <g id="shape3" transform="matrix(1.0, 0.0, 0.0, 1.0, 13.95, 6.65)">
      <path d="M13.95 6.65 L-13.95 6.65 -13.95 -6.65 13.95 -6.65 13.95 6.65 Z" fill="none" stroke="#000000" stroke-linecap="round" stroke-linejoin="round" stroke-width="0.05"/>
    </g>
  </defs>
</svg>
