<?xml version="1.0" encoding="UTF-8" standalone="no"?>
<svg xmlns:ffdec="https://www.free-decompiler.com/flash" xmlns:xlink="http://www.w3.org/1999/xlink" ffdec:objectType="frame" height="46.0px" width="71.4px" xmlns="http://www.w3.org/2000/svg">
  <g transform="matrix(2.0, 0.0, 0.0, 2.0, 38.2, 20.4)">
    <use ffdec:characterId="3295" height="13.3" transform="matrix(1.0, 0.0, 0.0, 1.0, -13.95, -6.65)" width="27.9" xlink:href="#shape0"/>
    <clipPath id="clipPath0" transform="matrix(1.0, 0.0, 0.0, 1.0, 0.0, 0.0)">
      <path d="M13.95 6.65 L-13.95 6.65 -13.95 -6.65 13.95 -6.65 13.95 6.65" fill="#357425" fill-rule="evenodd" stroke="none"/>
    </clipPath>
    <g clip-path="url(#clipPath0)">
      <use ffdec:characterId="3296" height="19.4" transform="matrix(1.0, 0.0, 0.0, 1.0, -11.95, -8.4)" width="23.3" xlink:href="#shape1"/>
    </g>
    <use ffdec:characterId="3294" height="13.3" transform="matrix(1.0, 0.0, 0.0, 1.0, -13.95, -6.65)" width="27.9" xlink:href="#shape2"/>
  </g>
  <defs>
    <g id="shape0" transform="matrix(1.0, 0.0, 0.0, 1.0, 13.95, 6.65)">
      <path d="M13.95 6.65 L-13.95 6.65 -13.95 -6.65 13.95 -6.65 13.95 6.65" fill="#357425" fill-rule="evenodd" stroke="none"/>
    </g>
    <g id="shape1" transform="matrix(1.0, 0.0, 0.0, 1.0, 11.95, 8.4)">
      <path d="M-11.95 -8.4 L-5.6 -8.4 -6.65 1.5 -9.95 1.5 -11.95 -8.4 M1.75 0.05 L3.5 11.0 -2.55 10.7 -1.55 0.05 1.75 0.05 M4.95 -8.4 L11.35 -8.4 10.4 1.7 6.7 1.9 4.95 -8.4" fill="#ffffff" fill-rule="evenodd" stroke="none"/>
    </g>
    <g id="shape2" transform="matrix(1.0, 0.0, 0.0, 1.0, 13.95, 6.65)">
      <path d="M13.95 6.65 L-13.95 6.65 -13.95 -6.65 13.95 -6.65 13.95 6.65 Z" fill="none" stroke="#000000" stroke-linecap="round" stroke-linejoin="round" stroke-width="0.05"/>
    </g>
  </defs>
</svg>
