<?xml version="1.0" encoding="UTF-8" standalone="no"?>
<svg xmlns:ffdec="https://www.free-decompiler.com/flash" xmlns:xlink="http://www.w3.org/1999/xlink" ffdec:objectType="frame" height="46.0px" width="71.4px" xmlns="http://www.w3.org/2000/svg">
  <g transform="matrix(2.0, 0.0, 0.0, 2.0, 38.2, 20.4)">
    <use ffdec:characterId="3304" height="13.3" transform="matrix(1.0, 0.0, 0.0, 1.0, -13.95, -6.65)" width="27.9" xlink:href="#shape0"/>
    <clipPath id="clipPath0" transform="matrix(1.0, 0.0, 0.0, 1.0, 0.0, 0.0)">
      <path d="M13.95 6.65 L-13.95 6.65 -13.95 -6.65 13.95 -6.65 13.95 6.65" fill="#357425" fill-rule="evenodd" stroke="none"/>
    </clipPath>
    <g clip-path="url(#clipPath0)">
      <use ffdec:characterId="3303" height="13.1" transform="matrix(1.0, 0.0, 0.0, 1.0, -19.1, -8.5)" width="28.55" xlink:href="#shape2"/>
    </g>
    <use ffdec:characterId="3294" height="13.3" transform="matrix(1.0, 0.0, 0.0, 1.0, -13.95, -6.65)" width="27.9" xlink:href="#shape3"/>
  </g>
  <defs>
    <g id="shape0" transform="matrix(1.0, 0.0, 0.0, 1.0, 13.95, 6.65)">
      <path d="M13.95 -6.65 L13.95 6.65 -13.95 6.65 -13.95 -6.65 13.95 -6.65" fill="#8e1313" fill-rule="evenodd" stroke="none"/>
    </g>
    <g id="shape2" transform="matrix(1.0, 0.0, 0.0, 1.0, 19.1, 8.5)">
      <path d="M-19.1 -0.75 L-16.7 -8.5 Q1.0 -7.85 9.45 4.6 -2.15 -3.95 -19.1 -0.75" fill="#ffffff" fill-rule="evenodd" stroke="none"/>
    </g>
    <g id="shape3" transform="matrix(1.0, 0.0, 0.0, 1.0, 13.95, 6.65)">
      <path d="M13.95 6.65 L-13.95 6.65 -13.95 -6.65 13.95 -6.65 13.95 6.65 Z" fill="none" stroke="#000000" stroke-linecap="round" stroke-linejoin="round" stroke-width="0.05"/>
    </g>
  </defs>
</svg>
