<?xml version="1.0" encoding="UTF-8" standalone="no"?>
<svg xmlns:ffdec="https://www.free-decompiler.com/flash" xmlns:xlink="http://www.w3.org/1999/xlink" ffdec:objectType="frame" height="322.4px" width="1185.1px" xmlns="http://www.w3.org/2000/svg">
  <g transform="matrix(2.0, 0.0, 0.0, 2.0, 508.6, 180.4)">
    <use ffdec:characterId="144" height="19.95" id="shadower" transform="matrix(1.9385, 0.2857, 0.0273, 1.3902, -68.4731, 15.6832)" width="65.05" xlink:href="#sprite0"/>
    <filter id="filter0"/>
    <use ffdec:characterId="2652" filter="url(#filter0)" height="27.65" id="hand2" transform="matrix(0.91, 0.0247, -0.0247, 0.91, 15.3772, -0.8613)" width="17.3" xlink:href="#sprite1"/>
    <filter id="filter1"/>
    <use ffdec:characterId="2649" filter="url(#filter1)" height="15.6" id="arm2" transform="matrix(0.9084, 0.0562, -0.0562, 0.9084, 19.4032, 22.1762)" width="15.55" xlink:href="#sprite3"/>
    <filter id="filter2"/>
    <use ffdec:characterId="2655" filter="url(#filter2)" height="31.1" id="leg4" transform="matrix(0.8969, 0.1509, -0.1509, 0.8969, -31.1613, -3.6965)" width="21.15" xlink:href="#sprite5"/>
    <filter id="filter3"/>
    <use ffdec:characterId="2649" filter="url(#filter3)" height="15.6" id="leg2" transform="matrix(0.9087, 0.0364, -0.0364, 0.9087, -35.6535, 21.7281)" width="15.55" xlink:href="#sprite3"/>
    <filter id="filter4"/>
    <use ffdec:characterId="2663" filter="url(#filter4)" height="59.45" id="chest" transform="matrix(0.9998, -0.0136, 0.0136, 0.9998, -55.6388, -13.9741)" width="54.1" xlink:href="#sprite7"/>
    <filter id="filter5"/>
    <use ffdec:characterId="2660" filter="url(#filter5)" height="51.05" id="foot1" transform="matrix(0.998, -0.0572, 0.0572, 0.998, -6.6044, -31.5301)" width="43.85" xlink:href="#sprite9"/>
    <filter id="filter6"/>
    <use ffdec:characterId="2655" filter="url(#filter6)" height="31.1" id="leg3" transform="matrix(0.985, 0.1657, -0.1657, 0.985, -36.0641, -4.8227)" width="21.15" xlink:href="#sprite5"/>
    <filter id="filter7"/>
    <use ffdec:characterId="2649" filter="url(#filter7)" height="15.6" id="leg1" transform="matrix(0.9979, 0.04, -0.04, 0.9979, -40.6714, 23.7545)" width="15.55" xlink:href="#sprite3"/>
    <filter id="filter8"/>
    <use ffdec:characterId="2652" filter="url(#filter8)" height="27.65" id="hand1" transform="matrix(0.9993, 0.0271, -0.0271, 0.9993, 11.4928, -0.8582)" width="17.3" xlink:href="#sprite1"/>
    <filter id="filter9"/>
    <use ffdec:characterId="2649" filter="url(#filter9)" height="15.6" id="arm1" transform="matrix(0.9955, 0.0882, -0.0882, 0.9955, 15.7227, 24.3475)" width="15.55" xlink:href="#sprite3"/>
    <filter id="filter10"/>
    <use ffdec:characterId="2646" filter="url(#filter10)" height="33.3" id="head" transform="matrix(0.9977, -0.0489, 0.0489, 0.9977, 15.7128, -30.466)" width="35.75" xlink:href="#sprite12"/>
  </g>
  <defs>
    <g id="sprite0" transform="matrix(1.0, 0.0, 0.0, 1.0, 32.5, 9.95)">
      <use ffdec:characterId="143" height="19.95" transform="matrix(1.0, 0.0, 0.0, 1.0, -32.5, -9.95)" width="65.05" xlink:href="#shape0"/>
    </g>
    <g id="shape0" transform="matrix(1.0, 0.0, 0.0, 1.0, 32.5, 9.95)">
      <path d="M1.45 8.25 Q-12.05 10.55 -22.0 9.8 -31.85 9.0 -32.45 5.6 -33.05 2.2 -24.0 -1.85 -14.9 -5.9 -1.4 -8.2 12.1 -10.55 22.0 -9.75 31.95 -9.0 32.5 -5.6 33.1 -2.2 24.0 1.85 14.95 5.9 1.45 8.25" fill="url(#gradient0)" fill-rule="evenodd" stroke="none"/>
    </g>
    <radialGradient cx="0" cy="0" gradientTransform="matrix(0.0432, -0.0074, 0.0018, 0.0106, 0.05, 0.0)" gradientUnits="userSpaceOnUse" id="gradient0" r="819.2" spreadMethod="pad">
      <stop offset="0.3333333333333333" stop-color="#000000" stop-opacity="0.68235296"/>
      <stop offset="0.8627450980392157" stop-color="#000000" stop-opacity="0.0"/>
      <stop offset="1.0" stop-color="#000000" stop-opacity="0.0"/>
    </radialGradient>
    <g id="sprite1" transform="matrix(1.0, 0.0, 0.0, 1.0, 8.05, 14.3)">
      <use ffdec:characterId="2651" height="27.65" transform="matrix(1.0, 0.0, 0.0, 1.0, -8.05, -14.3)" width="17.3" xlink:href="#sprite2"/>
    </g>
    <g id="sprite2" transform="matrix(1.0, 0.0, 0.0, 1.0, 8.05, 14.3)">
      <use ffdec:characterId="2650" height="27.65" transform="matrix(1.0, 0.0, 0.0, 1.0, -8.05, -14.3)" width="17.3" xlink:href="#shape1"/>
    </g>
    <g id="shape1" transform="matrix(1.0, 0.0, 0.0, 1.0, 8.05, 14.3)">
      <path d="M-1.55 11.9 Q-1.85 10.1 -2.5 8.25 -4.15 3.4 -8.05 -2.05 -6.1 -2.15 -4.95 -0.25 -4.85 -2.05 -6.2 -3.25 L-5.9 -4.75 Q-1.95 -2.7 -1.2 2.65 L-0.75 6.0 1.3 8.25 Q2.95 10.3 2.95 11.15 L5.95 11.15 6.9 8.5 7.0 12.1 Q2.95 14.7 -1.55 11.9" fill="url(#gradient1)" fill-rule="evenodd" stroke="none"/>
      <path d="M-5.9 -4.75 Q-5.45 -7.45 -5.8 -9.2 -6.25 -11.45 -2.85 -13.0 0.55 -14.55 8.05 -7.85 6.8 -0.1 6.9 8.25 L6.9 8.5 5.95 11.15 2.95 11.15 Q2.95 10.3 1.3 8.25 L-0.75 6.0 -1.2 2.65 Q-1.95 -2.7 -5.9 -4.75" fill="url(#gradient2)" fill-rule="evenodd" stroke="none"/>
      <path d="M-1.55 11.9 Q-1.85 10.1 -2.5 8.25 -4.15 3.4 -8.05 -2.05 -6.1 -2.15 -4.95 -0.25 -4.85 -2.05 -6.2 -3.25 L-5.9 -4.75 Q-5.45 -7.45 -5.8 -9.2 M8.05 -7.85 Q6.8 -0.1 6.9 8.25 L6.9 8.5 7.0 12.1" fill="none" stroke="#000000" stroke-linecap="round" stroke-linejoin="round" stroke-width="0.05"/>
      <path d="M8.05 -7.7 Q7.5 -4.6 7.25 -1.35 L7.0 -1.95 Q6.35 -3.25 5.1 -4.4 4.4 -5.1 3.05 -5.1 L2.15 -5.1 0.15 -5.45 Q-1.45 -6.0 -2.15 -7.35 L-2.5 -8.1 -2.5 -8.3 -2.65 -9.15 -2.25 -9.75 -2.25 -9.0 -2.0 -8.5 -1.85 -8.4 Q-0.9 -7.8 0.3 -7.4 L0.8 -7.4 3.6 -7.7 4.3 -7.8 5.25 -8.0 6.7 -7.9 8.05 -7.7 M2.7 -1.55 Q4.75 -1.0 6.1 0.15 L7.1 0.75 7.15 0.75 7.2 0.65 7.0 3.55 6.95 3.55 Q6.05 3.45 5.15 2.8 L4.1 1.9 3.45 1.05 3.3 1.0 3.2 1.0 Q2.65 -0.15 1.05 -0.6 -0.25 -1.0 -1.0 -1.9 -1.45 -2.4 -1.35 -2.8 L-1.65 -3.25 -1.35 -2.9 -1.35 -3.05 -1.3 -2.8 Q-0.35 -1.9 1.35 -1.8 L2.7 -1.55 M6.9 5.4 L6.9 7.65 5.4 6.65 Q4.6 5.95 3.35 5.6 2.55 5.35 2.2 4.9 L2.0 4.65 2.0 4.6 2.05 4.6 1.75 4.4 1.75 4.3 1.6 4.1 1.9 4.25 2.55 4.55 3.45 4.75 5.7 5.05 Q6.45 5.1 6.9 5.4 M3.8 5.4 L3.8 5.35 3.65 5.35 3.8 5.4 M-1.8 -7.6 L-1.7 -7.5 -1.65 -7.55 -1.8 -7.6 M-1.5 -7.6 L-1.45 -7.65 -1.6 -7.75 -1.5 -7.6" fill="#000000" fill-opacity="0.15294118" fill-rule="evenodd" stroke="none"/>
      <path d="M-4.5 -13.2 L-3.0 -14.3 3.7 -13.5 9.25 -9.05 8.25 -3.85 8.15 3.6 7.15 3.6 5.8 3.9 4.1 -3.15 -2.85 -7.75 -4.5 -13.2" fill="url(#gradient3)" fill-rule="evenodd" stroke="none"/>
      <path d="M-4.5 -13.2 L-2.85 -7.75 4.1 -3.15 5.8 3.9 7.15 3.6 8.15 3.6 8.0 9.8 4.25 8.2 2.5 -0.55 -6.5 -6.45 -5.95 -12.15 -4.5 -13.2" fill="url(#gradient4)" fill-rule="evenodd" stroke="none"/>
      <path d="M8.15 3.6 L8.25 -3.85 9.25 -9.05 3.7 -13.5 -3.0 -14.3 -4.5 -13.2 -5.95 -12.15 -6.5 -6.45 2.5 -0.55 4.25 8.2 8.0 9.8 8.15 3.6 Z" fill="none" stroke="#000000" stroke-linecap="round" stroke-linejoin="round" stroke-width="0.05"/>
    </g>
    <radialGradient color-interpolation="linearRGB" cx="0" cy="0" gradientTransform="matrix(0.022, 0.0, 0.0, 0.022, 1.15, 11.85)" gradientUnits="userSpaceOnUse" id="gradient1" r="819.2" spreadMethod="pad">
      <stop offset="0.0" stop-color="#b2b2b2"/>
      <stop offset="0.3568627450980392" stop-color="#919191"/>
      <stop offset="1.0" stop-color="#717576"/>
    </radialGradient>
    <radialGradient cx="0" cy="0" gradientTransform="matrix(0.0256, 0.0, 0.0, 0.0256, 2.85, 6.75)" gradientUnits="userSpaceOnUse" id="gradient2" r="819.2" spreadMethod="pad">
      <stop offset="0.0" stop-color="#2c2c2c"/>
      <stop offset="1.0" stop-color="#0d0b0a"/>
    </radialGradient>
    <radialGradient cx="0" cy="0" gradientTransform="matrix(0.0199, 0.0, 0.0, 0.0199, 5.7, -6.35)" gradientUnits="userSpaceOnUse" id="gradient3" r="819.2" spreadMethod="pad">
      <stop offset="0.0" stop-color="#10162a"/>
      <stop offset="1.0" stop-color="#030209"/>
    </radialGradient>
    <radialGradient cx="0" cy="0" gradientTransform="matrix(0.0167, 0.0, 0.0, 0.0167, -0.7, 1.7)" gradientUnits="userSpaceOnUse" id="gradient4" r="819.2" spreadMethod="pad">
      <stop offset="0.0" stop-color="#282e42"/>
      <stop offset="1.0" stop-color="#0a0b0d"/>
    </radialGradient>
    <g id="sprite3" transform="matrix(1.0, 0.0, 0.0, 1.0, 7.8, 7.8)">
      <use ffdec:characterId="2648" height="15.6" transform="matrix(1.0, 0.0, 0.0, 1.0, -7.8, -7.8)" width="15.55" xlink:href="#sprite4"/>
    </g>
    <g id="sprite4" transform="matrix(1.0, 0.0, 0.0, 1.0, 7.75, 7.8)">
      <use ffdec:characterId="2647" height="15.6" transform="matrix(1.0, 0.0, 0.0, 1.0, -7.75, -7.8)" width="15.55" xlink:href="#shape2"/>
    </g>
    <g id="shape2" transform="matrix(1.0, 0.0, 0.0, 1.0, 7.75, 7.8)">
      <path d="M-7.0 -6.5 L-7.75 -7.8 -6.5 -7.05 -6.25 -6.95 -7.0 -6.5" fill="url(#gradient5)" fill-rule="evenodd" stroke="none"/>
      <path d="M2.25 -6.8 L4.1 -7.7 Q1.65 -3.65 2.0 2.45 L7.8 3.9 7.4 7.8 Q2.4 6.4 -2.6 7.15 -1.7 3.25 -3.85 -0.95 L-7.0 -6.5 -6.25 -6.95 Q-1.6 -5.55 2.25 -6.8" fill="url(#gradient6)" fill-rule="evenodd" stroke="none"/>
      <path d="M2.25 -6.8 L4.1 -7.7 Q1.65 -3.65 2.0 2.45 L7.8 3.9 7.4 7.8 Q2.4 6.4 -2.6 7.15 -1.7 3.25 -3.85 -0.95 L-7.0 -6.5 -7.75 -7.8 -6.5 -7.05" fill="none" stroke="#000000" stroke-linecap="round" stroke-linejoin="round" stroke-width="0.05"/>
      <path d="M2.7 1.05 L-3.6 3.2 -6.0 -3.45 3.05 -4.75 2.7 1.05" fill="url(#gradient7)" fill-rule="evenodd" stroke="none"/>
      <path d="M2.7 1.05 L-3.6 3.2 -6.0 -3.45 3.05 -4.75 2.7 1.05 Z" fill="none" stroke="#000000" stroke-linecap="round" stroke-linejoin="round" stroke-width="0.05"/>
    </g>
    <radialGradient cx="0" cy="0" gradientTransform="matrix(0.0194, 0.0, 0.0, 0.0194, -0.75, -5.85)" gradientUnits="userSpaceOnUse" id="gradient5" r="819.2" spreadMethod="pad">
      <stop offset="0.0" stop-color="#ae9775"/>
      <stop offset="1.0" stop-color="#817466"/>
    </radialGradient>
    <radialGradient color-interpolation="linearRGB" cx="0" cy="0" gradientTransform="matrix(0.0178, 0.0, 0.0, 0.0178, 0.25, 6.1)" gradientUnits="userSpaceOnUse" id="gradient6" r="819.2" spreadMethod="pad">
      <stop offset="0.0" stop-color="#b2b2b2"/>
      <stop offset="0.3568627450980392" stop-color="#919191"/>
      <stop offset="1.0" stop-color="#717576"/>
    </radialGradient>
    <radialGradient cx="0" cy="0" gradientTransform="matrix(0.0073, 0.0, 0.0, 0.0073, -1.9, -2.5)" gradientUnits="userSpaceOnUse" id="gradient7" r="819.2" spreadMethod="pad">
      <stop offset="0.0" stop-color="#10162a"/>
      <stop offset="1.0" stop-color="#030209"/>
    </radialGradient>
    <g id="sprite5" transform="matrix(1.0, 0.0, 0.0, 1.0, 10.6, 15.55)">
      <use ffdec:characterId="2654" height="31.1" transform="matrix(1.0, 0.0, 0.0, 1.0, -10.6, -15.55)" width="21.15" xlink:href="#sprite6"/>
    </g>
    <g id="sprite6" transform="matrix(1.0, 0.0, 0.0, 1.0, 10.6, 15.55)">
      <use ffdec:characterId="2653" height="31.1" transform="matrix(1.0, 0.0, 0.0, 1.0, -10.6, -15.55)" width="21.15" xlink:href="#shape3"/>
    </g>
    <g id="shape3" transform="matrix(1.0, 0.0, 0.0, 1.0, 10.6, 15.55)">
      <path d="M-8.1 -1.3 L-7.35 0.2 -7.75 0.4 -8.1 -1.3" fill="#b2b2b2" fill-rule="evenodd" stroke="none"/>
      <path d="M-7.35 0.2 L-5.35 3.95 Q-3.85 8.05 -4.35 11.2 -3.05 11.85 -0.45 10.6 L2.5 7.75 Q0.15 11.45 -1.75 15.45 -5.6 16.05 -7.6 13.45 L-7.25 12.15 -7.15 11.35 Q-6.75 4.25 -10.6 -1.65 L-7.75 0.4 -7.35 0.2" fill="url(#gradient8)" fill-rule="evenodd" stroke="none"/>
      <path d="M10.15 -11.4 Q11.45 -5.35 8.65 -0.8 5.3 3.3 2.5 7.75 L-0.45 10.6 Q-3.05 11.85 -4.35 11.2 -3.85 8.05 -5.35 3.95 L-7.35 0.2 -8.1 -1.3 -8.2 -1.65 Q-7.8 -4.9 -6.85 -8.4 L-5.4 -12.8 -4.75 -13.75 Q3.5 -18.25 9.95 -11.6 L10.15 -11.4" fill="url(#gradient9)" fill-rule="evenodd" stroke="none"/>
      <path d="M2.5 7.75 Q5.3 3.3 8.65 -0.8 11.45 -5.35 10.15 -11.4 M-6.85 -8.4 Q-7.8 -4.9 -8.2 -1.65 L-8.1 -1.3 -7.75 0.4 -10.6 -1.65 Q-6.75 4.25 -7.15 11.35 L-7.25 12.15 -7.6 13.45 M2.5 7.75 Q0.15 11.45 -1.75 15.45" fill="none" stroke="#000000" stroke-linecap="round" stroke-linejoin="round" stroke-width="0.05"/>
      <path d="M9.2 -9.4 Q9.9 -10.15 10.05 -11.0 L10.05 -10.9 10.15 -10.9 10.2 -10.9 10.3 -10.9 10.4 -9.5 10.55 -8.0 10.4 -7.4 10.4 -6.7 10.45 -6.45 10.4 -6.2 10.35 -5.7 10.4 -5.65 10.45 -5.6 10.4 -5.0 10.1 -3.85 9.95 -3.0 8.0 0.05 7.7 0.55 6.25 2.2 Q5.65 2.9 5.45 3.65 L5.1 3.8 5.15 3.85 3.6 3.8 Q3.05 3.8 2.7 4.25 L1.5 5.85 0.9 6.75 Q0.4 7.5 0.5 8.4 L0.3 8.65 Q-0.1 7.75 0.0 6.5 L0.2 5.3 0.5 4.4 1.2 3.0 1.75 2.0 Q0.45 1.9 -0.7 2.65 L-1.15 3.2 -1.35 3.65 -1.4 3.7 -1.5 3.0 -1.3 1.95 -0.6 0.7 Q0.4 -1.3 2.75 -2.05 4.4 -2.6 5.0 -4.05 L4.9 -4.5 Q3.3 -6.25 2.25 -8.3 1.85 -8.95 2.0 -9.65 4.0 -7.55 7.0 -8.15 8.3 -8.4 9.2 -9.4 M8.35 0.65 L8.3 0.65 8.55 0.35 8.55 0.3 8.5 0.4 8.35 0.65" fill="#000000" fill-opacity="0.15294118" fill-rule="evenodd" stroke="none"/>
    </g>
    <radialGradient color-interpolation="linearRGB" cx="0" cy="0" gradientTransform="matrix(0.0192, 0.0, 0.0, 0.0192, -4.9, 13.0)" gradientUnits="userSpaceOnUse" id="gradient8" r="819.2" spreadMethod="pad">
      <stop offset="0.0" stop-color="#b2b2b2"/>
      <stop offset="0.3568627450980392" stop-color="#919191"/>
      <stop offset="1.0" stop-color="#717576"/>
    </radialGradient>
    <radialGradient cx="0" cy="0" gradientTransform="matrix(0.0269, 0.0, 0.0, 0.0269, -1.9, 2.5)" gradientUnits="userSpaceOnUse" id="gradient9" r="819.2" spreadMethod="pad">
      <stop offset="0.0" stop-color="#2c2c2c"/>
      <stop offset="1.0" stop-color="#0d0b0a"/>
    </radialGradient>
    <g id="sprite7" transform="matrix(1.0, 0.0, 0.0, 1.0, 34.8, 18.05)">
      <use ffdec:characterId="2662" height="59.45" transform="matrix(1.0, 0.0, 0.0, 1.0, -34.8, -18.05)" width="54.1" xlink:href="#sprite8"/>
    </g>
    <g id="sprite8" transform="matrix(1.0, 0.0, 0.0, 1.0, 34.85, 18.0)">
      <use ffdec:characterId="2661" height="59.45" transform="matrix(1.0, 0.0, 0.0, 1.0, -34.85, -18.0)" width="54.1" xlink:href="#shape4"/>
    </g>
    <g id="shape4" transform="matrix(1.0, 0.0, 0.0, 1.0, 34.85, 18.0)">
      <path d="M18.7 3.0 L19.0 1.1 18.95 3.0 19.05 1.45 19.15 3.0 18.95 3.0 18.7 3.0" fill="#cadcc5" fill-rule="evenodd" stroke="none"/>
      <path d="M19.15 3.0 Q19.4 8.55 18.9 14.2 L17.5 13.95 Q11.2 12.9 5.85 14.7 7.65 12.85 10.4 12.15 4.75 10.25 -0.35 7.2 -3.15 6.45 -5.8 6.45 L-2.0 5.1 2.25 4.95 11.1 4.2 13.35 3.15 18.7 3.0 18.95 3.05 18.95 3.0 19.15 3.0" fill="url(#gradient10)" fill-rule="evenodd" stroke="none"/>
      <path d="M-5.8 6.45 Q-10.65 6.45 -15.1 8.95 -17.55 5.85 -18.55 2.5 -19.95 -2.0 -18.7 -6.9 L-18.55 -7.25 Q-17.25 -10.05 -14.95 -12.05 -16.35 -13.05 -18.85 -12.95 -14.6 -15.4 -9.4 -14.45 L-5.95 -14.3 -3.1 -13.2 Q-1.25 -12.45 2.55 -12.15 3.2 -12.9 1.55 -14.2 4.25 -14.0 6.55 -12.35 7.6 -12.0 8.7 -12.65 L7.25 -14.55 Q10.05 -14.25 12.55 -12.25 L12.9 -12.25 16.65 -12.8 Q18.3 -6.6 18.9 1.45 L18.7 3.0 13.35 3.15 11.1 4.2 2.25 4.95 -2.0 5.1 -5.8 6.45" fill="url(#gradient11)" fill-rule="evenodd" stroke="none"/>
      <path d="M-5.8 6.45 Q-10.65 6.45 -15.1 8.95 -17.55 5.85 -18.55 2.5 -19.95 -2.0 -18.7 -6.9 L-18.55 -7.25 Q-17.25 -10.05 -14.95 -12.05 -16.35 -13.05 -18.85 -12.95 -14.6 -15.4 -9.4 -14.45 L-5.95 -14.3 -3.1 -13.2 Q-1.25 -12.45 2.55 -12.15 3.2 -12.9 1.55 -14.2 4.25 -14.0 6.55 -12.35 7.6 -12.0 8.7 -12.65 L7.25 -14.55 Q10.05 -14.25 12.55 -12.25 L12.9 -12.25 16.65 -12.8 M18.9 14.2 L17.5 13.95 Q11.2 12.9 5.85 14.7 7.65 12.85 10.4 12.15 4.75 10.25 -0.35 7.2 -3.15 6.45 -5.8 6.45" fill="none" stroke="#000000" stroke-linecap="round" stroke-linejoin="round" stroke-width="0.05"/>
      <path d="M-28.85 34.85 Q-29.05 29.15 -25.75 22.95 L-24.65 25.95 Q-22.5 16.0 -22.25 5.3 -21.5 7.45 -19.75 7.7 -19.05 2.35 -16.8 -2.65 L-17.05 1.35 Q-19.3 9.8 -17.85 15.7 L-21.1 9.45 Q-19.35 20.95 -23.85 34.2 L-25.85 28.2 Q-27.6 31.55 -28.85 34.85" fill="url(#gradient12)" fill-rule="evenodd" stroke="none"/>
      <path d="M-16.35 -9.5 L-16.8 -2.65 Q-19.05 2.35 -19.75 7.7 -21.5 7.45 -22.25 5.3 -22.5 16.0 -24.65 25.95 L-25.75 22.95 Q-29.05 29.15 -28.85 34.85 L-31.1 41.45 Q-35.7 33.05 -30.85 16.95 L-34.85 22.7 Q-34.6 12.45 -27.35 4.2 L-30.1 4.95 Q-27.6 -4.35 -16.35 -9.5" fill="url(#gradient13)" fill-rule="evenodd" stroke="none"/>
      <path d="M-16.35 -9.5 Q-27.6 -4.35 -30.1 4.95 L-27.35 4.2 Q-34.6 12.45 -34.85 22.7 L-30.85 16.95 Q-35.7 33.05 -31.1 41.45 L-28.85 34.85 Q-27.6 31.55 -25.85 28.2 L-23.85 34.2 Q-19.35 20.95 -21.1 9.45 L-17.85 15.7 Q-19.3 9.8 -17.05 1.35" fill="none" stroke="#000000" stroke-linecap="round" stroke-linejoin="round" stroke-width="0.05"/>
      <path d="M7.25 -14.55 Q10.05 -14.25 12.55 -12.25 L12.9 -12.25 14.8 -12.5 Q14.95 -11.35 13.9 -10.65 12.6 -9.75 11.0 -9.9 L10.45 -9.85 10.15 -9.7 Q9.55 -8.9 9.7 -7.85 L10.05 -5.85 10.3 -5.1 10.4 -4.85 10.45 -4.65 10.55 -4.3 Q10.85 -3.9 11.4 -3.85 L12.55 -3.45 Q11.3 -2.8 10.2 -3.8 L10.15 -3.85 Q9.65 -4.1 9.35 -4.85 L8.0 -7.85 7.55 -8.65 5.8 -10.65 5.05 -10.7 4.6 -8.95 Q4.45 -8.05 5.2 -7.35 L6.25 -6.15 6.35 -5.95 6.5 -5.65 7.0 -5.5 8.05 -4.65 6.55 -4.85 5.35 -5.2 4.8 -5.55 4.2 -5.85 3.15 -6.6 2.95 -6.75 Q1.95 -7.2 1.2 -8.1 -0.6 -10.2 -3.3 -10.35 L-4.15 -10.15 -3.9 -9.65 -3.4 -8.95 -3.0 -8.4 -2.25 -6.95 -2.2 -6.85 -2.0 -6.5 -1.85 -6.0 -1.55 -5.6 -1.4 -5.2 -1.35 -5.15 -1.1 -5.1 0.45 -4.75 0.45 -4.6 0.4 -4.5 0.3 -4.4 0.25 -4.35 Q-0.45 -4.15 -1.1 -4.35 L-1.45 -4.4 Q-1.9 -4.4 -2.2 -4.85 L-2.35 -4.85 -2.45 -5.1 -2.45 -5.25 -2.85 -5.95 -3.2 -6.9 -3.4 -7.35 -3.8 -7.85 -4.15 -8.25 Q-5.1 -9.2 -6.35 -9.7 L-9.75 -10.3 -9.75 -10.2 -9.8 -10.15 -9.9 -10.3 -11.65 -10.1 -11.65 -10.15 -11.65 -10.25 -11.6 -10.3 -11.6 -10.4 -11.55 -10.45 -11.4 -10.5 -11.35 -10.55 -11.35 -10.65 -11.3 -10.7 -11.3 -10.75 -11.25 -10.75 -11.2 -10.8 -11.15 -10.85 -11.0 -11.35 -10.8 -11.75 Q-10.65 -12.05 -10.8 -12.3 L-10.85 -12.4 -10.85 -12.6 -11.2 -13.1 -11.8 -13.9 -11.95 -14.05 -12.0 -14.15 -12.1 -14.3 -12.2 -14.35 -12.25 -14.5 -12.3 -14.6 -12.25 -14.6 -12.25 -14.7 -12.25 -14.75 -12.15 -14.8 -12.05 -14.85 -11.75 -14.7 -11.65 -14.65 -11.4 -14.7 -9.4 -14.45 -5.95 -14.3 -3.1 -13.2 Q-1.25 -12.45 2.55 -12.15 3.2 -12.9 1.55 -14.2 4.25 -14.0 6.55 -12.35 7.6 -12.0 8.7 -12.65 L7.25 -14.55 M-10.3 -14.3 L-10.3 -14.4 -10.35 -14.4 -10.35 -14.3 -10.3 -14.3" fill="#000000" fill-opacity="0.15294118" fill-rule="evenodd" stroke="none"/>
      <path d="M-10.2 -16.95 L-4.5 -16.65 -4.85 -18.0 3.5 -15.15 2.5 -17.65 12.45 -14.35 11.1 -11.9 6.35 -10.0 -2.65 -14.15 -6.4 -13.15 -10.2 -16.95" fill="url(#gradient14)" fill-rule="evenodd" stroke="none"/>
      <path d="M12.45 -14.35 L15.4 -13.4 13.15 -9.15 8.15 -5.5 -1.75 -11.25 -6.75 -9.15 -10.85 -12.4 -14.0 -18.0 -11.25 -17.0 -10.2 -16.95 -6.4 -13.15 -2.65 -14.15 6.35 -10.0 11.1 -11.9 12.45 -14.35" fill="url(#gradient15)" fill-rule="evenodd" stroke="none"/>
      <path d="M12.45 -14.35 L15.4 -13.4 13.15 -9.15 8.15 -5.5 -1.75 -11.25 -6.75 -9.15 -10.85 -12.4 -14.0 -18.0 -11.25 -17.0 -10.2 -16.95 -4.5 -16.65 -4.85 -18.0 3.5 -15.15 2.5 -17.65 12.45 -14.35 Z" fill="none" stroke="#000000" stroke-linecap="round" stroke-linejoin="round" stroke-width="0.05"/>
    </g>
    <radialGradient color-interpolation="linearRGB" cx="0" cy="0" gradientTransform="matrix(0.028, 0.0, 0.0, 0.028, 15.9, 12.8)" gradientUnits="userSpaceOnUse" id="gradient10" r="819.2" spreadMethod="pad">
      <stop offset="0.0" stop-color="#ffffff"/>
      <stop offset="0.3568627450980392" stop-color="#d0d0d0"/>
      <stop offset="1.0" stop-color="#a2a8aa"/>
    </radialGradient>
    <radialGradient cx="0" cy="0" gradientTransform="matrix(0.0448, 0.0, 0.0, 0.0448, 15.0, 0.55)" gradientUnits="userSpaceOnUse" id="gradient11" r="819.2" spreadMethod="pad">
      <stop offset="0.0" stop-color="#404040"/>
      <stop offset="1.0" stop-color="#13110f"/>
    </radialGradient>
    <radialGradient color-interpolation="linearRGB" cx="0" cy="0" gradientTransform="matrix(0.0331, 0.0, 0.0, 0.0331, -21.2, 9.4)" gradientUnits="userSpaceOnUse" id="gradient12" r="819.2" spreadMethod="pad">
      <stop offset="0.0" stop-color="#ffffff"/>
      <stop offset="0.3568627450980392" stop-color="#d0d0d0"/>
      <stop offset="1.0" stop-color="#a2a8aa"/>
    </radialGradient>
    <radialGradient cx="0" cy="0" gradientTransform="matrix(0.0329, 0.0, 0.0, 0.0329, -27.6, 14.75)" gradientUnits="userSpaceOnUse" id="gradient13" r="819.2" spreadMethod="pad">
      <stop offset="0.0" stop-color="#404040"/>
      <stop offset="1.0" stop-color="#13110f"/>
    </radialGradient>
    <radialGradient cx="0" cy="0" gradientTransform="matrix(0.0223, 0.0, 0.0, 0.0223, -2.85, -14.65)" gradientUnits="userSpaceOnUse" id="gradient14" r="819.2" spreadMethod="pad">
      <stop offset="0.0" stop-color="#18203d"/>
      <stop offset="1.0" stop-color="#05040d"/>
    </radialGradient>
    <radialGradient cx="0" cy="0" gradientTransform="matrix(0.0223, 0.0, 0.0, 0.0223, -2.15, -7.25)" gradientUnits="userSpaceOnUse" id="gradient15" r="819.2" spreadMethod="pad">
      <stop offset="0.0" stop-color="#3a425f"/>
      <stop offset="1.0" stop-color="#0f1013"/>
    </radialGradient>
    <g id="sprite9" transform="matrix(1.0, 0.0, 0.0, 1.0, 23.65, 33.25)">
      <use ffdec:characterId="2659" height="51.05" transform="matrix(1.0, 0.0, 0.0, 1.0, -23.65, -33.25)" width="43.85" xlink:href="#sprite10"/>
    </g>
    <g id="sprite10" transform="matrix(1.0, 0.0, 0.0, 1.0, 23.6, 33.25)">
      <use ffdec:characterId="2658" height="51.05" transform="matrix(1.0, 0.0, 0.0, 1.0, -23.6, -33.25)" width="43.85" xlink:href="#shape5"/>
      <use ffdec:characterId="2657" height="12.85" transform="matrix(1.0, 0.0, 0.0, 1.0, -15.8, -15.4)" width="11.25" xlink:href="#sprite11"/>
    </g>
    <g id="shape5" transform="matrix(1.0, 0.0, 0.0, 1.0, 23.6, 33.25)">
      <path d="M19.1 -6.9 Q18.6 -5.75 20.25 -4.7 L16.2 -0.7 Q18.15 6.6 17.55 12.45 16.75 8.7 12.7 5.3 14.0 9.95 13.1 13.7 12.55 11.65 11.05 11.55 L9.2 12.05 Q-2.7 18.6 -9.0 17.7 L-21.85 15.35 Q-23.25 8.7 -23.55 4.05 -18.55 6.25 -15.45 9.45 -4.35 11.85 8.6 8.2 8.7 3.9 6.85 -1.3 10.2 -0.95 13.9 1.95 14.45 -1.35 19.1 -6.9" fill="url(#gradient16)" fill-rule="evenodd" stroke="none"/>
      <path d="M-23.05 -11.2 L-14.35 -12.7 -13.75 -14.2 Q-9.8 -13.65 -6.25 -14.3 -5.75 -15.25 -8.4 -16.6 -0.35 -18.05 7.35 -16.4 L13.6 -14.2 Q16.75 -13.85 20.05 -11.05 19.25 -9.75 20.05 -8.05 L19.1 -6.9 Q14.45 -1.35 13.9 1.95 10.2 -0.95 6.85 -1.3 8.7 3.9 8.6 8.2 -4.35 11.85 -15.45 9.45 -18.55 6.25 -23.55 4.05 -23.8 -4.55 -23.05 -11.2" fill="url(#gradient17)" fill-rule="evenodd" stroke="none"/>
      <path d="M-23.05 -11.2 L-14.35 -12.7 -13.75 -14.2 Q-9.8 -13.65 -6.25 -14.3 -5.75 -15.25 -8.4 -16.6 -0.35 -18.05 7.35 -16.4 L13.6 -14.2 Q16.75 -13.85 20.05 -11.05 19.25 -9.75 20.05 -8.05 L19.1 -6.9 Q18.6 -5.75 20.25 -4.7 L16.2 -0.7 Q18.15 6.6 17.55 12.45 16.75 8.7 12.7 5.3 14.0 9.95 13.1 13.7 12.55 11.65 11.05 11.55 L9.2 12.05 Q-2.7 18.6 -9.0 17.7 L-21.85 15.35" fill="none" stroke="#000000" stroke-linecap="round" stroke-linejoin="round" stroke-width="0.05"/>
      <path d="M5.8 -13.85 Q4.85 -13.65 4.1 -13.05 5.8 -12.15 7.9 -11.75 10.3 -11.3 11.3 -9.25 11.5 -8.85 11.35 -8.45 10.7 -6.15 8.55 -4.95 6.8 -3.95 4.85 -3.85 L4.8 -3.9 Q6.2 -4.65 7.15 -6.05 8.15 -7.55 6.9 -8.85 3.65 -12.2 -0.55 -9.9 L-0.85 -9.5 Q-1.4 -7.9 -1.2 -6.05 -0.7 -2.35 -3.8 -0.05 -6.15 1.75 -9.1 2.05 -12.3 2.4 -14.2 -0.05 L-14.3 -0.1 -14.35 -0.15 -14.45 -0.3 -14.8 -1.15 -15.05 -1.9 -15.3 -2.85 -15.35 -3.35 -15.35 -4.15 -15.2 -4.4 -14.75 -5.45 -14.3 -6.15 -13.4 -6.85 -12.3 -6.9 Q-13.4 -6.25 -13.55 -5.0 -13.6 -4.0 -12.7 -3.5 -9.55 -1.75 -7.3 -4.4 -6.9 -4.8 -6.95 -5.4 -7.1 -9.15 -10.5 -10.9 -12.7 -12.0 -13.8 -14.0 L-13.75 -14.2 Q-9.8 -13.65 -6.25 -14.3 L-6.15 -14.55 -6.1 -14.5 -4.9 -14.15 Q-4.2 -13.75 -3.45 -13.5 L-2.85 -13.25 -2.7 -13.3 -2.65 -13.35 -2.55 -13.4 -2.45 -13.45 -2.45 -13.65 -2.6 -13.95 -3.85 -14.8 Q-4.8 -15.6 -5.95 -15.9 L-8.1 -16.55 -8.25 -16.6 Q-0.3 -18.05 7.35 -16.4 L9.35 -13.45 9.6 -13.1 Q8.45 -12.6 7.55 -13.45 6.85 -14.1 5.8 -13.85 M-20.25 -11.7 L-19.05 -11.9 -18.6 -12.0 -18.25 -12.05 -16.4 -12.25 -15.8 -12.3 -15.15 -12.35 Q-14.75 -11.75 -14.85 -10.75 -15.05 -8.45 -17.0 -7.0 -18.15 -6.1 -18.75 -4.8 -19.9 -2.35 -18.65 -0.1 -20.3 -0.3 -20.55 -2.05 -20.85 -4.15 -19.75 -5.95 -18.85 -7.45 -18.55 -9.05 L-18.65 -9.35 -20.0 -11.7 -20.3 -11.7 -20.25 -11.7 M-16.4 -12.55 L-16.35 -12.55 -16.45 -12.5 -16.4 -12.55 M-13.5 -13.75 L-13.4 -13.85 -13.55 -13.8 -13.5 -13.75" fill="#000000" fill-opacity="0.15294118" fill-rule="evenodd" stroke="none"/>
      <path d="M-11.9 -16.1 L-17.0 -13.95 -21.7 -28.25 -11.9 -16.1" fill="url(#gradient18)" fill-rule="evenodd" stroke="none"/>
      <path d="M-2.7 -17.55 L-7.1 -17.15 -7.35 -33.25 -2.7 -17.55" fill="url(#gradient19)" fill-rule="evenodd" stroke="none"/>
      <path d="M8.05 -16.4 L3.5 -16.8 7.4 -32.65 8.05 -16.4" fill="url(#gradient20)" fill-rule="evenodd" stroke="none"/>
      <path d="M8.05 -16.4 L8.05 -15.9 M8.05 -16.4 L7.4 -32.65 3.5 -16.8 8.05 -16.4 M-11.9 -16.1 L-21.7 -28.25 -17.0 -13.95 -11.9 -16.1 M-2.7 -17.55 L-7.35 -33.25 -7.1 -17.15 -2.7 -17.55 Z" fill="none" stroke="#000000" stroke-linecap="round" stroke-linejoin="round" stroke-width="0.05"/>
      <path d="M-20.7 -12.9 L-18.45 -13.2 -18.2 -16.25 -13.95 -18.8 -12.05 -17.1 -10.7 -16.75 -9.45 -18.85 -7.85 -18.8 -7.6 -20.25 -2.6 -20.15 -1.65 -18.3 2.6 -17.7 2.9 -18.9 9.05 -18.15 9.55 -16.35 14.2 -15.25 Q13.4 -10.15 8.65 -7.45 6.4 -7.9 4.65 -10.5 0.25 -13.5 -5.25 -9.7 -7.45 -4.85 -11.5 -2.75 -13.35 -6.8 -18.5 -8.25 L-20.7 -12.9" fill="url(#gradient21)" fill-rule="evenodd" stroke="none"/>
      <path d="M14.2 -15.25 L18.15 -14.15 Q12.7 -6.65 10.65 2.75 L3.55 -4.0 -4.45 -3.75 -11.45 3.6 Q-14.9 -2.7 -21.1 -7.75 L-20.7 -12.9 -18.5 -8.25 Q-13.35 -6.8 -11.5 -2.75 -7.45 -4.85 -5.25 -9.7 0.25 -13.5 4.65 -10.5 6.4 -7.9 8.65 -7.45 13.4 -10.15 14.2 -15.25" fill="url(#gradient22)" fill-rule="evenodd" stroke="none"/>
      <path d="M14.2 -15.25 L18.15 -14.15 Q12.7 -6.65 10.65 2.75 L3.55 -4.0 -4.45 -3.75 -11.45 3.6 Q-14.9 -2.7 -21.1 -7.75 L-20.7 -12.9 -18.45 -13.2 -18.2 -16.25 -13.95 -18.8 -12.05 -17.1 -10.7 -16.75 -9.45 -18.85 -7.85 -18.8 -7.6 -20.25 -2.6 -20.15 -1.65 -18.3 2.6 -17.7 2.9 -18.9 9.05 -18.15 9.55 -16.35 14.2 -15.25 Z" fill="none" stroke="#000000" stroke-linecap="round" stroke-linejoin="round" stroke-width="0.05"/>
    </g>
    <radialGradient color-interpolation="linearRGB" cx="0" cy="0" gradientTransform="matrix(-0.001, -0.0307, 0.0555, -0.0018, -21.65, 14.6)" gradientUnits="userSpaceOnUse" id="gradient16" r="819.2" spreadMethod="pad">
      <stop offset="0.0" stop-color="#ffffff"/>
      <stop offset="0.3568627450980392" stop-color="#d0d0d0"/>
      <stop offset="1.0" stop-color="#a2a8aa"/>
    </radialGradient>
    <radialGradient cx="0" cy="0" gradientTransform="matrix(0.0443, 0.0, 0.0, 0.0443, -21.45, -0.15)" gradientUnits="userSpaceOnUse" id="gradient17" r="819.2" spreadMethod="pad">
      <stop offset="0.0" stop-color="#404040"/>
      <stop offset="1.0" stop-color="#13110f"/>
    </radialGradient>
    <linearGradient gradientTransform="matrix(0.0029, -0.0016, 0.0047, 0.0082, -18.1, -21.45)" gradientUnits="userSpaceOnUse" id="gradient18" spreadMethod="pad" x1="-819.2" x2="819.2">
      <stop offset="0.0" stop-color="#aeb7b5"/>
      <stop offset="0.13725490196078433" stop-color="#808886"/>
      <stop offset="0.4980392156862745" stop-color="#474949"/>
      <stop offset="0.5450980392156862" stop-color="#d0d0d0"/>
      <stop offset="1.0" stop-color="#57565c"/>
    </linearGradient>
    <linearGradient gradientTransform="matrix(0.0026, -5.0E-4, 0.0019, 0.0098, -6.4, -25.1)" gradientUnits="userSpaceOnUse" id="gradient19" spreadMethod="pad" x1="-819.2" x2="819.2">
      <stop offset="0.0" stop-color="#aeb7b5"/>
      <stop offset="0.13725490196078433" stop-color="#808886"/>
      <stop offset="0.4980392156862745" stop-color="#474949"/>
      <stop offset="0.5450980392156862" stop-color="#d0d0d0"/>
      <stop offset="1.0" stop-color="#57565c"/>
    </linearGradient>
    <linearGradient gradientTransform="matrix(0.0028, 0.0, 0.0, 0.0099, 5.75, -24.55)" gradientUnits="userSpaceOnUse" id="gradient20" spreadMethod="pad" x1="-819.2" x2="819.2">
      <stop offset="0.0" stop-color="#aeb7b5"/>
      <stop offset="0.13725490196078433" stop-color="#808886"/>
      <stop offset="0.4980392156862745" stop-color="#474949"/>
      <stop offset="0.5450980392156862" stop-color="#d0d0d0"/>
      <stop offset="1.0" stop-color="#57565c"/>
    </linearGradient>
    <radialGradient cx="0" cy="0" gradientTransform="matrix(0.0289, 0.0, 0.0, 0.0289, -4.15, -6.15)" gradientUnits="userSpaceOnUse" id="gradient21" r="819.2" spreadMethod="pad">
      <stop offset="0.0" stop-color="#18203d"/>
      <stop offset="1.0" stop-color="#05040d"/>
    </radialGradient>
    <radialGradient cx="0" cy="0" gradientTransform="matrix(0.0289, 0.0, 0.0, 0.0289, -0.3, 0.35)" gradientUnits="userSpaceOnUse" id="gradient22" r="819.2" spreadMethod="pad">
      <stop offset="0.0" stop-color="#3a425f"/>
      <stop offset="1.0" stop-color="#0f1013"/>
    </radialGradient>
    <g id="sprite11" transform="matrix(1.0, 0.0, 0.0, 1.0, 3.8, 8.15)">
      <use ffdec:characterId="2656" height="12.85" transform="matrix(1.0, 0.0, 0.0, 1.0, -3.8, -8.15)" width="11.25" xlink:href="#shape6"/>
    </g>
    <g id="shape6" transform="matrix(1.0, 0.0, 0.0, 1.0, 3.8, 8.15)">
      <path d="M2.7 -2.85 L5.6 -3.0 5.6 -2.95 3.3 -1.15 4.3 1.5 1.9 0.0 -0.3 1.75 -0.35 1.7 0.35 -1.1 -1.95 -2.6 0.8 -2.75 1.55 -5.55 1.6 -5.65 1.75 -5.5 2.7 -2.85 M5.75 -6.3 Q7.45 -4.4 7.45 -1.75 7.45 0.9 5.75 2.75 4.15 4.7 1.8 4.7 -0.5 4.7 -2.2 2.75 -3.8 0.9 -3.8 -1.75 -3.8 -4.4 -2.2 -6.3 -0.5 -8.15 1.8 -8.15 4.15 -8.15 5.75 -6.3 M6.05 -1.75 Q6.05 -3.7 4.8 -5.1 3.55 -6.5 1.75 -6.5 0.0 -6.5 -1.25 -5.1 -2.5 -3.7 -2.5 -1.75 -2.5 0.2 -1.25 1.6 0.0 3.0 1.75 3.0 3.55 3.0 4.8 1.6 6.05 0.2 6.05 -1.75" fill="#000000" fill-rule="evenodd" stroke="none"/>
    </g>
    <g id="sprite12" transform="matrix(1.0, 0.0, 0.0, 1.0, 11.1, 17.65)">
      <use ffdec:characterId="2645" height="33.3" transform="matrix(1.0, 0.0, 0.0, 1.0, -11.1, -17.65)" width="35.75" xlink:href="#sprite13"/>
    </g>
    <g id="sprite13" transform="matrix(1.0, 0.0, 0.0, 1.0, 11.45, 17.75)">
      <use ffdec:characterId="2644" height="33.3" transform="matrix(1.0, 0.0, 0.0, 1.0, -11.45, -17.75)" width="35.75" xlink:href="#shape7"/>
    </g>
    <g id="shape7" transform="matrix(1.0, 0.0, 0.0, 1.0, 11.45, 17.75)">
      <path d="M9.9 -8.05 Q9.5 -12.7 12.2 -14.9 11.55 -10.45 13.6 -3.2 L10.1 -7.8 9.9 -8.05" fill="url(#gradient23)" fill-rule="evenodd" stroke="none"/>
      <path d="M9.9 -8.05 Q9.5 -12.7 12.2 -14.9 11.55 -10.45 13.6 -3.2 L10.1 -7.8" fill="none" stroke="#000000" stroke-linecap="round" stroke-linejoin="round" stroke-width="0.05"/>
      <path d="M13.4 4.35 L13.05 4.25 13.1 4.15 13.4 4.35" fill="#a7c79e" fill-rule="evenodd" stroke="none"/>
      <path d="M21.65 0.25 L24.3 2.0 21.15 7.45 13.4 4.35 15.1 3.7 20.7 6.25 22.75 3.6 21.2 1.85 21.65 0.3 21.65 0.25" fill="#1a1a1a" fill-rule="evenodd" stroke="none"/>
      <path d="M3.95 6.6 L4.1 6.45 4.2 6.5 3.95 6.6" fill="#cadcc5" fill-rule="evenodd" stroke="none"/>
      <path d="M13.0 -2.65 Q11.4 -3.75 7.85 -3.6 L9.6 -4.6 13.75 -4.95 13.8 -4.85 15.8 -3.5 13.95 -2.8 13.9 -2.7 13.0 -2.65" fill="#000000" fill-rule="evenodd" stroke="none"/>
      <path d="M13.9 -2.7 L13.95 -2.8 14.1 -2.75 13.9 -2.7" fill="url(#gradient24)" fill-rule="evenodd" stroke="none"/>
      <path d="M21.55 0.25 L21.65 0.25 21.65 0.3 21.55 0.25" fill="url(#gradient25)" fill-rule="evenodd" stroke="none"/>
      <path d="M4.1 6.45 L6.15 3.2 6.45 0.8 10.45 -2.45 13.0 -2.65 13.9 -2.7 14.1 -2.75 13.95 -2.8 15.8 -3.5 21.4 0.1 21.55 0.25 21.65 0.3 21.2 1.85 22.75 3.6 20.7 6.25 15.1 3.7 13.4 4.35 13.1 4.15 13.05 4.25 12.9 4.4 9.75 8.0 8.55 9.15 Q6.8 11.55 9.2 15.55 5.4 13.55 4.2 6.55 L4.2 6.5 4.1 6.45" fill="url(#gradient26)" fill-rule="evenodd" stroke="none"/>
      <path d="M13.75 -4.95 L9.6 -4.6 7.85 -3.6 Q11.4 -3.75 13.0 -2.65 L10.45 -2.45 6.45 0.8 6.15 3.2 4.1 6.45 3.95 6.6 3.75 6.7 Q-1.75 9.25 -3.9 12.55 -4.0 6.5 -0.1 3.5 -5.4 2.75 -11.45 4.6 -9.2 1.4 -9.2 -0.05 -1.1 -3.85 -9.65 -6.15 -6.35 -9.3 -1.8 -8.1 L7.25 -8.55 Q9.75 -8.55 12.0 -7.35 L13.75 -4.95" fill="url(#gradient27)" fill-rule="evenodd" stroke="none"/>
      <path d="M13.75 -4.95 L12.0 -7.35 Q9.75 -8.55 7.25 -8.55 L-1.8 -8.1 Q-6.35 -9.3 -9.65 -6.15 -1.1 -3.85 -9.2 -0.05 -9.2 1.4 -11.45 4.6 -5.4 2.75 -0.1 3.5 -4.0 6.5 -3.9 12.55 -1.75 9.25 3.75 6.7 L3.95 6.6 M15.8 -3.5 L13.8 -4.85 13.75 -4.95 M21.65 0.25 L24.3 2.0 21.15 7.45 13.4 4.35 13.05 4.25 12.9 4.4 9.75 8.0 8.55 9.15 Q6.8 11.55 9.2 15.55 5.4 13.55 4.2 6.55 L4.2 6.5 M21.55 0.25 L21.65 0.25 M15.8 -3.5 L21.4 0.1" fill="none" stroke="#000000" stroke-linecap="round" stroke-linejoin="round" stroke-width="0.05"/>
      <path d="M7.8 -8.1 L1.7 -8.15 Q2.35 -12.95 6.75 -17.75 6.25 -12.8 7.8 -8.1" fill="url(#gradient28)" fill-rule="evenodd" stroke="none"/>
      <path d="M1.7 -8.15 Q2.35 -12.95 6.75 -17.75 6.25 -12.8 7.8 -8.1" fill="none" stroke="#000000" stroke-linecap="round" stroke-linejoin="round" stroke-width="0.05"/>
      <path d="M2.65 -3.8 L2.7 -3.65 2.7 -3.45 2.7 -3.15 2.65 -2.95 2.6 -2.85 Q2.75 -2.5 2.15 -2.05 1.6 -1.7 1.4 -1.1 L1.25 -0.75 1.75 -0.75 2.4 -0.7 2.95 -0.4 2.95 -0.15 2.85 0.2 2.6 1.0 2.45 1.75 2.45 2.0 2.7 2.3 3.45 2.45 5.2 2.75 5.3 3.15 5.45 3.7 Q5.6 4.25 6.1 4.7 L6.75 5.25 6.95 5.3 8.05 5.35 8.25 5.35 8.5 5.4 8.65 5.45 8.8 5.4 9.15 5.4 9.25 5.45 9.3 5.5 9.4 5.55 9.5 5.65 9.7 5.75 9.7 5.8 9.75 5.9 9.75 6.0 9.75 6.1 9.75 6.2 9.75 6.25 9.7 6.3 9.65 6.45 9.3 6.6 9.05 6.9 8.75 7.2 8.2 7.7 8.15 7.75 8.1 7.8 7.5 8.5 Q7.35 8.05 7.65 7.65 L7.95 7.35 8.05 7.1 8.1 6.6 5.0 6.45 4.9 6.4 3.85 6.0 2.55 5.65 0.1 5.8 Q0.4 4.95 1.2 4.1 2.0 3.2 0.6 2.25 L-1.75 0.5 -2.0 -0.1 -0.95 -1.15 0.6 -2.3 1.1 -2.6 1.6 -3.55 1.8 -4.0 1.7 -4.1 1.65 -4.25 1.65 -4.3 1.6 -4.4 1.4 -4.45 1.2 -4.55 1.15 -4.65 1.15 -4.75 1.2 -4.75 1.25 -4.8 1.3 -4.8 1.4 -4.85 Q1.75 -4.8 1.95 -4.55 2.55 -4.4 2.65 -3.85 L2.65 -3.8 M6.25 6.15 L6.1 6.2 6.35 6.15 6.25 6.15 M5.85 5.5 L5.75 5.35 5.65 5.45 5.85 5.5" fill="#000000" fill-opacity="0.15294118" fill-rule="evenodd" stroke="none"/>
      <path d="M10.95 -5.25 L13.8 -5.45 16.2 -4.15 12.7 -3.85 10.95 -5.25" fill="#66ffff" fill-rule="evenodd" stroke="none"/>
      <path d="M0.05 -9.0 L3.4 -6.8 6.95 -6.15 8.1 -9.0 13.15 -7.95 13.85 -6.05 16.35 -4.15 19.45 -1.85 17.7 -0.25 Q14.2 0.35 10.85 -1.95 8.75 -0.5 5.95 0.15 -0.25 -3.35 -6.1 -8.75 L-1.85 -9.8 0.05 -9.0 M10.95 -5.25 L12.7 -3.85 16.2 -4.15 13.8 -5.45 10.95 -5.25 M16.2 -4.15 L16.35 -4.15 16.2 -4.15" fill="url(#gradient29)" fill-rule="evenodd" stroke="none"/>
      <path d="M19.45 -1.85 L20.95 -0.75 19.15 3.15 Q14.1 1.0 10.35 0.8 9.35 4.3 11.4 8.1 L8.9 11.35 Q5.55 -0.95 -8.35 -8.25 L-6.1 -8.75 Q-0.25 -3.35 5.95 0.15 8.75 -0.5 10.85 -1.95 14.2 0.35 17.7 -0.25 L19.45 -1.85" fill="url(#gradient30)" fill-rule="evenodd" stroke="none"/>
      <path d="M0.05 -9.0 L3.4 -6.8 6.95 -6.15 8.1 -9.0 13.15 -7.95 13.85 -6.05 16.35 -4.15 19.45 -1.85 20.95 -0.75 19.15 3.15 Q14.1 1.0 10.35 0.8 9.35 4.3 11.4 8.1 L8.9 11.35 Q5.55 -0.95 -8.35 -8.25 L-6.1 -8.75 -1.85 -9.8 M16.35 -4.15 L16.2 -4.15" fill="none" stroke="#000000" stroke-linecap="round" stroke-linejoin="round" stroke-width="0.05"/>
    </g>
    <radialGradient cx="0" cy="0" gradientTransform="matrix(0.0114, 0.0, 0.0, 0.0114, 11.05, -11.7)" gradientUnits="userSpaceOnUse" id="gradient23" r="819.2" spreadMethod="pad">
      <stop offset="0.0" stop-color="#404040"/>
      <stop offset="1.0" stop-color="#13110f"/>
    </radialGradient>
    <radialGradient cx="0" cy="0" gradientTransform="matrix(0.0268, 0.0, 0.0, 0.0268, 3.1, 13.4)" gradientUnits="userSpaceOnUse" id="gradient24" r="819.2" spreadMethod="pad">
      <stop offset="0.0" stop-color="#a7c79e"/>
      <stop offset="1.0" stop-color="#718d69"/>
    </radialGradient>
    <radialGradient color-interpolation="linearRGB" cx="0" cy="0" gradientTransform="matrix(0.013, 0.0, 0.0, 0.013, 14.4, 7.25)" gradientUnits="userSpaceOnUse" id="gradient25" r="819.2" spreadMethod="pad">
      <stop offset="0.22745098039215686" stop-color="#ffffff"/>
      <stop offset="1.0" stop-color="#f9d8a8"/>
    </radialGradient>
    <radialGradient color-interpolation="linearRGB" cx="0" cy="0" gradientTransform="matrix(0.013, 0.0, 0.0, 0.013, 14.4, 7.25)" gradientUnits="userSpaceOnUse" id="gradient26" r="819.2" spreadMethod="pad">
      <stop offset="0.0" stop-color="#ffffff"/>
      <stop offset="0.3568627450980392" stop-color="#d0d0d0"/>
      <stop offset="1.0" stop-color="#a2a8aa"/>
    </radialGradient>
    <radialGradient cx="0" cy="0" gradientTransform="matrix(0.0268, 0.0, 0.0, 0.0268, 3.1, 13.4)" gradientUnits="userSpaceOnUse" id="gradient27" r="819.2" spreadMethod="pad">
      <stop offset="0.0" stop-color="#404040"/>
      <stop offset="1.0" stop-color="#13110f"/>
    </radialGradient>
    <radialGradient cx="0" cy="0" gradientTransform="matrix(0.0114, 0.0, 0.0, 0.0114, 5.75, -16.5)" gradientUnits="userSpaceOnUse" id="gradient28" r="819.2" spreadMethod="pad">
      <stop offset="0.0" stop-color="#404040"/>
      <stop offset="1.0" stop-color="#13110f"/>
    </radialGradient>
    <radialGradient cx="0" cy="0" gradientTransform="matrix(0.0291, 0.0, 0.0, 0.0291, 14.7, -3.85)" gradientUnits="userSpaceOnUse" id="gradient29" r="819.2" spreadMethod="pad">
      <stop offset="0.0" stop-color="#18203d"/>
      <stop offset="1.0" stop-color="#05040d"/>
    </radialGradient>
    <radialGradient cx="0" cy="0" gradientTransform="matrix(0.0291, 0.0, 0.0, 0.0291, 14.7, -3.85)" gradientUnits="userSpaceOnUse" id="gradient30" r="819.2" spreadMethod="pad">
      <stop offset="0.0" stop-color="#3a425f"/>
      <stop offset="1.0" stop-color="#0f1013"/>
    </radialGradient>
  </defs>
</svg>
