<?xml version="1.0" encoding="UTF-8" standalone="no"?>
<svg xmlns:ffdec="https://www.free-decompiler.com/flash" xmlns:xlink="http://www.w3.org/1999/xlink" ffdec:objectType="frame" height="159.6px" width="190.2px" xmlns="http://www.w3.org/2000/svg">
  <g transform="matrix(2.0, 0.0, 0.0, 2.0, 94.3, 83.8)">
    <use ffdec:characterId="3388" height="63.6" transform="matrix(1.0, 0.0, 0.0, 1.0, -31.8, -31.8)" width="63.6" xlink:href="#shape0"/>
    <use ffdec:characterId="3387" height="79.8" id="thingerClock" transform="matrix(1.0, 0.0, 0.0, 1.0, -47.15, -41.9)" width="95.1" xlink:href="#sprite0"/>
  </g>
  <defs>
    <g id="shape0" transform="matrix(1.0, 0.0, 0.0, 1.0, 31.8, 31.8)">
      <path d="M17.5 -17.5 Q20.25 -14.75 21.95 -11.6 24.75 -6.4 24.75 0.0 24.75 10.25 17.5 17.5 10.25 24.75 0.0 24.75 -10.25 24.75 -17.5 17.5 -24.75 10.25 -24.75 0.0 -24.75 -6.45 -21.85 -11.7 -20.2 -14.8 -17.5 -17.5 -10.25 -24.75 0.0 -24.75 10.25 -24.75 17.5 -17.5 M21.95 -21.6 L21.75 -21.8 Q12.75 -30.8 0.0 -30.8 -12.75 -30.8 -21.8 -21.8 L-21.85 -21.7 Q-30.8 -12.7 -30.8 0.0 -30.8 12.75 -21.8 21.75 -12.75 30.8 0.0 30.8 12.75 30.8 21.75 21.75 30.8 12.75 30.8 0.0 30.8 -12.6 21.95 -21.6 M0.0 -23.75 Q-9.85 -23.75 -16.8 -16.8 -19.35 -14.2 -21.0 -11.25 -23.75 -6.2 -23.75 0.0 -23.75 9.85 -16.8 16.8 -9.85 23.75 0.0 23.75 9.85 23.75 16.8 16.8 23.75 9.85 23.75 0.0 23.75 -6.15 21.05 -11.15 19.4 -14.2 16.8 -16.8 9.85 -23.75 0.0 -23.75 M22.65 -22.3 Q31.8 -13.05 31.8 0.0 31.8 13.15 22.45 22.45 13.15 31.8 0.0 31.8 -13.15 31.8 -22.5 22.45 -31.8 13.15 -31.8 0.0 -31.8 -13.1 -22.55 -22.4 L-22.5 -22.5 Q-13.15 -31.8 0.0 -31.8 13.15 -31.8 22.45 -22.5 L22.65 -22.3" fill="#000000" fill-rule="evenodd" stroke="none"/>
      <path d="M21.95 -21.6 Q30.8 -12.6 30.8 0.0 30.8 12.75 21.75 21.75 12.75 30.8 0.0 30.8 -12.75 30.8 -21.8 21.75 -30.8 12.75 -30.8 0.0 -30.8 -12.7 -21.85 -21.7 L-21.8 -21.8 Q-12.75 -30.8 0.0 -30.8 12.75 -30.8 21.75 -21.8 L21.95 -21.6 M17.5 -17.5 Q10.25 -24.75 0.0 -24.75 -10.25 -24.75 -17.5 -17.5 -20.2 -14.8 -21.85 -11.7 -24.75 -6.45 -24.75 0.0 -24.75 10.25 -17.5 17.5 -10.25 24.75 0.0 24.75 10.25 24.75 17.5 17.5 24.75 10.25 24.75 0.0 24.75 -6.4 21.95 -11.6 20.25 -14.75 17.5 -17.5" fill="url(#gradient0)" fill-rule="evenodd" stroke="none"/>
    </g>
    <radialGradient cx="0" cy="0" gradientTransform="matrix(0.0379, 0.0, 0.0, 0.0379, 0.0, 0.0)" gradientUnits="userSpaceOnUse" id="gradient0" r="819.2" spreadMethod="pad">
      <stop offset="0.7058823529411765" stop-color="#000000"/>
      <stop offset="0.792156862745098" stop-color="#000000" stop-opacity="0.68235296"/>
      <stop offset="0.9254901960784314" stop-color="#404040" stop-opacity="0.8117647"/>
      <stop offset="1.0" stop-color="#000000" stop-opacity="0.87058824"/>
    </radialGradient>
    <g id="sprite0" transform="matrix(1.0, 0.0, 0.0, 1.0, 47.55, 41.8)">
      <filter id="filter0">
        <feFlood flood-color="#0066ff" flood-opacity="1.0" result="filterResult0"/>
        <feComposite in="filterResult0" in2="SourceGraphic" operator="out" result="filterResult1"/>
        <feConvolveMatrix divisor="64.0" in="filterResult1" kernelMatrix="1 1 1 1 1 1 1 1 1 1 1 1 1 1 1 1 1 1 1 1 1 1 1 1 1 1 1 1 1 1 1 1 1 1 1 1 1 1 1 1 1 1 1 1 1 1 1 1 1 1 1 1 1 1 1 1 1 1 1 1 1 1 1 1" order="8 8" result="filterResult2"/>
        <feComposite in="filterResult2" in2="SourceGraphic" operator="in" result="filterResult3"/>
        <feComposite in="filterResult3" in2="SourceGraphic" operator="over" result="filterResult4"/>
        <feColorMatrix in="filterResult4" result="filterResult5" type="matrix" values="0 0 0 0 0.0,0 0 0 0 0.4,0 0 0 0 0.8,0 0 0 1 0"/>
        <feConvolveMatrix divisor="729.0" in="filterResult5" kernelMatrix="1 1 1 1 1 1 1 1 1 1 1 1 1 1 1 1 1 1 1 1 1 1 1 1 1 1 1 1 1 1 1 1 1 1 1 1 1 1 1 1 1 1 1 1 1 1 1 1 1 1 1 1 1 1 1 1 1 1 1 1 1 1 1 1 1 1 1 1 1 1 1 1 1 1 1 1 1 1 1 1 1 1 1 1 1 1 1 1 1 1 1 1 1 1 1 1 1 1 1 1 1 1 1 1 1 1 1 1 1 1 1 1 1 1 1 1 1 1 1 1 1 1 1 1 1 1 1 1 1 1 1 1 1 1 1 1 1 1 1 1 1 1 1 1 1 1 1 1 1 1 1 1 1 1 1 1 1 1 1 1 1 1 1 1 1 1 1 1 1 1 1 1 1 1 1 1 1 1 1 1 1 1 1 1 1 1 1 1 1 1 1 1 1 1 1 1 1 1 1 1 1 1 1 1 1 1 1 1 1 1 1 1 1 1 1 1 1 1 1 1 1 1 1 1 1 1 1 1 1 1 1 1 1 1 1 1 1 1 1 1 1 1 1 1 1 1 1 1 1 1 1 1 1 1 1 1 1 1 1 1 1 1 1 1 1 1 1 1 1 1 1 1 1 1 1 1 1 1 1 1 1 1 1 1 1 1 1 1 1 1 1 1 1 1 1 1 1 1 1 1 1 1 1 1 1 1 1 1 1 1 1 1 1 1 1 1 1 1 1 1 1 1 1 1 1 1 1 1 1 1 1 1 1 1 1 1 1 1 1 1 1 1 1 1 1 1 1 1 1 1 1 1 1 1 1 1 1 1 1 1 1 1 1 1 1 1 1 1 1 1 1 1 1 1 1 1 1 1 1 1 1 1 1 1 1 1 1 1 1 1 1 1 1 1 1 1 1 1 1 1 1 1 1 1 1 1 1 1 1 1 1 1 1 1 1 1 1 1 1 1 1 1 1 1 1 1 1 1 1 1 1 1 1 1 1 1 1 1 1 1 1 1 1 1 1 1 1 1 1 1 1 1 1 1 1 1 1 1 1 1 1 1 1 1 1 1 1 1 1 1 1 1 1 1 1 1 1 1 1 1 1 1 1 1 1 1 1 1 1 1 1 1 1 1 1 1 1 1 1 1 1 1 1 1 1 1 1 1 1 1 1 1 1 1 1 1 1 1 1 1 1 1 1 1 1 1 1 1 1 1 1 1 1 1 1 1 1 1 1 1 1 1 1 1 1 1 1 1 1 1 1 1 1 1 1 1 1 1 1 1 1 1 1 1 1 1 1 1 1 1 1 1 1 1 1 1 1 1 1 1 1 1 1 1 1 1 1 1 1 1 1 1 1 1 1 1 1 1 1 1 1 1 1 1 1 1 1 1 1 1 1 1 1 1 1 1 1 1 1 1 1 1 1 1 1 1 1 1 1 1 1 1 1 1 1 1 1 1 1 1 1 1 1 1 1 1 1 1 1 1 1 1 1 1 1 1 1 1 1 1 1 1 1 1 1 1 1 1 1 1 1 1 1 1 1 1 1 1 1 1 1 1 1 1 1 1 1 1 1 1 1 1 1 1 1 1 1 1 1 1 1 1 1 1 1 1 1 1 1 1 1 1 1 1 1 1 1 1 1 1 1 1 1 1 1 1 1 1 1" order="27 27" result="filterResult6"/>
        <feComposite in="filterResult4" in2="filterResult6" operator="over" result="filterResult7"/>
      </filter>
      <use ffdec:characterId="3386" filter="url(#filter0)" height="79.8" transform="matrix(1.0, 0.0, 0.0, 1.0, -47.55, -41.8)" width="95.1" xlink:href="#sprite1"/>
    </g>
    <g id="sprite1" transform="matrix(1.0, 0.0, 0.0, 1.0, 47.55, 41.8)">
      <clipPath id="clipPath0" transform="matrix(0.0892, 0.0, 0.0, 0.266, 0.0, -41.8)">
        <path d="M533.0 300.0 L0.0 300.0 0.0 0.0 533.0 0.0 533.0 300.0" fill="#ffffff" fill-rule="evenodd" stroke="none"/>
      </clipPath>
      <g clip-path="url(#clipPath0)">
        <use ffdec:characterId="3385" height="61.6" transform="matrix(-1.0, 0.0, 0.0, -1.0, -5.0E-4, 30.7995)" width="30.5" xlink:href="#sprite2"/>
      </g>
      <clipPath id="clipPath1" transform="matrix(0.0892, 0.0, 0.0, 0.266, -47.55, -41.8)">
        <path d="M533.0 300.0 L0.0 300.0 0.0 0.0 533.0 0.0 533.0 300.0" fill="#ffffff" fill-rule="evenodd" stroke="none"/>
      </clipPath>
      <g clip-path="url(#clipPath1)">
        <use ffdec:characterId="3385" height="61.6" transform="matrix(0.997, 0.0, 0.0, 0.997, 0.0, -30.7069)" width="30.5" xlink:href="#sprite2"/>
      </g>
    </g>
    <g id="sprite2" transform="matrix(1.0, 0.0, 0.0, 1.0, 0.0, 30.8)">
      <use ffdec:characterId="3384" height="61.6" transform="matrix(1.0, 0.0, 0.0, 1.0, 0.0, -30.8)" width="30.5" xlink:href="#shape2"/>
    </g>
    <g id="shape2" transform="matrix(1.0, 0.0, 0.0, 1.0, 0.0, 30.8)">
      <path d="M17.2 -17.5 Q10.05 -24.65 0.0 -24.75 L0.0 -30.8 Q12.55 -30.7 21.45 -21.8 L21.65 -21.6 Q30.5 -12.6 30.5 0.0 30.5 12.75 21.45 21.75 12.55 30.7 0.0 30.8 L0.0 24.75 Q10.05 24.65 17.2 17.5 24.45 10.25 24.45 0.0 24.45 -6.4 21.65 -11.6 19.95 -14.75 17.2 -17.5" fill="#ffffff" fill-rule="evenodd" stroke="none"/>
    </g>
  </defs>
</svg>
