<?xml version="1.0" encoding="UTF-8" standalone="no"?>
<svg xmlns:ffdec="https://www.free-decompiler.com/flash" xmlns:xlink="http://www.w3.org/1999/xlink" ffdec:objectType="frame" height="3128.4px" width="3052.6px" xmlns="http://www.w3.org/2000/svg">
  <g transform="matrix(2.0, 0.0, 0.0, 2.0, 988.7, 1403.6)">
    <use ffdec:characterId="4020" height="332.5" transform="matrix(1.5818, 0.0, 0.0, 1.5818, -194.15, -66.55)" width="653.1" xlink:href="#sprite0"/>
    <use ffdec:characterId="4031" height="149.05" transform="matrix(1.0, 0.0, 0.0, 1.0, -18.2, 265.2)" width="800.2" xlink:href="#shape1"/>
    <clipPath id="clipPath0" transform="matrix(1.0, 0.0, 0.0, 1.0, 0.0, 0.0)">
      <path d="M555.45 266.65 L385.95 266.65 385.95 111.15 555.45 111.15 555.45 266.65" fill="#ff0000" fill-opacity="0.49019608" fill-rule="evenodd" stroke="none"/>
    </clipPath>
    <g clip-path="url(#clipPath0)">
      <use ffdec:characterId="4030" height="141.0" transform="matrix(1.0, 0.0, 0.0, 1.0, 395.4, 125.5)" width="146.45" xlink:href="#shape3"/>
      <filter id="filter0">
        <feColorMatrix in="SourceGraphic" result="filterResult0" type="matrix" values="0 0 0 0 1.0,0 0 0 0 0.6,0 0 0 0 0.0,0 0 0 1 0"/>
        <feConvolveMatrix divisor="256.0" in="filterResult0" kernelMatrix="1 1 1 1 1 1 1 1 1 1 1 1 1 1 1 1 1 1 1 1 1 1 1 1 1 1 1 1 1 1 1 1 1 1 1 1 1 1 1 1 1 1 1 1 1 1 1 1 1 1 1 1 1 1 1 1 1 1 1 1 1 1 1 1 1 1 1 1 1 1 1 1 1 1 1 1 1 1 1 1 1 1 1 1 1 1 1 1 1 1 1 1 1 1 1 1 1 1 1 1 1 1 1 1 1 1 1 1 1 1 1 1 1 1 1 1 1 1 1 1 1 1 1 1 1 1 1 1 1 1 1 1 1 1 1 1 1 1 1 1 1 1 1 1 1 1 1 1 1 1 1 1 1 1 1 1 1 1 1 1 1 1 1 1 1 1 1 1 1 1 1 1 1 1 1 1 1 1 1 1 1 1 1 1 1 1 1 1 1 1 1 1 1 1 1 1 1 1 1 1 1 1 1 1 1 1 1 1 1 1 1 1 1 1 1 1 1 1 1 1 1 1 1 1 1 1 1 1 1 1 1 1 1 1 1 1 1 1 1 1 1 1 1 1 1 1 1 1 1 1 1 1 1 1 1 1" order="16 16" result="filterResult1"/>
        <feConvolveMatrix divisor="256.0" in="filterResult1" kernelMatrix="1 1 1 1 1 1 1 1 1 1 1 1 1 1 1 1 1 1 1 1 1 1 1 1 1 1 1 1 1 1 1 1 1 1 1 1 1 1 1 1 1 1 1 1 1 1 1 1 1 1 1 1 1 1 1 1 1 1 1 1 1 1 1 1 1 1 1 1 1 1 1 1 1 1 1 1 1 1 1 1 1 1 1 1 1 1 1 1 1 1 1 1 1 1 1 1 1 1 1 1 1 1 1 1 1 1 1 1 1 1 1 1 1 1 1 1 1 1 1 1 1 1 1 1 1 1 1 1 1 1 1 1 1 1 1 1 1 1 1 1 1 1 1 1 1 1 1 1 1 1 1 1 1 1 1 1 1 1 1 1 1 1 1 1 1 1 1 1 1 1 1 1 1 1 1 1 1 1 1 1 1 1 1 1 1 1 1 1 1 1 1 1 1 1 1 1 1 1 1 1 1 1 1 1 1 1 1 1 1 1 1 1 1 1 1 1 1 1 1 1 1 1 1 1 1 1 1 1 1 1 1 1 1 1 1 1 1 1 1 1 1 1 1 1 1 1 1 1 1 1 1 1 1 1 1 1" order="16 16" result="filterResult2"/>
        <feComposite in="SourceGraphic" in2="filterResult2" operator="over" result="filterResult3"/>
      </filter>
      <use ffdec:characterId="4029" filter="url(#filter0)" height="310.0" transform="matrix(0.455, 0.0, 0.0, 0.455, 400.8, 125.5)" width="310.0" xlink:href="#sprite1"/>
    </g>
    <use ffdec:characterId="3963" height="359.6" style="mix-blend-mode: overlay" transform="matrix(1.6217, 0.0, 0.0, 1.6217, -198.95, -91.6)" width="640.0" xlink:href="#sprite2"/>
    <use ffdec:characterId="3962" height="300.0" transform="matrix(0.4472, 0.0, 0.0, 0.4472, 350.0501, 131.0716)" width="533.0" xlink:href="#sprite3"/>
  </g>
  <defs>
    <g id="sprite0" transform="matrix(1.0, 0.0, 0.0, 1.0, 0.0, 0.0)">
      <use ffdec:characterId="4019" height="332.5" transform="matrix(1.0, 0.0, 0.0, 1.0, 0.0, 0.0)" width="653.1" xlink:href="#shape0"/>
    </g>
    <g id="shape0" transform="matrix(1.0, 0.0, 0.0, 1.0, 0.0, 0.0)">
      <path d="M653.1 0.0 L653.1 332.5 0.0 332.5 0.0 0.0 653.1 0.0" fill="url(#gradient0)" fill-rule="evenodd" stroke="none"/>
    </g>
    <linearGradient gradientTransform="matrix(0.0, -0.2029, 0.3986, 0.0, 326.55, 166.25)" gradientUnits="userSpaceOnUse" id="gradient0" spreadMethod="pad" x1="-819.2" x2="819.2">
      <stop offset="0.0" stop-color="#000000"/>
      <stop offset="0.7058823529411765" stop-color="#000000"/>
      <stop offset="1.0" stop-color="#000000"/>
    </linearGradient>
    <g id="shape1" transform="matrix(1.0, 0.0, 0.0, 1.0, 18.2, -265.2)">
      <path d="M765.65 311.6 L782.0 414.25 -18.2 410.25 -17.4 306.95 401.9 265.2 540.95 265.2 765.65 311.6" fill="url(#gradient1)" fill-rule="evenodd" stroke="none"/>
    </g>
    <linearGradient gradientTransform="matrix(-0.0044, 0.2453, -0.091, -0.0016, 464.35, 157.4)" gradientUnits="userSpaceOnUse" id="gradient1" spreadMethod="pad" x1="-819.2" x2="819.2">
      <stop offset="0.0" stop-color="#ffffff" stop-opacity="0.32156864"/>
      <stop offset="1.0" stop-color="#ffffff" stop-opacity="0.0"/>
    </linearGradient>
    <g id="shape3" transform="matrix(1.0, 0.0, 0.0, 1.0, -395.4, -125.5)">
      <path d="M400.8 136.05 L400.8 125.5 541.85 125.5 541.85 136.05 400.8 136.05 M541.85 258.8 L541.85 266.5 400.8 266.5 400.8 258.8 541.85 258.8" fill="url(#gradient2)" fill-rule="evenodd" stroke="none"/>
      <path d="M541.85 136.05 L541.85 258.8 400.8 258.8 400.8 136.05 541.85 136.05" fill="#ebaf25" fill-rule="evenodd" stroke="none"/>
      <path d="M525.5 205.8 L525.2 205.9 525.3 205.55 525.35 205.55 525.5 205.8 M506.0 261.8 L505.9 261.85 505.75 261.7 505.75 261.65 506.15 261.7 506.1 261.7 506.0 261.7 506.0 261.8" fill="#000000" fill-rule="evenodd" stroke="none"/>
      <path d="M515.1 261.45 L515.15 261.5 515.1 261.65 515.1 261.45" fill="#ff0000" fill-rule="evenodd" stroke="none"/>
      <path d="M510.75 153.7 L511.3 154.35 511.7 154.95 512.95 157.0 Q513.55 158.55 513.55 159.9 L513.55 160.45 513.3 160.9 512.75 160.9 512.75 161.0 512.65 163.15 Q512.55 163.7 512.6 164.55 512.55 165.1 511.85 165.1 L511.7 165.1 511.4 166.95 511.3 167.7 512.6 168.4 Q514.25 169.35 515.45 169.5 516.9 169.85 517.25 170.6 L517.35 171.0 517.5 171.1 518.35 171.75 520.25 172.9 522.0 174.2 522.8 174.85 523.15 175.4 522.75 176.95 524.0 180.5 524.5 182.35 524.95 184.2 525.65 184.3 526.1 185.4 526.65 187.3 526.75 187.35 526.85 187.3 526.95 187.2 527.55 186.4 528.2 185.2 528.8 184.0 Q529.3 183.4 530.25 183.35 L531.4 183.5 533.2 182.25 533.8 181.8 535.3 180.8 536.45 180.15 537.1 181.1 537.05 181.15 536.25 181.75 535.4 182.35 534.8 182.95 534.75 182.9 534.75 183.05 535.3 183.85 534.85 184.25 535.05 184.6 535.05 184.65 534.45 185.2 534.25 184.95 534.15 184.65 533.6 185.0 533.75 185.75 533.55 186.3 533.45 186.95 532.8 188.1 532.65 188.7 532.15 189.25 531.6 189.4 531.5 189.55 531.2 189.85 530.45 190.0 Q530.0 190.05 529.95 190.3 529.6 192.0 528.65 193.25 527.6 194.5 526.55 194.5 L526.3 194.5 526.05 194.65 525.85 194.3 525.8 194.25 525.8 194.3 525.7 194.75 Q523.65 194.75 522.65 193.4 L521.7 194.0 521.9 194.35 519.9 195.85 519.95 195.85 520.25 196.25 519.95 196.6 519.55 196.8 519.3 196.6 519.15 196.35 518.55 196.7 517.0 197.9 516.75 198.1 516.7 198.2 516.6 199.5 516.6 204.7 516.65 205.1 517.05 206.55 517.35 207.95 517.6 209.6 517.4 212.6 517.25 214.05 517.35 215.45 517.1 216.45 517.05 217.45 517.1 219.35 517.05 221.5 517.4 222.5 516.95 226.25 516.4 229.4 Q516.1 233.15 515.6 235.45 L516.1 236.8 515.95 237.85 515.85 238.95 515.65 241.0 515.4 243.15 515.2 245.25 515.05 247.4 514.8 249.5 514.2 253.55 514.4 256.35 514.35 257.95 513.95 259.6 513.95 259.85 513.3 259.85 503.5 259.9 503.0 259.85 503.05 259.65 502.95 259.65 502.9 259.45 502.95 259.25 502.9 259.25 502.85 258.7 502.95 256.75 Q502.8 256.3 503.05 255.75 L503.6 254.8 504.4 252.85 504.55 251.8 504.8 251.25 504.85 250.65 505.1 249.45 Q505.05 247.75 505.25 246.9 L505.75 241.8 506.1 236.7 506.35 234.15 506.35 233.5 506.55 232.9 507.0 232.45 507.0 232.05 507.0 230.65 507.0 227.85 506.85 225.05 506.7 223.7 Q506.6 222.8 506.2 222.25 506.3 222.1 506.85 221.9 L506.75 221.65 506.7 221.1 506.5 220.05 506.0 217.95 504.55 221.1 504.85 221.8 503.2 227.4 502.1 232.85 502.45 233.35 502.75 235.0 502.2 241.0 502.0 244.0 502.0 246.9 501.95 247.55 501.95 247.6 501.55 248.6 500.9 249.55 500.35 250.5 Q499.7 251.35 498.95 251.35 L497.1 251.2 494.35 250.9 493.05 250.9 491.1 250.9 490.85 250.8 490.75 250.6 490.65 249.05 Q490.65 248.4 491.0 248.05 L491.8 246.7 492.5 245.5 492.8 244.9 493.0 244.35 492.85 242.3 Q492.65 240.95 492.75 240.4 L492.75 238.45 492.6 236.5 492.65 233.95 492.75 232.65 492.9 232.05 493.2 231.8 493.55 231.85 493.55 231.25 493.55 225.75 493.7 223.05 493.8 221.25 Q493.85 220.55 494.25 220.45 L494.2 220.1 494.15 218.95 494.2 217.75 494.25 216.8 494.0 215.75 494.25 214.9 494.5 214.15 494.4 212.6 Q494.4 212.05 494.9 210.8 L495.35 209.0 494.9 209.2 494.9 209.25 494.95 209.55 494.9 209.9 494.9 210.4 494.75 210.85 494.5 211.1 Q494.0 211.1 493.9 210.9 L493.9 210.65 493.85 210.45 493.8 210.45 493.25 210.9 492.8 211.3 491.55 211.5 490.2 211.3 489.25 212.45 488.55 213.2 487.2 213.65 Q486.9 213.65 486.4 212.6 L485.6 210.95 Q484.5 208.7 484.5 208.25 484.5 207.85 486.1 207.45 L488.1 206.95 488.05 206.7 486.4 201.55 Q484.0 193.55 484.0 191.3 484.0 190.5 484.8 188.1 485.55 185.85 485.9 185.65 L485.9 185.6 486.0 185.75 486.55 185.45 Q486.8 185.3 487.0 185.25 L487.8 182.9 489.0 180.15 490.4 177.6 Q491.3 176.25 492.35 175.3 L492.4 174.85 Q492.6 174.3 493.1 173.95 L497.9 170.9 497.95 170.5 Q498.15 170.15 498.95 169.8 L501.6 168.4 502.4 167.9 502.35 167.8 502.3 167.15 502.05 165.9 501.8 164.7 501.5 163.4 501.15 162.15 500.8 160.9 500.65 159.65 500.55 158.45 Q500.55 157.85 500.85 157.1 L501.5 155.7 501.95 155.05 502.35 154.35 502.85 153.45 502.85 153.4 Q502.85 153.25 503.6 153.1 L506.5 152.85 507.1 152.85 508.0 152.9 509.15 153.15 Q510.35 153.5 510.75 153.7 M503.75 160.45 L503.9 160.45 504.0 160.4 504.05 160.4 503.8 160.35 503.75 160.45 M491.05 192.2 L491.0 194.5 Q491.0 196.25 491.15 197.35 L491.55 200.2 491.8 203.05 492.1 204.95 492.6 205.4 495.35 204.1 496.1 203.75 496.35 201.65 496.9 198.4 497.1 196.75 497.3 195.75 496.7 194.65 496.85 193.55 496.95 192.1 496.55 187.85 496.1 185.05 Q495.1 185.65 494.05 186.95 L492.05 188.9 492.1 188.95 492.35 189.8 491.45 191.0 Q491.2 191.4 491.05 192.2 M519.6 188.75 L518.8 187.5 518.4 186.8 518.4 186.95 518.3 190.85 518.15 192.45 519.05 191.85 520.9 190.7 521.05 190.6 520.8 190.05 520.85 189.65 519.6 188.75" fill="url(#gradient3)" fill-rule="evenodd" stroke="none"/>
      <path d="M404.95 183.0 L406.75 180.65 Q407.0 180.1 407.55 179.55 L408.75 178.3 Q409.15 177.9 410.05 177.55 L411.05 177.15 412.9 176.5 415.15 175.55 416.65 175.25 416.95 174.85 418.1 173.5 419.85 171.6 419.85 171.3 419.65 170.4 419.35 169.45 Q418.95 168.65 418.95 167.6 L418.75 166.65 418.55 165.4 419.05 164.8 419.05 163.65 Q419.05 161.85 420.15 160.45 L421.85 159.0 Q423.2 158.2 425.55 158.05 L426.0 158.05 427.2 158.2 428.45 158.5 429.1 158.8 429.8 159.25 Q430.55 160.0 430.9 161.0 L431.5 163.0 431.7 164.65 431.75 164.65 Q432.15 164.7 432.15 165.15 L431.9 166.65 431.7 167.8 431.75 167.9 431.75 167.95 431.6 168.0 431.55 168.0 431.5 168.15 430.55 171.3 430.35 172.05 430.8 172.8 432.05 174.3 432.5 174.8 432.95 175.05 433.75 175.5 435.25 176.2 Q436.15 176.55 437.05 177.15 L438.0 177.6 438.3 177.8 438.4 177.85 439.4 178.8 439.9 179.85 439.9 179.95 440.15 180.25 440.25 180.75 440.55 181.7 440.9 182.65 Q442.1 185.0 442.35 186.1 L443.25 187.65 445.5 190.3 445.85 190.55 447.55 192.1 450.1 195.3 452.2 198.55 454.05 201.1 454.4 201.6 455.3 201.75 455.4 201.6 455.7 201.3 455.95 200.95 456.4 200.9 457.0 201.3 457.05 201.2 Q457.3 201.05 457.45 201.05 L457.45 201.25 457.3 201.55 457.75 202.0 458.6 202.0 459.1 202.45 458.8 202.95 459.35 203.3 460.2 204.2 461.1 205.1 462.15 206.05 462.95 206.95 463.3 207.5 Q463.55 207.25 463.7 207.25 L463.9 207.55 463.75 208.0 464.4 208.65 463.9 209.25 462.8 210.55 462.6 210.75 461.75 209.9 461.35 209.4 461.1 209.65 460.65 209.85 460.3 209.6 459.95 209.15 459.25 208.5 458.5 207.9 457.95 207.35 457.4 207.3 457.3 207.4 457.0 207.65 457.1 207.75 457.15 207.8 457.05 207.85 456.75 207.75 456.7 207.75 456.65 207.7 455.95 207.45 455.4 207.2 455.35 206.95 455.6 205.9 Q455.6 205.45 454.9 205.1 L453.35 204.55 452.1 203.95 451.55 203.5 450.45 202.55 449.3 201.3 448.0 200.25 446.7 199.3 445.3 198.3 443.8 197.3 442.85 196.75 441.95 196.25 440.7 195.1 440.75 195.05 440.65 194.85 440.65 194.35 440.6 193.95 440.1 193.35 439.2 192.8 438.3 191.95 438.2 191.65 437.6 191.45 437.2 191.3 437.15 191.3 436.75 191.0 436.45 190.6 436.15 190.35 435.95 190.55 434.7 193.5 433.75 197.1 433.7 198.8 433.75 199.05 433.8 199.75 433.8 199.9 433.8 200.1 434.1 201.95 434.4 203.95 434.3 204.6 434.3 205.1 434.45 207.85 433.7 207.95 433.55 208.0 433.6 208.3 433.6 208.7 433.6 211.05 434.25 211.4 Q434.75 211.65 434.75 212.15 L433.95 213.35 433.7 213.8 433.75 214.9 433.85 221.9 433.85 222.2 433.95 222.65 434.0 222.95 434.15 223.85 434.25 224.3 434.25 224.4 434.35 225.8 Q435.05 229.25 435.05 231.35 L435.0 232.65 434.55 233.8 434.4 234.5 434.0 236.15 434.25 236.9 434.5 237.8 434.25 238.75 433.95 239.55 433.8 241.15 433.95 242.9 434.15 244.55 433.4 246.7 433.25 247.25 433.0 247.75 432.7 248.5 Q432.65 248.7 432.25 248.7 L429.3 247.95 428.65 247.45 428.55 246.9 Q428.55 246.3 428.9 244.85 L429.25 243.1 429.15 241.75 428.95 240.35 428.75 239.0 428.35 238.3 428.0 237.7 428.15 237.2 428.3 236.65 427.8 235.0 427.8 235.05 427.7 235.05 427.2 234.45 426.8 233.55 Q426.65 233.0 426.65 232.1 L426.65 231.7 426.1 230.45 425.35 227.1 424.65 224.9 424.65 224.95 424.6 225.55 424.65 225.65 424.55 225.85 424.45 226.25 424.3 226.4 424.25 226.45 423.8 227.3 423.4 228.15 423.3 230.4 423.65 231.65 423.95 233.95 423.7 235.4 423.45 236.25 423.65 237.6 423.8 239.3 423.8 242.3 423.75 244.5 423.8 244.5 424.05 245.35 424.05 246.1 424.0 248.1 423.75 248.55 423.55 249.1 423.65 253.25 423.75 256.4 423.75 256.6 423.8 256.65 424.15 257.65 424.4 258.85 424.3 259.9 423.8 260.3 423.45 260.5 422.0 260.55 420.75 260.55 419.8 260.3 417.85 260.15 416.7 259.8 416.1 259.4 416.0 259.0 Q416.0 258.1 416.6 256.6 L417.1 255.3 416.85 253.2 416.6 251.2 416.3 248.05 416.05 247.8 Q415.65 247.65 415.6 247.35 L415.6 246.85 415.5 245.0 415.7 244.55 416.0 244.1 416.25 243.65 416.25 243.2 416.1 241.4 416.0 239.55 415.8 235.15 415.55 234.85 415.2 234.35 415.05 233.85 414.75 232.7 414.7 231.85 414.7 231.8 414.6 231.4 414.1 230.1 413.55 228.7 412.85 225.8 412.7 224.2 412.5 223.75 412.4 222.8 412.2 219.2 Q412.2 215.8 412.5 211.6 L412.9 207.9 412.85 207.75 412.6 207.0 412.3 206.1 412.15 205.7 412.1 205.7 412.0 205.3 412.15 203.65 412.25 202.35 412.25 202.3 412.35 202.3 412.35 201.85 412.35 199.1 Q412.4 198.3 412.6 197.7 L412.7 196.25 412.8 194.95 412.5 193.95 411.75 190.75 410.75 190.0 409.0 191.2 407.15 192.8 406.8 192.55 406.2 193.05 405.15 193.75 Q404.0 194.25 403.8 195.05 L403.45 196.1 403.2 196.95 403.1 197.25 402.8 197.75 403.0 197.85 403.4 198.35 402.8 199.55 401.95 201.35 401.7 202.1 401.45 202.85 401.3 203.6 401.0 204.1 Q400.15 207.1 399.9 209.15 L400.3 209.95 400.5 210.2 400.65 210.5 400.7 211.1 401.2 213.25 401.15 213.25 400.45 215.2 400.3 216.15 400.15 216.7 400.2 216.9 399.95 217.0 399.95 217.15 Q399.95 217.65 399.25 217.65 L397.95 217.3 397.05 216.7 396.5 216.15 396.15 215.45 395.65 214.25 395.4 212.95 Q395.4 212.15 395.9 210.6 L396.4 208.2 396.3 205.4 396.2 202.65 396.3 199.2 396.45 197.5 396.6 196.65 397.75 196.6 397.7 196.5 397.9 195.5 398.15 194.7 397.85 194.3 397.65 193.3 397.85 192.4 Q397.85 191.85 399.1 189.95 L400.45 187.9 402.45 185.7 403.65 184.6 404.1 184.15 404.95 183.0 M429.7 174.45 L429.8 174.45 429.7 174.4 429.7 174.45 M453.9 201.3 L453.85 201.25 453.8 201.3 453.9 201.3" fill="url(#gradient4)" fill-rule="evenodd" stroke="none"/>
      <path d="M442.95 159.95 L442.3 161.05 442.15 161.25 444.85 161.4 446.3 161.65 446.95 161.8 447.55 162.05 448.1 162.2 449.6 162.3 450.2 162.3 453.65 161.85 453.9 161.45 Q454.25 161.05 454.9 161.05 L457.25 161.2 459.75 160.8 460.85 160.85 461.35 160.8 Q461.55 160.45 462.2 160.3 L464.5 159.9 465.55 158.85 466.35 158.1 Q465.85 157.65 465.85 157.35 L465.7 156.5 465.7 155.6 465.6 155.0 465.35 154.85 465.2 154.9 465.2 154.7 465.15 154.65 Q464.8 152.3 464.8 150.05 L464.9 146.65 465.1 145.9 Q465.2 144.75 466.7 143.95 L466.8 143.9 466.7 143.15 Q466.7 142.7 467.75 142.2 L468.8 141.95 471.45 141.45 Q473.75 141.2 474.45 141.8 L475.3 142.0 Q476.0 142.2 476.2 142.45 L476.35 142.95 476.3 143.35 Q476.7 143.55 476.95 143.7 L477.2 143.75 477.3 143.9 477.5 144.4 477.7 145.45 478.0 147.5 478.25 151.65 478.15 154.65 477.85 154.9 477.75 154.9 477.75 155.15 477.7 155.5 477.7 155.7 477.65 157.25 477.6 157.85 Q477.45 158.2 476.95 158.45 L476.2 159.05 475.7 159.5 477.9 161.1 479.85 162.65 480.1 162.8 480.25 163.05 480.35 163.25 480.4 163.2 480.4 163.3 480.35 163.35 480.25 163.3 480.3 163.7 480.3 164.15 481.6 164.85 482.9 165.85 484.0 166.9 484.8 167.4 485.05 167.9 484.9 168.8 Q487.9 173.5 489.1 178.4 L489.5 178.55 490.25 179.1 490.25 179.25 491.9 183.65 493.25 188.35 493.55 189.25 Q494.4 191.6 495.2 196.35 L495.55 198.1 496.15 199.9 Q496.9 201.4 496.9 203.45 L496.8 204.55 496.6 205.45 Q496.15 206.45 495.25 206.45 L494.9 206.45 494.9 206.2 495.25 205.1 495.05 204.35 494.95 204.05 494.95 204.4 Q494.95 205.6 494.15 205.6 493.75 205.6 493.65 205.2 L493.6 204.75 493.5 203.9 493.35 203.5 493.05 203.05 492.65 202.15 Q491.85 200.65 491.85 198.8 L491.8 197.9 491.8 197.75 491.0 196.35 490.1 194.55 489.6 193.75 489.05 192.8 487.95 191.0 485.4 187.45 484.05 185.65 Q483.55 184.85 483.55 183.95 L483.6 183.5 483.55 183.35 483.65 182.75 483.7 182.45 482.15 180.9 481.35 179.55 480.25 183.9 Q479.65 186.0 479.2 188.5 L479.15 189.1 479.0 189.65 478.5 190.15 478.25 192.8 478.15 193.75 478.05 194.7 478.1 196.4 478.7 196.6 479.1 197.0 479.0 197.4 479.15 199.0 479.35 201.4 479.85 203.8 480.05 206.2 480.1 210.9 480.25 213.15 480.3 215.3 480.15 217.75 480.05 219.1 480.1 219.75 479.7 222.6 480.0 223.7 479.15 227.75 478.8 229.7 478.7 230.75 478.65 231.0 479.1 231.65 479.25 232.3 478.6 238.85 478.25 242.1 478.05 243.75 478.0 245.25 478.2 245.6 478.8 246.6 479.35 247.7 479.55 248.6 479.5 249.55 479.4 250.0 476.7 250.3 475.15 250.1 474.7 250.0 Q474.9 251.55 475.25 252.55 L476.25 255.4 477.3 257.0 478.05 258.15 478.05 258.1 478.6 259.4 478.75 260.7 478.6 262.0 478.45 262.2 465.1 262.2 465.1 261.95 465.05 262.2 465.0 262.3 464.85 262.2 464.6 262.05 464.45 260.75 464.3 259.7 Q464.3 258.95 464.45 258.4 L464.4 257.15 464.2 256.3 464.05 255.45 464.05 255.2 464.05 255.15 464.05 254.6 464.0 253.5 463.65 251.2 463.3 249.0 463.05 246.75 462.35 242.2 Q461.75 239.45 461.75 237.7 L461.75 237.1 462.1 236.25 462.15 236.15 461.9 233.4 Q461.7 231.4 461.2 230.1 L460.55 226.95 459.95 223.5 460.35 222.45 460.3 222.05 460.05 220.65 459.4 217.9 457.6 212.3 457.05 210.9 456.65 209.45 456.5 208.1 456.15 206.7 Q455.9 205.7 455.8 203.9 L455.75 202.75 455.65 201.95 455.65 201.9 455.55 201.15 455.7 201.15 455.65 200.8 455.55 198.5 Q455.55 198.25 455.75 198.25 L455.75 198.35 456.05 198.05 456.45 197.7 456.5 196.35 456.5 194.75 456.55 191.6 456.85 188.4 456.9 186.8 456.9 186.65 455.8 184.85 Q455.55 184.15 455.55 183.0 L455.8 176.15 456.0 174.4 Q454.8 173.5 453.4 173.05 L452.2 172.55 450.8 172.0 449.15 171.55 448.45 171.25 448.0 171.05 447.85 171.05 446.05 170.85 445.3 170.6 443.25 170.05 441.55 169.55 440.2 169.0 Q438.05 167.8 436.85 166.85 435.9 166.5 435.45 165.95 435.05 165.5 435.05 164.7 L435.1 164.4 434.65 164.3 434.6 164.35 434.45 164.3 434.45 164.2 434.55 164.1 434.5 161.25 434.7 155.9 434.9 151.85 435.7 147.15 436.1 144.75 Q436.3 143.8 436.8 143.1 436.9 142.6 437.3 141.85 L438.0 140.45 438.05 139.7 Q438.05 139.2 438.4 138.95 L438.7 138.9 438.85 138.65 439.0 138.35 439.35 137.9 439.6 137.75 439.8 136.15 440.05 135.15 Q440.15 134.6 440.6 134.6 L441.6 134.8 441.85 134.45 441.95 133.95 442.1 133.15 442.3 132.35 442.45 131.95 442.6 131.65 442.7 131.1 443.9 131.05 445.5 131.35 Q446.5 131.6 446.7 132.05 L446.7 132.15 446.7 132.3 446.9 132.4 447.15 132.85 Q447.15 133.1 446.7 133.1 L446.5 133.1 446.1 134.45 445.65 136.7 444.95 139.8 Q445.35 139.8 445.4 140.3 L445.4 140.5 445.2 140.55 444.8 140.5 444.65 141.1 445.45 141.2 446.05 141.3 446.4 141.6 446.4 141.95 Q446.4 142.6 445.75 142.95 L443.65 144.0 Q442.35 144.6 441.8 144.9 440.95 145.3 440.95 145.8 L441.1 146.5 441.1 147.45 441.25 148.3 441.35 149.25 441.55 152.8 Q441.6 154.05 442.2 156.4 L442.9 159.9 442.95 159.95 M464.7 260.5 L464.6 260.1 464.7 260.75 464.7 260.5 M465.0 261.2 L465.1 261.85 465.1 261.95 465.95 261.95 465.6 261.8 465.25 261.4 465.0 261.2" fill="#000000" fill-rule="evenodd" stroke="none"/>
      <path d="M465.1 262.2 L465.05 262.2 465.0 262.35 465.0 262.3 465.05 262.2 465.1 261.95 465.1 262.2 M442.9 159.9 L442.95 159.85 442.95 159.95 442.9 159.9" fill="#ff0000" fill-rule="evenodd" stroke="none"/>
      <path d="M504.05 160.4 L504.0 160.4 503.9 160.45 503.75 160.45 503.8 160.35 504.05 160.4 M464.7 260.5 L464.7 260.75 464.6 260.1 464.7 260.5 M465.1 261.85 L465.0 261.2 465.25 261.4 465.6 261.8 465.95 261.95 465.1 261.95 465.1 261.85 M453.8 201.3 L453.85 201.25 453.9 201.3 453.8 201.3 M429.7 174.45 L429.7 174.4 429.8 174.45 429.7 174.45 M518.4 186.8 L518.8 187.5 519.6 188.75 520.85 189.65 520.8 190.05 521.05 190.6 520.9 190.7 519.05 191.85 518.15 192.45 518.3 190.85 518.4 186.95 518.4 186.8 M491.15 197.35 L491.05 196.5 491.8 197.75 491.8 197.9 491.85 198.8 Q491.85 200.65 492.65 202.15 L493.05 203.05 493.35 203.5 493.5 203.9 493.6 204.75 493.65 204.95 492.6 205.4 492.1 204.95 491.8 203.05 491.55 200.2 491.15 197.35 M493.55 189.25 L493.25 188.35 493.15 187.95 494.05 186.95 Q495.1 185.65 496.1 185.05 L496.55 187.85 496.95 192.1 496.85 193.55 496.7 194.65 497.3 195.75 497.1 196.75 496.9 198.4 496.5 200.8 496.15 199.9 495.55 198.1 495.2 196.35 Q494.4 191.6 493.55 189.25 M494.95 204.3 L494.95 204.05 495.0 204.25 494.95 204.3" fill="#ebaf25" fill-rule="evenodd" stroke="none"/>
    </g>
    <linearGradient gradientTransform="matrix(0.0, 0.0275, -0.0861, 0.0, 477.3, 234.0)" gradientUnits="userSpaceOnUse" id="gradient2" spreadMethod="pad" x1="-819.2" x2="819.2">
      <stop offset="0.0" stop-color="#ffffff"/>
      <stop offset="1.0" stop-color="#000000"/>
    </linearGradient>
    <linearGradient gradientTransform="matrix(-3.0E-4, 0.0643, -0.0936, -5.0E-4, 455.45, 136.65)" gradientUnits="userSpaceOnUse" id="gradient3" spreadMethod="pad" x1="-819.2" x2="819.2">
      <stop offset="0.0" stop-color="#ffffff"/>
      <stop offset="1.0" stop-color="#000000"/>
    </linearGradient>
    <linearGradient gradientTransform="matrix(-4.0E-4, 0.0679, -0.0802, -4.0E-4, 463.55, 138.5)" gradientUnits="userSpaceOnUse" id="gradient4" spreadMethod="pad" x1="-819.2" x2="819.2">
      <stop offset="0.0" stop-color="#ffffff"/>
      <stop offset="1.0" stop-color="#000000"/>
    </linearGradient>
    <g id="sprite1" transform="matrix(1.0, 0.0, 0.0, 1.0, 0.0, 0.0)">
      <use ffdec:characterId="4028" height="310.0" transform="matrix(1.0, 0.0, 0.0, 1.0, 0.0, 0.0)" width="310.0" xlink:href="#shape4"/>
    </g>
    <g id="shape4" transform="matrix(1.0, 0.0, 0.0, 1.0, 0.0, 0.0)">
      <path d="M246.45 69.3 Q245.35 66.5 243.7 64.75 243.65 64.3 242.85 63.45 242.4 62.5 241.6 62.05 L238.1 60.85 235.65 60.3 233.85 60.2 233.65 60.2 232.35 60.2 225.9 60.75 Q224.25 61.0 224.25 61.35 L224.25 61.5 Q223.7 62.0 223.2 63.45 L222.35 65.0 221.3 66.45 219.9 69.45 Q219.2 71.2 219.2 72.45 L219.45 75.1 219.8 77.85 Q219.9 78.8 220.55 80.65 L221.3 83.3 221.95 86.2 222.5 88.85 223.05 91.55 223.2 93.05 223.3 93.25 Q222.45 93.7 221.55 94.3 L215.7 97.45 Q214.0 98.15 213.55 99.0 L213.35 99.85 Q210.9 101.85 202.9 106.55 201.7 107.25 201.35 108.55 L201.2 109.45 Q198.85 111.55 196.95 114.55 L195.85 116.6 195.6 117.0 194.9 116.65 194.8 116.6 194.05 116.35 Q191.4 105.55 184.85 95.2 L185.2 93.2 Q185.2 92.5 184.6 92.1 L182.8 91.0 180.4 88.75 Q179.8 87.85 177.55 86.5 L174.7 84.95 174.7 84.0 174.65 83.1 174.85 83.2 174.9 83.1 174.9 82.9 174.85 83.0 174.6 82.6 174.25 82.0 173.75 81.7 Q172.25 80.25 169.4 78.3 L164.55 74.75 165.65 73.8 167.35 72.5 Q168.45 71.9 168.75 71.15 L168.9 69.8 169.05 66.45 169.0 65.95 169.1 65.25 169.1 64.7 169.35 64.65 169.95 64.1 170.2 57.55 Q170.2 54.35 169.65 48.4 169.5 46.0 169.0 43.85 L168.55 41.6 168.1 40.45 167.85 40.15 167.35 40.1 165.95 39.3 166.05 38.45 165.75 37.35 Q165.25 36.7 163.75 36.35 L161.9 35.85 Q160.3 34.55 155.25 35.05 151.25 35.45 149.45 36.15 148.45 36.0 147.1 36.7 144.85 37.8 144.85 38.8 L145.0 40.5 144.8 40.6 Q141.5 42.4 141.3 44.85 140.85 45.6 140.85 46.5 L140.65 53.95 Q140.65 58.95 141.45 64.1 L141.5 64.2 141.55 64.7 Q141.85 64.7 141.85 64.55 L141.85 64.5 142.45 64.9 142.6 66.25 142.65 68.15 142.9 70.1 Q142.9 70.75 144.0 71.7 L142.3 73.3 139.95 75.6 134.95 76.55 Q133.45 76.85 133.1 77.6 L133.1 77.65 133.05 77.65 131.95 77.75 129.55 77.6 Q127.45 78.5 124.1 78.5 L118.9 78.2 Q117.45 78.2 116.65 79.05 L116.1 79.95 108.6 80.95 107.2 80.95 103.9 80.75 102.75 80.35 Q102.2 80.0 101.45 79.85 L100.0 79.55 96.85 78.95 90.9 78.6 91.15 78.2 92.65 75.75 92.5 75.65 Q92.3 73.0 91.0 68.0 89.65 62.8 89.55 60.1 L89.1 52.25 88.85 50.2 88.6 48.25 88.55 46.25 88.2 44.7 Q88.25 43.6 90.05 42.65 91.3 42.05 94.15 40.75 L98.75 38.45 Q100.15 37.6 100.15 36.2 L100.15 35.4 99.4 34.75 Q98.65 34.35 98.15 34.5 L96.4 34.3 96.35 34.3 96.65 33.05 97.6 33.1 97.95 33.0 97.95 32.6 Q97.9 31.45 97.0 31.45 L98.5 24.7 99.55 19.75 100.45 16.7 100.9 16.7 Q101.8 16.7 101.8 16.15 101.8 15.6 101.35 15.2 L100.9 14.95 100.9 14.7 100.85 14.55 100.9 14.45 Q100.4 13.45 98.25 12.95 L94.75 12.2 92.05 12.35 91.8 13.55 Q91.5 13.7 91.5 14.2 L91.2 15.05 90.75 16.85 90.4 18.65 90.25 19.75 89.65 20.45 87.4 20.05 Q86.45 20.05 86.2 21.2 L85.75 23.45 Q85.35 24.6 85.3 26.95 85.0 27.05 84.75 27.3 L83.95 28.25 Q83.65 28.5 83.65 29.0 L83.3 29.55 82.6 29.6 Q81.8 30.2 81.8 31.25 L81.75 32.9 80.15 36.0 Q79.3 37.6 79.1 38.7 78.05 40.3 77.55 42.4 L76.65 47.65 Q75.35 53.8 74.95 57.95 L74.45 66.9 74.05 78.65 Q74.05 81.75 74.2 84.85 73.9 84.9 73.9 85.05 L73.9 85.25 73.95 85.3 74.25 85.4 74.4 85.35 75.35 85.5 75.3 86.25 Q75.3 88.0 76.15 89.0 77.1 90.15 79.25 90.9 81.85 93.05 86.55 95.6 88.3 96.5 89.5 96.9 L93.3 98.0 97.75 99.2 99.45 99.75 103.4 100.15 103.7 100.15 104.75 100.55 Q105.6 101.1 106.3 101.3 L109.9 102.25 Q111.25 102.55 112.95 103.45 L115.6 104.6 Q118.7 105.6 121.3 107.55 L120.9 111.35 Q120.3 120.75 120.3 126.4 120.3 128.95 120.85 130.45 121.45 131.95 123.25 134.45 L123.25 134.75 123.15 138.25 122.5 145.3 122.35 152.3 122.4 155.75 122.3 158.75 121.45 159.45 120.75 160.2 120.7 159.95 Q120.3 159.95 120.3 160.5 L120.55 165.5 120.6 166.35 120.3 166.3 120.4 166.9 120.0 167.35 119.8 167.6 117.8 167.3 117.0 166.25 112.9 160.6 108.3 153.5 Q104.9 148.55 102.75 146.45 L98.95 143.0 98.25 142.5 Q94.55 138.6 93.3 136.7 L91.25 133.2 Q90.75 130.8 88.15 125.65 L87.3 123.55 86.65 121.45 86.45 120.35 85.95 119.7 85.9 119.55 84.85 117.15 Q84.2 116.05 82.6 115.1 L82.35 115.0 81.75 114.6 79.6 113.6 Q77.7 112.2 75.65 111.45 L72.35 109.95 70.6 108.9 69.6 108.4 68.7 107.35 65.95 104.05 64.9 102.4 65.35 100.7 67.5 93.8 67.6 93.5 67.65 93.5 67.95 93.4 68.05 93.2 67.9 93.05 68.3 90.5 68.85 87.15 Q68.85 86.2 68.0 86.1 L67.9 86.1 Q67.9 84.0 67.5 82.45 L66.1 78.1 Q65.35 75.85 63.7 74.2 L62.15 73.25 Q61.05 72.65 60.7 72.55 L58.05 71.9 55.35 71.6 54.4 71.6 Q49.2 71.95 46.25 73.65 44.7 74.5 42.55 76.9 40.05 79.9 40.05 83.95 L40.05 86.45 Q38.95 87.05 38.95 87.75 L39.4 90.45 39.85 92.55 Q39.85 94.9 40.75 96.65 L41.4 98.7 41.8 100.7 41.9 101.35 38.05 105.55 35.5 108.55 34.85 109.4 Q33.8 109.3 31.55 110.1 L26.55 112.15 22.45 113.6 20.35 114.5 Q18.3 115.2 17.5 116.05 L14.85 118.85 Q13.6 120.1 13.1 121.25 11.8 122.7 9.15 126.4 L7.25 128.95 6.25 129.95 3.6 132.35 0.0 136.25 0.0 0.0 310.0 0.0 310.0 310.0 0.0 310.0 0.0 195.05 0.7 192.95 0.85 192.95 0.0 189.1 0.0 174.35 0.45 172.8 1.05 171.7 1.45 170.05 1.95 168.4 2.55 166.75 Q3.0 165.5 4.4 162.75 L5.7 160.2 Q5.7 159.65 4.8 159.05 L4.4 158.85 4.4 158.8 5.0 157.8 5.2 157.05 5.85 155.2 6.6 152.9 Q7.0 151.15 9.55 150.05 L11.85 148.55 13.15 147.45 13.95 147.95 17.95 144.5 21.8 141.85 24.0 143.45 Q25.05 148.6 25.65 150.45 L26.35 152.65 26.15 155.6 25.95 158.7 Q25.45 160.1 25.4 161.85 L25.35 167.9 25.35 168.8 25.15 168.9 25.15 168.95 24.9 171.8 24.6 175.4 Q24.6 176.15 24.8 176.3 L24.95 176.35 25.2 177.25 25.9 179.2 26.45 180.85 26.6 181.1 Q26.1 184.25 25.7 189.3 25.25 195.05 25.1 200.1 L25.0 205.95 25.5 213.85 25.7 215.95 26.15 216.95 26.45 220.45 Q26.7 222.1 28.0 226.85 28.25 227.85 29.2 229.95 L30.35 232.85 30.55 233.65 30.55 233.8 30.6 235.7 Q30.7 236.5 31.3 238.15 L31.6 239.3 Q31.8 239.95 32.35 240.4 L33.0 241.1 33.4 250.7 33.65 254.75 33.9 258.75 33.9 259.7 33.4 260.75 32.7 261.7 32.25 262.7 32.5 266.8 32.55 267.85 Q32.65 268.5 33.45 268.9 L34.05 269.35 34.75 276.35 Q34.8 278.3 35.2 280.7 L35.85 285.3 34.65 288.2 Q33.4 291.45 33.4 293.45 33.4 294.1 33.55 294.35 33.85 294.95 34.9 295.25 L37.45 296.0 41.7 296.35 Q42.6 296.75 43.8 296.85 L46.55 296.9 49.8 296.75 50.5 296.35 Q51.6 296.05 51.6 295.4 L51.85 293.1 51.3 290.55 50.5 288.35 50.4 288.15 50.4 287.8 50.2 280.85 49.95 271.7 Q49.95 271.25 50.4 270.5 L50.95 269.5 50.95 269.35 51.1 265.15 51.05 263.5 50.55 261.65 50.45 261.55 50.55 256.75 50.5 250.15 50.15 246.45 49.8 243.5 50.35 241.65 Q50.85 239.85 50.85 238.4 50.85 236.3 50.2 233.4 L49.4 230.65 49.65 225.7 Q50.2 224.2 50.5 223.75 L51.5 221.95 51.6 221.85 52.0 221.45 52.2 220.6 52.35 220.2 52.3 219.95 52.45 218.6 52.45 218.5 53.9 223.3 Q54.75 225.9 55.6 230.75 56.05 232.25 56.8 233.5 L56.8 234.35 Q56.8 236.3 57.15 237.55 L58.05 239.55 59.05 240.85 59.35 240.8 59.35 240.7 60.4 244.4 60.1 245.55 59.8 246.6 Q59.8 247.15 60.5 248.0 L61.45 249.5 61.9 252.5 62.25 255.55 62.5 258.5 61.75 262.35 Q61.0 265.6 61.0 266.9 61.0 267.8 61.15 268.05 61.45 268.65 62.65 269.15 L63.25 269.35 Q67.7 270.8 69.05 270.8 69.95 270.8 70.1 270.4 L70.75 268.7 71.25 267.6 71.65 266.45 Q73.3 262.75 73.3 261.75 L72.85 258.05 Q72.55 256.25 72.55 254.25 72.55 252.5 72.85 250.7 L73.5 248.95 74.1 246.9 73.55 244.85 73.0 243.2 73.8 239.6 74.2 238.1 75.15 235.5 75.25 232.7 Q75.25 228.05 73.75 220.55 L73.45 217.45 73.45 217.25 73.3 216.2 72.95 214.2 72.8 213.55 72.6 212.55 72.6 211.9 72.45 200.1 72.4 196.55 72.3 194.15 72.85 193.1 74.65 190.45 Q74.65 189.45 73.45 188.8 L72.1 188.1 72.1 182.95 72.1 182.0 72.0 181.4 72.25 181.25 73.9 181.0 73.65 174.95 73.65 173.9 73.8 172.5 73.2 168.1 72.55 164.05 72.55 163.55 72.5 163.2 72.35 161.75 72.3 161.15 72.45 157.45 74.5 149.45 77.25 143.0 77.65 142.6 78.3 143.15 78.95 144.05 Q79.5 144.7 79.9 144.7 L79.95 144.65 Q80.25 144.9 80.85 145.0 L82.15 145.4 82.45 146.05 Q83.0 146.9 84.4 148.0 L86.35 149.15 87.4 150.45 87.55 151.4 87.6 152.45 87.75 152.9 87.7 153.05 Q87.7 153.7 90.45 155.5 90.75 155.8 92.4 156.7 L94.45 157.85 97.75 160.1 100.9 162.2 103.7 164.35 106.6 166.7 109.05 169.45 Q110.8 171.35 111.5 171.5 L112.75 172.5 115.45 173.8 118.85 175.05 Q120.45 175.75 120.45 176.75 L119.85 179.1 119.95 179.65 Q120.15 179.9 121.15 180.2 L122.15 180.55 122.35 181.55 122.7 184.6 Q122.85 185.75 123.65 187.7 L124.8 190.85 127.8 200.1 128.8 203.15 Q129.6 205.65 130.2 209.2 L130.7 212.3 130.9 213.15 130.0 215.45 Q130.0 216.7 131.25 223.05 L132.75 230.0 Q133.8 232.85 134.25 237.25 L134.85 243.25 134.7 243.5 133.95 245.35 133.9 246.7 Q133.9 250.5 135.25 256.55 136.05 260.3 136.75 266.5 L137.1 269.35 137.4 271.5 138.1 276.35 138.85 281.35 139.05 283.85 139.05 285.05 139.05 285.1 139.0 285.7 139.3 287.55 139.75 289.4 139.9 292.15 Q139.6 293.4 139.6 295.0 L139.85 297.35 140.2 300.2 140.8 300.55 141.05 300.75 141.2 300.55 141.3 299.9 141.3 300.55 170.65 300.55 171.0 300.05 Q171.3 299.3 171.3 297.2 L170.95 294.4 Q170.6 292.55 169.8 291.5 L169.8 291.55 168.1 289.05 165.85 285.55 163.6 279.25 Q162.85 277.1 162.45 273.65 L163.4 273.9 166.8 274.3 172.7 273.65 Q172.9 273.55 172.9 272.75 L173.05 270.65 172.9 269.35 172.65 268.65 171.4 266.2 170.05 264.05 169.7 263.2 Q169.55 261.9 169.8 259.9 L170.25 256.3 170.95 249.2 172.45 234.8 Q172.45 234.0 172.05 233.35 L171.1 231.95 171.15 231.35 171.4 229.1 Q171.8 226.2 172.15 224.75 L174.1 215.9 Q174.1 215.05 173.35 213.5 L173.9 210.0 174.3 207.25 174.2 205.75 174.4 202.75 174.7 197.45 174.55 192.7 Q174.25 189.6 174.25 187.8 174.45 180.85 174.15 177.4 L173.75 172.1 Q173.45 169.05 172.6 166.9 L172.15 161.6 171.9 158.05 172.05 157.2 Q172.05 156.6 171.25 156.35 L169.9 155.9 169.75 152.15 Q169.7 151.35 169.95 150.0 L170.2 147.95 170.75 142.1 171.85 141.05 172.2 139.85 172.3 138.5 Q173.25 133.0 174.55 128.45 176.0 122.0 177.05 118.8 177.95 120.85 178.75 121.85 L182.2 125.25 182.05 125.9 181.9 127.2 181.95 127.55 182.0 127.55 181.9 128.55 Q181.9 130.5 182.95 132.25 L185.4 135.5 184.6 137.65 Q182.85 142.9 182.85 144.7 182.85 149.6 188.1 167.2 L191.7 178.5 191.9 179.1 187.45 180.15 Q183.9 181.0 183.9 181.95 183.9 182.95 186.35 187.85 L188.1 191.45 Q189.2 193.75 189.9 193.75 191.6 193.75 192.8 192.75 L194.35 191.15 Q196.25 189.55 196.45 188.65 L199.4 189.05 202.2 188.65 203.15 187.8 204.35 186.8 204.45 186.8 204.65 187.15 204.65 187.7 Q204.85 188.2 205.9 188.2 L206.45 187.6 206.75 186.6 206.8 185.6 206.95 184.8 206.8 184.1 206.8 184.05 207.8 183.6 Q207.6 185.4 206.8 187.5 205.75 190.3 205.75 191.5 L205.95 194.85 205.4 196.55 Q204.85 198.05 204.85 198.45 L205.35 200.75 205.25 202.85 Q205.15 204.2 205.2 205.45 L205.3 207.95 205.4 208.75 Q204.65 208.95 204.45 210.0 L204.35 210.5 204.2 214.4 Q204.2 218.0 203.85 220.35 L203.8 232.45 203.85 233.75 203.05 233.65 202.45 234.2 Q202.2 234.4 202.05 235.6 L201.85 238.4 201.75 244.05 202.05 248.3 Q202.25 251.05 202.05 252.6 201.9 253.8 202.25 256.75 L202.6 261.3 202.2 262.5 201.5 263.8 Q201.35 264.65 199.95 266.4 L198.2 269.35 Q197.5 270.2 197.5 271.55 197.5 273.4 197.65 275.05 L197.95 275.5 198.4 275.65 202.75 275.65 205.55 275.65 211.65 276.35 215.7 276.7 Q217.4 276.7 218.8 274.8 L219.95 272.7 221.45 270.65 222.1 269.35 222.25 268.4 222.35 268.3 222.4 266.9 222.4 260.45 222.85 253.95 Q224.1 243.8 224.1 240.7 L223.45 237.05 222.6 236.0 Q224.25 226.55 225.05 224.0 L228.7 211.7 Q228.7 210.95 228.05 210.2 L228.0 210.15 228.1 210.0 231.15 203.2 Q231.65 204.25 232.35 207.9 L232.75 210.2 232.9 211.4 233.1 211.9 231.65 212.7 Q232.5 213.95 232.75 215.85 L233.05 218.85 Q233.45 220.7 233.45 225.05 L233.45 231.2 233.4 234.25 233.45 235.1 232.4 236.1 Q232.05 236.55 232.0 237.45 L232.0 238.9 Q232.0 242.1 231.45 244.5 230.95 249.95 230.6 255.7 L229.6 266.9 Q229.35 267.85 229.25 269.35 229.15 270.7 229.2 272.5 L228.7 275.1 228.55 276.45 Q228.25 276.8 228.05 277.6 L227.65 279.95 Q227.35 281.7 225.9 284.25 L224.75 286.35 Q224.2 287.5 224.5 288.5 224.25 290.4 224.25 292.85 L224.35 294.05 224.45 294.05 224.35 294.5 224.45 294.95 224.75 294.85 224.6 295.3 225.65 295.45 247.2 295.35 248.65 295.3 248.65 294.8 249.55 291.2 249.7 287.65 249.2 281.5 250.55 272.6 250.95 269.35 251.1 267.95 251.45 263.3 251.9 258.65 252.45 253.95 252.8 249.4 253.1 246.95 253.35 244.7 Q253.35 243.8 252.25 241.7 253.35 236.7 254.1 228.4 L255.25 221.5 Q256.3 215.45 256.3 213.25 256.3 212.55 255.5 211.1 L255.6 210.0 255.65 206.35 255.5 202.15 Q255.3 201.15 255.65 200.0 L256.15 197.8 Q255.9 195.65 255.95 194.65 L256.3 191.45 256.7 184.85 256.15 181.3 255.45 178.15 Q254.75 175.95 254.6 174.95 L254.55 174.1 254.45 162.65 254.75 159.85 254.8 159.65 255.4 159.15 258.8 156.5 260.05 155.75 260.4 156.3 261.0 156.8 261.85 156.3 262.5 155.55 261.85 154.7 261.75 154.65 266.1 151.35 265.75 150.65 267.75 149.3 Q269.95 152.25 274.5 152.25 L274.75 151.3 274.75 151.2 274.85 151.3 275.3 152.0 275.85 151.7 276.35 151.7 Q278.7 151.7 280.95 148.95 283.1 146.25 283.8 142.5 283.9 141.9 284.9 141.85 L286.6 141.45 287.3 140.85 287.5 140.5 288.7 140.15 Q289.6 139.85 289.8 138.95 L290.15 137.6 Q291.5 136.0 291.5 135.1 291.45 134.1 291.8 133.7 292.2 133.25 292.2 132.45 L291.85 130.8 293.1 130.1 293.3 130.75 293.7 131.3 295.0 130.0 295.1 129.95 294.65 129.2 295.55 128.25 294.35 126.5 294.4 126.25 294.5 126.35 294.55 126.35 Q294.65 125.85 295.8 125.05 L297.65 123.7 299.4 122.35 299.6 122.25 Q298.85 120.8 298.15 120.2 L295.55 121.6 292.25 123.8 291.0 124.75 287.0 127.55 284.5 127.2 Q282.4 127.25 281.35 128.65 L279.95 131.25 278.6 133.95 277.3 135.7 277.05 135.9 276.8 135.95 276.55 135.9 275.4 131.75 Q275.05 130.1 274.35 129.3 273.65 128.9 272.9 129.05 L271.9 124.95 270.75 120.9 269.25 116.6 268.0 113.15 268.9 109.75 268.15 108.55 Q267.35 107.65 266.35 107.05 L262.5 104.25 258.3 101.65 256.45 100.25 256.1 100.0 255.9 99.2 Q255.15 97.55 252.0 96.8 249.3 96.45 245.7 94.35 L242.85 92.75 243.1 91.1 243.75 87.1 244.1 87.1 Q245.6 87.1 245.7 85.9 245.6 84.05 245.8 82.8 L246.05 78.05 246.05 77.85 247.2 77.85 Q247.75 77.85 247.8 76.85 L247.8 75.6 Q247.8 72.65 246.45 69.3" fill="#ebaf25" fill-rule="evenodd" stroke="none"/>
    </g>
    <g id="sprite2" transform="matrix(1.0, 0.0, 0.0, 1.0, 0.0, 0.0)">
      <use ffdec:characterId="3523" height="359.6" transform="matrix(1.0, 0.0, 0.0, 1.0, 0.0, 0.0)" width="640.0" xlink:href="#shape5"/>
    </g>
    <g id="shape5" transform="matrix(1.0, 0.0, 0.0, 1.0, 0.0, 0.0)">
      <path d="M0.0 0.0 L640.0 0.0 640.0 359.6 0.0 359.6 0.0 0.0" fill="url(#gradient5)" fill-rule="evenodd" stroke="none"/>
    </g>
    <linearGradient gradientTransform="matrix(-0.136, -0.2777, 0.1969, -0.0964, 320.0, 179.8)" gradientUnits="userSpaceOnUse" id="gradient5" spreadMethod="pad" x1="-819.2" x2="819.2">
      <stop offset="0.0" stop-color="#e6a000"/>
      <stop offset="1.0" stop-color="#2c006f"/>
    </linearGradient>
    <g id="sprite3" transform="matrix(1.0, 0.0, 0.0, 1.0, 265.1, 150.0)">
      <use ffdec:characterId="3477" height="300.0" transform="matrix(1.0, 0.0, 0.0, 1.0, -265.1, -150.0)" width="533.0" xlink:href="#shape6"/>
    </g>
    <g id="shape6" transform="matrix(1.0, 0.0, 0.0, 1.0, 265.1, 150.0)">
      <path d="M267.9 -150.0 L267.9 150.0 -265.1 150.0 -265.1 -150.0 267.9 -150.0 Z" fill="none" stroke="#ff0000" stroke-linecap="round" stroke-linejoin="round" stroke-width="0.05"/>
      <path d="M1.4 -16.05 L1.45 -16.05 Q9.35 -16.05 14.95 -11.35 20.55 -6.65 20.55 0.0 L39.5 0.0 M20.55 0.0 Q20.55 6.65 14.95 11.35 9.35 16.05 1.45 16.05 L1.4 16.05 1.4 21.45 M-36.65 0.0 L-17.55 0.0 -17.55 -0.05 Q-17.55 -6.65 -11.95 -11.35 -6.4 -16.05 1.4 -16.05 M1.4 16.05 Q-6.4 16.05 -11.95 11.35 -17.55 6.65 -17.55 0.0" fill="none" stroke="#ff0000" stroke-linecap="round" stroke-linejoin="round" stroke-opacity="0.2509804" stroke-width="0.05"/>
      <path d="M1.4 -16.05 L1.4 -21.4" fill="none" stroke="#ff0000" stroke-linecap="round" stroke-linejoin="round" stroke-opacity="0.2509804" stroke-width="1.0"/>
      <path d="M181.15 141.4 L181.15 123.6 191.05 123.6 191.05 141.4 181.15 141.4" fill="#ffffff" fill-rule="evenodd" stroke="none"/>
      <path d="M250.55 123.6 L260.45 123.6 260.45 141.4 260.35 141.4 250.55 141.4 250.55 123.6" fill="#000000" fill-rule="evenodd" stroke="none"/>
      <path d="M230.7 123.6 L240.6 123.6 240.6 141.4 230.7 141.4 230.7 123.6" fill="#ff0000" fill-rule="evenodd" stroke="none"/>
      <path d="M191.05 123.6 L201.0 123.6 201.0 141.4 191.05 141.4 191.05 123.6" fill="#ffff00" fill-rule="evenodd" stroke="none"/>
      <path d="M201.0 123.6 L210.9 123.6 210.9 141.4 201.0 141.4 201.0 123.6" fill="#00ffff" fill-rule="evenodd" stroke="none"/>
      <path d="M210.9 123.6 L220.8 123.6 220.8 141.4 210.9 141.4 210.9 123.6" fill="#00ff00" fill-rule="evenodd" stroke="none"/>
      <path d="M220.8 123.6 L230.7 123.6 230.7 141.4 220.8 141.4 220.8 123.6" fill="#ff00ff" fill-rule="evenodd" stroke="none"/>
      <path d="M240.6 123.6 L250.55 123.6 250.55 141.4 240.6 141.4 240.6 123.6" fill="#0000ff" fill-rule="evenodd" stroke="none"/>
      <path d="M260.35 141.4 L260.35 145.4 181.1 145.4 181.1 141.4 181.15 141.4 191.05 141.4 201.0 141.4 210.9 141.4 220.8 141.4 230.7 141.4 240.6 141.4 250.55 141.4 260.35 141.4" fill="url(#gradient6)" fill-rule="evenodd" stroke="none"/>
    </g>
    <linearGradient gradientTransform="matrix(0.0484, 0.0, 0.0, 0.0024, 220.7, 143.35)" gradientUnits="userSpaceOnUse" id="gradient6" spreadMethod="pad" x1="-819.2" x2="819.2">
      <stop offset="0.0" stop-color="#ffffff"/>
      <stop offset="1.0" stop-color="#000000"/>
    </linearGradient>
  </defs>
</svg>
