<?xml version="1.0" encoding="UTF-8" standalone="no"?>
<svg xmlns:ffdec="https://www.free-decompiler.com/flash" xmlns:xlink="http://www.w3.org/1999/xlink" ffdec:objectType="frame" height="3128.4px" width="3052.6px" xmlns="http://www.w3.org/2000/svg">
  <g transform="matrix(2.0, 0.0, 0.0, 2.0, 988.7, 1403.6)">
    <use ffdec:characterId="4020" height="332.5" transform="matrix(1.5818, 0.0, 0.0, 1.5818, -194.15, -66.55)" width="653.1" xlink:href="#sprite0"/>
    <filter id="filter0">
      <feConvolveMatrix divisor="16.0" in="SourceGraphic" kernelMatrix="1 1 1 1 1 1 1 1 1 1 1 1 1 1 1 1" order="4 4" result="filterResult0"/>
    </filter>
    <use ffdec:characterId="4024" filter="url(#filter0)" height="264.35" transform="matrix(1.3329, 0.0, 0.0, 1.3329, 57.05, 99.15)" width="138.7" xlink:href="#sprite1"/>
    <filter id="filter1">
      <feConvolveMatrix divisor="64.0" in="SourceGraphic" kernelMatrix="1 1 1 1 1 1 1 1 1 1 1 1 1 1 1 1 1 1 1 1 1 1 1 1 1 1 1 1 1 1 1 1 1 1 1 1 1 1 1 1 1 1 1 1 1 1 1 1 1 1 1 1 1 1 1 1 1 1 1 1 1 1 1 1" order="8 8" result="filterResult1"/>
    </filter>
    <use ffdec:characterId="4022" filter="url(#filter1)" height="212.55" transform="matrix(1.3529, 0.0, 0.0, 1.3529, 279.25, 129.85)" width="110.0" xlink:href="#sprite2"/>
    <filter id="filter2"/>
    <use ffdec:characterId="4026" filter="url(#filter2)" height="313.05" transform="matrix(1.53, 0.0, 0.0, 1.53, 409.65, 14.7)" width="199.5" xlink:href="#sprite3"/>
    <use ffdec:characterId="3963" height="359.6" style="mix-blend-mode: overlay" transform="matrix(1.6217, 0.0, 0.0, 1.6217, -198.95, -91.6)" width="640.0" xlink:href="#sprite4"/>
    <use ffdec:characterId="3962" height="300.0" transform="matrix(1.3883, 0.0, 0.0, 1.3883, 10.4561, -32.7481)" width="533.0" xlink:href="#sprite5"/>
  </g>
  <defs>
    <g id="sprite0" transform="matrix(1.0, 0.0, 0.0, 1.0, 0.0, 0.0)">
      <use ffdec:characterId="4019" height="332.5" transform="matrix(1.0, 0.0, 0.0, 1.0, 0.0, 0.0)" width="653.1" xlink:href="#shape0"/>
    </g>
    <g id="shape0" transform="matrix(1.0, 0.0, 0.0, 1.0, 0.0, 0.0)">
      <path d="M653.1 0.0 L653.1 332.5 0.0 332.5 0.0 0.0 653.1 0.0" fill="url(#gradient0)" fill-rule="evenodd" stroke="none"/>
    </g>
    <linearGradient gradientTransform="matrix(0.0, -0.2029, 0.3986, 0.0, 326.55, 166.25)" gradientUnits="userSpaceOnUse" id="gradient0" spreadMethod="pad" x1="-819.2" x2="819.2">
      <stop offset="0.0" stop-color="#1f2e69"/>
      <stop offset="0.7058823529411765" stop-color="#201625"/>
      <stop offset="1.0" stop-color="#141317"/>
    </linearGradient>
    <g id="sprite1" transform="matrix(1.0, 0.0, 0.0, 1.0, 0.0, 0.0)">
      <use ffdec:characterId="4023" height="264.35" transform="matrix(1.0, 0.0, 0.0, 1.0, 0.0, 0.0)" width="138.7" xlink:href="#shape1"/>
    </g>
    <g id="shape1" transform="matrix(1.0, 0.0, 0.0, 1.0, 0.0, 0.0)">
      <path d="M98.1 14.3 Q103.45 15.55 108.05 18.5 112.25 21.15 114.8 25.15 L115.2 26.75 Q116.4 32.2 114.45 37.55 111.3 46.2 105.55 53.3 103.0 56.5 99.55 58.6 99.5 64.1 100.7 69.35 L101.65 72.8 Q103.4 78.25 102.9 84.15 L102.55 89.2 Q102.05 96.6 101.2 103.9 100.85 106.6 99.9 109.3 99.05 111.8 97.7 114.2 95.05 118.9 93.6 124.2 90.85 134.45 92.5 145.3 L94.25 157.15 96.05 169.5 100.25 198.05 Q101.25 205.1 102.55 212.1 105.45 227.5 107.55 243.05 108.1 247.2 109.45 251.2 118.85 249.35 127.9 251.95 133.65 253.45 138.7 256.5 L133.85 255.3 Q129.15 253.7 124.4 252.85 L109.5 252.35 109.3 253.2 108.05 252.4 84.1 255.7 92.55 264.35 82.15 255.8 68.2 255.5 68.7 260.35 66.75 255.35 32.1 249.9 31.4 250.35 24.85 249.15 31.3 248.3 31.2 244.6 31.3 236.9 Q31.6 230.85 32.15 224.85 L33.3 212.9 33.55 209.15 33.6 206.0 33.5 202.8 33.25 199.6 Q31.95 189.8 31.3 179.9 31.0 175.55 31.05 171.15 L31.2 162.9 31.1 154.6 30.6 146.95 29.9 140.05 29.2 133.1 27.7 114.65 Q27.35 110.15 26.0 105.9 23.45 97.75 19.65 90.25 L14.85 79.9 Q9.95 68.65 6.9 56.7 L2.1 39.1 Q0.65 34.2 0.2 29.25 -0.1 25.9 0.1 22.65 0.5 16.85 4.1 12.2 6.45 9.1 10.0 7.55 12.2 6.5 14.5 6.45 L24.7 6.9 Q27.2 6.95 29.55 5.9 34.7 3.4 40.25 4.25 L46.65 4.95 61.8 4.45 65.8 3.1 Q70.85 0.8 76.55 0.15 81.2 -0.4 85.4 1.45 91.15 4.0 92.2 10.4 93.9 10.8 95.05 12.15 96.3 13.75 98.1 14.3 M66.25 16.0 Q64.8 14.35 65.2 14.15 L70.45 17.4 73.6 16.1 79.35 12.3 Q84.3 8.4 84.8 3.0 81.65 0.45 77.5 1.25 L64.5 10.85 71.65 2.45 Q67.65 3.95 64.25 6.2 56.6 11.3 49.25 16.65 L45.1 19.85 Q41.7 22.7 40.0 26.8 37.3 33.45 35.8 39.4 L22.7 67.0 Q22.55 66.3 22.75 65.65 24.95 58.6 28.1 51.9 23.85 49.05 22.8 43.9 20.1 42.85 17.65 41.2 13.3 38.4 12.2 35.6 L12.75 35.9 Q16.8 39.0 21.4 41.3 27.3 44.2 31.95 39.6 L32.0 38.65 Q31.55 37.7 30.4 36.7 24.9 32.05 23.9 25.25 25.8 27.15 27.45 30.35 30.0 35.25 34.55 36.45 36.6 33.25 37.95 29.35 39.25 25.55 40.85 21.7 41.15 21.0 41.7 20.6 51.9 13.6 61.85 5.9 L51.25 6.0 50.65 6.55 50.25 6.65 Q46.15 7.1 42.45 5.95 L41.15 5.7 Q35.3 4.6 29.7 6.85 L27.85 7.6 Q20.0 8.6 12.15 7.65 L11.55 8.25 6.7 11.65 5.0 13.55 Q-0.05 19.0 0.65 26.6 1.35 34.05 4.0 40.9 6.5 47.25 7.65 53.85 8.75 60.5 11.15 66.95 L13.65 73.8 Q14.7 76.8 16.05 79.65 21.0 90.05 25.85 101.45 28.4 107.45 28.8 114.1 L30.0 129.5 Q30.3 132.95 31.1 136.45 L31.75 140.85 32.35 150.55 Q32.75 157.9 32.55 165.35 L32.45 174.35 Q32.5 185.9 34.05 197.4 35.75 209.75 33.75 222.2 31.65 235.35 32.4 248.55 L66.6 254.0 65.95 248.15 61.7 247.45 65.9 247.15 Q65.7 239.95 64.95 232.8 64.05 223.7 64.55 214.6 L65.25 199.65 Q65.45 192.6 66.3 185.45 L67.75 171.8 Q68.05 168.7 69.45 167.15 68.65 175.1 71.45 182.55 73.3 187.45 75.85 190.1 L72.7 144.1 Q64.7 165.25 63.05 187.6 61.7 186.7 61.45 184.95 L58.95 167.6 Q57.95 160.5 58.1 153.15 L58.4 143.6 55.4 140.2 60.45 136.7 53.35 132.65 62.85 129.55 57.05 124.95 Q64.95 125.2 72.85 123.75 76.95 122.9 78.05 120.0 78.1 115.05 75.35 112.4 L69.75 113.65 73.2 110.65 Q72.15 102.05 65.2 96.25 62.45 93.9 60.1 94.25 L58.05 97.3 Q54.9 101.2 50.05 100.65 47.9 100.4 46.7 98.75 45.0 96.35 43.7 93.7 L43.0 91.5 Q41.65 85.75 42.9 79.85 43.45 77.05 42.35 74.55 40.55 70.55 42.2 66.65 43.8 62.85 46.1 59.35 49.05 54.95 51.3 50.05 52.7 46.95 55.8 45.05 58.9 43.15 59.6 40.15 60.35 37.0 58.05 34.75 56.2 33.1 56.4 31.4 L60.5 34.75 Q62.25 35.2 63.2 33.8 66.05 29.4 62.55 24.75 60.75 22.4 60.8 20.15 L69.95 25.45 70.1 25.15 Q69.8 20.15 66.25 16.0 M72.4 18.3 L72.6 18.55 72.85 18.3 72.4 18.3 M28.6 49.55 L28.85 50.3 32.8 42.25 Q27.15 44.15 28.6 49.55 M67.1 248.35 L67.95 254.1 80.5 254.35 67.1 248.35" fill="#000000" fill-rule="evenodd" stroke="none"/>
      <path d="M66.25 16.0 Q69.8 20.15 70.1 25.15 L69.95 25.45 60.8 20.15 Q60.75 22.4 62.55 24.75 66.05 29.4 63.2 33.8 62.25 35.2 60.5 34.75 L56.4 31.4 Q56.2 33.1 58.05 34.75 60.35 37.0 59.6 40.15 58.9 43.15 55.8 45.05 52.7 46.95 51.3 50.05 49.05 54.95 46.1 59.35 43.8 62.85 42.2 66.65 40.55 70.55 42.35 74.55 43.45 77.05 42.9 79.85 41.65 85.75 43.0 91.5 L43.7 93.7 Q45.0 96.35 46.7 98.75 47.9 100.4 50.05 100.65 54.9 101.2 58.05 97.3 L60.1 94.25 Q62.45 93.9 65.2 96.25 72.15 102.05 73.2 110.65 L69.75 113.65 75.35 112.4 Q78.1 115.05 78.05 120.0 76.95 122.9 72.85 123.75 64.95 125.2 57.05 124.95 L62.85 129.55 53.35 132.65 60.45 136.7 55.4 140.2 58.4 143.6 58.1 153.15 Q57.95 160.5 58.95 167.6 L61.45 184.95 Q61.7 186.7 63.05 187.6 64.7 165.25 72.7 144.1 L75.85 190.1 Q73.3 187.45 71.45 182.55 68.65 175.1 69.45 167.15 68.05 168.7 67.75 171.8 L66.3 185.45 Q65.45 192.6 65.25 199.65 L64.55 214.6 Q64.05 223.7 64.95 232.8 65.7 239.95 65.9 247.15 L61.7 247.45 65.95 248.15 66.6 254.0 32.4 248.55 Q31.65 235.35 33.75 222.2 35.75 209.75 34.05 197.4 32.5 185.9 32.45 174.35 L32.55 165.35 Q32.75 157.9 32.35 150.55 L31.75 140.85 31.1 136.45 Q30.3 132.95 30.0 129.5 L28.8 114.1 Q28.4 107.45 25.85 101.45 21.0 90.05 16.05 79.65 14.7 76.8 13.65 73.8 L11.15 66.95 Q8.75 60.5 7.65 53.85 6.5 47.25 4.0 40.9 1.35 34.05 0.65 26.6 -0.05 19.0 5.0 13.55 L6.7 11.65 11.55 8.25 12.15 7.65 Q20.0 8.6 27.85 7.6 L29.7 6.85 Q35.3 4.6 41.15 5.7 L42.45 5.95 Q46.15 7.1 50.25 6.65 L50.65 6.55 51.25 6.0 61.85 5.9 Q51.9 13.6 41.7 20.6 41.15 21.0 40.85 21.7 39.25 25.55 37.95 29.35 36.6 33.25 34.55 36.45 30.0 35.25 27.45 30.35 25.8 27.15 23.9 25.25 24.9 32.05 30.4 36.7 31.55 37.7 32.0 38.65 L31.95 39.6 Q27.3 44.2 21.4 41.3 16.8 39.0 12.75 35.9 L12.2 35.6 Q13.3 38.4 17.65 41.2 20.1 42.85 22.8 43.9 23.85 49.05 28.1 51.9 24.95 58.6 22.75 65.65 22.55 66.3 22.7 67.0 L35.8 39.4 Q37.3 33.45 40.0 26.8 41.7 22.7 45.1 19.85 L49.25 16.65 Q56.6 11.3 64.25 6.2 67.65 3.95 71.65 2.45 L64.5 10.85 77.5 1.25 Q81.65 0.45 84.8 3.0 84.3 8.4 79.35 12.3 L73.6 16.1 70.45 17.4 65.2 14.15 Q64.8 14.35 66.25 16.0" fill="url(#gradient1)" fill-rule="evenodd" stroke="none"/>
      <path d="M28.6 49.55 Q27.15 44.15 32.8 42.25 L28.85 50.3 28.6 49.55" fill="#d7c1b9" fill-rule="evenodd" stroke="none"/>
      <path d="M38.85 240.25 L39.6 242.05 42.7 243.35 Q42.05 239.8 38.85 240.25 M38.0 240.15 Q38.0 240.55 38.95 241.55 38.75 240.3 38.0 240.15 M33.25 246.1 L35.3 246.0 34.25 243.3 35.15 239.85 Q31.25 242.2 33.25 246.1 M35.35 241.75 L34.75 243.3 36.1 244.8 35.35 241.75 M35.55 240.1 Q36.65 240.85 37.3 239.55 L35.45 239.8 35.55 240.1 M37.45 240.3 Q37.1 240.3 36.05 240.9 36.55 241.9 36.7 243.25 36.85 244.7 36.45 245.6 38.0 246.15 38.65 244.6 39.0 243.8 39.0 242.8 L38.25 241.55 37.45 240.3 M32.5 231.6 L33.2 233.85 Q34.85 236.65 38.15 236.1 L37.55 231.6 Q34.8 233.45 32.5 231.6 M31.0 217.3 L28.9 221.9 29.75 223.9 31.55 224.0 Q33.45 219.85 31.0 217.3 M30.15 216.4 L29.05 216.3 Q28.15 216.4 27.65 217.05 27.8 217.55 28.55 217.55 L29.75 217.25 30.15 216.4 M28.05 205.25 L28.55 205.55 Q32.1 205.55 32.3 201.7 L27.75 203.8 28.05 205.25 M39.4 205.6 Q39.55 206.25 40.2 206.85 L43.0 202.55 Q41.25 203.6 39.4 205.6 M39.7 207.5 L38.85 206.15 34.05 211.8 39.7 207.5 M32.6 204.15 L33.7 203.15 33.05 201.95 28.5 212.5 33.25 211.75 33.75 203.25 32.6 204.15 M33.4 198.8 L33.8 202.1 36.9 200.3 33.4 198.8 M59.9 243.9 L60.2 243.9 60.3 243.45 59.75 241.85 Q58.9 240.5 57.65 241.55 57.65 242.05 58.2 242.8 58.9 243.7 59.9 243.9 M49.3 243.5 L49.7 243.3 49.9 242.35 47.8 242.35 47.45 242.9 48.05 243.25 48.75 243.55 49.3 243.5 M43.8 236.7 Q43.8 236.25 43.25 235.7 42.65 235.0 41.75 234.7 L40.6 235.5 39.05 236.4 40.5 237.75 Q41.4 238.55 42.25 238.55 43.95 238.55 43.8 236.7 M48.9 239.55 L46.75 241.3 49.8 241.9 48.9 239.55 M42.15 227.3 L41.5 227.65 Q36.1 231.35 39.35 235.4 44.35 233.35 43.15 227.75 L42.15 227.3 M41.7 227.0 L40.9 226.2 40.45 227.45 41.7 227.0 M51.55 228.9 L52.4 225.8 50.0 228.05 51.55 228.9 M54.6 221.65 Q55.9 219.15 55.4 216.3 51.2 217.3 48.9 220.95 L47.8 223.05 48.55 226.65 49.6 225.75 48.85 226.95 Q52.75 225.3 54.6 221.65 M53.25 214.6 L53.7 214.9 Q56.45 215.05 58.15 212.55 L53.25 214.6 M40.7 222.45 Q40.65 221.65 41.25 220.8 L40.45 219.1 Q31.8 222.65 33.15 232.0 41.35 231.0 40.7 222.45 M57.15 202.85 L54.35 203.25 55.45 206.05 57.15 202.85 M58.25 209.05 L56.8 208.85 58.95 210.45 58.25 209.05 M55.45 208.2 L54.95 207.45 50.35 209.7 55.45 208.2 M46.5 169.95 L45.05 171.2 Q46.55 179.1 52.5 184.45 45.7 178.95 44.8 170.9 L46.5 169.95 M45.7 150.05 L42.95 153.3 Q43.8 158.75 47.4 163.05 L50.65 167.05 48.9 168.8 50.4 166.8 Q46.1 163.2 43.65 158.15 42.45 155.65 42.65 152.95 L45.35 150.2 40.95 144.1 45.7 150.05 M27.55 187.95 L32.95 188.75 43.3 183.3 33.4 176.35 Q33.0 183.0 27.55 187.95 M33.0 197.85 L33.0 193.9 31.45 195.65 33.0 197.85 M32.65 192.35 L30.65 192.35 31.65 195.15 32.65 192.35 M32.75 189.8 L31.5 191.6 32.95 192.1 32.75 189.8 M28.75 195.35 L29.75 195.6 30.6 195.45 Q29.9 194.2 29.9 193.2 L29.95 192.8 Q28.15 193.55 28.15 194.5 28.15 195.05 28.75 195.35 M31.75 175.15 Q32.6 175.4 31.8 174.6 L31.0 175.15 31.75 175.15 M30.55 158.5 L32.95 159.5 Q33.05 160.85 32.75 162.25 32.1 165.15 30.4 167.8 L33.3 167.95 Q33.85 169.4 36.5 168.2 39.9 166.55 41.35 163.7 L32.55 155.5 30.55 158.5 M23.25 128.05 L25.1 128.0 25.45 124.65 23.25 128.05 M22.95 123.3 Q23.65 119.85 27.05 118.65 L23.0 123.4 22.95 123.3 M26.25 123.35 Q27.4 122.25 29.65 122.45 25.15 123.45 25.7 127.85 L30.15 124.45 25.85 128.4 27.95 132.15 30.15 128.7 28.35 133.05 37.05 142.0 33.45 145.25 Q31.15 147.1 32.1 149.8 35.05 158.05 42.05 163.7 38.95 167.7 33.55 169.65 L32.0 173.35 33.15 174.65 43.6 183.5 33.6 189.85 33.45 198.3 Q36.75 201.05 40.25 198.15 L39.0 199.5 42.0 197.15 41.85 197.2 Q41.85 197.1 42.1 197.0 L42.3 196.95 Q42.3 197.75 41.8 198.0 37.9 200.05 34.3 202.75 35.85 207.05 34.1 211.25 L38.75 205.55 Q41.0 198.55 48.9 196.9 42.7 196.8 40.9 191.7 L47.05 187.6 41.3 192.2 Q45.1 197.0 50.35 196.45 43.5 199.05 39.3 204.9 L43.25 202.3 40.75 207.35 Q48.3 211.4 54.5 206.8 L53.6 203.35 55.05 202.0 57.8 202.5 55.65 207.7 59.05 208.85 59.55 211.1 62.15 211.9 Q60.7 212.0 59.85 213.0 56.05 217.1 52.2 214.05 L58.8 211.55 55.9 208.8 Q55.25 208.9 54.7 209.15 50.45 211.4 47.15 214.3 L47.1 214.35 46.3 215.05 49.7 209.8 Q44.55 210.55 40.05 207.85 L33.35 213.2 31.7 216.9 31.85 217.15 Q33.65 220.3 32.3 223.75 L34.4 222.25 Q40.2 217.05 44.65 210.75 L40.25 218.7 41.5 220.0 45.15 219.55 41.75 221.0 41.1 225.45 Q44.2 228.9 48.2 227.1 L47.9 225.95 Q46.45 216.8 55.75 216.1 56.35 216.8 56.35 217.85 56.25 221.1 54.15 223.7 55.95 222.55 58.0 221.9 59.65 221.4 60.35 222.35 L56.8 222.7 Q52.6 224.85 52.2 229.4 L52.35 229.65 Q61.0 231.55 60.9 224.65 61.3 232.4 52.5 230.65 L56.15 235.45 56.5 234.7 Q58.2 231.15 61.45 233.05 L61.5 233.55 Q61.0 232.25 59.3 232.85 56.9 233.65 56.9 235.7 56.9 236.2 58.4 236.55 60.6 236.55 61.35 235.65 L61.6 235.0 61.65 235.9 57.1 237.45 60.8 241.3 60.45 244.5 Q59.15 244.65 58.1 243.8 57.05 242.9 57.0 241.35 L58.65 240.4 Q55.35 236.9 53.05 238.5 54.25 239.0 54.75 240.15 55.25 241.4 54.7 242.35 L53.85 242.45 Q54.65 242.15 54.5 241.2 54.5 238.8 51.95 238.9 49.4 239.0 49.4 240.3 49.4 241.05 50.6 241.8 L52.5 242.55 50.15 242.7 49.55 243.85 47.15 243.35 45.8 244.3 Q44.15 245.3 42.5 244.35 L44.95 243.05 43.35 242.5 46.0 241.9 Q49.5 236.25 56.75 237.9 L49.55 228.3 43.75 227.9 43.7 229.4 Q43.25 232.2 41.8 234.4 L44.1 236.05 43.65 238.6 Q42.85 239.3 41.8 239.0 39.85 238.3 38.45 236.8 L38.0 239.25 38.5 239.45 Q43.55 240.4 42.6 243.95 L39.5 243.05 38.35 246.15 36.65 246.55 Q33.95 247.6 32.25 245.55 L32.25 244.2 Q32.6 240.85 34.55 239.05 L33.75 238.4 29.45 239.05 Q30.4 238.2 31.75 237.85 34.0 237.75 35.4 239.35 L37.25 239.15 37.65 237.05 Q28.05 233.8 33.8 223.65 L32.0 224.55 29.15 228.05 29.9 228.9 Q34.35 235.65 26.4 239.6 L27.9 240.3 29.1 239.4 28.6 240.55 31.5 244.3 31.35 244.55 30.75 244.05 Q27.9 241.65 24.65 239.6 28.1 239.25 29.55 236.4 33.45 228.8 25.9 228.4 29.5 227.9 31.2 224.75 L29.35 224.5 29.1 224.05 Q28.05 219.95 28.5 218.3 L26.9 217.0 27.2 216.5 Q28.6 215.2 30.5 215.8 L31.9 213.55 27.6 212.45 29.85 206.25 27.6 205.75 27.0 203.65 Q28.9 200.5 32.65 201.05 L32.95 198.4 30.3 196.25 28.65 196.15 Q27.55 195.7 27.4 194.45 L30.15 191.9 32.2 189.35 26.7 188.7 Q32.2 183.15 32.8 175.95 L32.45 175.8 Q29.2 176.45 26.9 179.05 L25.55 179.05 25.4 178.75 31.15 173.35 30.9 172.0 32.75 168.3 31.15 168.35 Q28.6 169.6 26.4 171.0 25.95 170.5 26.35 170.25 33.55 165.55 31.45 159.0 L23.7 163.15 25.55 161.5 32.35 155.15 30.7 149.25 25.75 157.9 29.7 155.4 24.8 159.0 31.05 147.15 24.4 153.65 32.55 140.1 26.4 150.95 31.15 146.9 36.2 141.65 27.9 133.5 26.0 136.2 26.95 134.25 23.65 137.7 27.5 133.0 25.15 128.3 22.25 128.1 28.5 119.8 26.25 123.35" fill="#000000" fill-rule="evenodd" stroke="none"/>
      <path d="M83.4 10.2 L83.45 10.85 Q83.45 12.0 80.45 15.45 L79.0 16.45 77.8 17.25 77.15 18.6 77.15 18.75 76.95 19.0 74.45 23.45 72.2 28.3 Q70.5 31.55 68.85 31.55 67.7 31.55 67.25 30.9 L66.7 34.1 Q66.1 35.55 65.95 36.55 L65.4 37.85 64.45 38.8 Q64.3 39.1 64.5 41.3 64.35 43.3 62.35 43.3 60.85 43.3 60.3 42.25 L59.35 44.1 58.25 45.2 57.1 46.25 Q56.35 47.3 55.9 48.65 L54.75 51.2 51.75 55.8 Q50.8 57.55 49.6 60.65 L47.55 65.45 45.8 69.8 Q44.25 73.9 44.25 74.7 44.25 76.0 44.65 77.65 L45.7 77.6 45.8 78.35 45.75 78.95 Q45.95 79.2 45.3 79.2 L45.1 79.2 45.25 79.7 Q45.5 80.4 45.55 82.1 45.65 82.7 46.25 83.45 L46.8 84.55 46.45 85.3 45.7 85.85 Q43.95 85.85 43.25 83.6 L43.05 82.5 42.6 85.4 Q42.6 86.55 42.95 88.05 L43.6 88.55 Q44.1 89.05 44.2 90.2 L44.55 91.95 Q46.15 95.35 47.45 96.75 L47.95 97.25 48.6 97.75 Q49.45 98.25 50.35 98.25 52.35 98.25 54.05 97.1 L55.5 95.85 54.9 94.65 54.6 94.0 Q54.6 93.25 55.2 92.75 L55.0 91.95 Q55.0 91.15 55.55 90.7 56.1 90.25 57.15 90.5 L56.05 88.25 Q56.05 86.85 57.6 86.4 59.3 85.95 60.5 87.95 62.05 89.1 64.45 91.7 L65.0 91.25 Q65.55 90.8 66.1 90.8 67.15 90.8 67.9 91.65 L68.6 92.55 70.8 93.15 Q71.4 93.35 71.7 94.45 L71.95 96.4 72.3 98.35 73.45 100.05 Q74.5 101.4 74.8 102.25 L75.7 106.45 75.85 106.7 Q76.85 106.1 77.35 106.1 79.4 106.1 79.65 107.8 79.8 108.75 79.55 110.55 L79.55 115.05 79.8 123.95 Q79.8 125.7 78.95 126.7 L77.9 127.15 76.7 127.45 76.35 127.75 Q76.6 129.0 76.45 130.3 76.4 130.95 76.75 131.75 L77.3 132.95 77.55 135.35 76.8 141.1 Q76.05 145.5 76.05 146.85 76.05 155.6 77.8 171.35 79.55 187.1 79.55 193.85 L79.35 196.55 Q79.3 198.05 78.6 198.6 L77.95 199.2 Q77.95 200.0 79.2 205.6 L79.1 205.7 77.45 199.45 72.25 199.1 69.6 198.7 68.45 197.5 69.25 207.55 Q69.25 209.2 69.05 209.65 68.4 211.2 65.8 210.2 L64.7 216.75 65.65 217.45 Q66.65 218.4 66.75 220.05 L66.95 223.05 67.35 226.0 67.7 229.05 68.25 241.1 68.15 245.8 Q67.7 250.2 65.8 250.2 L64.85 249.85 64.2 249.45 62.55 250.2 Q61.9 250.2 61.05 249.55 60.6 252.2 59.3 252.2 58.05 252.2 57.5 251.65 L57.0 250.95 56.85 250.45 56.65 250.5 55.75 250.35 Q54.7 250.05 54.4 249.3 L54.25 248.2 Q53.2 248.95 52.3 248.95 L51.2 248.45 50.5 247.95 49.8 248.4 Q49.3 248.85 48.7 248.85 47.2 248.85 46.75 247.5 46.6 247.0 46.6 246.0 46.6 244.7 47.45 243.9 48.7 242.65 49.5 240.6 51.15 237.05 51.5 235.2 52.7 229.45 54.8 224.25 56.25 220.75 57.45 213.0 58.45 206.25 58.45 202.45 58.3 192.9 57.85 188.2 57.75 187.05 57.05 184.75 L56.1 181.05 55.8 177.6 55.5 173.95 Q54.05 162.2 53.8 158.5 L53.75 157.1 52.2 151.45 Q51.15 148.3 50.8 143.1 L50.6 134.25 Q50.6 132.45 50.95 129.95 L51.6 125.35 Q52.15 121.85 57.0 119.5 62.0 117.7 62.45 117.2 63.8 115.85 64.25 113.75 64.2 110.5 62.15 106.85 59.35 102.3 57.8 99.1 54.4 102.2 50.6 102.2 48.15 102.2 45.8 100.4 43.6 98.75 43.05 96.85 L42.3 94.9 42.25 94.8 41.85 93.8 41.65 93.25 40.35 90.2 Q39.65 87.6 39.75 85.0 L39.95 80.25 Q39.95 78.4 39.25 76.5 38.55 74.55 38.55 71.25 38.55 67.65 40.5 62.4 42.5 56.8 45.1 54.2 56.2 40.25 56.2 37.05 56.2 35.45 54.9 33.3 53.75 31.35 51.95 29.55 L49.9 27.75 Q48.3 26.5 47.1 25.95 L42.5 24.2 Q41.3 23.8 41.3 22.85 41.3 21.0 43.75 21.45 L44.15 20.35 Q44.75 19.1 45.45 18.75 L47.25 17.85 47.7 17.65 45.8 16.5 Q43.95 16.2 42.85 15.6 L42.65 15.45 41.05 14.9 Q36.7 13.4 32.45 12.45 L29.7 11.5 Q28.2 10.8 26.95 10.55 L21.35 9.7 14.75 9.2 9.0 9.7 8.5 9.6 8.25 9.45 8.05 8.6 8.05 8.25 8.2 8.05 14.1 7.45 25.05 8.0 Q25.9 8.15 27.75 8.8 L27.7 8.35 Q27.7 7.25 28.5 6.9 L30.2 6.2 31.75 6.15 Q32.65 6.5 33.85 5.55 L34.35 5.2 Q34.85 4.9 35.8 4.8 38.9 4.5 48.55 6.7 L49.55 6.4 54.55 6.05 58.75 5.9 59.6 5.75 Q61.35 5.75 62.35 6.35 64.05 5.35 66.35 4.25 67.6 3.65 71.95 1.85 72.55 1.6 74.85 2.6 L75.05 2.8 75.35 2.45 Q77.3 0.6 80.85 1.6 82.85 1.95 85.0 3.7 86.95 5.3 86.95 6.1 86.95 6.8 85.8 7.7 L85.35 8.3 84.6 9.2 83.4 10.2 M55.1 28.75 L54.95 28.1 54.6 28.05 54.7 28.2 55.1 28.75 M56.75 31.05 L57.4 32.0 57.35 31.85 56.75 31.05 M39.45 24.45 L39.45 23.95 39.95 24.05 39.45 24.45 M13.65 36.7 L17.55 38.55 Q21.2 40.35 25.4 40.35 26.9 40.35 27.55 39.45 L27.95 38.5 25.6 34.55 Q23.2 30.35 23.2 27.6 L23.4 26.05 Q23.85 24.9 25.35 25.7 26.0 26.45 26.55 28.7 27.3 30.4 29.05 32.35 L31.35 34.4 31.65 34.55 32.55 34.75 Q34.15 34.75 36.35 30.3 L37.65 28.25 38.6 26.2 38.8 26.05 38.9 25.95 38.95 26.3 38.45 27.75 Q38.0 29.0 38.1 29.45 38.25 30.1 37.45 32.45 36.65 35.75 35.8 37.05 34.55 38.9 32.5 38.35 L32.55 39.2 32.15 42.05 Q33.0 42.2 33.0 43.35 33.0 44.25 31.1 47.95 30.15 51.5 29.0 51.9 28.8 53.0 28.1 53.35 L27.75 53.55 27.35 55.8 26.8 57.7 26.05 59.6 24.15 63.4 22.25 67.05 21.5 66.95 21.45 66.35 22.1 64.8 22.2 64.6 Q21.7 64.1 21.7 63.7 L22.7 60.15 Q23.7 56.35 23.7 53.95 23.7 51.75 22.85 49.8 L22.25 47.9 Q21.85 46.8 20.7 45.85 L18.55 43.85 16.25 41.75 13.65 39.9 Q12.25 38.8 12.25 37.9 12.25 37.4 12.65 37.05 13.1 36.7 13.65 36.7 M23.1 43.7 Q24.3 44.25 25.2 46.1 L26.45 48.4 26.45 48.25 26.45 48.1 Q26.45 46.3 26.9 45.45 L28.05 43.3 Q24.9 44.75 23.6 43.6 L23.1 43.7 M45.4 60.95 L45.3 60.8 44.65 62.2 Q42.25 67.65 42.1 70.8 42.6 69.0 43.55 66.8 L45.7 61.7 45.4 60.95 M72.8 126.4 L72.7 124.55 Q72.4 125.15 71.8 127.45 70.95 129.5 69.35 129.5 L68.65 129.25 Q68.3 129.0 67.95 129.0 L66.9 129.65 65.7 130.55 64.9 131.55 64.1 132.25 Q62.95 132.25 62.25 131.75 L61.7 131.2 61.0 131.4 60.45 131.7 Q61.2 133.05 62.25 136.8 L63.25 141.15 64.5 147.55 64.8 149.05 65.2 147.05 Q66.05 142.9 66.85 140.1 68.4 134.85 70.1 134.85 70.45 134.85 71.45 135.35 72.15 134.85 72.1 133.1 L72.1 130.45 Q72.05 128.85 72.15 127.95 72.25 127.0 72.8 126.4 M62.2 147.45 L61.65 145.15 61.15 145.55 62.05 147.45 62.2 147.45 M60.85 149.6 L61.2 154.05 61.3 156.95 Q61.4 158.6 62.2 159.6 62.45 157.2 62.75 156.45 L63.75 155.15 64.25 154.05 Q63.65 153.9 63.55 153.2 63.35 152.0 62.05 151.2 61.35 150.75 60.95 149.85 L60.85 149.6" fill="#000000" fill-opacity="0.101960786" fill-rule="evenodd" stroke="none"/>
    </g>
    <linearGradient gradientTransform="matrix(0.0514, 0.0, 0.0, 0.1544, 42.65, 127.5)" gradientUnits="userSpaceOnUse" id="gradient1" spreadMethod="pad" x1="-819.2" x2="819.2">
      <stop offset="0.0" stop-color="#d7c1b9"/>
      <stop offset="1.0" stop-color="#926654"/>
    </linearGradient>
    <g id="sprite2" transform="matrix(1.0, 0.0, 0.0, 1.0, 0.0, 0.0)">
      <use ffdec:characterId="4021" height="212.55" transform="matrix(1.0, 0.0, 0.0, 1.0, 0.0, 0.0)" width="110.0" xlink:href="#shape2"/>
    </g>
    <g id="shape2" transform="matrix(1.0, 0.0, 0.0, 1.0, 0.0, 0.0)">
      <path d="M90.55 14.45 L88.8 17.3 Q87.7 18.95 85.95 19.85 L82.2 20.05 79.1 18.75 78.05 18.8 Q77.65 18.4 77.15 18.35 L76.9 18.45 Q76.75 18.8 76.9 19.15 L78.15 22.75 Q79.0 25.25 78.4 27.75 77.8 30.3 75.55 32.0 L70.65 32.65 70.95 33.2 Q71.4 33.8 72.05 34.05 74.0 34.75 76.0 35.8 77.85 36.7 79.05 38.1 80.45 39.65 81.05 41.6 L82.45 45.8 Q83.25 48.1 82.75 50.45 82.45 52.0 83.05 53.55 L83.2 53.75 84.0 52.25 84.25 50.25 Q84.3 45.55 82.7 41.2 81.35 37.5 82.0 33.9 82.55 30.75 84.65 28.65 L85.35 28.4 88.75 29.15 Q91.75 29.95 94.15 32.0 96.5 33.95 96.85 36.65 L100.45 44.8 99.85 46.1 99.9 47.1 100.05 48.4 Q100.2 52.95 99.95 57.5 99.75 60.85 97.85 63.4 96.25 65.65 94.15 67.35 86.05 73.8 78.15 80.85 74.9 83.85 72.15 87.15 69.15 90.75 66.65 94.9 L64.35 99.2 62.25 103.6 60.4 107.6 Q59.45 109.65 59.1 111.8 58.65 114.35 59.7 116.85 60.75 119.2 60.75 121.7 60.75 125.1 59.4 128.15 L58.2 130.85 Q56.8 134.0 55.65 137.35 53.3 144.25 52.05 151.55 L49.65 165.65 48.5 172.2 47.5 177.7 47.0 180.75 45.9 187.55 44.5 196.5 44.2 198.65 44.0 201.55 43.85 202.9 43.7 203.8 43.6 204.65 43.1 207.0 42.5 209.7 42.45 210.05 Q41.05 210.65 39.55 210.85 L32.65 211.25 Q28.25 211.5 24.3 210.0 18.9 208.15 15.45 203.75 14.1 202.05 13.3 200.25 11.95 197.3 8.9 195.65 7.6 195.05 6.75 193.95 6.35 193.5 6.85 192.55 L5.15 191.8 5.55 190.6 5.95 189.6 7.85 183.8 11.75 170.8 15.75 156.95 Q18.9 146.25 20.15 135.1 L20.95 125.8 Q21.2 122.1 21.7 118.6 21.8 117.8 22.05 117.1 L22.6 115.25 Q23.3 112.95 24.65 110.65 25.2 109.8 25.2 108.9 L25.4 105.5 Q25.65 101.85 24.8 98.4 L23.55 93.5 22.7 90.35 21.9 87.2 Q19.45 77.85 17.85 68.5 16.8 62.65 16.45 56.7 L15.8 48.8 15.05 44.05 14.5 41.75 13.5 37.85 Q12.7 34.65 13.6 31.5 14.15 29.55 15.35 27.8 16.8 25.85 18.95 24.6 L21.1 23.3 23.6 21.45 25.85 20.0 Q27.35 19.0 29.05 18.4 35.25 15.9 41.5 14.45 L44.85 13.3 48.85 11.3 Q50.35 10.45 52.1 9.75 L53.5 9.3 55.45 8.65 56.05 8.4 58.9 7.55 60.5 7.45 62.1 7.7 62.2 8.0 83.15 1.05 91.75 12.2 90.55 14.45" fill="url(#gradient2)" fill-rule="evenodd" stroke="none"/>
      <path d="M91.5 9.15 Q95.45 16.6 96.6 19.75 98.25 24.25 98.25 29.55 L97.9 33.25 97.75 34.9 98.4 35.95 99.0 36.8 100.55 38.2 101.9 39.9 105.1 43.3 Q107.0 45.4 107.4 46.9 L108.05 50.35 Q108.5 52.7 109.0 54.05 109.85 56.45 110.0 57.85 L110.0 61.0 109.9 64.55 107.5 69.05 Q106.1 71.4 102.6 74.45 L100.45 76.95 97.6 80.4 95.9 83.95 Q94.85 86.25 94.0 87.3 L87.9 94.5 Q84.5 98.55 83.25 101.15 75.85 116.55 74.5 128.75 L72.45 142.5 Q70.9 151.4 70.5 156.3 L70.3 163.15 70.25 170.15 70.4 175.75 70.8 182.3 71.0 189.05 71.25 195.8 Q71.25 197.55 71.7 199.4 L72.1 202.4 Q72.1 203.4 70.65 203.9 L66.0 204.8 56.75 208.25 48.7 210.9 37.0 212.15 37.0 212.3 28.75 212.55 Q23.95 212.55 18.4 208.15 14.4 204.95 13.0 202.65 L11.55 200.0 Q10.75 198.7 9.0 197.55 L5.5 194.85 4.35 194.0 Q2.55 198.7 0.75 202.25 L0.15 202.25 Q0.0 202.45 0.0 201.85 L0.2 201.35 0.4 200.8 Q0.4 200.05 2.45 194.95 L3.15 193.25 1.85 192.55 Q1.75 192.05 1.95 191.9 L3.7 191.75 4.6 189.15 6.55 183.4 8.35 177.5 11.6 165.9 Q13.55 158.15 14.75 154.4 16.25 149.75 17.4 142.8 L19.1 131.15 20.35 119.55 Q21.0 116.0 22.1 112.85 22.95 110.55 23.8 109.45 L24.5 104.95 Q24.5 102.4 22.75 95.5 L20.4 87.05 Q17.55 76.55 16.4 69.4 15.5 63.9 14.85 51.8 14.6 47.3 13.5 43.0 L12.7 40.75 Q12.15 39.4 12.1 38.5 L11.85 34.2 Q11.85 31.9 12.5 30.35 13.05 29.05 14.35 27.65 15.1 26.6 17.5 24.85 L21.75 21.65 Q23.15 20.05 25.4 18.8 27.05 17.95 31.0 16.4 L38.4 14.0 46.0 11.5 Q48.1 10.7 50.65 9.1 53.5 7.65 58.75 6.65 L63.1 6.65 63.15 6.75 Q64.25 6.15 66.6 5.2 L71.6 3.3 75.9 1.55 Q78.1 0.65 82.75 0.0 83.5 -0.1 85.35 1.55 L87.75 4.0 Q89.9 6.15 91.5 9.15 M90.55 14.45 L91.75 12.2 83.15 1.05 62.2 8.0 62.1 7.7 60.5 7.45 58.9 7.55 56.05 8.4 55.45 8.65 53.5 9.3 52.1 9.75 Q50.35 10.45 48.85 11.3 L44.85 13.3 41.5 14.45 Q35.25 15.9 29.05 18.4 27.35 19.0 25.85 20.0 L23.6 21.45 21.1 23.3 18.95 24.6 Q16.8 25.85 15.35 27.8 14.15 29.55 13.6 31.5 12.7 34.65 13.5 37.85 L14.5 41.75 15.05 44.05 15.8 48.8 16.45 56.7 Q16.8 62.65 17.85 68.5 19.45 77.85 21.9 87.2 L22.7 90.35 23.55 93.5 24.8 98.4 Q25.65 101.85 25.4 105.5 L25.2 108.9 Q25.2 109.8 24.65 110.65 23.3 112.95 22.6 115.25 L22.05 117.1 Q21.8 117.8 21.7 118.6 21.2 122.1 20.95 125.8 L20.15 135.1 Q18.9 146.25 15.75 156.95 L11.75 170.8 7.85 183.8 5.95 189.6 5.55 190.6 5.15 191.8 6.85 192.55 Q6.35 193.5 6.75 193.95 7.6 195.05 8.9 195.65 11.95 197.3 13.3 200.25 14.1 202.05 15.45 203.75 18.9 208.15 24.3 210.0 28.25 211.5 32.65 211.25 L39.55 210.85 Q41.05 210.65 42.45 210.05 L42.5 209.7 43.1 207.0 43.6 204.65 43.7 203.8 43.85 202.9 44.0 201.55 44.2 198.65 44.5 196.5 45.9 187.55 47.0 180.75 47.5 177.7 48.5 172.2 49.65 165.65 52.05 151.55 Q53.3 144.25 55.65 137.35 56.8 134.0 58.2 130.85 L59.4 128.15 Q60.75 125.1 60.75 121.7 60.75 119.2 59.7 116.85 58.65 114.35 59.1 111.8 59.45 109.65 60.4 107.6 L62.25 103.6 64.35 99.2 66.65 94.9 Q69.15 90.75 72.15 87.15 74.9 83.85 78.15 80.85 86.05 73.8 94.15 67.35 96.25 65.65 97.85 63.4 99.75 60.85 99.95 57.5 100.2 52.95 100.05 48.4 L99.9 47.1 99.85 46.1 100.45 44.8 96.85 36.65 Q96.5 33.95 94.15 32.0 91.75 29.95 88.75 29.15 L85.35 28.4 84.65 28.65 Q82.55 30.75 82.0 33.9 81.35 37.5 82.7 41.2 84.3 45.55 84.25 50.25 L84.0 52.25 83.2 53.75 83.05 53.55 Q82.45 52.0 82.75 50.45 83.25 48.1 82.45 45.8 L81.05 41.6 Q80.45 39.65 79.05 38.1 77.85 36.7 76.0 35.8 74.0 34.75 72.05 34.05 71.4 33.8 70.95 33.2 L70.65 32.65 75.55 32.0 Q77.8 30.3 78.4 27.75 79.0 25.25 78.15 22.75 L76.9 19.15 Q76.75 18.8 76.9 18.45 L77.15 18.35 Q77.65 18.4 78.05 18.8 L79.1 18.75 82.2 20.05 85.95 19.85 Q87.7 18.95 88.8 17.3 L90.55 14.45" fill="#000000" fill-rule="evenodd" stroke="none"/>
      <path d="M57.05 127.45 L53.9 127.55 55.2 127.65 56.9 127.55 57.05 127.45 M59.4 129.55 L60.9 130.3 62.15 130.15 62.3 129.7 62.4 130.45 62.4 130.55 62.05 130.65 59.5 130.0 57.65 129.05 Q57.4 129.9 57.4 131.8 L57.15 131.8 57.15 128.8 Q58.0 128.8 59.4 129.55 M60.55 128.4 Q59.6 127.95 57.95 128.05 L55.15 128.3 Q53.8 128.3 52.8 127.8 53.45 127.25 56.15 127.2 L60.9 127.3 Q63.45 128.2 64.3 128.9 64.95 129.4 64.95 130.2 64.95 131.7 62.4 132.7 59.8 133.65 55.2 133.8 60.75 134.7 63.65 135.55 L52.3 133.8 52.2 133.3 Q64.55 133.7 64.55 130.2 64.55 129.7 63.8 128.9 62.7 127.8 60.95 127.8 L59.9 127.95 60.55 128.3 60.55 128.4 M41.3 128.2 L42.65 131.55 Q41.95 131.15 41.15 128.2 L41.3 128.2 M43.7 125.75 Q45.6 127.15 48.15 127.8 44.35 127.25 41.55 124.45 42.0 124.5 43.7 125.75 M44.3 133.7 L45.45 135.8 46.8 135.7 Q46.65 135.45 46.8 135.05 L46.8 134.85 47.2 134.8 Q47.45 134.8 50.55 136.45 53.6 138.05 54.05 138.05 55.8 138.05 56.05 137.7 L56.55 137.2 Q56.35 138.45 54.05 138.45 52.85 138.45 50.25 137.05 L47.3 135.3 Q47.15 135.4 47.15 136.05 L45.65 136.15 45.9 136.65 Q47.4 139.6 47.4 140.35 L47.05 142.3 46.9 142.3 47.05 140.55 Q47.05 139.95 45.7 136.95 L45.35 136.2 43.8 136.3 40.0 136.2 39.3 135.65 39.1 135.55 39.05 135.1 Q39.05 134.55 39.55 133.9 40.05 133.3 40.65 133.05 L39.55 134.95 40.2 135.6 44.8 135.8 45.15 135.8 44.15 133.7 44.3 133.7 M40.6 143.4 L40.8 143.05 Q42.35 143.4 43.6 144.1 44.95 144.85 44.95 145.6 L44.8 146.25 45.35 151.4 45.65 155.95 45.5 158.0 45.15 160.05 Q44.8 160.8 43.8 161.3 L44.1 162.1 Q44.95 163.05 48.4 163.25 47.8 162.3 47.8 161.0 47.8 159.1 50.5 160.4 L52.3 161.3 Q52.3 159.85 50.4 157.25 48.45 154.7 48.45 153.2 48.45 151.85 49.7 151.35 52.85 150.15 54.05 149.45 L56.15 147.5 Q57.45 146.0 57.45 145.1 57.45 143.65 55.35 143.65 L52.8 144.15 Q50.95 144.6 50.55 144.9 L51.6 145.35 52.8 145.8 Q53.15 146.05 52.55 146.05 L50.7 145.75 Q49.95 145.4 49.95 144.95 49.95 143.55 54.0 143.05 58.05 142.55 58.05 145.15 58.05 147.3 54.9 149.5 55.95 149.65 57.6 150.45 60.95 152.05 61.55 152.05 L60.2 152.55 Q60.5 153.8 59.4 154.8 58.3 155.8 56.7 155.8 53.5 155.8 51.55 153.55 52.4 152.45 53.3 152.45 53.8 152.5 53.05 152.8 52.05 153.2 51.95 153.4 53.75 155.2 56.6 155.2 58.25 155.2 59.15 154.3 59.85 153.65 59.8 152.9 L57.7 152.65 Q55.85 152.55 54.95 151.8 54.3 151.15 53.9 150.15 L53.55 150.35 Q49.05 153.0 49.05 153.3 49.05 154.35 50.95 156.95 52.8 159.6 52.8 160.7 L52.75 161.55 57.05 163.65 57.15 163.8 Q56.4 163.7 53.25 162.0 L52.75 161.75 52.45 162.55 Q51.65 163.6 49.25 163.8 49.95 164.6 51.05 165.0 L54.05 165.05 54.15 165.3 53.25 165.3 51.95 165.35 52.3 165.55 51.65 165.4 50.8 165.55 Q50.3 165.65 50.3 167.05 50.3 168.05 50.95 169.55 51.55 171.05 51.55 171.75 51.55 173.05 47.2 173.25 42.8 173.4 42.8 174.25 42.8 175.95 46.5 179.15 50.15 182.3 50.15 183.95 50.15 186.0 47.65 187.1 L45.0 188.1 47.05 188.65 47.15 188.8 44.5 188.3 44.4 188.4 47.35 189.4 Q49.15 189.9 50.15 190.7 L50.2 190.9 Q49.0 191.7 47.3 191.7 45.6 191.7 44.65 190.65 L43.8 189.3 41.8 188.3 41.55 188.3 41.45 188.7 Q41.45 189.2 42.15 191.3 L43.8 193.95 43.8 194.05 Q42.15 193.05 41.75 191.35 41.5 189.45 41.05 188.55 L41.5 188.15 39.55 186.9 39.55 186.3 Q39.8 186.3 41.65 187.25 L42.95 187.9 43.6 187.9 44.55 188.0 45.25 187.75 48.15 186.45 49.25 185.25 49.8 183.9 Q49.8 182.1 46.05 179.25 42.3 176.45 42.3 174.1 42.3 173.25 43.5 173.0 L50.95 172.4 51.05 171.75 Q51.05 171.3 50.45 169.8 49.8 168.3 49.8 167.05 49.8 165.85 50.15 165.5 50.35 165.25 50.75 165.1 49.5 164.6 48.8 163.8 L48.3 163.8 Q44.85 163.8 43.6 162.2 L43.35 161.5 43.3 161.5 41.55 162.05 41.4 163.6 41.55 163.45 41.6 163.4 41.65 163.85 41.45 164.3 Q41.5 165.0 42.1 167.05 42.8 169.35 43.05 169.7 L43.05 169.8 Q42.1 168.8 41.55 166.5 L41.15 164.5 39.15 164.95 35.3 165.4 34.8 166.05 Q41.55 167.35 41.55 171.15 41.55 173.05 38.85 175.1 36.2 177.15 31.65 178.8 L31.55 179.05 Q35.7 180.25 35.7 184.1 35.7 186.9 33.3 186.9 32.75 186.9 30.85 185.8 29.25 184.9 28.65 184.4 28.7 185.35 29.65 186.45 30.55 187.55 30.55 188.2 L30.45 189.3 Q30.65 189.45 30.05 189.45 L29.05 189.2 28.05 188.95 Q25.85 190.8 24.9 191.05 L24.8 191.05 Q30.0 192.7 31.65 193.55 33.65 194.65 33.65 196.05 L33.65 196.3 35.65 197.9 35.8 197.9 Q35.45 196.65 35.4 195.85 35.35 194.3 36.95 194.3 38.1 194.3 40.4 195.95 L41.1 196.6 42.9 197.05 41.9 197.3 Q42.45 197.7 43.65 199.6 44.95 201.6 44.95 202.35 44.95 203.65 43.3 203.65 41.0 203.65 39.05 201.1 L37.55 198.45 Q37.55 197.8 38.95 197.35 L40.55 196.95 Q38.05 194.95 36.85 194.95 36.2 194.95 36.05 195.5 L36.05 196.1 37.05 199.95 Q36.95 200.15 36.55 200.2 36.5 198.6 33.5 196.6 33.05 197.5 31.25 198.75 L27.25 200.95 27.3 201.8 26.6 201.95 25.5 201.65 Q23.05 202.65 22.5 203.9 L21.55 206.3 21.4 206.3 Q21.7 204.8 22.15 203.9 22.85 202.6 25.1 201.45 L22.25 199.85 Q18.65 197.7 17.9 197.55 L16.55 206.4 16.4 206.4 Q16.3 206.75 16.3 206.1 L17.55 197.2 17.1 197.2 Q15.4 197.2 14.9 196.5 L14.8 195.8 Q14.8 194.45 17.75 192.9 L19.7 191.55 14.8 190.9 Q12.1 190.6 10.05 189.3 L11.05 189.3 12.5 189.4 Q11.3 188.85 10.55 187.9 L9.55 185.4 Q9.55 183.35 11.35 181.5 L14.8 177.45 14.65 178.4 14.65 178.55 14.75 178.45 15.3 178.3 Q16.0 178.3 16.55 179.15 L16.95 179.9 19.65 179.8 19.65 179.9 17.05 180.3 17.05 180.55 16.8 181.4 Q16.55 181.95 16.1 181.95 L15.25 181.8 15.05 183.05 Q15.05 184.3 16.75 187.15 L18.25 189.5 18.85 189.3 21.15 188.55 Q21.35 189.65 20.9 191.05 L20.9 191.15 23.4 191.05 25.95 190.0 Q27.3 189.35 27.7 188.8 L24.35 186.15 Q22.6 184.55 22.3 183.3 L22.35 183.0 Q22.4 182.8 22.8 182.8 L24.85 184.05 27.05 185.7 28.15 187.2 Q28.7 188.25 28.3 188.7 L29.3 189.05 Q30.05 189.05 30.05 188.65 L30.05 188.25 29.6 187.25 28.7 185.8 27.9 183.4 27.9 183.2 29.95 185.05 Q31.75 186.55 33.3 186.55 35.3 186.55 35.3 184.0 35.3 182.25 34.55 181.35 33.4 179.95 30.05 179.2 L37.2 175.4 Q41.05 173.4 41.05 171.2 41.05 169.6 39.9 168.65 38.5 167.45 35.05 166.7 34.7 168.2 34.95 170.15 L34.9 170.45 32.95 168.55 Q31.7 167.15 31.8 166.3 32.35 165.95 33.3 165.9 L34.2 165.95 35.15 165.45 Q36.15 164.9 37.7 164.7 40.15 164.4 41.1 163.85 L41.05 162.85 Q41.05 161.45 42.95 161.05 L43.15 161.0 42.9 160.45 43.55 160.9 Q45.0 160.4 45.15 159.3 L45.4 155.95 45.35 152.55 44.65 147.9 44.65 146.4 42.9 146.65 Q44.55 148.7 44.55 149.45 L44.4 150.9 Q44.2 149.3 42.7 147.25 41.2 145.15 38.9 143.55 L39.7 144.1 40.8 144.65 Q40.55 144.5 40.55 143.95 L40.6 143.4 M41.9 145.15 Q42.8 146.05 43.3 146.05 L44.45 145.95 44.55 145.6 Q44.55 145.05 43.5 144.4 42.4 143.75 41.15 143.65 L41.1 143.55 41.05 143.9 Q41.05 144.3 41.9 145.15 M62.15 142.95 L62.3 142.95 63.65 147.05 63.3 147.05 62.7 145.0 62.15 142.95 M39.55 106.45 L40.65 109.3 Q40.15 109.05 39.85 108.0 L39.4 106.55 39.55 106.45 M30.05 116.05 L30.4 116.3 29.9 116.45 31.3 118.2 32.8 120.2 32.8 120.3 30.7 118.15 Q29.6 116.8 29.65 115.95 L30.05 116.05 M29.9 120.2 L30.4 120.5 30.2 120.55 Q30.3 121.6 31.3 124.3 L32.3 127.05 Q32.3 127.7 31.35 128.3 29.95 129.2 27.05 129.4 L26.85 129.45 26.8 129.85 Q26.8 131.1 30.1 133.85 L34.3 137.05 Q35.35 136.8 35.25 136.1 35.2 135.3 36.05 135.05 L36.3 135.15 36.4 135.7 36.1 136.85 35.8 138.15 35.65 140.55 Q35.25 140.2 35.25 139.15 L35.3 137.45 Q33.3 137.15 29.85 134.2 26.3 131.25 26.3 129.75 26.3 129.35 26.45 129.2 L26.65 129.05 Q27.55 127.5 28.3 128.15 L30.45 128.3 31.3 127.5 31.7 126.95 30.75 124.1 Q29.8 121.55 29.8 120.8 L29.9 120.2 M40.05 117.45 L40.4 122.55 40.15 122.55 39.9 117.45 40.05 117.45 M31.15 121.05 Q32.05 121.8 33.15 122.05 L33.15 122.15 Q32.15 122.1 31.3 121.35 L30.55 120.6 31.15 121.05 M35.8 135.65 L35.8 136.45 36.15 135.55 35.8 135.65 M25.25 133.2 Q28.85 132.8 30.4 135.15 30.95 136.2 31.2 137.8 L32.4 139.15 33.2 140.2 32.75 140.85 Q32.05 141.3 31.65 141.9 L31.4 141.8 Q32.8 140.65 32.8 140.2 L32.3 139.3 31.2 138.45 30.8 141.55 Q30.15 143.3 27.3 144.65 28.1 145.3 28.55 146.4 L29.15 148.4 29.15 148.55 Q28.05 148.2 27.2 147.0 26.45 145.95 26.4 145.05 L26.5 145.0 25.65 144.95 Q24.35 144.9 24.05 143.3 L24.1 143.2 Q24.15 143.05 24.55 143.05 25.75 143.05 27.0 144.15 28.35 144.15 29.4 143.15 30.35 142.25 30.45 141.3 L30.8 138.8 Q30.8 137.85 30.25 137.45 29.15 136.7 25.9 137.05 L23.25 138.0 Q22.7 138.2 22.2 137.05 L22.05 137.05 25.65 142.55 25.65 142.65 23.05 138.95 Q21.45 136.6 19.05 135.55 L21.0 136.15 22.05 136.6 21.95 136.4 21.8 135.3 Q21.8 133.6 25.25 133.2 M22.2 135.7 Q22.2 136.7 24.65 136.65 28.35 136.55 30.8 137.55 L30.8 137.1 Q30.8 134.15 26.5 133.75 22.2 133.35 22.2 135.7 M25.55 137.45 L26.15 138.05 26.15 138.15 25.4 137.55 25.55 137.45 M28.95 141.65 Q28.8 141.6 28.8 141.0 28.8 140.15 30.05 140.45 L30.2 141.2 29.8 141.7 28.95 141.65 M24.9 144.3 L26.45 144.2 Q26.3 143.95 25.6 143.75 L24.55 143.55 24.45 144.0 24.9 144.3 M21.65 145.4 Q16.8 146.05 16.8 150.1 16.8 151.4 18.15 153.55 L19.05 154.75 Q19.1 153.15 19.55 152.45 L19.4 153.8 19.55 155.25 Q21.0 156.55 22.8 156.55 24.7 156.55 25.65 155.55 L24.7 154.55 24.8 154.3 26.3 154.2 26.4 151.75 Q26.4 151.15 25.45 150.3 24.35 149.3 23.05 149.3 L19.3 149.55 22.8 152.15 22.8 152.3 20.8 151.0 18.8 149.65 19.3 149.05 22.8 148.8 Q26.7 148.8 26.7 153.25 L26.6 154.2 Q31.5 153.65 33.35 151.4 34.25 150.25 34.55 147.3 35.7 147.75 37.0 149.9 L39.2 153.05 39.9 151.95 40.05 151.95 39.75 152.5 Q39.45 152.95 39.45 153.3 L41.45 155.3 41.4 155.55 40.3 154.85 39.2 153.8 Q38.95 154.8 36.7 156.45 L36.65 156.9 Q36.65 158.35 37.3 159.65 L37.4 159.8 Q36.95 159.45 36.65 158.4 L36.4 156.9 36.4 156.7 35.2 157.5 Q31.45 160.0 31.05 161.05 L25.9 155.85 Q25.1 156.95 23.55 156.95 21.4 156.95 19.6 155.6 19.9 156.85 20.6 158.15 L22.05 156.95 20.8 158.55 22.05 160.35 Q24.65 163.55 27.05 163.55 L29.25 163.0 31.05 162.4 31.15 162.3 31.2 162.65 30.45 164.9 Q30.45 167.65 32.95 171.05 L32.9 171.2 Q32.4 170.95 31.3 169.05 30.3 167.3 29.8 167.3 28.6 167.3 28.1 168.95 L27.8 170.7 Q27.8 172.95 28.55 174.4 29.7 176.75 32.55 176.4 L32.65 176.55 32.45 176.85 31.9 176.95 Q29.1 176.95 27.9 173.9 L27.3 170.7 Q27.3 169.05 28.1 167.7 29.1 166.1 30.4 167.05 29.55 164.95 30.45 163.15 L28.45 163.55 27.05 163.9 Q23.65 163.9 21.05 159.65 L20.7 159.05 20.65 159.65 Q20.65 160.85 21.35 162.05 L23.05 164.3 18.95 164.05 Q19.0 164.5 19.95 165.2 L21.4 166.3 Q20.45 166.1 19.1 164.7 L17.3 163.2 Q17.3 162.65 17.65 162.55 L19.45 163.3 22.15 163.7 Q20.9 162.15 20.6 161.45 L20.4 159.7 20.45 158.6 Q19.15 156.35 19.05 155.15 L18.3 154.4 Q16.3 152.2 16.3 150.2 16.3 148.25 17.05 147.2 18.25 145.45 21.65 145.3 L21.65 145.4 M26.6 145.05 Q27.35 146.7 28.8 148.05 28.6 146.5 27.8 145.55 27.45 145.15 26.6 145.05 M32.95 152.65 Q30.6 154.35 26.4 154.9 L26.25 155.2 Q28.0 156.5 30.9 160.05 31.05 159.3 35.05 156.9 L36.5 156.0 36.65 155.4 Q37.0 154.6 38.05 154.2 37.35 154.95 37.05 155.65 38.9 154.25 38.9 153.45 L35.05 148.05 35.05 149.3 Q35.05 151.15 32.95 152.65 M26.05 154.95 L25.95 154.95 26.0 155.0 26.05 154.95 M22.8 170.55 L16.3 170.15 15.95 170.05 Q15.55 170.05 15.55 170.4 15.55 171.4 17.25 172.55 19.45 174.0 22.8 173.55 L22.9 174.2 22.55 175.7 22.05 177.05 21.9 177.05 22.65 174.05 22.65 173.95 Q19.2 174.4 16.85 172.85 14.95 171.55 14.95 170.2 14.95 169.25 17.25 169.55 L22.8 170.4 22.8 170.55 M32.3 166.3 Q32.2 166.3 32.2 166.65 32.2 167.25 33.1 168.35 L34.45 169.8 34.55 169.8 34.2 166.45 32.4 166.4 32.3 166.3 M15.95 178.8 L14.9 178.9 14.7 179.2 15.1 180.35 15.3 180.75 16.5 180.0 16.35 179.75 16.05 179.15 15.95 178.8 M14.6 180.95 L14.3 179.2 Q10.05 182.6 10.05 185.5 10.05 186.5 11.3 187.8 13.05 189.7 16.1 189.7 L17.85 189.55 Q16.6 188.1 15.7 186.5 14.55 184.5 14.55 183.0 14.55 182.1 14.85 181.5 L14.6 180.95 M16.4 181.1 L16.55 180.5 Q15.95 180.75 15.6 181.2 L15.9 181.45 16.4 181.1 M5.9 197.5 Q5.55 197.9 5.55 198.85 5.55 200.0 7.0 201.4 8.7 203.15 10.8 202.15 L11.0 202.2 11.05 202.6 10.95 203.05 Q7.7 202.85 6.15 201.2 5.05 200.05 5.05 198.8 5.05 197.1 7.1 196.2 L12.3 193.7 10.55 195.2 10.3 195.4 Q11.3 195.65 12.0 196.35 L12.55 197.25 12.3 198.05 11.8 198.55 Q9.0 198.55 8.35 197.6 L8.15 196.4 Q6.4 196.95 5.9 197.5 M10.05 197.95 L11.8 197.9 11.95 197.75 12.05 197.3 Q12.05 196.5 10.3 196.15 8.55 195.75 8.55 196.7 L9.05 197.45 Q9.6 197.95 10.05 197.95 M18.9 190.3 L17.3 190.55 18.8 190.65 20.15 191.0 Q20.7 190.2 20.7 189.4 L20.55 189.05 18.6 189.95 18.9 190.3 M19.7 192.15 L16.85 193.95 Q15.3 195.05 15.3 195.85 15.3 196.4 15.6 196.55 L19.45 196.65 19.9 196.8 18.7 197.05 18.3 197.1 Q19.75 197.4 22.75 199.2 L25.8 201.15 25.95 201.05 26.75 200.75 26.45 199.45 Q26.05 198.2 26.05 197.1 26.05 194.2 27.8 193.85 29.7 193.45 33.3 196.05 33.3 194.45 30.75 193.45 L23.45 191.1 23.75 191.6 Q24.1 192.4 24.05 193.55 L23.2 194.5 22.2 195.05 Q20.4 195.05 19.9 193.7 L19.7 192.15 M22.7 183.3 Q22.9 184.4 24.5 185.95 26.0 187.45 27.9 188.55 L28.1 188.45 28.15 187.9 Q28.15 186.8 26.25 185.45 L22.7 183.3 M23.55 192.7 Q23.55 191.0 21.95 191.2 20.3 191.45 20.3 192.7 L20.55 193.75 Q20.85 194.45 21.3 194.45 23.55 194.45 23.55 192.7 M26.65 195.7 Q26.4 196.35 26.55 197.05 26.55 197.8 26.9 199.3 L27.2 200.55 Q32.7 198.1 33.25 196.45 L33.05 196.3 Q30.05 194.4 29.3 194.4 27.2 194.4 26.65 195.7 M59.4 151.95 Q56.8 150.1 54.55 150.2 L55.55 151.35 Q56.65 152.2 57.7 152.2 L59.4 151.95 M48.3 160.3 L48.2 161.0 Q48.2 162.15 48.85 163.25 L48.85 163.3 50.55 163.3 Q51.6 163.3 52.05 162.3 L52.25 161.5 Q50.05 160.3 49.45 160.3 L48.3 160.3 M46.45 189.8 L44.2 189.3 Q44.2 191.3 47.8 191.3 L49.7 190.9 Q48.45 190.35 46.45 189.8 M41.2 187.55 L41.65 187.8 42.05 187.95 41.2 187.55 M38.55 197.8 Q38.05 198.15 38.05 198.6 38.05 199.4 39.65 201.15 41.55 203.2 43.35 203.2 L44.2 203.0 44.55 202.65 44.55 202.35 Q44.55 201.85 43.6 200.4 L42.3 198.7 40.9 197.4 Q39.3 197.25 38.55 197.8 M26.3 201.3 L26.15 201.35 26.3 201.45 Q26.8 201.85 26.8 201.2 L26.8 201.1 26.3 201.3" fill="#000000" fill-rule="evenodd" stroke="none"/>
      <path d="M92.3 10.2 L93.2 11.6 Q93.9 13.15 93.8 13.4 L93.5 14.25 94.0 17.5 Q94.0 18.7 93.6 19.65 93.1 20.75 92.95 22.65 L91.85 22.9 90.6 22.25 Q88.6 22.25 85.2 23.55 82.0 24.75 81.6 25.5 80.9 26.7 80.7 27.55 L80.5 29.3 Q80.5 30.8 81.0 32.2 81.45 33.6 81.45 35.65 81.45 36.05 81.95 37.35 82.45 38.6 82.45 39.6 L84.25 46.5 85.4 51.15 86.4 49.75 88.35 46.65 89.1 44.1 Q89.5 42.4 89.85 41.6 90.4 40.25 90.8 41.0 L91.8 43.85 Q93.8 49.25 97.9 49.25 99.3 49.25 100.1 48.0 L100.75 46.5 Q101.95 44.25 102.2 43.25 L102.6 43.25 102.75 44.3 Q102.75 45.4 102.15 46.85 L103.1 47.5 Q104.25 48.15 104.6 50.0 L104.6 50.1 Q105.6 50.05 105.95 52.0 L106.1 55.25 Q106.1 60.25 105.05 63.1 104.05 65.85 100.1 71.85 L95.35 80.05 Q92.4 85.15 89.1 88.35 87.6 89.9 82.0 96.6 L80.55 98.4 80.85 99.0 Q80.6 99.4 80.0 99.4 L79.7 99.4 78.85 100.55 Q77.0 103.05 76.75 104.85 76.55 106.45 74.8 108.9 L71.75 113.1 68.95 117.35 Q67.95 120.55 67.95 123.9 L68.5 131.5 67.3 139.5 Q65.95 147.45 65.75 149.25 64.85 157.5 62.7 166.85 62.0 170.0 61.65 175.7 L60.95 184.5 Q60.35 188.9 58.1 193.25 L56.7 195.6 54.45 197.75 Q53.5 198.4 52.5 198.65 L50.6 198.85 45.25 199.35 44.1 199.65 Q38.8 199.65 36.95 198.85 35.1 198.05 33.7 195.15 L32.4 192.95 32.45 195.0 32.1 195.5 Q31.35 194.75 31.35 192.65 L31.45 191.2 31.2 190.3 31.25 189.75 31.7 189.5 Q32.4 184.75 34.65 174.45 L38.1 159.5 Q39.5 153.45 44.05 141.05 47.6 131.45 47.6 126.8 L47.6 125.25 Q47.25 124.0 45.6 124.0 L41.15 124.6 38.6 125.15 Q31.4 125.15 28.6 123.5 L26.6 121.4 23.95 119.5 Q21.7 117.75 21.7 117.2 L21.85 116.5 22.4 116.7 22.45 116.55 22.8 115.4 23.0 115.1 23.45 113.9 23.45 113.75 23.8 112.95 24.05 112.15 Q25.7 107.45 25.7 103.55 L25.7 102.9 25.45 101.1 Q25.0 98.35 23.65 94.05 L21.6 87.1 Q21.6 86.55 22.0 86.15 L21.85 85.65 19.7 75.75 19.05 73.2 18.35 70.65 Q17.85 68.75 17.9 67.9 L18.0 65.75 17.6 61.4 17.1 56.3 16.5 52.1 Q16.15 50.1 16.1 48.05 L15.45 44.7 Q15.1 43.55 15.1 43.0 L15.1 42.3 14.8 39.3 14.35 33.4 14.4 31.7 Q14.55 30.75 15.35 30.25 16.05 31.05 16.6 33.05 L17.6 36.0 20.2 41.6 20.25 41.65 Q20.1 39.85 20.1 36.0 L20.2 30.7 Q20.55 27.65 22.35 25.4 22.95 24.65 24.85 23.25 L27.35 21.0 29.25 18.5 Q30.65 16.75 31.6 16.25 32.0 16.35 32.25 16.6 L34.85 15.65 37.45 14.5 39.4 14.1 41.6 13.65 44.35 12.5 Q46.05 11.75 46.75 11.75 47.9 10.6 48.7 10.4 L48.95 10.75 41.35 18.75 37.65 22.95 Q35.9 25.4 36.0 27.25 L36.0 39.0 36.1 39.0 Q38.15 32.4 40.3 28.25 43.4 22.05 48.1 17.5 48.7 17.65 48.75 18.0 44.95 25.75 44.5 31.25 L50.55 20.8 Q53.25 16.6 55.3 15.1 L57.35 13.55 63.0 10.15 68.15 5.8 Q71.15 3.2 72.2 3.25 L72.0 3.65 80.95 0.25 Q82.4 -0.55 84.95 1.05 87.05 2.4 87.95 3.75 90.55 7.05 91.45 9.0 L92.3 10.2 M90.35 43.6 L90.45 43.6 90.35 43.5 90.35 43.6 M63.6 6.75 Q63.6 7.75 57.85 10.25 L54.5 12.4 Q52.5 13.75 51.1 14.25 L50.6 14.0 52.45 12.15 53.85 10.4 54.8 8.3 Q55.0 7.75 56.0 7.75 L57.2 7.35 61.1 6.9 62.3 6.6 Q63.1 6.3 63.35 6.35 L63.5 6.3 63.6 6.75 M17.85 54.7 L17.95 54.65 17.75 54.1 17.85 54.7 M30.2 19.2 L30.2 19.1 30.15 19.15 30.2 19.2 M42.25 15.25 L42.35 15.15 42.25 15.2 42.25 15.25 M69.95 96.15 Q71.15 97.65 74.0 100.3 75.4 101.75 75.9 102.95 76.55 101.2 78.3 99.15 L74.55 97.95 69.95 96.15" fill="#000000" fill-opacity="0.101960786" fill-rule="evenodd" stroke="none"/>
    </g>
    <linearGradient gradientTransform="matrix(0.0582, 0.0, 0.0, 0.1283, 52.8, 106.05)" gradientUnits="userSpaceOnUse" id="gradient2" spreadMethod="pad" x1="-819.2" x2="819.2">
      <stop offset="0.0" stop-color="#c99c72"/>
      <stop offset="1.0" stop-color="#936539"/>
    </linearGradient>
    <g id="sprite3" transform="matrix(1.0, 0.0, 0.0, 1.0, 0.0, 0.0)">
      <use ffdec:characterId="4025" height="313.05" transform="matrix(1.0, 0.0, 0.0, 1.0, 0.0, 0.0)" width="199.5" xlink:href="#shape3"/>
    </g>
    <g id="shape3" transform="matrix(1.0, 0.0, 0.0, 1.0, 0.0, 0.0)">
      <path d="M170.0 46.2 L171.2 49.3 Q179.75 51.9 186.6 57.45 189.85 60.15 190.65 64.25 191.4 67.9 190.7 71.75 190.35 73.9 189.2 75.9 195.55 80.6 198.9 87.75 199.85 89.8 199.3 91.85 198.15 96.1 195.35 99.4 191.3 104.25 186.5 108.4 L179.25 114.55 Q178.65 121.8 175.15 128.0 174.05 129.95 172.6 131.4 173.1 136.8 171.55 142.15 L168.6 152.05 Q165.8 161.2 159.0 167.9 154.9 171.9 151.7 176.6 149.85 179.3 147.6 181.7 144.9 184.65 143.25 188.15 141.2 192.5 140.05 197.25 136.0 213.85 133.05 230.65 128.65 255.95 125.15 281.4 124.4 287.1 123.95 292.8 L132.1 293.15 132.25 295.1 123.65 295.5 Q123.6 300.9 119.75 304.55 L118.8 305.2 109.8 304.75 Q108.5 304.45 107.35 303.7 105.3 302.2 102.8 302.15 92.45 302.05 82.65 305.35 73.45 308.5 64.25 310.9 56.0 313.0 47.5 313.05 40.65 313.05 34.1 311.25 32.3 310.8 30.65 309.85 20.45 304.0 11.75 296.2 8.75 299.25 4.2 299.2 L0.0 298.65 0.2 296.8 7.9 294.95 8.05 293.15 10.2 292.4 Q17.7 278.1 23.7 263.25 26.65 256.0 29.95 248.85 L33.3 241.3 Q37.7 231.1 42.7 221.05 47.65 211.1 51.5 200.8 55.6 190.0 58.6 178.9 L64.1 158.7 Q66.45 150.0 67.9 141.05 68.55 137.15 68.0 133.2 67.25 127.35 65.95 121.35 62.5 105.85 58.45 90.4 L57.2 86.3 Q54.45 78.2 56.6 69.85 57.95 64.65 61.35 60.5 61.35 54.3 62.45 48.3 62.85 45.95 64.6 44.25 65.85 43.1 67.2 42.05 71.2 27.85 76.95 14.1 78.35 10.75 81.75 9.9 L86.8 9.3 95.6 8.7 102.2 7.95 Q104.35 8.0 106.3 6.9 111.9 3.95 117.75 1.75 122.9 -0.05 128.35 0.0 131.2 0.05 133.3 2.2 L133.8 2.85 Q136.75 7.5 135.95 13.15 135.4 17.1 132.85 20.0 140.0 19.15 143.95 24.9 146.9 29.15 148.6 33.9 156.3 35.35 163.45 39.1 167.95 41.5 170.0 46.2 M176.45 67.55 Q179.9 62.35 181.0 54.85 L177.85 53.25 173.95 51.6 Q172.15 50.8 171.2 49.85 L171.1 50.5 Q171.2 50.75 170.6 50.75 170.7 51.85 172.9 55.15 L175.35 59.05 176.25 63.2 Q176.6 65.6 176.35 67.5 L176.35 67.65 176.45 67.55 M68.55 41.4 L68.65 41.45 68.65 41.5 68.65 41.75 Q66.05 44.1 63.9 47.1 63.5 47.65 63.4 48.35 62.4 53.95 61.7 59.5 61.45 61.5 60.65 63.45 L58.05 70.15 Q55.45 77.25 57.75 84.6 64.8 107.25 68.45 130.45 L69.35 137.3 Q69.65 139.9 69.0 142.4 L63.4 165.45 Q60.85 176.2 57.35 186.45 L51.2 204.65 Q48.45 212.75 44.4 220.3 37.45 233.1 32.15 246.8 L30.3 250.8 Q27.65 256.0 25.6 261.4 22.1 270.55 17.85 279.3 L11.45 292.7 102.95 292.75 109.7 248.15 Q110.1 245.35 109.65 242.5 L108.65 237.45 Q107.05 230.0 108.95 222.5 111.0 214.6 115.45 207.7 117.1 205.2 117.7 202.05 118.15 199.45 117.7 196.95 L117.1 195.25 Q115.65 192.65 112.75 191.75 111.35 191.25 109.8 191.25 L106.55 191.8 Q100.0 193.55 95.1 198.15 92.1 201.0 90.1 204.6 87.6 209.25 84.7 213.55 L82.35 216.0 80.5 217.4 Q77.2 201.25 85.4 187.35 L88.2 182.05 Q90.65 176.75 91.5 170.9 92.55 163.7 89.75 156.7 96.5 156.5 100.8 151.1 102.75 148.65 103.85 146.0 105.4 142.1 105.9 137.95 108.55 116.65 98.35 98.4 97.2 96.35 95.65 94.5 89.75 102.05 81.35 107.4 L80.5 107.4 Q77.4 100.25 79.4 92.75 80.85 87.35 82.9 82.15 L86.85 72.5 Q88.1 69.45 87.5 66.1 86.45 60.6 83.25 55.8 89.7 40.4 91.7 23.8 92.2 19.85 95.2 17.75 97.3 16.35 99.85 15.7 102.25 15.05 104.7 14.55 107.6 17.95 107.05 22.7 106.75 25.55 107.05 28.25 112.15 21.65 118.3 15.9 120.15 14.15 122.55 13.1 126.05 11.7 129.3 9.85 131.45 8.6 132.2 6.15 L132.85 3.5 129.05 1.3 Q131.0 7.6 124.95 10.0 120.35 11.8 115.35 11.7 111.85 11.5 108.9 10.0 108.45 9.85 108.2 9.3 111.35 9.1 114.0 7.95 118.55 6.0 122.8 3.4 L126.5 1.05 Q117.55 3.0 109.2 6.85 L102.65 9.75 84.75 10.2 Q80.15 9.8 78.3 14.15 L76.05 19.85 71.2 32.8 68.3 41.35 68.2 41.65 68.55 41.4 M183.0 109.35 L167.5 116.75 178.15 113.65 183.0 109.35 M129.15 87.2 Q134.45 86.2 137.35 81.55 139.95 77.5 141.75 73.0 143.55 68.5 144.4 63.85 144.95 60.85 142.25 59.8 137.75 62.9 135.05 67.65 132.6 71.9 129.25 75.35 123.85 80.9 128.0 87.15 L129.15 87.2 M148.45 35.25 L146.95 39.15 150.3 45.55 149.25 54.9 Q152.95 51.45 155.2 47.0 157.4 42.65 158.15 37.75 L148.45 35.25 M140.05 22.75 L132.1 21.05 125.05 25.5 Q123.45 26.5 122.15 27.9 117.2 33.2 114.15 39.6 110.05 48.1 107.6 57.05 L107.9 57.35 Q110.3 59.35 110.15 61.95 L109.85 62.0 Q106.95 61.6 105.2 59.15 L104.65 62.05 Q103.4 67.25 107.8 70.35 108.6 70.35 109.15 69.8 112.5 66.65 114.8 62.45 121.0 51.35 122.2 38.5 L122.6 35.95 Q123.65 32.05 126.5 29.15 L127.4 28.95 132.65 28.85 Q138.45 28.8 140.05 22.75 M64.35 309.05 L74.7 306.55 84.85 303.45 Q90.0 301.8 95.3 301.15 100.5 300.25 105.5 301.75 106.85 302.15 108.0 302.95 109.45 303.9 111.25 303.85 L117.1 304.55 Q119.25 304.5 120.35 302.45 122.1 299.25 122.35 295.5 L12.45 295.15 21.0 301.65 26.7 306.1 Q30.35 309.3 35.0 310.45 38.85 311.4 43.05 311.6 L49.55 311.65 57.0 310.45 64.35 309.05" fill="#000000" fill-rule="evenodd" stroke="none"/>
      <path d="M176.35 67.5 Q176.6 65.6 176.25 63.2 L175.35 59.05 172.9 55.15 Q170.7 51.85 170.6 50.75 171.2 50.75 171.1 50.5 L171.2 49.85 Q172.15 50.8 173.95 51.6 L177.85 53.25 181.0 54.85 Q179.9 62.35 176.45 67.55 L176.35 67.5 M183.0 109.35 L178.15 113.65 167.5 116.75 183.0 109.35 M68.3 41.35 L71.2 32.8 76.05 19.85 78.3 14.15 Q80.15 9.8 84.75 10.2 L102.65 9.75 109.2 6.85 Q117.55 3.0 126.5 1.05 L122.8 3.4 Q118.55 6.0 114.0 7.95 111.35 9.1 108.2 9.3 108.45 9.85 108.9 10.0 111.85 11.5 115.35 11.7 120.35 11.8 124.95 10.0 131.0 7.6 129.05 1.3 L132.85 3.5 132.2 6.15 Q131.45 8.6 129.3 9.85 126.05 11.7 122.55 13.1 120.15 14.15 118.3 15.9 112.15 21.65 107.05 28.25 106.75 25.55 107.05 22.7 107.6 17.95 104.7 14.55 102.25 15.05 99.85 15.7 97.3 16.35 95.2 17.75 92.2 19.85 91.7 23.8 89.7 40.4 83.25 55.8 86.45 60.6 87.5 66.1 88.1 69.45 86.85 72.5 L82.9 82.15 Q80.85 87.35 79.4 92.75 77.4 100.25 80.5 107.4 L81.35 107.4 Q89.75 102.05 95.65 94.5 97.2 96.35 98.35 98.4 108.55 116.65 105.9 137.95 105.4 142.1 103.85 146.0 102.75 148.65 100.8 151.1 96.5 156.5 89.75 156.7 92.55 163.7 91.5 170.9 90.65 176.75 88.2 182.05 L85.4 187.35 Q77.2 201.25 80.5 217.4 L82.35 216.0 84.7 213.55 Q87.6 209.25 90.1 204.6 92.1 201.0 95.1 198.15 100.0 193.55 106.55 191.8 L109.8 191.25 Q111.35 191.25 112.75 191.75 115.65 192.65 117.1 195.25 L117.7 196.95 Q118.15 199.45 117.7 202.05 117.1 205.2 115.45 207.7 111.0 214.6 108.95 222.5 107.05 230.0 108.65 237.45 L109.65 242.5 Q110.1 245.35 109.7 248.15 L102.95 292.75 11.45 292.7 17.85 279.3 Q22.1 270.55 25.6 261.4 27.65 256.0 30.3 250.8 L32.15 246.8 Q37.45 233.1 44.4 220.3 48.45 212.75 51.2 204.65 L57.35 186.45 Q60.85 176.2 63.4 165.45 L69.0 142.4 Q69.65 139.9 69.35 137.3 L68.45 130.45 Q64.8 107.25 57.75 84.6 55.45 77.25 58.05 70.15 L60.65 63.45 Q61.45 61.5 61.7 59.5 62.4 53.95 63.4 48.35 63.5 47.65 63.9 47.1 66.05 44.1 68.65 41.75 L68.65 41.5 68.65 41.45 68.55 41.4 68.3 41.35 M140.05 22.75 Q138.45 28.8 132.65 28.85 L127.4 28.95 126.5 29.15 Q123.65 32.05 122.6 35.95 L122.2 38.5 Q121.0 51.35 114.8 62.45 112.5 66.65 109.15 69.8 108.6 70.35 107.8 70.35 103.4 67.25 104.65 62.05 L105.2 59.15 Q106.95 61.6 109.85 62.0 L110.15 61.95 Q110.3 59.35 107.9 57.35 L107.6 57.05 Q110.05 48.1 114.15 39.6 117.2 33.2 122.15 27.9 123.45 26.5 125.05 25.5 L132.1 21.05 140.05 22.75 M148.45 35.25 L158.15 37.75 Q157.4 42.65 155.2 47.0 152.95 51.45 149.25 54.9 L150.3 45.55 146.95 39.15 148.45 35.25 M129.15 87.2 L128.0 87.15 Q123.85 80.9 129.25 75.35 132.6 71.9 135.05 67.65 137.75 62.9 142.25 59.8 144.95 60.85 144.4 63.85 143.55 68.5 141.75 73.0 139.95 77.5 137.35 81.55 134.45 86.2 129.15 87.2" fill="url(#gradient3)" fill-rule="evenodd" stroke="none"/>
      <path d="M180.35 52.7 L182.05 54.15 Q182.5 54.6 182.5 55.2 L182.0 56.3 181.5 57.2 181.75 58.1 182.0 59.0 Q182.0 59.65 180.1 64.45 179.4 68.05 178.9 68.65 178.5 69.05 176.5 69.05 176.1 69.05 175.6 69.45 175.1 69.85 174.6 69.85 173.7 69.85 173.35 69.15 L173.1 68.45 Q173.1 68.05 173.65 66.6 L174.35 65.05 174.45 64.95 Q170.1 63.85 170.1 61.6 170.1 60.75 170.45 59.95 L171.45 58.05 Q169.6 56.85 168.85 55.95 L168.0 54.95 Q167.75 54.6 167.75 54.1 L168.35 52.6 167.95 51.4 Q167.95 49.75 169.8 48.8 172.05 47.65 175.1 50.05 L177.4 51.1 Q179.55 52.05 180.35 52.7 M184.0 107.75 Q184.0 109.3 183.4 110.4 182.7 111.6 180.85 112.95 L178.0 115.6 Q175.8 117.6 175.1 117.6 L174.55 117.35 173.95 117.1 Q170.75 119.7 169.6 119.7 168.55 119.7 168.25 119.05 L168.2 118.35 Q168.2 117.65 168.7 116.95 L166.95 117.85 Q165.9 117.85 165.5 117.3 L165.35 116.65 Q165.35 115.95 170.45 112.4 L175.75 108.8 Q181.45 104.3 183.1 104.65 184.0 104.85 184.0 107.75 M133.95 6.85 Q133.45 8.7 132.6 8.7 L132.45 8.7 131.75 10.65 Q130.25 14.5 128.2 14.45 L128.5 14.95 128.75 15.6 Q128.75 16.15 128.25 16.55 127.8 16.95 127.35 16.95 126.2 16.95 125.95 15.6 L125.75 13.95 124.4 14.2 123.0 14.55 122.4 15.05 121.95 15.7 Q121.95 16.0 122.25 16.3 L122.5 16.9 Q122.5 17.9 120.7 18.8 117.85 20.2 116.75 21.05 L114.85 23.05 112.95 25.35 109.45 30.2 Q107.0 33.6 106.2 33.6 104.4 33.6 103.7 32.65 L103.35 31.7 Q103.35 30.15 105.95 26.8 L104.7 25.4 Q103.85 24.55 103.85 24.0 103.85 23.55 104.75 22.6 L105.6 21.35 105.35 20.65 105.1 20.1 104.6 20.1 Q103.5 20.1 103.1 19.45 L102.7 18.8 Q99.6 19.8 95.7 19.7 L95.85 20.25 96.0 20.95 Q96.0 21.55 93.6 29.2 90.8 38.2 89.7 42.95 L88.7 45.75 Q88.0 47.45 87.85 48.6 87.6 50.25 87.5 54.05 L87.1 59.45 87.0 61.1 87.25 61.3 87.9 61.35 Q89.15 61.55 89.55 62.2 L90.7 60.1 90.85 60.1 89.75 62.7 89.75 62.9 89.7 63.45 90.45 64.3 95.95 71.2 Q102.25 79.65 108.6 85.1 111.95 88.05 113.75 92.0 114.85 94.3 116.35 98.95 L119.7 106.2 Q121.25 109.45 121.25 112.75 L120.95 115.7 120.6 118.0 121.55 119.85 Q122.5 121.5 122.5 122.75 122.5 124.7 121.7 128.65 120.85 132.6 120.85 135.15 120.85 142.45 127.95 141.85 L132.8 141.45 Q135.0 141.6 135.0 143.75 135.0 145.3 128.35 153.7 121.7 162.05 121.7 165.75 121.7 167.6 123.1 168.8 123.85 169.45 124.9 169.85 L124.55 167.1 Q123.95 164.05 123.95 162.7 123.95 161.5 124.85 160.55 125.85 159.45 126.6 162.1 127.0 162.75 127.1 164.15 L127.25 166.2 127.9 170.5 130.1 170.6 Q134.1 170.6 134.7 169.4 L134.9 168.6 Q135.05 168.2 135.6 168.2 136.6 168.2 136.85 169.7 136.85 171.1 135.8 171.85 133.95 173.2 128.95 173.2 L128.0 173.2 128.0 174.6 Q128.0 183.1 127.3 188.85 L125.1 205.8 124.1 213.5 123.25 221.35 122.75 229.05 Q122.45 233.75 121.85 236.95 L118.95 252.45 115.85 268.05 Q112.4 283.9 111.0 287.8 107.05 298.6 100.75 298.6 L97.2 298.2 94.2 297.8 80.95 297.1 72.85 296.25 59.1 295.85 50.5 296.35 46.1 296.8 44.95 296.7 Q38.1 296.3 35.35 294.4 L34.2 293.3 33.5 295.7 Q33.1 295.4 32.75 294.25 L32.45 293.15 Q32.45 287.5 36.7 275.9 39.7 267.65 43.35 260.05 53.5 239.3 58.2 227.2 60.85 220.5 66.35 210.75 L76.1 194.2 Q78.2 190.5 79.9 185.9 L82.6 177.7 Q84.55 171.65 84.95 169.45 L85.75 165.8 85.7 165.2 85.85 162.1 85.6 158.8 Q84.8 156.05 82.15 156.05 77.5 156.05 74.25 164.1 72.6 168.2 71.75 172.6 71.35 172.3 71.15 171.6 L71.0 170.9 72.05 165.4 Q73.1 160.55 73.1 155.05 73.1 151.45 71.05 149.05 L70.65 148.6 70.1 148.7 Q68.85 148.7 68.35 146.95 L68.1 145.1 Q68.1 142.9 68.45 140.75 L68.75 135.4 Q68.75 130.8 67.25 122.45 65.9 115.05 64.5 110.3 57.85 87.25 57.85 85.45 L57.4 83.25 56.75 80.85 56.4 77.25 Q55.75 75.35 55.75 73.7 L55.95 72.1 Q56.3 70.8 57.1 70.8 58.15 70.8 58.05 72.55 58.0 75.1 58.95 76.7 L60.1 79.6 Q61.8 82.2 65.7 82.2 69.6 82.2 72.95 78.65 74.35 77.2 77.35 72.55 77.95 71.6 78.8 68.1 79.7 64.45 79.7 62.6 L78.9 58.05 Q78.1 54.3 78.1 51.25 78.1 44.8 79.2 40.55 L82.6 28.1 Q83.15 25.8 84.45 22.4 L86.7 16.7 Q87.3 15.1 88.9 13.75 90.7 12.3 93.35 11.55 96.45 10.7 103.25 10.7 L105.75 9.95 109.75 8.85 112.85 8.35 Q115.25 8.35 115.25 9.45 L115.25 9.5 Q116.6 8.95 117.35 8.95 118.25 8.95 119.95 9.7 L123.5 8.2 127.75 6.1 129.0 4.35 Q129.6 3.2 130.95 3.2 L131.05 3.2 Q130.45 2.85 129.45 2.85 128.75 2.85 128.45 3.8 128.15 4.7 127.6 4.7 126.75 4.7 126.45 3.85 L126.35 3.1 Q126.35 2.05 128.45 0.9 130.5 -0.25 131.6 0.1 132.85 1.0 133.65 2.5 134.35 3.75 134.35 4.7 L133.95 6.85 M123.45 23.85 L123.75 24.45 124.45 24.75 125.35 25.05 Q125.85 25.05 127.4 23.1 129.15 20.9 131.1 20.2 133.15 19.45 135.25 20.25 L137.6 21.45 139.5 21.55 Q140.35 21.5 140.85 22.45 L141.25 23.65 Q141.25 24.3 140.05 26.2 L138.5 28.6 Q137.5 31.05 134.6 33.45 L134.45 33.45 Q135.2 32.8 135.0 32.2 L134.6 30.85 Q134.6 29.75 135.1 28.8 L135.1 28.7 Q129.0 29.15 127.7 29.85 126.55 30.5 126.1 31.45 125.8 32.0 125.6 33.2 127.25 33.45 127.25 34.65 127.25 35.4 125.35 38.7 127.0 38.6 127.0 40.25 127.0 40.85 126.0 43.2 127.75 43.2 127.75 44.95 127.75 45.55 124.6 50.85 121.1 56.85 120.35 58.55 L117.35 65.3 116.5 66.95 116.0 67.9 Q115.5 68.35 114.1 68.3 114.0 69.15 113.35 69.8 112.35 70.8 110.55 70.8 109.55 70.8 109.1 69.9 L108.85 68.95 109.05 67.95 109.35 67.05 108.95 67.7 108.0 68.55 106.85 68.95 Q106.6 69.35 106.6 69.7 L106.45 71.25 Q106.15 72.45 105.0 72.45 104.2 72.45 103.95 71.45 L103.85 70.45 Q103.85 67.4 106.85 57.4 109.3 49.3 110.35 46.8 114.65 36.25 115.9 33.5 120.55 23.2 122.35 23.2 123.05 23.2 123.45 23.85 M158.1 36.7 L160.2 37.2 Q161.2 37.45 161.2 38.4 161.2 38.95 159.85 39.95 L159.4 40.55 158.6 41.2 160.0 42.15 Q160.5 42.45 160.5 42.9 160.5 43.6 159.4 44.95 L157.5 47.2 157.45 47.35 Q158.85 46.95 159.3 47.7 L159.5 48.85 Q159.5 49.6 157.95 52.8 157.7 53.25 157.7 52.6 L157.95 51.65 158.2 50.7 158.15 50.3 158.1 50.3 158.0 50.1 Q156.0 51.2 152.5 56.1 L149.4 59.9 149.5 60.15 Q149.5 60.95 146.6 64.95 147.4 65.15 147.65 65.8 147.9 66.35 147.7 66.95 149.25 66.9 149.25 68.5 L145.0 76.2 Q140.7 83.6 140.7 85.1 L140.25 86.15 Q139.75 87.1 139.75 87.45 139.75 88.0 138.85 89.2 137.75 90.6 136.85 90.6 135.8 90.6 135.5 89.65 L135.35 88.6 135.25 88.45 133.35 88.7 132.1 89.35 Q131.15 89.35 130.9 89.0 L130.6 88.35 129.7 89.1 Q128.35 89.1 128.0 88.35 L127.85 87.55 127.25 86.75 126.6 86.05 126.0 87.0 Q125.55 87.6 124.95 87.6 123.55 87.6 123.2 86.9 L123.1 86.15 Q123.1 83.75 128.1 75.75 130.1 72.55 133.85 67.1 L140.1 57.7 Q141.5 55.55 144.1 53.05 144.55 52.6 145.35 52.1 145.35 50.8 147.45 48.05 148.3 46.95 148.4 45.95 148.5 44.95 149.0 44.3 L149.0 44.2 147.2 45.3 Q146.1 45.3 145.6 44.5 L145.2 43.55 143.85 42.65 Q143.6 42.3 143.6 41.8 143.6 40.1 145.5 40.1 L144.85 39.6 144.65 39.45 144.6 38.95 144.85 38.45 145.1 37.95 144.85 37.3 144.6 36.7 Q144.6 35.25 146.95 34.45 149.65 33.6 152.95 35.05 154.1 35.75 158.1 36.7 M108.75 12.7 L110.75 11.8 107.45 12.7 108.75 12.7 M147.35 55.55 L147.65 55.75 147.55 55.6 147.45 55.45 147.35 55.55 M141.2 82.85 L141.95 81.2 140.55 84.05 141.2 82.85" fill="#000000" fill-opacity="0.101960786" fill-rule="evenodd" stroke="none"/>
    </g>
    <linearGradient gradientTransform="matrix(0.0741, 0.0, 0.0, 0.178, 72.15, 146.9)" gradientUnits="userSpaceOnUse" id="gradient3" spreadMethod="pad" x1="-819.2" x2="819.2">
      <stop offset="0.0" stop-color="#e2d5cf"/>
      <stop offset="1.0" stop-color="#ac8075"/>
    </linearGradient>
    <g id="sprite4" transform="matrix(1.0, 0.0, 0.0, 1.0, 0.0, 0.0)">
      <use ffdec:characterId="3523" height="359.6" transform="matrix(1.0, 0.0, 0.0, 1.0, 0.0, 0.0)" width="640.0" xlink:href="#shape4"/>
    </g>
    <g id="shape4" transform="matrix(1.0, 0.0, 0.0, 1.0, 0.0, 0.0)">
      <path d="M0.0 0.0 L640.0 0.0 640.0 359.6 0.0 359.6 0.0 0.0" fill="url(#gradient4)" fill-rule="evenodd" stroke="none"/>
    </g>
    <linearGradient gradientTransform="matrix(-0.136, -0.2777, 0.1969, -0.0964, 320.0, 179.8)" gradientUnits="userSpaceOnUse" id="gradient4" spreadMethod="pad" x1="-819.2" x2="819.2">
      <stop offset="0.0" stop-color="#e6a000"/>
      <stop offset="1.0" stop-color="#2c006f"/>
    </linearGradient>
    <g id="sprite5" transform="matrix(1.0, 0.0, 0.0, 1.0, 265.1, 150.0)">
      <use ffdec:characterId="3477" height="300.0" transform="matrix(1.0, 0.0, 0.0, 1.0, -265.1, -150.0)" width="533.0" xlink:href="#shape5"/>
    </g>
    <g id="shape5" transform="matrix(1.0, 0.0, 0.0, 1.0, 265.1, 150.0)">
      <path d="M267.9 -150.0 L267.9 150.0 -265.1 150.0 -265.1 -150.0 267.9 -150.0 Z" fill="none" stroke="#ff0000" stroke-linecap="round" stroke-linejoin="round" stroke-width="0.05"/>
      <path d="M1.4 -16.05 L1.45 -16.05 Q9.35 -16.05 14.95 -11.35 20.55 -6.65 20.55 0.0 L39.5 0.0 M20.55 0.0 Q20.55 6.65 14.95 11.35 9.35 16.05 1.45 16.05 L1.4 16.05 1.4 21.45 M-36.65 0.0 L-17.55 0.0 -17.55 -0.05 Q-17.55 -6.65 -11.95 -11.35 -6.4 -16.05 1.4 -16.05 M1.4 16.05 Q-6.4 16.05 -11.95 11.35 -17.55 6.65 -17.55 0.0" fill="none" stroke="#ff0000" stroke-linecap="round" stroke-linejoin="round" stroke-opacity="0.2509804" stroke-width="0.05"/>
      <path d="M1.4 -16.05 L1.4 -21.4" fill="none" stroke="#ff0000" stroke-linecap="round" stroke-linejoin="round" stroke-opacity="0.2509804" stroke-width="1.0"/>
      <path d="M181.15 141.4 L181.15 123.6 191.05 123.6 191.05 141.4 181.15 141.4" fill="#ffffff" fill-rule="evenodd" stroke="none"/>
      <path d="M250.55 123.6 L260.45 123.6 260.45 141.4 260.35 141.4 250.55 141.4 250.55 123.6" fill="#000000" fill-rule="evenodd" stroke="none"/>
      <path d="M230.7 123.6 L240.6 123.6 240.6 141.4 230.7 141.4 230.7 123.6" fill="#ff0000" fill-rule="evenodd" stroke="none"/>
      <path d="M191.05 123.6 L201.0 123.6 201.0 141.4 191.05 141.4 191.05 123.6" fill="#ffff00" fill-rule="evenodd" stroke="none"/>
      <path d="M201.0 123.6 L210.9 123.6 210.9 141.4 201.0 141.4 201.0 123.6" fill="#00ffff" fill-rule="evenodd" stroke="none"/>
      <path d="M210.9 123.6 L220.8 123.6 220.8 141.4 210.9 141.4 210.9 123.6" fill="#00ff00" fill-rule="evenodd" stroke="none"/>
      <path d="M220.8 123.6 L230.7 123.6 230.7 141.4 220.8 141.4 220.8 123.6" fill="#ff00ff" fill-rule="evenodd" stroke="none"/>
      <path d="M240.6 123.6 L250.55 123.6 250.55 141.4 240.6 141.4 240.6 123.6" fill="#0000ff" fill-rule="evenodd" stroke="none"/>
      <path d="M260.35 141.4 L260.35 145.4 181.1 145.4 181.1 141.4 181.15 141.4 191.05 141.4 201.0 141.4 210.9 141.4 220.8 141.4 230.7 141.4 240.6 141.4 250.55 141.4 260.35 141.4" fill="url(#gradient5)" fill-rule="evenodd" stroke="none"/>
    </g>
    <linearGradient gradientTransform="matrix(0.0484, 0.0, 0.0, 0.0024, 220.7, 143.35)" gradientUnits="userSpaceOnUse" id="gradient5" spreadMethod="pad" x1="-819.2" x2="819.2">
      <stop offset="0.0" stop-color="#ffffff"/>
      <stop offset="1.0" stop-color="#000000"/>
    </linearGradient>
  </defs>
</svg>
