<?xml version="1.0" encoding="UTF-8" standalone="no"?>
<svg xmlns:ffdec="https://www.free-decompiler.com/flash" xmlns:xlink="http://www.w3.org/1999/xlink" ffdec:objectType="morphshape" height="168.0px" width="231.2px" xmlns="http://www.w3.org/2000/svg">
  <g transform="matrix(2.0, 0.0, 0.0, 2.0, 1782.5, 456.1)">
    <path d="M-787.65 -184.75 L-787.0 -183.45 Q-785.7 -181.6 -783.65 -182.55 -781.95 -183.35 -782.2 -185.2 -782.45 -187.5 -784.8 -187.9 -784.8 -187.8 -786.3 -187.15 -786.95 -186.8 -787.6 -185.5 L-787.65 -184.75 M-790.55 -199.2 L-789.9 -197.9 Q-788.65 -196.05 -786.55 -197.0 -784.85 -197.8 -785.1 -199.65 -785.35 -201.95 -787.65 -202.35 -787.65 -202.2 -789.2 -201.6 -789.85 -201.25 -790.5 -199.9 L-790.55 -199.2 M-802.4 -166.9 L-799.0 -163.8 -801.85 -167.25 -802.4 -166.9 M-803.65 -185.45 Q-803.9 -184.2 -803.3 -182.85 L-801.65 -179.75 Q-800.7 -178.25 -799.45 -179.25 L-799.3 -179.85 Q-798.5 -181.3 -799.65 -182.2 -800.8 -183.05 -802.6 -185.75 -803.55 -185.95 -803.65 -185.45 M-816.05 -191.0 Q-815.55 -188.7 -814.35 -186.45 -812.8 -183.6 -809.75 -182.8 -808.3 -182.4 -807.15 -183.3 -806.15 -184.6 -806.65 -186.15 -807.05 -187.65 -807.4 -189.1 L-808.0 -191.25 -808.6 -192.7 -809.6 -193.35 -810.8 -193.8 -812.7 -194.15 Q-813.2 -194.05 -814.6 -193.15 L-815.95 -191.7 -816.05 -191.0 M-819.4 -207.9 L-819.2 -207.15 -818.7 -206.35 Q-817.8 -203.8 -815.45 -205.2 -813.85 -206.15 -814.55 -207.8 -815.35 -209.75 -817.5 -210.05 -817.55 -209.95 -817.55 -209.9 -818.0 -209.8 -819.35 -208.55 L-819.4 -207.9 M-837.6 -205.45 Q-831.45 -194.9 -820.1 -184.9 L-818.8 -183.75 -818.25 -183.25 Q-811.6 -177.3 -805.3 -170.9 L-805.7 -170.4 -805.85 -170.15 -810.55 -174.65 Q-811.8 -174.65 -810.8 -173.65 L-806.15 -169.2 -806.15 -169.1 -806.2 -168.4 Q-805.65 -166.2 -803.6 -166.5 -802.25 -164.85 -801.3 -162.9 -800.35 -161.05 -798.85 -159.65 -799.5 -158.9 -799.55 -157.8 L-799.5 -157.1 Q-802.1 -158.8 -804.4 -161.0 -807.6 -164.0 -811.25 -166.45 L-811.85 -166.45 Q-810.6 -162.5 -806.15 -159.1 L-798.65 -153.15 Q-795.7 -150.7 -792.25 -149.85 L-792.55 -150.65 -792.5 -150.65 Q-791.75 -150.7 -791.0 -151.05 L-790.35 -151.3 -790.1 -151.1 Q-788.8 -149.95 -787.35 -149.05 L-786.95 -147.7 Q-785.75 -147.1 -784.5 -147.0 -783.85 -146.95 -783.5 -147.3 -781.35 -146.8 -780.25 -148.75 L-779.0 -148.6 Q-778.25 -148.75 -777.55 -148.9 -777.3 -149.25 -777.2 -149.65 -776.65 -151.4 -777.1 -153.0 -776.2 -153.55 -775.65 -154.9 L-775.75 -155.55 Q-776.45 -157.0 -777.85 -157.65 -779.1 -158.2 -780.0 -159.0 L-780.35 -159.25 -781.6 -163.95 Q-780.15 -161.25 -778.5 -159.0 -780.95 -166.0 -783.85 -172.7 L-785.95 -177.5 -791.55 -193.35 Q-794.7 -202.5 -799.95 -210.5 -800.1 -203.2 -796.2 -194.15 -793.6 -188.2 -791.55 -182.1 L-792.0 -182.35 Q-795.4 -181.85 -792.95 -178.75 -790.75 -175.95 -790.1 -177.55 L-789.25 -174.6 Q-786.95 -166.4 -783.35 -161.75 -784.55 -162.45 -785.75 -163.1 L-785.8 -162.95 -787.1 -162.4 -787.3 -162.25 -787.65 -162.4 -789.55 -162.25 Q-790.3 -162.15 -790.9 -161.7 -791.35 -161.15 -791.75 -160.6 L-791.95 -159.85 Q-792.55 -160.45 -793.3 -160.7 L-792.5 -160.95 Q-791.0 -161.45 -790.65 -163.05 -790.4 -164.1 -790.3 -165.25 -789.0 -166.95 -790.05 -168.9 L-792.0 -172.5 Q-793.05 -174.6 -795.35 -174.4 L-795.95 -173.8 Q-796.65 -171.9 -795.65 -170.15 L-795.4 -169.7 Q-796.25 -169.05 -797.1 -168.45 -797.9 -167.1 -798.65 -165.75 L-801.0 -168.6 Q-800.95 -169.25 -800.9 -169.85 -800.95 -172.0 -804.0 -172.5 -809.45 -179.8 -815.75 -186.15 -815.85 -187.25 -817.55 -187.9 L-820.0 -190.2 Q-828.75 -198.2 -837.5 -205.45 L-837.6 -205.45 M-837.45 -210.3 Q-836.75 -208.7 -835.95 -210.5 -835.35 -211.7 -836.3 -212.7 -837.0 -212.55 -837.3 -212.15 -837.9 -211.35 -837.45 -210.3 M-782.7 -175.7 Q-784.6 -174.0 -779.9 -174.3 -779.55 -176.4 -781.9 -176.1 L-782.7 -175.7" fill="#313131" fill-rule="evenodd" stroke="none">
      <animate attributeName="fill" dur="2s" repeatCount="indefinite" values="#313131;#313132"/>
      <animate attributeName="fill-opacity" dur="2s" repeatCount="indefinite" values="1.0;1.0"/>
      <animate attributeName="d" dur="2s" repeatCount="indefinite" values="M-787.65 -184.75 L-787.0 -183.45 Q-785.7 -181.6 -783.65 -182.55 -781.95 -183.35 -782.2 -185.2 -782.45 -187.5 -784.8 -187.9 -784.8 -187.8 -786.3 -187.15 -786.95 -186.8 -787.6 -185.5 L-787.65 -184.75 M-790.55 -199.2 L-789.9 -197.9 Q-788.65 -196.05 -786.55 -197.0 -784.85 -197.8 -785.1 -199.65 -785.35 -201.95 -787.65 -202.35 -787.65 -202.2 -789.2 -201.6 -789.85 -201.25 -790.5 -199.9 L-790.55 -199.2 M-802.4 -166.9 L-799.0 -163.8 -801.85 -167.25 -802.4 -166.9 M-803.65 -185.45 Q-803.9 -184.2 -803.3 -182.85 L-801.65 -179.75 Q-800.7 -178.25 -799.45 -179.25 L-799.3 -179.85 Q-798.5 -181.3 -799.65 -182.2 -800.8 -183.05 -802.6 -185.75 -803.55 -185.95 -803.65 -185.45 M-816.05 -191.0 Q-815.55 -188.7 -814.35 -186.45 -812.8 -183.6 -809.75 -182.8 -808.3 -182.4 -807.15 -183.3 -806.15 -184.6 -806.65 -186.15 -807.05 -187.65 -807.4 -189.1 L-808.0 -191.25 -808.6 -192.7 -809.6 -193.35 -810.8 -193.8 -812.7 -194.15 Q-813.2 -194.05 -814.6 -193.15 L-815.95 -191.7 -816.05 -191.0 M-819.4 -207.9 L-819.2 -207.15 -818.7 -206.35 Q-817.8 -203.8 -815.45 -205.2 -813.85 -206.15 -814.55 -207.8 -815.35 -209.75 -817.5 -210.05 -817.55 -209.95 -817.55 -209.9 -818.0 -209.8 -819.35 -208.55 L-819.4 -207.9 M-837.6 -205.45 Q-831.45 -194.9 -820.1 -184.9 L-818.8 -183.75 -818.25 -183.25 Q-811.6 -177.3 -805.3 -170.9 L-805.7 -170.4 -805.85 -170.15 -810.55 -174.65 Q-811.8 -174.65 -810.8 -173.65 L-806.15 -169.2 -806.15 -169.1 -806.2 -168.4 Q-805.65 -166.2 -803.6 -166.5 -802.25 -164.85 -801.3 -162.9 -800.35 -161.05 -798.85 -159.65 -799.5 -158.9 -799.55 -157.8 L-799.5 -157.1 Q-802.1 -158.8 -804.4 -161.0 -807.6 -164.0 -811.25 -166.45 L-811.85 -166.45 Q-810.6 -162.5 -806.15 -159.1 L-798.65 -153.15 Q-795.7 -150.7 -792.25 -149.85 L-792.55 -150.65 -792.5 -150.65 Q-791.75 -150.7 -791.0 -151.05 L-790.35 -151.3 -790.1 -151.1 Q-788.8 -149.95 -787.35 -149.05 L-786.95 -147.7 Q-785.75 -147.1 -784.5 -147.0 -783.85 -146.95 -783.5 -147.3 -781.35 -146.8 -780.25 -148.75 L-779.0 -148.6 Q-778.25 -148.75 -777.55 -148.9 -777.3 -149.25 -777.2 -149.65 -776.65 -151.4 -777.1 -153.0 -776.2 -153.55 -775.65 -154.9 L-775.75 -155.55 Q-776.45 -157.0 -777.85 -157.65 -779.1 -158.2 -780.0 -159.0 L-780.35 -159.25 -781.6 -163.95 Q-780.15 -161.25 -778.5 -159.0 -780.95 -166.0 -783.85 -172.7 L-785.95 -177.5 -791.55 -193.35 Q-794.7 -202.5 -799.95 -210.5 -800.1 -203.2 -796.2 -194.15 -793.6 -188.2 -791.55 -182.1 L-792.0 -182.35 Q-795.4 -181.85 -792.95 -178.75 -790.75 -175.95 -790.1 -177.55 L-789.25 -174.6 Q-786.95 -166.4 -783.35 -161.75 -784.55 -162.45 -785.75 -163.1 L-785.8 -162.95 -787.1 -162.4 -787.3 -162.25 -787.65 -162.4 -789.55 -162.25 Q-790.3 -162.15 -790.9 -161.7 -791.35 -161.15 -791.75 -160.6 L-791.95 -159.85 Q-792.55 -160.45 -793.3 -160.7 L-792.5 -160.95 Q-791.0 -161.45 -790.65 -163.05 -790.4 -164.1 -790.3 -165.25 -789.0 -166.95 -790.05 -168.9 L-792.0 -172.5 Q-793.05 -174.6 -795.35 -174.4 L-795.95 -173.8 Q-796.65 -171.9 -795.65 -170.15 L-795.4 -169.7 Q-796.25 -169.05 -797.1 -168.45 -797.9 -167.1 -798.65 -165.75 L-801.0 -168.6 Q-800.95 -169.25 -800.9 -169.85 -800.95 -172.0 -804.0 -172.5 -809.45 -179.8 -815.75 -186.15 -815.85 -187.25 -817.55 -187.9 L-820.0 -190.2 Q-828.75 -198.2 -837.5 -205.45 L-837.6 -205.45 M-837.45 -210.3 Q-836.75 -208.7 -835.95 -210.5 -835.35 -211.7 -836.3 -212.7 -837.0 -212.55 -837.3 -212.15 -837.9 -211.35 -837.45 -210.3 M-782.7 -175.7 Q-784.6 -174.0 -779.9 -174.3 -779.55 -176.4 -781.9 -176.1 L-782.7 -175.7;M-819.5 -193.25 L-819.35 -192.3 Q-818.75 -191.45 -818.15 -190.65 -815.95 -188.3 -813.55 -189.5 -811.65 -190.55 -812.55 -192.9 -813.55 -195.85 -816.65 -196.15 -817.6 -195.9 -819.4 -194.1 L-819.5 -193.25 M-827.55 -211.65 L-827.35 -210.8 Q-826.85 -209.9 -826.15 -209.15 -824.05 -206.8 -821.6 -208.0 -819.65 -209.0 -820.55 -211.4 -821.55 -214.3 -824.65 -214.6 -825.65 -214.35 -827.4 -212.6 L-827.55 -211.65 M-832.9 -169.5 L-827.6 -165.55 -832.25 -169.95 -832.9 -169.5 M-840.0 -193.25 Q-839.95 -191.6 -838.8 -189.85 L-835.8 -185.95 Q-834.1 -184.05 -832.8 -185.25 L-832.75 -186.05 Q-832.2 -187.95 -833.9 -189.05 -835.7 -190.15 -838.75 -193.6 -840.05 -193.85 -840.0 -193.25 M-857.6 -201.2 Q-857.55 -200.75 -857.55 -200.3 -856.2 -197.35 -854.0 -194.5 -851.2 -190.85 -847.05 -189.85 -845.05 -189.35 -843.8 -190.45 -843.0 -192.1 -844.05 -194.1 L-845.9 -197.85 -847.35 -200.65 -848.5 -202.45 -850.0 -203.3 -851.65 -203.9 Q-852.95 -204.2 -855.2 -203.9 L-857.1 -202.2 -857.6 -201.2 M-867.05 -222.75 L-866.85 -221.9 -866.4 -220.95 Q-865.95 -220.4 -865.55 -219.9 -863.65 -216.7 -861.05 -218.45 -859.3 -219.65 -860.7 -221.8 -862.25 -224.25 -865.1 -224.7 -865.95 -224.2 -866.75 -223.7 L-867.05 -222.75 M-889.45 -218.8 Q-878.4 -205.3 -860.9 -192.55 L-858.9 -191.05 -858.05 -190.4 Q-847.75 -182.8 -837.75 -174.6 L-838.15 -173.95 -838.25 -173.65 -845.6 -179.4 Q-847.2 -179.4 -845.65 -178.15 L-838.35 -172.45 -838.35 -172.3 -838.2 -171.45 Q-836.8 -168.6 -834.3 -169.0 -832.05 -166.85 -830.25 -164.4 -828.5 -162.05 -826.15 -160.25 -826.75 -159.3 -826.5 -157.9 L-826.2 -156.95 Q-830.05 -159.1 -833.65 -161.95 -838.65 -165.8 -844.05 -168.9 L-844.8 -168.9 Q-842.05 -163.9 -835.35 -159.55 L-823.95 -151.9 Q-819.45 -148.8 -814.75 -147.7 L-815.4 -148.7 -815.3 -148.7 Q-814.4 -148.8 -813.55 -149.2 L-812.8 -149.55 -812.35 -149.3 Q-810.4 -147.8 -808.3 -146.7 L-807.35 -144.95 Q-805.65 -144.15 -804.05 -144.05 -803.15 -144.0 -802.85 -144.45 -799.9 -143.8 -799.1 -146.3 L-797.45 -146.1 Q-796.55 -146.05 -795.7 -146.5 -795.5 -146.95 -795.45 -147.45 -795.3 -149.7 -796.35 -151.75 -795.4 -152.4 -795.1 -154.15 L-795.4 -155.0 Q-796.7 -156.85 -798.75 -157.65 -800.35 -158.55 -801.9 -159.4 L-802.4 -159.7 -805.35 -165.7 Q-802.65 -162.55 -800.0 -159.4 -805.15 -168.35 -810.9 -176.9 L-815.0 -183.05 -826.9 -203.3 Q-833.65 -215.05 -842.8 -225.25 -840.8 -215.9 -833.15 -204.35 -828.0 -196.75 -823.55 -188.9 L-824.2 -189.25 Q-828.4 -188.65 -824.3 -184.65 -820.7 -181.1 -820.35 -183.1 L-818.35 -179.35 Q-812.95 -168.85 -806.95 -162.9 -808.6 -163.95 -810.4 -164.65 L-810.45 -164.45 -811.95 -163.75 -812.15 -163.55 -812.65 -163.75 -815.0 -163.55 Q-815.95 -163.45 -816.6 -162.85 -817.25 -162.35 -817.35 -161.45 L-817.4 -160.5 Q-818.35 -161.25 -819.35 -161.55 L-818.4 -161.9 Q-816.65 -162.5 -816.7 -164.6 -816.85 -166.0 -816.95 -167.35 -815.75 -169.55 -817.65 -172.05 L-821.25 -176.65 Q-823.2 -179.35 -826.1 -179.1 L-826.7 -178.3 Q-827.05 -175.9 -825.2 -173.65 L-824.75 -173.1 Q-825.85 -172.5 -826.55 -171.45 -827.2 -170.45 -827.7 -168.05 L-831.6 -171.7 Q-831.55 -172.4 -831.85 -173.25 -832.55 -176.05 -836.55 -176.65 -845.75 -186.0 -855.7 -194.1 -856.15 -195.5 -858.55 -196.35 L-862.35 -199.3 Q-875.95 -209.5 -889.3 -218.8 L-889.45 -218.8 M-891.05 -227.35 Q-891.55 -226.35 -890.7 -224.95 -889.3 -222.95 -888.85 -225.25 -888.45 -226.8 -889.95 -228.05 -890.5 -227.7 -891.05 -227.35 M-810.3 -180.75 Q-812.25 -178.55 -806.3 -178.95 -806.5 -181.65 -809.4 -181.25 L-810.3 -180.75"/>
    </path>
    <path d="M-837.45 -210.3 Q-837.9 -211.35 -837.3 -212.15 -837.0 -212.55 -836.3 -212.7 -835.35 -211.7 -835.95 -210.5 -836.75 -208.7 -837.45 -210.3 M-837.6 -205.45 L-837.5 -205.45 Q-828.75 -198.2 -820.0 -190.2 L-817.55 -187.9 Q-815.85 -187.25 -815.75 -186.15 -809.45 -179.8 -804.0 -172.5 -800.95 -172.0 -800.9 -169.85 -800.95 -169.25 -801.0 -168.6 L-798.65 -165.75 Q-797.9 -167.1 -797.1 -168.45 -796.25 -169.05 -795.4 -169.7 L-795.65 -170.15 Q-796.65 -171.9 -795.95 -173.8 L-795.35 -174.4 Q-793.05 -174.6 -792.0 -172.5 L-790.05 -168.9 Q-789.0 -166.95 -790.3 -165.25 -790.4 -164.1 -790.65 -163.05 -791.0 -161.45 -792.5 -160.95 L-793.3 -160.7 Q-792.55 -160.45 -791.95 -159.85 L-791.75 -160.6 Q-791.35 -161.15 -790.9 -161.7 -790.3 -162.15 -789.55 -162.25 L-787.65 -162.4 -787.3 -162.25 -787.1 -162.4 -785.8 -162.95 -785.75 -163.1 Q-784.55 -162.45 -783.35 -161.75 -786.95 -166.4 -789.25 -174.6 L-790.1 -177.55 Q-790.75 -175.95 -792.95 -178.75 -795.4 -181.85 -792.0 -182.35 L-791.55 -182.1 Q-793.6 -188.2 -796.2 -194.15 -800.1 -203.2 -799.95 -210.5 -794.7 -202.5 -791.55 -193.35 L-785.95 -177.5 -783.85 -172.7 Q-780.95 -166.0 -778.5 -159.0 -780.15 -161.25 -781.6 -163.95 L-780.35 -159.25 -780.0 -159.0 Q-779.1 -158.2 -777.85 -157.65 -776.45 -157.0 -775.75 -155.55 L-775.65 -154.9 Q-776.2 -153.55 -777.1 -153.0 -776.65 -151.4 -777.2 -149.65 -777.3 -149.25 -777.55 -148.9 -778.25 -148.75 -779.0 -148.6 L-780.25 -148.75 Q-781.35 -146.8 -783.5 -147.3 -783.85 -146.95 -784.5 -147.0 -785.75 -147.1 -786.95 -147.7 L-787.35 -149.05 Q-788.8 -149.95 -790.1 -151.1 L-790.35 -151.3 -791.0 -151.05 Q-791.75 -150.7 -792.5 -150.65 L-792.55 -150.65 -792.25 -149.85 Q-795.7 -150.7 -798.65 -153.15 L-806.15 -159.1 Q-810.6 -162.5 -811.85 -166.45 L-811.25 -166.45 Q-807.6 -164.0 -804.4 -161.0 -802.1 -158.8 -799.5 -157.1 L-799.55 -157.8 Q-799.5 -158.9 -798.85 -159.65 -800.35 -161.05 -801.3 -162.9 -802.25 -164.85 -803.6 -166.5 -805.65 -166.2 -806.2 -168.4 L-806.15 -169.1 -806.15 -169.2 -810.8 -173.65 Q-811.8 -174.65 -810.55 -174.65 L-805.85 -170.15 -805.7 -170.4 -805.3 -170.9 Q-811.6 -177.3 -818.25 -183.25 L-818.8 -183.75 -820.1 -184.9 Q-831.45 -194.9 -837.6 -205.45 M-819.4 -207.9 L-819.35 -208.55 Q-818.0 -209.8 -817.55 -209.9 -817.55 -209.95 -817.5 -210.05 -815.35 -209.75 -814.55 -207.8 -813.85 -206.15 -815.45 -205.2 -817.8 -203.8 -818.7 -206.35 L-819.2 -207.15 -819.4 -207.9 M-816.05 -191.0 L-815.95 -191.7 -814.6 -193.15 Q-813.2 -194.05 -812.7 -194.15 L-810.8 -193.8 -809.6 -193.35 -808.6 -192.7 -808.0 -191.25 -807.4 -189.1 Q-807.05 -187.65 -806.65 -186.15 -806.15 -184.6 -807.15 -183.3 -808.3 -182.4 -809.75 -182.8 -812.8 -183.6 -814.35 -186.45 -815.55 -188.7 -816.05 -191.0 M-803.65 -185.45 Q-803.55 -185.95 -802.6 -185.75 -800.8 -183.05 -799.65 -182.2 -798.5 -181.3 -799.3 -179.85 L-799.45 -179.25 Q-800.7 -178.25 -801.65 -179.75 L-803.3 -182.85 Q-803.9 -184.2 -803.65 -185.45 M-802.4 -166.9 L-801.85 -167.25 -799.0 -163.8 -802.4 -166.9 M-790.55 -199.2 L-790.5 -199.9 Q-789.85 -201.25 -789.2 -201.6 -787.65 -202.2 -787.65 -202.35 -785.35 -201.95 -785.1 -199.65 -784.85 -197.8 -786.55 -197.0 -788.65 -196.05 -789.9 -197.9 L-790.55 -199.2 M-787.65 -184.75 L-787.6 -185.5 Q-786.95 -186.8 -786.3 -187.15 -784.8 -187.8 -784.8 -187.9 -782.45 -187.5 -782.2 -185.2 -781.95 -183.35 -783.65 -182.55 -785.7 -181.6 -787.0 -183.45 L-787.65 -184.75 M-782.7 -175.7 L-781.9 -176.1 Q-780.2 -172.3 -782.05 -173.0 -784.6 -174.0 -782.7 -175.7 L-781.9 -176.1 Q-780.2 -172.3 -782.05 -173.0 -784.6 -174.0 -782.7 -175.7 L-781.9 -176.1 Q-779.55 -176.4 -779.9 -174.3 -784.6 -174.0 -782.7 -175.7 L-781.9 -176.1 Q-779.55 -176.4 -779.9 -174.3 -784.6 -174.0 -782.7 -175.7 Z" fill="none" stroke="#000000" stroke-linecap="round" stroke-linejoin="round" stroke-opacity="0.0" stroke-width="0.0">
      <animate attributeName="stroke" dur="2s" repeatCount="indefinite" values="#000000;#000001"/>
      <animate attributeName="stroke-width" dur="2s" repeatCount="indefinite" values="0.0;0.0"/>
      <animate attributeName="fill-opacity" dur="2s" repeatCount="indefinite" values="0.0;0.0"/>
      <animate attributeName="d" dur="2s" repeatCount="indefinite" values="M-837.45 -210.3 Q-837.9 -211.35 -837.3 -212.15 -837.0 -212.55 -836.3 -212.7 -835.35 -211.7 -835.95 -210.5 -836.75 -208.7 -837.45 -210.3 M-837.6 -205.45 L-837.5 -205.45 Q-828.75 -198.2 -820.0 -190.2 L-817.55 -187.9 Q-815.85 -187.25 -815.75 -186.15 -809.45 -179.8 -804.0 -172.5 -800.95 -172.0 -800.9 -169.85 -800.95 -169.25 -801.0 -168.6 L-798.65 -165.75 Q-797.9 -167.1 -797.1 -168.45 -796.25 -169.05 -795.4 -169.7 L-795.65 -170.15 Q-796.65 -171.9 -795.95 -173.8 L-795.35 -174.4 Q-793.05 -174.6 -792.0 -172.5 L-790.05 -168.9 Q-789.0 -166.95 -790.3 -165.25 -790.4 -164.1 -790.65 -163.05 -791.0 -161.45 -792.5 -160.95 L-793.3 -160.7 Q-792.55 -160.45 -791.95 -159.85 L-791.75 -160.6 Q-791.35 -161.15 -790.9 -161.7 -790.3 -162.15 -789.55 -162.25 L-787.65 -162.4 -787.3 -162.25 -787.1 -162.4 -785.8 -162.95 -785.75 -163.1 Q-784.55 -162.45 -783.35 -161.75 -786.95 -166.4 -789.25 -174.6 L-790.1 -177.55 Q-790.75 -175.95 -792.95 -178.75 -795.4 -181.85 -792.0 -182.35 L-791.55 -182.1 Q-793.6 -188.2 -796.2 -194.15 -800.1 -203.2 -799.95 -210.5 -794.7 -202.5 -791.55 -193.35 L-785.95 -177.5 -783.85 -172.7 Q-780.95 -166.0 -778.5 -159.0 -780.15 -161.25 -781.6 -163.95 L-780.35 -159.25 -780.0 -159.0 Q-779.1 -158.2 -777.85 -157.65 -776.45 -157.0 -775.75 -155.55 L-775.65 -154.9 Q-776.2 -153.55 -777.1 -153.0 -776.65 -151.4 -777.2 -149.65 -777.3 -149.25 -777.55 -148.9 -778.25 -148.75 -779.0 -148.6 L-780.25 -148.75 Q-781.35 -146.8 -783.5 -147.3 -783.85 -146.95 -784.5 -147.0 -785.75 -147.1 -786.95 -147.7 L-787.35 -149.05 Q-788.8 -149.95 -790.1 -151.1 L-790.35 -151.3 -791.0 -151.05 Q-791.75 -150.7 -792.5 -150.65 L-792.55 -150.65 -792.25 -149.85 Q-795.7 -150.7 -798.65 -153.15 L-806.15 -159.1 Q-810.6 -162.5 -811.85 -166.45 L-811.25 -166.45 Q-807.6 -164.0 -804.4 -161.0 -802.1 -158.8 -799.5 -157.1 L-799.55 -157.8 Q-799.5 -158.9 -798.85 -159.65 -800.35 -161.05 -801.3 -162.9 -802.25 -164.85 -803.6 -166.5 -805.65 -166.2 -806.2 -168.4 L-806.15 -169.1 -806.15 -169.2 -810.8 -173.65 Q-811.8 -174.65 -810.55 -174.65 L-805.85 -170.15 -805.7 -170.4 -805.3 -170.9 Q-811.6 -177.3 -818.25 -183.25 L-818.8 -183.75 -820.1 -184.9 Q-831.45 -194.9 -837.6 -205.45 M-819.4 -207.9 L-819.35 -208.55 Q-818.0 -209.8 -817.55 -209.9 -817.55 -209.95 -817.5 -210.05 -815.35 -209.75 -814.55 -207.8 -813.85 -206.15 -815.45 -205.2 -817.8 -203.8 -818.7 -206.35 L-819.2 -207.15 -819.4 -207.9 M-816.05 -191.0 L-815.95 -191.7 -814.6 -193.15 Q-813.2 -194.05 -812.7 -194.15 L-810.8 -193.8 -809.6 -193.35 -808.6 -192.7 -808.0 -191.25 -807.4 -189.1 Q-807.05 -187.65 -806.65 -186.15 -806.15 -184.6 -807.15 -183.3 -808.3 -182.4 -809.75 -182.8 -812.8 -183.6 -814.35 -186.45 -815.55 -188.7 -816.05 -191.0 M-803.65 -185.45 Q-803.55 -185.95 -802.6 -185.75 -800.8 -183.05 -799.65 -182.2 -798.5 -181.3 -799.3 -179.85 L-799.45 -179.25 Q-800.7 -178.25 -801.65 -179.75 L-803.3 -182.85 Q-803.9 -184.2 -803.65 -185.45 M-802.4 -166.9 L-801.85 -167.25 -799.0 -163.8 -802.4 -166.9 M-790.55 -199.2 L-790.5 -199.9 Q-789.85 -201.25 -789.2 -201.6 -787.65 -202.2 -787.65 -202.35 -785.35 -201.95 -785.1 -199.65 -784.85 -197.8 -786.55 -197.0 -788.65 -196.05 -789.9 -197.9 L-790.55 -199.2 M-787.65 -184.75 L-787.6 -185.5 Q-786.95 -186.8 -786.3 -187.15 -784.8 -187.8 -784.8 -187.9 -782.45 -187.5 -782.2 -185.2 -781.95 -183.35 -783.65 -182.55 -785.7 -181.6 -787.0 -183.45 L-787.65 -184.75 M-782.7 -175.7 L-781.9 -176.1 Q-780.2 -172.3 -782.05 -173.0 -784.6 -174.0 -782.7 -175.7 L-781.9 -176.1 Q-780.2 -172.3 -782.05 -173.0 -784.6 -174.0 -782.7 -175.7 L-781.9 -176.1 Q-779.55 -176.4 -779.9 -174.3 -784.6 -174.0 -782.7 -175.7 L-781.9 -176.1 Q-779.55 -176.4 -779.9 -174.3 -784.6 -174.0 -782.7 -175.7 Z;M-891.05 -227.35 Q-890.5 -227.7 -889.95 -228.05 -888.45 -226.8 -888.85 -225.25 -889.3 -222.95 -890.7 -224.95 -891.55 -226.35 -891.05 -227.35 M-889.45 -218.8 L-889.3 -218.8 Q-875.95 -209.5 -862.35 -199.3 L-858.55 -196.35 Q-856.15 -195.5 -855.7 -194.1 -845.75 -186.0 -836.55 -176.65 -832.55 -176.05 -831.85 -173.25 -831.55 -172.4 -831.6 -171.7 L-827.7 -168.05 Q-827.2 -170.45 -826.55 -171.45 -825.85 -172.5 -824.75 -173.1 L-825.2 -173.65 Q-827.05 -175.9 -826.7 -178.3 L-826.1 -179.1 Q-823.2 -179.35 -821.25 -176.65 L-817.65 -172.05 Q-815.75 -169.55 -816.95 -167.35 -816.85 -166.0 -816.7 -164.6 -816.65 -162.5 -818.4 -161.9 L-819.35 -161.55 Q-818.35 -161.25 -817.4 -160.5 L-817.35 -161.45 Q-817.25 -162.35 -816.6 -162.85 -815.95 -163.45 -815.0 -163.55 L-812.65 -163.75 -812.15 -163.55 -811.95 -163.75 -810.45 -164.45 -810.4 -164.65 Q-808.6 -163.95 -806.95 -162.9 -812.95 -168.85 -818.35 -179.35 L-820.35 -183.1 Q-820.7 -181.1 -824.3 -184.65 -828.4 -188.65 -824.2 -189.25 L-823.55 -188.9 Q-828.0 -196.75 -833.15 -204.35 -840.8 -215.9 -842.8 -225.25 -833.65 -215.05 -826.9 -203.3 L-815.0 -183.05 -810.9 -176.9 Q-805.15 -168.35 -800.0 -159.4 -802.65 -162.55 -805.35 -165.7 L-802.4 -159.7 -801.9 -159.4 Q-800.35 -158.55 -798.75 -157.65 -796.7 -156.85 -795.4 -155.0 L-795.1 -154.15 Q-795.4 -152.4 -796.35 -151.75 -795.3 -149.7 -795.45 -147.45 -795.5 -146.95 -795.7 -146.5 -796.55 -146.05 -797.45 -146.1 L-799.1 -146.3 Q-799.9 -143.8 -802.85 -144.45 -803.15 -144.0 -804.05 -144.05 -805.65 -144.15 -807.35 -144.95 L-808.3 -146.7 Q-810.4 -147.8 -812.35 -149.3 L-812.8 -149.55 -813.55 -149.2 Q-814.4 -148.8 -815.3 -148.7 L-815.4 -148.7 -814.75 -147.7 Q-819.45 -148.8 -823.95 -151.9 L-835.35 -159.55 Q-842.05 -163.9 -844.8 -168.9 L-844.05 -168.9 Q-838.65 -165.8 -833.65 -161.95 -830.05 -159.1 -826.2 -156.95 L-826.5 -157.9 Q-826.75 -159.3 -826.15 -160.25 -828.5 -162.05 -830.25 -164.4 -832.05 -166.85 -834.3 -169.0 -836.8 -168.6 -838.2 -171.45 L-838.35 -172.3 -838.35 -172.45 -845.65 -178.15 Q-847.2 -179.4 -845.6 -179.4 L-838.25 -173.65 -838.15 -173.95 -837.75 -174.6 Q-847.75 -182.8 -858.05 -190.4 L-858.9 -191.05 -860.9 -192.55 Q-878.4 -205.3 -889.45 -218.8 M-867.05 -222.75 L-866.75 -223.7 Q-865.95 -224.2 -865.1 -224.7 -862.25 -224.25 -860.7 -221.8 -859.3 -219.65 -861.05 -218.45 -863.65 -216.7 -865.55 -219.9 -865.95 -220.4 -866.4 -220.95 L-866.85 -221.9 -867.05 -222.75 M-857.6 -201.2 L-857.1 -202.2 -855.2 -203.9 Q-852.95 -204.2 -851.65 -203.9 L-850.0 -203.3 -848.5 -202.45 -847.35 -200.65 -845.9 -197.85 -844.05 -194.1 Q-843.0 -192.1 -843.8 -190.45 -845.05 -189.35 -847.05 -189.85 -851.2 -190.85 -854.0 -194.5 -856.2 -197.35 -857.55 -200.3 -857.55 -200.75 -857.6 -201.2 M-840.0 -193.25 Q-840.05 -193.85 -838.75 -193.6 -835.7 -190.15 -833.9 -189.05 -832.2 -187.95 -832.75 -186.05 L-832.8 -185.25 Q-834.1 -184.05 -835.8 -185.95 L-838.8 -189.85 Q-839.95 -191.6 -840.0 -193.25 M-832.9 -169.5 L-832.25 -169.95 -827.6 -165.55 -832.9 -169.5 M-827.55 -211.65 L-827.4 -212.6 Q-825.65 -214.35 -824.65 -214.6 -821.55 -214.3 -820.55 -211.4 -819.65 -209.0 -821.6 -208.0 -824.05 -206.8 -826.15 -209.15 -826.85 -209.9 -827.35 -210.8 L-827.55 -211.65 M-819.5 -193.25 L-819.4 -194.1 Q-817.6 -195.9 -816.65 -196.15 -813.55 -195.85 -812.55 -192.9 -811.65 -190.55 -813.55 -189.5 -815.95 -188.3 -818.15 -190.65 -818.75 -191.45 -819.35 -192.3 L-819.5 -193.25 M-819.15 -152.7 L-818.65 -152.6 Q-818.35 -152.2 -818.0 -151.75 -818.55 -152.2 -819.15 -152.7 L-818.65 -152.6 Q-818.35 -152.2 -818.0 -151.75 -818.55 -152.2 -819.15 -152.7 L-809.4 -181.25 Q-806.5 -181.65 -806.3 -178.95 -812.25 -178.55 -810.3 -180.75 L-809.4 -181.25 Q-806.5 -181.65 -806.3 -178.95 -812.25 -178.55 -810.3 -180.75 Z"/>
    </path>
  </g>
</svg>
