<?xml version="1.0" encoding="UTF-8" standalone="no"?>
<svg xmlns:ffdec="https://www.free-decompiler.com/flash" xmlns:xlink="http://www.w3.org/1999/xlink" ffdec:objectType="morphshape" height="837.4px" width="684.4px" xmlns="http://www.w3.org/2000/svg">
  <g transform="matrix(2.0, 0.0, 0.0, 2.0, 386.2, 274.3)">
    <path d="M-113.1 257.55 L-112.95 258.95 -112.3 259.35 -104.05 258.5 -103.75 259.05 -102.55 259.35 -101.5 258.35 -87.9 258.75 Q-82.35 259.45 -68.9 263.1 -38.85 271.2 3.2 271.2 50.35 271.2 91.15 262.55 L115.95 256.5 116.1 256.5 116.35 260.7 116.85 271.3 Q117.45 278.55 120.1 281.55 121.1 281.3 122.0 280.3 122.85 279.25 122.85 278.45 122.85 276.45 121.9 268.65 L120.7 259.35 120.5 255.4 Q127.55 253.8 130.4 253.8 L131.6 253.8 140.35 256.35 Q141.55 256.75 143.15 257.75 144.75 258.9 145.15 258.95 147.5 257.15 147.5 256.25 147.5 253.25 138.45 250.85 129.0 248.4 120.3 251.2 119.95 244.2 119.95 240.3 119.95 215.1 122.25 198.7 124.7 180.75 132.4 153.8 136.55 135.95 140.35 117.1 147.75 79.85 147.75 66.65 147.75 65.7 148.45 61.3 L149.1 55.9 Q149.1 54.25 148.55 52.1 L148.55 49.95 Q148.55 34.65 144.0 8.9 139.65 -16.2 135.6 -25.5 124.95 -49.7 115.0 -64.4 101.15 -85.0 80.15 -101.85 63.4 -115.3 30.65 -128.1 10.9 -133.8 9.15 -134.45 -0.7 -137.3 -7.6 -137.15 -16.65 -136.85 -23.25 -131.5 -27.8 -127.85 -32.0 -122.45 -35.85 -117.6 -38.0 -113.2 -48.3 -91.6 -48.3 -37.2 -48.3 -7.65 -45.3 18.35 L-40.05 62.75 -40.15 62.75 -40.05 62.8 -38.0 80.95 -38.0 91.2 -38.4 103.15 -38.75 115.05 Q-39.95 123.8 -43.7 139.3 -47.85 156.55 -48.85 162.75 L-50.6 174.85 Q-51.75 182.7 -53.1 186.6 -54.7 191.4 -59.3 198.7 L-67.15 210.45 Q-74.45 221.35 -86.65 233.9 -94.2 241.8 -96.9 245.05 -101.6 250.6 -103.25 254.2 L-109.45 255.0 Q-113.1 255.8 -113.1 257.55" fill="#000000" fill-rule="evenodd" stroke="none">
      <animate attributeName="fill" dur="2s" repeatCount="indefinite" values="#000000;#000001"/>
      <animate attributeName="fill-opacity" dur="2s" repeatCount="indefinite" values="1.0;1.0"/>
      <animate attributeName="d" dur="2s" repeatCount="indefinite" values="M-113.1 257.55 L-112.95 258.95 -112.3 259.35 -104.05 258.5 -103.75 259.05 -102.55 259.35 -101.5 258.35 -87.9 258.75 Q-82.35 259.45 -68.9 263.1 -38.85 271.2 3.2 271.2 50.35 271.2 91.15 262.55 L115.95 256.5 116.1 256.5 116.35 260.7 116.85 271.3 Q117.45 278.55 120.1 281.55 121.1 281.3 122.0 280.3 122.85 279.25 122.85 278.45 122.85 276.45 121.9 268.65 L120.7 259.35 120.5 255.4 Q127.55 253.8 130.4 253.8 L131.6 253.8 140.35 256.35 Q141.55 256.75 143.15 257.75 144.75 258.9 145.15 258.95 147.5 257.15 147.5 256.25 147.5 253.25 138.45 250.85 129.0 248.4 120.3 251.2 119.95 244.2 119.95 240.3 119.95 215.1 122.25 198.7 124.7 180.75 132.4 153.8 136.55 135.95 140.35 117.1 147.75 79.85 147.75 66.65 147.75 65.7 148.45 61.3 L149.1 55.9 Q149.1 54.25 148.55 52.1 L148.55 49.95 Q148.55 34.65 144.0 8.9 139.65 -16.2 135.6 -25.5 124.95 -49.7 115.0 -64.4 101.15 -85.0 80.15 -101.85 63.4 -115.3 30.65 -128.1 10.9 -133.8 9.15 -134.45 -0.7 -137.3 -7.6 -137.15 -16.65 -136.85 -23.25 -131.5 -27.8 -127.85 -32.0 -122.45 -35.85 -117.6 -38.0 -113.2 -48.3 -91.6 -48.3 -37.2 -48.3 -7.65 -45.3 18.35 L-40.05 62.75 -40.15 62.75 -40.05 62.8 -38.0 80.95 -38.0 91.2 -38.4 103.15 -38.75 115.05 Q-39.95 123.8 -43.7 139.3 -47.85 156.55 -48.85 162.75 L-50.6 174.85 Q-51.75 182.7 -53.1 186.6 -54.7 191.4 -59.3 198.7 L-67.15 210.45 Q-74.45 221.35 -86.65 233.9 -94.2 241.8 -96.9 245.05 -101.6 250.6 -103.25 254.2 L-109.45 255.0 Q-113.1 255.8 -113.1 257.55;M-193.1 156.45 L-193.0 157.35 -192.6 157.6 -187.4 157.05 -187.2 157.4 -186.45 157.6 -185.8 156.95 -177.25 157.2 Q-173.75 157.65 -165.3 159.95 -146.4 165.05 -119.95 165.05 -90.3 165.05 -64.65 159.6 L-49.05 155.8 -48.95 155.8 -48.8 158.45 -48.5 165.1 Q-48.1 169.65 -46.45 171.55 -45.85 171.15 -45.25 170.75 -44.7 170.1 -44.7 169.6 -45.0 166.5 -45.3 163.45 L-46.05 157.6 -46.2 155.1 Q-43.05 154.6 -39.95 154.1 L-39.2 154.1 -33.7 155.7 Q-32.95 155.95 -31.95 156.6 -31.3 157.0 -30.7 157.35 -29.2 156.2 -29.2 155.65 -29.2 153.75 -34.9 152.25 -40.85 150.7 -46.3 152.45 -46.45 149.0 -46.55 145.6 -46.55 129.75 -45.1 119.45 -43.55 108.15 -38.7 91.2 -36.2 79.65 -33.7 68.15 -29.05 44.7 -29.05 36.4 -28.8 34.7 -28.6 33.05 L-28.2 29.65 Q-28.2 28.6 -28.55 27.25 L-28.55 25.9 Q-28.55 16.3 -31.4 0.1 -34.15 -15.7 -36.7 -21.55 -43.4 -36.75 -49.65 -46.0 -58.35 -58.95 -71.55 -69.55 -82.1 -78.0 -102.7 -86.05 -109.45 -88.05 -116.2 -90.05 -122.4 -91.85 -126.75 -91.75 -132.45 -91.55 -136.6 -88.2 -139.45 -85.9 -142.1 -82.5 -144.5 -79.45 -145.85 -76.7 -152.35 -63.1 -152.35 -28.9 -152.35 -10.3 -150.45 6.05 L-147.15 33.95 -147.2 33.95 -147.15 34.0 -145.85 45.4 -145.85 51.85 -146.1 59.35 -146.35 66.85 Q-147.1 72.35 -149.45 82.1 -152.05 92.95 -152.7 96.85 L-153.8 104.45 Q-154.5 109.4 -155.35 111.85 -156.35 114.85 -159.25 119.45 L-164.2 126.85 Q-168.8 133.7 -176.45 141.6 -179.7 145.1 -182.9 148.6 -185.85 152.1 -186.9 154.35 L-190.8 154.85 Q-193.1 155.35 -193.1 156.45"/>
    </path>
    <path d="M-113.1 257.55 Q-113.1 255.8 -109.45 255.0 L-103.25 254.2 Q-101.6 250.6 -96.9 245.05 -94.2 241.8 -86.65 233.9 -74.45 221.35 -67.15 210.45 L-59.3 198.7 Q-54.7 191.4 -53.1 186.6 -51.75 182.7 -50.6 174.85 L-48.85 162.75 Q-47.85 156.55 -43.7 139.3 -39.95 123.8 -38.75 115.05 L-38.4 103.15 -38.0 91.2 -38.0 80.95 -40.05 62.8 -40.15 62.75 -40.05 62.75 -45.3 18.35 Q-48.3 -7.65 -48.3 -37.2 -48.3 -91.6 -38.0 -113.2 -35.85 -117.6 -32.0 -122.45 -27.8 -127.85 -23.25 -131.5 -16.65 -136.85 -7.6 -137.15 -0.7 -137.3 9.15 -134.45 10.9 -133.8 30.65 -128.1 63.4 -115.3 80.15 -101.85 101.15 -85.0 115.0 -64.4 124.95 -49.7 135.6 -25.5 139.65 -16.2 144.0 8.9 148.55 34.65 148.55 49.95 L148.55 52.1 Q149.1 54.25 149.1 55.9 L148.45 61.3 Q147.75 65.7 147.75 66.65 147.75 79.85 140.35 117.1 136.55 135.95 132.4 153.8 124.7 180.75 122.25 198.7 119.95 215.1 119.95 240.3 119.95 244.2 120.3 251.2 129.0 248.4 138.45 250.85 147.5 253.25 147.5 256.25 147.5 257.15 145.15 258.95 144.75 258.9 143.15 257.75 141.55 256.75 140.35 256.35 L131.6 253.8 130.4 253.8 Q127.55 253.8 120.5 255.4 L120.7 259.35 121.9 268.65 Q122.85 276.45 122.85 278.45 122.85 279.25 122.0 280.3 121.1 281.3 120.1 281.55 117.45 278.55 116.85 271.3 L116.35 260.7 116.1 256.5 115.95 256.5 91.15 262.55 Q50.35 271.2 3.2 271.2 -38.85 271.2 -68.9 263.1 -82.35 259.45 -87.9 258.75 L-101.5 258.35 -102.55 259.35 -103.75 259.05 -104.05 258.5 -112.3 259.35 -112.95 258.95 -113.1 257.55 Z" fill="none" stroke="#000000" stroke-linecap="round" stroke-linejoin="round" stroke-opacity="0.0" stroke-width="0.0">
      <animate attributeName="stroke" dur="2s" repeatCount="indefinite" values="#000000;#000001"/>
      <animate attributeName="stroke-width" dur="2s" repeatCount="indefinite" values="0.0;0.0"/>
      <animate attributeName="fill-opacity" dur="2s" repeatCount="indefinite" values="0.0;0.0"/>
      <animate attributeName="d" dur="2s" repeatCount="indefinite" values="M-113.1 257.55 Q-113.1 255.8 -109.45 255.0 L-103.25 254.2 Q-101.6 250.6 -96.9 245.05 -94.2 241.8 -86.65 233.9 -74.45 221.35 -67.15 210.45 L-59.3 198.7 Q-54.7 191.4 -53.1 186.6 -51.75 182.7 -50.6 174.85 L-48.85 162.75 Q-47.85 156.55 -43.7 139.3 -39.95 123.8 -38.75 115.05 L-38.4 103.15 -38.0 91.2 -38.0 80.95 -40.05 62.8 -40.15 62.75 -40.05 62.75 -45.3 18.35 Q-48.3 -7.65 -48.3 -37.2 -48.3 -91.6 -38.0 -113.2 -35.85 -117.6 -32.0 -122.45 -27.8 -127.85 -23.25 -131.5 -16.65 -136.85 -7.6 -137.15 -0.7 -137.3 9.15 -134.45 10.9 -133.8 30.65 -128.1 63.4 -115.3 80.15 -101.85 101.15 -85.0 115.0 -64.4 124.95 -49.7 135.6 -25.5 139.65 -16.2 144.0 8.9 148.55 34.65 148.55 49.95 L148.55 52.1 Q149.1 54.25 149.1 55.9 L148.45 61.3 Q147.75 65.7 147.75 66.65 147.75 79.85 140.35 117.1 136.55 135.95 132.4 153.8 124.7 180.75 122.25 198.7 119.95 215.1 119.95 240.3 119.95 244.2 120.3 251.2 129.0 248.4 138.45 250.85 147.5 253.25 147.5 256.25 147.5 257.15 145.15 258.95 144.75 258.9 143.15 257.75 141.55 256.75 140.35 256.35 L131.6 253.8 130.4 253.8 Q127.55 253.8 120.5 255.4 L120.7 259.35 121.9 268.65 Q122.85 276.45 122.85 278.45 122.85 279.25 122.0 280.3 121.1 281.3 120.1 281.55 117.45 278.55 116.85 271.3 L116.35 260.7 116.1 256.5 115.95 256.5 91.15 262.55 Q50.35 271.2 3.2 271.2 -38.85 271.2 -68.9 263.1 -82.35 259.45 -87.9 258.75 L-101.5 258.35 -102.55 259.35 -103.75 259.05 -104.05 258.5 -112.3 259.35 -112.95 258.95 -113.1 257.55 Z;M-193.1 156.45 Q-193.1 155.35 -190.8 154.85 L-186.9 154.35 Q-185.85 152.1 -182.9 148.6 -179.7 145.1 -176.45 141.6 -168.8 133.7 -164.2 126.85 L-159.25 119.45 Q-156.35 114.85 -155.35 111.85 -154.5 109.4 -153.8 104.45 L-152.7 96.85 Q-152.05 92.95 -149.45 82.1 -147.1 72.35 -146.35 66.85 L-146.1 59.35 -145.85 51.85 -145.85 45.4 -147.15 34.0 -147.2 33.95 -147.15 33.95 -150.45 6.05 Q-152.35 -10.3 -152.35 -28.9 -152.35 -63.1 -145.85 -76.7 -144.5 -79.45 -142.1 -82.5 -139.45 -85.9 -136.6 -88.2 -132.45 -91.55 -126.75 -91.75 -122.4 -91.85 -116.2 -90.05 -109.45 -88.05 -102.7 -86.05 -82.1 -78.0 -71.55 -69.55 -58.35 -58.95 -49.65 -46.0 -43.4 -36.75 -36.7 -21.55 -34.15 -15.7 -31.4 0.1 -28.55 16.3 -28.55 25.9 L-28.55 27.25 Q-28.2 28.6 -28.2 29.65 L-28.6 33.05 Q-28.8 34.7 -29.05 36.4 -29.05 44.7 -33.7 68.15 -36.2 79.65 -38.7 91.2 -43.55 108.15 -45.1 119.45 -46.55 129.75 -46.55 145.6 -46.45 149.0 -46.3 152.45 -40.85 150.7 -34.9 152.25 -29.2 153.75 -29.2 155.65 -29.2 156.2 -30.7 157.35 -31.3 157.0 -31.95 156.6 -32.95 155.95 -33.7 155.7 L-39.2 154.1 -39.95 154.1 Q-43.05 154.6 -46.2 155.1 L-46.05 157.6 -45.3 163.45 Q-45.0 166.5 -44.7 169.6 -44.7 170.1 -45.25 170.75 -45.85 171.15 -46.45 171.55 -48.1 169.65 -48.5 165.1 L-48.8 158.45 -48.95 155.8 -49.05 155.8 -64.65 159.6 Q-90.3 165.05 -119.95 165.05 -146.4 165.05 -165.3 159.95 -173.75 157.65 -177.25 157.2 L-185.8 156.95 -186.45 157.6 -187.2 157.4 -187.4 157.05 -192.6 157.6 -193.0 157.35 -193.1 156.45 Z"/>
    </path>
  </g>
</svg>
