<?xml version="1.0" encoding="UTF-8" standalone="no"?>
<svg xmlns:ffdec="https://www.free-decompiler.com/flash" xmlns:xlink="http://www.w3.org/1999/xlink" ffdec:objectType="morphshape" height="315.9px" width="363.3px" xmlns="http://www.w3.org/2000/svg">
  <g transform="matrix(2.0, 0.0, 0.0, 2.0, -101.9, -217.4)">
    <path d="M51.75 184.65 Q47.35 216.9 66.9 240.5 86.4 264.05 129.55 259.25 172.65 254.45 206.15 235.85 239.65 217.25 230.7 184.95 221.75 152.65 197.2 131.4 172.65 110.15 138.5 110.15 104.35 110.15 80.2 131.25 56.1 152.4 51.75 184.65" fill="#0033ff" fill-rule="evenodd" stroke="none">
      <animate attributeName="fill" dur="2s" repeatCount="indefinite" values="#0033ff;#0033ff"/>
      <animate attributeName="fill-opacity" dur="2s" repeatCount="indefinite" values="1.0;1.0"/>
      <animate attributeName="d" dur="2s" repeatCount="indefinite" values="M51.75 184.65 Q47.35 216.9 66.9 240.5 86.4 264.05 129.55 259.25 172.65 254.45 206.15 235.85 239.65 217.25 230.7 184.95 221.75 152.65 197.2 131.4 172.65 110.15 138.5 110.15 104.35 110.15 80.2 131.25 56.1 152.4 51.75 184.65;M57.5 191.1 Q47.35 216.9 66.9 245.5 86.4 274.1 128.5 264.0 170.6 253.85 199.05 231.75 227.5 209.65 224.65 181.15 221.75 152.65 192.85 129.25 163.9 105.8 133.6 109.1 103.3 112.4 85.45 138.85 67.6 165.3 57.5 191.1"/>
    </path>
    <path d="M51.75 184.65 Q56.1 152.4 80.2 131.25 104.35 110.15 138.5 110.15 172.65 110.15 197.2 131.4 221.75 152.65 230.7 184.95 239.65 217.25 206.15 235.85 172.65 254.45 129.55 259.25 86.4 264.05 66.9 240.5 47.35 216.9 51.75 184.65 Z" fill="none" stroke="#000000" stroke-linecap="round" stroke-linejoin="round" stroke-opacity="0.0" stroke-width="0.0">
      <animate attributeName="stroke" dur="2s" repeatCount="indefinite" values="#000000;#000001"/>
      <animate attributeName="stroke-width" dur="2s" repeatCount="indefinite" values="0.0;0.0"/>
      <animate attributeName="fill-opacity" dur="2s" repeatCount="indefinite" values="0.0;0.0"/>
      <animate attributeName="d" dur="2s" repeatCount="indefinite" values="M51.75 184.65 Q56.1 152.4 80.2 131.25 104.35 110.15 138.5 110.15 172.65 110.15 197.2 131.4 221.75 152.65 230.7 184.95 239.65 217.25 206.15 235.85 172.65 254.45 129.55 259.25 86.4 264.05 66.9 240.5 47.35 216.9 51.75 184.65 Z;M57.5 191.1 Q67.6 165.3 85.45 138.85 103.3 112.4 133.6 109.1 163.9 105.8 192.85 129.25 221.75 152.65 224.65 181.15 227.5 209.65 199.05 231.75 170.6 253.85 128.5 264.0 86.4 274.1 66.9 245.5 47.35 216.9 57.5 191.1 Z"/>
    </path>
  </g>
</svg>
