<?xml version="1.0" encoding="UTF-8" standalone="no"?>
<svg xmlns:ffdec="https://www.free-decompiler.com/flash" xmlns:xlink="http://www.w3.org/1999/xlink" ffdec:objectType="morphshape" height="315.9px" width="362.6px" xmlns="http://www.w3.org/2000/svg">
  <g transform="matrix(2.0, 0.0, 0.0, 2.0, -101.3, -217.4)">
    <path d="M57.5 191.1 Q47.35 216.9 66.9 245.5 86.4 274.1 128.5 264.0 170.6 253.85 199.05 231.75 227.5 209.65 224.65 181.15 221.75 152.65 192.85 129.25 163.9 105.8 133.6 109.1 103.3 112.4 85.45 138.85 67.6 165.3 57.5 191.1" fill="#0033ff" fill-rule="evenodd" stroke="none">
      <animate attributeName="fill" dur="2s" repeatCount="indefinite" values="#0033ff;#0033ff"/>
      <animate attributeName="fill-opacity" dur="2s" repeatCount="indefinite" values="1.0;1.0"/>
      <animate attributeName="d" dur="2s" repeatCount="indefinite" values="M57.5 191.1 Q47.35 216.9 66.9 245.5 86.4 274.1 128.5 264.0 170.6 253.85 199.05 231.75 227.5 209.65 224.65 181.15 221.75 152.65 192.85 129.25 163.9 105.8 133.6 109.1 103.3 112.4 85.45 138.85 67.6 165.3 57.5 191.1;M54.45 231.2 Q62.05 246.1 116.5 250.3 170.95 254.45 204.4 241.55 237.85 228.6 230.7 189.2 223.5 149.75 195.15 127.9 166.7 106.05 133.7 110.55 100.65 115.05 81.4 131.35 62.15 147.6 54.5 181.95 46.8 216.25 54.45 231.2"/>
    </path>
    <path d="M57.5 191.1 Q67.6 165.3 85.45 138.85 103.3 112.4 133.6 109.1 163.9 105.8 192.85 129.25 221.75 152.65 224.65 181.15 227.5 209.65 199.05 231.75 170.6 253.85 128.5 264.0 86.4 274.1 66.9 245.5 47.35 216.9 57.5 191.1 Z" fill="none" stroke="#000000" stroke-linecap="round" stroke-linejoin="round" stroke-opacity="0.0" stroke-width="0.0">
      <animate attributeName="stroke" dur="2s" repeatCount="indefinite" values="#000000;#000001"/>
      <animate attributeName="stroke-width" dur="2s" repeatCount="indefinite" values="0.0;0.0"/>
      <animate attributeName="fill-opacity" dur="2s" repeatCount="indefinite" values="0.0;0.0"/>
      <animate attributeName="d" dur="2s" repeatCount="indefinite" values="M57.5 191.1 Q67.6 165.3 85.45 138.85 103.3 112.4 133.6 109.1 163.9 105.8 192.85 129.25 221.75 152.65 224.65 181.15 227.5 209.65 199.05 231.75 170.6 253.85 128.5 264.0 86.4 274.1 66.9 245.5 47.35 216.9 57.5 191.1 Z;M54.45 231.2 Q46.8 216.25 54.5 181.95 62.15 147.6 81.4 131.35 100.65 115.05 133.7 110.55 166.7 106.05 195.15 127.9 223.5 149.75 230.7 189.2 237.85 228.6 204.4 241.55 170.95 254.45 116.5 250.3 62.05 246.1 54.45 231.2 Z"/>
    </path>
  </g>
</svg>
