<?xml version="1.0" encoding="UTF-8" standalone="no"?>
<svg xmlns:ffdec="https://www.free-decompiler.com/flash" xmlns:xlink="http://www.w3.org/1999/xlink" ffdec:objectType="morphshape" height="300.5px" width="363.9px" xmlns="http://www.w3.org/2000/svg">
  <g transform="matrix(2.0, 0.0, 0.0, 2.0, -101.3, -219.6)">
    <path d="M54.45 231.2 Q62.05 246.1 116.5 250.3 170.95 254.45 204.4 241.55 237.85 228.6 230.7 189.2 223.5 149.75 195.15 127.9 166.7 106.05 133.7 110.55 100.65 115.05 81.4 131.35 62.15 147.6 54.5 181.95 46.8 216.25 54.45 231.2" fill="#0033ff" fill-rule="evenodd" stroke="none">
      <animate attributeName="fill" dur="2s" repeatCount="indefinite" values="#0033ff;#0033ff"/>
      <animate attributeName="fill-opacity" dur="2s" repeatCount="indefinite" values="1.0;1.0"/>
      <animate attributeName="d" dur="2s" repeatCount="indefinite" values="M54.45 231.2 Q62.05 246.1 116.5 250.3 170.95 254.45 204.4 241.55 237.85 228.6 230.7 189.2 223.5 149.75 195.15 127.9 166.7 106.05 133.7 110.55 100.65 115.05 81.4 131.35 62.15 147.6 54.5 181.95 46.8 216.25 54.45 231.2;M51.75 184.65 Q47.35 216.9 66.9 240.5 86.4 264.05 129.55 259.25 172.65 254.45 206.15 235.85 239.65 217.25 230.7 184.95 221.75 152.65 197.2 131.4 172.65 110.15 138.5 110.15 104.35 110.15 80.2 131.25 56.1 152.4 51.75 184.65"/>
    </path>
    <path d="M54.45 231.2 Q46.8 216.25 54.5 181.95 62.15 147.6 81.4 131.35 100.65 115.05 133.7 110.55 166.7 106.05 195.15 127.9 223.5 149.75 230.7 189.2 237.85 228.6 204.4 241.55 170.95 254.45 116.5 250.3 62.05 246.1 54.45 231.2 Z" fill="none" stroke="#000000" stroke-linecap="round" stroke-linejoin="round" stroke-opacity="0.0" stroke-width="0.0">
      <animate attributeName="stroke" dur="2s" repeatCount="indefinite" values="#000000;#000001"/>
      <animate attributeName="stroke-width" dur="2s" repeatCount="indefinite" values="0.0;0.0"/>
      <animate attributeName="fill-opacity" dur="2s" repeatCount="indefinite" values="0.0;0.0"/>
      <animate attributeName="d" dur="2s" repeatCount="indefinite" values="M54.45 231.2 Q46.8 216.25 54.5 181.95 62.15 147.6 81.4 131.35 100.65 115.05 133.7 110.55 166.7 106.05 195.15 127.9 223.5 149.75 230.7 189.2 237.85 228.6 204.4 241.55 170.95 254.45 116.5 250.3 62.05 246.1 54.45 231.2 Z;M51.75 184.65 Q56.1 152.4 80.2 131.25 104.35 110.15 138.5 110.15 172.65 110.15 197.2 131.4 221.75 152.65 230.7 184.95 239.65 217.25 206.15 235.85 172.65 254.45 129.55 259.25 86.4 264.05 66.9 240.5 47.35 216.9 51.75 184.65 Z"/>
    </path>
  </g>
</svg>
