<?xml version="1.0" encoding="UTF-8" standalone="no"?>
<svg xmlns:ffdec="https://www.free-decompiler.com/flash" xmlns:xlink="http://www.w3.org/1999/xlink" ffdec:objectType="frame" height="335.1px" width="425.5px" xmlns="http://www.w3.org/2000/svg">
  <g transform="matrix(2.0, 0.0, 0.0, 2.0, 254.2, 187.0)">
    <use ffdec:characterId="1267" height="47.25" transform="matrix(1.0, 0.0, 0.0, 1.0, -86.75, -79.8)" width="102.35" xlink:href="#shape0"/>
    <use ffdec:characterId="105" height="45.1" transform="matrix(0.2402, -0.1703, 0.5766, 0.8132, -56.9529, 15.152)" width="355.1" xlink:href="#shape1"/>
  </g>
  <defs>
    <g id="shape0" transform="matrix(1.0, 0.0, 0.0, 1.0, 86.75, 79.8)">
      <path d="M15.35 -49.95 Q15.6 -49.95 15.6 -49.15 L15.15 -47.6 Q14.6 -47.6 14.6 -47.3 L12.95 -47.85 12.85 -48.6 Q12.85 -49.45 14.6 -49.95 14.95 -49.8 15.35 -49.95 M-82.15 -36.1 Q-81.7 -35.45 -81.7 -34.9 -81.7 -33.8 -82.85 -33.1 -83.7 -32.55 -84.45 -32.55 -86.75 -32.55 -86.75 -34.85 -86.8 -37.15 -84.45 -37.15 -82.9 -37.15 -82.15 -36.1 M-24.1 -76.55 L-24.3 -78.0 Q-24.3 -79.8 -22.85 -79.8 -22.25 -79.8 -20.65 -77.85 L-20.75 -76.85 Q-20.9 -76.45 -21.75 -76.45 L-24.1 -76.55 M-21.45 -66.75 L-21.5 -65.1 -22.85 -64.55 Q-24.25 -65.85 -24.25 -66.25 -24.25 -67.6 -22.85 -67.75 -21.55 -67.35 -21.45 -66.75 M-55.65 -53.9 L-56.0 -52.45 -57.2 -52.0 Q-59.4 -52.0 -59.4 -53.9 L-59.1 -55.3 -57.75 -55.55 Q-55.65 -54.1 -55.65 -53.9" fill="#ffffff" fill-rule="evenodd" stroke="none"/>
    </g>
    <g id="shape1" transform="matrix(1.0, 0.0, 0.0, 1.0, 177.55, 22.55)">
      <path d="M125.55 -15.95 Q177.55 -9.35 177.55 0.0 177.55 9.35 125.55 15.95 73.6 22.55 0.0 22.55 -73.6 22.55 -125.55 15.95 -177.55 9.35 -177.55 0.0 -177.55 -9.35 -125.55 -15.95 -73.6 -22.55 0.0 -22.55 73.6 -22.55 125.55 -15.95" fill="url(#gradient0)" fill-rule="evenodd" stroke="none"/>
    </g>
    <radialGradient cx="0" cy="0" gradientTransform="matrix(0.2204, 0.0, 0.0, 0.028, -0.05, 0.0)" gradientUnits="userSpaceOnUse" id="gradient0" r="819.2" spreadMethod="pad">
      <stop offset="0.06274509803921569" stop-color="#ffffff" stop-opacity="0.30588236"/>
      <stop offset="0.12941176470588237" stop-color="#ffffff" stop-opacity="0.2509804"/>
      <stop offset="0.21176470588235294" stop-color="#ffffff" stop-opacity="0.23529412"/>
      <stop offset="0.44313725490196076" stop-color="#ffffff" stop-opacity="0.0627451"/>
      <stop offset="0.9098039215686274" stop-color="#ffffff" stop-opacity="0.0"/>
    </radialGradient>
  </defs>
</svg>
