<?xml version="1.0" encoding="UTF-8" standalone="no"?>
<svg xmlns:ffdec="https://www.free-decompiler.com/flash" xmlns:xlink="http://www.w3.org/1999/xlink" ffdec:objectType="frame" height="335.1px" width="425.5px" xmlns="http://www.w3.org/2000/svg">
  <g transform="matrix(2.0, 0.0, 0.0, 2.0, 254.2, 187.0)">
    <use ffdec:characterId="1260" height="70.25" transform="matrix(1.0, 0.0, 0.0, 1.0, -70.1, -63.25)" width="81.1" xlink:href="#shape0"/>
    <use ffdec:characterId="105" height="45.1" transform="matrix(0.3964, -0.281, 0.5766, 0.8132, -84.6788, 34.8096)" width="355.1" xlink:href="#shape1"/>
  </g>
  <defs>
    <g id="shape0" transform="matrix(1.0, 0.0, 0.0, 1.0, 70.1, 63.25)">
      <path d="M2.2 -42.65 Q2.2 -41.55 1.3 -40.8 0.6 -40.25 0.0 -40.25 -2.25 -40.25 -2.8 -43.0 -2.8 -45.2 0.0 -45.2 2.3 -45.2 2.2 -42.65 M11.0 -43.0 Q8.7 -27.15 8.55 -22.6 7.0 -10.15 6.65 -4.9 L8.55 -0.6 Q8.55 0.25 7.8 1.15 7.15 1.95 6.7 1.95 3.95 1.95 3.35 1.1 L2.75 0.5 1.1 3.9 Q-0.7 7.0 -1.65 7.0 -2.95 7.0 -8.35 3.05 L-23.5 1.7 -30.45 -0.35 Q-33.85 -1.65 -33.85 -3.9 -33.85 -4.75 -32.75 -5.15 L-26.65 -6.8 Q-70.1 -28.65 -70.1 -31.45 -70.1 -33.6 -67.55 -33.6 -57.8 -33.6 -26.55 -16.85 L-21.05 -13.9 Q-23.65 -15.7 -28.95 -21.05 -34.95 -27.05 -34.95 -27.8 -34.95 -30.1 -32.35 -30.1 -30.55 -30.1 -19.4 -21.7 L-5.15 -11.25 Q-25.0 -55.8 -25.0 -59.6 -25.0 -63.25 -22.3 -63.25 -20.4 -63.25 -6.65 -31.9 L-0.7 -19.5 Q-0.15 -25.05 0.9 -30.35 3.8 -45.75 8.65 -45.75 11.05 -45.75 11.0 -43.0 M-22.55 -50.2 Q-21.9 -48.85 -21.9 -47.4 -21.9 -44.95 -24.6 -44.95 -29.4 -44.95 -29.25 -49.4 -29.25 -52.7 -26.65 -52.7 -23.75 -52.7 -22.55 -50.2" fill="#ffffff" fill-rule="evenodd" stroke="none"/>
    </g>
    <g id="shape1" transform="matrix(1.0, 0.0, 0.0, 1.0, 177.55, 22.55)">
      <path d="M125.55 -15.95 Q177.55 -9.35 177.55 0.0 177.55 9.35 125.55 15.95 73.6 22.55 0.0 22.55 -73.6 22.55 -125.55 15.95 -177.55 9.35 -177.55 0.0 -177.55 -9.35 -125.55 -15.95 -73.6 -22.55 0.0 -22.55 73.6 -22.55 125.55 -15.95" fill="url(#gradient0)" fill-rule="evenodd" stroke="none"/>
    </g>
    <radialGradient cx="0" cy="0" gradientTransform="matrix(0.2204, 0.0, 0.0, 0.028, -0.05, 0.0)" gradientUnits="userSpaceOnUse" id="gradient0" r="819.2" spreadMethod="pad">
      <stop offset="0.06274509803921569" stop-color="#ffffff" stop-opacity="0.92156863"/>
      <stop offset="0.12941176470588237" stop-color="#ffffff" stop-opacity="0.7490196"/>
      <stop offset="0.21176470588235294" stop-color="#ffffff" stop-opacity="0.7019608"/>
      <stop offset="0.44313725490196076" stop-color="#ffffff" stop-opacity="0.19215687"/>
      <stop offset="0.9098039215686274" stop-color="#ffffff" stop-opacity="0.0"/>
    </radialGradient>
  </defs>
</svg>
