<?xml version="1.0" encoding="UTF-8" standalone="no"?>
<svg xmlns:ffdec="https://www.free-decompiler.com/flash" xmlns:xlink="http://www.w3.org/1999/xlink" ffdec:objectType="frame" height="335.1px" width="425.5px" xmlns="http://www.w3.org/2000/svg">
  <g transform="matrix(2.0, 0.0, 0.0, 2.0, 254.2, 187.0)">
    <use ffdec:characterId="1265" height="65.0" transform="matrix(1.0, 0.0, 0.0, 1.0, -86.9, -90.85)" width="101.75" xlink:href="#shape0"/>
    <use ffdec:characterId="105" height="45.1" transform="matrix(0.2988, -0.2118, 0.5766, 0.8132, -67.3008, 22.5234)" width="355.1" xlink:href="#shape1"/>
  </g>
  <defs>
    <g id="shape0" transform="matrix(1.0, 0.0, 0.0, 1.0, 86.9, 90.85)">
      <path d="M13.2 -45.65 Q8.8 -45.65 9.6 -48.05 9.6 -50.25 12.15 -50.25 14.4 -50.25 14.85 -47.95 14.05 -45.65 13.2 -45.65 M-81.7 -37.45 Q-79.65 -37.45 -75.45 -34.3 -71.5 -31.25 -71.5 -30.3 -71.5 -25.85 -74.9 -25.85 -80.85 -25.85 -86.9 -34.35 -86.9 -37.45 -81.7 -37.45 M-25.6 -78.95 Q-21.45 -78.95 -21.65 -71.6 -21.65 -68.25 -23.2 -68.25 -26.5 -68.25 -27.75 -76.75 -27.75 -78.95 -25.6 -78.95 M-33.0 -90.6 Q-32.45 -91.35 -32.45 -89.95 L-32.75 -89.1 Q-34.1 -89.25 -34.1 -90.45 L-33.0 -90.6 M-52.2 -51.25 L-49.5 -46.95 Q-49.5 -44.65 -51.75 -44.65 -55.3 -44.65 -58.85 -53.45 -58.85 -55.55 -56.65 -55.55 -55.2 -55.55 -52.2 -51.25" fill="#ffffff" fill-rule="evenodd" stroke="none"/>
    </g>
    <g id="shape1" transform="matrix(1.0, 0.0, 0.0, 1.0, 177.55, 22.55)">
      <path d="M125.55 -15.95 Q177.55 -9.35 177.55 0.0 177.55 9.35 125.55 15.95 73.6 22.55 0.0 22.55 -73.6 22.55 -125.55 15.95 -177.55 9.35 -177.55 0.0 -177.55 -9.35 -125.55 -15.95 -73.6 -22.55 0.0 -22.55 73.6 -22.55 125.55 -15.95" fill="url(#gradient0)" fill-rule="evenodd" stroke="none"/>
    </g>
    <radialGradient cx="0" cy="0" gradientTransform="matrix(0.2204, 0.0, 0.0, 0.028, -0.05, 0.0)" gradientUnits="userSpaceOnUse" id="gradient0" r="819.2" spreadMethod="pad">
      <stop offset="0.06274509803921569" stop-color="#ffffff" stop-opacity="0.5372549"/>
      <stop offset="0.12941176470588237" stop-color="#ffffff" stop-opacity="0.4392157"/>
      <stop offset="0.21176470588235294" stop-color="#ffffff" stop-opacity="0.4117647"/>
      <stop offset="0.44313725490196076" stop-color="#ffffff" stop-opacity="0.11372549"/>
      <stop offset="0.9098039215686274" stop-color="#ffffff" stop-opacity="0.0"/>
    </radialGradient>
  </defs>
</svg>
