<?xml version="1.0" encoding="UTF-8" standalone="no"?>
<svg xmlns:ffdec="https://www.free-decompiler.com/flash" xmlns:xlink="http://www.w3.org/1999/xlink" ffdec:objectType="frame" height="554.6px" width="561.3px" xmlns="http://www.w3.org/2000/svg">
  <g transform="matrix(2.0, 0.0, 0.0, 2.0, 279.5, 454.5)">
    <filter id="filter0">
      <feFlood flood-color="#ffffff" flood-opacity="0.49803922" result="filterResult0"/>
      <feOffset dx="3.5355799791601" dy="3.535487832104965" in="SourceGraphic" result="filterResult1"/>
      <feComposite in="filterResult0" in2="filterResult1" operator="out" result="filterResult2"/>
      <feComposite in="filterResult2" in2="SourceGraphic" operator="in" result="filterResult3"/>
      <feColorMatrix in="filterResult3" result="filterResult4" type="matrix" values="1 0 0 0 0,0 1 0 0 0,0 0 1 0 0,0 0 0 10.0 0"/>
      <feFlood flood-color="#000000" flood-opacity="0.49803922" result="filterResult5"/>
      <feOffset dx="-3.535579979160101" dy="-3.5354878321049648" in="SourceGraphic" result="filterResult6"/>
      <feComposite in="filterResult5" in2="filterResult6" operator="out" result="filterResult7"/>
      <feComposite in="filterResult7" in2="SourceGraphic" operator="in" result="filterResult8"/>
      <feColorMatrix in="filterResult8" result="filterResult9" type="matrix" values="1 0 0 0 0,0 1 0 0 0,0 0 1 0 0,0 0 0 10.0 0"/>
      <feComposite in="filterResult4" in2="filterResult9" operator="out" result="filterResult10"/>
      <feComposite in="filterResult9" in2="filterResult4" operator="out" result="filterResult11"/>
      <feComposite in="filterResult11" in2="filterResult10" operator="over" result="filterResult12"/>
      <feConvolveMatrix divisor="9.0" in="filterResult12" kernelMatrix="1 1 1 1 1 1 1 1 1" order="3 3" result="filterResult13"/>
      <feComposite in="filterResult13" in2="SourceGraphic" operator="in" result="filterResult14"/>
      <feComposite in="filterResult14" in2="SourceGraphic" operator="over" result="filterResult15"/>
      <feColorMatrix in="filterResult15" result="filterResult16" type="matrix" values="0 0 0 0 0.0,0 0 0 0 0.0,0 0 0 0 0.0,0 0 0 1 0"/>
      <feConvolveMatrix divisor="4.0" in="filterResult16" kernelMatrix="1 1 1 1" order="2 2" result="filterResult17"/>
      <feComposite in="filterResult15" in2="filterResult17" operator="over" result="filterResult18"/>
      <feOffset dx="3.5355799791601" dy="3.535487832104965" in="filterResult18" result="filterResult19"/>
      <feColorMatrix in="filterResult19" result="filterResult20" type="matrix" values="0 0 0 0 0.0,0 0 0 0 0.0,0 0 0 0 0.0,0 0 0 1 0"/>
      <feConvolveMatrix divisor="25.0" in="filterResult20" kernelMatrix="1 1 1 1 1 1 1 1 1 1 1 1 1 1 1 1 1 1 1 1 1 1 1 1 1" order="5 5" result="filterResult21"/>
      <feComposite in="filterResult18" in2="filterResult21" operator="over" result="filterResult22"/>
    </filter>
    <use ffdec:characterId="2835" filter="url(#filter0)" height="74.5" id="ach_Plate" transform="matrix(1.2951, 0.0, 0.0, 1.2951, -139.7492, -46.4425)" width="216.7" xlink:href="#sprite0"/>
  </g>
  <defs>
    <g id="sprite0" transform="matrix(1.0, 0.0, 0.0, 1.0, 106.4, 31.15)">
      <use ffdec:characterId="2834" height="74.5" transform="matrix(1.0, 0.0, 0.0, 1.0, -106.4, -31.15)" width="216.7" xlink:href="#shape0"/>
      <use ffdec:characterId="2833" height="31.6" transform="matrix(1.0, 0.0, 0.0, 1.0, -99.0, 5.0)" width="199.0" xlink:href="#text0"/>
      <use ffdec:characterId="2831" height="21.0" transform="matrix(1.0, 0.0, 0.0, 1.0, -104.45, -27.0)" width="208.95" xlink:href="#text1"/>
      <use ffdec:characterId="2829" height="74.5" transform="matrix(1.0, 0.0, 0.0, 1.0, -106.4, -31.15)" width="216.7" xlink:href="#shape1"/>
    </g>
    <g id="shape0" transform="matrix(1.0, 0.0, 0.0, 1.0, 106.4, 31.15)">
      <path d="M-106.4 -5.25 L-106.4 -31.15 110.3 -31.15 110.3 -5.25 -106.4 -5.25" fill="url(#gradient0)" fill-rule="evenodd" stroke="none"/>
      <path d="M110.3 -5.25 L110.3 43.35 -106.4 43.35 -106.4 -5.25 110.3 -5.25" fill="url(#gradient1)" fill-rule="evenodd" stroke="none"/>
      <path d="M-51.5 -12.05 L-51.15 -10.6 -54.5 8.25 -36.45 17.75 -36.65 18.05 -56.7 20.35 -59.9 39.5 -69.2 22.1 -88.6 24.55 -88.75 24.05 -74.75 10.1 -83.55 -6.9 -66.35 2.05 -52.25 -11.65 -51.5 -12.05 M-47.7 -16.45 Q-58.3 -22.7 -70.65 -19.0 -83.15 -15.3 -89.85 -3.95 -96.6 7.45 -93.85 20.3 -91.1 32.9 -80.5 39.15 -76.0 41.8 -71.2 42.75 L-94.25 42.75 Q-101.2 35.2 -103.55 23.6 -106.95 7.0 -97.7 -8.6 -88.6 -24.05 -72.25 -29.4 -55.65 -34.15 -41.65 -25.9 -27.45 -17.5 -24.05 -0.95 -20.4 16.25 -29.5 31.7 -33.35 38.15 -38.4 42.75 L-60.75 42.75 -57.25 41.9 Q-44.7 38.1 -37.95 26.7 -31.25 15.35 -34.05 2.6 -36.8 -10.0 -47.7 -16.45" fill="#222d55" fill-opacity="0.4117647" fill-rule="evenodd" stroke="none"/>
    </g>
    <linearGradient gradientTransform="matrix(0.0668, -0.0859, 0.0789, 0.0845, 1.9, -18.2)" gradientUnits="userSpaceOnUse" id="gradient0" spreadMethod="pad" x1="-819.2" x2="819.2">
      <stop offset="0.0" stop-color="#4d4daa"/>
      <stop offset="0.37254901960784315" stop-color="#171b35"/>
      <stop offset="0.396078431372549" stop-color="#34324e"/>
      <stop offset="1.0" stop-color="#425a93"/>
    </linearGradient>
    <linearGradient gradientTransform="matrix(0.0, 0.0117, -0.1323, 0.0, 1.95, 30.0)" gradientUnits="userSpaceOnUse" id="gradient1" spreadMethod="pad" x1="-819.2" x2="819.2">
      <stop offset="0.0" stop-color="#e1e1e1"/>
      <stop offset="1.0" stop-color="#a8b7d7"/>
    </linearGradient>
    <g id="shape1" transform="matrix(1.0, 0.0, 0.0, 1.0, 106.4, 31.15)">
      <path d="M110.3 43.35 L-106.4 43.35 -106.4 -31.15 110.3 -31.15 110.3 43.35" fill="url(#gradient2)" fill-rule="evenodd" stroke="none"/>
    </g>
    <radialGradient cx="0" cy="0" gradientTransform="matrix(-1.0E-4, -0.0977, 0.2056, -2.0E-4, 5.0, 6.1)" gradientUnits="userSpaceOnUse" id="gradient2" r="819.2" spreadMethod="pad">
      <stop offset="0.0" stop-color="#000000" stop-opacity="0.0"/>
      <stop offset="1.0" stop-color="#000000" stop-opacity="0.4627451"/>
    </radialGradient>
  </defs>
</svg>
