<?xml version="1.0" encoding="UTF-8" standalone="no"?>
<svg xmlns:ffdec="https://www.free-decompiler.com/flash" xmlns:xlink="http://www.w3.org/1999/xlink" ffdec:objectType="frame" height="24.2px" width="57.1px" xmlns="http://www.w3.org/2000/svg">
  <g transform="matrix(2.0, 0.0, 0.0, 2.0, 26.2, 12.1)">
    <use ffdec:characterId="164" height="6.05" transform="matrix(0.7429, 0.0, 0.0, 0.7429, -7.8286, -2.1657)" width="6.05" xlink:href="#sprite0"/>
    <use ffdec:characterId="164" height="6.05" transform="matrix(1.4286, 0.0, 0.0, 1.4286, 2.6143, -4.3071)" width="6.05" xlink:href="#sprite0"/>
    <use ffdec:characterId="164" height="6.05" transform="matrix(1.5714, 0.0, 0.0, 1.5714, -9.3142, -4.6928)" width="6.05" xlink:href="#sprite0"/>
    <use ffdec:characterId="164" height="6.05" transform="matrix(0.6571, 0.0, 0.0, 0.6571, 3.5786, -1.9543)" width="6.05" xlink:href="#sprite0"/>
  </g>
  <defs>
    <g id="sprite0" transform="matrix(1.0, 0.0, 0.0, 1.0, 3.0, 3.05)">
      <use ffdec:characterId="163" height="6.05" transform="matrix(1.0, 0.0, 0.0, 1.0, -3.0, -3.05)" width="6.05" xlink:href="#shape0"/>
    </g>
    <g id="shape0" transform="matrix(1.0, 0.0, 0.0, 1.0, 3.0, 3.05)">
      <path d="M-2.3 -1.95 L-1.9 -2.35 -0.25 -0.65 -0.25 -3.05 0.3 -3.05 0.3 -0.7 1.95 -2.35 2.35 -1.95 0.7 -0.3 3.05 -0.3 3.05 0.25 0.7 0.25 2.35 1.95 1.95 2.35 0.3 0.7 0.3 3.0 -0.25 3.0 -0.25 0.65 -1.9 2.35 -2.3 1.95 -0.65 0.25 -3.0 0.25 -3.0 -0.3 -0.65 -0.3 -2.3 -1.95" fill="#ffffff" fill-rule="evenodd" stroke="none"/>
    </g>
  </defs>
</svg>
