<?xml version="1.0" encoding="UTF-8" standalone="no"?>
<svg xmlns:ffdec="https://www.free-decompiler.com/flash" xmlns:xlink="http://www.w3.org/1999/xlink" ffdec:objectType="frame" height="24.2px" width="57.1px" xmlns="http://www.w3.org/2000/svg">
  <g transform="matrix(2.0, 0.0, 0.0, 2.0, 26.2, 12.1)">
    <use ffdec:characterId="164" height="6.05" transform="matrix(1.8571, 0.0, 0.0, 1.8571, -7.4214, -5.5643)" width="6.05" xlink:href="#sprite0"/>
    <use ffdec:characterId="164" height="6.05" transform="matrix(0.4857, 0.0, 0.0, 0.4857, 0.6429, -1.4814)" width="6.05" xlink:href="#sprite0"/>
    <use ffdec:characterId="164" height="6.05" transform="matrix(1.1428, 0.0, 0.0, 1.1428, 7.1215, -3.4357)" width="6.05" xlink:href="#sprite0"/>
    <use ffdec:characterId="164" height="6.05" transform="matrix(0.9143, 0.0, 0.0, 0.9143, -11.3429, -2.6886)" width="6.05" xlink:href="#sprite0"/>
  </g>
  <defs>
    <g id="sprite0" transform="matrix(1.0, 0.0, 0.0, 1.0, 3.0, 3.05)">
      <use ffdec:characterId="163" height="6.05" transform="matrix(1.0, 0.0, 0.0, 1.0, -3.0, -3.05)" width="6.05" xlink:href="#shape0"/>
    </g>
    <g id="shape0" transform="matrix(1.0, 0.0, 0.0, 1.0, 3.0, 3.05)">
      <path d="M-2.3 -1.95 L-1.9 -2.35 -0.25 -0.65 -0.25 -3.05 0.3 -3.05 0.3 -0.7 1.95 -2.35 2.35 -1.95 0.7 -0.3 3.05 -0.3 3.05 0.25 0.7 0.25 2.35 1.95 1.95 2.35 0.3 0.7 0.3 3.0 -0.25 3.0 -0.25 0.65 -1.9 2.35 -2.3 1.95 -0.65 0.25 -3.0 0.25 -3.0 -0.3 -0.65 -0.3 -2.3 -1.95" fill="#ffffff" fill-rule="evenodd" stroke="none"/>
    </g>
  </defs>
</svg>
