<?xml version="1.0" encoding="UTF-8" standalone="no"?>
<svg xmlns:ffdec="https://www.free-decompiler.com/flash" xmlns:xlink="http://www.w3.org/1999/xlink" ffdec:objectType="frame" height="34.9px" width="90.2px" xmlns="http://www.w3.org/2000/svg">
  <g transform="matrix(2.0, 0.0, 0.0, 2.0, 45.1, 17.4)">
    <use ffdec:characterId="3064" height="15.45" transform="matrix(1.0, 0.0, 0.0, 1.0, -21.55, -7.7)" width="43.1" xlink:href="#shape0"/>
    <use ffdec:characterId="3065" height="16.45" transform="matrix(1.0, 0.0, 0.0, 1.0, -22.05, -8.2)" width="44.1" xlink:href="#shape1"/>
  </g>
  <defs>
    <g id="shape0" transform="matrix(1.0, 0.0, 0.0, 1.0, 21.55, 7.7)">
      <path d="M21.55 -7.7 L21.55 7.75 -21.55 7.75 -21.55 -7.7 21.55 -7.7" fill="url(#gradient0)" fill-rule="evenodd" stroke="none"/>
    </g>
    <linearGradient gradientTransform="matrix(0.0, -0.0094, 0.0263, 0.0, 0.0, 0.05)" gradientUnits="userSpaceOnUse" id="gradient0" spreadMethod="pad" x1="-819.2" x2="819.2">
      <stop offset="0.0" stop-color="#000000" stop-opacity="0.37254903"/>
      <stop offset="0.4627450980392157" stop-color="#000000" stop-opacity="0.5411765"/>
      <stop offset="0.4745098039215686" stop-color="#ffffff" stop-opacity="0.23137255"/>
      <stop offset="0.8941176470588236" stop-color="#959595" stop-opacity="0.0"/>
      <stop offset="1.0" stop-color="#000000" stop-opacity="0.19215687"/>
    </linearGradient>
    <g id="shape1" transform="matrix(1.0, 0.0, 0.0, 1.0, 22.05, 8.2)">
      <path d="M1.4 -5.8 L1.4 -1.6 5.6 -1.6 5.95 -1.45 6.1 -1.1 6.1 0.85 5.95 1.2 5.6 1.35 1.4 1.35 1.4 5.55 1.25 5.9 0.9 6.05 -1.1 6.05 -1.45 5.9 -1.6 5.55 -1.6 1.35 -5.75 1.35 -6.1 1.2 -6.25 0.85 -6.25 -1.1 -6.1 -1.45 -5.75 -1.6 -1.6 -1.6 -1.6 -5.8 -1.45 -6.15 -1.1 -6.3 0.9 -6.3 1.25 -6.15 1.4 -5.8" fill="#000000" fill-rule="evenodd" stroke="none"/>
      <path d="M21.55 7.75 L-21.55 7.75 -21.55 -7.7 21.55 -7.7 21.55 7.75 Z" fill="none" stroke="#000000" stroke-linecap="round" stroke-linejoin="round" stroke-width="1.0"/>
    </g>
  </defs>
</svg>
