<?xml version="1.0" encoding="UTF-8" standalone="no"?>
<svg xmlns:ffdec="https://www.free-decompiler.com/flash" xmlns:xlink="http://www.w3.org/1999/xlink" ffdec:objectType="frame" height="62.6px" width="570.0px" xmlns="http://www.w3.org/2000/svg">
  <g transform="matrix(2.0, 0.0, 0.0, 2.0, 285.0, 25.6)">
    <use ffdec:characterId="3309" height="31.3" transform="matrix(1.0, 0.0, 0.0, 1.0, -142.5, -12.8)" width="285.0" xlink:href="#shape0"/>
    <use ffdec:characterId="3310" height="22.0" transform="matrix(1.0, 0.0, 0.0, 1.0, -136.5, -7.65)" width="273.5" xlink:href="#text0"/>
  </g>
  <defs>
    <g id="shape0" transform="matrix(1.0, 0.0, 0.0, 1.0, 142.5, 12.8)">
      <path d="M-142.0 18.0 L-142.0 -12.3 142.0 -12.3 142.0 18.0 -142.0 18.0" fill="url(#gradient0)" fill-rule="evenodd" stroke="none"/>
      <path d="M-142.0 18.0 L-142.0 -12.3 142.0 -12.3 142.0 18.0 -142.0 18.0 Z" fill="none" stroke="#000000" stroke-linecap="round" stroke-linejoin="round" stroke-width="1.0"/>
    </g>
    <radialGradient cx="0" cy="0" gradientTransform="matrix(0.174, 0.0, 0.0, 0.2143, 0.0, 2.85)" gradientUnits="userSpaceOnUse" id="gradient0" r="819.2" spreadMethod="pad">
      <stop offset="0.0784313725490196" stop-color="#2b2b2b"/>
      <stop offset="1.0" stop-color="#111111"/>
    </radialGradient>
    <g id="text0" transform="matrix(1.0, 0.0, 0.0, 1.0, 2.0, 2.0)">
      <g transform="matrix(1.0, 0.0, 0.0, 1.0, -2.0, -2.0)">
        <use fill="#999999" height="22.0" transform="matrix(0.0088, 0.0, 0.0, 0.0088, 41.4, 16.65)" width="273.5" xlink:href="#font_copy_10_65__0"/>
      </g>
      <g transform="matrix(1.0, 0.0, 0.0, 1.0, -2.0, -2.0)">
        <use fill="#999999" height="22.0" transform="matrix(0.0088, 0.0, 0.0, 0.0088, 57.2, 16.65)" width="273.5" xlink:href="#font_copy_10_65_T0"/>
        <use fill="#999999" height="22.0" transform="matrix(0.0088, 0.0, 0.0, 0.0088, 67.35, 16.65)" width="273.5" xlink:href="#font_copy_10_65_e0"/>
        <use fill="#999999" height="22.0" transform="matrix(0.0088, 0.0, 0.0, 0.0088, 75.25, 16.65)" width="273.5" xlink:href="#font_copy_10_65_a0"/>
        <use fill="#999999" height="22.0" transform="matrix(0.0088, 0.0, 0.0, 0.0088, 83.15, 16.65)" width="273.5" xlink:href="#font_copy_10_65_m0"/>
      </g>
      <g transform="matrix(1.0, 0.0, 0.0, 1.0, -2.0, -2.0)">
        <use fill="#999999" height="22.0" transform="matrix(0.0088, 0.0, 0.0, 0.0088, 101.2, 16.65)" width="273.5" xlink:href="#font_copy_10_65_M0"/>
        <use fill="#999999" height="22.0" transform="matrix(0.0088, 0.0, 0.0, 0.0088, 114.7, 16.65)" width="273.5" xlink:href="#font_copy_10_65_e0"/>
        <use fill="#999999" height="22.0" transform="matrix(0.0088, 0.0, 0.0, 0.0088, 122.6, 16.65)" width="273.5" xlink:href="#font_copy_10_65_m0"/>
        <use fill="#999999" height="22.0" transform="matrix(0.0088, 0.0, 0.0, 0.0088, 135.0, 16.65)" width="273.5" xlink:href="#font_copy_10_65_b0"/>
        <use fill="#999999" height="22.0" transform="matrix(0.0088, 0.0, 0.0, 0.0088, 142.9, 16.65)" width="273.5" xlink:href="#font_copy_10_65_e0"/>
        <use fill="#999999" height="22.0" transform="matrix(0.0088, 0.0, 0.0, 0.0088, 150.8, 16.65)" width="273.5" xlink:href="#font_copy_10_65_r0"/>
      </g>
      <g transform="matrix(1.0, 0.0, 0.0, 1.0, -2.0, -2.0)">
        <use fill="#999999" height="22.0" transform="matrix(0.0088, 0.0, 0.0, 0.0088, 162.1, 16.65)" width="273.5" xlink:href="#font_copy_10_65_I0"/>
        <use fill="#999999" height="22.0" transform="matrix(0.0088, 0.0, 0.0, 0.0088, 165.5, 16.65)" width="273.5" xlink:href="#font_copy_10_65_n0"/>
        <use fill="#999999" height="22.0" transform="matrix(0.0088, 0.0, 0.0, 0.0088, 173.4, 16.65)" width="273.5" xlink:href="#font_copy_10_65_a0"/>
        <use fill="#999999" height="22.0" transform="matrix(0.0088, 0.0, 0.0, 0.0088, 181.3, 16.65)" width="273.5" xlink:href="#font_copy_10_65_c0"/>
        <use fill="#999999" height="22.0" transform="matrix(0.0088, 0.0, 0.0, 0.0088, 189.2, 16.65)" width="273.5" xlink:href="#font_copy_10_65_t0"/>
        <use fill="#999999" height="22.0" transform="matrix(0.0088, 0.0, 0.0, 0.0088, 195.95, 16.65)" width="273.5" xlink:href="#font_copy_10_65_i0"/>
        <use fill="#999999" height="22.0" transform="matrix(0.0088, 0.0, 0.0, 0.0088, 199.35, 16.65)" width="273.5" xlink:href="#font_copy_10_65_v0"/>
        <use fill="#999999" height="22.0" transform="matrix(0.0088, 0.0, 0.0, 0.0088, 208.35, 16.65)" width="273.5" xlink:href="#font_copy_10_65_e0"/>
      </g>
      <g transform="matrix(1.0, 0.0, 0.0, 1.0, -2.0, -2.0)">
        <use fill="#999999" height="22.0" transform="matrix(0.0088, 0.0, 0.0, 0.0088, 221.9, 16.65)" width="273.5" xlink:href="#font_copy_10_65__2"/>
      </g>
    </g>
    <g id="font_copy_10_65__0">
      <path d="M512.0 -512.0 L512.0 -512.0 384.0 -512.0 384.0 -640.0 512.0 -640.0 512.0 -768.0 640.0 -768.0 640.0 -896.0 768.0 -896.0 768.0 -1024.0 896.0 -1024.0 896.0 -1152.0 640.0 -1152.0 640.0 -1024.0 512.0 -1024.0 512.0 -896.0 384.0 -896.0 384.0 -768.0 256.0 -768.0 256.0 -640.0 128.0 -640.0 128.0 -512.0 256.0 -512.0 256.0 -384.0 384.0 -384.0 384.0 -256.0 512.0 -256.0 512.0 -128.0 640.0 -128.0 640.0 0.0 896.0 0.0 896.0 -128.0 768.0 -128.0 768.0 -256.0 640.0 -256.0 640.0 -384.0 512.0 -384.0 512.0 -512.0" fill-rule="evenodd" stroke="none"/>
    </g>
    <g id="font_copy_10_65_T0">
      <path d="M0.0 -1152.0 L0.0 -1152.0 384.0 -1152.0 384.0 0.0 640.0 0.0 640.0 -1152.0 1024.0 -1152.0 1024.0 -1280.0 0.0 -1280.0 0.0 -1152.0" fill-rule="evenodd" stroke="none"/>
    </g>
    <g id="font_copy_10_65_e0">
      <path d="M256.0 -512.0 L256.0 -512.0 256.0 -768.0 512.0 -768.0 512.0 -512.0 256.0 -512.0 M512.0 -256.0 L512.0 -256.0 512.0 -128.0 256.0 -128.0 256.0 -384.0 768.0 -384.0 768.0 -768.0 640.0 -768.0 640.0 -896.0 128.0 -896.0 128.0 -768.0 0.0 -768.0 0.0 -128.0 128.0 -128.0 128.0 0.0 640.0 0.0 640.0 -128.0 768.0 -128.0 768.0 -256.0 512.0 -256.0" fill-rule="evenodd" stroke="none"/>
    </g>
    <g id="font_copy_10_65_a0">
      <path d="M0.0 -128.0 L0.0 -128.0 128.0 -128.0 128.0 0.0 768.0 0.0 768.0 -768.0 640.0 -768.0 640.0 -896.0 128.0 -896.0 128.0 -768.0 512.0 -768.0 512.0 -512.0 128.0 -512.0 128.0 -384.0 0.0 -384.0 0.0 -128.0 M256.0 -384.0 L256.0 -384.0 512.0 -384.0 512.0 -128.0 256.0 -128.0 256.0 -384.0" fill-rule="evenodd" stroke="none"/>
    </g>
    <g id="font_copy_10_65_m0">
      <path d="M768.0 -768.0 L768.0 -768.0 640.0 -768.0 640.0 -896.0 256.0 -896.0 256.0 -768.0 128.0 -768.0 128.0 -896.0 0.0 -896.0 0.0 0.0 256.0 0.0 256.0 -640.0 384.0 -640.0 384.0 -768.0 512.0 -768.0 512.0 0.0 768.0 0.0 768.0 -640.0 896.0 -640.0 896.0 -768.0 1024.0 -768.0 1024.0 0.0 1280.0 0.0 1280.0 -768.0 1152.0 -768.0 1152.0 -896.0 768.0 -896.0 768.0 -768.0" fill-rule="evenodd" stroke="none"/>
    </g>
    <g id="font_copy_10_65_M0">
      <path d="M768.0 0.0 L768.0 0.0 768.0 -128.0 896.0 -128.0 896.0 -384.0 1024.0 -384.0 1024.0 -640.0 1152.0 -640.0 1152.0 0.0 1408.0 0.0 1408.0 -1280.0 1152.0 -1280.0 1152.0 -1152.0 1024.0 -1152.0 1024.0 -896.0 896.0 -896.0 896.0 -640.0 768.0 -640.0 768.0 -384.0 640.0 -384.0 640.0 -640.0 512.0 -640.0 512.0 -896.0 384.0 -896.0 384.0 -1152.0 256.0 -1152.0 256.0 -1280.0 0.0 -1280.0 0.0 0.0 256.0 0.0 256.0 -640.0 384.0 -640.0 384.0 -384.0 512.0 -384.0 512.0 -128.0 640.0 -128.0 640.0 0.0 768.0 0.0" fill-rule="evenodd" stroke="none"/>
    </g>
    <g id="font_copy_10_65_b0">
      <path d="M768.0 -128.0 L768.0 -128.0 768.0 -768.0 640.0 -768.0 640.0 -896.0 256.0 -896.0 256.0 -1280.0 0.0 -1280.0 0.0 0.0 640.0 0.0 640.0 -128.0 768.0 -128.0 M512.0 -128.0 L512.0 -128.0 256.0 -128.0 256.0 -768.0 512.0 -768.0 512.0 -128.0" fill-rule="evenodd" stroke="none"/>
    </g>
    <g id="font_copy_10_65_r0">
      <path d="M512.0 -768.0 L512.0 -768.0 512.0 -896.0 256.0 -896.0 256.0 -768.0 128.0 -768.0 128.0 -896.0 0.0 -896.0 0.0 0.0 256.0 0.0 256.0 -640.0 384.0 -640.0 384.0 -768.0 512.0 -768.0" fill-rule="evenodd" stroke="none"/>
    </g>
    <g id="font_copy_10_65_I0">
      <path d="M256.0 0.0 L256.0 0.0 256.0 -1280.0 0.0 -1280.0 0.0 0.0 256.0 0.0" fill-rule="evenodd" stroke="none"/>
    </g>
    <g id="font_copy_10_65_n0">
      <path d="M256.0 -768.0 L256.0 -768.0 128.0 -768.0 128.0 -896.0 0.0 -896.0 0.0 0.0 256.0 0.0 256.0 -640.0 384.0 -640.0 384.0 -768.0 512.0 -768.0 512.0 0.0 768.0 0.0 768.0 -768.0 640.0 -768.0 640.0 -896.0 256.0 -896.0 256.0 -768.0" fill-rule="evenodd" stroke="none"/>
    </g>
    <g id="font_copy_10_65_c0">
      <path d="M512.0 -256.0 L512.0 -256.0 512.0 -128.0 256.0 -128.0 256.0 -768.0 512.0 -768.0 512.0 -640.0 768.0 -640.0 768.0 -768.0 640.0 -768.0 640.0 -896.0 128.0 -896.0 128.0 -768.0 0.0 -768.0 0.0 -128.0 128.0 -128.0 128.0 0.0 640.0 0.0 640.0 -128.0 768.0 -128.0 768.0 -256.0 512.0 -256.0" fill-rule="evenodd" stroke="none"/>
    </g>
    <g id="font_copy_10_65_t0">
      <path d="M128.0 -1280.0 L128.0 -1280.0 128.0 -896.0 0.0 -896.0 0.0 -768.0 128.0 -768.0 128.0 -128.0 256.0 -128.0 256.0 0.0 640.0 0.0 640.0 -128.0 384.0 -128.0 384.0 -768.0 640.0 -768.0 640.0 -896.0 384.0 -896.0 384.0 -1280.0 128.0 -1280.0" fill-rule="evenodd" stroke="none"/>
    </g>
    <g id="font_copy_10_65_i0">
      <path d="M0.0 -1280.0 L0.0 -1280.0 0.0 -1152.0 256.0 -1152.0 256.0 -1280.0 0.0 -1280.0 M0.0 -896.0 L0.0 -896.0 0.0 0.0 256.0 0.0 256.0 -896.0 0.0 -896.0" fill-rule="evenodd" stroke="none"/>
    </g>
    <g id="font_copy_10_65_v0">
      <path d="M640.0 0.0 L640.0 0.0 640.0 -256.0 768.0 -256.0 768.0 -512.0 896.0 -512.0 896.0 -896.0 640.0 -896.0 640.0 -512.0 512.0 -512.0 512.0 -256.0 384.0 -256.0 384.0 -512.0 256.0 -512.0 256.0 -896.0 0.0 -896.0 0.0 -512.0 128.0 -512.0 128.0 -256.0 256.0 -256.0 256.0 0.0 640.0 0.0" fill-rule="evenodd" stroke="none"/>
    </g>
    <g id="font_copy_10_65__2">
      <path d="M384.0 -384.0 L384.0 -384.0 384.0 -256.0 256.0 -256.0 256.0 -128.0 128.0 -128.0 128.0 0.0 384.0 0.0 384.0 -128.0 512.0 -128.0 512.0 -256.0 640.0 -256.0 640.0 -384.0 768.0 -384.0 768.0 -512.0 896.0 -512.0 896.0 -640.0 768.0 -640.0 768.0 -768.0 640.0 -768.0 640.0 -896.0 512.0 -896.0 512.0 -1024.0 384.0 -1024.0 384.0 -1152.0 128.0 -1152.0 128.0 -1024.0 256.0 -1024.0 256.0 -896.0 384.0 -896.0 384.0 -768.0 512.0 -768.0 512.0 -640.0 640.0 -640.0 640.0 -512.0 512.0 -512.0 512.0 -384.0 384.0 -384.0" fill-rule="evenodd" stroke="none"/>
    </g>
  </defs>
</svg>
