<?xml version="1.0" encoding="UTF-8" standalone="no"?>
<svg xmlns:ffdec="https://www.free-decompiler.com/flash" xmlns:xlink="http://www.w3.org/1999/xlink" ffdec:objectType="frame" height="1098.7px" width="3971.5px" xmlns="http://www.w3.org/2000/svg">
  <g transform="matrix(2.0, 0.0, 0.0, 2.0, 2043.8, 459.6)">
    <clipPath id="clipPath0" transform="matrix(1.0, 0.0, 0.0, 1.0, 0.0, 0.0)">
      <path d="M380.2 -206.9 L380.2 207.2 -382.5 207.2 -382.5 -206.9 380.2 -206.9" fill="url(#gradient0)" fill-rule="evenodd" stroke="none"/>
    </clipPath>
    <g clip-path="url(#clipPath0)">
      <use ffdec:characterId="3286" height="429.7" transform="matrix(1.0, 0.0, 0.0, 1.0, -401.45, -218.5)" width="791.6" xlink:href="#shape1"/>
    </g>
    <use ffdec:characterId="3285" height="207.0" transform="matrix(1.0, 0.0, 0.0, 1.0, -151.0, -117.9)" width="298.0" xlink:href="#shape2"/>
    <use ffdec:characterId="3284" height="27.1" transform="matrix(1.0, 0.0, 0.0, 1.0, -163.65, -100.0)" width="83.2" xlink:href="#text0"/>
    <use ffdec:characterId="3283" height="27.1" transform="matrix(1.0, 0.0, 0.0, 1.0, -182.65, 47.0)" width="119.3" xlink:href="#text1"/>
    <use ffdec:characterId="3282" height="76.8" transform="matrix(1.0, 0.0, 0.0, 1.0, -41.7, -122.0)" width="83.2" xlink:href="#text2"/>
    <use ffdec:characterId="3281" height="51.95" transform="matrix(1.0, 0.0, 0.0, 1.0, 38.25, -112.0)" width="174.4" xlink:href="#text3"/>
    <use ffdec:characterId="3280" height="27.1" transform="matrix(1.0, 0.0, 0.0, 1.0, -60.65, 47.0)" width="119.3" xlink:href="#text4"/>
    <use ffdec:characterId="3279" height="51.95" transform="matrix(1.0, 0.0, 0.0, 1.0, 38.25, 38.0)" width="174.4" xlink:href="#text5"/>
    <use ffdec:characterId="3278" height="30.0" transform="matrix(1.8981, 0.0, 0.0, 1.9753, -149.7711, -118.379)" width="30.0" xlink:href="#button0"/>
    <use ffdec:characterId="3277" height="30.0" transform="matrix(1.8981, 0.0, 0.0, 1.9753, -29.7711, -118.379)" width="30.0" xlink:href="#button1"/>
    <use ffdec:characterId="3276" height="30.0" transform="matrix(1.8981, 0.0, 0.0, 1.9753, 90.2289, -118.379)" width="30.0" xlink:href="#button2"/>
    <use ffdec:characterId="3275" height="30.0" transform="matrix(1.8981, 0.0, 0.0, 1.9753, -149.7711, 31.621)" width="30.0" xlink:href="#button3"/>
    <use ffdec:characterId="3274" height="30.0" transform="matrix(1.8981, 0.0, 0.0, 1.9753, -29.7711, 31.621)" width="30.0" xlink:href="#button4"/>
    <use ffdec:characterId="3273" height="30.0" transform="matrix(1.8981, 0.0, 0.0, 1.9753, 90.2289, 31.621)" width="30.0" xlink:href="#button5"/>
    <use ffdec:characterId="3189" height="415.1" transform="matrix(1.0, 0.0, 0.0, 1.0, -384.45, -207.4)" width="765.15" xlink:href="#shape3"/>
  </g>
  <defs>
    <radialGradient cx="0" cy="0" gradientTransform="matrix(0.5303, 0.0, 0.0, 0.5345, 0.0, 0.0)" gradientUnits="userSpaceOnUse" id="gradient0" r="819.2" spreadMethod="pad">
      <stop offset="0.0" stop-color="#ffffff"/>
      <stop offset="1.0" stop-color="#bbbbbb"/>
    </radialGradient>
    <g id="shape1" transform="matrix(1.0, 0.0, 0.0, 1.0, 401.45, 218.5)">
      <path d="M390.15 211.2 L-401.45 211.2 -401.45 -218.5 390.15 -218.5 390.15 211.2" fill="url(#gradient1)" fill-rule="evenodd" stroke="none"/>
    </g>
    <radialGradient cx="0" cy="0" gradientTransform="matrix(0.5457, 0.0, 0.0, 0.5641, -5.65, -3.65)" gradientUnits="userSpaceOnUse" id="gradient1" r="819.2" spreadMethod="pad">
      <stop offset="0.0" stop-color="#fbfbfb"/>
      <stop offset="1.0" stop-color="#7b7b7b"/>
    </radialGradient>
    <g id="shape2" transform="matrix(1.0, 0.0, 0.0, 1.0, 151.0, 117.9)">
      <path d="M147.0 -117.9 L147.0 -60.9 89.0 -60.9 89.0 -117.9 147.0 -117.9 M27.0 -60.9 L-31.0 -60.9 -31.0 -117.9 27.0 -117.9 27.0 -60.9 M147.0 89.1 L89.0 89.1 89.0 32.1 147.0 32.1 147.0 89.1 M27.0 89.1 L-31.0 89.1 -31.0 32.1 27.0 32.1 27.0 89.1 M-93.0 -117.9 L-93.0 -60.9 -151.0 -60.9 -151.0 -117.9 -93.0 -117.9 M-93.0 89.1 L-151.0 89.1 -151.0 32.1 -93.0 32.1 -93.0 89.1" fill="#a7bac7" fill-rule="evenodd" stroke="none"/>
    </g>
    <g id="shape3" transform="matrix(1.0, 0.0, 0.0, 1.0, 384.45, 207.4)">
      <path d="M-383.95 31.0 L-383.95 -206.9 380.2 -206.9 380.2 207.2 -383.95 207.2 -383.95 103.65 -383.95 31.0 Z" fill="none" stroke="#000000" stroke-linecap="round" stroke-linejoin="round" stroke-width="1.0"/>
    </g>
  </defs>
</svg>
