<?xml version="1.0" encoding="UTF-8" standalone="no"?>
<svg xmlns:ffdec="https://www.free-decompiler.com/flash" xmlns:xlink="http://www.w3.org/1999/xlink" ffdec:objectType="frame" height="1098.7px" width="3971.5px" xmlns="http://www.w3.org/2000/svg">
  <g transform="matrix(2.0, 0.0, 0.0, 2.0, 2043.8, 459.6)">
    <clipPath id="clipPath0" transform="matrix(1.0, 0.0, 0.0, 1.0, 0.0, 0.0)">
      <path d="M380.2 -206.9 L380.2 207.2 -382.5 207.2 -382.5 -206.9 380.2 -206.9" fill="url(#gradient0)" fill-rule="evenodd" stroke="none"/>
    </clipPath>
    <g clip-path="url(#clipPath0)">
      <use ffdec:characterId="3255" height="425.95" transform="matrix(1.0, 0.0, 0.0, 1.0, -388.0, -209.9)" width="772.95" xlink:href="#shape1"/>
      <filter id="filter0">
        <feConvolveMatrix divisor="16.0" in="SourceGraphic" kernelMatrix="1 1 1 1 1 1 1 1 1 1 1 1 1 1 1 1" order="4 4" result="filterResult0"/>
      </filter>
      <use ffdec:characterId="3254" filter="url(#filter0)" height="125.05" transform="matrix(1.0, 0.0, 0.0, 1.0, -387.65, -206.75)" width="510.65" xlink:href="#sprite0"/>
      <filter id="filter1">
        <feConvolveMatrix divisor="16.0" in="SourceGraphic" kernelMatrix="1 1 1 1 1 1 1 1 1 1 1 1 1 1 1 1" order="4 4" result="filterResult1"/>
      </filter>
      <use ffdec:characterId="3252" filter="url(#filter1)" height="102.45" transform="matrix(1.0, 0.0, 0.0, 1.0, -387.65, -184.15)" width="506.65" xlink:href="#sprite1"/>
      <use ffdec:characterId="3250" height="464.6" transform="matrix(1.0, 0.0, 0.0, 1.0, -419.0, -215.65)" width="828.9" xlink:href="#shape4"/>
      <filter id="filter2">
        <feConvolveMatrix divisor="2520.0" in="SourceGraphic" kernelMatrix="1 1 1 1 1 1 1 1 1 1 1 1 1 1 1 1 1 1 1 1 1 1 1 1 1 1 1 1 1 1 1 1 1 1 1 1 1 1 1 1 1 1 1 1 1 1 1 1 1 1 1 1 1 1 1 1 1 1 1 1 1 1 1 1 1 1 1 1 1 1 1 1 1 1 1 1 1 1 1 1 1 1 1 1 1 1 1 1 1 1 1 1 1 1 1 1 1 1 1 1 1 1 1 1 1 1 1 1 1 1 1 1 1 1 1 1 1 1 1 1 1 1 1 1 1 1 1 1 1 1 1 1 1 1 1 1 1 1 1 1 1 1 1 1 1 1 1 1 1 1 1 1 1 1 1 1 1 1 1 1 1 1 1 1 1 1 1 1 1 1 1 1 1 1 1 1 1 1 1 1 1 1 1 1 1 1 1 1 1 1 1 1 1 1 1 1 1 1 1 1 1 1 1 1 1 1 1 1 1 1 1 1 1 1 1 1 1 1 1 1 1 1 1 1 1 1 1 1 1 1 1 1 1 1 1 1 1 1 1 1 1 1 1 1 1 1 1 1 1 1 1 1 1 1 1 1 1 1 1 1 1 1 1 1 1 1 1 1 1 1 1 1 1 1 1 1 1 1 1 1 1 1 1 1 1 1 1 1 1 1 1 1 1 1 1 1 1 1 1 1 1 1 1 1 1 1 1 1 1 1 1 1 1 1 1 1 1 1 1 1 1 1 1 1 1 1 1 1 1 1 1 1 1 1 1 1 1 1 1 1 1 1 1 1 1 1 1 1 1 1 1 1 1 1 1 1 1 1 1 1 1 1 1 1 1 1 1 1 1 1 1 1 1 1 1 1 1 1 1 1 1 1 1 1 1 1 1 1 1 1 1 1 1 1 1 1 1 1 1 1 1 1 1 1 1 1 1 1 1 1 1 1 1 1 1 1 1 1 1 1 1 1 1 1 1 1 1 1 1 1 1 1 1 1 1 1 1 1 1 1 1 1 1 1 1 1 1 1 1 1 1 1 1 1 1 1 1 1 1 1 1 1 1 1 1 1 1 1 1 1 1 1 1 1 1 1 1 1 1 1 1 1 1 1 1 1 1 1 1 1 1 1 1 1 1 1 1 1 1 1 1 1 1 1 1 1 1 1 1 1 1 1 1 1 1 1 1 1 1 1 1 1 1 1 1 1 1 1 1 1 1 1 1 1 1 1 1 1 1 1 1 1 1 1 1 1 1 1 1 1 1 1 1 1 1 1 1 1 1 1 1 1 1 1 1 1 1 1 1 1 1 1 1 1 1 1 1 1 1 1 1 1 1 1 1 1 1 1 1 1 1 1 1 1 1 1 1 1 1 1 1 1 1 1 1 1 1 1 1 1 1 1 1 1 1 1 1 1 1 1 1 1 1 1 1 1 1 1 1 1 1 1 1 1 1 1 1 1 1 1 1 1 1 1 1 1 1 1 1 1 1 1 1 1 1 1 1 1 1 1 1 1 1 1 1 1 1 1 1 1 1 1 1 1 1 1 1 1 1 1 1 1 1 1 1 1 1 1 1 1 1 1 1 1 1 1 1 1 1 1 1 1 1 1 1 1 1 1 1 1 1 1 1 1 1 1 1 1 1 1 1 1 1 1 1 1 1 1 1 1 1 1 1 1 1 1 1 1 1 1 1 1 1 1 1 1 1 1 1 1 1 1 1 1 1 1 1 1 1 1 1 1 1 1 1 1 1 1 1 1 1 1 1 1 1 1 1 1 1 1 1 1 1 1 1 1 1 1 1 1 1 1 1 1 1 1 1 1 1 1 1 1 1 1 1 1 1 1 1 1 1 1 1 1 1 1 1 1 1 1 1 1 1 1 1 1 1 1 1 1 1 1 1 1 1 1 1 1 1 1 1 1 1 1 1 1 1 1 1 1 1 1 1 1 1 1 1 1 1 1 1 1 1 1 1 1 1 1 1 1 1 1 1 1 1 1 1 1 1 1 1 1 1 1 1 1 1 1 1 1 1 1 1 1 1 1 1 1 1 1 1 1 1 1 1 1 1 1 1 1 1 1 1 1 1 1 1 1 1 1 1 1 1 1 1 1 1 1 1 1 1 1 1 1 1 1 1 1 1 1 1 1 1 1 1 1 1 1 1 1 1 1 1 1 1 1 1 1 1 1 1 1 1 1 1 1 1 1 1 1 1 1 1 1 1 1 1 1 1 1 1 1 1 1 1 1 1 1 1 1 1 1 1 1 1 1 1 1 1 1 1 1 1 1 1 1 1 1 1 1 1 1 1 1 1 1 1 1 1 1 1 1 1 1 1 1 1 1 1 1 1 1 1 1 1 1 1 1 1 1 1 1 1 1 1 1 1 1 1 1 1 1 1 1 1 1 1 1 1 1 1 1 1 1 1 1 1 1 1 1 1 1 1 1 1 1 1 1 1 1 1 1 1 1 1 1 1 1 1 1 1 1 1 1 1 1 1 1 1 1 1 1 1 1 1 1 1 1 1 1 1 1 1 1 1 1 1 1 1 1 1 1 1 1 1 1 1 1 1 1 1 1 1 1 1 1 1 1 1 1 1 1 1 1 1 1 1 1 1 1 1 1 1 1 1 1 1 1 1 1 1 1 1 1 1 1 1 1 1 1 1 1 1 1 1 1 1 1 1 1 1 1 1 1 1 1 1 1 1 1 1 1 1 1 1 1 1 1 1 1 1 1 1 1 1 1 1 1 1 1 1 1 1 1 1 1 1 1 1 1 1 1 1 1 1 1 1 1 1 1 1 1 1 1 1 1 1 1 1 1 1 1 1 1 1 1 1 1 1 1 1 1 1 1 1 1 1 1 1 1 1 1 1 1 1 1 1 1 1 1 1 1 1 1 1 1 1 1 1 1 1 1 1 1 1 1 1 1 1 1 1 1 1 1 1 1 1 1 1 1 1 1 1 1 1 1 1 1 1 1 1 1 1 1 1 1 1 1 1 1 1 1 1 1 1 1 1 1 1 1 1 1 1 1 1 1 1 1 1 1 1 1 1 1 1 1 1 1 1 1 1 1 1 1 1 1 1 1 1 1 1 1 1 1 1 1 1 1 1 1 1 1 1 1 1 1 1 1 1 1 1 1 1 1 1 1 1 1 1 1 1 1 1 1 1 1 1 1 1 1 1 1 1 1 1 1 1 1 1 1 1 1 1 1 1 1 1 1 1 1 1 1 1 1 1 1 1 1 1 1 1 1 1 1 1 1 1 1 1 1 1 1 1 1 1 1 1 1 1 1 1 1 1 1 1 1 1 1 1 1 1 1 1 1 1 1 1 1 1 1 1 1 1 1 1 1 1 1 1 1 1 1 1 1 1 1 1 1 1 1 1 1 1 1 1 1 1 1 1 1 1 1 1 1 1 1 1 1 1 1 1 1 1 1 1 1 1 1 1 1 1 1 1 1 1 1 1 1 1 1 1 1 1 1 1 1 1 1 1 1 1 1 1 1 1 1 1 1 1 1 1 1 1 1 1 1 1 1 1 1 1 1 1 1 1 1 1 1 1 1 1 1 1 1 1 1 1 1 1 1 1 1 1 1 1 1 1 1 1 1 1 1 1 1 1 1 1 1 1 1 1 1 1 1 1 1 1 1 1 1 1 1 1 1 1 1 1 1 1 1 1 1 1 1 1 1 1 1 1 1 1 1 1 1 1 1 1 1 1 1 1 1 1 1 1 1 1 1 1 1 1 1 1 1 1 1 1 1 1 1 1 1 1 1 1 1 1 1 1 1 1 1 1 1 1 1 1 1 1 1 1 1 1 1 1 1 1 1 1 1 1 1 1 1 1 1 1 1 1 1 1 1 1 1 1 1 1 1 1 1 1 1 1 1 1 1 1 1 1 1 1 1 1 1 1 1 1 1 1 1 1 1 1 1 1 1 1 1 1 1 1 1 1 1 1 1 1 1 1 1 1 1 1 1 1 1 1 1 1 1 1 1 1 1 1 1 1 1 1 1 1 1 1 1 1 1 1 1 1 1 1 1 1 1 1 1 1 1 1 1 1 1 1 1 1 1 1 1 1 1 1 1 1 1 1 1 1 1 1 1 1 1 1 1 1 1 1 1 1 1 1 1 1 1 1 1 1 1 1 1 1 1 1 1 1 1 1 1 1 1 1 1 1 1 1 1 1 1 1 1 1 1 1 1 1 1 1 1 1 1 1 1 1 1 1 1 1 1 1 1 1 1 1 1 1 1 1 1 1 1 1 1 1 1 1 1 1 1 1 1 1 1 1 1 1 1 1 1 1 1 1 1 1 1 1 1 1 1 1 1 1 1 1 1 1 1 1 1 1 1 1 1 1 1 1 1 1 1 1 1 1 1 1 1 1 1 1 1 1 1 1 1 1 1 1 1 1 1 1 1 1 1 1 1 1 1 1 1 1 1 1 1 1 1 1 1 1 1 1 1 1 1 1 1 1 1 1 1 1 1 1 1 1 1 1 1 1 1 1 1 1 1 1 1 1 1 1 1 1 1 1 1 1 1 1 1 1 1 1 1 1 1 1 1 1 1 1 1 1 1 1 1 1 1 1 1 1 1 1 1 1 1 1 1 1 1 1 1 1 1 1 1 1 1 1 1 1 1 1 1 1 1 1 1 1 1 1 1 1 1 1 1 1 1 1 1 1 1 1 1 1 1 1 1 1 1 1 1 1 1 1 1 1 1 1 1 1 1 1 1 1 1 1 1 1 1 1 1 1 1 1 1 1 1 1 1 1 1 1 1 1 1 1 1 1 1 1 1 1 1 1 1 1 1 1 1 1 1 1 1 1 1 1 1 1 1 1 1 1 1 1 1 1 1 1 1 1 1 1 1 1 1 1 1 1 1 1 1 1 1 1 1 1 1 1 1 1 1 1 1 1 1 1 1 1 1 1 1 1 1 1 1 1 1 1 1 1 1 1 1 1 1 1 1 1 1 1 1 1 1 1 1 1 1 1 1 1 1 1 1 1 1 1 1 1 1 1 1 1 1 1 1 1 1 1 1 1 1 1 1 1 1 1 1 1 1 1 1 1 1 1 1 1 1 1 1 1 1 1 1 1 1 1 1 1 1 1 1 1 1 1 1 1 1 1 1 1 1 1 1 1 1 1 1 1 1 1 1 1 1 1 1 1 1 1 1 1 1 1 1 1 1 1 1 1 1 1 1 1 1 1 1 1 1 1 1 1 1 1 1 1 1 1 1 1 1 1 1 1 1 1 1 1 1 1 1 1 1 1 1 1 1 1 1 1 1 1 1 1 1 1 1 1 1 1 1 1 1 1 1 1 1 1 1 1 1 1 1 1 1 1 1 1 1 1 1 1 1 1 1 1 1 1 1 1 1 1 1 1 1 1 1 1 1 1 1 1 1 1 1 1 1 1 1 1 1 1 1 1 1 1 1 1 1 1 1 1 1 1 1 1 1 1 1 1 1 1 1 1 1 1 1 1 1 1 1 1 1 1 1 1 1 1 1 1 1 1 1 1 1 1 1 1 1 1 1 1 1 1 1 1 1 1 1 1 1 1 1 1 1 1 1 1 1 1 1 1 1 1 1 1 1 1 1 1 1 1 1 1 1 1 1 1 1 1 1 1 1 1 1 1 1 1 1 1 1 1 1 1 1 1 1 1 1 1 1 1 1 1 1 1 1 1 1 1 1 1 1 1 1" order="84 30" result="filterResult2"/>
      </filter>
      <use ffdec:characterId="3249" filter="url(#filter2)" height="160.95" transform="matrix(1.0, 0.0, 0.0, 1.0, -343.35, -73.9)" width="717.45" xlink:href="#sprite2"/>
      <use ffdec:characterId="3247" height="416.95" transform="matrix(1.0, 0.0, 0.0, 1.0, -395.0, -188.9)" width="791.95" xlink:href="#shape6"/>
      <filter id="filter3">
        <feConvolveMatrix divisor="3108.0" in="SourceGraphic" kernelMatrix="1 1 1 1 1 1 1 1 1 1 1 1 1 1 1 1 1 1 1 1 1 1 1 1 1 1 1 1 1 1 1 1 1 1 1 1 1 1 1 1 1 1 1 1 1 1 1 1 1 1 1 1 1 1 1 1 1 1 1 1 1 1 1 1 1 1 1 1 1 1 1 1 1 1 1 1 1 1 1 1 1 1 1 1 1 1 1 1 1 1 1 1 1 1 1 1 1 1 1 1 1 1 1 1 1 1 1 1 1 1 1 1 1 1 1 1 1 1 1 1 1 1 1 1 1 1 1 1 1 1 1 1 1 1 1 1 1 1 1 1 1 1 1 1 1 1 1 1 1 1 1 1 1 1 1 1 1 1 1 1 1 1 1 1 1 1 1 1 1 1 1 1 1 1 1 1 1 1 1 1 1 1 1 1 1 1 1 1 1 1 1 1 1 1 1 1 1 1 1 1 1 1 1 1 1 1 1 1 1 1 1 1 1 1 1 1 1 1 1 1 1 1 1 1 1 1 1 1 1 1 1 1 1 1 1 1 1 1 1 1 1 1 1 1 1 1 1 1 1 1 1 1 1 1 1 1 1 1 1 1 1 1 1 1 1 1 1 1 1 1 1 1 1 1 1 1 1 1 1 1 1 1 1 1 1 1 1 1 1 1 1 1 1 1 1 1 1 1 1 1 1 1 1 1 1 1 1 1 1 1 1 1 1 1 1 1 1 1 1 1 1 1 1 1 1 1 1 1 1 1 1 1 1 1 1 1 1 1 1 1 1 1 1 1 1 1 1 1 1 1 1 1 1 1 1 1 1 1 1 1 1 1 1 1 1 1 1 1 1 1 1 1 1 1 1 1 1 1 1 1 1 1 1 1 1 1 1 1 1 1 1 1 1 1 1 1 1 1 1 1 1 1 1 1 1 1 1 1 1 1 1 1 1 1 1 1 1 1 1 1 1 1 1 1 1 1 1 1 1 1 1 1 1 1 1 1 1 1 1 1 1 1 1 1 1 1 1 1 1 1 1 1 1 1 1 1 1 1 1 1 1 1 1 1 1 1 1 1 1 1 1 1 1 1 1 1 1 1 1 1 1 1 1 1 1 1 1 1 1 1 1 1 1 1 1 1 1 1 1 1 1 1 1 1 1 1 1 1 1 1 1 1 1 1 1 1 1 1 1 1 1 1 1 1 1 1 1 1 1 1 1 1 1 1 1 1 1 1 1 1 1 1 1 1 1 1 1 1 1 1 1 1 1 1 1 1 1 1 1 1 1 1 1 1 1 1 1 1 1 1 1 1 1 1 1 1 1 1 1 1 1 1 1 1 1 1 1 1 1 1 1 1 1 1 1 1 1 1 1 1 1 1 1 1 1 1 1 1 1 1 1 1 1 1 1 1 1 1 1 1 1 1 1 1 1 1 1 1 1 1 1 1 1 1 1 1 1 1 1 1 1 1 1 1 1 1 1 1 1 1 1 1 1 1 1 1 1 1 1 1 1 1 1 1 1 1 1 1 1 1 1 1 1 1 1 1 1 1 1 1 1 1 1 1 1 1 1 1 1 1 1 1 1 1 1 1 1 1 1 1 1 1 1 1 1 1 1 1 1 1 1 1 1 1 1 1 1 1 1 1 1 1 1 1 1 1 1 1 1 1 1 1 1 1 1 1 1 1 1 1 1 1 1 1 1 1 1 1 1 1 1 1 1 1 1 1 1 1 1 1 1 1 1 1 1 1 1 1 1 1 1 1 1 1 1 1 1 1 1 1 1 1 1 1 1 1 1 1 1 1 1 1 1 1 1 1 1 1 1 1 1 1 1 1 1 1 1 1 1 1 1 1 1 1 1 1 1 1 1 1 1 1 1 1 1 1 1 1 1 1 1 1 1 1 1 1 1 1 1 1 1 1 1 1 1 1 1 1 1 1 1 1 1 1 1 1 1 1 1 1 1 1 1 1 1 1 1 1 1 1 1 1 1 1 1 1 1 1 1 1 1 1 1 1 1 1 1 1 1 1 1 1 1 1 1 1 1 1 1 1 1 1 1 1 1 1 1 1 1 1 1 1 1 1 1 1 1 1 1 1 1 1 1 1 1 1 1 1 1 1 1 1 1 1 1 1 1 1 1 1 1 1 1 1 1 1 1 1 1 1 1 1 1 1 1 1 1 1 1 1 1 1 1 1 1 1 1 1 1 1 1 1 1 1 1 1 1 1 1 1 1 1 1 1 1 1 1 1 1 1 1 1 1 1 1 1 1 1 1 1 1 1 1 1 1 1 1 1 1 1 1 1 1 1 1 1 1 1 1 1 1 1 1 1 1 1 1 1 1 1 1 1 1 1 1 1 1 1 1 1 1 1 1 1 1 1 1 1 1 1 1 1 1 1 1 1 1 1 1 1 1 1 1 1 1 1 1 1 1 1 1 1 1 1 1 1 1 1 1 1 1 1 1 1 1 1 1 1 1 1 1 1 1 1 1 1 1 1 1 1 1 1 1 1 1 1 1 1 1 1 1 1 1 1 1 1 1 1 1 1 1 1 1 1 1 1 1 1 1 1 1 1 1 1 1 1 1 1 1 1 1 1 1 1 1 1 1 1 1 1 1 1 1 1 1 1 1 1 1 1 1 1 1 1 1 1 1 1 1 1 1 1 1 1 1 1 1 1 1 1 1 1 1 1 1 1 1 1 1 1 1 1 1 1 1 1 1 1 1 1 1 1 1 1 1 1 1 1 1 1 1 1 1 1 1 1 1 1 1 1 1 1 1 1 1 1 1 1 1 1 1 1 1 1 1 1 1 1 1 1 1 1 1 1 1 1 1 1 1 1 1 1 1 1 1 1 1 1 1 1 1 1 1 1 1 1 1 1 1 1 1 1 1 1 1 1 1 1 1 1 1 1 1 1 1 1 1 1 1 1 1 1 1 1 1 1 1 1 1 1 1 1 1 1 1 1 1 1 1 1 1 1 1 1 1 1 1 1 1 1 1 1 1 1 1 1 1 1 1 1 1 1 1 1 1 1 1 1 1 1 1 1 1 1 1 1 1 1 1 1 1 1 1 1 1 1 1 1 1 1 1 1 1 1 1 1 1 1 1 1 1 1 1 1 1 1 1 1 1 1 1 1 1 1 1 1 1 1 1 1 1 1 1 1 1 1 1 1 1 1 1 1 1 1 1 1 1 1 1 1 1 1 1 1 1 1 1 1 1 1 1 1 1 1 1 1 1 1 1 1 1 1 1 1 1 1 1 1 1 1 1 1 1 1 1 1 1 1 1 1 1 1 1 1 1 1 1 1 1 1 1 1 1 1 1 1 1 1 1 1 1 1 1 1 1 1 1 1 1 1 1 1 1 1 1 1 1 1 1 1 1 1 1 1 1 1 1 1 1 1 1 1 1 1 1 1 1 1 1 1 1 1 1 1 1 1 1 1 1 1 1 1 1 1 1 1 1 1 1 1 1 1 1 1 1 1 1 1 1 1 1 1 1 1 1 1 1 1 1 1 1 1 1 1 1 1 1 1 1 1 1 1 1 1 1 1 1 1 1 1 1 1 1 1 1 1 1 1 1 1 1 1 1 1 1 1 1 1 1 1 1 1 1 1 1 1 1 1 1 1 1 1 1 1 1 1 1 1 1 1 1 1 1 1 1 1 1 1 1 1 1 1 1 1 1 1 1 1 1 1 1 1 1 1 1 1 1 1 1 1 1 1 1 1 1 1 1 1 1 1 1 1 1 1 1 1 1 1 1 1 1 1 1 1 1 1 1 1 1 1 1 1 1 1 1 1 1 1 1 1 1 1 1 1 1 1 1 1 1 1 1 1 1 1 1 1 1 1 1 1 1 1 1 1 1 1 1 1 1 1 1 1 1 1 1 1 1 1 1 1 1 1 1 1 1 1 1 1 1 1 1 1 1 1 1 1 1 1 1 1 1 1 1 1 1 1 1 1 1 1 1 1 1 1 1 1 1 1 1 1 1 1 1 1 1 1 1 1 1 1 1 1 1 1 1 1 1 1 1 1 1 1 1 1 1 1 1 1 1 1 1 1 1 1 1 1 1 1 1 1 1 1 1 1 1 1 1 1 1 1 1 1 1 1 1 1 1 1 1 1 1 1 1 1 1 1 1 1 1 1 1 1 1 1 1 1 1 1 1 1 1 1 1 1 1 1 1 1 1 1 1 1 1 1 1 1 1 1 1 1 1 1 1 1 1 1 1 1 1 1 1 1 1 1 1 1 1 1 1 1 1 1 1 1 1 1 1 1 1 1 1 1 1 1 1 1 1 1 1 1 1 1 1 1 1 1 1 1 1 1 1 1 1 1 1 1 1 1 1 1 1 1 1 1 1 1 1 1 1 1 1 1 1 1 1 1 1 1 1 1 1 1 1 1 1 1 1 1 1 1 1 1 1 1 1 1 1 1 1 1 1 1 1 1 1 1 1 1 1 1 1 1 1 1 1 1 1 1 1 1 1 1 1 1 1 1 1 1 1 1 1 1 1 1 1 1 1 1 1 1 1 1 1 1 1 1 1 1 1 1 1 1 1 1 1 1 1 1 1 1 1 1 1 1 1 1 1 1 1 1 1 1 1 1 1 1 1 1 1 1 1 1 1 1 1 1 1 1 1 1 1 1 1 1 1 1 1 1 1 1 1 1 1 1 1 1 1 1 1 1 1 1 1 1 1 1 1 1 1 1 1 1 1 1 1 1 1 1 1 1 1 1 1 1 1 1 1 1 1 1 1 1 1 1 1 1 1 1 1 1 1 1 1 1 1 1 1 1 1 1 1 1 1 1 1 1 1 1 1 1 1 1 1 1 1 1 1 1 1 1 1 1 1 1 1 1 1 1 1 1 1 1 1 1 1 1 1 1 1 1 1 1 1 1 1 1 1 1 1 1 1 1 1 1 1 1 1 1 1 1 1 1 1 1 1 1 1 1 1 1 1 1 1 1 1 1 1 1 1 1 1 1 1 1 1 1 1 1 1 1 1 1 1 1 1 1 1 1 1 1 1 1 1 1 1 1 1 1 1 1 1 1 1 1 1 1 1 1 1 1 1 1 1 1 1 1 1 1 1 1 1 1 1 1 1 1 1 1 1 1 1 1 1 1 1 1 1 1 1 1 1 1 1 1 1 1 1 1 1 1 1 1 1 1 1 1 1 1 1 1 1 1 1 1 1 1 1 1 1 1 1 1 1 1 1 1 1 1 1 1 1 1 1 1 1 1 1 1 1 1 1 1 1 1 1 1 1 1 1 1 1 1 1 1 1 1 1 1 1 1 1 1 1 1 1 1 1 1 1 1 1 1 1 1 1 1 1 1 1 1 1 1 1 1 1 1 1 1 1 1 1 1 1 1 1 1 1 1 1 1 1 1 1 1 1 1 1 1 1 1 1 1 1 1 1 1 1 1 1 1 1 1 1 1 1 1 1 1 1 1 1 1 1 1 1 1 1 1 1 1 1 1 1 1 1 1 1 1 1 1 1 1 1 1 1 1 1 1 1 1 1 1 1 1 1 1 1 1 1 1 1 1 1 1 1 1 1 1 1 1 1 1 1 1 1 1 1 1 1 1 1 1 1 1 1 1 1 1 1 1 1 1 1 1 1 1 1 1 1 1 1 1 1 1 1 1 1 1 1 1 1 1 1 1 1 1 1 1 1 1 1 1 1 1 1 1 1 1 1 1 1 1 1 1 1 1 1 1 1 1 1 1 1 1 1 1 1 1 1 1 1 1 1 1 1 1 1 1 1 1 1 1 1 1 1 1 1 1 1 1 1 1 1 1 1 1 1 1 1 1 1 1 1 1 1 1 1 1 1 1 1 1 1 1 1 1 1 1 1 1 1 1 1 1 1 1 1 1 1 1 1 1 1 1 1 1 1 1 1 1 1 1 1 1 1 1 1 1 1 1 1 1 1 1 1 1 1 1 1 1 1 1 1 1 1 1 1 1 1 1 1 1 1 1 1 1 1 1 1 1 1 1 1 1 1 1 1 1 1 1 1 1 1 1 1 1 1 1 1 1 1 1 1 1 1 1 1 1 1 1 1 1 1 1 1 1 1 1 1 1 1 1 1 1 1 1 1 1 1 1 1 1 1 1 1 1 1 1 1 1 1 1 1 1 1 1 1 1 1 1 1 1 1 1 1 1 1 1 1 1 1 1 1 1 1 1 1 1 1 1 1 1 1 1 1 1 1 1 1 1 1 1 1 1 1 1 1 1 1 1 1 1 1 1 1 1 1 1 1 1 1 1 1 1 1 1 1 1 1 1 1 1 1 1 1 1 1 1 1 1 1 1 1 1 1 1 1 1 1 1 1 1 1 1 1 1 1 1 1 1 1 1 1 1 1 1 1 1 1 1 1 1 1 1 1 1 1 1 1 1 1 1 1 1 1 1 1 1 1 1 1 1 1 1 1 1 1 1 1 1 1 1 1 1 1 1 1 1 1 1 1 1 1 1 1 1 1 1 1 1 1 1 1 1 1 1 1 1 1 1 1 1 1 1 1 1 1 1 1 1 1 1 1 1 1 1 1 1 1 1 1 1 1 1 1 1 1 1 1 1 1 1 1 1 1 1 1 1 1 1 1 1 1 1 1 1 1 1 1 1 1 1 1 1 1 1 1 1 1 1 1 1 1 1 1 1 1 1 1 1 1 1 1 1 1 1 1 1 1 1 1 1 1 1 1 1 1 1 1 1 1 1 1 1 1 1 1 1 1 1 1 1 1 1 1 1 1 1 1 1 1 1 1 1 1 1 1 1 1 1 1 1 1 1 1 1 1 1 1 1 1 1 1 1 1 1 1 1 1 1 1 1 1 1 1 1 1 1 1 1 1 1 1 1 1 1 1 1 1 1 1 1 1 1 1 1 1 1 1 1 1 1 1 1 1 1 1 1 1 1 1 1 1 1 1 1 1 1 1 1 1 1 1 1 1 1 1 1 1 1 1 1 1 1 1 1 1 1 1 1 1 1 1 1 1 1 1 1 1 1 1 1 1 1 1 1 1 1" order="84 37" result="filterResult3"/>
      </filter>
      <use ffdec:characterId="3246" filter="url(#filter3)" height="161.3" transform="matrix(1.0, 0.0, 0.0, 1.0, -400.5, 94.1)" width="771.75" xlink:href="#sprite3"/>
      <use ffdec:characterId="3244" height="169.35" transform="matrix(1.0, 0.0, 0.0, 1.0, -366.2, -210.9)" width="681.0" xlink:href="#shape8"/>
    </g>
    <filter id="filter4">
      <feColorMatrix in="SourceGraphic" result="filterResult4" type="matrix" values="0 0 0 0 1.0,0 0 0 0 0.0,0 0 0 0 0.0,0 0 0 1 0"/>
      <feConvolveMatrix divisor="324.0" in="filterResult4" kernelMatrix="1 1 1 1 1 1 1 1 1 1 1 1 1 1 1 1 1 1 1 1 1 1 1 1 1 1 1 1 1 1 1 1 1 1 1 1 1 1 1 1 1 1 1 1 1 1 1 1 1 1 1 1 1 1 1 1 1 1 1 1 1 1 1 1 1 1 1 1 1 1 1 1 1 1 1 1 1 1 1 1 1 1 1 1 1 1 1 1 1 1 1 1 1 1 1 1 1 1 1 1 1 1 1 1 1 1 1 1 1 1 1 1 1 1 1 1 1 1 1 1 1 1 1 1 1 1 1 1 1 1 1 1 1 1 1 1 1 1 1 1 1 1 1 1 1 1 1 1 1 1 1 1 1 1 1 1 1 1 1 1 1 1 1 1 1 1 1 1 1 1 1 1 1 1 1 1 1 1 1 1 1 1 1 1 1 1 1 1 1 1 1 1 1 1 1 1 1 1 1 1 1 1 1 1 1 1 1 1 1 1 1 1 1 1 1 1 1 1 1 1 1 1 1 1 1 1 1 1 1 1 1 1 1 1 1 1 1 1 1 1 1 1 1 1 1 1 1 1 1 1 1 1 1 1 1 1 1 1 1 1 1 1 1 1 1 1 1 1 1 1 1 1 1 1 1 1 1 1 1 1 1 1 1 1 1 1 1 1 1 1 1 1 1 1 1 1 1 1 1 1 1 1 1 1 1 1 1 1 1 1 1 1 1 1 1 1 1 1 1 1 1 1 1 1" order="18 18" result="filterResult5"/>
      <feConvolveMatrix divisor="324.0" in="filterResult5" kernelMatrix="1 1 1 1 1 1 1 1 1 1 1 1 1 1 1 1 1 1 1 1 1 1 1 1 1 1 1 1 1 1 1 1 1 1 1 1 1 1 1 1 1 1 1 1 1 1 1 1 1 1 1 1 1 1 1 1 1 1 1 1 1 1 1 1 1 1 1 1 1 1 1 1 1 1 1 1 1 1 1 1 1 1 1 1 1 1 1 1 1 1 1 1 1 1 1 1 1 1 1 1 1 1 1 1 1 1 1 1 1 1 1 1 1 1 1 1 1 1 1 1 1 1 1 1 1 1 1 1 1 1 1 1 1 1 1 1 1 1 1 1 1 1 1 1 1 1 1 1 1 1 1 1 1 1 1 1 1 1 1 1 1 1 1 1 1 1 1 1 1 1 1 1 1 1 1 1 1 1 1 1 1 1 1 1 1 1 1 1 1 1 1 1 1 1 1 1 1 1 1 1 1 1 1 1 1 1 1 1 1 1 1 1 1 1 1 1 1 1 1 1 1 1 1 1 1 1 1 1 1 1 1 1 1 1 1 1 1 1 1 1 1 1 1 1 1 1 1 1 1 1 1 1 1 1 1 1 1 1 1 1 1 1 1 1 1 1 1 1 1 1 1 1 1 1 1 1 1 1 1 1 1 1 1 1 1 1 1 1 1 1 1 1 1 1 1 1 1 1 1 1 1 1 1 1 1 1 1 1 1 1 1 1 1 1 1 1 1 1 1 1 1 1 1 1" order="18 18" result="filterResult6"/>
      <feConvolveMatrix divisor="324.0" in="filterResult6" kernelMatrix="1 1 1 1 1 1 1 1 1 1 1 1 1 1 1 1 1 1 1 1 1 1 1 1 1 1 1 1 1 1 1 1 1 1 1 1 1 1 1 1 1 1 1 1 1 1 1 1 1 1 1 1 1 1 1 1 1 1 1 1 1 1 1 1 1 1 1 1 1 1 1 1 1 1 1 1 1 1 1 1 1 1 1 1 1 1 1 1 1 1 1 1 1 1 1 1 1 1 1 1 1 1 1 1 1 1 1 1 1 1 1 1 1 1 1 1 1 1 1 1 1 1 1 1 1 1 1 1 1 1 1 1 1 1 1 1 1 1 1 1 1 1 1 1 1 1 1 1 1 1 1 1 1 1 1 1 1 1 1 1 1 1 1 1 1 1 1 1 1 1 1 1 1 1 1 1 1 1 1 1 1 1 1 1 1 1 1 1 1 1 1 1 1 1 1 1 1 1 1 1 1 1 1 1 1 1 1 1 1 1 1 1 1 1 1 1 1 1 1 1 1 1 1 1 1 1 1 1 1 1 1 1 1 1 1 1 1 1 1 1 1 1 1 1 1 1 1 1 1 1 1 1 1 1 1 1 1 1 1 1 1 1 1 1 1 1 1 1 1 1 1 1 1 1 1 1 1 1 1 1 1 1 1 1 1 1 1 1 1 1 1 1 1 1 1 1 1 1 1 1 1 1 1 1 1 1 1 1 1 1 1 1 1 1 1 1 1 1 1 1 1 1 1 1" order="18 18" result="filterResult7"/>
      <feComposite in="SourceGraphic" in2="filterResult7" operator="over" result="filterResult8"/>
    </filter>
    <use ffdec:characterId="3196" filter="url(#filter4)" height="70.7" transform="matrix(1.0, 0.0, 0.0, 1.0, 91.1, -57.05)" width="70.75" xlink:href="#sprite4"/>
    <use ffdec:characterId="3243" height="30.0" transform="matrix(1.7075, 0.0, 0.0, 1.7769, 101.1874, -47.0042)" width="30.0" xlink:href="#button0"/>
    <use ffdec:characterId="3189" height="415.1" transform="matrix(1.0, 0.0, 0.0, 1.0, -384.45, -207.4)" width="765.15" xlink:href="#shape11"/>
    <filter id="filter5">
      <feColorMatrix in="SourceGraphic" result="filterResult9" type="matrix" values="0 0 0 0 0.0,0 0 0 0 1.0,0 0 0 0 1.0,0 0 0 1 0"/>
      <feConvolveMatrix divisor="324.0" in="filterResult9" kernelMatrix="1 1 1 1 1 1 1 1 1 1 1 1 1 1 1 1 1 1 1 1 1 1 1 1 1 1 1 1 1 1 1 1 1 1 1 1 1 1 1 1 1 1 1 1 1 1 1 1 1 1 1 1 1 1 1 1 1 1 1 1 1 1 1 1 1 1 1 1 1 1 1 1 1 1 1 1 1 1 1 1 1 1 1 1 1 1 1 1 1 1 1 1 1 1 1 1 1 1 1 1 1 1 1 1 1 1 1 1 1 1 1 1 1 1 1 1 1 1 1 1 1 1 1 1 1 1 1 1 1 1 1 1 1 1 1 1 1 1 1 1 1 1 1 1 1 1 1 1 1 1 1 1 1 1 1 1 1 1 1 1 1 1 1 1 1 1 1 1 1 1 1 1 1 1 1 1 1 1 1 1 1 1 1 1 1 1 1 1 1 1 1 1 1 1 1 1 1 1 1 1 1 1 1 1 1 1 1 1 1 1 1 1 1 1 1 1 1 1 1 1 1 1 1 1 1 1 1 1 1 1 1 1 1 1 1 1 1 1 1 1 1 1 1 1 1 1 1 1 1 1 1 1 1 1 1 1 1 1 1 1 1 1 1 1 1 1 1 1 1 1 1 1 1 1 1 1 1 1 1 1 1 1 1 1 1 1 1 1 1 1 1 1 1 1 1 1 1 1 1 1 1 1 1 1 1 1 1 1 1 1 1 1 1 1 1 1 1 1 1 1 1 1 1 1" order="18 18" result="filterResult10"/>
      <feConvolveMatrix divisor="324.0" in="filterResult10" kernelMatrix="1 1 1 1 1 1 1 1 1 1 1 1 1 1 1 1 1 1 1 1 1 1 1 1 1 1 1 1 1 1 1 1 1 1 1 1 1 1 1 1 1 1 1 1 1 1 1 1 1 1 1 1 1 1 1 1 1 1 1 1 1 1 1 1 1 1 1 1 1 1 1 1 1 1 1 1 1 1 1 1 1 1 1 1 1 1 1 1 1 1 1 1 1 1 1 1 1 1 1 1 1 1 1 1 1 1 1 1 1 1 1 1 1 1 1 1 1 1 1 1 1 1 1 1 1 1 1 1 1 1 1 1 1 1 1 1 1 1 1 1 1 1 1 1 1 1 1 1 1 1 1 1 1 1 1 1 1 1 1 1 1 1 1 1 1 1 1 1 1 1 1 1 1 1 1 1 1 1 1 1 1 1 1 1 1 1 1 1 1 1 1 1 1 1 1 1 1 1 1 1 1 1 1 1 1 1 1 1 1 1 1 1 1 1 1 1 1 1 1 1 1 1 1 1 1 1 1 1 1 1 1 1 1 1 1 1 1 1 1 1 1 1 1 1 1 1 1 1 1 1 1 1 1 1 1 1 1 1 1 1 1 1 1 1 1 1 1 1 1 1 1 1 1 1 1 1 1 1 1 1 1 1 1 1 1 1 1 1 1 1 1 1 1 1 1 1 1 1 1 1 1 1 1 1 1 1 1 1 1 1 1 1 1 1 1 1 1 1 1 1 1 1 1 1" order="18 18" result="filterResult11"/>
      <feConvolveMatrix divisor="324.0" in="filterResult11" kernelMatrix="1 1 1 1 1 1 1 1 1 1 1 1 1 1 1 1 1 1 1 1 1 1 1 1 1 1 1 1 1 1 1 1 1 1 1 1 1 1 1 1 1 1 1 1 1 1 1 1 1 1 1 1 1 1 1 1 1 1 1 1 1 1 1 1 1 1 1 1 1 1 1 1 1 1 1 1 1 1 1 1 1 1 1 1 1 1 1 1 1 1 1 1 1 1 1 1 1 1 1 1 1 1 1 1 1 1 1 1 1 1 1 1 1 1 1 1 1 1 1 1 1 1 1 1 1 1 1 1 1 1 1 1 1 1 1 1 1 1 1 1 1 1 1 1 1 1 1 1 1 1 1 1 1 1 1 1 1 1 1 1 1 1 1 1 1 1 1 1 1 1 1 1 1 1 1 1 1 1 1 1 1 1 1 1 1 1 1 1 1 1 1 1 1 1 1 1 1 1 1 1 1 1 1 1 1 1 1 1 1 1 1 1 1 1 1 1 1 1 1 1 1 1 1 1 1 1 1 1 1 1 1 1 1 1 1 1 1 1 1 1 1 1 1 1 1 1 1 1 1 1 1 1 1 1 1 1 1 1 1 1 1 1 1 1 1 1 1 1 1 1 1 1 1 1 1 1 1 1 1 1 1 1 1 1 1 1 1 1 1 1 1 1 1 1 1 1 1 1 1 1 1 1 1 1 1 1 1 1 1 1 1 1 1 1 1 1 1 1 1 1 1 1 1 1" order="18 18" result="filterResult12"/>
      <feComposite in="SourceGraphic" in2="filterResult12" operator="over" result="filterResult13"/>
    </filter>
    <use ffdec:characterId="3196" filter="url(#filter5)" height="70.7" transform="matrix(1.0, 0.0, 0.0, 1.0, 300.2, 7.95)" width="70.75" xlink:href="#sprite4"/>
    <use ffdec:characterId="3242" height="30.0" transform="matrix(1.6678, 0.0, 0.0, 1.6018, 311.333, 22.5231)" width="30.0" xlink:href="#button1"/>
    <filter id="filter6">
      <feColorMatrix in="SourceGraphic" result="filterResult14" type="matrix" values="0 0 0 0 0.0,0 0 0 0 1.0,0 0 0 0 1.0,0 0 0 1 0"/>
      <feConvolveMatrix divisor="324.0" in="filterResult14" kernelMatrix="1 1 1 1 1 1 1 1 1 1 1 1 1 1 1 1 1 1 1 1 1 1 1 1 1 1 1 1 1 1 1 1 1 1 1 1 1 1 1 1 1 1 1 1 1 1 1 1 1 1 1 1 1 1 1 1 1 1 1 1 1 1 1 1 1 1 1 1 1 1 1 1 1 1 1 1 1 1 1 1 1 1 1 1 1 1 1 1 1 1 1 1 1 1 1 1 1 1 1 1 1 1 1 1 1 1 1 1 1 1 1 1 1 1 1 1 1 1 1 1 1 1 1 1 1 1 1 1 1 1 1 1 1 1 1 1 1 1 1 1 1 1 1 1 1 1 1 1 1 1 1 1 1 1 1 1 1 1 1 1 1 1 1 1 1 1 1 1 1 1 1 1 1 1 1 1 1 1 1 1 1 1 1 1 1 1 1 1 1 1 1 1 1 1 1 1 1 1 1 1 1 1 1 1 1 1 1 1 1 1 1 1 1 1 1 1 1 1 1 1 1 1 1 1 1 1 1 1 1 1 1 1 1 1 1 1 1 1 1 1 1 1 1 1 1 1 1 1 1 1 1 1 1 1 1 1 1 1 1 1 1 1 1 1 1 1 1 1 1 1 1 1 1 1 1 1 1 1 1 1 1 1 1 1 1 1 1 1 1 1 1 1 1 1 1 1 1 1 1 1 1 1 1 1 1 1 1 1 1 1 1 1 1 1 1 1 1 1 1 1 1 1 1 1" order="18 18" result="filterResult15"/>
      <feConvolveMatrix divisor="324.0" in="filterResult15" kernelMatrix="1 1 1 1 1 1 1 1 1 1 1 1 1 1 1 1 1 1 1 1 1 1 1 1 1 1 1 1 1 1 1 1 1 1 1 1 1 1 1 1 1 1 1 1 1 1 1 1 1 1 1 1 1 1 1 1 1 1 1 1 1 1 1 1 1 1 1 1 1 1 1 1 1 1 1 1 1 1 1 1 1 1 1 1 1 1 1 1 1 1 1 1 1 1 1 1 1 1 1 1 1 1 1 1 1 1 1 1 1 1 1 1 1 1 1 1 1 1 1 1 1 1 1 1 1 1 1 1 1 1 1 1 1 1 1 1 1 1 1 1 1 1 1 1 1 1 1 1 1 1 1 1 1 1 1 1 1 1 1 1 1 1 1 1 1 1 1 1 1 1 1 1 1 1 1 1 1 1 1 1 1 1 1 1 1 1 1 1 1 1 1 1 1 1 1 1 1 1 1 1 1 1 1 1 1 1 1 1 1 1 1 1 1 1 1 1 1 1 1 1 1 1 1 1 1 1 1 1 1 1 1 1 1 1 1 1 1 1 1 1 1 1 1 1 1 1 1 1 1 1 1 1 1 1 1 1 1 1 1 1 1 1 1 1 1 1 1 1 1 1 1 1 1 1 1 1 1 1 1 1 1 1 1 1 1 1 1 1 1 1 1 1 1 1 1 1 1 1 1 1 1 1 1 1 1 1 1 1 1 1 1 1 1 1 1 1 1 1 1 1 1 1 1 1" order="18 18" result="filterResult16"/>
      <feConvolveMatrix divisor="324.0" in="filterResult16" kernelMatrix="1 1 1 1 1 1 1 1 1 1 1 1 1 1 1 1 1 1 1 1 1 1 1 1 1 1 1 1 1 1 1 1 1 1 1 1 1 1 1 1 1 1 1 1 1 1 1 1 1 1 1 1 1 1 1 1 1 1 1 1 1 1 1 1 1 1 1 1 1 1 1 1 1 1 1 1 1 1 1 1 1 1 1 1 1 1 1 1 1 1 1 1 1 1 1 1 1 1 1 1 1 1 1 1 1 1 1 1 1 1 1 1 1 1 1 1 1 1 1 1 1 1 1 1 1 1 1 1 1 1 1 1 1 1 1 1 1 1 1 1 1 1 1 1 1 1 1 1 1 1 1 1 1 1 1 1 1 1 1 1 1 1 1 1 1 1 1 1 1 1 1 1 1 1 1 1 1 1 1 1 1 1 1 1 1 1 1 1 1 1 1 1 1 1 1 1 1 1 1 1 1 1 1 1 1 1 1 1 1 1 1 1 1 1 1 1 1 1 1 1 1 1 1 1 1 1 1 1 1 1 1 1 1 1 1 1 1 1 1 1 1 1 1 1 1 1 1 1 1 1 1 1 1 1 1 1 1 1 1 1 1 1 1 1 1 1 1 1 1 1 1 1 1 1 1 1 1 1 1 1 1 1 1 1 1 1 1 1 1 1 1 1 1 1 1 1 1 1 1 1 1 1 1 1 1 1 1 1 1 1 1 1 1 1 1 1 1 1 1 1 1 1 1 1" order="18 18" result="filterResult17"/>
      <feComposite in="SourceGraphic" in2="filterResult17" operator="over" result="filterResult18"/>
    </filter>
    <use ffdec:characterId="3196" filter="url(#filter6)" height="70.7" transform="matrix(1.0, 0.0, 0.0, 1.0, -235.55, 41.45)" width="70.75" xlink:href="#sprite4"/>
    <use ffdec:characterId="3241" height="30.0" transform="matrix(1.8217, 0.0, 0.0, 1.7496, -227.5248, 51.3066)" width="30.0" xlink:href="#button2"/>
  </g>
  <defs>
    <radialGradient cx="0" cy="0" gradientTransform="matrix(0.5303, 0.0, 0.0, 0.5345, 0.0, 0.0)" gradientUnits="userSpaceOnUse" id="gradient0" r="819.2" spreadMethod="pad">
      <stop offset="0.0" stop-color="#ffffff"/>
      <stop offset="1.0" stop-color="#bbbbbb"/>
    </radialGradient>
    <g id="shape1" transform="matrix(1.0, 0.0, 0.0, 1.0, 388.0, 209.9)">
      <path d="M78.0 -147.0 L76.25 -148.25 Q75.1 -148.5 75.95 -147.75 76.9 -147.0 78.05 -146.9 L78.0 -147.0 M8.65 -194.25 Q8.25 -194.9 7.5 -195.25 6.7 -195.45 6.85 -195.25 7.5 -194.4 8.6 -194.15 L8.65 -194.25 M16.0 -157.0 L14.25 -158.25 Q13.05 -158.35 14.1 -157.3 14.75 -156.65 15.95 -156.85 L16.0 -157.0 M80.25 -179.25 Q78.7 -179.15 80.65 -178.05 82.65 -176.9 81.85 -177.95 81.25 -178.75 80.25 -179.25 M204.85 -200.7 Q204.75 -201.5 204.25 -202.25 203.2 -202.3 203.65 -201.3 204.0 -200.5 204.65 -200.3 204.9 -200.25 204.85 -200.7 M384.95 216.05 L-388.0 216.05 -388.0 -209.9 384.95 -209.9 384.95 216.05 M-126.9 -163.9 Q-127.85 -164.4 -129.0 -164.5 -129.4 -164.35 -129.2 -164.2 -128.25 -163.65 -127.05 -163.85 L-126.9 -163.9 M-52.0 -142.0 Q-52.75 -142.75 -53.75 -143.25 -54.9 -143.5 -54.05 -142.75 -53.1 -142.0 -51.95 -141.9 L-52.0 -142.0 M-307.75 -121.3 Q-307.95 -122.0 -308.95 -122.5 -309.9 -122.0 -308.25 -121.35 L-307.75 -121.3 M-251.9 -185.25 Q-251.2 -185.5 -250.7 -186.25 L-251.7 -185.95 Q-252.6 -185.65 -252.6 -185.25 -252.6 -185.0 -251.9 -185.25 M-214.1 -162.95 Q-214.7 -163.75 -215.7 -164.25 -217.3 -164.15 -215.3 -163.05 -213.3 -161.9 -214.1 -162.95 M-324.95 -196.5 L-325.2 -196.2 Q-324.2 -195.65 -323.05 -195.85 L-322.9 -195.9 Q-323.85 -196.4 -324.95 -196.5" fill="url(#gradient1)" fill-rule="evenodd" stroke="none"/>
      <path d="M204.85 -200.7 Q204.9 -200.25 204.65 -200.3 204.0 -200.5 203.65 -201.3 203.2 -202.3 204.25 -202.25 204.75 -201.5 204.85 -200.7 M80.25 -179.25 Q81.25 -178.75 81.85 -177.95 82.65 -176.9 80.65 -178.05 78.7 -179.15 80.25 -179.25 M16.0 -157.0 L15.95 -156.85 Q14.75 -156.65 14.1 -157.3 13.05 -158.35 14.25 -158.25 L16.0 -157.0 M8.65 -194.25 L8.6 -194.15 Q7.5 -194.4 6.85 -195.25 6.7 -195.45 7.5 -195.25 8.25 -194.9 8.65 -194.25 M78.0 -147.0 L78.05 -146.9 Q76.9 -147.0 75.95 -147.75 75.1 -148.5 76.25 -148.25 L78.0 -147.0 M-324.95 -196.5 Q-323.85 -196.4 -322.9 -195.9 L-323.05 -195.85 Q-324.2 -195.65 -325.2 -196.2 L-324.95 -196.5 M-214.1 -162.95 Q-213.3 -161.9 -215.3 -163.05 -217.3 -164.15 -215.7 -164.25 -214.7 -163.75 -214.1 -162.95 M-251.9 -185.25 Q-252.6 -185.0 -252.6 -185.25 -252.6 -185.65 -251.7 -185.95 L-250.7 -186.25 Q-251.2 -185.5 -251.9 -185.25 M-307.75 -121.3 L-308.25 -121.35 Q-309.9 -122.0 -308.95 -122.5 -307.95 -122.0 -307.75 -121.3 M-52.0 -142.0 L-51.95 -141.9 Q-53.1 -142.0 -54.05 -142.75 -54.9 -143.5 -53.75 -143.25 -52.75 -142.75 -52.0 -142.0 M-126.9 -163.9 L-127.05 -163.85 Q-128.25 -163.65 -129.2 -164.2 -129.4 -164.35 -129.0 -164.5 -127.85 -164.4 -126.9 -163.9" fill="#ffffff" fill-rule="evenodd" stroke="none"/>
    </g>
    <linearGradient gradientTransform="matrix(0.0, 0.26, -0.4718, 0.0, -1.5, 3.05)" gradientUnits="userSpaceOnUse" id="gradient1" spreadMethod="pad" x1="-819.2" x2="819.2">
      <stop offset="0.0" stop-color="#242431"/>
      <stop offset="0.27058823529411763" stop-color="#3d2121"/>
      <stop offset="1.0" stop-color="#925518"/>
    </linearGradient>
    <g id="sprite0" transform="matrix(1.0, 0.0, 0.0, 1.0, 255.35, 65.6)">
      <use ffdec:characterId="3253" height="125.05" transform="matrix(1.0, 0.0, 0.0, 1.0, -255.35, -65.6)" width="510.65" xlink:href="#shape2"/>
    </g>
    <g id="shape2" transform="matrix(1.0, 0.0, 0.0, 1.0, 255.35, 65.6)">
      <path d="M249.7 7.75 L248.25 8.7 247.85 8.9 Q245.25 10.4 242.3 10.5 L241.05 12.0 Q240.3 13.1 240.3 14.4 241.95 17.55 245.3 18.9 L248.25 20.6 Q249.6 21.65 250.65 23.05 251.45 24.1 251.3 25.4 L251.1 26.8 250.55 28.45 250.25 29.9 250.05 31.4 Q249.4 32.5 248.25 32.5 247.35 32.45 246.1 31.75 243.75 30.4 241.3 29.4 238.25 30.45 235.95 33.45 233.7 36.4 232.05 39.3 L230.55 42.15 Q214.25 46.05 206.8 33.35 206.0 32.0 205.95 30.6 205.7 24.2 208.4 18.55 L208.55 17.9 Q204.5 16.15 199.2 18.65 198.2 19.15 197.3 19.9 196.9 20.95 197.0 22.15 L197.05 24.4 196.85 26.6 196.3 28.15 Q194.05 29.55 191.3 30.0 189.45 30.3 188.3 31.9 187.9 32.95 188.0 34.15 L188.15 36.4 Q188.3 37.55 188.9 38.7 L189.05 39.4 Q187.15 42.85 183.15 44.5 176.7 47.15 171.3 43.15 170.15 41.95 170.15 40.15 170.15 38.3 170.95 36.95 171.75 35.7 171.5 34.15 L171.3 33.4 Q167.9 29.9 164.2 33.8 161.9 36.2 158.8 35.65 L158.0 33.65 156.95 31.3 Q156.55 30.4 155.8 29.65 152.65 28.85 149.65 31.3 148.75 32.0 148.05 32.15 L148.05 32.9 148.05 33.65 148.05 34.4 148.15 35.1 148.55 36.65 146.9 36.4 146.05 35.9 143.9 33.55 143.6 32.9 143.55 32.15 143.55 31.4 Q143.55 30.65 143.9 30.15 144.75 29.05 144.6 27.65 144.55 27.25 144.75 27.0 L145.3 26.4 145.7 26.15 Q146.25 24.55 147.8 23.45 153.75 19.05 159.8 21.4 158.7 21.75 157.65 22.25 L163.15 21.4 Q166.7 21.15 170.3 19.4 L171.5 19.75 Q172.55 20.15 173.45 20.8 L175.1 22.1 176.05 22.9 180.55 22.9 Q182.55 21.35 183.35 19.05 185.25 13.5 184.7 7.15 184.2 0.85 189.1 -3.0 193.0 -6.05 197.6 -8.0 L200.55 -9.1 201.15 -9.95 203.6 -15.1 Q204.75 -17.75 206.25 -20.5 207.9 -23.5 211.3 -24.6 L221.55 -24.35 222.35 -23.65 Q223.85 -22.25 224.9 -20.5 225.95 -18.9 227.55 -17.6 L228.0 -17.2 228.3 -17.35 228.55 -17.35 230.85 -15.15 Q231.95 -14.1 231.65 -13.6 231.45 -13.3 230.75 -13.25 L230.85 -13.1 Q233.4 -11.85 234.2 -8.35 234.7 -6.2 234.5 -4.3 L235.0 -3.45 Q235.4 -2.85 235.4 -2.25 L234.35 -3.25 233.65 -1.15 Q235.9 -0.5 236.55 1.4 L232.5 0.7 231.15 2.75 233.35 3.6 Q235.6 4.5 237.3 6.55 L243.9 5.85 Q244.2 5.75 244.55 6.15 L244.95 7.2 Q246.65 6.8 248.25 6.0 L248.5 5.9 249.7 7.75" fill="url(#gradient2)" fill-rule="evenodd" stroke="none"/>
      <path d="M248.5 5.9 Q250.15 4.95 251.65 3.55 254.6 0.8 255.3 3.9 L255.15 4.65 254.7 5.9 Q254.2 6.75 253.3 6.75 L253.4 6.15 253.55 5.4 253.45 5.0 249.7 7.75 248.5 5.9" fill="url(#gradient3)" fill-rule="evenodd" stroke="none"/>
      <path d="M-222.75 -12.35 L-218.65 -14.6 Q-217.6 -14.35 -217.15 -13.85 -212.15 -13.6 -207.5 -12.25 -199.9 -10.1 -201.9 -4.4 L-201.95 -4.2 -202.5 -2.4 Q-203.6 1.35 -203.9 5.3 L-203.6 5.6 -201.6 6.2 -194.9 7.25 -194.55 8.1 Q-193.55 9.1 -194.05 10.4 L-195.25 13.7 Q-196.1 16.45 -193.05 18.45 L-189.9 20.3 -189.65 20.35 -184.45 20.15 -183.65 19.95 Q-182.85 18.4 -182.7 16.05 L-182.3 13.45 Q-180.3 6.15 -168.2 12.75 -166.5 13.7 -166.55 15.9 L-166.65 21.15 -166.55 21.45 -159.25 22.95 Q-158.9 23.0 -158.65 23.3 L-158.65 23.8 -158.6 25.4 Q-158.55 26.25 -159.05 27.1 -160.0 28.55 -159.75 30.15 -159.4 32.15 -157.5 33.55 L-156.4 34.2 -155.65 34.7 -155.0 35.1 -154.9 35.15 -150.7 34.95 -149.65 34.75 -148.4 34.4 -147.75 33.8 -147.4 33.35 -147.1 32.8 -146.7 32.25 -146.5 31.75 -146.35 31.2 -146.15 30.7 -145.4 29.6 -144.9 29.1 -144.1 28.8 Q-142.3 28.55 -140.45 28.8 -139.9 28.8 -139.4 29.1 L-138.4 30.2 Q-137.75 31.15 -137.9 32.25 -138.1 33.9 -137.4 35.35 -136.15 38.0 -135.45 40.8 L-134.65 43.9 -133.9 44.4 -132.9 44.75 -128.4 44.95 -127.65 44.45 -126.9 43.9 -126.15 43.35 -125.55 42.75 -125.35 42.3 -125.15 41.95 -124.65 41.85 -118.45 42.15 Q-118.05 42.2 -117.65 42.5 L-116.9 43.55 -114.9 45.65 Q-113.25 47.05 -112.65 48.75 -111.8 51.25 -112.2 53.5 -112.4 54.65 -111.9 56.25 L-112.5 56.65 Q-114.2 57.55 -116.15 58.05 -117.15 58.35 -118.05 58.8 -120.45 60.15 -122.7 58.75 -123.3 58.35 -124.15 58.2 L-124.15 57.85 -122.5 56.85 Q-121.65 56.4 -121.1 55.8 L-120.2 54.95 Q-119.2 54.25 -119.35 53.25 L-119.4 51.65 Q-120.05 51.2 -120.7 51.15 -122.4 51.05 -123.95 51.65 -126.95 52.8 -128.65 54.65 -131.4 57.7 -136.15 57.45 L-136.7 57.1 -138.3 56.15 -139.3 55.15 -140.1 54.25 -142.1 52.5 -142.4 52.2 -154.5 52.55 Q-168.9 49.2 -180.4 56.05 L-182.65 57.1 -184.4 56.85 Q-186.3 56.5 -187.95 55.75 L-190.55 54.55 -193.3 52.8 -193.65 52.0 -193.65 51.5 -193.65 50.95 -193.5 50.5 -192.7 49.85 -191.95 49.35 -191.4 48.85 -190.65 48.3 -190.3 48.05 -196.9 47.85 Q-197.4 47.85 -197.9 48.15 L-198.3 48.7 -198.6 49.7 -198.65 50.8 -198.65 51.85 -198.75 53.4 -198.9 54.5 Q-199.55 55.0 -200.35 55.35 -203.3 56.65 -206.7 56.75 -211.75 56.95 -215.65 55.2 L-215.65 54.65 -215.75 54.1 -216.0 53.65 -216.6 53.05 -217.0 52.75 -218.9 52.55 -224.8 54.85 Q-232.65 57.8 -237.95 52.6 -241.85 48.75 -239.55 44.2 L-239.4 43.7 Q-239.4 43.45 -239.55 43.25 L-240.1 42.65 -240.4 42.15 -240.75 41.65 -241.4 41.1 -243.05 40.45 Q-245.35 39.4 -247.85 40.5 -249.15 41.1 -250.65 41.1 L-253.9 40.75 Q-255.35 39.3 -255.35 37.55 -255.4 33.55 -254.35 29.75 L-253.9 28.5 -253.8 28.35 Q-251.6 23.4 -243.85 20.55 -240.75 19.4 -238.4 17.45 L-239.3 16.35 -240.15 14.25 -240.4 11.65 Q-240.3 8.9 -237.1 7.2 -235.35 6.3 -233.9 5.1 -233.15 4.4 -232.95 3.55 L-232.25 0.35 Q-231.8 -1.5 -230.55 -3.2 -228.75 -8.5 -222.75 -12.35" fill="url(#gradient4)" fill-rule="evenodd" stroke="none"/>
      <path d="M-39.75 22.45 L-40.2 20.6 Q-40.6 18.7 -39.75 17.05 L-39.75 22.45" fill="url(#gradient5)" fill-rule="evenodd" stroke="none"/>
      <path d="M8.05 -62.85 L8.0 -62.1 7.75 -61.4 7.3 -60.55 Q6.95 -59.35 5.8 -58.4 4.7 -57.55 5.0 -56.1 L5.05 -55.35 5.05 -54.6 5.05 -54.1 5.1 -53.95 Q7.8 -53.1 10.3 -51.85 L11.05 -50.85 11.1 -50.1 Q11.3 -48.7 10.3 -47.65 8.7 -46.05 7.65 -44.4 L5.35 -40.65 Q4.7 -39.55 5.05 -38.1 L5.15 -37.35 5.45 -36.7 6.1 -36.15 7.45 -35.2 Q8.7 -34.25 9.8 -33.1 L15.5 -33.45 Q16.55 -33.6 17.55 -34.15 L19.3 -35.1 19.6 -35.85 20.05 -36.6 20.45 -37.4 20.7 -38.05 21.3 -38.85 21.45 -39.6 Q21.55 -40.9 21.25 -42.05 L20.15 -45.1 Q19.55 -46.35 19.45 -47.85 19.35 -49.3 20.55 -50.1 L21.35 -50.8 Q23.1 -52.1 25.25 -52.8 34.7 -56.05 34.05 -49.35 L34.6 -48.65 35.0 -48.05 35.1 -48.0 Q37.45 -47.55 39.45 -46.2 L41.05 -44.85 41.1 -44.1 Q41.35 -42.0 40.95 -40.15 40.35 -37.25 39.3 -34.65 38.25 -31.8 35.45 -29.5 L35.8 -29.1 36.5 -28.3 Q37.5 -26.9 38.85 -27.2 43.25 -28.15 46.25 -25.05 47.3 -23.95 47.8 -22.6 47.55 -22.35 47.3 -22.35 L46.15 -22.45 46.15 -22.35 46.3 -21.6 47.1 -21.3 52.5 -20.05 52.8 -19.6 52.05 -18.85 51.35 -18.1 50.8 -17.4 50.05 -16.6 38.7 -15.1 Q34.25 -14.25 28.8 -15.35 L28.05 -16.1 Q26.95 -17.25 26.15 -18.55 L24.75 -20.85 Q24.3 -21.5 23.05 -21.6 L22.1 -20.8 Q20.8 -19.6 21.1 -17.85 21.4 -15.8 20.6 -14.1 19.95 -12.85 19.8 -11.35 L19.3 -11.15 Q14.4 -9.1 10.35 -12.1 9.4 -12.8 9.55 -14.35 L9.0 -14.85 Q4.15 -16.75 -1.95 -17.1 L-2.7 -17.85 Q-3.85 -19.05 -3.65 -20.9 L-3.45 -24.6 -3.45 -27.6 -4.15 -28.4 -4.4 -28.6 -7.95 -27.85 -7.95 -25.6 Q-7.95 -22.55 -8.95 -19.8 -10.1 -16.5 -12.8 -14.65 L-13.1 -14.1 Q-13.35 -13.0 -14.95 -12.85 -18.7 -10.3 -21.75 -12.1 -27.5 -15.45 -33.2 -14.1 L-33.25 -13.35 -33.45 -12.65 -34.05 -11.05 -34.05 -11.0 -33.2 -10.6 -33.65 -10.5 -34.2 -10.6 -34.7 -9.8 Q-34.8 -9.6 -35.2 -9.6 L-35.2 -10.35 -35.2 -10.85 Q-37.05 -11.55 -38.05 -13.45 -39.15 -15.45 -39.75 -17.55 L-39.75 -22.95 -39.25 -23.75 Q-38.45 -24.85 -38.45 -26.1 L-37.65 -26.85 -36.65 -27.55 Q-34.0 -29.1 -31.55 -28.2 -29.7 -27.5 -27.7 -27.1 L-26.95 -27.65 -25.3 -28.85 Q-23.4 -29.95 -21.7 -31.3 -20.15 -32.5 -19.7 -33.85 -22.3 -37.1 -24.35 -40.65 -25.35 -42.4 -25.8 -44.15 L-26.05 -45.4 Q-27.25 -47.7 -26.85 -50.9 L-26.75 -51.9 -26.8 -52.0 -26.75 -52.0 -26.7 -53.1 -25.95 -53.9 -23.9 -55.6 -23.8 -55.65 Q-22.95 -57.25 -21.5 -58.7 L-20.7 -59.35 -19.45 -59.25 Q-15.65 -62.35 -10.15 -63.75 -7.45 -64.4 -4.7 -65.6 L3.55 -65.0 Q5.65 -64.8 7.3 -63.55 L8.05 -62.85" fill="url(#gradient6)" fill-rule="evenodd" stroke="none"/>
    </g>
    <linearGradient gradientTransform="matrix(-0.0013, 0.0435, -0.0656, -0.002, 198.0, 10.5)" gradientUnits="userSpaceOnUse" id="gradient2" spreadMethod="pad" x1="-819.2" x2="819.2">
      <stop offset="0.0" stop-color="#404762" stop-opacity="0.34901962"/>
      <stop offset="1.0" stop-color="#5f4343" stop-opacity="0.34901962"/>
    </linearGradient>
    <linearGradient gradientTransform="matrix(-0.0017, 0.0541, -0.3111, -0.0096, 0.35, -1.15)" gradientUnits="userSpaceOnUse" id="gradient3" spreadMethod="pad" x1="-819.2" x2="819.2">
      <stop offset="0.0" stop-color="#404762" stop-opacity="0.34901962"/>
      <stop offset="1.0" stop-color="#5f4343" stop-opacity="0.34901962"/>
    </linearGradient>
    <linearGradient gradientTransform="matrix(-0.0013, 0.0433, -0.0878, -0.0027, -182.9, 22.0)" gradientUnits="userSpaceOnUse" id="gradient4" spreadMethod="pad" x1="-819.2" x2="819.2">
      <stop offset="0.0" stop-color="#404762" stop-opacity="0.34901962"/>
      <stop offset="1.0" stop-color="#5f4343" stop-opacity="0.34901962"/>
    </linearGradient>
    <linearGradient gradientTransform="matrix(-0.0011, 0.0347, -0.0568, -0.0017, 6.75, 3.2)" gradientUnits="userSpaceOnUse" id="gradient5" spreadMethod="pad" x1="-819.2" x2="819.2">
      <stop offset="0.0" stop-color="#404762" stop-opacity="0.34901962"/>
      <stop offset="1.0" stop-color="#5f4343" stop-opacity="0.34901962"/>
    </linearGradient>
    <linearGradient gradientTransform="matrix(-0.0011, 0.0347, -0.0568, -0.0017, 6.75, -36.8)" gradientUnits="userSpaceOnUse" id="gradient6" spreadMethod="pad" x1="-819.2" x2="819.2">
      <stop offset="0.0" stop-color="#404762" stop-opacity="0.34901962"/>
      <stop offset="1.0" stop-color="#5f4343" stop-opacity="0.34901962"/>
    </linearGradient>
    <g id="sprite1" transform="matrix(1.0, 0.0, 0.0, 1.0, 255.35, 43.0)">
      <use ffdec:characterId="3251" height="102.45" transform="matrix(1.0, 0.0, 0.0, 1.0, -255.35, -43.0)" width="506.65" xlink:href="#shape3"/>
    </g>
    <g id="shape3" transform="matrix(1.0, 0.0, 0.0, 1.0, 255.35, 43.0)">
      <path d="M34.85 -3.5 L34.35 -3.85 35.75 -3.75 35.6 -3.7 34.85 -3.5 M27.6 -29.0 L28.35 -28.3 28.8 -27.65 Q33.35 -21.15 40.5 -23.75 L44.95 -23.85 46.5 -24.0 47.05 -24.1 47.8 -22.6 Q47.55 -22.35 47.3 -22.35 L46.15 -22.45 46.15 -22.35 46.3 -21.6 47.1 -21.3 52.0 -20.15 52.7 -19.5 52.05 -18.85 51.35 -18.1 50.8 -17.4 50.05 -16.6 38.7 -15.1 Q34.25 -14.25 28.8 -15.35 L28.05 -16.1 Q26.95 -17.25 26.15 -18.55 L24.75 -20.85 Q24.3 -21.5 23.05 -21.6 L22.1 -20.8 Q20.8 -19.6 21.1 -17.85 21.4 -15.8 20.6 -14.1 19.95 -12.85 19.8 -11.35 L19.3 -11.15 Q14.4 -9.1 10.35 -12.1 9.4 -12.8 9.55 -14.35 L9.0 -14.85 Q4.15 -16.75 -1.95 -17.1 L-2.7 -17.85 Q-3.85 -19.05 -3.65 -20.9 L-3.45 -24.6 -3.45 -27.6 -4.15 -28.4 -4.4 -28.6 -7.95 -27.85 -7.95 -25.6 Q-7.95 -22.55 -8.95 -19.8 -10.1 -16.5 -12.8 -14.65 L-13.1 -14.1 Q-13.35 -13.0 -14.95 -12.85 -18.7 -10.3 -21.75 -12.1 -27.5 -15.45 -33.2 -14.1 L-33.25 -13.35 -33.45 -12.65 -34.05 -11.05 -34.05 -11.0 -33.2 -10.6 -33.65 -10.5 -34.2 -10.6 -34.7 -9.8 Q-34.8 -9.6 -35.2 -9.6 L-35.2 -10.35 -35.2 -10.85 Q-37.05 -11.55 -38.05 -13.45 L-38.1 -13.55 Q-37.55 -16.2 -36.5 -18.7 -36.0 -20.0 -35.15 -19.7 -22.7 -15.85 -17.65 -27.05 -15.2 -32.55 -11.15 -36.0 L-11.15 -37.15 -11.15 -37.75 -11.15 -38.65 -11.15 -39.75 -11.15 -40.15 -10.9 -41.25 -10.5 -42.0 -10.25 -42.4 Q-7.05 -43.85 -4.4 -41.9 L-3.5 -41.25 -1.3 -39.75 -0.1 -39.0 Q0.6 -38.55 0.95 -37.75 L1.0 -37.5 0.7 -36.75 0.3 -35.8 Q0.0 -35.2 0.05 -34.5 L0.1 -33.4 0.1 -33.0 Q0.7 -32.2 1.55 -31.55 2.75 -30.65 3.35 -29.5 L4.05 -27.75 4.1 -27.4 3.85 -26.7 3.25 -25.45 2.4 -24.3 Q1.95 -23.9 2.1 -23.25 L2.1 -22.9 Q4.05 -19.1 8.45 -19.4 12.65 -19.7 13.9 -23.05 14.35 -24.2 14.35 -25.5 L18.7 -27.75 14.7 -26.8 14.9 -26.95 16.95 -28.15 17.4 -28.4 16.75 -27.4 20.45 -28.75 20.5 -28.75 20.35 -28.5 21.45 -29.05 Q24.55 -30.0 27.6 -29.0 M250.65 23.05 Q251.45 24.1 251.3 25.4 L251.1 26.8 250.55 28.45 250.25 29.9 250.05 31.4 Q248.85 33.35 246.1 31.75 243.75 30.4 241.3 29.4 238.25 30.45 235.95 33.45 233.7 36.4 232.05 39.3 L230.55 42.15 Q214.25 46.05 206.8 33.35 206.0 32.0 205.95 30.6 205.7 24.2 208.4 18.55 L208.55 17.9 Q204.5 16.15 199.2 18.65 198.2 19.15 197.3 19.9 196.9 20.95 197.0 22.15 L197.05 24.4 196.85 26.6 196.3 28.15 Q194.05 29.55 191.3 30.0 189.45 30.3 188.3 31.9 187.9 32.95 188.0 34.15 L188.15 36.4 Q188.3 37.55 188.9 38.7 L189.05 39.4 Q187.15 42.85 183.15 44.5 176.7 47.15 171.3 43.15 170.15 41.95 170.15 40.15 170.15 38.3 170.95 36.95 171.75 35.7 171.5 34.15 L171.3 33.4 Q167.9 29.9 164.2 33.8 161.9 36.2 158.8 35.65 L158.0 33.65 156.95 31.3 Q156.55 30.4 155.8 29.65 152.65 28.85 149.65 31.3 148.75 32.0 148.05 32.15 L148.05 32.9 148.05 33.65 148.05 34.4 148.15 35.1 148.55 36.65 146.9 36.4 146.05 35.9 145.8 35.65 Q146.7 31.85 148.9 28.9 153.0 23.5 159.6 26.25 163.65 28.85 169.75 27.95 171.9 27.65 173.6 29.6 L173.6 30.0 173.6 30.35 173.6 30.75 173.65 31.1 173.95 31.5 174.1 31.85 174.2 32.25 Q177.2 33.35 180.45 32.3 185.35 30.8 188.8 27.15 L193.7 22.6 193.7 21.95 Q191.85 16.45 196.75 13.9 207.85 8.1 217.95 14.0 L217.4 15.05 214.8 18.75 Q213.8 20.05 213.7 21.85 213.65 23.25 214.45 24.1 221.25 26.55 226.25 21.55 230.8 17.0 236.95 17.6 L237.0 16.9 Q237.15 15.95 236.85 15.2 236.7 14.8 236.85 14.2 L236.95 13.1 237.1 12.0 Q239.1 10.6 241.65 11.0 L241.8 11.05 241.05 12.0 Q240.3 13.1 240.3 14.4 241.95 17.55 245.3 18.9 248.5 20.2 250.65 23.05 M-128.65 54.65 Q-131.4 57.7 -136.15 57.45 L-136.7 57.1 -138.3 56.15 -139.3 55.15 -140.1 54.25 -142.1 52.5 -142.4 52.2 -154.5 52.55 Q-168.9 49.2 -180.4 56.05 L-182.65 57.1 -184.4 56.85 Q-186.3 56.5 -187.95 55.75 L-190.55 54.55 -193.3 52.8 -193.65 52.0 -193.65 51.5 -193.65 50.95 -193.5 50.5 -192.7 49.85 -191.95 49.35 -191.4 48.85 -190.65 48.3 -190.3 48.05 -196.9 47.85 Q-197.4 47.85 -197.9 48.15 L-198.3 48.7 -198.6 49.7 -198.65 50.8 -198.65 51.85 -198.75 53.4 -198.9 54.5 Q-199.55 55.0 -200.35 55.35 -203.3 56.65 -206.7 56.75 -211.75 56.95 -215.65 55.2 L-215.65 54.65 -215.75 54.1 -216.0 53.65 -216.6 53.05 -217.0 52.75 -218.9 52.55 -224.8 54.85 Q-232.65 57.8 -237.95 52.6 -241.85 48.75 -239.55 44.2 L-239.4 43.7 Q-239.4 43.45 -239.55 43.25 L-240.1 42.65 -240.4 42.15 -240.75 41.65 -241.4 41.1 -243.05 40.45 Q-245.35 39.4 -247.85 40.5 -249.15 41.1 -250.65 41.1 L-253.9 40.75 Q-255.35 39.3 -255.35 37.55 -255.4 35.35 -255.05 33.2 L-254.4 32.55 Q-247.55 26.25 -238.25 26.9 -234.15 27.2 -232.95 30.8 -230.4 38.8 -222.4 39.25 L-221.15 38.25 Q-219.65 37.3 -218.6 35.8 L-217.2 34.15 Q-216.7 33.65 -216.0 33.35 L-215.75 33.25 -215.25 33.25 -212.0 33.25 -211.6 33.15 -211.0 32.85 Q-203.5 24.15 -194.35 31.9 -189.55 35.95 -182.65 34.35 L-181.95 35.2 Q-181.05 36.6 -181.65 38.1 L-182.6 40.5 -182.9 41.85 -182.9 43.0 -182.9 43.35 -181.65 44.5 -181.6 44.6 -180.75 45.15 Q-175.85 46.5 -171.15 44.55 L-169.85 44.15 -167.25 44.25 -145.5 45.35 Q-138.75 51.15 -129.05 49.75 -128.0 49.6 -127.25 49.05 -120.65 44.0 -114.0 48.25 -113.05 48.85 -112.4 49.6 -111.85 51.65 -112.2 53.5 -112.4 54.65 -111.9 56.25 L-112.5 56.65 Q-114.2 57.55 -116.15 58.05 -117.15 58.35 -118.05 58.8 -120.45 60.15 -122.7 58.75 -123.3 58.35 -124.15 58.2 L-124.15 57.85 -122.5 56.85 Q-121.65 56.4 -121.1 55.8 L-120.2 54.95 Q-119.2 54.25 -119.35 53.25 L-119.4 51.65 Q-120.05 51.2 -120.7 51.15 -122.4 51.05 -123.95 51.65 -126.95 52.8 -128.65 54.65" fill="#76454a" fill-opacity="0.34901962" fill-rule="evenodd" stroke="none"/>
    </g>
    <g id="shape4" transform="matrix(1.0, 0.0, 0.0, 1.0, 419.0, 215.65)">
      <path d="M69.95 -54.6 Q112.1 -69.45 126.95 -88.95 L151.95 -73.6 180.95 -92.4 215.95 -98.35 232.8 -120.3 267.95 -124.3 290.6 -113.0 318.95 -94.1 333.95 -86.4 358.95 -88.95 362.95 -115.4 386.95 -124.45 386.95 76.1 -390.0 76.1 -390.0 -77.75 -367.0 -87.25 Q-356.1 -93.55 -338.0 -81.7 -331.25 -60.65 -317.0 -54.65 -303.85 -45.5 -292.0 -43.55 -277.9 -34.25 -273.0 -21.0 -248.4 -16.15 -224.0 -25.85 -197.15 -20.4 -186.05 -7.05 L-181.05 -1.0 Q-161.75 -7.2 -148.05 -24.55 -129.55 -36.15 -111.05 -29.05 -97.55 -14.7 -80.3 -11.65 -58.75 -11.05 -40.05 -19.0 -25.75 -44.05 4.95 -63.6 29.2 -73.25 69.95 -54.6" fill="url(#gradient7)" fill-rule="evenodd" stroke="none"/>
      <path d="M231.95 -178.9 L232.8 -178.65 M386.95 -188.9 L386.95 -183.5 396.95 -187.9 M-390.0 -131.9 L-390.0 -128.75 -398.0 -124.9" fill="none" stroke="#000000" stroke-linecap="round" stroke-linejoin="round" stroke-width="1.0"/>
      <path d="M-326.4 -76.65 L-330.0 -76.9 -329.7 -77.75 -326.4 -76.65" fill="url(#gradient8)" fill-rule="evenodd" stroke="none"/>
      <path d="M3.95 -32.9 L16.95 -31.9 24.95 21.1 21.5 23.5 34.95 43.1 18.95 42.1 1.65 18.4 1.8 18.25 15.95 16.1 3.95 -32.9 M-142.35 19.85 L-128.05 33.1 Q-108.45 45.35 -95.05 45.1 -77.2 33.3 -48.05 29.1 L-57.05 -39.9 18.95 -55.9 21.85 -45.85 -48.05 -34.9 -37.05 26.15 -4.05 60.1 57.95 57.15 41.45 21.2 Q66.2 26.0 90.95 21.1 L100.95 3.1 217.95 -8.9 259.95 4.1 345.95 -19.9 407.95 8.1 409.9 240.1 -403.8 242.0 -419.0 15.6 -358.25 -14.75 Q-344.25 -12.55 -334.0 -17.9 L-326.4 -76.65 -329.7 -77.75 -326.0 -88.9 -284.05 -78.95 -284.0 -78.95 -284.65 -74.85 -320.0 -79.9 -321.0 -79.9 -328.0 -14.0 -327.0 -13.9 -306.0 7.1 -304.85 6.9 -299.0 40.1 -259.0 40.1 -255.0 27.1 -291.0 28.1 -295.0 4.1 -308.0 -10.9 -302.3 -16.55 -299.0 -15.9 -298.0 -54.9 -290.0 -55.9 -288.85 -49.45 -296.0 -47.9 -293.0 -13.9 -279.0 -0.9 -279.0 15.1 -272.0 15.1 -271.0 -4.9 -282.15 -16.05 Q-267.6 -19.05 -253.0 -5.9 L-241.0 7.1 Q-229.5 16.55 -218.05 11.1 L-212.65 -37.4 -212.65 -37.5 -212.5 -38.55 -212.45 -39.35 -212.05 -42.9 -163.05 -51.9 -162.1 -44.95 -207.0 -36.9 -208.0 -36.9 -211.85 9.3 -190.0 35.1 -159.05 44.1 -132.05 31.1 -142.35 19.85 M-178.1 6.1 L-167.05 6.1 -171.85 -31.6 -171.9 -31.9 -170.15 -32.15 -168.0 -32.9 -162.05 9.1 -162.85 9.6 -155.05 23.1 -164.0 22.1 -178.1 6.1 M-191.05 -30.5 L-188.0 -29.9 -189.1 8.2 -178.0 26.1 -178.0 28.1 -184.0 28.1 -204.0 6.1 -192.05 6.1 -191.05 -30.5 M-24.5 -29.2 L-18.05 -27.9 -11.15 18.4 -17.5 19.95 -24.5 -29.2 M-17.35 21.0 L3.95 48.1 -6.05 48.1 -25.95 22.5 -17.3 21.2 -17.35 21.0" fill="url(#gradient9)" fill-rule="evenodd" stroke="none"/>
      <path d="M-284.65 -74.85 L-286.0 -66.9 -314.75 -70.1 -314.0 -18.9 -302.3 -16.55 -308.0 -10.9 -295.0 4.1 -291.0 28.1 -255.0 27.1 -259.0 40.1 -299.0 40.1 -304.85 6.9 -306.0 7.1 -327.0 -13.9 -328.0 -14.0 -321.0 -79.9 -320.0 -79.9 -284.65 -74.85" fill="url(#gradient10)" fill-rule="evenodd" stroke="none"/>
      <path d="M-288.85 -49.45 L-283.0 -15.9 -282.15 -16.05 -271.0 -4.9 -272.0 15.1 -279.0 15.1 -279.0 -0.9 -293.0 -13.9 -296.0 -47.9 -288.85 -49.45" fill="url(#gradient11)" fill-rule="evenodd" stroke="none"/>
      <path d="M-162.1 -44.95 L-155.05 8.1 -142.35 19.85 -132.05 31.1 -159.05 44.1 -190.0 35.1 -211.85 9.3 -208.0 -36.9 -207.0 -36.9 -162.1 -44.95 M-171.9 -31.9 L-182.05 -30.85 -179.1 6.1 -178.1 6.1 -164.0 22.1 -155.05 23.1 -162.85 9.6 -162.05 9.1 -168.0 -32.9 -170.15 -32.15 -171.9 -31.9 M-204.0 6.1 L-184.0 28.1 -178.0 28.1 -178.0 26.1 -189.1 8.2 -188.0 -29.9 -191.05 -30.5 -191.05 -30.9 -201.15 -27.5 -204.05 6.1 -204.0 6.1" fill="url(#gradient12)" fill-rule="evenodd" stroke="none"/>
      <path d="M1.8 18.25 L1.65 18.4 18.95 42.1 34.95 43.1 21.5 23.5 24.95 21.1 16.95 -31.9 3.95 -32.9 3.1 -36.35 -7.75 -34.4 1.8 18.25 M21.85 -45.85 L40.95 21.1 41.45 21.2 57.95 57.15 -4.05 60.1 -37.05 26.15 -48.05 -34.9 21.85 -45.85 M-17.5 19.95 L-11.15 18.4 -18.05 -27.9 -24.5 -29.2 -24.8 -31.3 -39.55 -27.15 -30.05 23.1 -25.95 22.5 -6.05 48.1 3.95 48.1 -17.35 21.0 -17.5 19.95" fill="url(#gradient13)" fill-rule="evenodd" stroke="none"/>
      <path d="M111.95 162.05 L111.95 161.05 92.3 105.9 146.95 76.1 157.95 -27.9 113.25 -64.05 113.95 -64.9 149.95 -90.9 364.4 -78.4 402.95 -33.9 398.95 119.05 358.95 192.05 111.95 162.05 M357.8 -4.3 L331.85 -7.75 323.95 90.1 351.95 95.9 357.8 -4.3 M249.95 -20.75 L235.75 -22.8 218.95 75.1 229.95 80.1 229.8 81.2 238.95 84.1 249.95 -20.75 M307.0 -14.05 L290.95 -16.9 276.95 -17.9 265.95 83.1 290.95 90.1 301.0 89.5 307.0 -14.05" fill="url(#gradient14)" fill-rule="evenodd" stroke="none"/>
      <path d="M113.95 -64.9 L149.95 -90.9 364.4 -78.4 389.95 -76.9 M364.4 -78.4 L402.95 -33.9 398.95 119.05 358.95 192.05 111.95 162.05" fill="none" stroke="#000000" stroke-linecap="round" stroke-linejoin="round" stroke-width="1.0"/>
      <path d="M202.5 -184.35 L266.95 -214.9 266.95 -215.65 297.25 -215.05 214.85 -174.1 202.5 -184.35 M78.95 -101.9 L79.45 -101.9 102.95 -154.9 139.95 -175.9 150.95 -159.9 173.35 -170.5 184.7 -159.15 148.5 -141.15 147.95 -140.9 133.25 -156.6 132.95 -156.9 117.15 -148.0 117.5 -147.4 116.85 -147.6 107.3 -120.8 116.75 -120.15 177.95 -115.95 205.3 -114.1 202.3 -92.5 78.95 -101.9 M244.8 -111.4 L295.0 -107.95 326.95 -105.75 321.35 -83.4 242.25 -89.45 244.8 -111.4 M284.4 -9.75 L283.35 -9.65 283.45 -10.9 284.4 -9.75 M334.0 4.75 L334.0 4.85 333.95 4.8 334.0 4.75" fill="#653834" fill-rule="evenodd" stroke="none"/>
      <path d="M332.8 4.05 L332.45 4.6 321.95 8.6 310.95 0.6 305.95 3.1 291.95 -0.9 284.4 -9.75 Q307.75 -12.15 332.8 4.05" fill="#2d1817" fill-rule="evenodd" stroke="none"/>
      <path d="M51.2 83.0 L88.95 -80.9 89.15 -82.8 Q115.85 -84.7 140.8 -77.75 L139.1 -64.15 136.95 -61.9 138.75 -61.65 118.9 92.3 110.0 88.6 102.5 104.1 Q88.75 104.75 75.0 98.6 L74.5 83.6 64.5 75.6 59.5 82.1 51.2 83.0" fill="url(#gradient15)" fill-rule="evenodd" stroke="none"/>
      <path d="M244.95 -67.7 L222.95 103.25 215.0 102.1 213.0 109.1 Q209.0 113.3 205.0 111.6 L196.5 104.6 188.0 99.6 183.5 113.1 Q177.95 115.6 170.5 110.6 L168.0 93.1 164.4 92.65 186.9 -73.3 Q211.0 -77.35 244.95 -67.7" fill="url(#gradient16)" fill-rule="evenodd" stroke="none"/>
      <path d="M284.4 -9.75 L283.45 -10.9 288.9 -63.45 Q313.8 -66.5 338.7 -58.6 L334.0 4.75 333.95 4.8 333.85 4.7 332.8 4.05 Q307.75 -12.15 284.4 -9.75 M269.05 127.85 L275.45 66.1 Q303.15 58.9 328.95 73.05 L326.35 108.4 318.95 109.6 314.45 127.1 305.95 127.1 305.95 127.6 301.45 141.1 288.45 141.1 277.95 134.1 277.95 128.6 269.05 127.85" fill="url(#gradient17)" fill-rule="evenodd" stroke="none"/>
      <path d="M390.2 -53.65 L391.9 -12.95 377.6 164.3 374.95 164.05 369.85 112.35 381.5 -54.5 390.2 -53.65" fill="url(#gradient18)" fill-rule="evenodd" stroke="none"/>
      <path d="M389.15 -78.25 L390.2 -53.65 381.5 -54.5 338.7 -58.6 Q313.8 -66.5 288.9 -63.45 L244.95 -67.7 Q211.0 -77.35 186.9 -73.3 L140.8 -77.75 Q115.85 -84.7 89.15 -82.8 L88.0 -82.9 78.95 -101.9 202.3 -92.5 242.25 -89.45 321.35 -83.4 389.15 -78.25" fill="url(#gradient19)" fill-rule="evenodd" stroke="none"/>
      <path d="M297.25 -215.05 L325.8 -214.45 272.95 -190.05 203.15 -157.7 169.0 -141.95 147.3 -131.9 147.35 -132.3 148.5 -141.15 184.7 -159.15 214.85 -174.1 297.25 -215.05" fill="url(#gradient20)" fill-rule="evenodd" stroke="none"/>
      <path d="M116.75 -120.15 L107.3 -120.8 116.85 -147.6 117.5 -147.4 117.15 -148.0 132.95 -156.9 133.25 -156.6 131.6 -145.15 123.45 -139.4 116.75 -120.15" fill="url(#gradient21)" fill-rule="evenodd" stroke="none"/>
      <path d="M325.8 -214.45 L334.1 -214.3 334.95 -179.9 386.05 -151.6 386.8 -133.95 321.95 -134.9 295.0 -107.95 244.8 -111.4 205.3 -114.1 177.95 -115.95 169.0 -141.95 203.15 -157.7 226.95 -133.9 285.95 -165.9 272.95 -190.05 325.8 -214.45" fill="#4f2c28" fill-rule="evenodd" stroke="none"/>
      <path d="M133.25 -156.6 L147.95 -140.9 148.5 -141.15 147.35 -132.3 146.85 -132.4 131.8 -145.25 131.6 -145.15 133.25 -156.6" fill="#482626" fill-rule="evenodd" stroke="none"/>
      <path d="M377.6 164.3 L370.8 248.95 16.9 245.15 10.15 139.0 24.95 113.1 37.1 111.3 43.0 88.1 51.2 83.0 59.5 82.1 64.5 75.6 74.5 83.6 75.0 98.6 Q88.75 104.75 102.5 104.1 L110.0 88.6 118.9 92.3 118.9 92.35 119.35 92.4 123.6 99.85 122.5 116.8 122.55 116.8 143.85 120.6 143.95 120.05 154.05 115.95 160.85 94.05 164.3 93.65 164.4 92.65 168.0 93.1 170.5 110.6 Q177.95 115.6 183.5 113.1 L188.0 99.6 196.5 104.6 205.0 111.6 Q209.0 113.3 213.0 109.1 L215.0 102.1 222.95 103.25 222.95 103.3 225.5 103.6 225.05 127.95 231.95 136.85 259.85 143.3 263.5 130.1 269.05 127.85 277.95 128.6 277.95 134.1 288.45 141.1 301.45 141.1 305.95 127.6 305.95 127.1 314.45 127.1 318.95 109.6 326.35 108.4 330.45 113.6 331.45 139.1 335.35 146.2 374.95 164.05 377.6 164.3" fill="url(#gradient22)" fill-rule="evenodd" stroke="none"/>
      <path d="M205.3 -114.1 L244.8 -111.4 242.25 -89.45 202.3 -92.5 205.3 -114.1" fill="#62332f" fill-rule="evenodd" stroke="none"/>
      <path d="M388.15 -101.55 L389.15 -78.25 321.35 -83.4 326.95 -105.75 388.15 -101.55" fill="#5b2f24" fill-rule="evenodd" stroke="none"/>
      <path d="M147.35 -132.3 L147.3 -131.9 169.0 -141.95 177.95 -115.95 116.75 -120.15 123.45 -139.4 131.6 -145.15 131.8 -145.25 146.85 -132.4 147.35 -132.3" fill="#452421" fill-rule="evenodd" stroke="none"/>
      <path d="M334.1 -214.3 L383.4 -213.35 386.05 -151.6 334.95 -179.9 334.1 -214.3" fill="#411d1d" fill-rule="evenodd" stroke="none"/>
      <path d="M386.8 -133.95 L388.15 -101.55 326.95 -105.75 295.0 -107.95 321.95 -134.9 386.8 -133.95" fill="#583030" fill-rule="evenodd" stroke="none"/>
      <path d="M203.15 -157.7 L272.95 -190.05 285.95 -165.9 226.95 -133.9 203.15 -157.7" fill="#4a2d2d" fill-rule="evenodd" stroke="none"/>
      <path d="M173.35 -170.5 L202.5 -184.35 214.85 -174.1 184.7 -159.15 173.35 -170.5" fill="#614038" fill-rule="evenodd" stroke="none"/>
      <path d="M238.95 -202.9 L243.5 -204.4 254.95 -193.9 252.95 -178.9 272.95 -147.9 313.95 -136.9 273.95 -141.9 230.85 -119.95 269.95 -143.9 247.95 -180.9 249.95 -193.9 238.3 -201.95 238.95 -202.9 M257.0 -205.9 Q258.45 -205.65 258.5 -204.25 258.5 -203.4 257.9 -203.05 256.45 -202.15 256.9 -203.4 L257.35 -203.65 257.45 -204.1 257.0 -204.65 Q256.45 -204.85 256.15 -204.2 L255.75 -203.75 255.65 -204.15 255.7 -204.45 256.25 -205.2 256.95 -205.8 257.0 -205.9 M151.1 -149.55 Q150.8 -148.45 150.1 -148.9 149.7 -149.1 149.8 -150.1 L150.0 -150.4 Q151.4 -150.7 151.1 -149.55 M105.65 -139.85 L103.9 -138.8 103.25 -138.75 Q102.1 -139.75 103.0 -141.1 L104.15 -143.2 Q104.55 -144.2 105.5 -144.35 L105.75 -144.4 Q106.55 -143.4 106.6 -142.15 106.65 -140.7 105.65 -139.85 M93.8 -118.75 L93.15 -118.85 Q92.65 -119.3 93.5 -119.4 94.35 -119.25 93.8 -118.75 M95.0 -114.75 L95.95 -115.3 96.0 -115.4 97.5 -115.0 97.8 -114.5 97.85 -113.75 97.4 -113.25 Q96.05 -112.4 94.9 -113.65 94.4 -114.2 95.0 -114.75 M138.6 -134.75 Q140.05 -134.4 139.4 -133.55 138.75 -132.75 138.2 -133.35 137.2 -134.3 138.5 -134.75 L138.6 -134.75 M158.2 -91.3 L158.95 -91.75 Q161.2 -91.6 160.25 -89.5 159.6 -88.05 157.9 -87.65 156.0 -87.2 155.2 -89.0 L155.4 -89.5 158.2 -91.3 M130.2 -71.5 Q130.8 -69.65 130.2 -68.25 129.3 -65.95 128.55 -68.35 127.85 -70.65 130.0 -71.45 L130.2 -71.5 M96.55 -71.85 Q95.65 -70.25 95.3 -71.45 94.9 -72.85 96.0 -73.4 97.3 -73.15 96.55 -71.85 M103.45 -72.35 Q102.0 -74.8 104.95 -75.5 107.45 -74.7 106.25 -71.7 105.25 -69.25 103.45 -72.35 M118.1 -12.8 Q117.85 -11.25 116.2 -12.55 114.4 -14.0 115.95 -14.65 L115.95 -14.75 Q118.45 -14.55 118.1 -12.8 M97.6 -29.5 Q97.25 -29.15 97.0 -29.25 L97.2 -29.65 98.1 -30.15 97.6 -29.5 M122.75 -17.65 Q122.25 -17.7 122.25 -18.1 122.3 -18.6 123.1 -18.65 123.6 -17.6 122.75 -17.65 M315.15 -168.25 L315.05 -167.5 Q315.0 -166.7 314.25 -166.9 L313.85 -167.15 Q313.55 -167.45 313.55 -167.7 313.6 -168.05 314.0 -168.3 L314.95 -168.8 314.95 -168.9 315.15 -168.25 M282.5 -185.85 Q282.55 -186.6 283.6 -186.65 284.0 -185.65 283.2 -185.2 282.4 -184.7 282.5 -185.85 M245.0 -152.5 L245.2 -152.0 245.0 -151.65 244.5 -151.4 Q243.5 -150.4 243.2 -151.55 L243.1 -152.25 Q243.1 -152.75 243.5 -152.9 L245.0 -152.5 M304.6 -124.65 L304.55 -123.1 Q304.45 -122.5 303.95 -122.2 L302.95 -121.75 302.25 -121.75 302.15 -122.15 302.1 -122.5 302.15 -122.85 302.25 -123.25 302.6 -123.65 303.3 -124.15 304.1 -124.5 304.5 -124.6 304.6 -124.65 M224.3 -190.1 Q224.4 -189.2 223.6 -188.65 222.25 -187.8 223.0 -189.0 L223.25 -189.25 222.4 -189.5 222.1 -190.0 Q222.0 -190.7 222.6 -191.15 L223.0 -191.4 Q224.2 -191.25 224.3 -190.1 M198.6 -171.35 Q198.3 -170.95 198.0 -171.15 197.35 -171.6 198.1 -172.15 L198.6 -172.25 Q199.0 -171.75 198.6 -171.35 M191.0 -172.6 L190.2 -172.55 Q189.75 -173.2 190.45 -173.65 L190.5 -173.75 Q191.45 -173.65 191.0 -172.6 M180.45 -101.4 Q181.7 -101.15 181.35 -99.75 181.05 -98.6 180.1 -99.6 179.6 -100.2 180.15 -101.1 L180.45 -101.4 M230.6 -104.25 Q230.4 -102.45 228.8 -103.3 227.35 -104.15 228.65 -105.6 L229.0 -105.9 Q230.75 -106.0 230.6 -104.25 M219.0 -99.4 Q219.95 -99.35 219.95 -98.5 219.95 -97.8 219.35 -98.0 218.3 -98.4 218.8 -99.2 L219.0 -99.4 M228.2 -57.25 Q228.6 -56.2 228.1 -55.25 227.35 -53.9 226.0 -53.2 223.85 -52.05 224.4 -54.3 L224.45 -55.0 225.5 -56.2 226.0 -56.45 227.2 -56.85 227.4 -57.05 227.5 -57.15 227.95 -57.25 228.2 -57.25 M194.45 -20.15 Q194.75 -18.45 193.8 -20.65 192.9 -22.85 194.2 -23.25 194.2 -21.5 194.45 -20.15 M227.4 -46.1 Q226.8 -45.55 226.05 -45.7 225.3 -45.85 226.5 -46.25 L227.6 -46.65 227.4 -46.1 M298.4 -76.2 Q296.15 -74.7 296.3 -77.25 296.35 -79.35 298.95 -79.5 L299.2 -79.5 Q300.5 -77.65 298.4 -76.2 M311.8 -50.5 L310.8 -49.8 Q309.55 -49.1 310.45 -50.3 L310.95 -50.9 Q312.4 -50.9 311.8 -50.5 M266.4 -76.6 Q264.5 -76.45 264.1 -74.5 L264.45 -76.75 Q264.55 -77.35 264.95 -77.5 268.25 -76.8 266.4 -76.6 M272.95 -74.75 Q275.1 -74.65 277.0 -73.95 278.0 -73.55 277.6 -72.3 L277.2 -71.5 276.5 -70.75 Q275.8 -69.85 274.9 -69.7 L271.55 -69.85 Q271.35 -69.9 271.2 -70.25 L271.25 -71.0 271.55 -72.5 272.2 -74.0 272.5 -74.45 272.95 -74.75 M323.6 -41.9 Q323.45 -42.8 324.0 -43.55 324.55 -44.4 325.6 -44.7 L325.95 -44.9 Q326.85 -44.9 327.25 -44.15 327.65 -43.25 327.2 -42.45 326.8 -41.8 326.7 -41.0 L326.45 -40.65 325.3 -40.6 323.7 -40.55 323.6 -40.75 323.6 -41.9 M308.2 -49.5 L307.15 -48.05 305.85 -46.65 Q305.2 -46.15 304.45 -46.15 304.35 -46.15 304.2 -46.5 L304.2 -47.25 304.4 -47.8 306.5 -49.1 307.95 -49.5 308.2 -49.5 M298.55 -36.8 L297.35 -36.85 Q296.85 -37.65 297.75 -38.15 L298.1 -38.25 Q299.25 -37.7 298.55 -36.8 M302.0 -14.9 L297.7 -8.6 297.6 -8.5 291.65 -9.85 298.0 -14.4 294.5 -21.9 302.0 -14.9 M312.3 -6.0 L324.5 -6.9 325.0 -24.4 327.9 -7.45 327.95 -7.15 332.9 4.95 324.7 -4.65 324.65 -4.65 317.5 -3.4 312.3 -6.0 M376.5 -191.2 L376.75 -190.5 376.9 -190.15 377.2 -189.75 Q377.15 -188.9 376.4 -188.8 L375.8 -188.3 Q375.4 -187.95 374.95 -187.9 374.55 -187.9 374.1 -188.15 L374.1 -188.5 374.1 -189.25 374.15 -190.0 374.2 -190.75 375.95 -190.95 375.85 -191.25 375.85 -191.55 376.1 -191.65 376.5 -191.2 M372.5 -181.95 Q372.7 -182.65 373.25 -183.25 L374.55 -184.4 374.95 -184.5 375.2 -184.5 Q376.3 -183.4 376.1 -182.1 375.95 -181.05 374.8 -180.7 L372.45 -180.5 372.5 -181.95 M331.65 -196.55 Q331.6 -197.15 332.1 -197.35 333.65 -198.0 335.2 -198.25 335.2 -197.0 334.0 -196.2 331.85 -194.9 331.65 -196.55 M363.95 -127.75 Q366.15 -127.3 367.0 -125.65 367.7 -124.2 365.45 -124.15 362.45 -124.05 363.65 -127.1 L363.95 -127.75 M369.15 -88.3 Q368.3 -87.5 367.3 -87.9 L367.1 -88.15 366.7 -88.9 Q366.45 -89.7 366.75 -90.4 L367.55 -91.25 368.45 -91.5 Q369.8 -91.5 369.95 -90.25 370.05 -89.1 369.15 -88.3 M369.9 -69.1 Q368.25 -67.25 367.75 -69.4 367.25 -71.4 369.2 -71.5 370.95 -70.25 369.9 -69.1 M334.35 -95.35 Q334.05 -96.25 334.7 -97.05 L335.1 -97.25 Q335.6 -96.55 335.3 -95.85 334.7 -94.55 334.35 -95.35 M341.9 -70.6 L341.95 -70.75 Q344.8 -71.4 344.65 -69.0 344.55 -67.3 342.8 -66.7 L339.55 -66.8 339.2 -67.25 Q339.2 -67.65 339.35 -67.95 L340.0 -68.75 341.1 -69.85 341.6 -70.4 341.9 -70.6 M380.85 17.35 L380.75 17.05 Q381.0 16.35 381.6 15.85 L382.65 14.9 382.95 14.7 382.95 14.6 Q384.6 14.4 384.65 15.85 384.75 17.5 383.2 17.95 381.8 18.35 380.85 17.35 M382.45 48.6 L383.95 49.0 384.35 49.5 384.2 49.7 Q382.65 50.6 382.15 49.35 L382.15 49.0 382.25 48.75 382.45 48.6 M382.6 72.0 Q382.15 74.75 381.45 72.2 380.95 70.5 380.95 69.75 L380.95 69.5 Q383.05 69.65 382.6 72.0 M286.0 64.1 L290.5 64.1 297.5 73.6 294.65 77.2 299.35 98.7 291.5 81.15 285.5 88.6 274.5 121.6 283.0 86.6 293.5 72.1 286.0 64.1 M313.95 85.5 L313.7 85.65 311.8 85.5 Q311.05 85.3 311.1 84.6 L311.15 84.25 311.4 83.45 Q311.55 82.8 312.15 82.45 L312.95 82.05 312.95 82.0 Q313.8 82.25 314.45 82.7 315.1 83.15 314.8 83.9 L313.95 85.5 M182.4 43.25 Q181.85 45.1 181.25 43.4 180.9 42.4 181.75 40.9 181.85 40.75 182.2 40.75 182.65 42.25 182.4 43.25 M198.6 62.35 L198.8 63.1 198.8 63.85 198.55 64.5 Q198.35 64.75 197.95 64.85 196.9 65.0 196.95 64.0 197.0 63.25 197.6 62.9 198.05 62.6 198.5 62.4 L198.6 62.35 M216.0 76.5 L216.25 76.25 216.45 76.1 Q217.45 76.3 217.45 77.35 217.45 78.1 216.5 78.2 216.2 78.25 215.75 78.65 L215.2 78.75 Q215.15 78.35 215.25 78.0 L215.55 77.2 216.0 76.5 M211.65 86.0 Q211.6 89.15 208.15 86.55 205.0 84.25 207.95 83.25 211.75 82.5 211.65 86.0 M206.0 126.5 Q205.7 128.0 204.75 127.6 202.85 126.8 203.9 125.65 L203.95 125.45 Q206.3 125.0 206.0 126.5 M222.75 146.3 Q222.4 147.2 221.8 146.55 221.25 145.95 222.15 145.4 L222.6 145.25 Q223.0 145.7 222.75 146.3 M176.95 119.75 L177.2 119.7 176.05 121.05 Q175.1 122.0 175.3 123.35 175.35 123.7 174.65 123.55 L174.45 122.7 174.45 121.95 174.45 121.2 174.6 120.9 176.2 120.0 176.95 119.75 M166.7 132.4 L166.9 131.95 167.2 131.25 167.45 130.7 167.5 130.6 168.55 130.9 169.35 131.5 Q169.8 132.0 169.45 132.65 L169.25 133.25 169.0 133.3 167.75 133.15 166.75 132.75 166.7 132.4 M290.35 119.15 Q288.8 121.45 287.5 120.3 285.5 118.55 287.95 117.2 292.05 116.55 290.35 119.15 M271.7 174.2 L271.75 174.95 Q271.85 176.15 271.4 177.2 270.85 178.35 269.9 179.1 268.85 179.95 267.45 180.45 L267.15 179.75 Q266.45 178.65 266.3 177.45 L266.2 175.2 Q266.2 174.45 266.5 173.85 L266.9 173.4 266.95 173.2 271.15 173.8 Q271.45 173.85 271.7 174.2 M303.6 154.95 L303.1 157.1 Q302.85 157.85 301.45 158.2 L301.3 157.45 301.2 155.95 301.4 154.55 301.9 153.45 301.95 153.2 Q303.9 153.15 303.6 154.95 M119.0 3.4 Q118.95 4.4 118.15 5.0 117.15 5.8 116.6 4.85 L116.7 4.15 Q116.85 3.55 117.15 3.05 L117.65 2.45 118.0 2.1 Q119.1 2.2 119.0 3.4 M117.8 23.65 L117.0 23.9 Q115.1 23.9 116.05 23.4 L117.0 23.1 Q118.65 22.9 117.8 23.65 M96.1 4.35 Q96.85 4.7 96.4 5.05 L95.55 4.95 Q95.05 4.4 96.1 4.35 M89.0 44.1 L81.15 51.5 88.3 57.95 101.5 55.1 87.5 61.6 87.0 61.6 73.5 50.1 57.5 59.6 57.05 59.5 58.45 53.0 59.0 53.1 73.0 44.1 79.55 50.0 86.5 42.6 87.5 32.1 89.0 44.1 M91.95 78.15 L91.4 79.35 Q91.15 79.85 91.65 80.35 L91.75 80.6 90.75 80.6 89.7 80.25 89.6 80.0 Q89.5 79.35 89.95 79.0 L90.75 78.05 91.1 76.9 Q91.15 76.45 91.75 76.6 92.2 77.3 91.95 78.15 M81.55 82.0 Q80.95 84.2 80.6 81.95 80.25 80.0 81.95 79.75 L82.2 79.75 81.55 82.0 M61.05 117.6 L57.45 117.85 57.45 117.45 57.4 116.75 Q57.35 116.35 57.45 116.1 57.85 115.2 58.55 114.55 L59.9 113.4 59.95 113.2 Q62.1 113.55 62.75 115.6 63.25 117.2 61.05 117.6 M92.95 118.2 Q94.9 118.15 94.85 120.0 94.8 121.55 93.5 122.6 L92.45 123.4 Q92.1 123.6 91.2 122.95 90.85 122.2 90.8 121.45 90.7 120.7 91.15 120.1 L92.3 118.8 92.9 118.4 92.95 118.2 M113.75 129.6 Q114.25 130.1 114.3 130.65 L114.35 130.45 Q114.65 129.45 115.5 129.0 116.55 128.9 116.9 129.85 117.25 130.7 116.75 131.35 116.3 132.0 117.15 132.4 L117.1 132.6 116.75 133.0 116.45 133.35 115.6 134.1 115.0 134.5 114.3 134.25 113.55 133.8 113.05 133.45 112.35 133.65 111.75 133.75 Q110.95 133.2 111.2 132.25 L111.7 130.75 Q112.0 130.05 112.55 129.8 L113.75 129.6 M115.3 131.35 Q115.5 131.85 115.8 131.2 116.1 130.65 115.75 130.25 L115.5 130.25 Q115.05 130.8 115.3 131.35" fill="#000000" fill-opacity="0.17254902" fill-rule="evenodd" stroke="none"/>
      <path d="M266.95 -215.65 L383.4 -213.35 391.9 -12.95 370.8 248.95 16.9 245.15 10.15 139.0 24.95 113.1 37.1 111.3 43.0 88.1 51.2 83.0 88.95 -80.9 89.15 -82.8 88.0 -82.9 78.95 -101.9 79.45 -101.9 102.95 -154.9 139.95 -175.9 150.95 -159.9 266.95 -214.9 266.95 -215.65 M291.95 -0.9 L284.4 -9.75 283.35 -9.65 288.9 -63.45 244.95 -67.7 222.95 103.25 222.95 103.3 225.5 103.6 225.05 127.95 231.95 136.85 259.85 143.3 263.5 130.1 269.05 127.85 275.45 66.1 Q303.15 58.9 328.95 73.05 L326.35 108.4 330.45 113.6 331.45 139.1 335.35 146.2 374.95 164.05 369.85 112.35 381.5 -54.5 338.7 -58.6 334.0 4.75 334.0 4.85 333.95 4.8 333.85 4.7 332.8 4.05 332.45 4.6 321.95 8.6 310.95 0.6 305.95 3.1 291.95 -0.9 M136.95 -61.9 L138.75 -61.65 118.9 92.3 118.9 92.35 119.35 92.4 123.6 99.85 122.5 116.8 122.55 116.8 143.85 120.6 143.95 120.05 154.05 115.95 160.85 94.05 164.3 93.65 186.9 -73.3 140.8 -77.75 139.1 -64.15 136.95 -61.9" fill="url(#gradient23)" fill-rule="evenodd" stroke="none"/>
    </g>
    <linearGradient gradientTransform="matrix(0.0, 0.1224, -0.4742, 0.0, -1.5, -24.2)" gradientUnits="userSpaceOnUse" id="gradient7" spreadMethod="pad" x1="-819.2" x2="819.2">
      <stop offset="0.25098039215686274" stop-color="#271414" stop-opacity="0.8627451"/>
      <stop offset="1.0" stop-color="#3c2222" stop-opacity="0.6627451"/>
    </linearGradient>
    <linearGradient gradientTransform="matrix(0.5059, 0.0, 0.0, 0.202, -4.55, 76.55)" gradientUnits="userSpaceOnUse" id="gradient8" spreadMethod="pad" x1="-819.2" x2="819.2">
      <stop offset="0.0" stop-color="#362125"/>
      <stop offset="1.0" stop-color="#4a3c2d" stop-opacity="0.6627451"/>
    </linearGradient>
    <radialGradient cx="0" cy="0" gradientTransform="matrix(0.033, -0.3548, 0.8119, 0.0754, -75.0, -56.0)" gradientUnits="userSpaceOnUse" id="gradient9" r="819.2" spreadMethod="pad">
      <stop offset="0.0" stop-color="#804d2b"/>
      <stop offset="0.33725490196078434" stop-color="#5f2618"/>
      <stop offset="0.6588235294117647" stop-color="#362125"/>
      <stop offset="1.0" stop-color="#23212c"/>
    </radialGradient>
    <linearGradient gradientTransform="matrix(0.006, 0.0757, -0.0423, 0.0033, -293.55, -19.6)" gradientUnits="userSpaceOnUse" id="gradient10" spreadMethod="pad" x1="-819.2" x2="819.2">
      <stop offset="0.0" stop-color="#362125"/>
      <stop offset="0.7176470588235294" stop-color="#23212c"/>
      <stop offset="1.0" stop-color="#56241a"/>
    </linearGradient>
    <linearGradient gradientTransform="matrix(0.0042, 0.04, -0.0127, 0.0013, -282.75, -17.0)" gradientUnits="userSpaceOnUse" id="gradient11" spreadMethod="pad" x1="-819.2" x2="819.2">
      <stop offset="0.0" stop-color="#362125"/>
      <stop offset="0.7176470588235294" stop-color="#23212c"/>
      <stop offset="1.0" stop-color="#56241a"/>
    </linearGradient>
    <linearGradient gradientTransform="matrix(0.0017, 0.0544, -0.0482, 0.0015, -172.55, -0.1)" gradientUnits="userSpaceOnUse" id="gradient12" spreadMethod="pad" x1="-819.2" x2="819.2">
      <stop offset="0.0" stop-color="#362125"/>
      <stop offset="0.7176470588235294" stop-color="#23212c"/>
      <stop offset="1.0" stop-color="#56241a"/>
    </linearGradient>
    <linearGradient gradientTransform="matrix(0.0088, 0.0647, -0.056, 0.0076, 4.85, 10.45)" gradientUnits="userSpaceOnUse" id="gradient13" spreadMethod="pad" x1="-819.2" x2="819.2">
      <stop offset="0.0" stop-color="#362125"/>
      <stop offset="0.7176470588235294" stop-color="#23212c"/>
      <stop offset="1.0" stop-color="#56241a"/>
    </linearGradient>
    <linearGradient gradientTransform="matrix(0.0289, -0.1683, 0.188, 0.0323, 253.2, 44.45)" gradientUnits="userSpaceOnUse" id="gradient14" spreadMethod="pad" x1="-819.2" x2="819.2">
      <stop offset="0.0" stop-color="#392624"/>
      <stop offset="1.0" stop-color="#0f0f13"/>
    </linearGradient>
    <radialGradient cx="0" cy="0" gradientTransform="matrix(0.0834, 0.0192, -0.0389, 0.1685, 88.0, 9.0)" gradientUnits="userSpaceOnUse" id="gradient15" r="819.2" spreadMethod="pad">
      <stop offset="0.0" stop-color="#997d55"/>
      <stop offset="0.44313725490196076" stop-color="#653834"/>
      <stop offset="1.0" stop-color="#211c31"/>
    </radialGradient>
    <radialGradient cx="0" cy="0" gradientTransform="matrix(0.0841, 0.0157, -0.0297, 0.1599, 197.0, 17.0)" gradientUnits="userSpaceOnUse" id="gradient16" r="819.2" spreadMethod="pad">
      <stop offset="0.0" stop-color="#997d55"/>
      <stop offset="0.44313725490196076" stop-color="#653834"/>
      <stop offset="1.0" stop-color="#211c31"/>
    </radialGradient>
    <radialGradient cx="0" cy="0" gradientTransform="matrix(0.0792, 0.0112, -0.0237, 0.1675, 296.0, 28.0)" gradientUnits="userSpaceOnUse" id="gradient17" r="819.2" spreadMethod="pad">
      <stop offset="0.0" stop-color="#997d55"/>
      <stop offset="0.44313725490196076" stop-color="#653834"/>
      <stop offset="1.0" stop-color="#211c31"/>
    </radialGradient>
    <radialGradient cx="0" cy="0" gradientTransform="matrix(0.1603, 0.0, 0.0, 0.1603, 400.0, 48.0)" gradientUnits="userSpaceOnUse" id="gradient18" r="819.2" spreadMethod="pad">
      <stop offset="0.0" stop-color="#997d55"/>
      <stop offset="0.44313725490196076" stop-color="#653834"/>
      <stop offset="1.0" stop-color="#211c31"/>
    </radialGradient>
    <linearGradient gradientTransform="matrix(0.19, 0.0, 0.0, 0.0294, 234.55, -77.8)" gradientUnits="userSpaceOnUse" id="gradient19" spreadMethod="pad" x1="-819.2" x2="819.2">
      <stop offset="0.0" stop-color="#3e2220"/>
      <stop offset="1.0" stop-color="#371515"/>
    </linearGradient>
    <linearGradient gradientTransform="matrix(0.1089, 0.0, 0.0, 0.0508, 236.55, -173.5)" gradientUnits="userSpaceOnUse" id="gradient20" spreadMethod="pad" x1="-819.2" x2="819.2">
      <stop offset="0.0" stop-color="#3e2220"/>
      <stop offset="1.0" stop-color="#371515"/>
    </linearGradient>
    <linearGradient gradientTransform="matrix(0.0158, 0.0, 0.0, 0.0224, 120.25, -138.55)" gradientUnits="userSpaceOnUse" id="gradient21" spreadMethod="pad" x1="-819.2" x2="819.2">
      <stop offset="0.0" stop-color="#3e2220"/>
      <stop offset="1.0" stop-color="#371515"/>
    </linearGradient>
    <radialGradient cx="0" cy="0" gradientTransform="matrix(-0.0365, 0.1642, -0.2897, -0.0644, 171.0, 185.0)" gradientUnits="userSpaceOnUse" id="gradient22" r="819.2" spreadMethod="pad">
      <stop offset="0.0" stop-color="#786243"/>
      <stop offset="0.44313725490196076" stop-color="#653834"/>
      <stop offset="1.0" stop-color="#211c31"/>
    </radialGradient>
    <radialGradient cx="0" cy="0" gradientTransform="matrix(0.3774, 0.0301, -0.0301, 0.3774, 175.0, -96.0)" gradientUnits="userSpaceOnUse" id="gradient23" r="819.2" spreadMethod="pad">
      <stop offset="0.3333333333333333" stop-color="#23212c" stop-opacity="0.0"/>
      <stop offset="1.0" stop-color="#1a1a22" stop-opacity="0.78039217"/>
    </radialGradient>
    <g id="sprite2" transform="matrix(1.0, 0.0, 0.0, 1.0, 358.7, 80.45)">
      <use ffdec:characterId="3248" height="160.95" transform="matrix(1.0, 0.0, 0.0, 1.0, -358.7, -80.45)" width="717.45" xlink:href="#shape5"/>
    </g>
    <g id="shape5" transform="matrix(1.0, 0.0, 0.0, 1.0, 358.7, 80.45)">
      <path d="M20.2 -38.7 Q20.6 -43.8 23.3 -48.15 25.75 -52.0 28.75 -53.95 L41.85 -53.3 Q49.4 -51.55 49.55 -44.7 49.75 -38.9 48.0 -33.45 L48.35 -32.8 Q50.5 -29.7 54.9 -31.6 58.7 -33.25 62.75 -33.0 L64.0 -32.7 Q67.65 -26.25 66.6 -19.0 65.35 -10.3 66.05 -1.8 66.95 9.6 74.05 17.4 82.9 27.15 93.25 34.8 L93.9 34.4 Q95.95 32.8 97.95 31.45 102.25 28.55 105.15 24.5 L110.75 16.55 Q122.85 14.05 134.65 17.75 156.1 24.4 172.5 13.55 172.65 11.9 172.35 10.4 171.3 4.6 172.25 -1.35 173.3 -8.2 180.1 -9.6 187.85 -11.2 195.5 -8.95 L199.45 -10.65 Q210.45 -15.3 219.15 -5.85 223.4 -1.25 223.35 5.05 223.35 8.05 225.0 10.8 L226.15 10.9 227.85 10.7 Q233.15 9.45 237.85 6.55 245.4 1.85 253.25 5.05 L253.7 5.8 Q254.15 6.85 254.15 8.05 254.15 9.6 253.4 10.85 252.1 13.0 251.25 15.35 250.2 18.0 250.0 20.8 L250.05 21.15 Q259.65 23.05 269.7 20.65 L273.75 19.55 Q275.0 9.65 280.95 2.1 291.15 -10.9 307.45 -3.8 L308.1 -3.5 308.5 -3.3 Q313.45 -0.8 313.65 6.05 314.1 21.65 323.5 33.3 L323.75 33.4 Q329.4 33.4 334.7 31.55 339.1 30.0 342.6 26.95 L341.75 26.3 341.55 25.5 Q341.5 25.15 341.6 24.8 341.85 24.05 342.45 23.55 343.0 23.15 343.7 22.9 L343.75 22.8 Q345.85 23.05 347.7 23.9 349.5 24.8 351.7 25.2 L355.7 26.1 357.0 26.55 357.45 27.3 357.75 28.0 358.45 29.55 358.7 30.3 358.75 31.05 Q358.9 33.05 357.55 34.35 356.85 35.1 357.0 36.3 357.15 37.45 356.65 38.5 L354.55 42.8 Q354.1 43.65 353.25 44.3 L352.55 44.05 Q351.6 42.9 351.6 41.3 L351.55 39.8 351.45 39.05 Q351.2 37.35 352.0 35.9 L352.5 34.55 352.35 34.15 351.1 35.3 Q347.65 37.0 343.9 36.15 L343.0 36.3 Q341.85 44.65 335.5 50.3 323.6 60.9 306.7 57.15 301.3 55.95 297.25 51.6 L296.2 50.35 Q292.4 45.35 294.75 39.3 L293.0 38.95 292.0 39.05 Q291.35 39.3 290.8 39.65 L290.15 40.35 Q290.0 40.65 290.0 41.05 292.8 49.35 289.3 57.45 282.85 72.4 267.9 66.25 260.0 63.05 251.45 60.75 L250.15 60.35 Q241.95 57.45 244.0 47.8 L244.1 47.55 234.75 49.0 Q228.4 50.2 223.75 46.3 L223.2 45.45 Q222.55 43.7 222.5 41.8 222.35 38.95 223.5 36.55 225.1 33.3 225.9 29.8 226.15 28.6 226.0 27.55 L225.45 27.1 Q221.6 26.35 217.9 24.7 213.65 22.85 210.25 24.3 209.6 25.7 209.55 27.3 209.35 33.25 211.2 38.7 213.3 45.15 215.7 51.6 217.45 56.35 216.0 61.05 214.05 63.05 211.45 64.0 195.45 69.9 181.25 62.8 L180.95 62.0 180.7 59.05 Q180.65 57.0 181.6 55.2 182.8 53.0 184.25 50.95 185.1 49.65 184.0 48.55 183.75 48.15 183.45 48.15 180.0 47.75 176.35 48.85 173.65 49.7 171.0 48.55 L170.3 47.75 169.85 47.0 169.7 46.3 169.45 45.55 169.0 44.8 168.6 44.0 168.5 43.3 168.45 43.0 Q156.35 40.35 146.15 46.5 144.85 47.25 144.0 48.55 L143.85 49.3 Q143.45 52.25 145.35 55.35 147.6 58.95 147.95 63.55 148.4 68.85 144.7 72.45 L144.0 73.05 Q112.2 74.7 82.45 67.9 L80.0 67.55 69.3 70.8 Q52.4 76.25 34.0 68.55 L33.3 67.75 Q31.15 65.05 31.35 61.75 31.65 57.35 33.25 53.4 35.15 48.85 37.45 44.5 L37.75 43.8 Q34.9 42.55 32.55 39.3 28.05 33.0 32.05 25.15 35.65 18.1 37.4 10.7 38.1 7.6 37.25 4.8 L36.5 4.05 Q32.85 0.8 27.6 2.75 27.15 2.9 26.75 3.3 L26.4 3.95 Q25.5 5.35 25.2 6.95 24.85 8.85 24.8 10.8 24.8 13.2 23.75 15.25 23.05 16.55 21.75 17.3 15.7 15.35 10.05 16.45 L-10.65 20.3 Q-16.65 21.4 -21.45 24.9 L-25.25 28.3 -26.25 28.45 -27.25 28.5 Q-27.65 31.25 -25.85 33.85 -25.6 34.15 -25.5 34.55 -23.4 35.45 -21.3 35.25 -17.4 34.85 -15.5 37.55 -19.6 43.75 -27.5 38.6 -31.95 35.7 -32.7 31.1 -33.25 27.95 -33.0 24.7 L-33.2 22.75 Q-32.75 12.9 -24.1 7.3 -19.5 4.3 -15.05 4.9 -9.9 5.55 -5.0 11.05 L-4.0 11.1 -1.75 10.5 1.25 9.6 Q1.9 7.0 2.8 4.35 4.9 -1.85 8.4 -7.1 10.7 -10.45 14.7 -11.3 16.65 -11.7 18.0 -13.2 18.45 -14.65 18.4 -16.2 18.25 -22.2 19.05 -28.1 L20.2 -38.7 M-342.35 -17.9 L-342.95 -18.45 Q-344.0 -25.0 -340.15 -29.55 L-318.55 -54.8 Q-315.3 -58.5 -312.9 -63.55 -307.1 -75.7 -295.2 -80.45 -260.45 -78.45 -268.3 -43.5 -274.25 -17.1 -251.0 -13.5 -239.7 -11.75 -228.65 -9.25 -228.1 -9.7 -227.2 -9.7 L-224.9 -8.35 -224.75 -8.3 -224.55 -8.2 -224.5 -8.2 -224.45 -8.2 -223.3 -7.75 Q-212.15 -3.35 -211.8 10.55 -211.7 14.5 -208.3 17.2 -192.95 29.35 -174.0 19.05 L-174.0 18.3 -174.0 16.8 -174.0 15.3 -174.0 13.8 -174.05 11.55 Q-174.25 9.8 -173.3 8.35 -173.0 7.8 -173.0 7.05 -167.75 4.8 -162.1 7.75 -153.75 12.1 -146.2 17.45 -138.55 22.95 -133.25 29.8 L-133.7 31.15 -136.55 35.7 Q-139.65 40.5 -137.45 45.65 -136.45 48.0 -135.15 49.95 -133.55 52.3 -131.5 54.05 L-128.85 55.95 -127.0 57.3 -126.75 58.05 -126.45 58.75 -126.05 59.55 -125.7 60.25 -125.25 61.05 -124.85 61.8 -124.65 62.5 -124.5 63.05 Q-123.45 63.8 -122.25 63.9 L-119.8 63.55 Q-114.9 61.65 -112.55 57.15 -110.3 52.8 -111.15 48.3 -111.55 46.3 -112.5 44.3 -114.45 40.3 -111.9 36.85 L-111.25 36.05 -110.65 35.5 Q-106.45 33.3 -104.4 35.0 L-101.25 37.45 Q-99.3 38.85 -97.65 40.7 L-95.5 43.05 -95.5 43.8 -95.5 44.55 -95.5 45.3 -95.5 46.05 -95.5 46.8 -95.35 48.25 -94.85 49.7 -93.85 52.0 -93.5 52.8 -92.2 53.4 -89.75 54.05 -89.6 54.1 -86.25 53.6 Q-84.25 53.35 -83.0 54.8 L-83.3 55.5 -83.75 56.3 -84.25 57.0 -85.0 57.8 -86.25 59.05 -97.15 58.6 Q-99.3 58.15 -101.15 56.9 -101.85 56.4 -103.0 56.55 -103.4 58.45 -102.1 60.15 -100.0 62.9 -100.1 66.3 L-100.15 67.3 -100.15 67.45 -100.15 67.6 -100.2 67.8 Q-100.5 71.0 -101.95 74.05 -102.75 75.85 -104.0 77.4 L-105.25 78.8 Q-118.1 82.9 -131.25 77.1 -136.65 74.7 -140.85 71.05 L-141.0 70.9 -141.2 70.75 Q-144.6 67.7 -147.25 63.8 L-147.25 63.05 -147.25 61.55 -147.25 60.05 -147.0 57.8 -146.6 56.25 -146.5 55.55 Q-147.1 54.9 -147.75 54.9 -151.95 54.7 -155.25 52.25 L-159.25 48.8 -159.25 47.3 -159.3 44.3 Q-159.35 42.25 -158.9 40.35 -158.35 38.0 -157.4 35.85 -157.0 34.9 -157.0 33.8 -159.5 30.35 -164.3 30.55 -170.55 30.8 -176.5 32.05 -178.05 37.0 -180.3 41.65 -185.5 52.25 -197.75 53.15 L-198.15 53.4 Q-205.2 58.05 -211.45 56.0 L-211.75 56.3 -211.65 55.9 Q-214.8 54.8 -217.7 52.05 L-217.7 51.3 -217.7 49.8 -217.8 49.05 Q-217.95 48.3 -218.4 47.65 L-219.65 45.35 -220.45 44.05 -227.0 43.85 Q-228.95 44.65 -230.95 43.5 L-231.55 43.05 Q-232.9 43.55 -234.2 44.3 -224.85 65.8 -253.3 67.05 -260.0 67.35 -265.65 63.9 -273.2 59.25 -277.05 51.45 -284.3 36.8 -282.4 19.5 L-282.2 16.55 Q-282.45 16.3 -282.7 16.3 L-285.25 16.45 -293.45 16.55 Q-296.35 13.3 -296.8 9.0 -297.4 3.1 -297.15 -2.95 -296.8 -11.1 -303.25 -14.9 L-305.2 -15.95 Q-313.5 -12.6 -314.5 -4.15 -315.75 5.75 -311.4 14.5 -308.95 19.5 -308.6 25.05 -308.4 28.85 -309.2 32.55 -311.6 34.55 -313.95 34.25 -323.7 32.85 -330.1 38.1 L-331.2 38.8 -333.45 38.15 Q-335.5 37.45 -336.8 35.65 L-339.3 32.3 Q-340.7 30.45 -341.45 28.3 -342.3 28.5 -344.15 30.35 -348.65 34.9 -353.3 30.9 -356.45 28.2 -358.7 24.3 L-358.65 23.55 -358.55 22.75 -358.45 22.05 -358.45 21.3 -358.4 19.8 -358.2 18.3 Q-357.35 19.05 -356.85 20.0 L-356.05 21.6 -355.55 21.35 -355.7 20.8 -355.65 20.3 -355.7 20.3 -355.65 20.25 -355.65 20.05 -355.35 19.35 -354.1 18.2 Q-353.6 17.9 -352.95 17.85 L-352.25 17.65 -352.2 17.55 -351.25 17.55 -349.95 17.1 Q-347.9 16.45 -346.3 15.2 L-343.7 13.05 -343.9 12.35 -344.95 10.75 -345.95 9.3 -346.7 7.7 -346.95 5.55 -346.7 2.55 -346.2 1.05 -345.4 0.35 -343.05 -1.3 -341.15 -2.65 -338.9 -4.0 Q-337.35 -4.7 -336.7 -5.95 L-336.95 -6.7 -337.5 -8.2 -338.2 -9.75 -339.15 -12.0 -340.15 -15.05 Q-340.75 -17.1 -342.35 -17.9 M-223.35 -2.15 L-223.25 -2.1 -223.25 -2.2 -223.35 -2.15 M-238.7 38.5 Q-239.3 38.85 -239.95 39.0 L-238.7 39.3 -238.7 38.5" fill="#6f453c" fill-opacity="0.6313726" fill-rule="evenodd" stroke="none"/>
    </g>
    <g id="shape6" transform="matrix(1.0, 0.0, 0.0, 1.0, 395.0, 188.9)">
      <path d="M-347.05 11.8 L-349.0 13.1 -357.0 16.1 -369.0 1.1 -365.0 -35.9 -373.0 -41.9 -375.0 -146.9 -374.0 -147.9 -393.0 -165.9 -395.0 -165.9 -395.0 -188.9 Q-380.0 -161.4 -365.0 -151.9 L-355.0 -14.9 Q-353.7 1.1 -347.05 11.8 M396.95 131.0 L373.95 141.1 368.95 169.1 350.95 170.1 336.95 197.05 322.95 189.05 322.15 185.35 327.95 184.05 336.95 161.05 352.95 157.05 360.95 129.1 Q382.35 110.4 396.95 112.0 L396.95 131.0 M201.5 146.8 L198.95 156.1 183.95 159.1 163.95 159.1 154.95 175.1 126.95 160.1 127.1 159.5 149.95 164.05 164.95 149.05 Q182.2 143.85 201.5 146.8 M77.1 138.85 L76.95 139.1 37.95 134.1 13.95 139.1 -10.05 147.1 -33.05 164.05 -67.0 162.1 -67.05 163.05 -77.05 183.05 -89.25 184.0 -101.05 190.05 -106.05 194.05 -117.05 196.05 -129.05 214.05 -136.05 184.1 -146.05 194.05 -151.05 176.05 -164.05 199.05 -159.05 169.05 -182.05 192.05 -163.05 166.1 -163.05 166.05 -175.05 166.05 -200.0 160.05 -221.0 152.1 -221.55 150.4 Q-192.05 142.45 -143.05 154.05 -136.8 173.15 -118.35 188.2 -96.3 189.35 -87.05 181.05 L-77.05 153.05 -27.05 133.05 Q10.95 127.95 38.25 128.95 50.7 129.4 60.95 131.1 L77.1 138.85 M-227.0 152.05 L-230.8 152.9 -220.0 203.05 -236.0 188.05 Q-246.2 155.45 -276.0 119.1 L-333.5 108.75 -328.0 95.1 -342.0 99.1 -328.1 88.2 -329.0 87.1 -327.75 87.5 Q-284.05 101.2 -251.0 117.1 -241.5 140.6 -229.5 150.2 L-227.0 152.05 M-300.0 197.05 L-278.0 208.05 -310.95 204.9 -307.0 179.2 -308.0 179.05 -340.0 171.05 -369.9 169.2 -373.0 169.85 -373.05 169.15 -372.0 169.05 -369.9 169.2 -341.8 163.45 -303.0 168.05 -300.0 197.05 M-33.05 211.05 L-30.05 197.05 6.95 182.05 11.95 162.05 44.95 154.05 15.95 170.05 6.95 196.05 -25.05 201.05 -25.05 215.05 -33.45 212.25 -33.05 211.05 M-368.0 76.1 L-367.0 76.1 -355.0 82.1 -337.0 68.1 -338.0 79.1 -354.0 90.1 -368.0 86.1 -368.0 76.1 M149.65 188.7 L149.95 193.05 143.95 209.05 86.65 210.0 87.95 206.05 141.95 202.15 144.95 189.05 149.65 188.7" fill="url(#gradient24)" fill-rule="evenodd" stroke="none"/>
      <path d="M149.65 188.7 L209.95 184.05 232.95 213.05 224.95 214.05 205.95 194.05 205.95 193.05 149.95 193.05 149.65 188.7" fill="url(#gradient25)" fill-rule="evenodd" stroke="none"/>
      <path d="M-395.0 -165.9 L-393.0 -165.9 -374.0 -147.9 -375.0 -146.9 -373.0 -41.9 -365.0 -35.9 -369.0 1.1 -357.0 16.1 -349.0 13.1 -347.05 11.8 Q-343.4 17.8 -338.0 22.1 -326.25 60.0 -329.0 87.1 L-328.1 88.2 -342.0 99.1 -328.0 95.1 -333.5 108.75 -276.0 119.1 Q-246.2 155.45 -236.0 188.05 L-220.0 203.05 -230.8 152.9 -227.0 152.05 Q-224.35 151.1 -221.55 150.4 L-221.0 152.1 -200.0 160.05 -175.05 166.05 -163.05 166.05 -163.05 166.1 -182.05 192.05 -159.05 169.05 -164.05 199.05 -151.05 176.05 -146.05 194.05 -136.05 184.1 -129.05 214.05 -117.05 196.05 -106.05 194.05 -101.05 190.05 -89.25 184.0 -77.05 183.05 -67.05 163.05 -67.0 162.1 -33.05 164.05 -10.05 147.1 13.95 139.1 37.95 134.1 76.95 139.1 77.1 138.85 114.95 157.05 127.1 159.5 126.95 160.1 154.95 175.1 163.95 159.1 183.95 159.1 198.95 156.1 201.5 146.8 Q208.6 147.85 215.95 150.05 L254.95 183.05 300.95 190.05 322.15 185.35 322.95 189.05 336.95 197.05 350.95 170.1 368.95 169.1 373.95 141.1 396.95 131.0 396.95 228.05 -395.0 228.05 -395.0 -165.9 M-300.0 197.05 L-303.0 168.05 -341.8 163.45 -369.9 169.2 -372.0 169.05 -373.05 169.15 -373.0 169.85 -369.9 169.2 -340.0 171.05 -308.0 179.05 -307.0 179.2 -310.95 204.9 -278.0 208.05 -300.0 197.05 M-368.0 76.1 L-368.0 86.1 -354.0 90.1 -338.0 79.1 -337.0 68.1 -355.0 82.1 -367.0 76.1 -368.0 76.1 M-33.05 211.05 L-33.45 212.25 -25.05 215.05 -25.05 201.05 6.95 196.05 15.95 170.05 44.95 154.05 11.95 162.05 6.95 182.05 -30.05 197.05 -33.05 211.05 M149.95 193.05 L205.95 193.05 205.95 194.05 224.95 214.05 232.95 213.05 209.95 184.05 149.65 188.7 144.95 189.05 141.95 202.15 87.95 206.05 86.65 210.0 143.95 209.05 149.95 193.05" fill="url(#gradient26)" fill-rule="evenodd" stroke="none"/>
    </g>
    <radialGradient cx="0" cy="0" gradientTransform="matrix(0.8409, 0.0, 0.0, 0.8409, 183.0, 185.95)" gradientUnits="userSpaceOnUse" id="gradient24" r="819.2" spreadMethod="pad">
      <stop offset="0.0" stop-color="#381d1d"/>
      <stop offset="0.36470588235294116" stop-color="#271414"/>
      <stop offset="1.0" stop-color="#13111a"/>
    </radialGradient>
    <radialGradient cx="0" cy="0" gradientTransform="matrix(0.8409, 0.0, 0.0, 0.8409, 183.0, 185.95)" gradientUnits="userSpaceOnUse" id="gradient25" r="819.2" spreadMethod="pad">
      <stop offset="0.0" stop-color="#331a1a"/>
      <stop offset="0.6392156862745098" stop-color="#150d0f"/>
      <stop offset="1.0" stop-color="#0b0b0f"/>
    </radialGradient>
    <radialGradient cx="0" cy="0" gradientTransform="matrix(0.8268, 0.0, 0.0, 0.8268, 161.0, 220.95)" gradientUnits="userSpaceOnUse" id="gradient26" r="819.2" spreadMethod="pad">
      <stop offset="0.0" stop-color="#271414"/>
      <stop offset="0.6392156862745098" stop-color="#150d0f"/>
      <stop offset="1.0" stop-color="#0b0b0f"/>
    </radialGradient>
    <g id="sprite3" transform="matrix(1.0, 0.0, 0.0, 1.0, 385.9, 80.65)">
      <use ffdec:characterId="3245" height="161.3" transform="matrix(1.0, 0.0, 0.0, 1.0, -385.9, -80.65)" width="771.75" xlink:href="#shape7"/>
    </g>
    <g id="shape7" transform="matrix(1.0, 0.0, 0.0, 1.0, 385.9, 80.65)">
      <path d="M358.6 -23.55 Q372.1 -17.15 360.95 -0.2 356.6 6.4 363.55 11.15 387.85 27.65 385.65 53.3 385.4 56.15 382.5 58.25 361.85 73.15 334.85 65.35 322.5 61.8 312.0 69.1 289.65 84.6 272.85 66.7 265.8 62.6 259.25 68.3 253.7 73.15 247.1 71.7 246.7 70.65 247.0 69.5 247.75 66.9 248.85 64.3 250.0 61.55 251.65 59.0 252.9 57.1 254.85 55.95 258.6 54.1 262.45 52.4 264.35 51.5 266.3 50.7 279.2 45.2 293.15 41.15 298.85 39.5 301.4 33.85 311.4 11.65 334.6 1.7 338.3 0.1 340.05 -4.05 345.9 -18.05 358.6 -23.55 M353.5 -9.5 L353.95 -9.25 Q356.15 -12.8 355.85 -13.8 L353.5 -9.5 M-377.6 -29.2 Q-378.3 -27.2 -377.6 -24.8 L-377.65 -24.05 -377.85 -23.3 -378.25 -22.75 Q-379.0 -22.3 -379.85 -22.05 L-381.4 -21.6 -382.35 -21.6 -384.05 -22.2 -384.85 -22.8 -385.3 -23.55 -385.6 -24.3 -385.8 -25.05 -385.85 -25.8 -385.85 -26.55 -385.85 -28.05 -385.85 -29.55 -385.9 -31.0 Q-386.0 -32.2 -385.6 -33.3 L-383.95 -34.55 Q-382.3 -35.5 -381.0 -36.9 -378.65 -39.4 -375.8 -41.4 -372.0 -44.1 -367.35 -44.25 L-362.35 -43.75 -360.8 -44.25 Q-354.15 -46.15 -347.65 -43.6 L-346.35 -44.25 Q-343.65 -43.25 -342.1 -40.8 L-341.75 -40.2 Q-338.35 -37.4 -336.15 -33.1 -335.85 -32.55 -335.8 -31.8 -335.35 -26.85 -333.05 -22.8 L-332.1 -21.3 Q-317.15 -21.65 -304.35 -30.85 -297.35 -35.9 -296.95 -45.25 -296.65 -52.15 -292.4 -57.65 -282.9 -69.85 -268.55 -76.65 -262.95 -79.35 -257.35 -80.5 -224.7 -82.5 -209.65 -58.05 -208.05 -55.45 -211.65 -53.65 -228.25 -45.5 -248.95 -43.85 -254.75 -43.4 -256.75 -37.3 L-258.1 -32.2 Q-261.75 -31.15 -265.25 -29.5 -273.05 -25.8 -276.85 -18.3 -280.8 -10.4 -281.0 -1.25 -281.25 9.3 -273.95 13.25 -271.9 11.65 -272.3 8.75 -272.95 4.05 -271.55 -0.2 -268.95 -8.25 -261.75 -12.3 L-256.35 -15.2 Q-251.8 -6.85 -238.9 -2.7 -225.85 1.5 -223.0 14.7 L-223.2 14.8 Q-226.7 17.45 -227.2 21.5 L-227.7 28.25 Q-227.75 29.55 -226.95 30.5 -221.5 35.95 -215.35 31.8 -211.6 29.3 -210.55 25.45 -193.5 23.15 -181.75 36.85 -170.35 50.0 -189.8 55.9 -190.35 56.1 -190.85 56.45 L-191.1 56.85 Q-177.4 60.25 -163.25 59.4 -157.35 59.0 -153.9 62.45 -153.4 66.2 -157.2 67.05 -162.55 68.25 -167.35 68.55 -181.5 77.6 -201.35 78.1 -212.45 78.4 -223.4 77.95 L-221.6 77.3 Q-218.15 75.95 -218.45 72.25 -218.9 70.55 -220.5 71.0 -230.8 73.9 -240.6 69.45 -243.15 68.3 -244.95 66.25 -244.3 59.6 -246.95 53.75 -249.55 47.9 -253.05 42.6 -256.8 36.85 -263.95 37.0 -270.5 38.4 -276.5 41.85 -279.95 43.8 -279.95 47.75 L-279.95 52.25 -279.85 53.0 -279.45 53.75 -278.65 54.35 -276.95 55.0 -274.6 53.6 Q-272.8 52.25 -272.6 50.05 -272.5 48.45 -271.15 47.05 -269.6 45.45 -267.45 45.25 L-264.45 47.05 Q-259.65 50.45 -257.6 55.55 -255.95 59.55 -254.9 63.75 -254.25 66.35 -253.95 69.0 L-254.35 69.6 Q-255.8 70.9 -256.65 72.4 L-258.25 74.75 Q-283.4 71.05 -308.0 63.45 -295.85 54.05 -302.2 34.0 -309.5 10.85 -334.95 8.5 -352.15 9.4 -360.95 24.0 -363.5 28.25 -365.1 32.8 -377.3 19.4 -368.7 -0.3 -363.6 -12.0 -357.3 -23.4 -355.0 -27.6 -353.85 -32.3 -354.1 -34.45 -356.5 -35.3 -363.95 -37.95 -370.8 -35.05 L-372.15 -34.4 -373.05 -33.5 Q-375.4 -30.85 -377.6 -29.2 M-61.0 -4.65 Q-44.95 -0.75 -53.45 19.85 -59.0 33.3 -51.8 43.8 -49.4 47.3 -45.6 50.45 -26.55 66.3 -51.95 75.75 -84.25 87.75 -115.25 70.25 -121.25 66.85 -125.4 68.45 L-126.35 68.55 -127.8 68.1 -128.55 67.4 -128.8 66.7 -128.8 65.2 -128.65 63.95 -128.5 63.85 Q-129.0 63.6 -129.6 63.45 L-131.05 62.85 -131.8 62.15 -132.65 60.7 -132.65 59.95 -132.45 59.3 -131.25 57.85 Q-130.05 56.8 -128.4 56.6 L-125.9 56.2 -124.25 53.3 Q-120.35 45.3 -112.75 41.8 L-110.9 41.0 -110.05 40.7 Q-99.35 36.9 -87.9 36.45 -88.35 34.6 -88.1 32.7 L-85.75 16.35 Q-84.4 6.95 -78.2 -0.35 -74.55 -4.7 -69.4 -5.55 -64.6 -5.5 -61.0 -4.65 M-243.1 76.6 L-243.15 76.5 -243.0 76.6 -243.1 76.6" fill="#3a1e1b" fill-rule="evenodd" stroke="none"/>
      <path d="M126.65 -29.8 Q127.75 -38.15 131.6 -45.2 135.7 -52.7 141.65 -58.95 147.95 -65.55 156.6 -66.7 175.0 -70.3 177.1 -59.05 177.5 -56.95 177.3 -54.35 177.0 -50.0 173.15 -46.65 146.2 -23.6 168.95 4.5 174.6 11.5 183.7 10.65 213.4 7.9 221.55 32.35 224.5 41.2 216.35 46.5 193.5 61.45 176.25 40.9 167.9 30.95 156.6 26.25 150.9 23.9 145.35 27.4 122.7 41.5 101.45 31.0 L92.95 31.65 Q85.7 35.95 77.4 36.75 L74.8 36.8 72.25 36.55 Q66.0 35.05 60.05 32.35 56.85 30.9 56.25 27.5 L56.1 26.0 56.1 25.25 56.1 23.0 56.1 22.25 Q56.85 21.5 57.7 20.85 L62.65 17.2 Q63.6 16.6 64.65 16.1 L71.65 13.1 72.6 12.75 77.55 13.2 Q78.6 13.4 79.4 14.25 L80.1 15.5 79.9 16.3 Q79.6 17.8 78.35 18.05 L78.25 18.2 77.45 19.8 76.85 21.25 76.6 22.0 Q84.15 21.7 92.5 16.75 105.35 9.15 106.75 -4.75 108.35 -20.55 125.55 -24.0 L126.35 -24.5 Q126.35 -27.25 126.65 -29.8" fill="#3a1e1b" fill-rule="evenodd" stroke="none"/>
    </g>
    <g id="shape8" transform="matrix(1.0, 0.0, 0.0, 1.0, 366.2, 210.9)">
      <path d="M84.15 -210.9 L158.35 -210.9 314.8 -41.55 219.6 -41.85 84.15 -210.9" fill="url(#gradient27)" fill-rule="evenodd" stroke="none"/>
      <path d="M-97.25 -210.9 L-23.65 -210.9 140.9 -42.1 -2.05 -42.55 -97.25 -210.9" fill="url(#gradient28)" fill-rule="evenodd" stroke="none"/>
      <path d="M-204.95 -210.9 L-183.95 -210.9 -68.5 -42.75 -103.65 -42.85 -204.95 -210.9" fill="url(#gradient29)" fill-rule="evenodd" stroke="none"/>
      <path d="M-185.4 -43.1 L-276.45 -43.35 -366.2 -210.9 -313.95 -210.9 -185.4 -43.1" fill="url(#gradient30)" fill-rule="evenodd" stroke="none"/>
    </g>
    <linearGradient gradientTransform="matrix(0.0662, 0.1466, -0.0802, 0.0362, 194.9, -132.0)" gradientUnits="userSpaceOnUse" id="gradient27" spreadMethod="pad" x1="-819.2" x2="819.2">
      <stop offset="0.0" stop-color="#ef4b3a" stop-opacity="0.15294118"/>
      <stop offset="0.6392156862745098" stop-color="#de8b10" stop-opacity="0.0"/>
    </linearGradient>
    <linearGradient gradientTransform="matrix(0.0665, 0.1473, -0.0828, 0.0374, 18.65, -132.15)" gradientUnits="userSpaceOnUse" id="gradient28" spreadMethod="pad" x1="-819.2" x2="819.2">
      <stop offset="0.0" stop-color="#ef4b3a" stop-opacity="0.15294118"/>
      <stop offset="0.6392156862745098" stop-color="#de8b10" stop-opacity="0.0"/>
    </linearGradient>
    <linearGradient gradientTransform="matrix(0.0559, 0.1238, -0.0316, 0.0143, -140.15, -132.5)" gradientUnits="userSpaceOnUse" id="gradient29" spreadMethod="pad" x1="-819.2" x2="819.2">
      <stop offset="0.0" stop-color="#ef4b3a" stop-opacity="0.15294118"/>
      <stop offset="0.6392156862745098" stop-color="#de8b10" stop-opacity="0.0"/>
    </linearGradient>
    <linearGradient gradientTransform="matrix(0.0554, 0.1335, -0.0586, 0.0243, -278.75, -132.55)" gradientUnits="userSpaceOnUse" id="gradient30" spreadMethod="pad" x1="-819.2" x2="819.2">
      <stop offset="0.0" stop-color="#ef4b3a" stop-opacity="0.15294118"/>
      <stop offset="0.6392156862745098" stop-color="#de8b10" stop-opacity="0.0"/>
    </linearGradient>
    <g id="sprite4" transform="matrix(1.0, 0.0, 0.0, 1.0, 35.35, 34.65)">
      <use ffdec:characterId="3195" height="54.0" transform="matrix(-0.0087, 0.9279, -0.9279, -0.0087, 25.337, -24.1189)" width="54.0" xlink:href="#shape9"/>
      <use ffdec:characterId="3195" height="54.0" transform="matrix(0.5441, 0.0, 0.0, 0.5441, -14.6402, -13.9902)" width="54.0" xlink:href="#shape9"/>
      <use ffdec:characterId="3194" height="30.0" transform="matrix(0.5441, 0.0, 0.0, 0.5441, -8.1112, -7.6612)" width="30.0" xlink:href="#shape10"/>
    </g>
    <g id="shape9" transform="matrix(1.0, 0.0, 0.0, 1.0, 27.0, 27.0)">
      <path d="M17.0 -2.0 Q16.95 -8.2 12.6 -12.6 8.2 -17.0 2.0 -17.0 L2.0 -27.0 Q10.25 -27.0 16.6 -22.35 L19.65 -19.7 Q27.0 -12.4 27.0 -2.0 L17.0 -2.0 M-2.0 27.0 Q-12.35 27.0 -19.7 19.7 -27.05 12.4 -27.0 2.0 L-17.0 2.0 Q-17.0 8.25 -12.6 12.65 -8.25 17.0 -2.0 17.0 L-2.0 27.0" fill="url(#gradient31)" fill-rule="evenodd" stroke="none"/>
    </g>
    <radialGradient cx="0" cy="0" gradientTransform="matrix(0.0342, 0.0, 0.0, 0.0342, 0.0, 0.5)" gradientUnits="userSpaceOnUse" id="gradient31" r="819.2" spreadMethod="pad">
      <stop offset="0.7568627450980392" stop-color="#fe6565" stop-opacity="0.6901961"/>
      <stop offset="0.9333333333333333" stop-color="#fe6565" stop-opacity="0.0"/>
    </radialGradient>
    <g id="shape10" transform="matrix(1.0, 0.0, 0.0, 1.0, 15.0, 15.0)">
      <path d="M0.0 -10.25 Q-4.15 -10.25 -7.1 -7.25 -10.05 -4.25 -10.05 0.0 L-15.0 0.0 Q-15.0 -6.2 -10.6 -10.6 -6.25 -15.0 0.0 -15.0 L0.0 -10.25 M10.6 10.65 Q6.2 15.0 0.0 15.0 L0.0 10.25 Q4.15 10.25 7.1 7.25 10.05 4.25 10.05 0.0 L15.0 0.0 Q14.95 6.25 10.6 10.65" fill="url(#gradient32)" fill-rule="evenodd" stroke="none"/>
    </g>
    <radialGradient cx="0" cy="0" gradientTransform="matrix(0.0189, 0.0, 0.0, 0.0189, 0.0, 0.0)" gradientUnits="userSpaceOnUse" id="gradient32" r="819.2" spreadMethod="pad">
      <stop offset="0.6274509803921569" stop-color="#fe6565"/>
      <stop offset="1.0" stop-color="#fe6565" stop-opacity="0.0"/>
    </radialGradient>
    <g id="shape11" transform="matrix(1.0, 0.0, 0.0, 1.0, 384.45, 207.4)">
      <path d="M-383.95 31.0 L-383.95 -206.9 380.2 -206.9 380.2 207.2 -383.95 207.2 -383.95 103.65 -383.95 31.0 Z" fill="none" stroke="#000000" stroke-linecap="round" stroke-linejoin="round" stroke-width="1.0"/>
    </g>
  </defs>
</svg>
