<?xml version="1.0" encoding="UTF-8" standalone="no"?>
<svg xmlns:ffdec="https://www.free-decompiler.com/flash" xmlns:xlink="http://www.w3.org/1999/xlink" ffdec:objectType="frame" height="276.0px" width="160.5px" xmlns="http://www.w3.org/2000/svg">
  <g transform="matrix(2.0, 0.0, 0.0, 2.0, 80.2, 138.0)">
    <use ffdec:characterId="157" height="138.0" transform="matrix(1.0, 0.0, 0.0, 1.0, -40.1, -69.0)" width="80.25" xlink:href="#sprite0"/>
    <use ffdec:characterId="155" height="138.0" transform="matrix(1.0, 0.0, 0.0, 1.0, -40.1, -69.0)" width="80.25" xlink:href="#sprite2"/>
  </g>
  <defs>
    <g id="sprite0" transform="matrix(1.0, 0.0, 0.0, 1.0, 40.1, 69.0)">
      <use ffdec:characterId="156" height="138.0" transform="matrix(1.0, 0.0, 0.0, 1.0, -40.1, -69.0)" width="80.25" xlink:href="#sprite1"/>
    </g>
    <g id="sprite1" transform="matrix(1.0, 0.0, 0.0, 1.0, 40.1, 69.0)">
      <use ffdec:characterId="154" height="138.0" transform="matrix(1.0, 0.0, 0.0, 1.0, -40.1, -69.0)" width="80.25" xlink:href="#shape0"/>
    </g>
    <g id="shape0" transform="matrix(1.0, 0.0, 0.0, 1.0, 40.1, 69.0)">
      <path d="M-31.6 -69.0 Q-1.9 -69.0 19.1 -48.3 40.15 -27.55 40.15 1.75 40.15 31.05 19.1 51.75 6.75 63.95 -8.6 69.0 L-39.3 33.0 Q-34.35 29.55 -29.85 24.9 -12.85 7.35 -12.85 -17.5 -12.85 -42.35 -29.85 -59.95 -34.7 -64.95 -40.1 -68.55 L-31.6 -69.0" fill="url(#gradient0)" fill-rule="evenodd" stroke="none"/>
    </g>
    <linearGradient gradientTransform="matrix(0.0457, -0.0378, 0.0509, 0.0615, -10.4, -8.3)" gradientUnits="userSpaceOnUse" id="gradient0" spreadMethod="pad" x1="-819.2" x2="819.2">
      <stop offset="0.0" stop-color="#ffffff" stop-opacity="0.29803923"/>
      <stop offset="1.0" stop-color="#ffffff" stop-opacity="0.0"/>
    </linearGradient>
    <g id="sprite2" transform="matrix(1.0, 0.0, 0.0, 1.0, 40.1, 69.0)">
      <use ffdec:characterId="154" height="138.0" transform="matrix(1.0, 0.0, 0.0, 1.0, -40.1, -69.0)" width="80.25" xlink:href="#shape0"/>
    </g>
  </defs>
</svg>
