<?xml version="1.0" encoding="UTF-8" standalone="no"?>
<svg xmlns:ffdec="https://www.free-decompiler.com/flash" xmlns:xlink="http://www.w3.org/1999/xlink" ffdec:objectType="frame" height="63.6px" width="236.0px" xmlns="http://www.w3.org/2000/svg">
  <g transform="matrix(2.0, 0.0, 0.0, 2.0, 202.5, 31.8)">
    <use ffdec:characterId="1063" height="31.8" transform="matrix(1.9836, 0.0, 0.0, 0.5753, -44.5003, -9.1468)" width="30.5" xlink:href="#shape0"/>
    <use ffdec:characterId="1063" height="31.8" transform="matrix(2.3771, 0.0, 0.0, 0.544, -58.2502, -8.6492)" width="30.5" xlink:href="#shape0"/>
  </g>
  <defs>
    <g id="shape0" transform="matrix(1.0, 0.0, 0.0, 1.0, 15.25, 15.9)">
      <path d="M-11.4 -15.85 L-10.4 -15.9 Q0.25 -15.9 7.75 -11.25 15.25 -6.6 15.25 0.0 15.25 6.6 7.75 11.25 0.25 15.9 -10.4 15.9 L-15.25 15.65 Q-9.75 14.4 -5.25 11.6 2.95 6.5 2.95 -0.65 2.95 -7.85 -5.25 -12.95 -8.1 -14.75 -11.4 -15.85" fill="url(#gradient0)" fill-rule="evenodd" stroke="none"/>
    </g>
    <radialGradient cx="0" cy="0" gradientTransform="matrix(0.0365, 0.0, 0.0, 0.0226, -14.5, -0.6)" gradientUnits="userSpaceOnUse" id="gradient0" r="819.2" spreadMethod="pad">
      <stop offset="0.5882352941176471" stop-color="#ffffff" stop-opacity="0.0"/>
      <stop offset="0.9803921568627451" stop-color="#ffffff"/>
    </radialGradient>
  </defs>
</svg>
