<?xml version="1.0" encoding="UTF-8" standalone="no"?>
<svg xmlns:ffdec="https://www.free-decompiler.com/flash" xmlns:xlink="http://www.w3.org/1999/xlink" ffdec:objectType="frame" height="69.2px" width="27.2px" xmlns="http://www.w3.org/2000/svg">
  <g transform="matrix(2.0, 0.0, 0.0, 2.0, 14.1, 34.7)">
    <clipPath id="clipPath0" transform="matrix(1.0, 0.0, 0.0, 1.0, 0.0, 0.0)">
      <path d="M-5.95 -10.95 L5.95 -10.95 5.95 10.95 -5.95 10.95 -5.95 -10.95" fill="#000000" fill-opacity="0.8" fill-rule="evenodd" stroke="none"/>
    </clipPath>
    <g clip-path="url(#clipPath0)">
      <use ffdec:characterId="77" height="10.8" transform="matrix(1.0, 0.0, 0.0, 1.0, -5.95, -10.1)" width="11.9" xlink:href="#shape1"/>
    </g>
  </g>
  <defs>
    <g id="shape1" transform="matrix(1.0, 0.0, 0.0, 1.0, 5.95, 10.1)">
      <path d="M-1.85 -3.3 L-0.25 -3.3 -0.25 0.7 -5.95 0.7 -5.95 -10.1 -1.85 -10.1 -1.85 -3.3 M2.6 -4.85 L0.55 -4.85 0.55 -10.1 5.95 -10.1 5.95 0.7 2.6 0.7 2.6 -4.85" fill="#000000" fill-opacity="0.9019608" fill-rule="evenodd" stroke="none"/>
    </g>
  </defs>
</svg>
