<?xml version="1.0" encoding="UTF-8" standalone="no"?>
<svg xmlns:ffdec="https://www.free-decompiler.com/flash" xmlns:xlink="http://www.w3.org/1999/xlink" ffdec:objectType="frame" height="69.2px" width="27.2px" xmlns="http://www.w3.org/2000/svg">
  <g transform="matrix(2.0, 0.0, 0.0, 2.0, 14.1, 34.7)">
    <clipPath id="clipPath0" transform="matrix(1.0, 0.0, 0.0, 1.0, 0.0, 0.0)">
      <path d="M-5.95 -10.95 L5.95 -10.95 5.95 10.95 -5.95 10.95 -5.95 -10.95" fill="#000000" fill-opacity="0.8" fill-rule="evenodd" stroke="none"/>
    </clipPath>
    <g clip-path="url(#clipPath0)">
      <use ffdec:characterId="81" height="13.0" transform="matrix(1.0, 0.0, 0.0, 1.0, -6.15, -9.8)" width="12.0" xlink:href="#shape1"/>
    </g>
  </g>
  <defs>
    <g id="shape1" transform="matrix(1.0, 0.0, 0.0, 1.0, 6.15, 9.8)">
      <path d="M4.05 -1.45 L-4.55 -1.45 -5.9 -5.2 2.7 -5.2 4.05 -1.45 M5.85 -0.55 L5.85 3.2 -0.25 3.2 -1.55 -0.55 5.85 -0.55 M-6.15 -6.05 L-6.15 -9.8 -1.15 -9.8 0.2 -6.05 -6.15 -6.05" fill="#000000" fill-opacity="0.9019608" fill-rule="evenodd" stroke="none"/>
    </g>
  </defs>
</svg>
