<?xml version="1.0" encoding="UTF-8" standalone="no"?>
<svg xmlns:ffdec="https://www.free-decompiler.com/flash" xmlns:xlink="http://www.w3.org/1999/xlink" ffdec:objectType="frame" height="69.2px" width="27.2px" xmlns="http://www.w3.org/2000/svg">
  <g transform="matrix(2.0, 0.0, 0.0, 2.0, 14.1, 34.7)">
    <clipPath id="clipPath0" transform="matrix(1.0, 0.0, 0.0, 1.0, 0.0, 0.0)">
      <path d="M-5.95 -10.95 L5.95 -10.95 5.95 10.95 -5.95 10.95 -5.95 -10.95" fill="#000000" fill-opacity="0.8" fill-rule="evenodd" stroke="none"/>
    </clipPath>
    <g clip-path="url(#clipPath0)">
      <use ffdec:characterId="83" height="16.85" transform="matrix(1.0, 0.0, 0.0, 1.0, -6.05, -10.95)" width="10.75" xlink:href="#shape1"/>
    </g>
  </g>
  <defs>
    <g id="shape1" transform="matrix(1.0, 0.0, 0.0, 1.0, 6.05, 10.95)">
      <path d="M-3.9 -3.3 L-2.8 5.9 -6.05 1.15 -6.05 -8.35 0.2 -5.7 2.7 4.65 -1.9 -2.85 -3.9 -3.3 M-6.05 -10.95 L-2.55 -10.95 3.9 -8.5 4.7 1.3 2.25 -6.7 -6.05 -8.75 -6.05 -10.95" fill="#000000" fill-opacity="0.9019608" fill-rule="evenodd" stroke="none"/>
    </g>
  </defs>
</svg>
