<?xml version="1.0" encoding="UTF-8" standalone="no"?>
<svg xmlns:ffdec="https://www.free-decompiler.com/flash" xmlns:xlink="http://www.w3.org/1999/xlink" ffdec:objectType="frame" height="69.2px" width="27.2px" xmlns="http://www.w3.org/2000/svg">
  <g transform="matrix(2.0, 0.0, 0.0, 2.0, 14.1, 34.7)">
    <clipPath id="clipPath0" transform="matrix(1.0, 0.0, 0.0, 1.0, 0.0, 0.0)">
      <path d="M-5.95 -10.95 L5.95 -10.95 5.95 10.95 -5.95 10.95 -5.95 -10.95" fill="#000000" fill-opacity="0.8" fill-rule="evenodd" stroke="none"/>
    </clipPath>
    <g clip-path="url(#clipPath0)">
      <use ffdec:characterId="84" height="19.45" transform="matrix(1.0, 0.0, 0.0, 1.0, -5.95, -10.95)" width="11.9" xlink:href="#shape1"/>
    </g>
  </g>
  <defs>
    <g id="shape1" transform="matrix(1.0, 0.0, 0.0, 1.0, 5.95, 10.95)">
      <path d="M0.05 -10.95 L0.85 -7.85 0.6 -7.6 2.55 -4.3 5.7 -2.85 5.95 -2.3 5.95 2.4 3.55 -2.3 0.65 -0.3 0.1 -1.15 0.1 0.4 3.25 5.45 5.95 3.9 5.95 8.5 2.6 7.8 -1.75 1.15 -0.5 -2.2 -2.45 -5.35 -4.3 -5.2 -5.95 -7.15 -5.95 -9.15 -4.3 -8.2 -3.8 -7.6 -0.95 -8.8 -1.15 -9.2 -2.5 -10.95 0.05 -10.95" fill="#000000" fill-opacity="0.9019608" fill-rule="evenodd" stroke="none"/>
    </g>
  </defs>
</svg>
