<?xml version="1.0" encoding="UTF-8" standalone="no"?>
<svg xmlns:ffdec="https://www.free-decompiler.com/flash" xmlns:xlink="http://www.w3.org/1999/xlink" ffdec:objectType="frame" height="69.2px" width="27.2px" xmlns="http://www.w3.org/2000/svg">
  <g transform="matrix(2.0, 0.0, 0.0, 2.0, 14.1, 34.7)">
    <clipPath id="clipPath0" transform="matrix(1.0, 0.0, 0.0, 1.0, 0.0, 0.0)">
      <path d="M-5.95 -10.95 L5.95 -10.95 5.95 10.95 -5.95 10.95 -5.95 -10.95" fill="#000000" fill-opacity="0.8" fill-rule="evenodd" stroke="none"/>
    </clipPath>
    <g clip-path="url(#clipPath0)">
      <use ffdec:characterId="86" height="13.5" transform="matrix(1.0, 0.0, 0.0, 1.0, -3.9, -10.8)" width="7.25" xlink:href="#shape1"/>
    </g>
  </g>
  <defs>
    <g id="shape1" transform="matrix(1.0, 0.0, 0.0, 1.0, 3.9, 10.8)">
      <path d="M3.35 -8.3 L-3.9 -8.3 -3.9 -10.8 3.35 -10.8 3.35 -8.3 M3.35 -4.55 L-3.9 -4.55 -3.9 -7.3 3.35 -7.3 3.35 -4.55 M3.35 2.7 L-3.9 2.7 -3.9 -3.55 3.35 -3.55 3.35 2.7" fill="#000000" fill-opacity="0.9019608" fill-rule="evenodd" stroke="none"/>
    </g>
  </defs>
</svg>
