<?xml version="1.0" encoding="UTF-8" standalone="no"?>
<svg xmlns:ffdec="https://www.free-decompiler.com/flash" xmlns:xlink="http://www.w3.org/1999/xlink" ffdec:objectType="frame" height="69.2px" width="27.2px" xmlns="http://www.w3.org/2000/svg">
  <g transform="matrix(2.0, 0.0, 0.0, 2.0, 14.1, 34.7)">
    <clipPath id="clipPath0" transform="matrix(1.0, 0.0, 0.0, 1.0, 0.0, 0.0)">
      <path d="M-5.95 -10.95 L5.95 -10.95 5.95 10.95 -5.95 10.95 -5.95 -10.95" fill="#000000" fill-opacity="0.8" fill-rule="evenodd" stroke="none"/>
    </clipPath>
    <g clip-path="url(#clipPath0)">
      <use ffdec:characterId="87" height="22.25" transform="matrix(1.0, 0.0, 0.0, 1.0, -5.95, -11.05)" width="11.9" xlink:href="#shape1"/>
    </g>
  </g>
  <defs>
    <g id="shape1" transform="matrix(1.0, 0.0, 0.0, 1.0, 5.95, 11.05)">
      <path d="M5.95 -3.25 L-5.95 -0.5 -5.95 -7.75 5.95 -5.1 5.95 -3.25 M5.95 -7.45 L-4.5 -9.65 -5.95 -10.3 -5.95 -11.05 5.95 -11.05 5.95 -7.45 M-5.95 2.1 L5.95 -0.65 5.95 5.55 -5.95 3.05 -5.95 2.1 M-1.95 11.2 L-5.95 11.2 -5.95 5.35 5.95 7.85 5.95 8.2 -1.95 11.2" fill="#000000" fill-opacity="0.9019608" fill-rule="evenodd" stroke="none"/>
    </g>
  </defs>
</svg>
