<?xml version="1.0" encoding="UTF-8" standalone="no"?>
<svg xmlns:ffdec="https://www.free-decompiler.com/flash" xmlns:xlink="http://www.w3.org/1999/xlink" ffdec:objectType="frame" height="69.2px" width="27.2px" xmlns="http://www.w3.org/2000/svg">
  <g transform="matrix(2.0, 0.0, 0.0, 2.0, 14.1, 34.7)">
    <clipPath id="clipPath0" transform="matrix(1.0, 0.0, 0.0, 1.0, 0.0, 0.0)">
      <path d="M-5.95 -10.95 L5.95 -10.95 5.95 10.95 -5.95 10.95 -5.95 -10.95" fill="#000000" fill-opacity="0.8" fill-rule="evenodd" stroke="none"/>
    </clipPath>
    <g clip-path="url(#clipPath0)">
      <use ffdec:characterId="93" height="21.9" transform="matrix(1.0, 0.0, 0.0, 1.0, -5.75, -10.95)" width="11.9" xlink:href="#shape1"/>
    </g>
  </g>
  <defs>
    <g id="shape1" transform="matrix(1.0, 0.0, 0.0, 1.0, 5.75, 10.95)">
      <path d="M6.15 -10.4 L6.15 3.35 1.2 -3.35 6.15 -10.4 M6.15 10.95 L-5.75 10.95 -5.75 6.35 -0.7 -0.75 6.15 10.65 6.15 10.95 M-0.4 -10.95 L2.3 -10.95 -0.65 -5.85 -2.1 -7.8 -0.4 -10.95 M-5.75 -2.9 L-5.05 -2.5 -3.5 -5.35 -2.2 -3.25 -5.75 2.65 -5.75 -2.9" fill="#000000" fill-opacity="0.9019608" fill-rule="evenodd" stroke="none"/>
    </g>
  </defs>
</svg>
