<?xml version="1.0" encoding="UTF-8" standalone="no"?>
<svg xmlns:ffdec="https://www.free-decompiler.com/flash" xmlns:xlink="http://www.w3.org/1999/xlink" ffdec:objectType="frame" height="69.2px" width="27.2px" xmlns="http://www.w3.org/2000/svg">
  <g transform="matrix(2.0, 0.0, 0.0, 2.0, 14.1, 34.7)">
    <clipPath id="clipPath0" transform="matrix(1.0, 0.0, 0.0, 1.0, 0.0, 0.0)">
      <path d="M-5.95 -10.95 L5.95 -10.95 5.95 10.95 -5.95 10.95 -5.95 -10.95" fill="#000000" fill-opacity="0.8" fill-rule="evenodd" stroke="none"/>
    </clipPath>
    <g clip-path="url(#clipPath0)">
      <use ffdec:characterId="95" height="21.9" transform="matrix(1.0, 0.0, 0.0, 1.0, -5.95, -10.95)" width="12.1" xlink:href="#shape1"/>
    </g>
  </g>
  <defs>
    <g id="shape1" transform="matrix(1.0, 0.0, 0.0, 1.0, 5.95, 10.95)">
      <path d="M2.5 -6.3 L2.5 1.55 6.15 5.4 6.15 10.95 -5.95 10.95 -5.95 4.55 -2.65 2.2 -2.65 -6.55 -5.95 -10.9 -5.95 -10.95 5.85 -10.95 2.5 -6.3" fill="#000000" fill-opacity="0.9019608" fill-rule="evenodd" stroke="none"/>
    </g>
  </defs>
</svg>
