<?xml version="1.0" encoding="UTF-8" standalone="no"?>
<svg xmlns:ffdec="https://www.free-decompiler.com/flash" xmlns:xlink="http://www.w3.org/1999/xlink" ffdec:objectType="frame" height="69.2px" width="27.2px" xmlns="http://www.w3.org/2000/svg">
  <g transform="matrix(2.0, 0.0, 0.0, 2.0, 14.1, 34.7)">
    <clipPath id="clipPath0" transform="matrix(1.0, 0.0, 0.0, 1.0, 0.0, 0.0)">
      <path d="M-5.95 -10.95 L5.95 -10.95 5.95 10.95 -5.95 10.95 -5.95 -10.95" fill="#000000" fill-opacity="0.8" fill-rule="evenodd" stroke="none"/>
    </clipPath>
    <g clip-path="url(#clipPath0)">
      <use ffdec:characterId="96" height="21.9" transform="matrix(1.0, 0.0, 0.0, 1.0, -5.95, -10.95)" width="12.1" xlink:href="#shape1"/>
    </g>
  </g>
  <defs>
    <g id="shape1" transform="matrix(1.0, 0.0, 0.0, 1.0, 5.95, 10.95)">
      <path d="M-4.15 -10.55 Q1.85 -7.0 3.6 -0.95 3.75 2.15 1.6 3.3 5.35 6.25 6.15 10.55 L6.15 10.95 3.4 10.95 Q3.8 7.35 0.0 6.2 L-2.7 10.95 -5.95 10.95 -5.95 10.7 -5.5 10.7 Q-1.4 6.35 0.35 -0.3 -1.3 -5.65 -5.65 -10.3 L-5.95 -10.3 -5.95 -10.95 -4.15 -10.95 -4.15 -10.55" fill="#000000" fill-opacity="0.9019608" fill-rule="evenodd" stroke="none"/>
    </g>
  </defs>
</svg>
