<?xml version="1.0" encoding="UTF-8" standalone="no"?>
<svg xmlns:ffdec="https://www.free-decompiler.com/flash" xmlns:xlink="http://www.w3.org/1999/xlink" ffdec:objectType="frame" height="69.2px" width="27.2px" xmlns="http://www.w3.org/2000/svg">
  <g transform="matrix(2.0, 0.0, 0.0, 2.0, 14.1, 34.7)">
    <clipPath id="clipPath0" transform="matrix(1.0, 0.0, 0.0, 1.0, 0.0, 0.0)">
      <path d="M-5.95 -10.95 L5.95 -10.95 5.95 10.95 -5.95 10.95 -5.95 -10.95" fill="#000000" fill-opacity="0.8" fill-rule="evenodd" stroke="none"/>
    </clipPath>
    <g clip-path="url(#clipPath0)">
      <use ffdec:characterId="97" height="21.9" transform="matrix(1.0, 0.0, 0.0, 1.0, -5.95, -10.95)" width="12.1" xlink:href="#shape1"/>
    </g>
  </g>
  <defs>
    <g id="shape1" transform="matrix(1.0, 0.0, 0.0, 1.0, 5.95, 10.95)">
      <path d="M2.5 -7.8 L-2.95 -7.8 -2.55 -4.9 -2.25 -4.95 2.65 -4.9 2.8 -7.75 2.5 -7.8 M-5.95 -10.95 L5.95 -10.95 5.95 5.2 6.15 5.4 6.15 10.95 1.65 10.95 1.8 8.0 -0.15 7.95 -0.7 8.05 -0.3 10.95 -2.05 10.95 -5.95 -8.65 -5.95 -10.95 M2.3 0.35 L2.45 -2.05 -2.15 -2.0 -1.8 0.35 2.3 0.35 M-1.4 3.25 L-1.1 5.35 -0.25 5.2 2.0 5.25 2.1 3.25 -1.4 3.25" fill="#000000" fill-opacity="0.9019608" fill-rule="evenodd" stroke="none"/>
    </g>
  </defs>
</svg>
