<?xml version="1.0" encoding="UTF-8" standalone="no"?>
<svg xmlns:ffdec="https://www.free-decompiler.com/flash" xmlns:xlink="http://www.w3.org/1999/xlink" ffdec:objectType="frame" height="69.2px" width="27.2px" xmlns="http://www.w3.org/2000/svg">
  <g transform="matrix(2.0, 0.0, 0.0, 2.0, 14.1, 34.7)">
    <clipPath id="clipPath0" transform="matrix(1.0, 0.0, 0.0, 1.0, 0.0, 0.0)">
      <path d="M-5.95 -10.95 L5.95 -10.95 5.95 10.95 -5.95 10.95 -5.95 -10.95" fill="#000000" fill-opacity="0.8" fill-rule="evenodd" stroke="none"/>
    </clipPath>
    <g clip-path="url(#clipPath0)">
      <use ffdec:characterId="99" height="20.5" transform="matrix(1.0, 0.0, 0.0, 1.0, -5.4, -9.55)" width="11.25" xlink:href="#shape1"/>
    </g>
  </g>
  <defs>
    <g id="shape1" transform="matrix(1.0, 0.0, 0.0, 1.0, 5.4, 9.55)">
      <path d="M4.1 -9.55 L5.85 -3.25 5.85 0.2 2.85 3.2 2.6 6.2 0.35 6.2 0.6 2.2 3.6 -0.8 2.6 -6.05 -2.9 -6.05 -3.65 -0.55 -5.4 -3.3 -4.15 -9.55 4.1 -9.55 M0.1 7.95 L2.85 7.95 2.85 10.95 0.1 10.95 0.1 7.95" fill="#000000" fill-rule="evenodd" stroke="none"/>
    </g>
  </defs>
</svg>
