<?xml version="1.0" encoding="UTF-8" standalone="no"?>
<svg xmlns:ffdec="https://www.free-decompiler.com/flash" xmlns:xlink="http://www.w3.org/1999/xlink" ffdec:objectType="frame" height="69.2px" width="27.2px" xmlns="http://www.w3.org/2000/svg">
  <g transform="matrix(2.0, 0.0, 0.0, 2.0, 14.1, 34.7)">
    <clipPath id="clipPath0" transform="matrix(1.0, 0.0, 0.0, 1.0, 0.0, 0.0)">
      <path d="M-5.95 -10.95 L5.95 -10.95 5.95 10.95 -5.95 10.95 -5.95 -10.95" fill="#000000" fill-opacity="0.8" fill-rule="evenodd" stroke="none"/>
    </clipPath>
    <g clip-path="url(#clipPath0)">
      <use ffdec:characterId="72" height="21.95" transform="matrix(1.0, 0.0, 0.0, 1.0, -5.95, -10.95)" width="12.0" xlink:href="#shape1"/>
    </g>
  </g>
  <defs>
    <g id="shape1" transform="matrix(1.0, 0.0, 0.0, 1.0, 5.95, 10.95)">
      <path d="M2.35 -3.8 L5.95 -3.8 5.95 4.1 2.35 4.1 2.35 -3.8 M5.95 -5.35 L2.35 -5.35 2.35 -10.95 5.95 -10.95 5.95 -6.1 6.0 -5.75 5.95 -5.35 M-1.55 -5.35 L-5.95 -5.35 -5.95 -10.95 -1.55 -10.95 -1.55 -5.35 M-5.95 -3.8 L-1.55 -3.8 -1.55 4.1 -5.95 4.1 -5.95 -3.8 M2.35 10.95 L2.35 6.95 6.05 6.95 6.05 9.9 5.95 10.0 5.95 10.95 4.45 10.95 3.9 11.0 3.4 10.95 2.35 10.95 M-5.95 10.95 L-5.95 6.95 -1.55 6.95 -1.55 10.95 -5.95 10.95" fill="#000000" fill-opacity="0.9019608" fill-rule="evenodd" stroke="none"/>
    </g>
  </defs>
</svg>
