<?xml version="1.0" encoding="UTF-8" standalone="no"?>
<svg xmlns:ffdec="https://www.free-decompiler.com/flash" xmlns:xlink="http://www.w3.org/1999/xlink" ffdec:objectType="frame" height="69.2px" width="27.2px" xmlns="http://www.w3.org/2000/svg">
  <g transform="matrix(2.0, 0.0, 0.0, 2.0, 14.1, 34.7)">
    <clipPath id="clipPath0" transform="matrix(1.0, 0.0, 0.0, 1.0, 0.0, 0.0)">
      <path d="M-5.95 -10.95 L5.95 -10.95 5.95 10.95 -5.95 10.95 -5.95 -10.95" fill="#000000" fill-opacity="0.8" fill-rule="evenodd" stroke="none"/>
    </clipPath>
    <g clip-path="url(#clipPath0)">
      <use ffdec:characterId="73" height="21.9" transform="matrix(1.0, 0.0, 0.0, 1.0, -5.95, -10.95)" width="12.0" xlink:href="#shape1"/>
    </g>
  </g>
  <defs>
    <g id="shape1" transform="matrix(1.0, 0.0, 0.0, 1.0, 5.95, 10.95)">
      <path d="M5.85 10.05 L5.95 10.0 5.95 10.4 5.85 10.05" fill="#000000" fill-opacity="0.8" fill-rule="evenodd" stroke="none"/>
      <path d="M5.95 -3.2 Q0.2 -6.5 -0.35 -10.95 L5.95 -10.95 5.95 -6.1 6.0 -5.75 5.95 -5.35 5.95 -3.2 M-0.4 10.95 L-5.95 10.95 -5.95 8.6 Q-2.3 6.0 -0.4 10.95 M5.85 10.05 Q2.7 1.1 -5.95 2.35 L-5.95 -8.55 Q-2.7 -2.55 5.95 2.6 L5.95 6.95 6.05 6.95 6.05 9.9 5.95 10.0 5.85 10.05" fill="#000000" fill-opacity="0.9019608" fill-rule="evenodd" stroke="none"/>
    </g>
  </defs>
</svg>
