<?xml version="1.0" encoding="UTF-8" standalone="no"?>
<svg xmlns:ffdec="https://www.free-decompiler.com/flash" xmlns:xlink="http://www.w3.org/1999/xlink" ffdec:objectType="frame" height="69.2px" width="27.2px" xmlns="http://www.w3.org/2000/svg">
  <g transform="matrix(2.0, 0.0, 0.0, 2.0, 14.1, 34.7)">
    <clipPath id="clipPath0" transform="matrix(1.0, 0.0, 0.0, 1.0, 0.0, 0.0)">
      <path d="M-5.95 -10.95 L5.95 -10.95 5.95 10.95 -5.95 10.95 -5.95 -10.95" fill="#000000" fill-opacity="0.8" fill-rule="evenodd" stroke="none"/>
    </clipPath>
    <g clip-path="url(#clipPath0)">
      <use ffdec:characterId="74" height="21.9" transform="matrix(1.0, 0.0, 0.0, 1.0, -5.95, -10.95)" width="11.9" xlink:href="#shape1"/>
    </g>
  </g>
  <defs>
    <g id="shape1" transform="matrix(1.0, 0.0, 0.0, 1.0, 5.95, 10.95)">
      <path d="M5.95 -2.45 L-5.95 -2.45 -5.95 -5.6 5.95 -5.6 5.95 -2.45 M5.95 -8.75 L-5.95 -8.75 -5.95 -10.95 5.95 -10.95 5.95 -8.75 M-5.95 6.7 L5.95 6.7 5.95 10.95 -5.95 10.95 -5.95 6.7 M-5.95 0.15 L5.95 0.15 5.95 3.8 -5.95 3.8 -5.95 0.15" fill="#000000" fill-opacity="0.9019608" fill-rule="evenodd" stroke="none"/>
    </g>
  </defs>
</svg>
