<?xml version="1.0" encoding="UTF-8" standalone="no"?>
<svg xmlns:ffdec="https://www.free-decompiler.com/flash" xmlns:xlink="http://www.w3.org/1999/xlink" ffdec:objectType="frame" height="69.2px" width="27.2px" xmlns="http://www.w3.org/2000/svg">
  <g transform="matrix(2.0, 0.0, 0.0, 2.0, 14.1, 34.7)">
    <clipPath id="clipPath0" transform="matrix(1.0, 0.0, 0.0, 1.0, 0.0, 0.0)">
      <path d="M-5.95 -10.95 L5.95 -10.95 5.95 10.95 -5.95 10.95 -5.95 -10.95" fill="#000000" fill-opacity="0.8" fill-rule="evenodd" stroke="none"/>
    </clipPath>
    <g clip-path="url(#clipPath0)">
      <use ffdec:characterId="76" height="17.25" transform="matrix(1.0, 0.0, 0.0, 1.0, -6.1, -14.35)" width="12.25" xlink:href="#shape1"/>
    </g>
  </g>
  <defs>
    <g id="shape1" transform="matrix(1.0, 0.0, 0.0, 1.0, 6.1, 14.35)">
      <path d="M0.0 -1.1 Q3.15 -1.05 5.9 -2.45 L5.8 2.05 Q2.95 2.95 -0.15 2.9 -3.3 2.85 -6.1 1.8 L-6.0 -2.8 Q-3.25 -1.15 0.0 -1.1 M0.0 -6.05 Q-3.35 -6.1 -5.85 -8.6 L-5.75 -14.35 6.15 -14.1 6.0 -8.35 Q3.35 -6.0 0.0 -6.05" fill="#000000" fill-opacity="0.9019608" fill-rule="evenodd" stroke="none"/>
    </g>
  </defs>
</svg>
