<?xml version="1.0" encoding="UTF-8" standalone="no"?>
<svg xmlns:ffdec="https://www.free-decompiler.com/flash" xmlns:xlink="http://www.w3.org/1999/xlink" ffdec:objectType="frame" height="78.0px" width="77.4px" xmlns="http://www.w3.org/2000/svg">
  <g transform="matrix(2.0, 0.0, 0.0, 2.0, 48.3, 40.4)">
    <use ffdec:characterId="2199" height="13.25" transform="matrix(1.0, 0.0, 0.0, 1.0, -12.5, -6.95)" width="17.85" xlink:href="#shape0"/>
    <use ffdec:characterId="105" height="45.1" transform="matrix(0.0924, 0.0422, -0.1309, 0.2912, -18.2479, -14.7663)" width="355.1" xlink:href="#shape1"/>
    <use ffdec:characterId="105" height="45.1" transform="matrix(0.0427, -0.0928, 0.2874, 0.1348, -20.2659, 12.7353)" width="355.1" xlink:href="#shape1"/>
  </g>
  <defs>
    <g id="shape0" transform="matrix(1.0, 0.0, 0.0, 1.0, 12.5, 6.95)">
      <path d="M-11.05 -0.2 L-9.95 -1.75 Q-7.45 -4.9 -3.2 -6.95 L-2.4 -6.4 Q-0.6 -5.55 2.65 -6.3 5.15 -2.45 5.35 0.0 1.0 2.85 0.85 6.3 -7.25 5.6 -12.5 2.7 L-11.7 0.9 -11.05 -0.2" fill="url(#gradient0)" fill-rule="evenodd" stroke="none"/>
      <path d="M-11.05 -0.2 L-11.7 0.9 -12.5 2.7 Q-7.25 5.6 0.85 6.3 1.0 2.85 5.35 0.0 5.15 -2.45 2.65 -6.3 -0.6 -5.55 -2.4 -6.4 L-3.2 -6.95 Q-7.45 -4.9 -9.95 -1.75 L-11.05 -0.2 Z" fill="none" stroke="#000000" stroke-linecap="round" stroke-linejoin="round" stroke-width="0.05"/>
      <path d="M-8.35 -2.65 L-7.1 -1.5 Q-6.35 -3.1 -4.8 -4.55 L-3.0 -4.2 Q-4.85 -2.55 -5.75 -0.7 -3.95 0.2 -0.85 0.7 L-2.1 2.55 Q-4.9 1.85 -6.5 0.85 L-7.2 3.6 -8.35 2.65 Q-8.2 1.15 -7.7 -0.05 L-8.9 -1.3 -8.35 -2.65" fill="#ff0000" fill-rule="evenodd" stroke="none"/>
    </g>
    <radialGradient cx="0" cy="0" gradientTransform="matrix(0.0126, 0.0, 0.0, 0.0126, -3.95, -2.4)" gradientUnits="userSpaceOnUse" id="gradient0" r="819.2" spreadMethod="pad">
      <stop offset="0.0" stop-color="#ffffff"/>
      <stop offset="0.5333333333333333" stop-color="#a2b3a6"/>
      <stop offset="0.8823529411764706" stop-color="#adb7a6"/>
    </radialGradient>
    <g id="shape1" transform="matrix(1.0, 0.0, 0.0, 1.0, 177.55, 22.55)">
      <path d="M125.55 -15.95 Q177.55 -9.35 177.55 0.0 177.55 9.35 125.55 15.95 73.6 22.55 0.0 22.55 -73.6 22.55 -125.55 15.95 -177.55 9.35 -177.55 0.0 -177.55 -9.35 -125.55 -15.95 -73.6 -22.55 0.0 -22.55 73.6 -22.55 125.55 -15.95" fill="url(#gradient1)" fill-rule="evenodd" stroke="none"/>
    </g>
    <radialGradient cx="0" cy="0" gradientTransform="matrix(0.2204, 0.0, 0.0, 0.028, -0.05, 0.0)" gradientUnits="userSpaceOnUse" id="gradient1" r="819.2" spreadMethod="pad">
      <stop offset="0.06274509803921569" stop-color="#ff0000" stop-opacity="0.69803923"/>
      <stop offset="0.12941176470588237" stop-color="#ff0000" stop-opacity="0.5686275"/>
      <stop offset="0.21176470588235294" stop-color="#ff0000" stop-opacity="0.53333336"/>
      <stop offset="0.44313725490196076" stop-color="#ff0000" stop-opacity="0.14509805"/>
      <stop offset="0.9098039215686274" stop-color="#ff0000" stop-opacity="0.0"/>
    </radialGradient>
  </defs>
</svg>
