<?xml version="1.0" encoding="UTF-8" standalone="no"?>
<svg xmlns:ffdec="https://www.free-decompiler.com/flash" xmlns:xlink="http://www.w3.org/1999/xlink" ffdec:objectType="frame" height="31.6px" width="31.1px" xmlns="http://www.w3.org/2000/svg">
  <g transform="matrix(2.0, 0.0, 0.0, 2.0, 15.5, 15.6)">
    <use ffdec:characterId="2554" height="15.6" transform="matrix(1.0, 0.0, 0.0, 1.0, -7.75, -7.8)" width="15.55" xlink:href="#shape0"/>
    <filter id="filter0">
      <feColorMatrix in="SourceGraphic" result="filterResult0" type="matrix" values="0 0 0 0 1.0,0 0 0 0 1.0,0 0 0 0 1.0,0 0 0 1 0"/>
      <feConvolveMatrix divisor="12.0" in="filterResult0" kernelMatrix="1 1 1 1 1 1 1 1 1 1 1 1" order="6 2" result="filterResult1"/>
      <feComposite in="SourceGraphic" in2="filterResult1" operator="over" result="filterResult2"/>
    </filter>
    <use ffdec:characterId="2553" filter="url(#filter0)" height="3.85" transform="matrix(1.0, 0.0, 0.0, 1.0, -2.1, 4.15)" width="9.9" xlink:href="#sprite0"/>
  </g>
  <defs>
    <g id="shape0" transform="matrix(1.0, 0.0, 0.0, 1.0, 7.75, 7.8)">
      <path d="M-7.0 -6.5 L-7.75 -7.8 -6.5 -7.05 -6.25 -6.95 -7.0 -6.5" fill="url(#gradient0)" fill-rule="evenodd" stroke="none"/>
      <path d="M2.25 -6.8 L4.1 -7.7 Q1.65 -3.65 2.0 2.45 L7.8 3.9 7.4 7.8 Q2.4 6.4 -2.6 7.15 -1.7 3.25 -3.85 -0.95 L-7.0 -6.5 -6.25 -6.95 Q-1.6 -5.55 2.25 -6.8" fill="url(#gradient1)" fill-rule="evenodd" stroke="none"/>
      <path d="M2.25 -6.8 L4.1 -7.7 Q1.65 -3.65 2.0 2.45 L7.8 3.9 7.4 7.8 Q2.4 6.4 -2.6 7.15 -1.7 3.25 -3.85 -0.95 L-7.0 -6.5 -7.75 -7.8 -6.5 -7.05" fill="none" stroke="#000000" stroke-linecap="round" stroke-linejoin="round" stroke-width="0.05"/>
    </g>
    <radialGradient cx="0" cy="0" gradientTransform="matrix(0.0194, 0.0, 0.0, 0.0194, -0.75, -5.85)" gradientUnits="userSpaceOnUse" id="gradient0" r="819.2" spreadMethod="pad">
      <stop offset="0.0" stop-color="#f9d8a8"/>
      <stop offset="1.0" stop-color="#b9a693"/>
    </radialGradient>
    <radialGradient color-interpolation="linearRGB" cx="0" cy="0" gradientTransform="matrix(0.0172, 0.0, 0.0, 0.0172, 1.5, 4.7)" gradientUnits="userSpaceOnUse" id="gradient1" r="819.2" spreadMethod="pad">
      <stop offset="0.0" stop-color="#ffffff"/>
      <stop offset="0.5098039215686274" stop-color="#a6e2fb"/>
      <stop offset="1.0" stop-color="#7475a5"/>
    </radialGradient>
    <g id="sprite0" transform="matrix(1.0, 0.0, 0.0, 1.0, 4.95, 1.9)">
      <use ffdec:characterId="2552" height="3.85" transform="matrix(1.0, 0.0, 0.0, 1.0, -4.95, -1.9)" width="9.9" xlink:href="#shape1"/>
    </g>
    <g id="shape1" transform="matrix(1.0, 0.0, 0.0, 1.0, 4.95, 1.9)">
      <path d="M4.15 -1.9 Q5.0 -1.65 4.95 -0.85 4.85 -0.2 4.9 0.45 L4.9 1.75 Q1.75 2.2 -1.75 1.65 -3.6 1.35 -4.95 0.7 -2.7 -0.4 0.15 0.15 L2.5 0.7 3.6 0.85 3.55 0.1 3.45 -0.85 Q3.4 -1.35 3.8 -1.65 L4.15 -1.9" fill="#ffffff" fill-rule="evenodd" stroke="none"/>
    </g>
  </defs>
</svg>
