<?xml version="1.0" encoding="UTF-8" standalone="no"?>
<svg xmlns:ffdec="https://www.free-decompiler.com/flash" xmlns:xlink="http://www.w3.org/1999/xlink" ffdec:objectType="frame" height="46.0px" width="71.4px" xmlns="http://www.w3.org/2000/svg">
  <g transform="matrix(2.0, 0.0, 0.0, 2.0, 37.8, 19.9)">
    <use ffdec:characterId="3305" height="23.0" id="PIC" transform="matrix(1.0, 0.0, 0.0, 1.0, -18.9, -9.95)" width="35.7" xlink:href="#sprite0"/>
    <use ffdec:characterId="3293" height="13.3" id="COVER" transform="matrix(1.0, 0.0, 0.0, 1.0, -13.75, -6.4)" width="27.9" xlink:href="#sprite1"/>
    <use ffdec:characterId="3289" height="30.0" transform="matrix(0.9321, 0.0, 0.0, 0.4443, -13.7812, -6.415)" width="30.0" xlink:href="#button0"/>
  </g>
  <defs>
    <g id="sprite0" transform="matrix(1.0, 0.0, 0.0, 1.0, 19.1, 10.2)">
      <use ffdec:characterId="3295" height="13.3" transform="matrix(1.0, 0.0, 0.0, 1.0, -13.95, -6.65)" width="27.9" xlink:href="#shape0"/>
      <clipPath id="clipPath0" transform="matrix(1.0, 0.0, 0.0, 1.0, 0.0, 0.0)">
        <path d="M13.95 6.65 L-13.95 6.65 -13.95 -6.65 13.95 -6.65 13.95 6.65" fill="#357425" fill-rule="evenodd" stroke="none"/>
      </clipPath>
      <g clip-path="url(#clipPath0)">
        <use ffdec:characterId="3296" height="19.4" transform="matrix(1.0, 0.0, 0.0, 1.0, -11.95, -8.4)" width="23.3" xlink:href="#shape1"/>
      </g>
      <use ffdec:characterId="3294" height="13.3" transform="matrix(1.0, 0.0, 0.0, 1.0, -13.95, -6.65)" width="27.9" xlink:href="#shape2"/>
    </g>
    <g id="shape0" transform="matrix(1.0, 0.0, 0.0, 1.0, 13.95, 6.65)">
      <path d="M13.95 6.65 L-13.95 6.65 -13.95 -6.65 13.95 -6.65 13.95 6.65" fill="#357425" fill-rule="evenodd" stroke="none"/>
    </g>
    <g id="shape1" transform="matrix(1.0, 0.0, 0.0, 1.0, 11.95, 8.4)">
      <path d="M-11.95 -8.4 L-5.6 -8.4 -6.65 1.5 -9.95 1.5 -11.95 -8.4 M1.75 0.05 L3.5 11.0 -2.55 10.7 -1.55 0.05 1.75 0.05 M4.95 -8.4 L11.35 -8.4 10.4 1.7 6.7 1.9 4.95 -8.4" fill="#ffffff" fill-rule="evenodd" stroke="none"/>
    </g>
    <g id="shape2" transform="matrix(1.0, 0.0, 0.0, 1.0, 13.95, 6.65)">
      <path d="M13.95 6.65 L-13.95 6.65 -13.95 -6.65 13.95 -6.65 13.95 6.65 Z" fill="none" stroke="#000000" stroke-linecap="round" stroke-linejoin="round" stroke-width="0.05"/>
    </g>
    <g id="sprite1" transform="matrix(1.0, 0.0, 0.0, 1.0, 13.95, 6.65)">
      <use ffdec:characterId="3290" height="13.3" transform="matrix(1.0, 0.0, 0.0, 1.0, -13.95, -6.65)" width="27.9" xlink:href="#shape3"/>
    </g>
    <g id="shape3" transform="matrix(1.0, 0.0, 0.0, 1.0, 13.95, 6.65)">
      <path d="M13.95 6.65 L-13.95 6.65 -13.95 -6.65 13.95 -6.65 13.95 6.65" fill="url(#gradient0)" fill-rule="evenodd" stroke="none"/>
      <path d="M11.95 -5.7 L11.95 2.75 -12.2 2.75 -12.2 -5.7 11.95 -5.7" fill="url(#gradient1)" fill-rule="evenodd" stroke="none"/>
    </g>
    <radialGradient cx="0" cy="0" gradientTransform="matrix(0.0189, 0.0, 0.0, 0.0189, 0.0, 0.0)" gradientUnits="userSpaceOnUse" id="gradient0" r="819.2" spreadMethod="pad">
      <stop offset="0.17647058823529413" stop-color="#000000" stop-opacity="0.67058825"/>
      <stop offset="1.0" stop-color="#000000"/>
    </radialGradient>
    <linearGradient gradientTransform="matrix(0.0, 0.0052, -0.0147, 0.0, -0.1, -1.5)" gradientUnits="userSpaceOnUse" id="gradient1" spreadMethod="pad" x1="-819.2" x2="819.2">
      <stop offset="0.06274509803921569" stop-color="#ffffff"/>
      <stop offset="0.23921568627450981" stop-color="#ffffff" stop-opacity="0.38039216"/>
      <stop offset="1.0" stop-color="#ffffff" stop-opacity="0.0"/>
    </linearGradient>
  </defs>
</svg>
