<?xml version="1.0" encoding="UTF-8" standalone="no"?>
<svg xmlns:ffdec="https://www.free-decompiler.com/flash" xmlns:xlink="http://www.w3.org/1999/xlink" ffdec:objectType="frame" height="104.5px" width="114.7px" xmlns="http://www.w3.org/2000/svg">
  <g transform="matrix(2.0, 0.0, 0.0, 2.0, 45.4, 50.5)">
    <use ffdec:characterId="333" height="372.95" transform="matrix(0.0485, 0.0, 0.0, 0.1059, -14.7544, -19.741)" width="608.0" xlink:href="#shape0"/>
    <use ffdec:characterId="2978" height="52.25" id="avIn" transform="matrix(1.0, 0.0, 0.0, 1.0, -22.7, -25.25)" width="57.35" xlink:href="#sprite0"/>
    <use ffdec:characterId="2896" height="36.0" id="blacker" transform="matrix(1.0, 0.0, 0.0, 1.0, -13.5, -18.0)" width="26.5" xlink:href="#sprite3"/>
    <use ffdec:characterId="2895" height="36.0" transform="matrix(1.0, 0.0, 0.0, 1.0, -13.0, -18.0)" width="26.0" xlink:href="#button0"/>
    <filter id="filter0">
      <feFlood flood-color="#99ff00" flood-opacity="1.0" result="filterResult0"/>
      <feComposite in="filterResult0" in2="SourceGraphic" operator="out" result="filterResult1"/>
      <feConvolveMatrix divisor="9.0" in="filterResult1" kernelMatrix="1 1 1 1 1 1 1 1 1" order="3 3" result="filterResult2"/>
      <feComposite in="filterResult2" in2="SourceGraphic" operator="in" result="filterResult3"/>
      <feComposite in="filterResult3" in2="SourceGraphic" operator="over" result="filterResult4"/>
      <feColorMatrix in="filterResult4" result="filterResult5" type="matrix" values="0 0 0 0 0.6,0 0 0 0 1.0,0 0 0 0 0.0,0 0 0 1 0"/>
      <feConvolveMatrix divisor="64.0" in="filterResult5" kernelMatrix="1 1 1 1 1 1 1 1 1 1 1 1 1 1 1 1 1 1 1 1 1 1 1 1 1 1 1 1 1 1 1 1 1 1 1 1 1 1 1 1 1 1 1 1 1 1 1 1 1 1 1 1 1 1 1 1 1 1 1 1 1 1 1 1" order="8 8" result="filterResult6"/>
      <feConvolveMatrix divisor="64.0" in="filterResult6" kernelMatrix="1 1 1 1 1 1 1 1 1 1 1 1 1 1 1 1 1 1 1 1 1 1 1 1 1 1 1 1 1 1 1 1 1 1 1 1 1 1 1 1 1 1 1 1 1 1 1 1 1 1 1 1 1 1 1 1 1 1 1 1 1 1 1 1" order="8 8" result="filterResult7"/>
      <feConvolveMatrix divisor="64.0" in="filterResult7" kernelMatrix="1 1 1 1 1 1 1 1 1 1 1 1 1 1 1 1 1 1 1 1 1 1 1 1 1 1 1 1 1 1 1 1 1 1 1 1 1 1 1 1 1 1 1 1 1 1 1 1 1 1 1 1 1 1 1 1 1 1 1 1 1 1 1 1" order="8 8" result="filterResult8"/>
      <feComposite in="filterResult4" in2="filterResult8" operator="over" result="filterResult9"/>
    </filter>
    <use ffdec:characterId="2893" filter="url(#filter0)" height="39.5" id="borderFrame" transform="matrix(1.0, 0.0, 0.0, 1.0, -14.75, -19.75)" width="29.5" xlink:href="#sprite4"/>
  </g>
  <defs>
    <g id="shape0" transform="matrix(1.0, 0.0, 0.0, 1.0, -26.7, -26.05)">
      <path d="M634.7 26.05 L634.7 399.0 26.7 399.0 26.7 26.05 634.7 26.05" fill="#000000" fill-rule="evenodd" stroke="none"/>
    </g>
    <g id="sprite0" transform="matrix(1.0, 0.0, 0.0, 1.0, 22.7, 25.25)">
      <clipPath id="clipPath0" transform="matrix(1.0, 0.0, 0.0, 1.0, 0.0, 0.0)">
        <path d="M13.15 18.4 L-13.15 18.4 -13.15 -18.6 13.15 -18.6 13.15 18.4" fill="#333333" fill-rule="evenodd" stroke="none"/>
      </clipPath>
      <g clip-path="url(#clipPath0)">
        <use ffdec:characterId="2904" height="37.2" transform="matrix(1.0, 0.0, 0.0, 1.0, -13.55, -18.9)" width="27.0" xlink:href="#shape2"/>
        <use ffdec:characterId="2903" height="36.05" style="mix-blend-mode: overlay" transform="matrix(1.0, 0.0, 0.0, 1.0, -13.65, -18.2)" width="27.0" xlink:href="#sprite1"/>
        <use ffdec:characterId="2901" height="6.7" style="mix-blend-mode: screen" transform="matrix(2.3954, -0.061, 0.0, 2.083, 0.677, -8.9116)" width="4.65" xlink:href="#sprite2"/>
        <use ffdec:characterId="2901" height="6.7" style="mix-blend-mode: screen" transform="matrix(2.3954, -0.061, 0.0, 2.083, -11.723, -8.5116)" width="4.65" xlink:href="#sprite2"/>
        <use ffdec:characterId="2899" height="1.7" transform="matrix(1.0, 0.0, 0.0, 1.0, -8.05, -2.6)" width="15.0" xlink:href="#shape5"/>
      </g>
      <use ffdec:characterId="2897" height="37.5" transform="matrix(1.0, 0.0, 0.0, 1.0, -13.9, -19.1)" width="27.65" xlink:href="#shape6"/>
    </g>
    <g id="shape2" transform="matrix(1.0, 0.0, 0.0, 1.0, 13.55, 18.9)">
      <path d="M-1.2 17.55 L-6.6 18.3 -7.15 17.95 -10.3 18.0 -12.9 17.95 Q-13.7 4.85 -13.05 -8.6 -12.85 -12.85 -12.9 -17.2 L-13.55 -18.15 Q-2.55 -18.3 8.85 -18.8 11.1 -19.2 13.05 -18.3 L13.1 -18.05 12.85 -17.25 Q13.3 -6.55 12.95 4.1 12.75 10.85 13.45 17.55 L13.4 18.0 13.2 18.05 13.0 18.1 12.3 17.5 0.4 17.9 1.15 17.55 1.5 17.35 1.85 17.0 2.1 16.55 2.6 16.65 2.1 16.2 0.4 15.55 -1.15 16.35 -1.2 17.55 M11.65 -13.5 Q12.15 -13.55 11.5 -13.65 L11.65 -13.5 M4.75 -16.0 L4.25 -15.85 Q5.5 -14.55 7.05 -13.65 L8.5 -12.55 4.75 -16.0 M9.75 -13.45 L7.4 -15.3 9.95 -12.55 9.75 -13.45 M7.55 -16.8 L10.85 -14.35 Q10.5 -16.8 8.15 -16.9 L7.55 -16.8 M7.9 -7.35 Q6.4 -7.55 5.75 -8.8 L5.35 -9.9 4.85 -10.2 4.6 -8.5 6.45 -6.25 7.55 -6.8 7.9 -7.35 M6.55 -11.3 Q5.8 -12.4 4.65 -13.3 4.95 -12.4 5.75 -11.8 L6.2 -11.55 6.55 -11.3 M10.75 -7.3 Q10.55 -8.4 10.9 -9.05 L9.85 -10.8 Q10.7 -9.1 10.35 -6.9 L10.85 -5.8 10.75 -7.3 M3.4 -7.05 Q3.0 -8.05 2.8 -9.35 0.7 -11.8 -0.5 -14.85 L-0.75 -13.95 Q-1.0 -12.65 -2.25 -11.75 L-2.4 -9.6 -1.1 -9.3 0.6 -9.0 0.15 -8.7 -0.1 -8.65 -0.4 -8.65 -2.2 -8.6 -3.0 -8.1 -6.5 -8.9 -7.25 -5.4 -2.65 -4.75 -1.75 -6.1 Q-1.0 -5.3 -1.05 -4.4 -1.25 1.65 -7.65 2.9 L-6.8 1.9 Q-7.95 1.0 -9.55 0.65 L-10.0 0.55 -10.0 0.85 -10.05 0.95 -10.25 1.2 -10.65 1.5 -10.2 1.95 -10.95 2.75 -10.05 2.7 -9.95 2.95 -10.5 3.75 -8.8 3.25 -8.95 3.9 -9.6 4.35 -9.2 4.95 -8.45 4.5 -8.6 5.3 -7.15 4.25 -6.75 4.7 -7.55 6.1 -5.9 5.4 -6.05 6.3 -6.2 6.65 -6.45 7.15 -6.15 6.65 -5.25 5.4 -5.1 5.55 Q-5.85 7.55 -5.65 9.7 L-5.2 12.8 -4.15 14.1 -5.65 13.5 Q-7.6 12.6 -8.9 10.75 L-9.05 11.7 -6.9 14.5 -4.3 15.5 -0.65 14.15 -1.4 14.1 -2.55 13.15 1.65 12.55 1.8 11.5 -3.2 11.9 -3.65 12.25 -4.3 12.05 Q-4.5 11.1 -3.55 10.6 -1.85 9.85 -0.85 8.65 L-0.4 8.9 -0.1 9.0 0.5 9.15 0.7 8.85 0.85 8.1 -0.8 8.1 -0.8 7.1 -1.5 6.9 -2.9 6.4 Q-3.75 5.9 -3.75 4.9 L-2.7 3.15 -2.7 4.3 -1.65 4.15 -1.15 4.45 -0.7 4.7 0.25 4.6 0.55 4.2 -0.1 3.9 Q0.85 0.35 0.6 -3.25 L0.85 -3.6 0.75 -4.7 1.4 -5.55 1.85 -4.7 3.95 -6.25 3.4 -7.05 M8.4 0.1 L5.5 3.4 6.5 4.7 6.9 3.35 7.6 4.25 7.7 3.4 8.2 2.95 8.5 2.95 9.65 2.1 8.4 0.1 M1.4 8.1 L1.3 8.85 1.8 9.4 2.35 9.35 1.4 8.1 M-7.35 -16.3 Q-8.9 -14.3 -8.1 -12.15 L-6.55 -16.4 -7.35 -16.3 M-9.3 -13.05 L-9.05 -15.1 -9.8 -13.45 -9.3 -13.05 M-6.25 -15.4 L-6.1 -15.4 Q-6.0 -15.85 -6.05 -16.3 L-6.5 -15.0 -6.25 -15.4 M-9.25 -15.9 L-10.45 -15.15 -9.8 -15.0 -9.25 -15.9 M-4.25 -16.0 L-4.45 -16.55 -5.2 -16.5 Q-4.25 -15.1 -4.45 -13.25 -3.85 -14.65 -4.25 -16.0 M-11.0 -12.55 L-10.95 -10.95 -10.55 -12.05 -10.8 -12.6 -11.0 -12.55 M-10.55 -8.0 L-10.6 -7.95 -10.35 -7.65 -10.35 -7.75 -9.9 -10.45 -9.85 -11.3 -10.15 -10.0 -11.15 -9.0 -10.55 -8.0 M-11.9 -7.65 L-11.65 -4.3 -11.55 -4.35 Q-11.15 -5.75 -11.6 -6.85 L-11.9 -7.65 M-9.45 -11.9 L-9.15 -10.9 -9.2 -10.25 -8.85 -10.8 -9.35 -12.15 -9.75 -12.35 -9.45 -11.9 M-8.7 -10.45 L-8.65 -8.95 -8.95 -8.3 -8.4 -8.2 Q-7.4 -9.7 -8.2 -11.4 L-8.35 -10.75 -8.7 -10.45" fill="#000000" fill-rule="evenodd" stroke="none"/>
      <path d="M0.4 17.9 L-0.2 17.9 -1.2 17.55 -1.15 16.35 0.4 15.55 2.1 16.2 2.6 16.65 2.1 16.55 1.85 17.0 1.5 17.35 1.15 17.55 0.4 17.9 M11.65 -13.5 L11.5 -13.65 Q12.15 -13.55 11.65 -13.5 M4.75 -16.0 L8.5 -12.55 7.05 -13.65 Q5.5 -14.55 4.25 -15.85 L4.75 -16.0 M6.55 -11.3 L6.2 -11.55 5.75 -11.8 Q4.95 -12.4 4.65 -13.3 5.8 -12.4 6.55 -11.3 M7.9 -7.35 L7.55 -6.8 6.45 -6.25 4.6 -8.5 4.85 -10.2 5.35 -9.9 5.75 -8.8 Q6.4 -7.55 7.9 -7.35 M7.55 -16.8 L8.15 -16.9 Q10.5 -16.8 10.85 -14.35 L7.55 -16.8 M9.75 -13.45 L9.95 -12.55 7.4 -15.3 9.75 -13.45 M3.4 -7.05 L3.95 -6.25 1.85 -4.7 1.4 -5.55 0.75 -4.7 0.85 -3.6 0.6 -3.25 Q0.85 0.35 -0.1 3.9 L0.55 4.2 0.25 4.6 -0.7 4.7 -1.15 4.45 -1.65 4.15 -2.7 4.3 -2.7 3.15 -3.75 4.9 Q-3.75 5.9 -2.9 6.4 L-1.5 6.9 -0.8 7.1 -0.8 8.1 0.85 8.1 0.7 8.85 0.5 9.15 -0.1 9.0 -0.4 8.9 -0.85 8.65 Q-1.85 9.85 -3.55 10.6 -4.5 11.1 -4.3 12.05 L-3.65 12.25 -3.2 11.9 1.8 11.5 1.65 12.55 -2.55 13.15 -1.4 14.1 -0.65 14.15 -4.3 15.5 -6.9 14.5 -9.05 11.7 -8.9 10.75 Q-7.6 12.6 -5.65 13.5 L-4.15 14.1 -5.2 12.8 -5.65 9.7 Q-5.85 7.55 -5.1 5.55 L-5.25 5.4 -6.15 6.65 -6.45 7.15 -6.2 6.65 -6.05 6.3 -5.9 5.4 -7.55 6.1 -6.75 4.7 -7.15 4.25 -8.6 5.3 -8.45 4.5 -9.2 4.95 -9.6 4.35 -8.95 3.9 -8.8 3.25 -10.5 3.75 -9.95 2.95 -10.05 2.7 -10.95 2.75 -10.2 1.95 -10.65 1.5 -10.25 1.2 -10.05 0.95 -10.0 0.85 -10.0 0.55 -9.55 0.65 Q-7.95 1.0 -6.8 1.9 L-7.65 2.9 Q-1.25 1.65 -1.05 -4.4 -1.0 -5.3 -1.75 -6.1 L-2.65 -4.75 -7.25 -5.4 -6.5 -8.9 -3.0 -8.1 -2.2 -8.6 -0.4 -8.65 -0.1 -8.65 0.15 -8.7 0.6 -9.0 -1.1 -9.3 -2.4 -9.6 -2.25 -11.75 Q-1.0 -12.65 -0.75 -13.95 L-0.5 -14.85 Q0.7 -11.8 2.8 -9.35 3.0 -8.05 3.4 -7.05 M10.75 -7.3 L10.85 -5.8 10.35 -6.9 Q10.7 -9.1 9.85 -10.8 L10.9 -9.05 Q10.55 -8.4 10.75 -7.3 M8.4 0.1 L9.65 2.1 8.5 2.95 8.2 2.95 7.7 3.4 7.6 4.25 6.9 3.35 6.5 4.7 5.5 3.4 8.4 0.1 M1.4 8.1 L2.35 9.35 1.8 9.4 1.3 8.85 1.4 8.1 M-8.7 -10.45 L-8.35 -10.75 -8.2 -11.4 Q-7.4 -9.7 -8.4 -8.2 L-8.95 -8.3 -8.65 -8.95 -8.7 -10.45 M-9.45 -11.9 L-9.75 -12.35 -9.35 -12.15 -8.85 -10.8 -9.2 -10.25 -9.15 -10.9 -9.45 -11.9 M-11.9 -7.65 L-11.6 -6.85 Q-11.15 -5.75 -11.55 -4.35 L-11.65 -4.3 -11.9 -7.65 M-10.55 -8.0 L-11.15 -9.0 -10.15 -10.0 -9.85 -11.3 -9.9 -10.45 -10.35 -7.75 -10.35 -7.65 -10.6 -7.95 -10.55 -8.0 M-11.0 -12.55 L-10.8 -12.6 -10.55 -12.05 -10.95 -10.95 -11.0 -12.55 M-4.25 -16.0 Q-3.85 -14.65 -4.45 -13.25 -4.25 -15.1 -5.2 -16.5 L-4.45 -16.55 -4.25 -16.0 M-9.25 -15.9 L-9.8 -15.0 -10.45 -15.15 -9.25 -15.9 M-6.25 -15.4 L-6.5 -15.0 -6.05 -16.3 Q-6.0 -15.85 -6.1 -15.4 L-6.25 -15.4 M-9.3 -13.05 L-9.8 -13.45 -9.05 -15.1 -9.3 -13.05 M-7.35 -16.3 L-6.55 -16.4 -8.1 -12.15 Q-8.9 -14.3 -7.35 -16.3" fill="#706372" fill-rule="evenodd" stroke="none"/>
    </g>
    <g id="sprite1" transform="matrix(1.0, 0.0, 0.0, 1.0, -2.4, -1.55)">
      <use ffdec:characterId="2902" height="36.05" transform="matrix(1.0, 0.0, 0.0, 1.0, 2.4, 1.55)" width="27.0" xlink:href="#shape3"/>
    </g>
    <g id="shape3" transform="matrix(1.0, 0.0, 0.0, 1.0, -2.4, -1.55)">
      <path d="M2.4 37.6 L2.4 1.55 29.4 1.55 29.4 37.6 2.4 37.6" fill="url(#gradient0)" fill-rule="evenodd" stroke="none"/>
    </g>
    <radialGradient cx="0" cy="0" gradientTransform="matrix(0.0284, 0.0, 0.0, 0.0284, 16.1, 18.8)" gradientUnits="userSpaceOnUse" id="gradient0" r="819.2" spreadMethod="pad">
      <stop offset="0.0" stop-color="#e9916b"/>
      <stop offset="0.8784313725490196" stop-color="#0f1424"/>
    </radialGradient>
    <g id="sprite2" transform="matrix(1.0, 0.0, 0.0, 1.0, -2.85, -0.75)">
      <use ffdec:characterId="2900" height="6.7" transform="matrix(1.0, 0.0, 0.0, 1.0, 2.85, 0.75)" width="4.65" xlink:href="#shape4"/>
    </g>
    <g id="shape4" transform="matrix(1.0, 0.0, 0.0, 1.0, -2.85, -0.75)">
      <path d="M6.8 6.45 Q6.15 7.45 5.15 7.45 4.2 7.45 3.5 6.45 2.85 5.5 2.85 4.1 2.85 2.7 3.5 1.7 4.2 0.75 5.15 0.75 6.15 0.75 6.8 1.7 7.5 2.7 7.5 4.1 7.5 5.5 6.8 6.45" fill="url(#gradient1)" fill-rule="evenodd" stroke="none"/>
    </g>
    <radialGradient cx="0" cy="0" gradientTransform="matrix(0.0046, 0.0, 0.0, 0.0046, 4.85, 4.15)" gradientUnits="userSpaceOnUse" id="gradient1" r="819.2" spreadMethod="pad">
      <stop offset="0.0" stop-color="#dd8400"/>
      <stop offset="0.615686274509804" stop-color="#da6d03" stop-opacity="0.0"/>
    </radialGradient>
    <g id="shape5" transform="matrix(1.0, 0.0, 0.0, 1.0, 8.05, 2.6)">
      <path d="M4.0 -1.15 Q3.9 -1.05 3.9 -1.45 3.9 -2.0 4.65 -2.35 L6.75 -2.3 6.95 -2.0 6.75 -1.15 6.35 -1.1 4.0 -1.15 M-6.25 -2.6 Q-5.35 -2.6 -4.45 -1.55 -4.9 -1.15 -6.45 -0.9 L-7.65 -1.15 -8.05 -1.45 Q-7.25 -2.6 -6.25 -2.6" fill="#ffffff" fill-rule="evenodd" stroke="none"/>
    </g>
    <g id="shape6" transform="matrix(1.0, 0.0, 0.0, 1.0, 13.9, 19.1)">
      <path d="M13.25 17.9 L-13.4 17.9 -13.4 -18.6 13.25 -18.6 13.25 17.9 Z" fill="none" stroke="#000000" stroke-linecap="round" stroke-linejoin="round" stroke-width="1.0"/>
    </g>
    <g id="sprite3" transform="matrix(1.0, 0.0, 0.0, 1.0, 13.5, 18.0)">
      <use ffdec:characterId="2894" height="36.0" transform="matrix(1.0211, 0.0, 0.0, 1.0, -13.5249, -18.0)" width="26.0" xlink:href="#shape7"/>
    </g>
    <g id="shape7" transform="matrix(1.0, 0.0, 0.0, 1.0, 13.0, 18.0)">
      <path d="M13.0 -18.0 L13.0 18.0 -13.0 18.0 -13.0 -18.0 13.0 -18.0" fill="#000000" fill-opacity="0.8509804" fill-rule="evenodd" stroke="none"/>
    </g>
    <g id="sprite4" transform="matrix(1.0, 0.0, 0.0, 1.0, 14.75, 19.75)">
      <use ffdec:characterId="2892" height="39.5" transform="matrix(1.0, 0.0, 0.0, 1.0, -14.75, -19.75)" width="29.5" xlink:href="#shape8"/>
    </g>
    <g id="shape8" transform="matrix(1.0, 0.0, 0.0, 1.0, 14.75, 19.75)">
      <path d="M13.0 18.0 L13.0 -18.0 -13.0 -18.0 -13.0 18.0 13.0 18.0 M14.75 19.75 L-14.75 19.75 -14.75 -19.75 14.75 -19.75 14.75 19.75" fill="#ffffff" fill-rule="evenodd" stroke="none"/>
    </g>
  </defs>
</svg>
