<?xml version="1.0" encoding="UTF-8" standalone="no"?>
<svg xmlns:ffdec="https://www.free-decompiler.com/flash" xmlns:xlink="http://www.w3.org/1999/xlink" ffdec:objectType="frame" height="11.4px" width="31.2px" xmlns="http://www.w3.org/2000/svg">
  <g transform="matrix(2.0, 0.0, 0.0, 2.0, 11.7, 6.1)">
    <use ffdec:characterId="1405" height="5.7" transform="matrix(1.0, 0.0, 0.0, 1.0, -5.85, -3.05)" width="15.6" xlink:href="#shape0"/>
  </g>
  <defs>
    <g id="shape0" transform="matrix(1.0, 0.0, 0.0, 1.0, 5.85, 3.05)">
      <path d="M-1.0 -3.05 L3.7 -2.8 5.9 -1.8 9.75 2.05 4.05 2.5 3.3 2.65 -5.7 1.1 -5.85 0.5 -5.55 -2.55 -1.0 -3.05" fill="url(#gradient0)" fill-rule="evenodd" stroke="none"/>
      <path d="M-1.0 -3.05 L3.7 -2.8 5.9 -1.8 9.75 2.05 4.05 2.5 3.3 2.65 -5.7 1.1 -5.85 0.5 -5.55 -2.55" fill="none" stroke="#000000" stroke-linecap="round" stroke-linejoin="round" stroke-width="0.05"/>
    </g>
    <radialGradient cx="0" cy="0" gradientTransform="matrix(0.0123, 0.0, 0.0, 0.0123, 4.05, -1.5)" gradientUnits="userSpaceOnUse" id="gradient0" r="819.2" spreadMethod="pad">
      <stop offset="0.0" stop-color="#491d1d"/>
      <stop offset="0.5333333333333333" stop-color="#320a0a"/>
      <stop offset="0.9019607843137255" stop-color="#723838"/>
    </radialGradient>
  </defs>
</svg>
