<?xml version="1.0" encoding="UTF-8" standalone="no"?>
<svg xmlns:ffdec="https://www.free-decompiler.com/flash" xmlns:xlink="http://www.w3.org/1999/xlink" ffdec:objectType="frame" height="2840.0px" width="4483.3px" xmlns="http://www.w3.org/2000/svg">
  <g transform="matrix(2.0, 0.0, 0.0, 2.0, 1889.8, 1197.4)">
    <use ffdec:characterId="2870" height="300.0" transform="matrix(1.259, 0.0, 0.0, 1.6505, -261.9, -244.25)" width="533.0" xlink:href="#shape0"/>
    <filter id="filter0"/>
    <use ffdec:characterId="3729" filter="url(#filter0)" height="334.0" transform="matrix(1.0, 0.0, 0.0, 1.0, -256.95, -172.45)" width="652.8" xlink:href="#sprite0"/>
    <use ffdec:characterId="3727" height="75.95" transform="matrix(1.0, 0.0, 0.0, 1.0, -126.95, -75.95)" width="76.1" xlink:href="#sprite1"/>
    <use ffdec:characterId="3689" height="379.05" style="mix-blend-mode: overlay" transform="matrix(1.0, 0.0, 0.0, 1.0, -246.75, -216.4)" width="657.35" xlink:href="#sprite2"/>
    <use ffdec:characterId="3696" height="149.6" transform="matrix(0.9955, -0.0881, 0.0881, 0.9955, 103.5, -104.7)" width="80.1" xlink:href="#sprite3"/>
    <use ffdec:characterId="3694" height="284.2" transform="matrix(1.0, 0.0, 0.0, 1.0, 156.55, -134.45)" width="161.65" xlink:href="#sprite4"/>
    <use ffdec:characterId="3730" height="394.3" transform="matrix(1.0, 0.0, 0.0, 1.0, -227.4, -208.05)" width="692.35" xlink:href="#morphshape0"/>
    <use ffdec:characterId="3645" height="300.0" transform="matrix(1.0546, 0.0, 0.0, 1.0545, -184.8734, -161.9302)" width="533.0" xlink:href="#sprite5"/>
  </g>
  <defs>
    <g id="shape0" transform="matrix(1.0, 0.0, 0.0, 1.0, 0.0, 0.0)">
      <path d="M533.0 300.0 L0.0 300.0 0.0 0.0 533.0 0.0 533.0 300.0" fill="#ffffff" fill-rule="evenodd" stroke="none"/>
    </g>
    <g id="sprite0" transform="matrix(1.0, 0.0, 0.0, 1.0, 0.0, 0.0)">
      <use ffdec:characterId="3728" height="334.0" transform="matrix(1.0, 0.0, 0.0, 1.0, 0.0, 0.0)" width="652.8" xlink:href="#shape1"/>
    </g>
    <g id="shape1" transform="matrix(1.0, 0.0, 0.0, 1.0, 0.0, 0.0)">
      <path d="M338.05 0.3 Q332.25 8.8 327.05 17.05 319.05 29.8 312.45 42.0 307.95 50.25 304.15 58.3 300.45 66.05 297.4 73.55 L297.1 74.25 297.1 74.35 Q292.75 85.0 289.7 95.15 284.0 114.05 282.8 131.15 281.45 149.1 285.05 165.1 286.25 170.65 288.1 176.0 291.5 185.8 296.9 194.8 301.95 203.15 308.75 210.85 L308.95 211.05 Q316.05 219.0 325.1 226.25 331.8 231.55 339.55 236.5 L339.8 236.65 Q353.05 245.0 369.45 252.15 L369.75 252.3 Q382.35 257.75 396.75 262.45 L410.55 266.7 Q428.2 271.75 448.25 275.8 L466.75 279.25 Q543.7 292.4 652.8 292.4 L652.8 334.0 0.0 334.0 0.75 333.25 2.6 0.0 338.05 0.0 338.05 0.3" fill="#000000" fill-rule="evenodd" stroke="none"/>
    </g>
    <g id="sprite1" transform="matrix(1.0, 0.0, 0.0, 1.0, 0.0, 0.0)">
      <use ffdec:characterId="3697" height="72.6" transform="matrix(1.0, 0.0, 0.0, 1.0, 0.0, 0.0)" width="76.1" xlink:href="#shape2"/>
    </g>
    <g id="shape2" transform="matrix(1.0, 0.0, 0.0, 1.0, 0.0, 0.0)">
      <path d="M61.5 20.1 L61.45 20.3 Q61.15 20.85 61.1 20.1 L61.1 19.9 61.45 20.0 61.5 20.1 M50.9 25.7 Q51.65 25.8 50.9 25.8 L50.9 25.7 M51.65 35.55 L51.45 35.55 51.35 35.45 50.9 34.9 51.45 35.15 51.45 35.35 51.85 35.4 51.85 35.55 Q52.8 35.05 53.5 35.3 L53.7 35.35 54.1 35.35 54.3 35.35 54.3 35.15 54.3 34.9 54.2 34.9 54.1 34.3 54.3 34.3 54.3 34.1 54.65 34.2 54.65 34.3 54.65 34.5 Q55.0 34.5 54.8 34.85 L54.65 34.9 54.65 35.05 54.5 35.15 54.6 35.45 54.65 35.55 55.25 35.6 55.25 35.75 55.45 35.75 55.65 35.75 56.1 35.75 56.3 35.75 56.65 35.8 56.7 35.95 56.9 35.95 57.1 35.95 57.1 35.75 57.95 35.55 58.1 35.55 58.55 35.45 58.65 35.55 58.85 35.55 59.05 35.55 59.05 35.35 59.25 35.35 Q59.95 35.35 59.45 35.5 L59.25 35.55 59.25 35.65 59.05 35.75 58.85 35.75 58.65 35.75 58.65 35.85 58.3 35.95 58.15 35.95 57.3 36.1 57.3 36.3 57.3 36.5 57.5 36.5 57.7 36.5 57.7 36.3 Q58.1 36.2 58.1 36.5 L58.1 36.7 Q58.35 37.05 59.05 37.0 L59.05 37.1 59.25 37.35 59.25 37.5 Q59.45 38.15 60.05 38.4 L60.1 38.55 60.2 38.55 60.3 38.75 60.3 38.85 60.5 38.95 60.7 38.95 60.9 38.95 60.9 38.75 61.3 38.75 61.5 38.75 61.5 38.55 61.5 38.3 61.5 38.1 61.5 37.9 61.85 38.0 61.9 38.1 61.9 38.3 61.9 38.55 61.9 38.75 Q62.0 39.15 61.7 39.15 L61.65 39.25 61.5 39.35 Q61.4 40.0 61.9 40.1 L62.05 40.1 62.05 39.9 62.05 39.55 62.25 39.55 62.65 39.6 62.65 39.75 62.85 39.95 62.85 40.1 62.95 40.3 63.1 40.3 63.3 40.3 63.5 40.3 63.5 40.1 63.85 40.2 63.9 40.3 Q64.4 40.35 64.5 39.9 L64.5 39.75 64.5 39.55 64.5 38.95 64.7 38.95 64.7 38.75 Q65.35 38.35 65.2 38.9 L65.1 38.95 65.1 39.15 65.1 39.35 65.1 39.55 65.1 39.75 65.1 39.9 65.1 40.1 Q65.15 40.45 65.5 40.5 L65.7 40.5 66.25 40.5 66.5 40.5 66.7 40.5 66.7 40.4 Q66.25 40.45 66.25 40.1 L66.15 40.05 65.85 39.75 66.5 39.55 66.7 39.55 66.7 39.35 66.7 39.15 66.55 39.05 66.5 38.75 66.7 38.75 66.7 38.55 Q67.05 38.5 66.95 38.95 L66.9 39.15 66.9 39.55 66.9 39.75 66.9 39.9 66.9 40.1 66.9 40.3 66.9 40.5 67.1 40.5 67.5 40.5 67.7 40.5 68.05 40.6 68.1 40.7 68.3 40.7 68.3 40.5 68.65 40.6 68.7 40.7 68.75 40.9 68.9 40.9 69.1 40.9 69.3 40.9 69.45 40.9 69.45 40.7 69.45 40.5 69.45 40.3 69.65 40.3 69.65 40.1 Q70.15 39.7 70.0 40.3 L69.85 40.3 69.85 40.5 69.85 40.7 69.85 40.9 70.15 41.3 70.3 41.3 70.45 41.55 70.5 41.7 Q71.4 41.95 71.95 42.65 L72.1 42.75 Q72.4 42.7 72.2 43.1 L72.1 43.15 72.1 43.35 72.3 43.35 72.5 43.35 72.9 43.35 73.1 43.35 Q73.75 43.35 73.25 43.5 L73.1 43.5 72.9 43.55 72.5 43.7 72.3 43.7 72.4 44.3 72.5 44.3 72.9 44.3 73.1 44.3 73.1 44.1 73.25 44.1 Q73.95 44.1 73.45 44.3 L73.25 44.3 73.25 44.5 73.1 44.5 72.9 44.5 Q72.8 45.55 73.5 45.7 L73.7 45.75 Q74.05 45.7 73.85 46.05 L73.7 46.15 73.5 46.15 73.1 46.15 Q73.1 46.65 73.45 46.85 L73.5 46.95 73.65 47.15 73.7 47.3 73.9 47.3 74.1 47.3 Q75.9 46.95 74.25 47.5 L74.1 47.5 73.9 47.55 73.5 47.7 73.5 47.9 73.65 48.0 73.7 48.1 Q74.05 48.1 73.85 48.5 L73.7 48.5 73.7 48.7 73.75 48.9 73.9 48.9 Q74.6 48.95 74.05 49.45 L73.9 49.55 73.9 50.15 73.9 50.35 73.85 50.45 73.5 50.55 Q73.55 51.55 73.85 52.35 L73.9 52.55 Q74.25 52.5 74.05 52.85 L73.9 52.95 73.85 53.1 73.5 53.55 73.5 53.75 73.5 53.95 Q73.6 54.35 73.25 54.35 L73.25 54.45 71.25 56.25 71.1 56.3 70.0 56.45 Q68.35 56.45 67.8 56.05 L67.5 55.55 67.5 55.5 67.3 55.25 67.3 55.1 67.3 54.9 67.15 54.9 67.1 54.5 67.05 54.35 Q66.9 54.15 66.9 53.75 L66.75 53.7 66.7 53.35 66.7 53.15 66.7 52.95 66.7 52.75 66.7 52.55 66.9 52.55 66.9 52.3 66.9 52.1 66.9 51.9 66.9 51.7 67.1 51.7 67.1 51.5 Q68.1 50.65 68.2 48.9 L68.1 48.9 67.9 48.9 67.7 48.9 67.5 48.9 67.45 49.05 67.1 49.15 67.1 49.35 67.05 49.45 Q66.65 49.65 66.7 49.35 L66.9 49.35 66.9 49.15 66.7 49.15 66.5 49.15 66.45 49.25 66.05 49.35 65.85 49.35 65.7 49.35 65.65 49.45 Q65.3 49.65 65.3 49.35 L65.3 49.15 65.85 49.15 66.05 49.15 66.05 48.9 66.25 48.9 66.5 48.9 66.7 48.9 66.65 48.75 65.1 47.1 64.9 47.1 64.7 47.1 64.5 47.1 64.3 47.1 64.3 47.3 64.3 47.7 64.3 47.9 64.85 48.0 64.9 48.1 65.05 48.35 65.1 48.5 Q65.4 48.5 65.2 48.9 L65.1 48.9 64.9 48.9 64.85 49.05 Q64.45 49.25 64.5 48.9 L64.3 48.9 Q64.05 48.7 64.1 48.1 L64.1 47.9 64.05 47.8 63.7 47.7 63.55 47.8 Q62.6 48.35 61.9 49.15 L61.9 49.35 60.85 50.0 Q59.6 50.7 58.25 50.7 56.9 50.7 56.9 49.8 L57.15 49.0 Q57.15 48.6 56.9 48.55 L56.9 48.5 56.9 48.3 56.9 47.7 56.75 47.7 56.7 47.3 56.65 47.15 55.45 44.7 55.35 44.7 55.25 44.1 55.05 44.1 55.05 44.2 Q54.75 44.25 54.85 43.7 L55.05 43.7 55.05 43.5 55.05 43.35 54.95 43.3 54.85 42.95 55.05 42.7 55.05 42.55 54.85 42.55 54.65 42.55 54.65 42.65 Q54.25 42.85 54.3 42.55 L54.1 42.5 53.7 42.35 53.65 42.5 53.1 43.35 53.1 44.1 53.1 44.3 53.1 45.1 53.1 45.3 53.1 45.55 53.2 45.55 53.3 45.75 Q53.6 45.7 53.4 46.05 L53.3 46.15 53.1 46.15 52.95 46.05 52.9 45.75 52.7 45.75 52.55 45.75 51.65 45.95 51.5 45.85 51.25 45.75 51.05 45.75 Q50.75 45.75 50.9 45.3 L50.8 45.3 50.7 44.7 50.7 44.5 50.7 44.1 50.85 44.1 50.9 43.9 50.9 43.7 50.9 43.15 50.9 42.95 50.75 42.9 50.7 42.55 50.7 42.35 50.5 42.25 50.3 42.15 50.3 42.35 50.3 42.55 Q50.4 43.25 50.1 43.5 L50.1 43.7 50.1 43.9 50.1 44.3 50.1 44.5 Q50.6 44.6 50.4 45.3 L50.3 45.3 50.25 45.45 Q49.75 45.65 49.7 45.3 L49.55 45.25 48.65 43.7 48.5 43.7 48.25 43.5 48.25 43.7 Q48.05 44.2 47.85 43.7 L47.7 43.7 47.45 43.5 47.35 43.45 47.3 43.35 47.1 43.35 46.9 43.35 46.8 43.5 45.9 44.1 45.8 44.3 45.05 44.9 45.05 45.1 44.85 45.1 44.85 45.3 44.65 45.55 44.65 45.6 44.6 45.6 43.4 45.75 Q43.0 44.95 42.55 45.1 L42.5 45.1 42.3 45.1 42.1 45.1 42.05 45.3 Q41.9 45.8 41.85 45.1 L41.7 45.15 41.25 45.3 41.05 45.3 40.65 45.3 40.45 45.3 40.45 45.55 40.45 45.75 Q40.95 45.95 40.45 46.05 L40.45 45.95 40.25 45.95 40.05 45.95 39.95 45.95 39.5 46.55 Q39.4 47.2 39.9 47.3 L40.05 47.3 Q40.4 47.35 40.35 46.95 L40.45 46.95 40.45 46.75 40.85 46.8 40.85 46.95 41.0 47.5 40.85 47.5 40.85 47.6 40.25 47.7 40.35 47.9 40.45 47.9 40.6 48.0 Q41.0 48.7 40.25 48.3 L40.05 48.3 39.9 48.3 39.7 48.3 39.5 48.3 39.1 48.3 38.9 48.3 38.8 48.45 38.5 48.5 Q38.35 48.5 38.3 48.6 L37.05 49.55 37.05 49.75 37.1 49.95 Q37.2 50.35 36.85 50.35 L36.85 50.45 34.25 51.7 34.25 52.1 34.25 52.3 34.25 52.45 Q33.85 52.65 33.85 52.3 L33.7 52.3 33.45 52.1 33.25 52.1 32.85 52.1 32.65 52.2 Q32.3 52.3 31.9 52.55 L31.9 52.75 31.8 52.9 31.7 53.15 31.6 53.3 Q31.25 53.7 31.05 54.35 L30.9 54.3 Q30.05 53.05 28.5 54.15 L28.4 54.1 28.3 53.35 28.5 53.35 28.5 53.15 28.5 52.95 Q28.9 52.6 29.45 52.4 L29.65 52.3 29.65 52.1 30.05 52.2 30.05 52.3 Q31.2 52.25 31.1 51.9 L31.05 51.7 30.95 51.7 30.85 51.3 31.05 51.3 31.2 51.3 31.25 51.1 31.25 50.9 31.25 50.55 31.05 50.55 30.85 50.55 30.8 50.65 Q30.45 50.85 30.45 50.55 L30.35 50.5 30.25 49.95 30.65 49.95 30.85 49.95 30.85 49.75 30.85 49.55 31.1 49.7 31.25 49.75 31.25 49.55 32.3 48.6 32.5 48.5 32.5 48.3 33.05 48.3 33.25 48.3 33.65 48.1 33.65 47.9 33.65 47.7 33.65 47.5 33.5 47.5 33.25 47.3 33.05 47.3 32.85 47.3 32.65 47.35 32.3 47.1 32.2 46.95 31.7 46.75 31.55 46.7 31.5 46.35 31.7 46.35 32.1 46.15 32.3 46.15 32.65 46.2 32.65 46.35 33.35 46.65 33.45 46.75 33.65 46.75 33.85 46.75 34.25 46.65 34.25 46.55 34.25 46.35 34.25 45.75 34.25 45.55 34.25 45.3 34.45 45.3 34.45 45.1 Q35.25 44.9 34.7 44.3 L34.65 44.1 34.55 44.1 34.45 43.7 34.65 43.7 34.9 43.55 35.1 43.5 35.1 43.35 35.1 43.15 35.1 42.95 34.9 42.85 34.85 42.75 34.85 42.55 34.7 42.45 34.65 42.35 34.55 42.25 34.45 41.9 34.45 41.7 35.05 41.8 35.1 41.9 35.3 41.9 35.3 41.7 35.3 41.3 35.3 41.1 35.15 41.1 35.1 40.7 35.3 40.7 35.5 40.7 35.85 41.1 35.9 41.3 36.05 41.55 36.1 41.7 36.2 41.75 36.25 41.9 Q36.6 41.95 36.55 41.5 L36.65 41.5 36.85 41.6 36.85 41.7 37.05 41.95 37.05 42.15 37.7 42.45 37.85 42.55 38.5 42.55 38.7 42.55 38.7 42.35 38.55 42.25 38.5 41.9 39.05 41.8 39.1 41.9 39.3 42.05 39.5 42.15 39.5 41.9 38.9 40.7 Q39.5 40.6 39.75 40.9 L39.9 40.9 39.9 40.7 39.9 40.5 39.9 40.3 40.05 40.3 40.05 40.1 40.45 40.1 40.65 40.1 Q41.25 40.0 41.55 39.55 L41.65 39.55 42.1 39.55 42.3 39.55 42.2 39.4 41.85 38.95 41.7 38.85 41.45 38.75 41.45 38.55 41.45 38.4 Q41.15 38.35 41.25 37.9 L41.5 38.05 41.65 38.1 41.85 38.1 41.85 37.9 42.65 38.0 42.7 38.1 Q43.1 38.15 43.2 38.7 L43.3 38.75 43.3 38.55 43.3 38.3 43.5 38.3 43.45 38.15 Q43.3 37.9 43.3 37.5 44.25 37.75 43.95 38.15 L43.85 38.3 Q44.75 38.75 44.75 37.95 L44.85 37.9 44.85 37.7 45.25 37.8 45.25 37.9 45.8 37.7 45.9 37.5 45.7 37.5 45.5 37.5 45.25 37.3 45.05 37.3 Q44.75 37.35 44.85 36.9 45.3 36.8 45.35 37.1 L45.5 37.1 45.6 37.2 45.7 37.3 46.0 37.4 46.1 37.5 46.3 37.5 46.5 37.5 46.5 37.3 46.5 37.1 46.4 37.1 46.1 36.5 45.9 36.45 45.9 36.3 45.9 36.1 46.25 36.2 46.3 36.3 46.5 36.15 46.7 36.1 46.7 35.95 46.7 35.75 46.9 35.75 46.9 35.55 47.1 35.55 Q47.4 35.5 47.2 35.9 L47.1 35.95 47.0 36.05 46.7 36.3 46.7 36.5 46.7 36.9 46.7 37.1 46.85 37.35 46.9 37.5 46.9 37.7 47.45 38.15 47.45 38.3 47.85 38.3 48.05 38.3 48.05 38.1 Q48.5 38.25 48.55 37.95 L48.65 37.9 48.65 37.7 48.65 37.3 48.65 37.1 48.65 36.9 48.55 36.9 48.45 36.5 48.35 36.5 48.25 35.95 48.25 35.75 48.15 35.7 48.05 35.35 48.25 35.35 Q48.7 35.2 48.7 35.55 L48.65 35.75 48.65 35.95 48.65 36.1 Q49.0 36.1 48.9 36.5 L48.85 36.7 48.85 36.9 48.85 37.1 48.85 37.3 Q49.3 37.45 49.4 37.15 L49.5 37.1 49.5 36.9 49.6 36.9 49.7 36.7 49.65 36.55 49.5 36.3 49.35 36.3 49.3 35.95 49.5 35.95 Q50.2 36.15 50.5 35.95 L50.7 35.95 50.7 35.75 51.05 35.8 51.05 35.95 51.25 35.95 51.45 35.95 51.65 35.7 51.65 35.55 M51.05 34.3 L50.9 34.5 50.85 34.7 Q50.7 35.2 50.7 34.5 L50.7 34.3 50.5 34.25 50.5 34.1 51.05 34.0 51.05 34.1 51.05 34.3 M60.5 34.25 L60.5 34.1 60.9 34.1 61.1 34.1 Q61.6 34.0 61.4 34.45 L61.3 34.5 61.25 34.65 61.1 34.7 61.05 34.85 Q60.55 35.05 60.5 34.7 L60.7 34.7 60.7 34.5 60.7 34.3 60.5 34.25 M59.7 35.15 Q60.45 35.25 59.7 35.25 L59.7 35.15 M45.7 29.9 Q46.4 30.4 45.7 30.05 L45.7 29.9 M40.7 27.65 L40.65 27.5 Q41.45 27.95 40.7 27.65 M42.1 29.1 L41.95 29.1 41.85 28.7 42.1 28.7 Q42.4 28.7 42.2 29.1 L42.1 29.1 M42.1 30.3 L42.05 30.45 Q41.75 30.55 41.85 30.1 L42.1 30.1 42.1 29.9 Q42.4 29.9 42.2 30.3 L42.1 30.3 M43.85 30.5 Q44.5 30.85 43.9 30.65 L43.85 30.5 M43.45 32.0 L43.5 32.15 43.45 32.25 Q43.05 32.4 43.1 32.15 L43.1 31.95 43.45 32.0 M45.0 33.9 L44.85 33.9 44.75 34.0 Q44.25 34.35 44.25 33.7 L44.45 33.7 44.45 33.5 44.45 33.3 44.85 33.4 44.85 33.5 Q45.2 33.5 45.0 33.9 M42.7 36.1 L42.9 36.1 43.45 36.2 43.5 36.3 43.6 36.35 Q43.85 37.0 43.3 36.9 L43.1 36.9 42.9 36.7 42.75 36.7 42.7 36.1 M44.25 36.85 Q43.85 37.05 43.85 36.7 L43.85 36.5 44.25 36.6 44.25 36.7 44.25 36.85 M49.2 34.5 Q49.15 35.25 48.65 34.7 L48.55 34.65 48.45 34.3 48.65 34.3 48.65 34.1 48.85 34.1 49.05 34.35 49.1 34.5 49.2 34.5 M42.7 31.05 L42.7 30.9 Q43.3 31.45 42.7 31.05 M40.8 39.3 L40.65 39.35 40.65 39.45 Q40.25 39.65 40.25 39.35 L40.1 39.25 39.9 38.75 Q40.2 38.75 40.15 38.3 L40.25 38.3 Q40.8 38.2 40.7 38.75 L40.65 38.95 Q41.0 38.9 40.8 39.3 M54.45 44.4 L54.5 44.5 Q54.8 44.6 54.6 45.1 L54.5 45.1 54.35 45.1 54.3 44.7 54.2 44.7 54.1 44.1 54.45 44.4 M46.9 43.7 Q47.3 43.6 47.3 43.9 L47.3 44.1 47.5 44.3 47.65 44.3 Q48.0 44.3 47.8 44.7 L47.65 44.7 47.65 44.9 47.45 44.9 47.45 45.05 Q47.05 45.25 47.1 44.9 L46.9 44.9 46.9 44.7 46.75 44.7 46.7 44.3 46.9 44.3 46.9 44.1 46.9 43.9 46.9 43.7 M41.6 46.15 L41.55 46.05 41.45 45.75 41.65 45.75 41.65 45.55 41.85 45.7 Q41.65 45.95 41.6 46.15 M55.25 45.3 L55.45 45.3 Q55.8 45.3 55.6 45.65 L55.45 45.75 55.35 45.65 55.25 45.3 M55.25 46.15 Q56.05 46.25 55.25 46.25 L55.25 46.15 M52.25 46.75 L52.25 46.95 52.45 46.95 52.5 47.1 Q53.05 47.3 52.65 47.5 L52.5 47.5 52.25 47.5 52.05 47.5 52.05 47.6 51.25 47.5 51.15 47.5 51.05 46.75 51.25 46.75 51.25 46.55 52.05 46.65 52.05 46.75 52.25 46.75 M51.1 48.65 L51.05 48.5 Q51.85 48.95 51.1 48.65 M51.75 48.05 L51.65 47.9 Q52.45 48.4 51.75 48.05 M55.05 46.75 Q55.4 46.7 55.2 47.1 L55.05 47.1 55.05 47.2 Q54.45 47.4 54.5 46.75 L54.65 46.75 54.65 46.55 55.05 46.6 55.05 46.75 M54.1 46.75 L54.2 46.75 Q54.25 47.45 53.9 46.95 L53.9 46.75 53.9 46.55 54.0 46.55 54.1 46.75 M55.75 46.65 L55.65 46.55 Q56.45 46.95 55.75 46.65 M71.1 37.1 L70.95 37.1 70.9 36.7 71.1 36.7 Q71.4 36.7 71.25 37.1 L71.1 37.1 M69.85 25.5 Q70.25 25.6 70.0 26.1 L69.85 26.1 69.85 26.25 Q69.45 26.45 69.45 26.1 L69.4 26.1 69.3 25.7 69.45 25.7 69.45 25.5 69.65 25.5 69.85 25.5 M65.4 33.1 L65.3 32.7 65.5 32.7 65.5 32.5 65.85 32.6 65.85 32.7 Q66.2 32.7 66.0 33.1 L65.85 33.1 65.85 33.25 Q65.5 33.45 65.5 33.1 L65.4 33.1 M61.9 33.1 L61.9 32.9 62.25 33.0 62.25 33.1 Q62.6 33.1 62.4 33.5 L62.25 33.5 62.05 33.5 61.9 33.5 61.8 33.5 61.7 33.1 61.9 33.1 M61.9 36.3 L62.05 36.3 62.05 36.1 62.65 36.2 62.65 36.3 62.85 36.35 62.85 36.5 Q63.2 36.5 63.0 36.9 L62.85 36.9 62.85 37.05 Q62.2 37.6 61.9 36.9 L61.8 36.9 61.7 36.5 61.9 36.5 61.9 36.3 M65.1 34.45 L65.1 34.3 Q65.85 34.75 65.1 34.45 M63.3 36.3 L63.3 36.1 63.65 36.2 63.7 36.3 Q64.3 36.55 64.5 37.3 L64.5 37.5 64.45 37.65 Q63.95 37.9 63.9 37.5 L63.75 37.5 Q63.35 37.1 63.3 36.3 M67.35 32.25 L67.3 32.15 Q67.9 32.65 67.35 32.25 M66.7 36.1 L66.9 36.1 66.9 35.95 66.9 35.75 67.05 35.95 67.1 36.1 67.05 36.3 Q66.75 36.85 66.7 36.1 M66.7 37.1 L67.05 37.2 67.1 37.3 67.05 37.45 Q66.65 37.65 66.7 37.3 L66.5 37.3 66.25 37.1 66.5 37.1 66.7 37.1 M70.55 38.65 L70.5 38.3 70.7 38.3 70.7 38.1 71.05 38.2 71.1 38.3 Q71.4 38.3 71.25 38.65 L71.1 38.75 71.05 38.85 Q70.65 39.05 70.7 38.75 L70.55 38.65 M70.1 39.45 L70.1 39.35 Q70.85 39.45 70.1 39.45 M68.4 39.75 L68.3 39.55 Q70.35 39.75 68.65 40.1 L68.4 39.75 M65.85 37.5 Q66.2 37.5 66.0 37.9 L65.85 37.9 65.9 38.1 Q65.9 38.45 65.5 38.3 L65.5 38.4 Q65.15 38.45 65.3 37.9 L65.3 37.7 65.3 37.3 65.85 37.4 65.85 37.5 M70.7 40.3 Q71.45 40.4 70.7 40.4 L70.7 40.3 M70.5 41.1 Q71.25 41.2 70.5 41.2 L70.5 41.1 M63.1 48.5 L63.3 48.5 63.65 48.6 63.7 48.7 63.7 48.9 63.65 49.05 Q63.25 49.25 63.3 48.9 L63.15 48.9 63.1 48.5 M63.5 49.35 L63.85 49.4 63.9 49.55 63.9 49.75 Q63.9 50.05 63.5 49.95 L63.35 49.9 63.3 49.55 63.5 49.55 63.5 49.35 M72.1 39.35 L72.1 39.15 72.45 39.2 72.5 39.35 Q72.85 39.4 72.6 39.9 L72.5 39.9 72.45 40.05 72.3 40.1 72.3 40.3 72.25 40.5 72.1 40.5 72.1 40.7 Q72.2 41.15 71.9 41.1 L71.85 41.25 Q71.35 41.4 71.3 40.9 L71.7 40.75 71.9 40.7 71.9 40.5 71.9 40.3 72.1 40.3 72.1 40.1 72.1 39.9 72.1 39.75 72.1 39.35 M71.5 41.8 L71.5 41.7 Q72.25 41.8 71.5 41.8 M74.85 43.9 L74.7 43.9 74.5 43.9 74.45 44.05 74.1 44.1 73.9 44.1 73.7 43.9 73.9 43.9 74.1 43.9 74.1 43.7 74.1 43.5 74.3 43.5 74.3 43.35 74.65 43.4 74.7 43.5 Q75.0 43.5 74.85 43.9 M75.7 45.55 Q76.5 45.3 75.7 45.65 L75.7 45.55 M75.3 46.55 Q76.1 46.65 75.3 46.65 L75.3 46.55 M75.7 46.95 Q76.35 46.95 75.9 47.1 L75.7 47.1 75.5 47.1 75.3 46.95 75.5 46.95 75.7 46.95 M30.6 8.8 Q31.45 8.7 30.95 9.15 L30.8 9.2 30.65 9.25 30.0 9.2 30.4 9.05 30.6 9.0 30.6 8.8 M31.4 8.4 Q32.45 8.45 31.4 8.5 L31.4 8.4 M22.65 3.75 L22.6 3.6 Q23.35 4.05 22.65 3.75 M22.8 9.1 L22.8 9.0 Q23.55 9.1 22.8 9.1 M25.2 6.8 Q25.95 6.85 25.4 7.15 L25.2 7.2 25.1 7.15 25.0 6.8 25.2 6.8 M24.2 7.9 L24.2 7.8 Q25.0 7.6 24.2 7.9 M20.95 7.7 L21.0 7.8 21.35 7.9 21.4 8.0 21.5 8.05 Q21.75 8.55 21.2 8.4 L21.1 8.45 20.6 8.6 20.4 8.6 20.4 8.8 Q20.35 9.15 20.0 8.8 L19.95 8.95 19.4 9.4 19.4 9.6 19.4 9.8 19.4 10.0 19.4 10.2 19.75 10.3 19.8 10.4 19.8 10.6 Q19.95 11.15 19.6 11.2 L19.6 11.4 19.6 11.6 19.6 11.8 19.8 11.8 19.8 11.6 20.0 11.45 20.2 11.4 20.2 11.2 20.4 11.2 20.6 11.2 Q20.95 11.2 20.7 11.55 L20.6 11.6 20.4 11.6 20.35 11.75 20.2 11.8 20.35 12.05 20.4 12.2 Q20.75 12.2 20.5 12.55 L20.4 12.6 20.2 12.6 20.2 12.8 20.4 12.8 20.6 12.8 20.8 12.8 20.8 12.6 21.15 12.7 21.2 12.8 21.45 13.15 21.6 13.2 22.2 13.2 22.4 13.2 22.4 13.0 22.4 12.8 22.8 12.8 23.0 12.8 23.0 12.6 23.35 12.7 23.4 12.8 Q24.0 12.9 23.9 12.2 L24.0 12.2 24.0 12.0 24.2 12.0 24.2 11.8 24.55 11.9 24.6 12.0 24.8 12.0 25.0 12.0 25.0 11.8 25.4 11.65 25.6 11.6 25.6 11.4 25.8 11.4 25.8 11.2 26.0 11.2 26.2 11.2 27.05 10.65 27.2 10.6 27.4 10.6 27.4 10.4 27.4 10.0 27.55 10.25 27.6 10.4 27.8 10.25 28.0 10.2 28.2 10.2 28.4 10.2 28.4 10.0 28.6 10.0 28.8 10.0 28.8 9.8 29.45 9.45 29.6 9.4 Q30.05 9.3 29.9 9.6 L29.8 9.6 29.75 9.7 28.8 10.2 28.6 10.25 28.4 10.4 28.2 10.4 28.0 10.4 27.95 10.55 27.6 10.8 27.4 10.8 27.35 10.95 26.2 11.4 26.15 11.55 26.0 11.6 25.8 11.65 25.6 11.8 25.4 11.8 25.4 12.0 25.6 12.0 25.8 12.0 26.0 12.0 Q28.0 11.6 25.2 12.8 L25.2 13.0 Q25.15 13.75 24.8 13.2 L24.6 13.2 24.4 13.2 24.2 13.25 Q23.25 13.65 22.4 14.2 L22.4 14.4 Q22.35 14.75 22.0 14.4 L21.8 14.4 21.9 14.75 22.0 14.8 Q23.0 15.15 22.25 15.5 L22.2 15.6 22.4 15.6 22.75 15.7 22.8 15.8 23.0 15.8 Q23.75 15.25 23.9 16.0 L23.8 16.0 23.6 16.0 23.4 16.0 23.2 16.0 23.2 16.2 24.25 16.35 24.4 16.4 24.5 16.4 Q24.5 17.15 24.0 16.6 L23.8 16.6 23.2 16.6 23.0 16.65 Q22.45 16.75 22.4 16.4 L22.2 16.35 Q21.45 16.05 20.8 16.6 L20.9 17.0 20.8 17.0 20.8 17.2 Q20.85 17.55 20.4 17.4 L20.5 18.2 20.4 18.2 20.35 18.4 20.0 18.8 19.8 18.8 19.8 19.0 19.8 19.2 19.95 19.25 20.0 19.4 20.15 19.65 20.2 19.8 20.15 19.95 Q19.8 20.15 19.8 19.8 L19.6 19.8 Q18.65 19.5 17.8 19.8 L17.85 19.95 18.0 20.0 Q18.35 20.0 18.2 20.4 L18.2 20.6 18.2 20.8 18.2 21.0 18.4 21.15 18.6 21.2 Q19.35 21.25 18.8 21.55 L18.6 21.6 18.45 21.55 18.0 21.0 18.0 20.8 17.8 20.8 17.6 20.85 17.4 21.0 17.2 21.0 17.0 21.0 16.95 21.15 16.8 21.2 16.75 21.35 Q16.5 21.7 16.2 21.0 L16.2 20.8 16.1 20.85 Q16.05 21.15 15.6 21.0 L15.6 21.2 Q16.15 21.65 15.95 21.75 L15.8 21.8 15.75 22.0 15.6 22.2 15.6 22.3 15.4 22.2 15.3 22.2 15.2 21.4 15.0 21.4 14.8 21.4 14.6 21.4 14.55 21.55 14.0 21.6 13.9 21.55 13.8 21.2 14.0 21.2 14.05 21.05 Q14.6 20.2 13.6 20.0 L13.55 20.2 13.4 20.4 13.2 20.4 13.0 20.4 12.8 20.4 12.6 20.4 12.4 20.4 Q11.9 20.2 11.4 20.8 L11.35 20.95 11.0 21.2 11.0 21.4 10.6 21.8 10.55 21.95 10.0 22.4 9.95 22.6 9.8 22.8 9.75 22.95 9.4 23.2 9.4 23.4 9.35 23.55 Q8.85 23.75 9.0 23.2 L9.2 23.2 9.2 23.0 9.4 22.85 9.6 22.8 9.6 22.6 Q9.95 22.65 9.9 22.2 L10.0 22.2 10.0 22.0 10.2 21.85 10.4 21.8 10.4 21.6 10.75 21.35 10.8 21.2 10.8 21.0 10.95 20.95 11.0 20.8 10.8 20.8 10.6 20.85 Q9.95 20.95 9.8 20.6 L10.0 20.45 10.2 20.4 10.2 20.2 10.2 20.0 Q10.95 20.45 11.0 19.8 L11.0 19.6 11.0 19.4 11.0 19.2 11.2 19.2 11.2 19.0 11.2 18.4 11.2 18.2 11.2 18.0 11.4 18.0 11.4 17.8 11.75 17.55 11.8 17.4 11.75 17.25 11.6 17.0 11.5 16.95 11.4 16.6 11.2 16.6 11.15 16.75 11.0 16.8 10.95 16.95 10.6 17.0 10.4 17.0 10.35 17.15 Q9.95 17.35 10.0 17.0 L9.8 16.95 9.6 16.8 9.8 16.8 10.0 16.8 10.0 16.6 10.4 16.6 10.6 16.6 10.6 16.4 10.8 16.4 11.0 16.4 11.2 16.4 11.4 16.4 11.6 16.55 11.8 16.6 11.8 16.4 11.8 16.2 11.8 16.0 12.0 16.0 Q12.35 16.0 12.1 16.35 L12.0 16.4 12.0 16.6 12.0 16.8 12.2 16.8 12.2 16.6 12.35 16.55 12.4 16.4 12.4 16.2 12.4 16.0 12.6 16.0 12.6 15.8 12.6 15.6 12.6 15.2 12.4 15.25 Q11.95 15.35 12.0 15.0 L12.0 14.8 12.0 14.6 12.2 14.6 12.2 14.4 12.2 14.2 12.0 14.2 11.85 14.15 11.8 14.0 11.6 14.0 Q11.25 14.05 11.4 13.6 L11.6 13.6 11.6 13.4 11.55 13.25 10.6 13.2 10.4 13.15 10.2 13.0 10.15 12.9 Q9.75 12.75 9.6 12.4 L9.45 12.35 9.4 12.2 9.3 12.15 9.2 11.8 9.2 11.6 9.0 11.6 8.9 11.55 8.8 11.2 9.15 11.3 9.2 11.4 9.4 11.4 Q9.8 10.7 10.4 10.95 L10.6 11.0 10.6 10.8 10.8 10.8 11.0 10.8 11.0 10.6 11.0 10.2 11.2 10.2 11.2 10.0 11.0 9.4 10.9 9.35 10.8 9.0 10.7 8.95 10.6 8.6 10.45 8.55 9.8 8.4 9.75 8.55 9.6 8.6 9.55 8.75 Q9.15 9.25 9.2 8.6 L9.4 8.6 9.4 8.4 9.6 8.4 9.6 8.2 10.95 8.5 11.0 8.6 11.35 8.7 11.4 8.8 11.6 8.8 11.8 8.8 11.75 8.65 11.6 8.4 11.95 8.5 12.0 8.6 12.65 9.35 12.8 9.4 Q13.15 9.4 13.1 9.8 L13.2 9.8 13.2 9.6 13.95 9.65 14.0 9.8 14.05 9.95 Q14.45 10.25 13.6 10.2 L13.55 10.35 13.4 10.4 13.4 10.6 Q13.6 11.35 13.0 10.4 L12.8 10.4 12.6 10.45 12.4 10.6 12.35 10.7 11.8 10.8 11.8 11.0 Q12.15 11.0 12.0 11.4 L12.0 11.6 12.4 11.6 12.6 11.6 Q12.95 11.7 12.7 12.15 L12.6 12.2 Q13.1 12.5 14.15 11.35 L14.8 10.6 14.8 10.4 14.8 10.2 15.0 10.2 15.0 10.0 15.15 9.8 15.2 9.6 15.2 9.4 15.2 9.2 15.05 9.15 15.0 9.0 Q15.85 9.05 16.1 8.45 L16.2 8.4 16.2 8.2 16.55 8.3 16.6 8.4 16.6 8.6 16.6 8.8 16.6 9.0 16.6 9.6 16.6 9.8 16.6 10.0 16.6 10.2 Q17.4 10.1 17.8 9.7 L17.8 9.8 Q18.15 9.8 17.9 10.15 L17.8 10.2 Q18.4 11.05 18.95 10.0 L19.0 9.8 19.0 9.6 19.0 9.4 19.2 9.4 19.2 9.2 19.2 9.0 19.7 8.65 19.8 8.6 19.8 8.4 19.8 8.2 20.0 8.2 20.0 8.0 20.35 7.95 20.4 7.8 20.4 7.6 20.95 7.7 M21.6 9.0 Q22.35 9.1 21.6 9.1 L21.6 9.0 M21.4 9.6 L21.35 9.75 Q21.0 9.95 21.0 9.6 L21.0 9.4 21.35 9.5 21.4 9.6 M21.6 11.0 L22.0 11.0 22.2 11.0 22.2 10.8 Q22.55 10.8 22.3 11.15 L22.2 11.2 22.05 11.25 Q21.65 11.75 21.6 11.0 M29.6 11.8 Q30.25 12.35 29.65 11.95 L29.6 11.8 M29.8 11.0 Q30.6 10.8 29.8 11.1 L29.8 11.0 M28.0 9.3 L28.0 9.2 Q28.75 9.3 28.0 9.3 M28.0 12.6 Q28.75 12.7 28.0 12.7 L28.0 12.6 M28.7 13.55 L28.6 13.6 28.4 13.55 28.2 13.4 28.4 13.25 28.6 13.2 Q28.95 13.2 28.7 13.55 M26.0 17.6 L26.0 17.4 26.35 17.5 26.4 17.6 26.35 17.75 Q26.0 17.95 26.0 17.6 M25.45 17.9 L25.4 17.8 Q26.2 18.2 25.45 17.9 M29.8 17.0 Q30.15 17.0 30.0 17.4 L30.0 17.6 Q30.45 17.5 30.5 17.8 L30.6 17.8 31.0 17.8 31.2 17.8 Q31.65 17.7 31.7 18.0 L31.8 18.0 32.0 18.0 32.2 18.0 33.4 18.4 33.6 18.4 33.7 18.4 Q33.75 19.15 33.4 18.6 L33.2 18.6 32.0 18.2 31.8 18.2 31.6 18.2 31.2 18.0 31.15 18.15 31.0 18.2 30.8 18.2 29.6 17.8 29.4 17.75 29.2 17.6 29.05 17.55 29.0 17.4 28.8 17.4 28.4 17.4 28.3 17.35 28.2 17.0 28.55 17.1 28.6 17.2 28.8 17.2 29.0 17.2 29.0 17.0 29.2 17.0 29.6 17.0 29.8 17.0 M28.0 17.6 Q28.75 17.7 28.0 17.7 L28.0 17.6 M24.0 14.6 L23.95 14.75 Q23.6 14.95 23.6 14.6 L23.6 14.4 23.95 14.5 24.0 14.6 M25.0 14.4 Q25.75 14.5 25.0 14.5 L25.0 14.4 M24.4 14.8 Q25.15 14.85 24.6 15.15 L24.4 15.2 24.3 15.15 24.2 14.8 24.4 14.8 M24.4 14.4 Q25.15 14.5 24.4 14.5 L24.4 14.4 M21.6 12.6 Q22.25 12.95 21.65 12.7 L21.6 12.6 M21.35 18.1 L21.4 18.2 21.6 18.35 21.8 18.4 21.9 18.4 Q21.9 19.15 21.4 18.6 L21.35 18.45 21.2 18.4 21.1 18.35 21.0 18.0 21.35 18.1 M21.0 17.4 L21.2 17.25 21.4 17.2 21.4 17.0 Q22.4 17.05 21.65 17.3 L21.6 17.4 21.55 17.6 Q21.15 18.15 21.0 17.4 M21.8 17.8 L22.15 17.9 22.2 18.0 22.15 18.15 Q21.8 18.35 21.8 18.0 L21.8 17.8 M22.75 18.45 L22.8 18.6 Q23.35 18.95 23.0 19.15 L22.8 19.2 22.8 19.3 Q22.15 19.45 22.2 18.8 L22.4 18.95 22.6 19.0 22.75 18.95 22.8 18.8 22.7 18.75 22.6 18.4 22.75 18.45 M25.2 16.8 Q25.95 16.9 25.2 16.9 L25.2 16.8 M24.2 15.8 Q25.0 15.6 24.2 15.9 L24.2 15.8 M23.4 17.2 Q24.15 17.3 23.4 17.3 L23.4 17.2 M24.75 18.5 L24.8 18.6 24.75 18.75 Q24.4 18.95 24.4 18.6 L24.4 18.4 24.75 18.5 M24.4 17.4 Q25.2 17.2 24.4 17.5 L24.4 17.4 M23.4 18.6 Q24.15 18.7 23.4 18.7 L23.4 18.6 M23.95 19.9 L24.0 20.0 24.15 20.25 24.2 20.4 25.45 20.95 25.6 21.0 Q26.05 21.2 25.6 21.3 L25.6 21.2 25.4 21.2 Q24.55 20.95 24.0 20.4 L23.8 20.35 23.6 20.2 23.5 20.15 23.4 19.8 23.95 19.9 M21.2 19.8 L21.15 20.0 Q20.85 20.55 20.8 19.8 L20.8 19.6 21.0 19.6 21.0 19.4 Q22.15 19.0 21.35 19.75 L21.2 19.8 M23.0 20.4 L22.95 20.6 Q22.65 21.15 22.6 20.4 L22.6 20.2 22.95 20.3 23.0 20.4 M21.6 21.6 L21.6 21.8 21.55 21.95 Q21.2 22.15 21.2 21.8 L21.0 21.75 20.8 21.6 21.6 21.5 21.6 21.6 M22.2 21.2 Q22.95 21.3 22.2 21.3 L22.2 21.2 M20.6 22.2 L20.7 22.25 Q20.9 22.8 20.2 22.6 L20.15 22.8 20.0 23.0 20.0 23.2 20.05 23.35 20.2 23.4 20.55 23.65 20.6 23.8 20.7 23.8 Q20.75 24.55 20.4 24.0 L20.2 24.0 Q19.9 24.05 20.0 23.6 L19.8 23.6 19.0 23.2 18.85 23.15 18.8 23.0 18.6 23.0 18.6 23.2 Q18.55 23.55 18.0 23.4 L17.9 23.4 17.8 22.8 17.8 22.6 17.6 22.6 17.5 22.55 17.4 22.2 17.6 22.2 17.8 22.2 18.35 22.7 18.4 22.8 Q18.75 22.85 18.7 22.4 L18.8 22.4 18.8 22.2 18.8 22.0 19.2 22.0 19.4 22.0 19.4 21.8 19.4 21.4 19.6 21.4 19.8 21.4 20.15 21.5 20.2 21.6 Q20.75 21.5 20.6 22.0 L20.6 22.2 M22.0 23.8 Q22.65 24.15 22.05 23.9 L22.0 23.8 M29.8 20.6 Q30.55 21.05 29.85 20.75 L29.8 20.6 M28.35 21.1 L28.4 21.2 28.5 21.25 Q28.65 21.55 28.2 21.4 L28.1 21.35 28.0 21.0 28.35 21.1 M25.4 19.2 L25.6 19.2 Q25.95 19.2 25.7 19.55 L25.6 19.6 25.5 19.55 25.4 19.2 M31.0 16.9 L31.0 16.8 Q31.75 16.9 31.0 16.9 M34.0 15.8 L34.0 16.0 33.8 16.0 Q33.25 16.05 33.2 15.6 33.75 15.5 33.9 15.75 L34.0 15.8 M32.8 19.2 Q33.55 19.3 32.8 19.3 L32.8 19.2 M17.6 2.4 Q18.25 2.75 17.65 2.5 L17.6 2.4 M16.2 2.6 Q16.95 3.05 16.25 2.75 L16.2 2.6 M16.6 3.2 L16.95 3.3 17.0 3.4 Q17.35 3.5 17.1 3.95 L17.0 4.0 16.95 4.15 Q16.6 4.35 16.6 4.0 L16.6 3.8 16.6 3.4 16.6 3.2 M16.15 5.35 Q15.8 5.55 15.8 5.2 L15.8 5.0 16.0 4.85 16.2 4.8 Q16.55 4.8 16.3 5.15 L16.2 5.2 16.15 5.35 M18.8 4.4 Q19.55 4.55 18.95 4.95 L18.8 5.0 18.75 5.2 18.6 5.4 18.5 5.35 18.4 5.0 18.6 5.0 18.6 4.8 18.6 4.4 18.8 4.4 M13.6 2.0 Q14.35 2.1 13.6 2.1 L13.6 2.0 M12.2 0.1 L12.2 0.0 Q12.95 0.1 12.2 0.1 M13.0 6.0 L13.2 6.0 13.35 5.8 13.4 5.6 13.25 5.55 13.2 5.4 13.6 5.4 13.8 5.4 14.15 5.5 14.2 5.6 Q15.0 5.8 14.65 6.25 L14.6 6.4 14.6 6.6 14.55 6.75 Q14.2 6.95 14.2 6.6 L14.2 6.4 14.2 6.2 14.0 6.25 13.6 6.4 13.55 6.55 Q13.05 6.75 13.0 6.4 L13.0 6.2 13.0 6.0 M14.4 5.1 L14.4 5.0 Q15.15 5.1 14.4 5.1 M14.2 7.0 L14.15 7.15 Q13.8 7.35 13.8 7.0 L13.8 6.8 14.15 6.9 14.2 7.0 M15.0 7.6 L15.0 7.4 15.0 7.2 Q15.45 7.1 15.4 7.4 L15.4 7.6 15.55 7.65 15.6 7.8 Q15.95 7.8 15.7 8.15 L15.6 8.2 15.4 8.15 15.2 8.0 15.0 7.95 14.8 7.8 14.8 8.0 Q14.85 8.35 14.4 8.2 L14.2 8.2 14.15 8.4 Q13.75 9.45 13.2 8.4 L13.05 8.45 Q12.55 8.85 12.6 8.2 L12.8 8.2 13.0 8.2 13.0 8.0 13.0 7.8 13.0 7.6 13.55 7.7 13.6 7.8 13.8 7.95 14.0 8.0 14.2 8.0 14.2 7.8 14.2 7.6 14.6 7.6 14.8 7.6 15.0 7.6 M11.4 7.0 L11.35 7.1 Q11.1 7.25 11.2 6.8 L11.4 6.8 Q11.95 6.75 12.15 7.05 L12.2 7.2 12.2 7.4 12.2 7.6 12.15 7.75 Q11.8 7.95 11.8 7.6 L11.7 7.55 11.6 7.2 11.55 7.05 11.4 7.0 M18.8 6.8 Q19.45 7.15 18.85 6.9 L18.8 6.8 M18.0 8.6 Q18.75 8.7 18.0 8.7 L18.0 8.6 M17.8 8.4 L17.6 8.4 17.6 8.6 17.55 8.75 17.2 8.8 17.15 8.95 Q16.7 9.5 16.8 8.4 L17.0 8.4 17.0 8.2 17.0 8.0 Q17.95 7.75 17.9 8.4 L17.8 8.4 M20.1 10.55 L20.0 10.2 20.2 10.2 Q20.55 10.2 20.3 10.55 L20.2 10.6 20.1 10.55 M17.8 9.3 L17.8 9.2 Q18.55 9.3 17.8 9.3 M6.0 2.0 L6.2 2.0 6.2 1.8 6.55 1.9 6.6 2.0 Q6.9 2.0 6.7 2.35 L6.6 2.4 6.55 2.55 Q6.15 2.75 6.2 2.4 L6.1 2.35 6.0 2.0 M7.4 2.8 Q8.15 3.25 7.45 2.95 L7.4 2.8 M5.2 6.0 Q5.95 6.45 5.25 6.15 L5.2 6.0 M6.4 5.4 Q7.15 5.5 6.4 5.5 L6.4 5.4 M4.8 8.6 L4.8 8.4 5.15 8.5 5.2 8.6 5.2 8.8 5.15 8.95 Q4.75 9.15 4.8 8.8 L4.65 8.75 4.6 8.6 4.8 8.6 M2.8 8.7 L2.8 8.6 Q3.55 8.7 2.8 8.7 M9.4 7.4 L9.35 7.6 Q8.95 8.15 8.8 7.4 L8.8 7.2 9.35 7.3 9.4 7.4 M1.0 9.8 L1.15 9.85 1.2 10.0 Q1.5 10.0 1.3 10.35 L1.2 10.4 1.2 10.6 1.15 10.7 0.4 10.6 0.3 10.6 Q0.3 10.2 0.0 10.2 L0.0 10.0 0.0 9.8 0.0 9.6 0.2 9.6 0.4 9.6 0.95 9.7 1.0 9.8 M8.15 9.25 L8.2 9.4 8.4 9.4 Q8.75 9.5 8.6 10.0 L8.6 10.2 8.75 10.25 8.8 10.4 8.75 10.55 8.6 10.6 8.55 10.75 8.4 10.8 8.35 10.95 8.0 11.2 7.95 11.35 7.6 11.4 7.55 11.6 7.4 11.8 7.4 12.0 7.35 12.1 Q6.75 12.35 6.6 12.0 L6.5 11.95 6.4 11.6 6.6 11.6 6.6 11.4 Q6.8 11.2 7.15 11.1 L7.2 11.0 7.2 10.8 8.05 10.65 8.2 10.6 8.2 10.4 8.2 10.2 8.0 10.2 7.95 10.35 Q7.55 10.55 7.6 10.2 L7.45 10.15 Q7.15 9.9 7.2 9.2 L7.2 9.0 7.4 9.0 7.6 9.0 Q8.0 9.0 8.15 9.25 M5.8 10.1 L5.8 10.0 Q6.55 10.1 5.8 10.1 M9.35 12.9 L9.4 13.0 Q9.7 13.0 9.5 13.35 L9.4 13.4 9.4 13.6 9.4 13.8 9.55 13.85 9.6 14.0 Q9.9 14.0 9.7 14.35 L9.6 14.4 9.45 14.35 9.2 14.0 9.2 13.8 9.0 13.8 8.95 13.95 Q8.45 14.15 8.4 13.8 L8.25 13.75 Q7.95 13.55 8.0 13.0 L8.0 12.8 8.0 12.4 8.4 12.6 8.6 12.6 8.95 12.7 9.0 12.8 9.35 12.9 M9.9 13.75 L9.8 13.4 10.0 13.4 10.2 13.4 10.4 13.4 Q10.75 13.4 10.5 13.75 L10.4 13.8 10.35 13.95 Q9.95 14.15 10.0 13.8 L9.9 13.75 M8.4 14.3 L8.4 14.2 Q9.15 14.3 8.4 14.3 M5.8 15.2 L6.15 15.3 6.2 15.4 6.15 15.6 Q5.75 16.15 5.6 15.4 L5.8 15.4 5.8 15.2 M5.4 15.0 L5.35 15.15 Q4.95 15.35 5.0 15.0 L5.0 14.8 5.35 14.9 5.4 15.0 M5.2 13.0 Q5.5 13.0 5.3 13.35 L5.2 13.4 5.0 13.4 Q4.65 13.45 4.8 13.0 L4.8 12.8 5.15 12.9 5.2 13.0 M7.0 13.0 L7.35 13.1 7.4 13.2 7.4 13.4 7.35 13.55 Q6.95 13.75 7.0 13.4 L7.0 13.2 7.0 13.0 M7.4 14.8 Q8.15 15.25 7.45 14.95 L7.4 14.8 M7.2 16.3 L7.2 16.2 Q7.95 16.3 7.2 16.3 M6.4 16.6 L6.6 16.6 6.8 16.6 Q7.15 16.7 6.9 17.15 L6.8 17.2 6.6 17.15 6.4 17.0 6.3 16.95 6.2 16.6 6.4 16.6 M5.4 18.2 L5.75 18.3 5.8 18.4 5.75 18.55 Q5.4 18.75 5.4 18.4 L5.4 18.2 M7.2 18.4 L7.4 18.4 7.6 18.4 7.8 18.4 7.8 18.2 7.8 18.0 7.95 18.25 8.0 18.4 8.15 18.65 8.2 18.8 8.15 18.95 8.0 19.0 8.0 19.2 Q8.4 19.1 8.4 19.4 L8.4 19.6 8.4 19.8 8.4 20.0 Q8.7 20.0 8.5 20.35 L8.4 20.4 8.55 20.65 8.6 20.8 9.15 20.9 9.2 21.0 Q9.55 21.0 9.3 21.35 L9.2 21.4 9.15 21.55 Q8.75 21.75 8.8 21.4 L8.65 21.35 8.6 21.2 8.4 21.15 8.2 21.0 8.2 20.8 8.15 20.65 8.0 20.4 7.8 20.35 7.2 19.8 7.1 19.8 7.0 19.2 7.2 19.2 7.15 19.05 7.0 18.8 7.0 18.6 7.2 18.6 7.2 18.4 M7.0 17.3 L7.0 17.2 Q7.8 17.0 7.0 17.3 M6.6 18.2 Q7.35 18.65 6.65 18.35 L6.6 18.2 M9.95 16.0 Q9.8 16.5 9.8 15.8 L9.65 15.75 9.6 15.6 Q9.95 15.3 10.0 15.6 L10.0 15.8 9.95 16.0 M8.0 16.6 Q8.75 17.05 8.05 16.75 L8.0 16.6 M7.8 17.4 Q8.45 17.75 7.85 17.5 L7.8 17.4 M10.0 17.4 Q10.75 17.5 10.0 17.5 L10.0 17.4 M4.4 12.5 L4.4 12.4 Q5.15 12.5 4.4 12.5 M2.65 13.1 L2.6 13.0 Q3.4 13.4 2.65 13.1 M3.2 14.1 L3.2 14.0 Q3.95 14.1 3.2 14.1 M2.8 14.2 L2.95 14.45 3.0 14.6 3.0 14.8 Q2.9 15.25 2.8 14.8 L2.6 14.8 2.2 14.8 2.1 14.8 2.0 14.2 2.2 14.2 2.2 14.0 2.75 14.1 2.8 14.2 M0.4 17.4 L0.4 17.2 0.75 17.3 0.8 17.4 0.75 17.55 Q0.35 17.75 0.4 17.4 M4.6 15.6 L4.8 15.6 4.8 15.4 Q5.35 15.3 5.1 15.75 L5.0 15.8 4.8 15.75 4.6 15.6 M3.6 17.2 L3.8 17.2 3.8 17.0 4.15 17.1 4.2 17.2 Q4.5 17.2 4.3 17.55 L4.2 17.6 4.0 17.6 3.8 17.6 3.7 17.55 3.6 17.2 M3.85 18.75 L3.8 18.6 Q4.55 19.05 3.85 18.75 M2.4 23.6 Q3.2 24.0 2.45 23.7 L2.4 23.6 M9.6 19.8 L9.7 19.8 Q9.65 21.1 9.2 20.2 L9.4 20.2 9.4 20.0 9.4 19.8 9.6 19.8 M8.8 20.0 Q9.55 20.1 8.8 20.1 L8.8 20.0 M6.8 23.8 Q7.55 23.9 6.8 23.9 L6.8 23.8 M9.3 22.0 Q9.1 23.25 8.8 22.0 L9.0 22.0 9.2 22.0 9.3 22.0 M10.0 24.0 L10.0 23.8 10.2 23.8 10.2 23.6 10.4 23.6 10.4 23.4 10.4 23.2 10.6 23.05 10.8 23.0 10.8 22.8 Q11.1 22.8 10.9 23.15 L10.8 23.2 10.75 23.35 10.6 23.4 10.6 23.6 10.55 23.75 10.4 23.8 10.35 23.95 10.2 24.0 10.2 24.2 9.8 24.6 9.75 24.7 Q9.45 24.85 9.6 24.4 L9.8 24.4 9.8 24.2 9.95 24.15 10.0 24.0 M10.8 14.6 L10.8 14.4 Q12.05 14.5 11.0 15.3 L11.0 15.2 10.8 15.2 10.6 15.2 10.4 15.15 10.2 15.0 10.4 15.0 10.6 15.0 10.6 14.8 10.8 14.8 10.8 14.6 M10.8 15.6 Q11.55 15.7 10.8 15.7 L10.8 15.6 M10.2 15.9 L10.2 15.8 Q10.95 15.9 10.2 15.9 M10.4 18.8 Q11.2 18.6 10.4 18.9 L10.4 18.8 M11.85 20.95 L11.8 20.8 Q12.45 21.35 11.85 20.95 M14.0 22.3 L14.0 22.2 Q14.75 22.3 14.0 22.3 M14.8 22.8 L14.8 22.6 15.35 22.7 15.4 22.8 Q15.9 22.35 15.7 23.2 L15.6 23.2 15.4 23.2 15.4 23.4 15.35 23.55 Q15.0 23.75 15.0 23.4 L14.85 23.35 14.6 22.8 14.8 22.8 M14.35 24.3 L14.4 24.4 14.35 24.55 Q14.0 24.75 14.0 24.4 L14.0 24.2 14.35 24.3 M19.6 20.2 Q20.25 20.2 19.8 20.4 L19.6 20.4 19.55 20.6 19.4 20.8 19.4 20.9 19.2 20.8 19.0 20.85 Q18.45 20.95 18.6 20.4 18.75 20.05 19.2 20.1 L19.2 20.2 19.4 20.2 19.6 20.2 M16.9 22.35 L16.8 22.4 16.8 22.6 16.8 22.7 Q16.4 22.8 16.2 23.0 L16.1 22.95 16.0 22.6 16.2 22.6 16.2 22.4 16.1 22.35 16.0 22.0 16.2 22.0 16.2 21.8 16.55 21.9 16.6 22.0 16.8 22.0 Q17.15 22.0 16.9 22.35 M15.6 24.0 Q16.35 24.1 15.6 24.1 L15.6 24.0 M16.8 23.6 L17.0 23.6 Q17.35 23.6 17.1 23.95 L17.0 24.0 16.8 24.0 16.7 23.95 16.6 23.6 16.8 23.6 M18.55 23.85 Q18.9 24.5 18.0 24.0 L18.0 23.8 18.4 23.7 18.4 23.8 18.55 23.85 M20.0 24.2 Q20.35 24.3 20.1 24.75 L20.0 24.8 19.85 24.75 19.6 24.4 19.55 24.3 Q19.25 24.15 19.2 23.8 19.75 23.7 19.8 24.0 L19.8 24.2 20.0 24.2 M19.6 25.2 L19.4 25.2 19.3 25.15 19.2 24.8 19.4 24.8 Q20.0 25.0 19.6 25.2 M18.0 26.2 L17.8 26.2 17.75 26.35 17.2 26.4 17.65 26.05 17.8 26.0 Q18.45 26.0 18.0 26.2 M18.6 27.1 L18.6 27.0 Q19.35 27.1 18.6 27.1 M19.6 26.6 L19.8 26.6 Q21.35 27.0 19.8 27.3 L19.8 27.2 19.7 27.2 19.6 26.6 M16.05 25.75 L16.0 25.6 Q16.75 26.05 16.05 25.75 M16.0 25.2 Q16.8 25.0 16.0 25.3 L16.0 25.2 M16.15 28.3 L16.2 28.4 16.2 28.6 Q16.25 28.95 15.8 28.8 L15.7 28.75 15.6 28.4 15.8 28.4 15.8 28.2 16.15 28.3 M17.2 30.5 L17.2 30.4 Q17.95 30.5 17.2 30.5 M11.0 25.0 L11.0 25.2 10.95 25.35 Q10.55 25.55 10.6 25.2 L10.6 25.0 10.6 24.8 10.95 24.9 11.0 25.0 M10.2 25.4 L10.55 25.5 10.6 25.6 10.55 25.75 Q10.2 25.95 10.2 25.6 L10.2 25.4 M13.4 29.6 Q14.15 29.7 13.4 29.7 L13.4 29.6 M9.6 26.2 L9.5 26.15 9.4 25.8 9.6 25.8 9.6 25.6 9.95 25.7 10.0 25.8 Q10.35 25.8 10.1 26.15 L10.0 26.2 9.8 26.2 9.6 26.2 M6.35 27.0 Q6.1 27.8 5.6 27.4 6.15 27.25 6.3 26.65 L6.4 26.6 6.4 26.4 Q7.7 25.45 6.55 26.75 L6.4 26.8 6.35 27.0 M2.8 25.7 L2.8 25.6 Q3.55 25.7 2.8 25.7 M4.2 25.2 Q4.95 25.65 4.25 25.35 L4.2 25.2 M15.45 42.85 L15.45 42.75 Q16.2 42.85 15.45 42.85 M14.5 47.6 L14.45 47.5 Q15.25 47.9 14.5 47.6 M10.85 47.9 L10.95 47.9 Q10.95 48.7 10.45 48.1 L10.45 47.9 10.45 47.7 10.8 47.8 10.85 47.9 M19.15 45.25 L19.05 44.9 19.65 45.0 19.65 45.1 20.25 45.3 20.45 45.3 Q21.1 45.25 20.6 45.65 L20.45 45.75 20.25 45.75 20.05 45.75 19.9 45.75 Q19.45 45.85 19.45 45.55 L19.35 45.45 19.25 45.3 19.15 45.25 M20.15 48.9 L20.05 48.5 20.25 48.5 20.45 48.5 Q20.8 48.5 20.6 48.9 L20.45 48.9 20.25 48.9 20.15 48.9 M40.25 30.8 L40.25 30.9 Q40.6 30.95 40.55 31.3 L40.45 31.3 40.45 31.45 Q40.05 31.65 40.05 31.3 L39.9 31.25 39.7 30.9 39.9 30.9 39.9 30.7 40.25 30.8 M31.5 32.05 L31.5 31.95 Q32.5 32.4 31.5 32.05 M31.25 36.7 L31.6 36.8 31.7 36.9 31.8 37.15 31.9 37.3 Q32.2 37.3 32.0 37.7 L31.9 37.7 31.7 37.7 31.5 37.5 31.35 37.5 31.25 36.9 31.25 36.7 M34.45 36.7 Q35.15 36.55 35.1 37.1 L35.1 37.3 35.0 37.45 Q34.65 37.65 34.65 37.3 L34.55 37.3 34.45 36.7 M34.75 34.3 Q34.55 34.8 34.25 34.3 L34.25 34.1 34.6 34.2 34.65 34.3 34.75 34.3 M23.7 28.8 L23.4 27.8 Q23.85 27.85 23.95 28.2 L24.0 28.4 Q24.35 28.4 24.1 28.75 L24.0 28.8 23.8 28.8 23.7 28.8 M23.45 35.25 L23.45 35.15 Q24.25 35.25 23.45 35.25 M28.5 36.7 Q29.15 37.5 28.5 36.9 L28.5 36.7 M29.05 35.15 L29.45 35.2 29.45 35.35 29.45 35.55 Q29.35 35.95 29.25 35.55 L29.15 35.45 29.05 35.15 M29.05 40.0 L29.05 39.9 Q29.85 40.0 29.05 40.0 M27.05 38.4 L27.05 38.3 Q27.85 38.1 27.05 38.4 M29.85 41.95 L29.85 42.15 29.85 42.25 Q29.45 42.45 29.45 42.15 L29.45 41.9 29.45 41.7 29.85 41.95 M24.4 40.2 L24.5 40.3 24.6 40.4 24.7 40.5 24.8 40.5 Q24.8 41.25 24.5 40.7 L24.3 40.7 24.25 40.5 24.15 40.5 24.05 40.1 24.4 40.2 M21.85 46.8 L21.85 46.95 21.95 46.95 Q22.2 47.35 21.5 46.95 L21.5 46.75 21.85 46.8 M23.25 40.9 L23.6 41.0 23.65 41.1 Q24.0 41.1 23.8 41.5 L23.65 41.5 23.5 41.5 Q23.25 41.3 23.25 40.9 M29.65 46.95 L29.65 46.75 29.85 46.75 30.05 46.75 Q30.6 46.6 30.4 47.1 L30.25 47.1 30.15 47.15 29.25 47.1 29.5 46.95 29.65 46.95 M30.05 49.15 L30.05 48.9 30.45 49.0 30.45 49.15 30.45 49.25 Q30.05 49.45 30.05 49.15 M39.1 39.9 L39.1 39.75 39.1 39.55 39.45 39.6 39.5 39.75 Q39.8 39.7 39.6 40.1 L39.5 40.1 39.45 40.25 Q39.05 40.45 39.1 40.1 L39.1 39.9 M38.7 38.75 Q39.5 38.55 38.7 38.85 L38.7 38.75 M36.35 40.1 L36.25 39.75 36.45 39.75 Q36.8 39.7 36.6 40.1 L36.45 40.1 36.35 40.1 M35.1 39.9 Q35.85 40.0 35.1 40.0 L35.1 39.9 M35.1 38.3 Q35.8 39.15 35.1 38.45 L35.1 38.3 M31.5 38.55 L31.5 38.3 Q32.4 37.95 31.9 38.95 L31.9 39.15 31.8 39.25 Q31.45 39.45 31.5 39.15 L31.5 38.95 31.35 38.85 31.25 38.55 31.5 38.55 M32.65 40.9 L33.05 41.0 33.05 41.1 33.15 41.1 Q32.85 41.9 32.65 41.1 L32.65 40.9 M34.4 41.0 L34.45 41.1 34.45 41.3 34.4 41.45 Q34.05 41.65 34.05 41.3 L34.05 41.1 34.05 40.9 34.4 41.0 M32.5 43.5 L32.65 43.5 32.85 43.5 Q33.2 43.5 33.0 43.9 L32.85 43.9 32.75 43.95 Q32.7 44.25 32.3 44.1 L32.25 44.2 Q31.45 44.55 31.5 43.9 L31.9 43.75 32.1 43.7 32.1 43.5 32.3 43.5 32.5 43.5 M39.5 49.25 L39.5 49.15 Q40.55 49.25 39.5 49.25 M39.7 50.15 Q40.35 50.2 39.7 50.25 L39.7 50.15 M39.3 50.55 Q39.9 50.9 39.3 50.65 L39.3 50.55 M40.1 49.65 L40.05 49.55 Q40.7 49.85 40.1 49.65 M39.1 51.1 L39.1 50.9 39.25 51.15 39.3 51.3 39.25 51.5 39.1 51.7 39.1 51.9 39.1 52.1 39.1 52.3 39.0 52.5 38.9 52.75 38.8 52.85 38.5 52.95 38.45 53.05 37.65 52.95 37.55 52.85 Q37.15 52.5 37.25 51.7 37.95 51.3 38.9 51.15 L39.1 51.1 M40.05 51.3 L40.25 51.3 Q40.6 51.3 40.4 51.7 L40.25 51.7 40.25 51.85 39.7 51.9 39.55 51.9 39.5 51.5 39.7 51.5 39.7 51.3 40.05 51.3 M37.25 54.0 L37.25 54.15 37.25 54.35 Q37.6 54.3 37.5 54.7 L37.45 54.9 37.55 55.1 37.65 55.1 38.1 54.95 38.25 54.9 38.25 54.7 39.05 54.8 39.1 54.9 Q40.2 55.0 40.65 55.75 L40.65 55.9 Q41.0 55.9 40.8 56.3 L40.65 56.35 40.65 56.55 40.65 56.75 40.65 56.9 40.45 57.15 40.45 57.35 40.45 57.45 40.05 57.75 40.0 57.9 39.5 58.3 39.4 58.5 39.3 58.5 39.25 58.65 38.7 58.7 38.5 58.75 Q37.95 58.9 37.85 58.5 L37.7 58.5 Q37.5 58.3 37.45 57.95 L37.35 57.9 37.25 57.55 37.15 57.5 Q36.85 57.05 36.85 56.35 L36.85 56.15 36.85 55.9 37.05 55.9 37.05 55.7 37.05 55.55 36.85 55.3 36.75 55.3 36.65 55.1 36.55 55.1 36.45 54.35 36.65 54.35 36.65 54.15 36.85 54.15 36.85 53.95 37.25 54.0 M33.85 53.35 Q34.2 53.3 34.0 53.7 L33.85 53.75 33.65 53.75 Q33.35 53.75 33.45 53.35 L33.45 53.15 33.85 53.2 33.85 53.35 M34.8 53.25 Q34.45 53.45 34.45 53.15 L34.45 52.95 34.8 53.0 34.85 53.15 34.8 53.25 M31.5 55.3 L31.4 55.45 Q30.9 55.7 30.85 55.3 31.3 55.45 31.35 55.15 L31.5 55.1 31.7 54.95 31.9 54.9 31.9 54.7 32.25 54.8 32.3 54.9 32.25 55.1 Q32.1 55.5 31.5 55.3 M32.1 53.35 L32.1 53.15 Q33.0 52.95 32.75 53.9 L32.65 53.95 32.65 54.05 Q32.25 54.25 32.3 53.95 L32.1 53.85 32.1 53.75 31.95 53.7 31.9 53.35 32.1 53.35 M34.05 55.3 Q34.85 55.4 34.05 55.4 L34.05 55.3 M34.85 57.95 L35.3 57.75 35.5 57.75 36.05 58.3 36.1 58.5 36.05 58.7 35.9 58.9 Q35.8 58.9 35.75 59.0 L35.1 59.1 34.9 59.1 34.85 58.9 34.75 58.9 34.65 58.5 34.65 58.3 34.65 57.95 34.85 57.95 M33.65 57.15 Q34.4 57.25 33.65 57.25 L33.65 57.15 M31.7 56.95 L31.7 56.75 31.7 56.55 32.0 56.6 32.1 56.75 32.1 56.95 Q33.15 57.05 32.25 57.3 L32.1 57.35 31.9 57.35 31.7 57.35 31.25 57.35 31.05 57.35 30.65 57.35 30.65 57.45 30.05 57.55 30.1 57.75 Q30.2 58.15 29.85 58.15 L29.65 58.15 29.6 58.3 29.05 58.9 29.05 59.1 Q29.65 59.3 29.25 59.5 L29.05 59.55 28.85 59.55 28.7 59.55 Q28.6 60.25 29.05 60.5 L29.25 60.55 29.25 60.35 29.45 60.35 29.65 60.35 29.65 60.15 29.65 59.95 29.85 59.95 30.05 59.95 Q30.4 59.9 30.2 60.3 L30.05 60.35 30.05 60.55 30.15 60.7 Q30.55 61.25 29.85 61.55 L29.85 61.65 29.45 61.75 29.45 61.9 29.6 62.0 29.65 62.1 29.65 62.3 Q29.45 62.8 29.45 62.1 L29.3 62.1 29.25 61.9 29.25 61.85 28.85 61.35 28.8 61.35 Q28.65 60.45 28.3 59.95 L28.1 59.95 27.85 59.95 27.65 59.95 27.65 60.05 27.05 60.35 27.3 60.65 27.45 60.75 27.6 60.95 27.65 61.15 28.0 61.2 28.1 61.35 28.1 61.55 28.0 61.75 27.85 61.9 27.85 62.1 27.85 62.3 27.8 62.5 27.65 62.7 27.65 62.85 27.05 62.9 Q26.95 63.75 27.65 63.85 L27.65 63.95 27.8 64.15 27.85 64.35 27.8 64.5 27.65 64.75 27.5 64.7 26.65 63.95 26.45 63.95 26.05 63.95 25.85 63.95 24.25 64.55 24.25 64.65 23.45 64.75 23.35 64.75 23.35 64.85 22.65 64.95 Q21.7 65.0 21.25 64.55 L20.55 64.05 20.05 62.7 19.95 62.7 19.45 61.75 19.65 61.7 19.65 61.55 19.55 61.5 19.45 61.35 20.0 60.7 20.05 60.55 20.0 60.35 19.85 60.15 20.0 60.05 20.05 59.95 19.9 59.9 19.65 59.75 19.45 59.75 19.25 59.75 19.05 59.75 19.05 59.95 19.0 60.05 18.65 60.35 18.65 60.75 18.65 60.95 18.65 61.05 18.05 60.95 17.95 60.9 17.85 60.15 18.25 60.15 18.45 60.15 18.45 59.95 18.3 59.9 17.7 59.3 17.7 59.55 17.6 59.65 17.25 59.75 17.15 59.7 17.05 59.3 17.25 59.3 17.25 59.1 17.5 59.1 17.5 58.9 17.85 58.9 18.05 58.9 18.25 58.9 18.25 58.7 18.45 58.7 18.65 58.7 19.05 58.8 19.05 58.9 19.45 59.0 19.45 59.1 19.8 59.2 19.85 59.3 20.05 59.3 20.45 59.3 20.65 59.3 20.65 59.1 20.45 59.1 20.3 59.1 20.05 58.7 19.85 58.75 Q19.55 58.75 19.65 58.3 L19.8 58.3 19.85 58.15 19.85 57.95 20.2 58.0 20.25 58.15 20.45 58.15 20.65 58.15 20.65 57.95 20.8 57.9 20.85 57.75 20.65 57.75 20.5 57.7 20.25 57.55 20.05 57.55 19.85 57.55 19.7 57.45 19.65 57.35 19.45 57.35 19.25 57.35 19.05 57.35 18.85 57.35 18.65 57.35 18.55 57.3 18.45 56.95 18.65 56.95 18.65 56.75 18.85 56.75 18.85 56.55 18.85 56.35 18.85 56.15 Q19.3 56.0 19.25 56.35 L19.25 56.55 19.45 56.55 20.0 56.95 20.05 57.15 20.25 57.15 20.45 57.15 20.65 57.15 20.85 57.15 20.85 56.95 20.85 56.55 21.0 56.55 21.1 56.75 Q21.75 57.6 22.15 56.95 L22.25 56.95 22.25 56.75 22.05 56.55 22.05 56.35 22.05 56.15 22.2 56.1 22.25 55.9 22.25 55.7 22.45 55.7 22.65 55.7 22.85 55.7 22.85 55.5 22.85 55.3 22.65 55.35 Q22.25 55.45 22.25 55.1 L22.1 55.1 21.85 54.7 21.65 54.7 21.5 54.5 22.25 54.6 22.25 54.7 22.65 54.8 22.65 54.9 22.85 55.0 22.85 55.1 23.25 55.4 23.25 55.5 23.45 55.5 23.65 55.5 23.85 55.5 24.05 55.5 24.05 55.3 24.25 55.3 24.5 55.3 24.5 55.5 24.6 55.5 23.45 56.35 23.45 56.75 23.45 56.95 Q23.55 58.85 24.05 60.35 L24.05 60.55 Q25.05 60.65 24.75 58.5 L24.7 57.35 Q26.75 56.45 29.05 55.75 L29.25 55.7 29.9 55.6 Q29.95 55.5 30.05 55.5 L30.25 55.5 30.45 55.5 Q31.1 55.55 30.65 55.7 L30.45 55.7 30.45 55.9 30.25 55.9 30.1 56.0 29.85 56.15 29.85 56.3 29.65 56.35 Q29.55 57.05 29.9 57.3 L30.05 57.35 30.05 57.15 30.25 57.15 31.05 57.15 31.25 57.15 31.5 57.15 31.7 57.15 31.7 56.95 M31.65 60.05 L31.7 60.15 Q32.0 60.2 31.8 60.7 L31.7 60.75 31.6 60.85 31.5 60.95 31.4 61.05 30.85 60.95 30.75 60.9 30.65 60.15 31.65 60.05 M39.9 58.45 L39.9 58.3 Q40.95 58.75 39.9 58.45 M35.7 57.25 L35.7 57.15 Q36.7 57.35 35.7 57.25 M29.65 50.9 L29.85 50.9 30.05 50.9 Q30.4 50.9 30.2 51.3 L30.05 51.3 29.95 51.4 Q29.25 52.25 29.05 51.1 L29.25 51.1 29.25 50.9 29.65 50.9 M28.2 52.1 L28.1 52.1 27.85 52.15 Q27.55 52.15 27.65 51.7 L27.85 51.7 28.1 51.7 Q28.4 51.7 28.2 52.1 M28.95 55.5 L28.85 54.9 29.25 55.0 29.25 55.1 29.05 55.1 29.05 55.3 29.05 55.5 28.95 55.5 M28.3 54.5 L28.4 54.5 28.5 54.35 28.6 54.35 Q28.6 55.05 28.3 54.5 M26.25 51.6 L26.25 51.7 26.25 51.85 Q25.85 52.05 25.85 51.7 L25.85 51.5 26.25 51.6 M25.4 49.95 L25.45 50.15 Q25.8 50.2 25.55 50.7 L25.45 50.75 25.45 50.9 25.45 51.1 Q25.8 51.1 25.65 51.55 L25.65 51.7 25.65 52.3 25.65 52.55 26.0 52.75 26.05 52.95 26.25 53.15 26.25 53.35 Q26.7 54.05 27.5 54.3 L27.65 54.35 27.6 54.45 Q26.8 54.95 26.25 54.7 L26.25 54.55 25.65 54.35 25.65 54.45 Q25.15 54.65 25.25 54.15 L25.1 54.15 Q24.65 54.25 24.7 53.95 L24.5 53.95 24.05 53.95 24.1 54.05 Q24.45 54.35 23.85 54.5 L23.8 54.6 23.05 54.5 23.3 54.35 23.45 54.35 23.45 54.15 23.25 54.15 23.05 54.15 22.85 54.15 Q22.35 54.25 22.45 53.75 L22.65 53.75 22.65 53.55 22.85 53.55 23.05 53.55 24.5 53.65 24.7 53.75 24.9 53.75 25.1 53.75 25.25 53.75 25.45 53.75 25.45 53.55 Q25.2 53.2 25.25 52.55 L25.45 52.55 25.45 52.3 25.45 52.1 25.35 52.1 25.25 51.7 25.25 51.5 25.25 51.3 25.25 51.15 Q25.0 50.75 24.9 50.15 L25.1 50.15 25.1 49.95 25.1 49.75 25.4 49.95 M20.25 50.55 Q21.05 50.65 20.25 50.65 L20.25 50.55 M22.45 52.1 L22.65 52.1 22.85 52.1 Q23.35 52.4 22.85 52.65 L22.85 52.55 22.75 52.5 22.45 52.1 M20.65 52.55 Q21.4 52.85 20.65 52.85 L20.65 52.75 20.5 52.65 20.25 52.55 20.1 52.5 20.05 52.3 19.9 52.3 19.85 52.1 20.2 52.2 20.25 52.3 20.4 52.4 20.45 52.55 20.65 52.55 M21.65 53.35 Q22.7 53.8 21.7 53.45 L21.65 53.35 M21.1 52.95 Q22.1 53.4 21.1 53.05 L21.1 52.95 M20.45 55.5 L20.6 55.75 20.65 55.9 20.65 56.15 Q21.15 56.35 20.65 56.45 L20.65 56.35 20.55 56.3 20.45 55.9 20.35 55.9 20.05 55.3 20.4 55.4 20.45 55.5 M24.5 53.35 Q25.25 53.15 24.5 53.45 L24.5 53.35 M29.65 62.9 L29.65 62.7 29.65 62.5 29.85 62.75 29.85 62.9 30.05 63.0 30.05 63.15 30.25 63.35 30.25 63.55 Q30.6 63.5 30.4 63.9 L30.25 63.95 30.25 64.05 Q29.85 64.25 29.85 63.95 L29.85 63.75 29.75 63.7 29.65 63.35 29.85 63.35 29.85 63.15 29.75 63.1 29.65 62.9 M37.05 62.8 L37.05 62.7 Q37.85 62.8 37.05 62.8 M31.75 66.1 L31.7 65.7 31.7 65.55 32.0 65.6 32.1 65.7 32.2 65.75 Q32.3 66.65 31.9 66.1 L31.75 66.1 M30.85 64.55 L31.45 64.65 31.5 64.75 Q31.8 64.7 31.6 65.1 L31.5 65.15 31.4 65.25 Q31.05 65.45 31.05 65.15 L30.95 65.1 30.85 64.55 M15.7 51.65 L15.65 51.5 Q16.45 51.9 15.7 51.65 M17.5 54.7 L17.35 54.7 17.25 54.35 17.5 54.35 17.7 54.35 Q18.1 54.2 17.95 54.5 L17.85 54.5 17.85 54.7 17.8 54.85 Q17.45 55.05 17.5 54.7 M16.05 54.45 L16.05 54.35 Q16.8 54.45 16.05 54.45 M19.7 53.65 L19.65 53.55 Q20.3 54.05 19.7 53.65 M17.9 53.25 L17.85 53.15 Q18.65 53.55 17.9 53.25 M19.65 54.7 L19.65 54.55 19.45 54.35 Q19.9 54.2 19.9 54.5 L19.85 54.7 19.95 54.7 Q19.85 55.2 19.65 54.7 M11.25 52.1 L11.25 51.9 11.45 51.9 11.65 51.9 Q12.5 51.8 12.0 52.3 L11.85 52.3 11.7 52.4 10.65 52.3 11.05 52.15 11.25 52.1 M14.25 58.15 Q14.6 58.15 14.35 58.5 L14.15 58.5 14.1 58.15 14.25 58.15 M11.25 58.3 L11.45 58.3 11.65 58.3 12.05 58.4 12.05 58.5 12.15 58.55 Q12.2 58.9 11.65 58.7 L11.45 58.7 11.25 58.5 11.25 58.3 M12.45 57.95 L12.45 58.15 12.4 58.25 Q12.05 58.45 12.05 58.15 L11.95 58.1 11.85 57.75 12.05 57.75 Q12.5 57.6 12.45 57.95 M20.05 56.75 Q20.85 56.85 20.05 56.85 L20.05 56.75 M18.25 57.75 L18.45 57.75 Q18.8 57.7 18.55 58.1 L18.45 58.15 18.3 58.1 18.05 57.75 18.25 57.75 M16.5 58.45 L16.45 58.3 Q17.25 58.7 16.5 58.45 M16.2 57.65 L16.25 57.75 16.25 57.95 Q16.2 58.75 15.25 57.75 L15.5 57.55 15.65 57.55 16.2 57.65 M16.2 59.3 L16.05 59.55 16.0 59.65 Q15.65 59.9 15.65 59.55 L15.65 59.3 15.85 59.3 15.85 59.1 15.85 58.9 16.2 59.0 16.25 59.1 16.2 59.3 M16.9 58.85 L16.85 58.7 Q17.6 59.2 16.9 58.85 M9.85 54.9 Q10.65 55.0 9.85 55.0 L9.85 54.9 M9.6 54.45 Q9.1 54.65 9.25 54.15 L9.45 54.15 Q9.9 54.0 9.8 54.3 L9.65 54.35 9.6 54.45 M6.45 58.6 L6.45 58.5 Q7.25 58.6 6.45 58.6 M19.9 63.85 L19.85 63.75 20.15 63.9 20.1 63.9 19.9 63.85 M14.1 62.5 L14.0 62.65 Q13.65 62.85 13.65 62.5 L13.65 62.3 13.9 62.3 13.9 62.1 Q14.4 62.0 14.15 62.5 L14.1 62.5 M19.55 64.7 L19.5 64.9 Q19.25 65.0 19.25 64.75 L19.15 64.7 19.05 64.35 19.25 64.35 19.25 64.15 19.8 64.2 19.75 64.4 19.8 64.6 19.55 64.7 M14.85 62.7 Q15.45 62.65 15.15 63.3 L15.05 63.35 14.95 63.3 14.85 62.9 14.85 62.7 M13.45 63.35 L13.65 63.35 Q14.0 63.3 13.8 63.7 L13.65 63.75 13.45 63.75 13.25 63.75 13.05 63.75 13.0 63.85 12.65 64.15 12.6 64.25 12.25 64.35 12.15 64.3 12.05 63.95 12.25 63.95 12.65 63.75 12.85 63.75 12.85 63.55 13.05 63.55 13.25 63.55 13.25 63.35 13.45 63.35 M17.7 69.15 Q18.45 69.2 17.7 69.2 L17.7 69.15 M15.45 70.85 L15.45 70.75 Q16.2 70.85 15.45 70.85 M71.9 59.75 L72.25 59.8 72.3 59.95 72.25 60.1 Q71.95 60.65 71.9 59.95 L71.9 59.75 M66.35 50.85 L66.25 50.75 Q67.05 51.2 66.35 50.85 M60.9 55.5 L60.85 55.65 Q60.45 55.85 60.5 55.5 L60.5 55.3 60.5 55.1 60.5 54.9 60.85 55.0 60.9 55.1 Q61.2 55.1 61.0 55.5 L60.9 55.5 M65.1 54.7 L65.3 54.7 Q65.6 54.8 65.4 55.3 L65.2 55.3 65.1 54.7 M64.7 54.05 L64.7 53.95 Q65.3 54.3 64.7 54.05 M63.9 57.15 L63.75 57.1 63.7 56.55 63.9 56.55 Q64.6 56.55 64.05 57.05 L63.9 57.15 M61.7 56.95 Q62.45 57.35 61.7 57.05 L61.7 56.95 M61.3 56.45 L61.3 56.35 Q62.0 56.75 61.3 56.45 M67.2 60.9 L67.8 61.25 67.25 60.95 67.2 60.9 M55.25 49.75 Q55.6 49.7 55.4 50.1 L55.25 50.15 55.25 50.25 54.85 50.35 54.75 50.3 54.65 49.95 54.85 49.95 54.85 49.75 54.85 49.55 55.25 49.6 55.25 49.75 M53.5 50.75 L53.7 50.75 53.9 50.75 Q54.2 50.7 54.0 51.1 L53.9 51.1 53.85 51.3 53.3 51.9 53.3 52.1 53.25 52.25 Q52.85 52.45 52.9 52.1 L52.9 51.9 52.75 51.9 52.7 51.3 52.9 51.3 52.9 51.1 53.0 51.1 53.1 50.9 53.1 50.75 53.3 50.75 53.5 50.75 M55.15 52.05 L55.15 52.1 54.85 52.2 54.85 52.1 55.15 52.05 M50.7 51.5 L51.05 51.6 51.05 51.7 51.05 51.85 Q50.65 52.05 50.7 51.7 L50.7 51.5 M50.8 53.05 L50.7 53.15 50.65 53.25 Q50.1 53.4 50.3 52.75 L50.7 52.65 50.7 52.75 Q51.0 52.7 50.8 53.05 M51.85 54.5 L52.25 54.6 52.25 54.7 52.25 54.9 Q52.15 55.8 51.65 55.3 L51.55 55.3 51.45 54.9 51.65 54.9 51.65 54.7 51.85 54.7 51.85 54.5 M60.1 56.95 Q60.4 56.9 60.2 57.3 L60.1 57.35 59.95 57.3 59.9 56.95 60.1 56.95 M60.7 56.75 Q61.0 57.55 60.7 56.9 L60.7 56.75 M59.25 58.3 L59.05 58.3 58.95 58.3 58.85 57.95 59.05 57.95 59.25 57.95 59.25 57.75 Q59.7 57.6 59.7 57.95 L59.7 58.15 60.05 58.2 60.1 58.3 60.05 58.5 Q59.6 58.95 59.25 58.5 L59.25 58.3 M48.25 50.45 L48.25 50.35 Q49.05 50.45 48.25 50.45 M49.15 51.9 L49.1 51.5 49.3 51.5 49.5 51.5 Q49.8 51.5 49.6 51.9 L49.5 51.9 49.3 51.9 49.15 51.9 M47.3 51.9 Q47.8 51.8 47.6 52.3 L47.45 52.3 47.45 52.5 47.3 52.55 47.25 52.65 Q46.6 52.9 46.7 52.3 L46.9 52.3 46.9 52.1 47.1 52.1 47.3 52.1 47.3 51.9 M44.05 51.7 L44.25 51.7 44.25 51.5 44.45 51.5 44.65 51.5 44.65 51.3 45.05 51.4 45.05 51.5 45.45 51.8 45.5 51.9 Q45.8 51.9 45.6 52.3 L45.5 52.3 45.45 52.5 45.05 52.75 45.05 52.85 Q44.65 53.05 44.65 52.75 L44.55 52.65 44.25 52.3 44.15 52.3 44.05 51.7 M42.7 53.65 Q42.4 53.4 42.5 52.75 43.1 52.3 43.6 52.75 L43.65 52.95 Q44.0 53.0 43.8 53.5 L43.65 53.55 43.6 53.65 43.5 53.75 43.45 53.85 Q42.95 54.05 42.9 53.75 L42.7 53.65 M42.9 54.9 L42.7 54.9 42.55 54.9 42.5 54.5 42.7 54.5 42.9 54.5 Q43.2 54.5 43.0 54.9 L42.9 54.9 M47.65 58.9 Q48.45 59.1 47.65 59.0 L47.65 58.9 M49.9 65.45 L49.9 65.35 Q50.65 65.45 49.9 65.45 M45.9 61.9 Q46.7 61.75 45.9 62.0 L45.9 61.9 M43.1 62.1 L43.1 61.9 43.3 61.9 43.5 61.9 Q43.8 61.9 43.6 62.3 L43.5 62.3 43.3 62.3 43.25 62.45 Q42.75 62.65 42.9 62.1 L43.1 62.1 M43.1 64.45 L43.1 64.35 Q43.5 64.85 43.1 64.45 M59.7 63.55 L59.7 63.35 60.05 63.4 60.1 63.55 60.1 63.75 60.05 63.85 Q59.65 64.05 59.7 63.75 L59.7 63.55 M60.15 72.45 L60.1 72.35 Q60.8 72.8 60.15 72.45" fill="#ff0000" fill-rule="evenodd" stroke="none"/>
    </g>
    <g id="sprite2" transform="matrix(1.0, 0.0, 0.0, 1.0, 0.0, 0.0)">
      <use ffdec:characterId="3549" height="379.05" transform="matrix(1.0, 0.0, 0.0, 1.0, 0.0, 0.0)" width="657.35" xlink:href="#shape3"/>
    </g>
    <g id="shape3" transform="matrix(1.0, 0.0, 0.0, 1.0, 0.0, 0.0)">
      <path d="M657.35 379.05 L0.0 379.05 0.0 0.0 657.35 0.0 657.35 379.05" fill="url(#gradient0)" fill-rule="evenodd" stroke="none"/>
    </g>
    <linearGradient gradientTransform="matrix(-0.4492, -0.3248, 0.1353, -0.1871, 328.7, 189.5)" gradientUnits="userSpaceOnUse" id="gradient0" spreadMethod="pad" x1="-819.2" x2="819.2">
      <stop offset="0.0" stop-color="#dea900" stop-opacity="0.4"/>
      <stop offset="1.0" stop-color="#de8400" stop-opacity="0.0"/>
    </linearGradient>
    <g id="sprite3" transform="matrix(1.0, 0.0, 0.0, 1.0, 0.0, 0.0)">
      <use ffdec:characterId="3695" height="149.6" transform="matrix(1.0, 0.0, 0.0, 1.0, 0.0, 0.0)" width="80.1" xlink:href="#shape4"/>
    </g>
    <g id="shape4" transform="matrix(1.0, 0.0, 0.0, 1.0, 0.0, 0.0)">
      <path d="M58.9 11.8 Q69.05 4.55 80.1 0.0 68.5 5.65 59.8 11.65 54.1 15.55 44.4 23.6 39.1 28.05 34.35 33.05 L36.45 30.65 Q40.0 26.6 42.9 24.35 L58.9 11.8 M22.5 47.4 Q13.65 59.85 8.45 70.7 1.55 84.95 1.55 95.05 1.55 103.1 2.5 106.8 3.85 112.05 9.0 120.2 13.4 127.1 22.35 132.8 L26.25 135.3 26.4 135.35 Q29.35 136.8 31.2 137.5 L33.85 138.4 36.35 139.05 31.8 136.85 27.7 134.35 24.15 131.35 Q19.3 127.1 14.7 119.75 7.7 108.4 7.7 96.5 7.7 91.05 8.65 85.85 9.75 79.8 11.85 75.8 L11.85 75.95 10.15 82.05 Q8.45 88.55 8.45 92.4 8.45 99.6 9.55 104.55 10.95 110.75 14.7 117.2 18.9 124.5 24.2 129.55 26.55 131.75 27.7 132.6 29.95 134.4 32.55 135.65 L38.25 138.4 41.05 139.35 Q42.05 139.65 42.65 140.05 L43.45 140.1 45.75 140.65 Q45.3 141.2 44.85 141.2 L43.7 141.15 43.8 141.55 43.25 142.8 42.6 143.95 42.4 145.2 Q42.25 145.9 41.9 146.05 L41.35 147.65 41.4 147.8 41.15 148.7 40.75 148.85 40.65 148.95 40.7 149.1 40.65 149.45 40.55 149.6 40.4 149.6 37.85 148.2 36.65 147.5 35.7 146.95 35.15 146.6 Q32.7 145.25 31.2 144.2 L27.9 142.1 24.5 139.4 Q17.6 134.0 12.6 128.6 8.3 124.05 4.8 117.65 3.2 114.85 2.25 112.15 L1.7 110.05 Q0.0 105.2 0.0 98.9 0.0 86.25 5.2 74.35 9.8 63.95 20.75 49.1 L25.15 43.25 Q28.1 39.5 30.9 36.75 26.4 41.85 22.5 47.4 M34.35 139.55 L34.6 139.65 34.35 139.55" fill="#ff0000" fill-rule="evenodd" stroke="none"/>
    </g>
    <g id="sprite4" transform="matrix(1.0, 0.0, 0.0, 1.0, 0.0, 0.0)">
      <use ffdec:characterId="3693" height="284.2" transform="matrix(1.0, 0.0, 0.0, 1.0, 0.0, 0.0)" width="161.65" xlink:href="#shape5"/>
    </g>
    <g id="shape5" transform="matrix(1.0, 0.0, 0.0, 1.0, 0.0, 0.0)">
      <path d="M61.3 4.7 Q60.55 5.8 60.55 6.5 L60.65 7.6 Q61.45 7.5 61.45 7.05 61.45 6.1 61.8 5.45 L62.1 5.05 62.65 4.7 64.05 4.35 64.45 4.05 64.4 3.9 65.15 3.85 68.05 4.2 69.15 4.5 69.4 4.5 70.35 4.85 71.55 6.1 72.65 7.45 73.65 8.55 Q73.1 9.1 72.45 10.35 L71.75 11.85 Q71.75 12.45 72.95 12.9 L72.5 12.4 72.05 11.85 73.85 8.65 74.0 8.75 74.0 8.65 73.85 8.5 73.85 8.4 73.75 8.45 71.8 5.8 71.1 5.0 71.55 5.15 73.0 5.85 74.15 6.45 74.4 6.65 75.15 7.2 75.65 7.55 75.65 7.65 75.7 7.8 Q76.9 7.6 77.2 7.8 L78.8 8.75 80.4 10.1 80.3 10.3 Q79.8 10.8 79.8 11.15 L80.05 11.55 80.7 12.75 82.45 15.25 84.05 17.55 85.6 20.05 86.25 21.15 87.0 22.4 88.25 24.6 90.0 27.75 90.35 28.7 90.65 29.35 Q91.3 30.3 92.45 30.35 L93.5 30.45 93.3 33.0 90.05 35.4 88.8 31.3 88.6 33.05 88.5 36.4 88.25 36.5 88.15 36.6 86.25 37.45 85.85 37.6 85.8 37.5 85.6 33.9 85.45 32.05 85.1 30.25 84.05 24.7 Q82.6 19.8 81.75 17.85 L81.65 18.0 81.35 17.45 80.3 16.05 78.75 14.6 76.9 13.3 76.95 13.15 Q76.35 13.9 75.8 15.7 75.35 17.45 74.65 18.35 L72.85 20.95 72.7 21.2 72.35 21.55 Q71.6 22.2 70.75 22.2 69.95 22.2 69.55 21.3 69.25 20.55 69.25 19.65 69.25 18.9 69.5 18.35 L69.95 17.2 70.05 16.95 70.0 16.8 69.95 16.8 69.5 17.25 Q68.9 17.1 68.9 16.7 L69.0 16.1 69.25 15.4 69.35 14.95 69.3 14.95 69.3 14.85 69.25 14.7 69.2 14.75 69.1 14.75 69.0 15.4 Q68.7 15.8 68.3 15.8 67.85 15.8 67.85 15.4 L68.0 14.3 67.95 14.2 67.95 14.0 Q67.95 13.65 66.6 13.65 L66.45 13.65 65.65 13.45 Q64.1 13.45 63.85 13.95 L63.6 13.85 64.1 12.95 64.45 12.55 Q64.7 12.3 64.8 12.3 L65.65 12.1 66.25 11.85 Q64.5 11.25 63.4 13.5 L63.2 13.45 63.25 13.4 63.25 13.35 63.85 11.75 63.9 11.75 63.9 11.35 63.95 11.05 63.9 11.05 63.9 10.65 Q63.75 9.85 63.2 9.75 L62.0 9.6 60.25 9.95 Q59.0 10.1 59.0 11.45 L58.85 11.65 Q57.45 11.0 57.45 9.95 L57.65 9.05 57.7 8.65 57.5 8.05 Q57.1 8.2 56.6 8.5 L56.05 8.85 55.95 8.75 55.95 8.4 56.7 7.3 Q57.6 6.1 58.1 5.75 L59.1 5.05 59.75 4.7 59.8 4.7 60.45 4.4 60.5 4.35 61.25 4.25 61.3 4.7 M65.9 7.0 L65.85 6.9 65.1 7.4 64.35 7.9 63.5 8.35 62.8 8.8 62.8 8.75 62.8 8.6 62.85 8.4 62.8 8.4 62.9 7.5 Q63.1 6.9 64.05 6.6 L64.95 6.3 64.85 6.1 64.05 6.1 Q62.6 6.5 62.4 7.25 L62.15 8.65 62.25 9.2 62.45 9.05 62.5 8.65 62.5 8.7 62.5 8.8 Q62.5 9.2 62.75 9.2 L63.5 8.7 64.45 8.25 Q65.9 7.35 65.9 7.0 M92.45 38.95 Q93.05 36.15 93.8 33.4 L94.15 32.55 93.95 32.45 94.6 28.45 94.45 28.5 94.7 28.0 95.0 28.0 95.25 27.85 96.2 27.7 97.85 27.75 99.1 27.55 100.75 28.0 101.35 27.85 101.65 27.95 Q102.0 28.1 102.15 28.4 L102.5 28.8 Q103.45 29.6 104.0 30.8 L104.2 30.9 106.3 33.0 108.7 36.05 109.95 37.9 109.4 37.45 Q106.1 34.95 102.4 33.05 L100.15 32.0 100.15 32.2 99.05 33.0 Q95.5 35.7 92.55 39.1 L92.45 38.95 M118.95 28.45 L119.15 28.3 120.05 29.35 122.95 35.6 122.75 35.65 124.15 39.25 124.15 39.3 119.7 33.6 Q118.7 32.4 118.15 30.95 L117.85 30.95 116.9 29.7 114.7 27.3 114.85 27.0 118.95 28.45 M41.1 65.65 L41.75 63.65 Q42.25 61.7 43.25 59.6 L43.8 58.4 45.65 55.25 47.75 52.1 49.3 50.2 49.35 50.0 49.1 49.6 49.0 49.75 46.0 48.85 Q46.4 47.6 47.15 46.45 L48.6 44.6 50.1 43.3 50.95 42.7 52.55 43.25 Q53.6 43.65 54.45 44.25 L54.15 44.5 55.1 44.3 54.95 44.2 Q57.2 42.45 59.7 41.05 L63.05 39.15 67.3 41.5 Q65.4 42.0 63.65 43.1 L61.85 44.45 Q55.9 48.9 51.85 55.15 L49.7 58.4 48.35 60.65 48.35 60.7 Q46.4 64.0 44.9 67.85 42.7 73.55 41.45 80.45 L41.45 80.6 41.35 80.6 40.8 80.35 40.1 78.6 40.0 78.7 39.95 78.65 39.95 78.6 39.85 78.15 39.9 77.9 39.9 77.0 39.8 74.65 Q39.8 71.35 41.1 65.65 M36.45 87.45 L36.1 88.05 37.05 87.6 38.5 84.75 39.95 82.0 40.5 81.05 40.55 81.25 40.6 81.05 40.75 81.15 41.0 81.55 41.15 82.0 41.45 82.05 42.0 82.7 42.9 83.25 43.75 83.75 43.9 83.8 43.85 84.25 43.6 84.75 41.95 87.35 39.3 89.95 36.9 91.65 Q35.6 92.65 34.7 93.9 33.75 95.2 33.35 96.8 33.0 98.25 33.3 99.7 L33.2 99.75 32.9 98.9 33.0 98.7 32.8 98.2 32.65 98.45 31.85 97.15 34.7 90.7 34.05 91.85 Q34.1 90.0 34.95 88.4 L35.25 87.95 36.15 87.3 36.45 87.45 M19.6 130.3 L20.6 127.45 21.4 124.95 22.95 120.3 23.5 118.4 23.95 117.0 25.9 110.35 27.1 106.25 27.85 104.2 28.25 103.4 27.9 103.35 28.2 102.5 28.7 101.4 29.4 100.6 30.55 100.85 31.3 101.1 30.8 102.0 Q30.5 101.3 29.7 101.55 L30.2 102.55 30.3 103.1 30.25 103.2 30.5 103.55 30.6 103.95 Q30.8 104.7 31.55 105.75 L32.05 106.5 31.9 106.5 Q31.35 106.55 30.8 107.05 L30.25 107.75 29.75 108.45 29.15 109.95 28.45 112.8 Q28.0 113.75 27.7 114.85 L27.45 115.8 27.0 117.7 26.85 118.45 26.75 118.75 25.8 121.65 25.35 123.2 23.85 127.45 23.8 127.5 22.8 129.95 21.25 133.3 17.85 139.1 Q15.7 142.65 15.2 144.5 L14.95 144.45 19.7 130.3 19.6 130.3 M93.55 68.5 L97.8 67.3 100.1 66.8 102.4 66.45 106.5 66.2 110.4 66.25 110.4 66.35 112.65 66.5 112.65 66.6 114.7 66.7 115.55 68.0 116.2 68.75 116.2 68.85 116.45 69.2 116.2 69.1 115.9 69.05 115.65 69.1 115.35 68.9 114.55 68.7 113.3 68.5 108.4 68.35 105.25 68.65 102.0 69.2 99.0 70.05 93.8 71.5 88.6 73.25 Q85.3 74.3 84.5 74.75 L80.15 76.9 Q77.6 77.9 75.7 79.25 74.6 80.25 73.6 80.7 L72.45 81.1 72.2 81.2 72.0 81.4 71.2 80.05 70.75 79.3 71.1 79.05 71.85 78.4 72.7 77.7 74.35 76.85 76.35 75.85 78.15 74.95 79.9 74.0 81.8 73.1 85.7 71.55 Q88.1 70.45 89.65 70.0 L91.65 69.2 93.55 68.5 M68.65 38.15 L68.75 38.15 70.5 38.45 70.95 38.6 72.35 39.0 73.45 39.35 Q71.15 39.65 69.0 41.4 L68.95 41.25 68.7 41.05 69.0 41.4 68.6 41.7 68.15 41.45 63.9 39.1 65.5 38.05 66.2 37.75 68.15 37.9 Q68.5 37.95 68.65 38.15 M65.15 92.65 Q62.4 85.75 62.4 85.1 L62.5 84.35 62.75 84.05 62.9 84.1 Q63.1 83.95 63.5 84.1 L64.8 83.05 Q65.9 81.8 66.05 80.5 L66.4 76.6 66.1 73.3 66.05 73.1 66.0 73.3 65.75 72.3 Q65.2 70.45 64.7 70.1 L65.15 69.75 65.9 69.3 Q66.6 70.5 67.1 72.85 67.5 75.1 67.5 77.4 L67.2 80.4 66.3 84.55 65.9 86.4 65.65 88.15 65.35 91.85 65.4 92.55 65.15 92.65 M73.1 114.95 L74.05 115.25 83.6 115.95 93.25 116.3 93.5 116.45 93.45 116.35 93.4 116.3 93.45 116.3 95.2 116.3 101.55 115.9 Q106.05 115.3 108.9 114.4 109.75 114.05 113.75 113.35 L116.1 112.75 116.6 112.5 116.65 112.5 116.85 112.4 116.9 112.4 116.9 112.45 117.2 112.45 117.3 112.8 117.75 114.1 117.7 114.1 116.6 114.4 116.25 114.5 Q114.7 114.8 114.4 115.1 L113.9 115.35 112.95 115.75 111.6 116.2 111.2 116.3 109.45 116.85 106.8 117.3 96.05 118.15 91.5 118.2 87.05 118.1 82.65 117.7 79.1 117.3 78.45 117.25 76.2 117.2 74.45 116.95 72.55 117.15 72.45 117.15 70.55 116.6 69.6 116.05 69.5 116.0 68.1 115.45 68.0 115.4 66.7 115.0 66.9 113.8 Q67.0 112.9 67.45 112.9 L67.5 112.9 67.5 112.8 67.4 112.8 67.75 112.9 68.15 113.05 68.15 113.0 68.3 113.1 68.5 113.25 69.35 113.7 70.25 114.0 72.15 114.6 73.1 114.95 M83.95 102.0 L89.45 102.95 96.0 104.3 101.2 105.2 101.4 105.2 102.2 105.3 102.3 105.2 102.45 105.05 102.5 105.0 Q104.0 103.85 105.25 103.0 L105.15 103.35 104.8 105.05 103.75 108.4 101.7 115.05 101.75 115.35 96.3 115.8 93.05 115.8 85.15 104.6 83.6 102.7 83.95 102.0 M138.5 19.95 Q138.35 18.05 139.0 16.35 L139.55 14.7 Q139.9 13.75 140.85 13.55 L141.35 13.75 Q141.95 14.25 141.7 15.1 L141.5 15.3 141.35 15.3 141.05 15.05 140.55 15.05 140.3 15.3 138.65 19.95 138.5 19.95 M134.65 15.1 L134.5 15.5 132.1 15.95 Q130.75 18.6 130.85 21.6 129.85 19.9 130.45 18.05 L130.8 17.1 131.4 15.6 134.65 15.1 M137.4 12.25 L136.95 12.45 136.25 13.8 135.85 15.0 Q135.15 18.2 134.8 21.4 L134.15 17.35 Q135.1 16.4 135.15 15.0 L134.8 14.7 135.7 13.35 136.8 12.15 Q137.35 11.7 138.05 11.8 L138.2 11.9 138.25 12.9 137.4 12.25 M130.35 24.25 Q130.2 23.55 129.7 23.9 L129.35 24.15 Q128.55 26.8 129.45 29.35 127.65 27.75 128.6 25.4 129.1 24.3 128.8 22.95 L129.75 23.0 130.45 24.25 130.35 24.25 M133.3 63.85 L132.9 62.35 Q132.25 60.05 131.2 57.8 L129.85 55.05 128.35 52.35 132.35 47.7 132.5 47.45 133.3 46.3 133.9 45.25 135.05 43.05 136.15 40.8 137.25 37.85 137.5 37.0 137.55 36.55 139.35 38.3 139.45 39.35 Q139.5 40.65 139.1 41.8 L138.7 43.05 137.05 47.7 136.6 48.9 136.6 48.95 Q133.6 56.95 133.6 63.55 L133.6 63.9 133.3 63.85 M144.15 18.75 L144.55 18.3 145.5 19.6 144.8 21.5 144.0 22.0 144.6 20.75 144.15 18.75 M114.6 224.75 L114.65 225.7 114.75 223.35 115.05 220.5 115.15 218.7 115.3 214.75 115.1 211.35 116.35 211.05 118.65 210.6 119.05 210.5 119.5 210.4 121.7 209.75 129.25 207.95 130.2 207.95 Q130.1 208.5 130.25 208.8 L130.2 208.8 Q127.8 210.85 126.1 214.0 L125.85 214.45 124.65 217.1 123.6 219.75 123.35 220.45 Q122.75 221.95 122.3 223.75 L121.9 225.15 121.55 226.9 Q121.1 229.35 121.1 231.05 L121.15 232.35 118.3 232.4 115.5 232.35 115.45 232.35 115.2 232.25 115.2 232.05 115.05 232.15 114.85 232.15 114.8 232.15 114.65 232.1 114.6 232.1 114.45 232.0 114.4 231.9 114.35 232.0 113.75 231.55 113.85 231.5 114.15 229.4 Q114.55 226.4 114.45 224.75 L114.6 224.75 M45.05 203.65 L45.25 203.4 45.7 202.5 Q46.0 201.4 46.55 200.65 L46.6 200.7 47.3 200.9 48.9 201.5 Q49.85 201.8 50.35 202.25 50.9 202.75 51.9 203.1 52.4 203.2 53.1 203.7 L54.5 204.5 54.65 204.55 57.95 205.7 59.65 206.2 59.9 206.3 61.35 206.85 Q62.0 207.0 64.3 208.05 L64.55 208.15 64.55 208.2 66.95 209.15 66.9 209.45 62.25 209.55 57.1 210.45 Q55.6 210.6 53.6 211.5 L51.05 212.9 Q46.8 215.65 45.15 218.25 42.1 222.85 41.1 228.85 L41.2 228.85 41.2 229.05 Q39.05 228.2 38.1 227.6 L38.05 227.6 37.9 227.6 37.35 227.15 37.3 227.05 Q36.3 226.15 36.3 225.2 36.3 224.5 37.55 221.45 L38.95 218.35 40.45 214.85 41.85 211.3 Q42.25 209.85 43.2 207.75 L44.65 204.35 45.05 203.65 M142.4 259.65 L143.15 259.55 146.25 259.05 146.35 259.0 146.8 259.0 Q147.05 258.8 147.25 258.75 L147.7 259.05 150.05 260.45 151.0 261.25 152.15 261.95 154.9 263.25 155.85 263.85 157.15 264.75 158.1 265.45 157.2 265.45 157.25 265.65 156.0 265.5 148.05 264.65 147.35 264.7 146.75 264.8 146.65 264.8 146.3 264.8 Q146.1 264.85 146.05 264.95 L145.7 265.1 145.2 264.9 144.8 264.85 140.3 265.3 136.2 266.1 134.25 266.4 132.95 266.7 132.3 267.2 131.2 267.3 129.3 268.05 128.0 268.6 127.85 268.5 127.7 268.75 127.7 268.8 127.25 269.15 126.9 269.3 126.1 269.5 125.7 269.9 125.1 269.15 124.2 268.1 123.15 266.95 122.45 265.95 121.0 263.75 120.25 262.7 119.75 262.15 119.85 262.05 120.25 261.8 120.8 261.75 120.5 261.75 122.45 261.35 127.45 260.95 131.5 260.8 136.25 260.55 142.4 259.65 M124.5 238.0 L124.0 238.55 122.9 239.6 122.4 240.1 121.9 240.65 121.35 241.8 121.2 242.1 121.15 242.15 120.25 243.9 119.3 246.05 119.05 246.6 118.3 248.95 118.0 250.05 117.7 251.5 Q117.2 253.55 117.2 254.65 L117.25 256.05 117.45 256.1 117.4 256.15 117.35 256.15 114.45 256.05 114.45 255.9 114.15 255.95 Q113.9 255.95 113.8 255.7 L113.75 256.0 112.9 255.85 112.85 255.8 Q112.55 255.45 112.55 255.0 L112.8 252.3 113.05 249.65 113.55 244.3 114.1 239.5 114.15 238.85 114.2 237.55 117.7 237.05 119.65 236.9 124.05 236.6 126.65 236.7 Q126.0 236.85 125.15 237.5 L124.5 238.0 M23.65 143.55 L24.6 140.45 25.85 141.65 Q25.1 142.0 24.7 142.75 L23.8 144.15 23.65 143.55 M13.6 154.45 L14.6 155.45 7.0 165.0 6.6 165.6 3.1 170.1 3.05 170.15 1.3 172.75 Q2.85 167.1 5.1 163.95 5.7 163.0 7.15 161.5 L13.6 154.45 M39.8 222.35 L39.8 222.5 39.9 222.15 39.8 222.35 M30.85 256.85 Q29.15 256.65 27.95 255.9 L28.05 255.55 27.75 255.7 Q27.4 255.7 27.3 255.5 L27.25 255.45 Q26.1 254.5 26.1 253.55 26.1 252.3 28.8 246.45 L31.6 240.5 34.45 234.0 35.2 232.3 35.35 232.35 35.25 232.2 36.15 232.45 36.3 232.55 36.35 232.55 37.0 232.9 37.8 233.2 38.35 233.45 39.65 233.9 41.35 234.6 43.3 235.2 45.25 235.7 46.8 236.2 46.85 236.6 Q43.3 237.5 40.2 240.8 L40.2 240.85 Q37.1 243.95 35.7 246.15 L35.65 246.2 Q31.55 252.55 31.25 256.9 L30.85 256.85 M30.35 263.15 L30.4 263.15 30.9 263.15 37.45 263.95 42.9 264.45 50.55 264.7 56.15 264.55 Q56.4 264.2 57.0 264.1 L57.65 264.1 58.1 264.5 59.55 264.45 62.4 264.5 62.8 264.5 62.8 264.65 62.85 264.65 63.55 267.4 63.8 268.7 63.95 268.65 64.2 270.75 64.2 271.05 63.8 270.45 63.75 270.35 63.9 270.15 63.85 270.05 Q63.6 269.75 62.1 269.35 L60.25 268.9 58.85 268.65 56.55 268.5 44.0 268.75 43.75 268.6 33.5 268.7 31.55 268.95 29.25 269.0 29.25 268.9 28.1 268.95 25.3 269.5 24.15 269.9 23.6 269.9 23.2 269.85 23.1 269.85 22.95 269.85 23.45 267.7 24.5 265.7 24.95 264.7 25.35 263.8 26.5 263.55 29.8 263.1 30.35 263.15 M113.95 251.75 L114.1 250.95 114.05 250.7 113.95 251.75" fill="#ffffff" fill-rule="evenodd" stroke="none"/>
      <path d="M72.75 3.4 L73.25 3.7 73.9 4.3 74.3 5.0 75.15 5.55 75.15 5.45 Q75.7 5.6 76.15 5.9 L76.65 6.15 76.55 6.25 76.65 6.4 77.1 7.35 78.3 7.85 80.25 9.05 Q80.5 9.0 80.7 9.25 L80.95 9.8 80.55 10.7 80.55 10.75 80.5 10.8 80.35 11.0 80.3 11.2 80.45 11.6 80.6 11.9 80.65 11.95 81.0 12.4 82.7 14.8 85.15 18.45 85.9 19.6 86.5 20.8 88.25 23.8 89.3 25.6 90.8 28.7 Q91.15 29.45 91.9 29.6 L93.95 28.65 94.05 28.15 Q94.3 27.35 95.1 27.3 L98.1 27.05 99.15 27.1 98.85 27.05 101.55 27.1 107.75 26.4 108.2 26.3 109.0 26.15 109.95 26.0 112.6 26.05 113.05 26.1 113.5 26.0 113.7 26.1 118.65 27.6 Q119.85 27.95 120.4 29.0 L121.5 31.15 Q123.15 34.7 124.35 38.4 L124.85 40.0 125.3 41.5 126.25 46.05 126.55 47.7 127.35 53.55 127.9 51.95 128.0 52.05 Q128.9 50.85 130.1 49.85 L131.9 47.7 132.0 47.55 133.3 45.45 134.6 43.05 Q136.15 40.5 137.05 37.65 L137.15 37.0 Q137.2 36.55 136.85 36.25 L134.0 34.45 Q132.75 33.8 131.6 32.95 L130.6 31.95 128.55 29.0 Q128.05 28.3 127.9 27.4 127.7 26.1 128.05 24.75 L128.35 23.5 128.65 22.45 Q129.8 22.4 130.35 23.3 L130.85 24.4 Q131.35 25.65 131.45 27.05 L132.85 28.05 Q133.15 26.55 132.35 25.15 L131.2 23.05 130.4 21.5 Q129.7 20.0 129.95 18.4 130.15 17.0 130.95 15.8 L131.5 15.2 Q131.85 14.95 132.25 14.8 L134.15 14.65 134.5 14.5 136.15 12.4 136.95 11.4 138.05 11.3 138.75 11.8 Q139.05 12.4 138.75 12.95 137.55 15.25 137.5 17.8 137.5 19.15 137.9 20.35 L138.2 21.05 Q137.8 17.75 139.05 14.65 139.3 14.05 139.85 13.65 140.25 13.35 140.8 13.3 L141.8 13.45 Q142.4 14.5 142.1 15.65 141.5 17.75 141.35 19.85 141.25 20.8 141.6 21.7 L141.85 22.0 Q142.5 22.45 143.3 22.4 L144.2 20.7 143.6 19.4 144.1 18.05 144.3 18.0 Q145.55 18.25 146.05 19.45 146.4 20.2 146.4 21.05 146.35 22.1 145.75 22.9 145.7 26.45 146.4 30.0 L147.0 33.95 146.95 34.6 146.5 37.0 146.0 39.05 145.2 43.05 145.2 43.1 144.5 47.15 144.4 47.7 144.35 48.05 143.0 53.65 Q141.7 58.5 139.65 63.1 L137.3 68.0 136.0 70.5 134.6 72.45 134.15 72.25 Q133.3 71.8 132.95 70.9 L131.55 71.4 131.5 73.1 131.75 73.2 131.4 73.55 128.1 73.3 126.7 72.95 Q125.1 72.35 123.35 71.95 L120.7 71.35 118.65 71.1 118.0 70.9 117.3 70.8 117.25 70.75 117.2 73.45 117.25 78.2 117.15 83.05 117.2 85.05 117.35 85.8 117.35 86.5 117.45 87.15 117.55 87.15 117.45 87.45 117.55 88.0 117.45 88.0 117.7 89.4 117.55 91.65 117.65 91.65 117.7 91.85 116.15 93.45 115.95 93.55 116.9 107.8 117.25 111.75 117.35 111.75 117.75 112.1 117.75 112.5 118.1 114.05 118.4 115.55 118.7 117.1 118.65 117.5 118.1 117.85 119.15 123.1 119.2 123.25 119.25 123.15 119.35 123.05 119.45 123.05 119.55 123.05 119.75 123.55 119.45 123.55 119.3 123.6 119.55 124.6 119.55 124.7 119.45 124.55 119.0 123.6 118.95 123.6 118.95 123.8 119.2 124.65 119.4 125.55 Q119.35 126.3 119.85 127.4 L120.55 129.15 121.4 132.8 Q121.6 134.75 122.6 136.45 L124.4 140.0 125.4 141.85 126.15 143.6 127.3 147.25 127.8 148.95 128.3 150.55 128.65 151.3 129.25 153.1 129.5 154.05 129.6 154.95 129.9 156.7 130.7 160.25 131.1 163.85 131.3 165.7 131.45 167.55 131.95 171.15 132.1 172.0 132.2 172.9 132.4 174.7 132.5 176.5 132.75 178.25 132.65 178.7 132.95 181.75 Q133.1 184.15 133.5 185.5 135.05 190.5 135.25 192.45 L135.25 192.65 135.35 192.6 135.45 192.4 135.55 193.15 135.55 193.9 Q135.55 195.6 137.05 198.4 L138.5 201.55 138.15 202.75 Q137.65 203.7 136.95 203.75 L136.9 203.75 136.9 203.85 137.15 203.75 137.3 204.65 138.3 207.1 138.85 208.75 139.45 210.4 139.75 211.2 139.95 212.05 140.5 213.75 141.75 217.05 144.1 223.75 Q144.55 224.3 144.8 225.0 L145.0 226.2 Q145.0 228.1 144.3 228.1 L143.95 228.1 143.95 228.15 143.35 228.4 143.4 228.4 143.8 229.1 144.15 230.5 145.15 233.05 147.1 238.2 Q149.4 245.55 149.4 248.55 L149.35 249.25 149.5 249.25 149.55 249.45 Q149.55 249.95 147.5 250.8 L145.9 251.45 146.55 254.7 146.6 254.9 146.65 255.05 146.65 255.1 146.7 255.15 146.95 256.05 146.95 256.0 147.1 256.85 147.2 257.8 Q147.35 258.4 148.2 258.75 149.5 259.2 150.5 260.15 152.05 261.45 155.3 262.95 L156.0 263.5 156.9 264.05 156.5 263.7 157.2 264.1 159.0 265.3 159.25 265.6 159.3 265.65 160.35 267.0 160.35 267.05 160.45 267.35 160.8 268.2 Q161.65 269.85 161.65 271.85 L161.65 272.0 161.65 272.3 161.55 273.85 161.3 275.8 161.3 276.85 161.6 276.65 161.45 277.55 160.85 277.8 158.95 278.15 156.65 278.5 150.6 279.8 144.15 281.45 141.2 282.05 132.1 282.45 131.75 282.55 128.45 282.35 127.9 282.15 125.0 281.75 125.05 281.9 125.05 282.0 124.75 281.75 124.2 281.7 124.15 281.25 124.2 281.25 124.0 281.0 123.4 279.9 121.75 277.8 118.4 273.5 117.0 271.3 115.45 269.2 Q113.6 265.65 113.6 265.0 L113.85 262.9 113.85 258.0 Q113.7 257.75 113.7 257.35 L113.75 256.6 113.5 256.55 113.7 256.8 113.4 256.9 112.8 256.65 112.55 256.5 112.35 256.45 112.35 256.3 112.15 256.0 Q112.0 255.7 112.0 255.05 L112.2 252.2 112.6 249.15 112.8 246.2 113.1 243.4 113.65 237.5 113.55 237.4 113.55 237.2 113.65 237.3 Q113.7 236.35 114.1 234.55 L114.15 234.1 114.1 233.0 114.15 232.55 113.8 232.4 113.5 232.2 113.55 232.7 113.4 232.55 113.2 232.5 113.25 231.85 113.15 231.5 113.35 230.6 113.7 226.25 114.35 215.15 114.25 212.2 114.05 210.75 113.85 209.85 113.7 209.85 Q112.0 209.85 111.85 207.9 L112.0 205.15 111.8 203.85 111.55 202.85 111.7 202.65 111.15 201.0 110.15 198.25 109.05 195.4 108.9 195.05 108.7 194.75 107.85 192.65 106.95 191.3 106.7 190.55 106.35 190.1 105.95 189.3 105.25 187.9 104.25 186.4 103.45 185.0 102.8 183.55 102.35 182.85 101.9 182.15 101.4 181.4 100.2 179.4 99.25 178.1 98.9 177.4 98.45 176.65 96.85 173.9 96.15 172.4 95.85 171.7 95.4 171.0 95.0 170.25 94.55 169.5 94.55 169.45 94.0 170.25 93.0 171.65 92.1 173.1 91.65 173.9 Q91.45 174.1 91.3 174.65 L89.1 178.9 86.2 184.15 Q86.2 184.65 85.4 185.8 L82.55 190.55 78.8 196.9 77.25 199.6 Q76.85 201.1 76.65 203.35 L76.5 204.7 76.2 206.1 75.3 207.5 Q74.5 208.2 73.25 208.3 L73.15 208.55 73.15 208.75 73.1 209.75 73.55 209.75 73.2 210.05 73.05 210.05 72.25 215.7 Q71.8 217.8 71.4 222.55 70.95 224.9 70.85 229.55 L70.75 232.95 70.1 236.4 69.6 237.05 69.3 237.45 69.05 237.7 68.95 237.75 68.9 237.7 67.1 237.45 67.3 240.7 67.4 244.5 67.1 250.7 66.95 253.85 66.95 256.8 66.7 260.6 Q66.5 261.5 66.0 262.0 L64.45 262.4 64.05 262.55 63.85 262.75 63.75 262.75 63.75 262.95 63.7 263.25 63.7 263.3 63.55 264.5 63.8 265.2 64.1 266.75 64.4 267.4 64.65 269.1 64.9 270.55 65.1 272.1 65.0 274.7 64.9 274.8 64.9 281.7 64.8 281.35 64.45 280.9 63.8 281.3 Q63.1 281.55 62.7 281.9 62.3 282.25 61.65 282.4 L59.45 282.75 56.4 283.2 52.5 283.6 50.65 283.9 44.85 284.2 40.25 283.95 36.55 283.65 36.55 283.55 27.15 282.55 25.15 282.25 22.3 281.9 21.9 281.75 Q21.45 281.5 21.5 281.0 L21.5 280.9 21.75 280.8 21.8 280.8 21.75 279.55 Q21.4 278.0 21.4 277.2 L21.3 273.3 21.7 273.15 21.6 272.15 21.75 271.65 22.05 270.2 22.3 269.1 22.65 267.55 22.75 267.25 22.75 267.2 22.95 266.8 23.1 266.7 24.45 264.0 24.3 264.0 24.2 263.75 Q24.2 263.55 24.65 263.3 L25.35 261.25 25.7 259.8 25.8 259.6 27.0 256.35 27.05 256.15 Q26.45 255.75 26.1 255.25 25.5 254.35 25.5 253.5 25.5 253.05 26.55 250.15 L27.95 246.85 31.0 240.25 34.0 233.6 34.7 231.9 35.55 230.3 36.55 228.5 36.95 227.85 36.75 227.6 36.0 226.4 Q35.65 225.95 35.65 225.3 35.65 224.0 37.9 218.9 L41.2 211.2 44.1 204.0 45.75 200.45 Q46.2 199.4 46.75 198.75 L47.05 197.7 47.1 197.6 47.05 197.45 46.65 196.35 Q46.65 195.6 47.55 194.25 48.3 193.1 49.0 192.55 49.05 192.4 49.75 192.2 L50.0 191.7 50.4 190.7 50.9 189.75 51.45 189.3 51.7 188.4 52.1 187.55 52.3 187.35 52.3 187.2 52.1 185.65 Q51.7 184.55 51.7 183.5 L52.05 181.35 52.3 180.25 53.35 177.15 53.65 176.55 53.95 176.05 54.3 175.0 54.95 172.85 55.3 171.8 55.45 170.75 55.7 168.6 56.0 167.6 56.1 167.15 55.9 166.7 55.8 166.6 55.65 166.25 55.25 165.2 54.55 163.95 Q54.55 163.6 55.05 162.65 L55.55 161.4 55.65 160.85 55.9 160.55 55.95 160.25 56.1 160.1 56.1 159.95 56.4 159.0 56.7 157.8 57.0 156.55 57.6 154.05 57.9 149.1 Q57.85 148.55 58.3 146.6 L58.4 146.25 58.3 146.25 Q58.2 146.0 58.7 145.4 L58.95 145.0 59.25 144.15 59.55 144.1 59.7 143.65 59.9 143.2 60.2 141.95 Q60.2 141.45 60.35 141.05 60.55 139.65 60.7 139.35 61.55 136.6 62.1 135.8 L63.0 134.05 63.75 132.7 63.65 132.35 63.8 132.15 63.8 131.45 63.8 131.3 63.85 131.4 64.5 129.25 65.3 126.75 66.5 120.7 66.65 119.95 65.75 119.3 65.7 118.65 65.85 116.8 66.0 115.15 66.25 113.85 Q66.35 112.8 66.6 112.4 66.95 111.8 67.55 112.25 L68.3 105.35 67.55 101.0 66.55 96.25 66.2 96.0 66.25 96.05 66.15 96.05 66.2 96.3 66.15 96.55 65.9 95.95 65.65 95.85 64.8 93.15 63.35 89.4 Q62.05 86.2 62.0 85.15 L62.0 85.05 62.1 84.25 Q62.25 83.7 62.7 83.55 L62.45 82.95 62.05 81.5 61.45 79.9 61.4 79.95 60.7 80.7 60.4 80.9 60.3 81.25 57.75 87.45 56.35 89.75 55.8 90.6 55.1 91.5 54.8 92.05 50.85 97.05 Q49.75 98.3 49.05 99.8 L48.1 101.9 Q46.25 106.0 43.75 109.9 L43.7 110.0 44.2 109.8 45.05 110.95 45.2 111.35 Q45.3 111.9 45.0 112.35 L43.95 113.5 42.85 114.7 39.4 118.75 34.55 124.35 32.0 127.45 24.8 137.3 24.6 138.55 24.2 139.35 24.0 139.7 24.2 140.1 Q24.75 139.6 25.3 140.2 L26.55 141.65 26.9 142.2 26.9 142.6 Q26.4 144.4 25.05 145.8 L24.65 146.55 25.0 147.6 Q25.3 148.1 25.15 148.65 L24.45 149.5 24.5 150.45 23.95 151.25 23.2 151.9 23.2 153.2 22.5 153.8 22.1 154.0 21.35 154.15 21.2 155.1 Q21.1 156.45 20.4 157.65 19.9 158.55 18.9 158.6 18.2 158.6 17.65 158.15 L17.25 158.65 16.6 159.25 Q16.25 159.5 15.9 159.25 L15.6 159.4 14.85 158.75 12.95 161.65 10.25 166.0 8.9 168.35 Q7.9 169.75 6.55 170.75 L1.05 174.8 1.0 174.85 0.7 175.05 0.65 175.1 0.55 175.1 0.5 175.1 0.4 175.05 0.2 175.3 0.0 175.25 0.25 174.75 0.2 174.6 0.55 173.55 0.6 173.35 0.55 173.1 0.6 173.1 1.15 171.1 2.1 168.55 Q2.95 165.75 4.7 163.55 L7.15 160.7 11.85 155.75 11.3 155.05 11.2 155.0 11.1 155.0 Q10.5 153.85 11.45 152.95 L12.65 151.75 Q12.25 150.65 12.55 149.5 L12.75 148.9 13.05 148.35 17.55 134.7 17.4 134.45 17.6 134.05 Q17.85 133.15 18.25 132.35 L18.9 130.7 20.0 127.45 20.35 126.15 Q21.25 124.0 22.95 118.1 L23.5 116.15 24.05 114.4 25.55 109.05 Q26.5 105.8 27.6 102.7 28.0 101.55 28.55 100.5 28.8 100.0 29.4 100.0 L31.55 100.5 32.05 99.25 31.3 97.05 33.65 92.45 Q33.45 91.4 33.7 90.2 L34.2 88.5 Q34.45 87.8 35.05 87.2 36.05 86.25 37.35 85.75 L38.0 84.4 39.0 82.3 Q39.6 81.15 40.4 80.5 L40.3 80.4 39.95 79.75 39.7 78.95 39.6 78.6 39.6 78.05 39.6 77.9 39.35 76.3 39.3 73.15 39.5 71.65 39.35 71.15 Q39.35 69.85 40.15 67.25 L40.35 66.2 Q41.35 61.6 42.2 59.25 L42.5 58.3 43.2 55.8 Q44.05 52.45 45.45 49.25 L45.4 49.05 45.3 49.05 45.25 49.05 45.25 49.0 45.4 48.65 Q46.1 46.7 47.5 45.0 L48.3 44.1 48.5 43.75 50.4 42.35 50.5 42.25 51.4 41.75 53.9 40.5 Q54.45 40.2 55.05 40.0 L55.75 39.7 Q56.4 39.3 57.15 39.15 L58.0 38.95 Q58.85 38.6 59.8 38.6 L60.2 38.4 60.65 38.35 Q62.25 38.05 63.6 38.95 64.85 37.5 66.7 37.25 L66.95 37.35 68.15 37.35 68.3 37.2 68.45 36.85 69.0 36.15 69.35 35.65 70.1 35.65 69.35 34.55 69.15 34.65 68.45 34.4 67.95 33.95 Q67.5 33.35 66.7 33.35 66.2 33.35 65.65 34.4 L65.35 34.85 64.7 35.4 Q64.15 35.4 63.9 34.85 L63.75 34.4 63.65 33.35 64.15 32.1 62.6 31.15 Q62.05 31.15 61.7 31.5 L61.3 31.85 Q60.65 31.85 60.2 30.7 59.8 29.7 59.8 28.85 L58.95 28.75 Q58.65 28.75 58.4 29.5 L57.75 30.15 Q56.95 30.15 56.95 29.15 L57.6 27.4 57.0 26.5 56.45 25.65 Q55.4 24.4 55.4 23.95 55.15 23.85 54.5 24.2 L53.6 24.6 52.9 24.15 52.8 23.65 Q52.8 23.15 52.95 22.8 L53.1 21.75 53.2 19.95 52.95 19.15 52.3 18.85 Q51.75 18.75 51.65 18.45 L51.4 17.75 51.25 16.95 51.55 16.25 51.4 15.8 Q51.25 15.6 51.25 15.25 L51.1 14.35 52.15 13.0 52.5 11.6 52.1 10.9 Q51.75 10.5 51.75 10.15 L51.55 8.75 Q51.55 7.75 52.35 7.45 53.25 7.1 53.4 6.45 L53.75 5.2 Q54.0 4.35 54.55 4.15 L54.5 4.25 54.9 3.75 Q55.55 3.0 56.85 2.85 L57.75 1.8 Q58.0 1.45 60.1 1.45 L61.6 0.4 63.9 0.45 64.85 1.5 65.3 1.55 65.85 1.65 66.3 1.85 67.0 2.05 Q67.5 2.05 67.7 1.65 L68.4 1.2 69.05 1.5 70.55 1.8 Q70.55 2.2 71.6 3.1 L72.75 3.4 M85.85 37.6 L86.25 37.45 88.15 36.6 88.25 36.5 88.5 36.4 88.6 33.05 88.8 31.3 90.05 35.4 93.3 33.0 93.5 30.45 92.45 30.35 Q91.3 30.3 90.65 29.35 L90.35 28.7 90.0 27.75 88.25 24.6 87.0 22.4 86.25 21.15 85.6 20.05 84.05 17.55 82.45 15.25 80.7 12.75 80.05 11.55 79.8 11.15 Q79.8 10.8 80.3 10.3 L80.4 10.1 78.8 8.75 77.2 7.8 Q76.9 7.6 75.7 7.8 L75.65 7.65 75.65 7.55 75.15 7.2 74.4 6.65 74.15 6.45 73.0 5.85 71.55 5.15 71.1 5.0 71.8 5.8 73.75 8.45 73.85 8.4 73.85 8.5 74.0 8.65 74.0 8.75 73.85 8.65 72.05 11.85 72.5 12.4 72.95 12.9 Q71.75 12.45 71.75 11.85 L72.45 10.35 Q73.1 9.1 73.65 8.55 L72.65 7.45 71.55 6.1 70.35 4.85 69.4 4.5 69.15 4.5 68.05 4.2 65.15 3.85 64.4 3.9 64.45 4.05 64.05 4.35 62.65 4.7 62.1 5.05 61.8 5.45 Q61.45 6.1 61.45 7.05 61.45 7.5 60.65 7.6 L60.55 6.5 Q60.55 5.8 61.3 4.7 L61.95 4.2 61.85 4.2 61.25 4.25 60.5 4.35 60.45 4.4 59.8 4.7 59.75 4.7 59.1 5.05 58.1 5.75 Q57.6 6.1 56.7 7.3 L55.95 8.4 55.95 8.75 56.05 8.85 56.6 8.5 Q57.1 8.2 57.5 8.05 L57.7 8.65 57.65 9.05 57.45 9.95 Q57.45 11.0 58.85 11.65 L59.0 11.75 59.0 11.45 Q59.0 10.1 60.25 9.95 L62.0 9.6 63.2 9.75 Q63.75 9.85 63.9 10.65 L63.9 11.05 63.95 11.05 63.9 11.35 63.9 11.75 63.85 11.75 63.25 13.35 63.25 13.4 63.2 13.45 Q62.6 14.65 62.6 15.45 L62.7 15.85 62.75 15.5 Q62.85 14.55 63.4 13.5 64.5 11.25 66.25 11.85 L65.65 12.1 64.8 12.3 Q64.7 12.3 64.45 12.55 L64.1 12.95 63.6 13.85 63.5 14.25 63.85 13.95 Q64.1 13.45 65.65 13.45 L66.45 13.65 66.6 13.65 Q67.95 13.65 67.95 14.0 L67.95 14.2 68.0 14.3 67.85 15.4 Q67.85 15.8 68.3 15.8 68.7 15.8 69.0 15.4 L69.1 14.75 69.2 14.75 69.25 14.7 69.3 14.85 69.3 14.95 69.35 14.95 69.25 15.4 69.0 16.1 68.9 16.7 Q68.9 17.1 69.5 17.25 L69.95 16.8 70.0 16.8 70.05 16.95 69.95 17.2 69.5 18.35 Q69.25 18.9 69.25 19.65 69.25 20.55 69.55 21.3 69.95 22.2 70.75 22.2 71.6 22.2 72.35 21.55 L72.7 21.2 72.85 20.95 74.65 18.35 Q75.35 17.45 75.8 15.7 76.35 13.9 76.95 13.15 L76.9 13.3 78.75 14.6 80.3 16.05 81.35 17.45 81.65 18.0 81.75 17.85 Q82.6 19.8 84.05 24.7 L85.1 30.25 85.45 32.05 85.6 33.9 85.8 37.5 85.75 37.55 85.7 37.55 85.6 37.65 85.85 37.6 M65.9 7.0 Q65.9 7.35 64.45 8.25 L63.5 8.7 62.75 9.2 Q62.5 9.2 62.5 8.8 L62.5 8.7 62.5 8.65 62.45 9.05 62.25 9.2 62.15 8.65 62.4 7.25 Q62.6 6.5 64.05 6.1 L64.85 6.1 64.95 6.3 64.05 6.6 Q63.1 6.9 62.9 7.5 L62.8 8.4 62.85 8.4 62.8 8.6 62.8 8.75 62.8 8.8 63.5 8.35 64.35 7.9 65.1 7.4 65.85 6.9 65.9 7.0 M65.05 14.9 L65.2 14.9 66.15 15.5 Q66.4 15.1 67.0 14.65 L66.55 14.35 66.15 13.85 Q65.6 14.05 65.15 14.75 L65.05 14.9 M64.55 16.4 L65.65 16.95 65.65 16.85 65.95 15.8 66.0 15.7 65.5 15.4 64.95 15.05 Q64.6 15.8 64.55 16.4 M66.8 15.25 L66.85 15.2 66.7 15.3 66.8 15.25 M67.55 14.05 Q67.1 13.8 66.65 13.8 L66.45 13.85 67.2 14.4 67.55 14.05 M66.4 15.6 L66.3 15.7 66.3 15.75 66.4 15.6 M65.65 17.25 L64.9 16.9 64.55 16.65 Q64.55 17.05 64.7 17.25 L65.0 17.65 65.65 17.45 65.65 17.25 M92.55 39.1 Q95.5 35.7 99.05 33.0 L100.15 32.2 100.15 32.0 102.4 33.05 Q106.1 34.95 109.4 37.45 L109.95 37.9 108.7 36.05 106.3 33.0 104.2 30.9 104.0 30.8 Q103.45 29.6 102.5 28.8 L102.15 28.4 Q102.0 28.1 101.65 27.95 L101.35 27.85 100.75 28.0 99.1 27.55 97.85 27.75 96.2 27.7 95.25 27.85 95.0 28.0 94.7 28.0 94.45 28.5 94.6 28.45 93.95 32.45 94.15 32.55 93.8 33.4 Q93.05 36.15 92.45 38.95 L92.3 39.3 92.55 39.1 M119.15 28.3 L118.95 28.1 118.95 28.45 114.85 27.0 114.15 26.7 114.7 27.3 116.9 29.7 117.85 30.95 118.15 30.95 Q118.7 32.4 119.7 33.6 L124.15 39.3 124.25 39.45 124.15 39.25 122.75 35.65 122.95 35.6 120.05 29.35 119.15 28.3 M41.1 65.65 Q39.8 71.35 39.8 74.65 L39.9 77.0 39.9 77.9 39.85 78.15 39.95 78.6 39.95 78.65 40.0 78.7 40.1 78.6 40.8 80.35 41.35 80.6 41.45 80.6 41.45 80.45 Q42.7 73.55 44.9 67.85 46.4 64.0 48.35 60.7 L48.35 60.65 49.7 58.4 51.85 55.15 Q55.9 48.9 61.85 44.45 L63.65 43.1 Q65.4 42.0 67.3 41.5 L63.05 39.15 59.7 41.05 Q57.2 42.45 54.95 44.2 L55.1 44.3 54.15 44.5 54.45 44.25 Q53.6 43.65 52.55 43.25 L50.95 42.7 50.1 43.3 48.6 44.6 47.15 46.45 Q46.4 47.6 46.0 48.85 L49.0 49.75 49.1 49.6 49.35 50.0 49.3 50.2 47.75 52.1 45.65 55.25 43.8 58.4 43.25 59.6 Q42.25 61.7 41.75 63.65 L41.1 65.65 M33.3 99.7 Q33.0 98.25 33.35 96.8 33.75 95.2 34.7 93.9 35.6 92.65 36.9 91.65 L39.3 89.95 41.95 87.35 43.6 84.75 43.85 84.25 43.9 83.8 43.75 83.75 42.9 83.25 42.0 82.7 41.45 82.05 41.15 82.0 41.0 81.55 40.75 81.15 40.6 81.05 40.55 81.25 40.5 81.05 39.95 82.0 38.5 84.75 37.05 87.6 36.1 88.05 36.45 87.45 36.7 86.9 36.15 87.3 35.25 87.95 34.95 88.4 Q34.1 90.0 34.05 91.85 L34.7 90.7 31.85 97.15 32.65 98.45 32.8 98.2 33.0 98.7 32.9 98.9 33.2 99.75 33.5 100.55 33.3 99.7 M41.0 80.95 L41.15 81.0 41.2 80.95 41.0 80.85 41.0 80.95 M41.5 81.0 L41.45 81.0 41.45 81.2 41.5 81.0 M15.2 144.5 Q15.7 142.65 17.85 139.1 L21.25 133.3 22.8 129.95 23.8 127.5 23.85 127.45 25.35 123.2 25.8 121.65 26.75 118.75 26.85 118.45 27.0 117.7 27.45 115.8 27.7 114.85 Q28.0 113.75 28.45 112.8 L29.15 109.95 29.75 108.45 30.25 107.75 30.8 107.05 Q31.35 106.55 31.9 106.5 L32.05 106.5 31.55 105.75 Q30.8 104.7 30.6 103.95 L30.5 103.55 30.25 103.2 30.3 103.1 30.2 102.55 29.7 101.55 Q30.5 101.3 30.8 102.0 L31.3 101.1 30.55 100.85 29.4 100.6 28.7 101.4 28.2 102.5 27.9 103.35 28.25 103.4 27.85 104.2 27.1 106.25 25.9 110.35 23.95 117.0 23.5 118.4 22.95 120.3 21.4 124.95 20.6 127.45 19.6 130.3 18.85 132.05 19.7 130.3 14.95 144.45 12.8 150.6 13.05 151.3 12.95 150.8 15.2 144.5 M93.55 68.5 L91.65 69.2 89.65 70.0 Q88.1 70.45 85.7 71.55 L81.8 73.1 79.9 74.0 78.15 74.95 76.35 75.85 74.35 76.85 72.7 77.7 71.85 78.4 71.1 79.05 70.75 79.3 71.2 80.05 72.0 81.4 72.2 81.2 72.45 81.1 73.6 80.7 Q74.6 80.25 75.7 79.25 77.6 77.9 80.15 76.9 L84.5 74.75 Q85.3 74.3 88.6 73.25 L93.8 71.5 99.0 70.05 102.0 69.2 105.25 68.65 108.4 68.35 113.3 68.5 114.55 68.7 115.35 68.9 115.65 69.1 115.9 69.05 116.2 69.1 116.45 69.2 116.2 68.85 116.2 68.75 115.55 68.0 114.7 66.7 112.65 66.6 112.65 66.5 110.4 66.35 110.4 66.25 106.5 66.2 102.4 66.45 100.1 66.8 97.8 67.3 93.55 68.5 M116.05 64.9 L115.95 65.05 116.05 65.05 116.05 64.9 M117.55 61.75 L117.4 61.75 117.4 61.8 117.55 61.75 M115.75 67.25 L115.8 67.3 115.8 67.25 115.75 67.25 M109.9 62.45 L109.0 62.5 110.05 62.45 109.9 62.45 M68.65 38.15 Q68.5 37.95 68.15 37.9 L66.2 37.75 65.5 38.05 63.9 39.1 68.15 41.45 68.6 41.7 69.0 41.4 68.7 41.05 68.95 41.25 69.0 41.4 Q71.15 39.65 73.45 39.35 L72.35 39.0 70.95 38.6 70.5 38.45 68.75 38.15 68.65 38.15 M42.7 59.4 L42.45 60.4 42.85 59.45 42.7 59.4 M49.7 81.1 L49.7 81.15 49.75 81.15 49.7 81.1 M61.9 75.15 L61.95 75.1 61.9 75.1 61.9 75.15 M61.15 78.45 L61.1 78.3 61.1 78.45 61.15 78.45 M65.4 92.55 L65.35 91.85 65.65 88.15 65.9 86.4 66.3 84.55 67.2 80.4 67.5 77.4 Q67.5 75.1 67.1 72.85 66.6 70.5 65.9 69.3 L65.15 69.75 64.7 70.1 Q65.2 70.45 65.75 72.3 L66.0 73.3 66.05 73.1 66.1 73.3 66.4 76.6 66.05 80.5 Q65.9 81.8 64.8 83.05 L63.5 84.1 Q63.1 83.95 62.9 84.1 L62.75 84.05 62.5 84.35 62.4 85.1 Q62.4 85.75 65.15 92.65 L65.45 93.45 65.4 92.55 M70.6 78.8 L70.55 78.75 70.55 78.85 70.6 78.8 M71.7 81.95 L71.75 81.9 71.7 81.9 71.7 81.95 M68.85 105.05 L68.85 105.5 68.9 105.5 68.85 105.05 M68.9 108.0 L68.9 107.7 68.7 109.1 68.9 108.2 68.9 108.0 M73.1 114.95 L72.15 114.6 70.25 114.0 69.35 113.7 68.5 113.25 68.3 113.1 68.15 113.0 68.15 113.05 67.75 112.9 67.4 112.8 67.5 112.8 67.5 112.9 67.45 112.9 Q67.0 112.9 66.9 113.8 L66.7 115.0 68.0 115.4 68.1 115.45 69.5 116.0 69.6 116.05 70.55 116.6 72.45 117.15 72.55 117.15 74.45 116.95 76.2 117.2 78.45 117.25 79.1 117.3 82.65 117.7 87.05 118.1 91.5 118.2 96.05 118.15 106.8 117.3 109.45 116.85 111.2 116.3 111.6 116.2 112.95 115.75 113.9 115.35 114.4 115.1 Q114.7 114.8 116.25 114.5 L116.6 114.4 117.7 114.1 117.75 114.1 117.3 112.8 117.2 112.45 116.9 112.45 116.9 112.4 116.85 112.4 116.65 112.5 116.6 112.5 116.1 112.75 113.75 113.35 Q109.75 114.05 108.9 114.4 106.05 115.3 101.55 115.9 L95.2 116.3 93.45 116.3 93.4 116.3 93.45 116.35 93.5 116.45 93.25 116.3 83.6 115.95 74.05 115.25 73.1 114.95 M68.25 112.65 L68.2 112.65 68.2 112.7 68.25 112.65 M66.65 120.75 L66.55 121.25 66.65 120.95 66.65 120.75 M115.25 94.05 L115.15 94.15 115.25 94.15 115.25 94.05 M83.6 102.7 L85.15 104.6 93.05 115.8 96.3 115.8 101.75 115.35 101.7 115.05 103.75 108.4 104.8 105.05 105.15 103.35 105.25 103.0 Q104.0 103.85 102.5 105.0 L102.45 105.05 102.3 105.2 102.2 105.3 101.4 105.2 101.2 105.2 96.0 104.3 89.45 102.95 83.95 102.0 83.3 102.05 83.6 102.7 M138.65 19.95 L140.3 15.3 140.55 15.05 141.05 15.05 141.35 15.3 141.5 15.3 141.7 15.1 Q141.95 14.25 141.35 13.75 L140.85 13.55 Q139.9 13.75 139.55 14.7 L139.0 16.35 Q138.35 18.05 138.5 19.95 L138.5 20.05 138.65 19.95 M137.4 12.25 L138.25 12.9 138.2 11.9 138.05 11.8 Q137.35 11.7 136.8 12.15 L135.7 13.35 134.8 14.7 135.15 15.0 Q135.1 16.4 134.15 17.35 L134.8 21.4 Q135.15 18.2 135.85 15.0 L136.25 13.8 136.95 12.45 137.4 12.25 M134.65 15.1 L131.4 15.6 130.8 17.1 130.45 18.05 Q129.85 19.9 130.85 21.6 130.75 18.6 132.1 15.95 L134.5 15.5 134.65 15.1 M133.75 17.25 Q133.35 17.65 133.3 18.25 L133.2 18.95 134.35 21.1 Q133.8 19.3 133.75 17.25 M130.45 24.25 L129.75 23.0 128.8 22.95 Q129.1 24.3 128.6 25.4 127.65 27.75 129.45 29.35 128.55 26.8 129.35 24.15 L129.7 23.9 Q130.2 23.55 130.35 24.25 L130.6 24.7 130.45 24.25 M144.15 18.75 L144.6 20.75 144.0 22.0 144.8 21.5 145.5 19.6 144.55 18.3 144.15 18.75 M133.6 63.9 L133.6 63.55 Q133.6 56.95 136.6 48.95 L136.6 48.9 137.05 47.7 138.7 43.05 139.1 41.8 Q139.5 40.65 139.45 39.35 L139.35 38.3 137.55 36.55 137.5 37.0 137.25 37.85 136.15 40.8 135.05 43.05 133.9 45.25 133.3 46.3 132.5 47.45 132.35 47.7 128.35 52.35 129.85 55.05 131.2 57.8 Q132.25 60.05 132.9 62.35 L133.3 63.85 133.75 65.45 133.6 63.9 M114.45 224.75 Q114.55 226.4 114.15 229.4 L113.85 231.5 113.75 231.55 114.35 232.0 114.4 231.9 114.45 232.0 114.6 232.1 114.65 232.1 114.8 232.15 114.85 232.15 115.05 232.15 115.2 232.05 115.2 232.25 115.45 232.35 115.5 232.35 118.3 232.4 121.15 232.35 121.1 231.05 Q121.1 229.35 121.55 226.9 L121.9 225.15 122.3 223.75 Q122.75 221.95 123.35 220.45 L123.6 219.75 124.65 217.1 125.85 214.45 126.1 214.0 Q127.8 210.85 130.2 208.8 L130.25 208.8 Q130.1 208.5 130.2 207.95 L129.25 207.95 121.7 209.75 119.5 210.4 119.05 210.5 118.65 210.6 116.35 211.05 115.1 211.35 115.3 214.75 115.15 218.7 115.05 220.5 114.75 223.35 114.65 225.7 114.6 224.75 114.75 220.0 114.45 224.7 114.45 224.75 M143.05 228.65 L143.1 228.5 143.05 228.5 143.05 228.65 M145.5 232.7 L145.45 232.75 145.4 232.75 145.5 232.7 M124.5 238.0 L125.15 237.5 Q126.0 236.85 126.65 236.7 L124.05 236.6 119.65 236.9 117.7 237.05 114.2 237.55 114.15 238.85 114.1 239.5 113.55 244.3 113.05 249.65 112.8 252.3 112.55 255.0 Q112.55 255.45 112.85 255.8 L112.9 255.85 113.75 256.0 113.8 255.7 Q113.9 255.95 114.15 255.95 L114.45 255.9 114.45 256.05 117.35 256.15 117.4 256.15 117.45 256.1 117.25 256.05 117.2 254.65 Q117.2 253.55 117.7 251.5 L118.0 250.05 118.3 248.95 119.05 246.6 119.3 246.05 120.25 243.9 121.15 242.15 121.2 242.1 121.35 241.8 121.9 240.65 122.4 240.1 122.9 239.6 124.0 238.55 124.5 238.0 M142.4 259.65 L136.25 260.55 131.5 260.8 127.45 260.95 122.45 261.35 120.5 261.75 120.8 261.75 120.25 261.8 119.85 262.05 119.75 262.15 120.25 262.7 121.0 263.75 122.45 265.95 123.15 266.95 124.2 268.1 125.1 269.15 125.7 269.9 126.1 269.5 126.9 269.3 127.25 269.15 127.7 268.8 127.7 268.75 127.85 268.5 128.0 268.6 129.3 268.05 131.2 267.3 132.3 267.2 132.95 266.7 134.25 266.4 136.2 266.1 140.3 265.3 144.8 264.85 145.2 264.9 145.7 265.1 146.05 264.95 Q146.1 264.85 146.3 264.8 L146.65 264.8 146.75 264.8 147.35 264.7 148.05 264.65 156.0 265.5 157.25 265.65 157.2 265.45 158.1 265.45 157.15 264.75 155.85 263.85 154.9 263.25 152.15 261.95 151.0 261.25 150.05 260.45 147.7 259.05 147.25 258.75 Q147.05 258.8 146.8 259.0 L146.35 259.0 146.25 259.05 143.15 259.55 142.4 259.65 M66.95 209.15 L64.55 208.2 64.55 208.15 64.3 208.05 Q62.0 207.0 61.35 206.85 L59.9 206.3 59.65 206.2 57.95 205.7 54.65 204.55 54.5 204.5 53.1 203.7 Q52.4 203.2 51.9 203.1 50.9 202.75 50.35 202.25 49.85 201.8 48.9 201.5 L47.3 200.9 46.6 200.7 46.55 200.65 Q46.0 201.4 45.7 202.5 L45.25 203.4 45.05 203.65 45.4 202.7 Q44.75 203.95 44.65 204.35 L43.2 207.75 Q42.25 209.85 41.85 211.3 L40.45 214.85 38.95 218.35 37.55 221.45 Q36.3 224.5 36.3 225.2 36.3 226.15 37.3 227.05 L37.35 227.15 37.9 227.6 38.05 227.6 38.1 227.6 Q39.05 228.2 41.2 229.05 L41.2 228.85 41.1 228.85 Q42.1 222.85 45.15 218.25 46.8 215.65 51.05 212.9 L53.6 211.5 Q55.6 210.6 57.1 210.45 L62.25 209.55 66.9 209.45 67.85 209.45 66.95 209.15 M115.1 210.85 L114.95 210.75 115.05 210.9 115.1 210.85 M23.65 143.55 L23.8 144.15 24.7 142.75 Q25.1 142.0 25.85 141.65 L24.6 140.45 23.65 143.55 M13.6 154.45 L7.15 161.5 Q5.7 163.0 5.1 163.95 2.85 167.1 1.3 172.75 L3.05 170.15 3.1 170.1 6.6 165.6 7.0 165.0 14.6 155.45 13.6 154.45 M0.95 174.35 L0.9 174.25 0.85 174.4 0.95 174.35 M39.8 222.35 L39.9 222.15 39.8 222.5 39.8 222.35 M35.95 230.75 L36.05 230.85 36.3 230.1 35.95 230.75 M46.8 236.2 L45.25 235.7 43.3 235.2 41.35 234.6 39.65 233.9 38.35 233.45 37.8 233.2 37.0 232.9 36.35 232.55 36.3 232.55 36.15 232.45 35.25 232.2 35.35 232.35 35.2 232.3 34.45 234.0 31.6 240.5 28.8 246.45 Q26.1 252.3 26.1 253.55 26.1 254.5 27.25 255.45 L27.3 255.5 Q27.4 255.7 27.75 255.7 L28.05 255.55 27.95 255.9 Q29.15 256.65 30.85 256.85 L31.25 256.95 31.25 256.9 Q31.55 252.55 35.65 246.2 L35.7 246.15 Q37.1 243.95 40.2 240.85 L40.2 240.8 Q43.3 237.5 46.85 236.6 L47.55 236.45 46.85 236.2 46.8 236.2 M41.8 229.2 L41.75 229.2 41.85 229.25 41.8 229.2 M37.7 228.25 L37.7 228.2 37.55 228.6 37.7 228.25 M30.35 263.15 L29.8 263.1 26.5 263.55 25.35 263.8 24.95 264.7 24.5 265.7 23.45 267.7 22.95 269.85 23.1 269.85 23.2 269.85 23.6 269.9 24.15 269.9 25.3 269.5 28.1 268.95 29.25 268.9 29.25 269.0 31.55 268.95 33.5 268.7 43.75 268.6 44.0 268.75 56.55 268.5 58.85 268.65 60.25 268.9 62.1 269.35 Q63.6 269.75 63.85 270.05 L63.9 270.15 63.75 270.35 63.8 270.45 64.2 271.05 64.2 270.75 63.95 268.65 63.8 268.7 63.55 267.4 62.85 264.65 62.8 264.65 62.8 264.5 62.4 264.5 59.55 264.45 58.1 264.5 57.65 264.1 57.0 264.1 Q56.4 264.2 56.15 264.55 L50.55 264.7 42.9 264.45 37.45 263.95 30.9 263.15 30.4 263.15 30.35 263.15 M113.95 251.75 L114.05 250.7 114.1 250.95 113.95 251.75" fill="#000000" fill-rule="evenodd" stroke="none"/>
    </g>
    <g id="morphshape0" transform="matrix(1.0, 0.0, 0.0, 1.0, 227.4, 208.05)">
      <path d="M-227.4 -208.05 L-227.4 186.25 464.95 186.25 464.95 -208.05 -227.4 -208.05" fill="#000001" fill-opacity="0.6156863" fill-rule="evenodd" stroke="none"/>
      <path d="M-227.4 -208.05 L464.95 -208.05 464.95 186.25 -227.4 186.25 -227.4 -208.05 Z" fill="none" stroke="#000000" stroke-linecap="round" stroke-linejoin="round" stroke-opacity="0.0" stroke-width="0.0"/>
    </g>
    <g id="sprite5" transform="matrix(1.0, 0.0, 0.0, 1.0, 265.1, 150.0)">
      <use ffdec:characterId="3477" height="300.0" transform="matrix(1.0, 0.0, 0.0, 1.0, -265.1, -150.0)" width="533.0" xlink:href="#shape6"/>
    </g>
    <g id="shape6" transform="matrix(1.0, 0.0, 0.0, 1.0, 265.1, 150.0)">
      <path d="M267.9 -150.0 L267.9 150.0 -265.1 150.0 -265.1 -150.0 267.9 -150.0 Z" fill="none" stroke="#ff0000" stroke-linecap="round" stroke-linejoin="round" stroke-width="0.05"/>
      <path d="M1.4 -16.05 L1.45 -16.05 Q9.35 -16.05 14.95 -11.35 20.55 -6.65 20.55 0.0 L39.5 0.0 M20.55 0.0 Q20.55 6.65 14.95 11.35 9.35 16.05 1.45 16.05 L1.4 16.05 1.4 21.45 M-36.65 0.0 L-17.55 0.0 -17.55 -0.05 Q-17.55 -6.65 -11.95 -11.35 -6.4 -16.05 1.4 -16.05 M1.4 16.05 Q-6.4 16.05 -11.95 11.35 -17.55 6.65 -17.55 0.0" fill="none" stroke="#ff0000" stroke-linecap="round" stroke-linejoin="round" stroke-opacity="0.2509804" stroke-width="0.05"/>
      <path d="M1.4 -16.05 L1.4 -21.4" fill="none" stroke="#ff0000" stroke-linecap="round" stroke-linejoin="round" stroke-opacity="0.2509804" stroke-width="1.0"/>
      <path d="M181.15 141.4 L181.15 123.6 191.05 123.6 191.05 141.4 181.15 141.4" fill="#ffffff" fill-rule="evenodd" stroke="none"/>
      <path d="M250.55 123.6 L260.45 123.6 260.45 141.4 260.35 141.4 250.55 141.4 250.55 123.6" fill="#000000" fill-rule="evenodd" stroke="none"/>
      <path d="M230.7 123.6 L240.6 123.6 240.6 141.4 230.7 141.4 230.7 123.6" fill="#ff0000" fill-rule="evenodd" stroke="none"/>
      <path d="M191.05 123.6 L201.0 123.6 201.0 141.4 191.05 141.4 191.05 123.6" fill="#ffff00" fill-rule="evenodd" stroke="none"/>
      <path d="M201.0 123.6 L210.9 123.6 210.9 141.4 201.0 141.4 201.0 123.6" fill="#00ffff" fill-rule="evenodd" stroke="none"/>
      <path d="M210.9 123.6 L220.8 123.6 220.8 141.4 210.9 141.4 210.9 123.6" fill="#00ff00" fill-rule="evenodd" stroke="none"/>
      <path d="M220.8 123.6 L230.7 123.6 230.7 141.4 220.8 141.4 220.8 123.6" fill="#ff00ff" fill-rule="evenodd" stroke="none"/>
      <path d="M240.6 123.6 L250.55 123.6 250.55 141.4 240.6 141.4 240.6 123.6" fill="#0000ff" fill-rule="evenodd" stroke="none"/>
      <path d="M260.35 141.4 L260.35 145.4 181.1 145.4 181.1 141.4 181.15 141.4 191.05 141.4 201.0 141.4 210.9 141.4 220.8 141.4 230.7 141.4 240.6 141.4 250.55 141.4 260.35 141.4" fill="url(#gradient1)" fill-rule="evenodd" stroke="none"/>
    </g>
    <linearGradient gradientTransform="matrix(0.0484, 0.0, 0.0, 0.0024, 220.7, 143.35)" gradientUnits="userSpaceOnUse" id="gradient1" spreadMethod="pad" x1="-819.2" x2="819.2">
      <stop offset="0.0" stop-color="#ffffff"/>
      <stop offset="1.0" stop-color="#000000"/>
    </linearGradient>
  </defs>
</svg>
