<?xml version="1.0" encoding="UTF-8" standalone="no"?>
<svg xmlns:ffdec="https://www.free-decompiler.com/flash" xmlns:xlink="http://www.w3.org/1999/xlink" ffdec:objectType="frame" height="2840.0px" width="4483.3px" xmlns="http://www.w3.org/2000/svg">
  <g transform="matrix(2.0, 0.0, 0.0, 2.0, 1889.8, 1197.4)">
    <use ffdec:characterId="3646" height="728.95" transform="matrix(1.0, 0.0, 0.0, 1.0, -375.25, -314.95)" width="906.6" xlink:href="#morphshape0"/>
    <filter id="filter0">
      <feConvolveMatrix divisor="4.0" in="SourceGraphic" kernelMatrix="1 1 1 1" order="2 2" result="filterResult0"/>
    </filter>
    <use ffdec:characterId="3653" filter="url(#filter0)" height="299.35" transform="matrix(1.0, 0.0, -0.1957, 0.9776, -49.3244, -136.2751)" width="311.0" xlink:href="#sprite0"/>
    <filter id="filter1">
      <feConvolveMatrix divisor="36.0" in="SourceGraphic" kernelMatrix="1 1 1 1 1 1 1 1 1 1 1 1 1 1 1 1 1 1 1 1 1 1 1 1 1 1 1 1 1 1 1 1 1 1 1 1" order="36 1" result="filterResult1"/>
    </filter>
    <use ffdec:characterId="3651" filter="url(#filter1)" height="299.35" transform="matrix(1.0, 0.0011, -0.0011, 1.0, -104.4394, -144.0457)" width="311.0" xlink:href="#sprite1"/>
    <filter id="filter2">
      <feConvolveMatrix divisor="49.0" in="SourceGraphic" kernelMatrix="1 1 1 1 1 1 1 1 1 1 1 1 1 1 1 1 1 1 1 1 1 1 1 1 1 1 1 1 1 1 1 1 1 1 1 1 1 1 1 1 1 1 1 1 1 1 1 1 1" order="7 7" result="filterResult2"/>
    </filter>
    <use ffdec:characterId="3648" filter="url(#filter2)" height="72.35" transform="matrix(0.8666, 0.0, 0.0, 0.8666, 188.35, -33.95)" width="202.35" xlink:href="#sprite3"/>
    <use ffdec:characterId="3645" height="300.0" transform="matrix(0.9741, 0.0, 0.0, 0.974, -125.3855, -150.5067)" width="533.0" xlink:href="#sprite4"/>
  </g>
  <defs>
    <g id="morphshape0" transform="matrix(1.0, 0.0, 0.0, 1.0, 375.25, 314.95)">
      <path d="M-324.25 -123.8 L-234.9 308.75 480.3 176.45 390.95 -256.15 -324.25 -123.8" fill="url(#gradient0)" fill-rule="evenodd" stroke="none"/>
      <path d="M-324.25 -123.8 L390.95 -256.15 480.3 176.45 -234.9 308.75 -324.25 -123.8 Z" fill="none" stroke="#000000" stroke-linecap="round" stroke-linejoin="round" stroke-opacity="0.0" stroke-width="0.0"/>
    </g>
    <linearGradient gradientTransform="matrix(-0.0512, -0.2483, 0.2153, -0.0397, 78.05, 26.35)" gradientUnits="userSpaceOnUse" id="gradient0" spreadMethod="pad" x1="-819.2" x2="819.2">
      <stop offset="0.0" stop-color="#9f4351"/>
      <stop offset="0.8313725490196079" stop-color="#18171e"/>
      <stop offset="1.0" stop-color="#100d12"/>
    </linearGradient>
    <g id="sprite0" transform="matrix(1.0, 0.0, 0.0, 1.0, 140.55, 146.3)">
      <use ffdec:characterId="3652" height="299.35" transform="matrix(1.0, 0.0, 0.0, 1.0, -140.55, -146.3)" width="311.0" xlink:href="#shape0"/>
    </g>
    <g id="shape0" transform="matrix(1.0, 0.0, 0.0, 1.0, 140.55, 146.3)">
      <path d="M32.95 -136.3 L34.05 -135.5 34.05 -135.45 34.1 -135.45 Q34.8 -135.0 35.7 -134.65 L35.55 -134.45 35.5 -134.45 34.35 -134.25 33.9 -134.35 32.85 -134.6 32.65 -134.35 Q30.55 -134.75 28.15 -135.75 L29.1 -134.95 35.75 -131.5 36.55 -131.0 Q37.5 -130.25 38.25 -129.1 L39.65 -127.25 40.25 -126.5 40.4 -126.3 41.2 -125.3 43.25 -123.1 42.5 -123.1 41.35 -123.35 40.55 -123.6 39.9 -123.8 39.8 -123.75 37.9 -124.65 37.9 -124.6 38.25 -123.8 46.75 -118.85 47.35 -118.5 Q43.45 -119.95 38.85 -122.45 L39.5 -121.15 Q40.05 -119.85 42.4 -117.75 L45.95 -114.65 45.9 -114.55 45.95 -114.55 47.65 -113.2 47.95 -112.75 47.5 -112.4 Q43.3 -114.2 39.2 -116.8 L39.1 -116.7 39.0 -116.65 41.65 -114.5 46.85 -111.75 46.9 -111.55 46.7 -111.65 45.55 -111.85 44.7 -112.0 43.95 -112.15 43.6 -112.2 43.4 -112.3 43.1 -112.45 43.15 -112.25 42.65 -112.4 42.15 -112.6 41.25 -112.7 41.0 -112.3 41.2 -112.05 43.45 -110.3 Q46.8 -108.05 49.5 -106.9 L49.55 -106.75 49.35 -106.55 49.0 -106.45 48.2 -106.6 47.35 -107.0 45.95 -107.35 44.5 -108.0 43.65 -108.35 43.05 -108.55 42.25 -109.1 Q43.1 -107.4 43.9 -106.5 L44.95 -105.2 46.2 -103.85 48.0 -102.55 Q48.55 -102.15 49.0 -101.9 L49.95 -101.1 53.15 -99.1 51.5 -99.0 47.25 -99.3 46.0 -99.8 44.95 -99.8 44.5 -99.95 43.95 -100.15 43.7 -100.25 43.75 -99.95 Q43.6 -99.75 43.6 -99.45 L43.7 -98.7 43.75 -98.6 43.7 -98.25 Q43.7 -96.95 45.2 -93.95 L46.65 -91.8 47.15 -91.1 47.45 -91.0 47.45 -90.9 47.35 -90.8 47.9 -89.95 47.7 -90.05 Q46.85 -90.45 46.45 -90.8 L46.4 -90.8 46.35 -90.85 46.15 -91.05 45.95 -91.25 44.9 -91.9 42.65 -93.45 41.35 -94.85 41.3 -94.85 41.2 -94.7 41.85 -93.1 41.9 -93.0 42.3 -92.5 43.4 -91.5 43.95 -91.1 44.25 -90.95 44.25 -90.9 44.0 -90.9 43.85 -90.8 43.5 -90.7 42.65 -90.75 41.05 -91.35 39.45 -92.7 38.05 -94.3 38.3 -93.35 Q38.85 -91.45 39.55 -90.65 L40.65 -89.45 Q41.95 -88.6 41.95 -88.15 41.95 -87.8 41.55 -87.8 L40.05 -88.2 39.75 -88.3 Q38.5 -88.75 38.2 -88.95 L37.95 -89.2 38.6 -87.85 Q38.65 -87.35 39.2 -86.25 L39.9 -84.35 40.45 -83.45 41.1 -82.65 41.15 -82.55 41.2 -82.55 Q41.4 -82.15 41.75 -81.85 L41.75 -81.8 43.25 -80.0 Q41.1 -81.15 39.65 -82.6 L39.4 -82.7 39.4 -82.45 Q39.4 -81.85 39.0 -81.4 L38.95 -81.3 Q39.55 -78.7 39.85 -75.5 L39.85 -75.45 39.85 -75.1 39.75 -75.0 39.65 -75.45 38.85 -75.55 38.6 -75.4 38.25 -75.8 37.9 -76.05 37.85 -76.0 Q37.5 -75.5 37.0 -75.5 36.05 -76.45 35.2 -77.75 36.4 -75.25 37.6 -74.0 L37.6 -73.9 36.95 -74.3 37.5 -73.65 37.6 -73.5 Q35.2 -74.65 33.55 -78.25 34.05 -75.8 34.85 -73.75 L35.5 -74.9 35.6 -74.1 Q35.6 -73.0 35.2 -72.55 L35.15 -72.45 35.1 -72.4 37.0 -70.5 Q37.25 -70.35 36.65 -70.35 35.6 -70.35 34.65 -71.0 L34.0 -70.85 Q33.35 -70.85 31.35 -72.5 L29.25 -74.45 29.25 -74.25 29.45 -73.05 31.0 -71.55 Q33.45 -69.45 36.35 -68.0 36.35 -67.6 35.7 -67.6 33.55 -67.6 29.95 -70.75 31.1 -67.1 33.5 -64.35 33.4 -64.15 33.0 -64.1 29.9 -67.35 28.8 -71.2 L28.6 -72.0 28.45 -72.15 27.95 -72.65 27.45 -72.6 27.15 -72.6 27.15 -72.55 Q27.5 -70.35 28.5 -67.6 28.4 -67.4 28.0 -67.35 L27.95 -67.45 27.65 -66.75 27.0 -67.2 26.35 -67.75 25.9 -68.3 25.45 -68.9 25.15 -69.4 24.5 -70.2 24.3 -70.5 Q23.75 -71.7 23.75 -72.7 L23.65 -73.25 23.55 -73.65 24.25 -77.3 24.2 -77.55 23.05 -73.95 22.5 -72.0 22.35 -72.0 22.75 -74.9 21.8 -73.15 21.45 -71.8 21.35 -71.55 20.9 -70.95 21.05 -70.75 20.9 -70.6 20.7 -70.3 20.65 -70.6 20.65 -70.65 Q18.7 -68.1 16.15 -66.0 L15.55 -65.75 15.35 -65.6 15.25 -65.45 Q15.0 -65.15 15.0 -64.5 L15.0 -64.45 Q12.25 -52.8 14.9 -41.25 22.8 -33.75 31.8 -27.6 35.15 -25.25 38.7 -23.1 44.8 -19.5 51.95 -18.6 73.8 -16.65 95.65 -18.75 L130.4 -21.15 Q139.4 -20.8 148.4 -18.8 L157.2 -16.25 162.9 -13.95 Q162.25 -11.65 160.05 -10.35 158.3 -9.3 156.35 -9.5 154.45 -9.8 152.85 -11.05 159.05 -4.45 165.7 1.65 L169.45 5.5 170.3 7.0 170.45 7.8 Q170.55 9.15 169.6 10.25 L169.25 10.65 Q163.85 9.85 160.4 5.75 158.15 6.9 155.45 6.85 153.0 6.8 151.15 5.15 149.05 6.55 146.2 6.45 L141.3 5.7 Q139.4 5.4 137.65 4.75 L131.7 2.1 129.8 1.25 Q123.8 -2.1 117.05 -2.1 107.3 -2.05 97.9 -0.05 89.15 1.9 80.35 4.45 71.95 6.8 63.1 7.85 L56.4 8.9 Q52.4 8.6 48.8 7.35 41.1 4.65 33.8 0.9 L16.05 -8.2 Q14.1 -5.05 11.05 -2.95 10.05 -2.35 8.7 -2.25 L6.45 -2.1 4.7 -1.85 3.5 -2.0 Q0.15 1.35 -1.9 5.65 -4.2 10.35 -5.75 15.15 L-6.7 18.45 Q-8.95 27.85 -8.5 37.55 L-8.1 46.5 -7.85 53.9 Q-7.45 66.15 -9.75 78.25 L-9.0 79.25 -9.25 79.8 Q-1.8 104.2 3.7 129.15 6.05 139.95 8.0 151.0 L5.8 144.45 5.4 145.0 4.85 144.3 Q-0.1 144.5 -4.5 146.9 L-3.95 149.25 -4.75 147.0 -19.6 147.5 -19.25 147.9 -21.55 147.15 -21.0 148.5 -23.45 145.6 -25.4 146.5 -28.45 147.65 -35.45 147.4 -37.2 147.15 -39.3 144.2 -39.6 145.65 -39.0 146.1 -40.3 152.75 -42.8 152.95 -48.7 151.3 -57.95 148.05 -63.55 146.05 -65.75 145.8 -66.95 145.9 -67.0 145.25 -69.45 150.55 Q-68.2 145.05 -65.3 140.1 -62.85 135.8 -60.9 131.5 L-58.4 125.6 Q-56.65 121.2 -55.5 116.35 L-51.95 102.7 -65.05 87.95 -71.45 80.55 Q-75.7 75.35 -78.35 69.25 -80.9 63.35 -81.55 56.75 -81.95 52.65 -81.6 48.45 -80.85 39.5 -77.15 31.45 -75.05 26.9 -72.1 22.75 L-68.0 17.45 -59.6 7.1 Q-57.2 4.2 -55.75 0.55 L-54.15 -3.3 Q-51.65 -9.5 -49.8 -15.65 -47.45 -23.55 -45.8 -31.5 -43.8 -41.2 -43.1 -51.15 -42.55 -59.45 -40.2 -67.4 L-40.95 -66.75 -46.15 -65.85 -53.15 -63.65 -58.65 -61.35 Q-64.2 -58.8 -69.4 -55.4 -81.55 -47.45 -94.0 -40.1 -99.5 -36.75 -103.9 -32.25 L-110.15 -25.15 Q-111.2 -23.85 -112.5 -22.8 L-115.1 -20.55 -117.7 -17.95 -119.15 -16.2 Q-121.65 -16.6 -122.05 -19.2 L-122.35 -21.1 Q-126.3 -18.95 -130.3 -17.0 -132.9 -15.8 -135.6 -15.7 L-137.0 -16.75 -136.55 -18.7 Q-134.0 -19.85 -131.5 -21.2 -130.4 -21.85 -129.45 -22.8 L-128.5 -23.85 Q-131.55 -22.55 -134.75 -21.8 L-140.55 -21.65 Q-140.4 -23.1 -139.9 -24.4 L-138.75 -25.7 -136.0 -27.25 -138.5 -27.4 -139.05 -28.25 -138.6 -31.1 -128.45 -34.4 -133.35 -33.85 -135.85 -33.7 -137.4 -34.15 Q-136.85 -36.5 -134.7 -37.2 L-125.45 -40.05 Q-120.0 -41.65 -114.55 -42.45 -112.6 -42.7 -111.05 -43.5 -101.55 -48.25 -94.3 -56.2 L-93.9 -55.8 Q-87.45 -61.05 -81.6 -67.05 L-77.25 -71.3 Q-70.5 -77.9 -61.45 -80.75 L-51.25 -83.85 -44.3 -86.15 Q-41.45 -87.25 -38.7 -88.55 L-34.5 -90.3 -32.4 -91.2 -30.35 -92.3 -25.9 -93.9 -18.0 -96.05 -18.0 -96.35 Q-18.55 -96.15 -19.55 -95.9 L-19.75 -95.75 -19.95 -95.85 -20.5 -95.75 -21.1 -95.8 -21.25 -96.2 -20.95 -96.8 Q-22.6 -95.3 -24.35 -94.5 -24.75 -94.05 -24.75 -94.7 -24.75 -95.1 -20.5 -98.9 L-17.85 -102.05 Q-21.35 -98.5 -23.0 -98.5 L-23.25 -98.5 Q-26.4 -94.75 -28.0 -94.75 L-28.65 -94.8 -28.45 -95.1 -27.8 -95.75 -27.05 -96.4 -24.35 -99.05 -23.2 -100.35 -22.1 -101.65 -21.25 -102.95 -20.55 -104.3 -19.65 -105.5 Q-20.65 -104.85 -21.25 -104.85 L-21.65 -104.85 Q-23.4 -103.35 -25.5 -102.6 L-26.0 -102.6 -26.15 -103.0 -24.4 -104.2 Q-22.4 -105.45 -21.6 -106.35 L-21.45 -106.45 -21.35 -106.6 -20.7 -107.25 -20.15 -107.85 -19.35 -108.7 -19.8 -108.35 -19.7 -108.55 Q-19.7 -109.0 -20.05 -109.0 L-22.7 -106.85 Q-23.75 -106.1 -24.3 -105.9 -25.85 -105.1 -27.05 -105.1 L-27.25 -105.1 -27.95 -105.15 -28.0 -105.15 -27.05 -106.05 -25.8 -106.95 -24.85 -107.85 Q-24.2 -108.35 -24.2 -108.8 L-24.2 -108.95 Q-24.2 -109.4 -24.6 -109.4 L-24.85 -109.3 -25.3 -109.25 -26.05 -109.05 -26.9 -108.9 -28.45 -109.25 -29.25 -109.5 -29.65 -109.9 -30.15 -110.25 -30.25 -110.35 -30.15 -110.4 -29.75 -110.4 -27.3 -110.7 -26.0 -111.45 -23.7 -112.95 Q-20.7 -115.5 -20.7 -116.0 L-20.75 -116.2 -19.8 -117.1 -19.9 -117.1 -20.35 -116.9 -20.5 -117.0 -20.95 -117.1 -21.4 -116.9 Q-21.6 -116.7 -21.9 -116.6 L-22.65 -116.15 -25.25 -115.9 Q-27.45 -115.9 -27.9 -116.5 L-28.0 -116.85 -27.6 -116.85 -26.75 -116.95 -26.35 -117.05 -23.35 -117.55 -23.05 -117.55 -22.5 -117.85 -22.05 -118.2 -21.45 -118.9 -20.95 -119.65 -21.05 -119.9 -20.95 -120.2 Q-20.95 -120.65 -21.4 -120.65 L-22.4 -120.55 -23.6 -120.7 -24.15 -120.95 -25.15 -121.35 -26.3 -121.85 -27.25 -122.8 -26.9 -122.8 -25.7 -122.95 -25.35 -122.9 -25.35 -123.0 -24.0 -123.35 -23.0 -123.85 -21.9 -124.35 Q-21.15 -124.55 -20.05 -125.25 L-19.35 -125.75 -19.1 -125.9 Q-18.75 -126.05 -16.3 -127.35 L-18.6 -127.35 -18.8 -127.4 -19.1 -127.55 -21.1 -127.65 -21.2 -127.65 Q-24.85 -127.55 -25.25 -127.7 L-26.1 -127.95 -25.9 -128.25 -25.95 -128.3 Q-25.4 -128.4 -24.9 -128.65 L-23.2 -129.1 -22.35 -129.5 -21.5 -129.8 -20.6 -130.25 -19.9 -130.4 -19.4 -130.65 -17.95 -131.35 -16.4 -131.95 -16.1 -132.1 Q-13.35 -133.2 -10.3 -134.85 L-10.0 -135.1 -12.5 -135.0 -17.6 -135.1 Q-17.75 -134.85 -17.75 -135.45 -17.75 -136.5 -15.05 -136.4 L-14.1 -136.35 -11.3 -136.7 -10.75 -136.85 -6.95 -137.6 -7.0 -137.7 -6.95 -137.95 -7.8 -137.85 -8.7 -138.0 -13.15 -138.25 -14.6 -138.85 -14.65 -139.0 -9.3 -139.35 Q-9.0 -139.9 -6.75 -140.35 L-4.2 -140.75 -8.4 -141.5 -9.3 -141.3 -9.75 -141.0 -10.35 -141.05 -10.5 -141.45 Q-10.5 -143.2 -5.95 -142.0 L-3.65 -141.35 -3.65 -141.55 -3.65 -141.8 -4.75 -142.6 -4.35 -143.3 -3.5 -143.9 Q-2.5 -143.9 -1.05 -143.2 L0.0 -143.75 0.45 -143.95 Q0.9 -144.85 1.4 -144.65 L1.45 -144.45 2.1 -144.75 Q3.85 -145.5 4.6 -145.5 L4.9 -145.25 Q4.9 -145.0 5.2 -145.0 L6.5 -145.6 8.25 -146.25 9.1 -146.3 9.25 -146.2 10.65 -146.15 10.9 -146.05 11.3 -145.95 12.1 -145.8 12.8 -145.55 13.6 -145.4 14.25 -145.3 15.4 -145.2 17.65 -145.1 17.95 -145.05 19.6 -144.95 22.75 -145.35 23.75 -145.8 24.0 -145.95 23.95 -145.7 24.2 -145.65 24.25 -145.65 23.5 -144.75 22.85 -144.15 21.9 -143.5 20.55 -142.9 20.2 -142.45 22.6 -142.45 25.05 -141.65 26.8 -140.8 28.5 -139.95 30.15 -138.55 31.75 -137.35 Q32.4 -136.75 32.95 -136.3 M19.75 -142.35 L20.0 -142.3 20.1 -142.4 19.75 -142.35 M17.7 -142.7 L17.8 -142.75 17.65 -142.75 17.7 -142.7 M19.0 -112.05 L18.75 -111.95 18.75 -111.9 19.0 -112.05 M46.3 -133.6 L46.2 -133.55 46.25 -133.65 46.3 -133.6 M17.9 -100.6 Q18.1 -100.35 18.35 -100.75 L18.15 -100.95 Q17.35 -101.1 17.9 -100.6 M49.95 -110.25 L49.9 -110.25 49.85 -110.3 49.95 -110.25 M41.65 -108.65 L41.3 -108.9 41.35 -108.85 41.65 -108.65 M34.3 -95.9 L34.4 -95.65 34.35 -95.9 34.3 -95.9 M38.8 -90.25 L38.85 -90.25 38.8 -90.3 38.8 -90.25 M29.3 -80.2 L29.0 -78.85 29.0 -78.6 29.05 -76.55 Q30.55 -74.4 33.3 -72.35 L32.55 -73.6 Q31.95 -74.3 31.4 -75.35 L29.9 -78.9 29.65 -79.4 Q29.45 -79.5 29.4 -79.75 L29.4 -80.0 29.3 -80.2 M36.75 -82.55 L36.0 -82.35 36.45 -81.05 37.35 -78.55 37.6 -78.05 37.6 -78.35 37.75 -78.35 37.95 -77.55 38.05 -77.3 Q38.8 -76.1 39.6 -75.65 L37.8 -81.15 Q37.3 -81.55 36.75 -82.55 M19.4 -95.35 L19.5 -95.35 19.5 -95.4 19.4 -95.35 M13.25 142.05 L14.75 147.3 Q13.35 145.15 12.2 142.3 L13.25 142.05 M-12.2 75.05 L-12.45 74.45 -12.45 75.15 -12.2 75.05 M-61.55 145.45 L-61.4 144.65 -61.8 145.3 Q-61.7 145.35 -61.55 145.45" fill="#000000" fill-opacity="0.15294118" fill-rule="evenodd" stroke="none"/>
    </g>
    <g id="sprite1" transform="matrix(1.0, 0.0, 0.0, 1.0, 140.55, 146.3)">
      <use ffdec:characterId="3650" height="299.35" transform="matrix(1.0, 0.0, 0.0, 1.0, -140.55, -146.3)" width="311.0" xlink:href="#shape1"/>
      <use ffdec:characterId="3649" height="1049.6" transform="matrix(0.0096, 0.0, 0.0, 0.0096, 12.95, -105.85)" width="1049.6" xlink:href="#sprite2"/>
    </g>
    <g id="shape1" transform="matrix(1.0, 0.0, 0.0, 1.0, 140.55, 146.3)">
      <path d="M32.95 -136.3 L34.05 -135.5 34.05 -135.45 34.1 -135.45 Q34.8 -135.0 35.7 -134.65 L35.55 -134.45 35.5 -134.45 34.35 -134.25 33.9 -134.35 32.85 -134.6 32.65 -134.35 Q30.55 -134.75 28.15 -135.75 L29.1 -134.95 35.75 -131.5 36.55 -131.0 Q37.5 -130.25 38.25 -129.1 L39.65 -127.25 40.25 -126.5 40.4 -126.3 41.2 -125.3 43.25 -123.1 42.5 -123.1 41.35 -123.35 40.55 -123.6 39.9 -123.8 39.8 -123.75 37.9 -124.65 37.9 -124.6 38.25 -123.8 46.75 -118.85 47.35 -118.5 Q43.45 -119.95 38.85 -122.45 L39.5 -121.15 Q40.05 -119.85 42.4 -117.75 L45.95 -114.65 45.9 -114.55 45.95 -114.55 47.65 -113.2 47.95 -112.75 47.5 -112.4 Q43.3 -114.2 39.2 -116.8 L39.1 -116.7 39.0 -116.65 41.65 -114.5 46.85 -111.75 46.9 -111.55 46.7 -111.65 45.55 -111.85 44.7 -112.0 43.95 -112.15 43.6 -112.2 43.4 -112.3 43.1 -112.45 43.15 -112.25 42.65 -112.4 42.15 -112.6 41.25 -112.7 41.0 -112.3 41.2 -112.05 43.45 -110.3 Q46.8 -108.05 49.5 -106.9 L49.55 -106.75 49.35 -106.55 49.0 -106.45 48.2 -106.6 47.35 -107.0 45.95 -107.35 44.5 -108.0 43.65 -108.35 43.05 -108.55 42.25 -109.1 Q43.1 -107.4 43.9 -106.5 L44.95 -105.2 46.2 -103.85 48.0 -102.55 Q48.55 -102.15 49.0 -101.9 L49.95 -101.1 53.15 -99.1 51.5 -99.0 47.25 -99.3 46.0 -99.8 44.95 -99.8 44.5 -99.95 43.95 -100.15 43.7 -100.25 43.75 -99.95 Q43.6 -99.75 43.6 -99.45 L43.7 -98.7 43.75 -98.6 43.7 -98.25 Q43.7 -96.95 45.2 -93.95 L46.65 -91.8 47.15 -91.1 47.45 -91.0 47.45 -90.9 47.35 -90.8 47.9 -89.95 47.7 -90.05 Q46.85 -90.45 46.45 -90.8 L46.4 -90.8 46.35 -90.85 46.15 -91.05 45.95 -91.25 44.9 -91.9 42.65 -93.45 41.35 -94.85 41.3 -94.85 41.2 -94.7 41.85 -93.1 41.9 -93.0 42.3 -92.5 43.4 -91.5 43.95 -91.1 44.25 -90.95 44.25 -90.9 44.0 -90.9 43.85 -90.8 43.5 -90.7 42.65 -90.75 41.05 -91.35 39.45 -92.7 38.05 -94.3 38.3 -93.35 Q38.85 -91.45 39.55 -90.65 L40.65 -89.45 Q41.95 -88.6 41.95 -88.15 41.95 -87.8 41.55 -87.8 L40.05 -88.2 39.75 -88.3 Q38.5 -88.75 38.2 -88.95 L37.95 -89.2 38.6 -87.85 Q38.65 -87.35 39.2 -86.25 L39.9 -84.35 40.45 -83.45 41.1 -82.65 41.15 -82.55 41.2 -82.55 Q41.4 -82.15 41.75 -81.85 L41.75 -81.8 43.25 -80.0 Q41.1 -81.15 39.65 -82.6 L39.4 -82.7 39.4 -82.45 Q39.4 -81.85 39.0 -81.4 L38.95 -81.3 Q39.55 -78.7 39.85 -75.5 L39.85 -75.45 39.85 -75.1 39.75 -75.0 39.65 -75.45 38.85 -75.55 38.6 -75.4 38.25 -75.8 37.9 -76.05 37.85 -76.0 Q37.5 -75.5 37.0 -75.5 36.05 -76.45 35.2 -77.75 36.4 -75.25 37.6 -74.0 L37.6 -73.9 36.95 -74.3 37.5 -73.65 37.6 -73.5 Q35.2 -74.65 33.55 -78.25 34.05 -75.8 34.85 -73.75 L35.5 -74.9 35.6 -74.1 Q35.6 -73.0 35.2 -72.55 L35.15 -72.45 35.1 -72.4 37.0 -70.5 Q37.25 -70.35 36.65 -70.35 35.6 -70.35 34.65 -71.0 L34.0 -70.85 Q33.35 -70.85 31.35 -72.5 L29.25 -74.45 29.25 -74.25 29.45 -73.05 31.0 -71.55 Q33.45 -69.45 36.35 -68.0 36.35 -67.6 35.7 -67.6 33.55 -67.6 29.95 -70.75 31.1 -67.1 33.5 -64.35 33.4 -64.15 33.0 -64.1 29.9 -67.35 28.8 -71.2 L28.6 -72.0 28.45 -72.15 27.95 -72.65 27.45 -72.6 27.15 -72.6 27.15 -72.55 Q27.5 -70.35 28.5 -67.6 28.4 -67.4 28.0 -67.35 L27.95 -67.45 27.65 -66.75 27.0 -67.2 26.35 -67.75 25.9 -68.3 25.45 -68.9 25.15 -69.4 24.5 -70.2 24.3 -70.5 Q23.75 -71.7 23.75 -72.7 L23.65 -73.25 23.55 -73.65 24.25 -77.3 24.2 -77.55 23.05 -73.95 22.5 -72.0 22.35 -72.0 22.75 -74.9 21.8 -73.15 21.45 -71.8 21.35 -71.55 20.9 -70.95 21.05 -70.75 20.9 -70.6 20.7 -70.3 20.65 -70.6 20.65 -70.65 Q18.7 -68.1 16.15 -66.0 L15.55 -65.75 15.35 -65.6 15.25 -65.45 Q15.0 -65.15 15.0 -64.5 L15.0 -64.45 Q12.25 -52.8 14.9 -41.25 22.8 -33.75 31.8 -27.6 35.15 -25.25 38.7 -23.1 44.8 -19.5 51.95 -18.6 73.8 -16.65 95.65 -18.75 L130.4 -21.15 Q139.4 -20.8 148.4 -18.8 L157.2 -16.25 162.9 -13.95 Q162.25 -11.65 160.05 -10.35 158.3 -9.3 156.35 -9.5 154.45 -9.8 152.85 -11.05 159.05 -4.45 165.7 1.65 L169.45 5.5 170.3 7.0 170.45 7.8 Q170.55 9.15 169.6 10.25 L169.25 10.65 Q163.85 9.85 160.4 5.75 158.15 6.9 155.45 6.85 153.0 6.8 151.15 5.15 149.05 6.55 146.2 6.45 L141.3 5.7 Q139.4 5.4 137.65 4.75 L131.7 2.1 129.8 1.25 Q123.8 -2.1 117.05 -2.1 107.3 -2.05 97.9 -0.05 89.15 1.9 80.35 4.45 71.95 6.8 63.1 7.85 L56.4 8.9 Q52.4 8.6 48.8 7.35 41.1 4.65 33.8 0.9 L16.05 -8.2 Q14.1 -5.05 11.05 -2.95 10.05 -2.35 8.7 -2.25 L6.45 -2.1 4.7 -1.85 3.5 -2.0 Q0.15 1.35 -1.9 5.65 -4.2 10.35 -5.75 15.15 L-6.7 18.45 Q-8.95 27.85 -8.5 37.55 L-8.1 46.5 -7.85 53.9 Q-7.45 66.15 -9.75 78.25 L-9.0 79.25 -9.25 79.8 Q-1.8 104.2 3.7 129.15 6.05 139.95 8.0 151.0 L5.8 144.45 5.4 145.0 4.85 144.3 Q-0.1 144.5 -4.5 146.9 L-3.95 149.25 -4.75 147.0 -19.6 147.5 -19.25 147.9 -21.55 147.15 -21.0 148.5 -23.45 145.6 -25.4 146.5 -28.45 147.65 -35.45 147.4 -37.2 147.15 -39.3 144.2 -39.6 145.65 -39.0 146.1 -40.3 152.75 -42.8 152.95 -48.7 151.3 -57.95 148.05 -63.55 146.05 -65.75 145.8 -66.95 145.9 -67.0 145.25 -69.45 150.55 Q-68.2 145.05 -65.3 140.1 -62.85 135.8 -60.9 131.5 L-58.4 125.6 Q-56.65 121.2 -55.5 116.35 L-51.95 102.7 -65.05 87.95 -71.45 80.55 Q-75.7 75.35 -78.35 69.25 -80.9 63.35 -81.55 56.75 -81.95 52.65 -81.6 48.45 -80.85 39.5 -77.15 31.45 -75.05 26.9 -72.1 22.75 L-68.0 17.45 -59.6 7.1 Q-57.2 4.2 -55.75 0.55 L-54.15 -3.3 Q-51.65 -9.5 -49.8 -15.65 -47.45 -23.55 -45.8 -31.5 -43.8 -41.2 -43.1 -51.15 -42.55 -59.45 -40.2 -67.4 L-40.95 -66.75 -46.15 -65.85 -53.15 -63.65 -58.65 -61.35 Q-64.2 -58.8 -69.4 -55.4 -81.55 -47.45 -94.0 -40.1 -99.5 -36.75 -103.9 -32.25 L-110.15 -25.15 Q-111.2 -23.85 -112.5 -22.8 L-115.1 -20.55 -117.7 -17.95 -119.15 -16.2 Q-121.65 -16.6 -122.05 -19.2 L-122.35 -21.1 Q-126.3 -18.95 -130.3 -17.0 -132.9 -15.8 -135.6 -15.7 L-137.0 -16.75 -136.55 -18.7 Q-134.0 -19.85 -131.5 -21.2 -130.4 -21.85 -129.45 -22.8 L-128.5 -23.85 Q-131.55 -22.55 -134.75 -21.8 L-140.55 -21.65 Q-140.4 -23.1 -139.9 -24.4 L-138.75 -25.7 -136.0 -27.25 -138.5 -27.4 -139.05 -28.25 -138.6 -31.1 -128.45 -34.4 -133.35 -33.85 -135.85 -33.7 -137.4 -34.15 Q-136.85 -36.5 -134.7 -37.2 L-125.45 -40.05 Q-120.0 -41.65 -114.55 -42.45 -112.6 -42.7 -111.05 -43.5 -101.55 -48.25 -94.3 -56.2 L-93.9 -55.8 Q-87.45 -61.05 -81.6 -67.05 L-77.25 -71.3 Q-70.5 -77.9 -61.45 -80.75 L-51.25 -83.85 -44.3 -86.15 Q-41.45 -87.25 -38.7 -88.55 L-34.5 -90.3 -32.4 -91.2 -30.35 -92.3 -25.9 -93.9 -18.0 -96.05 -18.0 -96.35 Q-18.55 -96.15 -19.55 -95.9 L-19.75 -95.75 -19.95 -95.85 -20.5 -95.75 -21.1 -95.8 -21.25 -96.2 -20.95 -96.8 Q-22.6 -95.3 -24.35 -94.5 -24.75 -94.05 -24.75 -94.7 -24.75 -95.1 -20.5 -98.9 L-17.85 -102.05 Q-21.35 -98.5 -23.0 -98.5 L-23.25 -98.5 Q-26.4 -94.75 -28.0 -94.75 L-28.65 -94.8 -28.45 -95.1 -27.8 -95.75 -27.05 -96.4 -24.35 -99.05 -23.2 -100.35 -22.1 -101.65 -21.25 -102.95 -20.55 -104.3 -19.65 -105.5 Q-20.65 -104.85 -21.25 -104.85 L-21.65 -104.85 Q-23.4 -103.35 -25.5 -102.6 L-26.0 -102.6 -26.15 -103.0 -24.4 -104.2 Q-22.4 -105.45 -21.6 -106.35 L-21.45 -106.45 -21.35 -106.6 -20.7 -107.25 -20.15 -107.85 -19.35 -108.7 -19.8 -108.35 -19.7 -108.55 Q-19.7 -109.0 -20.05 -109.0 L-22.7 -106.85 Q-23.75 -106.1 -24.3 -105.9 -25.85 -105.1 -27.05 -105.1 L-27.25 -105.1 -27.95 -105.15 -28.0 -105.15 -27.05 -106.05 -25.8 -106.95 -24.85 -107.85 Q-24.2 -108.35 -24.2 -108.8 L-24.2 -108.95 Q-24.2 -109.4 -24.6 -109.4 L-24.85 -109.3 -25.3 -109.25 -26.05 -109.05 -26.9 -108.9 -28.45 -109.25 -29.25 -109.5 -29.65 -109.9 -30.15 -110.25 -30.25 -110.35 -30.15 -110.4 -29.75 -110.4 -27.3 -110.7 -26.0 -111.45 -23.7 -112.95 Q-20.7 -115.5 -20.7 -116.0 L-20.75 -116.2 -19.8 -117.1 -19.9 -117.1 -20.35 -116.9 -20.5 -117.0 -20.95 -117.1 -21.4 -116.9 Q-21.6 -116.7 -21.9 -116.6 L-22.65 -116.15 -25.25 -115.9 Q-27.45 -115.9 -27.9 -116.5 L-28.0 -116.85 -27.6 -116.85 -26.75 -116.95 -26.35 -117.05 -23.35 -117.55 -23.05 -117.55 -22.5 -117.85 -22.05 -118.2 -21.45 -118.9 -20.95 -119.65 -21.05 -119.9 -20.95 -120.2 Q-20.95 -120.65 -21.4 -120.65 L-22.4 -120.55 -23.6 -120.7 -24.15 -120.95 -25.15 -121.35 -26.3 -121.85 -27.25 -122.8 -26.9 -122.8 -25.7 -122.95 -25.35 -122.9 -25.35 -123.0 -24.0 -123.35 -23.0 -123.85 -21.9 -124.35 Q-21.15 -124.55 -20.05 -125.25 L-19.35 -125.75 -19.1 -125.9 Q-18.75 -126.05 -16.3 -127.35 L-18.6 -127.35 -18.8 -127.4 -19.1 -127.55 -21.1 -127.65 -21.2 -127.65 Q-24.85 -127.55 -25.25 -127.7 L-26.1 -127.95 -25.9 -128.25 -25.95 -128.3 Q-25.4 -128.4 -24.9 -128.65 L-23.2 -129.1 -22.35 -129.5 -21.5 -129.8 -20.6 -130.25 -19.9 -130.4 -19.4 -130.65 -17.95 -131.35 -16.4 -131.95 -16.1 -132.1 Q-13.35 -133.2 -10.3 -134.85 L-10.0 -135.1 -12.5 -135.0 -17.6 -135.1 Q-17.75 -134.85 -17.75 -135.45 -17.75 -136.5 -15.05 -136.4 L-14.1 -136.35 -11.3 -136.7 -10.75 -136.85 -6.95 -137.6 -7.0 -137.7 -6.95 -137.95 -7.8 -137.85 -8.7 -138.0 -13.15 -138.25 -14.6 -138.85 -14.65 -139.0 -9.3 -139.35 Q-9.0 -139.9 -6.75 -140.35 L-4.2 -140.75 -8.4 -141.5 -9.3 -141.3 -9.75 -141.0 -10.35 -141.05 -10.5 -141.45 Q-10.5 -143.2 -5.95 -142.0 L-3.65 -141.35 -3.65 -141.55 -3.65 -141.8 -4.75 -142.6 -4.35 -143.3 -3.5 -143.9 Q-2.5 -143.9 -1.05 -143.2 L0.0 -143.75 0.45 -143.95 Q0.9 -144.85 1.4 -144.65 L1.45 -144.45 2.1 -144.75 Q3.85 -145.5 4.6 -145.5 L4.9 -145.25 Q4.9 -145.0 5.2 -145.0 L6.5 -145.6 8.25 -146.25 9.1 -146.3 9.25 -146.2 10.65 -146.15 10.9 -146.05 11.3 -145.95 12.1 -145.8 12.8 -145.55 13.6 -145.4 14.25 -145.3 15.4 -145.2 17.65 -145.1 17.95 -145.05 19.6 -144.95 22.75 -145.35 23.75 -145.8 24.0 -145.95 23.95 -145.7 24.2 -145.65 24.25 -145.65 23.5 -144.75 22.85 -144.15 21.9 -143.5 20.55 -142.9 20.2 -142.45 22.6 -142.45 25.05 -141.65 26.8 -140.8 28.5 -139.95 30.15 -138.55 31.75 -137.35 Q32.4 -136.75 32.95 -136.3 M17.7 -142.7 L17.8 -142.75 17.65 -142.75 17.7 -142.7 M19.75 -142.35 L20.0 -142.3 20.1 -142.4 19.75 -142.35 M19.0 -112.05 L18.75 -111.95 18.75 -111.9 20.85 -108.75 21.4 -108.65 23.35 -108.4 20.0 -111.0 19.0 -112.05 M17.25 -105.85 L16.05 -106.95 13.75 -109.45 13.4 -109.25 13.45 -109.05 14.65 -105.4 15.35 -105.6 17.25 -105.85 M10.3 -100.35 L11.0 -99.65 Q13.35 -97.45 16.3 -94.95 L16.4 -94.8 16.4 -94.75 15.95 -94.65 Q14.9 -94.65 11.75 -96.5 L8.2 -98.75 8.4 -93.9 8.45 -93.85 Q11.65 -90.95 16.0 -88.9 L16.05 -88.6 Q16.45 -88.35 15.95 -88.35 12.75 -88.35 8.6 -90.6 L8.55 -90.6 8.7 -88.05 Q8.8 -86.75 9.6 -85.7 L12.4 -85.8 8.45 -83.7 Q8.2 -82.2 9.15 -81.1 10.25 -79.95 11.75 -80.2 L14.1 -80.45 Q16.2 -80.15 18.0 -79.0 L14.35 -75.15 15.9 -74.05 Q14.55 -72.95 12.7 -72.65 9.55 -72.75 6.65 -71.6 9.7 -71.55 12.4 -70.15 15.35 -68.7 18.4 -70.4 20.0 -71.3 21.1 -72.65 22.1 -74.35 23.3 -77.65 L23.45 -77.9 Q24.4 -81.3 26.05 -83.95 L26.3 -84.7 26.5 -85.15 26.8 -86.3 27.1 -87.2 27.25 -87.6 27.3 -87.9 27.4 -88.2 27.4 -88.4 27.7 -90.55 28.1 -96.5 28.1 -99.6 Q24.45 -101.2 23.3 -101.9 L19.6 -104.15 18.95 -104.55 17.55 -104.3 Q16.3 -104.05 15.35 -103.45 L15.7 -102.7 19.6 -101.95 Q21.55 -101.55 23.05 -100.3 L19.15 -101.5 19.45 -100.75 18.75 -99.6 18.0 -99.5 17.4 -99.65 17.4 -99.6 20.4 -94.9 20.45 -94.75 Q20.55 -94.6 20.05 -94.6 19.1 -94.6 16.7 -96.55 L13.6 -99.25 12.75 -100.05 11.05 -99.7 10.3 -100.35 M15.1 -102.8 L14.95 -103.15 14.55 -102.85 15.1 -102.8 M17.9 -100.6 Q18.1 -100.35 18.35 -100.75 L18.15 -100.95 Q17.35 -101.1 17.9 -100.6 M25.3 -111.85 L25.45 -111.45 25.55 -111.25 26.35 -110.55 26.45 -110.55 26.0 -111.3 25.6 -111.65 25.3 -111.85 M24.6 -106.3 L25.05 -106.15 Q24.7 -105.3 24.05 -104.9 L24.3 -104.65 27.95 -101.95 27.9 -102.5 27.6 -105.0 Q27.0 -105.7 26.55 -106.5 L25.05 -107.35 21.75 -107.5 22.8 -106.2 24.6 -106.3 M46.3 -133.6 L46.2 -133.55 46.25 -133.65 46.3 -133.6 M49.85 -110.3 L49.95 -110.25 49.9 -110.25 49.85 -110.3 M41.65 -108.65 L41.3 -108.9 41.35 -108.85 41.65 -108.65 M34.3 -95.9 L34.4 -95.65 34.35 -95.9 34.3 -95.9 M38.8 -90.25 L38.85 -90.25 38.8 -90.3 38.8 -90.25 M26.55 -91.2 L25.45 -88.95 25.2 -88.6 Q24.2 -87.25 22.8 -86.3 L26.55 -91.2 M29.3 -80.2 L29.0 -78.85 29.0 -78.6 29.05 -76.55 Q30.55 -74.4 33.3 -72.35 L32.55 -73.6 Q31.95 -74.3 31.4 -75.35 L29.9 -78.9 29.65 -79.4 Q29.45 -79.5 29.4 -79.75 L29.4 -80.0 29.3 -80.2 M36.45 -81.05 L37.35 -78.55 37.6 -78.05 37.6 -78.35 37.75 -78.35 37.95 -77.55 38.05 -77.3 Q38.8 -76.1 39.6 -75.65 L37.8 -81.15 Q37.3 -81.55 36.75 -82.55 L36.0 -82.35 36.45 -81.05 M19.4 -95.35 L19.5 -95.35 19.5 -95.4 19.4 -95.35 M7.55 -6.95 L6.35 -6.4 Q3.6 -5.35 1.25 -3.8 -0.7 -2.45 -2.2 -0.45 -5.15 3.5 -6.8 8.35 -10.85 20.45 -10.2 33.2 L-10.2 33.25 -9.9 37.5 -9.75 33.25 -9.75 33.2 -9.1 25.8 -8.25 20.25 Q-6.6 11.7 -2.3 3.95 L-3.25 5.1 -0.3 0.65 Q1.3 -1.5 3.25 -3.3 L4.7 -3.1 Q7.4 -2.65 10.1 -3.7 13.8 -5.1 15.2 -8.65 L10.75 -11.1 9.7 -9.2 8.45 -7.7 7.55 -6.95 M7.8 -60.55 Q8.15 -56.75 8.85 -52.95 9.55 -49.25 10.6 -45.6 L13.45 -43.1 Q12.2 -46.95 11.9 -51.1 11.4 -57.55 12.1 -63.9 L7.95 -64.35 7.8 -60.55 M0.15 -92.15 L1.2 -93.2 2.15 -94.8 2.6 -96.05 -4.8 -95.75 Q-4.45 -94.15 -3.3 -92.7 -1.8 -90.75 0.15 -92.15 M18.2 -35.85 Q21.15 -30.7 25.05 -26.1 27.95 -22.75 31.8 -20.25 36.95 -16.9 42.85 -15.1 L48.1 -13.7 Q52.65 -12.85 57.1 -13.7 L79.95 -16.85 65.1 -16.25 Q59.75 -15.9 54.25 -16.25 49.85 -16.75 45.75 -18.35 39.25 -20.85 33.3 -24.3 29.7 -26.4 26.6 -28.9 L18.2 -35.85 M141.5 -19.25 Q145.4 -18.65 149.0 -16.9 L151.75 -15.55 156.5 -12.65 158.2 -14.55 Q152.3 -17.2 146.05 -18.9 139.2 -20.55 132.1 -20.25 L136.05 -19.65 141.5 -19.25 M168.8 8.8 L168.85 5.45 151.6 -9.7 Q157.5 -2.55 165.15 2.8 166.65 3.85 167.4 5.35 L166.75 6.1 165.9 7.35 168.8 8.8 M159.45 5.0 Q156.6 3.65 154.05 1.85 L156.65 5.45 159.45 5.0 M13.25 142.05 L14.75 147.3 Q13.35 145.15 12.2 142.3 L13.25 142.05 M-12.45 75.15 Q-12.45 77.95 -15.75 94.35 -16.5 98.05 -18.7 103.95 L-20.3 108.7 Q-21.15 110.95 -22.5 112.6 -21.5 112.6 -20.4 114.0 L-18.8 116.4 -17.05 118.65 -15.3 121.05 Q-13.6 122.9 -12.45 125.65 L-10.55 130.5 Q-6.95 138.05 -4.85 145.55 -3.45 145.1 -1.5 143.8 L0.1 142.9 3.9 142.4 5.0 141.45 3.5 134.9 Q-2.1 106.15 -10.8 78.1 L-12.2 75.05 -12.45 74.45 -12.45 75.15 M-60.25 -63.15 L-60.5 -63.3 Q-59.4 -63.1 -60.25 -63.15 M-13.0 -96.15 L-13.2 -96.2 Q-13.8 -96.35 -14.25 -95.8 -21.5 -93.75 -28.65 -91.1 L-34.7 -88.55 -41.15 -85.75 Q-45.1 -84.0 -49.35 -83.25 L-55.7 -81.55 Q-48.6 -82.75 -41.6 -84.65 -38.45 -85.7 -35.35 -87.0 L-28.25 -90.05 Q-24.95 -91.4 -21.25 -91.65 L-13.45 -92.85 -12.8 -92.8 Q-12.25 -92.8 -11.85 -93.1 L-10.8 -93.25 -12.1 -96.4 -13.0 -96.15 M-106.2 -32.7 L-108.55 -29.15 Q-109.25 -28.05 -111.95 -25.55 L-115.95 -22.45 Q-119.4 -19.65 -119.4 -18.9 L-119.0 -18.5 -118.95 -18.45 Q-118.2 -19.9 -116.95 -20.95 L-111.8 -24.7 Q-110.3 -25.65 -109.45 -27.35 L-108.4 -29.0 -107.5 -30.1 Q-97.65 -40.3 -85.1 -47.35 -78.95 -50.8 -73.2 -54.7 L-67.05 -58.3 -57.15 -63.9 Q-53.35 -66.1 -48.9 -67.35 L-42.35 -68.45 -41.85 -68.7 -41.05 -68.8 -39.6 -68.95 -39.2 -69.95 -41.8 -69.55 -47.95 -68.4 Q-53.8 -67.35 -58.0 -65.9 L-63.9 -63.4 -69.25 -60.3 Q-73.5 -57.7 -79.3 -53.25 L-88.6 -46.1 Q-101.15 -37.25 -106.2 -32.7 M-11.0 52.4 L-15.7 61.8 -14.95 64.6 -14.45 66.15 -12.65 70.7 Q-13.4 63.4 -11.95 56.25 L-11.0 52.4 M-39.6 142.4 L-36.0 146.3 -27.25 145.85 Q-26.15 145.8 -25.2 145.15 L-24.65 144.75 -24.65 144.25 Q-24.7 143.75 -24.95 143.4 L-25.3 143.2 -25.35 141.2 -34.25 126.55 Q-35.95 134.9 -39.6 142.4 M-61.55 145.45 L-61.4 144.65 -61.8 145.3 Q-61.7 145.35 -61.55 145.45" fill="#000000" fill-rule="evenodd" stroke="none"/>
      <path d="M18.75 -111.9 L19.0 -112.05 20.0 -111.0 23.35 -108.4 21.4 -108.65 20.85 -108.75 18.75 -111.9 M17.25 -105.85 L15.35 -105.6 14.65 -105.4 13.45 -109.05 13.4 -109.25 13.75 -109.45 16.05 -106.95 17.25 -105.85 M25.3 -111.85 L25.6 -111.65 26.0 -111.3 26.45 -110.55 26.35 -110.55 25.55 -111.25 25.45 -111.45 25.3 -111.85 M24.6 -106.3 L22.8 -106.2 21.75 -107.5 25.05 -107.35 26.55 -106.5 Q27.0 -105.7 27.6 -105.0 L27.9 -102.5 27.95 -101.95 24.3 -104.65 24.05 -104.9 Q24.7 -105.3 25.05 -106.15 L24.6 -106.3" fill="#788fa0" fill-rule="evenodd" stroke="none"/>
      <path d="M15.1 -102.8 L14.55 -102.85 14.95 -103.15 15.1 -102.8 M10.3 -100.35 L11.05 -99.7 12.75 -100.05 13.6 -99.25 16.7 -96.55 Q19.1 -94.6 20.05 -94.6 20.55 -94.6 20.45 -94.75 L20.4 -94.9 17.4 -99.6 17.4 -99.65 18.0 -99.5 18.75 -99.6 19.45 -100.75 19.15 -101.5 23.05 -100.3 Q21.55 -101.55 19.6 -101.95 L15.7 -102.7 15.35 -103.45 Q16.3 -104.05 17.55 -104.3 L18.95 -104.55 19.6 -104.15 23.3 -101.9 Q24.45 -101.2 28.1 -99.6 L28.1 -96.5 27.7 -90.55 27.4 -88.4 27.4 -88.2 27.3 -87.9 27.25 -87.6 27.1 -87.2 26.8 -86.3 26.5 -85.15 26.3 -84.7 26.05 -83.95 Q24.4 -81.3 23.45 -77.9 L23.3 -77.65 Q22.1 -74.35 21.1 -72.65 20.0 -71.3 18.4 -70.4 15.35 -68.7 12.4 -70.15 9.7 -71.55 6.65 -71.6 9.55 -72.75 12.7 -72.65 14.55 -72.95 15.9 -74.05 L14.35 -75.15 18.0 -79.0 Q16.2 -80.15 14.1 -80.45 L11.75 -80.2 Q10.25 -79.95 9.15 -81.1 8.2 -82.2 8.45 -83.7 L12.4 -85.8 9.6 -85.7 Q8.8 -86.75 8.7 -88.05 L8.55 -90.6 8.6 -90.6 Q12.75 -88.35 15.95 -88.35 16.45 -88.35 16.05 -88.6 L16.0 -88.9 Q11.65 -90.95 8.45 -93.85 L8.4 -93.9 8.2 -98.75 11.75 -96.5 Q14.9 -94.65 15.95 -94.65 L16.4 -94.75 16.4 -94.8 16.3 -94.95 Q13.35 -97.45 11.0 -99.65 L10.3 -100.35 M26.55 -91.2 L22.8 -86.3 Q24.2 -87.25 25.2 -88.6 L25.45 -88.95 26.55 -91.2 M0.15 -92.15 Q-1.8 -90.75 -3.3 -92.7 -4.45 -94.15 -4.8 -95.75 L2.6 -96.05 2.15 -94.8 1.2 -93.2 0.15 -92.15 M7.8 -60.55 L7.95 -64.35 12.1 -63.9 Q11.4 -57.55 11.9 -51.1 12.2 -46.95 13.45 -43.1 L10.6 -45.6 Q9.55 -49.25 8.85 -52.95 8.15 -56.75 7.8 -60.55 M7.55 -6.95 L8.45 -7.7 9.7 -9.2 10.75 -11.1 15.2 -8.65 Q13.8 -5.1 10.1 -3.7 7.4 -2.65 4.7 -3.1 L3.25 -3.3 Q1.3 -1.5 -0.3 0.65 L-3.25 5.1 -2.3 3.95 Q-6.6 11.7 -8.25 20.25 L-9.1 25.8 -9.75 33.2 -9.75 33.25 -9.9 37.5 -10.2 33.25 -10.2 33.2 Q-10.85 20.45 -6.8 8.35 -5.15 3.5 -2.2 -0.45 -0.7 -2.45 1.25 -3.8 3.6 -5.35 6.35 -6.4 L7.55 -6.95 M141.5 -19.25 L136.05 -19.65 132.1 -20.25 Q139.2 -20.55 146.05 -18.9 152.3 -17.2 158.2 -14.55 L156.5 -12.65 151.75 -15.55 149.0 -16.9 Q145.4 -18.65 141.5 -19.25 M18.2 -35.85 L26.6 -28.9 Q29.7 -26.4 33.3 -24.3 39.25 -20.85 45.75 -18.35 49.85 -16.75 54.25 -16.25 59.75 -15.9 65.1 -16.25 L79.95 -16.85 57.1 -13.7 Q52.65 -12.85 48.1 -13.7 L42.85 -15.1 Q36.95 -16.9 31.8 -20.25 27.95 -22.75 25.05 -26.1 21.15 -30.7 18.2 -35.85 M168.8 8.8 L165.9 7.35 166.75 6.1 167.4 5.35 Q166.65 3.85 165.15 2.8 157.5 -2.55 151.6 -9.7 L168.85 5.45 168.8 8.8 M159.45 5.0 L156.65 5.45 154.05 1.85 Q156.6 3.65 159.45 5.0 M-12.2 75.05 L-10.8 78.1 Q-2.1 106.15 3.5 134.9 L5.0 141.45 3.9 142.4 0.1 142.9 -1.5 143.8 Q-3.45 145.1 -4.85 145.55 -6.95 138.05 -10.55 130.5 L-12.45 125.65 Q-13.6 122.9 -15.3 121.05 L-17.05 118.65 -18.8 116.4 -20.4 114.0 Q-21.5 112.6 -22.5 112.6 -21.15 110.95 -20.3 108.7 L-18.7 103.95 Q-16.5 98.05 -15.75 94.35 -12.45 77.95 -12.45 75.15 L-12.2 75.05 M-106.2 -32.7 Q-101.15 -37.25 -88.6 -46.1 L-79.3 -53.25 Q-73.5 -57.7 -69.25 -60.3 L-63.9 -63.4 -58.0 -65.9 Q-53.8 -67.35 -47.95 -68.4 L-41.8 -69.55 -39.2 -69.95 -39.6 -68.95 -41.05 -68.8 -41.85 -68.7 -42.35 -68.45 -48.9 -67.35 Q-53.35 -66.1 -57.15 -63.9 L-67.05 -58.3 -73.2 -54.7 Q-78.95 -50.8 -85.1 -47.35 -97.65 -40.3 -107.5 -30.1 L-108.4 -29.0 -109.45 -27.35 Q-110.3 -25.65 -111.8 -24.7 L-116.95 -20.95 Q-118.2 -19.9 -118.95 -18.45 L-119.0 -18.5 -119.4 -18.9 Q-119.4 -19.65 -115.95 -22.45 L-111.95 -25.55 Q-109.25 -28.05 -108.55 -29.15 L-106.2 -32.7 M-13.0 -96.15 L-12.1 -96.4 -10.8 -93.25 -11.85 -93.1 Q-12.25 -92.8 -12.8 -92.8 L-13.45 -92.85 -21.25 -91.65 Q-24.95 -91.4 -28.25 -90.05 L-35.35 -87.0 Q-38.45 -85.7 -41.6 -84.65 -48.6 -82.75 -55.7 -81.55 L-49.35 -83.25 Q-45.1 -84.0 -41.15 -85.75 L-34.7 -88.55 -28.65 -91.1 Q-21.5 -93.75 -14.25 -95.8 -13.8 -96.35 -13.2 -96.2 L-13.0 -96.15 M-60.25 -63.15 Q-59.4 -63.1 -60.5 -63.3 L-60.25 -63.15 M-11.0 52.4 L-11.95 56.25 Q-13.4 63.4 -12.65 70.7 L-14.45 66.15 -14.95 64.6 -15.7 61.8 -11.0 52.4 M-39.6 142.4 Q-35.95 134.9 -34.25 126.55 L-25.35 141.2 -25.3 143.2 -24.95 143.4 Q-24.7 143.75 -24.65 144.25 L-24.65 144.75 -25.2 145.15 Q-26.15 145.8 -27.25 145.85 L-36.0 146.3 -39.6 142.4" fill="url(#gradient1)" fill-rule="evenodd" stroke="none"/>
    </g>
    <linearGradient gradientTransform="matrix(0.0022, 0.1621, -0.043, 6.0E-4, 2.0, 8.25)" gradientUnits="userSpaceOnUse" id="gradient1" spreadMethod="pad" x1="-819.2" x2="819.2">
      <stop offset="0.0" stop-color="#788fa0"/>
      <stop offset="1.0" stop-color="#000000"/>
    </linearGradient>
    <g id="sprite2" transform="matrix(1.0, 0.0, 0.0, 1.0, 0.0, 0.0)">
      <use ffdec:characterId="3592" height="1049.6" transform="matrix(1.0, 0.0, 0.0, 1.0, 0.0, 0.0)" width="1049.6" xlink:href="#shape2"/>
    </g>
    <g id="shape2" transform="matrix(1.0, 0.0, 0.0, 1.0, 0.0, 0.0)">
      <path d="M895.9 895.9 Q742.2 1049.6 524.8 1049.6 307.4 1049.6 153.7 895.9 0.0 742.2 0.0 524.8 0.0 307.4 153.7 153.7 307.4 0.0 524.8 0.0 742.2 0.0 895.9 153.7 1049.6 307.4 1049.6 524.8 1049.6 742.2 895.9 895.9" fill="url(#gradient2)" fill-rule="evenodd" stroke="none"/>
    </g>
    <radialGradient cx="0" cy="0" gradientTransform="matrix(0.6466, 0.0, 0.0, 0.6466, 524.8, 524.8)" gradientUnits="userSpaceOnUse" id="gradient2" r="819.2" spreadMethod="pad">
      <stop offset="0.0" stop-color="#deae00" stop-opacity="0.7019608"/>
      <stop offset="1.0" stop-color="#de8400" stop-opacity="0.0"/>
    </radialGradient>
    <g id="sprite3" transform="matrix(1.0, 0.0, 0.0, 1.0, 0.0, 0.0)">
      <use ffdec:characterId="3647" height="72.35" transform="matrix(1.0, 0.0, 0.0, 1.0, 0.0, 0.0)" width="202.35" xlink:href="#shape3"/>
    </g>
    <g id="shape3" transform="matrix(1.0, 0.0, 0.0, 1.0, 0.0, 0.0)">
      <path d="M3.05 6.7 Q7.25 1.6 17.35 4.15 23.3 6.15 33.75 6.8 44.4 7.5 47.5 8.4 L47.6 8.25 Q48.05 8.35 48.2 8.6 53.8 10.2 54.45 10.6 55.95 11.35 55.95 13.35 L55.65 15.0 56.1 15.1 58.85 15.75 61.95 16.45 65.6 17.4 68.85 17.9 83.6 20.5 98.9 23.7 113.1 26.9 139.75 33.2 Q152.35 36.65 157.35 39.65 L170.4 47.5 Q178.5 52.4 180.25 53.85 182.35 55.65 185.85 57.65 L191.6 61.0 Q200.4 66.65 201.9 68.25 L202.35 68.75 202.35 69.05 202.1 69.15 189.3 70.5 182.7 70.6 176.0 71.15 164.25 71.9 149.1 72.35 Q143.25 72.5 130.6 69.35 122.6 67.3 104.3 61.85 L90.4 57.65 75.5 52.95 61.4 48.0 58.3 46.85 54.7 45.9 53.7 45.6 53.7 45.55 52.05 45.1 51.25 45.6 Q49.95 46.3 47.65 46.4 L47.5 46.9 46.05 46.5 42.85 46.25 42.6 46.25 42.45 46.15 Q40.55 45.8 39.25 45.1 32.6 41.4 31.25 40.85 30.6 40.55 28.8 39.15 L26.6 37.5 25.45 36.85 Q22.9 35.7 21.6 35.0 L21.15 34.8 20.75 34.6 Q18.45 33.6 13.0 31.7 9.05 30.3 7.35 29.25 3.5 26.8 2.35 25.75 0.75 24.2 0.6 22.4 0.0 21.65 0.0 21.0 0.0 20.15 0.45 19.65 L0.35 19.0 0.4 18.1 0.35 17.4 0.75 13.65 Q0.75 9.55 3.05 6.7 M196.9 66.0 Q191.85 62.5 190.6 61.75 187.0 59.7 179.45 54.9 L176.8 52.8 Q174.8 51.15 173.7 50.65 L170.9 49.05 168.6 47.6 163.0 44.25 Q159.8 42.3 156.95 40.9 144.7 34.85 113.35 28.25 L99.75 25.2 84.85 22.0 75.3 20.35 67.7 18.9 56.1 16.5 55.55 16.4 54.25 16.35 54.15 16.4 54.2 16.15 52.95 15.9 52.25 15.75 Q51.05 15.7 50.75 16.6 L50.65 16.65 50.25 16.45 50.2 17.05 Q49.6 17.65 49.1 19.0 L48.25 21.25 Q47.75 22.6 47.6 23.5 L47.4 25.1 47.2 25.95 46.65 27.55 47.7 27.5 Q49.75 27.5 50.8 28.25 L51.25 28.6 70.2 33.25 Q83.3 36.65 87.85 38.15 L95.6 40.4 105.35 43.25 114.0 45.6 124.35 48.25 133.2 50.7 144.35 53.4 Q149.55 54.45 155.1 56.0 L163.35 58.4 Q174.4 61.8 181.1 63.4 L186.65 64.45 Q190.55 65.0 194.35 65.9 L196.85 66.5 198.0 66.8 196.9 66.0 M50.55 44.65 L50.35 44.6 50.2 45.0 50.55 44.65 M53.8 44.4 L53.85 44.4 53.85 44.35 53.8 44.4" fill="#000000" fill-rule="evenodd" stroke="none"/>
      <path d="M63.35 1.0 L63.2 1.15 62.6 1.15 62.6 0.0 62.95 0.0 63.35 1.0 M47.5 60.7 L47.2 60.55 47.75 59.55 48.25 59.85 48.35 60.05 47.5 60.7" fill="#cccccc" fill-opacity="0.2" fill-rule="evenodd" stroke="none"/>
      <path d="M196.85 66.5 L194.35 65.9 Q190.55 65.0 186.65 64.45 L181.1 63.4 Q174.4 61.8 163.35 58.4 L155.1 56.0 Q149.55 54.45 144.35 53.4 L133.2 50.7 124.35 48.25 114.0 45.6 105.35 43.25 95.6 40.4 87.85 38.15 Q83.3 36.65 70.2 33.25 L51.25 28.6 50.8 28.25 Q49.75 27.5 47.7 27.5 L46.65 27.55 47.2 25.95 47.4 25.1 47.6 23.5 Q47.75 22.6 48.25 21.25 L49.1 19.0 Q49.6 17.65 50.2 17.05 L50.25 16.45 50.65 16.65 50.75 16.6 Q51.05 15.7 52.25 15.75 L52.95 15.9 54.2 16.15 54.15 16.4 54.25 16.35 55.55 16.4 56.1 16.5 67.7 18.9 75.3 20.35 84.85 22.0 99.75 25.2 113.35 28.25 Q144.7 34.85 156.95 40.9 159.8 42.3 163.0 44.25 L168.6 47.6 170.9 49.05 173.7 50.65 Q174.8 51.15 176.8 52.8 L179.45 54.9 Q187.0 59.7 190.6 61.75 191.85 62.5 196.9 66.0 L196.85 66.5" fill="url(#gradient3)" fill-rule="evenodd" stroke="none"/>
    </g>
    <linearGradient gradientTransform="matrix(0.0564, -0.0292, 0.0142, 0.0275, 121.75, 41.1)" gradientUnits="userSpaceOnUse" id="gradient3" spreadMethod="pad" x1="-819.2" x2="819.2">
      <stop offset="0.0" stop-color="#000000"/>
      <stop offset="1.0" stop-color="#ffffff"/>
    </linearGradient>
    <g id="sprite4" transform="matrix(1.0, 0.0, 0.0, 1.0, 265.1, 150.0)">
      <use ffdec:characterId="3477" height="300.0" transform="matrix(1.0, 0.0, 0.0, 1.0, -265.1, -150.0)" width="533.0" xlink:href="#shape4"/>
    </g>
    <g id="shape4" transform="matrix(1.0, 0.0, 0.0, 1.0, 265.1, 150.0)">
      <path d="M267.9 -150.0 L267.9 150.0 -265.1 150.0 -265.1 -150.0 267.9 -150.0 Z" fill="none" stroke="#ff0000" stroke-linecap="round" stroke-linejoin="round" stroke-width="0.05"/>
      <path d="M1.4 -16.05 L1.45 -16.05 Q9.35 -16.05 14.95 -11.35 20.55 -6.65 20.55 0.0 L39.5 0.0 M20.55 0.0 Q20.55 6.65 14.95 11.35 9.35 16.05 1.45 16.05 L1.4 16.05 1.4 21.45 M-36.65 0.0 L-17.55 0.0 -17.55 -0.05 Q-17.55 -6.65 -11.95 -11.35 -6.4 -16.05 1.4 -16.05 M1.4 16.05 Q-6.4 16.05 -11.95 11.35 -17.55 6.65 -17.55 0.0" fill="none" stroke="#ff0000" stroke-linecap="round" stroke-linejoin="round" stroke-opacity="0.2509804" stroke-width="0.05"/>
      <path d="M1.4 -16.05 L1.4 -21.4" fill="none" stroke="#ff0000" stroke-linecap="round" stroke-linejoin="round" stroke-opacity="0.2509804" stroke-width="1.0"/>
      <path d="M181.15 141.4 L181.15 123.6 191.05 123.6 191.05 141.4 181.15 141.4" fill="#ffffff" fill-rule="evenodd" stroke="none"/>
      <path d="M250.55 123.6 L260.45 123.6 260.45 141.4 260.35 141.4 250.55 141.4 250.55 123.6" fill="#000000" fill-rule="evenodd" stroke="none"/>
      <path d="M230.7 123.6 L240.6 123.6 240.6 141.4 230.7 141.4 230.7 123.6" fill="#ff0000" fill-rule="evenodd" stroke="none"/>
      <path d="M191.05 123.6 L201.0 123.6 201.0 141.4 191.05 141.4 191.05 123.6" fill="#ffff00" fill-rule="evenodd" stroke="none"/>
      <path d="M201.0 123.6 L210.9 123.6 210.9 141.4 201.0 141.4 201.0 123.6" fill="#00ffff" fill-rule="evenodd" stroke="none"/>
      <path d="M210.9 123.6 L220.8 123.6 220.8 141.4 210.9 141.4 210.9 123.6" fill="#00ff00" fill-rule="evenodd" stroke="none"/>
      <path d="M220.8 123.6 L230.7 123.6 230.7 141.4 220.8 141.4 220.8 123.6" fill="#ff00ff" fill-rule="evenodd" stroke="none"/>
      <path d="M240.6 123.6 L250.55 123.6 250.55 141.4 240.6 141.4 240.6 123.6" fill="#0000ff" fill-rule="evenodd" stroke="none"/>
      <path d="M260.35 141.4 L260.35 145.4 181.1 145.4 181.1 141.4 181.15 141.4 191.05 141.4 201.0 141.4 210.9 141.4 220.8 141.4 230.7 141.4 240.6 141.4 250.55 141.4 260.35 141.4" fill="url(#gradient4)" fill-rule="evenodd" stroke="none"/>
    </g>
    <linearGradient gradientTransform="matrix(0.0484, 0.0, 0.0, 0.0024, 220.7, 143.35)" gradientUnits="userSpaceOnUse" id="gradient4" spreadMethod="pad" x1="-819.2" x2="819.2">
      <stop offset="0.0" stop-color="#ffffff"/>
      <stop offset="1.0" stop-color="#000000"/>
    </linearGradient>
  </defs>
</svg>
