<?xml version="1.0" encoding="UTF-8" standalone="no"?>
<svg xmlns:ffdec="https://www.free-decompiler.com/flash" xmlns:xlink="http://www.w3.org/1999/xlink" ffdec:objectType="frame" height="2840.0px" width="4483.3px" xmlns="http://www.w3.org/2000/svg">
  <g transform="matrix(2.0, 0.0, 0.0, 2.0, 1889.8, 1197.4)">
    <use ffdec:characterId="3746" height="328.95" transform="matrix(1.0, 0.0, 0.0, 1.0, -43.5, -171.2)" width="329.95" xlink:href="#shape0"/>
    <use ffdec:characterId="3745" height="396.0" transform="matrix(1.0, 0.0, 0.0, 1.0, -74.6, -360.2)" width="396.0" xlink:href="#sprite0"/>
    <use ffdec:characterId="3743" height="330.95" transform="matrix(1.0, 0.0, 0.0, 1.0, -208.0, -173.2)" width="655.95" xlink:href="#shape2"/>
    <use ffdec:characterId="3742" height="16.1" transform="matrix(0.8292, 0.0, 0.0, 0.8292, -79.35, -19.4)" width="30.8" xlink:href="#sprite1"/>
    <use ffdec:characterId="3740" height="313.5" transform="matrix(1.0, 0.0, 0.0, 1.0, -4.8, -150.75)" width="242.7" xlink:href="#sprite2"/>
    <use ffdec:characterId="3732" height="355.95" transform="matrix(1.0, 0.0, 0.0, 1.0, -39.5, -191.2)" width="323.95" xlink:href="#shape9"/>
    <use ffdec:characterId="3731" height="394.3" transform="matrix(1.0, 0.0, 0.0, 1.0, -227.4, -208.05)" width="692.35" xlink:href="#morphshape0"/>
    <use ffdec:characterId="3645" height="300.0" transform="matrix(0.3871, 0.0, 0.0, 0.3871, 17.3716, -155.3173)" width="533.0" xlink:href="#sprite5"/>
  </g>
  <defs>
    <g id="shape0" transform="matrix(1.0, 0.0, 0.0, 1.0, 43.5, 171.2)">
      <path d="M285.45 156.75 L-42.5 156.75 -42.5 -170.2 285.45 -170.2 285.45 156.75" fill="url(#gradient0)" fill-rule="evenodd" stroke="none"/>
      <path d="M285.45 156.75 L-42.5 156.75 -42.5 -170.2 285.45 -170.2 285.45 156.75 Z" fill="none" stroke="#000000" stroke-linecap="round" stroke-linejoin="round" stroke-width="2.0"/>
    </g>
    <radialGradient cx="0" cy="0" gradientTransform="matrix(0.4374, 0.0, 0.0, 0.4374, 123.05, 147.55)" gradientUnits="userSpaceOnUse" id="gradient0" r="819.2" spreadMethod="pad">
      <stop offset="0.0" stop-color="#471f1f"/>
      <stop offset="1.0" stop-color="#0c0505"/>
    </radialGradient>
    <g id="sprite0" transform="matrix(1.0, 0.0, 0.0, 1.0, 0.0, 0.0)">
      <use ffdec:characterId="3744" height="396.0" transform="matrix(1.0, 0.0, 0.0, 1.0, 0.0, 0.0)" width="396.0" xlink:href="#shape1"/>
    </g>
    <g id="shape1" transform="matrix(1.0, 0.0, 0.0, 1.0, 0.0, 0.0)">
      <path d="M338.0 338.0 Q280.0 396.0 198.0 396.0 116.0 396.0 58.0 338.0 0.0 280.0 0.0 198.0 0.0 116.0 58.0 58.0 116.0 0.0 198.0 0.0 280.0 0.0 338.0 58.0 396.0 116.0 396.0 198.0 396.0 280.0 338.0 338.0" fill="url(#gradient1)" fill-rule="evenodd" stroke="none"/>
    </g>
    <radialGradient cx="0" cy="0" gradientTransform="matrix(0.2444, 0.0, 0.0, 0.2444, 198.0, 198.0)" gradientUnits="userSpaceOnUse" id="gradient1" r="819.2" spreadMethod="pad">
      <stop offset="0.0" stop-color="#ff9c09" stop-opacity="0.70980394"/>
      <stop offset="1.0" stop-color="#ffbc22" stop-opacity="0.0"/>
    </radialGradient>
    <g id="shape2" transform="matrix(1.0, 0.0, 0.0, 1.0, 208.0, 173.2)">
      <path d="M276.5 -162.2 L276.5 -173.2 292.5 -162.5 292.5 -162.2 445.45 -162.2 447.45 153.75 292.5 153.3 292.5 157.75 275.5 157.75 275.55 153.25 276.5 -162.2 292.5 -162.2 276.5 -162.2 M-32.5 152.3 L-32.5 157.75 -49.5 157.75 -49.45 152.25 -206.5 151.75 -204.5 -162.2 -48.5 -162.2 -48.5 -173.2 -32.5 -162.5 -32.5 -162.2 -48.5 -162.2 -32.5 -162.2 -32.5 152.3 -49.45 152.25 -32.5 152.3 M292.5 153.3 L275.55 153.25 292.5 153.3" fill="#000000" fill-rule="evenodd" stroke="none"/>
      <path d="M292.5 -162.2 L445.45 -162.2 447.45 153.75 292.5 153.3 275.55 153.25 -32.5 152.3 -49.45 152.25 -206.5 151.75 -204.5 -162.2 -207.5 -162.2 M292.5 -162.2 L276.5 -162.2 -32.5 -162.2 -48.5 -162.2 -204.5 -162.2 -204.5 -167.2" fill="none" stroke="#990000" stroke-linecap="round" stroke-linejoin="round" stroke-width="1.0"/>
    </g>
    <g id="sprite1" transform="matrix(1.0, 0.0, 0.0, 1.0, 0.0, 0.0)">
      <use ffdec:characterId="3741" height="16.1" transform="matrix(1.0, 0.0, 0.0, 1.0, 0.0, 0.0)" width="30.8" xlink:href="#shape3"/>
    </g>
    <g id="shape3" transform="matrix(1.0, 0.0, 0.0, 1.0, 0.0, 0.0)">
      <path d="M26.7 8.3 L28.95 8.3 24.8 2.1 20.65 8.3 22.9 8.3 22.9 13.95 26.7 13.95 26.7 8.3 M30.8 16.1 L19.0 16.1 19.0 0.05 30.8 0.05 30.8 16.1 M0.0 0.0 L11.8 0.0 11.8 16.05 0.0 16.05 0.0 0.0 M8.0 7.35 L8.0 1.7 4.2 1.7 4.2 7.35 1.95 7.35 6.1 13.55 10.25 7.35 8.0 7.35" fill="#f7fdb5" fill-opacity="0.26666668" fill-rule="evenodd" stroke="none"/>
    </g>
    <g id="sprite2" transform="matrix(1.0, 0.0, 0.0, 1.0, 4.6, 150.7)">
      <use ffdec:characterId="3739" height="313.5" transform="matrix(1.0, 0.0, 0.0, 1.0, 72.0, -150.7)" width="105.85" xlink:href="#shape4"/>
      <use ffdec:characterId="3738" height="47.7" transform="matrix(0.1065, 0.0, 0.0, 0.1065, 118.4116, -109.7311)" width="83.45" xlink:href="#sprite3"/>
      <use ffdec:characterId="3736" height="49.25" transform="matrix(1.0, 0.0, 0.0, 1.0, 105.5, -132.6)" width="34.15" xlink:href="#shape6"/>
      <filter id="filter0">
        <feColorMatrix in="SourceGraphic" result="filterResult0" type="matrix" values="0 0 0 0 1.0,0 0 0 0 0.6,0 0 0 0 0.0,0 0 0 1 0"/>
        <feConvolveMatrix divisor="25.0" in="filterResult0" kernelMatrix="1 1 1 1 1 1 1 1 1 1 1 1 1 1 1 1 1 1 1 1 1 1 1 1 1" order="5 5" result="filterResult1"/>
        <feConvolveMatrix divisor="25.0" in="filterResult1" kernelMatrix="1 1 1 1 1 1 1 1 1 1 1 1 1 1 1 1 1 1 1 1 1 1 1 1 1" order="5 5" result="filterResult2"/>
        <feComposite in="SourceGraphic" in2="filterResult2" operator="over" result="filterResult3"/>
      </filter>
      <use ffdec:characterId="3735" filter="url(#filter0)" height="2.0" transform="matrix(1.0, 0.0, 0.0, 1.0, 116.15, -120.9)" width="13.9" xlink:href="#sprite4"/>
      <use ffdec:characterId="3733" height="300.5" transform="matrix(1.0, 0.0, 0.0, 1.0, -4.6, -143.65)" width="242.7" xlink:href="#shape8"/>
    </g>
    <g id="shape4" transform="matrix(1.0, 0.0, 0.0, 1.0, -72.0, 150.7)">
      <path d="M126.3 -150.55 L127.3 -150.4 127.5 -150.4 128.95 -150.0 129.65 -150.05 130.3 -149.65 130.3 -149.8 Q131.0 -149.7 132.15 -148.8 L132.4 -148.65 Q133.85 -148.15 135.45 -146.65 L135.75 -146.35 137.65 -145.0 142.2 -142.25 144.25 -140.95 144.75 -140.6 Q145.1 -140.35 145.35 -140.3 L146.0 -140.1 146.05 -139.8 Q146.05 -139.0 144.3 -139.0 L143.4 -139.0 143.4 -138.9 143.95 -137.3 145.65 -134.2 147.6 -131.0 148.85 -129.65 Q150.05 -128.3 150.05 -127.95 L149.95 -127.65 148.75 -127.5 Q147.6 -127.5 146.45 -128.1 L146.7 -127.15 Q147.3 -124.8 147.95 -123.3 L149.65 -119.5 Q150.2 -118.2 151.9 -115.8 151.9 -115.4 151.3 -115.4 150.25 -115.4 148.1 -116.8 L148.9 -113.3 Q149.25 -111.9 150.4 -109.65 L151.4 -107.45 Q151.4 -106.75 151.2 -106.75 149.9 -106.75 148.1 -108.05 L146.9 -109.05 Q147.0 -106.95 147.45 -105.2 L148.15 -102.65 149.15 -100.25 148.85 -100.15 Q148.25 -100.15 146.6 -101.1 L144.8 -102.25 143.45 -103.5 143.45 -103.4 Q143.3 -102.8 143.3 -101.3 L143.55 -99.55 144.0 -98.75 144.3 -97.9 144.0 -97.8 Q143.35 -97.8 141.2 -99.6 L140.1 -100.45 139.9 -100.65 139.8 -99.55 139.9 -97.25 139.9 -96.55 139.7 -96.4 137.9 -97.3 Q137.45 -97.45 136.65 -98.35 L136.0 -99.15 136.0 -98.9 136.1 -97.0 138.2 -96.05 139.1 -95.7 145.65 -94.65 147.8 -94.2 149.35 -93.3 Q152.1 -91.75 153.35 -89.8 160.3 -78.9 163.4 -72.6 L167.65 -64.05 172.0 -55.35 175.95 -46.75 Q177.85 -41.85 177.85 -38.2 L177.75 -37.9 177.7 -37.95 177.7 -37.8 Q177.7 -35.85 174.7 -29.3 172.35 -24.3 171.0 -22.05 L166.7 -14.35 167.5 -13.2 167.25 -12.2 167.0 -11.95 166.0 -11.7 Q164.8 -11.7 161.55 -14.95 158.5 -18.0 158.5 -18.6 158.5 -21.15 160.65 -19.95 L162.75 -25.35 Q164.05 -30.3 164.85 -32.65 L165.9 -36.15 Q166.3 -37.9 166.2 -39.25 L164.75 -41.65 162.65 -45.3 157.75 -52.5 154.9 -56.0 Q153.0 -58.4 152.25 -59.7 L149.95 -63.25 148.05 -66.3 147.8 -62.35 147.9 -62.35 147.9 -62.1 147.9 -61.9 147.9 -61.8 147.2 -57.8 146.2 -54.25 146.0 -53.65 145.65 -52.6 144.8 -50.2 Q144.25 -48.75 144.15 -47.8 143.9 -45.8 143.9 -42.95 143.9 -39.6 144.55 -37.9 L144.75 -37.4 144.85 -37.45 145.05 -36.95 145.4 -36.25 145.4 -36.15 147.75 -32.2 147.75 -32.15 149.75 -29.25 151.15 -27.35 151.25 -27.45 151.35 -27.45 151.4 -27.2 151.4 -27.05 151.75 -26.55 153.45 -23.95 155.45 -19.55 Q156.05 -19.2 156.45 -18.15 L157.05 -16.2 157.9 -14.35 157.95 -14.35 157.95 -14.3 158.1 -13.95 158.1 -13.9 158.6 -12.45 158.85 -11.7 158.85 -11.65 158.95 -11.5 161.25 -4.95 163.35 2.6 164.85 10.1 Q165.7 14.7 166.2 20.25 L166.25 20.55 166.25 21.6 166.4 23.75 165.95 38.3 165.5 44.5 165.05 52.85 165.1 56.85 165.0 56.85 165.1 58.1 165.05 60.35 164.85 64.9 Q164.85 67.45 165.45 70.65 L166.5 76.05 167.25 81.6 168.2 87.2 169.55 92.75 170.45 98.4 Q171.0 104.95 171.0 109.45 L170.85 110.85 170.8 110.85 170.75 112.25 170.7 118.05 171.0 136.2 171.05 145.2 171.3 149.7 171.5 153.45 173.05 153.55 173.3 153.8 173.5 154.8 Q173.5 155.45 169.5 156.8 164.95 158.3 160.75 158.3 L159.4 158.2 159.3 159.45 159.25 158.15 158.25 158.05 158.15 157.8 Q158.0 157.65 158.0 156.9 158.0 156.25 159.15 155.65 L158.85 149.55 Q158.55 143.6 157.5 139.65 L157.15 137.25 156.65 134.7 155.0 129.8 153.3 124.9 Q152.35 122.0 151.95 120.0 151.25 116.45 150.95 110.05 150.65 103.25 150.15 100.25 149.2 94.15 147.45 90.45 L145.05 85.45 143.5 81.2 143.3 80.55 Q142.95 79.2 142.75 77.65 L142.25 69.9 Q141.6 61.75 140.1 54.6 L138.15 47.0 136.2 39.35 135.0 35.55 Q134.15 33.1 134.0 31.65 L133.2 24.1 Q133.2 22.35 133.35 21.35 L133.05 21.6 130.5 21.6 128.85 22.3 125.5 23.55 125.15 23.55 124.8 26.55 124.2 30.45 Q123.6 34.05 122.55 37.35 L117.5 51.15 Q114.25 60.65 113.25 64.85 112.65 67.5 112.3 71.8 L112.15 73.85 112.2 73.9 112.25 74.1 111.9 76.55 111.6 78.9 111.45 81.2 111.0 83.6 109.05 88.25 106.8 93.0 104.5 97.7 Q103.1 100.55 102.65 102.35 L100.2 111.75 Q98.3 119.95 94.05 129.05 L91.55 134.1 Q90.05 137.35 89.25 140.4 L87.55 146.75 Q86.75 150.15 86.75 152.95 L87.35 159.7 87.35 160.1 Q89.0 160.65 89.0 161.3 89.0 162.25 88.3 162.55 L85.75 162.8 Q83.1 162.8 78.35 160.6 74.1 158.65 73.5 157.8 72.35 156.2 72.1 154.55 L72.0 151.8 72.1 149.5 Q72.5 148.2 74.0 147.8 L74.6 148.0 76.05 139.4 77.85 127.55 Q78.5 119.35 79.2 115.85 79.55 111.85 80.1 109.95 L80.6 107.0 Q80.8 105.65 81.2 104.75 81.4 102.9 82.5 98.85 83.45 95.35 84.15 93.3 87.15 85.2 88.25 81.15 90.1 74.7 90.35 68.7 L90.3 61.75 90.35 61.75 90.55 57.3 90.75 52.05 90.7 47.2 Q90.7 45.85 90.85 44.75 L90.85 44.5 90.85 44.45 Q91.2 37.05 91.95 30.3 L93.8 15.0 94.95 7.35 Q95.7 4.7 95.7 3.45 L95.4 -0.25 95.45 -4.05 Q95.45 -4.85 95.6 -5.4 L95.65 -6.55 95.55 -6.7 95.55 -7.2 95.55 -7.4 95.55 -7.55 95.7 -7.25 95.85 -9.35 95.95 -10.1 95.85 -10.35 95.85 -10.6 95.8 -10.6 96.0 -10.65 96.1 -11.1 96.0 -12.15 Q96.0 -15.55 98.8 -23.75 100.55 -28.9 101.1 -32.15 L101.1 -32.8 101.25 -34.5 Q101.25 -37.2 100.15 -41.05 L98.0 -47.65 95.95 -54.15 95.15 -57.3 94.4 -60.25 Q93.65 -63.6 93.65 -67.9 L93.65 -69.25 93.3 -67.7 92.65 -65.55 92.55 -65.55 91.25 -60.85 89.3 -54.15 87.05 -46.8 Q85.7 -42.45 85.95 -40.8 L85.8 -40.75 85.75 -40.35 Q85.75 -38.1 86.4 -35.65 L87.75 -31.35 90.65 -22.5 93.4 -13.55 93.95 -11.85 94.55 -11.95 94.8 -11.7 95.0 -10.7 Q95.0 -9.25 92.0 -7.15 89.25 -5.2 88.25 -5.2 L86.75 -5.45 86.65 -5.7 Q86.5 -5.85 86.5 -6.6 86.5 -7.0 87.1 -7.6 85.5 -10.8 83.0 -16.65 L80.5 -21.95 Q79.0 -25.2 78.4 -27.3 L76.75 -33.05 76.1 -35.45 Q75.65 -36.3 75.55 -37.05 L75.5 -39.05 Q75.5 -45.65 78.4 -60.85 L80.5 -71.7 81.55 -77.2 81.95 -80.75 Q81.95 -82.85 83.2 -87.7 84.35 -92.1 85.1 -93.85 87.05 -98.6 88.65 -100.15 91.55 -103.15 96.85 -103.85 L96.7 -103.9 96.45 -104.1 Q96.35 -104.45 96.6 -104.7 L96.95 -105.05 97.1 -105.15 97.5 -105.4 97.7 -105.5 98.2 -105.7 98.5 -105.8 99.35 -105.6 99.75 -107.05 100.1 -108.2 100.35 -109.6 100.25 -109.65 98.35 -109.05 95.85 -108.2 95.5 -108.5 96.0 -109.0 96.9 -109.95 97.9 -111.35 98.8 -112.8 99.4 -114.15 Q99.85 -115.05 100.35 -117.3 L100.85 -119.0 99.8 -117.7 98.55 -116.25 95.2 -113.55 94.95 -113.55 94.9 -113.75 96.35 -116.55 98.2 -120.4 99.2 -123.65 99.35 -125.15 97.55 -124.0 Q95.65 -122.9 94.6 -122.55 L94.45 -122.8 Q94.45 -123.05 96.0 -124.7 L98.55 -127.9 99.25 -129.35 98.35 -129.25 98.15 -129.35 Q98.1 -129.1 98.1 -129.45 98.1 -129.6 99.45 -130.25 L99.7 -130.35 99.75 -130.55 100.65 -132.95 100.6 -133.1 98.45 -132.55 98.4 -132.8 Q98.4 -133.25 99.45 -133.9 L101.0 -134.8 103.55 -136.8 106.7 -140.75 106.75 -140.8 103.2 -139.6 102.8 -139.65 Q102.7 -139.6 102.7 -139.85 L106.05 -142.65 110.3 -145.9 Q112.5 -147.45 116.15 -149.0 L119.85 -150.15 Q123.1 -151.05 123.35 -150.5 L124.65 -150.4 125.35 -150.4 126.3 -150.55 M104.3 -140.55 L104.2 -140.5 104.3 -140.5 104.3 -140.55 M101.4 -130.55 L101.3 -130.45 101.4 -130.45 101.4 -130.55 M119.05 -102.35 L119.85 -101.8 121.55 -101.4 122.9 -101.2 Q124.5 -101.2 126.9 -102.1 L127.4 -102.35 127.5 -102.35 128.6 -103.35 Q131.05 -105.6 131.9 -107.2 L134.1 -110.6 134.85 -112.35 135.15 -112.85 135.55 -114.4 Q135.75 -115.25 136.1 -115.75 L136.1 -115.8 137.1 -116.55 Q138.1 -116.9 138.15 -117.85 138.15 -119.0 138.4 -119.55 137.95 -119.95 137.65 -121.0 L137.6 -121.25 136.4 -122.7 Q135.45 -124.25 135.25 -126.0 L135.2 -127.45 Q132.55 -125.0 131.75 -125.0 L131.55 -125.05 131.4 -125.05 131.4 -125.3 132.5 -126.85 Q133.65 -128.55 134.15 -130.0 L134.6 -131.55 134.3 -131.8 132.0 -129.25 127.5 -125.65 Q126.8 -125.2 124.1 -124.35 L121.55 -123.55 121.05 -123.7 123.4 -125.5 125.9 -127.25 Q127.35 -128.55 128.4 -130.85 L128.5 -131.0 125.75 -128.35 Q124.05 -126.7 122.05 -125.5 L121.3 -125.6 120.9 -125.75 120.8 -125.65 Q119.7 -124.6 118.3 -124.85 L117.65 -124.4 Q117.05 -123.85 116.3 -124.25 115.95 -124.45 115.9 -124.8 L115.9 -125.2 116.4 -126.0 116.5 -126.3 116.5 -126.7 Q116.65 -127.2 116.05 -127.35 L115.7 -127.4 114.7 -125.75 113.7 -123.9 114.15 -123.95 118.25 -121.8 119.2 -121.5 Q119.95 -121.45 119.95 -121.1 L119.85 -120.85 119.9 -120.75 119.9 -120.6 119.7 -120.35 119.6 -120.25 120.05 -119.75 119.9 -119.6 119.9 -119.35 119.6 -118.85 119.2 -118.45 118.9 -118.45 Q118.15 -118.1 117.1 -118.1 115.6 -118.1 114.7 -119.0 L114.2 -119.6 114.15 -120.1 114.2 -120.5 113.85 -120.6 113.6 -120.6 113.55 -120.75 113.95 -121.05 114.1 -121.1 114.05 -121.15 Q113.85 -121.4 114.0 -121.6 L114.15 -121.7 114.7 -121.5 115.25 -121.3 115.5 -121.35 115.4 -121.45 Q115.0 -121.75 115.4 -121.95 L116.05 -121.7 116.2 -121.75 117.45 -121.6 117.55 -121.6 116.45 -122.15 Q115.25 -122.7 115.05 -122.9 L114.35 -123.3 113.6 -123.45 113.5 -123.45 113.25 -122.8 111.75 -118.8 111.75 -118.6 111.75 -118.5 111.8 -118.15 111.75 -117.8 111.55 -113.1 111.7 -112.35 Q112.1 -111.1 114.05 -108.4 L115.5 -106.6 116.9 -104.75 118.5 -102.85 119.1 -102.45 119.0 -102.4 119.05 -102.35 M96.5 -108.75 L96.45 -108.8 96.45 -108.75 96.5 -108.75 M95.95 -114.65 L95.95 -114.7 95.9 -114.65 95.95 -114.65 M95.45 -123.35 L95.4 -123.45 95.35 -123.35 95.45 -123.35 M99.15 -133.15 L99.05 -133.05 99.15 -133.05 99.15 -133.15 M99.65 -106.15 L99.5 -105.6 99.55 -105.6 99.65 -106.1 99.65 -106.15 M93.75 -70.85 Q93.85 -72.55 94.55 -73.5 L94.55 -73.45 94.3 -72.25 94.15 -71.1 94.05 -68.95 94.05 -68.4 94.5 -69.05 95.25 -70.15 96.05 -72.4 97.05 -76.95 Q98.6 -83.3 98.65 -86.1 98.7 -93.4 98.9 -95.2 L99.05 -99.75 98.95 -101.45 98.4 -101.25 96.8 -101.3 96.65 -101.5 96.5 -101.9 96.2 -102.5 96.05 -103.0 96.15 -103.05 Q90.95 -102.1 88.25 -98.85 87.0 -97.35 86.05 -95.0 L84.85 -91.8 84.25 -90.0 83.9 -88.2 82.85 -84.45 82.3 -80.05 82.1 -78.45 82.1 -78.15 82.0 -77.25 81.85 -75.9 78.95 -61.3 Q75.95 -45.45 75.95 -39.1 L76.15 -36.8 Q77.6 -31.45 78.95 -27.4 79.65 -25.25 81.05 -21.95 L83.45 -16.65 Q85.65 -11.45 87.5 -7.95 88.2 -8.65 89.55 -9.6 91.9 -11.25 93.55 -11.75 L93.0 -13.45 Q91.65 -18.55 90.2 -22.35 87.8 -28.95 87.2 -31.35 L85.8 -36.0 Q85.25 -38.0 85.25 -40.25 85.25 -41.5 85.55 -43.35 L85.75 -43.35 Q86.15 -45.25 87.3 -49.15 L89.05 -54.9 90.9 -61.35 91.7 -65.05 Q92.2 -67.15 92.7 -67.7 L92.85 -68.55 93.1 -69.1 93.25 -69.55 93.5 -70.65 93.65 -70.65 93.7 -70.45 93.75 -70.85 M116.7 -120.9 L116.25 -120.85 116.15 -120.6 116.15 -120.2 Q116.15 -119.7 116.35 -119.5 L116.65 -119.2 117.1 -119.1 117.25 -119.0 Q117.75 -119.0 118.05 -119.6 L118.1 -119.5 118.3 -119.3 118.35 -119.25 117.95 -118.9 117.85 -118.85 117.95 -118.85 118.0 -118.75 118.05 -118.65 118.05 -118.6 118.15 -118.6 118.55 -118.55 118.6 -118.65 118.75 -118.8 118.95 -119.05 119.35 -119.6 119.55 -119.75 118.6 -120.2 118.55 -120.1 118.35 -119.3 118.3 -119.45 118.15 -119.6 118.1 -119.7 118.15 -120.05 118.05 -120.4 118.05 -120.45 117.9 -120.55 117.45 -120.75 116.7 -120.9 M117.2 -118.5 L117.15 -118.55 117.15 -118.6 Q116.75 -118.65 116.4 -118.85 L115.95 -119.3 Q115.8 -119.5 115.8 -120.2 L115.85 -120.75 115.6 -120.75 115.0 -120.6 114.75 -120.55 114.75 -120.3 114.8 -119.85 115.45 -119.0 Q115.85 -118.5 117.15 -118.5 L117.2 -118.5 M109.95 -118.35 Q110.1 -119.2 110.6 -120.0 L111.05 -120.75 Q110.65 -120.55 110.15 -119.75 L109.3 -118.6 109.35 -118.6 109.95 -118.25 109.95 -118.35 M103.45 -106.7 L102.05 -105.85 101.5 -105.35 102.0 -105.4 103.2 -105.45 103.45 -106.7 M112.75 -108.8 L112.7 -106.85 112.45 -105.3 112.45 -105.25 Q112.05 -104.0 111.35 -103.5 L111.4 -103.4 Q110.75 -103.05 110.25 -103.05 L107.3 -103.15 105.1 -103.25 104.0 -103.3 101.5 -103.0 101.25 -96.0 101.5 -89.95 101.65 -84.1 Q102.1 -82.15 103.55 -80.0 L107.3 -75.1 Q108.3 -73.65 112.0 -71.25 117.05 -67.95 121.5 -67.95 L124.45 -68.4 124.65 -68.5 124.55 -68.35 125.3 -68.8 128.7 -70.8 Q130.3 -71.75 133.45 -74.2 134.95 -75.3 137.3 -78.25 L140.0 -81.9 140.0 -82.0 Q140.0 -83.0 140.5 -85.4 140.95 -87.4 140.65 -88.5 140.65 -92.8 141.3 -94.6 L140.6 -94.7 138.55 -95.25 138.2 -95.35 Q135.15 -96.5 133.25 -98.4 132.1 -99.55 131.6 -100.8 L131.75 -100.85 131.3 -101.95 131.25 -103.35 131.1 -103.55 131.15 -103.6 131.25 -103.5 131.25 -103.65 131.45 -105.5 129.6 -103.55 129.2 -103.2 127.25 -101.5 127.15 -101.7 126.3 -101.3 Q124.85 -100.75 122.85 -100.75 120.7 -100.75 119.3 -101.6 L118.95 -101.85 119.05 -101.6 117.65 -102.85 116.25 -104.6 113.4 -108.35 112.9 -108.9 112.9 -108.95 112.75 -109.15 112.75 -108.8 M112.05 -106.9 L112.2 -106.75 112.2 -107.1 112.05 -106.9 M124.05 -133.75 L124.15 -133.85 124.05 -133.8 123.8 -133.7 123.9 -133.55 124.05 -133.75 M123.9 -124.9 L123.75 -124.85 123.9 -124.85 123.9 -124.9 M137.05 -128.65 L136.85 -129.05 136.5 -128.7 136.75 -128.7 137.05 -128.65 M131.65 -121.15 L132.05 -120.9 132.5 -120.55 132.6 -120.4 132.55 -120.35 132.7 -120.1 Q132.7 -119.85 132.0 -119.85 L131.85 -119.85 131.9 -119.5 Q131.9 -118.75 131.55 -118.5 130.25 -117.7 129.6 -117.7 L127.5 -118.1 126.8 -118.6 126.9 -118.75 126.8 -118.85 126.65 -119.05 126.45 -119.55 126.5 -119.65 126.25 -119.5 126.15 -119.65 126.55 -120.1 126.55 -120.2 126.55 -120.5 126.55 -120.55 126.65 -120.85 126.6 -120.85 126.65 -120.9 126.25 -120.75 126.05 -120.95 127.2 -121.6 128.45 -122.3 129.75 -123.05 Q130.95 -123.6 132.25 -123.6 L133.45 -123.35 134.05 -123.0 Q134.05 -122.8 133.65 -122.8 L133.05 -122.95 132.2 -123.1 130.85 -122.95 129.95 -122.5 129.55 -122.4 129.45 -122.3 Q129.5 -122.2 129.15 -122.15 129.05 -122.15 128.5 -121.75 L128.3 -121.55 127.85 -121.45 127.7 -121.35 128.85 -121.55 128.95 -121.55 130.1 -121.55 131.05 -121.5 131.7 -121.25 131.65 -121.15 M127.8 -120.0 L127.25 -119.75 127.1 -119.65 127.05 -119.6 126.95 -119.55 127.05 -119.3 127.2 -119.0 127.3 -118.8 127.35 -118.65 127.8 -118.5 129.25 -118.2 Q130.05 -118.2 130.65 -118.5 131.3 -118.85 131.3 -119.4 L131.2 -120.1 131.0 -120.2 130.4 -120.4 130.35 -120.4 130.45 -119.85 130.2 -119.05 129.85 -118.7 129.05 -118.5 Q128.3 -118.5 128.05 -119.0 L127.8 -119.6 127.85 -120.0 127.8 -120.0 M126.9 -119.75 L126.85 -119.75 126.8 -119.8 127.05 -119.6 127.1 -119.65 127.2 -119.75 127.0 -119.7 126.9 -119.75 M129.05 -118.9 Q129.95 -118.9 130.05 -119.85 L129.85 -120.45 129.8 -120.45 129.3 -120.45 128.15 -120.15 Q128.2 -118.9 129.05 -118.9 M166.75 -38.2 Q166.75 -35.85 162.8 -24.45 L161.0 -19.75 162.85 -18.3 166.5 -14.6 171.0 -22.9 Q173.7 -28.05 174.95 -31.15 L176.6 -35.25 177.2 -37.3 177.25 -38.35 177.35 -38.95 177.15 -40.0 176.8 -42.15 175.55 -46.45 Q173.05 -51.7 171.7 -55.0 L170.4 -57.15 Q169.8 -57.9 169.35 -59.25 L168.45 -61.35 167.35 -63.45 163.15 -72.0 158.55 -80.7 Q156.9 -83.75 155.8 -84.9 155.15 -85.6 154.45 -86.9 L153.15 -89.1 151.2 -91.1 149.0 -92.85 147.75 -93.55 145.25 -94.2 144.2 -94.3 Q142.65 -87.7 142.65 -82.35 142.65 -80.2 144.6 -72.15 L145.85 -67.1 Q146.45 -64.75 147.35 -63.0 L147.5 -65.4 147.55 -67.25 Q147.65 -68.35 148.05 -68.85 L148.05 -68.6 148.05 -66.65 150.45 -63.25 152.75 -59.7 Q153.95 -57.55 155.5 -56.1 L156.95 -54.4 158.2 -52.5 163.05 -45.5 Q165.35 -42.1 166.45 -39.5 L166.75 -38.95 166.75 -38.9 166.95 -38.35 166.95 -38.25 166.9 -38.3 166.75 -38.5 166.75 -38.2 M96.75 -13.35 Q96.6 -12.9 96.6 -12.1 L96.6 -11.95 96.35 -10.45 96.95 -9.9 Q97.75 -8.95 99.3 -8.4 L103.05 -6.85 107.3 -5.35 113.95 -4.35 119.55 -4.2 127.75 -4.7 Q131.4 -5.25 135.5 -6.55 137.35 -7.1 139.75 -8.25 L143.25 -9.85 Q144.85 -10.35 146.75 -11.3 146.85 -11.85 147.85 -12.3 149.15 -12.95 149.45 -13.3 L151.95 -15.4 154.1 -17.55 154.6 -18.7 Q154.8 -19.3 155.15 -19.55 L154.15 -21.25 152.75 -24.0 151.1 -26.55 150.05 -25.05 148.35 -22.9 146.2 -20.9 143.7 -18.9 Q140.65 -16.7 136.3 -14.95 132.1 -13.25 129.75 -13.15 L129.75 -13.05 120.45 -12.15 Q116.45 -12.15 108.2 -13.5 105.35 -14.0 103.05 -14.95 101.65 -15.5 100.0 -16.6 L97.6 -18.2 Q96.95 -15.55 96.6 -13.2 L96.75 -13.35" fill="#000000" fill-rule="evenodd" stroke="none"/>
      <path d="M126.85 -107.9 L126.95 -107.95 127.0 -107.95 127.0 -107.9 126.9 -107.85 126.85 -107.9" fill="#cc008f" fill-rule="evenodd" stroke="none"/>
      <path d="M96.75 -13.35 L96.6 -13.2 Q96.95 -15.55 97.6 -18.2 L100.0 -16.6 Q101.65 -15.5 103.05 -14.95 105.35 -14.0 108.2 -13.5 116.45 -12.15 120.45 -12.15 L129.75 -13.05 129.75 -13.15 Q132.1 -13.25 136.3 -14.95 140.65 -16.7 143.7 -18.9 L146.2 -20.9 148.35 -22.9 150.05 -25.05 151.1 -26.55 152.75 -24.0 154.15 -21.25 155.15 -19.55 Q154.8 -19.3 154.6 -18.7 L154.1 -17.55 151.95 -15.4 149.45 -13.3 Q149.15 -12.95 147.85 -12.3 146.85 -11.85 146.75 -11.3 144.85 -10.35 143.25 -9.85 L139.75 -8.25 Q137.35 -7.1 135.5 -6.55 131.4 -5.25 127.75 -4.7 L119.55 -4.2 113.95 -4.35 107.3 -5.35 103.05 -6.85 99.3 -8.4 Q97.75 -8.95 96.95 -9.9 L96.35 -10.45 96.6 -11.95 96.6 -12.1 Q96.6 -12.9 96.75 -13.35" fill="#405b84" fill-rule="evenodd" stroke="none"/>
      <path d="M124.05 -133.8 L124.15 -133.85 124.05 -133.75 124.05 -133.8" fill="url(#gradient2)" fill-rule="evenodd" stroke="none"/>
      <path d="M124.05 -133.8 L124.05 -133.75 124.05 -133.8" fill="#009999" fill-rule="evenodd" stroke="none"/>
      <path d="M93.65 -70.65 L93.75 -70.85 93.7 -70.45 93.65 -70.65 M112.75 -108.8 L112.75 -109.15 112.9 -108.95 112.75 -108.8 M166.75 -38.2 L166.75 -38.5 166.9 -38.3 166.75 -38.2" fill="url(#gradient3)" fill-rule="evenodd" stroke="none"/>
      <path d="M112.9 -108.9 L112.75 -108.8 112.9 -108.95 112.9 -108.9" fill="url(#gradient4)" fill-rule="evenodd" stroke="none"/>
      <path d="M112.9 -108.9 L113.4 -108.35 116.25 -104.6 117.65 -102.85 119.05 -101.6 118.95 -101.85 119.3 -101.6 Q120.7 -100.75 122.85 -100.75 124.85 -100.75 126.3 -101.3 L127.15 -101.7 127.25 -101.5 129.2 -103.2 129.6 -103.55 131.45 -105.5 131.25 -103.65 131.25 -103.5 131.15 -103.6 131.1 -103.55 131.25 -103.35 131.3 -101.95 131.75 -100.85 131.6 -100.8 Q132.1 -99.55 133.25 -98.4 135.15 -96.5 138.2 -95.35 L138.55 -95.25 140.6 -94.7 141.3 -94.6 Q140.65 -92.8 140.65 -88.5 140.95 -87.4 140.5 -85.4 140.0 -83.0 140.0 -82.0 L140.0 -81.9 137.3 -78.25 Q134.95 -75.3 133.45 -74.2 130.3 -71.75 128.7 -70.8 L125.3 -68.8 124.55 -68.35 124.65 -68.5 124.45 -68.4 121.5 -67.95 Q117.05 -67.95 112.0 -71.25 108.3 -73.65 107.3 -75.1 L103.55 -80.0 Q102.1 -82.15 101.65 -84.1 L101.5 -89.95 101.25 -96.0 101.5 -103.0 104.0 -103.3 105.1 -103.25 107.3 -103.15 110.25 -103.05 Q110.75 -103.05 111.4 -103.4 L111.35 -103.5 Q112.05 -104.0 112.45 -105.25 L112.45 -105.3 112.7 -106.85 112.75 -108.8 112.9 -108.9" fill="url(#gradient5)" fill-rule="evenodd" stroke="none"/>
      <path d="M166.75 -38.2 L166.9 -38.3 166.75 -38.2" fill="url(#gradient6)" fill-rule="evenodd" stroke="none"/>
      <path d="M166.95 -38.25 L166.75 -38.2 166.9 -38.3 166.95 -38.25" fill="url(#gradient7)" fill-rule="evenodd" stroke="none"/>
      <path d="M166.95 -38.25 L166.95 -38.35 166.75 -38.9 166.75 -38.95 166.45 -39.5 Q165.35 -42.1 163.05 -45.5 L158.2 -52.5 156.95 -54.4 155.5 -56.1 Q153.95 -57.55 152.75 -59.7 L150.45 -63.25 148.05 -66.65 148.05 -68.6 148.05 -68.85 Q147.65 -68.35 147.55 -67.25 L147.5 -65.4 147.35 -63.0 Q146.45 -64.75 145.85 -67.1 L144.6 -72.15 Q142.65 -80.2 142.65 -82.35 142.65 -87.7 144.2 -94.3 L145.25 -94.2 147.75 -93.55 149.0 -92.85 151.2 -91.1 153.15 -89.1 154.45 -86.9 Q155.15 -85.6 155.8 -84.9 156.9 -83.75 158.55 -80.7 L163.15 -72.0 167.35 -63.45 168.45 -61.35 169.35 -59.25 Q169.8 -57.9 170.4 -57.15 L171.7 -55.0 Q173.05 -51.7 175.55 -46.45 L176.8 -42.15 177.15 -40.0 177.35 -38.95 177.25 -38.35 177.2 -37.3 176.6 -35.25 174.95 -31.15 Q173.7 -28.05 171.0 -22.9 L166.5 -14.6 162.85 -18.3 161.0 -19.75 162.8 -24.45 Q166.75 -35.85 166.75 -38.2 L166.95 -38.25" fill="url(#gradient8)" fill-rule="evenodd" stroke="none"/>
      <path d="M93.65 -70.65 L93.5 -70.65 93.25 -69.55 93.1 -69.1 92.85 -68.55 92.7 -67.7 Q92.2 -67.15 91.7 -65.05 L90.9 -61.35 89.05 -54.9 87.3 -49.15 Q86.15 -45.25 85.75 -43.35 L85.55 -43.35 Q85.25 -41.5 85.25 -40.25 85.25 -38.0 85.8 -36.0 L87.2 -31.35 Q87.8 -28.95 90.2 -22.35 91.65 -18.55 93.0 -13.45 L93.55 -11.75 Q91.9 -11.25 89.55 -9.6 88.2 -8.65 87.5 -7.95 85.65 -11.45 83.45 -16.65 L81.05 -21.95 Q79.65 -25.25 78.95 -27.4 77.6 -31.45 76.15 -36.8 L75.95 -39.1 Q75.95 -45.45 78.95 -61.3 L81.85 -75.9 82.0 -77.25 82.1 -78.15 82.1 -78.45 82.3 -80.05 82.85 -84.45 83.9 -88.2 84.25 -90.0 84.85 -91.8 86.05 -95.0 Q87.0 -97.35 88.25 -98.85 90.95 -102.1 96.15 -103.05 L96.05 -103.0 96.2 -102.5 96.5 -101.9 96.65 -101.5 96.8 -101.3 98.4 -101.25 98.95 -101.45 99.05 -99.75 98.9 -95.2 Q98.7 -93.4 98.65 -86.1 98.6 -83.3 97.05 -76.95 L96.05 -72.4 95.25 -70.15 94.5 -69.05 94.05 -68.4 94.05 -68.95 94.15 -71.1 94.3 -72.25 94.55 -73.45 94.55 -73.5 Q93.85 -72.55 93.75 -70.85 L93.65 -70.65" fill="url(#gradient9)" fill-rule="evenodd" stroke="none"/>
      <path d="M119.1 -102.45 L118.5 -102.85 116.9 -104.75 115.5 -106.6 114.05 -108.4 Q112.1 -111.1 111.7 -112.35 L111.55 -113.1 111.75 -117.8 111.8 -118.15 111.75 -118.5 111.75 -118.6 111.75 -118.8 113.25 -122.8 113.5 -123.45 113.6 -123.45 114.35 -123.3 115.05 -122.9 Q115.25 -122.7 116.45 -122.15 L117.55 -121.6 117.45 -121.6 116.2 -121.75 116.05 -121.7 115.4 -121.95 Q115.0 -121.75 115.4 -121.45 L115.5 -121.35 115.25 -121.3 114.7 -121.5 114.15 -121.7 114.0 -121.6 Q113.85 -121.4 114.05 -121.15 L114.1 -121.1 113.95 -121.05 113.55 -120.75 113.6 -120.6 113.85 -120.6 114.2 -120.5 114.15 -120.1 114.2 -119.6 114.7 -119.0 Q115.6 -118.1 117.1 -118.1 118.15 -118.1 118.9 -118.45 L119.2 -118.45 119.6 -118.85 119.9 -119.35 119.9 -119.6 120.05 -119.75 119.6 -120.25 119.7 -120.35 119.9 -120.6 119.9 -120.75 119.85 -120.85 119.95 -121.1 Q119.95 -121.45 119.2 -121.5 L118.25 -121.8 114.15 -123.95 113.7 -123.9 114.7 -125.75 115.7 -127.4 116.05 -127.35 Q116.65 -127.2 116.5 -126.7 L116.5 -126.3 116.4 -126.0 115.9 -125.2 115.9 -124.8 Q115.95 -124.45 116.3 -124.25 117.05 -123.85 117.65 -124.4 L118.3 -124.85 Q119.7 -124.6 120.8 -125.65 L120.9 -125.75 121.3 -125.6 122.05 -125.5 Q124.05 -126.7 125.75 -128.35 L128.5 -131.0 128.4 -130.85 Q127.35 -128.55 125.9 -127.25 L123.4 -125.5 121.05 -123.7 121.55 -123.55 124.1 -124.35 Q126.8 -125.2 127.5 -125.65 L132.0 -129.25 134.3 -131.8 134.6 -131.55 134.15 -130.0 Q133.65 -128.55 132.5 -126.85 L131.4 -125.3 131.4 -125.05 131.55 -125.05 131.75 -125.0 Q132.55 -125.0 135.2 -127.45 L135.25 -126.0 Q135.45 -124.25 136.4 -122.7 L137.6 -121.25 137.65 -121.0 Q137.95 -119.95 138.4 -119.55 138.15 -119.0 138.15 -117.85 138.1 -116.9 137.1 -116.55 L136.1 -115.8 136.1 -115.75 Q135.75 -115.25 135.55 -114.4 L135.15 -112.85 134.85 -112.35 134.1 -110.6 131.9 -107.2 Q131.05 -105.6 128.6 -103.35 L127.5 -102.35 127.4 -102.35 126.9 -102.1 Q124.5 -101.2 122.9 -101.2 L121.55 -101.4 119.85 -101.8 119.05 -102.35 119.1 -102.45 M109.95 -118.35 L109.95 -118.25 109.35 -118.6 109.3 -118.6 110.15 -119.75 Q110.65 -120.55 111.05 -120.75 L110.6 -120.0 Q110.1 -119.2 109.95 -118.35 M124.05 -133.8 L124.05 -133.75 123.9 -133.55 123.8 -133.7 124.05 -133.8 M131.65 -121.15 L131.7 -121.25 131.05 -121.5 130.1 -121.55 128.95 -121.55 128.85 -121.55 127.7 -121.35 127.85 -121.45 128.3 -121.55 128.5 -121.75 Q129.05 -122.15 129.15 -122.15 129.5 -122.2 129.45 -122.3 L129.55 -122.4 129.95 -122.5 130.85 -122.95 132.2 -123.1 133.05 -122.95 133.65 -122.8 Q134.05 -122.8 134.05 -123.0 L133.45 -123.35 132.25 -123.6 Q130.95 -123.6 129.75 -123.05 L128.45 -122.3 127.2 -121.6 126.05 -120.95 126.25 -120.75 126.65 -120.9 126.6 -120.85 126.65 -120.85 126.55 -120.55 126.55 -120.5 126.55 -120.2 126.55 -120.1 126.15 -119.65 126.25 -119.5 126.5 -119.65 126.45 -119.55 126.65 -119.05 126.8 -118.85 126.9 -118.75 126.8 -118.6 127.5 -118.1 129.6 -117.7 Q130.25 -117.7 131.55 -118.5 131.9 -118.75 131.9 -119.5 L131.85 -119.85 132.0 -119.85 Q132.7 -119.85 132.7 -120.1 L132.55 -120.35 132.6 -120.4 132.5 -120.55 132.05 -120.9 131.65 -121.15 M137.05 -128.65 L136.75 -128.7 136.5 -128.7 136.85 -129.05 137.05 -128.65 M126.9 -119.75 L127.0 -119.7 127.2 -119.75 127.1 -119.65 127.05 -119.6 126.8 -119.8 126.85 -119.75 126.9 -119.75 M126.85 -107.9 L126.9 -107.85 127.0 -107.9 127.0 -107.95 126.95 -107.95 126.85 -107.9" fill="url(#gradient10)" fill-rule="evenodd" stroke="none"/>
      <path d="M117.2 -118.5 L117.15 -118.5 Q115.85 -118.5 115.45 -119.0 L114.8 -119.85 114.75 -120.3 114.75 -120.55 115.0 -120.6 115.6 -120.75 115.85 -120.75 115.8 -120.2 Q115.8 -119.5 115.95 -119.3 L116.4 -118.85 Q116.75 -118.65 117.15 -118.6 L117.15 -118.55 117.2 -118.5 M116.7 -120.9 L117.45 -120.75 117.9 -120.55 118.05 -120.45 118.05 -120.4 118.15 -120.05 118.1 -119.7 118.15 -119.6 118.3 -119.45 118.35 -119.3 118.55 -120.1 118.6 -120.2 119.55 -119.75 119.35 -119.6 118.95 -119.05 118.75 -118.8 118.6 -118.65 118.55 -118.55 118.15 -118.6 118.05 -118.6 118.05 -118.65 118.0 -118.75 117.95 -118.85 117.85 -118.85 117.95 -118.9 118.35 -119.25 118.3 -119.3 118.1 -119.5 118.05 -119.6 Q117.75 -119.0 117.25 -119.0 L117.1 -119.1 116.65 -119.2 116.35 -119.5 Q116.15 -119.7 116.15 -120.2 L116.15 -120.6 116.25 -120.85 116.7 -120.9 M127.8 -120.0 L127.85 -120.0 127.8 -119.6 128.05 -119.0 Q128.3 -118.5 129.05 -118.5 L129.85 -118.7 130.2 -119.05 130.45 -119.85 130.35 -120.4 130.4 -120.4 131.0 -120.2 131.2 -120.1 131.3 -119.4 Q131.3 -118.85 130.65 -118.5 130.05 -118.2 129.25 -118.2 L127.8 -118.5 127.35 -118.65 127.3 -118.8 127.2 -119.0 127.05 -119.3 126.95 -119.55 127.05 -119.6 127.1 -119.65 127.25 -119.75 127.8 -120.0 M129.05 -118.9 Q128.2 -118.9 128.15 -120.15 L129.3 -120.45 129.8 -120.45 129.85 -120.45 130.05 -119.85 Q129.95 -118.9 129.05 -118.9" fill="#ffffff" fill-rule="evenodd" stroke="none"/>
    </g>
    <linearGradient gradientTransform="matrix(0.0, -0.0512, 0.0583, 0.0, 154.5, -85.65)" gradientUnits="userSpaceOnUse" id="gradient2" spreadMethod="pad" x1="-819.2" x2="819.2">
      <stop offset="0.0" stop-color="#000000"/>
      <stop offset="0.9882352941176471" stop-color="#405b84"/>
    </linearGradient>
    <linearGradient gradientTransform="matrix(0.0, -0.0512, 0.0583, 0.0, 154.5, -85.65)" gradientUnits="userSpaceOnUse" id="gradient3" spreadMethod="pad" x1="-819.2" x2="819.2">
      <stop offset="0.0" stop-color="#1d152f"/>
      <stop offset="0.9882352941176471" stop-color="#47527c"/>
    </linearGradient>
    <linearGradient gradientTransform="matrix(-9.0E-4, -0.0096, 0.0246, -0.0023, 121.9, -84.95)" gradientUnits="userSpaceOnUse" id="gradient4" spreadMethod="pad" x1="-819.2" x2="819.2">
      <stop offset="0.0" stop-color="#1d152f"/>
      <stop offset="0.9882352941176471" stop-color="#47527c"/>
    </linearGradient>
    <radialGradient cx="0" cy="0" gradientTransform="matrix(0.0462, 0.0, 0.0, 0.0462, 120.05, -71.8)" gradientUnits="userSpaceOnUse" id="gradient5" r="819.2" spreadMethod="pad">
      <stop offset="0.16862745098039217" stop-color="#7c95a5"/>
      <stop offset="0.5529411764705883" stop-color="#626c84"/>
      <stop offset="1.0" stop-color="#73718e"/>
    </radialGradient>
    <radialGradient cx="0" cy="0" gradientTransform="matrix(0.0887, 0.0, 0.0, 0.0887, 148.8, -84.55)" gradientUnits="userSpaceOnUse" id="gradient6" r="819.2" spreadMethod="pad">
      <stop offset="0.16862745098039217" stop-color="#7c95a5"/>
      <stop offset="0.5529411764705883" stop-color="#626c84"/>
      <stop offset="1.0" stop-color="#73718e"/>
    </radialGradient>
    <radialGradient cx="0" cy="0" gradientTransform="matrix(0.0933, 0.0, 0.0, 0.0933, 150.55, -88.8)" gradientUnits="userSpaceOnUse" id="gradient7" r="819.2" spreadMethod="pad">
      <stop offset="0.16862745098039217" stop-color="#7c95a5"/>
      <stop offset="0.5529411764705883" stop-color="#626c84"/>
      <stop offset="1.0" stop-color="#73718e"/>
    </radialGradient>
    <radialGradient cx="0" cy="0" gradientTransform="matrix(0.0685, 0.0, 0.0, 0.0685, 158.05, -69.55)" gradientUnits="userSpaceOnUse" id="gradient8" r="819.2" spreadMethod="pad">
      <stop offset="0.16862745098039217" stop-color="#7c95a5"/>
      <stop offset="0.5529411764705883" stop-color="#626c84"/>
      <stop offset="1.0" stop-color="#73718e"/>
    </radialGradient>
    <radialGradient cx="0" cy="0" gradientTransform="matrix(0.0872, 0.0, 0.0, 0.0872, 92.55, -79.05)" gradientUnits="userSpaceOnUse" id="gradient9" r="819.2" spreadMethod="pad">
      <stop offset="0.16862745098039217" stop-color="#7c95a5"/>
      <stop offset="0.5529411764705883" stop-color="#626c84"/>
      <stop offset="1.0" stop-color="#73718e"/>
    </radialGradient>
    <radialGradient cx="0" cy="0" gradientTransform="matrix(0.0318, 0.0, 0.0, 0.0318, 125.05, -109.65)" gradientUnits="userSpaceOnUse" id="gradient10" r="819.2" spreadMethod="pad">
      <stop offset="0.12549019607843137" stop-color="#7c95a5"/>
      <stop offset="0.5529411764705883" stop-color="#626c84"/>
      <stop offset="1.0" stop-color="#73718e"/>
    </radialGradient>
    <g id="sprite3" transform="matrix(1.0, 0.0, 0.0, 1.0, 38.85, 24.7)">
      <use ffdec:characterId="3737" height="47.7" transform="matrix(1.0, 0.0, 0.0, 1.0, -38.85, -24.7)" width="83.45" xlink:href="#shape5"/>
    </g>
    <g id="shape5" transform="matrix(1.0, 0.0, 0.0, 1.0, 38.85, 24.7)">
      <path d="M25.05 3.85 L17.05 4.7 16.05 4.35 Q17.0 4.4 18.0 3.45 L24.0 3.65 25.05 3.85 M6.5 4.65 L1.6 4.65 Q-3.0 4.35 -5.35 2.7 L3.4 2.35 6.5 2.75 11.55 3.85 7.15 4.6 6.5 4.65" fill="#ffffff" fill-rule="evenodd" stroke="none"/>
      <path d="M12.2 -0.7 L11.65 -0.8 11.0 -0.8 6.5 -0.9 -1.5 -1.65 -11.95 -2.9 -12.05 -2.9 -12.55 -2.9 -15.35 -2.25 Q-16.35 -2.65 -16.5 -3.45 L-18.0 -3.55 Q-16.7 -5.0 -14.5 -5.75 -13.2 -7.25 -8.95 -9.75 -4.85 -12.15 -2.05 -12.65 -1.35 -12.25 -0.35 -11.8 2.4 -10.65 6.5 -10.1 L12.2 -9.65 14.3 -9.65 Q17.7 -9.65 21.1 -10.6 L23.3 -9.95 24.0 -9.55 Q26.0 -8.4 26.45 -5.95 27.25 -5.1 27.25 -4.35 27.25 -3.8 26.6 -3.15 L26.55 -1.9 Q26.3 -0.8 25.3 -0.8 L24.0 -0.8 18.7 -1.0 14.05 -0.6 12.2 -0.7" fill="#ffffff" fill-rule="evenodd" stroke="none"/>
      <path d="M18.7 -18.95 L24.0 -18.9 26.05 -19.0 28.2 -19.25 Q34.0 -17.85 37.45 -11.8 40.85 -5.75 41.95 -2.05 38.7 2.8 35.4 6.45 28.8 17.75 25.3 17.75 24.5 17.75 24.0 17.4 L23.5 16.9 Q20.4 18.05 16.2 18.35 L12.2 19.6 10.7 19.85 6.5 19.75 Q-1.6 19.4 -5.95 17.45 -13.8 12.95 -22.25 8.6 L-23.05 8.05 -23.5 8.1 Q-25.9 8.1 -29.6 4.65 -31.7 2.65 -32.45 1.35 L-34.2 0.45 Q-36.85 -1.35 -36.85 -3.05 -36.85 -6.85 -32.35 -5.6 L-23.85 -10.85 Q-13.7 -16.7 -11.1 -17.5 -8.95 -18.15 -6.35 -20.95 -5.1 -22.35 -0.35 -21.75 L-0.15 -21.85 Q2.95 -23.05 5.4 -21.25 L5.95 -20.9 6.5 -20.8 9.0 -20.25 Q9.3 -20.0 12.2 -19.6 L13.55 -19.45 18.7 -18.95 M12.2 -0.7 L14.05 -0.6 18.7 -1.0 24.0 -0.8 25.3 -0.8 Q26.3 -0.8 26.55 -1.9 L26.6 -3.15 Q27.25 -3.8 27.25 -4.35 27.25 -5.1 26.45 -5.95 26.0 -8.4 24.0 -9.55 L23.3 -9.95 21.1 -10.6 Q17.7 -9.65 14.3 -9.65 L12.2 -9.65 6.5 -10.1 Q2.4 -10.65 -0.35 -11.8 -1.35 -12.25 -2.05 -12.65 -4.85 -12.15 -8.95 -9.75 -13.2 -7.25 -14.5 -5.75 -16.7 -5.0 -18.0 -3.55 L-16.5 -3.45 Q-16.35 -2.65 -15.35 -2.25 L-12.55 -2.9 -12.05 -2.9 -11.95 -2.9 -1.5 -1.65 6.5 -0.9 11.0 -0.8 11.65 -0.8 12.2 -0.7" fill="url(#gradient11)" fill-rule="evenodd" stroke="none"/>
      <path d="M6.5 -11.75 L10.2 -11.15 Q11.5 -10.55 12.2 -10.45 L12.25 -10.45 17.85 -10.3 19.2 -10.45 21.05 -10.6 Q22.3 -10.6 24.0 -9.35 L25.8 -7.8 Q28.55 -5.0 28.55 -2.95 L28.55 -2.55 29.55 -2.75 Q30.15 -2.75 30.85 -2.05 L31.8 -1.0 Q30.25 1.5 25.6 2.35 L24.0 2.6 22.25 2.8 23.6 3.25 Q22.2 4.1 20.5 4.1 L12.2 3.75 Q8.8 3.35 6.75 2.6 L6.7 2.6 6.5 2.6 0.75 1.95 -0.4 1.85 -2.55 1.95 -3.3 1.5 -12.6 0.2 Q-16.7 -0.6 -19.05 -1.45 -20.4 -2.0 -21.85 -2.0 L-23.15 -2.1 -23.35 -2.65 Q-21.5 -4.1 -15.95 -3.5 L-16.2 -3.75 Q-14.35 -5.0 -10.6 -8.5 -6.75 -11.7 -2.4 -12.6 L2.95 -12.3 6.5 -11.75 M6.5 -8.2 L-2.25 -8.35 Q-3.1 -8.35 -7.85 -5.5 L-12.3 -2.9 -11.15 -2.7 Q-1.2 -0.65 6.5 -0.05 L12.2 0.2 12.45 0.2 Q15.3 0.2 22.3 -1.2 L24.0 -1.55 26.15 -2.05 Q25.7 -2.5 25.55 -3.2 25.05 -4.75 24.0 -5.5 L23.9 -5.6 Q21.2 -7.25 12.2 -7.9 L6.5 -8.2" fill="#000000" fill-opacity="0.23137255" fill-rule="evenodd" stroke="none"/>
      <path d="M12.2 -18.25 Q10.15 -18.8 8.25 -19.6 7.3 -20.0 6.5 -20.35 L2.25 -21.95 Q1.3 -21.95 -1.05 -20.95 L-6.0 -18.7 -7.7 -17.85 Q-15.75 -13.6 -16.9 -13.1 -18.1 -12.4 -26.05 -8.1 -34.45 -3.75 -35.65 -3.35 L-35.9 -2.65 Q-35.9 -1.8 -35.15 -1.2 L-35.15 -1.15 -32.75 0.75 Q-32.0 1.0 -30.65 2.0 L-26.65 5.1 -26.3 5.5 -19.6 10.05 Q-10.75 15.3 -4.25 17.65 1.25 19.5 6.25 19.65 L6.5 19.65 6.6 19.65 6.85 19.65 9.35 19.55 12.2 19.2 15.8 18.55 18.45 18.25 24.0 16.5 Q27.95 15.0 30.5 13.25 L30.6 13.4 31.35 12.7 Q32.25 11.55 32.55 10.5 33.15 8.9 34.75 6.45 L37.8 2.8 Q39.1 0.8 40.55 -0.7 L40.9 -2.7 Q40.9 -3.65 40.3 -4.15 L40.5 -4.35 Q38.75 -9.35 35.35 -13.8 31.3 -19.1 27.8 -19.1 L24.55 -18.2 24.0 -18.05 Q21.4 -17.3 20.05 -17.3 15.9 -17.3 12.2 -18.25 M16.7 -20.6 L22.8 -21.4 24.0 -21.65 27.25 -22.1 Q31.3 -22.1 37.45 -15.05 43.05 -8.6 43.05 -6.3 L43.05 -6.0 43.95 -4.35 44.4 -3.8 44.5 -3.15 44.6 -2.95 44.5 -1.8 44.5 -1.65 44.6 -1.2 44.6 -0.9 44.6 -0.15 Q44.4 0.6 43.55 0.75 L43.0 1.35 Q40.65 3.8 39.35 5.55 L38.35 7.75 36.5 10.4 34.8 11.85 33.05 14.55 Q31.2 17.3 30.25 17.3 L29.9 17.45 29.95 17.65 28.1 18.7 25.7 19.65 24.0 20.1 16.75 21.55 12.2 21.95 7.45 22.5 6.5 22.6 0.05 22.9 Q0.1 22.7 0.8 22.6 -2.95 22.3 -5.65 20.85 L-7.05 20.05 -7.6 19.8 Q-13.3 15.95 -21.15 11.75 L-23.9 9.8 -27.2 7.9 Q-28.95 6.8 -30.9 5.2 L-33.95 2.65 -35.05 1.85 -37.6 -0.3 -38.35 -1.0 -38.5 -1.65 -38.85 -2.7 -38.65 -3.55 Q-38.55 -5.5 -37.2 -5.9 L-36.4 -6.0 -35.65 -6.55 -35.0 -6.3 -34.4 -6.4 -34.3 -6.5 -29.65 -9.65 -21.2 -14.75 -11.1 -19.9 -2.9 -23.9 -2.75 -23.85 -2.3 -24.4 1.35 -24.7 Q3.85 -24.85 6.5 -23.45 L7.65 -22.8 Q9.6 -21.55 12.2 -21.0 L16.7 -20.6 M7.95 -11.05 L12.2 -10.9 20.8 -11.1 24.0 -10.75 24.9 -10.35 25.7 -8.75 Q26.8 -6.4 29.35 -2.1 L29.25 -1.8 29.4 -1.75 29.55 -1.65 28.95 -0.25 27.3 -0.25 27.05 -0.25 24.35 0.0 24.0 0.05 12.7 1.2 12.2 1.15 6.5 0.5 -18.9 -1.9 -19.0 -1.9 -20.25 -1.65 -20.75 -2.3 -21.1 -2.7 -20.45 -2.9 Q-7.1 -11.35 -3.85 -12.75 L3.75 -12.05 5.35 -11.4 6.5 -11.15 7.95 -11.05 M2.3 -10.45 L-3.1 -11.4 -15.95 -4.35 -15.55 -4.25 -15.2 -3.55 -15.95 -2.95 -4.45 -2.55 3.25 -1.45 6.5 -1.0 11.55 -0.45 12.2 -0.45 19.85 -1.2 24.0 -1.7 25.9 -1.9 Q26.15 -3.75 26.0 -4.8 L25.55 -5.85 24.05 -8.3 24.0 -8.5 23.9 -8.8 22.9 -9.5 13.8 -9.4 12.2 -9.4 6.5 -9.7 2.3 -10.45 M27.05 -2.4 L27.3 -2.4 27.05 -2.7 27.05 -2.4 M-18.15 -3.0 L-18.15 -3.05 -18.2 -3.0 -18.15 -3.0" fill="#26231e" fill-rule="evenodd" stroke="none"/>
      <path d="M12.2 -18.25 Q10.15 -18.8 8.25 -19.6 7.3 -20.0 6.5 -20.35 L2.25 -21.95 Q1.3 -21.95 -1.05 -20.95 L-6.0 -18.7 -7.7 -17.85 Q-15.75 -13.6 -16.9 -13.1 -18.1 -12.4 -26.05 -8.1 -34.45 -3.75 -35.65 -3.35 L-35.9 -2.65 Q-35.9 -1.8 -35.15 -1.2 L-35.15 -1.15 -32.75 0.75 Q-32.0 1.0 -30.65 2.0 L-26.65 5.1 -26.3 5.5 -19.6 10.05 Q-10.75 15.3 -4.25 17.65 1.25 19.5 6.25 19.65 L6.5 19.65 6.6 19.65 6.85 19.65 9.35 19.55 12.2 19.2 15.8 18.55 18.45 18.25 24.0 16.5 Q27.95 15.0 30.5 13.25 L30.6 13.4 31.35 12.7 Q32.25 11.55 32.55 10.5 33.15 8.9 34.75 6.45 L37.8 2.8 Q39.1 0.8 40.55 -0.7 L40.9 -2.7 Q40.9 -3.65 40.3 -4.15 L41.3 -6.35 Q42.1 -8.5 37.05 -13.7 31.95 -18.95 29.75 -19.0 27.55 -19.1 24.55 -18.2 L24.0 -18.05 Q21.4 -17.3 20.05 -17.3 15.9 -17.3 12.2 -18.25 M16.7 -20.6 L22.8 -21.4 24.0 -21.65 27.25 -22.1 Q31.3 -22.1 37.45 -15.05 43.05 -8.6 43.05 -6.3 L43.05 -6.0 43.95 -4.35 44.4 -3.8 44.5 -3.15 44.6 -2.95 44.5 -1.8 44.5 -1.65 44.6 -1.2 44.6 -0.9 44.6 -0.15 Q44.4 0.6 43.55 0.75 L43.0 1.35 Q40.65 3.8 39.35 5.55 L38.35 7.75 36.5 10.4 34.8 11.85 33.05 14.55 Q31.2 17.3 30.25 17.3 L29.9 17.45 29.95 17.65 28.1 18.7 25.7 19.65 24.0 20.1 16.75 21.55 12.2 21.95 7.45 22.5 6.5 22.6 0.05 22.9 Q0.1 22.7 0.8 22.6 -2.95 22.3 -5.65 20.85 L-7.05 20.05 -7.6 19.8 Q-13.3 15.95 -21.15 11.75 L-23.9 9.8 -27.2 7.9 Q-28.95 6.8 -30.9 5.2 L-33.95 2.65 -35.05 1.85 -37.6 -0.3 -38.35 -1.0 -38.5 -1.65 -38.85 -2.7 -38.65 -3.55 Q-38.55 -5.5 -37.2 -5.9 L-36.4 -6.0 -35.65 -6.55 -35.0 -6.3 -34.4 -6.4 -34.3 -6.5 -29.65 -9.65 -21.2 -14.75 -11.1 -19.9 -2.9 -23.9 -2.75 -23.85 -2.3 -24.4 1.35 -24.7 Q3.85 -24.85 6.5 -23.45 L7.65 -22.8 Q9.6 -21.55 12.2 -21.0 L16.7 -20.6 M7.95 -11.05 L12.2 -10.9 20.8 -11.1 24.0 -10.75 24.9 -10.35 25.7 -8.75 Q26.8 -6.4 29.35 -2.1 L29.25 -1.8 29.4 -1.75 29.55 -1.65 28.95 -0.25 27.3 -0.25 27.05 -0.25 24.35 0.0 24.0 0.05 12.7 1.2 12.2 1.15 6.5 0.5 -18.9 -1.9 -19.0 -1.9 -20.25 -1.65 -20.75 -2.3 -21.1 -2.7 -20.45 -2.9 Q-7.1 -11.35 -3.85 -12.75 L3.75 -12.05 5.35 -11.4 6.5 -11.15 7.95 -11.05 M2.3 -10.45 L-3.1 -11.4 -15.95 -4.35 -15.55 -4.25 -15.2 -3.55 -15.95 -2.95 -4.45 -2.55 3.25 -1.45 6.5 -1.0 11.55 -0.45 12.2 -0.45 19.85 -1.2 24.0 -1.7 25.9 -1.9 Q26.15 -3.75 26.0 -4.8 L25.55 -5.85 24.05 -8.3 24.0 -8.5 23.9 -8.8 22.9 -9.5 13.8 -9.4 12.2 -9.4 6.5 -9.7 2.3 -10.45 M27.05 -2.4 L27.3 -2.4 27.05 -2.7 27.05 -2.4 M-18.15 -3.0 L-18.15 -3.05 -18.2 -3.0 -18.15 -3.0" fill="#000000" fill-opacity="0.4" fill-rule="evenodd" stroke="none"/>
      <path d="M21.5 3.65 L22.55 3.95 22.75 4.1 22.5 4.2 Q21.15 4.25 19.95 4.8 L19.1 5.0 17.75 4.85 18.0 4.75 18.6 4.45 19.0 4.2 20.1 3.85 20.45 3.7 20.5 3.6 21.5 3.65 M12.25 4.6 L12.2 4.6 10.35 4.6 4.65 4.2 1.35 4.05 Q-5.15 3.85 -4.55 2.0 L-4.5 1.85 1.35 2.55 4.85 3.1 10.75 3.9 Q11.65 4.0 12.2 4.55 L12.25 4.6" fill="#ffffff" fill-rule="evenodd" stroke="none"/>
    </g>
    <radialGradient cx="0" cy="0" gradientTransform="matrix(0.0489, 0.0, 0.0, 0.0489, 2.55, -1.2)" gradientUnits="userSpaceOnUse" id="gradient11" r="819.2" spreadMethod="pad">
      <stop offset="0.0" stop-color="#eea2a2"/>
      <stop offset="1.0" stop-color="#602e28"/>
    </radialGradient>
    <g id="shape6" transform="matrix(1.0, 0.0, 0.0, 1.0, -105.5, 132.6)">
      <path d="M118.55 -130.0 L118.75 -129.6 Q119.35 -128.3 122.2 -129.25 126.3 -130.6 130.35 -130.2 131.5 -130.9 132.75 -130.6 L133.3 -131.15 133.95 -132.1 Q134.35 -132.6 135.0 -132.6 L135.25 -132.6 135.75 -132.45 136.0 -132.3 136.2 -132.1 136.25 -131.95 136.3 -131.75 136.35 -131.55 136.3 -131.2 136.2 -130.8 Q137.2 -129.85 136.8 -128.6 L136.95 -128.0 137.15 -127.1 137.6 -125.8 Q137.9 -125.1 137.45 -124.45 L137.25 -124.25 137.0 -124.35 137.1 -123.95 137.15 -123.6 Q139.7 -122.6 139.55 -119.35 139.45 -116.75 139.65 -114.1 139.85 -110.85 138.1 -108.15 L137.9 -107.95 Q137.25 -107.75 136.7 -108.15 136.1 -108.6 136.15 -109.3 L136.05 -110.35 135.95 -110.0 135.8 -109.25 135.6 -108.3 135.3 -107.75 135.05 -107.55 134.85 -107.45 134.5 -107.4 134.05 -107.3 133.4 -105.85 132.6 -104.15 132.65 -104.05 133.25 -104.0 134.65 -105.15 135.25 -105.45 135.7 -105.3 135.9 -105.1 136.05 -104.95 Q134.95 -103.15 133.25 -101.65 L133.3 -101.55 Q133.45 -101.2 133.2 -100.85 L132.8 -100.25 132.7 -100.05 133.6 -97.4 134.15 -94.65 Q134.35 -92.7 132.75 -91.8 132.8 -89.95 131.55 -88.55 129.85 -86.55 127.7 -84.95 L126.65 -83.95 120.35 -83.5 120.3 -83.45 119.1 -83.7 Q115.55 -84.6 112.75 -87.45 111.8 -88.4 110.55 -88.85 110.3 -89.85 110.4 -90.8 L110.1 -91.45 Q109.75 -90.7 109.05 -90.3 L108.75 -90.2 Q108.2 -90.2 108.05 -90.7 L107.95 -91.6 107.95 -92.2 108.05 -92.75 108.05 -92.95 Q107.6 -93.5 107.65 -94.25 L107.8 -95.35 108.15 -97.05 108.15 -97.75 107.85 -97.2 107.4 -96.3 Q107.05 -95.8 106.5 -95.8 L106.0 -95.85 Q105.1 -97.25 105.9 -99.0 L107.75 -102.5 Q109.0 -104.55 110.75 -105.7 L110.75 -105.75 111.2 -105.6 111.45 -105.45 111.55 -105.25 111.65 -105.05 111.75 -104.7 111.75 -104.3 111.75 -104.1 111.85 -104.1 Q111.7 -104.55 112.1 -104.8 L112.5 -105.0 112.6 -104.95 112.55 -105.6 112.45 -105.85 Q112.25 -105.3 112.15 -105.6 L112.0 -106.65 112.0 -107.75 112.05 -108.1 112.25 -108.3 112.45 -108.4 113.15 -108.4 113.25 -108.35 113.05 -108.95 112.6 -109.8 112.1 -110.85 112.0 -111.35 111.95 -111.45 111.7 -111.3 Q111.2 -110.75 110.5 -111.05 109.6 -113.0 110.3 -115.45 L111.5 -120.3 Q112.0 -122.8 113.25 -124.85 L113.4 -124.9 113.7 -124.95 114.0 -126.05 114.0 -126.25 Q114.4 -127.8 115.4 -128.95 116.35 -130.0 117.5 -130.5 L117.75 -130.5 118.15 -130.3 118.55 -130.0 M117.3 -123.9 L117.15 -123.8 Q116.95 -123.55 116.6 -123.4 L116.4 -123.3 115.6 -119.65 116.2 -119.05 118.65 -119.0 119.1 -119.25 Q118.85 -119.65 119.3 -120.2 L119.5 -120.3 120.45 -119.95 120.5 -119.95 121.4 -119.2 Q122.4 -119.05 122.35 -118.0 L122.35 -116.15 122.4 -114.25 122.4 -114.05 123.55 -113.45 124.55 -112.9 124.7 -112.75 124.75 -112.35 124.6 -111.8 124.25 -111.05 123.95 -110.55 Q122.9 -110.2 122.1 -111.0 L119.95 -112.85 119.75 -113.0 Q119.5 -113.95 119.7 -114.85 L120.0 -115.95 118.8 -115.1 114.55 -115.2 Q114.2 -112.05 115.85 -109.15 L118.85 -103.4 118.8 -103.35 118.8 -103.2 Q118.95 -101.65 120.7 -101.35 L125.95 -101.65 125.8 -101.05 Q127.55 -101.5 129.0 -103.05 L130.3 -104.4 Q132.05 -107.6 132.4 -111.3 L132.7 -117.75 132.05 -116.9 Q130.25 -114.85 127.9 -116.55 125.55 -118.25 127.2 -120.35 127.75 -120.55 128.15 -120.1 L128.4 -119.55 128.6 -118.8 128.7 -118.6 Q129.65 -118.3 130.05 -119.1 L130.8 -120.2 Q131.15 -120.55 131.5 -120.55 L132.65 -119.7 132.6 -120.95 127.85 -120.8 Q124.7 -120.1 121.75 -121.7 L117.55 -123.95 117.3 -123.9 M118.65 -126.7 Q120.05 -126.8 121.5 -127.35 L118.65 -126.75 118.65 -126.7 M121.1 -106.05 L121.3 -105.85 121.5 -105.7 124.15 -105.6 125.75 -105.25 Q126.35 -105.25 126.4 -104.7 125.25 -103.45 123.25 -103.6 121.45 -103.75 120.45 -105.0 119.7 -105.9 120.75 -106.15 L120.75 -106.2 121.1 -106.05 M114.5 -102.8 Q112.4 -101.8 112.05 -99.35 111.65 -96.15 113.1 -93.3 L113.4 -92.75 113.15 -92.25 112.75 -91.65 112.5 -91.3 112.45 -90.95 112.45 -90.75 Q112.9 -89.8 114.0 -89.7 L116.9 -89.35 117.25 -89.35 117.3 -89.35 Q118.15 -88.85 119.35 -88.65 L119.35 -88.5 119.4 -87.0 Q119.35 -86.1 120.25 -85.95 121.15 -86.3 121.35 -87.35 L121.45 -88.55 123.1 -88.8 123.45 -89.2 123.25 -89.9 Q122.8 -90.55 121.95 -90.6 121.05 -90.7 120.35 -91.2 L120.1 -91.45 119.9 -91.7 119.5 -91.75 119.05 -91.8 Q119.5 -93.6 119.0 -95.55 L117.7 -99.95 Q116.85 -102.5 114.5 -102.8 M130.6 -123.15 L130.55 -123.2 130.5 -123.15 130.6 -123.15 M126.8 -122.95 L126.45 -122.65 126.95 -122.65 126.8 -122.95 M128.5 -93.95 L128.05 -95.4 Q127.8 -96.2 127.0 -96.3 126.05 -96.1 125.4 -95.2 L124.0 -93.1 123.05 -91.55 Q123.45 -90.2 124.95 -89.75 127.95 -88.9 129.3 -91.0 L129.2 -91.4 128.75 -91.9 128.15 -92.15 128.15 -92.25 128.25 -92.45 Q128.75 -93.15 128.5 -93.95 M124.9 -97.1 L125.0 -97.1 125.2 -97.25 125.35 -97.4 124.8 -97.25 124.9 -97.1" fill="#000000" fill-opacity="0.48235294" fill-rule="evenodd" stroke="none"/>
    </g>
    <g id="sprite4" transform="matrix(1.0, 0.0, 0.0, 1.0, 0.0, 0.0)">
      <use ffdec:characterId="3734" height="2.0" transform="matrix(1.0, 0.0, 0.0, 1.0, 0.0, 0.0)" width="13.9" xlink:href="#shape7"/>
    </g>
    <g id="shape7" transform="matrix(1.0, 0.0, 0.0, 1.0, 0.0, 0.0)">
      <path d="M2.0 0.85 Q1.75 1.9 1.1 1.9 L0.95 1.8 0.5 1.7 0.2 1.4 0.0 0.7 0.0 0.3 0.1 0.05 0.55 0.0 1.3 0.15 1.75 0.35 1.9 0.45 1.9 0.5 2.0 0.85 M13.9 1.05 Q13.8 2.0 12.9 2.0 12.0 2.0 12.0 0.6 L12.1 0.55 13.15 0.4 13.7 0.45 13.9 1.05" fill="#ffdb88" fill-rule="evenodd" stroke="none"/>
    </g>
    <g id="shape8" transform="matrix(1.0, 0.0, 0.0, 1.0, 4.6, 143.65)">
      <path d="M95.75 -113.2 L96.25 -113.0 96.75 -112.65 97.2 -112.15 97.3 -111.95 97.45 -111.9 97.75 -112.0 98.25 -112.05 98.75 -112.0 99.7 -110.95 100.45 -109.85 101.55 -108.6 102.2 -107.95 102.35 -108.0 102.6 -108.15 103.0 -108.3 103.55 -107.9 104.2 -107.25 104.6 -106.65 104.65 -106.5 104.55 -106.2 104.5 -106.15 104.25 -105.8 104.2 -105.3 104.2 -104.75 104.1 -104.6 103.8 -104.2 103.6 -104.1 102.8 -104.25 Q102.55 -104.3 102.35 -104.5 L102.15 -104.7 102.0 -104.55 101.9 -104.4 101.75 -104.2 101.0 -103.85 100.55 -104.05 100.05 -104.4 99.7 -104.75 99.5 -104.95 99.45 -104.8 99.25 -104.45 98.75 -104.0 97.85 -103.6 97.9 -103.5 97.95 -103.3 98.05 -102.95 98.2 -102.6 98.35 -102.0 98.3 -101.8 98.25 -101.6 Q96.9 -101.1 96.25 -102.7 L95.3 -105.05 93.9 -107.35 Q93.4 -108.0 93.7 -108.75 L94.05 -109.1 94.75 -109.3 95.95 -108.8 96.0 -108.8 95.55 -109.55 95.05 -110.5 94.7 -111.3 Q94.5 -111.8 94.65 -112.35 L95.0 -112.95 95.25 -113.05 95.4 -113.1 95.75 -113.15 95.75 -113.2" fill="#000000" fill-rule="evenodd" stroke="none"/>
      <path d="M113.1 -125.3 L113.5 -125.05 113.85 -124.75 Q114.25 -124.5 113.95 -124.8 L113.85 -124.9 113.85 -125.0 113.9 -125.1 113.95 -125.15 113.95 -125.2 114.1 -125.2 114.25 -125.25 116.25 -123.25 Q117.45 -122.2 118.95 -121.8 L119.0 -121.8 120.25 -121.55 Q120.85 -121.5 121.3 -121.05 L121.25 -121.05 121.05 -120.95 119.55 -120.75 Q119.25 -120.35 118.65 -120.55 L116.35 -120.65 115.75 -120.4 114.85 -120.5 114.55 -120.7 114.25 -120.7 113.8 -120.65 Q113.3 -120.55 112.85 -120.9 L112.8 -121.05 112.8 -121.1 113.0 -121.25 113.1 -121.3 113.15 -121.4 113.2 -121.45 113.35 -121.5 Q113.5 -121.4 113.6 -121.4 L113.85 -121.45 114.0 -121.45 114.4 -121.4 113.9 -122.0 Q113.7 -122.15 113.9 -122.25 L114.1 -122.3 114.4 -122.1 114.75 -121.8 114.8 -121.75 114.8 -121.85 115.2 -122.35 115.6 -122.45 115.6 -122.5 Q115.9 -122.25 116.25 -122.15 L116.7 -122.0 116.35 -122.2 116.2 -122.3 Q115.85 -122.5 115.45 -122.65 L114.85 -123.0 114.55 -123.1 Q113.95 -123.35 113.9 -123.65 L113.45 -124.0 Q112.6 -124.8 113.1 -125.3 M95.15 -114.9 L95.75 -115.0 96.65 -114.25 96.65 -114.9 Q96.75 -116.15 98.0 -116.25 L100.05 -115.9 Q101.25 -115.3 101.9 -114.25 L102.95 -112.25 103.1 -111.9 102.85 -111.5 102.55 -111.2 102.0 -110.9 101.5 -110.75 100.85 -110.65 100.65 -109.15 Q100.7 -108.15 101.1 -107.25 L101.8 -105.0 102.0 -104.35 102.7 -103.85 102.75 -104.0 102.85 -104.2 102.95 -104.35 Q103.3 -104.75 103.8 -104.8 L103.9 -105.15 104.1 -105.7 104.35 -106.05 Q104.65 -106.55 105.25 -106.55 L105.7 -106.4 106.3 -106.1 106.75 -106.0 107.25 -105.95 107.5 -105.75 107.6 -105.55 107.7 -105.35 108.2 -105.6 109.25 -105.75 110.0 -105.45 110.15 -105.3 Q109.3 -103.4 109.0 -101.15 L109.05 -101.3 110.35 -103.55 109.2 -101.2 108.95 -100.7 108.85 -100.05 108.8 -99.0 109.5 -100.1 109.8 -101.3 109.2 -100.2 110.25 -102.9 Q110.7 -104.15 111.55 -105.05 L111.95 -105.55 112.35 -105.95 111.2 -107.7 110.8 -108.4 Q111.7 -107.9 112.25 -106.8 L112.55 -106.2 112.7 -106.35 111.9 -107.55 111.65 -108.1 112.9 -106.6 113.1 -106.85 113.15 -106.85 111.9 -108.6 111.5 -109.05 111.55 -109.15 111.65 -109.15 111.8 -109.15 112.05 -109.15 112.1 -109.15 112.3 -109.35 112.15 -109.55 Q111.9 -109.8 112.1 -109.95 L112.2 -109.85 112.25 -109.9 112.4 -109.9 112.8 -109.25 114.55 -107.4 116.85 -104.45 118.55 -101.8 Q117.5 -102.1 116.7 -103.2 L116.35 -103.65 115.3 -104.7 115.25 -104.55 115.9 -103.55 117.2 -101.55 117.45 -101.05 Q117.05 -100.95 116.8 -101.5 L116.35 -102.25 115.8 -103.0 115.6 -103.3 115.95 -102.55 116.4 -101.7 117.0 -100.75 117.35 -100.1 116.4 -101.1 115.65 -102.25 114.95 -103.25 114.9 -103.1 115.25 -102.4 116.15 -100.7 117.3 -98.85 117.65 -98.05 Q117.3 -98.1 116.9 -98.85 L116.3 -99.9 115.6 -101.05 115.3 -101.5 116.3 -99.65 117.65 -97.4 Q118.35 -96.2 119.2 -95.1 L119.55 -94.5 Q117.85 -96.3 116.65 -98.55 L114.65 -102.1 114.05 -98.75 Q113.5 -94.95 114.5 -91.3 115.45 -88.0 117.65 -85.35 114.9 -88.05 114.1 -91.9 113.35 -95.4 113.85 -99.0 L114.5 -102.4 114.2 -102.9 Q113.15 -100.9 112.6 -98.65 111.75 -95.5 112.35 -92.3 L112.9 -90.05 115.4 -86.2 Q116.0 -85.95 116.65 -85.65 118.0 -85.0 119.65 -84.85 L120.95 -84.8 Q123.5 -85.35 126.1 -86.9 128.1 -88.05 129.5 -89.95 131.65 -92.8 133.35 -95.9 L133.0 -96.75 131.5 -99.8 Q130.55 -101.35 129.55 -101.5 129.3 -101.45 129.4 -101.75 L129.6 -102.1 129.75 -102.55 129.8 -102.75 129.05 -102.4 129.05 -102.0 129.0 -102.4 128.7 -102.2 Q127.95 -101.7 127.25 -101.9 L128.95 -103.75 128.95 -104.8 128.75 -105.0 Q128.6 -105.15 128.8 -105.15 L128.95 -105.0 129.2 -107.4 129.25 -107.5 129.05 -107.65 Q128.95 -107.8 129.1 -107.8 L129.25 -107.7 129.55 -109.95 128.7 -110.4 128.8 -110.4 129.35 -110.2 129.6 -110.15 129.7 -112.85 129.25 -112.9 Q128.65 -112.9 128.8 -113.35 L128.85 -113.4 Q128.85 -113.1 129.15 -113.1 L129.65 -113.0 129.7 -113.0 129.75 -115.7 129.25 -115.6 129.1 -115.55 128.8 -115.6 128.8 -115.65 128.85 -115.65 129.1 -115.75 129.2 -115.8 129.3 -115.8 129.35 -115.85 129.75 -115.8 129.6 -117.65 129.85 -115.8 130.25 -115.75 130.6 -115.65 130.55 -115.6 129.85 -115.7 129.95 -112.9 130.15 -112.85 130.55 -112.75 129.95 -112.75 129.9 -112.2 129.75 -110.1 130.0 -109.95 130.05 -109.9 129.7 -109.9 129.45 -107.6 129.75 -107.45 130.1 -107.25 130.3 -107.05 129.85 -107.25 129.6 -107.35 129.4 -107.4 129.3 -106.75 129.1 -104.9 129.2 -104.85 129.35 -104.75 129.55 -104.55 129.3 -104.65 129.1 -104.75 129.1 -104.3 129.2 -104.1 129.2 -104.05 129.1 -104.1 129.05 -103.9 129.2 -104.0 131.95 -106.35 132.55 -106.65 132.15 -105.95 131.75 -105.35 131.3 -104.7 Q131.4 -103.8 131.8 -102.95 L132.4 -101.15 132.8 -99.15 132.8 -99.0 Q132.3 -99.25 132.3 -100.0 L132.15 -101.2 131.8 -102.5 131.7 -102.8 131.75 -102.4 131.85 -102.05 131.95 -101.6 132.0 -101.25 Q131.7 -101.4 131.65 -101.85 L131.55 -102.6 131.35 -103.35 131.3 -103.55 Q130.8 -103.7 130.3 -103.25 L129.85 -102.5 129.75 -102.0 Q131.05 -100.85 131.95 -99.25 L133.05 -97.1 133.05 -97.25 133.25 -97.6 Q133.6 -98.15 134.25 -98.2 L134.55 -98.2 134.75 -98.6 Q135.45 -100.1 136.9 -101.0 136.85 -101.65 137.25 -102.35 L138.1 -101.65 138.3 -102.05 138.75 -102.6 138.75 -102.8 Q138.15 -105.05 140.5 -106.45 141.85 -107.2 143.35 -107.55 L145.8 -108.1 145.8 -108.2 145.8 -108.35 145.8 -108.55 145.85 -108.75 145.9 -108.95 146.05 -109.1 146.35 -109.25 146.75 -109.4 146.75 -109.45 147.95 -108.6 148.7 -108.8 148.6 -109.4 148.5 -109.85 147.95 -110.5 147.5 -111.15 147.55 -111.2 147.5 -111.25 Q147.15 -111.9 147.6 -112.5 L147.7 -112.65 147.75 -113.0 Q147.8 -114.25 148.45 -115.35 149.25 -116.65 150.45 -117.05 L150.5 -117.15 Q152.25 -116.35 151.35 -114.55 L150.7 -112.95 153.75 -112.9 Q155.35 -112.9 156.05 -111.6 L156.2 -111.25 156.15 -111.05 156.0 -110.7 155.6 -110.1 154.15 -108.95 153.65 -108.6 153.6 -108.55 Q155.35 -108.85 156.9 -108.15 157.75 -107.75 157.95 -106.8 L157.95 -106.65 157.9 -106.45 157.8 -106.25 157.7 -106.05 157.55 -105.9 157.25 -105.5 157.5 -105.45 157.75 -105.4 158.25 -105.3 158.55 -105.1 158.7 -104.95 158.8 -104.75 158.9 -104.55 158.95 -104.35 158.95 -104.2 158.9 -104.0 158.75 -103.6 158.75 -103.55 Q158.85 -103.45 159.0 -103.45 L159.5 -103.25 159.95 -102.9 160.35 -102.35 160.45 -102.0 160.4 -101.8 160.25 -101.45 159.85 -100.85 159.55 -100.55 Q160.7 -100.0 161.0 -98.5 L160.5 -97.95 159.75 -97.65 160.45 -97.5 Q161.55 -97.25 161.5 -96.15 161.4 -95.55 160.9 -95.35 L159.0 -95.5 158.65 -95.7 158.55 -95.55 159.0 -95.15 159.7 -94.65 Q160.85 -94.0 161.65 -92.9 162.1 -92.35 161.85 -91.65 L161.65 -91.25 161.45 -91.05 161.25 -90.95 161.1 -90.9 160.75 -90.85 159.85 -90.8 159.8 -90.7 159.95 -90.5 160.0 -90.3 160.05 -90.1 160.2 -89.75 160.4 -89.2 160.65 -88.45 160.7 -88.25 160.65 -88.05 160.5 -87.7 160.25 -87.3 Q159.8 -86.65 159.0 -86.55 L158.5 -86.45 158.55 -86.25 158.65 -86.05 158.65 -85.85 158.7 -85.5 158.7 -84.95 158.6 -84.35 158.65 -84.2 158.7 -84.0 158.1 -83.05 161.35 -77.55 168.45 -63.1 Q171.85 -55.85 175.6 -48.9 176.0 -48.15 175.4 -47.6 L175.5 -47.3 Q175.6 -46.95 175.3 -46.6 L175.0 -46.45 174.5 -46.35 174.0 -46.35 173.95 -46.3 174.0 -46.1 174.05 -45.95 174.15 -45.75 174.2 -45.55 174.15 -45.4 174.05 -45.0 173.95 -44.8 Q173.5 -44.25 172.75 -44.2 171.5 -44.2 170.65 -44.95 L170.2 -45.25 170.2 -44.75 170.4 -41.4 Q170.45 -40.75 170.15 -40.25 169.55 -41.7 169.1 -43.45 L168.75 -43.35 168.55 -43.3 168.8 -42.75 169.0 -42.35 169.15 -41.45 Q169.1 -40.85 168.65 -40.5 167.9 -40.1 167.2 -40.65 L166.2 -41.85 165.35 -43.15 Q165.1 -43.4 165.05 -42.95 L164.85 -42.6 164.7 -42.4 164.5 -42.25 164.0 -42.2 163.5 -42.25 Q162.55 -43.6 162.3 -45.4 162.05 -47.7 160.0 -49.1 156.9 -51.15 156.65 -54.25 L155.25 -54.75 154.25 -55.15 153.3 -55.85 152.8 -58.35 Q152.55 -59.65 151.75 -60.65 L149.75 -63.6 149.0 -64.85 148.2 -64.0 147.25 -62.2 146.65 -61.1 Q146.1 -60.05 145.0 -60.35 144.65 -60.55 144.55 -60.95 L144.45 -61.5 144.0 -62.5 Q143.7 -62.75 143.4 -62.3 143.9 -65.2 143.45 -69.25 143.1 -72.3 143.2 -75.35 L142.65 -74.15 141.9 -73.35 141.5 -73.35 141.0 -73.45 140.7 -73.65 140.5 -73.8 140.4 -74.0 Q140.25 -74.35 140.4 -74.7 L140.8 -76.45 141.1 -77.75 141.3 -78.7 141.35 -78.85 141.3 -79.45 141.25 -79.3 140.5 -77.4 139.55 -75.2 139.25 -74.45 138.25 -72.2 Q137.85 -71.4 137.0 -71.3 L136.5 -71.45 136.2 -71.65 136.0 -71.8 135.9 -72.0 135.8 -72.2 135.75 -72.3 135.65 -72.1 134.9 -70.45 133.95 -68.2 133.3 -67.4 133.0 -67.0 Q132.4 -65.55 131.0 -65.05 L130.5 -65.2 Q130.0 -65.4 129.75 -65.9 129.35 -66.75 129.6 -67.65 L129.95 -68.95 Q130.15 -69.5 129.95 -69.85 L129.7 -68.9 Q129.4 -66.85 128.5 -65.05 127.7 -63.4 126.25 -64.55 L125.9 -65.3 125.8 -66.65 125.8 -67.35 125.8 -67.95 125.8 -68.3 Q124.85 -68.5 124.8 -67.55 124.75 -66.75 124.05 -66.45 L123.15 -65.7 122.65 -65.2 122.25 -65.2 Q121.9 -65.3 121.55 -65.5 121.2 -65.65 121.15 -66.0 L120.95 -66.15 120.75 -66.3 120.4 -66.35 119.9 -66.45 119.8 -66.25 119.75 -66.05 119.65 -65.9 119.5 -65.7 119.25 -65.5 Q118.55 -65.2 118.0 -65.7 L116.95 -66.85 116.25 -67.2 116.35 -66.65 116.55 -65.5 116.55 -64.55 116.3 -64.0 116.05 -63.8 Q113.8 -63.75 113.4 -66.35 L112.75 -69.0 112.6 -69.6 Q111.7 -69.6 111.15 -70.45 L110.3 -71.7 109.55 -72.85 109.0 -73.7 109.15 -72.3 108.8 -72.45 108.75 -72.25 108.2 -71.7 108.25 -71.3 108.5 -70.55 108.7 -70.2 108.75 -69.8 108.55 -69.05 108.3 -68.9 108.1 -68.8 107.75 -68.75 107.25 -68.8 106.45 -69.7 106.05 -70.5 105.55 -71.45 105.15 -72.2 104.8 -72.75 104.65 -72.85 104.25 -72.9 103.75 -73.0 Q102.75 -73.8 102.4 -75.05 L101.35 -77.5 100.1 -79.55 99.4 -80.5 99.2 -80.25 99.1 -80.05 99.05 -79.9 99.45 -79.45 99.8 -78.9 99.8 -78.75 97.9 -75.25 Q96.75 -73.4 97.4 -71.25 L98.25 -67.1 Q98.3 -66.5 97.75 -66.2 96.7 -65.85 96.25 -66.8 L96.15 -67.0 95.5 -66.0 92.45 -61.55 92.05 -60.9 Q92.75 -57.8 91.0 -54.15 89.35 -50.8 88.15 -47.3 86.95 -43.8 86.35 -40.15 86.0 -38.45 84.5 -37.85 83.35 -38.05 83.45 -39.1 83.55 -40.1 83.1 -40.9 L82.75 -41.95 82.7 -42.85 82.55 -43.05 82.35 -43.25 82.2 -43.45 82.05 -43.65 82.0 -43.75 81.75 -43.35 81.3 -42.65 80.4 -41.75 80.0 -41.55 79.6 -41.7 79.3 -41.9 79.0 -42.3 78.8 -42.6 78.8 -42.8 78.85 -43.0 78.85 -43.2 78.95 -43.55 79.05 -43.95 79.0 -44.0 78.45 -44.1 78.25 -44.05 78.05 -43.75 77.85 -43.15 77.75 -43.0 77.2 -42.7 75.9 -42.1 75.8 -42.05 Q75.55 -41.65 75.0 -41.6 73.35 -44.25 74.45 -48.45 L75.85 -53.65 77.7 -60.9 77.95 -61.45 78.1 -61.55 78.2 -61.6 78.75 -61.75 78.9 -62.7 79.5 -65.6 79.8 -68.85 Q78.95 -70.25 79.6 -71.9 L80.15 -73.9 80.8 -84.9 Q81.0 -88.85 82.95 -91.6 81.65 -91.95 80.5 -92.65 80.3 -92.75 80.25 -93.15 80.35 -94.0 81.2 -94.15 L81.15 -94.25 81.05 -94.6 81.15 -95.15 81.75 -95.95 81.05 -96.45 81.0 -96.45 Q79.3 -96.7 78.9 -98.25 78.9 -98.85 79.35 -99.25 80.0 -99.75 80.85 -99.85 L81.9 -100.05 81.1 -100.95 80.4 -101.9 Q80.15 -102.35 80.3 -102.8 L80.4 -103.0 Q83.65 -104.4 87.2 -105.1 L87.3 -105.4 87.3 -105.55 86.35 -107.1 85.45 -108.75 Q85.1 -109.7 85.5 -110.6 L85.65 -110.8 Q86.45 -111.45 87.5 -111.15 88.55 -110.85 89.45 -110.2 89.6 -110.7 90.1 -111.0 L91.5 -111.35 Q91.25 -111.8 91.35 -112.4 L91.35 -112.75 91.55 -113.1 92.0 -113.45 92.95 -113.8 93.5 -114.0 94.0 -114.15 95.0 -113.4 95.8 -112.3 95.85 -112.15 96.05 -112.45 96.15 -112.6 96.1 -112.8 Q96.0 -113.8 95.05 -114.5 94.75 -114.7 95.15 -114.9 M83.9 -101.9 L83.95 -101.9 84.05 -102.05 83.8 -102.1 83.55 -102.05 Q83.6 -101.85 83.9 -101.9 M97.9 -109.3 L97.9 -109.2 97.95 -109.2 97.9 -109.3 M98.25 -108.1 L96.25 -107.5 96.35 -107.3 96.55 -106.95 96.45 -106.35 96.5 -106.25 97.25 -105.75 97.6 -105.25 97.65 -105.05 97.75 -105.1 98.0 -105.2 98.5 -105.35 99.45 -105.25 98.25 -108.1 M117.85 -121.0 L118.4 -120.95 117.85 -121.05 117.45 -121.2 117.4 -121.3 117.2 -121.1 117.85 -121.0 M115.05 -121.6 L115.3 -121.5 115.5 -121.45 115.6 -121.45 115.65 -121.5 115.6 -121.55 115.1 -121.6 115.05 -121.6 M111.05 -103.25 Q111.7 -104.35 112.65 -105.25 L112.7 -105.3 112.75 -105.35 112.5 -105.75 112.05 -105.25 111.25 -104.1 110.7 -103.0 111.05 -103.25 M110.05 -100.8 L111.25 -102.3 112.3 -103.45 112.7 -104.4 111.6 -103.55 110.75 -102.25 110.5 -101.85 110.05 -100.8 M109.75 -99.7 Q109.1 -97.25 109.45 -94.75 L111.9 -91.75 111.45 -93.25 Q110.6 -96.6 111.2 -100.0 L111.75 -102.15 111.15 -101.55 109.75 -99.7 M110.15 -101.95 L109.95 -101.25 110.15 -101.7 110.1 -101.7 110.15 -101.95 M113.9 -107.25 L115.0 -105.75 115.35 -105.3 115.4 -105.45 115.05 -106.0 114.0 -107.55 113.4 -108.25 113.7 -107.65 113.9 -107.25 M113.45 -106.35 L113.35 -106.05 113.3 -105.95 113.35 -105.85 113.65 -106.1 113.5 -106.3 113.45 -106.35 M112.9 -105.65 L112.95 -105.95 112.9 -106.05 112.75 -105.95 112.9 -105.65 M113.8 -105.8 L113.7 -106.0 113.5 -105.65 113.8 -105.8 M113.7 -105.35 L113.85 -105.15 113.9 -105.35 113.85 -105.55 113.7 -105.35 M115.6 -105.8 L115.55 -105.55 116.5 -104.15 118.0 -102.35 116.6 -104.4 115.15 -106.55 113.55 -108.35 115.05 -106.3 115.5 -105.6 115.6 -105.8 M115.45 -105.2 L116.1 -104.4 115.5 -105.35 115.45 -105.2 M115.1 -104.8 L115.1 -104.85 115.0 -105.0 115.1 -104.8 M114.05 -104.9 L114.15 -104.75 114.65 -104.0 114.8 -104.25 114.2 -105.15 114.05 -104.9 M113.95 -104.15 L113.9 -103.95 114.35 -103.35 114.45 -103.55 114.3 -103.8 114.1 -104.15 113.95 -104.15 M114.05 -104.2 L113.8 -104.6 113.65 -104.4 113.7 -104.3 114.0 -104.2 114.05 -104.2 M114.55 -103.8 L114.45 -103.95 114.55 -103.8 M114.85 -103.7 L114.95 -104.0 114.85 -104.1 114.75 -103.9 114.85 -103.7 M114.6 -103.65 L114.75 -103.4 114.8 -103.45 114.7 -103.55 114.65 -103.7 114.6 -103.65 M114.65 -103.1 L114.5 -103.45 114.4 -103.25 114.6 -102.9 114.65 -103.1 M114.0 -103.3 L113.75 -103.7 113.65 -103.8 112.2 -102.5 111.75 -101.15 Q111.0 -98.4 111.25 -95.55 111.4 -93.35 112.2 -91.25 L112.35 -91.0 Q111.85 -93.25 112.0 -95.7 112.15 -98.6 113.3 -101.2 L114.15 -103.0 114.0 -103.3 M114.8 -102.6 L115.0 -102.3 115.2 -102.1 114.85 -102.8 114.8 -102.6 M115.8 -102.35 L115.05 -103.8 115.0 -103.5 115.55 -102.65 115.8 -102.35 M113.35 -104.95 L113.3 -104.9 113.45 -104.7 113.55 -104.8 113.65 -104.85 113.5 -105.1 113.35 -104.95 M112.95 -104.45 L112.75 -104.0 112.9 -104.2 113.1 -104.5 112.95 -104.45 M113.3 -104.15 L113.05 -103.9 112.8 -103.6 112.55 -103.3 112.5 -103.25 112.75 -103.45 113.25 -103.8 Q113.5 -103.95 113.35 -104.15 L113.3 -104.15 M129.05 -126.65 L129.05 -126.2 129.6 -126.3 130.35 -126.4 130.0 -126.2 129.3 -126.15 129.05 -126.05 129.1 -124.75 129.15 -124.25 130.0 -124.1 130.05 -124.05 129.15 -124.05 129.2 -122.9 129.2 -122.55 129.9 -122.7 Q130.9 -123.15 132.05 -123.25 L132.25 -123.3 133.0 -123.5 133.55 -123.35 133.95 -123.1 Q134.15 -122.95 134.4 -122.9 L134.45 -122.85 134.55 -122.55 Q134.45 -122.35 134.65 -122.25 L134.8 -122.0 134.75 -121.9 134.5 -121.8 133.65 -122.45 132.95 -122.95 132.85 -123.05 132.7 -123.0 130.9 -122.45 130.35 -122.25 130.0 -121.95 129.95 -121.9 130.85 -122.0 131.7 -122.25 Q132.2 -122.45 132.3 -122.05 L132.2 -121.95 131.8 -121.8 131.45 -121.65 Q131.35 -121.45 132.25 -121.25 L132.45 -121.2 133.1 -121.15 133.3 -121.0 133.2 -120.8 133.0 -120.7 132.75 -120.45 132.85 -120.3 132.9 -120.25 132.8 -120.15 132.7 -120.15 132.8 -120.1 132.85 -119.95 132.5 -119.8 Q132.1 -119.85 132.05 -120.15 L132.1 -120.3 132.1 -120.4 130.9 -120.65 131.0 -120.5 Q130.85 -120.25 130.6 -120.3 L127.8 -120.25 Q126.95 -119.95 126.35 -120.45 L126.4 -120.55 126.45 -120.65 126.25 -120.7 125.65 -120.95 125.75 -121.3 126.1 -121.5 126.35 -121.55 126.8 -121.7 126.85 -121.75 127.0 -121.75 127.55 -121.8 129.05 -122.5 129.0 -122.95 129.0 -124.05 128.8 -124.1 128.7 -124.15 128.6 -124.25 128.5 -124.35 128.55 -124.4 128.85 -124.3 129.0 -124.25 128.95 -124.9 128.95 -126.05 128.4 -126.0 128.2 -126.05 128.95 -126.2 129.05 -126.65 M129.15 -121.05 L129.25 -121.05 130.35 -120.8 130.25 -120.85 129.15 -121.05 M131.25 -105.45 L131.05 -105.15 131.1 -105.0 Q131.1 -104.8 131.25 -104.95 L131.45 -105.2 131.65 -105.55 131.7 -105.85 131.7 -105.8 131.45 -105.65 131.25 -105.45 M130.7 -103.9 L130.6 -103.75 130.5 -103.65 130.95 -103.75 Q131.25 -103.9 131.1 -104.2 L131.0 -104.3 130.95 -104.3 130.85 -104.1 130.7 -103.9 M130.7 -104.95 L129.6 -104.0 129.05 -103.55 129.05 -102.55 129.2 -102.65 Q129.95 -103.1 130.5 -103.7 131.1 -104.4 130.7 -104.95 M128.5 -103.05 L127.55 -102.05 129.0 -102.5 128.95 -103.45 128.5 -103.05 M149.6 -109.5 L149.15 -108.95 149.5 -109.05 149.95 -109.1 149.95 -109.25 149.6 -109.5 M143.8 -93.95 L143.95 -94.1 143.4 -94.0 143.45 -93.95 143.7 -93.75 143.8 -93.95 M150.25 -92.35 L150.75 -91.85 151.35 -91.3 151.4 -91.35 150.25 -92.35 M133.45 -96.1 L133.5 -96.2 133.4 -96.2 133.45 -96.1 M133.6 -87.75 L133.65 -87.85 133.6 -87.85 133.55 -87.8 133.6 -87.75 M145.8 -64.05 Q145.75 -63.7 145.85 -63.95 L146.05 -64.5 145.95 -64.45 145.8 -64.05 M109.2 -98.8 L108.8 -98.1 108.9 -95.95 109.0 -97.65 109.2 -98.8 M109.1 -95.05 L109.25 -94.95 109.2 -95.65 109.1 -97.1 109.1 -95.4 109.1 -95.05 M100.25 -83.85 L99.8 -84.0 99.05 -83.05 99.05 -82.9 99.1 -82.85 99.4 -83.0 100.0 -83.1 100.45 -83.15 100.55 -83.3 100.4 -83.85 100.25 -83.85 M120.8 -68.5 L120.8 -68.55 120.75 -68.6 120.5 -68.55 120.8 -68.5 M164.8 -59.95 L164.75 -59.8 165.0 -59.8 165.25 -59.8 164.8 -59.95" fill="#000000" fill-rule="evenodd" stroke="none"/>
      <path d="M121.1 -143.25 Q121.15 -142.4 119.95 -142.2 L118.0 -141.8 116.5 -141.35 116.0 -141.15 115.25 -141.45 114.95 -141.6 113.9 -142.35 113.75 -142.65 115.6 -142.2 116.7 -142.3 Q118.55 -143.0 120.5 -143.15 L121.1 -143.25 M119.1 -141.65 Q118.5 -140.2 116.95 -139.4 L114.35 -137.9 Q112.95 -136.9 111.35 -136.5 L110.75 -136.4 Q112.15 -137.75 114.15 -138.75 L116.95 -140.2 118.8 -141.55 119.1 -141.65 M107.1 -131.15 Q106.35 -129.15 107.4 -128.8 L106.95 -127.75 105.95 -124.6 105.85 -123.9 Q106.5 -123.6 107.15 -124.9 L107.8 -126.4 Q108.1 -127.35 109.0 -127.9 110.1 -125.45 109.05 -122.85 108.1 -120.55 107.3 -118.1 106.65 -116.05 105.55 -114.1 L105.25 -113.9 Q105.65 -115.95 106.2 -118.0 L107.2 -121.75 108.4 -125.55 108.5 -125.9 107.7 -124.5 106.45 -122.8 Q105.8 -122.0 105.1 -122.5 L105.15 -124.75 Q105.2 -125.75 105.8 -126.7 106.55 -127.95 106.25 -127.9 105.1 -126.2 105.5 -127.9 L106.05 -129.8 Q106.35 -130.75 107.0 -131.1 L107.1 -131.15 M108.1 -132.65 L106.5 -131.1 104.85 -129.25 103.5 -127.45 103.25 -127.4 Q103.3 -128.25 103.85 -129.0 L105.3 -130.8 Q106.25 -131.85 107.45 -132.5 L108.1 -132.65 M118.7 -133.8 L119.1 -133.8 120.0 -133.65 Q122.85 -135.15 124.9 -137.6 126.35 -139.35 127.25 -141.5 127.8 -142.8 128.5 -143.6 L128.6 -143.65 Q128.5 -142.0 127.75 -140.4 L127.95 -138.85 Q127.85 -137.85 127.4 -137.0 126.75 -135.8 127.25 -135.5 L128.25 -136.1 128.9 -136.25 128.75 -135.9 127.4 -134.6 Q126.55 -133.6 125.7 -134.15 L125.6 -134.4 125.85 -135.1 Q124.95 -134.9 124.6 -134.05 124.25 -133.2 123.75 -132.9 123.75 -134.75 124.9 -136.3 L125.6 -137.35 122.8 -134.4 Q120.35 -132.05 118.25 -133.25 L118.7 -133.8 M101.0 -112.0 Q102.2 -111.75 101.75 -110.7 101.3 -109.65 100.4 -110.35 99.5 -111.0 100.4 -111.7 L101.0 -112.0 M89.5 -106.4 Q90.35 -106.55 90.25 -105.95 90.15 -105.55 89.5 -105.65 88.25 -105.8 89.0 -106.2 L89.5 -106.4 M84.85 -100.15 L85.0 -100.2 87.5 -100.35 88.0 -100.4 Q88.15 -101.25 88.85 -101.0 91.55 -100.05 93.1 -101.65 L93.5 -101.9 Q95.2 -101.45 94.2 -100.2 L92.5 -98.4 90.5 -96.25 82.65 -96.65 82.35 -96.9 82.4 -97.25 82.65 -97.45 83.5 -97.75 84.1 -98.0 84.2 -98.35 84.4 -98.8 84.65 -99.5 84.85 -100.15 M97.25 -105.8 Q97.95 -105.3 97.6 -104.65 L97.0 -104.45 95.5 -104.8 Q94.9 -105.05 94.35 -105.4 L94.4 -105.75 94.65 -106.55 94.85 -107.2 94.95 -107.35 93.4 -107.65 Q91.9 -108.05 91.25 -108.65 L94.0 -108.75 Q95.45 -108.7 95.35 -109.9 L95.35 -110.25 Q96.15 -110.9 97.15 -110.45 L97.6 -110.75 98.25 -111.0 Q98.9 -110.6 98.6 -109.85 L97.95 -108.8 97.15 -107.95 97.0 -107.65 95.95 -107.4 96.4 -106.8 97.25 -105.8 M132.35 -137.15 Q131.75 -136.35 131.55 -135.4 131.35 -134.25 130.75 -133.9 130.55 -134.95 130.95 -135.9 L131.9 -137.5 Q132.4 -138.2 132.4 -139.15 L132.6 -139.15 Q133.0 -138.1 132.35 -137.15 M136.85 -131.15 Q136.1 -130.6 136.5 -131.4 136.8 -132.0 136.7 -132.6 L136.3 -133.8 Q136.1 -134.2 136.5 -134.15 L136.6 -134.15 137.05 -133.35 137.2 -132.25 137.0 -131.5 136.85 -131.15 M140.6 -118.25 L141.0 -117.0 Q141.45 -118.05 141.35 -119.15 L141.6 -119.25 Q142.65 -118.1 141.9 -116.6 L141.3 -115.3 141.3 -115.25 Q141.4 -113.7 141.85 -112.25 142.35 -110.5 142.25 -109.9 141.0 -111.1 140.8 -112.85 L140.75 -113.55 140.05 -111.45 139.75 -111.25 Q139.35 -112.6 139.8 -114.0 L140.35 -115.55 140.25 -115.85 Q139.9 -117.05 140.4 -118.2 L140.6 -118.25 M149.8 -107.1 L150.7 -107.65 151.15 -107.95 151.45 -108.05 151.5 -108.15 Q153.7 -108.3 152.5 -107.5 L150.55 -105.9 Q149.35 -104.8 148.55 -105.55 L148.35 -105.9 148.45 -106.2 Q148.95 -106.8 149.8 -107.1 M148.95 -101.7 L149.0 -101.75 152.15 -101.35 155.05 -100.65 Q156.8 -100.2 157.7 -98.85 L157.85 -98.5 157.7 -98.15 157.45 -97.85 155.85 -97.7 152.35 -98.15 152.6 -97.75 152.65 -97.4 152.45 -97.1 151.6 -96.9 150.9 -97.35 149.6 -98.35 148.35 -99.15 Q146.05 -100.55 148.95 -101.7 M151.6 -99.85 L152.35 -100.0 152.1 -100.05 151.1 -100.05 151.25 -100.0 151.6 -99.85 M79.8 -78.5 Q78.55 -86.8 84.25 -90.15 87.35 -82.55 85.7 -74.55 84.05 -66.9 82.05 -59.6 80.0 -52.2 75.85 -48.15 76.55 -55.55 78.8 -63.5 80.9 -70.85 79.8 -78.5 M154.25 -90.55 L154.75 -89.9 Q153.3 -88.85 151.8 -90.3 L149.9 -91.9 Q148.75 -92.75 149.05 -93.85 149.2 -94.3 149.75 -94.15 L151.3 -92.95 152.7 -91.75 154.25 -90.55 M145.45 -95.95 Q144.75 -96.35 145.5 -96.5 146.25 -96.25 146.85 -95.8 L146.7 -95.8 145.45 -95.95 M144.1 -88.25 L144.15 -88.65 144.3 -88.95 144.75 -89.4 145.1 -89.55 145.45 -89.7 145.5 -89.75 Q146.8 -89.35 147.2 -87.95 L147.95 -85.8 148.65 -83.6 148.6 -83.25 148.25 -83.05 147.1 -83.2 145.85 -83.4 145.25 -84.55 144.7 -85.9 144.2 -87.5 144.1 -88.25 M154.35 -80.65 L155.1 -81.4 155.9 -82.05 156.5 -82.4 Q160.3 -80.35 162.0 -75.9 163.55 -71.8 165.4 -67.85 166.8 -64.95 167.35 -62.05 L167.95 -61.15 Q169.3 -58.8 170.95 -56.65 172.65 -54.35 172.1 -51.65 L171.85 -51.4 171.5 -51.3 170.1 -51.4 167.6 -55.15 Q166.2 -57.35 164.45 -59.1 162.55 -61.0 162.7 -62.6 161.75 -63.6 160.95 -65.05 158.55 -69.4 155.75 -73.5 153.75 -76.4 153.6 -79.9 L154.35 -80.65 M123.35 -78.15 Q123.1 -77.15 122.65 -78.1 122.4 -78.6 122.75 -79.05 122.85 -79.2 123.1 -79.25 123.55 -78.75 123.35 -78.15 M140.6 -87.3 Q139.8 -86.65 139.0 -87.45 138.15 -88.3 140.0 -88.05 L140.0 -88.15 Q141.55 -88.05 140.6 -87.3 M145.75 -68.5 L146.0 -68.7 146.45 -68.8 146.5 -68.9 Q147.45 -69.1 147.6 -68.25 L147.7 -66.75 148.4 -66.15 148.6 -65.9 Q147.45 -61.4 146.55 -56.65 145.55 -51.5 145.35 -46.35 L144.75 -37.55 144.8 -37.45 Q145.75 -35.65 146.1 -33.75 144.8 -34.95 143.65 -36.45 142.35 -36.75 141.35 -38.15 L139.0 -40.75 Q137.6 -42.0 137.1 -43.75 L137.1 -44.15 137.1 -44.5 137.2 -44.85 137.45 -45.3 137.6 -45.65 137.9 -46.15 Q138.25 -47.7 138.85 -49.25 139.15 -52.05 141.1 -54.85 L143.05 -57.9 143.8 -61.0 144.25 -63.0 144.1 -66.25 144.1 -66.65 144.25 -67.0 144.5 -67.2 145.0 -67.4 145.5 -67.5 145.55 -67.75 145.65 -68.15 145.75 -68.5 M142.3 -51.1 Q143.05 -52.25 143.3 -53.8 L143.05 -53.1 142.3 -51.1 M101.25 -98.9 L102.2 -98.15 102.0 -98.0 Q101.45 -97.5 101.55 -96.85 L101.15 -97.05 Q99.95 -97.6 100.7 -98.6 L101.25 -98.9 M111.2 -82.65 Q111.6 -83.15 112.25 -83.0 L112.25 -82.3 111.9 -81.15 111.65 -80.0 111.75 -79.65 Q111.35 -78.85 110.45 -78.35 L109.45 -77.55 Q109.1 -77.2 108.6 -77.0 108.05 -78.15 108.9 -79.35 L110.05 -81.0 111.2 -82.65 M106.5 -84.05 L107.25 -84.4 Q107.7 -83.9 107.2 -83.55 L106.6 -83.65 Q106.35 -83.9 106.5 -84.05 M101.3 -82.45 Q100.85 -81.6 99.95 -81.3 L99.5 -81.4 99.5 -81.75 99.75 -82.5 100.1 -83.15 100.95 -83.8 101.0 -83.9 Q102.15 -84.2 101.9 -83.75 L101.3 -82.45 M117.0 -79.35 Q115.35 -78.95 115.8 -80.1 116.1 -80.95 117.25 -80.65 118.65 -79.7 117.0 -79.35 M96.95 -92.35 Q95.45 -92.05 95.8 -93.1 96.05 -93.75 96.7 -93.95 97.55 -93.15 98.7 -92.7 L96.95 -92.35 M99.5 -89.85 L99.35 -89.15 98.85 -88.4 99.15 -87.6 99.2 -86.9 99.0 -86.2 98.6 -85.75 Q97.9 -85.55 97.35 -85.75 L97.25 -86.1 97.1 -86.5 Q96.2 -86.0 95.4 -85.35 L94.2 -84.3 93.75 -83.9 92.15 -84.05 Q91.9 -84.05 91.75 -84.25 92.9 -85.9 94.8 -87.35 96.45 -88.55 97.75 -90.1 98.35 -90.75 99.25 -90.65 L99.5 -89.85 M89.15 -95.5 Q90.15 -95.15 90.6 -94.25 L90.75 -93.9 89.8 -93.8 Q88.0 -94.65 86.9 -93.6 86.5 -93.2 84.85 -94.1 L84.25 -94.4 83.95 -94.8 Q83.85 -94.95 83.9 -95.1 L84.15 -95.4 85.35 -95.9 Q85.65 -96.0 85.95 -96.2 L86.0 -96.25 87.7 -95.95 89.15 -95.5 M89.25 -86.9 Q89.7 -86.35 89.3 -85.8 L88.9 -84.95 Q88.65 -84.3 88.05 -83.95 L87.75 -83.9 Q86.5 -84.15 87.3 -84.95 L88.15 -86.0 88.75 -86.75 89.25 -86.9 M94.95 -69.15 L95.6 -69.75 96.1 -70.25 96.75 -70.5 Q97.8 -67.15 97.6 -63.4 97.35 -59.45 99.85 -56.55 102.05 -53.95 105.6 -53.25 L105.9 -52.5 106.05 -52.15 106.9 -51.3 107.05 -51.2 107.35 -50.9 107.55 -49.9 Q108.0 -48.55 107.85 -47.0 107.7 -45.1 106.6 -43.65 L106.25 -43.25 Q106.7 -42.2 107.6 -41.0 L108.0 -40.5 108.05 -40.55 108.1 -40.4 108.1 -40.35 110.55 -37.6 Q111.85 -36.35 112.1 -34.65 111.15 -34.4 110.25 -35.05 L110.1 -34.65 Q109.1 -34.0 108.65 -34.95 L108.55 -35.2 107.4 -35.25 Q106.5 -34.05 104.5 -33.55 101.35 -32.75 99.25 -35.25 100.0 -38.3 99.8 -41.25 L99.5 -41.65 99.55 -43.4 98.9 -45.8 Q97.3 -50.75 95.15 -55.45 92.7 -60.85 94.55 -65.25 L94.6 -65.25 94.85 -63.75 94.55 -67.5 94.5 -68.65 94.95 -69.15 M101.8 -39.4 Q101.6 -37.7 101.0 -36.0 101.7 -35.35 102.65 -35.1 104.5 -34.65 105.35 -36.15 L104.8 -36.6 103.3 -37.25 Q103.1 -37.3 103.0 -37.5 L103.55 -37.9 101.8 -39.4 M157.0 -1.4 Q157.85 -0.7 158.95 -0.6 159.85 -0.55 160.15 0.5 L160.35 0.85 160.4 1.25 160.45 1.3 160.85 1.2 162.05 1.3 162.25 1.5 Q162.35 2.15 162.05 2.65 L161.45 4.05 161.0 5.7 Q167.85 13.2 166.3 25.25 165.55 30.9 164.1 36.45 L163.55 43.1 Q162.65 50.65 163.1 58.3 L163.4 59.6 Q165.05 65.95 164.55 72.3 L167.9 85.0 Q170.15 94.15 171.2 103.9 172.0 111.8 170.45 118.7 L171.25 120.1 Q171.25 124.65 170.65 129.1 170.05 133.7 170.25 138.5 170.5 143.1 169.0 146.75 166.15 140.4 166.35 131.6 L166.95 116.6 167.2 113.25 166.7 101.35 Q166.45 96.15 165.7 91.25 L165.05 88.2 164.3 84.1 164.15 83.6 Q162.95 78.8 162.7 74.4 161.4 68.2 161.1 60.75 L161.0 55.85 160.5 51.65 Q159.9 45.95 160.75 40.15 162.45 28.25 158.5 17.05 L155.25 8.4 154.7 7.9 154.65 7.85 Q153.7 7.95 153.8 6.9 L153.8 6.85 153.0 5.5 152.0 5.4 151.5 5.3 150.9 5.05 150.6 4.75 Q150.65 3.95 151.05 3.2 L151.95 1.35 Q152.55 0.1 153.55 -0.95 L155.0 -1.9 Q156.1 -2.1 157.0 -1.4 M97.2 2.95 L97.7 3.3 98.1 4.05 98.1 4.35 97.9 4.75 97.75 5.5 Q97.65 6.35 98.5 6.2 L99.6 6.25 96.05 26.1 Q93.9 36.6 92.75 47.45 L92.0 54.95 91.85 66.05 92.5 64.75 Q93.7 68.0 90.75 74.1 89.0 77.7 88.0 81.7 84.0 97.9 82.05 114.45 80.6 126.55 78.15 138.45 L78.15 138.5 Q77.6 148.15 74.35 155.0 L74.25 155.35 74.2 155.35 73.35 156.85 73.75 154.85 73.45 153.5 73.4 152.35 73.35 151.25 75.35 143.2 76.05 133.95 Q76.6 122.3 79.0 111.0 80.4 104.25 82.75 98.2 L83.9 91.1 Q85.95 78.85 90.9 68.05 89.0 57.9 90.15 46.25 91.3 33.85 92.6 21.4 93.75 10.25 96.75 1.1 L96.7 2.8 97.2 2.95" fill="url(#gradient12)" fill-rule="evenodd" stroke="none"/>
      <path d="M36.3 -17.0 L41.75 -24.4 46.95 -31.75 49.45 -35.4 51.85 -39.05 Q53.5 -41.55 55.55 -43.65 57.2 -45.3 58.2 -45.65 60.0 -47.25 62.3 -47.5 L62.3 -47.75 65.55 -47.65 66.1 -47.7 66.1 -47.85 66.6 -47.8 66.8 -47.85 66.85 -47.75 68.0 -47.6 70.55 -46.4 Q72.1 -45.75 73.45 -45.4 L76.55 -44.65 79.2 -44.25 81.1 -43.85 84.35 -43.1 88.05 -42.15 91.25 -41.35 Q100.55 -39.45 104.55 -38.15 L107.3 -37.4 111.15 -36.65 Q112.7 -35.95 113.75 -35.05 L114.6 -34.2 116.1 -34.05 117.2 -33.9 118.3 -34.15 118.35 -34.15 121.25 -34.6 Q122.6 -34.6 124.1 -33.2 L124.95 -32.35 Q125.3 -31.9 125.85 -31.65 L126.25 -31.35 126.85 -31.1 Q129.0 -30.9 129.4 -30.5 L131.05 -29.1 131.2 -29.4 131.15 -29.1 131.3 -29.25 132.1 -29.35 132.95 -29.1 Q133.1 -28.9 133.4 -28.9 L133.6 -29.9 134.15 -30.3 134.7 -30.6 135.45 -30.3 136.55 -30.0 137.05 -30.4 137.2 -30.95 137.35 -31.4 Q137.85 -32.2 138.05 -31.9 138.45 -31.35 139.25 -31.55 140.0 -31.75 141.55 -32.65 L143.65 -34.1 144.55 -35.1 146.35 -35.25 Q146.55 -35.25 147.25 -35.6 L148.3 -35.95 149.05 -35.6 151.4 -36.05 152.75 -36.65 154.4 -37.25 154.5 -37.3 Q154.5 -37.7 155.45 -38.05 L156.45 -38.75 158.65 -39.75 159.75 -40.25 160.85 -40.95 Q161.4 -41.65 162.7 -42.25 L163.95 -42.45 Q164.4 -42.3 164.95 -42.8 L166.9 -45.05 Q167.55 -46.05 168.85 -46.9 L168.8 -46.95 Q173.5 -50.3 180.3 -52.4 L188.95 -54.4 190.9 -55.0 192.95 -55.5 194.9 -56.0 194.85 -56.1 195.9 -57.9 196.25 -58.95 Q196.45 -59.65 196.75 -59.75 L196.85 -59.75 196.9 -59.7 Q197.6 -60.35 199.0 -60.75 L206.8 -62.85 Q208.1 -63.05 212.6 -62.85 L213.7 -62.35 214.3 -62.3 217.35 -61.7 220.85 -61.0 222.6 -60.8 223.3 -60.4 Q224.6 -59.8 227.05 -59.0 228.75 -58.35 229.6 -57.6 L230.0 -57.45 231.95 -56.65 232.6 -56.3 232.95 -55.95 233.35 -55.45 233.2 -55.25 Q233.2 -54.95 236.55 -52.5 L237.5 -51.25 238.1 -49.75 237.3 -48.35 236.85 -47.05 236.35 -45.75 235.8 -45.1 235.6 -44.45 235.85 -43.4 235.7 -41.8 Q235.7 -41.5 235.3 -41.2 234.9 -40.9 234.95 -40.35 235.0 -39.75 234.65 -38.8 L234.4 -38.15 234.5 -37.95 233.75 -36.45 233.1 -35.85 231.2 -35.05 229.85 -34.45 229.05 -34.0 Q227.35 -32.75 226.95 -32.75 226.7 -32.75 226.5 -32.9 L226.1 -33.05 Q224.65 -33.05 223.35 -31.65 L222.0 -30.25 221.55 -30.6 221.4 -31.1 221.2 -31.95 Q220.95 -31.65 220.7 -31.65 220.2 -31.65 220.15 -32.15 L219.9 -32.7 Q219.65 -32.7 218.75 -32.1 L217.85 -31.5 Q217.2 -31.5 217.2 -33.5 216.6 -33.1 216.35 -32.15 L215.8 -30.65 Q215.45 -30.85 215.4 -31.0 L215.3 -31.3 215.25 -32.05 214.6 -34.05 213.9 -32.35 Q212.8 -29.85 212.4 -27.95 L211.95 -25.55 211.7 -24.3 211.7 -24.05 211.4 -22.2 210.95 -20.05 210.45 -16.0 Q210.15 -13.6 208.75 -8.05 L208.15 -6.05 207.65 -4.0 206.6 0.0 205.3 4.0 204.75 5.8 204.45 6.7 203.95 7.95 203.25 10.45 201.55 15.45 198.7 25.35 Q197.15 31.1 195.2 35.4 193.7 38.6 193.25 40.35 L193.0 42.5 193.05 43.85 192.6 48.75 192.3 51.05 192.45 51.35 Q192.45 52.35 191.25 54.15 L189.55 56.75 187.8 59.8 186.35 62.0 184.5 61.75 182.5 62.25 180.4 62.15 180.35 62.0 179.6 61.75 Q178.95 61.3 178.55 61.25 L177.3 61.0 176.95 60.85 176.75 60.3 176.05 60.05 175.85 59.95 175.7 60.05 175.25 59.7 174.65 59.0 174.6 58.5 Q174.6 58.0 175.2 57.5 175.8 56.95 176.25 57.25 L179.35 58.9 179.05 58.25 178.3 57.0 Q176.35 55.5 176.35 55.1 176.35 54.75 176.9 54.4 177.55 53.95 178.45 54.1 L179.3 54.55 179.9 54.95 180.15 53.9 180.85 51.8 181.55 47.0 Q181.75 44.2 182.55 42.15 183.0 40.95 183.75 39.7 L185.0 38.05 184.95 37.9 185.4 36.75 185.65 35.6 186.35 33.45 187.4 29.15 188.4 24.75 189.35 20.45 Q190.05 17.5 190.15 16.0 L190.45 11.7 190.75 7.25 Q190.85 5.15 191.4 3.7 L192.35 -0.2 193.0 -2.75 192.45 -2.4 189.6 -0.95 186.85 -1.45 185.7 -1.7 184.8 -1.15 182.95 0.0 181.5 0.55 177.95 1.15 175.7 1.65 174.75 1.75 172.85 2.0 167.35 1.9 164.8 2.05 161.35 2.6 157.05 3.25 Q155.4 3.65 152.75 4.7 L147.7 6.0 Q146.55 6.25 145.85 6.85 145.25 7.4 144.75 7.4 144.2 7.4 143.95 7.1 L142.75 7.65 141.15 8.8 137.95 11.35 137.15 11.9 137.1 12.05 136.85 12.05 Q134.05 13.75 130.9 14.65 127.9 15.5 125.45 15.5 L122.5 15.25 121.65 14.95 115.75 15.4 112.85 14.75 Q111.85 14.3 109.95 14.2 L107.25 13.7 106.4 13.05 104.35 11.65 103.15 10.7 102.05 9.55 Q101.15 8.45 99.85 7.3 L98.15 5.9 92.65 2.35 90.25 0.45 88.05 -1.15 84.8 -2.45 84.3 -2.15 83.25 -1.25 Q82.5 -0.65 81.9 -0.65 81.1 -0.65 79.6 -1.5 78.4 -2.2 78.15 -2.45 L76.7 -3.3 75.8 -4.05 Q74.9 -4.85 74.8 -6.0 L74.6 -7.9 74.2 -9.6 Q73.35 -9.8 72.9 -10.7 72.55 -11.4 72.55 -11.9 L72.6 -12.3 72.3 -12.0 71.5 -11.9 Q71.15 -12.1 70.95 -11.6 70.35 -10.2 69.5 -9.35 L65.3 -5.05 56.9 3.6 55.2 5.75 53.6 8.0 50.05 12.4 46.4 16.8 44.2 19.35 42.75 21.1 40.6 24.25 38.95 26.3 38.8 26.5 38.75 26.3 37.8 27.3 Q37.3 27.75 36.25 28.0 L36.3 28.4 Q33.65 28.4 31.4 26.8 L31.0 26.5 27.8 25.9 25.5 24.8 Q22.35 23.2 20.35 22.5 17.7 21.55 15.35 20.95 L11.9 20.3 8.3 19.85 5.8 19.1 4.05 18.45 Q2.7 17.75 -0.3 17.1 -2.85 16.5 -3.65 15.45 -4.6 14.2 -4.6 13.2 L-4.25 11.8 -3.9 10.65 Q-3.75 9.8 -2.85 9.05 L-2.7 8.95 -2.6 8.85 -1.7 8.35 -1.85 8.8 0.65 9.15 3.5 9.5 4.95 9.1 6.6 8.5 Q8.4 7.55 9.35 7.15 10.2 6.65 10.6 6.65 12.25 6.55 12.85 6.15 L13.45 5.9 13.45 5.2 13.55 5.2 13.7 5.8 15.6 4.85 18.2 3.15 20.0 1.35 23.7 -2.3 Q31.65 -10.8 36.3 -17.0 M186.05 52.25 Q186.0 51.65 185.2 51.05 184.6 52.25 184.5 53.35 184.35 54.65 183.65 56.25 L183.45 56.75 184.05 56.9 184.75 56.6 185.05 56.1 185.5 55.85 186.05 55.35 186.05 52.25" fill="#000000" fill-rule="evenodd" stroke="none"/>
    </g>
    <linearGradient gradientTransform="matrix(0.0, 0.1834, -0.0604, 0.0, 122.8, 6.6)" gradientUnits="userSpaceOnUse" id="gradient12" spreadMethod="pad" x1="-819.2" x2="819.2">
      <stop offset="0.047058823529411764" stop-color="#947163"/>
      <stop offset="0.10980392156862745" stop-color="#edce89"/>
      <stop offset="0.3058823529411765" stop-color="#5b6568"/>
      <stop offset="1.0" stop-color="#272f47"/>
    </linearGradient>
    <g id="shape9" transform="matrix(1.0, 0.0, 0.0, 1.0, 39.5, 191.2)">
      <path d="M139.5 -177.2 L139.5 164.75 137.5 164.75 137.5 -177.2 139.5 -177.2 M109.5 -177.2 L109.5 164.75 107.5 164.75 107.5 -177.2 109.5 -177.2 M79.5 -177.2 L79.5 164.75 77.5 164.75 77.5 -177.2 79.5 -177.2 M49.5 -177.2 L49.5 164.75 47.5 164.75 47.5 -177.2 49.5 -177.2 M19.5 -177.2 L19.5 164.75 17.5 164.75 17.5 -177.2 19.5 -177.2 M259.5 -177.2 L259.5 164.75 257.5 164.75 257.5 -177.2 259.5 -177.2 M229.5 -177.2 L229.5 164.75 227.5 164.75 227.5 -177.2 229.5 -177.2 M199.5 -177.2 L199.5 164.75 197.5 164.75 197.5 -177.2 199.5 -177.2 M169.5 -177.2 L169.5 164.75 167.5 164.75 167.5 -177.2 169.5 -177.2 M-10.5 -177.2 L-10.5 164.75 -12.5 164.75 -12.5 -177.2 -10.5 -177.2" fill="#000000" fill-rule="evenodd" stroke="none"/>
      <path d="M106.4 -190.2 L99.45 -183.25 119.45 -163.25 139.45 -183.25 132.5 -190.2 M146.4 -190.2 L139.45 -183.25 159.45 -163.25 179.45 -183.25 172.5 -190.2 M66.4 -190.2 L59.45 -183.25 79.45 -163.25 99.45 -183.25 92.5 -190.2 M119.45 -123.25 L139.45 -143.25 119.45 -163.25 99.45 -143.25 119.45 -123.25 139.45 -103.25 159.45 -123.25 139.45 -143.25 159.45 -163.25 179.45 -143.25 199.45 -163.25 179.45 -183.25 186.4 -190.2 M99.45 -143.25 L79.45 -123.25 99.45 -103.25 119.45 -123.25 M52.5 -190.2 L59.45 -183.25 39.45 -163.25 59.45 -143.25 79.45 -163.25 99.45 -143.25 M-14.5 -177.2 L-0.55 -163.25 19.45 -183.25 12.5 -190.2 M26.4 -190.2 L19.45 -183.25 39.45 -163.25 19.45 -143.25 39.45 -123.25 59.45 -143.25 79.45 -123.25 59.45 -103.25 79.45 -83.25 99.45 -103.25 119.45 -83.25 139.45 -103.25 159.45 -83.25 179.45 -103.25 159.45 -123.25 179.45 -143.25 199.45 -123.25 219.45 -143.25 199.45 -163.25 219.45 -183.25 212.5 -190.2 M19.45 -143.25 L-0.55 -123.25 19.45 -103.25 39.45 -123.25 59.45 -103.25 39.45 -83.25 59.45 -63.25 79.45 -83.25 99.45 -63.25 119.45 -83.25 139.45 -63.25 159.45 -83.25 179.45 -63.25 199.45 -83.25 179.45 -103.25 199.45 -123.25 219.45 -103.25 239.45 -123.25 219.45 -143.25 239.45 -163.25 219.45 -183.25 226.4 -190.2 M39.45 -83.25 L19.45 -103.25 -0.55 -83.25 19.45 -63.25 39.45 -83.25 M19.45 -23.25 L39.45 -3.25 59.45 -23.25 39.45 -43.25 19.45 -23.25 -0.55 -43.25 -20.55 -23.25 -0.55 -3.25 19.45 -23.25 M79.45 -3.25 L99.45 -23.25 79.45 -43.25 59.45 -23.25 79.45 -3.25 99.45 16.75 119.45 -3.25 99.45 -23.25 119.45 -43.25 99.45 -63.25 79.45 -43.25 59.45 -63.25 39.45 -43.25 19.45 -63.25 -0.55 -43.25 -20.55 -63.25 -38.5 -45.3 M159.45 -43.25 L139.45 -63.25 119.45 -43.25 139.45 -23.25 159.45 -43.25 179.45 -63.25 199.45 -43.25 219.45 -63.25 199.45 -83.25 219.45 -103.25 239.45 -83.25 259.45 -103.25 239.45 -123.25 259.45 -143.25 239.45 -163.25 253.4 -177.2 M139.45 -23.25 L119.45 -3.25 139.45 16.75 159.45 -3.25 139.45 -23.25 M273.4 -157.2 L259.45 -143.25 279.45 -123.25 283.45 -127.25 M283.45 -119.25 L279.45 -123.25 259.45 -103.25 279.45 -83.25 283.45 -87.25 M219.45 -63.25 L239.45 -83.25 259.45 -63.25 279.45 -83.25 283.45 -79.25 M159.45 -43.25 L179.45 -23.25 199.45 -43.25 219.45 -23.25 239.45 -43.25 219.45 -63.25 M179.45 -23.25 L199.45 -3.25 219.45 -23.25 239.45 -3.25 259.45 -23.25 239.45 -43.25 259.45 -63.25 279.45 -43.25 283.45 -47.25 M283.45 -39.25 L279.45 -43.25 259.45 -23.25 279.45 -3.25 283.45 -7.25 M179.45 -23.25 L159.45 -3.25 179.45 16.75 199.45 -3.25 219.45 16.75 239.45 -3.25 259.45 16.75 279.45 -3.25 283.45 0.75 M283.45 32.75 L279.45 36.75 283.45 40.75 M259.45 16.75 L279.45 36.75 259.45 56.75 279.45 76.75 283.45 72.75 M283.45 80.75 L279.45 76.75 259.45 96.75 279.45 116.75 283.45 112.75 M219.45 16.75 L199.45 36.75 219.45 56.75 239.45 36.75 219.45 16.75 M179.45 16.75 L199.45 36.75 179.45 56.75 199.45 76.75 219.45 56.75 239.45 76.75 259.45 56.75 239.45 36.75 259.45 16.75 M179.45 96.75 L199.45 116.75 219.45 96.75 199.45 76.75 179.45 96.75 159.45 76.75 139.45 96.75 159.45 116.75 179.45 96.75 M219.45 96.75 L239.45 76.75 259.45 96.75 239.45 116.75 259.45 136.75 279.45 116.75 283.45 120.75 M239.45 116.75 L219.45 136.75 233.45 150.75 M159.45 116.75 L179.45 136.75 199.45 116.75 219.45 136.75 199.45 156.75 204.5 161.8 M199.45 156.75 L194.4 161.8 M199.45 156.75 L179.45 136.75 159.45 156.75 164.5 161.8 M259.45 136.75 L273.45 150.75 M234.4 161.8 L259.45 136.75 M219.45 96.75 L239.45 116.75 M139.45 16.75 L159.45 36.75 179.45 16.75 M99.45 16.75 L119.45 36.75 139.45 16.75 M99.45 96.75 L119.45 116.75 139.45 96.75 119.45 76.75 99.45 96.75 79.45 76.75 59.45 96.75 79.45 116.75 99.45 96.75 M119.45 76.75 L139.45 56.75 119.45 36.75 99.45 56.75 119.45 76.75 M159.45 76.75 L139.45 56.75 159.45 36.75 179.45 56.75 159.45 76.75 M79.45 -3.25 L59.45 16.75 79.45 36.75 99.45 16.75 M39.45 36.75 L59.45 16.75 39.45 -3.25 19.45 16.75 39.45 36.75 59.45 56.75 79.45 36.75 99.45 56.75 79.45 76.75 59.45 56.75 39.45 76.75 59.45 96.75 39.45 116.75 59.45 136.75 79.45 116.75 99.45 136.75 119.45 116.75 139.45 136.75 159.45 116.75 M39.45 76.75 L19.45 96.75 39.45 116.75 19.45 136.75 39.45 156.75 59.45 136.75 79.45 156.75 99.45 136.75 119.45 156.75 139.45 136.75 159.45 156.75 154.4 161.8 M39.45 36.75 L19.45 56.75 39.45 76.75 M44.5 161.8 L39.45 156.75 34.4 161.8 M84.5 161.8 L79.45 156.75 74.4 161.8 M19.45 136.75 L5.45 150.75 M124.5 161.8 L119.45 156.75 114.4 161.8 M-38.5 -121.2 L-20.55 -103.25 -0.55 -123.25 -20.55 -143.25 -38.5 -125.3 M-34.5 -157.2 L-20.55 -143.25 -0.55 -163.25 19.45 -143.25 M-38.5 -81.2 L-20.55 -63.25 -0.55 -83.25 -20.55 -103.25 -38.5 -85.3 M-20.55 -23.25 L-38.5 -5.3 M-38.5 -41.2 L-20.55 -23.25 M-38.5 38.8 L-20.55 56.75 -0.55 36.75 -20.55 16.75 -38.5 34.7 M-38.5 78.8 L-20.55 96.75 -0.55 76.75 -20.55 56.75 -38.5 74.7 M-38.5 118.8 L-20.55 136.75 -0.55 116.75 -20.55 96.75 -38.5 114.7 M4.5 161.8 L-20.55 136.75 -34.55 150.75 M-38.5 -1.2 L-20.55 16.75 -0.55 -3.25 19.45 16.75 -0.55 36.75 19.45 56.75 -0.55 76.75 19.45 96.75 -0.55 116.75 19.45 136.75" fill="none" stroke="#000000" stroke-linecap="round" stroke-linejoin="round" stroke-width="2.0"/>
    </g>
    <g id="morphshape0" transform="matrix(1.0, 0.0, 0.0, 1.0, 227.4, 208.05)">
      <path d="M-227.4 -208.05 L-227.4 186.25 464.95 186.25 464.95 -208.05 -227.4 -208.05" fill="#000001" fill-opacity="0.6156863" fill-rule="evenodd" stroke="none"/>
      <path d="M-227.4 -208.05 L464.95 -208.05 464.95 186.25 -227.4 186.25 -227.4 -208.05 Z" fill="none" stroke="#000000" stroke-linecap="round" stroke-linejoin="round" stroke-opacity="0.0" stroke-width="0.0"/>
    </g>
    <g id="sprite5" transform="matrix(1.0, 0.0, 0.0, 1.0, 265.1, 150.0)">
      <use ffdec:characterId="3477" height="300.0" transform="matrix(1.0, 0.0, 0.0, 1.0, -265.1, -150.0)" width="533.0" xlink:href="#shape10"/>
    </g>
    <g id="shape10" transform="matrix(1.0, 0.0, 0.0, 1.0, 265.1, 150.0)">
      <path d="M267.9 -150.0 L267.9 150.0 -265.1 150.0 -265.1 -150.0 267.9 -150.0 Z" fill="none" stroke="#ff0000" stroke-linecap="round" stroke-linejoin="round" stroke-width="0.05"/>
      <path d="M1.4 -16.05 L1.45 -16.05 Q9.35 -16.05 14.95 -11.35 20.55 -6.65 20.55 0.0 L39.5 0.0 M20.55 0.0 Q20.55 6.65 14.95 11.35 9.35 16.05 1.45 16.05 L1.4 16.05 1.4 21.45 M-36.65 0.0 L-17.55 0.0 -17.55 -0.05 Q-17.55 -6.65 -11.95 -11.35 -6.4 -16.05 1.4 -16.05 M1.4 16.05 Q-6.4 16.05 -11.95 11.35 -17.55 6.65 -17.55 0.0" fill="none" stroke="#ff0000" stroke-linecap="round" stroke-linejoin="round" stroke-opacity="0.2509804" stroke-width="0.05"/>
      <path d="M1.4 -16.05 L1.4 -21.4" fill="none" stroke="#ff0000" stroke-linecap="round" stroke-linejoin="round" stroke-opacity="0.2509804" stroke-width="1.0"/>
      <path d="M181.15 141.4 L181.15 123.6 191.05 123.6 191.05 141.4 181.15 141.4" fill="#ffffff" fill-rule="evenodd" stroke="none"/>
      <path d="M250.55 123.6 L260.45 123.6 260.45 141.4 260.35 141.4 250.55 141.4 250.55 123.6" fill="#000000" fill-rule="evenodd" stroke="none"/>
      <path d="M230.7 123.6 L240.6 123.6 240.6 141.4 230.7 141.4 230.7 123.6" fill="#ff0000" fill-rule="evenodd" stroke="none"/>
      <path d="M191.05 123.6 L201.0 123.6 201.0 141.4 191.05 141.4 191.05 123.6" fill="#ffff00" fill-rule="evenodd" stroke="none"/>
      <path d="M201.0 123.6 L210.9 123.6 210.9 141.4 201.0 141.4 201.0 123.6" fill="#00ffff" fill-rule="evenodd" stroke="none"/>
      <path d="M210.9 123.6 L220.8 123.6 220.8 141.4 210.9 141.4 210.9 123.6" fill="#00ff00" fill-rule="evenodd" stroke="none"/>
      <path d="M220.8 123.6 L230.7 123.6 230.7 141.4 220.8 141.4 220.8 123.6" fill="#ff00ff" fill-rule="evenodd" stroke="none"/>
      <path d="M240.6 123.6 L250.55 123.6 250.55 141.4 240.6 141.4 240.6 123.6" fill="#0000ff" fill-rule="evenodd" stroke="none"/>
      <path d="M260.35 141.4 L260.35 145.4 181.1 145.4 181.1 141.4 181.15 141.4 191.05 141.4 201.0 141.4 210.9 141.4 220.8 141.4 230.7 141.4 240.6 141.4 250.55 141.4 260.35 141.4" fill="url(#gradient13)" fill-rule="evenodd" stroke="none"/>
    </g>
    <linearGradient gradientTransform="matrix(0.0484, 0.0, 0.0, 0.0024, 220.7, 143.35)" gradientUnits="userSpaceOnUse" id="gradient13" spreadMethod="pad" x1="-819.2" x2="819.2">
      <stop offset="0.0" stop-color="#ffffff"/>
      <stop offset="1.0" stop-color="#000000"/>
    </linearGradient>
  </defs>
</svg>
