<?xml version="1.0" encoding="UTF-8" standalone="no"?>
<svg xmlns:ffdec="https://www.free-decompiler.com/flash" xmlns:xlink="http://www.w3.org/1999/xlink" ffdec:objectType="frame" height="2840.0px" width="4483.3px" xmlns="http://www.w3.org/2000/svg">
  <g transform="matrix(2.0, 0.0, 0.0, 2.0, 1889.8, 1197.4)">
    <use ffdec:characterId="3768" height="316.45" transform="matrix(1.0, 0.0, 0.0, 1.0, -221.85, -160.7)" width="652.85" xlink:href="#shape0"/>
    <clipPath id="clipPath0" transform="matrix(1.0, 0.0, 0.0, 1.0, 0.0, 0.0)">
      <path d="M112.55 -136.25 L129.75 -137.05 142.35 -136.55 166.6 -136.55 171.35 -136.35 175.0 -136.35 199.75 -136.7 204.5 -135.7 Q204.45 -136.1 204.85 -136.05 L205.0 -136.05 221.2 -134.7 Q222.4 -134.8 223.5 -134.15 L225.65 -132.8 227.0 -126.6 227.15 -125.95 230.8 -109.9 231.7 -104.85 232.3 -101.85 Q234.7 -92.05 236.55 -82.25 237.25 -78.5 236.95 -74.75 236.65 -70.6 232.75 -70.35 L230.7 -70.15 230.15 -69.65 225.35 -69.75 223.65 -69.75 206.2 -69.65 193.75 -70.0 191.05 -70.65 177.45 -74.25 167.05 -76.8 Q159.65 -78.55 152.2 -78.55 L131.8 -78.5 129.25 -77.95 123.5 -77.35 115.0 -76.75 113.0 -76.7 108.75 -76.3 108.15 -70.95 97.1 -70.25 94.75 -70.05 89.1 -69.0 85.7 -70.2 84.1 -70.55 57.1 -77.2 Q52.9 -78.2 48.6 -78.25 44.3 -78.55 40.0 -78.35 29.85 -78.0 20.0 -76.1 17.1 -75.65 14.45 -74.35 11.55 -73.1 9.35 -70.7 L9.4 -70.25 Q7.7 -70.1 6.0 -70.3 L4.9 -70.55 4.15 -70.85 Q3.85 -73.25 4.85 -76.3 L5.45 -78.25 Q10.0 -92.95 14.0 -107.9 L16.9 -118.75 Q18.15 -123.55 18.8 -128.55 L19.65 -133.45 24.3 -133.95 25.5 -134.15 47.7 -135.25 55.7 -135.85 88.5 -136.0 112.55 -136.25" fill="#006699" fill-rule="evenodd" stroke="none"/>
    </clipPath>
    <g clip-path="url(#clipPath0)">
      <filter id="filter0">
        <feConvolveMatrix divisor="100.0" in="SourceGraphic" kernelMatrix="1 1 1 1 1 1 1 1 1 1 1 1 1 1 1 1 1 1 1 1 1 1 1 1 1 1 1 1 1 1 1 1 1 1 1 1 1 1 1 1 1 1 1 1 1 1 1 1 1 1 1 1 1 1 1 1 1 1 1 1 1 1 1 1 1 1 1 1 1 1 1 1 1 1 1 1 1 1 1 1 1 1 1 1 1 1 1 1 1 1 1 1 1 1 1 1 1 1 1 1" order="10 10" result="filterResult0"/>
        <feConvolveMatrix divisor="100.0" in="filterResult0" kernelMatrix="1 1 1 1 1 1 1 1 1 1 1 1 1 1 1 1 1 1 1 1 1 1 1 1 1 1 1 1 1 1 1 1 1 1 1 1 1 1 1 1 1 1 1 1 1 1 1 1 1 1 1 1 1 1 1 1 1 1 1 1 1 1 1 1 1 1 1 1 1 1 1 1 1 1 1 1 1 1 1 1 1 1 1 1 1 1 1 1 1 1 1 1 1 1 1 1 1 1 1 1" order="10 10" result="filterResult1"/>
      </filter>
      <use ffdec:characterId="3767" filter="url(#filter0)" height="66.65" transform="matrix(1.0, 0.0, 0.0, 1.0, 3.55, -127.35)" width="231.25" xlink:href="#sprite0"/>
    </g>
    <use ffdec:characterId="3689" height="379.05" transform="matrix(1.0, 0.0, 0.0, 1.0, -249.95, -185.9)" width="657.35" xlink:href="#sprite3"/>
    <use ffdec:characterId="3684" height="528.05" style="mix-blend-mode: overlay" transform="matrix(1.0, 0.0, 0.0, 1.0, -267.7, -275.65)" width="726.2" xlink:href="#sprite4"/>
    <filter id="filter1">
      <feConvolveMatrix divisor="81.0" in="SourceGraphic" kernelMatrix="1 1 1 1 1 1 1 1 1 1 1 1 1 1 1 1 1 1 1 1 1 1 1 1 1 1 1 1 1 1 1 1 1 1 1 1 1 1 1 1 1 1 1 1 1 1 1 1 1 1 1 1 1 1 1 1 1 1 1 1 1 1 1 1 1 1 1 1 1 1 1 1 1 1 1 1 1 1 1 1 1" order="9 9" result="filterResult2"/>
      <feConvolveMatrix divisor="81.0" in="filterResult2" kernelMatrix="1 1 1 1 1 1 1 1 1 1 1 1 1 1 1 1 1 1 1 1 1 1 1 1 1 1 1 1 1 1 1 1 1 1 1 1 1 1 1 1 1 1 1 1 1 1 1 1 1 1 1 1 1 1 1 1 1 1 1 1 1 1 1 1 1 1 1 1 1 1 1 1 1 1 1 1 1 1 1 1 1" order="9 9" result="filterResult3"/>
    </filter>
    <use ffdec:characterId="3761" filter="url(#filter1)" height="23.95" transform="matrix(1.0, 0.0, 0.0, 1.0, -54.7, 26.0)" width="317.45" xlink:href="#sprite5"/>
    <use ffdec:characterId="3759" height="349.6" transform="matrix(1.0, 0.0, 0.0, 1.0, -196.8, -130.25)" width="349.6" xlink:href="#sprite6"/>
    <use ffdec:characterId="3759" height="349.6" transform="matrix(1.0, 0.0, 0.0, 1.0, 63.2, -130.25)" width="349.6" xlink:href="#sprite6"/>
    <use ffdec:characterId="3645" height="300.0" transform="matrix(0.9764, 0.0, 0.0, 0.9763, -138.8463, -155.0523)" width="533.0" xlink:href="#sprite7"/>
  </g>
  <defs>
    <g id="shape0" transform="matrix(1.0, 0.0, 0.0, 1.0, 221.85, 160.7)">
      <path d="M431.0 155.75 L-221.85 155.75 -221.85 -160.7 431.0 -160.7 431.0 155.75" fill="url(#gradient0)" fill-rule="evenodd" stroke="none"/>
      <path d="M9.35 -70.7 Q11.55 -73.1 14.45 -74.35 17.1 -75.65 20.0 -76.1 29.85 -78.0 40.0 -78.35 44.3 -78.55 48.6 -78.25 52.9 -78.2 57.1 -77.2 L84.1 -70.55 85.7 -70.2 89.1 -69.0 94.75 -70.05 97.1 -70.25 108.15 -70.95 108.75 -76.3 113.0 -76.7 115.0 -76.75 123.5 -77.35 129.25 -77.95 131.8 -78.5 152.2 -78.55 Q159.65 -78.55 167.05 -76.8 L177.45 -74.25 191.05 -70.65 193.75 -70.0 206.2 -69.65 223.65 -69.75 225.35 -69.75 230.15 -69.65 230.7 -70.15 232.75 -70.35 Q236.65 -70.6 236.95 -74.75 237.25 -78.5 236.55 -82.25 234.7 -92.05 232.3 -101.85 L231.7 -104.85 230.8 -109.9 227.15 -125.95 227.0 -126.6 225.65 -132.8 223.5 -134.15 Q222.4 -134.8 221.2 -134.7 L205.0 -136.05 204.85 -136.05 Q204.45 -136.1 204.5 -135.7 L199.75 -136.7 175.0 -136.35 171.35 -136.35 166.6 -136.55 142.35 -136.55 129.75 -137.05 112.55 -136.25 88.5 -136.0 55.7 -135.85 47.7 -135.25 25.5 -134.15 24.3 -133.95 19.65 -133.45 18.8 -128.55 Q18.15 -123.55 16.9 -118.75 L14.0 -107.9 Q10.0 -92.95 5.45 -78.25 L4.85 -76.3 Q3.85 -73.25 4.15 -70.85 L4.9 -70.55 6.0 -70.3 Q7.7 -70.1 9.4 -70.25 L9.75 -70.3 9.35 -70.7 M10.85 -70.25 L10.7 -70.45 10.35 -70.25 10.85 -70.25 M81.0 -146.4 L112.15 -147.1 Q127.05 -147.7 141.75 -147.45 L182.25 -145.95 186.15 -145.9 198.35 -145.5 204.1 -145.05 205.0 -144.95 Q210.4 -145.1 215.55 -143.8 220.75 -142.7 225.7 -140.9 L227.95 -139.9 Q230.3 -138.4 230.8 -135.75 231.1 -134.15 231.85 -132.9 L233.0 -130.2 Q233.55 -134.1 237.85 -135.2 241.7 -136.15 244.25 -133.05 247.75 -128.7 246.4 -123.35 244.95 -117.8 239.2 -118.35 237.8 -118.4 236.6 -119.0 238.45 -110.05 239.9 -101.35 241.15 -93.6 242.9 -85.75 244.75 -77.3 247.0 -69.1 L247.6 -69.35 250.7 -66.5 Q255.15 -67.25 256.75 -71.9 L254.6 -75.1 Q254.3 -75.55 254.5 -76.25 L256.5 -83.95 257.15 -84.6 258.2 -84.7 259.25 -85.55 267.1 -85.0 267.2 -84.05 Q269.85 -79.25 267.75 -73.85 L265.4 -68.9 Q262.25 -63.3 257.8 -58.35 256.0 -56.35 253.75 -54.6 255.8 -50.6 258.15 -46.95 259.8 -44.5 261.85 -42.55 L264.2 -39.7 Q270.1 -31.1 275.45 -22.05 279.35 -15.55 283.7 -9.35 287.3 -4.25 287.85 2.0 288.15 5.1 289.35 7.8 290.85 11.15 290.4 14.85 L290.4 16.55 290.35 16.7 290.15 16.4 288.75 21.4 Q287.75 24.4 287.85 27.65 288.5 45.25 288.3 62.85 290.55 66.15 294.6 65.6 299.15 65.55 299.05 69.85 298.9 75.35 296.5 80.2 295.7 81.85 294.5 83.25 292.4 85.6 291.45 88.6 289.05 96.2 283.4 101.95 283.85 111.85 282.6 121.55 281.45 130.25 277.45 138.0 275.95 140.85 273.35 142.7 L269.3 145.0 Q267.85 145.7 266.2 146.05 261.0 147.15 255.8 145.2 254.2 144.5 252.35 144.6 247.65 144.75 243.45 143.15 239.8 141.85 236.8 139.1 235.2 137.6 234.05 135.75 231.6 131.85 230.7 127.3 L229.55 121.3 227.95 111.6 227.75 110.15 Q217.2 108.8 206.65 109.55 L198.05 110.0 Q168.05 110.0 137.9 110.3 L137.5 115.95 Q127.65 115.75 117.8 115.9 L107.65 115.95 84.6 115.75 Q80.25 115.7 76.2 114.65 75.05 114.3 74.05 113.55 L69.4 110.25 Q66.0 111.0 62.4 110.15 L59.05 109.95 47.5 109.15 19.6 108.05 1.25 106.8 0.35 106.65 Q1.9 113.5 0.55 120.25 -0.25 124.4 -2.7 127.7 -6.3 132.65 -12.3 134.5 -15.4 135.5 -18.65 135.65 L-33.5 136.75 Q-37.45 136.8 -40.1 133.75 L-43.2 130.2 Q-47.6 125.05 -48.55 118.3 L-49.75 111.05 Q-50.4 107.8 -51.25 105.75 L-51.45 105.85 -51.15 105.2 Q-51.7 103.85 -54.05 103.5 -59.25 102.65 -64.25 101.0 -65.9 100.35 -66.45 98.75 L-68.75 92.4 Q-70.1 88.9 -71.05 85.1 -71.25 84.3 -70.85 83.65 -72.75 81.0 -75.7 79.2 -77.95 77.85 -78.3 75.2 -79.0 70.45 -77.0 66.15 -76.65 65.3 -75.8 64.75 -73.1 63.2 -69.9 63.35 -71.5 58.2 -71.9 52.7 L-72.3 46.75 -72.85 37.4 Q-73.55 26.2 -73.2 15.0 L-73.4 14.95 -73.55 14.85 -73.6 14.4 -73.1 12.45 -72.4 1.35 Q-72.1 -1.8 -70.4 -4.6 -64.3 -14.85 -54.3 -21.65 -50.9 -24.0 -48.1 -26.6 L-36.6 -36.9 Q-31.15 -41.55 -25.0 -45.3 -22.85 -46.7 -21.05 -48.55 L-21.1 -48.95 -20.65 -49.0 -17.15 -52.85 Q-14.9 -55.45 -11.7 -56.85 -15.8 -60.45 -19.0 -64.85 L-23.1 -70.85 -23.8 -71.55 Q-26.2 -73.1 -26.45 -76.0 -26.7 -78.65 -26.55 -81.35 -26.45 -83.0 -25.55 -84.15 L-15.6 -84.45 Q-13.45 -80.1 -13.75 -75.15 -13.8 -74.05 -14.9 -73.55 L-16.75 -72.8 Q-14.35 -66.4 -9.0 -62.15 -7.75 -65.5 -5.45 -68.5 -4.85 -69.3 -4.7 -70.45 L-4.5 -72.7 -4.65 -136.7 Q-2.95 -136.25 -3.1 -134.5 L-3.35 -131.55 -3.5 -75.4 8.85 -118.55 Q4.55 -116.85 0.95 -120.15 -0.75 -121.7 -0.5 -124.1 0.1 -130.7 6.65 -131.45 9.75 -131.45 11.0 -128.65 11.25 -134.6 13.75 -139.8 14.0 -140.3 14.6 -140.65 16.1 -142.2 18.45 -142.2 L33.2 -143.2 37.45 -143.5 67.5 -144.75 76.05 -145.85 81.0 -146.4 M18.3 -40.9 Q15.8 -42.45 12.0 -45.95 L4.95 -52.4 Q1.4 -55.35 -0.75 -55.35 -2.6 -55.35 -7.6 -53.45 L-12.65 -51.3 Q-14.95 -49.15 -16.5 -48.7 L-18.1 -48.35 -19.65 -47.85 -20.15 -47.25 -20.2 -46.9 Q-20.4 -46.6 -21.05 -46.45 L-21.15 -46.4 Q-29.45 -40.9 -37.25 -34.8 L-39.0 -33.25 -49.15 -24.2 -54.4 -19.8 -59.65 -15.45 -62.45 -12.9 -67.0 -7.6 Q-68.2 -6.15 -69.0 -4.45 L-69.15 -4.1 -68.9 -4.25 Q-66.7 -6.1 -62.6 -8.3 -62.45 -8.35 -59.95 -9.75 -58.25 -10.65 -56.75 -11.2 L-53.35 -11.3 Q-49.8 -11.5 -46.75 -12.45 -44.5 -13.2 -41.7 -13.1 L-34.45 -12.85 Q-30.25 -12.85 -29.3 -15.7 -27.75 -20.4 -26.25 -21.85 L-26.15 -21.6 -26.05 -21.75 -25.75 -22.2 -24.5 -23.05 -2.7 -23.0 113.25 -23.1 117.7 -22.95 119.0 -23.05 226.45 -22.95 238.5 -22.8 241.4 -23.0 Q244.3 -22.75 245.5 -21.2 246.4 -20.3 248.25 -16.95 249.0 -15.55 250.2 -14.9 251.4 -14.25 254.5 -13.45 256.65 -12.9 258.45 -12.15 261.0 -11.45 270.0 -10.6 273.15 -10.3 277.55 -7.5 L282.25 -3.95 Q283.65 -2.65 285.15 -0.05 286.75 2.75 286.75 4.3 L287.25 4.2 286.5 0.45 286.05 -1.15 285.15 -3.65 284.05 -6.05 Q280.65 -12.55 276.35 -18.6 274.05 -21.85 271.85 -25.45 267.3 -33.0 262.2 -40.05 260.95 -40.25 259.9 -41.3 L257.6 -43.3 256.15 -44.15 254.6 -45.3 Q252.75 -46.4 252.15 -47.3 L249.4 -52.05 Q247.0 -55.85 245.75 -55.85 240.9 -55.85 237.5 -52.65 233.9 -48.45 231.25 -46.45 229.15 -44.85 226.0 -41.2 L222.1 -37.25 Q222.05 -35.95 221.5 -35.95 L213.0 -36.2 208.0 -36.5 199.5 -36.85 183.85 -37.0 172.0 -37.2 163.35 -37.85 146.75 -38.2 141.0 -37.7 130.45 -37.9 120.25 -38.2 117.3 -38.25 114.25 -38.45 113.8 -38.55 113.15 -37.6 Q112.1 -36.35 111.5 -35.2 L110.15 -33.3 109.0 -31.8 Q107.25 -31.8 107.25 -34.6 L107.75 -38.95 106.75 -39.2 105.15 -39.05 104.4 -38.9 104.55 -39.45 104.0 -39.45 103.9 -40.95 Q103.9 -42.55 104.9 -46.7 L106.25 -51.7 102.35 -44.25 Q99.75 -39.2 99.25 -39.2 L97.55 -39.5 97.5 -39.3 96.7 -39.25 Q94.05 -39.05 84.65 -39.05 L82.4 -38.85 80.25 -38.55 74.25 -38.2 64.7 -37.8 54.0 -37.35 50.25 -36.7 35.8 -36.1 32.5 -35.95 25.1 -36.45 Q24.8 -36.5 24.55 -37.0 24.35 -37.4 24.3 -37.9 20.3 -39.65 18.3 -40.9 M287.9 10.05 L285.35 7.55 Q282.1 4.05 274.65 4.05 L269.5 4.55 127.0 4.05 Q126.95 4.25 126.9 4.0 90.65 4.55 -50.0 3.95 L-57.15 4.05 -59.1 4.2 -63.4 5.3 Q-66.65 6.45 -68.0 7.8 -70.4 10.0 -71.5 11.95 L-71.5 12.4 -69.7 10.8 -67.0 9.05 -63.25 7.85 Q-60.1 6.95 -58.75 6.95 -57.85 6.95 -57.5 7.3 L117.25 7.4 118.85 7.2 119.85 7.4 277.5 7.4 281.4 8.15 285.0 8.7 Q286.0 8.9 287.4 10.15 L289.4 12.55 289.3 11.5 287.9 10.05 M271.75 24.2 L271.05 23.15 Q270.45 22.6 268.4 21.8 L223.0 21.7 211.6 21.8 211.25 22.05 Q210.55 22.4 209.25 23.4 206.2 25.85 205.85 28.8 205.35 32.35 205.75 39.7 L205.75 47.8 Q205.75 48.7 206.3 49.8 206.9 50.95 207.75 51.55 L211.45 54.35 215.75 54.65 Q268.6 54.45 269.25 54.2 L270.3 53.7 270.85 53.3 271.7 52.05 272.15 50.8 273.1 48.2 273.4 45.95 Q273.6 38.65 273.35 35.05 L273.5 29.65 Q273.45 26.3 271.75 24.2 M2.15 36.8 L2.0 33.45 Q1.65 31.5 0.65 29.9 -1.05 27.15 -3.05 25.4 -4.65 23.95 -5.9 23.7 L-6.25 23.9 -53.75 24.05 -55.55 24.4 -56.75 24.9 Q-59.7 25.85 -60.1 26.55 -60.8 27.7 -61.05 29.05 L-61.4 31.15 -61.4 31.2 -61.5 33.9 -61.5 40.25 -61.55 44.3 -61.6 46.75 Q-60.95 47.55 -60.85 49.15 -60.65 51.35 -59.9 52.3 L-57.4 55.3 Q-56.65 56.05 -54.45 56.3 -52.35 56.5 -51.55 57.05 L-48.4 56.85 -10.0 56.9 -7.1 56.95 Q-4.95 56.8 -3.25 55.9 -2.2 55.4 -0.35 53.55 0.85 52.4 1.55 50.45 L2.2 48.7 Q2.05 47.95 2.05 47.05 L2.15 43.55 2.15 36.8 M-61.95 27.65 L-61.9 27.6 -62.0 27.55 -61.95 27.65" fill="#000000" fill-rule="evenodd" stroke="none"/>
      <path d="M9.4 -70.25 Q7.7 -70.1 6.0 -70.3 L4.9 -70.55 4.15 -70.85 Q3.85 -73.25 4.85 -76.3 L5.45 -78.25 Q10.0 -92.95 14.0 -107.9 L16.9 -118.75 Q18.15 -123.55 18.8 -128.55 L19.65 -133.45 24.3 -133.95 25.5 -134.15 47.7 -135.25 55.7 -135.85 88.5 -136.0 112.55 -136.25 129.75 -137.05 142.35 -136.55 166.6 -136.55 171.35 -136.35 175.0 -136.35 199.75 -136.7 204.5 -135.7 Q204.45 -136.1 204.85 -136.05 L205.0 -136.05 221.2 -134.7 Q222.4 -134.8 223.5 -134.15 L225.65 -132.8 227.0 -126.6 227.15 -125.95 230.8 -109.9 231.7 -104.85 232.3 -101.85 Q234.7 -92.05 236.55 -82.25 237.25 -78.5 236.95 -74.75 236.65 -70.6 232.75 -70.35 L230.7 -70.15 230.15 -69.65 225.35 -69.75 223.65 -69.75 206.2 -69.65 193.75 -70.0 191.05 -70.65 177.45 -74.25 167.05 -76.8 Q159.65 -78.55 152.2 -78.55 L131.8 -78.5 129.25 -77.95 123.5 -77.35 115.0 -76.75 113.0 -76.7 108.75 -76.3 108.15 -70.95 97.1 -70.25 94.75 -70.05 89.1 -69.0 85.7 -70.2 84.1 -70.55 57.1 -77.2 Q52.9 -78.2 48.6 -78.25 44.3 -78.55 40.0 -78.35 29.85 -78.0 20.0 -76.1 17.1 -75.65 14.45 -74.35 11.55 -73.1 9.35 -70.7 L9.4 -70.25" fill="#0d0d0d" fill-rule="evenodd" stroke="none"/>
    </g>
    <linearGradient gradientTransform="matrix(0.0, -0.2523, 0.1931, 0.0, 104.5, -2.45)" gradientUnits="userSpaceOnUse" id="gradient0" spreadMethod="pad" x1="-819.2" x2="819.2">
      <stop offset="0.0" stop-color="#000000"/>
      <stop offset="1.0" stop-color="#3a293d"/>
    </linearGradient>
    <g id="sprite0" transform="matrix(1.0, 0.0, 0.0, 1.0, 0.45, 2.65)">
      <use ffdec:characterId="3766" height="61.25" transform="matrix(1.0, 0.0, 0.0, 1.0, 151.9, 0.0)" width="74.7" xlink:href="#sprite1"/>
      <use ffdec:characterId="3764" height="59.6" transform="matrix(1.0, 0.0, 0.0, 1.0, 0.0, 1.9)" width="75.75" xlink:href="#sprite2"/>
    </g>
    <g id="sprite1" transform="matrix(1.0, 0.0, 0.0, 1.0, 0.0, 0.0)">
      <use ffdec:characterId="3765" height="61.25" transform="matrix(1.0, 0.0, 0.0, 1.0, 0.0, 0.0)" width="74.7" xlink:href="#shape2"/>
    </g>
    <g id="shape2" transform="matrix(1.0, 0.0, 0.0, 1.0, 0.0, 0.0)">
      <path d="M55.5 42.55 Q62.35 42.75 64.6 43.8 L64.6 43.85 61.15 43.55 Q62.6 43.8 64.65 45.15 L68.5 48.0 68.4 47.7 Q68.4 47.45 68.7 47.25 70.55 48.5 71.9 50.05 73.4 51.65 73.65 52.8 L73.95 55.6 Q74.05 57.3 74.65 58.5 74.8 58.7 74.3 58.7 L74.2 58.7 74.15 58.75 Q74.0 58.95 73.5 58.95 L62.3 58.45 57.7 58.95 51.95 59.45 48.5 59.95 44.15 60.05 41.3 60.0 36.0 60.3 28.1 60.55 17.25 60.05 15.15 59.55 9.85 59.75 Q9.95 60.05 8.9 60.2 L3.6 60.3 3.3 60.6 1.7 60.85 1.15 60.8 0.85 61.25 0.4 61.2 0.45 60.85 Q0.0 60.4 0.0 59.3 L0.25 58.2 0.2 57.7 0.6 55.8 1.2 53.95 Q1.5 52.6 2.2 52.0 2.55 51.7 4.45 51.1 L7.15 50.3 7.05 50.2 7.0 49.85 Q7.0 49.3 13.35 46.95 20.7 44.25 22.9 42.8 L22.3 42.95 22.25 42.65 23.2 41.95 Q24.3 41.1 24.75 39.7 L25.55 38.2 25.1 38.0 Q23.65 36.8 22.55 34.85 L21.3 31.75 Q20.2 29.2 19.7 29.2 19.25 29.2 19.1 27.65 L18.85 25.2 18.85 22.55 19.05 22.55 Q18.6 21.5 18.3 20.3 L16.95 14.9 16.9 14.9 17.45 19.15 Q17.85 21.65 18.6 23.4 L18.6 23.45 Q17.55 22.6 16.95 19.5 16.5 17.15 16.5 15.05 L16.55 14.25 16.9 13.95 17.35 15.1 17.1 12.65 Q16.1 12.45 16.1 11.55 16.1 10.8 16.5 10.05 L17.05 8.45 17.95 6.0 19.8 3.35 Q21.1 1.7 22.8 1.0 28.05 -1.2 35.25 1.4 39.9 3.05 41.35 4.85 43.85 5.9 43.85 7.25 43.85 7.8 42.1 8.9 L42.6 9.4 42.75 8.95 43.15 8.95 43.65 12.75 44.0 16.8 44.0 17.7 44.6 17.7 44.65 19.05 Q44.65 22.7 43.65 28.5 L42.7 32.8 43.0 33.0 43.05 33.3 43.2 33.2 43.1 33.5 43.15 34.25 Q43.3 35.1 43.6 35.55 L44.6 37.45 Q47.65 40.2 53.8 42.45 L55.5 42.55 M57.25 43.7 Q63.4 45.85 66.5 47.4 65.4 46.6 63.8 45.7 L60.1 43.75 60.05 43.55 57.55 43.65 57.25 43.7 M40.8 5.95 L40.2 5.45 40.75 6.0 40.8 5.95 M43.05 7.1 L41.95 6.15 41.95 6.45 Q42.05 7.05 41.3 7.1 L41.8 8.3 43.05 7.1 M32.9 1.75 L28.2 1.85 27.95 2.15 29.9 2.55 32.3 2.8 33.95 2.6 32.9 1.75 M17.3 11.4 L17.2 11.1 17.0 11.4 16.5 11.8 16.45 11.8 17.05 12.3 17.05 12.2 17.1 11.6 17.3 11.4 M17.85 14.6 L17.85 14.65 18.0 13.6 17.7 13.0 17.85 14.6 M17.5 15.8 L17.9 17.35 17.5 15.75 17.5 15.8 M18.7 17.55 L18.85 19.4 19.55 22.6 19.6 22.65 19.95 21.05 19.9 21.0 Q18.95 19.35 18.8 18.1 L18.7 17.55 M25.25 33.5 L26.15 34.4 27.2 35.2 25.2 33.45 25.25 33.5 M24.0 34.35 Q24.35 35.25 26.0 36.6 L26.4 36.9 26.3 36.4 26.4 36.0 26.5 35.95 23.95 34.3 24.0 34.35 M29.2 38.55 L29.5 39.2 29.55 38.05 29.4 38.15 29.2 38.55 M28.6 38.6 L28.7 37.85 27.45 36.75 28.2 37.7 28.25 38.35 28.6 38.6 M28.6 40.1 L29.35 41.3 29.45 40.4 28.85 40.0 28.2 39.2 28.6 40.1 M27.45 37.75 L27.3 37.5 26.7 36.75 27.1 37.5 27.45 37.75 M26.95 37.9 L26.85 37.75 26.5 37.55 26.5 37.6 26.45 38.05 26.6 38.15 26.85 38.15 27.1 38.1 26.95 37.9 M26.7 38.55 Q26.05 39.7 26.05 40.15 L26.05 40.25 26.35 40.05 27.6 38.9 26.7 38.55 M41.8 35.45 L41.8 35.25 41.75 35.3 41.8 35.45 M42.7 36.2 L42.8 37.35 42.8 37.4 43.0 37.65 43.0 37.4 42.9 36.45 42.7 36.2 M42.5 34.95 L42.7 35.25 42.45 34.45 42.45 34.5 42.5 34.95 M39.35 38.55 L39.4 38.55 39.4 37.45 Q39.2 37.6 39.05 38.8 L39.35 38.55 M47.6 40.45 L46.65 40.65 46.25 40.6 Q48.0 41.45 50.2 41.95 L47.6 40.45 M44.0 39.0 Q44.6 39.7 45.2 40.05 L45.4 40.15 44.8 39.5 44.15 38.25 44.0 39.0 M45.4 39.45 Q45.95 40.1 47.2 40.2 L45.05 38.55 45.4 39.45" fill="#000000" fill-rule="evenodd" stroke="none"/>
    </g>
    <g id="sprite2" transform="matrix(1.0, 0.0, 0.0, 1.0, 0.0, 0.0)">
      <use ffdec:characterId="3763" height="59.6" transform="matrix(1.0, 0.0, 0.0, 1.0, 0.0, 0.0)" width="75.75" xlink:href="#shape3"/>
    </g>
    <g id="shape3" transform="matrix(1.0, 0.0, 0.0, 1.0, 0.0, 0.0)">
      <path d="M61.4 0.85 L62.55 1.25 62.2 1.05 61.4 0.85 M62.9 0.5 L64.25 2.15 Q67.7 5.0 67.7 5.45 L67.35 5.9 66.75 6.15 66.35 6.15 Q67.9 7.1 68.7 8.1 69.8 9.4 69.8 11.35 69.8 12.9 67.85 24.65 L67.85 24.75 Q67.85 25.75 66.6 27.6 L64.8 30.0 63.1 32.3 63.8 31.05 62.35 33.25 60.85 36.0 60.55 35.55 59.45 37.6 58.45 38.05 Q57.6 38.3 57.5 38.45 57.5 39.0 57.0 39.3 56.55 38.9 56.85 38.6 55.6 38.9 52.1 37.45 L51.85 38.5 51.75 39.4 56.4 41.25 62.15 41.75 64.7 43.05 64.35 43.5 61.6 43.75 66.2 44.6 66.45 44.6 66.3 44.25 66.35 43.95 66.6 43.95 Q67.0 44.3 67.75 44.65 L67.45 44.4 Q68.3 44.45 69.25 45.2 L69.9 45.4 Q71.75 45.95 71.75 47.1 L71.6 47.55 71.45 47.7 71.85 48.2 72.95 49.15 Q73.4 49.4 73.5 50.0 L73.9 52.15 73.9 52.3 74.1 52.65 73.8 52.5 73.75 52.55 75.05 57.45 75.4 57.6 75.75 57.95 75.35 58.35 75.1 58.4 75.1 59.0 74.95 59.15 74.5 59.1 74.4 58.45 71.8 58.75 Q71.15 58.8 70.65 59.35 L68.05 59.25 65.45 59.55 66.1 59.6 54.3 58.95 41.6 58.25 39.2 58.5 29.45 58.8 8.85 57.8 0.75 57.3 0.25 57.3 0.15 57.05 0.05 56.95 0.0 56.6 0.3 55.75 0.55 54.25 Q0.8 52.8 1.45 52.2 L1.25 53.3 2.25 50.9 3.35 48.55 2.85 48.65 2.5 48.35 Q4.65 45.25 8.7 43.1 L10.25 42.4 10.45 42.2 13.1 40.3 12.1 40.1 14.95 39.3 16.0 39.05 16.75 38.9 18.4 38.4 24.35 38.05 25.55 37.45 26.1 37.0 Q26.65 35.85 28.45 35.45 L32.05 34.85 Q34.15 34.4 35.55 33.2 L36.7 32.0 37.5 29.1 37.8 28.95 38.2 29.6 38.8 27.5 Q39.15 25.8 39.65 24.85 L39.65 23.95 39.6 23.35 38.75 25.35 38.4 25.3 38.3 24.9 39.3 21.6 40.9 15.7 Q41.2 14.2 42.4 11.05 L42.55 10.65 42.45 10.8 Q40.4 15.25 39.3 16.8 L40.35 14.35 Q40.9 13.2 40.9 12.05 40.9 11.65 41.55 10.45 L42.35 9.15 42.5 9.0 40.55 9.55 40.05 9.4 42.25 8.0 44.25 6.55 45.5 5.15 Q46.45 4.2 47.45 3.8 L51.2 2.0 54.1 1.45 53.95 0.7 Q54.0 0.2 54.9 0.2 L58.2 0.7 Q59.6 0.7 61.4 0.1 62.4 -0.25 62.9 0.5 M61.05 1.4 Q60.3 1.4 60.3 2.5 L60.35 3.15 60.4 3.35 63.1 4.55 63.9 4.9 63.7 3.65 63.3 2.3 Q63.05 1.95 62.15 1.65 L61.05 1.4 M64.3 3.1 Q64.45 5.5 65.75 5.5 L66.9 5.3 65.4 3.9 Q64.55 3.05 64.3 3.1 M55.7 2.2 L53.8 2.45 56.25 2.3 55.7 2.2 M58.05 2.5 L59.0 2.75 59.8 3.1 59.8 1.45 57.15 1.1 54.75 0.9 54.7 1.5 Q56.6 1.7 57.9 2.4 L58.05 2.5 M51.55 2.85 L53.0 2.55 Q53.45 2.25 53.15 2.2 51.15 2.4 50.55 2.9 L50.65 3.1 51.55 2.85 M45.25 7.3 L46.8 6.3 46.75 5.9 46.8 5.55 45.25 7.2 45.25 7.3 M43.85 8.0 L44.0 7.75 43.6 7.9 43.85 8.0 M49.2 4.45 Q47.9 5.1 47.5 5.85 L49.9 4.25 49.6 4.3 49.2 4.45 M41.5 16.05 L43.1 11.2 Q41.8 13.8 41.5 16.05 M50.5 35.95 L51.3 36.15 50.55 35.9 50.5 35.95 M58.7 36.35 Q57.9 37.1 57.85 37.55 L57.85 37.7 Q58.85 37.4 59.35 36.55 L59.85 35.5 58.7 36.35 M57.5 36.8 Q54.4 37.05 52.95 36.8 L52.4 36.6 52.35 36.75 53.35 37.2 55.35 37.9 Q56.9 37.9 57.1 37.5 L57.5 36.8 M57.55 42.05 L59.35 42.75 61.1 43.15 63.75 43.1 61.85 42.3 57.45 42.0 57.55 42.05 M69.25 46.25 L69.4 46.35 69.3 46.25 69.2 46.2 69.25 46.25 M38.8 30.0 L38.1 31.35 38.05 31.5 37.8 32.35 Q38.3 31.75 38.8 30.0 M35.95 34.65 L36.25 33.5 Q34.7 34.8 32.35 35.55 L34.6 35.15 35.8 35.2 35.95 34.65 M27.65 36.45 L27.1 36.7 28.85 36.3 27.65 36.45 M32.75 36.15 L31.1 36.5 33.0 36.15 32.75 36.15" fill="#000000" fill-rule="evenodd" stroke="none"/>
    </g>
    <g id="sprite3" transform="matrix(1.0, 0.0, 0.0, 1.0, 0.0, 0.0)">
      <use ffdec:characterId="3549" height="379.05" transform="matrix(1.0, 0.0, 0.0, 1.0, 0.0, 0.0)" width="657.35" xlink:href="#shape4"/>
    </g>
    <g id="shape4" transform="matrix(1.0, 0.0, 0.0, 1.0, 0.0, 0.0)">
      <path d="M657.35 379.05 L0.0 379.05 0.0 0.0 657.35 0.0 657.35 379.05" fill="url(#gradient1)" fill-rule="evenodd" stroke="none"/>
    </g>
    <linearGradient gradientTransform="matrix(-0.4492, -0.3248, 0.1353, -0.1871, 328.7, 189.5)" gradientUnits="userSpaceOnUse" id="gradient1" spreadMethod="pad" x1="-819.2" x2="819.2">
      <stop offset="0.0" stop-color="#dea900" stop-opacity="0.4"/>
      <stop offset="1.0" stop-color="#de8400" stop-opacity="0.0"/>
    </linearGradient>
    <g id="sprite4" transform="matrix(1.0, 0.0, 0.0, 1.0, 43.55, 67.85)">
      <use ffdec:characterId="3683" height="528.05" transform="matrix(1.0, 0.0, 0.0, 1.0, -43.55, -67.85)" width="726.2" xlink:href="#shape5"/>
    </g>
    <g id="shape5" transform="matrix(1.0, 0.0, 0.0, 1.0, 43.55, 67.85)">
      <path d="M682.65 460.2 L-43.55 460.2 -43.55 -67.85 682.65 -67.85 682.65 460.2" fill="url(#gradient2)" fill-rule="evenodd" stroke="none"/>
    </g>
    <linearGradient gradientTransform="matrix(0.0, -0.3223, 0.4432, 0.0, 319.55, 196.2)" gradientUnits="userSpaceOnUse" id="gradient2" spreadMethod="pad" x1="-819.2" x2="819.2">
      <stop offset="0.0" stop-color="#00005e"/>
      <stop offset="1.0" stop-color="#ee7700"/>
    </linearGradient>
    <g id="sprite5" transform="matrix(1.0, 0.0, 0.0, 1.0, -40.15, -70.75)">
      <use ffdec:characterId="3760" height="23.95" transform="matrix(1.0, 0.0, 0.0, 1.0, 40.15, 70.75)" width="317.45" xlink:href="#shape6"/>
    </g>
    <g id="shape6" transform="matrix(1.0, 0.0, 0.0, 1.0, -40.15, -70.75)">
      <path d="M319.15 77.45 Q316.5 77.25 314.75 78.8 312.75 80.6 312.75 84.15 312.75 85.95 314.95 88.05 317.3 90.3 319.85 90.3 321.55 90.3 323.5 88.1 325.5 85.85 325.5 83.5 325.5 81.05 323.5 79.3 321.65 77.65 319.15 77.45 M325.4 77.35 L327.15 79.95 327.6 84.55 327.4 86.95 Q327.1 88.15 326.15 89.35 L325.2 90.6 323.5 91.6 319.2 92.65 316.4 93.2 Q312.4 91.5 311.75 90.8 311.4 89.35 310.7 88.35 310.15 87.6 310.15 86.6 310.15 83.05 310.45 81.55 311.05 78.8 313.15 76.45 313.7 75.85 314.65 75.15 315.75 74.35 316.5 74.1 L320.35 74.35 321.1 74.6 322.4 75.45 Q324.6 76.5 325.4 77.35 M341.65 77.65 Q341.0 79.05 341.0 82.0 341.0 84.2 341.5 86.05 341.65 86.65 343.65 88.1 L344.55 89.3 Q345.6 90.05 349.5 90.05 350.5 90.05 351.75 88.8 352.9 87.65 353.35 86.7 L354.0 84.7 354.35 82.5 Q354.35 77.15 348.25 75.35 343.25 74.2 341.65 77.65 M344.8 71.25 L349.25 71.35 Q354.0 73.3 356.05 77.4 357.6 80.4 357.6 84.3 357.6 86.8 356.15 89.4 353.75 93.7 348.5 93.7 342.4 93.7 339.75 88.45 338.9 86.8 338.5 84.75 L338.25 82.85 338.45 79.55 Q338.8 77.65 339.75 76.3 L340.9 74.65 Q341.65 73.65 342.6 72.95 343.35 72.65 344.8 71.25 M83.1 76.15 L84.6 77.45 Q86.7 79.8 87.3 82.55 87.6 84.05 87.6 87.6 87.6 88.6 87.05 89.35 86.35 90.35 86.0 91.8 85.35 92.5 81.35 94.2 L78.55 93.65 74.25 92.6 Q73.2 92.3 72.55 91.6 L71.6 90.35 Q70.65 89.15 70.35 87.95 L70.15 85.55 70.6 80.95 Q70.6 80.8 72.35 78.35 73.15 77.5 75.35 76.45 L76.65 75.6 77.4 75.35 81.25 75.1 83.1 76.15 M83.0 79.8 Q81.25 78.25 78.6 78.45 76.1 78.65 74.25 80.3 72.25 82.05 72.25 84.5 72.25 86.85 74.25 89.1 76.2 91.3 77.9 91.3 80.45 91.3 82.8 89.05 85.0 86.95 85.0 85.15 85.0 81.6 83.0 79.8 M52.95 72.25 L55.15 73.95 56.85 75.65 58.0 77.3 Q58.95 78.65 59.3 80.55 L59.5 83.85 59.25 85.75 Q58.85 87.8 58.0 89.45 55.35 94.7 49.25 94.7 44.0 94.7 41.6 90.4 40.15 87.8 40.15 85.3 40.15 81.4 41.7 78.4 43.75 74.3 48.5 72.35 L52.95 72.25 M56.1 78.65 Q54.5 75.2 49.5 76.35 43.4 78.15 43.4 83.5 43.4 84.2 43.75 85.7 L44.4 87.7 Q44.85 88.65 46.0 89.8 47.25 91.05 48.25 91.05 52.15 91.05 53.2 90.3 53.7 89.4 54.1 89.1 56.1 87.65 56.25 87.05 56.75 85.2 56.75 83.0 56.75 80.05 56.1 78.65" fill="#ffffff" fill-rule="evenodd" stroke="none"/>
    </g>
    <g id="sprite6" transform="matrix(1.0, 0.0, 0.0, 1.0, 3.0, 3.0)">
      <use ffdec:characterId="3754" height="343.6" transform="matrix(1.0, 0.0, 0.0, 1.0, 0.0, 0.0)" width="343.6" xlink:href="#shape7"/>
    </g>
    <g id="shape7" transform="matrix(1.0, 0.0, 0.0, 1.0, 0.0, 0.0)">
      <path d="M171.8 0.0 Q242.95 0.0 293.25 50.25 343.6 100.6 343.6 171.8 343.6 242.95 293.25 293.2 242.95 343.6 171.8 343.6 100.65 343.6 50.25 293.2 0.0 242.95 0.0 171.8 0.0 100.6 50.25 50.25 100.65 0.0 171.8 0.0" fill="url(#gradient3)" fill-rule="evenodd" stroke="none"/>
    </g>
    <radialGradient cx="0" cy="0" gradientTransform="matrix(0.2119, 0.0, 0.0, 0.2119, 171.8, 171.8)" gradientUnits="userSpaceOnUse" id="gradient3" r="819.2" spreadMethod="pad">
      <stop offset="0.0" stop-color="#ffffff"/>
      <stop offset="1.0" stop-color="#ffffff" stop-opacity="0.0"/>
    </radialGradient>
    <g id="sprite7" transform="matrix(1.0, 0.0, 0.0, 1.0, 265.1, 150.0)">
      <use ffdec:characterId="3477" height="300.0" transform="matrix(1.0, 0.0, 0.0, 1.0, -265.1, -150.0)" width="533.0" xlink:href="#shape8"/>
    </g>
    <g id="shape8" transform="matrix(1.0, 0.0, 0.0, 1.0, 265.1, 150.0)">
      <path d="M267.9 -150.0 L267.9 150.0 -265.1 150.0 -265.1 -150.0 267.9 -150.0 Z" fill="none" stroke="#ff0000" stroke-linecap="round" stroke-linejoin="round" stroke-width="0.05"/>
      <path d="M1.4 -16.05 L1.45 -16.05 Q9.35 -16.05 14.95 -11.35 20.55 -6.65 20.55 0.0 L39.5 0.0 M20.55 0.0 Q20.55 6.65 14.95 11.35 9.35 16.05 1.45 16.05 L1.4 16.05 1.4 21.45 M-36.65 0.0 L-17.55 0.0 -17.55 -0.05 Q-17.55 -6.65 -11.95 -11.35 -6.4 -16.05 1.4 -16.05 M1.4 16.05 Q-6.4 16.05 -11.95 11.35 -17.55 6.65 -17.55 0.0" fill="none" stroke="#ff0000" stroke-linecap="round" stroke-linejoin="round" stroke-opacity="0.2509804" stroke-width="0.05"/>
      <path d="M1.4 -16.05 L1.4 -21.4" fill="none" stroke="#ff0000" stroke-linecap="round" stroke-linejoin="round" stroke-opacity="0.2509804" stroke-width="1.0"/>
      <path d="M181.15 141.4 L181.15 123.6 191.05 123.6 191.05 141.4 181.15 141.4" fill="#ffffff" fill-rule="evenodd" stroke="none"/>
      <path d="M250.55 123.6 L260.45 123.6 260.45 141.4 260.35 141.4 250.55 141.4 250.55 123.6" fill="#000000" fill-rule="evenodd" stroke="none"/>
      <path d="M230.7 123.6 L240.6 123.6 240.6 141.4 230.7 141.4 230.7 123.6" fill="#ff0000" fill-rule="evenodd" stroke="none"/>
      <path d="M191.05 123.6 L201.0 123.6 201.0 141.4 191.05 141.4 191.05 123.6" fill="#ffff00" fill-rule="evenodd" stroke="none"/>
      <path d="M201.0 123.6 L210.9 123.6 210.9 141.4 201.0 141.4 201.0 123.6" fill="#00ffff" fill-rule="evenodd" stroke="none"/>
      <path d="M210.9 123.6 L220.8 123.6 220.8 141.4 210.9 141.4 210.9 123.6" fill="#00ff00" fill-rule="evenodd" stroke="none"/>
      <path d="M220.8 123.6 L230.7 123.6 230.7 141.4 220.8 141.4 220.8 123.6" fill="#ff00ff" fill-rule="evenodd" stroke="none"/>
      <path d="M240.6 123.6 L250.55 123.6 250.55 141.4 240.6 141.4 240.6 123.6" fill="#0000ff" fill-rule="evenodd" stroke="none"/>
      <path d="M260.35 141.4 L260.35 145.4 181.1 145.4 181.1 141.4 181.15 141.4 191.05 141.4 201.0 141.4 210.9 141.4 220.8 141.4 230.7 141.4 240.6 141.4 250.55 141.4 260.35 141.4" fill="url(#gradient4)" fill-rule="evenodd" stroke="none"/>
    </g>
    <linearGradient gradientTransform="matrix(0.0484, 0.0, 0.0, 0.0024, 220.7, 143.35)" gradientUnits="userSpaceOnUse" id="gradient4" spreadMethod="pad" x1="-819.2" x2="819.2">
      <stop offset="0.0" stop-color="#ffffff"/>
      <stop offset="1.0" stop-color="#000000"/>
    </linearGradient>
  </defs>
</svg>
