<?xml version="1.0" encoding="UTF-8" standalone="no"?>
<svg xmlns:ffdec="https://www.free-decompiler.com/flash" xmlns:xlink="http://www.w3.org/1999/xlink" ffdec:objectType="frame" height="2840.0px" width="4483.3px" xmlns="http://www.w3.org/2000/svg">
  <g transform="matrix(2.0, 0.0, 0.0, 2.0, 1889.8, 1197.4)">
    <use ffdec:characterId="2870" height="300.0" transform="matrix(1.2668, 0.0, 0.0, 1.1227, -242.0, -170.95)" width="533.0" xlink:href="#shape0"/>
    <filter id="filter0"/>
    <use ffdec:characterId="3662" filter="url(#filter0)" height="281.25" transform="matrix(0.994, 0.0, 0.0, 0.994, -187.05, -83.4)" width="349.7" xlink:href="#sprite0"/>
    <filter id="filter1">
      <feConvolveMatrix divisor="4.0" in="SourceGraphic" kernelMatrix="1 1 1 1" order="2 2" result="filterResult0"/>
    </filter>
    <use ffdec:characterId="3666" filter="url(#filter1)" height="309.85" transform="matrix(1.0092, 0.0, 0.0, 1.0092, -342.5737, -154.75)" width="406.6" xlink:href="#sprite1"/>
    <filter id="filter3">
      <feConvolveMatrix divisor="16.0" in="SourceGraphic" kernelMatrix="1 1 1 1 1 1 1 1 1 1 1 1 1 1 1 1" order="4 4" result="filterResult5"/>
    </filter>
    <use ffdec:characterId="3660" filter="url(#filter3)" height="432.35" transform="matrix(1.0114, 0.0, 0.0, 1.0114, 14.4917, -160.9247)" width="373.0" xlink:href="#sprite2"/>
    <use ffdec:characterId="3668" height="31.65" transform="matrix(1.0, 0.0, 0.0, 1.0, 98.45, -4.2)" width="6.35" xlink:href="#sprite4"/>
    <filter id="filter4"/>
    <use ffdec:characterId="3664" filter="url(#filter4)" height="48.1" transform="matrix(1.3453, 0.0, 0.0, 1.3453, 44.2, -23.9)" width="43.45" xlink:href="#sprite5"/>
    <use ffdec:characterId="3645" height="300.0" transform="matrix(0.9741, 0.0, 0.0, 0.974, -125.3855, -150.5067)" width="533.0" xlink:href="#sprite6"/>
  </g>
  <defs>
    <g id="shape0" transform="matrix(1.0, 0.0, 0.0, 1.0, 0.0, 0.0)">
      <path d="M533.0 300.0 L0.0 300.0 0.0 0.0 533.0 0.0 533.0 300.0" fill="#ffffff" fill-rule="evenodd" stroke="none"/>
    </g>
    <g id="sprite0" transform="matrix(1.0, 0.0, 0.0, 1.0, 0.0, 0.0)">
      <use ffdec:characterId="3661" height="281.25" transform="matrix(1.0, 0.0, 0.0, 1.0, 0.0, 0.0)" width="349.7" xlink:href="#shape1"/>
    </g>
    <g id="shape1" transform="matrix(1.0, 0.0, 0.0, 1.0, 0.0, 0.0)">
      <path d="M324.95 46.3 L322.75 47.75 Q320.45 49.0 318.5 49.0 319.6 50.45 320.2 52.55 320.95 55.45 321.4 56.3 L323.05 60.1 Q324.2 62.55 325.6 63.95 330.45 68.7 333.85 71.4 L333.85 71.65 333.45 71.75 Q331.45 71.75 327.95 68.45 L326.5 66.9 328.0 68.9 Q329.15 70.55 329.9 71.05 L333.05 72.75 Q334.4 73.45 334.4 74.45 L334.0 75.1 333.45 75.4 Q328.9 75.4 325.6 71.35 L324.75 69.9 325.4 73.05 326.35 77.0 326.45 77.25 326.45 77.3 326.5 77.65 326.3 77.35 Q327.2 81.9 327.2 86.05 L327.1 90.8 326.95 91.6 Q327.45 93.75 328.85 96.15 L329.0 96.4 330.4 98.2 331.75 100.25 332.15 100.75 332.2 100.9 334.5 104.4 334.95 106.2 335.3 108.5 Q335.3 110.35 334.55 111.9 L333.1 113.7 332.3 114.45 Q331.25 115.35 330.05 115.8 L328.65 116.35 326.8 116.65 Q324.3 116.5 324.3 117.8 L324.7 120.15 Q325.0 120.25 325.0 120.75 L322.7 125.15 319.85 129.35 Q318.1 132.3 316.95 133.65 L316.2 134.8 315.2 135.75 Q314.0 137.45 313.0 137.7 L312.6 137.95 313.35 140.5 314.15 143.05 Q314.45 144.3 314.45 148.05 L314.35 151.2 Q314.0 152.85 312.75 154.6 L312.35 156.5 311.9 159.1 311.6 161.75 311.1 172.4 310.85 177.85 Q310.35 180.65 308.05 182.75 L306.25 184.7 Q305.4 185.45 302.65 186.5 L299.7 187.2 297.85 187.75 291.8 189.2 285.25 189.85 280.55 189.45 271.8 188.8 266.8 188.3 267.2 188.55 Q269.05 189.65 270.75 191.15 275.1 195.1 277.6 196.75 278.85 197.6 282.2 199.1 285.0 200.4 286.45 201.65 L293.6 207.65 Q296.85 210.5 302.2 213.5 307.4 216.5 311.15 219.5 318.65 225.4 322.35 231.7 L325.95 237.75 Q327.95 241.3 328.85 243.9 330.7 249.65 333.35 256.15 335.4 261.25 339.35 268.3 340.1 269.75 345.05 275.05 349.7 280.05 349.7 280.45 L349.6 281.15 348.35 281.25 Q347.1 281.25 342.0 279.85 L335.35 278.15 323.85 276.7 Q313.75 276.0 294.9 276.0 L294.3 276.0 294.45 276.35 296.35 280.4 296.1 280.7 Q294.95 280.0 292.75 276.1 L286.55 276.85 286.5 276.85 280.85 277.75 286.45 276.55 286.5 276.55 292.25 275.2 292.0 274.75 Q290.4 271.75 289.75 270.2 288.5 270.0 288.15 269.35 L287.85 267.95 Q285.9 268.3 284.25 269.55 L282.7 270.7 Q280.25 270.7 277.4 269.2 L273.6 267.05 Q270.35 265.8 264.75 265.25 L242.65 264.05 218.0 262.45 207.1 260.3 Q200.7 257.85 190.25 258.9 L169.85 260.6 144.75 261.5 Q146.4 253.5 140.75 254.25 118.05 257.15 54.4 257.15 L7.35 257.15 3.8 256.7 Q2.6 256.35 2.5 256.05 L1.8 254.7 Q1.35 253.75 1.35 253.05 L1.35 236.15 1.6 222.65 1.85 213.8 Q1.85 208.2 0.95 201.05 L0.0 194.8 Q0.0 193.05 4.6 191.4 10.85 189.4 14.1 187.95 L23.2 184.0 Q26.8 182.55 30.85 181.2 43.95 176.1 52.75 173.3 68.95 168.15 82.15 168.15 L103.5 169.55 118.2 170.9 Q130.95 170.9 134.95 169.3 137.15 168.45 138.0 166.8 142.25 163.95 144.1 162.9 L144.2 163.0 153.75 156.65 Q159.15 153.05 162.3 150.2 L160.8 149.2 Q159.6 148.5 159.6 146.9 159.6 144.9 160.6 142.2 L161.6 139.3 161.2 138.25 160.7 137.5 159.85 137.75 158.95 138.0 Q156.75 138.0 156.35 136.75 L156.35 135.45 Q156.35 132.1 158.75 128.3 162.55 122.2 163.4 120.2 L164.2 117.85 164.2 116.95 163.9 112.9 163.9 104.8 164.4 96.8 164.6 88.75 Q164.75 85.3 166.05 80.75 L166.8 78.5 Q166.85 76.8 167.05 75.5 167.5 72.6 168.85 68.75 L169.75 65.65 Q170.45 63.55 171.6 62.4 173.65 60.45 173.6 59.3 L173.9 56.3 173.55 54.4 173.15 51.65 Q173.15 49.8 175.55 46.1 177.8 42.55 179.65 41.15 L186.25 35.8 Q187.35 34.9 187.75 33.2 188.0 31.4 188.2 30.7 189.65 26.55 190.35 25.4 192.15 22.5 196.15 20.2 196.65 19.95 197.8 19.65 L199.1 19.4 200.55 19.35 204.85 18.75 Q205.6 18.65 206.9 17.75 L209.2 16.3 Q214.45 13.45 219.4 13.0 L219.5 13.2 219.6 13.35 221.2 12.55 Q228.0 9.6 235.35 9.9 L249.5 11.4 251.3 11.7 251.4 11.75 253.45 12.05 254.35 12.05 Q258.6 12.05 264.1 9.45 268.0 7.6 269.95 6.0 L273.75 2.65 Q274.4 2.05 274.8 0.6 275.0 -0.15 276.25 0.05 L276.35 1.2 Q276.35 3.0 273.5 7.45 270.55 12.05 268.6 12.8 L268.45 12.95 268.6 12.95 272.1 12.7 Q274.35 12.7 276.25 13.7 278.35 13.9 279.45 14.65 L285.1 18.9 Q286.15 19.6 287.0 20.65 288.95 20.65 296.05 18.7 L296.9 18.5 296.0 15.85 294.35 11.9 Q295.3 11.2 296.05 12.35 L297.25 14.4 Q298.45 15.35 299.1 17.9 303.8 16.7 305.9 16.7 311.0 16.7 313.2 21.5 314.35 23.9 314.45 26.5 L314.4 28.95 313.25 31.9 312.4 31.8 312.35 31.3 312.65 29.6 312.6 28.45 Q312.65 26.45 312.25 25.55 311.95 24.2 311.05 23.0 309.2 20.75 305.6 20.75 304.15 20.75 300.7 22.05 L300.15 22.25 Q300.5 23.95 300.5 25.7 L300.45 27.35 Q300.0 27.95 300.0 29.05 L300.2 29.8 301.1 30.25 302.75 31.25 Q304.75 31.15 308.0 32.15 311.1 33.85 312.35 35.4 L316.9 41.9 Q321.05 41.9 323.25 40.05 L325.5 37.8 326.2 38.55 Q326.2 39.85 322.15 43.1 319.5 45.2 317.5 45.75 L319.6 45.9 Q321.55 45.9 323.25 44.8 L324.95 43.55 327.8 42.1 Q329.45 41.35 330.45 41.25 L334.3 41.35 Q338.25 41.85 338.25 42.8 338.25 43.65 337.6 43.65 L333.55 43.15 330.75 43.75 328.4 44.5 Q327.4 44.9 324.95 46.3 M326.15 95.35 L325.15 93.85 325.1 93.75 324.9 93.4 323.15 91.3 322.8 91.25 321.85 90.05 Q321.1 89.55 318.1 88.55 L316.6 87.85 316.6 87.9 315.85 88.25 315.6 88.2 315.45 88.3 313.6 89.55 309.05 90.35 307.75 90.05 307.7 89.7 Q307.7 89.2 308.55 89.0 L310.05 88.85 311.2 88.35 313.1 87.15 313.55 85.5 311.0 83.1 307.95 81.4 Q305.5 79.9 305.5 79.05 305.5 77.25 307.8 77.95 309.1 78.35 312.0 80.0 312.55 80.15 313.3 80.6 312.05 78.3 309.75 76.6 L309.3 76.35 308.6 75.95 308.55 75.9 307.7 76.15 304.65 76.8 Q303.8 76.8 303.6 76.45 L303.6 76.1 Q303.6 75.05 304.9 74.7 L308.5 73.5 Q310.4 72.35 311.5 70.5 L311.7 70.2 Q309.8 69.0 307.1 67.75 L307.1 67.65 311.0 67.2 312.55 67.7 Q312.85 66.2 312.7 64.5 L312.65 63.55 309.0 63.45 Q307.5 63.45 306.5 63.9 L305.7 64.4 304.35 64.75 304.35 64.8 Q303.8 67.75 301.25 71.4 L299.9 73.25 298.1 74.65 297.15 75.05 Q297.8 76.45 298.95 77.8 301.05 80.15 302.4 82.35 301.05 83.3 299.5 84.95 292.75 92.25 292.75 100.2 292.75 101.6 293.9 104.5 294.9 107.1 295.75 108.35 297.55 111.0 299.55 113.25 301.1 115.05 302.2 115.9 L302.0 116.9 301.7 120.55 302.1 125.2 Q302.1 131.0 298.05 137.75 294.0 144.45 294.0 150.95 294.0 157.05 296.25 162.25 298.0 166.3 301.1 169.6 L301.2 169.65 301.6 169.75 302.1 170.15 302.75 170.75 302.7 170.55 Q303.6 171.5 304.75 171.5 L304.8 171.5 304.85 172.15 305.15 172.35 Q306.8 173.35 307.25 173.35 308.15 173.35 308.8 171.05 L308.75 169.15 Q308.55 165.75 309.0 162.0 L309.1 161.75 309.7 159.85 309.85 157.35 309.9 157.15 309.95 156.95 309.9 157.0 309.85 157.0 309.85 155.9 309.8 154.8 309.55 152.45 309.65 151.95 309.75 150.95 308.9 146.3 307.9 140.45 307.9 133.65 308.2 133.65 308.25 133.85 Q309.25 136.4 312.25 141.9 L312.3 142.0 313.35 144.2 312.75 141.75 Q311.85 138.95 311.85 138.3 L312.05 137.5 312.35 137.05 312.9 136.45 313.5 135.6 Q314.3 134.35 314.4 132.9 L314.9 129.2 314.5 126.3 313.5 126.6 312.0 127.5 311.1 128.7 311.05 129.3 Q311.05 130.95 312.15 131.75 L312.4 132.85 312.6 134.2 Q312.6 135.15 312.4 135.3 L311.6 136.0 311.1 136.25 Q310.25 136.25 309.8 133.55 L309.55 130.85 Q309.55 128.25 311.45 125.9 L314.85 122.7 Q318.85 119.15 321.85 120.45 L323.45 121.6 323.85 122.1 323.95 121.95 323.85 120.35 323.65 119.7 323.1 118.25 Q321.5 115.4 319.25 115.4 317.85 115.4 315.45 117.1 L313.15 119.0 Q311.4 120.9 310.25 122.95 L308.5 126.75 Q307.75 128.4 306.85 129.45 L306.8 129.55 306.45 129.95 306.45 130.0 303.95 133.95 301.75 137.15 Q301.5 137.6 301.5 139.15 301.5 141.9 301.95 143.9 L302.4 146.45 302.65 148.6 302.6 149.15 302.45 149.3 Q301.5 149.0 300.95 144.9 300.5 141.75 300.5 139.1 300.5 137.1 300.75 136.8 L303.25 133.25 305.1 130.35 305.25 130.1 305.25 129.95 Q305.25 129.65 305.95 128.6 L306.3 128.0 307.7 123.9 309.7 117.15 310.7 111.3 311.2 108.7 311.15 108.45 311.3 107.35 Q311.35 106.55 311.55 106.2 311.95 105.25 312.25 105.1 312.9 104.6 313.35 104.85 313.7 105.0 313.7 105.3 L313.2 106.3 Q312.65 107.1 312.65 107.55 L312.6 107.85 Q312.7 109.65 315.3 111.25 317.45 112.55 318.6 112.55 L319.65 112.3 Q318.7 111.05 317.9 109.2 316.35 105.65 316.35 103.15 L316.35 101.35 Q316.45 100.8 317.35 99.2 317.75 98.55 319.6 97.55 321.55 96.5 322.35 96.65 L322.0 97.1 Q322.35 97.2 322.7 97.6 L323.95 99.4 324.7 102.75 Q324.85 104.4 328.15 106.95 L331.4 109.15 332.6 108.9 333.75 108.65 333.8 108.65 333.8 108.35 Q333.8 107.15 332.8 104.65 L331.55 102.7 330.2 100.9 327.75 97.3 327.4 96.7 326.2 95.3 326.2 95.4 326.15 95.35 M325.85 86.05 Q325.85 75.45 319.7 62.45 L318.1 59.25 Q317.15 60.65 316.8 62.3 316.4 64.1 316.3 67.55 L316.15 69.0 Q317.9 69.65 318.8 70.5 319.5 71.05 320.45 72.55 321.65 74.4 322.55 76.95 L323.35 79.95 Q323.65 80.2 323.65 81.15 L323.75 84.05 Q323.75 85.7 323.3 86.85 L322.9 87.65 323.85 88.4 325.55 90.4 325.85 86.05 M312.45 23.2 L312.2 22.75 312.1 22.8 312.55 23.55 312.45 23.2 M284.25 19.9 L281.5 18.0 279.5 16.3 279.8 16.7 Q282.1 19.5 284.8 20.35 L284.25 19.9 M295.35 25.2 L295.7 24.35 292.8 25.45 290.75 26.15 293.6 27.55 294.65 26.4 295.35 25.2 M306.5 33.9 L310.9 38.0 310.6 37.4 Q308.75 34.8 307.45 34.3 L306.5 33.9 M307.65 41.15 L307.7 41.15 307.65 41.05 307.65 41.15 M313.7 40.85 L314.45 41.9 314.95 41.9 314.2 40.6 313.45 39.65 313.7 40.85 M309.9 45.0 L310.05 45.05 309.95 44.85 309.9 45.0 M250.25 70.65 Q250.7 74.0 251.6 76.05 252.1 75.35 252.1 74.4 L251.95 72.5 Q251.6 71.6 250.25 70.65 M244.35 79.65 Q244.95 82.25 245.65 83.55 246.45 84.9 246.9 87.25 L248.3 83.25 249.1 79.9 Q249.1 78.6 247.0 75.75 244.95 73.0 243.35 71.9 L243.7 75.65 Q243.95 78.1 244.35 79.65 M311.35 68.65 L311.45 68.7 311.4 68.65 311.35 68.65 M310.6 75.25 L311.65 75.95 314.6 78.9 315.85 80.3 316.2 77.35 Q316.2 75.15 314.55 73.2 L314.2 72.8 Q312.75 74.35 310.65 75.15 L310.55 75.2 310.6 75.25 M296.45 71.7 L296.5 72.65 298.0 71.1 299.75 69.15 Q300.6 68.05 301.4 65.7 300.25 66.1 299.6 66.55 297.15 68.15 296.65 69.35 296.45 69.8 296.45 71.7 M213.2 17.25 L214.45 17.15 215.25 16.65 215.45 16.35 213.85 16.95 213.2 17.25 M201.8 21.2 Q195.85 22.65 192.25 27.65 L192.8 27.25 Q195.05 25.05 199.75 22.3 L201.8 21.2 M181.75 41.3 Q174.6 47.4 174.35 54.25 L177.25 47.85 Q179.3 43.75 181.85 41.25 L181.75 41.3 M197.9 25.25 L197.35 25.6 Q194.75 27.4 193.1 29.05 L192.95 29.2 192.3 29.9 191.75 30.8 191.7 31.0 192.0 31.05 193.55 29.4 193.85 28.95 Q194.65 28.05 196.9 26.2 L198.1 25.25 197.9 25.25 M194.65 30.75 L194.45 30.95 194.4 31.15 194.45 31.15 194.7 30.8 194.65 30.75 M191.4 31.7 L191.2 31.7 191.05 31.65 190.7 32.25 190.6 32.45 190.85 32.3 191.4 31.7 M236.2 71.1 L235.45 69.55 234.7 67.9 234.2 64.75 Q234.2 63.85 235.45 63.6 L240.9 62.2 Q237.1 60.6 237.1 57.85 L237.35 56.6 237.85 55.15 Q236.5 55.45 233.9 56.55 230.75 57.85 230.75 58.55 230.75 61.15 232.75 65.9 234.7 70.5 235.9 71.2 L236.2 71.15 236.2 71.1 M258.15 196.55 L258.15 196.45 258.1 196.5 Q256.2 198.85 253.6 200.15 251.7 201.05 245.65 202.9 241.8 204.05 238.25 206.55 L232.9 210.8 Q229.15 214.0 226.0 219.05 L221.95 226.05 Q225.3 226.3 228.4 227.55 232.0 228.95 234.6 228.95 L239.0 228.5 Q240.05 228.05 240.8 228.05 L240.85 228.05 Q241.45 227.05 243.8 224.55 L247.6 220.65 Q249.05 219.15 250.45 216.6 L252.5 212.55 Q257.4 203.0 258.15 196.55 M289.6 266.3 L289.65 266.35 289.65 266.2 289.6 266.3 M291.75 270.3 L291.9 270.65 291.9 270.3 291.75 270.3" fill="#000000" fill-rule="evenodd" stroke="none"/>
      <path d="M326.15 95.35 L326.2 95.4 326.2 95.3 327.4 96.7 327.75 97.3 330.2 100.9 331.55 102.7 332.8 104.65 Q333.8 107.15 333.8 108.35 L333.8 108.65 333.75 108.65 332.6 108.9 331.4 109.15 328.15 106.95 Q324.85 104.4 324.7 102.75 L323.95 99.4 322.7 97.6 Q322.35 97.2 322.0 97.1 L322.35 96.65 Q321.55 96.5 319.6 97.55 317.75 98.55 317.35 99.2 316.45 100.8 316.35 101.35 L316.35 103.15 Q316.35 105.65 317.9 109.2 318.7 111.05 319.65 112.3 L318.6 112.55 Q317.45 112.55 315.3 111.25 312.7 109.65 312.6 107.85 L312.65 107.55 Q312.65 107.1 313.2 106.3 L313.7 105.3 Q313.7 105.0 313.35 104.85 312.9 104.6 312.25 105.1 311.95 105.25 311.55 106.2 311.35 106.55 311.3 107.35 L311.15 108.45 311.2 108.7 310.7 111.3 309.7 117.15 307.7 123.9 306.3 128.0 305.95 128.6 Q305.25 129.65 305.25 129.95 L305.25 130.1 305.1 130.35 303.25 133.25 300.75 136.8 Q300.5 137.1 300.5 139.1 300.5 141.75 300.95 144.9 301.5 149.0 302.45 149.3 L302.6 149.15 302.65 148.6 302.4 146.45 301.95 143.9 Q301.5 141.9 301.5 139.15 301.5 137.6 301.75 137.15 L303.95 133.95 306.45 130.0 306.45 129.95 306.8 129.55 306.85 129.45 Q307.75 128.4 308.5 126.75 L310.25 122.95 Q311.4 120.9 313.15 119.0 L315.45 117.1 Q317.85 115.4 319.25 115.4 321.5 115.4 323.1 118.25 L323.65 119.7 323.85 120.35 323.95 121.95 323.85 122.1 323.45 121.6 321.85 120.45 Q318.85 119.15 314.85 122.7 L311.45 125.9 Q309.55 128.25 309.55 130.85 L309.8 133.55 Q310.25 136.25 311.1 136.25 L311.6 136.0 312.4 135.3 Q312.6 135.15 312.6 134.2 L312.4 132.85 312.15 131.75 Q311.05 130.95 311.05 129.3 L311.1 128.7 312.0 127.5 313.5 126.6 314.5 126.3 314.9 129.2 314.4 132.9 Q314.3 134.35 313.5 135.6 L312.9 136.45 312.35 137.05 312.05 137.5 311.85 138.3 Q311.85 138.95 312.75 141.75 L313.35 144.2 312.3 142.0 312.25 141.9 Q309.25 136.4 308.25 133.85 L308.2 133.65 307.9 133.65 307.9 140.45 308.9 146.3 309.75 150.95 309.65 151.95 309.55 152.45 309.8 154.8 309.85 155.9 309.85 157.0 309.9 157.0 309.95 156.95 309.9 157.15 309.85 157.35 309.7 159.85 309.1 161.75 309.0 162.0 Q308.55 165.75 308.75 169.15 L308.8 171.05 Q308.15 173.35 307.25 173.35 306.8 173.35 305.15 172.35 L304.85 172.15 304.8 171.5 304.75 171.5 Q303.6 171.5 302.7 170.55 L302.75 170.75 302.1 170.15 301.6 169.75 301.2 169.65 301.1 169.6 Q298.0 166.3 296.25 162.25 294.0 157.05 294.0 150.95 294.0 144.45 298.05 137.75 302.1 131.0 302.1 125.2 L301.7 120.55 302.0 116.9 302.2 115.9 Q301.1 115.05 299.55 113.25 297.55 111.0 295.75 108.35 294.9 107.1 293.9 104.5 292.75 101.6 292.75 100.2 292.75 92.25 299.5 84.95 301.05 83.3 302.4 82.35 301.05 80.15 298.95 77.8 297.8 76.45 297.15 75.05 L298.1 74.65 299.9 73.25 301.25 71.4 Q303.8 67.75 304.35 64.8 L304.35 64.75 305.7 64.4 306.5 63.9 Q307.5 63.45 309.0 63.45 L312.65 63.55 312.7 64.5 Q312.85 66.2 312.55 67.7 L311.0 67.2 307.1 67.65 307.1 67.75 Q309.8 69.0 311.7 70.2 L311.5 70.5 Q310.4 72.35 308.5 73.5 L304.9 74.7 Q303.6 75.05 303.6 76.1 L303.6 76.45 Q303.8 76.8 304.65 76.8 L307.7 76.15 308.55 75.9 308.6 75.95 309.3 76.35 309.75 76.6 Q312.05 78.3 313.3 80.6 312.55 80.15 312.0 80.0 309.1 78.35 307.8 77.95 305.5 77.25 305.5 79.05 305.5 79.9 307.95 81.4 L311.0 83.1 313.55 85.5 313.1 87.15 311.2 88.35 310.05 88.85 308.55 89.0 Q307.7 89.2 307.7 89.7 L307.75 90.05 309.05 90.35 313.6 89.55 315.45 88.3 315.6 88.2 315.85 88.25 316.6 87.9 316.6 87.85 318.1 88.55 Q321.1 89.55 321.85 90.05 L322.8 91.25 323.15 91.3 324.9 93.4 325.1 93.75 325.15 93.85 326.15 95.35 M244.35 79.65 Q243.95 78.1 243.7 75.65 L243.35 71.9 Q244.95 73.0 247.0 75.75 249.1 78.6 249.1 79.9 L248.3 83.25 246.9 87.25 Q246.45 84.9 245.65 83.55 244.95 82.25 244.35 79.65 M250.25 70.65 Q251.6 71.6 251.95 72.5 L252.1 74.4 Q252.1 75.35 251.6 76.05 250.7 74.0 250.25 70.65 M235.9 71.2 Q234.7 70.5 232.75 65.9 230.75 61.15 230.75 58.55 230.75 57.85 233.9 56.55 236.5 55.45 237.85 55.15 L237.35 56.6 237.1 57.85 Q237.1 60.6 240.9 62.2 L235.45 63.6 Q234.2 63.85 234.2 64.75 L234.7 67.9 235.45 69.55 236.2 71.1 235.9 71.2 M258.1 196.5 L258.15 196.55 Q257.4 203.0 252.5 212.55 L250.45 216.6 Q249.05 219.15 247.6 220.65 L243.8 224.55 Q241.45 227.05 240.85 228.05 L240.8 228.05 Q240.05 228.05 239.0 228.5 L234.6 228.95 Q232.0 228.95 228.4 227.55 225.3 226.3 221.95 226.05 L226.0 219.05 Q229.15 214.0 232.9 210.8 L238.25 206.55 Q241.8 204.05 245.65 202.9 251.7 201.05 253.6 200.15 256.2 198.85 258.1 196.5" fill="url(#gradient0)" fill-rule="evenodd" stroke="none"/>
      <path d="M325.85 86.05 L325.55 90.4 323.85 88.4 322.9 87.65 323.3 86.85 Q323.75 85.7 323.75 84.05 L323.65 81.15 Q323.65 80.2 323.35 79.95 L322.55 76.95 Q321.65 74.4 320.45 72.55 319.5 71.05 318.8 70.5 317.9 69.65 316.15 69.0 L316.3 67.55 Q316.4 64.1 316.8 62.3 317.15 60.65 318.1 59.25 L319.7 62.45 Q325.85 75.45 325.85 86.05 M310.65 75.15 Q312.75 74.35 314.2 72.8 L314.55 73.2 Q316.2 75.15 316.2 77.35 L315.85 80.3 314.6 78.9 311.65 75.95 310.6 75.25 310.65 75.15 M296.45 71.7 Q296.45 69.8 296.65 69.35 297.15 68.15 299.6 66.55 300.25 66.1 301.4 65.7 300.6 68.05 299.75 69.15 L298.0 71.1 296.5 72.65 296.45 71.7" fill="#4f365a" fill-rule="evenodd" stroke="none"/>
    </g>
    <linearGradient gradientTransform="matrix(-0.0456, 0.1266, -0.0359, -0.0129, 276.85, 164.55)" gradientUnits="userSpaceOnUse" id="gradient0" spreadMethod="pad" x1="-819.2" x2="819.2">
      <stop offset="0.0" stop-color="#4f365a"/>
      <stop offset="1.0" stop-color="#000000"/>
    </linearGradient>
    <g id="sprite1" transform="matrix(1.0, 0.0, 0.0, 1.0, 149.3, 0.0)">
      <use ffdec:characterId="3665" height="309.85" transform="matrix(1.0, 0.0, 0.0, 1.0, -149.3, 0.0)" width="406.6" xlink:href="#shape2"/>
    </g>
    <g id="shape2" transform="matrix(1.0, 0.0, 0.0, 1.0, 149.3, 0.0)">
      <path d="M247.6 57.2 Q250.6 56.4 253.2 58.0 L255.0 59.35 Q258.15 62.25 257.0 66.5 255.4 72.2 252.4 77.3 250.15 81.2 247.2 84.35 238.85 93.05 230.85 102.05 L222.1 111.65 Q212.4 121.95 202.15 131.65 196.8 136.8 192.65 143.05 184.05 155.95 181.0 171.15 180.6 173.25 181.1 175.35 183.7 185.85 192.8 191.75 196.1 193.9 200.3 193.95 L204.25 193.45 Q212.35 191.25 220.15 193.8 228.95 196.9 237.0 201.2 246.55 206.3 248.5 217.1 249.2 221.05 246.55 223.95 245.8 224.85 244.5 224.6 237.9 223.25 231.6 220.5 226.7 218.35 221.75 217.4 214.55 216.15 207.25 217.9 191.75 221.25 176.5 225.5 L173.7 226.0 Q156.35 226.25 139.45 229.9 L146.3 227.7 Q129.75 232.05 117.05 234.7 104.45 237.55 92.15 241.7 87.05 243.4 82.3 245.9 64.0 255.65 47.25 267.9 42.4 271.5 37.1 274.2 23.6 281.35 13.5 292.95 L13.75 294.35 12.3 294.8 4.35 295.1 Q1.55 297.45 -0.45 296.7 -2.5 295.9 -15.6 308.95 L-41.0 308.95 Q-39.5 304.6 -64.75 309.85 L-64.75 298.35 -126.15 298.35 Q-170.4 309.95 -130.05 270.4 -79.6 220.9 -36.1 207.45 36.35 185.0 46.5 177.05 53.8 171.4 58.1 163.35 63.85 152.45 70.05 141.8 75.25 133.0 79.25 123.5 82.85 115.05 84.75 106.25 86.3 98.85 86.35 91.2 86.4 75.4 89.5 60.1 92.05 47.3 92.45 34.1 92.75 22.75 95.4 11.5 L104.3 11.9 104.3 11.4 Q107.25 11.6 109.15 13.8 L107.9 12.15 109.05 12.75 Q111.65 14.4 112.65 17.1 115.3 24.25 114.7 32.25 L114.1 40.35 Q113.0 55.3 113.05 70.35 113.05 76.75 114.45 83.0 116.15 90.55 123.05 93.5 129.6 86.55 132.25 77.45 133.85 72.0 136.0 66.45 139.7 56.95 145.5 48.3 L150.0 41.0 Q158.55 26.2 164.75 10.35 165.3 8.9 166.35 7.75 174.95 -1.9 187.8 0.5 189.15 3.25 191.05 5.6 192.3 7.2 191.85 9.3 L190.7 8.85 190.25 12.05 189.5 10.8 175.1 39.35 175.25 39.75 172.35 45.7 Q162.6 65.8 153.7 86.25 152.15 90.35 151.8 93.5 151.8 95.35 152.2 97.3 156.8 93.75 159.65 88.85 L169.1 72.5 Q171.0 69.25 173.35 66.3 179.1 59.05 185.15 52.15 L193.3 42.6 Q202.7 31.25 210.25 18.35 211.25 16.65 212.5 15.1 213.8 13.6 215.45 12.5 218.9 10.1 221.6 13.3 224.55 14.1 226.7 16.35 228.75 18.45 229.05 21.3 229.6 26.6 226.95 31.55 L222.55 38.9 Q206.75 63.1 191.95 87.9 L191.75 88.25 191.6 88.45 191.6 88.4 189.85 90.6 187.95 92.9 186.1 95.1 182.3 99.55 178.45 104.1 176.85 106.15 177.05 107.4 177.65 109.6 Q178.7 112.45 180.85 114.2 L196.75 98.75 Q201.45 94.15 206.8 90.6 213.8 85.9 219.95 80.25 L230.75 70.55 Q234.95 66.8 238.7 62.65 242.4 58.5 247.6 57.2 M180.4 172.25 Q180.5 169.7 181.2 167.0 185.5 150.4 196.2 136.8 201.45 130.15 207.8 124.55 216.75 116.7 224.3 107.7 234.55 95.4 246.05 83.95 254.0 75.95 255.7 65.1 256.1 62.45 254.2 60.6 252.6 59.0 250.65 58.3 254.25 65.4 250.55 72.5 245.95 81.35 239.5 88.75 238.5 89.9 237.05 90.2 L233.75 90.05 Q233.55 94.95 230.05 98.8 L226.35 103.2 Q223.15 107.5 218.35 109.75 L215.95 110.05 214.2 109.4 Q216.15 112.1 214.45 114.95 211.4 119.95 207.2 123.9 L201.45 128.35 Q200.0 129.25 198.45 129.85 196.75 130.4 195.05 129.5 188.2 125.8 183.45 119.1 181.5 116.35 179.1 113.95 175.8 110.6 176.05 105.9 172.35 114.6 176.4 123.5 181.6 135.0 181.25 147.45 L180.4 160.6 179.4 172.2 179.25 173.6 178.35 173.7 Q174.95 169.45 173.4 164.0 176.85 177.75 185.4 189.0 189.85 194.9 196.85 195.85 L199.15 195.95 Q202.0 195.45 204.5 193.95 192.7 196.3 185.1 186.5 180.05 179.95 180.4 172.25 M222.55 15.35 Q227.25 20.6 224.0 27.05 222.85 29.3 220.45 30.05 219.15 30.55 218.0 31.15 216.6 31.8 216.75 33.3 217.45 39.1 215.7 44.75 214.35 49.15 209.85 50.5 210.45 53.15 209.1 55.55 203.35 65.8 196.15 75.2 194.65 77.1 192.4 78.15 L193.15 84.0 Q208.25 59.9 223.8 36.05 227.45 30.5 228.25 23.9 228.5 21.75 227.65 19.9 226.4 16.45 222.9 15.0 L221.85 14.65 222.55 15.35 M189.05 8.6 Q188.15 5.8 185.75 4.55 L184.25 3.9 Q178.95 4.3 174.75 7.7 181.65 17.85 178.3 29.85 177.2 33.75 175.3 37.35 183.35 23.6 189.05 8.6 M186.5 69.1 L182.55 74.2 183.4 77.65 186.5 69.1 M184.3 191.8 L183.75 191.45 183.65 191.55 184.3 191.8 M109.3 15.25 L106.65 12.85 105.7 13.05 Q112.35 21.6 109.25 31.75 L108.65 33.4 106.4 33.0 104.25 32.15 Q107.1 39.4 106.3 47.05 106.25 47.65 105.8 48.15 105.05 49.05 104.0 49.3 108.95 53.3 109.45 59.8 109.7 62.8 109.4 65.9 108.9 70.45 104.75 72.75 108.9 74.3 109.15 78.85 109.55 86.6 114.9 92.15 120.25 97.65 127.4 95.5 119.35 95.65 116.2 88.3 110.95 76.25 111.75 63.2 L112.7 47.9 Q113.45 36.2 113.4 24.4 113.4 20.95 111.8 18.0 L110.15 15.1 109.3 15.25 M224.8 195.6 Q222.65 194.65 220.5 194.3 223.2 196.9 222.5 200.45 222.25 201.8 222.6 203.25 223.55 206.85 227.0 208.25 233.75 211.0 240.15 214.4 245.15 217.0 244.7 222.25 L244.25 223.9 Q248.0 222.45 247.5 218.1 246.2 206.6 235.95 201.25 230.45 198.3 224.8 195.6 M155.8 78.85 L153.6 82.7 Q150.05 89.65 149.5 97.45 149.3 100.05 151.9 99.65 L151.25 97.95 150.95 95.4 Q150.95 91.25 153.05 85.55 L155.8 78.85 M156.65 77.4 L156.6 77.65 157.0 76.75 156.65 77.4 M152.45 98.9 L152.4 98.8 152.45 98.95 152.45 98.9 M100.9 147.0 Q98.65 141.35 94.85 136.7 86.4 153.4 85.25 172.05 84.55 183.25 89.45 193.15 91.1 196.5 93.75 199.25 98.55 195.6 101.45 190.4 L110.55 174.65 Q107.85 178.85 103.0 180.6 99.15 182.0 95.85 184.3 100.35 177.65 102.35 169.85 L102.9 167.55 Q105.0 157.05 100.9 147.0 M113.8 128.8 L111.95 111.2 102.3 108.3 Q107.5 115.85 111.55 124.1 L113.8 128.8" fill="#000000" fill-rule="evenodd" stroke="none"/>
      <path d="M179.4 172.2 L180.4 160.6 181.25 147.45 Q181.6 135.0 176.4 123.5 172.35 114.6 176.05 105.9 175.8 110.6 179.1 113.95 181.5 116.35 183.45 119.1 188.2 125.8 195.05 129.5 196.75 130.4 198.45 129.85 200.0 129.25 201.45 128.35 L207.2 123.9 Q211.4 119.95 214.45 114.95 216.15 112.1 214.2 109.4 L215.95 110.05 218.35 109.75 Q223.15 107.5 226.35 103.2 L230.05 98.8 Q233.55 94.95 233.75 90.05 L237.05 90.2 Q238.5 89.9 239.5 88.75 245.95 81.35 250.55 72.5 254.25 65.4 250.65 58.3 252.6 59.0 254.2 60.6 256.1 62.45 255.7 65.1 254.0 75.95 246.05 83.95 234.55 95.4 224.3 107.7 216.75 116.7 207.8 124.55 201.45 130.15 196.2 136.8 185.5 150.4 181.2 167.0 180.5 169.7 180.4 172.25 L179.4 172.2 M222.9 15.0 Q226.4 16.45 227.65 19.9 228.5 21.75 228.25 23.9 227.45 30.5 223.8 36.05 208.25 59.9 193.15 84.0 L192.4 78.15 Q194.65 77.1 196.15 75.2 203.35 65.8 209.1 55.55 210.45 53.15 209.85 50.5 214.35 49.15 215.7 44.75 217.45 39.1 216.75 33.3 216.6 31.8 218.0 31.15 219.15 30.55 220.45 30.05 222.85 29.3 224.0 27.05 227.25 20.6 222.55 15.35 L222.9 15.0 M186.5 69.1 L183.4 77.65 182.55 74.2 186.5 69.1 M224.8 195.6 Q230.45 198.3 235.95 201.25 246.2 206.6 247.5 218.1 248.0 222.45 244.25 223.9 L244.7 222.25 Q245.15 217.0 240.15 214.4 233.75 211.0 227.0 208.25 223.55 206.85 222.6 203.25 222.25 201.8 222.5 200.45 223.2 196.9 220.5 194.3 222.65 194.65 224.8 195.6 M109.3 15.25 L110.15 15.1 111.8 18.0 Q113.4 20.95 113.4 24.4 113.45 36.2 112.7 47.9 L111.75 63.2 Q110.95 76.25 116.2 88.3 119.35 95.65 127.4 95.5 120.25 97.65 114.9 92.15 109.55 86.6 109.15 78.85 108.9 74.3 104.75 72.75 108.9 70.45 109.4 65.9 109.7 62.8 109.45 59.8 108.95 53.3 104.0 49.3 105.05 49.05 105.8 48.15 106.25 47.65 106.3 47.05 107.1 39.4 104.25 32.15 L106.4 33.0 108.65 33.4 109.25 31.75 Q112.35 21.6 105.7 13.05 L106.65 12.85 109.3 15.25 M113.8 128.8 L111.55 124.1 Q107.5 115.85 102.3 108.3 L111.95 111.2 113.8 128.8 M100.9 147.0 Q105.0 157.05 102.9 167.55 L102.35 169.85 Q100.35 177.65 95.85 184.3 99.15 182.0 103.0 180.6 107.85 178.85 110.55 174.65 L101.45 190.4 Q98.55 195.6 93.75 199.25 91.1 196.5 89.45 193.15 84.55 183.25 85.25 172.05 86.4 153.4 94.85 136.7 98.65 141.35 100.9 147.0" fill="url(#gradient1)" fill-rule="evenodd" stroke="none"/>
      <path d="M180.4 172.25 Q180.05 179.95 185.1 186.5 192.7 196.3 204.5 193.95 202.0 195.45 199.15 195.95 L196.85 195.85 Q189.85 194.9 185.4 189.0 176.85 177.75 173.4 164.0 174.95 169.45 178.35 173.7 L179.25 173.6 179.4 172.2 180.4 172.25 M222.55 15.35 L221.85 14.65 222.9 15.0 222.55 15.35 M189.05 8.6 Q183.35 23.6 175.3 37.35 177.2 33.75 178.3 29.85 181.65 17.85 174.75 7.7 178.95 4.3 184.25 3.9 L185.75 4.55 Q188.15 5.8 189.05 8.6 M155.8 78.85 L153.05 85.55 Q150.95 91.25 150.95 95.4 L151.25 97.95 151.9 99.65 Q149.3 100.05 149.5 97.45 150.05 89.65 153.6 82.7 L155.8 78.85" fill="#4f365a" fill-rule="evenodd" stroke="none"/>
    </g>
    <linearGradient gradientTransform="matrix(-0.0456, 0.1266, -0.0359, -0.0129, 283.5, 233.8)" gradientUnits="userSpaceOnUse" id="gradient1" spreadMethod="pad" x1="-819.2" x2="819.2">
      <stop offset="0.0" stop-color="#4f365a"/>
      <stop offset="1.0" stop-color="#000000"/>
    </linearGradient>
    <g id="sprite2" transform="matrix(1.0, 0.0, 0.0, 1.0, -38.75, 221.5)">
      <use ffdec:characterId="3659" height="432.35" transform="matrix(1.0, 0.0, 0.0, 1.0, 38.75, -221.5)" width="373.0" xlink:href="#shape3"/>
      <filter id="filter2">
        <feColorMatrix in="SourceGraphic" result="filterResult1" type="matrix" values="0 0 0 0 1.0,0 0 0 0 0.4,0 0 0 0 0.0,0 0 0 1 0"/>
        <feConvolveMatrix divisor="462.0" in="filterResult1" kernelMatrix="1 1 1 1 1 1 1 1 1 1 1 1 1 1 1 1 1 1 1 1 1 1 1 1 1 1 1 1 1 1 1 1 1 1 1 1 1 1 1 1 1 1 1 1 1 1 1 1 1 1 1 1 1 1 1 1 1 1 1 1 1 1 1 1 1 1 1 1 1 1 1 1 1 1 1 1 1 1 1 1 1 1 1 1 1 1 1 1 1 1 1 1 1 1 1 1 1 1 1 1 1 1 1 1 1 1 1 1 1 1 1 1 1 1 1 1 1 1 1 1 1 1 1 1 1 1 1 1 1 1 1 1 1 1 1 1 1 1 1 1 1 1 1 1 1 1 1 1 1 1 1 1 1 1 1 1 1 1 1 1 1 1 1 1 1 1 1 1 1 1 1 1 1 1 1 1 1 1 1 1 1 1 1 1 1 1 1 1 1 1 1 1 1 1 1 1 1 1 1 1 1 1 1 1 1 1 1 1 1 1 1 1 1 1 1 1 1 1 1 1 1 1 1 1 1 1 1 1 1 1 1 1 1 1 1 1 1 1 1 1 1 1 1 1 1 1 1 1 1 1 1 1 1 1 1 1 1 1 1 1 1 1 1 1 1 1 1 1 1 1 1 1 1 1 1 1 1 1 1 1 1 1 1 1 1 1 1 1 1 1 1 1 1 1 1 1 1 1 1 1 1 1 1 1 1 1 1 1 1 1 1 1 1 1 1 1 1 1 1 1 1 1 1 1 1 1 1 1 1 1 1 1 1 1 1 1 1 1 1 1 1 1 1 1 1 1 1 1 1 1 1 1 1 1 1 1 1 1 1 1 1 1 1 1 1 1 1 1 1 1 1 1 1 1 1 1 1 1 1 1 1 1 1 1 1 1 1 1 1 1 1 1 1 1 1 1 1 1 1 1 1 1 1 1 1 1 1 1 1 1 1 1 1 1 1 1 1 1 1 1 1 1 1 1 1 1 1 1 1 1 1 1 1 1 1 1 1 1 1 1 1 1 1 1 1 1 1 1 1 1 1 1 1 1 1 1 1 1 1 1 1 1" order="22 21" result="filterResult2"/>
        <feConvolveMatrix divisor="462.0" in="filterResult2" kernelMatrix="1 1 1 1 1 1 1 1 1 1 1 1 1 1 1 1 1 1 1 1 1 1 1 1 1 1 1 1 1 1 1 1 1 1 1 1 1 1 1 1 1 1 1 1 1 1 1 1 1 1 1 1 1 1 1 1 1 1 1 1 1 1 1 1 1 1 1 1 1 1 1 1 1 1 1 1 1 1 1 1 1 1 1 1 1 1 1 1 1 1 1 1 1 1 1 1 1 1 1 1 1 1 1 1 1 1 1 1 1 1 1 1 1 1 1 1 1 1 1 1 1 1 1 1 1 1 1 1 1 1 1 1 1 1 1 1 1 1 1 1 1 1 1 1 1 1 1 1 1 1 1 1 1 1 1 1 1 1 1 1 1 1 1 1 1 1 1 1 1 1 1 1 1 1 1 1 1 1 1 1 1 1 1 1 1 1 1 1 1 1 1 1 1 1 1 1 1 1 1 1 1 1 1 1 1 1 1 1 1 1 1 1 1 1 1 1 1 1 1 1 1 1 1 1 1 1 1 1 1 1 1 1 1 1 1 1 1 1 1 1 1 1 1 1 1 1 1 1 1 1 1 1 1 1 1 1 1 1 1 1 1 1 1 1 1 1 1 1 1 1 1 1 1 1 1 1 1 1 1 1 1 1 1 1 1 1 1 1 1 1 1 1 1 1 1 1 1 1 1 1 1 1 1 1 1 1 1 1 1 1 1 1 1 1 1 1 1 1 1 1 1 1 1 1 1 1 1 1 1 1 1 1 1 1 1 1 1 1 1 1 1 1 1 1 1 1 1 1 1 1 1 1 1 1 1 1 1 1 1 1 1 1 1 1 1 1 1 1 1 1 1 1 1 1 1 1 1 1 1 1 1 1 1 1 1 1 1 1 1 1 1 1 1 1 1 1 1 1 1 1 1 1 1 1 1 1 1 1 1 1 1 1 1 1 1 1 1 1 1 1 1 1 1 1 1 1 1 1 1 1 1 1 1 1 1 1 1 1 1 1 1 1 1 1 1 1 1 1 1 1 1 1 1 1 1 1 1 1 1 1 1 1" order="22 21" result="filterResult3"/>
        <feComposite in="SourceGraphic" in2="filterResult3" operator="over" result="filterResult4"/>
      </filter>
      <use ffdec:characterId="3658" filter="url(#filter2)" height="14.0" transform="matrix(1.0, 0.0, 0.0, 1.0, 189.9, -100.1)" width="78.45" xlink:href="#sprite3"/>
      <use ffdec:characterId="3656" height="273.4" transform="matrix(1.0, 0.0, 0.0, 1.0, 52.85, -161.85)" width="339.9" xlink:href="#shape5"/>
    </g>
    <g id="shape3" transform="matrix(1.0, 0.0, 0.0, 1.0, -38.75, 221.5)">
      <path d="M206.3 -200.95 L210.95 -192.35 212.9 -189.5 Q214.25 -187.2 215.35 -186.1 L215.75 -186.1 215.75 -186.15 Q215.1 -192.1 215.1 -195.3 L215.1 -195.6 214.85 -200.7 214.95 -204.35 Q215.05 -205.75 215.4 -206.75 L215.35 -206.85 215.35 -207.6 215.25 -207.75 216.05 -207.95 223.6 -200.75 Q232.05 -192.75 236.35 -189.45 L241.45 -201.95 Q244.7 -209.8 248.9 -213.95 L249.0 -213.85 249.15 -214.05 Q251.7 -216.65 253.65 -217.7 261.1 -221.8 267.9 -221.5 274.15 -221.25 282.25 -217.05 285.9 -215.2 293.25 -211.9 297.3 -209.95 300.15 -208.15 L300.45 -208.45 301.3 -208.65 301.45 -208.45 Q302.5 -208.75 303.6 -208.15 L306.35 -206.35 310.05 -205.05 313.6 -203.2 319.55 -199.7 Q323.7 -197.25 325.75 -196.35 328.35 -195.15 334.3 -193.55 343.4 -191.15 353.8 -189.85 L361.1 -190.25 Q363.75 -190.8 369.55 -189.1 L371.35 -188.35 Q372.2 -187.85 373.0 -187.6 379.05 -185.8 379.35 -183.95 377.85 -183.05 377.45 -183.2 L375.5 -183.7 Q372.7 -183.7 370.0 -181.65 L369.05 -180.75 Q369.45 -179.1 372.2 -177.15 373.0 -176.55 377.5 -173.95 378.2 -173.55 380.65 -173.0 L382.25 -172.5 381.6 -173.45 Q384.45 -172.9 386.0 -170.1 L388.85 -168.2 Q392.7 -165.95 394.85 -160.85 L396.05 -157.4 396.75 -157.1 396.75 -157.0 397.6 -153.6 397.75 -152.35 399.75 -149.85 403.1 -145.8 Q404.0 -144.65 406.25 -138.35 L408.1 -132.75 410.2 -128.15 Q411.75 -123.95 411.75 -118.45 411.75 -113.55 409.4 -106.0 410.2 -104.25 410.55 -101.95 L411.1 -95.6 Q411.75 -90.35 411.75 -83.15 L410.85 -73.05 410.2 -68.6 410.2 -68.55 410.5 -68.55 Q411.25 -62.85 411.25 -60.1 411.25 -49.05 408.6 -37.35 L406.25 -26.4 Q404.5 -19.9 401.25 -15.2 399.65 -12.95 383.85 6.55 373.1 19.85 369.25 28.6 L368.3 28.6 367.55 14.9 367.6 11.4 Q365.45 17.4 363.45 24.15 360.3 34.85 354.3 56.4 351.05 66.75 343.0 88.05 336.85 106.25 336.55 119.15 L337.05 119.05 350.75 135.9 Q352.65 138.25 358.7 143.95 364.85 149.7 367.0 152.3 373.6 160.3 382.5 169.2 384.2 170.95 388.25 176.85 391.5 181.5 392.65 184.05 L393.35 183.95 Q394.15 183.95 394.4 184.25 L394.6 184.85 393.25 185.8 393.25 186.1 393.1 187.2 392.35 187.85 391.45 186.75 Q388.95 187.9 386.7 187.8 380.05 187.5 378.1 187.85 L373.5 188.5 369.0 189.35 354.8 192.45 Q322.3 197.6 308.5 198.6 L268.05 201.45 216.6 204.85 187.15 207.95 Q152.85 210.85 117.0 210.85 88.65 210.85 78.65 207.7 75.25 206.6 72.1 204.55 67.85 201.75 66.4 201.05 62.15 198.95 58.05 194.05 56.55 192.3 52.1 185.95 47.3 179.2 44.7 171.3 42.1 163.45 42.1 155.9 L43.1 143.9 Q43.1 139.0 40.95 128.35 38.75 117.65 38.75 116.65 L38.8 114.1 Q39.1 112.5 40.35 113.05 L40.6 113.3 Q41.95 110.65 44.4 107.0 L50.5 97.95 56.0 89.3 Q57.35 86.85 59.7 85.1 61.8 83.45 66.35 81.3 73.15 78.05 81.0 74.0 91.1 68.8 95.05 66.15 L100.8 61.55 Q101.65 60.9 102.5 60.4 103.25 58.75 107.75 57.5 114.15 55.65 121.25 58.05 125.25 58.55 129.3 60.1 L137.3 58.4 Q148.5 56.2 150.1 55.4 L163.4 48.85 Q167.55 46.85 177.85 40.8 180.3 39.5 182.25 38.65 L182.1 36.75 Q181.65 32.7 181.55 24.6 L181.4 12.45 181.05 6.15 180.65 0.3 Q180.65 -4.65 183.6 -22.85 L183.9 -25.8 184.35 -28.7 185.1 -32.35 185.4 -38.3 186.1 -43.95 186.15 -44.3 186.35 -45.5 Q181.0 -54.35 181.0 -55.15 181.0 -58.75 182.1 -61.2 L183.25 -63.1 182.85 -63.6 183.4 -64.35 187.05 -68.55 Q188.75 -70.2 190.45 -73.15 L191.15 -74.3 190.75 -75.0 Q189.2 -77.75 188.2 -81.45 187.35 -84.7 186.65 -89.95 L186.0 -95.55 185.9 -95.7 185.7 -96.25 185.85 -96.85 185.85 -97.05 185.9 -97.85 185.7 -99.75 185.65 -102.1 Q185.65 -105.75 185.8 -107.05 L186.95 -112.9 188.35 -118.9 189.65 -123.55 191.6 -128.9 192.95 -131.65 194.05 -134.25 197.05 -139.6 197.2 -139.95 Q190.8 -141.55 189.15 -143.15 190.05 -144.7 192.3 -145.75 195.0 -147.05 195.3 -147.3 L197.65 -149.6 198.2 -150.05 Q196.5 -150.85 195.0 -151.7 191.35 -153.75 189.8 -155.5 188.65 -156.8 188.65 -157.95 188.65 -158.9 188.8 -159.55 L193.3 -159.4 Q198.1 -159.4 199.55 -160.1 196.3 -163.1 196.0 -163.95 194.6 -166.75 191.8 -173.7 191.3 -175.0 190.0 -183.45 188.8 -191.6 188.8 -193.05 188.8 -193.45 189.8 -194.45 L191.95 -189.6 Q193.15 -186.55 194.75 -184.35 195.75 -183.05 198.35 -180.7 L198.8 -180.7 198.85 -180.2 199.55 -179.6 204.8 -174.95 Q204.8 -180.0 205.1 -187.9 L205.5 -200.95 206.3 -200.95 M369.9 -20.25 L367.85 -19.35 Q355.8 -14.4 350.95 -12.05 L349.35 -11.45 348.65 -11.1 Q348.3 -12.15 348.3 -13.55 348.3 -17.6 349.95 -25.75 350.95 -30.85 352.05 -33.45 L351.85 -34.3 352.15 -35.3 353.5 -38.75 Q353.7 -39.45 354.55 -40.6 L355.75 -42.35 Q358.4 -47.3 358.9 -49.25 L359.8 -52.7 Q359.95 -53.55 360.65 -54.95 L361.3 -56.3 361.3 -56.45 362.0 -58.05 363.2 -61.45 357.6 -57.15 356.45 -56.7 353.35 -54.8 351.3 -53.7 351.25 -53.75 Q350.2 -54.55 350.2 -56.0 350.6 -58.35 350.4 -59.4 L350.25 -62.4 349.9 -65.4 Q348.55 -71.2 345.9 -77.4 L341.35 -73.35 341.3 -73.35 339.7 -72.3 335.35 -69.95 331.0 -67.6 330.9 -68.7 334.4 -84.95 Q337.9 -101.65 337.9 -104.6 337.9 -115.1 336.15 -122.95 336.1 -121.8 335.2 -119.0 L333.75 -114.45 Q331.6 -115.85 330.6 -119.25 L329.5 -124.6 326.25 -135.15 322.15 -144.95 Q319.1 -152.6 319.1 -155.8 L319.15 -156.2 Q318.75 -156.35 317.9 -156.75 L317.25 -156.3 Q315.05 -155.05 313.75 -153.55 313.35 -153.05 312.0 -152.1 L310.6 -150.95 310.05 -149.9 Q309.35 -149.05 308.1 -149.05 307.55 -149.05 305.65 -149.85 303.7 -150.75 302.75 -151.45 L302.25 -151.3 304.5 -147.85 Q305.55 -146.4 305.55 -144.55 305.55 -143.0 303.7 -141.7 299.8 -138.9 299.0 -138.15 L293.25 -132.3 Q292.2 -132.3 285.6 -136.95 L276.65 -143.05 Q279.9 -138.65 282.35 -132.95 L286.05 -122.7 285.65 -121.95 Q283.0 -122.9 280.25 -125.7 L276.8 -129.9 Q275.6 -131.5 272.1 -133.9 L267.4 -137.3 266.25 -137.55 270.9 -131.85 275.4 -126.05 278.4 -120.7 278.6 -120.25 281.5 -114.8 281.55 -114.7 281.4 -114.4 281.35 -114.45 281.15 -114.6 282.35 -111.9 Q283.75 -110.95 285.3 -108.7 L289.4 -102.35 Q292.85 -97.45 294.75 -89.95 L295.9 -83.75 296.75 -77.6 297.25 -71.7 297.65 -66.35 298.0 -66.05 297.95 -66.0 297.7 -65.75 297.75 -65.2 Q297.25 -64.8 296.75 -64.7 L296.45 -65.05 293.05 -63.55 287.15 -61.3 283.25 -60.35 278.9 -59.2 277.4 -58.25 280.05 -55.05 283.15 -51.6 286.3 -48.3 Q288.65 -45.55 290.6 -41.45 L293.55 -34.7 Q294.6 -32.5 295.7 -28.25 L286.35 -22.35 279.9 -18.15 278.8 -18.95 Q272.45 -24.25 269.0 -28.2 267.3 -30.15 265.5 -32.9 L262.6 -37.45 Q259.0 -42.95 255.5 -50.35 L255.7 -50.75 258.8 -56.15 Q259.8 -58.1 262.45 -61.5 L266.65 -66.85 271.0 -72.2 272.3 -73.5 273.55 -74.9 276.8 -77.65 277.8 -76.8 278.3 -76.4 278.9 -75.75 278.6 -76.75 278.05 -78.65 276.8 -82.45 Q274.8 -86.45 271.65 -89.95 L270.2 -91.35 269.8 -91.35 267.75 -89.95 Q265.95 -88.65 265.05 -88.45 254.85 -85.35 253.5 -85.35 L247.85 -85.55 244.45 -85.7 Q245.65 -84.7 246.35 -84.35 L249.75 -83.2 252.1 -82.6 271.15 -81.2 276.15 -78.2 Q271.25 -74.8 266.35 -68.2 L258.15 -57.1 Q256.75 -55.2 255.0 -51.4 L252.9 -56.05 244.85 -74.55 Q244.4 -74.4 244.4 -73.45 244.4 -72.8 245.95 -69.3 L248.05 -64.4 Q249.05 -61.4 251.6 -55.15 252.35 -53.2 254.2 -49.7 L252.85 -46.65 Q249.4 -38.45 249.4 -35.0 249.4 -34.4 249.5 -34.7 L249.9 -34.7 253.05 -45.45 Q253.45 -46.75 254.65 -48.85 L256.25 -45.85 259.0 -41.3 261.75 -36.6 Q264.25 -32.1 268.35 -27.35 272.55 -22.45 277.6 -18.3 L278.8 -17.45 273.0 -13.35 277.95 -1.65 280.05 4.3 282.3 10.5 Q286.15 20.1 287.45 22.7 288.95 25.7 290.75 28.3 288.9 33.55 288.25 34.55 287.4 35.8 279.3 51.2 276.35 56.8 272.95 61.2 271.65 61.6 271.65 61.8 L272.1 62.2 270.9 63.6 273.45 62.45 Q281.7 60.95 287.4 59.35 L299.75 56.0 Q304.2 54.95 314.55 53.75 L331.9 52.1 332.25 51.6 332.9 50.9 334.05 50.6 335.1 50.15 Q338.0 47.15 339.75 43.85 L342.9 37.55 344.25 34.3 Q345.35 32.2 347.1 32.15 L347.2 32.35 347.3 32.95 345.6 37.5 343.25 42.5 Q341.75 45.15 338.55 51.75 337.8 53.3 335.7 62.1 L334.85 68.25 331.7 84.95 Q336.1 74.95 340.35 64.05 L344.9 51.55 346.65 45.2 Q347.6 41.45 348.8 39.15 349.25 39.7 349.35 40.85 L348.95 45.1 348.35 49.95 Q347.75 53.7 346.35 59.05 L343.8 67.75 340.9 76.85 338.15 85.6 Q336.35 91.25 335.5 94.65 L333.55 103.65 332.45 108.05 332.65 108.6 332.8 109.85 332.35 111.75 Q331.9 113.0 331.9 113.6 L331.45 116.45 330.4 119.3 330.4 123.05 330.55 123.2 331.4 123.35 Q335.25 123.35 336.0 121.85 L336.05 120.35 336.0 120.35 Q335.65 118.6 335.45 115.6 L335.25 111.9 Q335.25 108.45 339.25 94.6 L343.3 81.3 348.7 66.55 Q351.85 57.75 353.8 51.3 L363.0 20.85 365.15 13.25 Q366.45 8.9 367.75 5.8 369.55 0.45 370.8 -2.3 371.65 -4.15 372.65 -5.4 L372.65 -5.45 372.55 -5.45 Q370.9 -5.45 370.05 -9.65 L369.55 -14.05 Q369.55 -16.9 370.0 -20.05 L370.05 -20.35 369.9 -20.25 M208.65 -155.5 L208.35 -155.85 208.3 -155.7 208.65 -155.5 M189.0 -110.4 L188.55 -110.4 187.9 -107.3 187.8 -106.7 187.7 -104.65 188.55 -105.15 Q191.05 -106.0 196.15 -103.45 L198.1 -102.15 200.3 -100.85 Q205.3 -97.9 205.3 -94.35 205.3 -93.35 205.9 -91.6 206.4 -92.7 206.55 -94.0 L205.3 -98.85 204.3 -101.95 203.55 -103.6 Q202.75 -105.35 199.05 -108.2 195.8 -110.7 195.3 -110.7 L189.9 -110.55 189.0 -110.4 M187.8 -99.6 L187.9 -98.25 189.2 -90.5 189.6 -88.25 Q193.0 -89.9 196.2 -89.5 L197.55 -91.25 Q199.25 -93.1 199.25 -94.45 199.25 -98.25 197.6 -99.75 196.45 -100.5 195.45 -101.4 L187.65 -102.05 187.8 -99.6 M183.95 -59.8 L190.05 -59.65 Q193.7 -58.75 196.5 -56.55 199.6 -54.1 200.4 -51.2 L202.35 -52.05 Q206.25 -53.25 209.8 -51.05 211.55 -50.1 212.5 -47.95 L212.75 -47.35 213.05 -47.4 Q213.75 -47.4 217.25 -45.05 220.85 -42.6 221.05 -42.55 222.05 -42.75 222.05 -44.15 222.05 -46.95 220.2 -50.1 218.55 -52.9 216.05 -55.05 212.3 -58.2 205.0 -59.35 202.4 -59.75 201.45 -60.5 200.15 -61.55 200.15 -64.2 200.15 -66.35 203.45 -74.95 L203.5 -75.0 Q206.1 -81.75 206.65 -88.15 L205.1 -86.55 Q198.4 -80.8 196.05 -77.7 L194.3 -75.0 193.05 -73.0 Q191.05 -69.8 189.55 -68.3 L187.25 -65.65 187.25 -65.55 186.95 -65.3 186.55 -64.85 Q186.4 -64.55 186.4 -64.05 186.4 -63.6 184.65 -61.1 L183.9 -59.85 183.85 -59.75 183.95 -59.8 M191.8 -75.95 L191.95 -75.65 193.05 -77.6 193.4 -78.1 193.05 -78.1 192.85 -78.25 192.8 -79.05 192.75 -84.95 Q192.8 -86.4 193.1 -87.4 L189.85 -87.0 191.3 -77.35 Q191.3 -76.7 191.8 -75.95 M195.45 5.95 Q192.35 10.65 191.35 16.05 L191.3 16.15 191.3 17.25 Q191.15 18.6 190.5 18.6 189.7 18.6 189.7 18.1 L189.8 17.25 189.6 15.95 189.8 14.4 Q189.25 10.2 188.8 4.8 188.25 -1.8 188.25 -6.2 188.25 -11.45 189.65 -22.8 L191.5 -37.05 187.7 -43.25 186.7 -27.1 186.65 -26.85 185.4 -21.15 185.25 -20.4 Q184.9 -20.0 184.7 -19.2 L184.45 -16.95 184.15 -15.65 Q183.65 -13.35 183.5 -11.65 L183.15 -9.75 182.45 -4.05 182.0 1.65 Q182.0 4.5 182.55 9.3 L182.9 13.1 182.95 14.65 182.85 15.05 182.85 15.6 183.15 16.05 183.25 16.35 183.2 16.4 Q182.9 16.9 182.9 18.0 L183.25 25.25 Q183.05 25.5 182.95 25.9 L182.85 27.6 Q182.85 29.95 183.15 31.4 L183.2 31.75 183.15 34.2 Q183.15 37.25 183.4 38.65 L184.5 44.25 Q184.6 45.05 185.55 46.8 L186.5 49.35 188.0 52.4 Q189.05 54.35 189.35 54.35 191.1 54.35 193.35 53.1 193.95 52.75 195.05 52.15 L195.55 51.8 195.6 52.15 195.6 51.75 195.8 51.35 195.65 51.0 195.65 50.15 195.75 50.0 195.9 49.5 195.7 48.45 Q195.9 46.85 196.85 44.2 198.0 40.9 198.0 36.9 L196.9 33.65 Q195.75 30.45 195.75 27.45 195.75 24.5 196.4 22.4 196.9 20.55 198.1 18.65 197.4 18.0 196.75 16.5 195.9 14.6 195.5 12.55 195.05 10.0 195.5 5.95 L195.5 5.8 195.45 5.95 M206.15 -12.05 L205.1 -11.65 204.6 -11.75 204.6 -11.3 Q204.25 -10.95 204.25 -10.5 L204.45 -9.5 204.75 -8.55 Q204.5 -7.85 204.55 -7.35 204.6 -6.5 206.15 -6.5 L209.8 -6.0 214.5 -5.55 Q215.25 -5.55 215.75 -6.0 216.25 -6.5 216.25 -7.25 216.25 -11.1 210.25 -12.1 207.9 -12.5 206.15 -12.05 M268.55 -91.85 L268.7 -91.9 268.65 -91.95 Q270.7 -94.2 266.9 -98.1 263.05 -102.0 257.05 -101.1 251.05 -100.2 249.1 -96.1 251.1 -95.25 251.55 -93.8 252.6 -90.65 252.6 -88.2 L252.55 -87.5 Q259.35 -88.15 264.35 -89.95 L268.55 -91.85 M250.4 -87.35 L250.5 -88.3 250.4 -87.9 250.3 -87.35 250.4 -87.35 M246.95 -15.6 L246.7 -15.65 245.85 -12.15 245.35 -10.1 245.25 -9.85 Q247.8 -6.0 249.6 2.65 251.2 11.1 250.8 16.7 251.5 15.45 251.95 13.0 L252.35 9.95 252.45 9.25 Q253.25 2.75 252.4 -2.35 251.5 -7.75 248.75 -12.7 L246.95 -15.6 M408.5 -103.3 L408.2 -102.5 408.65 -102.55 408.65 -102.6 408.5 -103.3 M358.4 -170.95 L358.2 -170.8 358.35 -170.75 358.4 -170.95 M387.2 -166.65 L387.25 -166.4 387.4 -166.5 387.2 -166.65 M374.6 -52.6 L377.4 -51.1 Q381.85 -48.2 381.85 -45.95 381.85 -43.4 378.65 -40.15 374.75 -36.2 369.55 -36.2 L369.4 -36.2 367.75 -35.0 366.0 -33.95 368.25 -32.1 Q370.65 -29.85 371.55 -28.35 L373.65 -29.2 373.75 -29.25 378.4 -35.0 Q384.35 -42.3 384.35 -44.65 L382.05 -57.85 Q380.45 -52.4 377.75 -52.4 L374.6 -52.6 M352.15 -55.7 L352.15 -55.65 352.25 -55.7 352.15 -55.7 M376.25 -30.55 L376.5 -30.7 376.45 -30.75 376.25 -30.55 M369.7 23.7 L369.75 23.85 369.9 23.6 369.7 23.7 M347.7 46.4 L347.65 46.35 347.65 46.45 347.7 46.4 M280.75 59.0 L280.5 59.1 280.75 58.95 280.75 59.0 M231.25 10.45 L230.75 7.5 230.65 7.15 Q228.3 8.5 222.4 10.6 215.95 12.85 212.45 13.45 L212.5 13.6 214.1 14.35 214.6 14.55 215.6 14.85 216.15 14.95 Q226.4 16.25 229.8 13.5 231.65 12.15 231.25 10.45 M182.45 41.35 L179.2 43.25 Q172.1 47.3 165.9 49.85 157.5 54.3 152.15 56.6 144.0 60.05 132.9 61.3 137.5 62.4 147.25 63.15 L147.5 63.2 Q147.75 63.2 147.75 63.95 L147.5 64.8 142.5 64.9 Q137.2 64.9 127.9 61.75 L127.15 61.75 Q126.95 61.75 126.9 61.4 118.0 58.4 111.5 58.4 108.25 58.4 106.3 59.7 L104.4 61.0 103.95 61.8 101.05 64.25 Q98.45 66.5 95.15 68.15 92.95 69.25 81.3 76.0 72.35 81.25 67.0 83.15 60.6 85.45 57.0 90.5 L55.95 92.1 Q57.8 90.7 61.2 88.6 67.6 84.7 69.5 83.95 L74.85 82.1 81.85 80.3 Q96.9 76.8 98.9 76.8 114.85 76.8 123.9 79.5 133.05 82.25 146.0 90.95 L156.05 98.3 Q162.75 103.3 166.0 105.1 166.75 105.7 166.75 104.45 166.75 103.2 156.5 94.55 L143.6 83.7 138.8 78.95 Q136.05 76.3 132.8 73.9 130.85 72.45 130.3 72.2 128.0 71.1 123.25 70.3 120.55 69.85 118.25 68.8 115.4 67.45 115.4 66.05 L115.45 65.3 115.8 65.05 123.5 65.05 Q129.8 66.2 135.9 68.6 142.7 71.25 145.1 71.8 151.95 73.4 161.85 74.0 168.95 75.0 171.5 79.55 173.2 82.6 177.55 89.15 L184.25 99.45 184.5 99.45 182.45 91.35 Q181.35 86.8 179.5 83.3 178.65 81.7 176.45 79.15 L172.75 75.4 168.5 72.45 Q164.5 69.5 164.5 68.55 164.5 67.2 165.65 64.4 L167.5 59.9 168.5 55.35 Q169.05 53.3 170.4 52.3 L170.25 52.05 170.25 51.9 170.75 52.05 171.25 51.8 171.55 51.7 171.85 52.2 174.0 50.6 179.65 47.4 183.3 45.7 182.7 42.8 182.45 41.35 M219.45 74.05 L219.6 74.15 219.75 74.05 219.45 74.05" fill="#000000" fill-rule="evenodd" stroke="none"/>
      <path d="M206.15 -12.05 Q207.9 -12.5 210.25 -12.1 216.25 -11.1 216.25 -7.25 216.25 -6.5 215.75 -6.0 215.25 -5.55 214.5 -5.55 L209.8 -6.0 206.15 -6.5 Q204.6 -6.5 204.55 -7.35 204.5 -7.85 204.75 -8.55 L204.45 -9.5 204.25 -10.5 Q204.25 -10.95 204.6 -11.3 L204.6 -11.75 205.1 -11.65 206.15 -12.05 M182.45 41.35 L182.7 42.8 183.3 45.7 179.65 47.4 174.0 50.6 171.85 52.2 171.55 51.7 171.25 51.8 170.75 52.05 170.25 51.9 170.25 52.05 170.4 52.3 Q169.05 53.3 168.5 55.35 L167.5 59.9 165.65 64.4 Q164.5 67.2 164.5 68.55 164.5 69.5 168.5 72.45 L172.75 75.4 176.45 79.15 Q178.65 81.7 179.5 83.3 181.35 86.8 182.45 91.35 L184.5 99.45 184.25 99.45 177.55 89.15 Q173.2 82.6 171.5 79.55 168.95 75.0 161.85 74.0 151.95 73.4 145.1 71.8 142.7 71.25 135.9 68.6 129.8 66.2 123.5 65.05 L115.8 65.05 115.45 65.3 115.4 66.05 Q115.4 67.45 118.25 68.8 120.55 69.85 123.25 70.3 128.0 71.1 130.3 72.2 130.85 72.45 132.8 73.9 136.05 76.3 138.8 78.95 L143.6 83.7 156.5 94.55 Q166.75 103.2 166.75 104.45 166.75 105.7 166.0 105.1 162.75 103.3 156.05 98.3 L146.0 90.95 Q133.05 82.25 123.9 79.5 114.85 76.8 98.9 76.8 96.9 76.8 81.85 80.3 L74.85 82.1 69.5 83.95 Q67.6 84.7 61.2 88.6 57.8 90.7 55.95 92.1 L57.0 90.5 Q60.6 85.45 67.0 83.15 72.35 81.25 81.3 76.0 92.95 69.25 95.15 68.15 98.45 66.5 101.05 64.25 L103.95 61.8 104.4 61.0 106.3 59.7 Q108.25 58.4 111.5 58.4 118.0 58.4 126.9 61.4 126.95 61.75 127.15 61.75 L127.9 61.75 Q137.2 64.9 142.5 64.9 L147.5 64.8 147.75 63.95 Q147.75 63.2 147.5 63.2 L147.25 63.15 Q137.5 62.4 132.9 61.3 144.0 60.05 152.15 56.6 157.5 54.3 165.9 49.85 172.1 47.3 179.2 43.25 L182.45 41.35" fill="#ffffff" fill-rule="evenodd" stroke="none"/>
      <path d="M268.55 -91.85 L264.35 -89.95 Q259.35 -88.15 252.55 -87.5 L252.6 -88.2 Q252.6 -90.65 251.55 -93.8 251.1 -95.25 249.1 -96.1 251.05 -100.2 257.05 -101.1 263.05 -102.0 266.9 -98.1 270.7 -94.2 268.65 -91.95 L268.55 -91.85" fill="#e6ce00" fill-rule="evenodd" stroke="none"/>
      <path d="M279.9 -18.15 L286.35 -22.35 295.7 -28.25 Q294.6 -32.5 293.55 -34.7 L290.6 -41.45 Q288.65 -45.55 286.3 -48.3 L283.15 -51.6 280.05 -55.05 277.4 -58.25 278.9 -59.2 283.25 -60.35 287.15 -61.3 293.05 -63.55 296.45 -65.05 296.75 -64.7 Q297.25 -64.8 297.75 -65.2 L297.7 -65.75 297.95 -66.0 298.0 -66.05 297.65 -66.35 297.25 -71.7 296.75 -77.6 295.9 -83.75 294.75 -89.95 Q292.85 -97.45 289.4 -102.35 L285.3 -108.7 Q283.75 -110.95 282.35 -111.9 L281.15 -114.6 281.35 -114.45 281.4 -114.4 281.55 -114.7 281.5 -114.8 278.6 -120.25 278.4 -120.7 275.4 -126.05 270.9 -131.85 266.25 -137.55 267.4 -137.3 272.1 -133.9 Q275.6 -131.5 276.8 -129.9 L280.25 -125.7 Q283.0 -122.9 285.65 -121.95 L286.05 -122.7 282.35 -132.95 Q279.9 -138.65 276.65 -143.05 L285.6 -136.95 Q292.2 -132.3 293.25 -132.3 L299.0 -138.15 Q299.8 -138.9 303.7 -141.7 305.55 -143.0 305.55 -144.55 305.55 -146.4 304.5 -147.85 L302.25 -151.3 302.75 -151.45 Q303.7 -150.75 305.65 -149.85 307.55 -149.05 308.1 -149.05 309.35 -149.05 310.05 -149.9 L310.6 -150.95 312.0 -152.1 Q313.35 -153.05 313.75 -153.55 315.05 -155.05 317.25 -156.3 L317.9 -156.75 Q318.75 -156.35 319.15 -156.2 L319.1 -155.8 Q319.1 -152.6 322.15 -144.95 L326.25 -135.15 329.5 -124.6 330.6 -119.25 Q331.6 -115.85 333.75 -114.45 L335.2 -119.0 Q336.1 -121.8 336.15 -122.95 337.9 -115.1 337.9 -104.6 337.9 -101.65 334.4 -84.95 L330.9 -68.7 331.0 -67.6 335.35 -69.95 339.7 -72.3 341.3 -73.35 341.35 -73.35 345.9 -77.4 Q348.55 -71.2 349.9 -65.4 L350.25 -62.4 350.4 -59.4 Q350.6 -58.35 350.2 -56.0 350.2 -54.55 351.25 -53.75 L351.3 -53.7 353.35 -54.8 356.45 -56.7 357.6 -57.15 363.2 -61.45 362.0 -58.05 361.3 -56.45 361.3 -56.3 360.65 -54.95 Q359.95 -53.55 359.8 -52.7 L358.9 -49.25 Q358.4 -47.3 355.75 -42.35 L354.55 -40.6 Q353.7 -39.45 353.5 -38.75 L352.15 -35.3 351.85 -34.3 352.05 -33.45 Q350.95 -30.85 349.95 -25.75 348.3 -17.6 348.3 -13.55 348.3 -12.15 348.65 -11.1 L349.35 -11.45 350.95 -12.05 Q355.8 -14.4 367.85 -19.35 L369.9 -20.25 370.0 -20.05 Q369.55 -16.9 369.55 -14.05 L370.05 -9.65 Q370.9 -5.45 372.55 -5.45 L372.65 -5.4 Q371.65 -4.15 370.8 -2.3 369.55 0.45 367.75 5.8 366.45 8.9 365.15 13.25 L363.0 20.85 353.8 51.3 Q351.85 57.75 348.7 66.55 L343.3 81.3 339.25 94.6 Q335.25 108.45 335.25 111.9 L335.45 115.6 Q335.65 118.6 336.0 120.35 L336.05 120.35 336.0 121.85 Q335.25 123.35 331.4 123.35 L330.55 123.2 330.4 123.05 330.4 119.3 331.45 116.45 331.9 113.6 Q331.9 113.0 332.35 111.75 L332.8 109.85 332.65 108.6 332.45 108.05 333.55 103.65 335.5 94.65 Q336.35 91.25 338.15 85.6 L340.9 76.85 343.8 67.75 346.35 59.05 Q347.75 53.7 348.35 49.95 L348.95 45.1 349.35 40.85 Q349.25 39.7 348.8 39.15 347.6 41.45 346.65 45.2 L344.9 51.55 340.35 64.05 Q336.1 74.95 331.7 84.95 L334.85 68.25 335.7 62.1 Q337.8 53.3 338.55 51.75 341.75 45.15 343.25 42.5 L345.6 37.5 347.3 32.95 347.2 32.35 347.1 32.15 Q345.35 32.2 344.25 34.3 L342.9 37.55 339.75 43.85 Q338.0 47.15 335.1 50.15 L334.05 50.6 332.9 50.9 332.25 51.6 331.9 52.1 314.55 53.75 Q304.2 54.95 299.75 56.0 L287.4 59.35 Q281.7 60.95 273.45 62.45 L270.9 63.6 272.1 62.2 271.65 61.8 Q271.65 61.6 272.95 61.2 276.35 56.8 279.3 51.2 287.4 35.8 288.25 34.55 288.9 33.55 290.75 28.3 288.95 25.7 287.45 22.7 286.15 20.1 282.3 10.5 L280.05 4.3 277.95 -1.65 273.0 -13.35 278.8 -17.45 279.9 -18.15 M183.9 -59.85 L184.65 -61.1 Q186.4 -63.6 186.4 -64.05 186.4 -64.55 186.55 -64.85 L186.95 -65.3 187.25 -65.55 187.25 -65.65 189.55 -68.3 Q191.05 -69.8 193.05 -73.0 L194.3 -75.0 196.05 -77.7 Q198.4 -80.8 205.1 -86.55 L206.65 -88.15 Q206.1 -81.75 203.5 -75.0 L203.45 -74.95 Q200.15 -66.35 200.15 -64.2 200.15 -61.55 201.45 -60.5 202.4 -59.75 205.0 -59.35 212.3 -58.2 216.05 -55.05 218.55 -52.9 220.2 -50.1 222.05 -46.95 222.05 -44.15 222.05 -42.75 221.05 -42.55 220.85 -42.6 217.25 -45.05 213.75 -47.4 213.05 -47.4 L212.75 -47.35 212.5 -47.95 Q211.55 -50.1 209.8 -51.05 206.25 -53.25 202.35 -52.05 L200.4 -51.2 Q199.6 -54.1 196.5 -56.55 193.7 -58.75 190.05 -59.65 L183.95 -59.8 183.9 -59.85 M187.8 -99.6 L187.65 -102.05 195.45 -101.4 Q196.45 -100.5 197.6 -99.75 199.25 -98.25 199.25 -94.45 199.25 -93.1 197.55 -91.25 L196.2 -89.5 Q193.0 -89.9 189.6 -88.25 L189.2 -90.5 187.9 -98.25 187.8 -99.6 M189.0 -110.4 L189.9 -110.55 195.3 -110.7 Q195.8 -110.7 199.05 -108.2 202.75 -105.35 203.55 -103.6 L204.3 -101.95 205.3 -98.85 206.55 -94.0 Q206.4 -92.7 205.9 -91.6 205.3 -93.35 205.3 -94.35 205.3 -97.9 200.3 -100.85 L198.1 -102.15 196.15 -103.45 Q191.05 -106.0 188.55 -105.15 L187.7 -104.65 187.8 -106.7 187.9 -107.3 188.55 -110.4 189.0 -110.4 M195.55 51.8 L195.05 52.15 Q193.95 52.75 193.35 53.1 191.1 54.35 189.35 54.35 189.05 54.35 188.0 52.4 L186.5 49.35 185.55 46.8 Q184.6 45.05 184.5 44.25 L183.4 38.65 Q183.15 37.25 183.15 34.2 L183.2 31.75 183.15 31.4 Q182.85 29.95 182.85 27.6 L182.95 25.9 Q183.05 25.5 183.25 25.25 L182.9 18.0 Q182.9 16.9 183.2 16.4 L183.25 16.35 183.15 16.05 182.85 15.6 182.85 15.05 182.95 14.65 182.9 13.1 182.55 9.3 Q182.0 4.5 182.0 1.65 L182.45 -4.05 183.15 -9.75 183.5 -11.65 Q183.65 -13.35 184.15 -15.65 L184.45 -16.95 184.7 -19.2 Q184.9 -20.0 185.25 -20.4 L185.4 -21.15 186.65 -26.85 186.7 -27.1 187.7 -43.25 191.5 -37.05 189.65 -22.8 Q188.25 -11.45 188.25 -6.2 188.25 -1.8 188.8 4.8 189.25 10.2 189.8 14.4 L189.6 15.95 189.8 17.25 189.7 18.1 Q189.7 18.6 190.5 18.6 191.15 18.6 191.3 17.25 L191.3 16.15 191.35 16.05 Q192.35 10.65 195.45 5.95 L195.5 5.95 Q195.05 10.0 195.5 12.55 195.9 14.6 196.75 16.5 197.4 18.0 198.1 18.65 196.9 20.55 196.4 22.4 195.75 24.5 195.75 27.45 195.75 30.45 196.9 33.65 L198.0 36.9 Q198.0 40.9 196.85 44.2 195.9 46.85 195.7 48.45 L195.9 49.5 195.75 50.0 195.65 50.15 195.65 51.0 195.8 51.35 195.6 51.75 195.55 51.8 M277.55 -78.5 L278.05 -78.65 278.6 -76.75 278.9 -75.75 278.3 -76.4 277.8 -76.8 276.8 -77.65 276.8 -77.7 277.25 -77.7 Q277.55 -77.8 277.55 -78.5 M374.6 -52.6 L377.75 -52.4 Q380.45 -52.4 382.05 -57.85 L384.35 -44.65 Q384.35 -42.3 378.4 -35.0 L373.75 -29.25 373.65 -29.2 371.55 -28.35 Q370.65 -29.85 368.25 -32.1 L366.0 -33.95 367.75 -35.0 369.4 -36.2 369.55 -36.2 Q374.75 -36.2 378.65 -40.15 381.85 -43.4 381.85 -45.95 381.85 -48.2 377.4 -51.1 L374.6 -52.6 M280.75 59.0 L280.75 58.95 280.5 59.1 280.75 59.0" fill="url(#gradient2)" fill-rule="evenodd" stroke="none"/>
      <path d="M246.95 -15.6 L248.75 -12.7 Q251.5 -7.75 252.4 -2.35 253.25 2.75 252.45 9.25 L252.35 9.95 251.95 13.0 Q251.5 15.45 250.8 16.7 251.2 11.1 249.6 2.65 247.8 -6.0 245.25 -9.85 L245.35 -10.1 245.85 -12.15 246.7 -15.65 246.95 -15.6 M231.25 10.45 Q231.65 12.15 229.8 13.5 226.4 16.25 216.15 14.95 L215.6 14.85 214.6 14.55 214.1 14.35 212.5 13.6 212.45 13.45 Q215.95 12.85 222.4 10.6 228.3 8.5 230.65 7.15 L230.75 7.5 231.25 10.45" fill="url(#gradient3)" fill-rule="evenodd" stroke="none"/>
      <path d="M276.15 -78.2 L271.15 -81.2 252.1 -82.6 249.75 -83.2 246.35 -84.35 Q245.65 -84.7 244.45 -85.7 L247.85 -85.55 253.5 -85.35 Q254.85 -85.35 265.05 -88.45 265.95 -88.65 267.75 -89.95 L269.8 -91.35 270.2 -91.35 271.65 -89.95 Q274.8 -86.45 276.8 -82.45 L278.05 -78.65 277.55 -78.5 277.4 -78.95 277.25 -78.95 276.15 -78.2" fill="url(#gradient4)" fill-rule="evenodd" stroke="none"/>
      <path d="M279.9 -18.15 L278.8 -17.45 277.6 -18.3 Q272.55 -22.45 268.35 -27.35 264.25 -32.1 261.75 -36.6 L259.0 -41.3 256.25 -45.85 254.65 -48.85 Q253.45 -46.75 253.05 -45.45 L249.9 -34.7 249.5 -34.7 Q249.4 -34.4 249.4 -35.0 249.4 -38.45 252.85 -46.65 L254.2 -49.7 Q252.35 -53.2 251.6 -55.15 249.05 -61.4 248.05 -64.4 L245.95 -69.3 Q244.4 -72.8 244.4 -73.45 244.4 -74.4 244.85 -74.55 L252.9 -56.05 255.0 -51.4 Q256.75 -55.2 258.15 -57.1 L266.35 -68.2 Q271.25 -74.8 276.15 -78.2 L277.25 -78.95 277.4 -78.95 277.55 -78.5 Q277.55 -77.8 277.25 -77.7 L276.8 -77.7 276.8 -77.65 273.55 -74.9 272.3 -73.5 271.0 -72.2 266.65 -66.85 262.45 -61.5 Q259.8 -58.1 258.8 -56.15 L255.7 -50.75 255.5 -50.35 Q259.0 -42.95 262.6 -37.45 L265.5 -32.9 Q267.3 -30.15 269.0 -28.2 272.45 -24.25 278.8 -18.95 L279.9 -18.15" fill="url(#gradient5)" fill-rule="evenodd" stroke="none"/>
    </g>
    <linearGradient gradientTransform="matrix(0.0946, 0.1217, -0.7884, 0.6125, 506.3, -191.95)" gradientUnits="userSpaceOnUse" id="gradient2" spreadMethod="pad" x1="-819.2" x2="819.2">
      <stop offset="0.0" stop-color="#3c4a24"/>
      <stop offset="1.0" stop-color="#141812"/>
    </linearGradient>
    <linearGradient gradientTransform="matrix(0.0772, 0.1333, -0.8637, 0.5, 529.45, -152.5)" gradientUnits="userSpaceOnUse" id="gradient3" spreadMethod="pad" x1="-819.2" x2="819.2">
      <stop offset="0.0" stop-color="#3c4a24"/>
      <stop offset="1.0" stop-color="#141812"/>
    </linearGradient>
    <linearGradient gradientTransform="matrix(0.0205, 0.0, 0.0, 0.008, 261.25, -84.8)" gradientUnits="userSpaceOnUse" id="gradient4" spreadMethod="pad" x1="-819.2" x2="819.2">
      <stop offset="0.0" stop-color="#3c4a24"/>
      <stop offset="1.0" stop-color="#141812"/>
    </linearGradient>
    <linearGradient gradientTransform="matrix(0.0217, 0.0, 0.0, 0.0375, 262.15, -48.2)" gradientUnits="userSpaceOnUse" id="gradient5" spreadMethod="pad" x1="-819.2" x2="819.2">
      <stop offset="0.0" stop-color="#3c4a24"/>
      <stop offset="1.0" stop-color="#141812"/>
    </linearGradient>
    <g id="sprite3" transform="matrix(1.0, 0.0, 0.0, 1.0, -0.05, 0.5)">
      <use ffdec:characterId="3657" height="14.0" transform="matrix(1.0, 0.0, 0.0, 1.0, 0.05, -0.5)" width="78.45" xlink:href="#shape4"/>
    </g>
    <g id="shape4" transform="matrix(1.0, 0.0, 0.0, 1.0, -0.05, 0.5)">
      <path d="M70.6 -0.15 Q73.85 0.05 76.1 2.2 78.15 4.15 78.5 6.9 78.3 8.35 76.95 9.05 66.9 14.35 56.8 9.7 55.0 8.85 53.65 7.55 L53.65 7.1 Q53.65 5.9 54.1 4.85 55.4 2.0 58.5 1.0 61.55 0.0 64.45 -0.5 L70.6 -0.15 M10.3 6.9 Q11.3 10.9 7.3 12.75 3.45 14.55 0.3 12.1 L0.1 11.1 Q0.0 9.9 0.2 8.75 0.6 6.8 1.9 5.4 3.0 4.25 4.5 4.1 L4.5 4.0 Q9.3 2.8 10.3 6.9" fill="#ffff66" fill-rule="evenodd" stroke="none"/>
    </g>
    <g id="shape5" transform="matrix(1.0, 0.0, 0.0, 1.0, -52.85, 161.85)">
      <path d="M293.85 -151.85 Q296.1 -152.5 297.25 -153.3 L300.15 -155.25 Q302.65 -156.8 303.75 -156.8 305.0 -156.8 306.2 -155.65 307.15 -154.7 307.25 -153.95 308.25 -154.35 312.4 -158.25 315.85 -161.5 319.35 -161.8 323.6 -162.15 323.3 -159.0 L322.7 -156.25 Q322.3 -154.55 322.5 -153.8 L326.15 -152.75 328.25 -152.55 Q330.75 -152.55 331.9 -150.8 332.5 -149.8 332.5 -148.9 332.5 -146.25 329.2 -145.0 L325.15 -143.35 325.2 -143.25 327.1 -138.8 Q327.55 -137.5 329.2 -134.3 330.65 -131.4 331.1 -129.7 332.1 -125.95 334.0 -120.9 L335.4 -124.7 336.25 -126.25 Q336.35 -127.95 337.1 -128.9 339.0 -128.95 340.1 -127.65 341.05 -127.05 341.4 -125.3 L341.35 -124.85 341.65 -120.7 Q341.65 -116.6 337.0 -96.75 332.15 -75.95 331.85 -72.3 333.65 -74.05 337.4 -79.1 339.55 -81.95 341.25 -81.95 L342.25 -81.8 342.75 -81.45 Q343.1 -84.0 345.35 -82.25 L346.5 -81.2 348.4 -82.1 Q349.25 -82.45 350.2 -81.85 L352.0 -80.7 354.15 -80.45 Q355.15 -80.25 355.15 -79.35 355.15 -77.65 350.45 -73.8 L351.15 -70.8 351.7 -63.5 Q352.0 -59.0 352.4 -56.15 L352.5 -56.05 Q353.4 -56.55 358.3 -60.1 L359.85 -61.15 Q361.65 -64.15 363.35 -64.1 364.25 -64.05 364.7 -63.4 L365.25 -63.25 365.8 -62.8 365.95 -62.55 366.05 -61.65 Q366.05 -61.3 364.5 -59.6 L361.0 -51.05 356.0 -38.95 352.0 -27.75 Q349.6 -21.05 348.65 -16.1 L348.65 -15.7 348.75 -15.7 354.7 -16.85 360.4 -18.6 364.0 -20.3 Q367.15 -21.85 367.8 -21.85 370.8 -21.85 370.8 -20.05 370.8 -17.3 363.45 -13.45 355.1 -9.1 345.75 -9.1 343.95 -9.1 343.0 -10.1 342.25 -10.9 342.25 -12.15 342.25 -16.7 345.8 -26.65 L351.0 -40.15 353.75 -47.05 355.4 -50.9 Q350.6 -46.65 349.8 -46.65 347.1 -46.65 346.75 -53.0 L346.65 -63.55 345.95 -70.4 342.0 -67.7 328.75 -59.4 328.45 -59.4 327.5 -58.55 Q324.9 -58.55 324.25 -60.15 324.1 -60.5 324.1 -62.05 324.1 -63.75 327.6 -79.4 L332.5 -100.35 333.5 -104.35 Q330.0 -104.55 328.9 -109.05 L328.0 -115.9 326.45 -121.55 324.75 -127.15 320.2 -137.8 319.1 -140.5 317.0 -139.4 309.5 -134.55 302.5 -129.95 Q297.4 -126.9 288.8 -120.2 L286.4 -117.35 286.05 -116.75 290.3 -110.1 Q297.8 -95.85 300.5 -89.0 305.05 -77.45 305.05 -67.9 305.05 -64.6 303.75 -63.65 301.8 -62.2 292.0 -59.4 290.45 -59.0 287.4 -57.25 L285.1 -56.0 286.4 -53.9 291.35 -46.3 Q294.65 -41.3 296.05 -38.45 299.6 -31.2 301.2 -23.2 302.55 -16.35 302.55 -8.1 302.55 15.7 295.5 32.85 L291.6 43.4 290.65 45.7 293.2 44.05 307.0 35.7 Q314.9 30.65 324.7 23.35 332.9 17.2 335.05 16.1 338.7 14.2 339.95 16.75 341.15 19.2 341.15 28.05 L341.05 38.05 Q340.85 49.55 340.1 59.05 337.8 89.3 331.5 89.3 328.7 89.3 328.0 87.55 L327.85 85.6 Q327.85 84.5 330.05 72.75 332.3 60.9 332.35 58.8 L332.4 56.9 331.25 57.05 Q330.35 57.05 329.25 56.45 L328.05 55.75 325.6 59.8 Q323.1 63.05 319.5 63.05 317.45 63.05 316.45 61.5 315.8 60.45 315.8 59.5 L315.75 59.25 315.65 59.35 312.95 62.15 Q309.95 64.8 307.75 64.8 305.0 64.8 304.25 63.2 L304.0 61.5 Q304.0 60.9 304.55 59.8 L305.05 58.05 305.0 57.05 303.85 56.55 302.5 56.25 293.4 62.9 Q284.25 69.5 283.3 69.5 280.15 69.5 279.25 67.65 L279.0 65.6 279.1 64.7 273.8 68.6 271.25 70.4 266.65 73.55 265.95 72.75 Q263.9 72.4 263.9 70.6 263.9 68.9 267.35 65.35 268.4 63.35 270.0 60.9 272.05 57.75 277.15 51.1 280.4 46.95 283.1 41.35 284.8 37.75 287.3 31.25 L282.8 31.3 Q282.0 31.3 281.95 31.85 L282.0 32.5 280.5 32.3 280.8 30.5 281.05 28.55 Q281.05 27.95 280.55 27.3 280.05 26.65 280.05 26.0 280.05 25.4 280.55 23.15 L281.0 20.3 280.25 19.05 Q279.45 18.05 279.25 16.55 L279.05 13.25 279.25 6.5 Q277.3 6.25 276.55 5.8 274.25 12.55 273.8 17.75 L273.65 20.7 Q273.5 22.55 273.0 23.75 268.05 29.3 267.0 29.3 261.95 29.3 257.85 22.45 255.65 18.7 254.05 13.5 255.25 22.15 255.25 23.4 255.25 24.8 254.5 25.75 253.55 27.05 251.5 27.05 250.8 27.05 248.6 24.55 246.4 22.05 246.05 20.8 245.35 18.3 244.75 14.8 L244.0 9.05 243.3 2.8 241.35 -9.9 Q239.8 -20.05 239.8 -21.3 L239.85 -22.4 Q237.85 -24.35 237.85 -24.6 237.85 -28.5 242.2 -25.9 L243.75 -26.1 Q246.15 -26.1 247.2 -24.15 247.7 -23.2 247.75 -22.1 L247.75 -21.65 249.25 -20.2 251.0 -18.5 Q253.45 -15.95 254.45 -14.2 L256.0 -10.6 258.15 -2.8 260.05 5.05 260.25 5.25 260.3 5.2 265.45 -3.9 269.55 -11.1 Q276.75 -22.25 281.55 -27.6 287.7 -34.45 291.8 -26.95 289.3 -34.75 284.75 -42.5 L277.9 -53.5 274.4 -52.3 Q272.15 -52.3 271.5 -53.4 271.25 -53.8 271.25 -54.65 271.25 -57.45 272.75 -59.15 273.5 -60.05 274.75 -60.75 L274.65 -61.55 Q274.65 -63.75 276.6 -64.6 278.5 -65.4 280.65 -62.8 L281.15 -62.9 Q282.45 -63.15 284.8 -64.4 L289.55 -66.95 Q290.8 -67.55 295.0 -68.8 296.8 -69.35 296.8 -70.7 296.8 -77.4 291.35 -89.35 L282.4 -107.45 280.05 -111.25 Q278.6 -111.5 278.05 -113.15 L277.95 -114.25 276.2 -116.6 Q271.5 -123.0 270.4 -125.9 L270.15 -126.5 270.0 -126.7 262.4 -138.35 262.55 -139.15 Q259.5 -143.9 259.5 -144.3 259.5 -145.6 260.6 -146.65 262.15 -148.1 265.0 -146.9 266.4 -146.15 267.8 -144.55 L269.1 -142.95 269.65 -142.8 269.8 -142.7 Q269.5 -143.6 269.5 -144.15 269.5 -146.05 271.35 -147.25 270.65 -149.5 270.65 -150.85 270.65 -152.15 271.2 -153.0 271.95 -154.3 273.65 -154.3 276.8 -154.3 278.45 -149.15 L280.55 -141.65 Q283.3 -143.05 286.1 -145.7 L290.75 -150.3 Q291.85 -151.3 293.85 -151.85 M196.45 -112.1 L197.05 -112.6 202.05 -109.45 206.55 -104.2 Q207.85 -102.75 209.1 -99.1 210.25 -95.6 210.25 -93.7 210.25 -92.6 209.6 -91.8 208.65 -90.7 206.8 -90.7 204.55 -90.7 203.55 -91.8 202.75 -93.15 202.05 -93.6 L200.65 -91.85 198.9 -90.2 195.2 -89.35 192.3 -88.85 Q189.45 -88.85 188.2 -93.1 187.4 -95.65 187.4 -98.55 187.4 -99.2 186.8 -100.35 186.15 -101.55 186.15 -102.1 L186.15 -104.9 186.45 -107.5 Q186.8 -109.5 187.15 -109.95 189.45 -112.8 191.25 -112.55 L194.1 -111.7 196.45 -112.1 M192.95 -104.8 Q192.15 -104.8 191.8 -104.45 L193.9 -104.7 192.95 -104.8 M242.25 -84.15 Q242.25 -86.95 248.55 -87.9 L262.45 -87.45 Q270.9 -86.05 276.35 -82.85 282.65 -79.1 282.65 -74.05 L282.3 -72.5 Q281.8 -71.2 280.9 -71.2 278.2 -71.2 276.55 -73.0 L274.8 -75.45 273.0 -77.3 Q271.25 -78.75 268.65 -79.2 L263.9 -80.4 259.25 -81.95 256.1 -82.2 250.6 -81.95 245.6 -81.7 Q243.65 -81.7 242.75 -82.8 242.25 -83.45 242.25 -84.15 M217.05 -90.15 L211.3 -78.7 Q205.5 -67.55 205.5 -63.3 205.5 -63.15 209.75 -61.7 215.2 -59.0 221.1 -53.05 222.3 -51.85 224.85 -42.7 L224.85 -42.05 Q225.5 -40.4 225.5 -39.05 225.5 -35.7 223.85 -35.7 220.0 -35.7 216.5 -42.65 214.65 -46.15 207.55 -49.05 L204.95 -49.35 201.4 -49.4 Q198.8 -49.1 197.65 -49.75 L196.3 -51.05 Q195.25 -51.75 194.7 -52.75 L193.8 -54.4 Q193.0 -55.7 191.55 -56.3 L188.9 -56.4 184.25 -56.55 Q182.5 -56.7 181.75 -57.9 181.25 -58.65 181.25 -59.6 181.25 -62.25 185.9 -62.9 191.1 -63.6 197.05 -60.4 L197.25 -60.25 197.3 -60.35 Q197.7 -63.0 198.8 -66.8 200.65 -73.05 203.35 -78.7 210.45 -93.5 216.8 -91.45 L216.95 -91.15 217.05 -90.15 M195.6 -39.0 Q199.25 -39.85 199.25 -36.15 199.25 -32.9 197.45 -25.15 L195.3 -15.7 Q194.4 -9.4 194.75 4.2 194.75 6.35 196.05 7.4 198.0 9.05 199.3 12.1 199.95 13.65 200.05 15.95 L200.05 19.95 Q200.05 22.85 200.55 28.9 L201.05 35.15 Q201.05 39.1 200.55 44.8 199.8 53.8 198.3 53.8 194.35 53.8 193.7 49.9 L193.8 44.6 194.15 40.1 Q194.4 37.35 194.05 35.6 193.2 31.95 193.15 26.55 L193.05 17.7 Q190.65 17.25 189.15 15.2 187.9 13.5 187.9 11.85 L187.7 9.0 187.4 6.2 187.3 -5.3 Q187.3 -12.55 187.45 -14.45 187.8 -19.35 189.3 -24.2 190.45 -28.2 191.3 -33.6 191.9 -38.1 195.6 -39.0 M392.15 -58.65 Q392.75 -57.65 392.75 -56.2 392.75 -49.85 383.75 -35.7 375.15 -22.2 372.65 -22.2 368.7 -22.2 368.55 -25.5 368.5 -27.25 368.15 -27.8 367.5 -28.85 365.35 -28.85 363.3 -28.85 362.65 -30.2 L362.4 -31.7 Q362.4 -32.6 365.95 -39.65 369.9 -47.6 373.85 -53.8 385.45 -72.1 386.55 -59.15 L386.55 -58.9 386.65 -58.9 386.7 -58.9 387.65 -59.55 389.3 -60.05 Q391.25 -60.05 392.15 -58.65 M343.0 -79.1 L342.9 -79.4 342.75 -78.95 343.0 -79.1 M350.9 26.05 Q350.9 16.55 355.55 3.15 360.8 -11.95 366.55 -12.35 360.8 -4.4 357.15 7.35 355.1 13.9 351.55 26.35 350.9 27.3 350.9 26.05 M267.05 10.05 L264.15 12.9 262.8 14.1 Q262.8 14.9 264.1 17.2 L265.8 19.8 Q266.15 15.95 267.05 10.3 L267.05 10.05 M225.75 11.2 L232.15 6.75 Q237.75 3.5 237.75 7.4 237.75 11.7 227.6 17.6 218.85 22.7 217.1 22.7 215.15 22.7 214.5 21.15 L214.25 19.45 Q214.25 18.1 219.85 14.6 L225.75 11.2 M192.5 43.9 Q192.5 45.7 188.0 48.7 182.35 52.1 180.15 53.85 L173.4 58.3 Q171.9 59.35 171.55 60.7 171.35 61.45 171.3 63.1 170.45 68.25 169.3 72.65 175.05 75.05 177.8 78.15 L179.95 81.15 182.0 84.55 Q182.6 85.5 184.2 85.95 185.8 86.4 186.3 87.3 L187.55 90.3 188.65 96.6 189.5 102.45 Q189.5 104.15 188.75 105.3 187.75 106.9 185.55 106.9 182.85 106.9 178.55 97.25 L172.4 83.8 Q170.75 81.3 167.1 79.0 165.7 81.9 164.3 81.9 161.6 81.9 160.75 80.05 L160.4 78.05 160.65 75.8 Q156.95 74.35 153.0 73.8 148.15 73.1 143.3 71.65 140.3 70.75 131.25 70.35 130.3 70.35 126.0 68.3 L122.25 67.95 120.0 68.3 Q119.6 68.3 119.1 67.7 L118.35 66.85 Q121.25 62.8 124.55 63.7 126.4 64.2 129.5 65.8 L140.5 66.55 143.75 67.2 148.0 68.05 Q155.55 68.65 161.7 70.15 L164.3 57.8 Q164.75 55.65 168.95 52.65 172.1 50.3 176.55 48.1 185.6 43.6 186.55 42.85 188.4 41.3 190.5 41.8 192.5 42.25 192.5 43.9 M166.55 107.05 L161.9 105.05 Q158.0 103.4 156.9 102.55 L152.1 98.95 151.0 98.15 151.6 99.25 151.7 99.45 Q153.4 102.7 153.4 103.15 L153.25 105.1 Q152.95 106.15 152.15 106.15 149.8 106.15 146.4 102.75 L142.5 98.55 136.45 94.65 Q132.85 92.3 131.5 90.65 128.7 86.1 125.25 82.8 L124.2 81.8 122.05 81.25 Q117.45 80.05 113.5 80.05 L96.6 81.0 Q91.75 81.6 84.55 83.05 80.6 83.8 77.45 85.45 L71.65 88.4 69.15 89.45 69.6 90.3 Q70.4 92.15 70.75 92.65 L72.25 94.05 Q73.15 94.75 73.15 95.55 73.15 96.45 72.15 97.4 70.9 98.65 68.9 98.65 66.8 98.65 65.35 96.35 64.25 94.05 63.9 93.9 61.9 94.3 60.6 93.95 60.2 94.65 59.5 96.65 58.3 98.9 55.85 98.9 53.8 98.9 53.1 97.6 52.85 97.05 52.85 96.1 52.85 91.95 55.45 89.1 58.7 85.55 67.0 82.3 L69.05 81.65 78.9 77.05 Q82.25 75.45 84.9 73.55 87.55 72.25 95.5 70.8 101.8 69.65 106.45 69.75 L116.5 70.8 121.45 72.2 Q124.25 73.25 125.25 73.85 L126.9 74.95 Q134.85 76.75 142.75 80.35 150.05 83.7 157.0 88.65 L167.2 97.35 Q177.15 106.2 177.15 108.15 177.15 109.1 176.55 110.05 175.55 111.55 173.3 111.55 170.6 111.55 169.0 109.7 L166.55 107.05 M152.4 57.05 L149.75 58.85 148.15 61.2 Q147.4 62.55 146.65 63.1 L146.35 63.75 Q145.85 64.65 145.0 65.05 143.1 62.6 139.55 62.65 L133.6 62.55 Q133.35 62.95 133.35 61.7 133.35 61.0 136.85 60.05 140.05 59.2 142.0 59.1 L144.35 58.05 Q146.1 57.15 148.15 57.55 L148.35 57.7 148.5 58.05 149.55 57.2 Q153.15 54.4 154.0 54.1 155.1 54.45 155.25 55.1 154.55 55.85 152.4 57.05 M139.95 87.65 Q139.35 86.8 138.05 86.2 L140.25 88.55 140.5 88.75 139.95 87.65" fill="#000000" fill-opacity="0.15294118" fill-rule="evenodd" stroke="none"/>
    </g>
    <g id="sprite4" transform="matrix(1.0, 0.0, 0.0, 1.0, 0.0, 0.0)">
      <use ffdec:characterId="3667" height="31.65" transform="matrix(1.0, 0.0, 0.0, 1.0, 0.0, 0.0)" width="6.35" xlink:href="#shape6"/>
    </g>
    <g id="shape6" transform="matrix(1.0, 0.0, 0.0, 1.0, 0.0, 0.0)">
      <path d="M6.35 0.05 L6.35 0.35 5.1 2.55 4.7 3.55 4.15 4.65 3.85 4.35 3.8 4.9 3.55 4.9 4.1 2.3 Q4.6 0.7 6.2 0.0 L6.35 0.05 M5.0 10.75 L5.6 14.05 4.55 18.4 4.45 20.55 Q4.4 21.9 3.7 22.55 3.3 22.15 3.3 21.55 L3.65 18.3 4.05 16.15 4.45 14.25 3.6 8.4 Q3.6 7.85 4.1 7.5 4.6 8.0 4.85 9.05 L5.0 10.75 M2.75 25.65 L2.2 26.75 Q1.6 27.85 1.6 28.8 1.6 31.65 0.75 31.65 0.15 31.65 0.0 30.9 L0.0 30.1 Q0.0 28.85 0.75 27.35 1.55 25.8 2.55 25.35 L2.65 25.3 2.75 25.65" fill="#990000" fill-rule="evenodd" stroke="none"/>
    </g>
    <g id="sprite5" transform="matrix(1.0, 0.0, 0.0, 1.0, 0.0, 0.0)">
      <use ffdec:characterId="3663" height="48.1" transform="matrix(1.0, 0.0, 0.0, 1.0, 0.0, 0.0)" width="43.45" xlink:href="#shape7"/>
    </g>
    <g id="shape7" transform="matrix(1.0, 0.0, 0.0, 1.0, 0.0, 0.0)">
      <path d="M31.75 10.8 L33.7 12.0 Q35.95 13.6 35.95 14.7 L35.9 15.0 35.45 15.3 35.65 16.1 42.65 20.1 Q43.75 24.0 43.3 28.1 42.9 31.45 41.55 34.5 38.5 35.85 35.65 37.65 L35.7 38.2 Q35.7 38.65 32.3 40.15 L27.45 42.3 24.4 43.85 21.3 45.4 21.05 46.7 19.7 45.8 18.6 46.9 Q16.65 48.25 14.4 48.1 L9.7 47.25 8.3 46.7 2.5 42.6 Q2.8 40.0 2.1 37.55 1.15 34.2 0.65 30.6 -0.15 25.25 0.05 19.95 0.2 16.45 0.8 13.05 L2.2 5.6 4.35 3.5 4.2 4.05 5.4 3.2 Q9.0 0.65 13.4 0.0 15.3 -0.1 16.85 0.85 L20.2 3.15 Q21.75 4.55 23.65 4.9 L23.7 5.65 25.8 6.8 Q28.9 8.6 31.75 10.8 M19.85 7.05 L8.0 7.1 7.4 8.95 Q6.0 13.45 5.75 15.3 L5.0 21.1 4.95 26.0 Q4.95 35.75 7.35 42.95 L8.4 43.75 13.65 43.7 18.75 43.8 Q17.2 36.05 17.25 28.0 L17.45 29.0 Q17.85 20.05 19.95 11.2 L20.0 8.85 19.65 7.65 20.0 7.1 19.85 7.05 M18.45 5.95 L19.7 5.95 18.85 5.75 18.45 5.95 M20.25 5.3 L19.85 5.55 20.65 6.0 20.85 6.0 Q21.4 5.75 20.75 5.5 L20.25 5.3 M35.55 25.5 L42.65 25.95 41.75 19.9 35.7 17.15 35.55 25.5 M9.1 6.05 L14.0 5.95 Q9.1 5.7 9.05 5.95 L9.1 6.05 M1.75 23.8 L2.4 32.65 2.1 19.85 2.0 19.7 1.75 23.8 M4.2 33.9 L4.35 34.05 4.15 31.85 3.95 29.65 4.2 33.9 M5.05 38.15 L4.65 35.85 Q4.55 37.9 5.25 39.85 L5.05 38.15 M41.55 32.3 L41.95 31.95 42.55 27.05 35.55 26.1 34.8 36.2 41.3 33.45 41.55 32.3 M18.2 45.0 L18.55 44.7 16.9 44.75 17.1 44.95 18.2 45.0" fill="#000000" fill-rule="evenodd" stroke="none"/>
      <path d="M18.45 5.95 L18.85 5.75 19.7 5.95 18.45 5.95 M19.85 7.05 L20.0 7.1 19.65 7.65 20.0 8.85 19.95 11.2 Q17.85 20.05 17.45 29.0 L17.25 28.0 Q17.2 36.05 18.75 43.8 L13.65 43.7 8.4 43.75 7.35 42.95 Q4.95 35.75 4.95 26.0 L5.0 21.1 5.75 15.3 Q6.0 13.45 7.4 8.95 L8.0 7.1 19.85 7.05 M9.1 6.05 L9.05 5.95 Q9.1 5.7 14.0 5.95 L9.1 6.05 M5.05 38.15 L5.25 39.85 Q4.55 37.9 4.65 35.85 L5.05 38.15 M4.2 33.9 L3.95 29.65 4.15 31.85 4.35 34.05 4.2 33.9 M18.2 45.0 L17.1 44.95 16.9 44.75 18.55 44.7 18.2 45.0" fill="#1e1e1e" fill-rule="evenodd" stroke="none"/>
      <path d="M35.55 25.5 L35.7 17.15 41.75 19.9 42.65 25.95 35.55 25.5 M41.85 24.5 L41.85 24.45 41.8 24.5 41.8 24.65 41.85 24.5 M41.5 25.35 L41.5 25.3 41.4 25.2 41.5 25.35 M41.45 24.75 L41.45 24.8 41.55 24.75 41.45 24.75" fill="url(#gradient6)" fill-rule="evenodd" stroke="none"/>
      <path d="M41.85 24.5 L41.8 24.65 41.8 24.5 41.85 24.45 41.85 24.5 M41.45 24.75 L41.55 24.75 41.45 24.8 41.45 24.75 M41.5 25.35 L41.4 25.2 41.5 25.3 41.5 25.35" fill="#ff0000" fill-rule="evenodd" stroke="none"/>
      <path d="M41.55 32.3 L41.3 33.45 34.8 36.2 35.55 26.1 42.55 27.05 41.95 31.95 41.55 32.3" fill="url(#gradient7)" fill-rule="evenodd" stroke="none"/>
    </g>
    <linearGradient gradientTransform="matrix(0.0018, -0.0068, 0.0052, 0.0014, 39.1, 21.55)" gradientUnits="userSpaceOnUse" id="gradient6" spreadMethod="pad" x1="-819.2" x2="819.2">
      <stop offset="0.0" stop-color="#ffffff"/>
      <stop offset="1.0" stop-color="#919191"/>
    </linearGradient>
    <linearGradient gradientTransform="matrix(2.0E-4, -0.0152, 0.0062, 1.0E-4, 36.65, 38.75)" gradientUnits="userSpaceOnUse" id="gradient7" spreadMethod="pad" x1="-819.2" x2="819.2">
      <stop offset="0.0" stop-color="#ffffff"/>
      <stop offset="1.0" stop-color="#262626"/>
    </linearGradient>
    <g id="sprite6" transform="matrix(1.0, 0.0, 0.0, 1.0, 265.1, 150.0)">
      <use ffdec:characterId="3477" height="300.0" transform="matrix(1.0, 0.0, 0.0, 1.0, -265.1, -150.0)" width="533.0" xlink:href="#shape8"/>
    </g>
    <g id="shape8" transform="matrix(1.0, 0.0, 0.0, 1.0, 265.1, 150.0)">
      <path d="M267.9 -150.0 L267.9 150.0 -265.1 150.0 -265.1 -150.0 267.9 -150.0 Z" fill="none" stroke="#ff0000" stroke-linecap="round" stroke-linejoin="round" stroke-width="0.05"/>
      <path d="M1.4 -16.05 L1.45 -16.05 Q9.35 -16.05 14.95 -11.35 20.55 -6.65 20.55 0.0 L39.5 0.0 M20.55 0.0 Q20.55 6.65 14.95 11.35 9.35 16.05 1.45 16.05 L1.4 16.05 1.4 21.45 M-36.65 0.0 L-17.55 0.0 -17.55 -0.05 Q-17.55 -6.65 -11.95 -11.35 -6.4 -16.05 1.4 -16.05 M1.4 16.05 Q-6.4 16.05 -11.95 11.35 -17.55 6.65 -17.55 0.0" fill="none" stroke="#ff0000" stroke-linecap="round" stroke-linejoin="round" stroke-opacity="0.2509804" stroke-width="0.05"/>
      <path d="M1.4 -16.05 L1.4 -21.4" fill="none" stroke="#ff0000" stroke-linecap="round" stroke-linejoin="round" stroke-opacity="0.2509804" stroke-width="1.0"/>
      <path d="M181.15 141.4 L181.15 123.6 191.05 123.6 191.05 141.4 181.15 141.4" fill="#ffffff" fill-rule="evenodd" stroke="none"/>
      <path d="M250.55 123.6 L260.45 123.6 260.45 141.4 260.35 141.4 250.55 141.4 250.55 123.6" fill="#000000" fill-rule="evenodd" stroke="none"/>
      <path d="M230.7 123.6 L240.6 123.6 240.6 141.4 230.7 141.4 230.7 123.6" fill="#ff0000" fill-rule="evenodd" stroke="none"/>
      <path d="M191.05 123.6 L201.0 123.6 201.0 141.4 191.05 141.4 191.05 123.6" fill="#ffff00" fill-rule="evenodd" stroke="none"/>
      <path d="M201.0 123.6 L210.9 123.6 210.9 141.4 201.0 141.4 201.0 123.6" fill="#00ffff" fill-rule="evenodd" stroke="none"/>
      <path d="M210.9 123.6 L220.8 123.6 220.8 141.4 210.9 141.4 210.9 123.6" fill="#00ff00" fill-rule="evenodd" stroke="none"/>
      <path d="M220.8 123.6 L230.7 123.6 230.7 141.4 220.8 141.4 220.8 123.6" fill="#ff00ff" fill-rule="evenodd" stroke="none"/>
      <path d="M240.6 123.6 L250.55 123.6 250.55 141.4 240.6 141.4 240.6 123.6" fill="#0000ff" fill-rule="evenodd" stroke="none"/>
      <path d="M260.35 141.4 L260.35 145.4 181.1 145.4 181.1 141.4 181.15 141.4 191.05 141.4 201.0 141.4 210.9 141.4 220.8 141.4 230.7 141.4 240.6 141.4 250.55 141.4 260.35 141.4" fill="url(#gradient8)" fill-rule="evenodd" stroke="none"/>
    </g>
    <linearGradient gradientTransform="matrix(0.0484, 0.0, 0.0, 0.0024, 220.7, 143.35)" gradientUnits="userSpaceOnUse" id="gradient8" spreadMethod="pad" x1="-819.2" x2="819.2">
      <stop offset="0.0" stop-color="#ffffff"/>
      <stop offset="1.0" stop-color="#000000"/>
    </linearGradient>
  </defs>
</svg>
