<?xml version="1.0" encoding="UTF-8" standalone="no"?>
<svg xmlns:ffdec="https://www.free-decompiler.com/flash" xmlns:xlink="http://www.w3.org/1999/xlink" ffdec:objectType="frame" height="82.8px" width="55.4px" xmlns="http://www.w3.org/2000/svg">
  <g transform="matrix(2.0, 0.0, 0.0, 2.0, 28.8, 49.9)">
    <use ffdec:characterId="594" height="32.85" transform="matrix(1.0, 0.0, 0.0, 1.0, -9.9, -16.4)" width="19.85" xlink:href="#shape0"/>
    <filter id="filter0">
      <feFlood flood-color="#99ff66" flood-opacity="1.0" result="filterResult0"/>
      <feComposite in="filterResult0" in2="SourceGraphic" operator="out" result="filterResult1"/>
      <feConvolveMatrix divisor="25.0" in="filterResult1" kernelMatrix="1 1 1 1 1 1 1 1 1 1 1 1 1 1 1 1 1 1 1 1 1 1 1 1 1" order="5 5" result="filterResult2"/>
      <feComposite in="filterResult2" in2="SourceGraphic" operator="in" result="filterResult3"/>
      <feComposite in="filterResult3" in2="SourceGraphic" operator="over" result="filterResult4"/>
      <feColorMatrix in="filterResult4" result="filterResult5" type="matrix" values="0 0 0 0 0.0,0 0 0 0 1.0,0 0 0 0 0.0,0 0 0 1 0"/>
      <feConvolveMatrix divisor="49.0" in="filterResult5" kernelMatrix="1 1 1 1 1 1 1 1 1 1 1 1 1 1 1 1 1 1 1 1 1 1 1 1 1 1 1 1 1 1 1 1 1 1 1 1 1 1 1 1 1 1 1 1 1 1 1 1 1" order="7 7" result="filterResult6"/>
      <feComposite in="filterResult4" in2="filterResult6" operator="over" result="filterResult7"/>
    </filter>
    <use ffdec:characterId="593" filter="url(#filter0)" height="27.3" transform="matrix(1.0, 0.0, 0.0, 1.0, -14.4, -24.95)" width="27.7" xlink:href="#sprite0"/>
  </g>
  <defs>
    <g id="shape0" transform="matrix(1.0, 0.0, 0.0, 1.0, 9.9, 16.4)">
      <path d="M7.85 -7.65 L7.5 -6.95 7.4 -7.8 7.85 -7.65 M-5.85 -4.35 L-6.4 -5.55 -6.15 -5.6 -5.85 -4.35" fill="url(#gradient0)" fill-rule="evenodd" stroke="none"/>
      <path d="M5.7 10.05 L5.8 10.05 5.95 13.05 2.15 16.45 -5.0 12.6 -4.7 8.75 -2.3 9.05 5.7 10.05" fill="url(#gradient1)" fill-rule="evenodd" stroke="none"/>
      <path d="M7.5 -6.95 L7.75 -4.2 7.3 -3.3 7.1 -2.95 6.55 -1.7 Q5.65 -2.35 4.65 -2.5 L3.8 -2.6 Q1.2 -2.6 -0.65 0.1 -2.5 2.85 -2.5 6.7 L-2.3 9.05 -4.7 8.75 -5.1 4.45 -4.95 4.45 -4.95 4.4 Q-4.6 -0.75 -5.85 -4.35 L-6.15 -5.6 Q-3.4 -6.7 -2.4 -9.3 -1.95 -10.55 -1.9 -12.15 L-1.9 -12.65 -1.95 -14.05 -1.75 -14.1 -0.05 -16.4 4.4 -13.1 3.35 -12.35 5.4 -11.5 7.4 -7.8 7.5 -6.95" fill="url(#gradient2)" fill-rule="evenodd" stroke="none"/>
      <path d="M-6.15 -5.6 L-6.2 -5.7 -6.25 -5.7 -9.9 -7.8 Q-9.9 -11.6 -5.2 -13.65 L-1.95 -14.05 -1.9 -12.65 -1.9 -12.15 Q-1.95 -10.55 -2.4 -9.3 -3.4 -6.7 -6.15 -5.6" fill="url(#gradient3)" fill-rule="evenodd" stroke="none"/>
      <path d="M4.4 -13.1 L4.65 -13.1 Q9.15 -11.95 9.95 -9.1 L7.85 -7.65 7.4 -7.8 5.4 -11.5 3.35 -12.35 4.4 -13.1" fill="url(#gradient4)" fill-rule="evenodd" stroke="none"/>
      <path d="M6.55 -1.7 L6.55 -1.65 4.95 5.05 5.0 5.05 Q6.0 7.7 5.7 10.05 L-2.3 9.05 -2.5 6.7 Q-2.5 2.85 -0.65 0.1 1.2 -2.6 3.8 -2.6 L4.65 -2.5 Q5.65 -2.35 6.55 -1.7" fill="url(#gradient5)" fill-rule="evenodd" stroke="none"/>
      <path d="M4.65 -13.1 Q9.15 -11.95 9.95 -9.1 M7.85 -7.65 L7.5 -6.95 7.75 -4.2 7.3 -3.3 7.1 -2.95 6.55 -1.7 6.55 -1.65 4.95 5.05 5.0 5.05 Q6.0 7.7 5.7 10.05 L5.8 10.05 5.95 13.05 M-5.0 12.6 L-4.7 8.75 -5.1 4.45 -5.1 4.4 -4.95 4.45 -4.95 4.4 Q-4.6 -0.75 -5.85 -4.35 L-6.15 -5.6 -6.2 -5.7 -6.25 -5.7 M-9.9 -7.8 Q-9.9 -11.6 -5.2 -13.65 L-1.95 -14.05 -1.75 -14.1 -0.05 -16.4 4.4 -13.1 3.35 -12.35 M7.4 -7.8 L7.5 -6.95 M-2.3 9.05 L5.7 10.05 M-2.3 9.05 L-4.7 8.75" fill="none" stroke="#000000" stroke-linecap="round" stroke-linejoin="round" stroke-width="0.05"/>
      <path d="M0.9 -13.6 Q0.7 -15.15 1.4 -15.15 2.4 -15.15 3.05 -13.75 L3.55 -12.35 4.6 -12.35 Q5.25 -12.35 5.25 -11.75 L4.8 -11.1 4.7 -11.15 4.7 -11.1 4.2 -10.7 4.95 -11.15 5.6 -11.0 5.7 -10.95 Q3.85 -9.9 3.65 -9.9 2.2 -9.9 -2.0 -11.9 L-2.0 -12.0 -3.0 -12.2 -3.8 -11.85 -4.5 -11.85 -4.55 -12.05 Q-4.55 -12.45 -2.1 -12.95 L-1.85 -12.85 -0.65 -12.5 1.2 -12.4 0.9 -13.6 M4.35 -9.35 Q4.95 -7.85 4.95 -4.5 L4.65 -2.8 5.1 -2.5 Q5.65 -2.15 6.5 -2.1 L6.6 -1.8 Q6.6 -1.5 5.9 -1.5 L4.35 -2.2 4.25 -2.0 4.25 -1.95 4.25 -1.3 5.0 -0.75 4.2 -0.65 3.65 4.1 4.6 4.25 4.95 4.55 4.95 4.65 3.6 4.65 3.3 6.65 3.2 6.75 2.7 5.6 2.7 4.7 1.15 5.1 Q0.6 5.4 0.35 5.85 L0.3 5.55 Q0.3 4.2 2.75 4.1 2.8 1.2 3.3 -0.5 0.9 -0.1 0.8 0.75 L0.75 0.8 Q0.3 0.8 0.3 0.45 0.3 -1.25 3.55 -1.35 L4.0 -2.15 3.9 -2.3 Q3.9 -3.0 4.4 -4.65 L4.4 -4.75 3.95 -8.85 Q3.95 -9.3 4.35 -9.35" fill="#000000" fill-opacity="0.3019608" fill-rule="evenodd" stroke="none"/>
    </g>
    <radialGradient cx="0" cy="0" gradientTransform="matrix(0.0222, 0.0, 0.0, 0.0222, 2.85, -1.75)" gradientUnits="userSpaceOnUse" id="gradient0" r="819.2" spreadMethod="pad">
      <stop offset="0.0" stop-color="#6a7249"/>
      <stop offset="1.0" stop-color="#393a2c"/>
    </radialGradient>
    <radialGradient cx="0" cy="0" gradientTransform="matrix(0.0076, 0.0, 0.0, 0.0076, 0.4, 10.45)" gradientUnits="userSpaceOnUse" id="gradient1" r="819.2" spreadMethod="pad">
      <stop offset="0.0" stop-color="#404040"/>
      <stop offset="1.0" stop-color="#000000"/>
    </radialGradient>
    <radialGradient cx="0" cy="0" gradientTransform="matrix(0.0098, 0.0011, -0.0018, 0.0157, 0.8, -3.65)" gradientUnits="userSpaceOnUse" id="gradient2" r="819.2" spreadMethod="pad">
      <stop offset="0.0" stop-color="#2f5135"/>
      <stop offset="0.4980392156862745" stop-color="#141f17"/>
      <stop offset="1.0" stop-color="#335539"/>
    </radialGradient>
    <radialGradient cx="0" cy="0" gradientTransform="matrix(0.0076, 0.0, 0.0, 0.0076, -6.55, -9.95)" gradientUnits="userSpaceOnUse" id="gradient3" r="819.2" spreadMethod="pad">
      <stop offset="0.0" stop-color="#2f5135"/>
      <stop offset="0.4980392156862745" stop-color="#141f17"/>
      <stop offset="1.0" stop-color="#335539"/>
    </radialGradient>
    <radialGradient cx="0" cy="0" gradientTransform="matrix(0.0065, 0.0, 0.0, 0.0065, 7.6, -9.15)" gradientUnits="userSpaceOnUse" id="gradient4" r="819.2" spreadMethod="pad">
      <stop offset="0.0" stop-color="#2f5135"/>
      <stop offset="0.4980392156862745" stop-color="#141f17"/>
      <stop offset="1.0" stop-color="#335539"/>
    </radialGradient>
    <radialGradient cx="0" cy="0" gradientTransform="matrix(0.0148, 0.0, 0.0, 0.0148, 3.45, 9.45)" gradientUnits="userSpaceOnUse" id="gradient5" r="819.2" spreadMethod="pad">
      <stop offset="0.0" stop-color="#2f5135"/>
      <stop offset="0.4980392156862745" stop-color="#141f17"/>
      <stop offset="1.0" stop-color="#335539"/>
    </radialGradient>
    <g id="sprite0" transform="matrix(1.0, 0.0, 0.0, 1.0, 15.8, 22.7)">
      <use ffdec:characterId="592" height="27.3" transform="matrix(1.0, 0.0, 0.0, 1.0, -15.8, -22.7)" width="27.7" xlink:href="#shape1"/>
    </g>
    <g id="shape1" transform="matrix(1.0, 0.0, 0.0, 1.0, 15.8, 22.7)">
      <path d="M11.6 -13.35 Q12.25 -12.85 11.55 -12.1 L10.6 -10.95 9.6 -9.8 10.05 -9.95 10.8 -10.05 10.85 -9.4 10.35 -8.7 9.75 -8.25 9.85 -8.15 10.15 -7.85 10.2 -7.75 Q9.6 -7.1 8.6 -6.95 7.75 -6.8 7.5 -7.4 L7.5 -7.5 7.65 -7.7 7.75 -7.9 7.7 -7.95 7.6 -8.05 7.45 -8.25 Q7.3 -8.35 7.3 -8.55 L7.3 -8.7 7.35 -8.8 7.6 -8.95 7.9 -9.0 9.1 -10.6 10.3 -12.1 11.45 -13.25 11.6 -13.35 M6.55 -19.4 L6.3 -18.1 6.2 -16.9 6.55 -17.65 6.95 -18.7 Q7.1 -19.35 7.7 -19.3 7.8 -17.95 7.1 -16.55 L6.0 -13.8 Q5.6 -12.65 5.35 -11.5 L6.9 -13.8 8.3 -16.6 Q8.7 -17.55 9.55 -17.35 9.4 -16.15 8.7 -15.05 L7.2 -12.55 6.55 -10.8 6.65 -10.65 6.8 -10.5 6.8 -10.3 6.8 -10.2 5.85 -9.85 4.35 -10.15 Q3.7 -11.85 4.25 -13.8 L5.05 -17.25 Q5.35 -19.2 6.25 -20.6 6.75 -20.2 6.55 -19.4 M6.6 -8.45 Q6.35 -8.2 6.1 -8.45 L6.05 -8.55 6.0 -8.65 5.95 -8.7 5.95 -8.8 6.0 -8.9 6.1 -9.0 6.25 -9.1 6.4 -9.15 6.5 -9.15 6.5 -9.2 6.8 -8.85 6.6 -8.45 M6.5 -7.4 L6.5 -7.3 6.5 -7.2 6.5 -7.15 6.4 -7.05 4.15 -5.5 3.95 -4.85 Q3.6 -4.35 3.55 -3.75 L3.5 -3.5 3.65 -3.6 3.7 -3.65 3.85 -3.7 5.0 -3.65 5.15 -3.65 5.2 -3.55 5.3 -3.45 5.4 -3.25 5.45 -3.15 5.45 -3.05 5.4 -3.0 4.8 -3.0 3.7 -2.85 3.65 -2.75 3.65 -2.4 3.65 -2.15 4.2 -1.85 4.6 -1.25 4.65 -1.15 4.75 -1.0 4.95 -0.25 4.95 -0.15 4.85 -0.1 4.7 0.05 4.55 0.2 4.45 0.3 4.3 0.45 4.2 0.55 4.05 0.05 4.0 -0.5 3.75 -0.75 3.35 -0.95 3.3 -0.8 3.25 -0.55 3.25 -0.15 3.2 0.15 3.1 0.2 Q2.65 0.2 2.45 -0.35 L2.15 -0.9 1.75 -1.7 1.75 -1.75 -0.2 -1.45 Q-1.45 -1.05 -2.3 -0.1 -3.15 0.85 -3.05 2.2 L-2.85 2.65 -2.75 2.75 -2.35 2.95 -2.2 3.1 Q-3.7 3.55 -3.6 1.7 -3.55 0.7 -2.95 -0.1 -1.45 -2.0 1.0 -2.35 L1.25 -2.4 1.75 -2.4 2.3 -2.3 2.5 -2.15 2.6 -2.2 2.6 -2.3 1.45 -3.0 Q-0.25 -3.95 -2.0 -3.75 -3.3 -3.6 -3.5 -2.3 -3.6 -1.85 -3.75 -1.95 L-4.0 -2.35 -3.85 -3.2 -3.4 -3.9 -2.25 -4.65 -2.0 -4.7 0.15 -4.35 2.0 -3.5 1.15 -4.6 0.75 -5.2 0.45 -5.3 Q-1.1 -5.95 -2.35 -7.05 -3.7 -8.25 -4.8 -7.85 L-4.75 -7.75 -4.75 -7.65 -4.75 -7.55 -4.9 -7.45 -5.15 -7.4 -5.35 -7.45 -5.4 -7.55 -5.5 -7.85 -5.55 -8.2 -5.55 -8.35 -5.45 -8.65 -5.15 -8.8 Q-2.85 -8.65 -1.1 -7.05 0.3 -5.85 2.0 -5.85 L1.3 -6.25 Q0.75 -6.5 0.6 -7.05 L0.65 -7.2 Q0.9 -7.6 1.3 -7.35 L2.2 -6.75 Q2.45 -6.6 2.75 -6.6 L3.05 -6.95 3.2 -7.4 3.6 -7.75 3.6 -7.8 Q4.1 -7.4 3.7 -6.75 L3.3 -6.05 Q4.8 -6.45 6.05 -7.6 6.3 -7.8 6.45 -7.5 L6.5 -7.4 M8.65 -8.45 L8.5 -8.15 8.65 -8.25 8.75 -8.45 8.65 -8.45 M-7.45 -22.6 L-6.75 -19.35 -5.95 -15.4 -5.0 -11.45 -5.05 -11.3 -5.1 -11.25 -6.25 -11.25 Q-6.8 -11.05 -7.15 -11.4 L-7.2 -11.45 -7.15 -11.7 -7.05 -12.05 -7.1 -12.2 -7.15 -12.3 -7.35 -12.4 -7.7 -12.4 -8.65 -13.9 -10.1 -16.05 Q-10.85 -17.0 -11.15 -17.9 L-10.5 -17.8 -9.3 -16.45 -8.55 -15.35 -9.0 -16.45 -9.9 -18.25 -10.8 -20.05 -10.8 -20.2 Q-9.85 -20.35 -9.15 -18.95 L-7.9 -16.35 -6.9 -14.3 -6.85 -14.3 -7.05 -14.9 -7.25 -15.55 -7.3 -16.2 -7.3 -16.3 -7.25 -16.4 -7.2 -16.5 -7.0 -16.6 -6.95 -16.65 -7.15 -18.0 -7.6 -20.0 -8.15 -22.1 -8.25 -22.55 -8.25 -22.6 -7.65 -22.7 -7.45 -22.65 -7.45 -22.6 M-12.05 -12.55 L-11.1 -9.6 Q-10.6 -8.25 -10.95 -6.95 L-11.05 -6.9 -11.15 -6.9 -11.3 -6.9 -11.4 -6.9 -11.55 -6.95 -11.65 -6.85 -11.7 -6.75 -11.75 -6.7 -11.9 -6.65 -13.0 -7.25 -14.0 -8.0 Q-14.3 -8.15 -14.25 -8.5 -14.2 -8.95 -13.75 -8.75 L-12.9 -8.2 -12.6 -8.05 -12.6 -8.1 -12.6 -8.2 -12.6 -8.3 -12.6 -8.35 -12.45 -8.55 -13.7 -10.4 -15.2 -12.25 Q-15.75 -12.85 -15.8 -13.55 -14.9 -13.7 -14.2 -12.65 L-13.0 -10.8 -12.25 -10.0 -12.9 -11.55 -13.55 -13.35 Q-14.05 -14.5 -13.5 -15.05 L-13.5 -15.1 Q-12.45 -14.15 -12.05 -12.55 M-7.05 -7.5 L-7.0 -7.2 -7.0 -7.15 Q-7.05 -6.95 -7.25 -6.9 -7.75 -6.9 -7.75 -7.35 L-7.55 -7.65 -7.4 -7.75 -7.25 -7.65 -7.05 -7.5 M-5.55 -0.65 L-5.65 -1.1 -5.4 -1.4 -5.1 -1.3 -4.8 -1.15 -4.55 -0.9 -4.45 -0.75 -4.5 -0.5 -4.55 -0.3 -4.85 -0.05 -5.4 -0.05 -5.5 -0.35 -5.55 -0.65 M-0.15 3.8 L-0.25 4.3 -0.3 4.35 -0.75 4.6 Q-1.3 4.7 -1.6 4.25 L-1.65 4.15 -1.6 3.95 -1.5 3.7 -1.45 3.4 -1.35 3.2 -1.3 3.15 -1.15 3.15 -0.65 3.1 -0.25 3.35 -0.15 3.8 M-0.75 3.65 L-1.0 3.6 -0.95 3.95 Q-0.7 4.1 -0.7 3.85 L-0.75 3.65" fill="#ffffff" fill-rule="evenodd" stroke="none"/>
    </g>
  </defs>
</svg>
