<?xml version="1.0" encoding="UTF-8" standalone="no"?>
<svg xmlns:ffdec="https://www.free-decompiler.com/flash" xmlns:xlink="http://www.w3.org/1999/xlink" ffdec:objectType="frame" height="60.0px" width="60.0px" xmlns="http://www.w3.org/2000/svg">
  <g transform="matrix(2.0, 0.0, 0.0, 2.0, 30.0, 30.0)">
    <use ffdec:characterId="3459" height="30.0" transform="matrix(1.0, 0.0, 0.0, 1.0, -15.0, -15.0)" width="30.0" xlink:href="#shape0"/>
    <filter id="filter0">
      <feFlood flood-color="#ffcc00" flood-opacity="1.0" result="filterResult0"/>
      <feComposite in="filterResult0" in2="SourceGraphic" operator="out" result="filterResult1"/>
      <feConvolveMatrix divisor="121.0" in="filterResult1" kernelMatrix="1 1 1 1 1 1 1 1 1 1 1 1 1 1 1 1 1 1 1 1 1 1 1 1 1 1 1 1 1 1 1 1 1 1 1 1 1 1 1 1 1 1 1 1 1 1 1 1 1 1 1 1 1 1 1 1 1 1 1 1 1 1 1 1 1 1 1 1 1 1 1 1 1 1 1 1 1 1 1 1 1 1 1 1 1 1 1 1 1 1 1 1 1 1 1 1 1 1 1 1 1 1 1 1 1 1 1 1 1 1 1 1 1 1 1 1 1 1 1 1 1" order="11 11" result="filterResult2"/>
      <feComposite in="filterResult2" in2="SourceGraphic" operator="in" result="filterResult3"/>
      <feComposite in="filterResult3" in2="SourceGraphic" operator="over" result="filterResult4"/>
      <feColorMatrix in="filterResult4" result="filterResult5" type="matrix" values="0 0 0 0 1.0,0 0 0 0 0.8,0 0 0 0 0.0,0 0 0 1 0"/>
      <feConvolveMatrix divisor="49.0" in="filterResult5" kernelMatrix="1 1 1 1 1 1 1 1 1 1 1 1 1 1 1 1 1 1 1 1 1 1 1 1 1 1 1 1 1 1 1 1 1 1 1 1 1 1 1 1 1 1 1 1 1 1 1 1 1" order="7 7" result="filterResult6"/>
      <feComposite in="filterResult4" in2="filterResult6" operator="over" result="filterResult7"/>
    </filter>
    <use ffdec:characterId="3458" filter="url(#filter0)" height="18.2" transform="matrix(1.0, 0.0, 0.0, 1.0, -2.8, -8.45)" width="5.1" xlink:href="#sprite0"/>
    <use ffdec:characterId="3456" height="30.0" transform="matrix(1.0, 0.0, 0.0, 1.0, -15.0, -15.0)" width="30.0" xlink:href="#shape2"/>
  </g>
  <defs>
    <g id="shape0" transform="matrix(1.0, 0.0, 0.0, 1.0, 15.0, 15.0)">
      <path d="M10.65 -10.6 L12.15 -8.9 Q13.75 -6.75 14.45 -4.2 15.0 -2.2 15.0 0.0 L14.85 2.6 14.85 2.65 14.75 3.2 14.75 3.35 Q14.3 5.35 13.25 7.2 12.2 9.0 10.65 10.6 L8.35 12.55 Q4.65 15.0 0.0 15.0 -4.7 15.0 -8.3 12.55 L-10.6 10.6 -12.7 8.0 -13.4 6.8 -13.6 6.4 -14.3 4.6 -14.4 4.15 -14.75 2.4 -15.0 0.0 Q-15.05 -6.2 -10.6 -10.6 -6.25 -15.05 0.0 -15.0 6.2 -15.05 10.65 -10.6" fill="#2f2f2f" fill-rule="evenodd" stroke="none"/>
    </g>
    <g id="sprite0" transform="matrix(1.0, 0.0, 0.0, 1.0, 2.8, 8.45)">
      <use ffdec:characterId="3457" height="18.2" transform="matrix(1.0, 0.0, 0.0, 1.0, -2.8, -8.45)" width="5.1" xlink:href="#shape1"/>
    </g>
    <g id="shape1" transform="matrix(1.0, 0.0, 0.0, 1.0, 2.8, 8.45)">
      <path d="M-2.8 -6.7 Q0.05 -10.15 2.3 -6.7 L1.15 4.25 -1.65 4.25 -2.8 -6.7 M0.95 9.15 Q0.45 9.7 -0.25 9.75 -0.95 9.7 -1.45 9.15 -1.95 8.55 -1.95 7.75 -1.95 6.9 -1.45 6.35 -0.95 5.75 -0.25 5.75 0.45 5.75 0.95 6.35 1.45 6.9 1.45 7.75 1.45 8.55 0.95 9.15" fill="#d0b1b1" fill-rule="evenodd" stroke="none"/>
    </g>
    <g id="shape2" transform="matrix(1.0, 0.0, 0.0, 1.0, 15.0, 15.0)">
      <path d="M11.8 -0.05 Q11.75 -4.7 8.3 -8.05 4.9 -11.35 0.0 -11.35 -4.9 -11.35 -8.4 -8.05 -11.8 -4.7 -11.75 -0.05 -11.8 4.65 -8.4 8.0 -4.9 11.35 0.0 11.35 4.9 11.35 8.3 8.0 11.75 4.65 11.8 -0.05 M10.65 -10.6 L12.15 -8.9 Q13.75 -6.75 14.45 -4.2 15.0 -2.2 15.0 0.0 L14.85 2.6 14.85 2.65 14.75 3.2 14.75 3.35 Q14.3 5.35 13.25 7.2 12.2 9.0 10.65 10.6 L8.35 12.55 Q4.65 15.0 0.0 15.0 -4.7 15.0 -8.3 12.55 L-10.6 10.6 -12.7 8.0 -13.4 6.8 -13.6 6.4 -14.3 4.6 -14.4 4.15 -14.75 2.4 -15.0 0.0 Q-15.05 -6.2 -10.6 -10.6 -6.25 -15.05 0.0 -15.0 6.2 -15.05 10.65 -10.6" fill="url(#gradient0)" fill-rule="evenodd" stroke="none"/>
      <path d="M11.8 -0.05 Q11.75 4.65 8.3 8.0 4.9 11.35 0.0 11.35 -4.9 11.35 -8.4 8.0 -11.8 4.65 -11.75 -0.05 -11.8 -4.7 -8.4 -8.05 -4.9 -11.35 0.0 -11.35 4.9 -11.35 8.3 -8.05 11.75 -4.7 11.8 -0.05" fill="url(#gradient1)" fill-rule="evenodd" stroke="none"/>
    </g>
    <radialGradient cx="0" cy="0" gradientTransform="matrix(0.0195, 0.0, 0.0, 0.0195, 0.35, 0.3)" gradientUnits="userSpaceOnUse" id="gradient0" r="819.2" spreadMethod="pad">
      <stop offset="0.4117647058823529" stop-color="#000000" stop-opacity="0.0"/>
      <stop offset="0.7450980392156863" stop-color="#000000" stop-opacity="0.2"/>
      <stop offset="1.0" stop-color="#000000" stop-opacity="0.7529412"/>
    </radialGradient>
    <radialGradient cx="0" cy="0" gradientTransform="matrix(0.0, 0.0107, -0.0244, 0.0, 0.5, -8.5)" gradientUnits="userSpaceOnUse" id="gradient1" r="819.2" spreadMethod="pad">
      <stop offset="0.0" stop-color="#ffffff" stop-opacity="0.3019608"/>
      <stop offset="0.5098039215686274" stop-color="#ffffff" stop-opacity="0.13333334"/>
      <stop offset="1.0" stop-color="#ffffff" stop-opacity="0.0"/>
    </radialGradient>
  </defs>
</svg>
