<?xml version="1.0" encoding="UTF-8" standalone="no"?>
<svg xmlns:ffdec="https://www.free-decompiler.com/flash" xmlns:xlink="http://www.w3.org/1999/xlink" ffdec:objectType="frame" height="97.4px" width="115.7px" xmlns="http://www.w3.org/2000/svg">
  <g transform="matrix(2.0, 0.0, 0.0, 2.0, 40.5, 45.2)">
    <use ffdec:characterId="2244" height="23.0" id="moveColor" transform="matrix(1.0, 0.0, 0.0, 1.0, -11.5, -11.5)" width="23.0" xlink:href="#sprite0"/>
    <clipPath id="clipPath0" transform="matrix(1.0, 0.0, 0.0, 1.0, 0.0, 0.0)">
      <path d="M11.5 0.0 Q11.5 4.75 8.15 8.15 4.8 11.5 0.0 11.5 -4.8 11.5 -8.15 8.15 -11.5 4.75 -11.5 0.0 L-11.4 -1.3 -11.35 -1.85 Q-10.8 -5.45 -8.15 -8.15 -4.8 -11.5 0.0 -11.5 L2.95 -11.15 Q5.85 -10.45 8.15 -8.15 10.4 -5.85 11.2 -2.9 L11.3 -2.45 11.5 0.0" fill="#ffcc00" fill-rule="evenodd" stroke="none"/>
    </clipPath>
    <g clip-path="url(#clipPath0)">
      <use ffdec:characterId="2278" height="25.0" transform="matrix(1.0, 0.0, 0.0, 1.0, -12.85, -12.2)" width="25.0" xlink:href="#shape2"/>
      <filter id="filter0">
        <feColorMatrix in="SourceGraphic" result="filterResult0" type="matrix" values="0 0 0 0 0.2,0 0 0 0 1.0,0 0 0 0 0.0,0 0 0 1 0"/>
        <feConvolveMatrix divisor="25.0" in="filterResult0" kernelMatrix="1 1 1 1 1 1 1 1 1 1 1 1 1 1 1 1 1 1 1 1 1 1 1 1 1" order="5 5" result="filterResult1"/>
        <feComposite in="SourceGraphic" in2="filterResult1" operator="over" result="filterResult2"/>
      </filter>
      <use ffdec:characterId="2284" filter="url(#filter0)" height="28.1" transform="matrix(1.0, 0.0, 0.0, 1.0, -8.65, -15.85)" width="46.25" xlink:href="#sprite1"/>
    </g>
    <use ffdec:characterId="2247" height="23.75" transform="matrix(1.0, 0.0, 0.0, 1.0, -11.65, -11.75)" width="23.75" xlink:href="#shape4"/>
    <use ffdec:characterId="2246" height="17.95" transform="matrix(1.0, 0.0, 0.0, 1.0, -9.05, -8.85)" width="18.6" xlink:href="#shape5"/>
    <use ffdec:characterId="2241" height="23.0" id="bfilter" transform="matrix(1.0, 0.0, 0.0, 1.0, -11.5, -11.5)" width="23.0" xlink:href="#sprite2"/>
    <use ffdec:characterId="2245" height="19.05" transform="matrix(1.0, 0.0, 0.0, 1.0, -17.2, -8.65)" width="34.35" xlink:href="#text0"/>
  </g>
  <defs>
    <g id="sprite0" transform="matrix(1.0, 0.0, 0.0, 1.0, 11.5, 11.5)">
      <use ffdec:characterId="2243" height="23.0" transform="matrix(1.0, 0.0, 0.0, 1.0, -11.5, -11.5)" width="23.0" xlink:href="#shape0"/>
    </g>
    <g id="shape0" transform="matrix(1.0, 0.0, 0.0, 1.0, 11.5, 11.5)">
      <path d="M11.5 0.0 Q11.5 4.75 8.15 8.15 4.8 11.5 0.0 11.5 -4.8 11.5 -8.15 8.15 -11.5 4.75 -11.5 0.0 L-11.4 -1.3 -11.35 -1.85 Q-10.8 -5.45 -8.15 -8.15 -4.8 -11.5 0.0 -11.5 L2.95 -11.15 Q5.85 -10.45 8.15 -8.15 10.4 -5.85 11.2 -2.9 L11.3 -2.45 11.5 0.0" fill="#262626" fill-rule="evenodd" stroke="none"/>
    </g>
    <g id="shape2" transform="matrix(1.0, 0.0, 0.0, 1.0, 12.85, 12.2)">
      <path d="M-0.35 -12.2 Q4.85 -12.2 8.5 -8.55 12.15 -4.9 12.15 0.3 12.15 5.5 8.5 9.15 4.85 12.8 -0.35 12.8 -5.55 12.8 -9.2 9.15 -12.85 5.5 -12.85 0.3 -12.85 -4.9 -9.2 -8.55 -5.55 -12.2 -0.35 -12.2" fill="url(#gradient0)" fill-rule="evenodd" stroke="none"/>
    </g>
    <radialGradient cx="0" cy="0" gradientTransform="matrix(0.0289, 0.0, 0.0, 0.0289, 7.0, 8.2)" gradientUnits="userSpaceOnUse" id="gradient0" r="819.2" spreadMethod="pad">
      <stop offset="0.0" stop-color="#277a2f"/>
      <stop offset="0.42745098039215684" stop-color="#1b291d"/>
      <stop offset="0.8509803921568627" stop-color="#000000"/>
    </radialGradient>
    <g id="sprite1" transform="matrix(1.0, 0.0, 0.0, 1.0, 23.1, 14.05)">
      <use ffdec:characterId="2283" height="28.1" transform="matrix(1.0, 0.0, 0.0, 1.0, -23.1, -14.05)" width="46.25" xlink:href="#shape3"/>
    </g>
    <g id="shape3" transform="matrix(1.0, 0.0, 0.0, 1.0, 23.1, 14.05)">
      <path d="M-10.95 -5.5 Q-4.8 -5.5 -2.1 -0.85 -0.75 1.45 -0.6 4.05 -0.6 7.6 -2.95 10.45 -6.75 15.1 -15.2 13.3 L-15.25 13.3 -14.75 13.55 -14.85 14.05 Q-20.9 14.05 -22.5 10.0 -23.35 7.95 -22.95 5.75 -22.95 2.65 -20.95 -0.45 -18.45 -4.4 -13.75 -5.25 -15.35 -7.95 -17.6 -9.8 L-17.45 -10.0 Q-14.35 -10.0 -12.25 -5.45 L-10.95 -5.5 M-11.75 -4.2 L-11.45 -3.25 Q-10.5 -0.4 -10.05 2.5 -8.6 2.95 -7.6 4.05 -6.35 5.45 -6.35 6.95 -6.35 11.6 -10.55 12.3 -5.55 12.05 -3.25 8.3 -1.85 6.1 -1.85 4.0 -1.85 1.55 -3.5 -0.65 -6.1 -4.2 -11.75 -4.2 M-13.05 -3.95 Q-19.0 -2.2 -20.9 1.3 -21.95 3.25 -21.95 7.65 -21.95 10.0 -20.2 10.95 -18.4 12.0 -14.0 12.25 -17.15 11.6 -17.2 8.6 -17.1 2.2 -12.2 2.2 L-11.15 2.25 Q-11.45 -0.4 -12.8 -3.4 L-13.05 -3.95 M-8.85 4.75 L-9.95 4.05 -10.35 6.3 Q-10.2 6.6 -10.2 7.05 -10.2 9.3 -11.45 9.3 L-11.95 9.3 -12.2 9.3 -12.6 9.15 -12.7 9.05 Q-13.3 8.75 -13.3 7.95 -13.3 5.75 -11.5 5.7 L-11.1 3.7 -12.55 3.55 Q-15.85 3.55 -16.2 8.6 -16.2 11.05 -12.15 11.05 -7.6 11.05 -7.6 7.05 -7.6 5.75 -8.85 4.75" fill="url(#gradient1)" fill-rule="evenodd" stroke="none"/>
      <path d="M23.15 -13.75 L22.8 -13.85 23.0 -14.05 23.15 -13.75" fill="#000000" fill-rule="evenodd" stroke="none"/>
    </g>
    <radialGradient cx="0" cy="0" gradientTransform="matrix(0.0221, 0.0, 0.0, 0.0221, -11.85, 7.2)" gradientUnits="userSpaceOnUse" id="gradient1" r="819.2" spreadMethod="pad">
      <stop offset="0.0" stop-color="#ffffff"/>
      <stop offset="0.9137254901960784" stop-color="#76f141"/>
    </radialGradient>
    <g id="shape4" transform="matrix(1.0, 0.0, 0.0, 1.0, 11.65, 11.75)">
      <path d="M0.25 -11.75 Q5.15 -11.8 8.65 -8.3 12.1 -4.8 12.1 0.15 L12.0 2.15 12.0 2.2 11.9 2.65 11.9 2.75 Q11.55 4.35 10.75 5.8 9.9 7.25 8.65 8.5 L6.85 10.05 Q3.95 12.0 0.25 12.0 -3.5 12.0 -6.35 10.05 L-8.15 8.5 Q-9.55 7.1 -10.35 5.5 -11.2 3.85 -11.45 2.05 L-11.65 0.15 Q-11.65 -4.8 -8.15 -8.3 -4.7 -11.8 0.25 -11.75" fill="url(#gradient2)" fill-rule="evenodd" stroke="none"/>
    </g>
    <radialGradient cx="0" cy="0" gradientTransform="matrix(0.0154, 0.0, 0.0, 0.0154, 0.5, 0.35)" gradientUnits="userSpaceOnUse" id="gradient2" r="819.2" spreadMethod="pad">
      <stop offset="0.4117647058823529" stop-color="#000000" stop-opacity="0.0"/>
      <stop offset="0.7450980392156863" stop-color="#000000" stop-opacity="0.2"/>
      <stop offset="1.0" stop-color="#000000" stop-opacity="0.7529412"/>
    </radialGradient>
    <g id="shape5" transform="matrix(1.0, 0.0, 0.0, 1.0, 9.05, 8.85)">
      <path d="M6.8 -6.25 Q9.55 -3.6 9.55 0.1 9.55 3.8 6.8 6.45 4.1 9.1 0.25 9.1 -3.65 9.1 -6.4 6.45 -9.1 3.8 -9.05 0.1 -9.1 -3.6 -6.4 -6.25 -3.65 -8.9 0.25 -8.85 4.1 -8.9 6.8 -6.25" fill="url(#gradient3)" fill-rule="evenodd" stroke="none"/>
    </g>
    <radialGradient cx="0" cy="0" gradientTransform="matrix(0.0, 0.0085, -0.0193, 0.0, 0.65, -6.6)" gradientUnits="userSpaceOnUse" id="gradient3" r="819.2" spreadMethod="pad">
      <stop offset="0.0" stop-color="#ffffff" stop-opacity="0.9137255"/>
      <stop offset="0.5098039215686274" stop-color="#ffffff" stop-opacity="0.2901961"/>
      <stop offset="1.0" stop-color="#ffffff" stop-opacity="0.0"/>
    </radialGradient>
    <g id="sprite2" transform="matrix(1.0, 0.0, 0.0, 1.0, 11.5, 11.5)">
      <use ffdec:characterId="2240" height="23.0" transform="matrix(1.0, 0.0, 0.0, 1.0, -11.5, -11.5)" width="23.0" xlink:href="#shape6"/>
    </g>
    <g id="shape6" transform="matrix(1.0, 0.0, 0.0, 1.0, 11.5, 11.5)">
      <path d="M11.5 0.0 Q11.5 4.75 8.15 8.15 4.8 11.5 0.0 11.5 -4.8 11.5 -8.15 8.15 -11.5 4.75 -11.5 0.0 L-11.4 -1.3 -11.35 -1.85 Q-10.8 -5.45 -8.15 -8.15 -4.8 -11.5 0.0 -11.5 L2.95 -11.15 Q5.85 -10.45 8.15 -8.15 10.4 -5.85 11.2 -2.9 L11.3 -2.45 11.5 0.0" fill="#000000" fill-rule="evenodd" stroke="none"/>
    </g>
  </defs>
</svg>
