<?xml version="1.0" encoding="UTF-8" standalone="no"?>
<svg xmlns:ffdec="https://www.free-decompiler.com/flash" xmlns:xlink="http://www.w3.org/1999/xlink" ffdec:objectType="frame" height="97.4px" width="115.7px" xmlns="http://www.w3.org/2000/svg">
  <g transform="matrix(2.0, 0.0, 0.0, 2.0, 40.5, 45.2)">
    <use ffdec:characterId="2244" height="23.0" id="moveColor" transform="matrix(1.0, 0.0, 0.0, 1.0, -11.5, -11.5)" width="23.0" xlink:href="#sprite0"/>
    <clipPath id="clipPath0" transform="matrix(1.0, 0.0, 0.0, 1.0, 0.0, 0.0)">
      <path d="M11.5 0.0 Q11.5 4.75 8.15 8.15 4.8 11.5 0.0 11.5 -4.8 11.5 -8.15 8.15 -11.5 4.75 -11.5 0.0 L-11.4 -1.3 -11.35 -1.85 Q-10.8 -5.45 -8.15 -8.15 -4.8 -11.5 0.0 -11.5 L2.95 -11.15 Q5.85 -10.45 8.15 -8.15 10.4 -5.85 11.2 -2.9 L11.3 -2.45 11.5 0.0" fill="#ffcc00" fill-rule="evenodd" stroke="none"/>
    </clipPath>
    <g clip-path="url(#clipPath0)">
      <use ffdec:characterId="2250" height="27.7" transform="matrix(1.0, 0.0, 0.0, 1.0, -13.8, -13.3)" width="27.7" xlink:href="#shape2"/>
      <filter id="filter0">
        <feColorMatrix in="SourceGraphic" result="filterResult0" type="matrix" values="0 0 0 0 1.0,0 0 0 0 0.0,0 0 0 0 0.0,0 0 0 1 0"/>
        <feConvolveMatrix divisor="25.0" in="filterResult0" kernelMatrix="1 1 1 1 1 1 1 1 1 1 1 1 1 1 1 1 1 1 1 1 1 1 1 1 1" order="5 5" result="filterResult1"/>
        <feComposite in="SourceGraphic" in2="filterResult1" operator="over" result="filterResult2"/>
      </filter>
      <use ffdec:characterId="2249" filter="url(#filter0)" height="19.35" transform="matrix(1.0, 0.0, 0.0, 1.0, -7.95, -10.9)" width="16.25" xlink:href="#sprite1"/>
    </g>
    <use ffdec:characterId="2247" height="23.75" transform="matrix(1.0, 0.0, 0.0, 1.0, -11.65, -11.75)" width="23.75" xlink:href="#shape4"/>
    <use ffdec:characterId="2246" height="17.95" transform="matrix(1.0, 0.0, 0.0, 1.0, -9.05, -8.85)" width="18.6" xlink:href="#shape5"/>
    <use ffdec:characterId="2241" height="23.0" id="bfilter" transform="matrix(1.0, 0.0, 0.0, 1.0, -11.5, -11.5)" width="23.0" xlink:href="#sprite2"/>
    <use ffdec:characterId="2245" height="19.05" transform="matrix(1.0, 0.0, 0.0, 1.0, -17.2, -8.65)" width="34.35" xlink:href="#text0"/>
  </g>
  <defs>
    <g id="sprite0" transform="matrix(1.0, 0.0, 0.0, 1.0, 11.5, 11.5)">
      <use ffdec:characterId="2243" height="23.0" transform="matrix(1.0, 0.0, 0.0, 1.0, -11.5, -11.5)" width="23.0" xlink:href="#shape0"/>
    </g>
    <g id="shape0" transform="matrix(1.0, 0.0, 0.0, 1.0, 11.5, 11.5)">
      <path d="M11.5 0.0 Q11.5 4.75 8.15 8.15 4.8 11.5 0.0 11.5 -4.8 11.5 -8.15 8.15 -11.5 4.75 -11.5 0.0 L-11.4 -1.3 -11.35 -1.85 Q-10.8 -5.45 -8.15 -8.15 -4.8 -11.5 0.0 -11.5 L2.95 -11.15 Q5.85 -10.45 8.15 -8.15 10.4 -5.85 11.2 -2.9 L11.3 -2.45 11.5 0.0" fill="#262626" fill-rule="evenodd" stroke="none"/>
    </g>
    <g id="shape2" transform="matrix(1.0, 0.0, 0.0, 1.0, 13.8, 13.3)">
      <path d="M9.85 -9.25 Q13.9 -5.2 13.9 0.55 13.9 6.3 9.85 10.35 5.8 14.4 0.05 14.4 -5.7 14.4 -9.75 10.35 -13.8 6.3 -13.8 0.55 -13.8 -5.2 -9.75 -9.25 -5.7 -13.3 0.05 -13.3 5.8 -13.3 9.85 -9.25" fill="url(#gradient0)" fill-rule="evenodd" stroke="none"/>
    </g>
    <radialGradient cx="0" cy="0" gradientTransform="matrix(0.03, 0.0, 0.0, 0.03, 3.9, 10.5)" gradientUnits="userSpaceOnUse" id="gradient0" r="819.2" spreadMethod="pad">
      <stop offset="0.0" stop-color="#a03d3d"/>
      <stop offset="0.41568627450980394" stop-color="#371515"/>
      <stop offset="0.7686274509803922" stop-color="#000000"/>
    </radialGradient>
    <g id="sprite1" transform="matrix(1.0, 0.0, 0.0, 1.0, 7.6, 10.6)">
      <use ffdec:characterId="2248" height="19.35" transform="matrix(1.0, 0.0, 0.0, 1.0, -7.6, -10.6)" width="16.25" xlink:href="#shape3"/>
    </g>
    <g id="shape3" transform="matrix(1.0, 0.0, 0.0, 1.0, 7.6, 10.6)">
      <path d="M-4.6 -10.6 Q-2.05 -7.5 0.05 -3.85 2.1 -0.3 4.5 3.1 L8.65 8.75 Q7.2 8.4 6.05 7.1 L6.0 7.1 5.75 7.35 Q2.9 8.35 -0.15 7.85 L-0.4 7.45 -0.45 6.95 -0.4 6.45 -0.25 6.1 -0.1 6.0 0.15 5.9 0.65 5.7 0.75 5.35 Q1.1 5.0 1.55 5.15 L2.3 5.35 Q2.65 5.2 1.7 4.95 0.9 4.75 0.25 4.35 L0.15 4.0 0.3 3.8 0.45 3.7 -1.4 3.85 Q-2.1 3.95 -2.4 3.45 -2.45 2.95 -1.9 2.85 L-0.45 2.7 -0.9 2.15 -0.95 1.95 Q-0.85 1.5 -0.4 1.6 L0.95 2.1 1.0 2.1 1.2 2.1 0.3 1.4 -0.65 0.4 -1.25 -0.05 -1.3 -0.15 -1.3 -0.25 -1.3 -0.5 -1.2 -0.75 -1.15 -0.9 -2.15 -1.65 -2.3 -1.85 -2.55 -1.75 -2.65 -1.7 -3.45 -1.6 -3.7 -1.6 -4.0 -1.9 -4.2 -2.6 -4.15 -3.2 Q-4.15 -3.55 -3.75 -3.55 L-3.75 -3.6 -3.6 -3.6 -3.6 -3.7 -3.4 -3.9 -2.8 -4.1 -2.55 -4.1 -3.25 -4.75 -4.0 -5.45 Q-4.35 -5.8 -4.2 -6.25 L-4.15 -6.35 -4.05 -6.45 -3.8 -6.55 -3.75 -6.7 -3.8 -6.8 Q-4.1 -7.05 -4.2 -7.45 L-4.75 -8.25 -5.2 -8.9 -5.25 -9.15 -5.15 -9.25 -5.05 -9.35 -4.65 -9.45 Q-4.85 -10.1 -4.6 -10.6 M-6.9 -4.5 L-6.55 -4.45 -6.35 -4.4 -6.25 -4.25 -6.15 -4.05 -6.05 -3.65 -6.05 -3.2 -6.1 -3.05 -6.2 -2.95 -6.9 -2.85 -7.5 -3.15 -7.55 -3.25 -7.6 -3.4 -7.6 -3.65 -7.55 -3.85 -7.5 -4.1 -7.4 -4.25 -7.3 -4.35 -7.1 -4.45 -6.95 -4.45 -6.9 -4.5 M-4.55 0.95 L-4.55 1.4 -4.75 1.85 -4.9 1.9 -5.3 1.55 -5.35 0.95 Q-5.3 0.6 -4.9 0.6 -4.65 0.65 -4.55 0.95" fill="#fe9a9a" fill-rule="evenodd" stroke="none"/>
    </g>
    <g id="shape4" transform="matrix(1.0, 0.0, 0.0, 1.0, 11.65, 11.75)">
      <path d="M0.25 -11.75 Q5.15 -11.8 8.65 -8.3 12.1 -4.8 12.1 0.15 L12.0 2.15 12.0 2.2 11.9 2.65 11.9 2.75 Q11.55 4.35 10.75 5.8 9.9 7.25 8.65 8.5 L6.85 10.05 Q3.95 12.0 0.25 12.0 -3.5 12.0 -6.35 10.05 L-8.15 8.5 Q-9.55 7.1 -10.35 5.5 -11.2 3.85 -11.45 2.05 L-11.65 0.15 Q-11.65 -4.8 -8.15 -8.3 -4.7 -11.8 0.25 -11.75" fill="url(#gradient1)" fill-rule="evenodd" stroke="none"/>
    </g>
    <radialGradient cx="0" cy="0" gradientTransform="matrix(0.0154, 0.0, 0.0, 0.0154, 0.5, 0.35)" gradientUnits="userSpaceOnUse" id="gradient1" r="819.2" spreadMethod="pad">
      <stop offset="0.4117647058823529" stop-color="#000000" stop-opacity="0.0"/>
      <stop offset="0.7450980392156863" stop-color="#000000" stop-opacity="0.2"/>
      <stop offset="1.0" stop-color="#000000" stop-opacity="0.7529412"/>
    </radialGradient>
    <g id="shape5" transform="matrix(1.0, 0.0, 0.0, 1.0, 9.05, 8.85)">
      <path d="M6.8 -6.25 Q9.55 -3.6 9.55 0.1 9.55 3.8 6.8 6.45 4.1 9.1 0.25 9.1 -3.65 9.1 -6.4 6.45 -9.1 3.8 -9.05 0.1 -9.1 -3.6 -6.4 -6.25 -3.65 -8.9 0.25 -8.85 4.1 -8.9 6.8 -6.25" fill="url(#gradient2)" fill-rule="evenodd" stroke="none"/>
    </g>
    <radialGradient cx="0" cy="0" gradientTransform="matrix(0.0, 0.0085, -0.0193, 0.0, 0.65, -6.6)" gradientUnits="userSpaceOnUse" id="gradient2" r="819.2" spreadMethod="pad">
      <stop offset="0.0" stop-color="#ffffff" stop-opacity="0.9137255"/>
      <stop offset="0.5098039215686274" stop-color="#ffffff" stop-opacity="0.2901961"/>
      <stop offset="1.0" stop-color="#ffffff" stop-opacity="0.0"/>
    </radialGradient>
    <g id="sprite2" transform="matrix(1.0, 0.0, 0.0, 1.0, 11.5, 11.5)">
      <use ffdec:characterId="2240" height="23.0" transform="matrix(1.0, 0.0, 0.0, 1.0, -11.5, -11.5)" width="23.0" xlink:href="#shape6"/>
    </g>
    <g id="shape6" transform="matrix(1.0, 0.0, 0.0, 1.0, 11.5, 11.5)">
      <path d="M11.5 0.0 Q11.5 4.75 8.15 8.15 4.8 11.5 0.0 11.5 -4.8 11.5 -8.15 8.15 -11.5 4.75 -11.5 0.0 L-11.4 -1.3 -11.35 -1.85 Q-10.8 -5.45 -8.15 -8.15 -4.8 -11.5 0.0 -11.5 L2.95 -11.15 Q5.85 -10.45 8.15 -8.15 10.4 -5.85 11.2 -2.9 L11.3 -2.45 11.5 0.0" fill="#000000" fill-rule="evenodd" stroke="none"/>
    </g>
  </defs>
</svg>
