<?xml version="1.0" encoding="UTF-8" standalone="no"?>
<svg xmlns:ffdec="https://www.free-decompiler.com/flash" xmlns:xlink="http://www.w3.org/1999/xlink" ffdec:objectType="frame" height="97.4px" width="115.7px" xmlns="http://www.w3.org/2000/svg">
  <g transform="matrix(2.0, 0.0, 0.0, 2.0, 40.5, 45.2)">
    <use ffdec:characterId="2244" height="23.0" id="moveColor" transform="matrix(1.0, 0.0, 0.0, 1.0, -11.5, -11.5)" width="23.0" xlink:href="#sprite0"/>
    <clipPath id="clipPath0" transform="matrix(1.0, 0.0, 0.0, 1.0, 0.0, 0.0)">
      <path d="M11.5 0.0 Q11.5 4.75 8.15 8.15 4.8 11.5 0.0 11.5 -4.8 11.5 -8.15 8.15 -11.5 4.75 -11.5 0.0 L-11.4 -1.3 -11.35 -1.85 Q-10.8 -5.45 -8.15 -8.15 -4.8 -11.5 0.0 -11.5 L2.95 -11.15 Q5.85 -10.45 8.15 -8.15 10.4 -5.85 11.2 -2.9 L11.3 -2.45 11.5 0.0" fill="#ffcc00" fill-rule="evenodd" stroke="none"/>
    </clipPath>
    <g clip-path="url(#clipPath0)">
      <use ffdec:characterId="2288" height="25.0" transform="matrix(1.0, 0.0, 0.0, 1.0, -12.85, -12.2)" width="25.0" xlink:href="#shape2"/>
      <filter id="filter0">
        <feColorMatrix in="SourceGraphic" result="filterResult0" type="matrix" values="0 0 0 0 1.0,0 0 0 0 0.2,0 0 0 0 0.8,0 0 0 1 0"/>
        <feConvolveMatrix divisor="25.0" in="filterResult0" kernelMatrix="1 1 1 1 1 1 1 1 1 1 1 1 1 1 1 1 1 1 1 1 1 1 1 1 1" order="5 5" result="filterResult1"/>
        <feComposite in="SourceGraphic" in2="filterResult1" operator="over" result="filterResult2"/>
      </filter>
      <use ffdec:characterId="2287" filter="url(#filter0)" height="22.4" transform="matrix(1.0, 0.0, 0.0, 1.0, -14.25, -9.35)" width="22.2" xlink:href="#sprite1"/>
    </g>
    <use ffdec:characterId="2247" height="23.75" transform="matrix(1.0, 0.0, 0.0, 1.0, -11.65, -11.75)" width="23.75" xlink:href="#shape4"/>
    <use ffdec:characterId="2246" height="17.95" transform="matrix(1.0, 0.0, 0.0, 1.0, -9.05, -8.85)" width="18.6" xlink:href="#shape5"/>
    <use ffdec:characterId="2241" height="23.0" id="bfilter" transform="matrix(1.0, 0.0, 0.0, 1.0, -11.5, -11.5)" width="23.0" xlink:href="#sprite2"/>
    <use ffdec:characterId="2245" height="19.05" transform="matrix(1.0, 0.0, 0.0, 1.0, -17.2, -8.65)" width="34.35" xlink:href="#text0"/>
  </g>
  <defs>
    <g id="sprite0" transform="matrix(1.0, 0.0, 0.0, 1.0, 11.5, 11.5)">
      <use ffdec:characterId="2243" height="23.0" transform="matrix(1.0, 0.0, 0.0, 1.0, -11.5, -11.5)" width="23.0" xlink:href="#shape0"/>
    </g>
    <g id="shape0" transform="matrix(1.0, 0.0, 0.0, 1.0, 11.5, 11.5)">
      <path d="M11.5 0.0 Q11.5 4.75 8.15 8.15 4.8 11.5 0.0 11.5 -4.8 11.5 -8.15 8.15 -11.5 4.75 -11.5 0.0 L-11.4 -1.3 -11.35 -1.85 Q-10.8 -5.45 -8.15 -8.15 -4.8 -11.5 0.0 -11.5 L2.95 -11.15 Q5.85 -10.45 8.15 -8.15 10.4 -5.85 11.2 -2.9 L11.3 -2.45 11.5 0.0" fill="#262626" fill-rule="evenodd" stroke="none"/>
    </g>
    <g id="shape2" transform="matrix(1.0, 0.0, 0.0, 1.0, 12.85, 12.2)">
      <path d="M-0.35 -12.2 Q4.85 -12.2 8.5 -8.55 12.15 -4.9 12.15 0.3 12.15 5.5 8.5 9.15 4.85 12.8 -0.35 12.8 -5.55 12.8 -9.2 9.15 -12.85 5.5 -12.85 0.3 -12.85 -4.9 -9.2 -8.55 -5.55 -12.2 -0.35 -12.2" fill="url(#gradient0)" fill-rule="evenodd" stroke="none"/>
    </g>
    <radialGradient cx="0" cy="0" gradientTransform="matrix(0.0289, 0.0, 0.0, 0.0289, 7.0, 8.2)" gradientUnits="userSpaceOnUse" id="gradient0" r="819.2" spreadMethod="pad">
      <stop offset="0.0" stop-color="#604161"/>
      <stop offset="0.42745098039215684" stop-color="#291b28"/>
      <stop offset="0.8509803921568627" stop-color="#000000"/>
    </radialGradient>
    <g id="sprite1" transform="matrix(1.0, 0.0, 0.0, 1.0, 10.55, 8.4)">
      <use ffdec:characterId="2286" height="22.4" transform="matrix(1.0, 0.0, 0.0, 1.0, -10.55, -8.4)" width="22.2" xlink:href="#shape3"/>
    </g>
    <g id="shape3" transform="matrix(1.0, 0.0, 0.0, 1.0, 10.55, 8.4)">
      <path d="M-3.6 10.65 L-3.6 10.6 -4.45 11.2 -8.05 8.6 Q-10.55 6.65 -10.55 5.65 -10.55 4.4 -9.4 4.4 -7.05 5.5 -6.15 5.5 L-6.35 3.85 Q-6.15 -3.65 -3.4 -3.65 -2.1 -3.65 -2.4 -2.1 L-2.7 0.3 -2.25 -0.1 Q-1.6 -0.6 -1.2 -0.6 0.05 -0.6 0.1 0.7 0.1 1.25 -0.5 1.75 -1.15 2.35 -1.7 2.35 -2.55 2.35 -2.85 1.55 L-3.05 3.5 Q-2.6 3.7 -2.6 4.2 -2.6 4.9 -3.1 5.1 L-3.1 5.4 Q-3.1 6.45 -2.5 7.35 L-2.6 7.6 -3.9 5.45 Q-5.0 5.45 -5.0 6.45 -5.0 7.15 -4.4 8.4 -3.95 9.5 -3.3 9.9 L-3.35 10.15 -3.3 10.25 -3.6 10.65 M-1.7 5.55 L-1.9 4.95 Q-1.9 4.25 -1.1 4.2 L-0.45 2.6 0.25 0.95 3.5 -6.25 4.7 -8.4 Q3.95 -6.65 3.95 -6.05 3.95 -4.95 1.95 -0.15 L0.35 6.45 0.55 6.45 0.55 6.5 0.45 6.65 -1.5 8.45 -0.4 5.55 0.9 1.5 0.5 1.1 -0.3 2.7 -1.05 4.25 -1.1 4.3 -1.7 5.55 M11.35 -6.0 L11.45 -6.1 11.65 -5.7 11.35 -6.0 M4.0 7.5 Q3.35 7.9 2.85 8.3 L2.8 8.1 Q3.25 7.7 3.85 7.3 L4.0 7.5 M10.2 7.2 L9.3 7.0 Q9.15 6.95 9.15 6.4 9.15 5.65 10.0 5.65 10.9 5.65 10.9 6.45 10.9 7.2 10.2 7.2 M7.5 8.75 Q8.55 8.75 8.85 10.35 8.85 11.35 8.0 11.35 6.1 11.35 6.4 10.15 L6.6 9.25 6.3 9.3 Q5.3 9.3 5.25 8.35 5.25 7.5 6.1 7.5 7.05 7.5 7.05 8.45 L7.0 8.85 7.5 8.75" fill="url(#gradient1)" fill-rule="evenodd" stroke="none"/>
      <path d="M-2.5 7.35 L-1.7 5.55 -1.1 4.3 -1.05 4.25 -0.3 2.7 0.5 1.1 0.9 1.5 -0.4 5.55 -1.5 8.45 0.45 6.65 0.55 6.5 0.55 6.45 Q7.65 -2.1 11.35 -6.0 L11.65 -5.7 6.8 1.1 2.4 6.6 3.5 6.0 Q6.05 4.55 7.4 4.1 L7.5 4.25 7.5 4.2 7.95 4.6 6.8 5.5 4.0 7.5 3.85 7.3 3.95 7.2 4.7 6.7 2.7 7.7 2.8 8.1 2.85 8.3 2.8 8.35 2.75 9.35 2.3 10.3 4.1 11.2 4.05 12.0 4.5 12.05 4.65 12.6 4.55 13.15 Q4.75 13.3 4.2 13.3 L3.9 13.3 Q3.7 14.0 2.8 14.0 L-1.7 11.65 -3.2 11.85 -3.8 11.2 -3.6 10.9 -3.6 10.7 -3.6 10.65 -3.3 10.25 -3.35 10.15 -3.3 9.9 Q-3.95 9.5 -4.4 8.4 -5.0 7.15 -5.0 6.45 -5.0 5.45 -3.9 5.45 L-2.6 7.6 -2.5 7.35" fill="url(#gradient2)" fill-rule="evenodd" stroke="none"/>
    </g>
    <radialGradient cx="0" cy="0" gradientTransform="matrix(0.0263, 0.0, 0.0, 0.0263, -2.4, 10.4)" gradientUnits="userSpaceOnUse" id="gradient1" r="819.2" spreadMethod="pad">
      <stop offset="0.0" stop-color="#ffffff"/>
      <stop offset="0.9137254901960784" stop-color="#9e7db5"/>
    </radialGradient>
    <radialGradient cx="0" cy="0" gradientTransform="matrix(0.0212, 0.0, 0.0, 0.0212, -0.85, 6.15)" gradientUnits="userSpaceOnUse" id="gradient2" r="819.2" spreadMethod="pad">
      <stop offset="0.0" stop-color="#ffffff"/>
      <stop offset="0.9137254901960784" stop-color="#9e7db5"/>
    </radialGradient>
    <g id="shape4" transform="matrix(1.0, 0.0, 0.0, 1.0, 11.65, 11.75)">
      <path d="M0.25 -11.75 Q5.15 -11.8 8.65 -8.3 12.1 -4.8 12.1 0.15 L12.0 2.15 12.0 2.2 11.9 2.65 11.9 2.75 Q11.55 4.35 10.75 5.8 9.9 7.25 8.65 8.5 L6.85 10.05 Q3.95 12.0 0.25 12.0 -3.5 12.0 -6.35 10.05 L-8.15 8.5 Q-9.55 7.1 -10.35 5.5 -11.2 3.85 -11.45 2.05 L-11.65 0.15 Q-11.65 -4.8 -8.15 -8.3 -4.7 -11.8 0.25 -11.75" fill="url(#gradient3)" fill-rule="evenodd" stroke="none"/>
    </g>
    <radialGradient cx="0" cy="0" gradientTransform="matrix(0.0154, 0.0, 0.0, 0.0154, 0.5, 0.35)" gradientUnits="userSpaceOnUse" id="gradient3" r="819.2" spreadMethod="pad">
      <stop offset="0.4117647058823529" stop-color="#000000" stop-opacity="0.0"/>
      <stop offset="0.7450980392156863" stop-color="#000000" stop-opacity="0.2"/>
      <stop offset="1.0" stop-color="#000000" stop-opacity="0.7529412"/>
    </radialGradient>
    <g id="shape5" transform="matrix(1.0, 0.0, 0.0, 1.0, 9.05, 8.85)">
      <path d="M6.8 -6.25 Q9.55 -3.6 9.55 0.1 9.55 3.8 6.8 6.45 4.1 9.1 0.25 9.1 -3.65 9.1 -6.4 6.45 -9.1 3.8 -9.05 0.1 -9.1 -3.6 -6.4 -6.25 -3.65 -8.9 0.25 -8.85 4.1 -8.9 6.8 -6.25" fill="url(#gradient4)" fill-rule="evenodd" stroke="none"/>
    </g>
    <radialGradient cx="0" cy="0" gradientTransform="matrix(0.0, 0.0085, -0.0193, 0.0, 0.65, -6.6)" gradientUnits="userSpaceOnUse" id="gradient4" r="819.2" spreadMethod="pad">
      <stop offset="0.0" stop-color="#ffffff" stop-opacity="0.9137255"/>
      <stop offset="0.5098039215686274" stop-color="#ffffff" stop-opacity="0.2901961"/>
      <stop offset="1.0" stop-color="#ffffff" stop-opacity="0.0"/>
    </radialGradient>
    <g id="sprite2" transform="matrix(1.0, 0.0, 0.0, 1.0, 11.5, 11.5)">
      <use ffdec:characterId="2240" height="23.0" transform="matrix(1.0, 0.0, 0.0, 1.0, -11.5, -11.5)" width="23.0" xlink:href="#shape6"/>
    </g>
    <g id="shape6" transform="matrix(1.0, 0.0, 0.0, 1.0, 11.5, 11.5)">
      <path d="M11.5 0.0 Q11.5 4.75 8.15 8.15 4.8 11.5 0.0 11.5 -4.8 11.5 -8.15 8.15 -11.5 4.75 -11.5 0.0 L-11.4 -1.3 -11.35 -1.85 Q-10.8 -5.45 -8.15 -8.15 -4.8 -11.5 0.0 -11.5 L2.95 -11.15 Q5.85 -10.45 8.15 -8.15 10.4 -5.85 11.2 -2.9 L11.3 -2.45 11.5 0.0" fill="#000000" fill-rule="evenodd" stroke="none"/>
    </g>
  </defs>
</svg>
