<?xml version="1.0" encoding="UTF-8" standalone="no"?>
<svg xmlns:ffdec="https://www.free-decompiler.com/flash" xmlns:xlink="http://www.w3.org/1999/xlink" ffdec:objectType="frame" height="97.4px" width="115.7px" xmlns="http://www.w3.org/2000/svg">
  <g transform="matrix(2.0, 0.0, 0.0, 2.0, 40.5, 45.2)">
    <use ffdec:characterId="2244" height="23.0" id="moveColor" transform="matrix(1.0, 0.0, 0.0, 1.0, -11.5, -11.5)" width="23.0" xlink:href="#sprite0"/>
    <clipPath id="clipPath0" transform="matrix(1.0, 0.0, 0.0, 1.0, 0.0, 0.0)">
      <path d="M11.5 0.0 Q11.5 4.75 8.15 8.15 4.8 11.5 0.0 11.5 -4.8 11.5 -8.15 8.15 -11.5 4.75 -11.5 0.0 L-11.4 -1.3 -11.35 -1.85 Q-10.8 -5.45 -8.15 -8.15 -4.8 -11.5 0.0 -11.5 L2.95 -11.15 Q5.85 -10.45 8.15 -8.15 10.4 -5.85 11.2 -2.9 L11.3 -2.45 11.5 0.0" fill="#ffcc00" fill-rule="evenodd" stroke="none"/>
    </clipPath>
    <g clip-path="url(#clipPath0)">
      <use ffdec:characterId="2278" height="25.0" transform="matrix(1.0, 0.0, 0.0, 1.0, -12.85, -12.2)" width="25.0" xlink:href="#shape2"/>
      <filter id="filter0">
        <feColorMatrix in="SourceGraphic" result="filterResult0" type="matrix" values="0 0 0 0 0.2,0 0 0 0 1.0,0 0 0 0 0.0,0 0 0 1 0"/>
        <feConvolveMatrix divisor="25.0" in="filterResult0" kernelMatrix="1 1 1 1 1 1 1 1 1 1 1 1 1 1 1 1 1 1 1 1 1 1 1 1 1" order="5 5" result="filterResult1"/>
        <feComposite in="SourceGraphic" in2="filterResult1" operator="over" result="filterResult2"/>
      </filter>
      <use ffdec:characterId="2301" filter="url(#filter0)" height="26.75" transform="matrix(1.0, 0.0, 0.0, 1.0, -12.6, -13.1)" width="25.6" xlink:href="#sprite1"/>
    </g>
    <use ffdec:characterId="2247" height="23.75" transform="matrix(1.0, 0.0, 0.0, 1.0, -11.65, -11.75)" width="23.75" xlink:href="#shape4"/>
    <use ffdec:characterId="2246" height="17.95" transform="matrix(1.0, 0.0, 0.0, 1.0, -9.05, -8.85)" width="18.6" xlink:href="#shape5"/>
    <use ffdec:characterId="2241" height="23.0" id="bfilter" transform="matrix(1.0, 0.0, 0.0, 1.0, -11.5, -11.5)" width="23.0" xlink:href="#sprite2"/>
    <use ffdec:characterId="2245" height="19.05" transform="matrix(1.0, 0.0, 0.0, 1.0, -17.2, -8.65)" width="34.35" xlink:href="#text0"/>
  </g>
  <defs>
    <g id="sprite0" transform="matrix(1.0, 0.0, 0.0, 1.0, 11.5, 11.5)">
      <use ffdec:characterId="2243" height="23.0" transform="matrix(1.0, 0.0, 0.0, 1.0, -11.5, -11.5)" width="23.0" xlink:href="#shape0"/>
    </g>
    <g id="shape0" transform="matrix(1.0, 0.0, 0.0, 1.0, 11.5, 11.5)">
      <path d="M11.5 0.0 Q11.5 4.75 8.15 8.15 4.8 11.5 0.0 11.5 -4.8 11.5 -8.15 8.15 -11.5 4.75 -11.5 0.0 L-11.4 -1.3 -11.35 -1.85 Q-10.8 -5.45 -8.15 -8.15 -4.8 -11.5 0.0 -11.5 L2.95 -11.15 Q5.85 -10.45 8.15 -8.15 10.4 -5.85 11.2 -2.9 L11.3 -2.45 11.5 0.0" fill="#262626" fill-rule="evenodd" stroke="none"/>
    </g>
    <g id="shape2" transform="matrix(1.0, 0.0, 0.0, 1.0, 12.85, 12.2)">
      <path d="M-0.35 -12.2 Q4.85 -12.2 8.5 -8.55 12.15 -4.9 12.15 0.3 12.15 5.5 8.5 9.15 4.85 12.8 -0.35 12.8 -5.55 12.8 -9.2 9.15 -12.85 5.5 -12.85 0.3 -12.85 -4.9 -9.2 -8.55 -5.55 -12.2 -0.35 -12.2" fill="url(#gradient0)" fill-rule="evenodd" stroke="none"/>
    </g>
    <radialGradient cx="0" cy="0" gradientTransform="matrix(0.0289, 0.0, 0.0, 0.0289, 7.0, 8.2)" gradientUnits="userSpaceOnUse" id="gradient0" r="819.2" spreadMethod="pad">
      <stop offset="0.0" stop-color="#277a2f"/>
      <stop offset="0.42745098039215684" stop-color="#1b291d"/>
      <stop offset="0.8509803921568627" stop-color="#000000"/>
    </radialGradient>
    <g id="sprite1" transform="matrix(1.0, 0.0, 0.0, 1.0, 12.8, 13.35)">
      <use ffdec:characterId="2300" height="26.75" transform="matrix(1.0, 0.0, 0.0, 1.0, -12.8, -13.35)" width="25.6" xlink:href="#shape3"/>
    </g>
    <g id="shape3" transform="matrix(1.0, 0.0, 0.0, 1.0, 12.8, 13.35)">
      <path d="M0.8 -13.35 Q1.2 -12.95 0.05 -11.95 -0.9 -11.05 -1.45 -9.85 L-1.65 -9.3 -1.4 -6.2 -1.35 -5.1 -1.0 -3.2 -0.25 -2.4 1.0 -1.25 1.75 -0.35 Q1.55 -0.45 1.8 -0.15 2.5 -0.3 3.1 -1.0 L4.0 -2.25 5.2 -3.25 5.25 -3.2 5.15 -4.0 4.7 -6.95 4.55 -8.35 3.75 -9.65 Q3.25 -10.3 3.45 -11.0 L3.5 -11.05 3.5 -11.2 3.5 -11.45 3.6 -11.65 Q3.65 -11.8 3.8 -11.75 4.2 -11.65 4.4 -11.2 L4.9 -10.45 5.25 -9.8 5.45 -10.0 6.2 -10.75 Q6.5 -11.15 6.95 -11.35 L7.0 -11.2 7.0 -11.05 7.05 -10.9 7.05 -10.75 7.0 -10.7 7.05 -10.7 6.2 -8.9 Q5.85 -8.2 5.8 -7.35 L5.95 -6.15 6.15 -3.6 6.15 -2.55 6.4 -2.4 6.25 -2.85 6.3 -2.95 Q6.75 -2.05 7.7 -1.45 8.65 -0.85 9.75 -1.05 L10.65 -1.25 10.7 -1.4 Q11.15 -2.1 11.65 -2.0 L11.7 -1.95 12.0 -2.3 12.4 -2.8 12.8 -3.1 Q12.95 -2.4 12.1 -1.75 L11.3 -0.95 11.1 -0.75 10.85 -0.45 9.8 0.5 9.9 1.0 9.9 1.1 9.95 2.65 9.95 2.75 10.15 4.0 10.0 5.95 9.85 7.15 9.5 7.05 9.35 6.65 Q9.35 6.45 9.3 6.6 L9.2 6.75 9.1 6.85 8.85 6.9 8.85 6.85 9.1 4.65 8.9 2.35 8.85 1.2 8.2 0.2 8.15 0.25 8.1 0.3 8.0 0.35 7.0 -0.5 6.1 -1.6 6.0 -1.7 5.8 -1.25 5.6 -1.75 5.1 -1.2 3.75 0.3 2.8 1.15 2.9 1.45 2.95 1.55 3.2 3.3 3.25 4.05 3.15 3.6 3.15 3.85 3.2 6.2 3.2 6.35 3.2 6.55 3.25 6.8 3.3 6.9 3.3 7.0 3.35 7.3 3.4 7.9 3.5 8.85 4.9 9.5 6.6 10.7 8.05 11.9 Q7.4 12.3 6.55 11.5 5.55 10.6 4.3 10.0 L3.35 9.4 3.2 9.4 3.0 9.4 3.0 9.35 1.95 10.6 1.4 11.3 0.95 11.9 0.4 12.6 -0.4 13.4 -0.75 13.1 -0.75 12.75 -1.2 12.3 -1.75 11.35 Q-2.1 10.8 -2.65 10.75 L-2.9 10.6 -3.85 9.75 -4.55 8.8 -5.1 7.9 -5.55 8.55 -6.85 10.1 -7.05 10.45 Q-7.45 11.4 -8.2 11.6 -8.2 10.9 -7.7 10.2 L-6.7 8.9 -7.25 9.4 -7.45 9.65 -7.85 9.75 -8.5 9.7 -8.6 9.65 Q-6.75 8.7 -6.2 6.65 -5.8 5.15 -5.95 3.55 -6.05 2.4 -5.8 1.65 L-5.6 2.15 -5.6 2.1 -5.4 1.85 -6.55 0.7 -7.05 0.05 -8.0 -0.75 Q-9.1 -1.75 -10.3 -1.15 L-11.1 -0.35 -11.95 0.9 -12.1 0.95 -12.2 0.9 -12.3 0.8 -12.3 0.75 -12.5 0.8 -12.7 0.8 -12.8 0.75 -11.75 -0.6 -11.2 -1.15 -11.25 -1.2 -11.45 -1.4 -11.05 -2.0 -9.85 -2.65 -9.7 -2.7 -9.45 -3.65 -9.35 -4.7 -9.15 -5.55 -9.1 -5.55 -8.85 -5.35 -9.0 -6.9 -9.0 -9.05 Q-8.55 -7.1 -8.65 -4.95 L-8.65 -4.85 -8.65 -4.55 -8.65 -4.45 Q-8.6 -2.95 -7.8 -1.8 L-6.95 -1.2 -6.95 -1.15 -7.0 -1.05 -7.1 -0.9 -7.1 -0.85 -6.65 -0.3 -6.5 -0.2 Q-6.2 0.0 -6.1 0.35 L-5.9 0.55 -5.8 0.6 Q-5.15 0.8 -4.75 0.3 L-4.2 -0.25 Q-3.85 -0.05 -3.5 -0.25 L-2.4 -2.25 -2.35 -2.45 -2.25 -3.9 -2.2 -3.95 -1.9 -3.95 -1.9 -4.25 -1.95 -4.3 -2.0 -5.6 -2.1 -7.1 -2.2 -7.05 Q-2.6 -7.1 -2.55 -7.65 L-2.4 -8.4 -2.35 -8.45 -2.55 -8.95 -3.55 -10.85 -4.25 -11.5 Q-4.8 -11.95 -4.55 -12.45 L-4.5 -12.45 Q-4.0 -12.3 -3.6 -11.9 L-2.8 -11.2 -2.7 -11.15 -2.05 -10.45 -1.95 -10.5 -1.8 -10.85 -1.8 -10.75 -1.6 -11.0 -0.8 -12.1 -0.3 -13.1 0.05 -12.85 0.8 -13.35 M5.45 -9.15 L5.25 -9.05 5.25 -9.0 5.45 -9.15 M4.05 -10.05 L4.25 -9.85 4.0 -10.2 3.9 -10.35 3.95 -10.25 4.05 -10.05 M0.95 -0.25 L1.1 -0.05 1.1 -0.15 1.05 -0.25 0.95 -0.25 M4.65 -2.15 L4.45 -1.85 4.75 -1.95 4.9 -2.3 5.1 -2.65 5.1 -2.7 4.9 -2.45 4.65 -2.15 M8.85 -0.6 L8.4 -0.65 8.35 -0.65 8.65 -0.4 9.0 -0.45 9.2 -0.45 9.65 -0.5 8.85 -0.6 M9.75 0.05 L9.2 0.1 9.45 0.4 9.6 0.35 9.65 0.35 9.75 0.05 M2.55 0.3 L2.5 0.4 2.55 0.5 2.6 0.6 3.0 0.0 2.55 0.3 M0.7 0.15 L-0.7 -1.5 -0.75 -1.55 Q-1.6 -1.6 -2.15 -0.85 L-2.5 0.1 -2.55 0.4 -2.75 0.7 -3.7 1.2 -4.25 1.4 -4.55 1.8 -4.6 1.85 -4.6 2.0 -4.6 2.15 -4.65 2.3 -4.9 2.2 -4.95 2.25 -4.95 2.3 -4.9 2.4 -4.85 2.5 -4.75 2.65 -4.75 2.75 -4.65 2.9 -4.65 2.95 -4.75 2.95 -4.55 4.1 -4.35 6.65 -4.3 8.2 -3.1 9.15 -1.4 10.8 -0.75 11.75 0.0 10.75 1.85 9.1 2.05 9.0 2.3 8.65 2.1 7.7 2.05 6.55 Q2.0 6.0 2.1 5.45 L2.15 5.4 2.3 5.35 2.45 5.35 2.5 5.3 2.45 5.2 2.4 5.1 2.15 4.1 2.0 2.6 Q1.85 1.85 2.15 1.4 L1.8 1.2 1.75 1.25 1.6 1.3 1.5 1.15 1.5 1.0 1.55 1.0 0.7 0.15 M-8.8 -2.35 L-8.8 -2.8 -9.15 -2.5 -8.8 -2.35 M-1.5 -2.5 L-1.55 -2.6 -1.55 -2.4 -1.4 -2.2 -1.5 -2.5 M-5.05 7.45 L-5.05 7.65 -5.0 7.65 -4.85 7.75 -5.0 7.15 -5.05 7.45" fill="url(#gradient1)" fill-rule="evenodd" stroke="none"/>
    </g>
    <radialGradient cx="0" cy="0" gradientTransform="matrix(0.0178, 0.0, 0.0, 0.0178, 0.0, 0.05)" gradientUnits="userSpaceOnUse" id="gradient1" r="819.2" spreadMethod="pad">
      <stop offset="0.0" stop-color="#ffffff"/>
      <stop offset="1.0" stop-color="#6af347"/>
    </radialGradient>
    <g id="shape4" transform="matrix(1.0, 0.0, 0.0, 1.0, 11.65, 11.75)">
      <path d="M0.25 -11.75 Q5.15 -11.8 8.65 -8.3 12.1 -4.8 12.1 0.15 L12.0 2.15 12.0 2.2 11.9 2.65 11.9 2.75 Q11.55 4.35 10.75 5.8 9.9 7.25 8.65 8.5 L6.85 10.05 Q3.95 12.0 0.25 12.0 -3.5 12.0 -6.35 10.05 L-8.15 8.5 Q-9.55 7.1 -10.35 5.5 -11.2 3.85 -11.45 2.05 L-11.65 0.15 Q-11.65 -4.8 -8.15 -8.3 -4.7 -11.8 0.25 -11.75" fill="url(#gradient2)" fill-rule="evenodd" stroke="none"/>
    </g>
    <radialGradient cx="0" cy="0" gradientTransform="matrix(0.0154, 0.0, 0.0, 0.0154, 0.5, 0.35)" gradientUnits="userSpaceOnUse" id="gradient2" r="819.2" spreadMethod="pad">
      <stop offset="0.4117647058823529" stop-color="#000000" stop-opacity="0.0"/>
      <stop offset="0.7450980392156863" stop-color="#000000" stop-opacity="0.2"/>
      <stop offset="1.0" stop-color="#000000" stop-opacity="0.7529412"/>
    </radialGradient>
    <g id="shape5" transform="matrix(1.0, 0.0, 0.0, 1.0, 9.05, 8.85)">
      <path d="M6.8 -6.25 Q9.55 -3.6 9.55 0.1 9.55 3.8 6.8 6.45 4.1 9.1 0.25 9.1 -3.65 9.1 -6.4 6.45 -9.1 3.8 -9.05 0.1 -9.1 -3.6 -6.4 -6.25 -3.65 -8.9 0.25 -8.85 4.1 -8.9 6.8 -6.25" fill="url(#gradient3)" fill-rule="evenodd" stroke="none"/>
    </g>
    <radialGradient cx="0" cy="0" gradientTransform="matrix(0.0, 0.0085, -0.0193, 0.0, 0.65, -6.6)" gradientUnits="userSpaceOnUse" id="gradient3" r="819.2" spreadMethod="pad">
      <stop offset="0.0" stop-color="#ffffff" stop-opacity="0.9137255"/>
      <stop offset="0.5098039215686274" stop-color="#ffffff" stop-opacity="0.2901961"/>
      <stop offset="1.0" stop-color="#ffffff" stop-opacity="0.0"/>
    </radialGradient>
    <g id="sprite2" transform="matrix(1.0, 0.0, 0.0, 1.0, 11.5, 11.5)">
      <use ffdec:characterId="2240" height="23.0" transform="matrix(1.0, 0.0, 0.0, 1.0, -11.5, -11.5)" width="23.0" xlink:href="#shape6"/>
    </g>
    <g id="shape6" transform="matrix(1.0, 0.0, 0.0, 1.0, 11.5, 11.5)">
      <path d="M11.5 0.0 Q11.5 4.75 8.15 8.15 4.8 11.5 0.0 11.5 -4.8 11.5 -8.15 8.15 -11.5 4.75 -11.5 0.0 L-11.4 -1.3 -11.35 -1.85 Q-10.8 -5.45 -8.15 -8.15 -4.8 -11.5 0.0 -11.5 L2.95 -11.15 Q5.85 -10.45 8.15 -8.15 10.4 -5.85 11.2 -2.9 L11.3 -2.45 11.5 0.0" fill="#000000" fill-rule="evenodd" stroke="none"/>
    </g>
  </defs>
</svg>
