<?xml version="1.0" encoding="UTF-8" standalone="no"?>
<svg xmlns:ffdec="https://www.free-decompiler.com/flash" xmlns:xlink="http://www.w3.org/1999/xlink" ffdec:objectType="frame" height="97.4px" width="115.7px" xmlns="http://www.w3.org/2000/svg">
  <g transform="matrix(2.0, 0.0, 0.0, 2.0, 40.5, 45.2)">
    <use ffdec:characterId="2244" height="23.0" id="moveColor" transform="matrix(1.0, 0.0, 0.0, 1.0, -11.5, -11.5)" width="23.0" xlink:href="#sprite0"/>
    <clipPath id="clipPath0" transform="matrix(1.0, 0.0, 0.0, 1.0, 0.0, 0.0)">
      <path d="M11.5 0.0 Q11.5 4.75 8.15 8.15 4.8 11.5 0.0 11.5 -4.8 11.5 -8.15 8.15 -11.5 4.75 -11.5 0.0 L-11.4 -1.3 -11.35 -1.85 Q-10.8 -5.45 -8.15 -8.15 -4.8 -11.5 0.0 -11.5 L2.95 -11.15 Q5.85 -10.45 8.15 -8.15 10.4 -5.85 11.2 -2.9 L11.3 -2.45 11.5 0.0" fill="#ffcc00" fill-rule="evenodd" stroke="none"/>
    </clipPath>
    <g clip-path="url(#clipPath0)">
      <use ffdec:characterId="2314" height="25.0" transform="matrix(1.0, 0.0, 0.0, 1.0, -12.85, -12.2)" width="25.0" xlink:href="#shape2"/>
      <filter id="filter0">
        <feFlood flood-color="#ff99ff" flood-opacity="1.0" result="filterResult0"/>
        <feComposite in="filterResult0" in2="SourceGraphic" operator="out" result="filterResult1"/>
        <feConvolveMatrix divisor="4.0" in="filterResult1" kernelMatrix="1 1 1 1" order="2 2" result="filterResult2"/>
        <feComposite in="filterResult2" in2="SourceGraphic" operator="in" result="filterResult3"/>
        <feComposite in="filterResult3" in2="SourceGraphic" operator="over" result="filterResult4"/>
        <feColorMatrix in="filterResult4" result="filterResult5" type="matrix" values="0 0 0 0 1.0,0 0 0 0 0.2,0 0 0 0 0.6,0 0 0 1 0"/>
        <feConvolveMatrix divisor="36.0" in="filterResult5" kernelMatrix="1 1 1 1 1 1 1 1 1 1 1 1 1 1 1 1 1 1 1 1 1 1 1 1 1 1 1 1 1 1 1 1 1 1 1 1" order="6 6" result="filterResult6"/>
        <feComposite in="filterResult4" in2="filterResult6" operator="over" result="filterResult7"/>
        <feColorMatrix in="filterResult7" result="filterResult8" type="matrix" values="0 0 0 0 0.2,0 0 0 0 0.0,0 0 0 0 0.4,0 0 0 1 0"/>
        <feConvolveMatrix divisor="25.0" in="filterResult8" kernelMatrix="1 1 1 1 1 1 1 1 1 1 1 1 1 1 1 1 1 1 1 1 1 1 1 1 1" order="5 5" result="filterResult9"/>
        <feComposite in="filterResult7" in2="filterResult9" operator="over" result="filterResult10"/>
      </filter>
      <use ffdec:characterId="2320" filter="url(#filter0)" height="19.7" transform="matrix(1.0, 0.0, 0.0, 1.0, -8.4, -7.95)" width="19.75" xlink:href="#sprite1"/>
    </g>
    <use ffdec:characterId="2247" height="23.75" transform="matrix(1.0, 0.0, 0.0, 1.0, -11.65, -11.75)" width="23.75" xlink:href="#shape4"/>
    <use ffdec:characterId="2246" height="17.95" transform="matrix(1.0, 0.0, 0.0, 1.0, -9.05, -8.85)" width="18.6" xlink:href="#shape5"/>
    <use ffdec:characterId="2241" height="23.0" id="bfilter" transform="matrix(1.0, 0.0, 0.0, 1.0, -11.5, -11.5)" width="23.0" xlink:href="#sprite2"/>
    <use ffdec:characterId="2245" height="19.05" transform="matrix(1.0, 0.0, 0.0, 1.0, -17.2, -8.65)" width="34.35" xlink:href="#text0"/>
  </g>
  <defs>
    <g id="sprite0" transform="matrix(1.0, 0.0, 0.0, 1.0, 11.5, 11.5)">
      <use ffdec:characterId="2243" height="23.0" transform="matrix(1.0, 0.0, 0.0, 1.0, -11.5, -11.5)" width="23.0" xlink:href="#shape0"/>
    </g>
    <g id="shape0" transform="matrix(1.0, 0.0, 0.0, 1.0, 11.5, 11.5)">
      <path d="M11.5 0.0 Q11.5 4.75 8.15 8.15 4.8 11.5 0.0 11.5 -4.8 11.5 -8.15 8.15 -11.5 4.75 -11.5 0.0 L-11.4 -1.3 -11.35 -1.85 Q-10.8 -5.45 -8.15 -8.15 -4.8 -11.5 0.0 -11.5 L2.95 -11.15 Q5.85 -10.45 8.15 -8.15 10.4 -5.85 11.2 -2.9 L11.3 -2.45 11.5 0.0" fill="#262626" fill-rule="evenodd" stroke="none"/>
    </g>
    <g id="shape2" transform="matrix(1.0, 0.0, 0.0, 1.0, 12.85, 12.2)">
      <path d="M-0.35 -12.2 Q4.85 -12.2 8.5 -8.55 12.15 -4.9 12.15 0.3 12.15 5.5 8.5 9.15 4.85 12.8 -0.35 12.8 -5.55 12.8 -9.2 9.15 -12.85 5.5 -12.85 0.3 -12.85 -4.9 -9.2 -8.55 -5.55 -12.2 -0.35 -12.2" fill="url(#gradient0)" fill-rule="evenodd" stroke="none"/>
    </g>
    <radialGradient cx="0" cy="0" gradientTransform="matrix(0.0289, 0.0, 0.0, 0.0289, 7.0, 8.2)" gradientUnits="userSpaceOnUse" id="gradient0" r="819.2" spreadMethod="pad">
      <stop offset="0.0" stop-color="#5a376a"/>
      <stop offset="0.42745098039215684" stop-color="#1a0d37"/>
      <stop offset="0.8509803921568627" stop-color="#000000"/>
    </radialGradient>
    <g id="sprite1" transform="matrix(1.0, 0.0, 0.0, 1.0, 0.0, 0.0)">
      <use ffdec:characterId="2319" height="19.7" transform="matrix(1.0, 0.0, 0.0, 1.0, 0.0, 0.0)" width="19.75" xlink:href="#shape3"/>
    </g>
    <g id="shape3" transform="matrix(1.0, 0.0, 0.0, 1.0, 0.0, 0.0)">
      <path d="M12.4 4.7 L12.2 5.3 Q12.1 5.65 11.4 5.65 10.8 5.65 10.5 5.25 L10.3 4.65 Q10.3 3.9 11.3 3.85 12.25 3.85 12.4 4.7 M9.15 5.65 L6.75 5.2 Q5.0 5.0 4.4 4.55 L4.35 4.2 6.45 4.35 7.9 4.4 Q9.4 4.4 9.7 4.9 L10.0 5.55 10.0 7.05 9.4 7.3 Q8.85 6.9 8.85 6.5 L9.15 5.65 M17.75 6.2 L16.8 3.45 16.15 1.45 Q16.15 -0.4 17.95 2.35 19.75 5.1 19.75 7.55 L19.65 9.45 Q19.3 10.95 18.0 10.95 16.65 10.95 16.8 9.8 L17.25 8.6 Q17.25 8.2 16.3 7.4 L14.3 5.7 14.6 5.1 15.15 4.9 Q15.95 4.9 17.75 6.2 M15.0 12.5 L15.2 12.05 15.8 11.35 16.05 11.3 Q15.55 10.55 14.2 10.75 12.8 10.9 12.5 10.45 L12.4 9.55 12.5 8.55 Q12.65 8.15 13.4 7.65 L13.9 7.95 Q13.4 9.15 13.4 10.05 15.65 9.65 17.05 10.9 18.15 11.8 18.15 12.7 18.15 13.25 17.4 13.7 16.75 14.1 16.15 14.1 15.45 14.1 15.15 13.35 L15.0 12.5 M8.9 10.2 L8.1 9.8 Q7.8 9.8 7.05 10.35 6.3 10.85 5.65 10.85 4.7 10.85 4.5 10.45 L4.5 10.0 4.65 9.05 5.1 8.95 5.4 9.95 Q8.55 8.0 10.15 9.15 11.25 9.9 11.25 11.6 L10.65 12.95 10.05 14.2 Q10.05 14.65 10.75 15.3 11.6 16.1 12.65 16.1 14.25 16.1 14.5 15.65 14.75 15.2 15.15 15.2 15.8 15.2 16.0 16.35 16.0 18.05 12.9 18.2 L12.15 18.8 Q10.7 19.7 8.5 19.7 5.2 19.7 3.75 18.7 2.85 18.1 2.85 17.4 2.85 16.2 4.95 16.7 L8.2 17.45 9.8 17.4 8.7 16.2 Q8.05 15.2 7.9 14.15 7.9 13.6 8.75 12.5 L9.55 11.0 Q9.55 10.65 8.9 10.2 M13.25 12.2 Q14.55 12.2 14.55 13.75 14.55 15.1 13.4 15.1 11.9 15.1 11.9 13.65 11.9 12.2 13.25 12.2 M1.25 4.65 Q0.9 5.25 0.9 5.4 L1.15 6.2 1.85 6.7 2.65 6.45 3.4 6.15 4.45 6.3 5.15 6.55 5.35 6.7 3.15 7.45 1.8 7.7 Q0.65 7.7 0.25 6.6 L0.0 5.4 Q0.0 4.8 0.3 4.3 0.7 3.6 1.35 3.45 L1.55 3.5 1.6 3.9 1.25 4.65 M5.75 2.9 L5.65 3.05 5.15 3.15 Q4.35 3.15 3.5 2.25 2.75 1.45 2.75 1.1 2.75 -0.75 4.3 0.55 5.85 1.85 5.85 2.3 L5.75 2.9 M4.7 12.05 Q5.15 12.0 5.5 12.6 L5.4 13.1 4.35 13.2 Q4.15 13.25 4.15 12.6 L4.15 12.2 Q4.45 12.05 4.7 12.05" fill="#ffffff" fill-rule="evenodd" stroke="none"/>
    </g>
    <g id="shape4" transform="matrix(1.0, 0.0, 0.0, 1.0, 11.65, 11.75)">
      <path d="M0.25 -11.75 Q5.15 -11.8 8.65 -8.3 12.1 -4.8 12.1 0.15 L12.0 2.15 12.0 2.2 11.9 2.65 11.9 2.75 Q11.55 4.35 10.75 5.8 9.9 7.25 8.65 8.5 L6.85 10.05 Q3.95 12.0 0.25 12.0 -3.5 12.0 -6.35 10.05 L-8.15 8.5 Q-9.55 7.1 -10.35 5.5 -11.2 3.85 -11.45 2.05 L-11.65 0.15 Q-11.65 -4.8 -8.15 -8.3 -4.7 -11.8 0.25 -11.75" fill="url(#gradient1)" fill-rule="evenodd" stroke="none"/>
    </g>
    <radialGradient cx="0" cy="0" gradientTransform="matrix(0.0154, 0.0, 0.0, 0.0154, 0.5, 0.35)" gradientUnits="userSpaceOnUse" id="gradient1" r="819.2" spreadMethod="pad">
      <stop offset="0.4117647058823529" stop-color="#000000" stop-opacity="0.0"/>
      <stop offset="0.7450980392156863" stop-color="#000000" stop-opacity="0.2"/>
      <stop offset="1.0" stop-color="#000000" stop-opacity="0.7529412"/>
    </radialGradient>
    <g id="shape5" transform="matrix(1.0, 0.0, 0.0, 1.0, 9.05, 8.85)">
      <path d="M6.8 -6.25 Q9.55 -3.6 9.55 0.1 9.55 3.8 6.8 6.45 4.1 9.1 0.25 9.1 -3.65 9.1 -6.4 6.45 -9.1 3.8 -9.05 0.1 -9.1 -3.6 -6.4 -6.25 -3.65 -8.9 0.25 -8.85 4.1 -8.9 6.8 -6.25" fill="url(#gradient2)" fill-rule="evenodd" stroke="none"/>
    </g>
    <radialGradient cx="0" cy="0" gradientTransform="matrix(0.0, 0.0085, -0.0193, 0.0, 0.65, -6.6)" gradientUnits="userSpaceOnUse" id="gradient2" r="819.2" spreadMethod="pad">
      <stop offset="0.0" stop-color="#ffffff" stop-opacity="0.9137255"/>
      <stop offset="0.5098039215686274" stop-color="#ffffff" stop-opacity="0.2901961"/>
      <stop offset="1.0" stop-color="#ffffff" stop-opacity="0.0"/>
    </radialGradient>
    <g id="sprite2" transform="matrix(1.0, 0.0, 0.0, 1.0, 11.5, 11.5)">
      <use ffdec:characterId="2240" height="23.0" transform="matrix(1.0, 0.0, 0.0, 1.0, -11.5, -11.5)" width="23.0" xlink:href="#shape6"/>
    </g>
    <g id="shape6" transform="matrix(1.0, 0.0, 0.0, 1.0, 11.5, 11.5)">
      <path d="M11.5 0.0 Q11.5 4.75 8.15 8.15 4.8 11.5 0.0 11.5 -4.8 11.5 -8.15 8.15 -11.5 4.75 -11.5 0.0 L-11.4 -1.3 -11.35 -1.85 Q-10.8 -5.45 -8.15 -8.15 -4.8 -11.5 0.0 -11.5 L2.95 -11.15 Q5.85 -10.45 8.15 -8.15 10.4 -5.85 11.2 -2.9 L11.3 -2.45 11.5 0.0" fill="#000000" fill-rule="evenodd" stroke="none"/>
    </g>
  </defs>
</svg>
