<?xml version="1.0" encoding="UTF-8" standalone="no"?>
<svg xmlns:ffdec="https://www.free-decompiler.com/flash" xmlns:xlink="http://www.w3.org/1999/xlink" ffdec:objectType="frame" height="97.4px" width="115.7px" xmlns="http://www.w3.org/2000/svg">
  <g transform="matrix(2.0, 0.0, 0.0, 2.0, 40.5, 45.2)">
    <use ffdec:characterId="2244" height="23.0" id="moveColor" transform="matrix(1.0, 0.0, 0.0, 1.0, -11.5, -11.5)" width="23.0" xlink:href="#sprite0"/>
    <clipPath id="clipPath0" transform="matrix(1.0, 0.0, 0.0, 1.0, 0.0, 0.0)">
      <path d="M11.5 0.0 Q11.5 4.75 8.15 8.15 4.8 11.5 0.0 11.5 -4.8 11.5 -8.15 8.15 -11.5 4.75 -11.5 0.0 L-11.4 -1.3 -11.35 -1.85 Q-10.8 -5.45 -8.15 -8.15 -4.8 -11.5 0.0 -11.5 L2.95 -11.15 Q5.85 -10.45 8.15 -8.15 10.4 -5.85 11.2 -2.9 L11.3 -2.45 11.5 0.0" fill="#ffcc00" fill-rule="evenodd" stroke="none"/>
    </clipPath>
    <g clip-path="url(#clipPath0)">
      <use ffdec:characterId="2314" height="25.0" transform="matrix(1.0, 0.0, 0.0, 1.0, -12.85, -12.2)" width="25.0" xlink:href="#shape2"/>
      <filter id="filter0">
        <feFlood flood-color="#ff66cc" flood-opacity="1.0" result="filterResult0"/>
        <feComposite in="filterResult0" in2="SourceGraphic" operator="out" result="filterResult1"/>
        <feConvolveMatrix divisor="25.0" in="filterResult1" kernelMatrix="1 1 1 1 1 1 1 1 1 1 1 1 1 1 1 1 1 1 1 1 1 1 1 1 1" order="5 5" result="filterResult2"/>
        <feComposite in="filterResult2" in2="SourceGraphic" operator="in" result="filterResult3"/>
        <feComposite in="filterResult3" in2="SourceGraphic" operator="over" result="filterResult4"/>
        <feColorMatrix in="filterResult4" result="filterResult5" type="matrix" values="0 0 0 0 0.4,0 0 0 0 0.2,0 0 0 0 0.8,0 0 0 1 0"/>
        <feConvolveMatrix divisor="9.0" in="filterResult5" kernelMatrix="1 1 1 1 1 1 1 1 1" order="3 3" result="filterResult6"/>
        <feComposite in="filterResult4" in2="filterResult6" operator="over" result="filterResult7"/>
      </filter>
      <use ffdec:characterId="2350" filter="url(#filter0)" height="26.7" transform="matrix(1.0, 0.0, 0.0, 1.0, -10.3, -11.05)" width="22.3" xlink:href="#sprite1"/>
    </g>
    <use ffdec:characterId="2247" height="23.75" transform="matrix(1.0, 0.0, 0.0, 1.0, -11.65, -11.75)" width="23.75" xlink:href="#shape4"/>
    <use ffdec:characterId="2246" height="17.95" transform="matrix(1.0, 0.0, 0.0, 1.0, -9.05, -8.85)" width="18.6" xlink:href="#shape5"/>
    <use ffdec:characterId="2241" height="23.0" id="bfilter" transform="matrix(1.0, 0.0, 0.0, 1.0, -11.5, -11.5)" width="23.0" xlink:href="#sprite2"/>
    <use ffdec:characterId="2245" height="19.05" transform="matrix(1.0, 0.0, 0.0, 1.0, -17.2, -8.65)" width="34.35" xlink:href="#text0"/>
  </g>
  <defs>
    <g id="sprite0" transform="matrix(1.0, 0.0, 0.0, 1.0, 11.5, 11.5)">
      <use ffdec:characterId="2243" height="23.0" transform="matrix(1.0, 0.0, 0.0, 1.0, -11.5, -11.5)" width="23.0" xlink:href="#shape0"/>
    </g>
    <g id="shape0" transform="matrix(1.0, 0.0, 0.0, 1.0, 11.5, 11.5)">
      <path d="M11.5 0.0 Q11.5 4.75 8.15 8.15 4.8 11.5 0.0 11.5 -4.8 11.5 -8.15 8.15 -11.5 4.75 -11.5 0.0 L-11.4 -1.3 -11.35 -1.85 Q-10.8 -5.45 -8.15 -8.15 -4.8 -11.5 0.0 -11.5 L2.95 -11.15 Q5.85 -10.45 8.15 -8.15 10.4 -5.85 11.2 -2.9 L11.3 -2.45 11.5 0.0" fill="#262626" fill-rule="evenodd" stroke="none"/>
    </g>
    <g id="shape2" transform="matrix(1.0, 0.0, 0.0, 1.0, 12.85, 12.2)">
      <path d="M-0.35 -12.2 Q4.85 -12.2 8.5 -8.55 12.15 -4.9 12.15 0.3 12.15 5.5 8.5 9.15 4.85 12.8 -0.35 12.8 -5.55 12.8 -9.2 9.15 -12.85 5.5 -12.85 0.3 -12.85 -4.9 -9.2 -8.55 -5.55 -12.2 -0.35 -12.2" fill="url(#gradient0)" fill-rule="evenodd" stroke="none"/>
    </g>
    <radialGradient cx="0" cy="0" gradientTransform="matrix(0.0289, 0.0, 0.0, 0.0289, 7.0, 8.2)" gradientUnits="userSpaceOnUse" id="gradient0" r="819.2" spreadMethod="pad">
      <stop offset="0.0" stop-color="#5a376a"/>
      <stop offset="0.42745098039215684" stop-color="#1a0d37"/>
      <stop offset="0.8509803921568627" stop-color="#000000"/>
    </radialGradient>
    <g id="sprite1" transform="matrix(1.0, 0.0, 0.0, 1.0, 0.0, 0.0)">
      <use ffdec:characterId="2349" height="26.7" transform="matrix(1.0, 0.0, 0.0, 1.0, 0.0, 0.0)" width="22.3" xlink:href="#shape3"/>
    </g>
    <g id="shape3" transform="matrix(1.0, 0.0, 0.0, 1.0, 0.0, 0.0)">
      <path d="M15.75 4.8 Q15.4 5.3 14.9 5.3 13.75 5.3 14.05 4.25 14.05 3.1 15.05 2.95 16.05 2.8 16.05 3.8 L15.75 4.8 M12.4 3.5 L12.05 2.1 Q11.45 1.05 10.3 1.05 7.9 1.05 7.35 2.25 L7.25 3.4 7.3 4.8 7.9 6.05 8.4 6.75 8.75 6.9 8.55 7.0 Q10.3 9.7 10.3 11.05 L10.25 11.95 10.3 12.15 Q10.45 7.05 15.0 6.55 16.8 6.35 18.2 7.3 19.65 8.3 19.65 10.05 19.65 12.4 17.55 12.4 15.75 12.4 15.05 11.5 L14.65 10.55 Q14.65 10.0 15.0 9.75 15.3 9.5 15.65 9.5 L16.3 9.55 16.2 10.55 16.65 10.9 17.45 11.05 18.3 10.9 18.4 10.05 Q18.4 7.8 15.45 7.8 12.4 7.8 11.55 10.1 11.1 11.3 11.3 12.55 13.05 12.45 15.05 13.8 L15.9 13.7 Q19.15 13.7 19.15 16.35 L18.9 17.6 19.65 18.55 19.4 18.65 18.9 17.65 18.65 18.05 Q17.95 19.15 16.3 19.15 14.45 19.15 14.4 17.6 14.4 16.7 15.4 16.7 16.2 16.7 16.2 17.8 17.65 18.05 17.9 16.3 17.9 14.8 15.85 14.8 12.55 14.8 11.55 18.3 L11.55 18.75 11.55 19.25 Q14.55 18.7 14.55 22.35 L14.35 24.3 Q13.8 25.8 12.05 25.8 L10.55 25.55 Q12.9 24.95 13.6 24.05 14.05 23.5 14.05 22.35 14.05 19.55 11.65 19.55 L11.55 19.55 11.25 22.35 11.7 23.55 11.55 23.65 Q11.2 23.55 11.0 23.3 L10.3 24.7 Q9.55 24.25 9.8 23.3 L10.25 21.6 10.2 19.85 Q9.0 20.4 8.1 21.9 7.35 23.1 7.05 24.35 L7.35 25.1 8.25 26.3 Q7.6 26.1 7.1 25.25 L6.65 24.15 Q6.65 21.0 10.2 19.65 L9.6 16.0 9.1 14.3 Q7.2 15.4 6.05 17.8 4.8 20.4 4.8 22.85 4.8 26.7 8.0 26.55 5.75 27.2 4.85 25.3 4.4 24.3 4.4 22.85 4.4 21.0 5.35 18.45 6.45 15.5 8.15 13.95 L8.75 13.45 Q7.45 10.65 5.05 10.65 3.4 10.65 2.6 12.0 2.05 12.9 2.05 13.6 2.05 14.3 2.3 15.0 2.65 15.9 3.3 15.9 L4.55 15.8 4.8 15.05 3.9 15.05 3.75 14.3 Q3.45 14.15 4.05 14.15 L5.4 14.4 5.45 14.35 5.5 14.8 Q5.65 16.55 4.3 16.55 2.0 16.55 1.3 14.65 0.95 13.7 1.05 12.75 1.05 11.85 2.2 10.55 3.1 9.55 4.05 9.25 L4.05 9.2 Q4.05 8.35 4.75 7.5 5.5 6.6 6.65 6.45 5.25 4.7 3.3 3.3 L3.4 3.15 Q4.7 3.8 5.9 4.9 3.7 2.2 0.0 0.3 2.45 -1.1 6.55 4.2 L6.5 3.5 Q6.5 -0.25 9.85 0.25 13.15 0.75 13.15 3.45 13.15 6.25 11.55 6.25 L10.65 6.0 12.1 4.5 12.4 3.5 M22.3 13.3 L21.05 14.3 20.3 13.6 Q20.3 12.65 21.3 12.5 22.3 12.4 22.3 13.3 M12.95 13.3 L11.3 13.45 11.35 14.15 11.9 16.25 Q13.0 14.2 14.95 13.8 13.9 13.3 12.95 13.3 M11.55 16.95 L11.45 16.9 11.5 17.1 11.55 16.95 M9.45 2.65 Q10.55 2.3 10.55 3.9 10.3 5.3 9.3 5.3 8.15 5.3 8.3 4.1 8.3 3.05 9.45 2.65 M1.55 6.55 L2.6 6.65 Q3.15 6.9 3.3 7.65 L3.25 8.05 3.1 8.2 2.55 8.3 Q1.25 8.3 1.5 7.15 L1.55 6.55 M5.05 9.05 Q7.2 9.05 8.75 10.9 L9.2 11.5 7.6 7.75 7.4 7.95 Q6.75 8.7 6.65 9.15 L6.5 9.15 6.4 8.55 Q6.4 8.05 7.3 7.3 L6.7 6.5 5.2 7.9 Q4.65 8.6 4.65 9.1 L5.05 9.05 M9.85 12.15 L9.7 12.25 10.05 12.8 10.1 12.8 9.85 12.15 M8.3 20.2 Q7.85 20.55 7.55 20.55 L6.75 20.4 6.65 20.3 6.55 19.85 Q6.55 18.0 7.7 18.25 8.8 18.5 8.8 19.55 L8.3 20.2" fill="#ffffff" fill-rule="evenodd" stroke="none"/>
    </g>
    <g id="shape4" transform="matrix(1.0, 0.0, 0.0, 1.0, 11.65, 11.75)">
      <path d="M0.25 -11.75 Q5.15 -11.8 8.65 -8.3 12.1 -4.8 12.1 0.15 L12.0 2.15 12.0 2.2 11.9 2.65 11.9 2.75 Q11.55 4.35 10.75 5.8 9.9 7.25 8.65 8.5 L6.85 10.05 Q3.95 12.0 0.25 12.0 -3.5 12.0 -6.35 10.05 L-8.15 8.5 Q-9.55 7.1 -10.35 5.5 -11.2 3.85 -11.45 2.05 L-11.65 0.15 Q-11.65 -4.8 -8.15 -8.3 -4.7 -11.8 0.25 -11.75" fill="url(#gradient1)" fill-rule="evenodd" stroke="none"/>
    </g>
    <radialGradient cx="0" cy="0" gradientTransform="matrix(0.0154, 0.0, 0.0, 0.0154, 0.5, 0.35)" gradientUnits="userSpaceOnUse" id="gradient1" r="819.2" spreadMethod="pad">
      <stop offset="0.4117647058823529" stop-color="#000000" stop-opacity="0.0"/>
      <stop offset="0.7450980392156863" stop-color="#000000" stop-opacity="0.2"/>
      <stop offset="1.0" stop-color="#000000" stop-opacity="0.7529412"/>
    </radialGradient>
    <g id="shape5" transform="matrix(1.0, 0.0, 0.0, 1.0, 9.05, 8.85)">
      <path d="M6.8 -6.25 Q9.55 -3.6 9.55 0.1 9.55 3.8 6.8 6.45 4.1 9.1 0.25 9.1 -3.65 9.1 -6.4 6.45 -9.1 3.8 -9.05 0.1 -9.1 -3.6 -6.4 -6.25 -3.65 -8.9 0.25 -8.85 4.1 -8.9 6.8 -6.25" fill="url(#gradient2)" fill-rule="evenodd" stroke="none"/>
    </g>
    <radialGradient cx="0" cy="0" gradientTransform="matrix(0.0, 0.0085, -0.0193, 0.0, 0.65, -6.6)" gradientUnits="userSpaceOnUse" id="gradient2" r="819.2" spreadMethod="pad">
      <stop offset="0.0" stop-color="#ffffff" stop-opacity="0.9137255"/>
      <stop offset="0.5098039215686274" stop-color="#ffffff" stop-opacity="0.2901961"/>
      <stop offset="1.0" stop-color="#ffffff" stop-opacity="0.0"/>
    </radialGradient>
    <g id="sprite2" transform="matrix(1.0, 0.0, 0.0, 1.0, 11.5, 11.5)">
      <use ffdec:characterId="2240" height="23.0" transform="matrix(1.0, 0.0, 0.0, 1.0, -11.5, -11.5)" width="23.0" xlink:href="#shape6"/>
    </g>
    <g id="shape6" transform="matrix(1.0, 0.0, 0.0, 1.0, 11.5, 11.5)">
      <path d="M11.5 0.0 Q11.5 4.75 8.15 8.15 4.8 11.5 0.0 11.5 -4.8 11.5 -8.15 8.15 -11.5 4.75 -11.5 0.0 L-11.4 -1.3 -11.35 -1.85 Q-10.8 -5.45 -8.15 -8.15 -4.8 -11.5 0.0 -11.5 L2.95 -11.15 Q5.85 -10.45 8.15 -8.15 10.4 -5.85 11.2 -2.9 L11.3 -2.45 11.5 0.0" fill="#000000" fill-rule="evenodd" stroke="none"/>
    </g>
  </defs>
</svg>
