<?xml version="1.0" encoding="UTF-8" standalone="no"?>
<svg xmlns:ffdec="https://www.free-decompiler.com/flash" xmlns:xlink="http://www.w3.org/1999/xlink" ffdec:objectType="frame" height="97.4px" width="115.7px" xmlns="http://www.w3.org/2000/svg">
  <g transform="matrix(2.0, 0.0, 0.0, 2.0, 40.5, 45.2)">
    <use ffdec:characterId="2244" height="23.0" id="moveColor" transform="matrix(1.0, 0.0, 0.0, 1.0, -11.5, -11.5)" width="23.0" xlink:href="#sprite0"/>
    <clipPath id="clipPath0" transform="matrix(1.0, 0.0, 0.0, 1.0, 0.0, 0.0)">
      <path d="M11.5 0.0 Q11.5 4.75 8.15 8.15 4.8 11.5 0.0 11.5 -4.8 11.5 -8.15 8.15 -11.5 4.75 -11.5 0.0 L-11.4 -1.3 -11.35 -1.85 Q-10.8 -5.45 -8.15 -8.15 -4.8 -11.5 0.0 -11.5 L2.95 -11.15 Q5.85 -10.45 8.15 -8.15 10.4 -5.85 11.2 -2.9 L11.3 -2.45 11.5 0.0" fill="#ffcc00" fill-rule="evenodd" stroke="none"/>
    </clipPath>
    <g clip-path="url(#clipPath0)">
      <use ffdec:characterId="2314" height="25.0" transform="matrix(1.0, 0.0, 0.0, 1.0, -12.85, -12.2)" width="25.0" xlink:href="#shape2"/>
      <filter id="filter0">
        <feColorMatrix in="SourceGraphic" result="filterResult0" type="matrix" values="0 0 0 0 1.0,0 0 0 0 0.6,0 0 0 0 0.0,0 0 0 1 0"/>
        <feConvolveMatrix divisor="49.0" in="filterResult0" kernelMatrix="1 1 1 1 1 1 1 1 1 1 1 1 1 1 1 1 1 1 1 1 1 1 1 1 1 1 1 1 1 1 1 1 1 1 1 1 1 1 1 1 1 1 1 1 1 1 1 1 1" order="7 7" result="filterResult1"/>
        <feComposite in="SourceGraphic" in2="filterResult1" operator="over" result="filterResult2"/>
        <feColorMatrix in="filterResult2" result="filterResult3" type="matrix" values="0 0 0 0 0.4,0 0 0 0 0.0,0 0 0 0 0.2,0 0 0 1 0"/>
        <feConvolveMatrix divisor="121.0" in="filterResult3" kernelMatrix="1 1 1 1 1 1 1 1 1 1 1 1 1 1 1 1 1 1 1 1 1 1 1 1 1 1 1 1 1 1 1 1 1 1 1 1 1 1 1 1 1 1 1 1 1 1 1 1 1 1 1 1 1 1 1 1 1 1 1 1 1 1 1 1 1 1 1 1 1 1 1 1 1 1 1 1 1 1 1 1 1 1 1 1 1 1 1 1 1 1 1 1 1 1 1 1 1 1 1 1 1 1 1 1 1 1 1 1 1 1 1 1 1 1 1 1 1 1 1 1 1" order="11 11" result="filterResult4"/>
        <feComposite in="filterResult2" in2="filterResult4" operator="over" result="filterResult5"/>
      </filter>
      <use ffdec:characterId="2353" filter="url(#filter0)" height="24.25" transform="matrix(1.0, 0.0, 0.0, 1.0, -12.75, -12.1)" width="26.1" xlink:href="#sprite1"/>
    </g>
    <use ffdec:characterId="2247" height="23.75" transform="matrix(1.0, 0.0, 0.0, 1.0, -11.65, -11.75)" width="23.75" xlink:href="#shape4"/>
    <use ffdec:characterId="2246" height="17.95" transform="matrix(1.0, 0.0, 0.0, 1.0, -9.05, -8.85)" width="18.6" xlink:href="#shape5"/>
    <use ffdec:characterId="2241" height="23.0" id="bfilter" transform="matrix(1.0, 0.0, 0.0, 1.0, -11.5, -11.5)" width="23.0" xlink:href="#sprite2"/>
    <use ffdec:characterId="2245" height="19.05" transform="matrix(1.0, 0.0, 0.0, 1.0, -17.2, -8.65)" width="34.35" xlink:href="#text0"/>
  </g>
  <defs>
    <g id="sprite0" transform="matrix(1.0, 0.0, 0.0, 1.0, 11.5, 11.5)">
      <use ffdec:characterId="2243" height="23.0" transform="matrix(1.0, 0.0, 0.0, 1.0, -11.5, -11.5)" width="23.0" xlink:href="#shape0"/>
    </g>
    <g id="shape0" transform="matrix(1.0, 0.0, 0.0, 1.0, 11.5, 11.5)">
      <path d="M11.5 0.0 Q11.5 4.75 8.15 8.15 4.8 11.5 0.0 11.5 -4.8 11.5 -8.15 8.15 -11.5 4.75 -11.5 0.0 L-11.4 -1.3 -11.35 -1.85 Q-10.8 -5.45 -8.15 -8.15 -4.8 -11.5 0.0 -11.5 L2.95 -11.15 Q5.85 -10.45 8.15 -8.15 10.4 -5.85 11.2 -2.9 L11.3 -2.45 11.5 0.0" fill="#262626" fill-rule="evenodd" stroke="none"/>
    </g>
    <g id="shape2" transform="matrix(1.0, 0.0, 0.0, 1.0, 12.85, 12.2)">
      <path d="M-0.35 -12.2 Q4.85 -12.2 8.5 -8.55 12.15 -4.9 12.15 0.3 12.15 5.5 8.5 9.15 4.85 12.8 -0.35 12.8 -5.55 12.8 -9.2 9.15 -12.85 5.5 -12.85 0.3 -12.85 -4.9 -9.2 -8.55 -5.55 -12.2 -0.35 -12.2" fill="url(#gradient0)" fill-rule="evenodd" stroke="none"/>
    </g>
    <radialGradient cx="0" cy="0" gradientTransform="matrix(0.0289, 0.0, 0.0, 0.0289, 7.0, 8.2)" gradientUnits="userSpaceOnUse" id="gradient0" r="819.2" spreadMethod="pad">
      <stop offset="0.0" stop-color="#5a376a"/>
      <stop offset="0.42745098039215684" stop-color="#1a0d37"/>
      <stop offset="0.8509803921568627" stop-color="#000000"/>
    </radialGradient>
    <g id="sprite1" transform="matrix(1.0, 0.0, 0.0, 1.0, 0.0, 0.0)">
      <use ffdec:characterId="2352" height="24.25" transform="matrix(1.0, 0.0, 0.0, 1.0, 0.0, 0.0)" width="26.1" xlink:href="#shape3"/>
    </g>
    <g id="shape3" transform="matrix(1.0, 0.0, 0.0, 1.0, 0.0, 0.0)">
      <path d="M18.75 2.35 Q21.7 3.3 23.75 7.8 24.75 10.15 25.15 12.25 L26.1 15.6 Q26.1 17.65 21.9 20.6 20.0 21.9 18.0 22.75 14.55 24.25 12.0 24.25 9.45 24.25 7.5 22.85 L7.5 22.9 7.0 22.95 Q5.75 22.95 4.7 20.45 L4.0 20.6 Q3.4 20.6 3.05 19.35 L1.95 17.3 Q1.7 19.45 1.7 21.6 L1.65 22.1 1.45 22.1 Q0.8 21.0 0.65 19.95 L0.6 18.0 Q0.6 16.5 1.0 14.45 L0.0 10.05 Q0.0 9.0 2.2 4.85 4.35 0.75 5.2 0.1 5.45 -0.2 5.45 0.45 L3.65 4.55 Q1.85 8.55 1.85 10.85 L1.9 10.9 Q3.25 5.85 4.85 5.1 5.0 4.7 5.0 5.35 L3.35 10.85 3.15 11.55 Q3.4 10.85 3.8 10.25 L7.5 6.1 7.95 6.25 8.1 6.85 6.85 9.75 Q5.6 12.6 5.6 14.9 L5.6 15.3 6.7 17.85 7.15 17.75 7.25 17.75 7.7 16.25 8.3 14.85 8.5 13.95 Q9.1 11.6 10.1 10.35 L10.2 10.45 10.25 10.85 9.5 14.5 9.5 14.75 9.0 17.45 8.9 17.9 9.75 17.7 Q10.2 17.7 10.7 19.0 L10.9 19.4 12.3 19.55 14.15 19.8 14.5 19.3 Q14.45 17.7 14.65 16.45 14.6 16.25 15.25 16.25 16.1 16.25 16.6 17.65 L17.0 19.25 17.1 19.35 18.4 15.25 18.15 13.75 17.9 12.25 18.0 11.05 18.35 10.95 Q19.35 12.25 19.6 14.65 L19.85 16.7 20.0 16.85 20.0 18.35 22.0 16.6 22.0 16.25 Q21.95 14.2 21.5 12.85 20.95 11.3 19.8 9.5 18.65 7.65 17.35 6.35 L17.5 6.35 18.55 6.65 19.25 6.6 Q20.8 6.6 22.2 11.35 L22.65 12.95 Q22.45 10.55 20.65 6.95 L18.65 2.95 18.75 2.35 M16.75 5.35 L16.65 5.85 15.6 5.95 15.5 5.85 15.4 5.35 15.5 4.95 Q15.8 4.8 16.65 4.95 L16.75 5.35 M10.4 7.55 L10.75 7.45 11.35 8.1 11.2 8.55 10.75 8.7 10.4 8.6 Q10.25 8.5 10.25 8.1 10.25 7.7 10.4 7.55 M2.85 12.75 L2.9 12.4 2.85 12.7 2.85 12.75 M9.3 19.3 L9.25 19.2 9.2 19.3 9.3 19.3" fill="#000000" fill-rule="evenodd" stroke="none"/>
    </g>
    <g id="shape4" transform="matrix(1.0, 0.0, 0.0, 1.0, 11.65, 11.75)">
      <path d="M0.25 -11.75 Q5.15 -11.8 8.65 -8.3 12.1 -4.8 12.1 0.15 L12.0 2.15 12.0 2.2 11.9 2.65 11.9 2.75 Q11.55 4.35 10.75 5.8 9.9 7.25 8.65 8.5 L6.85 10.05 Q3.95 12.0 0.25 12.0 -3.5 12.0 -6.35 10.05 L-8.15 8.5 Q-9.55 7.1 -10.35 5.5 -11.2 3.85 -11.45 2.05 L-11.65 0.15 Q-11.65 -4.8 -8.15 -8.3 -4.7 -11.8 0.25 -11.75" fill="url(#gradient1)" fill-rule="evenodd" stroke="none"/>
    </g>
    <radialGradient cx="0" cy="0" gradientTransform="matrix(0.0154, 0.0, 0.0, 0.0154, 0.5, 0.35)" gradientUnits="userSpaceOnUse" id="gradient1" r="819.2" spreadMethod="pad">
      <stop offset="0.4117647058823529" stop-color="#000000" stop-opacity="0.0"/>
      <stop offset="0.7450980392156863" stop-color="#000000" stop-opacity="0.2"/>
      <stop offset="1.0" stop-color="#000000" stop-opacity="0.7529412"/>
    </radialGradient>
    <g id="shape5" transform="matrix(1.0, 0.0, 0.0, 1.0, 9.05, 8.85)">
      <path d="M6.8 -6.25 Q9.55 -3.6 9.55 0.1 9.55 3.8 6.8 6.45 4.1 9.1 0.25 9.1 -3.65 9.1 -6.4 6.45 -9.1 3.8 -9.05 0.1 -9.1 -3.6 -6.4 -6.25 -3.65 -8.9 0.25 -8.85 4.1 -8.9 6.8 -6.25" fill="url(#gradient2)" fill-rule="evenodd" stroke="none"/>
    </g>
    <radialGradient cx="0" cy="0" gradientTransform="matrix(0.0, 0.0085, -0.0193, 0.0, 0.65, -6.6)" gradientUnits="userSpaceOnUse" id="gradient2" r="819.2" spreadMethod="pad">
      <stop offset="0.0" stop-color="#ffffff" stop-opacity="0.9137255"/>
      <stop offset="0.5098039215686274" stop-color="#ffffff" stop-opacity="0.2901961"/>
      <stop offset="1.0" stop-color="#ffffff" stop-opacity="0.0"/>
    </radialGradient>
    <g id="sprite2" transform="matrix(1.0, 0.0, 0.0, 1.0, 11.5, 11.5)">
      <use ffdec:characterId="2240" height="23.0" transform="matrix(1.0, 0.0, 0.0, 1.0, -11.5, -11.5)" width="23.0" xlink:href="#shape6"/>
    </g>
    <g id="shape6" transform="matrix(1.0, 0.0, 0.0, 1.0, 11.5, 11.5)">
      <path d="M11.5 0.0 Q11.5 4.75 8.15 8.15 4.8 11.5 0.0 11.5 -4.8 11.5 -8.15 8.15 -11.5 4.75 -11.5 0.0 L-11.4 -1.3 -11.35 -1.85 Q-10.8 -5.45 -8.15 -8.15 -4.8 -11.5 0.0 -11.5 L2.95 -11.15 Q5.85 -10.45 8.15 -8.15 10.4 -5.85 11.2 -2.9 L11.3 -2.45 11.5 0.0" fill="#000000" fill-rule="evenodd" stroke="none"/>
    </g>
  </defs>
</svg>
