<?xml version="1.0" encoding="UTF-8" standalone="no"?>
<svg xmlns:ffdec="https://www.free-decompiler.com/flash" xmlns:xlink="http://www.w3.org/1999/xlink" ffdec:objectType="frame" height="97.4px" width="115.7px" xmlns="http://www.w3.org/2000/svg">
  <g transform="matrix(2.0, 0.0, 0.0, 2.0, 40.5, 45.2)">
    <use ffdec:characterId="2244" height="23.0" id="moveColor" transform="matrix(1.0, 0.0, 0.0, 1.0, -11.5, -11.5)" width="23.0" xlink:href="#sprite0"/>
    <clipPath id="clipPath0" transform="matrix(1.0, 0.0, 0.0, 1.0, 0.0, 0.0)">
      <path d="M11.5 0.0 Q11.5 4.75 8.15 8.15 4.8 11.5 0.0 11.5 -4.8 11.5 -8.15 8.15 -11.5 4.75 -11.5 0.0 L-11.4 -1.3 -11.35 -1.85 Q-10.8 -5.45 -8.15 -8.15 -4.8 -11.5 0.0 -11.5 L2.95 -11.15 Q5.85 -10.45 8.15 -8.15 10.4 -5.85 11.2 -2.9 L11.3 -2.45 11.5 0.0" fill="#ffcc00" fill-rule="evenodd" stroke="none"/>
    </clipPath>
    <g clip-path="url(#clipPath0)">
      <use ffdec:characterId="2373" height="25.0" transform="matrix(1.0, 0.0, 0.0, 1.0, -12.55, -12.5)" width="25.0" xlink:href="#shape2"/>
      <filter id="filter0">
        <feColorMatrix in="SourceGraphic" result="filterResult0" type="matrix" values="0 0 0 0 1.0,0 0 0 0 1.0,0 0 0 0 1.0,0 0 0 1 0"/>
        <feConvolveMatrix divisor="25.0" in="filterResult0" kernelMatrix="1 1 1 1 1 1 1 1 1 1 1 1 1 1 1 1 1 1 1 1 1 1 1 1 1" order="5 5" result="filterResult1"/>
        <feComposite in="SourceGraphic" in2="filterResult1" operator="over" result="filterResult2"/>
      </filter>
      <use ffdec:characterId="2372" filter="url(#filter0)" height="16.7" transform="matrix(1.0, 0.0, 0.0, 1.0, -9.75, -7.45)" width="21.15" xlink:href="#sprite1"/>
    </g>
    <use ffdec:characterId="2247" height="23.75" transform="matrix(1.0, 0.0, 0.0, 1.0, -11.65, -11.75)" width="23.75" xlink:href="#shape4"/>
    <use ffdec:characterId="2246" height="17.95" transform="matrix(1.0, 0.0, 0.0, 1.0, -9.05, -8.85)" width="18.6" xlink:href="#shape5"/>
    <use ffdec:characterId="2241" height="23.0" id="bfilter" transform="matrix(1.0, 0.0, 0.0, 1.0, -11.5, -11.5)" width="23.0" xlink:href="#sprite2"/>
    <use ffdec:characterId="2245" height="19.05" transform="matrix(1.0, 0.0, 0.0, 1.0, -17.2, -8.65)" width="34.35" xlink:href="#text0"/>
  </g>
  <defs>
    <g id="sprite0" transform="matrix(1.0, 0.0, 0.0, 1.0, 11.5, 11.5)">
      <use ffdec:characterId="2243" height="23.0" transform="matrix(1.0, 0.0, 0.0, 1.0, -11.5, -11.5)" width="23.0" xlink:href="#shape0"/>
    </g>
    <g id="shape0" transform="matrix(1.0, 0.0, 0.0, 1.0, 11.5, 11.5)">
      <path d="M11.5 0.0 Q11.5 4.75 8.15 8.15 4.8 11.5 0.0 11.5 -4.8 11.5 -8.15 8.15 -11.5 4.75 -11.5 0.0 L-11.4 -1.3 -11.35 -1.85 Q-10.8 -5.45 -8.15 -8.15 -4.8 -11.5 0.0 -11.5 L2.95 -11.15 Q5.85 -10.45 8.15 -8.15 10.4 -5.85 11.2 -2.9 L11.3 -2.45 11.5 0.0" fill="#262626" fill-rule="evenodd" stroke="none"/>
    </g>
    <g id="shape2" transform="matrix(1.0, 0.0, 0.0, 1.0, 12.55, 12.5)">
      <path d="M-0.05 -12.5 Q5.15 -12.5 8.8 -8.85 12.45 -5.2 12.45 0.0 12.45 5.2 8.8 8.85 5.15 12.5 -0.05 12.5 -5.25 12.5 -8.9 8.85 -12.55 5.2 -12.55 0.0 -12.55 -5.2 -8.9 -8.85 -5.25 -12.5 -0.05 -12.5" fill="url(#gradient0)" fill-rule="evenodd" stroke="none"/>
    </g>
    <radialGradient cx="0" cy="0" gradientTransform="matrix(0.0252, 0.0, 0.0, 0.0252, 4.0, 6.8)" gradientUnits="userSpaceOnUse" id="gradient0" r="819.2" spreadMethod="pad">
      <stop offset="0.0" stop-color="#acd2db"/>
      <stop offset="0.5372549019607843" stop-color="#364b6b"/>
      <stop offset="0.8196078431372549" stop-color="#000000"/>
    </radialGradient>
    <g id="sprite1" transform="matrix(1.0, 0.0, 0.0, 1.0, 0.0, 0.05)">
      <use ffdec:characterId="2371" height="16.7" transform="matrix(1.0, 0.0, 0.0, 1.0, 0.0, -0.05)" width="21.15" xlink:href="#shape3"/>
    </g>
    <g id="shape3" transform="matrix(1.0, 0.0, 0.0, 1.0, 0.0, 0.05)">
      <path d="M16.0 0.75 L15.25 1.65 Q14.5 1.5 14.5 0.6 L14.75 0.1 Q15.1 -0.15 15.75 0.1 16.0 0.1 16.0 0.75 M12.45 4.25 L12.35 4.4 11.25 4.6 Q10.1 4.6 10.1 3.6 L10.15 2.9 11.95 3.05 Q12.5 3.45 12.5 3.9 L12.45 4.25 M17.8 7.1 L17.9 7.1 Q19.1 5.65 20.5 5.65 L20.6 6.25 20.0 7.6 21.15 8.65 20.0 9.15 18.65 9.4 18.25 9.9 18.5 12.3 18.0 12.65 Q17.6 12.5 17.2 11.25 L16.35 12.25 15.65 12.15 15.6 11.45 16.4 9.5 15.35 9.5 Q13.8 9.5 13.4 9.15 L13.35 8.8 Q15.0 7.75 16.4 7.35 L16.25 5.6 16.35 5.1 16.75 4.9 17.8 7.1 M13.65 15.3 L12.85 15.5 12.35 15.4 12.15 15.25 12.1 14.8 Q12.1 14.45 12.45 14.25 L13.65 14.15 13.75 14.7 13.65 15.3 M7.2 0.5 L7.25 1.05 6.4 2.45 6.7 3.05 6.6 3.65 Q6.55 3.65 6.45 3.75 L5.9 3.85 5.15 3.65 Q4.2 4.4 3.65 4.4 L3.1 4.25 2.95 4.15 2.85 3.65 Q2.85 3.2 3.3 2.6 L2.7 2.5 2.7 1.15 2.85 0.9 4.6 1.35 Q5.35 0.7 6.5 0.0 L7.2 0.5 M6.25 8.5 L5.25 11.5 Q8.2 10.25 8.95 10.3 L9.25 10.8 6.55 12.7 Q8.35 13.7 8.35 14.45 L8.25 15.3 7.25 15.4 5.4 15.2 5.5 15.8 5.0 16.05 Q4.5 15.5 4.15 14.75 L3.9 14.6 2.75 16.65 Q2.0 16.15 2.0 15.65 L2.1 15.0 2.0 15.0 Q1.3 15.0 1.0 14.65 L0.95 14.3 Q0.95 13.85 1.95 13.2 0.9 12.25 0.0 10.95 L0.0 10.4 Q0.7 10.15 3.05 11.05 L2.5 9.65 3.95 10.8 Q5.2 8.45 5.75 7.9 L6.15 8.05 6.25 8.5" fill="#ffffff" fill-rule="evenodd" stroke="none"/>
    </g>
    <g id="shape4" transform="matrix(1.0, 0.0, 0.0, 1.0, 11.65, 11.75)">
      <path d="M0.25 -11.75 Q5.15 -11.8 8.65 -8.3 12.1 -4.8 12.1 0.15 L12.0 2.15 12.0 2.2 11.9 2.65 11.9 2.75 Q11.55 4.35 10.75 5.8 9.9 7.25 8.65 8.5 L6.85 10.05 Q3.95 12.0 0.25 12.0 -3.5 12.0 -6.35 10.05 L-8.15 8.5 Q-9.55 7.1 -10.35 5.5 -11.2 3.85 -11.45 2.05 L-11.65 0.15 Q-11.65 -4.8 -8.15 -8.3 -4.7 -11.8 0.25 -11.75" fill="url(#gradient1)" fill-rule="evenodd" stroke="none"/>
    </g>
    <radialGradient cx="0" cy="0" gradientTransform="matrix(0.0154, 0.0, 0.0, 0.0154, 0.5, 0.35)" gradientUnits="userSpaceOnUse" id="gradient1" r="819.2" spreadMethod="pad">
      <stop offset="0.4117647058823529" stop-color="#000000" stop-opacity="0.0"/>
      <stop offset="0.7450980392156863" stop-color="#000000" stop-opacity="0.2"/>
      <stop offset="1.0" stop-color="#000000" stop-opacity="0.7529412"/>
    </radialGradient>
    <g id="shape5" transform="matrix(1.0, 0.0, 0.0, 1.0, 9.05, 8.85)">
      <path d="M6.8 -6.25 Q9.55 -3.6 9.55 0.1 9.55 3.8 6.8 6.45 4.1 9.1 0.25 9.1 -3.65 9.1 -6.4 6.45 -9.1 3.8 -9.05 0.1 -9.1 -3.6 -6.4 -6.25 -3.65 -8.9 0.25 -8.85 4.1 -8.9 6.8 -6.25" fill="url(#gradient2)" fill-rule="evenodd" stroke="none"/>
    </g>
    <radialGradient cx="0" cy="0" gradientTransform="matrix(0.0, 0.0085, -0.0193, 0.0, 0.65, -6.6)" gradientUnits="userSpaceOnUse" id="gradient2" r="819.2" spreadMethod="pad">
      <stop offset="0.0" stop-color="#ffffff" stop-opacity="0.9137255"/>
      <stop offset="0.5098039215686274" stop-color="#ffffff" stop-opacity="0.2901961"/>
      <stop offset="1.0" stop-color="#ffffff" stop-opacity="0.0"/>
    </radialGradient>
    <g id="sprite2" transform="matrix(1.0, 0.0, 0.0, 1.0, 11.5, 11.5)">
      <use ffdec:characterId="2240" height="23.0" transform="matrix(1.0, 0.0, 0.0, 1.0, -11.5, -11.5)" width="23.0" xlink:href="#shape6"/>
    </g>
    <g id="shape6" transform="matrix(1.0, 0.0, 0.0, 1.0, 11.5, 11.5)">
      <path d="M11.5 0.0 Q11.5 4.75 8.15 8.15 4.8 11.5 0.0 11.5 -4.8 11.5 -8.15 8.15 -11.5 4.75 -11.5 0.0 L-11.4 -1.3 -11.35 -1.85 Q-10.8 -5.45 -8.15 -8.15 -4.8 -11.5 0.0 -11.5 L2.95 -11.15 Q5.85 -10.45 8.15 -8.15 10.4 -5.85 11.2 -2.9 L11.3 -2.45 11.5 0.0" fill="#000000" fill-rule="evenodd" stroke="none"/>
    </g>
  </defs>
</svg>
