<?xml version="1.0" encoding="UTF-8" standalone="no"?>
<svg xmlns:ffdec="https://www.free-decompiler.com/flash" xmlns:xlink="http://www.w3.org/1999/xlink" ffdec:objectType="frame" height="97.4px" width="115.7px" xmlns="http://www.w3.org/2000/svg">
  <g transform="matrix(2.0, 0.0, 0.0, 2.0, 40.5, 45.2)">
    <use ffdec:characterId="2244" height="23.0" id="moveColor" transform="matrix(1.0, 0.0, 0.0, 1.0, -11.5, -11.5)" width="23.0" xlink:href="#sprite0"/>
    <clipPath id="clipPath0" transform="matrix(1.0, 0.0, 0.0, 1.0, 0.0, 0.0)">
      <path d="M11.5 0.0 Q11.5 4.75 8.15 8.15 4.8 11.5 0.0 11.5 -4.8 11.5 -8.15 8.15 -11.5 4.75 -11.5 0.0 L-11.4 -1.3 -11.35 -1.85 Q-10.8 -5.45 -8.15 -8.15 -4.8 -11.5 0.0 -11.5 L2.95 -11.15 Q5.85 -10.45 8.15 -8.15 10.4 -5.85 11.2 -2.9 L11.3 -2.45 11.5 0.0" fill="#ffcc00" fill-rule="evenodd" stroke="none"/>
    </clipPath>
    <g clip-path="url(#clipPath0)">
      <use ffdec:characterId="2292" height="25.0" transform="matrix(1.0, 0.0, 0.0, 1.0, -12.55, -12.5)" width="25.0" xlink:href="#shape2"/>
      <filter id="filter0">
        <feFlood flood-color="#00ccff" flood-opacity="1.0" result="filterResult0"/>
        <feComposite in="filterResult0" in2="SourceGraphic" operator="out" result="filterResult1"/>
        <feConvolveMatrix divisor="25.0" in="filterResult1" kernelMatrix="1 1 1 1 1 1 1 1 1 1 1 1 1 1 1 1 1 1 1 1 1 1 1 1 1" order="5 5" result="filterResult2"/>
        <feComposite in="filterResult2" in2="SourceGraphic" operator="in" result="filterResult3"/>
        <feComposite in="filterResult3" in2="SourceGraphic" operator="over" result="filterResult4"/>
        <feColorMatrix in="filterResult4" result="filterResult5" type="matrix" values="0 0 0 0 0.0,0 0 0 0 0.6,0 0 0 0 1.0,0 0 0 1 0"/>
        <feConvolveMatrix divisor="36.0" in="filterResult5" kernelMatrix="1 1 1 1 1 1 1 1 1 1 1 1 1 1 1 1 1 1 1 1 1 1 1 1 1 1 1 1 1 1 1 1 1 1 1 1" order="6 6" result="filterResult6"/>
        <feComposite in="filterResult4" in2="filterResult6" operator="over" result="filterResult7"/>
      </filter>
      <use ffdec:characterId="2335" filter="url(#filter0)" height="19.45" transform="matrix(1.0, 0.0, 0.0, 1.0, -9.2, -7.45)" width="18.6" xlink:href="#sprite1"/>
    </g>
    <use ffdec:characterId="2247" height="23.75" transform="matrix(1.0, 0.0, 0.0, 1.0, -11.65, -11.75)" width="23.75" xlink:href="#shape4"/>
    <use ffdec:characterId="2246" height="17.95" transform="matrix(1.0, 0.0, 0.0, 1.0, -9.05, -8.85)" width="18.6" xlink:href="#shape5"/>
    <use ffdec:characterId="2241" height="23.0" id="bfilter" transform="matrix(1.0, 0.0, 0.0, 1.0, -11.5, -11.5)" width="23.0" xlink:href="#sprite2"/>
    <use ffdec:characterId="2245" height="19.05" transform="matrix(1.0, 0.0, 0.0, 1.0, -17.2, -8.65)" width="34.35" xlink:href="#text0"/>
  </g>
  <defs>
    <g id="sprite0" transform="matrix(1.0, 0.0, 0.0, 1.0, 11.5, 11.5)">
      <use ffdec:characterId="2243" height="23.0" transform="matrix(1.0, 0.0, 0.0, 1.0, -11.5, -11.5)" width="23.0" xlink:href="#shape0"/>
    </g>
    <g id="shape0" transform="matrix(1.0, 0.0, 0.0, 1.0, 11.5, 11.5)">
      <path d="M11.5 0.0 Q11.5 4.75 8.15 8.15 4.8 11.5 0.0 11.5 -4.8 11.5 -8.15 8.15 -11.5 4.75 -11.5 0.0 L-11.4 -1.3 -11.35 -1.85 Q-10.8 -5.45 -8.15 -8.15 -4.8 -11.5 0.0 -11.5 L2.95 -11.15 Q5.85 -10.45 8.15 -8.15 10.4 -5.85 11.2 -2.9 L11.3 -2.45 11.5 0.0" fill="#262626" fill-rule="evenodd" stroke="none"/>
    </g>
    <g id="shape2" transform="matrix(1.0, 0.0, 0.0, 1.0, 11.9, 13.0)">
      <path d="M13.1 -0.5 Q13.1 4.7 9.45 8.35 5.8 12.0 0.6 12.0 -4.6 12.0 -8.25 8.35 -11.9 4.7 -11.9 -0.5 -11.9 -5.7 -8.25 -9.35 -4.6 -13.0 0.6 -13.0 5.8 -13.0 9.45 -9.35 13.1 -5.7 13.1 -0.5" fill="url(#gradient0)" fill-rule="evenodd" stroke="none"/>
    </g>
    <radialGradient cx="0" cy="0" gradientTransform="matrix(0.0252, 0.0, 0.0, 0.0252, 4.65, 6.3)" gradientUnits="userSpaceOnUse" id="gradient0" r="819.2" spreadMethod="pad">
      <stop offset="0.0" stop-color="#418a9c"/>
      <stop offset="0.41568627450980394" stop-color="#1a2233"/>
      <stop offset="0.8196078431372549" stop-color="#000000"/>
    </radialGradient>
    <g id="sprite1" transform="matrix(1.0, 0.0, 0.0, 1.0, 0.0, 0.0)">
      <use ffdec:characterId="2334" height="19.45" transform="matrix(1.0, 0.0, 0.0, 1.0, 0.0, 0.0)" width="18.6" xlink:href="#shape3"/>
    </g>
    <g id="shape3" transform="matrix(1.0, 0.0, 0.0, 1.0, 0.0, 0.0)">
      <path d="M15.1 0.95 Q15.0 1.4 14.7 1.45 L13.95 0.95 Q13.95 0.5 14.45 0.2 L15.1 0.95 M16.65 3.75 L16.55 3.95 15.3 4.05 15.2 3.95 15.1 3.45 Q15.1 2.45 16.6 2.9 L16.7 3.3 16.65 3.75 M16.2 6.0 Q16.2 4.6 17.4 4.45 18.6 4.25 18.6 5.8 L18.45 6.75 Q18.2 7.2 17.45 7.2 L17.1 7.2 Q18.05 7.7 18.05 8.95 18.05 9.6 17.65 10.2 17.15 10.85 16.45 10.85 14.45 10.85 14.45 8.8 14.45 6.55 16.25 6.9 L16.4 6.95 16.2 6.65 16.2 6.0 M15.05 13.15 Q14.6 13.75 13.45 13.85 L13.35 14.95 Q13.1 15.65 12.55 16.15 L12.8 16.5 12.8 16.55 13.0 16.5 14.45 16.2 14.95 16.3 15.2 17.3 Q15.2 18.1 14.3 18.75 13.3 19.45 11.45 19.45 8.35 19.45 5.1 17.8 2.2 16.35 2.2 15.4 2.2 13.45 3.3 14.3 L5.45 16.05 5.45 14.8 Q5.8 14.45 5.95 14.45 L6.2 14.6 Q5.7 13.5 5.7 12.35 L5.7 12.3 5.7 12.2 5.75 11.8 Q6.05 9.05 9.6 9.1 12.05 9.15 12.95 10.25 L13.55 10.1 Q15.35 9.85 15.35 11.85 15.35 12.75 15.05 13.15 M17.45 14.85 Q17.35 15.1 16.95 15.1 L16.35 15.0 15.95 15.2 15.85 15.1 15.8 14.95 15.55 14.95 15.45 14.4 Q15.45 13.95 15.95 13.65 L17.35 13.55 17.45 14.1 17.45 14.85 M6.9 0.7 L6.3 0.7 6.2 0.05 6.9 0.2 7.05 0.55 6.9 0.7 M1.9 5.7 L1.8 5.65 1.7 5.3 Q1.7 4.9 2.15 4.6 L3.2 4.45 3.3 4.6 3.4 5.05 Q3.4 5.9 2.6 5.9 L1.9 5.7 M6.4 6.55 Q6.4 8.6 4.95 8.6 3.8 8.6 3.45 7.75 L3.3 6.8 Q3.3 4.9 4.85 5.1 6.4 5.35 6.4 6.55 M5.9 3.15 L5.2 3.3 4.85 3.15 Q4.7 3.0 4.7 2.6 L4.7 2.05 5.8 2.05 Q6.05 1.8 6.05 2.45 L5.9 3.15 M4.7 13.6 L4.55 13.85 4.1 13.95 Q3.35 13.95 2.95 13.25 L2.7 12.2 2.95 12.15 Q3.0 11.45 3.85 11.6 4.75 11.75 5.2 12.45 L4.65 12.85 4.7 13.3 4.7 13.6 M1.6 7.75 Q3.15 8.2 3.15 9.7 3.15 10.6 1.2 10.6 0.25 10.6 0.05 9.9 L0.05 9.35 Q0.05 7.3 1.6 7.75" fill="#ffffff" fill-rule="evenodd" stroke="none"/>
    </g>
    <g id="shape4" transform="matrix(1.0, 0.0, 0.0, 1.0, 11.65, 11.75)">
      <path d="M0.25 -11.75 Q5.15 -11.8 8.65 -8.3 12.1 -4.8 12.1 0.15 L12.0 2.15 12.0 2.2 11.9 2.65 11.9 2.75 Q11.55 4.35 10.75 5.8 9.9 7.25 8.65 8.5 L6.85 10.05 Q3.95 12.0 0.25 12.0 -3.5 12.0 -6.35 10.05 L-8.15 8.5 Q-9.55 7.1 -10.35 5.5 -11.2 3.85 -11.45 2.05 L-11.65 0.15 Q-11.65 -4.8 -8.15 -8.3 -4.7 -11.8 0.25 -11.75" fill="url(#gradient1)" fill-rule="evenodd" stroke="none"/>
    </g>
    <radialGradient cx="0" cy="0" gradientTransform="matrix(0.0154, 0.0, 0.0, 0.0154, 0.5, 0.35)" gradientUnits="userSpaceOnUse" id="gradient1" r="819.2" spreadMethod="pad">
      <stop offset="0.4117647058823529" stop-color="#000000" stop-opacity="0.0"/>
      <stop offset="0.7450980392156863" stop-color="#000000" stop-opacity="0.2"/>
      <stop offset="1.0" stop-color="#000000" stop-opacity="0.7529412"/>
    </radialGradient>
    <g id="shape5" transform="matrix(1.0, 0.0, 0.0, 1.0, 9.05, 8.85)">
      <path d="M6.8 -6.25 Q9.55 -3.6 9.55 0.1 9.55 3.8 6.8 6.45 4.1 9.1 0.25 9.1 -3.65 9.1 -6.4 6.45 -9.1 3.8 -9.05 0.1 -9.1 -3.6 -6.4 -6.25 -3.65 -8.9 0.25 -8.85 4.1 -8.9 6.8 -6.25" fill="url(#gradient2)" fill-rule="evenodd" stroke="none"/>
    </g>
    <radialGradient cx="0" cy="0" gradientTransform="matrix(0.0, 0.0085, -0.0193, 0.0, 0.65, -6.6)" gradientUnits="userSpaceOnUse" id="gradient2" r="819.2" spreadMethod="pad">
      <stop offset="0.0" stop-color="#ffffff" stop-opacity="0.9137255"/>
      <stop offset="0.5098039215686274" stop-color="#ffffff" stop-opacity="0.2901961"/>
      <stop offset="1.0" stop-color="#ffffff" stop-opacity="0.0"/>
    </radialGradient>
    <g id="sprite2" transform="matrix(1.0, 0.0, 0.0, 1.0, 11.5, 11.5)">
      <use ffdec:characterId="2240" height="23.0" transform="matrix(1.0, 0.0, 0.0, 1.0, -11.5, -11.5)" width="23.0" xlink:href="#shape6"/>
    </g>
    <g id="shape6" transform="matrix(1.0, 0.0, 0.0, 1.0, 11.5, 11.5)">
      <path d="M11.5 0.0 Q11.5 4.75 8.15 8.15 4.8 11.5 0.0 11.5 -4.8 11.5 -8.15 8.15 -11.5 4.75 -11.5 0.0 L-11.4 -1.3 -11.35 -1.85 Q-10.8 -5.45 -8.15 -8.15 -4.8 -11.5 0.0 -11.5 L2.95 -11.15 Q5.85 -10.45 8.15 -8.15 10.4 -5.85 11.2 -2.9 L11.3 -2.45 11.5 0.0" fill="#000000" fill-rule="evenodd" stroke="none"/>
    </g>
  </defs>
</svg>
