<?xml version="1.0" encoding="UTF-8" standalone="no"?>
<svg xmlns:ffdec="https://www.free-decompiler.com/flash" xmlns:xlink="http://www.w3.org/1999/xlink" ffdec:objectType="frame" height="97.4px" width="115.7px" xmlns="http://www.w3.org/2000/svg">
  <g transform="matrix(2.0, 0.0, 0.0, 2.0, 40.5, 45.2)">
    <use ffdec:characterId="2244" height="23.0" id="moveColor" transform="matrix(1.0, 0.0, 0.0, 1.0, -11.5, -11.5)" width="23.0" xlink:href="#sprite0"/>
    <clipPath id="clipPath0" transform="matrix(1.0, 0.0, 0.0, 1.0, 0.0, 0.0)">
      <path d="M11.5 0.0 Q11.5 4.75 8.15 8.15 4.8 11.5 0.0 11.5 -4.8 11.5 -8.15 8.15 -11.5 4.75 -11.5 0.0 L-11.4 -1.3 -11.35 -1.85 Q-10.8 -5.45 -8.15 -8.15 -4.8 -11.5 0.0 -11.5 L2.95 -11.15 Q5.85 -10.45 8.15 -8.15 10.4 -5.85 11.2 -2.9 L11.3 -2.45 11.5 0.0" fill="#ffcc00" fill-rule="evenodd" stroke="none"/>
    </clipPath>
    <g clip-path="url(#clipPath0)">
      <use ffdec:characterId="2396" height="25.0" transform="matrix(1.0, 0.0, 0.0, 1.0, -12.55, -12.5)" width="25.0" xlink:href="#shape2"/>
      <filter id="filter0">
        <feFlood flood-color="#ff0099" flood-opacity="1.0" result="filterResult0"/>
        <feComposite in="filterResult0" in2="SourceGraphic" operator="out" result="filterResult1"/>
        <feConvolveMatrix divisor="36.0" in="filterResult1" kernelMatrix="1 1 1 1 1 1 1 1 1 1 1 1 1 1 1 1 1 1 1 1 1 1 1 1 1 1 1 1 1 1 1 1 1 1 1 1" order="6 6" result="filterResult2"/>
        <feComposite in="filterResult2" in2="SourceGraphic" operator="in" result="filterResult3"/>
        <feComposite in="filterResult3" in2="SourceGraphic" operator="over" result="filterResult4"/>
        <feColorMatrix in="filterResult4" result="filterResult5" type="matrix" values="0 0 0 0 0.6,0 0 0 0 0.0,0 0 0 0 0.2,0 0 0 1 0"/>
        <feConvolveMatrix divisor="25.0" in="filterResult5" kernelMatrix="1 1 1 1 1 1 1 1 1 1 1 1 1 1 1 1 1 1 1 1 1 1 1 1 1" order="5 5" result="filterResult6"/>
        <feComposite in="filterResult4" in2="filterResult6" operator="over" result="filterResult7"/>
      </filter>
      <use ffdec:characterId="2395" filter="url(#filter0)" height="28.1" transform="matrix(1.0, 0.0, 0.0, 1.0, -12.05, -14.15)" width="25.6" xlink:href="#sprite1"/>
    </g>
    <use ffdec:characterId="2247" height="23.75" transform="matrix(1.0, 0.0, 0.0, 1.0, -11.65, -11.75)" width="23.75" xlink:href="#shape4"/>
    <use ffdec:characterId="2246" height="17.95" transform="matrix(1.0, 0.0, 0.0, 1.0, -9.05, -8.85)" width="18.6" xlink:href="#shape5"/>
    <use ffdec:characterId="2241" height="23.0" id="bfilter" transform="matrix(1.0, 0.0, 0.0, 1.0, -11.5, -11.5)" width="23.0" xlink:href="#sprite2"/>
    <use ffdec:characterId="2245" height="19.05" transform="matrix(1.0, 0.0, 0.0, 1.0, -17.2, -8.65)" width="34.35" xlink:href="#text0"/>
  </g>
  <defs>
    <g id="sprite0" transform="matrix(1.0, 0.0, 0.0, 1.0, 11.5, 11.5)">
      <use ffdec:characterId="2243" height="23.0" transform="matrix(1.0, 0.0, 0.0, 1.0, -11.5, -11.5)" width="23.0" xlink:href="#shape0"/>
    </g>
    <g id="shape0" transform="matrix(1.0, 0.0, 0.0, 1.0, 11.5, 11.5)">
      <path d="M11.5 0.0 Q11.5 4.75 8.15 8.15 4.8 11.5 0.0 11.5 -4.8 11.5 -8.15 8.15 -11.5 4.75 -11.5 0.0 L-11.4 -1.3 -11.35 -1.85 Q-10.8 -5.45 -8.15 -8.15 -4.8 -11.5 0.0 -11.5 L2.95 -11.15 Q5.85 -10.45 8.15 -8.15 10.4 -5.85 11.2 -2.9 L11.3 -2.45 11.5 0.0" fill="#262626" fill-rule="evenodd" stroke="none"/>
    </g>
    <g id="shape2" transform="matrix(1.0, 0.0, 0.0, 1.0, 12.55, 12.5)">
      <path d="M-0.05 -12.5 Q5.15 -12.5 8.8 -8.85 12.45 -5.2 12.45 0.0 12.45 5.2 8.8 8.85 5.15 12.5 -0.05 12.5 -5.25 12.5 -8.9 8.85 -12.55 5.2 -12.55 0.0 -12.55 -5.2 -8.9 -8.85 -5.25 -12.5 -0.05 -12.5" fill="url(#gradient0)" fill-rule="evenodd" stroke="none"/>
    </g>
    <radialGradient cx="0" cy="0" gradientTransform="matrix(0.0252, 0.0, 0.0, 0.0252, 4.0, 6.8)" gradientUnits="userSpaceOnUse" id="gradient0" r="819.2" spreadMethod="pad">
      <stop offset="0.0" stop-color="#94497d"/>
      <stop offset="0.49411764705882355" stop-color="#371537"/>
      <stop offset="0.8196078431372549" stop-color="#000000"/>
    </radialGradient>
    <g id="sprite1" transform="matrix(1.0, 0.0, 0.0, 1.0, 0.0, 0.0)">
      <use ffdec:characterId="2394" height="28.1" transform="matrix(1.0, 0.0, 0.0, 1.0, 0.0, 0.0)" width="25.6" xlink:href="#shape3"/>
    </g>
    <g id="shape3" transform="matrix(1.0, 0.0, 0.0, 1.0, 0.0, 0.0)">
      <path d="M25.3 7.7 L25.55 8.3 16.0 15.9 25.6 26.4 25.55 27.05 24.85 27.35 Q24.4 25.6 21.75 22.95 L17.0 18.65 16.85 18.65 19.4 22.15 Q21.15 24.5 21.5 25.9 L21.3 26.35 20.6 26.6 Q17.75 26.6 12.05 19.1 3.05 26.35 3.05 27.5 3.05 27.95 3.35 27.95 L3.65 27.95 2.9 28.1 2.45 28.05 Q2.3 27.9 2.3 27.4 2.3 27.0 3.75 25.4 L5.3 23.75 5.45 23.5 Q5.0 23.65 4.1 24.55 L2.9 25.6 1.85 24.95 Q1.85 23.7 9.85 16.1 L0.0 2.0 0.2 1.8 2.5 4.2 4.7 6.45 2.85 3.75 Q1.2 1.2 1.2 0.4 1.2 -0.05 1.3 0.0 L1.4 0.05 13.25 12.9 Q19.9 6.7 21.95 5.4 L22.1 5.6 14.55 13.45 14.15 13.9 14.85 14.65 15.5 14.15 Q20.65 10.15 24.5 7.7 L25.3 7.7 M13.6 15.65 L13.05 14.95 12.65 15.35 13.2 16.0 13.6 15.65 M12.7 18.55 Q15.2 21.5 17.75 23.6 L13.25 18.1 12.7 18.55 M13.7 17.75 L15.4 19.45 13.8 17.65 13.7 17.75 M16.85 19.9 L14.65 17.0 14.35 17.25 16.7 19.9 16.85 19.9 M19.3 24.95 Q20.15 25.65 20.45 25.45 19.8 23.6 17.3 20.5 L17.3 20.6 18.7 22.75 Q19.65 24.25 19.3 24.95 M17.45 22.1 L15.8 20.05 16.45 21.1 17.45 22.1 M10.5 11.25 L6.25 5.6 Q3.5 2.15 1.8 0.8 2.45 2.55 5.55 5.9 L10.4 11.3 10.5 11.25 M10.6 13.0 L11.75 14.3 12.2 13.9 Q8.6 9.5 5.1 6.05 6.95 8.8 10.6 13.0 M10.7 17.25 L7.1 20.8 11.05 17.7 10.95 17.6 10.7 17.25 M11.2 16.75 L11.6 17.25 12.2 16.8 11.75 16.2 11.2 16.75 M10.35 15.6 L10.9 15.1 10.6 14.7 Q6.3 9.05 3.8 6.45 L10.1 15.25 10.35 15.6" fill="#ffffff" fill-rule="evenodd" stroke="none"/>
    </g>
    <g id="shape4" transform="matrix(1.0, 0.0, 0.0, 1.0, 11.65, 11.75)">
      <path d="M0.25 -11.75 Q5.15 -11.8 8.65 -8.3 12.1 -4.8 12.1 0.15 L12.0 2.15 12.0 2.2 11.9 2.65 11.9 2.75 Q11.55 4.35 10.75 5.8 9.9 7.25 8.65 8.5 L6.85 10.05 Q3.95 12.0 0.25 12.0 -3.5 12.0 -6.35 10.05 L-8.15 8.5 Q-9.55 7.1 -10.35 5.5 -11.2 3.85 -11.45 2.05 L-11.65 0.15 Q-11.65 -4.8 -8.15 -8.3 -4.7 -11.8 0.25 -11.75" fill="url(#gradient1)" fill-rule="evenodd" stroke="none"/>
    </g>
    <radialGradient cx="0" cy="0" gradientTransform="matrix(0.0154, 0.0, 0.0, 0.0154, 0.5, 0.35)" gradientUnits="userSpaceOnUse" id="gradient1" r="819.2" spreadMethod="pad">
      <stop offset="0.4117647058823529" stop-color="#000000" stop-opacity="0.0"/>
      <stop offset="0.7450980392156863" stop-color="#000000" stop-opacity="0.2"/>
      <stop offset="1.0" stop-color="#000000" stop-opacity="0.7529412"/>
    </radialGradient>
    <g id="shape5" transform="matrix(1.0, 0.0, 0.0, 1.0, 9.05, 8.85)">
      <path d="M6.8 -6.25 Q9.55 -3.6 9.55 0.1 9.55 3.8 6.8 6.45 4.1 9.1 0.25 9.1 -3.65 9.1 -6.4 6.45 -9.1 3.8 -9.05 0.1 -9.1 -3.6 -6.4 -6.25 -3.65 -8.9 0.25 -8.85 4.1 -8.9 6.8 -6.25" fill="url(#gradient2)" fill-rule="evenodd" stroke="none"/>
    </g>
    <radialGradient cx="0" cy="0" gradientTransform="matrix(0.0, 0.0085, -0.0193, 0.0, 0.65, -6.6)" gradientUnits="userSpaceOnUse" id="gradient2" r="819.2" spreadMethod="pad">
      <stop offset="0.0" stop-color="#ffffff" stop-opacity="0.9137255"/>
      <stop offset="0.5098039215686274" stop-color="#ffffff" stop-opacity="0.2901961"/>
      <stop offset="1.0" stop-color="#ffffff" stop-opacity="0.0"/>
    </radialGradient>
    <g id="sprite2" transform="matrix(1.0, 0.0, 0.0, 1.0, 11.5, 11.5)">
      <use ffdec:characterId="2240" height="23.0" transform="matrix(1.0, 0.0, 0.0, 1.0, -11.5, -11.5)" width="23.0" xlink:href="#shape6"/>
    </g>
    <g id="shape6" transform="matrix(1.0, 0.0, 0.0, 1.0, 11.5, 11.5)">
      <path d="M11.5 0.0 Q11.5 4.75 8.15 8.15 4.8 11.5 0.0 11.5 -4.8 11.5 -8.15 8.15 -11.5 4.75 -11.5 0.0 L-11.4 -1.3 -11.35 -1.85 Q-10.8 -5.45 -8.15 -8.15 -4.8 -11.5 0.0 -11.5 L2.95 -11.15 Q5.85 -10.45 8.15 -8.15 10.4 -5.85 11.2 -2.9 L11.3 -2.45 11.5 0.0" fill="#000000" fill-rule="evenodd" stroke="none"/>
    </g>
  </defs>
</svg>
