<?xml version="1.0" encoding="UTF-8" standalone="no"?>
<svg xmlns:ffdec="https://www.free-decompiler.com/flash" xmlns:xlink="http://www.w3.org/1999/xlink" ffdec:objectType="frame" height="97.4px" width="115.7px" xmlns="http://www.w3.org/2000/svg">
  <g transform="matrix(2.0, 0.0, 0.0, 2.0, 40.5, 45.2)">
    <use ffdec:characterId="2244" height="23.0" id="moveColor" transform="matrix(1.0, 0.0, 0.0, 1.0, -11.5, -11.5)" width="23.0" xlink:href="#sprite0"/>
    <clipPath id="clipPath0" transform="matrix(1.0, 0.0, 0.0, 1.0, 0.0, 0.0)">
      <path d="M11.5 0.0 Q11.5 4.75 8.15 8.15 4.8 11.5 0.0 11.5 -4.8 11.5 -8.15 8.15 -11.5 4.75 -11.5 0.0 L-11.4 -1.3 -11.35 -1.85 Q-10.8 -5.45 -8.15 -8.15 -4.8 -11.5 0.0 -11.5 L2.95 -11.15 Q5.85 -10.45 8.15 -8.15 10.4 -5.85 11.2 -2.9 L11.3 -2.45 11.5 0.0" fill="#ffcc00" fill-rule="evenodd" stroke="none"/>
    </clipPath>
    <g clip-path="url(#clipPath0)">
      <use ffdec:characterId="2404" height="25.75" transform="matrix(1.0, 0.0, 0.0, 1.0, -12.55, -13.25)" width="25.0" xlink:href="#shape2"/>
      <filter id="filter0">
        <feFlood flood-color="#ffff99" flood-opacity="1.0" result="filterResult0"/>
        <feComposite in="filterResult0" in2="SourceGraphic" operator="out" result="filterResult1"/>
        <feConvolveMatrix divisor="25.0" in="filterResult1" kernelMatrix="1 1 1 1 1 1 1 1 1 1 1 1 1 1 1 1 1 1 1 1 1 1 1 1 1" order="5 5" result="filterResult2"/>
        <feComposite in="filterResult2" in2="SourceGraphic" operator="in" result="filterResult3"/>
        <feComposite in="filterResult3" in2="SourceGraphic" operator="over" result="filterResult4"/>
        <feColorMatrix in="filterResult4" result="filterResult5" type="matrix" values="0 0 0 0 1.0,0 0 0 0 0.4,0 0 0 0 0.0,0 0 0 1 0"/>
        <feConvolveMatrix divisor="36.0" in="filterResult5" kernelMatrix="1 1 1 1 1 1 1 1 1 1 1 1 1 1 1 1 1 1 1 1 1 1 1 1 1 1 1 1 1 1 1 1 1 1 1 1" order="6 6" result="filterResult6"/>
        <feComposite in="filterResult4" in2="filterResult6" operator="over" result="filterResult7"/>
      </filter>
      <use ffdec:characterId="2403" filter="url(#filter0)" height="2.45" transform="matrix(1.0, 0.0, 0.0, 1.0, -6.5, -5.95)" width="14.75" xlink:href="#sprite1"/>
    </g>
    <use ffdec:characterId="2247" height="23.75" transform="matrix(1.0, 0.0, 0.0, 1.0, -11.65, -11.75)" width="23.75" xlink:href="#shape4"/>
    <use ffdec:characterId="2241" height="23.0" id="bfilter" transform="matrix(1.0, 0.0, 0.0, 1.0, -11.5, -11.5)" width="23.0" xlink:href="#sprite2"/>
    <use ffdec:characterId="2245" height="19.05" transform="matrix(1.0, 0.0, 0.0, 1.0, -17.2, -8.65)" width="34.35" xlink:href="#text0"/>
  </g>
  <defs>
    <g id="sprite0" transform="matrix(1.0, 0.0, 0.0, 1.0, 11.5, 11.5)">
      <use ffdec:characterId="2243" height="23.0" transform="matrix(1.0, 0.0, 0.0, 1.0, -11.5, -11.5)" width="23.0" xlink:href="#shape0"/>
    </g>
    <g id="shape0" transform="matrix(1.0, 0.0, 0.0, 1.0, 11.5, 11.5)">
      <path d="M11.5 0.0 Q11.5 4.75 8.15 8.15 4.8 11.5 0.0 11.5 -4.8 11.5 -8.15 8.15 -11.5 4.75 -11.5 0.0 L-11.4 -1.3 -11.35 -1.85 Q-10.8 -5.45 -8.15 -8.15 -4.8 -11.5 0.0 -11.5 L2.95 -11.15 Q5.85 -10.45 8.15 -8.15 10.4 -5.85 11.2 -2.9 L11.3 -2.45 11.5 0.0" fill="#262626" fill-rule="evenodd" stroke="none"/>
    </g>
    <g id="shape2" transform="matrix(1.0, 0.0, 0.0, 1.0, 12.55, 13.25)">
      <path d="M-0.05 -12.5 Q5.15 -12.5 8.8 -8.85 12.45 -5.2 12.45 0.0 12.45 5.2 8.8 8.85 5.15 12.5 -0.05 12.5 -5.25 12.5 -8.9 8.85 -12.55 5.2 -12.55 0.0 -12.55 -5.2 -8.9 -8.85 -5.25 -12.5 -0.05 -12.5" fill="url(#gradient0)" fill-rule="evenodd" stroke="none"/>
      <path d="M8.0 -12.35 Q8.0 -12.95 8.5 -13.25 L10.05 -9.8 11.0 -6.5 11.5 -6.75 Q12.0 -6.1 12.0 -4.55 12.0 -1.9 10.95 2.2 9.8 6.55 8.5 8.25 L8.05 7.85 8.0 7.25 Q8.0 2.1 8.25 -0.5 L8.4 -1.6 8.35 -2.6 8.0 -2.5 Q7.0 -2.5 6.25 -2.85 L5.75 -2.75 Q5.15 -2.75 3.7 -4.35 2.25 -5.85 2.25 -6.25 2.25 -7.2 3.95 -7.8 5.65 -8.35 7.95 -7.8 7.4 -10.55 5.75 -12.25 L5.75 -12.8 Q7.4 -13.65 8.7 -9.45 L8.0 -12.35 M0.45 9.25 L-1.0 9.75 Q-2.2 9.75 -2.85 9.05 L-3.25 8.3 Q-3.25 7.35 -0.25 6.7 L0.25 6.6 0.1 6.4 0.0 5.05 0.0 4.0 Q-1.45 4.0 -2.0 2.95 L-2.25 1.8 -1.85 -0.25 Q-1.5 -1.55 -1.5 -2.2 L-1.5 -2.45 -1.65 -2.7 -1.7 -3.0 -1.85 -3.4 -3.15 -2.7 Q-4.15 -2.25 -4.75 -2.25 -7.2 -2.25 -8.0 -3.05 L-8.1 -3.15 Q-8.0 0.95 -7.2 3.45 -6.25 6.45 -6.25 8.5 L-6.25 9.5 -6.75 9.75 -7.95 8.2 Q-8.65 7.25 -9.75 7.35 -9.75 3.3 -11.0 -2.4 L-11.0 -3.5 Q-11.1 -3.75 -10.5 -3.75 -10.1 -3.75 -10.0 -3.45 L-10.0 -3.0 -9.35 -4.95 -8.95 -5.85 Q-8.65 -7.25 -5.75 -7.45 -4.0 -7.55 -3.15 -6.85 -0.7 -6.85 0.15 -3.15 L1.15 0.5 Q2.0 2.0 3.75 1.25 L3.9 1.3 4.0 1.75 Q4.0 2.25 2.95 3.05 L2.8 3.15 3.0 4.0 2.55 5.65 2.25 6.3 2.75 6.25 Q4.3 6.7 5.25 8.25 4.15 9.0 3.6 9.0 3.3 9.0 3.15 8.8 L3.8 8.5 3.95 8.5 Q2.4 7.6 0.45 7.7 -1.5 7.75 -1.5 8.7 L-1.35 9.15 -1.25 9.25 0.45 9.25" fill="#1d2530" fill-rule="evenodd" stroke="none"/>
      <path d="M3.15 8.8 Q2.7 8.95 2.0 9.25 L0.45 9.25 -1.25 9.25 -1.35 9.15 -1.5 8.7 Q-1.5 7.75 0.45 7.7 2.4 7.6 3.95 8.5 L3.8 8.5 3.15 8.8" fill="#171e27" fill-rule="evenodd" stroke="none"/>
    </g>
    <radialGradient cx="0" cy="0" gradientTransform="matrix(0.0252, 0.0, 0.0, 0.0252, 4.0, 6.8)" gradientUnits="userSpaceOnUse" id="gradient0" r="819.2" spreadMethod="pad">
      <stop offset="0.0" stop-color="#418a9c"/>
      <stop offset="0.6274509803921569" stop-color="#3c5477"/>
      <stop offset="1.0" stop-color="#000000"/>
    </radialGradient>
    <g id="sprite1" transform="matrix(1.0, 0.0, 0.0, 1.0, -12.5, -4.3)">
      <use ffdec:characterId="2402" height="2.45" transform="matrix(1.0, 0.0, 0.0, 1.0, 12.5, 4.3)" width="14.75" xlink:href="#shape3"/>
    </g>
    <g id="shape3" transform="matrix(1.0, 0.0, 0.0, 1.0, -12.5, -4.3)">
      <path d="M25.5 6.5 Q24.85 6.5 24.45 6.15 L23.5 5.25 23.5 4.9 23.55 4.3 26.3 4.3 27.25 5.5 Q26.15 6.5 25.5 6.5 M16.25 4.5 L16.4 4.55 16.5 5.0 Q16.5 5.6 16.0 6.1 15.45 6.75 14.6 6.75 13.5 6.75 12.95 6.1 12.5 5.65 12.5 5.15 12.5 4.7 12.75 4.6 L16.25 4.5" fill="#ffffff" fill-rule="evenodd" stroke="none"/>
    </g>
    <g id="shape4" transform="matrix(1.0, 0.0, 0.0, 1.0, 11.65, 11.75)">
      <path d="M0.25 -11.75 Q5.15 -11.8 8.65 -8.3 12.1 -4.8 12.1 0.15 L12.0 2.15 12.0 2.2 11.9 2.65 11.9 2.75 Q11.55 4.35 10.75 5.8 9.9 7.25 8.65 8.5 L6.85 10.05 Q3.95 12.0 0.25 12.0 -3.5 12.0 -6.35 10.05 L-8.15 8.5 Q-9.55 7.1 -10.35 5.5 -11.2 3.85 -11.45 2.05 L-11.65 0.15 Q-11.65 -4.8 -8.15 -8.3 -4.7 -11.8 0.25 -11.75" fill="url(#gradient1)" fill-rule="evenodd" stroke="none"/>
    </g>
    <radialGradient cx="0" cy="0" gradientTransform="matrix(0.0154, 0.0, 0.0, 0.0154, 0.5, 0.35)" gradientUnits="userSpaceOnUse" id="gradient1" r="819.2" spreadMethod="pad">
      <stop offset="0.4117647058823529" stop-color="#000000" stop-opacity="0.0"/>
      <stop offset="0.7450980392156863" stop-color="#000000" stop-opacity="0.2"/>
      <stop offset="1.0" stop-color="#000000" stop-opacity="0.7529412"/>
    </radialGradient>
    <g id="sprite2" transform="matrix(1.0, 0.0, 0.0, 1.0, 11.5, 11.5)">
      <use ffdec:characterId="2240" height="23.0" transform="matrix(1.0, 0.0, 0.0, 1.0, -11.5, -11.5)" width="23.0" xlink:href="#shape5"/>
    </g>
    <g id="shape5" transform="matrix(1.0, 0.0, 0.0, 1.0, 11.5, 11.5)">
      <path d="M11.5 0.0 Q11.5 4.75 8.15 8.15 4.8 11.5 0.0 11.5 -4.8 11.5 -8.15 8.15 -11.5 4.75 -11.5 0.0 L-11.4 -1.3 -11.35 -1.85 Q-10.8 -5.45 -8.15 -8.15 -4.8 -11.5 0.0 -11.5 L2.95 -11.15 Q5.85 -10.45 8.15 -8.15 10.4 -5.85 11.2 -2.9 L11.3 -2.45 11.5 0.0" fill="#000000" fill-rule="evenodd" stroke="none"/>
    </g>
  </defs>
</svg>
