<?xml version="1.0" encoding="UTF-8" standalone="no"?>
<svg xmlns:ffdec="https://www.free-decompiler.com/flash" xmlns:xlink="http://www.w3.org/1999/xlink" ffdec:objectType="frame" height="97.4px" width="115.7px" xmlns="http://www.w3.org/2000/svg">
  <g transform="matrix(2.0, 0.0, 0.0, 2.0, 40.5, 45.2)">
    <use ffdec:characterId="2244" height="23.0" id="moveColor" transform="matrix(1.0, 0.0, 0.0, 1.0, -11.5, -11.5)" width="23.0" xlink:href="#sprite0"/>
    <clipPath id="clipPath0" transform="matrix(1.0, 0.0, 0.0, 1.0, 0.0, 0.0)">
      <path d="M11.5 0.0 Q11.5 4.75 8.15 8.15 4.8 11.5 0.0 11.5 -4.8 11.5 -8.15 8.15 -11.5 4.75 -11.5 0.0 L-11.4 -1.3 -11.35 -1.85 Q-10.8 -5.45 -8.15 -8.15 -4.8 -11.5 0.0 -11.5 L2.95 -11.15 Q5.85 -10.45 8.15 -8.15 10.4 -5.85 11.2 -2.9 L11.3 -2.45 11.5 0.0" fill="#ffcc00" fill-rule="evenodd" stroke="none"/>
    </clipPath>
    <g clip-path="url(#clipPath0)">
      <use ffdec:characterId="2410" height="25.0" transform="matrix(1.0, 0.0, 0.0, 1.0, -12.55, -12.5)" width="25.0" xlink:href="#shape2"/>
      <filter id="filter0">
        <feFlood flood-color="#99ffff" flood-opacity="1.0" result="filterResult0"/>
        <feComposite in="filterResult0" in2="SourceGraphic" operator="out" result="filterResult1"/>
        <feConvolveMatrix divisor="4.0" in="filterResult1" kernelMatrix="1 1 1 1" order="2 2" result="filterResult2"/>
        <feComposite in="filterResult2" in2="SourceGraphic" operator="in" result="filterResult3"/>
        <feComposite in="filterResult3" in2="SourceGraphic" operator="over" result="filterResult4"/>
        <feColorMatrix in="filterResult4" result="filterResult5" type="matrix" values="0 0 0 0 0.6,0 0 0 0 1.0,0 0 0 0 1.0,0 0 0 1 0"/>
        <feConvolveMatrix divisor="25.0" in="filterResult5" kernelMatrix="1 1 1 1 1 1 1 1 1 1 1 1 1 1 1 1 1 1 1 1 1 1 1 1 1" order="5 5" result="filterResult6"/>
        <feComposite in="filterResult4" in2="filterResult6" operator="over" result="filterResult7"/>
      </filter>
      <use ffdec:characterId="2409" filter="url(#filter0)" height="33.65" transform="matrix(1.0, 0.0, 0.0, 1.0, -13.75, -21.15)" width="34.9" xlink:href="#sprite1"/>
    </g>
    <use ffdec:characterId="2247" height="23.75" transform="matrix(1.0, 0.0, 0.0, 1.0, -11.65, -11.75)" width="23.75" xlink:href="#shape4"/>
    <use ffdec:characterId="2246" height="17.95" transform="matrix(1.0, 0.0, 0.0, 1.0, -9.05, -8.85)" width="18.6" xlink:href="#shape5"/>
    <use ffdec:characterId="2241" height="23.0" id="bfilter" transform="matrix(1.0, 0.0, 0.0, 1.0, -11.5, -11.5)" width="23.0" xlink:href="#sprite2"/>
    <use ffdec:characterId="2245" height="19.05" transform="matrix(1.0, 0.0, 0.0, 1.0, -17.2, -8.65)" width="34.35" xlink:href="#text0"/>
  </g>
  <defs>
    <g id="sprite0" transform="matrix(1.0, 0.0, 0.0, 1.0, 11.5, 11.5)">
      <use ffdec:characterId="2243" height="23.0" transform="matrix(1.0, 0.0, 0.0, 1.0, -11.5, -11.5)" width="23.0" xlink:href="#shape0"/>
    </g>
    <g id="shape0" transform="matrix(1.0, 0.0, 0.0, 1.0, 11.5, 11.5)">
      <path d="M11.5 0.0 Q11.5 4.75 8.15 8.15 4.8 11.5 0.0 11.5 -4.8 11.5 -8.15 8.15 -11.5 4.75 -11.5 0.0 L-11.4 -1.3 -11.35 -1.85 Q-10.8 -5.45 -8.15 -8.15 -4.8 -11.5 0.0 -11.5 L2.95 -11.15 Q5.85 -10.45 8.15 -8.15 10.4 -5.85 11.2 -2.9 L11.3 -2.45 11.5 0.0" fill="#262626" fill-rule="evenodd" stroke="none"/>
    </g>
    <g id="shape2" transform="matrix(1.0, 0.0, 0.0, 1.0, 12.55, 12.5)">
      <path d="M-0.05 -12.5 Q5.15 -12.5 8.8 -8.85 12.45 -5.2 12.45 0.0 12.45 5.2 8.8 8.85 5.15 12.5 -0.05 12.5 -5.25 12.5 -8.9 8.85 -12.55 5.2 -12.55 0.0 -12.55 -5.2 -8.9 -8.85 -5.25 -12.5 -0.05 -12.5" fill="url(#gradient0)" fill-rule="evenodd" stroke="none"/>
    </g>
    <radialGradient cx="0" cy="0" gradientTransform="matrix(0.0252, 0.0, 0.0, 0.0252, 4.0, 6.8)" gradientUnits="userSpaceOnUse" id="gradient0" r="819.2" spreadMethod="pad">
      <stop offset="0.0" stop-color="#a6bec8"/>
      <stop offset="0.4117647058823529" stop-color="#5c769a"/>
      <stop offset="0.7137254901960784" stop-color="#1a222b"/>
      <stop offset="1.0" stop-color="#000000"/>
    </radialGradient>
    <g id="sprite1" transform="matrix(1.0, 0.0, 0.0, 1.0, 8.25, 4.7)">
      <use ffdec:characterId="2408" height="33.65" transform="matrix(1.0, 0.0, 0.0, 1.0, -8.25, -4.7)" width="34.9" xlink:href="#shape3"/>
    </g>
    <g id="shape3" transform="matrix(1.0, 0.0, 0.0, 1.0, 8.25, 4.7)">
      <path d="M23.1 17.25 L22.65 17.45 Q22.7 20.4 19.9 23.3 17.85 25.4 14.65 27.1 L14.8 27.2 14.5 27.15 10.75 28.7 Q10.6 29.3 10.6 28.35 L13.35 26.65 11.5 25.25 Q9.7 23.7 8.8 22.35 L4.7 22.55 1.05 22.25 0.9 22.25 2.45 26.85 1.75 27.2 Q0.85 25.25 0.05 22.2 L-2.55 21.9 -2.7 21.7 -0.2 21.45 -0.8 19.0 -2.5 18.3 Q-3.15 18.65 -3.3 17.75 -5.6 16.3 -8.25 13.55 L-8.25 13.2 -3.3 15.7 -2.8 13.5 -3.1 12.5 -2.85 11.05 -3.1 10.25 -2.95 10.0 -2.65 10.45 Q-2.05 8.55 -0.5 5.4 L-3.9 6.7 Q-3.45 6.0 -1.75 5.35 L-0.2 4.85 2.45 -0.85 Q1.6 -0.85 0.6 -1.6 L0.7 -1.9 -0.85 -2.35 -0.85 -2.8 0.9 -2.5 1.35 -2.95 9.7 -2.95 Q13.85 -5.95 15.25 -3.8 L15.25 -3.5 14.95 -3.5 14.15 -3.65 Q12.65 -3.65 11.1 -2.8 L17.3 2.7 Q22.4 7.55 22.4 8.4 22.4 9.35 21.45 11.25 23.15 13.65 23.45 15.7 L26.5 14.45 26.55 14.35 26.65 14.9 23.55 16.95 23.4 17.4 23.15 17.6 23.1 17.25 M9.25 -1.5 L7.8 -0.1 Q11.85 1.9 15.85 5.35 L17.25 6.6 Q18.0 6.25 18.7 6.15 L19.1 6.75 18.45 7.7 20.7 10.25 Q21.55 8.8 21.55 8.15 L19.1 5.7 15.55 2.4 12.8 -1.25 9.25 -1.5 M7.7 -1.3 L5.85 -1.0 6.9 -0.55 7.7 -1.3 M15.4 6.7 Q11.5 3.15 6.95 0.75 5.2 2.7 3.45 5.4 L2.4 7.05 3.05 9.65 Q4.0 13.7 9.2 14.9 L11.35 12.5 14.65 8.45 16.05 7.25 15.4 6.7 M17.55 8.75 L12.9 14.0 Q8.3 18.35 4.25 19.6 5.8 20.35 7.65 20.35 L8.3 20.35 15.4 18.75 16.35 17.75 Q17.55 16.35 17.75 14.15 L19.9 11.4 17.55 8.75 M5.95 0.25 L4.3 -0.5 4.3 0.05 1.8 4.45 5.5 0.7 5.95 0.25 M1.05 9.2 Q-0.35 11.55 -1.15 13.55 L0.6 16.5 2.6 18.6 3.95 18.05 7.4 16.2 Q3.2 15.55 1.65 11.8 L1.05 9.2 M0.25 19.9 L0.6 21.4 3.3 21.1 1.6 20.05 1.0 20.05 0.25 19.9 M-2.05 16.35 L-1.4 16.75 -1.55 16.3 -1.9 15.6 -2.05 16.35 M17.9 17.85 L22.65 16.05 Q21.95 14.3 20.7 12.5 L18.7 15.55 Q18.5 16.8 17.9 17.85 M20.35 19.45 L21.0 18.35 Q15.25 21.4 9.4 22.25 L12.0 24.55 13.9 26.25 18.5 22.4 20.35 19.45" fill="#ffffff" fill-rule="evenodd" stroke="none"/>
    </g>
    <g id="shape4" transform="matrix(1.0, 0.0, 0.0, 1.0, 11.65, 11.75)">
      <path d="M0.25 -11.75 Q5.15 -11.8 8.65 -8.3 12.1 -4.8 12.1 0.15 L12.0 2.15 12.0 2.2 11.9 2.65 11.9 2.75 Q11.55 4.35 10.75 5.8 9.9 7.25 8.65 8.5 L6.85 10.05 Q3.95 12.0 0.25 12.0 -3.5 12.0 -6.35 10.05 L-8.15 8.5 Q-9.55 7.1 -10.35 5.5 -11.2 3.85 -11.45 2.05 L-11.65 0.15 Q-11.65 -4.8 -8.15 -8.3 -4.7 -11.8 0.25 -11.75" fill="url(#gradient1)" fill-rule="evenodd" stroke="none"/>
    </g>
    <radialGradient cx="0" cy="0" gradientTransform="matrix(0.0154, 0.0, 0.0, 0.0154, 0.5, 0.35)" gradientUnits="userSpaceOnUse" id="gradient1" r="819.2" spreadMethod="pad">
      <stop offset="0.4117647058823529" stop-color="#000000" stop-opacity="0.0"/>
      <stop offset="0.7450980392156863" stop-color="#000000" stop-opacity="0.2"/>
      <stop offset="1.0" stop-color="#000000" stop-opacity="0.7529412"/>
    </radialGradient>
    <g id="shape5" transform="matrix(1.0, 0.0, 0.0, 1.0, 9.05, 8.85)">
      <path d="M6.8 -6.25 Q9.55 -3.6 9.55 0.1 9.55 3.8 6.8 6.45 4.1 9.1 0.25 9.1 -3.65 9.1 -6.4 6.45 -9.1 3.8 -9.05 0.1 -9.1 -3.6 -6.4 -6.25 -3.65 -8.9 0.25 -8.85 4.1 -8.9 6.8 -6.25" fill="url(#gradient2)" fill-rule="evenodd" stroke="none"/>
    </g>
    <radialGradient cx="0" cy="0" gradientTransform="matrix(0.0, 0.0085, -0.0193, 0.0, 0.65, -6.6)" gradientUnits="userSpaceOnUse" id="gradient2" r="819.2" spreadMethod="pad">
      <stop offset="0.0" stop-color="#ffffff" stop-opacity="0.9137255"/>
      <stop offset="0.5098039215686274" stop-color="#ffffff" stop-opacity="0.2901961"/>
      <stop offset="1.0" stop-color="#ffffff" stop-opacity="0.0"/>
    </radialGradient>
    <g id="sprite2" transform="matrix(1.0, 0.0, 0.0, 1.0, 11.5, 11.5)">
      <use ffdec:characterId="2240" height="23.0" transform="matrix(1.0, 0.0, 0.0, 1.0, -11.5, -11.5)" width="23.0" xlink:href="#shape6"/>
    </g>
    <g id="shape6" transform="matrix(1.0, 0.0, 0.0, 1.0, 11.5, 11.5)">
      <path d="M11.5 0.0 Q11.5 4.75 8.15 8.15 4.8 11.5 0.0 11.5 -4.8 11.5 -8.15 8.15 -11.5 4.75 -11.5 0.0 L-11.4 -1.3 -11.35 -1.85 Q-10.8 -5.45 -8.15 -8.15 -4.8 -11.5 0.0 -11.5 L2.95 -11.15 Q5.85 -10.45 8.15 -8.15 10.4 -5.85 11.2 -2.9 L11.3 -2.45 11.5 0.0" fill="#000000" fill-rule="evenodd" stroke="none"/>
    </g>
  </defs>
</svg>
