<?xml version="1.0" encoding="UTF-8" standalone="no"?>
<svg xmlns:ffdec="https://www.free-decompiler.com/flash" xmlns:xlink="http://www.w3.org/1999/xlink" ffdec:objectType="frame" height="97.4px" width="115.7px" xmlns="http://www.w3.org/2000/svg">
  <g transform="matrix(2.0, 0.0, 0.0, 2.0, 40.5, 45.2)">
    <use ffdec:characterId="2244" height="23.0" id="moveColor" transform="matrix(1.0, 0.0, 0.0, 1.0, -11.5, -11.5)" width="23.0" xlink:href="#sprite0"/>
    <clipPath id="clipPath0" transform="matrix(1.0, 0.0, 0.0, 1.0, 0.0, 0.0)">
      <path d="M11.5 0.0 Q11.5 4.75 8.15 8.15 4.8 11.5 0.0 11.5 -4.8 11.5 -8.15 8.15 -11.5 4.75 -11.5 0.0 L-11.4 -1.3 -11.35 -1.85 Q-10.8 -5.45 -8.15 -8.15 -4.8 -11.5 0.0 -11.5 L2.95 -11.15 Q5.85 -10.45 8.15 -8.15 10.4 -5.85 11.2 -2.9 L11.3 -2.45 11.5 0.0" fill="#ffcc00" fill-rule="evenodd" stroke="none"/>
    </clipPath>
    <g clip-path="url(#clipPath0)">
      <use ffdec:characterId="2262" height="27.5" transform="matrix(1.0, 0.0, 0.0, 1.0, -12.6, -11.5)" width="25.4" xlink:href="#shape2"/>
    </g>
    <use ffdec:characterId="2247" height="23.75" transform="matrix(1.0, 0.0, 0.0, 1.0, -11.65, -11.75)" width="23.75" xlink:href="#shape3"/>
    <use ffdec:characterId="2246" height="17.95" transform="matrix(1.0, 0.0, 0.0, 1.0, -9.05, -8.85)" width="18.6" xlink:href="#shape4"/>
    <use ffdec:characterId="2241" height="23.0" id="bfilter" transform="matrix(1.0, 0.0, 0.0, 1.0, -11.5, -11.5)" width="23.0" xlink:href="#sprite1"/>
    <use ffdec:characterId="2245" height="19.05" transform="matrix(1.0, 0.0, 0.0, 1.0, -17.2, -8.65)" width="34.35" xlink:href="#text0"/>
  </g>
  <defs>
    <g id="sprite0" transform="matrix(1.0, 0.0, 0.0, 1.0, 11.5, 11.5)">
      <use ffdec:characterId="2243" height="23.0" transform="matrix(1.0, 0.0, 0.0, 1.0, -11.5, -11.5)" width="23.0" xlink:href="#shape0"/>
    </g>
    <g id="shape0" transform="matrix(1.0, 0.0, 0.0, 1.0, 11.5, 11.5)">
      <path d="M11.5 0.0 Q11.5 4.75 8.15 8.15 4.8 11.5 0.0 11.5 -4.8 11.5 -8.15 8.15 -11.5 4.75 -11.5 0.0 L-11.4 -1.3 -11.35 -1.85 Q-10.8 -5.45 -8.15 -8.15 -4.8 -11.5 0.0 -11.5 L2.95 -11.15 Q5.85 -10.45 8.15 -8.15 10.4 -5.85 11.2 -2.9 L11.3 -2.45 11.5 0.0" fill="#262626" fill-rule="evenodd" stroke="none"/>
    </g>
    <g id="shape2" transform="matrix(1.0, 0.0, 0.0, 1.0, 12.6, 11.5)">
      <path d="M9.05 -8.05 Q12.8 -4.6 12.8 0.3 12.8 5.1 9.05 8.6 5.3 12.05 0.1 12.05 -5.2 12.05 -8.9 8.6 -12.6 5.1 -12.6 0.3 -12.6 -4.6 -8.9 -8.05 -5.2 -11.5 0.1 -11.5 5.3 -11.5 9.05 -8.05" fill="url(#gradient0)" fill-rule="evenodd" stroke="none"/>
      <path d="M7.95 -8.75 L4.75 1.1 Q5.85 1.1 7.85 0.25 8.7 0.25 8.55 1.35 1.65 16.0 1.35 16.0 0.05 16.0 0.3 14.9 0.3 13.35 3.25 8.15 L6.55 2.45 6.55 2.25 4.1 2.7 3.35 2.65 3.3 1.6 4.75 -3.0 Q3.5 -3.05 3.15 -3.4 3.6 -5.2 4.6 -5.2 L5.4 -5.0 Q6.9 -9.35 7.25 -9.35 7.95 -9.35 7.95 -8.75 M0.65 -0.6 L-2.45 0.25 Q-4.15 0.25 -3.65 -0.75 -2.85 -9.3 -1.5 -11.5 L-0.95 -10.7 Q-0.95 -9.2 -2.15 -1.4 L1.2 -2.3 Q2.55 -2.3 2.25 -0.65 L1.8 2.75 1.8 3.2 1.55 4.5 Q0.0 14.65 -0.45 14.65 -1.5 14.65 -1.25 12.7 L-0.45 6.6 -0.2 4.85 Q-0.9 4.5 -0.75 3.6 -0.75 2.55 0.2 2.3 L0.7 -0.45 0.65 -0.6 M11.75 -4.0 Q12.55 -4.0 12.55 -3.2 12.55 -2.5 11.5 -2.5 L10.75 -2.6 Q10.65 -3.0 10.9 -3.4 11.15 -4.0 11.75 -4.0 M-12.2 -9.05 Q-11.25 -7.55 -10.7 -4.85 L-9.75 -0.65 Q-6.75 -3.7 -6.0 -3.7 -5.55 -3.75 -3.8 5.0 L-2.15 13.85 Q-2.15 14.95 -2.95 14.95 -3.75 14.9 -4.9 8.6 L-6.6 -1.55 -8.05 -0.15 Q-9.4 1.05 -9.9 1.05 -11.05 1.05 -12.6 -8.35 -12.6 -8.8 -12.2 -9.05 M-5.2 -7.65 L-4.25 -6.4 Q-4.25 -5.65 -4.95 -5.65 -6.55 -5.65 -6.55 -6.6 L-5.95 -7.3 -5.2 -7.65 M-6.2 6.45 L-5.45 7.6 Q-5.45 8.5 -6.4 8.5 -6.95 8.35 -6.95 7.6 -6.95 6.45 -6.2 6.45 M10.7 0.2 Q10.65 -0.5 11.35 -0.5 12.05 -0.55 12.1 0.15 L11.6 1.05 Q10.65 0.9 10.7 0.2 M8.55 7.45 Q8.5 6.5 9.5 6.6 L10.2 7.2 9.3 8.05 8.55 7.45" fill="url(#gradient1)" fill-rule="evenodd" stroke="none"/>
    </g>
    <radialGradient cx="0" cy="0" gradientTransform="matrix(0.0155, 0.0, 0.0, 0.0163, 0.05, 0.3)" gradientUnits="userSpaceOnUse" id="gradient0" r="819.2" spreadMethod="pad">
      <stop offset="0.0" stop-color="#ffffff"/>
      <stop offset="0.2823529411764706" stop-color="#c8a30d"/>
      <stop offset="0.5215686274509804" stop-color="#871212"/>
      <stop offset="0.7529411764705882" stop-color="#000000"/>
      <stop offset="1.0" stop-color="#320550"/>
    </radialGradient>
    <linearGradient gradientTransform="matrix(9.0E-4, -0.0166, 0.0155, 9.0E-4, -0.55, 2.25)" gradientUnits="userSpaceOnUse" id="gradient1" spreadMethod="pad" x1="-819.2" x2="819.2">
      <stop offset="0.0" stop-color="#f9d342"/>
      <stop offset="1.0" stop-color="#ffffff"/>
    </linearGradient>
    <g id="shape3" transform="matrix(1.0, 0.0, 0.0, 1.0, 11.65, 11.75)">
      <path d="M0.25 -11.75 Q5.15 -11.8 8.65 -8.3 12.1 -4.8 12.1 0.15 L12.0 2.15 12.0 2.2 11.9 2.65 11.9 2.75 Q11.55 4.35 10.75 5.8 9.9 7.25 8.65 8.5 L6.85 10.05 Q3.95 12.0 0.25 12.0 -3.5 12.0 -6.35 10.05 L-8.15 8.5 Q-9.55 7.1 -10.35 5.5 -11.2 3.85 -11.45 2.05 L-11.65 0.15 Q-11.65 -4.8 -8.15 -8.3 -4.7 -11.8 0.25 -11.75" fill="url(#gradient2)" fill-rule="evenodd" stroke="none"/>
    </g>
    <radialGradient cx="0" cy="0" gradientTransform="matrix(0.0154, 0.0, 0.0, 0.0154, 0.5, 0.35)" gradientUnits="userSpaceOnUse" id="gradient2" r="819.2" spreadMethod="pad">
      <stop offset="0.4117647058823529" stop-color="#000000" stop-opacity="0.0"/>
      <stop offset="0.7450980392156863" stop-color="#000000" stop-opacity="0.2"/>
      <stop offset="1.0" stop-color="#000000" stop-opacity="0.7529412"/>
    </radialGradient>
    <g id="shape4" transform="matrix(1.0, 0.0, 0.0, 1.0, 9.05, 8.85)">
      <path d="M6.8 -6.25 Q9.55 -3.6 9.55 0.1 9.55 3.8 6.8 6.45 4.1 9.1 0.25 9.1 -3.65 9.1 -6.4 6.45 -9.1 3.8 -9.05 0.1 -9.1 -3.6 -6.4 -6.25 -3.65 -8.9 0.25 -8.85 4.1 -8.9 6.8 -6.25" fill="url(#gradient3)" fill-rule="evenodd" stroke="none"/>
    </g>
    <radialGradient cx="0" cy="0" gradientTransform="matrix(0.0, 0.0085, -0.0193, 0.0, 0.65, -6.6)" gradientUnits="userSpaceOnUse" id="gradient3" r="819.2" spreadMethod="pad">
      <stop offset="0.0" stop-color="#ffffff" stop-opacity="0.9137255"/>
      <stop offset="0.5098039215686274" stop-color="#ffffff" stop-opacity="0.2901961"/>
      <stop offset="1.0" stop-color="#ffffff" stop-opacity="0.0"/>
    </radialGradient>
    <g id="sprite1" transform="matrix(1.0, 0.0, 0.0, 1.0, 11.5, 11.5)">
      <use ffdec:characterId="2240" height="23.0" transform="matrix(1.0, 0.0, 0.0, 1.0, -11.5, -11.5)" width="23.0" xlink:href="#shape5"/>
    </g>
    <g id="shape5" transform="matrix(1.0, 0.0, 0.0, 1.0, 11.5, 11.5)">
      <path d="M11.5 0.0 Q11.5 4.75 8.15 8.15 4.8 11.5 0.0 11.5 -4.8 11.5 -8.15 8.15 -11.5 4.75 -11.5 0.0 L-11.4 -1.3 -11.35 -1.85 Q-10.8 -5.45 -8.15 -8.15 -4.8 -11.5 0.0 -11.5 L2.95 -11.15 Q5.85 -10.45 8.15 -8.15 10.4 -5.85 11.2 -2.9 L11.3 -2.45 11.5 0.0" fill="#000000" fill-rule="evenodd" stroke="none"/>
    </g>
  </defs>
</svg>
