<?xml version="1.0" encoding="UTF-8" standalone="no"?>
<svg xmlns:ffdec="https://www.free-decompiler.com/flash" xmlns:xlink="http://www.w3.org/1999/xlink" ffdec:objectType="frame" height="97.4px" width="115.7px" xmlns="http://www.w3.org/2000/svg">
  <g transform="matrix(2.0, 0.0, 0.0, 2.0, 40.5, 45.2)">
    <use ffdec:characterId="2244" height="23.0" id="moveColor" transform="matrix(1.0, 0.0, 0.0, 1.0, -11.5, -11.5)" width="23.0" xlink:href="#sprite0"/>
    <clipPath id="clipPath0" transform="matrix(1.0, 0.0, 0.0, 1.0, 0.0, 0.0)">
      <path d="M11.5 0.0 Q11.5 4.75 8.15 8.15 4.8 11.5 0.0 11.5 -4.8 11.5 -8.15 8.15 -11.5 4.75 -11.5 0.0 L-11.4 -1.3 -11.35 -1.85 Q-10.8 -5.45 -8.15 -8.15 -4.8 -11.5 0.0 -11.5 L2.95 -11.15 Q5.85 -10.45 8.15 -8.15 10.4 -5.85 11.2 -2.9 L11.3 -2.45 11.5 0.0" fill="#ffcc00" fill-rule="evenodd" stroke="none"/>
    </clipPath>
    <g clip-path="url(#clipPath0)">
      <use ffdec:characterId="2292" height="25.0" transform="matrix(1.0, 0.0, 0.0, 1.0, -12.85, -12.2)" width="25.0" xlink:href="#shape2"/>
      <filter id="filter0">
        <feFlood flood-color="#99ffff" flood-opacity="1.0" result="filterResult0"/>
        <feComposite in="filterResult0" in2="SourceGraphic" operator="out" result="filterResult1"/>
        <feConvolveMatrix divisor="9.0" in="filterResult1" kernelMatrix="1 1 1 1 1 1 1 1 1" order="3 3" result="filterResult2"/>
        <feComposite in="filterResult2" in2="SourceGraphic" operator="in" result="filterResult3"/>
        <feComposite in="filterResult3" in2="SourceGraphic" operator="over" result="filterResult4"/>
        <feColorMatrix in="filterResult4" result="filterResult5" type="matrix" values="0 0 0 0 0.6,0 0 0 0 1.0,0 0 0 0 1.0,0 0 0 1 0"/>
        <feConvolveMatrix divisor="25.0" in="filterResult5" kernelMatrix="1 1 1 1 1 1 1 1 1 1 1 1 1 1 1 1 1 1 1 1 1 1 1 1 1" order="5 5" result="filterResult6"/>
        <feComposite in="filterResult4" in2="filterResult6" operator="over" result="filterResult7"/>
      </filter>
      <use ffdec:characterId="2417" filter="url(#filter0)" height="28.2" transform="matrix(1.0, 0.0, 0.0, 1.0, -13.25, -14.2)" width="25.95" xlink:href="#sprite1"/>
    </g>
    <use ffdec:characterId="2247" height="23.75" transform="matrix(1.0, 0.0, 0.0, 1.0, -11.65, -11.75)" width="23.75" xlink:href="#shape4"/>
    <use ffdec:characterId="2246" height="17.95" transform="matrix(1.0, 0.0, 0.0, 1.0, -9.05, -8.85)" width="18.6" xlink:href="#shape5"/>
    <use ffdec:characterId="2241" height="23.0" id="bfilter" transform="matrix(1.0, 0.0, 0.0, 1.0, -11.5, -11.5)" width="23.0" xlink:href="#sprite2"/>
    <use ffdec:characterId="2245" height="19.05" transform="matrix(1.0, 0.0, 0.0, 1.0, -17.2, -8.65)" width="34.35" xlink:href="#text0"/>
  </g>
  <defs>
    <g id="sprite0" transform="matrix(1.0, 0.0, 0.0, 1.0, 11.5, 11.5)">
      <use ffdec:characterId="2243" height="23.0" transform="matrix(1.0, 0.0, 0.0, 1.0, -11.5, -11.5)" width="23.0" xlink:href="#shape0"/>
    </g>
    <g id="shape0" transform="matrix(1.0, 0.0, 0.0, 1.0, 11.5, 11.5)">
      <path d="M11.5 0.0 Q11.5 4.75 8.15 8.15 4.8 11.5 0.0 11.5 -4.8 11.5 -8.15 8.15 -11.5 4.75 -11.5 0.0 L-11.4 -1.3 -11.35 -1.85 Q-10.8 -5.45 -8.15 -8.15 -4.8 -11.5 0.0 -11.5 L2.95 -11.15 Q5.85 -10.45 8.15 -8.15 10.4 -5.85 11.2 -2.9 L11.3 -2.45 11.5 0.0" fill="#262626" fill-rule="evenodd" stroke="none"/>
    </g>
    <g id="shape2" transform="matrix(1.0, 0.0, 0.0, 1.0, 11.9, 13.0)">
      <path d="M13.1 -0.5 Q13.1 4.7 9.45 8.35 5.8 12.0 0.6 12.0 -4.6 12.0 -8.25 8.35 -11.9 4.7 -11.9 -0.5 -11.9 -5.7 -8.25 -9.35 -4.6 -13.0 0.6 -13.0 5.8 -13.0 9.45 -9.35 13.1 -5.7 13.1 -0.5" fill="url(#gradient0)" fill-rule="evenodd" stroke="none"/>
    </g>
    <radialGradient cx="0" cy="0" gradientTransform="matrix(0.0252, 0.0, 0.0, 0.0252, 4.65, 6.3)" gradientUnits="userSpaceOnUse" id="gradient0" r="819.2" spreadMethod="pad">
      <stop offset="0.0" stop-color="#418a9c"/>
      <stop offset="0.41568627450980394" stop-color="#1a2233"/>
      <stop offset="0.8196078431372549" stop-color="#000000"/>
    </radialGradient>
    <g id="sprite1" transform="matrix(1.0, 0.0, 0.0, 1.0, 0.0, 0.0)">
      <use ffdec:characterId="2416" height="28.2" transform="matrix(1.0, 0.0, 0.0, 1.0, 0.0, 0.0)" width="25.95" xlink:href="#shape3"/>
    </g>
    <g id="shape3" transform="matrix(1.0, 0.0, 0.0, 1.0, 0.0, 0.0)">
      <path d="M24.5 9.7 L24.6 9.7 17.2 13.6 Q16.0 13.0 16.0 12.4 L16.4 11.85 16.75 11.4 16.75 11.1 22.9 7.5 Q24.0 9.7 24.5 9.7 M21.65 5.0 L16.3 8.85 Q15.65 7.45 14.25 6.75 L13.65 6.45 18.65 1.75 Q20.3 2.85 21.5 4.65 L21.65 5.0 M25.95 18.15 L21.25 18.95 18.5 17.05 19.65 16.45 19.75 16.25 25.75 14.5 25.95 18.15 M20.25 19.45 L19.85 19.2 19.75 19.1 Q19.75 18.6 20.25 18.45 L20.75 18.95 20.7 19.05 20.25 19.45 M21.5 21.2 L22.0 21.7 20.75 22.95 20.35 22.85 20.25 22.4 Q20.25 21.6 21.5 21.2 M16.95 0.8 L12.55 5.7 Q11.75 5.05 11.75 4.45 11.75 2.85 12.25 2.45 L12.3 2.5 12.4 2.45 12.25 1.85 Q12.25 -0.85 15.85 0.35 L16.95 0.8 M10.75 7.8 L10.25 8.45 10.15 8.35 Q9.65 7.8 9.5 7.05 L10.85 6.9 Q11.0 6.6 11.0 7.2 L10.9 7.55 10.75 7.8 M14.25 11.0 L14.5 10.95 15.25 12.2 14.75 12.7 14.5 12.45 Q14.0 11.85 14.0 11.45 14.0 11.1 14.25 11.0 M14.5 9.95 L14.0 9.7 Q14.0 9.25 14.5 8.95 L15.0 9.45 14.5 9.95 M8.65 6.05 L8.75 6.45 8.6 7.1 8.25 7.45 7.65 7.45 7.05 10.55 6.9 11.5 6.75 12.35 0.7 15.85 0.0 14.2 Q0.0 13.45 0.5 13.45 L0.5 13.5 0.55 13.5 Q1.2 12.2 3.1 9.9 5.95 6.45 7.25 6.45 L7.65 6.55 7.75 6.65 8.25 5.95 8.65 6.05 M6.75 17.0 Q7.1 17.85 8.0 18.1 L8.3 18.2 Q9.05 17.4 9.6 17.55 L9.7 17.6 11.3 18.3 5.85 24.9 3.5 22.05 3.25 21.7 2.85 21.1 2.05 19.75 1.75 19.25 1.25 18.3 1.2 18.1 0.7 17.1 6.75 13.6 6.5 15.65 6.5 15.85 6.75 17.0 M9.35 16.8 L8.75 16.95 8.25 16.85 8.0 16.6 8.0 16.05 8.45 16.0 9.5 16.2 9.5 16.6 9.35 16.8 M13.5 14.45 Q13.5 15.45 12.15 15.45 11.5 15.45 10.9 14.6 L10.75 14.4 10.25 13.45 10.3 13.1 Q10.45 12.55 11.2 12.5 L11.9 12.5 Q12.8 12.6 13.2 13.2 L13.5 14.45 M12.35 18.55 L12.5 18.7 12.65 18.75 12.7 18.8 13.25 19.1 13.25 19.45 Q13.4 19.7 12.75 19.7 L12.55 19.7 12.25 20.15 11.8 21.0 11.75 21.35 14.45 22.0 14.5 21.95 14.75 21.95 14.8 22.0 15.5 21.95 Q16.75 22.05 16.75 22.7 L16.5 23.45 17.9 23.3 18.0 24.6 17.95 24.8 17.5 24.95 16.9 24.4 16.5 23.45 16.25 23.75 16.0 26.85 16.0 26.95 15.4 27.6 Q14.55 28.2 13.0 28.2 9.85 28.2 6.85 25.15 L11.2 19.9 12.3 18.55 12.35 18.55 M13.25 17.75 Q13.25 16.95 13.75 16.95 L14.35 17.8 14.4 17.95 14.75 17.7 15.25 18.2 14.75 18.7 14.45 18.55 14.4 18.7 Q14.6 18.95 14.0 18.95 13.15 18.95 13.2 18.15 L13.25 17.75 M11.2 19.9 L11.35 20.0 11.35 19.95 11.2 19.9" fill="#ffffff" fill-rule="evenodd" stroke="none"/>
    </g>
    <g id="shape4" transform="matrix(1.0, 0.0, 0.0, 1.0, 11.65, 11.75)">
      <path d="M0.25 -11.75 Q5.15 -11.8 8.65 -8.3 12.1 -4.8 12.1 0.15 L12.0 2.15 12.0 2.2 11.9 2.65 11.9 2.75 Q11.55 4.35 10.75 5.8 9.9 7.25 8.65 8.5 L6.85 10.05 Q3.95 12.0 0.25 12.0 -3.5 12.0 -6.35 10.05 L-8.15 8.5 Q-9.55 7.1 -10.35 5.5 -11.2 3.85 -11.45 2.05 L-11.65 0.15 Q-11.65 -4.8 -8.15 -8.3 -4.7 -11.8 0.25 -11.75" fill="url(#gradient1)" fill-rule="evenodd" stroke="none"/>
    </g>
    <radialGradient cx="0" cy="0" gradientTransform="matrix(0.0154, 0.0, 0.0, 0.0154, 0.5, 0.35)" gradientUnits="userSpaceOnUse" id="gradient1" r="819.2" spreadMethod="pad">
      <stop offset="0.4117647058823529" stop-color="#000000" stop-opacity="0.0"/>
      <stop offset="0.7450980392156863" stop-color="#000000" stop-opacity="0.2"/>
      <stop offset="1.0" stop-color="#000000" stop-opacity="0.7529412"/>
    </radialGradient>
    <g id="shape5" transform="matrix(1.0, 0.0, 0.0, 1.0, 9.05, 8.85)">
      <path d="M6.8 -6.25 Q9.55 -3.6 9.55 0.1 9.55 3.8 6.8 6.45 4.1 9.1 0.25 9.1 -3.65 9.1 -6.4 6.45 -9.1 3.8 -9.05 0.1 -9.1 -3.6 -6.4 -6.25 -3.65 -8.9 0.25 -8.85 4.1 -8.9 6.8 -6.25" fill="url(#gradient2)" fill-rule="evenodd" stroke="none"/>
    </g>
    <radialGradient cx="0" cy="0" gradientTransform="matrix(0.0, 0.0085, -0.0193, 0.0, 0.65, -6.6)" gradientUnits="userSpaceOnUse" id="gradient2" r="819.2" spreadMethod="pad">
      <stop offset="0.0" stop-color="#ffffff" stop-opacity="0.9137255"/>
      <stop offset="0.5098039215686274" stop-color="#ffffff" stop-opacity="0.2901961"/>
      <stop offset="1.0" stop-color="#ffffff" stop-opacity="0.0"/>
    </radialGradient>
    <g id="sprite2" transform="matrix(1.0, 0.0, 0.0, 1.0, 11.5, 11.5)">
      <use ffdec:characterId="2240" height="23.0" transform="matrix(1.0, 0.0, 0.0, 1.0, -11.5, -11.5)" width="23.0" xlink:href="#shape6"/>
    </g>
    <g id="shape6" transform="matrix(1.0, 0.0, 0.0, 1.0, 11.5, 11.5)">
      <path d="M11.5 0.0 Q11.5 4.75 8.15 8.15 4.8 11.5 0.0 11.5 -4.8 11.5 -8.15 8.15 -11.5 4.75 -11.5 0.0 L-11.4 -1.3 -11.35 -1.85 Q-10.8 -5.45 -8.15 -8.15 -4.8 -11.5 0.0 -11.5 L2.95 -11.15 Q5.85 -10.45 8.15 -8.15 10.4 -5.85 11.2 -2.9 L11.3 -2.45 11.5 0.0" fill="#000000" fill-rule="evenodd" stroke="none"/>
    </g>
  </defs>
</svg>
