<?xml version="1.0" encoding="UTF-8" standalone="no"?>
<svg xmlns:ffdec="https://www.free-decompiler.com/flash" xmlns:xlink="http://www.w3.org/1999/xlink" ffdec:objectType="frame" height="97.4px" width="115.7px" xmlns="http://www.w3.org/2000/svg">
  <g transform="matrix(2.0, 0.0, 0.0, 2.0, 40.5, 45.2)">
    <use ffdec:characterId="2244" height="23.0" id="moveColor" transform="matrix(1.0, 0.0, 0.0, 1.0, -11.5, -11.5)" width="23.0" xlink:href="#sprite0"/>
    <clipPath id="clipPath0" transform="matrix(1.0, 0.0, 0.0, 1.0, 0.0, 0.0)">
      <path d="M11.5 0.0 Q11.5 4.75 8.15 8.15 4.8 11.5 0.0 11.5 -4.8 11.5 -8.15 8.15 -11.5 4.75 -11.5 0.0 L-11.4 -1.3 -11.35 -1.85 Q-10.8 -5.45 -8.15 -8.15 -4.8 -11.5 0.0 -11.5 L2.95 -11.15 Q5.85 -10.45 8.15 -8.15 10.4 -5.85 11.2 -2.9 L11.3 -2.45 11.5 0.0" fill="#ffcc00" fill-rule="evenodd" stroke="none"/>
    </clipPath>
    <g clip-path="url(#clipPath0)">
      <use ffdec:characterId="2422" height="25.0" transform="matrix(1.0, 0.0, 0.0, 1.0, -12.55, -12.5)" width="25.0" xlink:href="#shape2"/>
      <filter id="filter0">
        <feColorMatrix in="SourceGraphic" result="filterResult0" type="matrix" values="0 0 0 0 1.0,0 0 0 0 0.0,0 0 0 0 0.2,0 0 0 1 0"/>
        <feConvolveMatrix divisor="49.0" in="filterResult0" kernelMatrix="1 1 1 1 1 1 1 1 1 1 1 1 1 1 1 1 1 1 1 1 1 1 1 1 1 1 1 1 1 1 1 1 1 1 1 1 1 1 1 1 1 1 1 1 1 1 1 1 1" order="7 7" result="filterResult1"/>
        <feComposite in="SourceGraphic" in2="filterResult1" operator="over" result="filterResult2"/>
      </filter>
      <use ffdec:characterId="2421" filter="url(#filter0)" height="27.15" transform="matrix(-0.4892, -0.8706, 0.8706, -0.4892, -6.2457, 18.4838)" width="23.1" xlink:href="#sprite1"/>
    </g>
    <use ffdec:characterId="2247" height="23.75" transform="matrix(1.0, 0.0, 0.0, 1.0, -11.65, -11.75)" width="23.75" xlink:href="#shape4"/>
    <use ffdec:characterId="2246" height="17.95" transform="matrix(1.0, 0.0, 0.0, 1.0, -9.05, -8.85)" width="18.6" xlink:href="#shape5"/>
    <use ffdec:characterId="2241" height="23.0" id="bfilter" transform="matrix(1.0, 0.0, 0.0, 1.0, -11.5, -11.5)" width="23.0" xlink:href="#sprite2"/>
    <use ffdec:characterId="2245" height="19.05" transform="matrix(1.0, 0.0, 0.0, 1.0, -17.2, -8.65)" width="34.35" xlink:href="#text0"/>
  </g>
  <defs>
    <g id="sprite0" transform="matrix(1.0, 0.0, 0.0, 1.0, 11.5, 11.5)">
      <use ffdec:characterId="2243" height="23.0" transform="matrix(1.0, 0.0, 0.0, 1.0, -11.5, -11.5)" width="23.0" xlink:href="#shape0"/>
    </g>
    <g id="shape0" transform="matrix(1.0, 0.0, 0.0, 1.0, 11.5, 11.5)">
      <path d="M11.5 0.0 Q11.5 4.75 8.15 8.15 4.8 11.5 0.0 11.5 -4.8 11.5 -8.15 8.15 -11.5 4.75 -11.5 0.0 L-11.4 -1.3 -11.35 -1.85 Q-10.8 -5.45 -8.15 -8.15 -4.8 -11.5 0.0 -11.5 L2.95 -11.15 Q5.85 -10.45 8.15 -8.15 10.4 -5.85 11.2 -2.9 L11.3 -2.45 11.5 0.0" fill="#262626" fill-rule="evenodd" stroke="none"/>
    </g>
    <g id="shape2" transform="matrix(1.0, 0.0, 0.0, 1.0, 12.55, 12.5)">
      <path d="M-0.05 -12.5 Q5.15 -12.5 8.8 -8.85 12.45 -5.2 12.45 0.0 12.45 5.2 8.8 8.85 5.15 12.5 -0.05 12.5 -5.25 12.5 -8.9 8.85 -12.55 5.2 -12.55 0.0 -12.55 -5.2 -8.9 -8.85 -5.25 -12.5 -0.05 -12.5" fill="url(#gradient0)" fill-rule="evenodd" stroke="none"/>
    </g>
    <radialGradient cx="0" cy="0" gradientTransform="matrix(0.0252, 0.0, 0.0, 0.0252, 4.0, 6.8)" gradientUnits="userSpaceOnUse" id="gradient0" r="819.2" spreadMethod="pad">
      <stop offset="0.0" stop-color="#a43939"/>
      <stop offset="0.41568627450980394" stop-color="#3e0f0f"/>
      <stop offset="0.8196078431372549" stop-color="#000000"/>
    </radialGradient>
    <g id="sprite1" transform="matrix(1.0, 0.0, 0.0, 1.0, 11.55, 13.55)">
      <use ffdec:characterId="2420" height="27.15" transform="matrix(1.0, 0.0, 0.0, 1.0, -11.55, -13.55)" width="23.1" xlink:href="#shape3"/>
    </g>
    <g id="shape3" transform="matrix(1.0, 0.0, 0.0, 1.0, 11.55, 13.55)">
      <path d="M1.15 -13.2 Q0.75 -12.3 0.9 -11.85 1.15 -11.1 3.7 -11.1 5.2 -11.1 6.8 -13.55 L7.05 -12.75 6.75 -11.55 7.8 -11.45 7.95 -10.8 Q7.95 -10.15 6.45 -9.8 6.35 -10.1 6.35 -9.45 6.35 -8.85 7.65 -8.25 9.35 -7.5 9.85 -7.05 L9.85 -7.0 10.55 -6.5 Q11.55 -5.65 11.55 -4.95 11.55 -4.1 10.95 -3.05 L10.7 -2.65 Q10.6 -2.0 9.4 -1.15 L9.35 -1.1 9.85 -0.55 5.45 0.15 Q2.35 0.85 1.8 2.2 L2.35 4.1 Q3.8 7.05 4.85 7.05 L6.45 6.35 Q8.15 6.35 8.2 8.2 8.15 9.95 6.45 9.95 4.65 9.95 2.5 6.7 1.3 13.6 -2.05 13.6 -3.75 13.6 -4.5 12.6 -5.0 11.45 -5.45 11.05 -1.95 10.55 -1.1 9.1 -0.3 7.75 -0.3 5.85 -1.45 -3.8 -8.7 -3.8 -10.2 -3.8 -10.2 -1.8 L-10.3 -1.55 Q-11.55 -1.65 -11.55 -2.9 -11.55 -3.8 -10.8 -4.9 -9.9 -6.2 -8.55 -6.2 -2.35 -6.2 0.75 -0.3 L1.2 0.6 1.55 0.2 Q2.7 -0.95 4.4 -1.45 3.35 -2.4 2.85 -4.15 L3.05 -4.65 3.2 -4.65 Q3.3 -4.45 3.0 -4.35 L3.7 -4.4 Q4.2 -3.8 5.7 -3.15 L7.3 -2.55 9.05 -2.85 9.9 -3.55 10.2 -4.85 Q10.2 -5.85 9.0 -6.15 L8.7 -6.05 7.25 -6.3 Q5.7 -6.2 5.2 -5.45 4.8 -5.15 4.8 -5.8 4.8 -6.8 5.65 -7.25 L5.55 -7.35 Q4.45 -8.45 4.45 -9.45 L4.6 -9.95 3.7 -9.85 Q0.2 -9.85 0.3 -11.8 0.3 -12.65 0.8 -13.2 L1.15 -13.2" fill="url(#gradient1)" fill-rule="evenodd" stroke="none"/>
    </g>
    <radialGradient cx="0" cy="0" gradientTransform="matrix(0.0192, 0.0, 0.0, 0.0192, 0.0, 0.05)" gradientUnits="userSpaceOnUse" id="gradient1" r="819.2" spreadMethod="pad">
      <stop offset="0.0" stop-color="#ffffff"/>
      <stop offset="0.9137254901960784" stop-color="#cc66cc"/>
    </radialGradient>
    <g id="shape4" transform="matrix(1.0, 0.0, 0.0, 1.0, 11.65, 11.75)">
      <path d="M0.25 -11.75 Q5.15 -11.8 8.65 -8.3 12.1 -4.8 12.1 0.15 L12.0 2.15 12.0 2.2 11.9 2.65 11.9 2.75 Q11.55 4.35 10.75 5.8 9.9 7.25 8.65 8.5 L6.85 10.05 Q3.95 12.0 0.25 12.0 -3.5 12.0 -6.35 10.05 L-8.15 8.5 Q-9.55 7.1 -10.35 5.5 -11.2 3.85 -11.45 2.05 L-11.65 0.15 Q-11.65 -4.8 -8.15 -8.3 -4.7 -11.8 0.25 -11.75" fill="url(#gradient2)" fill-rule="evenodd" stroke="none"/>
    </g>
    <radialGradient cx="0" cy="0" gradientTransform="matrix(0.0154, 0.0, 0.0, 0.0154, 0.5, 0.35)" gradientUnits="userSpaceOnUse" id="gradient2" r="819.2" spreadMethod="pad">
      <stop offset="0.4117647058823529" stop-color="#000000" stop-opacity="0.0"/>
      <stop offset="0.7450980392156863" stop-color="#000000" stop-opacity="0.2"/>
      <stop offset="1.0" stop-color="#000000" stop-opacity="0.7529412"/>
    </radialGradient>
    <g id="shape5" transform="matrix(1.0, 0.0, 0.0, 1.0, 9.05, 8.85)">
      <path d="M6.8 -6.25 Q9.55 -3.6 9.55 0.1 9.55 3.8 6.8 6.45 4.1 9.1 0.25 9.1 -3.65 9.1 -6.4 6.45 -9.1 3.8 -9.05 0.1 -9.1 -3.6 -6.4 -6.25 -3.65 -8.9 0.25 -8.85 4.1 -8.9 6.8 -6.25" fill="url(#gradient3)" fill-rule="evenodd" stroke="none"/>
    </g>
    <radialGradient cx="0" cy="0" gradientTransform="matrix(0.0, 0.0085, -0.0193, 0.0, 0.65, -6.6)" gradientUnits="userSpaceOnUse" id="gradient3" r="819.2" spreadMethod="pad">
      <stop offset="0.0" stop-color="#ffffff" stop-opacity="0.9137255"/>
      <stop offset="0.5098039215686274" stop-color="#ffffff" stop-opacity="0.2901961"/>
      <stop offset="1.0" stop-color="#ffffff" stop-opacity="0.0"/>
    </radialGradient>
    <g id="sprite2" transform="matrix(1.0, 0.0, 0.0, 1.0, 11.5, 11.5)">
      <use ffdec:characterId="2240" height="23.0" transform="matrix(1.0, 0.0, 0.0, 1.0, -11.5, -11.5)" width="23.0" xlink:href="#shape6"/>
    </g>
    <g id="shape6" transform="matrix(1.0, 0.0, 0.0, 1.0, 11.5, 11.5)">
      <path d="M11.5 0.0 Q11.5 4.75 8.15 8.15 4.8 11.5 0.0 11.5 -4.8 11.5 -8.15 8.15 -11.5 4.75 -11.5 0.0 L-11.4 -1.3 -11.35 -1.85 Q-10.8 -5.45 -8.15 -8.15 -4.8 -11.5 0.0 -11.5 L2.95 -11.15 Q5.85 -10.45 8.15 -8.15 10.4 -5.85 11.2 -2.9 L11.3 -2.45 11.5 0.0" fill="#000000" fill-rule="evenodd" stroke="none"/>
    </g>
  </defs>
</svg>
