<?xml version="1.0" encoding="UTF-8" standalone="no"?>
<svg xmlns:ffdec="https://www.free-decompiler.com/flash" xmlns:xlink="http://www.w3.org/1999/xlink" ffdec:objectType="frame" height="46.0px" width="25.8px" xmlns="http://www.w3.org/2000/svg">
  <g transform="matrix(2.0, 0.0, 0.0, 2.0, 14.9, 39.8)">
    <use ffdec:characterId="2613" height="23.0" transform="matrix(1.0, 0.0, 0.0, 1.0, -7.45, -19.9)" width="12.9" xlink:href="#sprite0"/>
  </g>
  <defs>
    <g id="sprite0" transform="matrix(1.0, 0.0, 0.0, 1.0, 7.8, 20.0)">
      <use ffdec:characterId="2612" height="23.0" transform="matrix(1.0, 0.0, 0.0, 1.0, -7.8, -20.0)" width="12.9" xlink:href="#shape0"/>
    </g>
    <g id="shape0" transform="matrix(1.0, 0.0, 0.0, 1.0, 7.8, 20.0)">
      <path d="M-2.15 3.0 L-2.2 3.0 -2.2 2.95 -2.15 3.0" fill="#999999" fill-rule="evenodd" stroke="none"/>
      <path d="M-2.2 2.95 Q-8.85 -6.6 -7.6 -19.25 -6.35 -8.1 0.35 1.9 L-0.05 2.15 -2.15 3.0 -2.2 2.95" fill="url(#gradient0)" fill-rule="evenodd" stroke="none"/>
      <path d="M5.1 1.3 L1.9 1.0 Q-2.55 -8.55 -1.25 -20.0 -1.15 -8.85 5.1 1.3" fill="url(#gradient1)" fill-rule="evenodd" stroke="none"/>
      <path d="M-2.15 3.0 L-2.2 3.0 -2.2 2.95 Q-8.85 -6.6 -7.6 -19.25 -6.35 -8.1 0.35 1.9 M-0.05 2.15 L-2.15 3.0 M5.1 1.3 Q-1.15 -8.85 -1.25 -20.0 -2.55 -8.55 1.9 1.0 L5.1 1.3 Z" fill="none" stroke="#000000" stroke-linecap="round" stroke-linejoin="round" stroke-width="0.05"/>
    </g>
    <radialGradient cx="0" cy="0" gradientTransform="matrix(0.0195, 0.0, 0.0, 0.0195, -7.55, -11.9)" gradientUnits="userSpaceOnUse" id="gradient0" r="819.2" spreadMethod="pad">
      <stop offset="0.0" stop-color="#5b4b35"/>
      <stop offset="1.0" stop-color="#343943"/>
    </radialGradient>
    <radialGradient cx="0" cy="0" gradientTransform="matrix(0.0188, 0.0, 0.0, 0.0188, -0.9, -12.9)" gradientUnits="userSpaceOnUse" id="gradient1" r="819.2" spreadMethod="pad">
      <stop offset="0.0" stop-color="#5b4b35"/>
      <stop offset="1.0" stop-color="#343943"/>
    </radialGradient>
  </defs>
</svg>
