<?xml version="1.0" encoding="UTF-8" standalone="no"?>
<svg xmlns:ffdec="https://www.free-decompiler.com/flash" xmlns:xlink="http://www.w3.org/1999/xlink" ffdec:objectType="frame" height="69.3px" width="69.7px" xmlns="http://www.w3.org/2000/svg">
  <g transform="matrix(2.0, 0.0, 0.0, 2.0, 34.8, 34.6)">
    <filter id="filter0">
      <feColorMatrix in="SourceGraphic" result="filterResult0" type="matrix" values="0 0 0 0 1.0,0 0 0 0 0.0,0 0 0 0 0.0,0 0 0 1 0"/>
      <feComposite in="SourceGraphic" in2="filterResult0" operator="over" result="filterResult1"/>
    </filter>
    <use ffdec:characterId="3170" filter="url(#filter0)" height="34.65" transform="matrix(1.0, 0.0, 0.0, 1.0, -17.4, -17.3)" width="34.85" xlink:href="#sprite0"/>
  </g>
  <defs>
    <g id="sprite0" transform="matrix(1.0, 0.0, 0.0, 1.0, 17.4, 17.3)">
      <use ffdec:characterId="3169" height="34.65" transform="matrix(1.0, 0.0, 0.0, 1.0, -17.4, -17.3)" width="34.85" xlink:href="#shape0"/>
    </g>
    <g id="shape0" transform="matrix(1.0, 0.0, 0.0, 1.0, 17.4, 17.3)">
      <path d="M7.85 -6.65 L7.6 -16.05 17.0 -16.4 17.25 -7.0 7.85 -6.65 M1.15 11.55 L-2.25 1.25 8.0 -2.15 11.4 8.15 1.15 11.55 M12.9 17.35 L9.75 12.8 14.35 9.65 17.45 14.25 12.9 17.35 M-9.2 -17.3 L2.1 -9.1 -6.1 2.2 -17.4 -6.0 -9.2 -17.3 M-13.95 8.0 L-6.8 9.15 -8.0 16.3 -15.15 15.15 -13.95 8.0" fill="#ffffff" fill-rule="evenodd" stroke="none"/>
    </g>
  </defs>
</svg>
