<?xml version="1.0" encoding="UTF-8" standalone="no"?>
<svg xmlns:ffdec="https://www.free-decompiler.com/flash" xmlns:xlink="http://www.w3.org/1999/xlink" ffdec:objectType="frame" height="54.0px" width="168.0px" xmlns="http://www.w3.org/2000/svg">
  <g transform="matrix(2.0, 0.0, 0.0, 2.0, 1.0, 27.0)">
    <use ffdec:characterId="289" height="27.0" transform="matrix(1.0, 0.0, 0.0, 1.0, -0.5, -13.5)" width="84.0" xlink:href="#shape0"/>
    <use ffdec:characterId="288" height="10.0" transform="matrix(1.0, 0.0, 0.0, 1.0, 11.0, -5.0)" width="67.0" xlink:href="#text0"/>
  </g>
  <defs>
    <g id="shape0" transform="matrix(1.0, 0.0, 0.0, 1.0, 0.5, 13.5)">
      <path d="M83.0 -13.0 L83.0 13.0 0.0 13.0 0.0 -13.0 83.0 -13.0" fill="#cc6699" fill-rule="evenodd" stroke="none"/>
      <path d="M83.0 -13.0 L83.0 13.0 0.0 13.0 0.0 -13.0 83.0 -13.0 Z" fill="none" stroke="#2f3238" stroke-linecap="round" stroke-linejoin="round" stroke-width="1.0"/>
    </g>
    <g id="text0" transform="matrix(1.0, 0.0, 0.0, 1.0, -38.0, 0.0)">
      <g transform="matrix(1.0, 0.0, 0.0, 1.0, 38.0, 0.0)">
        <use fill="#000000" height="10.0" transform="matrix(0.0117, 0.0, 0.0, 0.0117, 0.0, 9.0)" width="67.0" xlink:href="#font_Times_12pt_st_A0"/>
        <use fill="#000000" height="10.0" transform="matrix(0.0117, 0.0, 0.0, 0.0117, 9.0, 9.0)" width="67.0" xlink:href="#font_Times_12pt_st_r0"/>
        <use fill="#000000" height="10.0" transform="matrix(0.0117, 0.0, 0.0, 0.0117, 13.0, 9.0)" width="67.0" xlink:href="#font_Times_12pt_st_m0"/>
        <use fill="#000000" height="10.0" transform="matrix(0.0117, 0.0, 0.0, 0.0117, 22.0, 9.0)" width="67.0" xlink:href="#font_Times_12pt_st_o0"/>
        <use fill="#000000" height="10.0" transform="matrix(0.0117, 0.0, 0.0, 0.0117, 28.0, 9.0)" width="67.0" xlink:href="#font_Times_12pt_st_r0"/>
        <use fill="#000000" height="10.0" transform="matrix(0.0117, 0.0, 0.0, 0.0117, 35.0, 9.0)" width="67.0" xlink:href="#font_Times_12pt_st_G0"/>
        <use fill="#000000" height="10.0" transform="matrix(0.0117, 0.0, 0.0, 0.0117, 44.0, 9.0)" width="67.0" xlink:href="#font_Times_12pt_st_a0"/>
        <use fill="#000000" height="10.0" transform="matrix(0.0117, 0.0, 0.0, 0.0117, 49.0, 9.0)" width="67.0" xlink:href="#font_Times_12pt_st_m0"/>
        <use fill="#000000" height="10.0" transform="matrix(0.0117, 0.0, 0.0, 0.0117, 58.0, 9.0)" width="67.0" xlink:href="#font_Times_12pt_st_e0"/>
        <use fill="#000000" height="10.0" transform="matrix(0.0117, 0.0, 0.0, 0.0117, 63.0, 9.0)" width="67.0" xlink:href="#font_Times_12pt_st_s0"/>
      </g>
    </g>
    <g id="font_Times_12pt_st_A0">
      <path d="M512.0 -170.65 L597.35 -170.65 597.35 -85.35 682.65 -85.35 682.65 0.0 426.65 0.0 426.65 -85.35 512.0 -85.35 512.0 -170.65 426.65 -170.65 426.65 -256.0 170.65 -256.0 170.65 -85.35 256.0 -85.35 256.0 0.0 0.0 0.0 0.0 -85.35 85.35 -85.35 85.35 -341.35 170.65 -341.35 170.65 -597.35 256.0 -597.35 256.0 -341.35 341.35 -341.35 341.35 -597.35 426.65 -597.35 426.65 -341.35 512.0 -341.35 512.0 -170.65 M341.35 -682.65 L341.35 -597.35 256.0 -597.35 256.0 -682.65 341.35 -682.65" fill-rule="evenodd" stroke="none"/>
    </g>
    <g id="font_Times_12pt_st_r0">
      <path d="M341.35 -426.65 L170.65 -426.65 170.65 -85.35 256.0 -85.35 256.0 0.0 0.0 0.0 0.0 -85.35 85.35 -85.35 85.35 -426.65 0.0 -426.65 0.0 -512.0 341.35 -512.0 341.35 -426.65" fill-rule="evenodd" stroke="none"/>
    </g>
    <g id="font_Times_12pt_st_m0">
      <path d="M682.65 -426.65 L682.65 -85.35 768.0 -85.35 768.0 0.0 597.35 0.0 597.35 -426.65 682.65 -426.65 M0.0 -426.65 L0.0 -512.0 170.65 -512.0 170.65 -426.65 256.0 -426.65 256.0 -341.35 170.65 -341.35 170.65 -85.35 256.0 -85.35 256.0 0.0 0.0 0.0 0.0 -85.35 85.35 -85.35 85.35 -426.65 0.0 -426.65 M341.35 -426.65 L256.0 -426.65 256.0 -512.0 341.35 -512.0 341.35 -426.65 512.0 -426.65 512.0 -512.0 597.35 -512.0 597.35 -426.65 512.0 -426.65 512.0 -341.35 426.65 -341.35 426.65 -85.35 512.0 -85.35 512.0 0.0 341.35 0.0 341.35 -426.65" fill-rule="evenodd" stroke="none"/>
    </g>
    <g id="font_Times_12pt_st_o0">
      <path d="M341.35 -85.35 L341.35 0.0 85.35 0.0 85.35 -85.35 341.35 -85.35 341.35 -426.65 426.65 -426.65 426.65 -85.35 341.35 -85.35 M85.35 -426.65 L85.35 -85.35 0.0 -85.35 0.0 -426.65 85.35 -426.65 85.35 -512.0 341.35 -512.0 341.35 -426.65 85.35 -426.65" fill-rule="evenodd" stroke="none"/>
    </g>
    <g id="font_Times_12pt_st_G0">
      <path d="M512.0 -85.35 L512.0 0.0 170.65 0.0 170.65 -85.35 512.0 -85.35 512.0 -256.0 426.65 -256.0 426.65 -341.35 682.65 -341.35 682.65 -256.0 597.35 -256.0 597.35 -85.35 512.0 -85.35 M85.35 -170.65 L170.65 -170.65 170.65 -85.35 85.35 -85.35 85.35 -170.65 0.0 -170.65 0.0 -512.0 85.35 -512.0 85.35 -170.65 M170.65 -512.0 L85.35 -512.0 85.35 -597.35 170.65 -597.35 170.65 -512.0 M426.65 -597.35 L512.0 -597.35 512.0 -682.65 597.35 -682.65 597.35 -426.65 512.0 -426.65 512.0 -512.0 426.65 -512.0 426.65 -597.35 170.65 -597.35 170.65 -682.65 426.65 -682.65 426.65 -597.35" fill-rule="evenodd" stroke="none"/>
    </g>
    <g id="font_Times_12pt_st_a0">
      <path d="M85.35 -256.0 L85.35 -85.35 0.0 -85.35 0.0 -256.0 85.35 -256.0 85.35 -341.35 256.0 -341.35 256.0 -426.65 0.0 -426.65 0.0 -512.0 256.0 -512.0 256.0 -426.65 341.35 -426.65 341.35 -85.35 426.65 -85.35 426.65 0.0 85.35 0.0 85.35 -85.35 256.0 -85.35 256.0 -256.0 85.35 -256.0" fill-rule="evenodd" stroke="none"/>
    </g>
    <g id="font_Times_12pt_st_e0">
      <path d="M256.0 -85.35 L256.0 0.0 85.35 0.0 85.35 -85.35 256.0 -85.35 256.0 -170.65 341.35 -170.65 341.35 -85.35 256.0 -85.35 M85.35 -426.65 L85.35 -512.0 256.0 -512.0 256.0 -426.65 85.35 -426.65 85.35 -341.35 256.0 -341.35 256.0 -426.65 341.35 -426.65 341.35 -256.0 85.35 -256.0 85.35 -85.35 0.0 -85.35 0.0 -426.65 85.35 -426.65" fill-rule="evenodd" stroke="none"/>
    </g>
    <g id="font_Times_12pt_st_s0">
      <path d="M256.0 -170.65 L170.65 -170.65 170.65 -256.0 341.35 -256.0 341.35 -85.35 256.0 -85.35 256.0 -170.65 M85.35 -170.65 L85.35 -85.35 256.0 -85.35 256.0 0.0 0.0 0.0 0.0 -170.65 85.35 -170.65 M170.65 -341.35 L170.65 -256.0 85.35 -256.0 85.35 -341.35 170.65 -341.35 M0.0 -341.35 L0.0 -426.65 85.35 -426.65 85.35 -341.35 0.0 -341.35 M341.35 -341.35 L256.0 -341.35 256.0 -426.65 85.35 -426.65 85.35 -512.0 341.35 -512.0 341.35 -341.35" fill-rule="evenodd" stroke="none"/>
    </g>
  </defs>
</svg>
