<?xml version="1.0" encoding="UTF-8" standalone="no"?>
<svg xmlns:ffdec="https://www.free-decompiler.com/flash" xmlns:xlink="http://www.w3.org/1999/xlink" ffdec:objectType="frame" height="60.8px" width="18.5px" xmlns="http://www.w3.org/2000/svg">
  <g transform="matrix(2.0, 0.0, 0.0, 2.0, 9.2, 30.4)">
    <use ffdec:characterId="1022" height="30.4" transform="matrix(1.0, 0.0, 0.0, 1.0, -4.6, -15.2)" width="9.25" xlink:href="#shape0"/>
    <filter id="filter0">
      <feFlood flood-color="#99ffff" flood-opacity="1.0" result="filterResult0"/>
      <feComposite in="filterResult0" in2="SourceGraphic" operator="out" result="filterResult1"/>
      <feConvolveMatrix divisor="25.0" in="filterResult1" kernelMatrix="1 1 1 1 1 1 1 1 1 1 1 1 1 1 1 1 1 1 1 1 1 1 1 1 1" order="5 5" result="filterResult2"/>
      <feComposite in="filterResult2" in2="SourceGraphic" operator="in" result="filterResult3"/>
      <feComposite in="filterResult3" in2="SourceGraphic" operator="over" result="filterResult4"/>
      <feColorMatrix in="filterResult4" result="filterResult5" type="matrix" values="0 0 0 0 0.0,0 0 0 0 0.8,0 0 0 0 1.0,0 0 0 1 0"/>
      <feConvolveMatrix divisor="49.0" in="filterResult5" kernelMatrix="1 1 1 1 1 1 1 1 1 1 1 1 1 1 1 1 1 1 1 1 1 1 1 1 1 1 1 1 1 1 1 1 1 1 1 1 1 1 1 1 1 1 1 1 1 1 1 1 1" order="7 7" result="filterResult6"/>
      <feComposite in="filterResult4" in2="filterResult6" operator="over" result="filterResult7"/>
    </filter>
    <use ffdec:characterId="581" filter="url(#filter0)" height="10.15" transform="matrix(1.0, 0.0, 0.0, 1.0, -4.3, 3.9)" width="7.85" xlink:href="#sprite0"/>
  </g>
  <defs>
    <g id="shape0" transform="matrix(1.0, 0.0, 0.0, 1.0, 4.6, 15.2)">
      <path d="M2.3 -15.2 L3.85 -11.35 4.65 -5.5 4.05 -4.65 3.0 -0.15 2.85 4.95 1.6 13.4 0.15 14.95 Q-2.05 1.1 -2.0 -14.55 0.3 -13.95 2.3 -15.2" fill="url(#gradient0)" fill-rule="evenodd" stroke="none"/>
      <path d="M0.15 14.95 L-0.1 15.2 -3.55 13.15 -3.7 0.5 -4.6 -4.9 -3.1 -14.5 -3.1 -14.55 -2.75 -14.8 -2.0 -14.55 Q-2.05 1.1 0.15 14.95" fill="url(#gradient1)" fill-rule="evenodd" stroke="none"/>
      <path d="M2.3 -15.2 L3.85 -11.35 4.65 -5.5 4.05 -4.65 3.0 -0.15 2.85 4.95 1.6 13.4 M-3.55 13.15 L-3.7 0.5 -4.6 -4.9 -3.1 -14.5 -3.1 -14.55 -2.75 -14.8" fill="none" stroke="#000000" stroke-linecap="round" stroke-linejoin="round" stroke-width="0.05"/>
      <path d="M2.3 -15.2 L3.85 -11.35 4.65 -5.5 4.05 -4.65 3.0 -0.15 2.85 4.95 1.6 13.4 -0.1 15.2 -3.55 13.15 -3.7 0.5 -4.6 -4.9 -3.1 -14.5 -3.1 -14.55 -2.75 -14.8 -2.0 -14.55 Q0.3 -13.95 2.3 -15.2" fill="url(#gradient2)" fill-rule="evenodd" stroke="none"/>
      <path d="M2.3 -15.2 L3.85 -11.35 4.65 -5.5 4.05 -4.65 3.0 -0.15 2.85 4.95 1.6 13.4 M-3.55 13.15 L-3.7 0.5 -4.6 -4.9 -3.1 -14.5 -3.1 -14.55 -2.75 -14.8" fill="none" stroke="#000000" stroke-linecap="round" stroke-linejoin="round" stroke-width="0.05"/>
    </g>
    <radialGradient cx="0" cy="0" gradientTransform="matrix(0.006, 0.0, 0.0, 0.0248, 1.6, -8.65)" gradientUnits="userSpaceOnUse" id="gradient0" r="819.2" spreadMethod="pad">
      <stop offset="0.0" stop-color="#303950"/>
      <stop offset="0.4980392156862745" stop-color="#0f1424"/>
      <stop offset="1.0" stop-color="#2c3a5c"/>
    </radialGradient>
    <radialGradient cx="0" cy="0" gradientTransform="matrix(0.008, 0.0, 0.0, 0.0211, -5.75, -1.05)" gradientUnits="userSpaceOnUse" id="gradient1" r="819.2" spreadMethod="pad">
      <stop offset="0.0" stop-color="#303950"/>
      <stop offset="0.4980392156862745" stop-color="#0f1424"/>
      <stop offset="1.0" stop-color="#2c3a5c"/>
    </radialGradient>
    <linearGradient gradientTransform="matrix(7.0E-4, -0.0186, 0.0056, 2.0E-4, -0.15, -0.05)" gradientUnits="userSpaceOnUse" id="gradient2" spreadMethod="pad" x1="-819.2" x2="819.2">
      <stop offset="0.0" stop-color="#00ccff"/>
      <stop offset="0.16862745098039217" stop-color="#00c2ff" stop-opacity="0.33333334"/>
      <stop offset="1.0" stop-color="#00b3ff" stop-opacity="0.0"/>
    </linearGradient>
    <g id="sprite0" transform="matrix(1.0, 0.0, 0.0, 1.0, 1.45, 9.0)">
      <use ffdec:characterId="580" height="10.15" transform="matrix(1.0, 0.0, 0.0, 1.0, -1.45, -9.0)" width="7.85" xlink:href="#shape1"/>
    </g>
    <g id="shape1" transform="matrix(1.0, 0.0, 0.0, 1.0, 1.45, 9.0)">
      <path d="M5.9 -9.0 Q5.5 -8.55 4.55 -8.4 L4.1 -8.3 2.5 -8.25 Q1.9 -8.3 1.45 -8.65 L5.1 -8.85 5.6 -8.95 5.75 -9.0 5.9 -9.0 M5.65 -8.5 L5.8 -8.55 5.6 -8.35 5.45 -8.25 5.35 -8.15 5.2 -8.15 5.35 -8.3 5.5 -8.4 5.65 -8.5 M1.3 -6.7 L0.2 -6.95 Q-0.3 -7.1 -0.7 -7.4 L-0.8 -7.65 -0.75 -8.0 -0.55 -8.4 -0.45 -8.45 -0.45 -8.3 -0.5 -8.2 -0.6 -8.1 -0.7 -7.9 -0.7 -7.8 -0.7 -7.7 -0.65 -7.65 -0.65 -7.55 Q-0.2 -7.1 0.55 -7.0 L1.3 -6.7 M4.85 -5.65 L5.15 -5.3 5.0 -4.95 Q4.8 -4.8 4.55 -4.95 L4.5 -5.05 4.5 -5.2 4.55 -5.4 4.7 -5.6 4.85 -5.65 M2.95 -5.25 L2.0 -5.2 0.1 -5.45 -0.3 -5.4 0.25 -4.85 1.25 -4.2 2.8 -3.4 Q4.15 -2.85 5.55 -3.0 6.3 -3.1 6.4 -2.6 L6.2 -2.25 4.85 -1.85 1.75 -1.9 1.6 -1.9 2.1 -1.7 Q2.55 -1.45 3.1 -1.45 L4.75 -1.25 4.8 -1.2 4.65 -0.85 4.45 -0.7 3.7 -0.45 3.4 -0.35 Q3.2 -0.2 2.9 -0.15 L2.35 -0.1 Q1.3 -0.05 1.55 0.2 L1.9 0.4 3.9 0.35 4.35 0.2 4.75 0.35 4.8 0.45 4.35 0.9 Q2.9 1.4 1.45 0.9 L0.4 0.35 -0.5 -0.3 Q-1.15 -0.75 -1.0 -1.45 L-0.65 -1.55 -0.25 -1.2 0.25 -0.8 1.1 -0.65 3.0 -0.8 3.35 -0.9 2.55 -1.15 1.3 -1.55 0.35 -1.9 -0.5 -2.2 -1.3 -2.65 -1.45 -2.9 Q-1.35 -3.3 -0.9 -3.05 L0.1 -2.65 1.75 -2.3 5.8 -2.45 3.3 -2.95 1.4 -3.85 0.15 -4.65 -0.9 -5.5 Q-1.2 -5.75 -0.9 -5.9 L0.3 -5.7 2.0 -5.3 3.0 -5.25 2.95 -5.25 M3.5 -6.15 L3.6 -6.2 Q3.9 -6.3 3.9 -6.0 L3.6 -5.8 Q3.25 -5.9 3.5 -6.15" fill="#ffffff" fill-rule="evenodd" stroke="none"/>
    </g>
  </defs>
</svg>
