<?xml version="1.0" encoding="UTF-8" standalone="no"?>
<svg xmlns:ffdec="https://www.free-decompiler.com/flash" xmlns:xlink="http://www.w3.org/1999/xlink" ffdec:objectType="frame" height="182.2px" width="418.7px" xmlns="http://www.w3.org/2000/svg">
  <g transform="matrix(2.0, 0.0, 0.0, 2.0, 141.8, 83.6)">
    <use ffdec:characterId="144" height="19.95" id="shadower" transform="matrix(0.862, 0.1255, 0.0132, 0.7314, -27.2955, 21.6918)" width="65.05" xlink:href="#sprite0"/>
    <use ffdec:characterId="161" height="55.6" transform="matrix(0.9435, 0.0, 0.0, 0.9435, -25.6679, -15.5292)" width="56.0" xlink:href="#sprite1"/>
    <use ffdec:characterId="2626" height="39.55" transform="matrix(1.0, 0.0, 0.0, 1.0, -27.15, -8.95)" width="52.2" xlink:href="#shape2"/>
    <filter id="filter0"/>
    <use ffdec:characterId="2611" filter="url(#filter0)" height="15.7" id="hand2" transform="matrix(0.5067, 0.3333, -0.3333, 0.5067, 6.9095, 16.9532)" width="14.55" xlink:href="#sprite2"/>
    <filter id="filter1"/>
    <use ffdec:characterId="2617" filter="url(#filter1)" height="17.95" id="leg4" transform="matrix(0.6032, -0.077, 0.077, 0.6032, -11.7945, 20.6537)" width="13.3" xlink:href="#sprite4"/>
    <filter id="filter2"/>
    <use ffdec:characterId="2623" filter="url(#filter2)" height="21.15" id="chest" transform="matrix(0.593, -0.3061, 0.3061, 0.593, -33.2913, 9.9809)" width="42.4" xlink:href="#sprite6"/>
    <filter id="filter3"/>
    <use ffdec:characterId="2620" filter="url(#filter3)" height="14.4" id="foot1" transform="matrix(0.1652, 0.6475, -0.6475, 0.1652, 21.5571, 13.0081)" width="17.8" xlink:href="#sprite8"/>
    <filter id="filter4"/>
    <use ffdec:characterId="2617" filter="url(#filter4)" height="17.95" id="leg3" transform="matrix(0.5587, 0.3642, -0.3642, 0.5587, -15.2853, 12.6518)" width="13.3" xlink:href="#sprite4"/>
    <filter id="filter5"/>
    <use ffdec:characterId="2614" filter="url(#filter5)" height="23.0" id="head" transform="matrix(0.0351, 0.6673, -0.6673, 0.0351, 28.0183, 0.9307)" width="12.9" xlink:href="#sprite10"/>
    <filter id="filter6"/>
    <use ffdec:characterId="2611" filter="url(#filter6)" height="15.7" id="hand1" transform="matrix(0.6673, -0.0413, 0.0413, 0.6673, 0.1904, 17.0637)" width="14.55" xlink:href="#sprite2"/>
  </g>
  <defs>
    <g id="sprite0" transform="matrix(1.0, 0.0, 0.0, 1.0, 32.5, 9.95)">
      <use ffdec:characterId="143" height="19.95" transform="matrix(1.0, 0.0, 0.0, 1.0, -32.5, -9.95)" width="65.05" xlink:href="#shape0"/>
    </g>
    <g id="shape0" transform="matrix(1.0, 0.0, 0.0, 1.0, 32.5, 9.95)">
      <path d="M1.45 8.25 Q-12.05 10.55 -22.0 9.8 -31.85 9.0 -32.45 5.6 -33.05 2.2 -24.0 -1.85 -14.9 -5.9 -1.4 -8.2 12.1 -10.55 22.0 -9.75 31.95 -9.0 32.5 -5.6 33.1 -2.2 24.0 1.85 14.95 5.9 1.45 8.25" fill="url(#gradient0)" fill-rule="evenodd" stroke="none"/>
    </g>
    <radialGradient cx="0" cy="0" gradientTransform="matrix(0.0432, -0.0074, 0.0018, 0.0106, 0.05, 0.0)" gradientUnits="userSpaceOnUse" id="gradient0" r="819.2" spreadMethod="pad">
      <stop offset="0.3333333333333333" stop-color="#000000" stop-opacity="0.45490196"/>
      <stop offset="0.8627450980392157" stop-color="#000000" stop-opacity="0.0"/>
      <stop offset="1.0" stop-color="#000000" stop-opacity="0.0"/>
    </radialGradient>
    <g id="sprite1" transform="matrix(1.0, 0.0, 0.0, 1.0, 28.0, 27.8)">
      <use ffdec:characterId="160" height="55.6" transform="matrix(1.0, 0.0, 0.0, 1.0, -28.0, -27.8)" width="56.0" xlink:href="#shape1"/>
    </g>
    <g id="shape1" transform="matrix(1.0, 0.0, 0.0, 1.0, 28.0, 27.8)">
      <path d="M0.0 -27.8 Q11.6 -27.8 19.8 -19.65 28.0 -11.5 28.0 0.0 28.0 11.5 19.8 19.65 11.6 27.8 0.0 27.8 -11.6 27.8 -19.8 19.65 -28.0 11.5 -28.0 0.0 -28.0 -11.5 -19.8 -19.65 -11.6 -27.8 0.0 -27.8" fill="url(#gradient1)" fill-rule="evenodd" stroke="none"/>
    </g>
    <radialGradient cx="0" cy="0" gradientTransform="matrix(0.0347, 0.0, 0.0, 0.0347, 0.0, 0.0)" gradientUnits="userSpaceOnUse" id="gradient1" r="819.2" spreadMethod="pad">
      <stop offset="0.0" stop-color="#270909" stop-opacity="0.7490196"/>
      <stop offset="1.0" stop-color="#270909" stop-opacity="0.0"/>
    </radialGradient>
    <g id="shape2" transform="matrix(1.0, 0.0, 0.0, 1.0, 27.15, 8.95)">
      <path d="M0.7 -8.15 L0.55 -7.85 0.3 -7.6 -0.3 -7.7 -0.6 -8.2 -0.5 -8.65 -0.45 -8.75 -0.3 -8.85 -0.2 -8.9 0.0 -8.95 0.1 -8.95 0.35 -8.85 0.5 -8.75 0.7 -8.6 0.75 -8.5 0.75 -8.3 0.7 -8.15 M5.0 -3.6 L5.35 -3.5 5.5 -3.45 5.65 -3.25 5.8 -3.05 5.7 -2.8 Q5.4 -2.35 4.85 -2.3 4.55 -2.3 4.35 -2.5 L4.25 -2.7 4.3 -2.95 4.6 -3.45 5.0 -3.6 M0.9 -4.8 L0.9 -4.55 Q1.2 -4.1 1.1 -3.5 L0.85 -2.2 0.85 -2.15 Q1.3 0.65 0.55 3.35 -0.1 5.6 0.2 7.95 L0.65 12.15 0.9 11.05 1.45 9.45 1.55 9.4 1.7 9.3 1.85 9.3 1.85 9.25 2.05 9.35 2.2 9.45 2.25 9.5 2.2 10.5 1.9 11.55 1.85 12.7 1.95 12.8 2.0 12.9 2.6 12.85 Q2.9 12.85 3.1 13.1 3.45 14.4 2.6 15.55 L2.35 15.95 2.85 15.85 Q3.3 15.8 3.5 16.2 L3.9 16.05 3.85 15.95 Q4.45 14.2 5.5 12.5 L7.3 9.2 Q8.0 7.7 9.25 6.85 L9.35 6.9 9.6 6.95 9.75 7.05 9.85 7.1 Q10.15 8.4 9.7 9.65 9.2 11.05 8.5 12.25 L6.95 14.35 Q6.4 14.3 5.85 15.05 L5.05 15.85 5.4 16.15 5.55 16.35 Q6.75 15.15 8.45 14.4 L13.95 11.6 Q16.4 10.15 19.05 9.35 L17.9 10.15 16.4 11.0 15.9 11.35 16.1 11.25 18.8 9.7 18.75 9.8 18.6 9.9 18.35 10.1 18.3 10.15 19.7 9.65 21.15 8.95 21.35 8.85 Q21.7 10.2 19.55 11.1 L14.9 13.1 Q12.55 14.2 10.35 15.65 L9.7 15.9 9.75 15.95 9.8 16.05 9.8 16.15 9.75 16.25 9.7 16.35 9.6 16.5 9.5 16.6 9.25 16.65 9.2 16.7 8.55 17.55 10.6 17.0 10.85 16.95 11.25 16.95 11.45 17.0 11.6 17.1 11.65 17.2 11.7 17.35 11.75 17.75 11.9 18.1 11.9 18.3 Q10.65 19.35 8.9 19.25 L6.75 19.25 6.45 19.25 Q6.25 20.0 5.45 20.45 L4.4 21.0 4.4 21.15 4.3 21.5 4.15 21.7 4.2 21.8 4.25 21.9 4.3 22.0 4.35 22.1 4.35 22.2 3.15 23.4 2.3 23.9 2.4 24.0 2.65 24.55 2.6 25.1 2.55 25.3 1.25 25.5 0.55 25.35 0.45 25.25 0.3 25.05 0.25 24.85 0.25 24.7 0.35 24.45 0.1 24.1 -0.15 24.15 -1.2 24.3 -1.55 24.0 -2.35 24.65 Q-2.95 25.2 -3.7 24.95 L-4.05 24.6 -4.4 24.6 Q-4.85 24.65 -5.15 24.35 L-5.3 24.2 -5.4 24.25 -5.55 24.5 -5.7 24.75 -5.8 25.0 Q-5.55 25.4 -5.7 25.85 L-6.1 26.7 Q-6.6 27.65 -7.55 27.25 -7.75 26.0 -7.1 24.75 L-7.4 24.6 -11.75 27.9 -14.35 29.85 Q-15.9 30.8 -17.45 30.4 -17.75 29.35 -16.55 28.7 L-14.25 27.45 -13.75 27.2 Q-13.45 25.6 -11.85 24.25 L-10.4 22.9 -8.35 20.75 -7.55 19.8 Q-8.0 19.4 -7.8 18.8 -7.55 18.0 -6.7 17.7 L-6.8 17.5 -6.9 17.4 Q-8.55 16.65 -9.95 15.3 L-10.0 15.35 Q-10.25 15.95 -10.85 15.6 -11.45 16.3 -12.2 15.75 L-13.8 14.65 -15.1 13.75 Q-17.6 13.6 -19.6 11.35 L-23.2 7.75 -27.0 4.5 -27.1 4.25 -27.1 3.95 -27.1 3.8 -26.9 3.5 -26.5 3.4 -26.5 3.35 Q-25.55 3.65 -24.75 4.3 -23.9 4.9 -23.15 5.65 L-21.7 7.05 Q-20.95 6.7 -20.3 7.25 L-18.95 8.35 -17.65 9.6 -17.55 9.7 -17.15 9.2 Q-16.5 8.8 -15.95 9.35 L-14.9 10.3 -14.4 10.6 -13.75 10.55 -14.0 10.2 Q-14.2 9.85 -13.8 9.7 -12.9 9.25 -12.2 10.2 -11.65 9.3 -10.8 10.0 L-8.75 11.55 -7.75 12.15 -9.1 10.65 -10.45 8.85 Q-11.6 7.55 -10.4 6.85 -8.9 7.2 -8.1 8.55 L-6.65 11.15 -6.5 11.4 -6.85 10.5 -7.5 8.6 Q-7.8 7.7 -7.2 6.95 L-7.0 6.75 -6.75 6.7 -6.5 6.65 -6.45 6.6 Q-7.3 5.3 -7.8 3.8 L-8.6 1.1 Q-9.0 -0.35 -8.85 -1.55 L-8.75 -1.6 Q-7.7 1.35 -6.05 4.35 -4.45 7.2 -3.6 10.6 L-2.65 15.3 Q-2.05 15.5 -1.9 16.2 L-1.8 16.75 -1.0 16.55 -0.35 15.15 -0.2 15.0 Q-0.85 14.25 -0.9 12.85 L-1.0 6.45 -0.95 2.75 -1.2 2.9 -1.5 3.4 -1.55 3.5 -1.55 3.25 -1.5 3.05 -1.3 2.75 -1.0 2.55 -0.95 2.55 -0.9 -0.1 -0.8 -2.45 -0.75 -2.5 -0.6 -4.0 -0.4 -5.6 -0.25 -5.85 -0.15 -5.95 0.0 -6.0 0.25 -6.1 0.5 -6.0 0.65 -5.95 0.75 -5.75 0.85 -5.4 0.8 -5.0 0.9 -4.8 M7.75 -5.7 L7.85 -5.5 7.95 -5.4 7.95 -5.25 7.85 -4.85 7.5 -4.55 7.35 -4.5 7.0 -4.65 Q6.75 -4.8 6.7 -5.1 L6.85 -5.55 6.9 -5.65 7.05 -5.75 7.15 -5.8 7.35 -5.85 7.6 -5.75 7.75 -5.7 M6.1 -1.85 L6.7 -1.5 6.8 -0.85 6.55 -0.2 6.4 -0.1 6.1 -0.05 5.95 0.0 6.0 0.25 6.05 0.95 6.05 1.0 Q6.95 2.2 6.0 3.75 5.15 5.1 4.7 6.6 4.1 8.5 2.6 8.1 2.35 6.7 2.7 5.3 L3.25 2.3 3.55 1.1 3.6 0.7 3.7 0.35 3.8 0.25 3.9 0.15 4.1 0.1 4.25 0.1 4.3 0.1 Q4.7 -0.25 5.25 -0.45 L5.25 -0.5 5.35 -1.25 5.9 -1.8 6.1 -1.85 M25.05 7.7 Q25.0 8.3 24.45 8.5 L23.25 9.1 Q22.75 9.45 22.4 9.0 22.35 8.8 22.55 8.7 L23.4 8.0 23.55 7.8 23.6 7.7 23.8 7.55 24.35 7.4 24.6 7.35 24.75 7.4 24.9 7.5 25.0 7.6 25.05 7.7 M11.85 1.0 L12.05 1.1 12.25 1.25 12.35 1.5 12.2 1.8 11.5 1.9 11.25 1.55 11.25 1.45 11.25 1.35 11.35 1.2 11.75 1.0 11.85 1.0 M11.4 4.9 L10.9 5.7 Q10.45 6.15 10.05 5.7 L9.95 5.2 10.2 4.55 Q10.45 4.2 10.85 4.15 L11.0 4.1 Q11.55 4.35 11.4 4.9 M3.1 10.5 L3.3 10.6 3.5 10.7 3.6 10.85 3.6 11.05 3.4 11.45 2.8 11.55 2.65 11.45 2.55 11.35 2.55 11.25 2.55 11.1 2.65 10.8 2.7 10.7 2.8 10.65 2.95 10.55 3.1 10.55 3.1 10.5 M9.3 15.65 L9.15 15.5 10.35 14.45 7.7 15.8 8.4 15.85 8.65 15.65 8.85 15.6 9.25 15.65 9.3 15.65 M3.75 24.65 L4.15 24.75 4.45 25.1 4.5 25.55 4.45 25.65 4.25 25.8 3.5 25.75 3.25 25.6 3.2 25.5 3.15 25.4 3.15 25.3 3.15 25.2 3.15 25.1 3.25 24.95 3.3 24.85 3.55 24.7 3.75 24.65 M12.45 16.15 L12.0 16.45 Q11.7 16.4 11.6 16.2 L11.55 16.1 11.55 16.0 11.55 15.9 11.6 15.8 11.65 15.7 11.75 15.6 11.9 15.55 12.1 15.5 12.1 15.45 12.3 15.55 12.45 15.7 12.5 15.9 12.55 16.0 12.45 16.15 M6.7 26.25 L6.75 26.45 6.75 26.6 6.7 27.0 6.6 27.35 6.55 27.45 Q5.65 28.0 5.1 27.2 4.7 26.65 5.2 26.25 5.55 25.95 6.0 25.9 L6.1 25.9 6.35 26.0 6.5 26.05 6.7 26.25 M-10.3 -1.3 L-10.35 -1.4 -10.4 -1.6 -10.4 -1.8 -10.4 -1.95 -10.3 -2.05 -10.2 -2.15 -10.1 -2.2 -9.9 -2.25 -9.7 -2.25 -9.5 -2.2 -9.35 -2.15 -9.3 -1.95 -9.3 -1.7 -9.35 -1.3 -9.55 -1.05 -9.75 -1.0 -9.95 -1.05 -10.25 -1.25 -10.3 -1.3 M-8.95 0.75 Q-8.55 1.25 -9.05 1.7 -9.7 2.3 -10.05 1.5 -10.45 0.65 -9.5 0.5 L-9.25 0.55 -9.05 0.65 -8.95 0.75 M-8.5 4.15 Q-8.2 4.1 -8.1 4.4 -8.0 4.7 -8.3 4.8 L-8.7 4.75 -8.8 4.7 -8.85 4.6 -8.85 4.5 -8.75 4.35 -8.5 4.15 M-13.65 0.25 Q-13.35 0.25 -13.15 0.4 L-12.8 0.8 Q-12.7 1.05 -12.75 1.25 L-12.8 1.35 -12.95 1.5 -13.4 1.6 -14.0 1.25 -14.05 1.2 -14.1 1.1 -14.15 1.0 -14.15 0.9 -14.15 0.8 -14.15 0.6 -14.15 0.5 -14.05 0.45 -13.95 0.35 -13.85 0.3 -13.65 0.25 M-10.75 4.45 L-10.5 4.75 -10.45 4.85 -10.4 4.95 -10.4 5.0 -10.45 5.1 -10.45 5.2 -10.5 5.3 -10.55 5.4 Q-10.75 5.6 -11.0 5.6 L-11.75 5.25 -11.95 4.7 -11.95 4.5 -11.9 4.4 -11.8 4.3 -11.7 4.2 -11.6 4.15 -11.4 4.15 -11.4 4.1 -11.05 4.3 -10.75 4.45 M-17.4 1.7 L-17.75 1.85 -18.65 1.65 -18.9 1.2 -18.9 1.1 -18.85 1.05 -18.7 0.9 -18.4 0.75 -18.25 0.75 -18.05 0.8 -17.9 0.9 -17.85 1.0 -17.8 1.1 -17.8 1.25 -17.65 1.6 -17.4 1.7 M-17.95 3.65 L-17.85 3.6 -17.65 3.55 -17.15 3.7 -16.8 3.95 Q-16.65 4.15 -16.65 4.45 L-17.0 4.9 Q-17.75 5.15 -18.15 4.45 L-18.2 3.95 -18.1 3.75 -17.95 3.65 M-15.45 6.5 L-15.35 6.4 -15.2 6.35 -14.9 6.25 Q-14.45 6.2 -14.1 6.55 -13.8 6.85 -13.75 7.35 -13.75 7.8 -14.15 8.0 L-14.4 8.0 -14.7 8.0 -15.05 7.75 -15.4 7.35 -15.55 6.8 -15.45 6.5 M-6.45 20.45 L-4.85 20.4 -5.55 19.6 -6.45 20.45 M-6.9 20.95 L-7.55 21.75 -8.2 22.45 -9.0 23.2 -9.05 23.3 -7.95 22.75 -6.65 22.0 -6.6 21.9 Q-6.4 21.7 -6.6 21.6 L-6.8 21.35 -6.8 21.05 -6.9 20.95 M-1.15 21.0 L-0.25 20.55 -1.0 20.85 -1.4 21.1 Q-1.3 21.15 -1.15 21.0 M-2.2 20.6 L-2.35 20.7 -2.1 20.7 -2.15 20.65 -2.2 20.6 M-20.3 28.65 L-20.2 28.55 -20.1 28.5 -19.9 28.45 -19.5 28.45 -19.15 28.55 -18.95 28.75 -18.9 28.85 -19.1 29.15 -19.75 29.35 Q-20.3 29.4 -20.4 28.95 L-20.35 28.85 -20.3 28.65 M-9.25 29.9 L-9.25 30.2 -9.25 30.4 -9.3 30.5 -9.65 30.6 Q-9.9 30.65 -10.0 30.4 L-10.1 30.25 -10.0 29.95 -9.65 29.65 -9.35 29.6 Q-9.15 29.7 -9.25 29.9" fill="#400d0d" fill-rule="evenodd" stroke="none"/>
      <path d="M0.15 -2.2 L-0.05 -1.5 Q-0.15 -0.85 -0.7 -1.0 L-0.95 -1.5 -0.9 -2.15 -0.65 -2.8 -0.6 -2.9 -0.45 -2.95 -0.25 -3.0 -0.25 -3.05 -0.05 -2.95 0.05 -2.9 0.15 -2.2 M-7.35 3.0 L-7.45 3.1 Q-7.9 3.2 -8.2 2.8 L-8.4 2.25 -8.4 1.6 -8.3 1.5 -8.2 1.4 -8.0 1.35 Q-7.65 1.4 -7.45 1.7 L-7.25 2.35 -7.35 3.0 M-9.25 8.55 L-8.7 9.35 Q-8.25 9.75 -8.55 10.25 L-8.6 10.35 Q-9.2 10.45 -9.65 9.9 L-10.35 8.85 Q-10.65 8.2 -10.0 8.05 -9.5 8.1 -9.25 8.55 M-7.75 10.8 L-7.55 10.85 -7.15 11.4 -7.0 12.15 -6.95 13.0 -6.95 13.2 -7.15 13.25 -7.25 13.3 -7.6 13.25 -7.85 13.1 -8.0 12.75 -8.15 12.1 -8.35 11.4 -8.4 11.15 -8.35 11.05 -8.3 10.95 -8.2 10.9 -7.9 10.8 -7.9 10.75 -7.75 10.8 M-20.1 10.0 L-19.9 9.95 Q-19.35 9.9 -18.95 10.3 L-18.1 11.1 Q-17.6 11.5 -17.7 12.1 -18.3 12.5 -18.85 11.9 L-19.8 11.15 Q-20.4 10.85 -20.4 10.25 L-20.35 10.2 -20.25 10.1 -20.1 10.0 M-10.25 24.4 L-10.0 24.4 -9.8 24.5 -9.65 24.55 Q-9.45 24.85 -9.55 25.2 L-10.25 26.15 Q-10.75 26.6 -11.4 26.5 L-11.65 25.95 Q-11.65 25.45 -11.2 25.1 L-10.45 24.5 -10.25 24.4 M-24.0 4.95 L-23.05 6.15 Q-22.6 6.75 -22.95 7.45 -23.85 7.75 -24.65 7.0 L-25.6 5.65 Q-25.85 5.1 -25.7 4.45 L-25.6 4.35 -25.45 4.25 -25.25 4.2 Q-24.5 4.35 -24.0 4.95 M-14.8 29.15 L-15.3 29.75 -15.95 29.7 -16.0 29.5 -15.95 29.15 -15.7 28.8 -15.4 28.6 -15.15 28.65 -15.0 28.7 -14.9 28.8 -14.8 28.85 -14.8 29.15 M10.65 4.6 L10.8 4.8 10.9 4.95 10.5 5.3 10.0 4.95 Q9.95 4.7 10.15 4.6 L10.35 4.5 10.5 4.55 10.65 4.6 M14.5 11.45 L15.75 11.05 16.85 10.6 17.25 10.65 17.5 10.8 17.6 10.95 Q17.2 11.65 16.25 11.8 L15.0 12.15 13.3 12.3 Q13.65 11.7 14.5 11.45 M4.0 1.95 L4.2 2.0 4.35 2.1 4.45 2.65 4.2 3.4 3.7 4.0 3.5 4.15 Q3.0 4.05 3.0 3.55 L3.15 2.6 Q3.35 2.05 3.85 1.95 L4.0 1.95 M8.5 8.6 Q9.0 8.75 9.0 9.3 9.0 9.85 8.55 10.05 L7.75 9.95 7.65 9.85 7.65 9.75 7.6 9.7 7.6 9.5 7.55 9.4 7.7 9.15 7.95 8.85 Q8.2 8.65 8.5 8.6 M4.6 19.5 L4.75 19.55 4.9 19.65 4.95 19.75 Q4.95 20.45 4.4 20.9 3.85 21.35 3.45 21.95 3.05 22.65 2.3 22.5 L2.15 22.3 2.05 22.15 1.95 21.85 1.95 21.65 Q2.2 21.05 2.8 20.75 L3.85 19.95 4.5 19.5 4.6 19.5" fill="#ffffff" fill-rule="evenodd" stroke="none"/>
    </g>
    <g id="sprite2" transform="matrix(1.0, 0.0, 0.0, 1.0, 8.5, 5.75)">
      <use ffdec:characterId="2610" height="15.7" transform="matrix(1.0, 0.0, 0.0, 1.0, -8.5, -5.75)" width="14.55" xlink:href="#sprite3"/>
    </g>
    <g id="sprite3" transform="matrix(1.0, 0.0, 0.0, 1.0, 8.5, 5.75)">
      <use ffdec:characterId="2609" height="15.7" transform="matrix(1.0, 0.0, 0.0, 1.0, -8.5, -5.75)" width="14.55" xlink:href="#shape3"/>
    </g>
    <g id="shape3" transform="matrix(1.0, 0.0, 0.0, 1.0, 8.5, 5.75)">
      <path d="M-6.15 -5.75 L-3.35 -3.95 -5.45 0.1 -2.15 9.45 -5.2 8.45 -8.5 -2.2 -6.15 -5.75" fill="url(#gradient2)" fill-rule="evenodd" stroke="none"/>
      <path d="M2.15 1.45 L6.05 9.8 2.85 9.95 -1.25 0.3 -0.45 -3.4 Q1.55 -2.45 3.5 -1.45 L2.15 1.45" fill="url(#gradient3)" fill-rule="evenodd" stroke="none"/>
      <path d="M-6.15 -5.75 L-8.5 -2.2 -5.2 8.45 -2.15 9.45 -5.45 0.1 -3.35 -3.95 -6.15 -5.75 M2.15 1.45 L3.5 -1.45 Q1.55 -2.45 -0.45 -3.4 L-1.25 0.3 2.85 9.95 6.05 9.8 2.15 1.45 Z" fill="none" stroke="#000000" stroke-linecap="round" stroke-linejoin="round" stroke-width="0.05"/>
    </g>
    <radialGradient cx="0" cy="0" gradientTransform="matrix(0.0155, 0.0, 0.0, 0.0155, -5.9, -2.7)" gradientUnits="userSpaceOnUse" id="gradient2" r="819.2" spreadMethod="pad">
      <stop offset="0.0" stop-color="#2d251a"/>
      <stop offset="1.0" stop-color="#1a1c21"/>
    </radialGradient>
    <radialGradient cx="0" cy="0" gradientTransform="matrix(0.0162, 0.0, 0.0, 0.0162, -0.25, -1.85)" gradientUnits="userSpaceOnUse" id="gradient3" r="819.2" spreadMethod="pad">
      <stop offset="0.0" stop-color="#2d251a"/>
      <stop offset="1.0" stop-color="#1a1c21"/>
    </radialGradient>
    <g id="sprite4" transform="matrix(1.0, 0.0, 0.0, 1.0, 12.5, 5.9)">
      <use ffdec:characterId="2616" height="17.95" transform="matrix(1.0, 0.0, 0.0, 1.0, -12.5, -5.9)" width="13.3" xlink:href="#sprite5"/>
    </g>
    <g id="sprite5" transform="matrix(1.0, 0.0, 0.0, 1.0, 12.5, 5.9)">
      <use ffdec:characterId="2615" height="17.95" transform="matrix(1.0, 0.0, 0.0, 1.0, -12.5, -5.9)" width="13.3" xlink:href="#shape4"/>
    </g>
    <g id="shape4" transform="matrix(1.0, 0.0, 0.0, 1.0, 12.5, 5.9)">
      <path d="M-9.75 -5.9 L-6.45 -4.65 -9.35 -0.7 -9.55 11.2 -11.45 10.5 -12.5 -1.5 -9.75 -5.9" fill="url(#gradient4)" fill-rule="evenodd" stroke="none"/>
      <path d="M-1.75 1.2 L-1.0 12.05 -2.95 11.55 -5.1 0.5 -2.95 -4.1 0.8 -3.95 -1.75 1.2" fill="url(#gradient5)" fill-rule="evenodd" stroke="none"/>
      <path d="M-9.75 -5.9 L-12.5 -1.5 -11.45 10.5 -9.55 11.2 -9.35 -0.7 -6.45 -4.65 -9.75 -5.9 M-1.75 1.2 L0.8 -3.95 -2.95 -4.1 -5.1 0.5 -2.95 11.55 -1.0 12.05 -1.75 1.2 Z" fill="none" stroke="#000000" stroke-linecap="round" stroke-linejoin="round" stroke-width="0.05"/>
    </g>
    <radialGradient cx="0" cy="0" gradientTransform="matrix(0.0189, 0.0, 0.0, 0.0189, -9.45, -4.25)" gradientUnits="userSpaceOnUse" id="gradient4" r="819.2" spreadMethod="pad">
      <stop offset="0.0" stop-color="#2d251a"/>
      <stop offset="1.0" stop-color="#1a1c21"/>
    </radialGradient>
    <radialGradient cx="0" cy="0" gradientTransform="matrix(0.0182, 0.0, 0.0, 0.0182, -1.5, -2.9)" gradientUnits="userSpaceOnUse" id="gradient5" r="819.2" spreadMethod="pad">
      <stop offset="0.0" stop-color="#2d251a"/>
      <stop offset="1.0" stop-color="#1a1c21"/>
    </radialGradient>
    <g id="sprite6" transform="matrix(1.0, 0.0, 0.0, 1.0, 27.9, 17.3)">
      <use ffdec:characterId="2622" height="21.15" transform="matrix(1.0, 0.0, 0.0, 1.0, -27.9, -17.3)" width="42.4" xlink:href="#sprite7"/>
    </g>
    <g id="sprite7" transform="matrix(1.0, 0.0, 0.0, 1.0, 27.95, 17.25)">
      <use ffdec:characterId="2621" height="21.15" transform="matrix(1.0, 0.0, 0.0, 1.0, -27.95, -17.25)" width="42.4" xlink:href="#shape5"/>
    </g>
    <g id="shape5" transform="matrix(1.0, 0.0, 0.0, 1.0, 27.95, 17.25)">
      <path d="M-2.1 -2.65 L-2.0 -2.55 -2.05 -2.55 -2.1 -2.6 -2.1 -2.65 -2.05 -2.55 -2.1 -2.65" fill="#999999" fill-rule="evenodd" stroke="none"/>
      <path d="M11.0 2.15 L8.65 3.9 -2.0 2.4 -2.85 1.9 Q-9.85 -2.15 -20.35 -3.65 -21.85 -8.3 -27.95 -12.95 L-24.4 -14.05 -17.85 -7.15 -7.8 -4.55 -2.1 -2.6 -2.05 -2.55 -2.0 -2.55 11.0 2.15" fill="#252923" fill-rule="evenodd" stroke="none"/>
      <path d="M-8.9 -16.05 Q-1.9 -15.3 6.05 -13.15 L6.1 -13.1 Q0.5 -7.9 -2.1 -2.65 -3.25 -9.1 -8.9 -16.05" fill="url(#gradient6)" fill-rule="evenodd" stroke="none"/>
      <path d="M-24.4 -14.05 L-27.45 -17.25 -12.8 -16.4 -8.9 -16.05 Q-3.25 -9.1 -2.1 -2.65 L-2.1 -2.6 -7.8 -4.55 -17.85 -7.15 -24.4 -14.05" fill="url(#gradient7)" fill-rule="evenodd" stroke="none"/>
      <path d="M6.1 -13.1 Q12.45 -4.9 14.45 -0.45 L11.0 2.15 -2.0 -2.55 -2.1 -2.65 Q0.5 -7.9 6.1 -13.1" fill="url(#gradient8)" fill-rule="evenodd" stroke="none"/>
      <path d="M6.1 -13.1 Q12.45 -4.9 14.45 -0.45 L11.0 2.15 8.65 3.9 -2.0 2.4 -2.85 1.9 Q-9.85 -2.15 -20.35 -3.65 -21.85 -8.3 -27.95 -12.95 L-24.4 -14.05 -27.45 -17.25 -12.8 -16.4 -8.9 -16.05 Q-1.9 -15.3 6.05 -13.15 L6.1 -13.1 Q0.5 -7.9 -2.1 -2.65 -3.25 -9.1 -8.9 -16.05 M-2.0 -2.55 L11.0 2.15 M-2.05 -2.55 L-2.0 -2.55 M-2.1 -2.6 L-2.05 -2.55 -2.1 -2.65 M-2.1 -2.6 L-7.8 -4.55 -17.85 -7.15 -24.4 -14.05" fill="none" stroke="#000000" stroke-linecap="round" stroke-linejoin="round" stroke-width="0.05"/>
    </g>
    <radialGradient cx="0" cy="0" gradientTransform="matrix(0.0127, 0.0, 0.0, 0.0127, -2.45, -12.55)" gradientUnits="userSpaceOnUse" id="gradient6" r="819.2" spreadMethod="pad">
      <stop offset="0.00392156862745098" stop-color="#d1bb8b"/>
      <stop offset="0.24705882352941178" stop-color="#66482b"/>
      <stop offset="0.8941176470588236" stop-color="#120907"/>
    </radialGradient>
    <radialGradient cx="0" cy="0" gradientTransform="matrix(0.0238, 0.0, 0.0, 0.0238, -15.5, -16.45)" gradientUnits="userSpaceOnUse" id="gradient7" r="819.2" spreadMethod="pad">
      <stop offset="0.0" stop-color="#ddc5a2"/>
      <stop offset="0.25098039215686274" stop-color="#5f5e43"/>
      <stop offset="0.6470588235294118" stop-color="#2c2621"/>
      <stop offset="1.0" stop-color="#22262b"/>
      <stop offset="1.0" stop-color="#070a0a"/>
    </radialGradient>
    <radialGradient cx="0" cy="0" gradientTransform="matrix(0.0153, 0.0, 0.0, 0.0153, 10.45, -3.0)" gradientUnits="userSpaceOnUse" id="gradient8" r="819.2" spreadMethod="pad">
      <stop offset="0.0" stop-color="#ddc5a2"/>
      <stop offset="0.25098039215686274" stop-color="#5f5e43"/>
      <stop offset="0.6470588235294118" stop-color="#2c2621"/>
      <stop offset="1.0" stop-color="#22262b"/>
      <stop offset="1.0" stop-color="#070a0a"/>
    </radialGradient>
    <g id="sprite8" transform="matrix(1.0, 0.0, 0.0, 1.0, 8.9, 2.9)">
      <use ffdec:characterId="2619" height="14.4" transform="matrix(1.0, 0.0, 0.0, 1.0, -8.9, -2.9)" width="17.8" xlink:href="#sprite9"/>
    </g>
    <g id="sprite9" transform="matrix(1.0, 0.0, 0.0, 1.0, 8.85, 2.9)">
      <use ffdec:characterId="2618" height="14.4" transform="matrix(1.0, 0.0, 0.0, 1.0, -8.85, -2.9)" width="17.8" xlink:href="#shape6"/>
    </g>
    <g id="shape6" transform="matrix(1.0, 0.0, 0.0, 1.0, 8.85, 2.9)">
      <path d="M-8.6 0.7 L-3.2 -2.9 -1.9 -1.55 -3.6 2.3 1.6 8.2 2.4 8.3 0.95 8.75 0.1 9.05 -7.7 4.8 -8.85 0.8 -8.6 0.7" fill="url(#gradient9)" fill-rule="evenodd" stroke="none"/>
      <path d="M7.75 6.5 L7.25 11.5 3.35 11.5 0.95 8.75 2.4 8.3 1.6 8.2 5.25 7.4 7.75 6.5" fill="url(#gradient10)" fill-rule="evenodd" stroke="none"/>
      <path d="M-1.9 -1.55 L1.5 -1.95 6.7 1.95 8.95 6.05 7.75 6.5 5.25 7.4 1.6 8.2 -3.6 2.3 -1.9 -1.55" fill="url(#gradient11)" fill-rule="evenodd" stroke="none"/>
      <path d="M-8.6 0.7 L-3.2 -2.9 -1.9 -1.55 1.5 -1.95 6.7 1.95 8.95 6.05 7.75 6.5 7.25 11.5 3.35 11.5 0.95 8.75 0.1 9.05 -7.7 4.8 -8.85 0.8 M0.95 8.75 L2.4 8.3 1.6 8.2 -3.6 2.3 -1.9 -1.55 M1.6 8.2 L5.25 7.4 7.75 6.5" fill="none" stroke="#000000" stroke-linecap="round" stroke-linejoin="round" stroke-width="0.05"/>
    </g>
    <radialGradient cx="0" cy="0" gradientTransform="matrix(0.0151, 0.0, 0.0, 0.0151, -4.65, -1.85)" gradientUnits="userSpaceOnUse" id="gradient9" r="819.2" spreadMethod="pad">
      <stop offset="0.00392156862745098" stop-color="#d1bb8b"/>
      <stop offset="0.24705882352941178" stop-color="#66482b"/>
      <stop offset="0.8941176470588236" stop-color="#120907"/>
    </radialGradient>
    <radialGradient cx="0" cy="0" gradientTransform="matrix(0.0075, 0.0, 0.0, 0.0075, 7.1, 9.15)" gradientUnits="userSpaceOnUse" id="gradient10" r="819.2" spreadMethod="pad">
      <stop offset="0.00392156862745098" stop-color="#d1bb8b"/>
      <stop offset="0.24705882352941178" stop-color="#66482b"/>
      <stop offset="0.8941176470588236" stop-color="#120907"/>
    </radialGradient>
    <radialGradient cx="0" cy="0" gradientTransform="matrix(0.0102, 0.0, 0.0, 0.0102, 4.7, 1.3)" gradientUnits="userSpaceOnUse" id="gradient11" r="819.2" spreadMethod="pad">
      <stop offset="0.0" stop-color="#ddc5a2"/>
      <stop offset="0.25098039215686274" stop-color="#5f5e43"/>
      <stop offset="0.6470588235294118" stop-color="#2c2621"/>
      <stop offset="1.0" stop-color="#22262b"/>
      <stop offset="1.0" stop-color="#070a0a"/>
    </radialGradient>
    <g id="sprite10" transform="matrix(1.0, 0.0, 0.0, 1.0, 7.45, 19.9)">
      <use ffdec:characterId="2613" height="23.0" transform="matrix(1.0, 0.0, 0.0, 1.0, -7.45, -19.9)" width="12.9" xlink:href="#sprite11"/>
    </g>
    <g id="sprite11" transform="matrix(1.0, 0.0, 0.0, 1.0, 7.8, 20.0)">
      <use ffdec:characterId="2612" height="23.0" transform="matrix(1.0, 0.0, 0.0, 1.0, -7.8, -20.0)" width="12.9" xlink:href="#shape7"/>
    </g>
    <g id="shape7" transform="matrix(1.0, 0.0, 0.0, 1.0, 7.8, 20.0)">
      <path d="M-2.15 3.0 L-2.2 3.0 -2.2 2.95 -2.15 3.0" fill="#999999" fill-rule="evenodd" stroke="none"/>
      <path d="M-2.2 2.95 Q-8.85 -6.6 -7.6 -19.25 -6.35 -8.1 0.35 1.9 L-0.05 2.15 -2.15 3.0 -2.2 2.95" fill="url(#gradient12)" fill-rule="evenodd" stroke="none"/>
      <path d="M5.1 1.3 L1.9 1.0 Q-2.55 -8.55 -1.25 -20.0 -1.15 -8.85 5.1 1.3" fill="url(#gradient13)" fill-rule="evenodd" stroke="none"/>
      <path d="M-2.15 3.0 L-2.2 3.0 -2.2 2.95 Q-8.85 -6.6 -7.6 -19.25 -6.35 -8.1 0.35 1.9 M-0.05 2.15 L-2.15 3.0 M5.1 1.3 Q-1.15 -8.85 -1.25 -20.0 -2.55 -8.55 1.9 1.0 L5.1 1.3 Z" fill="none" stroke="#000000" stroke-linecap="round" stroke-linejoin="round" stroke-width="0.05"/>
    </g>
    <radialGradient cx="0" cy="0" gradientTransform="matrix(0.0195, 0.0, 0.0, 0.0195, -7.55, -11.9)" gradientUnits="userSpaceOnUse" id="gradient12" r="819.2" spreadMethod="pad">
      <stop offset="0.0" stop-color="#5b4b35"/>
      <stop offset="1.0" stop-color="#343943"/>
    </radialGradient>
    <radialGradient cx="0" cy="0" gradientTransform="matrix(0.0188, 0.0, 0.0, 0.0188, -0.9, -12.9)" gradientUnits="userSpaceOnUse" id="gradient13" r="819.2" spreadMethod="pad">
      <stop offset="0.0" stop-color="#5b4b35"/>
      <stop offset="1.0" stop-color="#343943"/>
    </radialGradient>
  </defs>
</svg>
