<?xml version="1.0" encoding="UTF-8" standalone="no"?>
<svg xmlns:ffdec="https://www.free-decompiler.com/flash" xmlns:xlink="http://www.w3.org/1999/xlink" ffdec:objectType="frame" height="182.2px" width="418.7px" xmlns="http://www.w3.org/2000/svg">
  <g transform="matrix(2.0, 0.0, 0.0, 2.0, 141.8, 83.6)">
    <use ffdec:characterId="144" height="19.95" id="shadower" transform="matrix(0.6552, 0.0965, 0.0144, 0.7314, -20.6359, 22.6345)" width="65.05" xlink:href="#sprite0"/>
    <filter id="filter0"/>
    <use ffdec:characterId="2611" filter="url(#filter0)" height="15.7" id="hand2" transform="matrix(-0.5688, -0.2079, 0.2079, -0.5688, -1.6602, 27.2377)" width="14.55" xlink:href="#sprite1"/>
    <filter id="filter1"/>
    <use ffdec:characterId="2617" filter="url(#filter1)" height="17.95" id="leg4" transform="matrix(-0.5838, -0.1652, 0.1652, -0.5838, 12.1729, 29.8093)" width="13.3" xlink:href="#sprite3"/>
    <filter id="filter2"/>
    <use ffdec:characterId="2623" filter="url(#filter2)" height="21.15" id="chest" transform="matrix(-0.6632, -0.0756, 0.0756, -0.6632, 19.4949, 38.732)" width="42.4" xlink:href="#sprite5"/>
    <filter id="filter3"/>
    <use ffdec:characterId="2620" filter="url(#filter3)" height="14.4" id="foot1" transform="matrix(-0.6632, -0.0756, 0.0756, -0.6632, -1.5669, 32.496)" width="17.8" xlink:href="#sprite7"/>
    <filter id="filter4"/>
    <use ffdec:characterId="2617" filter="url(#filter4)" height="17.95" id="leg3" transform="matrix(-0.6127, -0.2606, 0.2606, -0.6127, 14.7709, 31.2717)" width="13.3" xlink:href="#sprite3"/>
    <filter id="filter5"/>
    <use ffdec:characterId="2614" filter="url(#filter5)" height="23.0" id="head" transform="matrix(-0.6428, -0.176, 0.176, -0.6428, -4.4632, 46.9526)" width="12.9" xlink:href="#sprite9"/>
    <filter id="filter6"/>
    <use ffdec:characterId="2611" filter="url(#filter6)" height="15.7" id="hand1" transform="matrix(-0.6606, -0.0931, 0.0931, -0.6606, 3.1797, 26.2397)" width="14.55" xlink:href="#sprite1"/>
    <filter id="filter7">
      <feColorMatrix in="SourceGraphic" result="filterResult0" type="matrix" values="0 0 0 0 0.0,0 0 0 0 0.0,0 0 0 0 1.0,0 0 0 1 0"/>
      <feConvolveMatrix divisor="144.0" in="filterResult0" kernelMatrix="1 1 1 1 1 1 1 1 1 1 1 1 1 1 1 1 1 1 1 1 1 1 1 1 1 1 1 1 1 1 1 1 1 1 1 1 1 1 1 1 1 1 1 1 1 1 1 1 1 1 1 1 1 1 1 1 1 1 1 1 1 1 1 1 1 1 1 1 1 1 1 1 1 1 1 1 1 1 1 1 1 1 1 1 1 1 1 1 1 1 1 1 1 1 1 1 1 1 1 1 1 1 1 1 1 1 1 1 1 1 1 1 1 1 1 1 1 1 1 1 1 1 1 1 1 1 1 1 1 1 1 1 1 1 1 1 1 1 1 1 1 1 1 1" order="12 12" result="filterResult1"/>
      <feComposite in="SourceGraphic" in2="filterResult1" operator="over" result="filterResult2"/>
    </filter>
    <use ffdec:characterId="165" filter="url(#filter7)" height="12.1" transform="matrix(1.0, 0.0, 0.0, 1.0, -13.0, -1.45)" width="28.55" xlink:href="#sprite11"/>
  </g>
  <defs>
    <g id="sprite0" transform="matrix(1.0, 0.0, 0.0, 1.0, 32.5, 9.95)">
      <use ffdec:characterId="143" height="19.95" transform="matrix(1.0, 0.0, 0.0, 1.0, -32.5, -9.95)" width="65.05" xlink:href="#shape0"/>
    </g>
    <g id="shape0" transform="matrix(1.0, 0.0, 0.0, 1.0, 32.5, 9.95)">
      <path d="M1.45 8.25 Q-12.05 10.55 -22.0 9.8 -31.85 9.0 -32.45 5.6 -33.05 2.2 -24.0 -1.85 -14.9 -5.9 -1.4 -8.2 12.1 -10.55 22.0 -9.75 31.95 -9.0 32.5 -5.6 33.1 -2.2 24.0 1.85 14.95 5.9 1.45 8.25" fill="url(#gradient0)" fill-rule="evenodd" stroke="none"/>
    </g>
    <radialGradient cx="0" cy="0" gradientTransform="matrix(0.0432, -0.0074, 0.0018, 0.0106, 0.05, 0.0)" gradientUnits="userSpaceOnUse" id="gradient0" r="819.2" spreadMethod="pad">
      <stop offset="0.3333333333333333" stop-color="#000000" stop-opacity="0.68235296"/>
      <stop offset="0.8627450980392157" stop-color="#000000" stop-opacity="0.0"/>
      <stop offset="1.0" stop-color="#000000" stop-opacity="0.0"/>
    </radialGradient>
    <g id="sprite1" transform="matrix(1.0, 0.0, 0.0, 1.0, 8.5, 5.75)">
      <use ffdec:characterId="2610" height="15.7" transform="matrix(1.0, 0.0, 0.0, 1.0, -8.5, -5.75)" width="14.55" xlink:href="#sprite2"/>
    </g>
    <g id="sprite2" transform="matrix(1.0, 0.0, 0.0, 1.0, 8.5, 5.75)">
      <use ffdec:characterId="2609" height="15.7" transform="matrix(1.0, 0.0, 0.0, 1.0, -8.5, -5.75)" width="14.55" xlink:href="#shape1"/>
    </g>
    <g id="shape1" transform="matrix(1.0, 0.0, 0.0, 1.0, 8.5, 5.75)">
      <path d="M-6.15 -5.75 L-3.35 -3.95 -5.45 0.1 -2.15 9.45 -5.2 8.45 -8.5 -2.2 -6.15 -5.75" fill="url(#gradient1)" fill-rule="evenodd" stroke="none"/>
      <path d="M2.15 1.45 L6.05 9.8 2.85 9.95 -1.25 0.3 -0.45 -3.4 Q1.55 -2.45 3.5 -1.45 L2.15 1.45" fill="url(#gradient2)" fill-rule="evenodd" stroke="none"/>
      <path d="M-6.15 -5.75 L-8.5 -2.2 -5.2 8.45 -2.15 9.45 -5.45 0.1 -3.35 -3.95 -6.15 -5.75 M2.15 1.45 L3.5 -1.45 Q1.55 -2.45 -0.45 -3.4 L-1.25 0.3 2.85 9.95 6.05 9.8 2.15 1.45 Z" fill="none" stroke="#000000" stroke-linecap="round" stroke-linejoin="round" stroke-width="0.05"/>
    </g>
    <radialGradient cx="0" cy="0" gradientTransform="matrix(0.0155, 0.0, 0.0, 0.0155, -5.9, -2.7)" gradientUnits="userSpaceOnUse" id="gradient1" r="819.2" spreadMethod="pad">
      <stop offset="0.0" stop-color="#2d251a"/>
      <stop offset="1.0" stop-color="#1a1c21"/>
    </radialGradient>
    <radialGradient cx="0" cy="0" gradientTransform="matrix(0.0162, 0.0, 0.0, 0.0162, -0.25, -1.85)" gradientUnits="userSpaceOnUse" id="gradient2" r="819.2" spreadMethod="pad">
      <stop offset="0.0" stop-color="#2d251a"/>
      <stop offset="1.0" stop-color="#1a1c21"/>
    </radialGradient>
    <g id="sprite3" transform="matrix(1.0, 0.0, 0.0, 1.0, 12.5, 5.9)">
      <use ffdec:characterId="2616" height="17.95" transform="matrix(1.0, 0.0, 0.0, 1.0, -12.5, -5.9)" width="13.3" xlink:href="#sprite4"/>
    </g>
    <g id="sprite4" transform="matrix(1.0, 0.0, 0.0, 1.0, 12.5, 5.9)">
      <use ffdec:characterId="2615" height="17.95" transform="matrix(1.0, 0.0, 0.0, 1.0, -12.5, -5.9)" width="13.3" xlink:href="#shape2"/>
    </g>
    <g id="shape2" transform="matrix(1.0, 0.0, 0.0, 1.0, 12.5, 5.9)">
      <path d="M-9.75 -5.9 L-6.45 -4.65 -9.35 -0.7 -9.55 11.2 -11.45 10.5 -12.5 -1.5 -9.75 -5.9" fill="url(#gradient3)" fill-rule="evenodd" stroke="none"/>
      <path d="M-1.75 1.2 L-1.0 12.05 -2.95 11.55 -5.1 0.5 -2.95 -4.1 0.8 -3.95 -1.75 1.2" fill="url(#gradient4)" fill-rule="evenodd" stroke="none"/>
      <path d="M-9.75 -5.9 L-12.5 -1.5 -11.45 10.5 -9.55 11.2 -9.35 -0.7 -6.45 -4.65 -9.75 -5.9 M-1.75 1.2 L0.8 -3.95 -2.95 -4.1 -5.1 0.5 -2.95 11.55 -1.0 12.05 -1.75 1.2 Z" fill="none" stroke="#000000" stroke-linecap="round" stroke-linejoin="round" stroke-width="0.05"/>
    </g>
    <radialGradient cx="0" cy="0" gradientTransform="matrix(0.0189, 0.0, 0.0, 0.0189, -9.45, -4.25)" gradientUnits="userSpaceOnUse" id="gradient3" r="819.2" spreadMethod="pad">
      <stop offset="0.0" stop-color="#2d251a"/>
      <stop offset="1.0" stop-color="#1a1c21"/>
    </radialGradient>
    <radialGradient cx="0" cy="0" gradientTransform="matrix(0.0182, 0.0, 0.0, 0.0182, -1.5, -2.9)" gradientUnits="userSpaceOnUse" id="gradient4" r="819.2" spreadMethod="pad">
      <stop offset="0.0" stop-color="#2d251a"/>
      <stop offset="1.0" stop-color="#1a1c21"/>
    </radialGradient>
    <g id="sprite5" transform="matrix(1.0, 0.0, 0.0, 1.0, 27.9, 17.3)">
      <use ffdec:characterId="2622" height="21.15" transform="matrix(1.0, 0.0, 0.0, 1.0, -27.9, -17.3)" width="42.4" xlink:href="#sprite6"/>
    </g>
    <g id="sprite6" transform="matrix(1.0, 0.0, 0.0, 1.0, 27.95, 17.25)">
      <use ffdec:characterId="2621" height="21.15" transform="matrix(1.0, 0.0, 0.0, 1.0, -27.95, -17.25)" width="42.4" xlink:href="#shape3"/>
    </g>
    <g id="shape3" transform="matrix(1.0, 0.0, 0.0, 1.0, 27.95, 17.25)">
      <path d="M-2.1 -2.65 L-2.0 -2.55 -2.05 -2.55 -2.1 -2.6 -2.1 -2.65 -2.05 -2.55 -2.1 -2.65" fill="#999999" fill-rule="evenodd" stroke="none"/>
      <path d="M11.0 2.15 L8.65 3.9 -2.0 2.4 -2.85 1.9 Q-9.85 -2.15 -20.35 -3.65 -21.85 -8.3 -27.95 -12.95 L-24.4 -14.05 -17.85 -7.15 -7.8 -4.55 -2.1 -2.6 -2.05 -2.55 -2.0 -2.55 11.0 2.15" fill="#252923" fill-rule="evenodd" stroke="none"/>
      <path d="M-8.9 -16.05 Q-1.9 -15.3 6.05 -13.15 L6.1 -13.1 Q0.5 -7.9 -2.1 -2.65 -3.25 -9.1 -8.9 -16.05" fill="url(#gradient5)" fill-rule="evenodd" stroke="none"/>
      <path d="M-24.4 -14.05 L-27.45 -17.25 -12.8 -16.4 -8.9 -16.05 Q-3.25 -9.1 -2.1 -2.65 L-2.1 -2.6 -7.8 -4.55 -17.85 -7.15 -24.4 -14.05" fill="url(#gradient6)" fill-rule="evenodd" stroke="none"/>
      <path d="M6.1 -13.1 Q12.45 -4.9 14.45 -0.45 L11.0 2.15 -2.0 -2.55 -2.1 -2.65 Q0.5 -7.9 6.1 -13.1" fill="url(#gradient7)" fill-rule="evenodd" stroke="none"/>
      <path d="M6.1 -13.1 Q12.45 -4.9 14.45 -0.45 L11.0 2.15 8.65 3.9 -2.0 2.4 -2.85 1.9 Q-9.85 -2.15 -20.35 -3.65 -21.85 -8.3 -27.95 -12.95 L-24.4 -14.05 -27.45 -17.25 -12.8 -16.4 -8.9 -16.05 Q-1.9 -15.3 6.05 -13.15 L6.1 -13.1 Q0.5 -7.9 -2.1 -2.65 -3.25 -9.1 -8.9 -16.05 M-2.0 -2.55 L11.0 2.15 M-2.05 -2.55 L-2.0 -2.55 M-2.1 -2.6 L-2.05 -2.55 -2.1 -2.65 M-2.1 -2.6 L-7.8 -4.55 -17.85 -7.15 -24.4 -14.05" fill="none" stroke="#000000" stroke-linecap="round" stroke-linejoin="round" stroke-width="0.05"/>
    </g>
    <radialGradient cx="0" cy="0" gradientTransform="matrix(0.0127, 0.0, 0.0, 0.0127, -2.45, -12.55)" gradientUnits="userSpaceOnUse" id="gradient5" r="819.2" spreadMethod="pad">
      <stop offset="0.00392156862745098" stop-color="#d1bb8b"/>
      <stop offset="0.24705882352941178" stop-color="#66482b"/>
      <stop offset="0.8941176470588236" stop-color="#120907"/>
    </radialGradient>
    <radialGradient cx="0" cy="0" gradientTransform="matrix(0.0238, 0.0, 0.0, 0.0238, -15.5, -16.45)" gradientUnits="userSpaceOnUse" id="gradient6" r="819.2" spreadMethod="pad">
      <stop offset="0.0" stop-color="#ddc5a2"/>
      <stop offset="0.25098039215686274" stop-color="#5f5e43"/>
      <stop offset="0.6470588235294118" stop-color="#2c2621"/>
      <stop offset="1.0" stop-color="#22262b"/>
      <stop offset="1.0" stop-color="#070a0a"/>
    </radialGradient>
    <radialGradient cx="0" cy="0" gradientTransform="matrix(0.0153, 0.0, 0.0, 0.0153, 10.45, -3.0)" gradientUnits="userSpaceOnUse" id="gradient7" r="819.2" spreadMethod="pad">
      <stop offset="0.0" stop-color="#ddc5a2"/>
      <stop offset="0.25098039215686274" stop-color="#5f5e43"/>
      <stop offset="0.6470588235294118" stop-color="#2c2621"/>
      <stop offset="1.0" stop-color="#22262b"/>
      <stop offset="1.0" stop-color="#070a0a"/>
    </radialGradient>
    <g id="sprite7" transform="matrix(1.0, 0.0, 0.0, 1.0, 8.9, 2.9)">
      <use ffdec:characterId="2619" height="14.4" transform="matrix(1.0, 0.0, 0.0, 1.0, -8.9, -2.9)" width="17.8" xlink:href="#sprite8"/>
    </g>
    <g id="sprite8" transform="matrix(1.0, 0.0, 0.0, 1.0, 8.85, 2.9)">
      <use ffdec:characterId="2618" height="14.4" transform="matrix(1.0, 0.0, 0.0, 1.0, -8.85, -2.9)" width="17.8" xlink:href="#shape4"/>
    </g>
    <g id="shape4" transform="matrix(1.0, 0.0, 0.0, 1.0, 8.85, 2.9)">
      <path d="M-8.6 0.7 L-3.2 -2.9 -1.9 -1.55 -3.6 2.3 1.6 8.2 2.4 8.3 0.95 8.75 0.1 9.05 -7.7 4.8 -8.85 0.8 -8.6 0.7" fill="url(#gradient8)" fill-rule="evenodd" stroke="none"/>
      <path d="M7.75 6.5 L7.25 11.5 3.35 11.5 0.95 8.75 2.4 8.3 1.6 8.2 5.25 7.4 7.75 6.5" fill="url(#gradient9)" fill-rule="evenodd" stroke="none"/>
      <path d="M-1.9 -1.55 L1.5 -1.95 6.7 1.95 8.95 6.05 7.75 6.5 5.25 7.4 1.6 8.2 -3.6 2.3 -1.9 -1.55" fill="url(#gradient10)" fill-rule="evenodd" stroke="none"/>
      <path d="M-8.6 0.7 L-3.2 -2.9 -1.9 -1.55 1.5 -1.95 6.7 1.95 8.95 6.05 7.75 6.5 7.25 11.5 3.35 11.5 0.95 8.75 0.1 9.05 -7.7 4.8 -8.85 0.8 M0.95 8.75 L2.4 8.3 1.6 8.2 -3.6 2.3 -1.9 -1.55 M1.6 8.2 L5.25 7.4 7.75 6.5" fill="none" stroke="#000000" stroke-linecap="round" stroke-linejoin="round" stroke-width="0.05"/>
    </g>
    <radialGradient cx="0" cy="0" gradientTransform="matrix(0.0151, 0.0, 0.0, 0.0151, -4.65, -1.85)" gradientUnits="userSpaceOnUse" id="gradient8" r="819.2" spreadMethod="pad">
      <stop offset="0.00392156862745098" stop-color="#d1bb8b"/>
      <stop offset="0.24705882352941178" stop-color="#66482b"/>
      <stop offset="0.8941176470588236" stop-color="#120907"/>
    </radialGradient>
    <radialGradient cx="0" cy="0" gradientTransform="matrix(0.0075, 0.0, 0.0, 0.0075, 7.1, 9.15)" gradientUnits="userSpaceOnUse" id="gradient9" r="819.2" spreadMethod="pad">
      <stop offset="0.00392156862745098" stop-color="#d1bb8b"/>
      <stop offset="0.24705882352941178" stop-color="#66482b"/>
      <stop offset="0.8941176470588236" stop-color="#120907"/>
    </radialGradient>
    <radialGradient cx="0" cy="0" gradientTransform="matrix(0.0102, 0.0, 0.0, 0.0102, 4.7, 1.3)" gradientUnits="userSpaceOnUse" id="gradient10" r="819.2" spreadMethod="pad">
      <stop offset="0.0" stop-color="#ddc5a2"/>
      <stop offset="0.25098039215686274" stop-color="#5f5e43"/>
      <stop offset="0.6470588235294118" stop-color="#2c2621"/>
      <stop offset="1.0" stop-color="#22262b"/>
      <stop offset="1.0" stop-color="#070a0a"/>
    </radialGradient>
    <g id="sprite9" transform="matrix(1.0, 0.0, 0.0, 1.0, 7.45, 19.9)">
      <use ffdec:characterId="2613" height="23.0" transform="matrix(1.0, 0.0, 0.0, 1.0, -7.45, -19.9)" width="12.9" xlink:href="#sprite10"/>
    </g>
    <g id="sprite10" transform="matrix(1.0, 0.0, 0.0, 1.0, 7.8, 20.0)">
      <use ffdec:characterId="2612" height="23.0" transform="matrix(1.0, 0.0, 0.0, 1.0, -7.8, -20.0)" width="12.9" xlink:href="#shape5"/>
    </g>
    <g id="shape5" transform="matrix(1.0, 0.0, 0.0, 1.0, 7.8, 20.0)">
      <path d="M-2.15 3.0 L-2.2 3.0 -2.2 2.95 -2.15 3.0" fill="#999999" fill-rule="evenodd" stroke="none"/>
      <path d="M-2.2 2.95 Q-8.85 -6.6 -7.6 -19.25 -6.35 -8.1 0.35 1.9 L-0.05 2.15 -2.15 3.0 -2.2 2.95" fill="url(#gradient11)" fill-rule="evenodd" stroke="none"/>
      <path d="M5.1 1.3 L1.9 1.0 Q-2.55 -8.55 -1.25 -20.0 -1.15 -8.85 5.1 1.3" fill="url(#gradient12)" fill-rule="evenodd" stroke="none"/>
      <path d="M-2.15 3.0 L-2.2 3.0 -2.2 2.95 Q-8.85 -6.6 -7.6 -19.25 -6.35 -8.1 0.35 1.9 M-0.05 2.15 L-2.15 3.0 M5.1 1.3 Q-1.15 -8.85 -1.25 -20.0 -2.55 -8.55 1.9 1.0 L5.1 1.3 Z" fill="none" stroke="#000000" stroke-linecap="round" stroke-linejoin="round" stroke-width="0.05"/>
    </g>
    <radialGradient cx="0" cy="0" gradientTransform="matrix(0.0195, 0.0, 0.0, 0.0195, -7.55, -11.9)" gradientUnits="userSpaceOnUse" id="gradient11" r="819.2" spreadMethod="pad">
      <stop offset="0.0" stop-color="#5b4b35"/>
      <stop offset="1.0" stop-color="#343943"/>
    </radialGradient>
    <radialGradient cx="0" cy="0" gradientTransform="matrix(0.0188, 0.0, 0.0, 0.0188, -0.9, -12.9)" gradientUnits="userSpaceOnUse" id="gradient12" r="819.2" spreadMethod="pad">
      <stop offset="0.0" stop-color="#5b4b35"/>
      <stop offset="1.0" stop-color="#343943"/>
    </radialGradient>
    <g id="sprite11" transform="matrix(1.0, 0.0, 0.0, 1.0, 13.1, 6.05)">
      <use ffdec:characterId="164" height="6.05" transform="matrix(1.0, 0.0, 0.0, 1.0, -13.1, -3.0)" width="6.05" xlink:href="#sprite12"/>
      <use ffdec:characterId="164" height="6.05" transform="matrix(1.0, 0.0, 0.0, 1.0, 9.4, -3.0)" width="6.05" xlink:href="#sprite12"/>
      <use ffdec:characterId="164" height="6.05" transform="matrix(2.0, 0.0, 0.0, 2.0, -6.45, -6.05)" width="6.05" xlink:href="#sprite12"/>
      <use ffdec:characterId="164" height="6.05" transform="matrix(0.4, 0.0, 0.0, 0.4, -0.8, -1.17)" width="6.05" xlink:href="#sprite12"/>
    </g>
    <g id="sprite12" transform="matrix(1.0, 0.0, 0.0, 1.0, 3.0, 3.05)">
      <use ffdec:characterId="163" height="6.05" transform="matrix(1.0, 0.0, 0.0, 1.0, -3.0, -3.05)" width="6.05" xlink:href="#shape6"/>
    </g>
    <g id="shape6" transform="matrix(1.0, 0.0, 0.0, 1.0, 3.0, 3.05)">
      <path d="M-2.3 -1.95 L-1.9 -2.35 -0.25 -0.65 -0.25 -3.05 0.3 -3.05 0.3 -0.7 1.95 -2.35 2.35 -1.95 0.7 -0.3 3.05 -0.3 3.05 0.25 0.7 0.25 2.35 1.95 1.95 2.35 0.3 0.7 0.3 3.0 -0.25 3.0 -0.25 0.65 -1.9 2.35 -2.3 1.95 -0.65 0.25 -3.0 0.25 -3.0 -0.3 -0.65 -0.3 -2.3 -1.95" fill="#ffffff" fill-rule="evenodd" stroke="none"/>
    </g>
  </defs>
</svg>
