<?xml version="1.0" encoding="UTF-8" standalone="no"?>
<svg xmlns:ffdec="https://www.free-decompiler.com/flash" xmlns:xlink="http://www.w3.org/1999/xlink" ffdec:objectType="frame" height="141.4px" width="141.5px" xmlns="http://www.w3.org/2000/svg">
  <g transform="matrix(2.0, 0.0, 0.0, 2.0, 70.7, 69.3)">
    <use ffdec:characterId="3195" height="54.0" transform="matrix(0.8305, 0.4109, -0.4109, 0.8305, -11.278, -32.8185)" width="54.0" xlink:href="#shape0"/>
    <use ffdec:characterId="3195" height="54.0" transform="matrix(0.2366, 0.4891, -0.4891, 0.2366, 6.8663, -18.8937)" width="54.0" xlink:href="#shape0"/>
    <use ffdec:characterId="3194" height="30.0" transform="matrix(0.2366, -0.4891, 0.4891, 0.2366, -10.8354, 4.2868)" width="30.0" xlink:href="#shape1"/>
  </g>
  <defs>
    <g id="shape0" transform="matrix(1.0, 0.0, 0.0, 1.0, 27.0, 27.0)">
      <path d="M17.0 -2.0 Q16.95 -8.2 12.6 -12.6 8.2 -17.0 2.0 -17.0 L2.0 -27.0 Q10.25 -27.0 16.6 -22.35 L19.65 -19.7 Q27.0 -12.4 27.0 -2.0 L17.0 -2.0 M-2.0 27.0 Q-12.35 27.0 -19.7 19.7 -27.05 12.4 -27.0 2.0 L-17.0 2.0 Q-17.0 8.25 -12.6 12.65 -8.25 17.0 -2.0 17.0 L-2.0 27.0" fill="url(#gradient0)" fill-rule="evenodd" stroke="none"/>
    </g>
    <radialGradient cx="0" cy="0" gradientTransform="matrix(0.0342, 0.0, 0.0, 0.0342, 0.0, 0.5)" gradientUnits="userSpaceOnUse" id="gradient0" r="819.2" spreadMethod="pad">
      <stop offset="0.7568627450980392" stop-color="#ffffff" stop-opacity="0.6901961"/>
      <stop offset="0.9333333333333333" stop-color="#ffffff" stop-opacity="0.0"/>
    </radialGradient>
    <g id="shape1" transform="matrix(1.0, 0.0, 0.0, 1.0, 15.0, 15.0)">
      <path d="M0.0 -10.25 Q-4.15 -10.25 -7.1 -7.25 -10.05 -4.25 -10.05 0.0 L-15.0 0.0 Q-15.0 -6.2 -10.6 -10.6 -6.25 -15.0 0.0 -15.0 L0.0 -10.25 M10.6 10.65 Q6.2 15.0 0.0 15.0 L0.0 10.25 Q4.15 10.25 7.1 7.25 10.05 4.25 10.05 0.0 L15.0 0.0 Q14.95 6.25 10.6 10.65" fill="url(#gradient1)" fill-rule="evenodd" stroke="none"/>
    </g>
    <radialGradient cx="0" cy="0" gradientTransform="matrix(0.0189, 0.0, 0.0, 0.0189, 0.0, 0.0)" gradientUnits="userSpaceOnUse" id="gradient1" r="819.2" spreadMethod="pad">
      <stop offset="0.6274509803921569" stop-color="#ffffff"/>
      <stop offset="1.0" stop-color="#ffffff" stop-opacity="0.0"/>
    </radialGradient>
  </defs>
</svg>
