<?xml version="1.0" encoding="UTF-8" standalone="no"?>
<svg xmlns:ffdec="https://www.free-decompiler.com/flash" xmlns:xlink="http://www.w3.org/1999/xlink" ffdec:objectType="frame" height="358.4px" width="96.1px" xmlns="http://www.w3.org/2000/svg">
  <g transform="matrix(2.0, 0.0, 0.0, 2.0, -5.7, -9.2)">
    <use ffdec:characterId="3882" height="179.2" transform="matrix(1.0, 0.0, 0.0, 1.0, 2.85, 4.6)" width="47.15" xlink:href="#shape0"/>
  </g>
  <defs>
    <g id="shape0" transform="matrix(1.0, 0.0, 0.0, 1.0, -2.85, -4.6)">
      <path d="M45.6 38.85 Q40.6 54.2 41.0 70.4 41.45 87.7 40.3 104.95 39.65 114.85 36.25 124.4 30.45 140.5 36.4 156.15 L43.3 174.8 28.5 183.8 Q19.9 173.55 19.3 160.3 18.65 146.8 21.0 133.4 24.35 114.2 19.2 95.5 15.75 83.05 11.0 70.9 1.25 45.9 3.15 19.1 L4.1 4.6 49.55 4.6 49.85 6.2 Q50.8 22.9 45.6 38.85" fill="#000000" fill-opacity="0.101960786" fill-rule="evenodd" stroke="none"/>
    </g>
  </defs>
</svg>
