<?xml version="1.0" encoding="UTF-8" standalone="no"?>
<svg xmlns:ffdec="https://www.free-decompiler.com/flash" xmlns:xlink="http://www.w3.org/1999/xlink" ffdec:objectType="frame" height="358.4px" width="96.1px" xmlns="http://www.w3.org/2000/svg">
  <g transform="matrix(2.0, 0.0, 0.0, 2.0, -5.7, -9.2)">
    <use ffdec:characterId="3890" height="179.2" transform="matrix(1.0011, 0.0, 0.0, 1.0, 4.1545, 4.6)" width="45.95" xlink:href="#shape0"/>
  </g>
  <defs>
    <g id="shape0" transform="matrix(1.0, 0.0, 0.0, 1.0, -4.15, -4.6)">
      <path d="M49.85 6.2 L49.85 6.25 Q51.05 22.75 46.9 38.6 L46.7 39.25 Q42.65 54.4 42.0 70.05 L41.95 71.05 Q41.35 85.2 40.05 98.65 L39.2 105.65 Q37.85 115.3 34.05 124.6 L33.9 124.9 Q28.55 137.75 33.4 150.8 L35.65 156.35 Q40.15 166.0 43.3 174.8 L28.5 183.8 Q19.95 173.6 18.8 160.45 L18.75 159.75 Q17.65 146.9 18.8 133.5 L19.05 129.9 Q19.95 113.85 18.2 98.35 L17.8 95.5 Q15.95 83.2 12.75 70.55 L11.45 65.2 Q7.25 46.85 5.15 28.1 4.65 23.45 4.5 18.9 4.05 11.35 4.2 4.6 L49.55 4.6 49.85 6.2" fill="#000000" fill-opacity="0.101960786" fill-rule="evenodd" stroke="none"/>
    </g>
  </defs>
</svg>
