<?xml version="1.0" encoding="UTF-8" standalone="no"?>
<svg xmlns:ffdec="https://www.free-decompiler.com/flash" xmlns:xlink="http://www.w3.org/1999/xlink" ffdec:objectType="frame" height="2021.0px" width="4592.9px" xmlns="http://www.w3.org/2000/svg">
  <g transform="matrix(2.0, 0.0, 0.0, 2.0, 2126.0, 970.4)">
    <use ffdec:characterId="4084" height="513.0" transform="matrix(0.9847, 0.1616, -0.1761, 1.0733, -283.7, -409.1)" width="783.0" xlink:href="#sprite0"/>
    <filter id="filter2"/>
    <use ffdec:characterId="4082" filter="url(#filter2)" height="432.5" transform="matrix(0.7384, 0.0, 0.0, 0.7384, -306.0, -199.8858)" width="477.2" xlink:href="#sprite1"/>
    <filter id="filter5">
      <feConvolveMatrix divisor="64.0" in="SourceGraphic" kernelMatrix="1 1 1 1 1 1 1 1 1 1 1 1 1 1 1 1 1 1 1 1 1 1 1 1 1 1 1 1 1 1 1 1 1 1 1 1 1 1 1 1 1 1 1 1 1 1 1 1 1 1 1 1 1 1 1 1 1 1 1 1 1 1 1 1" order="8 8" result="filterResult16"/>
    </filter>
    <use ffdec:characterId="4101" filter="url(#filter5)" height="317.0" transform="matrix(1.3281, 0.0, 0.0, 1.3281, -67.4578, -258.5)" width="349.85" xlink:href="#sprite3"/>
    <use ffdec:characterId="4043" height="393.15" style="mix-blend-mode: overlay" transform="matrix(1.0, 0.0, 0.0, 1.0, -288.85, -234.4)" width="726.2" xlink:href="#sprite5"/>
    <use ffdec:characterId="4041" height="300.0" transform="matrix(1.0461, 0.0, 0.0, 1.0461, -227.6203, -216.3645)" width="533.0" xlink:href="#sprite6"/>
  </g>
  <defs>
    <g id="sprite0" transform="matrix(1.0, 0.0, 0.0, 1.0, 0.0, 0.0)">
      <use ffdec:characterId="4083" height="513.0" transform="matrix(1.0, 0.0, 0.0, 1.0, 0.0, 0.0)" width="783.0" xlink:href="#shape0"/>
    </g>
    <g id="shape0" transform="matrix(1.0, 0.0, 0.0, 1.0, 0.0, 0.0)">
      <path d="M783.0 9.1 L774.45 513.0 0.0 503.9 8.6 0.0 783.0 9.1" fill="url(#gradient0)" fill-rule="evenodd" stroke="none"/>
    </g>
    <linearGradient gradientTransform="matrix(-0.0053, 0.3076, -0.4727, -0.0056, 391.5, 256.5)" gradientUnits="userSpaceOnUse" id="gradient0" spreadMethod="pad" x1="-819.2" x2="819.2">
      <stop offset="0.0" stop-color="#626262"/>
      <stop offset="1.0" stop-color="#000000"/>
    </linearGradient>
    <g id="sprite1" transform="matrix(1.0, 0.0, 0.0, 1.0, 0.0, -16.0)">
      <use ffdec:characterId="4081" height="432.5" transform="matrix(1.0, 0.0, 0.0, 1.0, 0.0, 16.0)" width="477.2" xlink:href="#shape1"/>
      <filter id="filter0">
        <feColorMatrix in="SourceGraphic" result="filterResult0" type="matrix" values="0 0 0 0 1.0,0 0 0 0 1.0,0 0 0 0 0.8,0 0 0 1 0"/>
        <feConvolveMatrix divisor="64.0" in="filterResult0" kernelMatrix="1 1 1 1 1 1 1 1 1 1 1 1 1 1 1 1 1 1 1 1 1 1 1 1 1 1 1 1 1 1 1 1 1 1 1 1 1 1 1 1 1 1 1 1 1 1 1 1 1 1 1 1 1 1 1 1 1 1 1 1 1 1 1 1" order="8 8" result="filterResult1"/>
        <feConvolveMatrix divisor="64.0" in="filterResult1" kernelMatrix="1 1 1 1 1 1 1 1 1 1 1 1 1 1 1 1 1 1 1 1 1 1 1 1 1 1 1 1 1 1 1 1 1 1 1 1 1 1 1 1 1 1 1 1 1 1 1 1 1 1 1 1 1 1 1 1 1 1 1 1 1 1 1 1" order="8 8" result="filterResult2"/>
        <feComposite in="SourceGraphic" in2="filterResult2" operator="over" result="filterResult3"/>
      </filter>
      <use ffdec:characterId="4080" filter="url(#filter0)" height="7.7" transform="matrix(-1.0, 0.0, 0.0, 1.0, 352.45, 131.15)" width="8.05" xlink:href="#sprite2"/>
      <filter id="filter1">
        <feColorMatrix in="SourceGraphic" result="filterResult4" type="matrix" values="0 0 0 0 1.0,0 0 0 0 1.0,0 0 0 0 0.8,0 0 0 1 0"/>
        <feConvolveMatrix divisor="64.0" in="filterResult4" kernelMatrix="1 1 1 1 1 1 1 1 1 1 1 1 1 1 1 1 1 1 1 1 1 1 1 1 1 1 1 1 1 1 1 1 1 1 1 1 1 1 1 1 1 1 1 1 1 1 1 1 1 1 1 1 1 1 1 1 1 1 1 1 1 1 1 1" order="8 8" result="filterResult5"/>
        <feConvolveMatrix divisor="64.0" in="filterResult5" kernelMatrix="1 1 1 1 1 1 1 1 1 1 1 1 1 1 1 1 1 1 1 1 1 1 1 1 1 1 1 1 1 1 1 1 1 1 1 1 1 1 1 1 1 1 1 1 1 1 1 1 1 1 1 1 1 1 1 1 1 1 1 1 1 1 1 1" order="8 8" result="filterResult6"/>
        <feComposite in="SourceGraphic" in2="filterResult6" operator="over" result="filterResult7"/>
      </filter>
      <use ffdec:characterId="4080" filter="url(#filter1)" height="7.7" transform="matrix(-0.7467, 0.0, 0.0, 0.7467, 386.35, 145.9289)" width="8.05" xlink:href="#sprite2"/>
    </g>
    <g id="shape1" transform="matrix(1.0, 0.0, 0.0, 1.0, 0.0, -16.0)">
      <path d="M367.3 300.85 Q370.15 296.8 376.95 296.8 388.85 296.8 392.35 312.7 393.65 318.75 393.65 333.95 L393.6 341.05 Q393.4 346.2 392.3 349.3 L388.9 355.5 Q386.3 360.05 386.1 363.45 L385.25 377.8 Q384.9 386.4 385.55 393.0 386.0 398.3 384.6 407.15 L381.7 422.35 Q381.4 423.95 378.35 428.8 375.25 433.75 374.6 436.55 373.75 440.5 367.7 444.55 361.85 448.5 357.4 448.5 352.85 448.5 350.55 446.05 349.05 443.6 348.6 443.6 346.95 443.6 346.1 445.25 345.25 446.85 343.55 446.85 336.2 446.85 331.1 439.25 L330.4 438.2 329.55 438.2 Q325.25 438.2 322.85 435.4 321.85 434.25 320.45 433.6 L314.05 434.65 306.95 435.5 Q305.6 435.85 239.95 435.5 235.0 435.5 224.65 439.85 214.3 444.15 209.75 444.15 202.6 444.15 200.95 439.35 200.35 437.65 200.6 432.15 L189.05 431.4 184.1 431.15 Q180.9 431.15 156.7 438.75 132.55 446.3 122.85 446.3 103.0 446.3 100.0 442.35 99.1 441.2 99.35 438.9 99.65 436.65 99.05 435.85 97.3 433.5 92.9 429.8 88.9 426.4 87.9 424.7 83.75 417.85 83.6 412.1 84.2 406.0 83.85 402.45 83.6 399.7 83.6 391.25 83.6 383.95 82.85 380.0 81.1 371.0 81.85 367.85 83.15 362.5 83.15 358.75 L83.15 349.65 80.9 347.55 Q78.5 345.35 78.1 344.55 L77.8 343.5 77.75 340.5 Q80.3 326.35 83.5 320.1 83.85 319.5 84.4 316.15 85.0 312.45 85.8 310.25 88.6 302.55 96.65 302.55 102.0 302.55 103.7 304.6 L104.85 305.95 Q105.55 306.6 106.95 306.6 108.75 306.6 111.4 305.05 114.8 303.05 117.75 302.2 118.25 302.05 120.65 303.1 123.35 304.25 125.2 304.25 125.85 304.25 129.15 301.2 132.5 298.15 135.3 298.15 137.0 298.15 138.7 299.7 140.4 301.2 142.05 301.2 L149.25 294.8 Q156.75 288.35 160.95 288.35 162.6 288.35 165.4 290.25 L168.2 292.1 Q169.45 292.1 170.8 290.4 L173.4 286.6 Q177.35 281.1 182.75 281.1 184.15 281.1 186.95 282.9 L189.8 284.65 Q190.35 284.65 193.5 282.8 197.6 280.35 200.95 278.9 202.55 278.4 206.3 279.45 210.65 280.6 212.1 282.95 212.35 283.75 215.75 290.6 218.15 295.4 218.15 299.5 L223.85 298.0 Q227.85 296.8 229.5 295.45 231.2 293.5 232.6 292.4 235.15 290.4 238.25 290.4 242.25 290.4 244.75 293.05 247.05 295.55 247.05 299.15 247.05 301.0 245.6 304.2 243.95 307.9 241.65 309.95 L241.65 310.3 262.15 306.85 Q285.2 303.55 306.6 303.55 L322.9 305.1 339.15 306.6 Q340.85 306.6 345.9 305.1 351.0 303.55 352.65 303.55 354.35 303.55 357.25 305.1 360.1 306.6 361.8 306.6 L364.45 306.4 365.85 305.9 Q365.3 303.7 367.3 300.85" fill="#000000" fill-rule="evenodd" stroke="none"/>
      <path d="M378.6 33.65 L373.25 33.9 Q372.25 34.1 370.95 34.8 L369.2 35.65 372.65 37.8 376.35 39.85 Q378.65 41.35 381.3 43.9 L389.25 52.0 Q390.9 53.8 394.8 59.55 399.45 66.4 399.45 68.25 L399.0 69.05 398.5 69.3 Q397.4 69.3 396.05 68.75 L394.1 67.9 395.1 69.95 396.35 72.3 397.55 74.7 Q400.55 81.05 401.3 84.0 402.2 87.4 402.85 93.35 403.7 100.7 404.1 102.8 L404.0 103.15 403.5 103.3 Q402.55 103.3 401.05 99.1 L399.2 94.9 397.4 90.65 397.25 90.15 398.0 98.1 Q399.3 105.8 403.95 111.25 L403.8 111.6 403.25 111.8 Q401.1 111.8 397.15 107.9 394.0 104.8 392.8 102.85 389.65 97.75 389.0 94.1 L389.25 99.55 Q389.5 105.25 391.0 109.55 L392.45 111.25 Q396.9 116.4 400.85 119.0 L400.85 119.4 Q401.25 119.95 400.0 119.95 398.85 119.95 392.0 116.7 L394.3 124.0 Q396.65 130.95 399.55 136.4 L399.4 136.65 398.85 136.75 Q396.45 136.75 390.55 128.65 L390.8 131.65 Q392.95 132.25 392.95 135.25 L392.8 136.75 Q392.4 137.8 391.05 137.95 L390.8 141.55 390.65 142.65 390.75 142.95 390.55 143.15 389.75 145.75 389.45 146.55 389.2 146.9 389.05 147.2 Q388.25 148.85 387.45 149.7 L385.2 151.8 Q384.05 152.65 382.9 154.3 L381.8 155.9 Q381.0 157.35 381.0 158.8 381.0 159.35 382.15 165.2 383.3 171.1 383.3 172.75 L383.15 175.65 Q382.7 177.25 380.55 178.95 L376.8 181.3 Q373.9 182.9 372.65 183.05 371.9 184.25 371.7 185.05 L371.0 188.35 Q371.0 190.5 371.25 192.05 L371.7 193.75 371.7 193.9 371.8 194.25 372.05 197.0 371.85 198.5 372.05 198.75 371.7 199.05 Q370.7 202.85 366.85 212.5 L364.05 218.55 362.0 222.95 361.6 223.1 Q360.95 224.7 360.95 225.4 L359.6 229.2 Q358.15 233.05 357.95 234.05 L357.3 236.6 355.55 242.5 354.9 245.05 354.4 246.75 354.25 247.3 353.25 249.75 352.6 250.95 Q351.55 252.75 349.85 254.3 L349.6 254.25 349.5 254.3 350.25 254.45 350.45 254.45 350.6 254.45 350.75 254.55 354.65 255.25 Q356.15 254.9 358.35 256.35 360.55 257.85 360.6 259.2 L361.2 259.05 363.2 261.45 Q365.25 263.35 367.55 264.55 370.05 265.9 374.35 267.2 377.5 268.15 380.6 270.15 L385.45 273.55 388.1 275.2 Q389.85 274.3 392.3 273.7 396.95 272.6 399.35 274.6 L401.8 276.2 405.2 278.15 405.3 278.25 407.1 278.95 Q420.3 283.45 433.0 288.7 436.6 290.15 444.75 293.95 453.35 297.95 457.2 299.55 L469.2 304.8 Q477.2 308.7 477.2 310.45 477.2 311.8 473.75 313.6 470.25 315.5 465.6 316.6 L460.55 317.7 444.75 318.6 429.1 317.95 426.5 319.0 Q417.25 322.5 406.75 322.5 403.8 322.5 398.1 321.15 391.8 319.7 388.35 319.45 384.95 319.2 381.6 317.05 L379.35 315.35 Q367.25 314.05 367.25 311.35 L367.45 310.55 Q362.8 311.75 351.7 315.9 345.35 318.25 337.0 318.25 L322.55 317.5 294.95 316.25 281.25 315.35 271.45 314.25 230.45 310.25 212.75 308.2 201.3 306.9 203.75 309.85 207.5 314.05 207.25 314.35 Q203.15 311.3 199.7 306.75 L195.45 306.25 193.65 306.0 192.95 306.75 Q192.2 307.65 192.2 307.85 192.2 308.45 193.85 309.95 195.5 311.45 195.5 312.0 195.5 313.65 187.5 314.95 178.25 316.45 163.25 316.45 L138.3 315.7 Q134.45 317.3 132.5 317.55 L132.3 317.45 135.9 315.6 109.7 314.6 83.65 313.6 83.55 315.95 83.3 316.7 Q82.05 316.4 81.7 314.5 L81.6 313.5 72.45 313.15 61.95 317.25 61.8 317.05 69.95 313.05 39.55 311.85 18.55 310.4 Q0.0 308.5 0.0 305.8 0.0 304.7 3.25 301.1 5.45 298.65 6.55 298.45 13.75 291.8 27.05 282.05 28.8 280.75 30.75 279.5 L30.65 279.45 30.6 279.1 30.65 278.7 31.8 278.85 Q46.0 269.8 70.05 261.2 77.95 258.4 92.7 254.9 107.8 251.25 117.05 250.05 L129.05 247.95 135.9 246.85 141.6 245.85 152.15 243.35 157.15 241.8 160.55 241.35 162.05 241.25 161.6 240.45 Q162.45 240.15 164.3 240.8 165.75 241.3 166.75 241.95 168.35 242.15 170.0 243.25 L170.85 243.75 171.05 243.6 Q175.8 240.75 178.1 240.2 L191.55 236.8 Q197.95 235.3 201.65 235.2 L203.0 234.2 204.8 234.65 207.05 233.35 Q208.1 233.1 210.65 231.65 212.85 230.75 215.6 230.45 L215.6 230.35 216.75 230.35 217.7 230.3 218.15 230.4 218.25 230.5 220.75 228.15 222.35 226.45 224.1 224.65 224.6 224.8 224.65 224.8 224.3 224.65 225.8 222.55 Q228.2 219.0 229.85 215.7 L230.8 213.45 230.7 213.3 230.6 212.1 226.15 216.3 Q223.2 218.95 222.45 218.95 L221.45 218.9 221.35 218.3 222.95 214.6 Q224.7 210.65 225.2 208.05 225.95 203.8 225.95 198.1 L225.7 192.7 224.95 187.45 Q224.95 187.05 225.1 186.9 L225.45 186.8 225.2 185.15 Q224.75 180.6 222.25 174.6 L220.1 169.9 219.95 171.15 Q219.55 175.65 214.95 180.35 L213.7 180.35 213.6 179.15 Q214.2 174.55 214.2 172.6 L214.2 153.55 213.75 148.25 Q213.75 146.15 213.0 145.65 L213.3 145.35 Q212.9 143.4 213.2 140.5 213.3 139.2 211.55 136.9 L208.8 133.45 Q207.25 131.15 206.65 129.85 205.65 127.8 205.7 126.4 L205.85 124.7 Q205.9 123.55 205.6 122.9 205.05 121.65 203.3 120.7 L201.7 119.9 201.7 119.6 205.4 118.6 204.85 116.35 Q202.85 108.35 202.85 104.05 202.85 91.85 206.25 84.6 207.4 82.25 209.2 80.7 L209.0 80.3 208.45 80.3 208.2 78.5 Q208.2 76.9 211.25 71.65 213.85 67.2 214.7 66.25 218.35 61.85 220.45 60.15 224.85 56.65 232.35 54.3 L232.8 54.2 Q232.4 53.55 230.2 52.9 228.0 52.2 226.35 52.2 223.4 52.2 220.7 53.15 219.2 53.7 218.45 54.25 217.35 53.75 217.35 53.6 217.35 53.25 220.65 49.75 L224.45 45.9 228.25 42.3 Q230.8 40.05 233.7 38.15 235.9 36.7 240.9 34.8 244.55 33.45 248.0 32.45 L251.75 31.85 256.6 31.2 Q264.2 30.7 272.55 30.95 273.55 29.7 277.55 26.6 282.55 22.65 283.85 22.05 290.0 19.1 294.15 17.85 298.9 16.4 304.75 16.05 313.4 15.95 316.05 16.15 318.5 16.3 318.95 16.9 L316.3 17.9 Q313.9 18.65 313.1 19.15 311.85 20.0 310.2 21.8 L310.3 22.2 312.7 21.45 320.25 21.1 328.35 21.9 Q335.2 22.9 335.2 24.2 335.2 24.8 332.8 26.05 L329.5 27.8 329.35 28.0 332.25 26.9 336.25 26.25 345.5 25.55 365.05 26.25 Q365.6 26.35 367.05 27.0 368.55 27.75 371.5 28.4 373.35 28.75 376.3 30.2 379.7 31.85 379.7 32.9 379.7 33.75 378.6 33.65 M354.1 94.7 L350.5 95.2 347.2 95.6 345.3 98.25 Q347.75 99.55 351.7 99.9 354.75 100.25 356.7 100.9 357.6 101.25 359.1 102.05 L358.55 102.7 353.6 103.35 351.25 103.8 Q350.3 104.3 349.2 104.6 L347.4 104.95 Q346.75 105.1 346.25 105.35 L347.9 106.8 Q351.2 110.5 354.1 113.0 L357.35 116.0 361.05 119.2 365.3 123.05 Q368.4 125.15 369.4 126.7 L370.1 127.55 Q372.85 130.85 372.85 133.45 L372.3 137.3 Q371.75 140.05 371.85 140.75 L371.75 140.75 Q371.85 145.35 375.45 156.55 379.1 168.0 379.1 172.45 L379.0 175.85 Q378.7 177.75 377.7 179.2 L379.55 178.15 Q381.5 176.95 382.0 175.5 L382.2 172.65 381.5 167.95 380.75 163.25 Q380.0 160.0 380.0 158.85 380.0 157.5 380.5 156.3 L380.55 156.2 380.55 156.1 Q380.55 155.45 382.0 153.55 L382.25 153.25 Q381.35 152.85 379.8 150.9 L377.3 147.6 Q375.85 146.05 375.85 144.6 L375.6 141.8 375.6 141.6 375.55 141.65 375.45 141.6 375.45 141.25 375.55 140.85 375.35 140.15 Q375.35 138.7 378.1 136.5 380.75 134.3 384.15 132.9 387.55 131.45 389.65 131.5 L388.75 121.7 388.15 114.9 382.75 112.2 Q378.25 110.0 375.95 108.45 373.35 106.65 371.35 104.35 365.85 97.95 363.7 93.25 L363.2 92.0 359.75 93.2 Q356.3 94.4 354.1 94.7 M387.4 87.65 L387.45 88.65 387.55 90.55 387.75 93.7 387.95 89.2 387.4 87.65 M374.55 132.6 L374.9 133.05 Q374.9 133.55 373.5 135.5 L373.4 135.5 Q373.6 134.45 373.75 134.15 L374.15 132.85 Q374.15 132.4 374.55 132.6 M384.25 142.2 L387.25 141.9 389.65 142.1 389.7 141.3 389.75 140.55 388.1 140.6 Q385.7 140.6 384.6 141.55 L384.25 142.2 M375.55 136.45 Q376.15 135.6 376.8 135.4 L374.95 138.1 374.85 138.05 Q374.95 137.25 375.55 136.45 M389.7 139.15 L389.8 139.25 389.8 139.1 389.7 139.15 M386.65 137.35 L386.7 137.4 386.7 137.35 386.65 137.35 M384.9 143.7 L385.3 143.9 385.35 143.7 384.9 143.7 M387.85 147.35 Q387.35 147.25 387.2 147.0 L387.35 147.85 387.85 147.35 M354.05 120.8 L354.6 120.95 354.15 120.75 353.95 120.8 354.05 120.8 M346.55 121.1 L341.9 121.85 343.6 122.4 346.95 123.1 Q350.3 123.95 352.9 125.05 L354.6 125.85 Q353.95 124.4 353.3 123.65 351.7 121.7 346.55 121.1 M357.75 121.75 L358.0 121.75 357.85 121.7 357.75 121.75 M337.25 139.15 L335.2 140.8 Q333.3 142.0 330.45 141.9 L326.8 141.5 Q325.35 141.5 324.75 145.05 324.5 146.75 324.5 148.6 324.5 151.0 326.25 155.05 L328.8 161.45 Q330.75 168.4 330.75 174.3 330.75 176.7 329.2 182.05 331.15 180.3 333.55 176.8 L336.35 172.5 Q338.45 169.6 344.2 163.05 345.9 161.05 346.0 158.1 345.8 154.9 346.0 153.15 346.15 152.0 349.3 148.45 350.05 147.6 350.65 146.15 351.25 144.75 351.25 143.8 351.25 143.05 349.4 141.6 347.5 140.2 347.5 139.7 L347.55 139.3 349.8 138.95 352.45 138.4 Q351.7 137.6 348.3 136.5 344.85 135.4 341.25 134.85 338.9 137.95 337.25 139.15 M362.1 193.5 L363.3 195.9 364.2 197.65 Q365.1 199.8 365.1 201.8 365.1 205.25 362.35 209.0 359.6 212.85 357.0 212.85 L353.1 212.2 349.55 211.55 347.3 211.6 Q347.45 212.5 348.1 213.75 L349.35 215.8 Q349.6 216.25 352.3 217.7 L354.65 219.15 354.85 219.4 354.35 219.4 349.9 219.85 347.6 219.6 346.0 219.35 341.85 218.8 Q333.15 219.25 329.1 220.25 L328.95 220.25 Q328.55 220.25 328.25 220.55 L327.2 220.95 Q325.2 221.75 325.2 222.95 L325.4 223.8 326.05 224.35 Q327.05 227.45 330.0 231.5 L332.8 233.85 336.6 235.95 340.75 237.85 Q341.05 238.25 340.7 239.9 L340.9 240.85 Q341.4 242.5 343.75 244.6 L344.05 244.9 Q346.6 247.2 347.75 247.2 350.3 247.2 351.45 246.65 L353.15 245.6 353.35 245.05 355.55 237.25 355.65 237.05 358.8 226.7 360.65 221.25 Q361.25 219.8 362.0 218.7 362.7 217.65 363.5 216.9 L365.6 212.1 368.75 203.8 370.65 198.25 370.0 197.45 368.7 195.65 367.4 195.1 362.55 193.5 362.1 193.5 M363.35 184.8 Q366.5 186.65 368.9 189.0 L369.95 190.1 Q370.0 184.9 371.7 182.5 L371.7 182.45 371.8 182.35 371.25 182.35 367.95 183.5 363.8 184.6 363.35 184.8 M410.05 281.45 L413.0 283.25 419.4 287.8 Q423.8 290.95 425.25 292.7 433.05 302.0 437.2 308.2 L444.5 309.95 Q450.05 309.95 452.05 308.3 453.2 307.4 454.25 305.45 L456.15 303.85 Q455.75 303.3 455.75 300.7 L455.65 300.5 455.7 300.45 Q451.35 298.7 445.2 295.75 L435.05 290.95 Q431.45 289.35 423.95 286.7 416.2 283.95 412.2 282.2 L410.05 281.45 M333.7 198.4 Q331.2 200.3 329.3 202.5 324.2 208.15 322.95 215.9 L325.45 211.6 Q327.05 208.8 328.5 207.1 L330.65 205.0 Q332.15 203.5 332.2 202.55 L332.15 201.95 Q332.25 201.3 332.7 200.35 L333.7 198.4 M346.15 256.4 L343.95 257.35 Q339.75 259.1 337.5 259.1 328.9 259.1 324.2 257.75 322.25 257.2 315.15 254.15 L310.8 253.05 305.65 252.2 Q302.65 252.2 294.25 255.95 292.45 256.75 289.7 258.3 L284.8 261.0 Q277.15 265.1 273.4 271.4 L278.35 275.3 Q281.6 277.85 289.9 282.95 L300.6 289.95 308.6 284.0 325.6 271.7 Q334.9 264.65 338.05 262.45 L344.8 257.35 346.15 256.4 M385.95 316.15 Q390.35 317.95 399.85 317.95 L421.4 317.6 387.7 315.95 385.2 315.8 385.95 316.15 M375.15 306.75 L372.85 308.05 371.1 309.0 Q368.9 310.75 368.9 311.4 368.9 312.8 378.25 313.85 L378.0 313.0 Q377.85 311.75 376.3 308.9 L375.15 306.75 M475.4 310.45 Q475.4 308.85 458.05 301.4 L458.95 303.55 458.6 305.65 Q458.25 307.15 458.25 307.95 458.25 308.5 457.9 309.05 457.25 310.15 455.45 310.5 L454.5 310.45 Q454.25 310.3 454.25 309.45 L454.4 308.95 453.75 309.5 Q450.9 311.95 446.6 311.95 444.35 311.95 439.4 310.6 L438.6 310.4 439.25 311.45 Q437.2 310.85 435.7 309.55 L434.75 309.25 433.7 309.25 Q435.7 311.35 435.7 311.7 435.7 314.35 431.3 316.8 L444.7 317.2 Q453.15 317.2 464.4 315.45 467.15 315.0 471.3 313.1 475.4 311.25 475.4 310.45 M456.75 306.7 L456.5 306.5 455.1 308.2 Q455.8 307.75 456.75 307.75 L456.75 306.7 M432.25 306.7 L433.7 307.2 431.85 304.2 432.25 306.7 M430.5 314.0 L430.45 314.25 433.0 311.95 432.6 311.3 Q432.2 310.95 432.0 311.0 431.45 313.2 430.5 314.0 M416.25 320.25 L403.25 320.2 409.75 320.4 416.25 320.25 M240.05 188.8 L239.05 186.35 237.75 193.35 235.95 201.4 235.95 201.5 Q235.95 202.35 233.95 208.3 L232.2 213.3 232.2 213.75 231.85 214.15 230.7 216.5 227.15 222.3 225.95 224.05 225.2 225.05 221.3 228.75 218.75 230.65 219.4 230.45 222.05 229.75 223.45 229.2 226.5 227.55 229.1 225.95 232.4 222.7 233.8 221.0 235.05 219.45 Q240.15 213.35 242.3 206.25 244.8 198.35 245.95 193.0 247.35 186.15 247.35 179.95 247.35 177.0 246.75 172.95 L245.85 165.6 Q245.6 161.5 243.45 156.8 L243.45 157.45 243.35 162.65 243.35 172.65 243.3 180.6 243.05 193.4 242.45 193.65 Q241.7 193.5 241.45 192.7 L241.05 191.3 Q240.3 189.9 240.05 188.8 M144.2 246.7 L132.7 249.0 121.1 250.85 Q112.5 252.05 96.0 255.85 80.0 259.5 73.2 261.7 L67.3 263.75 Q65.65 263.6 64.6 265.15 L64.15 264.85 Q48.25 270.75 35.8 278.4 L34.45 279.2 34.2 279.35 34.3 279.4 33.5 280.4 32.85 280.15 29.1 282.65 Q24.35 285.95 15.3 293.05 L6.0 300.15 4.35 301.85 Q1.5 305.05 1.5 305.85 1.5 307.2 16.65 308.55 L24.15 309.6 43.75 310.75 72.4 311.85 Q77.25 309.45 81.75 307.3 82.3 299.5 84.75 292.8 88.6 282.25 95.45 280.1 99.7 278.8 105.7 278.3 L114.95 277.1 118.8 275.9 121.8 273.85 Q123.8 272.0 125.45 269.65 L128.05 265.6 Q131.45 260.15 134.55 257.35 137.75 254.5 138.6 254.15 141.65 252.65 150.45 251.35 L154.05 251.2 157.45 251.3 156.2 251.1 163.25 251.4 163.45 251.55 164.6 251.4 164.1 250.45 163.8 250.45 163.2 250.1 Q163.35 249.8 163.65 249.45 L162.95 247.75 Q162.95 247.2 163.65 247.0 164.4 246.75 165.2 247.7 L165.35 248.05 166.15 247.55 Q166.55 246.6 169.15 244.85 L168.95 244.75 168.05 243.85 165.25 242.8 163.25 241.95 163.15 241.9 159.0 242.85 156.35 243.55 153.9 244.35 144.2 246.7 M63.35 306.95 L61.3 304.3 61.95 303.75 62.4 302.8 64.65 305.45 Q66.9 308.15 67.55 309.55 L67.5 309.85 66.95 309.95 Q65.85 309.95 63.35 306.95 M81.65 309.05 L75.3 311.95 81.55 312.2 81.65 309.05 M266.15 244.55 L266.05 244.55 265.5 249.8 266.15 244.55 M225.2 225.05 L224.95 224.9 224.9 224.95 225.2 225.05 M198.3 304.7 L197.9 304.05 197.75 304.6 198.3 304.7" fill="#000000" fill-rule="evenodd" stroke="none"/>
      <path d="M346.15 256.4 L344.8 257.35 338.05 262.45 Q334.9 264.65 325.6 271.7 L308.6 284.0 300.6 289.95 289.9 282.95 Q281.6 277.85 278.35 275.3 L273.4 271.4 Q277.15 265.1 284.8 261.0 L289.7 258.3 Q292.45 256.75 294.25 255.95 302.65 252.2 305.65 252.2 L310.8 253.05 315.15 254.15 Q322.25 257.2 324.2 257.75 328.9 259.1 337.5 259.1 339.75 259.1 343.95 257.35 L346.15 256.4" fill="url(#gradient1)" fill-rule="evenodd" stroke="none"/>
      <path d="M410.05 281.45 L412.2 282.2 Q416.2 283.95 423.95 286.7 431.45 289.35 435.05 290.95 L445.2 295.75 Q451.35 298.7 455.7 300.45 L455.65 300.5 455.75 300.7 Q455.75 303.3 456.15 303.85 L454.25 305.45 Q453.2 307.4 452.05 308.3 450.05 309.95 444.5 309.95 L437.2 308.2 Q433.05 302.0 425.25 292.7 423.8 290.95 419.4 287.8 L413.0 283.25 410.05 281.45 M144.2 246.7 L153.9 244.35 156.35 243.55 159.0 242.85 163.15 241.9 163.25 241.95 165.25 242.8 168.05 243.85 168.95 244.75 169.15 244.85 Q166.55 246.6 166.15 247.55 L165.35 248.05 165.2 247.7 Q164.4 246.75 163.65 247.0 162.95 247.2 162.95 247.75 L163.65 249.45 Q163.35 249.8 163.2 250.1 L163.8 250.45 164.1 250.45 164.6 251.4 163.45 251.55 163.25 251.4 156.2 251.1 157.45 251.3 154.05 251.2 150.45 251.35 Q141.65 252.65 138.6 254.15 137.75 254.5 134.55 257.35 131.45 260.15 128.05 265.6 L125.45 269.65 Q123.8 272.0 121.8 273.85 L118.8 275.9 114.95 277.1 105.7 278.3 Q99.7 278.8 95.45 280.1 88.6 282.25 84.75 292.8 82.3 299.5 81.75 307.3 77.25 309.45 72.4 311.85 L43.75 310.75 24.15 309.6 16.65 308.55 Q1.5 307.2 1.5 305.85 1.5 305.05 4.35 301.85 L6.0 300.15 15.3 293.05 Q24.35 285.95 29.1 282.65 L32.85 280.15 33.5 280.4 34.3 279.4 34.2 279.35 34.45 279.2 35.8 278.4 Q48.25 270.75 64.15 264.85 L64.6 265.15 Q65.65 263.6 67.3 263.75 L73.2 261.7 Q80.0 259.5 96.0 255.85 112.5 252.05 121.1 250.85 L132.7 249.0 144.2 246.7 M63.35 306.95 Q65.85 309.95 66.95 309.95 L67.5 309.85 67.55 309.55 Q66.9 308.15 64.65 305.45 L62.4 302.8 61.95 303.75 61.3 304.3 63.35 306.95" fill="url(#gradient2)" fill-rule="evenodd" stroke="none"/>
      <path d="M354.1 94.7 Q356.3 94.4 359.75 93.2 L363.2 92.0 363.7 93.25 Q365.85 97.95 371.35 104.35 373.35 106.65 375.95 108.45 378.25 110.0 382.75 112.2 L388.15 114.9 388.75 121.7 389.65 131.5 Q387.55 131.45 384.15 132.9 380.75 134.3 378.1 136.5 375.35 138.7 375.35 140.15 L375.55 140.85 375.45 141.25 375.45 141.6 375.55 141.65 375.6 141.6 375.6 141.8 375.85 144.6 Q375.85 146.05 377.3 147.6 L379.8 150.9 Q381.35 152.85 382.25 153.25 L382.0 153.55 Q380.55 155.45 380.55 156.1 L380.55 156.2 380.5 156.3 Q380.0 157.5 380.0 158.85 380.0 160.0 380.75 163.25 L381.5 167.95 382.2 172.65 382.0 175.5 Q381.5 176.95 379.55 178.15 L377.7 179.2 Q378.7 177.75 379.0 175.85 L379.1 172.45 Q379.1 168.0 375.45 156.55 371.85 145.35 371.75 140.75 L371.85 140.75 Q371.75 140.05 372.3 137.3 L372.85 133.45 Q372.85 130.85 370.1 127.55 L369.4 126.7 Q368.4 125.15 365.3 123.05 L361.05 119.2 357.35 116.0 354.1 113.0 Q351.2 110.5 347.9 106.8 L346.25 105.35 Q346.75 105.1 347.4 104.95 L349.2 104.6 Q350.3 104.3 351.25 103.8 L353.6 103.35 358.55 102.7 359.1 102.05 Q357.6 101.25 356.7 100.9 354.75 100.25 351.7 99.9 347.75 99.55 345.3 98.25 L347.2 95.6 350.5 95.2 354.1 94.7 M363.35 184.8 L363.8 184.6 367.95 183.5 371.25 182.35 371.8 182.35 371.7 182.45 371.7 182.5 Q370.0 184.9 369.95 190.1 L368.9 189.0 Q366.5 186.65 363.35 184.8 M362.1 193.5 L362.55 193.5 367.4 195.1 368.7 195.65 370.0 197.45 370.65 198.25 368.75 203.8 365.6 212.1 363.5 216.9 Q362.7 217.65 362.0 218.7 361.25 219.8 360.65 221.25 L358.8 226.7 355.65 237.05 355.55 237.25 353.35 245.05 353.15 245.6 351.45 246.65 Q350.3 247.2 347.75 247.2 346.6 247.2 344.05 244.9 L343.75 244.6 Q341.4 242.5 340.9 240.85 L340.7 239.9 Q341.05 238.25 340.75 237.85 L336.6 235.95 332.8 233.85 330.0 231.5 Q327.05 227.45 326.05 224.35 L325.4 223.8 325.2 222.95 Q325.2 221.75 327.2 220.95 L328.25 220.55 Q328.55 220.25 328.95 220.25 L329.1 220.25 Q333.15 219.25 341.85 218.8 L346.0 219.35 347.6 219.6 349.9 219.85 354.35 219.4 354.85 219.4 354.65 219.15 352.3 217.7 Q349.6 216.25 349.35 215.8 L348.1 213.75 Q347.45 212.5 347.3 211.6 L349.55 211.55 353.1 212.2 357.0 212.85 Q359.6 212.85 362.35 209.0 365.1 205.25 365.1 201.8 365.1 199.8 364.2 197.65 L363.3 195.9 362.1 193.5 M337.25 139.15 Q338.9 137.95 341.25 134.85 344.85 135.4 348.3 136.5 351.7 137.6 352.45 138.4 L349.8 138.95 347.55 139.3 347.5 139.7 Q347.5 140.2 349.4 141.6 351.25 143.05 351.25 143.8 351.25 144.75 350.65 146.15 350.05 147.6 349.3 148.45 346.15 152.0 346.0 153.15 345.8 154.9 346.0 158.1 345.9 161.05 344.2 163.05 338.45 169.6 336.35 172.5 L333.55 176.8 Q331.15 180.3 329.2 182.05 330.75 176.7 330.75 174.3 330.75 168.4 328.8 161.45 L326.25 155.05 Q324.5 151.0 324.5 148.6 324.5 146.75 324.75 145.05 325.35 141.5 326.8 141.5 L330.45 141.9 Q333.3 142.0 335.2 140.8 L337.25 139.15 M357.75 121.75 L357.85 121.7 358.0 121.75 357.75 121.75 M346.55 121.1 Q351.7 121.7 353.3 123.65 353.95 124.4 354.6 125.85 L352.9 125.05 Q350.3 123.95 346.95 123.1 L343.6 122.4 341.9 121.85 346.55 121.1 M354.05 120.8 L353.95 120.8 354.15 120.75 354.6 120.95 354.05 120.8 M387.85 147.35 L387.35 147.85 387.2 147.0 Q387.35 147.25 387.85 147.35 M384.9 143.7 L385.35 143.7 385.3 143.9 384.9 143.7 M386.65 137.35 L386.7 137.35 386.7 137.4 386.65 137.35 M389.7 139.15 L389.8 139.1 389.8 139.25 389.7 139.15 M375.55 136.45 Q374.95 137.25 374.85 138.05 L374.95 138.1 376.8 135.4 Q376.15 135.6 375.55 136.45 M384.25 142.2 L384.6 141.55 Q385.7 140.6 388.1 140.6 L389.75 140.55 389.7 141.3 389.65 142.1 387.25 141.9 384.25 142.2 M374.55 132.6 Q374.15 132.4 374.15 132.85 L373.75 134.15 Q373.6 134.45 373.4 135.5 L373.5 135.5 Q374.9 133.55 374.9 133.05 L374.55 132.6 M333.7 198.4 L332.7 200.35 Q332.25 201.3 332.15 201.95 L332.2 202.55 Q332.15 203.5 330.65 205.0 L328.5 207.1 Q327.05 208.8 325.45 211.6 L322.95 215.9 Q324.2 208.15 329.3 202.5 331.2 200.3 333.7 198.4 M240.05 188.8 Q240.3 189.9 241.05 191.3 L241.45 192.7 Q241.7 193.5 242.45 193.65 L243.05 193.4 243.3 180.6 243.35 172.65 243.35 162.65 243.45 157.45 243.45 156.8 Q245.6 161.5 245.85 165.6 L246.75 172.95 Q247.35 177.0 247.35 179.95 247.35 186.15 245.95 193.0 244.8 198.35 242.3 206.25 240.15 213.35 235.05 219.45 L233.8 221.0 232.4 222.7 229.1 225.95 226.5 227.55 223.45 229.2 222.05 229.75 219.4 230.45 218.75 230.65 221.3 228.75 225.2 225.05 225.95 224.05 227.15 222.3 230.7 216.5 231.85 214.15 232.2 213.75 232.2 213.3 233.95 208.3 Q235.95 202.35 235.95 201.5 L235.95 201.4 237.75 193.35 239.05 186.35 240.05 188.8 M225.2 225.05 L224.9 224.95 224.95 224.9 225.2 225.05" fill="url(#gradient3)" fill-rule="evenodd" stroke="none"/>
      <path d="M376.7 126.8 Q378.75 130.9 378.75 135.3 378.75 137.7 377.15 141.6 375.55 145.55 375.55 147.8 375.55 149.65 377.75 155.8 379.95 161.95 379.95 166.95 379.95 173.85 376.75 181.3 L372.8 189.65 369.85 194.6 368.95 195.65 368.65 195.65 369.3 194.7 373.1 188.35 Q374.85 184.75 374.85 181.45 L374.55 179.3 374.25 177.05 Q374.25 166.45 371.8 158.5 369.35 150.55 369.35 147.65 369.35 144.15 370.95 139.9 L372.55 135.4 Q372.55 131.4 370.05 127.9 366.55 123.05 359.15 121.35 L358.95 123.3 Q359.85 123.2 361.5 123.8 363.1 124.35 363.45 124.9 L363.8 125.5 363.95 126.45 Q363.95 128.05 362.15 128.65 359.6 129.5 351.45 129.9 L347.15 130.6 341.25 131.3 Q339.8 131.3 338.0 129.95 L336.35 128.55 Q335.6 128.55 333.65 129.55 331.65 130.55 329.65 130.55 326.4 130.55 325.35 128.75 L324.95 126.95 Q324.95 123.65 331.15 122.85 L335.4 122.3 Q337.35 121.8 337.35 120.85 L336.9 118.5 Q336.4 116.4 336.15 116.2 335.35 115.4 333.35 114.6 331.95 114.1 331.95 113.0 331.95 111.85 332.6 111.3 333.6 110.35 336.45 110.35 L342.25 110.7 348.75 111.6 Q358.85 114.6 368.45 118.8 373.95 121.25 376.7 126.8 M346.0 119.35 L343.45 119.1 343.55 120.2 343.55 120.4 347.75 119.85 346.0 119.35 M339.15 133.15 Q341.15 130.8 346.05 131.85 354.2 132.75 356.8 134.3 358.35 135.25 358.35 137.1 358.35 139.0 355.3 143.35 L351.45 149.2 348.85 155.2 Q347.4 158.7 346.75 161.3 345.3 166.85 339.95 175.55 334.55 183.75 333.75 185.5 L333.5 185.2 333.35 184.65 Q332.55 185.35 329.4 188.95 327.05 191.6 325.95 191.6 323.35 191.6 322.55 190.1 L322.25 188.55 Q322.25 187.5 325.7 183.75 L329.15 179.85 Q329.15 175.6 326.05 161.85 322.95 148.05 322.95 146.5 322.95 143.2 324.65 140.6 325.9 138.6 327.6 138.35 L330.75 138.55 Q335.15 139.4 337.55 136.0 L338.3 134.6 339.15 133.15 M329.15 146.5 Q329.15 147.45 331.45 157.65 L334.85 172.0 Q338.05 167.3 342.0 155.75 345.6 145.15 350.55 139.25 L350.65 139.0 Q346.45 137.5 344.3 138.15 342.75 138.65 342.05 140.4 338.05 144.4 337.15 144.65 L329.25 144.8 329.15 146.5 M336.4 193.95 Q338.35 194.6 338.35 196.75 338.35 198.3 337.55 200.9 336.7 203.6 334.9 207.45 331.45 214.95 331.45 215.3 L332.9 220.6 333.55 222.75 Q333.75 223.7 335.25 224.95 L337.15 226.4 Q338.0 227.05 338.65 228.35 L339.45 230.1 Q339.85 230.85 341.55 231.75 L344.35 233.15 Q345.45 233.75 345.8 235.05 346.0 236.0 345.85 236.85 345.6 237.85 346.4 239.4 L346.9 240.3 Q348.1 242.2 350.05 243.95 L352.6 240.75 Q354.2 238.5 355.65 238.5 357.05 238.5 357.65 239.7 L357.95 240.95 Q357.95 241.6 356.0 245.05 L355.55 245.75 354.6 247.3 Q353.15 249.45 352.4 249.85 L352.05 249.95 351.75 249.95 Q347.4 249.85 344.8 247.85 L344.1 247.25 343.65 246.75 341.35 242.85 340.55 240.95 339.8 239.0 Q339.0 236.85 335.05 235.15 334.35 234.85 332.55 233.3 L330.15 231.2 Q329.2 230.35 328.5 230.25 L326.75 230.0 Q326.3 229.85 325.45 229.0 L324.55 228.0 Q323.5 226.3 323.4 224.2 323.35 222.95 323.7 221.15 L323.85 220.4 323.65 220.25 322.4 221.1 322.2 221.25 Q321.45 221.8 320.85 221.8 320.15 221.8 319.7 221.45 319.15 221.0 318.95 220.05 L318.85 218.1 Q318.85 216.0 321.7 210.65 323.9 206.5 325.75 203.9 L326.4 203.05 331.05 196.85 Q334.05 193.2 336.4 193.95 M358.75 192.2 Q358.75 190.7 360.1 189.65 361.75 188.35 363.95 190.4 365.15 191.45 365.9 192.95 L366.85 195.2 366.95 195.45 Q369.95 202.9 369.95 205.6 369.95 208.45 367.85 211.5 364.4 216.45 357.1 216.45 352.15 216.45 347.85 213.95 344.25 211.85 344.25 210.5 344.25 209.45 344.95 208.15 345.95 206.35 347.65 206.35 348.9 206.35 348.95 207.35 L349.05 208.7 352.15 209.75 Q354.1 210.55 354.75 210.55 360.6 210.55 362.75 208.15 363.85 206.85 363.75 205.55 363.75 202.2 361.25 197.65 L360.55 196.4 Q358.75 193.0 358.75 192.2 M421.25 291.9 Q419.25 290.9 418.65 290.8 L419.6 292.6 420.35 294.4 420.05 294.9 415.85 291.1 Q411.65 287.1 411.65 286.1 411.65 280.8 424.1 286.85 432.75 291.1 439.85 296.3 L444.25 300.2 449.25 304.4 455.7 308.7 Q458.35 310.6 458.35 312.35 458.35 313.45 457.85 314.3 457.05 315.7 455.25 315.7 454.1 315.7 452.2 314.3 450.3 312.9 449.25 312.9 L448.45 313.65 Q447.7 314.4 446.25 314.4 443.9 314.4 442.15 312.25 L440.05 309.0 Q439.35 308.0 436.8 306.45 L432.05 303.6 424.8 298.55 Q421.25 295.35 423.35 293.1 423.2 292.85 421.25 291.9 M348.75 258.65 Q348.75 260.2 347.35 262.1 345.9 264.1 344.45 264.1 335.9 264.1 332.5 262.4 329.0 261.85 325.35 260.7 322.7 259.9 317.35 259.25 L309.4 258.7 Q299.7 258.7 292.0 265.7 288.1 269.25 285.85 273.2 L282.95 277.2 280.05 281.3 277.45 285.75 Q275.4 288.8 274.05 288.8 272.5 288.8 271.95 287.55 L271.75 286.2 Q271.75 284.35 272.3 283.45 L274.65 279.3 Q273.65 279.55 271.95 281.65 270.4 283.6 269.55 283.6 266.5 283.6 265.65 281.9 L265.45 280.05 Q265.45 277.15 270.3 270.6 274.65 264.7 277.65 262.5 285.55 256.65 288.75 253.8 L291.3 251.3 292.0 251.2 294.15 249.95 Q295.9 249.4 297.2 250.5 L297.6 250.45 Q298.45 251.55 298.25 252.4 L307.3 251.25 315.85 250.3 326.45 251.45 335.25 252.9 345.5 254.75 Q346.85 255.2 347.5 256.1 348.5 256.35 348.75 257.2 349.0 257.9 348.75 258.65 M239.1 142.95 Q241.3 142.0 244.15 145.0 L245.0 148.1 Q245.45 150.3 246.25 151.45 247.95 154.0 248.7 157.95 L249.75 164.7 250.75 177.3 251.55 191.0 Q251.55 193.0 250.9 196.5 L251.15 197.35 Q251.75 199.65 253.2 200.75 254.35 201.65 254.35 203.4 254.35 204.35 253.85 205.2 253.1 206.55 251.65 206.55 250.75 206.55 249.95 206.0 L251.15 211.4 250.75 213.1 Q250.1 214.7 248.75 214.7 246.8 214.7 245.95 213.95 L245.05 212.65 240.45 218.4 239.2 220.0 235.35 224.35 231.45 227.2 226.75 229.9 223.55 231.95 218.8 235.05 Q217.4 235.05 217.05 234.1 L216.95 233.1 Q216.95 230.85 220.6 227.95 L223.25 226.05 229.1 221.9 Q231.95 219.65 233.05 218.15 L238.25 211.25 Q242.65 205.2 242.65 203.4 242.65 202.7 237.6 190.3 232.55 177.85 232.55 174.95 232.55 173.95 233.15 173.15 233.95 172.0 235.65 172.0 237.4 172.0 238.85 172.85 L238.65 171.35 Q237.55 162.25 237.55 160.1 237.55 158.1 238.1 157.2 239.0 155.8 240.95 158.4 L240.95 158.3 239.0 151.1 237.35 145.65 Q237.35 143.7 239.1 142.95 M97.25 293.9 Q97.25 295.6 95.3 297.25 92.65 299.55 87.85 299.4 L87.95 301.1 91.1 300.3 96.25 299.5 Q99.3 299.5 100.55 301.2 101.15 302.1 101.15 303.0 101.15 305.2 98.55 306.3 95.8 307.5 89.15 308.0 89.9 311.75 79.55 316.9 L75.15 318.7 Q73.2 319.55 72.65 320.8 L71.9 322.75 Q70.8 324.5 68.85 324.5 67.15 324.5 66.3 323.05 65.75 322.15 65.75 321.3 L65.65 321.0 65.3 321.45 64.45 321.7 Q61.6 321.7 59.75 320.1 L58.05 318.0 Q57.65 318.65 56.35 322.5 54.75 326.0 52.45 326.0 51.55 326.0 50.65 325.4 L49.85 324.8 Q48.4 326.0 47.65 326.0 L46.8 325.85 46.05 325.5 Q45.95 324.8 46.2 323.7 L46.4 322.55 44.65 323.1 Q44.1 322.6 43.8 321.15 L43.55 319.35 Q43.55 312.85 47.55 299.1 49.6 292.05 51.25 289.15 54.65 283.2 61.65 279.0 L68.8 274.15 Q72.25 271.7 76.1 270.35 86.1 266.75 120.05 262.9 123.05 262.6 128.9 258.55 L135.05 253.8 Q138.55 250.55 141.85 249.2 146.55 247.3 156.85 245.9 161.1 244.65 173.2 248.5 185.45 252.35 185.45 255.4 185.45 255.85 185.05 256.3 184.6 256.8 184.05 256.8 181.35 256.8 172.15 253.8 162.95 250.8 162.25 250.8 149.2 250.8 141.95 254.5 139.6 255.7 137.85 257.35 L135.95 259.3 135.8 259.45 136.1 259.7 Q137.25 260.9 137.35 262.0 L138.95 261.3 Q133.65 268.05 127.45 274.5 125.9 276.15 122.45 281.1 L117.35 284.4 115.8 286.0 Q114.45 287.2 112.85 287.2 110.75 287.2 110.15 285.5 109.95 284.95 109.95 283.4 L109.85 282.9 105.5 285.3 101.45 285.1 92.75 288.8 91.05 288.8 Q94.2 289.65 95.85 291.2 97.25 292.5 97.25 293.9 M62.85 283.75 L62.75 283.8 Q61.65 284.5 60.65 285.3 L61.05 285.8 Q61.5 284.95 62.85 283.75" fill="#000000" fill-opacity="0.101960786" fill-rule="evenodd" stroke="none"/>
    </g>
    <linearGradient gradientTransform="matrix(0.0, 0.1553, -0.0567, 0.0, 329.0, 170.55)" gradientUnits="userSpaceOnUse" id="gradient1" spreadMethod="pad" x1="-819.2" x2="819.2">
      <stop offset="0.0" stop-color="#765282"/>
      <stop offset="1.0" stop-color="#37283e"/>
    </linearGradient>
    <linearGradient gradientTransform="matrix(0.0, 0.045, -0.0427, 0.0, 85.35, 276.9)" gradientUnits="userSpaceOnUse" id="gradient2" spreadMethod="pad" x1="-819.2" x2="819.2">
      <stop offset="0.0" stop-color="#999999"/>
      <stop offset="1.0" stop-color="#333333"/>
    </linearGradient>
    <linearGradient gradientTransform="matrix(0.0, 0.1457, -0.0567, 0.0, 329.0, 176.0)" gradientUnits="userSpaceOnUse" id="gradient3" spreadMethod="pad" x1="-819.2" x2="819.2">
      <stop offset="0.0" stop-color="#765282"/>
      <stop offset="1.0" stop-color="#37283e"/>
    </linearGradient>
    <g id="sprite2" transform="matrix(1.0, 0.0, 0.0, 1.0, 0.0, -2.65)">
      <use ffdec:characterId="4079" height="7.7" transform="matrix(1.0, 0.0, 0.0, 1.0, 0.0, 2.65)" width="8.05" xlink:href="#shape2"/>
    </g>
    <g id="shape2" transform="matrix(1.0, 0.0, 0.0, 1.0, 0.0, -2.65)">
      <path d="M7.65 5.0 L8.05 7.6 Q4.1 8.55 0.25 10.35 -0.4 7.15 0.75 5.15 L7.25 2.65 7.65 5.0" fill="url(#gradient4)" fill-rule="evenodd" stroke="none"/>
    </g>
    <radialGradient cx="0" cy="0" gradientTransform="matrix(0.0032, 0.0051, -0.0083, 0.0052, 6.0, 4.2)" gradientUnits="userSpaceOnUse" id="gradient4" r="819.2" spreadMethod="pad">
      <stop offset="0.0" stop-color="#ffffff"/>
      <stop offset="1.0" stop-color="#ffff99"/>
    </radialGradient>
    <g id="sprite3" transform="matrix(1.0, 0.0, 0.0, 1.0, 17.55, 0.0)">
      <use ffdec:characterId="4100" height="317.0" transform="matrix(1.0, 0.0, 0.0, 1.0, -17.55, 0.0)" width="349.85" xlink:href="#shape3"/>
      <filter id="filter3">
        <feColorMatrix in="SourceGraphic" result="filterResult8" type="matrix" values="0 0 0 0 1.0,0 0 0 0 1.0,0 0 0 0 0.8,0 0 0 1 0"/>
        <feConvolveMatrix divisor="64.0" in="filterResult8" kernelMatrix="1 1 1 1 1 1 1 1 1 1 1 1 1 1 1 1 1 1 1 1 1 1 1 1 1 1 1 1 1 1 1 1 1 1 1 1 1 1 1 1 1 1 1 1 1 1 1 1 1 1 1 1 1 1 1 1 1 1 1 1 1 1 1 1" order="8 8" result="filterResult9"/>
        <feConvolveMatrix divisor="64.0" in="filterResult9" kernelMatrix="1 1 1 1 1 1 1 1 1 1 1 1 1 1 1 1 1 1 1 1 1 1 1 1 1 1 1 1 1 1 1 1 1 1 1 1 1 1 1 1 1 1 1 1 1 1 1 1 1 1 1 1 1 1 1 1 1 1 1 1 1 1 1 1" order="8 8" result="filterResult10"/>
        <feComposite in="SourceGraphic" in2="filterResult10" operator="over" result="filterResult11"/>
      </filter>
      <use ffdec:characterId="4099" filter="url(#filter3)" height="9.95" transform="matrix(-1.0, 0.0, 0.0, 1.0, 299.3, 100.9)" width="7.8" xlink:href="#sprite4"/>
      <filter id="filter4">
        <feColorMatrix in="SourceGraphic" result="filterResult12" type="matrix" values="0 0 0 0 1.0,0 0 0 0 1.0,0 0 0 0 0.8,0 0 0 1 0"/>
        <feConvolveMatrix divisor="64.0" in="filterResult12" kernelMatrix="1 1 1 1 1 1 1 1 1 1 1 1 1 1 1 1 1 1 1 1 1 1 1 1 1 1 1 1 1 1 1 1 1 1 1 1 1 1 1 1 1 1 1 1 1 1 1 1 1 1 1 1 1 1 1 1 1 1 1 1 1 1 1 1" order="8 8" result="filterResult13"/>
        <feConvolveMatrix divisor="64.0" in="filterResult13" kernelMatrix="1 1 1 1 1 1 1 1 1 1 1 1 1 1 1 1 1 1 1 1 1 1 1 1 1 1 1 1 1 1 1 1 1 1 1 1 1 1 1 1 1 1 1 1 1 1 1 1 1 1 1 1 1 1 1 1 1 1 1 1 1 1 1 1" order="8 8" result="filterResult14"/>
        <feComposite in="SourceGraphic" in2="filterResult14" operator="over" result="filterResult15"/>
      </filter>
      <use ffdec:characterId="4099" filter="url(#filter4)" height="9.95" transform="matrix(-1.0, 0.0, 0.0, 1.0, 259.15, 81.1)" width="7.8" xlink:href="#sprite4"/>
    </g>
    <g id="shape3" transform="matrix(1.0, 0.0, 0.0, 1.0, 17.55, 0.0)">
      <path d="M127.15 297.7 L125.55 297.2 115.8 296.5 115.4 296.5 Q113.6 296.8 112.85 297.25 L111.3 297.75 Q110.8 297.75 110.3 297.25 L111.55 296.6 104.95 297.2 96.05 298.25 92.85 298.75 Q92.7 298.9 92.7 299.2 91.45 299.65 71.2 299.65 L44.7 298.85 40.0 298.35 33.8 297.35 31.0 296.95 28.05 296.4 27.05 296.1 25.7 295.75 18.4 295.15 16.7 294.75 14.6 294.6 14.6 294.7 Q14.6 295.3 14.0 295.65 L13.1 295.9 11.7 295.65 9.85 295.4 3.5 295.1 Q3.1 294.75 2.5 294.75 L0.1 295.35 -4.3 295.9 -9.8 295.15 -14.8 294.9 -16.0 294.5 Q-17.55 293.4 -17.55 291.1 -17.55 289.2 -16.0 280.2 L-14.4 271.25 Q-11.75 259.1 -9.15 251.5 -7.75 247.3 -4.65 241.35 L0.35 231.65 2.65 226.8 Q4.1 223.85 5.6 221.75 L6.85 219.95 Q8.55 215.0 11.7 211.15 14.7 206.85 16.4 205.0 L19.65 201.85 22.8 198.75 28.0 192.5 32.7 186.25 Q35.1 182.7 40.0 179.2 43.8 176.5 49.05 173.85 L53.35 170.85 57.05 167.9 Q59.55 166.15 61.4 165.45 63.7 164.55 67.7 164.6 L67.85 164.55 70.55 164.0 73.85 163.6 76.55 163.5 87.1 164.65 94.55 165.65 100.25 165.8 Q103.95 166.1 106.55 167.85 108.15 168.95 111.05 170.35 113.8 171.7 114.9 172.5 116.85 173.95 119.55 175.45 L124.05 177.75 Q126.5 179.0 128.1 179.15 L134.8 180.25 136.9 180.9 138.05 181.35 140.45 181.45 142.3 181.25 142.7 181.3 Q143.95 180.7 146.0 180.65 149.45 180.55 152.8 182.1 L155.0 183.3 155.05 183.25 155.05 182.9 Q162.25 179.05 166.55 173.45 169.7 169.4 171.95 163.25 175.3 154.25 175.45 144.45 L175.3 144.5 Q174.55 144.5 174.55 144.25 L171.85 140.2 Q170.8 138.25 170.8 136.45 170.8 133.35 171.4 129.9 172.05 126.45 172.05 123.3 172.05 121.15 171.85 120.7 L169.45 117.0 167.3 113.85 Q166.5 112.95 164.3 112.35 162.55 111.85 162.55 111.05 162.55 110.45 164.1 109.5 L166.65 108.0 164.05 107.0 Q163.55 106.65 163.55 105.8 163.55 105.25 164.7 104.6 L166.7 103.5 Q169.15 101.8 169.3 100.75 169.3 98.9 169.55 98.0 L170.05 95.15 Q170.05 93.75 169.15 92.05 L168.85 91.5 168.65 91.5 168.55 91.35 168.4 90.2 168.3 89.4 168.05 88.35 167.2 89.55 Q166.55 90.4 165.55 90.65 L165.4 90.35 Q165.4 88.35 166.3 85.2 L167.95 80.0 Q168.55 78.05 170.1 74.8 L172.55 69.5 Q170.45 70.4 169.1 70.4 L168.55 70.25 168.55 69.1 172.65 62.75 176.8 56.9 174.35 56.5 Q174.05 56.3 174.05 55.8 174.05 55.45 174.7 54.85 175.35 54.25 176.2 53.85 L177.6 52.75 Q178.45 51.9 178.95 51.6 183.55 49.15 183.55 47.1 183.55 46.55 181.15 45.45 178.8 44.35 178.8 43.3 178.8 42.9 180.9 42.3 L183.95 41.25 185.35 40.2 184.9 39.75 Q186.5 39.15 188.5 37.8 190.7 36.25 191.15 35.25 190.65 35.75 190.0 35.75 189.05 35.75 189.05 34.0 189.05 30.45 194.6 27.35 200.0 24.4 207.2 23.65 208.15 22.25 208.5 22.0 L211.2 21.65 214.05 21.85 215.3 22.35 215.3 22.25 Q215.3 21.15 217.15 19.15 L220.3 16.15 Q220.0 15.55 218.2 14.9 216.55 14.3 216.55 13.75 L216.55 13.5 Q216.8 13.25 218.35 12.85 L220.3 12.25 222.7 11.55 225.3 11.15 232.25 11.2 Q232.15 11.0 233.65 10.55 234.85 7.65 237.7 5.8 241.15 3.55 245.05 4.5 249.7 4.95 251.55 5.6 L253.3 6.55 258.25 7.0 260.55 6.85 260.85 7.1 263.05 6.4 Q265.9 5.55 268.2 4.25 270.75 3.45 273.55 1.55 275.9 0.0 276.05 0.0 L276.15 0.9 275.65 2.9 275.05 4.3 275.05 4.4 Q275.05 5.55 272.5 8.8 L269.2 12.9 269.3 13.0 270.15 12.5 274.55 12.15 275.4 12.2 278.3 12.0 Q282.5 11.8 283.45 12.1 284.1 12.65 285.3 13.0 286.8 13.35 289.55 14.65 291.8 15.7 292.7 16.25 L296.15 19.65 Q299.15 22.8 299.15 23.3 L299.05 24.0 298.05 24.0 Q297.9 23.5 296.85 22.95 295.85 22.4 295.3 22.35 L295.4 22.5 298.95 26.45 299.0 26.3 299.05 26.45 299.05 26.55 299.05 26.6 Q299.65 27.45 299.65 27.9 L299.65 28.0 302.55 27.8 Q305.0 27.1 308.05 23.65 308.65 23.8 308.65 24.65 308.65 25.9 307.1 28.4 305.55 30.95 304.3 31.6 309.5 31.1 312.2 30.3 314.45 29.4 315.95 29.0 317.25 28.65 318.35 26.95 319.4 25.4 320.05 25.4 L320.55 25.5 320.65 25.75 Q319.45 28.15 318.0 32.8 316.05 36.95 310.9 39.85 L316.75 41.55 323.4 42.1 Q328.55 42.1 329.05 41.25 329.3 40.0 329.8 40.0 L330.3 40.15 330.3 41.4 Q330.4 42.65 328.4 44.45 L324.9 47.4 Q323.75 48.5 322.8 50.5 321.45 52.3 317.45 53.5 L317.55 53.65 321.15 55.9 Q324.75 57.85 328.4 57.85 L330.2 57.45 Q330.95 57.0 331.45 57.0 L332.3 57.15 332.3 57.5 Q330.5 59.85 328.15 64.85 325.35 69.2 318.8 71.25 319.45 73.7 322.3 80.45 L322.25 81.05 Q322.15 81.35 321.55 81.5 321.3 81.15 319.15 80.8 L317.1 80.4 317.4 87.9 Q317.8 90.05 317.8 92.5 L317.8 93.85 Q317.65 95.15 316.95 95.15 L316.55 95.1 314.85 91.7 Q313.75 89.4 312.55 88.0 L312.55 88.25 Q312.9 90.95 312.8 94.6 L312.85 97.75 Q312.85 99.8 312.3 100.9 L311.7 100.6 309.65 93.05 309.15 91.25 309.55 98.5 309.55 98.55 Q310.65 101.0 310.65 102.75 L310.45 103.65 Q310.25 104.25 309.9 104.45 L309.3 105.15 308.9 104.85 306.3 110.85 303.55 117.0 302.6 120.1 301.55 122.6 301.5 122.9 301.2 124.8 300.95 127.05 301.05 130.3 301.1 135.45 300.7 139.7 300.25 141.8 299.6 144.0 296.8 152.45 295.05 156.65 294.0 159.25 293.8 159.65 291.95 166.0 289.8 173.9 Q288.4 178.5 286.2 181.65 L283.35 185.6 279.45 189.55 277.85 190.9 276.8 191.75 272.85 195.55 Q270.8 197.4 269.65 197.8 L268.4 198.75 263.3 201.5 Q260.05 203.1 258.8 203.45 L253.35 208.6 Q243.9 217.5 240.05 222.6 236.1 227.9 233.05 233.85 232.45 235.05 229.95 241.2 228.95 243.75 228.15 244.45 L228.7 244.5 229.05 244.5 228.8 244.85 230.55 245.0 230.55 245.9 229.8 249.7 Q229.05 253.5 229.05 256.2 229.05 257.65 230.05 260.85 231.05 264.05 231.05 264.95 L231.05 266.05 230.75 266.8 231.5 268.15 234.15 271.85 236.95 275.9 239.65 279.75 244.1 287.85 245.25 290.65 245.55 290.65 245.7 291.0 247.15 295.35 Q248.65 299.7 248.65 302.75 248.65 306.85 243.3 306.85 L239.05 306.4 229.9 306.2 220.45 306.0 212.2 305.5 196.1 305.0 196.3 305.15 196.55 307.05 Q196.55 309.3 193.85 312.65 190.4 317.0 185.55 317.0 182.45 317.0 172.45 312.45 162.45 307.9 156.25 307.9 152.85 307.9 144.15 309.9 135.5 311.85 129.55 311.85 L125.45 311.6 125.65 311.25 126.15 310.35 129.9 310.5 Q136.45 310.5 144.55 308.55 L147.5 307.9 147.45 307.85 147.45 307.75 151.6 307.1 152.1 307.0 153.5 306.8 153.85 306.75 169.05 305.05 194.8 303.5 210.2 304.0 218.55 304.5 237.95 305.0 243.25 305.5 Q246.0 305.5 246.95 304.5 247.55 303.9 247.55 302.65 247.55 299.55 246.1 295.35 L246.05 295.25 246.05 295.35 246.05 295.65 245.7 295.65 Q244.5 290.1 239.15 281.25 L233.75 273.45 Q230.4 268.6 229.7 267.1 L229.55 267.0 229.4 266.75 229.55 266.5 Q229.55 265.2 229.85 264.3 L229.05 261.7 Q228.05 258.5 228.05 256.25 228.05 253.2 229.3 246.1 L227.35 245.6 227.1 245.35 Q222.1 243.55 217.7 240.15 L220.6 243.6 Q225.45 249.5 225.45 250.05 225.45 250.55 224.4 250.6 223.05 249.7 218.65 247.35 214.85 245.3 213.55 244.25 L205.8 238.0 Q206.8 240.9 210.3 245.55 L210.2 246.0 209.8 246.15 201.3 239.35 192.4 232.25 192.3 232.5 Q193.65 236.5 196.75 241.5 L199.55 245.95 199.4 246.5 198.8 246.5 Q189.6 239.0 185.05 232.5 L184.95 232.6 186.85 238.3 Q187.95 242.3 188.7 244.0 L191.95 250.6 194.3 255.45 194.2 256.25 193.95 256.25 194.4 257.4 194.3 257.75 193.9 257.75 Q189.3 249.35 177.45 236.6 170.3 228.9 158.3 215.0 155.25 211.65 149.95 204.25 144.95 197.35 141.4 193.65 136.25 188.4 127.7 183.0 L123.8 180.35 121.85 179.05 120.65 178.1 120.2 177.65 Q119.35 177.1 116.1 175.9 L114.55 175.5 113.45 175.15 Q119.6 178.55 124.0 183.1 L131.3 191.75 Q132.85 193.65 134.2 195.95 135.75 198.55 136.15 200.4 136.45 202.0 137.4 204.95 L138.7 209.25 Q140.0 214.8 140.3 218.55 L140.45 226.85 Q140.45 243.3 136.05 262.85 133.55 273.85 131.3 280.85 130.35 284.05 127.7 289.85 L126.7 292.05 126.45 292.55 137.85 292.55 138.9 290.25 140.45 287.45 141.8 284.85 142.6 281.95 Q143.1 280.4 143.8 279.5 144.95 280.8 145.1 283.55 145.3 287.2 145.45 287.75 L146.4 292.55 147.65 292.55 149.1 284.55 Q151.05 274.15 151.05 270.05 L151.05 267.5 150.8 266.0 Q150.8 265.25 151.3 264.75 152.55 266.9 152.9 270.35 L153.4 276.25 154.8 287.9 154.85 291.75 154.8 292.55 169.15 292.55 169.3 288.55 169.3 280.6 168.5 272.65 167.3 264.65 164.8 248.75 Q164.25 244.95 162.6 238.6 161.05 233.1 161.05 232.8 161.05 232.05 161.55 231.75 162.65 233.15 163.4 235.85 L164.45 240.15 166.55 248.75 168.7 257.55 170.8 266.0 Q175.1 280.35 176.45 292.55 L180.3 292.55 Q181.25 292.5 181.55 293.0 L181.8 294.1 Q181.8 295.35 181.55 294.8 L176.7 295.05 177.05 300.75 176.7 300.9 Q176.0 298.65 175.65 295.05 L169.75 295.15 169.3 296.85 Q169.15 296.75 169.15 296.5 L169.15 295.15 154.4 295.25 153.9 296.25 153.8 296.0 153.85 295.25 148.3 295.3 147.3 300.4 146.55 300.5 145.65 295.3 137.65 295.4 137.15 296.5 136.35 298.9 Q135.7 300.45 134.55 301.1 L134.45 301.0 Q134.9 298.9 136.4 295.65 L136.5 295.4 131.3 295.4 131.3 295.35 Q131.3 290.4 128.1 295.45 L124.6 295.45 124.55 295.5 124.5 295.65 125.55 295.85 127.45 296.45 127.3 296.75 127.15 297.7 M122.2 311.1 Q115.75 309.9 106.3 307.0 90.5 302.15 86.5 302.15 82.6 302.15 74.9 304.0 67.25 305.85 64.7 305.85 L55.65 305.05 Q52.9 304.45 52.3 303.65 L52.65 303.5 56.75 304.0 64.5 304.5 Q68.6 304.5 73.9 303.2 L78.8 301.85 Q82.85 300.45 89.45 301.2 94.5 301.8 97.7 303.0 103.35 305.2 110.25 307.15 117.2 309.1 122.7 309.95 L122.2 311.1 M286.85 42.95 L284.55 39.85 283.85 41.7 282.8 44.7 282.15 46.65 Q281.75 47.8 281.05 47.8 280.65 47.8 280.45 47.5 L280.2 47.05 279.25 46.25 277.15 44.45 274.15 41.8 273.55 42.7 271.95 44.4 269.95 46.05 269.25 46.95 Q268.65 47.7 268.05 47.7 L267.75 47.65 267.7 47.25 267.75 46.95 266.65 44.55 264.7 40.2 264.2 39.35 263.8 39.6 260.15 42.1 259.25 42.9 260.95 44.9 263.7 47.6 Q266.3 50.15 266.3 50.65 L266.3 51.05 266.15 51.1 258.3 51.5 256.45 51.9 254.8 52.25 251.65 52.75 246.8 53.65 253.05 56.5 Q258.55 59.25 258.55 60.05 L258.55 60.55 258.4 60.65 250.35 61.0 250.0 61.15 251.9 62.75 Q254.8 64.6 260.05 65.25 261.8 65.45 262.55 66.25 L264.05 68.0 264.8 68.9 265.3 69.75 266.3 70.6 Q267.9 71.35 271.2 71.25 L271.3 71.35 271.3 71.7 271.3 72.05 Q272.05 72.35 273.1 73.85 274.35 75.75 275.05 77.75 275.95 80.2 277.85 81.35 279.3 82.3 279.3 84.0 279.3 86.05 277.75 89.4 L275.65 93.35 276.7 95.4 277.9 98.05 278.35 99.4 278.35 100.7 278.0 103.1 277.65 104.45 277.5 105.5 Q277.5 106.9 279.4 109.9 281.3 112.85 281.3 115.15 L280.95 117.55 280.6 118.25 280.05 118.75 279.75 119.0 279.3 119.5 Q278.4 120.25 275.65 121.65 274.8 122.25 273.65 124.45 272.4 126.15 270.0 126.4 270.15 126.95 271.0 127.65 L273.2 129.35 274.8 131.3 276.3 133.55 276.25 134.05 Q276.1 134.4 275.55 134.5 L272.6 133.2 269.3 132.0 Q268.95 132.6 268.85 133.55 L268.6 134.05 Q271.8 135.45 274.25 138.1 276.85 140.85 277.8 144.0 L278.35 149.65 Q278.7 153.15 279.3 155.6 L279.3 157.65 278.55 157.75 Q278.15 157.05 277.3 154.75 276.15 152.6 273.8 152.0 L266.1 150.05 Q260.75 148.6 259.05 147.75 L259.15 147.85 260.15 150.6 Q260.7 152.3 261.15 153.0 261.85 154.2 263.8 155.4 L266.55 156.4 270.3 156.85 Q270.9 157.1 270.9 157.6 269.75 158.55 267.0 159.55 263.6 160.75 260.7 160.75 L259.75 160.4 259.25 160.15 258.8 162.75 Q257.75 165.5 254.95 165.5 253.55 165.5 252.4 164.45 L251.15 163.1 Q249.95 162.35 242.4 161.1 L242.4 161.15 Q242.7 168.25 250.55 175.15 258.0 181.8 261.1 183.45 266.3 186.25 274.5 186.25 L275.3 186.15 275.5 186.25 275.85 186.1 280.45 184.15 282.0 183.3 283.45 182.1 Q283.85 181.4 284.8 180.85 L285.2 180.65 Q287.4 177.35 288.45 173.25 L290.7 165.2 292.05 160.35 292.35 159.4 293.55 156.2 295.2 152.0 298.1 143.45 298.7 141.2 299.0 140.5 299.15 139.4 299.4 138.7 299.6 137.05 299.8 132.05 299.6 130.6 299.6 128.05 299.85 126.75 299.85 126.55 300.35 122.9 300.5 122.75 300.95 120.1 301.35 120.3 Q301.9 118.55 303.0 115.7 L305.2 110.5 308.0 103.9 307.65 103.5 307.05 101.25 306.85 101.3 305.2 101.65 299.1 100.35 299.3 100.6 Q302.05 104.0 302.05 108.05 L301.85 109.85 301.95 110.3 301.9 110.95 302.05 111.3 301.8 111.85 301.75 112.1 Q301.35 113.7 300.35 113.7 299.75 113.7 299.35 113.3 299.0 113.3 298.1 112.3 L297.3 111.65 296.45 111.1 294.4 109.85 Q293.25 109.1 293.25 108.55 293.25 107.0 297.65 109.7 L298.15 110.15 298.2 109.25 298.2 108.1 297.9 106.35 297.9 106.05 297.7 105.0 297.35 104.5 297.25 104.0 296.65 102.95 295.7 101.95 295.25 101.7 295.0 101.45 294.4 101.0 293.55 100.7 292.95 100.55 290.15 100.6 290.9 100.55 289.4 100.55 288.9 100.75 288.7 101.0 Q287.6 101.55 286.75 102.65 285.95 103.75 285.55 103.75 L285.55 103.9 284.8 104.0 283.85 101.0 283.8 98.3 Q283.8 96.35 284.2 95.4 284.6 94.7 284.95 94.35 L285.05 93.9 287.5 94.05 288.7 94.35 294.55 94.5 296.35 94.5 296.6 93.0 296.9 90.65 297.65 85.25 297.7 81.2 297.15 75.1 296.55 69.65 Q298.05 73.4 298.6 77.15 299.05 80.25 299.05 84.8 L298.55 88.65 Q298.05 91.15 298.05 92.65 L297.85 94.45 301.05 94.35 302.2 94.2 306.35 93.05 Q307.2 93.05 308.1 94.9 L308.5 95.8 308.0 86.75 307.9 85.85 307.95 85.45 307.8 83.35 Q307.65 79.95 306.9 75.85 L305.45 72.3 303.8 68.65 Q302.5 65.7 298.5 59.75 L298.45 59.7 298.05 61.5 297.8 63.45 Q297.7 64.7 297.4 65.4 L297.0 67.4 Q296.8 68.55 295.8 69.25 L295.55 69.0 295.55 68.25 Q295.55 63.5 295.15 61.35 294.4 58.6 293.05 55.35 L289.1 46.7 286.85 42.95 M274.35 2.65 L274.4 2.6 274.3 2.65 274.35 2.65 M253.35 85.15 L251.35 84.8 250.05 84.8 247.25 85.05 247.2 85.05 246.6 85.25 Q246.4 85.35 246.05 85.6 L245.75 85.9 245.6 86.2 245.0 87.4 244.55 88.65 244.35 89.85 Q244.35 90.6 244.9 90.6 L245.2 90.5 245.2 90.6 248.15 90.95 Q248.8 91.0 248.8 91.4 L248.8 91.85 248.65 91.9 245.45 92.0 242.45 91.5 240.9 91.5 Q238.65 92.25 236.2 94.65 L236.8 95.15 Q239.35 97.65 245.15 104.35 L248.8 103.0 Q250.7 102.3 254.9 99.9 L256.0 99.35 256.95 98.55 260.05 95.95 260.05 95.9 259.45 93.65 259.15 92.75 Q258.7 91.9 256.05 91.8 L253.4 91.9 252.45 91.9 252.45 91.35 252.7 91.0 256.45 91.2 258.1 91.45 257.85 91.1 257.95 90.7 Q257.95 89.75 257.15 89.05 L256.65 88.25 256.15 87.45 255.6 86.65 255.65 86.5 255.5 86.55 254.6 85.8 253.35 85.15 M253.05 102.55 Q249.5 104.5 247.15 105.1 L246.05 105.4 248.55 108.35 253.05 102.55 M282.15 121.2 L282.55 121.85 282.65 123.4 282.35 124.65 282.15 124.8 281.35 125.45 280.25 125.8 278.65 125.75 278.35 123.6 279.6 122.25 280.45 121.5 Q280.9 121.1 281.45 121.15 L282.15 121.2 M290.65 110.15 Q290.65 108.4 291.55 109.35 292.35 110.25 292.55 111.15 L292.8 114.5 Q292.8 117.6 292.3 119.45 291.5 122.45 291.05 125.75 290.2 132.25 289.15 137.0 L287.25 142.65 Q285.8 146.3 285.45 148.25 L284.5 153.95 Q283.85 157.6 282.8 159.5 L283.4 157.0 Q283.4 155.0 283.9 151.75 L284.65 146.6 Q284.85 144.7 286.2 141.25 L287.9 135.9 289.65 125.25 Q289.9 123.1 290.75 119.6 291.4 117.0 291.4 114.4 L291.4 112.5 291.0 111.35 290.65 110.15 M188.05 193.0 Q185.5 193.0 183.05 196.5 L181.7 198.55 180.75 199.7 180.25 200.5 179.45 201.6 Q182.0 203.3 185.05 206.2 L189.65 210.75 194.65 215.3 199.4 219.75 207.8 228.9 212.05 233.45 216.65 237.9 219.25 240.3 222.2 242.4 Q223.6 243.2 226.8 244.35 L227.3 244.55 227.3 244.5 Q229.95 233.65 239.55 221.25 L244.55 215.65 250.2 210.1 256.1 204.4 257.2 203.35 256.9 203.25 256.8 202.85 253.8 203.75 Q247.65 205.45 242.8 205.85 L229.3 205.85 229.3 205.75 220.7 203.9 212.55 201.4 207.95 199.9 202.95 198.1 197.35 195.35 Q192.0 193.0 188.05 193.0 M236.05 109.45 Q236.75 111.8 238.35 115.7 240.6 121.1 240.9 123.65 L240.95 123.65 Q244.6 114.4 247.7 109.6 L245.55 106.6 244.85 105.8 Q241.35 107.0 236.05 109.45 M235.3 95.65 Q234.7 96.6 234.5 98.05 L234.4 100.7 Q235.05 103.3 235.7 107.75 L235.75 108.05 241.05 105.85 Q242.65 105.25 243.95 104.8 L235.9 96.25 235.3 95.65 M302.35 95.9 L300.75 96.0 301.5 96.0 302.35 95.9 M80.8 187.5 L80.9 187.05 81.05 187.1 Q83.0 187.15 85.65 188.15 88.0 189.05 89.95 190.25 96.15 194.65 96.9 194.65 L98.1 194.9 99.15 196.75 100.05 198.65 100.15 200.25 99.9 205.25 Q99.9 207.0 99.45 207.65 99.05 208.3 97.15 208.9 L95.05 209.65 Q98.2 215.15 100.3 222.2 102.45 229.55 102.45 235.25 L102.35 236.2 Q102.2 236.75 101.55 237.1 100.45 234.55 100.2 232.65 L99.5 230.3 98.65 228.0 96.8 223.1 94.95 218.6 Q92.45 212.25 88.6 205.55 L85.3 200.05 85.3 199.5 86.05 199.4 Q87.4 199.4 89.7 200.6 92.2 202.05 93.2 202.5 L85.8 193.7 80.8 187.5 M69.7 187.9 Q69.7 188.9 77.7 197.2 85.7 205.5 85.7 206.4 L85.55 207.0 84.3 207.1 77.9 203.6 73.9 201.7 Q71.35 200.55 70.3 200.25 L70.45 200.5 Q73.9 204.4 79.35 212.55 86.45 223.2 86.45 227.0 L86.4 228.25 85.55 228.35 71.8 219.5 68.0 217.2 Q66.05 216.0 64.05 215.0 L53.8 210.4 54.05 210.6 60.0 215.45 Q63.65 218.4 65.05 220.0 L69.95 224.9 Q73.95 228.95 73.95 229.65 L73.8 230.25 72.55 230.25 Q68.95 227.05 60.65 222.95 52.85 219.1 44.9 216.4 L45.05 216.5 55.05 225.7 61.7 232.2 61.55 232.75 Q50.15 232.3 46.0 233.15 43.7 233.65 40.0 234.9 L39.7 235.0 39.8 235.25 40.0 235.35 Q56.4 241.4 66.45 248.95 74.1 254.7 80.05 263.1 87.85 274.2 89.6 277.8 92.3 283.45 92.3 291.2 L92.25 292.6 109.5 292.55 110.3 291.5 111.8 289.85 112.85 288.1 113.55 286.65 115.05 283.6 116.55 280.5 Q117.95 278.05 119.45 274.4 L122.05 268.1 Q124.4 262.55 126.65 255.75 L128.55 249.5 129.1 246.4 Q129.45 244.5 130.8 244.25 L130.9 244.65 129.2 256.6 Q128.45 261.3 126.05 268.75 L121.8 281.0 Q121.0 282.95 119.7 287.1 118.55 290.45 117.0 292.55 L119.7 292.55 Q121.6 289.75 123.0 285.9 L125.9 278.15 Q128.8 271.9 131.55 262.4 134.0 254.0 134.95 246.4 135.8 239.7 135.8 231.05 135.8 220.45 134.5 214.1 132.7 205.2 127.4 196.75 L124.75 192.6 122.2 190.0 Q118.6 186.6 117.2 184.75 L114.15 182.1 Q111.45 179.85 111.45 179.4 107.55 176.7 100.8 174.55 95.4 172.85 84.7 170.25 L90.25 176.75 Q94.65 182.3 94.65 184.05 L93.8 184.75 93.0 184.2 92.05 183.75 83.8 183.35 76.2 182.9 Q75.4 182.9 72.8 184.4 69.7 186.2 69.7 187.9 M10.85 292.95 L13.45 293.1 14.1 293.1 Q14.7 293.55 15.2 293.5 L17.05 293.4 18.65 293.85 25.55 294.25 26.55 294.5 27.55 294.85 30.75 295.45 33.8 295.9 35.8 296.4 40.0 296.8 44.8 297.15 51.3 297.9 60.7 298.2 75.8 298.25 73.9 298.1 Q73.9 297.5 88.05 298.0 L92.05 297.65 96.3 296.85 105.35 295.55 105.75 295.5 91.35 295.45 91.3 295.5 91.3 295.45 90.15 295.45 90.05 296.25 89.65 296.25 89.55 296.0 89.5 295.45 44.5 295.25 44.05 295.05 Q43.8 294.8 43.8 294.0 43.8 293.25 44.05 293.0 L44.55 292.75 Q45.0 292.6 89.2 292.6 88.55 288.3 86.45 282.2 83.05 272.5 78.45 266.15 L72.85 258.85 Q68.85 254.45 63.3 251.35 55.75 247.2 42.45 243.9 L40.0 243.35 Q27.15 240.35 16.8 240.35 11.4 240.35 6.6 241.65 L5.85 241.75 Q4.3 242.05 3.1 243.05 L2.75 243.35 -1.25 244.9 -1.8 244.9 -1.9 245.05 Q-4.75 250.8 -5.75 254.4 L-8.5 263.75 Q-10.15 269.5 -10.65 273.35 L-11.2 275.7 -11.9 278.0 -12.75 282.75 -14.4 292.0 -14.3 292.5 -9.25 292.5 -6.6 292.95 -5.0 293.4 -0.6 292.85 2.0 292.25 7.5 292.9 10.3 292.95 10.85 292.95 M147.2 295.3 L146.8 295.3 146.95 296.35 147.05 296.35 147.2 295.3 M195.5 305.0 L194.8 305.0 160.75 307.15 Q165.7 308.15 172.4 311.25 182.55 315.85 185.55 315.85 188.35 315.85 190.35 314.45 191.8 313.45 193.55 311.15 194.8 309.6 195.3 308.0 L195.3 306.1 Q195.2 305.4 195.5 305.0" fill="#000000" fill-rule="evenodd" stroke="none"/>
      <path d="M286.85 42.95 L289.1 46.7 293.05 55.35 Q294.4 58.6 295.15 61.35 295.55 63.5 295.55 68.25 L295.55 69.0 295.8 69.25 Q296.8 68.55 297.0 67.4 L297.4 65.4 Q297.7 64.7 297.8 63.45 L298.05 61.5 298.45 59.7 298.5 59.75 Q302.5 65.7 303.8 68.65 L305.45 72.3 306.9 75.85 Q307.65 79.95 307.8 83.35 L307.95 85.45 307.9 85.85 308.0 86.75 308.5 95.8 308.1 94.9 Q307.2 93.05 306.35 93.05 L302.2 94.2 301.05 94.35 297.85 94.45 298.05 92.65 Q298.05 91.15 298.55 88.65 L299.05 84.8 Q299.05 80.25 298.6 77.15 298.05 73.4 296.55 69.65 L297.15 75.1 297.7 81.2 297.65 85.25 296.9 90.65 296.6 93.0 296.35 94.5 294.55 94.5 288.7 94.35 287.5 94.05 285.05 93.9 284.95 94.35 Q284.6 94.7 284.2 95.4 283.8 96.35 283.8 98.3 L283.85 101.0 284.8 104.0 285.55 103.9 285.55 103.75 Q285.95 103.75 286.75 102.65 287.6 101.55 288.7 101.0 L288.9 100.75 289.4 100.55 290.9 100.55 290.15 100.6 292.95 100.55 293.55 100.7 294.4 101.0 295.0 101.45 295.25 101.7 295.7 101.95 296.65 102.95 297.25 104.0 297.35 104.5 297.7 105.0 297.9 106.05 297.9 106.35 298.2 108.1 298.2 109.25 298.15 110.15 297.65 109.7 Q293.25 107.0 293.25 108.55 293.25 109.1 294.4 109.85 L296.45 111.1 297.3 111.65 298.1 112.3 Q299.0 113.3 299.35 113.3 299.75 113.7 300.35 113.7 301.35 113.7 301.75 112.1 L301.8 111.85 302.05 111.3 301.9 110.95 301.95 110.3 301.85 109.85 302.05 108.05 Q302.05 104.0 299.3 100.6 L299.1 100.35 305.2 101.65 306.85 101.3 307.05 101.25 307.65 103.5 308.0 103.9 305.2 110.5 303.0 115.7 Q301.9 118.55 301.35 120.3 L300.95 120.1 300.5 122.75 300.35 122.9 299.85 126.55 299.85 126.75 299.6 128.05 299.6 130.6 299.8 132.05 299.6 137.05 299.4 138.7 299.15 139.4 299.0 140.5 298.7 141.2 298.1 143.45 295.2 152.0 293.55 156.2 292.35 159.4 292.05 160.35 290.7 165.2 288.45 173.25 Q287.4 177.35 285.2 180.65 L284.8 180.85 Q283.85 181.4 283.45 182.1 L282.0 183.3 280.45 184.15 275.85 186.1 275.5 186.25 275.3 186.15 274.5 186.25 Q266.3 186.25 261.1 183.45 258.0 181.8 250.55 175.15 242.7 168.25 242.4 161.15 L242.4 161.1 Q249.95 162.35 251.15 163.1 L252.4 164.45 Q253.55 165.5 254.95 165.5 257.75 165.5 258.8 162.75 L259.25 160.15 259.75 160.4 260.7 160.75 Q263.6 160.75 267.0 159.55 269.75 158.55 270.9 157.6 270.9 157.1 270.3 156.85 L266.55 156.4 263.8 155.4 Q261.85 154.2 261.15 153.0 260.7 152.3 260.15 150.6 L259.15 147.85 259.05 147.75 Q260.75 148.6 266.1 150.05 L273.8 152.0 Q276.15 152.6 277.3 154.75 278.15 157.05 278.55 157.75 L279.3 157.65 279.3 155.6 Q278.7 153.15 278.35 149.65 L277.8 144.0 Q276.85 140.85 274.25 138.1 271.8 135.45 268.6 134.05 L268.85 133.55 Q268.95 132.6 269.3 132.0 L272.6 133.2 275.55 134.5 Q276.1 134.4 276.25 134.05 L276.3 133.55 274.8 131.3 273.2 129.35 271.0 127.65 Q270.15 126.95 270.0 126.4 272.4 126.15 273.65 124.45 274.8 122.25 275.65 121.65 278.4 120.25 279.3 119.5 L279.75 119.0 280.05 118.75 280.6 118.25 280.95 117.55 281.3 115.15 Q281.3 112.85 279.4 109.9 277.5 106.9 277.5 105.5 L277.65 104.45 278.0 103.1 278.35 100.7 278.35 99.4 277.9 98.05 276.7 95.4 275.65 93.35 277.75 89.4 Q279.3 86.05 279.3 84.0 279.3 82.3 277.85 81.35 275.95 80.2 275.05 77.75 274.35 75.75 273.1 73.85 272.05 72.35 271.3 72.05 L271.3 71.7 271.3 71.35 271.2 71.25 Q267.9 71.35 266.3 70.6 L265.3 69.75 264.8 68.9 264.05 68.0 262.55 66.25 Q261.8 65.45 260.05 65.25 254.8 64.6 251.9 62.75 L250.0 61.15 250.35 61.0 258.4 60.65 258.55 60.55 258.55 60.05 Q258.55 59.25 253.05 56.5 L246.8 53.65 251.65 52.75 254.8 52.25 256.45 51.9 258.3 51.5 266.15 51.1 266.3 51.05 266.3 50.65 Q266.3 50.15 263.7 47.6 L260.95 44.9 259.25 42.9 260.15 42.1 263.8 39.6 264.2 39.35 264.7 40.2 266.65 44.55 267.75 46.95 267.7 47.25 267.75 47.65 268.05 47.7 Q268.65 47.7 269.25 46.95 L269.95 46.05 271.95 44.4 273.55 42.7 274.15 41.8 277.15 44.45 279.25 46.25 280.2 47.05 280.45 47.5 Q280.65 47.8 281.05 47.8 281.75 47.8 282.15 46.65 L282.8 44.7 283.85 41.7 284.55 39.85 286.85 42.95 M253.35 85.15 L254.6 85.8 255.5 86.55 255.65 86.5 255.6 86.65 256.15 87.45 256.65 88.25 257.15 89.05 Q257.95 89.75 257.95 90.7 L257.85 91.1 258.1 91.45 256.45 91.2 252.7 91.0 252.45 91.35 252.45 91.9 253.4 91.9 256.05 91.8 Q258.7 91.9 259.15 92.75 L259.45 93.65 260.05 95.9 260.05 95.95 256.95 98.55 256.0 99.35 254.9 99.9 Q250.7 102.3 248.8 103.0 L245.15 104.35 Q239.35 97.65 236.8 95.15 L236.2 94.65 Q238.65 92.25 240.9 91.5 L242.45 91.5 245.45 92.0 248.65 91.9 248.8 91.85 248.8 91.4 Q248.8 91.0 248.15 90.95 L245.2 90.6 245.2 90.5 244.9 90.6 Q244.35 90.6 244.35 89.85 L244.55 88.65 245.0 87.4 245.6 86.2 245.75 85.9 246.05 85.6 Q246.4 85.35 246.6 85.25 L247.2 85.05 247.25 85.05 250.05 84.8 251.35 84.8 253.35 85.15 M302.35 95.9 L301.5 96.0 300.75 96.0 302.35 95.9 M235.3 95.65 L235.9 96.25 243.95 104.8 Q242.65 105.25 241.05 105.85 L235.75 108.05 235.7 107.75 Q235.05 103.3 234.4 100.7 L234.5 98.05 Q234.7 96.6 235.3 95.65 M236.05 109.45 Q241.35 107.0 244.85 105.8 L245.55 106.6 247.7 109.6 Q244.6 114.4 240.95 123.65 L240.9 123.65 Q240.6 121.1 238.35 115.7 236.75 111.8 236.05 109.45 M188.05 193.0 Q192.0 193.0 197.35 195.35 L202.95 198.1 207.95 199.9 212.55 201.4 220.7 203.9 229.3 205.75 229.3 205.85 242.8 205.85 Q247.65 205.45 253.8 203.75 L256.8 202.85 256.9 203.25 257.2 203.35 256.1 204.4 250.2 210.1 244.55 215.65 239.55 221.25 Q229.95 233.65 227.3 244.5 L227.3 244.55 226.8 244.35 Q223.6 243.2 222.2 242.4 L219.25 240.3 216.65 237.9 212.05 233.45 207.8 228.9 199.4 219.75 194.65 215.3 189.65 210.75 185.05 206.2 Q182.0 203.3 179.45 201.6 L180.25 200.5 180.75 199.7 181.7 198.55 183.05 196.5 Q185.5 193.0 188.05 193.0 M290.65 110.15 L291.0 111.35 291.4 112.5 291.4 114.4 Q291.4 117.0 290.75 119.6 289.9 123.1 289.65 125.25 L287.9 135.9 286.2 141.25 Q284.85 144.7 284.65 146.6 L283.9 151.75 Q283.4 155.0 283.4 157.0 L282.8 159.5 Q283.85 157.6 284.5 153.95 L285.45 148.25 Q285.8 146.3 287.25 142.65 L289.15 137.0 Q290.2 132.25 291.05 125.75 291.5 122.45 292.3 119.45 292.8 117.6 292.8 114.5 L292.55 111.15 Q292.35 110.25 291.55 109.35 290.65 108.4 290.65 110.15 M282.15 121.2 L281.45 121.15 Q280.9 121.1 280.45 121.5 L279.6 122.25 278.35 123.6 278.65 125.75 280.25 125.8 281.35 125.45 282.15 124.8 282.35 124.65 282.65 123.4 282.55 121.85 282.15 121.2 M253.05 102.55 L248.55 108.35 246.05 105.4 247.15 105.1 Q249.5 104.5 253.05 102.55 M10.3 292.95 L7.5 292.9 2.0 292.25 -0.6 292.85 -5.0 293.4 -6.6 292.95 -9.25 292.5 -14.3 292.5 -14.4 292.0 -12.75 282.75 -11.9 278.0 -11.2 275.7 -10.65 273.35 Q-10.15 269.5 -8.5 263.75 L-5.75 254.4 Q-4.75 250.8 -1.9 245.05 L-1.8 244.9 -1.25 244.9 2.75 243.35 3.1 243.05 Q4.3 242.05 5.85 241.75 L6.6 241.65 Q11.4 240.35 16.8 240.35 27.15 240.35 40.0 243.35 L42.45 243.9 Q55.75 247.2 63.3 251.35 68.85 254.45 72.85 258.85 L78.45 266.15 Q83.05 272.5 86.45 282.2 88.55 288.3 89.2 292.6 45.0 292.6 44.55 292.75 L44.05 293.0 Q43.8 293.25 43.8 294.0 43.8 294.8 44.05 295.05 L44.5 295.25 89.5 295.45 89.55 296.0 89.65 296.25 90.05 296.25 90.15 295.45 91.3 295.45 91.3 295.5 91.35 295.45 105.75 295.5 105.35 295.55 96.3 296.85 92.05 297.65 88.05 298.0 Q73.9 297.5 73.9 298.1 L75.8 298.25 60.7 298.2 51.3 297.9 44.8 297.15 40.0 296.8 35.8 296.4 33.8 295.9 30.75 295.45 27.55 294.85 26.55 294.5 25.55 294.25 18.65 293.85 17.05 293.4 15.2 293.5 Q14.7 293.55 14.1 293.1 L13.45 293.1 10.85 292.95 10.3 292.85 10.3 292.95" fill="#50743f" fill-rule="evenodd" stroke="none"/>
      <path d="M127.15 297.7 L127.3 296.75 127.45 296.45 128.1 295.45 Q131.3 290.4 131.3 295.35 L131.3 295.4 136.5 295.4 136.4 295.65 Q134.9 298.9 134.45 301.0 L134.55 301.1 Q135.7 300.45 136.35 298.9 L137.15 296.5 137.65 295.4 145.65 295.3 146.55 300.5 147.3 300.4 148.3 295.3 153.85 295.25 153.8 296.0 153.9 296.25 154.4 295.25 169.15 295.15 169.15 296.5 Q169.15 296.75 169.3 296.85 L169.75 295.15 175.65 295.05 Q176.0 298.65 176.7 300.9 L177.05 300.75 176.7 295.05 181.55 294.8 Q181.8 295.35 181.8 294.1 L181.55 293.0 Q181.25 292.5 180.3 292.55 L176.45 292.55 Q175.1 280.35 170.8 266.0 L168.7 257.55 166.55 248.75 164.45 240.15 163.4 235.85 Q162.65 233.15 161.55 231.75 161.05 232.05 161.05 232.8 161.05 233.1 162.6 238.6 164.25 244.95 164.8 248.75 L167.3 264.65 168.5 272.65 169.3 280.6 169.3 288.55 169.15 292.55 154.8 292.55 154.85 291.75 154.8 287.9 153.4 276.25 152.9 270.35 Q152.55 266.9 151.3 264.75 150.8 265.25 150.8 266.0 L151.05 267.5 151.05 270.05 Q151.05 274.15 149.1 284.55 L147.65 292.55 146.4 292.55 145.45 287.75 Q145.3 287.2 145.1 283.55 144.95 280.8 143.8 279.5 143.1 280.4 142.6 281.95 L141.8 284.85 140.45 287.45 138.9 290.25 137.85 292.55 126.45 292.55 126.7 292.05 127.7 289.85 Q130.35 284.05 131.3 280.85 133.55 273.85 136.05 262.85 140.45 243.3 140.45 226.85 L140.3 218.55 Q140.0 214.8 138.7 209.25 L137.4 204.95 Q136.45 202.0 136.15 200.4 135.75 198.55 134.2 195.95 132.85 193.65 131.3 191.75 L124.0 183.1 Q119.6 178.55 113.45 175.15 L114.55 175.5 116.1 175.9 Q119.35 177.1 120.2 177.65 L120.65 178.1 121.85 179.05 123.8 180.35 127.7 183.0 Q136.25 188.4 141.4 193.65 144.95 197.35 149.95 204.25 155.25 211.65 158.3 215.0 170.3 228.9 177.45 236.6 189.3 249.35 193.9 257.75 L194.3 257.75 194.4 257.4 193.95 256.25 194.2 256.25 194.3 255.45 191.95 250.6 188.7 244.0 Q187.95 242.3 186.85 238.3 L184.95 232.6 185.05 232.5 Q189.6 239.0 198.8 246.5 L199.4 246.5 199.55 245.95 196.75 241.5 Q193.65 236.5 192.3 232.5 L192.4 232.25 201.3 239.35 209.8 246.15 210.2 246.0 210.3 245.55 Q206.8 240.9 205.8 238.0 L213.55 244.25 Q214.85 245.3 218.65 247.35 223.05 249.7 224.4 250.6 225.45 250.55 225.45 250.05 225.45 249.5 220.6 243.6 L217.7 240.15 Q222.1 243.55 227.1 245.35 L227.35 245.6 229.3 246.1 Q228.05 253.2 228.05 256.25 228.05 258.5 229.05 261.7 L229.85 264.3 Q229.55 265.2 229.55 266.5 L229.4 266.75 229.55 267.0 229.7 267.1 Q230.4 268.6 233.75 273.45 L239.15 281.25 Q244.5 290.1 245.7 295.65 L246.05 295.65 246.05 295.35 246.05 295.25 246.1 295.35 Q247.55 299.55 247.55 302.65 247.55 303.9 246.95 304.5 246.0 305.5 243.25 305.5 L237.95 305.0 218.55 304.5 210.2 304.0 194.8 303.5 169.05 305.05 153.85 306.75 153.5 306.8 152.1 307.0 151.6 307.1 147.45 307.75 147.45 307.85 147.5 307.9 144.55 308.55 Q136.45 310.5 129.9 310.5 L126.15 310.35 125.65 311.25 125.45 311.6 Q123.5 315.0 122.8 315.0 122.05 315.0 121.75 314.65 L121.5 314.3 121.3 313.35 122.2 311.1 122.7 309.95 123.6 307.9 125.75 302.3 127.15 297.7 M69.7 187.9 Q69.7 186.2 72.8 184.4 75.4 182.9 76.2 182.9 L83.8 183.35 92.05 183.75 93.0 184.2 93.8 184.75 94.65 184.05 Q94.65 182.3 90.25 176.75 L84.7 170.25 Q95.4 172.85 100.8 174.55 107.55 176.7 111.45 179.4 111.45 179.85 114.15 182.1 L117.2 184.75 Q118.6 186.6 122.2 190.0 L124.75 192.6 127.4 196.75 Q132.7 205.2 134.5 214.1 135.8 220.45 135.8 231.05 135.8 239.7 134.95 246.4 134.0 254.0 131.55 262.4 128.8 271.9 125.9 278.15 L123.0 285.9 Q121.6 289.75 119.7 292.55 L117.0 292.55 Q118.55 290.45 119.7 287.1 121.0 282.95 121.8 281.0 L126.05 268.75 Q128.45 261.3 129.2 256.6 L130.9 244.65 130.8 244.25 Q129.45 244.5 129.1 246.4 L128.55 249.5 126.65 255.75 Q124.4 262.55 122.05 268.1 L119.45 274.4 Q117.95 278.05 116.55 280.5 L115.05 283.6 113.55 286.65 112.85 288.1 111.8 289.85 110.3 291.5 109.5 292.55 92.25 292.6 92.3 291.2 Q92.3 283.45 89.6 277.8 87.85 274.2 80.05 263.1 74.1 254.7 66.45 248.95 56.4 241.4 40.0 235.35 L39.8 235.25 39.7 235.0 40.0 234.9 Q43.7 233.65 46.0 233.15 50.15 232.3 61.55 232.75 L61.7 232.2 55.05 225.7 45.05 216.5 44.9 216.4 Q52.85 219.1 60.65 222.95 68.95 227.05 72.55 230.25 L73.8 230.25 73.95 229.65 Q73.95 228.95 69.95 224.9 L65.05 220.0 Q63.65 218.4 60.0 215.45 L54.05 210.6 53.8 210.4 64.05 215.0 Q66.05 216.0 68.0 217.2 L71.8 219.5 85.55 228.35 86.4 228.25 86.45 227.0 Q86.45 223.2 79.35 212.55 73.9 204.4 70.45 200.5 L70.3 200.25 Q71.35 200.55 73.9 201.7 L77.9 203.6 84.3 207.1 85.55 207.0 85.7 206.4 Q85.7 205.5 77.7 197.2 69.7 188.9 69.7 187.9 M80.8 187.5 L85.8 193.7 93.2 202.5 Q92.2 202.05 89.7 200.6 87.4 199.4 86.05 199.4 L85.3 199.5 85.3 200.05 88.6 205.55 Q92.45 212.25 94.95 218.6 L96.8 223.1 98.65 228.0 99.5 230.3 100.2 232.65 Q100.45 234.55 101.55 237.1 102.2 236.75 102.35 236.2 L102.45 235.25 Q102.45 229.55 100.3 222.2 98.2 215.15 95.05 209.65 L97.15 208.9 Q99.05 208.3 99.45 207.65 99.9 207.0 99.9 205.25 L100.15 200.25 100.05 198.65 99.15 196.75 98.1 194.9 96.9 194.65 Q96.15 194.65 89.95 190.25 88.0 189.05 85.65 188.15 83.0 187.15 81.05 187.1 L80.9 187.05 80.8 187.5" fill="#737373" fill-rule="evenodd" stroke="none"/>
      <path d="M163.35 233.55 Q165.8 234.55 166.85 237.7 L168.35 241.55 169.85 245.5 174.9 260.95 Q176.05 264.3 178.7 274.75 182.1 287.9 182.1 291.8 L182.35 295.75 Q182.45 296.85 183.15 298.25 L183.85 299.85 Q183.85 301.1 183.6 300.7 180.85 301.95 178.9 301.95 177.75 301.95 176.9 300.45 176.75 300.15 175.5 299.9 174.2 299.65 173.85 299.2 173.3 298.4 173.3 297.1 L173.4 295.0 Q173.4 292.7 172.4 286.45 L170.7 277.9 168.9 269.5 Q168.0 264.5 164.3 249.6 L160.9 235.35 Q160.9 232.5 163.35 233.55 M140.85 293.95 Q140.85 293.5 141.6 292.95 142.35 292.35 142.35 290.5 L142.3 288.3 142.4 286.45 Q145.3 282.0 146.9 282.75 148.1 283.35 148.1 286.1 L147.9 291.75 147.25 292.85 Q146.45 293.6 145.15 293.95 L144.45 295.2 Q143.75 296.25 142.4 296.25 140.85 294.35 140.85 293.95 M153.85 265.95 Q154.75 266.45 155.1 268.45 L155.4 271.2 156.55 276.8 156.85 281.8 156.65 291.0 Q155.75 300.2 152.4 300.2 151.8 300.2 151.3 299.55 L150.4 298.45 151.6 297.05 Q152.15 296.5 152.15 295.8 152.15 290.6 151.1 279.35 L150.1 269.3 Q150.1 267.6 150.75 266.45 151.7 264.75 153.85 265.95 M85.2 199.9 L85.45 200.1 86.35 200.9 85.35 199.75 85.2 199.9 M94.9 199.55 Q95.5 199.65 96.65 200.25 L98.65 201.45 98.65 201.2 97.7 197.8 96.15 199.2 94.9 199.55 M91.6 205.25 L91.6 205.0 Q91.25 203.4 91.25 202.3 L89.1 202.5 87.85 202.15 91.6 205.25 M256.6 160.75 Q255.9 160.45 255.35 160.0 252.0 159.8 248.9 158.65 L249.7 160.15 Q253.4 161.55 256.6 160.75 M241.45 155.0 L241.8 154.7 242.2 154.4 Q239.35 151.85 239.35 149.95 239.35 148.3 240.65 147.65 242.3 146.85 244.85 149.0 L245.9 150.2 247.15 151.25 251.1 152.35 254.6 153.2 Q257.7 154.7 265.95 156.45 267.55 156.75 268.55 157.35 L269.9 157.2 Q271.15 157.45 271.15 159.0 L270.6 160.55 Q270.5 164.3 265.15 166.7 260.55 168.75 255.4 168.75 L254.85 168.75 257.65 171.75 262.9 176.45 265.8 178.95 Q267.65 180.5 268.85 180.95 L274.8 183.3 Q276.65 184.15 276.65 185.35 276.65 186.55 275.35 187.7 273.5 189.25 269.9 189.25 265.5 189.25 262.95 187.05 L258.35 182.95 253.5 178.35 Q249.55 174.45 248.9 174.45 L247.2 175.35 Q245.3 175.55 243.65 172.2 241.85 168.85 241.6 168.0 L239.75 163.5 Q234.4 159.45 234.4 156.45 234.4 155.5 234.85 154.5 235.6 152.7 237.4 152.7 238.35 152.7 240.5 154.25 L241.45 155.0 M175.85 195.6 L177.1 192.25 Q176.75 190.3 177.0 188.85 177.55 186.0 181.15 186.0 182.5 186.0 183.9 186.9 L185.9 188.2 187.55 186.3 Q189.45 184.5 191.4 184.5 193.55 184.5 195.0 186.05 L196.4 187.95 Q196.5 184.85 198.1 182.5 199.55 180.4 201.5 179.75 203.5 179.1 204.85 180.35 206.35 181.8 206.35 185.05 L205.85 187.75 205.4 190.45 205.45 191.25 205.9 191.25 206.65 191.45 208.45 190.25 Q210.2 189.0 211.4 189.0 L213.05 189.4 214.35 189.75 216.05 189.1 Q217.45 188.5 218.15 188.5 220.2 188.5 221.35 189.75 222.35 190.85 222.35 192.45 L221.85 194.2 Q221.2 195.65 220.1 196.2 218.45 197.0 217.4 198.2 216.45 199.3 216.35 200.2 L221.55 199.55 226.9 199.0 Q232.85 199.0 239.3 200.25 L248.65 201.45 Q252.05 201.45 255.05 199.85 257.5 198.25 257.9 198.25 259.0 198.25 259.65 199.75 260.15 200.85 260.15 201.8 260.15 203.3 256.15 205.7 251.6 208.45 247.0 208.45 L236.1 208.0 231.55 207.45 226.8 206.95 Q217.9 206.95 209.5 211.55 203.05 215.1 201.9 217.5 201.1 219.15 199.05 224.85 196.75 229.75 193.65 229.75 L193.3 229.75 196.65 232.5 Q201.8 236.95 202.65 236.95 203.7 236.95 204.15 234.7 204.6 232.45 205.9 232.45 207.55 232.45 211.35 235.8 215.8 239.65 217.9 240.5 218.5 240.7 221.6 244.65 224.85 248.75 224.85 249.8 224.85 251.05 224.15 250.25 221.7 249.05 218.1 246.1 215.0 243.55 213.1 241.5 L213.1 241.95 Q218.35 251.55 218.35 252.35 218.35 252.85 217.85 253.35 L216.9 254.2 Q214.45 253.05 208.4 247.65 L198.1 238.7 198.15 239.0 200.05 242.95 Q201.45 245.5 201.9 246.95 203.05 250.55 204.85 254.8 204.85 255.75 204.2 256.3 203.6 256.7 202.8 256.7 200.3 256.7 195.75 250.85 L190.85 244.0 195.85 256.2 Q199.35 264.5 199.35 265.55 L199.3 266.75 Q198.9 267.75 196.85 267.75 L184.2 251.55 Q170.25 233.8 163.85 226.95 L153.7 216.35 144.4 206.25 139.4 200.95 133.85 195.75 Q122.65 186.85 122.65 185.05 L122.75 184.1 122.85 183.75 Q120.25 183.0 117.65 181.6 L122.65 189.0 123.95 190.9 125.1 192.75 Q125.55 193.45 127.35 194.85 L129.35 196.7 131.0 200.75 132.4 204.95 134.9 213.6 Q136.85 220.75 136.85 221.55 L136.25 223.8 Q135.65 225.45 135.65 226.25 L135.85 231.5 135.95 236.6 135.85 241.7 135.1 251.75 Q134.45 257.5 132.65 261.95 131.25 265.4 130.05 271.85 128.7 278.9 127.6 282.2 L126.15 287.2 124.4 292.25 Q124.05 293.0 123.4 295.1 122.35 296.8 119.4 296.7 119.0 297.15 118.3 299.5 117.3 301.7 115.4 301.7 114.8 301.7 114.1 300.95 113.4 300.2 113.4 299.45 113.4 298.1 116.0 291.4 L121.65 276.05 Q129.9 251.55 129.9 231.1 129.9 224.35 127.45 217.05 124.0 207.9 121.9 201.5 119.25 193.45 108.8 184.15 99.55 175.9 90.8 173.85 L91.85 175.55 93.65 178.5 Q95.35 180.9 97.55 184.95 L100.9 191.25 Q102.65 194.5 105.15 205.4 107.35 215.0 107.35 216.35 L107.05 218.1 Q106.4 219.7 104.4 219.7 102.6 219.7 101.85 218.6 103.85 223.7 103.85 225.75 L104.65 238.85 104.6 240.75 Q104.1 242.5 101.9 242.5 99.75 242.5 97.9 235.75 L96.15 229.45 95.55 228.45 Q91.1 220.9 88.65 218.5 L85.05 214.75 87.3 220.15 Q91.35 230.05 91.35 231.55 91.35 233.45 90.5 234.35 L90.6 235.45 90.4 236.75 Q89.9 237.95 88.4 237.95 87.85 237.95 86.4 236.95 L84.65 235.5 80.75 234.4 80.65 234.4 80.9 235.6 82.1 242.1 81.9 243.7 Q81.45 245.0 79.9 245.0 78.0 245.0 77.1 243.35 L75.9 240.5 Q75.3 239.55 73.0 238.2 L72.3 237.85 Q71.35 237.55 70.05 236.8 L71.0 239.05 71.85 241.8 71.4 243.2 Q70.6 244.45 68.85 244.45 68.6 244.45 66.5 243.05 64.0 241.6 62.15 241.5 L56.35 241.55 49.1 240.95 43.1 239.95 41.4 239.95 40.0 239.65 40.1 239.75 Q40.55 240.55 42.35 240.9 L45.95 241.5 Q50.9 242.45 51.6 246.0 L53.2 245.0 Q54.05 244.45 54.4 244.45 55.65 244.45 56.15 245.45 L56.4 246.55 54.6 248.7 Q52.4 251.45 50.65 254.5 44.9 264.45 44.9 275.0 44.9 277.35 45.65 289.7 L46.85 297.55 47.85 304.3 47.65 306.35 Q46.95 308.2 44.65 308.2 43.55 308.2 42.5 304.55 L41.35 300.25 40.4 301.8 40.0 302.25 Q38.9 303.2 37.25 303.2 36.2 303.2 35.15 304.25 34.1 305.25 30.4 305.25 30.0 305.25 29.2 304.55 28.4 303.75 28.1 303.7 L25.0 303.1 23.85 302.25 Q23.2 301.5 23.05 300.2 L22.85 298.25 Q18.8 299.0 17.6 297.55 16.9 296.75 16.1 294.95 L16.1 295.0 15.45 297.15 Q14.55 298.7 12.0 298.7 9.4 298.7 8.5 296.55 L8.1 294.2 7.2 294.2 9.25 300.15 Q9.25 301.0 8.5 301.4 7.75 301.85 7.75 302.5 7.75 304.75 6.4 304.75 6.4 306.45 7.2 309.4 7.4 312.3 4.15 314.0 L4.35 313.7 5.4 312.6 Q5.9 311.95 5.9 311.2 L4.95 304.35 Q3.65 303.75 1.5 302.4 L-0.45 301.6 Q-1.45 301.15 -1.5 300.15 -1.55 302.2 -2.35 303.55 -3.15 304.85 -4.25 304.85 -6.2 304.85 -6.95 302.2 L-7.5 298.65 -7.55 298.5 -7.8 298.65 -8.5 298.75 Q-9.75 298.75 -10.1 297.55 L-10.25 296.15 -10.25 296.0 -10.65 296.2 -11.25 296.35 Q-12.4 296.35 -13.85 295.45 L-15.55 294.15 Q-16.05 293.8 -16.05 291.3 -16.05 283.2 -12.9 276.0 -10.55 270.5 -10.0 268.25 -7.9 261.2 -7.9 260.6 -7.9 260.25 -8.2 259.75 L-8.55 258.9 -6.8 252.95 -4.5 245.4 Q-3.15 240.9 -2.05 238.65 L-1.65 237.75 -0.75 237.0 0.5 237.1 1.5 237.6 2.25 237.9 Q3.55 236.5 6.4 236.5 L7.8 236.75 8.6 236.95 Q8.45 235.55 9.1 234.4 10.15 232.55 13.15 232.45 13.05 227.15 13.4 224.2 14.3 222.4 15.15 221.9 17.05 220.8 19.9 223.45 20.8 224.25 21.15 225.65 L21.4 227.25 22.6 226.55 Q23.6 226.0 24.4 226.0 27.8 226.0 28.75 228.35 L29.85 232.45 Q30.5 232.1 31.0 231.9 L32.65 231.5 Q35.0 231.5 36.15 233.0 L36.3 233.25 Q37.7 232.7 40.0 232.55 L42.4 232.45 42.5 232.45 42.65 232.4 Q48.25 230.55 57.35 231.25 L48.2 223.5 Q40.85 217.35 40.85 216.35 40.85 212.0 50.6 211.95 L49.95 211.05 Q49.65 210.6 49.65 209.8 49.65 209.1 50.1 208.45 50.85 207.2 52.65 207.2 54.8 207.2 58.35 209.75 63.25 213.25 65.9 214.45 69.0 215.75 73.35 218.25 L73.35 217.95 Q73.35 217.05 74.1 216.4 75.1 215.45 76.65 217.0 77.2 217.5 77.45 218.8 L77.85 220.75 77.85 220.8 81.1 222.7 80.55 221.5 Q78.9 218.05 78.9 216.95 L79.0 215.95 79.05 215.9 76.9 210.75 Q76.2 209.05 73.15 204.75 71.95 202.85 69.9 201.65 68.6 200.9 68.6 199.05 68.5 198.2 68.85 197.45 69.25 196.5 70.3 196.2 69.15 194.6 69.15 194.1 69.15 192.7 69.5 192.05 L69.25 191.8 Q68.1 190.55 68.1 189.3 68.1 188.65 68.4 188.05 68.7 187.6 68.6 187.25 68.1 185.45 68.35 184.7 68.2 183.05 68.5 181.8 68.95 179.5 71.65 179.5 73.55 179.5 75.05 181.05 L77.35 183.45 77.9 181.95 Q78.4 180.9 79.35 180.7 L82.45 179.4 Q84.5 178.35 85.9 178.2 87.05 178.15 88.1 178.95 L86.85 176.95 84.05 172.6 Q80.4 173.7 78.5 172.0 77.1 170.8 77.1 169.3 77.1 168.15 78.2 167.45 79.3 166.8 82.15 166.2 L88.3 166.0 Q92.4 166.5 94.35 167.7 95.95 168.65 98.4 169.15 L101.65 170.0 104.05 171.25 Q105.05 171.85 105.1 171.95 L106.8 172.45 Q108.25 172.65 108.85 173.0 L111.75 175.0 Q112.5 172.75 117.2 175.3 L124.9 180.0 Q128.8 181.75 132.8 184.3 L140.15 189.0 Q144.3 191.5 145.15 193.5 L145.4 195.45 Q145.45 196.35 147.6 198.0 L150.45 200.2 Q151.7 201.25 152.35 202.5 152.7 203.15 152.6 204.7 152.5 206.25 152.85 207.0 154.15 209.85 156.9 210.75 158.8 211.35 159.85 212.6 L161.65 214.95 170.35 223.95 Q173.35 227.1 177.8 232.8 L184.85 241.75 184.9 241.7 182.75 236.1 Q180.85 231.5 180.85 230.95 180.85 230.2 181.1 229.55 181.6 228.25 182.9 228.25 184.3 228.25 186.15 230.65 188.25 233.4 189.85 233.95 L188.45 231.5 Q188.1 230.75 188.1 229.8 188.1 228.0 190.15 228.0 L190.25 228.0 Q189.6 226.85 189.6 224.95 189.6 224.35 190.1 223.0 L190.6 221.0 189.6 219.3 Q188.6 217.8 188.6 216.5 188.6 215.0 189.1 212.0 L186.3 211.5 184.55 211.2 Q178.75 211.2 178.15 210.6 177.6 209.95 176.9 206.2 L175.3 201.8 Q175.1 201.0 175.1 198.45 175.1 197.3 175.85 195.6 M299.4 98.5 Q300.25 97.15 303.4 98.25 L305.1 98.3 Q306.8 98.55 307.35 99.5 308.4 101.2 308.4 102.85 L306.5 108.1 Q304.6 113.0 304.6 114.95 304.2 115.1 303.95 115.35 L302.9 115.5 Q302.45 115.5 298.1 112.55 293.75 109.55 292.35 108.25 291.05 107.05 286.9 104.95 284.35 103.65 284.35 101.55 284.35 100.55 284.9 99.95 285.5 99.25 286.65 99.25 L296.05 103.25 297.6 102.75 Q298.55 102.25 299.15 102.2 299.15 99.7 299.4 98.5 M260.2 79.55 L261.6 83.0 264.55 90.7 266.6 97.05 266.15 101.75 Q266.0 103.65 263.55 105.2 L261.15 106.8 Q261.15 107.9 261.95 110.7 262.3 113.2 260.1 114.2 257.95 115.2 257.7 116.1 257.55 116.6 257.85 117.7 257.95 118.65 257.2 119.7 256.1 121.25 253.9 121.25 L252.2 120.8 251.15 120.2 Q251.95 123.35 251.85 124.1 251.5 126.75 247.4 126.75 L245.75 126.4 244.85 126.2 244.85 126.5 244.6 128.85 Q243.7 130.75 239.9 130.75 237.5 130.75 236.45 126.25 L235.4 120.0 Q235.6 122.15 234.55 124.75 233.15 128.2 230.4 128.2 227.6 128.2 227.35 123.5 227.6 117.6 227.35 115.2 226.1 105.1 226.1 102.05 226.1 100.95 226.4 99.65 226.75 98.1 227.35 97.2 228.1 96.0 229.7 95.45 230.6 95.1 230.6 92.75 L230.65 90.3 Q230.9 88.65 231.9 87.95 232.05 87.85 235.45 86.3 238.55 84.9 239.9 83.75 239.55 82.0 240.05 80.35 240.85 77.5 243.9 77.5 245.3 77.5 246.55 78.5 L247.9 79.7 Q247.85 76.4 252.25 75.85 256.0 75.4 257.1 76.25 259.15 77.55 260.2 79.55 M277.2 61.35 Q274.7 60.7 273.6 59.45 276.85 58.55 281.15 60.3 285.65 62.1 289.15 66.0 L288.15 66.2 Q286.85 65.8 284.85 64.5 282.6 63.05 281.85 62.75 L277.2 61.35 M255.65 35.25 L258.05 34.55 260.15 33.7 261.1 32.7 Q261.75 31.85 262.35 31.45 265.55 27.5 269.05 26.9 272.65 26.25 272.65 30.05 272.65 31.95 272.0 32.5 268.55 35.5 268.4 35.7 L265.5 38.9 Q263.55 40.75 260.85 41.5 L261.1 41.7 Q265.6 44.95 267.6 46.55 271.1 49.45 271.1 51.7 271.1 53.85 270.0 54.75 267.3 57.05 258.65 55.5 L258.65 55.95 Q259.35 57.0 263.15 59.7 L266.9 60.7 Q270.1 61.55 272.1 63.05 L273.75 64.8 277.35 67.0 282.25 71.25 Q286.1 74.5 288.15 75.2 295.15 77.55 300.7 81.95 306.15 86.35 306.4 89.75 L304.9 89.95 301.8 86.45 Q299.65 84.35 297.1 83.5 293.25 82.15 288.3 81.1 284.55 80.3 282.4 79.2 L281.8 78.9 282.15 81.55 281.9 89.7 280.5 94.1 279.1 98.3 Q279.1 101.05 280.6 105.9 282.1 110.75 282.1 114.75 282.1 118.75 280.6 121.2 278.4 124.75 273.15 124.75 270.5 124.75 269.05 123.75 267.65 122.75 267.65 120.95 267.65 119.4 268.95 118.9 L271.75 118.55 Q275.85 118.3 275.85 114.95 275.85 113.0 273.85 108.2 271.85 103.35 271.85 97.7 271.85 95.8 273.35 91.25 274.85 86.7 274.85 85.05 274.85 82.2 273.2 78.95 271.25 75.05 267.6 72.5 L262.65 68.85 Q259.35 66.65 256.4 66.25 248.75 65.15 246.4 63.5 245.1 62.65 245.1 60.75 245.1 59.25 246.1 57.75 242.4 56.15 242.4 53.45 242.4 50.35 246.15 49.2 248.5 48.45 252.9 48.45 L255.45 48.55 257.85 48.45 257.4 48.0 250.25 43.05 Q247.85 41.45 247.85 39.45 247.85 36.95 250.2 36.2 L255.65 35.25" fill="#000000" fill-opacity="0.101960786" fill-rule="evenodd" stroke="none"/>
    </g>
    <g id="sprite4" transform="matrix(1.0, 0.0, 0.0, 1.0, 0.0, -0.4)">
      <use ffdec:characterId="4098" height="9.95" transform="matrix(1.0, 0.0, 0.0, 1.0, 0.0, 0.4)" width="7.8" xlink:href="#shape4"/>
    </g>
    <g id="shape4" transform="matrix(1.0, 0.0, 0.0, 1.0, 0.0, -0.4)">
      <path d="M7.4 3.65 L7.8 6.5 0.25 10.35 Q-0.95 4.35 4.25 0.95 L5.9 0.4 Q7.0 1.85 7.4 3.65" fill="url(#gradient5)" fill-rule="evenodd" stroke="none"/>
    </g>
    <radialGradient cx="0" cy="0" gradientTransform="matrix(0.0032, 0.0051, -0.0083, 0.0052, 6.0, 4.2)" gradientUnits="userSpaceOnUse" id="gradient5" r="819.2" spreadMethod="pad">
      <stop offset="0.0" stop-color="#ffffff"/>
      <stop offset="1.0" stop-color="#ffff99"/>
    </radialGradient>
    <g id="sprite5" transform="matrix(1.0, 0.0, 0.0, 1.0, 43.55, 5.6)">
      <use ffdec:characterId="4042" height="393.15" transform="matrix(1.0, 0.0, 0.0, 1.0, -43.55, -5.6)" width="726.2" xlink:href="#shape5"/>
    </g>
    <g id="shape5" transform="matrix(1.0, 0.0, 0.0, 1.0, 43.55, 5.6)">
      <path d="M682.65 -5.6 L682.65 387.55 -43.55 387.55 -43.55 -5.6 682.65 -5.6" fill="url(#gradient6)" fill-rule="evenodd" stroke="none"/>
    </g>
    <linearGradient gradientTransform="matrix(0.0, -0.24, 0.4432, 0.0, 319.55, 191.0)" gradientUnits="userSpaceOnUse" id="gradient6" spreadMethod="pad" x1="-819.2" x2="819.2">
      <stop offset="0.0" stop-color="#00005e"/>
      <stop offset="1.0" stop-color="#ee7700"/>
    </linearGradient>
    <g id="sprite6" transform="matrix(1.0, 0.0, 0.0, 1.0, 265.1, 150.0)">
      <use ffdec:characterId="3477" height="300.0" transform="matrix(1.0, 0.0, 0.0, 1.0, -265.1, -150.0)" width="533.0" xlink:href="#shape6"/>
    </g>
    <g id="shape6" transform="matrix(1.0, 0.0, 0.0, 1.0, 265.1, 150.0)">
      <path d="M267.9 -150.0 L267.9 150.0 -265.1 150.0 -265.1 -150.0 267.9 -150.0 Z" fill="none" stroke="#ff0000" stroke-linecap="round" stroke-linejoin="round" stroke-width="0.05"/>
      <path d="M1.4 -16.05 L1.45 -16.05 Q9.35 -16.05 14.95 -11.35 20.55 -6.65 20.55 0.0 L39.5 0.0 M20.55 0.0 Q20.55 6.65 14.95 11.35 9.35 16.05 1.45 16.05 L1.4 16.05 1.4 21.45 M-36.65 0.0 L-17.55 0.0 -17.55 -0.05 Q-17.55 -6.65 -11.95 -11.35 -6.4 -16.05 1.4 -16.05 M1.4 16.05 Q-6.4 16.05 -11.95 11.35 -17.55 6.65 -17.55 0.0" fill="none" stroke="#ff0000" stroke-linecap="round" stroke-linejoin="round" stroke-opacity="0.2509804" stroke-width="0.05"/>
      <path d="M1.4 -16.05 L1.4 -21.4" fill="none" stroke="#ff0000" stroke-linecap="round" stroke-linejoin="round" stroke-opacity="0.2509804" stroke-width="1.0"/>
      <path d="M181.15 141.4 L181.15 123.6 191.05 123.6 191.05 141.4 181.15 141.4" fill="#ffffff" fill-rule="evenodd" stroke="none"/>
      <path d="M250.55 123.6 L260.45 123.6 260.45 141.4 260.35 141.4 250.55 141.4 250.55 123.6" fill="#000000" fill-rule="evenodd" stroke="none"/>
      <path d="M230.7 123.6 L240.6 123.6 240.6 141.4 230.7 141.4 230.7 123.6" fill="#ff0000" fill-rule="evenodd" stroke="none"/>
      <path d="M191.05 123.6 L201.0 123.6 201.0 141.4 191.05 141.4 191.05 123.6" fill="#ffff00" fill-rule="evenodd" stroke="none"/>
      <path d="M201.0 123.6 L210.9 123.6 210.9 141.4 201.0 141.4 201.0 123.6" fill="#00ffff" fill-rule="evenodd" stroke="none"/>
      <path d="M210.9 123.6 L220.8 123.6 220.8 141.4 210.9 141.4 210.9 123.6" fill="#00ff00" fill-rule="evenodd" stroke="none"/>
      <path d="M220.8 123.6 L230.7 123.6 230.7 141.4 220.8 141.4 220.8 123.6" fill="#ff00ff" fill-rule="evenodd" stroke="none"/>
      <path d="M240.6 123.6 L250.55 123.6 250.55 141.4 240.6 141.4 240.6 123.6" fill="#0000ff" fill-rule="evenodd" stroke="none"/>
      <path d="M260.35 141.4 L260.35 145.4 181.1 145.4 181.1 141.4 181.15 141.4 191.05 141.4 201.0 141.4 210.9 141.4 220.8 141.4 230.7 141.4 240.6 141.4 250.55 141.4 260.35 141.4" fill="url(#gradient7)" fill-rule="evenodd" stroke="none"/>
    </g>
    <linearGradient gradientTransform="matrix(0.0484, 0.0, 0.0, 0.0024, 220.7, 143.35)" gradientUnits="userSpaceOnUse" id="gradient7" spreadMethod="pad" x1="-819.2" x2="819.2">
      <stop offset="0.0" stop-color="#ffffff"/>
      <stop offset="1.0" stop-color="#000000"/>
    </linearGradient>
  </defs>
</svg>
