<?xml version="1.0" encoding="UTF-8" standalone="no"?>
<svg xmlns:ffdec="https://www.free-decompiler.com/flash" xmlns:xlink="http://www.w3.org/1999/xlink" ffdec:objectType="frame" height="2021.0px" width="4592.9px" xmlns="http://www.w3.org/2000/svg">
  <g transform="matrix(2.0, 0.0, 0.0, 2.0, 2126.0, 970.4)">
    <use ffdec:characterId="4067" height="444.15" transform="matrix(1.0, 0.0, 0.0, 1.0, -326.0, -246.95)" width="764.2" xlink:href="#shape0"/>
    <use ffdec:characterId="4045" height="144.05" transform="matrix(1.0, 0.0, 0.0, 1.0, -283.0, 16.25)" width="830.7" xlink:href="#sprite0"/>
    <filter id="filter0">
      <feConvolveMatrix divisor="4.0" in="SourceGraphic" kernelMatrix="1 1 1 1" order="2 2" result="filterResult0"/>
    </filter>
    <use ffdec:characterId="4066" filter="url(#filter0)" height="234.85" transform="matrix(1.0, 0.0, 0.0, 1.0, -93.95, -94.3)" width="179.25" xlink:href="#sprite1"/>
    <use ffdec:characterId="4064" height="317.4" transform="matrix(1.0, 0.0, 0.0, 1.0, -274.7, -157.35)" width="200.35" xlink:href="#sprite2"/>
    <filter id="filter1">
      <feConvolveMatrix divisor="64.0" in="SourceGraphic" kernelMatrix="1 1 1 1 1 1 1 1 1 1 1 1 1 1 1 1 1 1 1 1 1 1 1 1 1 1 1 1 1 1 1 1 1 1 1 1 1 1 1 1 1 1 1 1 1 1 1 1 1 1 1 1 1 1 1 1 1 1 1 1 1 1 1 1" order="8 8" result="filterResult1"/>
    </filter>
    <use ffdec:characterId="4062" filter="url(#filter1)" height="345.15" transform="matrix(1.0, 0.0, 0.0, 1.0, 95.45, -193.85)" width="317.7" xlink:href="#sprite3"/>
    <filter id="filter2">
      <feConvolveMatrix divisor="64.0" in="SourceGraphic" kernelMatrix="1 1 1 1 1 1 1 1 1 1 1 1 1 1 1 1 1 1 1 1 1 1 1 1 1 1 1 1 1 1 1 1 1 1 1 1 1 1 1 1 1 1 1 1 1 1 1 1 1 1 1 1 1 1 1 1 1 1 1 1 1 1 1 1" order="8 8" result="filterResult2"/>
    </filter>
    <use ffdec:characterId="4069" filter="url(#filter2)" height="115.85" transform="matrix(1.0, 0.0, 0.0, 1.0, 59.15, 26.1)" width="103.15" xlink:href="#sprite4"/>
    <use ffdec:characterId="4060" height="149.25" style="mix-blend-mode: overlay" transform="matrix(5.3148, 0.0, 0.0, 2.6334, -266.95, -214.3)" width="124.2" xlink:href="#sprite5"/>
    <use ffdec:characterId="4041" height="300.0" transform="matrix(1.0339, 0.0, 0.0, 1.0339, -222.2301, -178.9812)" width="533.0" xlink:href="#sprite6"/>
  </g>
  <defs>
    <g id="shape0" transform="matrix(1.0, 0.0, 0.0, 1.0, 326.0, 246.95)">
      <path d="M438.2 -246.95 L438.2 197.2 -326.0 197.2 -326.0 -246.95 438.2 -246.95" fill="url(#gradient0)" fill-rule="evenodd" stroke="none"/>
    </g>
    <linearGradient gradientTransform="matrix(-1.0E-4, -0.2014, 0.2711, -2.0E-4, 56.1, -24.9)" gradientUnits="userSpaceOnUse" id="gradient0" spreadMethod="pad" x1="-819.2" x2="819.2">
      <stop offset="0.0" stop-color="#222222"/>
      <stop offset="0.9882352941176471" stop-color="#555555"/>
    </linearGradient>
    <g id="sprite0" transform="matrix(1.0, 0.0, 0.0, 1.0, 0.0, 0.0)">
      <use ffdec:characterId="4044" height="144.05" transform="matrix(1.0, 0.0, 0.0, 1.0, 0.0, 0.0)" width="830.7" xlink:href="#shape1"/>
    </g>
    <g id="shape1" transform="matrix(1.0, 0.0, 0.0, 1.0, 0.0, 0.0)">
      <path d="M830.45 7.1 L828.75 10.0 827.0 12.75 826.8 13.1 828.0 14.0 829.05 14.95 829.15 15.25 829.35 15.5 828.4 16.3 Q826.05 17.5 822.95 19.45 L818.05 22.4 811.8 25.85 809.8 26.7 809.25 26.85 809.1 26.9 801.95 28.85 795.0 30.6 788.5 32.35 784.25 33.45 773.75 38.6 763.45 43.1 758.75 45.05 Q753.15 47.6 744.9 50.6 L728.1 56.9 724.05 58.4 720.9 59.3 720.85 59.35 721.05 59.35 720.65 59.5 720.15 59.75 Q719.7 59.95 719.2 60.25 L716.3 61.9 711.1 65.1 Q710.75 65.3 710.25 65.65 L710.2 65.65 Q709.75 66.25 710.0 66.8 L710.1 66.85 710.2 67.0 713.9 66.65 717.55 66.4 720.5 66.4 720.7 66.55 724.95 66.9 729.0 67.55 731.75 68.05 737.0 69.1 737.3 69.25 741.15 69.5 Q742.9 69.75 743.6 70.3 L744.3 71.0 747.6 71.55 750.6 71.9 Q756.35 69.6 763.7 68.45 L777.85 67.75 Q784.1 68.35 784.35 70.55 784.55 71.5 783.5 72.6 L784.3 72.8 786.2 73.35 Q787.2 73.6 787.6 73.9 L788.45 74.6 Q789.15 75.2 792.6 76.0 L796.55 76.85 Q798.5 77.3 800.3 78.05 L801.85 78.75 801.95 78.7 802.3 78.95 803.05 79.6 802.9 79.7 Q803.65 81.55 798.65 84.6 L797.2 85.75 799.65 85.05 799.65 85.1 799.35 85.3 796.25 86.5 Q794.1 88.4 792.45 90.7 L791.65 90.8 Q791.3 89.55 793.2 87.8 L793.65 87.5 790.5 88.95 782.55 92.85 775.05 96.7 Q768.7 100.05 759.1 104.4 L741.9 112.15 725.6 119.85 Q713.2 125.55 701.15 129.6 685.9 134.75 679.85 136.4 671.25 138.7 665.2 138.7 L658.8 138.55 644.15 138.4 636.8 138.1 628.65 137.45 621.5 136.05 609.7 135.3 599.0 135.6 590.7 135.95 580.35 135.3 569.65 134.7 559.45 135.15 553.6 135.75 538.55 136.65 538.0 136.6 534.7 136.95 532.7 137.1 518.0 137.25 510.15 137.2 500.6 138.4 492.4 139.8 485.75 140.4 Q478.95 140.4 483.65 137.0 L482.6 137.4 481.45 137.7 481.25 137.6 484.1 136.55 478.0 136.5 Q465.15 136.5 442.7 137.1 420.35 137.7 407.7 137.7 397.05 137.7 392.3 137.4 L387.45 137.1 376.0 136.55 Q375.15 136.35 376.5 135.75 L379.9 134.5 378.85 134.5 371.65 134.35 368.1 134.35 363.95 135.4 359.55 136.1 355.35 136.3 349.0 137.1 345.3 137.4 Q343.25 137.4 344.5 136.35 L346.3 135.3 348.5 134.75 346.45 134.35 Q345.75 134.0 346.7 133.5 L345.05 134.1 344.0 134.1 344.4 133.9 345.15 133.65 345.85 133.45 345.95 133.35 346.3 133.1 346.65 132.95 346.45 132.95 346.6 132.8 340.6 132.25 340.2 132.25 337.35 133.4 337.05 133.45 338.7 132.5 338.35 132.6 336.55 132.95 336.05 132.85 336.3 132.7 323.25 134.95 306.55 136.05 293.2 135.75 274.55 135.5 263.35 135.65 250.0 135.85 236.45 135.35 233.55 134.55 228.05 133.25 227.45 133.5 227.75 133.25 227.9 133.2 223.3 132.6 220.05 133.25 214.9 133.95 212.3 133.7 206.5 133.55 203.85 133.2 199.55 132.9 195.45 132.9 192.6 133.95 192.55 133.95 Q192.8 133.6 194.55 132.8 L194.35 132.55 Q194.3 132.45 195.25 132.05 L197.3 131.3 197.5 131.25 198.3 130.85 Q199.4 130.3 200.75 130.1 L200.9 130.05 201.5 129.8 204.5 128.65 209.95 126.25 Q216.5 123.4 220.2 121.55 221.85 120.75 225.9 119.2 L232.0 116.85 234.75 115.7 237.75 114.5 244.0 112.05 244.25 112.0 248.95 109.95 255.35 107.3 256.25 106.8 257.1 106.3 Q258.4 105.7 260.8 105.0 L263.6 104.1 264.6 103.3 Q265.15 102.7 265.6 102.5 L271.55 100.2 278.7 97.35 282.5 95.9 287.2 94.2 292.2 92.65 297.55 91.05 299.7 90.3 Q301.15 89.75 302.15 89.45 L305.05 88.75 308.1 87.95 Q311.15 86.8 313.75 86.3 L315.4 86.1 317.2 85.8 319.25 85.4 320.4 85.1 323.7 84.4 327.0 83.75 334.3 82.45 337.7 81.95 341.0 80.3 343.4 79.6 347.4 79.1 349.55 78.85 350.05 78.8 350.95 78.7 352.1 78.65 Q354.3 78.65 354.35 79.1 L354.3 79.2 354.5 79.1 356.9 78.15 357.45 77.85 360.55 77.25 362.9 76.9 363.65 76.8 367.75 76.1 368.95 75.9 372.1 75.4 373.65 75.2 375.8 74.3 Q380.95 71.95 383.4 69.35 L388.85 63.85 389.2 63.7 389.8 63.1 389.7 63.1 390.05 62.9 390.35 62.65 390.45 62.55 Q392.45 60.9 395.5 59.0 L395.3 59.0 394.8 58.9 394.75 58.85 394.25 58.75 393.45 58.45 Q392.75 58.4 393.1 58.1 L393.45 57.95 393.75 57.7 394.75 57.0 395.8 56.35 396.85 55.75 399.0 55.0 400.25 54.7 400.75 54.45 408.05 51.2 411.25 49.9 Q413.65 48.95 418.6 47.3 422.2 46.1 428.25 44.7 L434.3 43.4 437.55 42.85 439.35 42.35 441.25 41.85 446.5 41.2 448.15 41.05 449.75 40.9 453.45 40.75 455.2 40.7 456.25 40.75 458.25 40.85 458.6 41.65 462.45 41.9 463.5 42.0 464.8 42.3 Q466.7 42.6 466.9 43.3 L467.4 43.8 467.7 44.45 Q467.4 45.9 466.5 47.0 L464.85 48.3 463.7 49.3 463.8 49.3 463.3 49.65 462.9 49.75 462.7 49.85 462.7 49.9 462.75 49.9 463.4 50.2 463.5 50.25 463.5 50.3 463.45 50.4 463.3 50.4 462.35 51.0 461.0 51.7 459.95 52.4 458.45 53.2 457.0 53.8 456.0 54.1 454.7 54.35 450.7 55.2 444.65 58.05 444.0 58.35 443.15 58.8 442.7 59.0 Q434.3 62.85 425.9 65.7 421.35 67.8 419.2 69.2 L417.05 71.05 420.7 71.55 423.45 71.9 425.9 72.2 Q426.7 72.25 426.65 72.4 L426.15 72.75 425.5 73.35 425.35 73.55 427.0 73.65 Q428.25 73.1 431.15 72.7 L436.85 72.45 Q439.25 72.6 439.25 73.1 L438.6 73.65 437.85 74.05 449.75 74.8 Q452.15 75.25 452.6 75.75 454.2 77.6 451.4 81.45 L449.0 84.4 Q447.8 86.2 448.45 87.2 448.8 87.75 447.65 88.65 L446.0 90.1 Q445.25 92.15 444.0 92.9 435.0 98.55 422.95 104.5 420.95 105.5 418.2 107.35 L413.7 110.3 407.9 113.15 405.7 114.4 Q403.75 115.5 398.05 119.3 L395.7 120.95 399.85 119.55 406.05 117.0 Q408.5 116.05 413.9 114.5 L422.1 112.05 428.05 109.5 431.4 108.25 432.4 107.85 433.7 107.2 434.45 106.75 437.35 104.85 442.4 101.05 Q444.95 99.3 449.2 97.35 L453.8 95.15 456.85 93.6 459.6 92.4 Q461.2 91.8 464.45 90.95 L467.25 90.3 470.85 89.85 473.95 89.6 Q474.15 89.6 474.5 89.95 L475.0 90.15 475.3 90.5 Q476.35 92.4 472.65 95.9 470.2 98.2 465.65 101.35 L457.5 106.65 457.15 107.0 455.7 108.2 454.9 108.85 460.9 107.2 468.55 105.75 471.7 105.05 474.85 104.2 481.35 102.75 488.2 101.35 492.45 100.2 496.8 97.9 Q500.9 96.05 506.1 94.7 510.8 93.45 520.5 91.55 535.0 88.7 540.9 90.3 542.45 90.7 543.15 91.3 L552.0 89.85 556.35 89.1 556.65 89.0 Q559.1 88.15 560.8 87.85 L563.0 87.35 568.25 86.2 573.3 85.05 583.05 82.8 593.55 80.35 595.55 79.95 596.95 80.2 599.35 80.6 600.95 80.85 604.35 80.1 605.4 79.55 Q607.5 78.6 607.9 78.2 608.35 77.75 609.95 76.9 L612.5 75.5 614.0 74.55 614.4 74.55 616.55 73.25 Q622.3 69.6 628.55 64.25 628.95 63.4 629.95 62.6 L630.0 62.55 628.8 60.6 Q627.95 59.75 629.55 58.45 631.65 57.1 632.35 56.35 L635.05 54.25 638.05 52.15 637.75 52.25 Q634.35 51.45 637.3 49.65 L643.25 46.55 Q647.75 43.85 650.65 42.3 L650.4 42.3 Q650.05 42.3 647.4 37.75 L647.2 37.75 647.35 37.65 647.2 37.5 647.55 37.45 Q647.3 37.0 648.5 36.3 L651.25 34.85 Q654.5 33.0 656.45 32.15 L661.05 29.6 Q665.45 27.2 666.9 26.55 L667.7 26.25 667.75 26.2 674.5 24.3 679.5 23.05 701.2 15.25 717.2 9.85 Q724.2 7.6 730.75 5.85 732.3 5.2 738.15 3.9 L738.65 3.85 739.65 3.25 Q741.75 2.3 743.95 1.95 746.25 1.55 746.0 2.35 L745.95 2.4 750.45 1.65 755.15 1.2 764.75 0.85 769.7 0.5 778.5 0.85 Q783.3 -0.25 784.25 0.1 784.95 0.4 782.65 1.2 L782.7 1.2 791.0 2.2 808.55 2.7 824.5 3.0 Q827.95 3.0 829.45 3.75 830.4 4.2 830.7 5.05 L830.2 5.2 830.1 5.25 830.0 5.3 Q830.75 5.95 830.45 7.1 M710.95 67.45 L710.9 67.45 710.95 67.5 710.95 67.45 M711.6 67.95 L711.8 67.95 712.0 67.9 711.55 67.9 711.6 67.95 M483.6 138.2 Q482.1 139.95 485.05 139.95 L491.55 139.6 499.05 138.35 504.15 137.55 506.65 137.2 497.05 136.9 484.9 136.55 483.6 138.2 M528.8 136.4 Q523.15 136.4 517.9 136.65 L533.0 136.7 536.4 136.55 528.8 136.4 M423.05 16.1 L425.65 16.45 426.55 16.25 428.9 15.9 431.65 15.85 432.95 16.1 435.55 16.7 436.2 17.45 Q438.45 18.65 438.6 19.0 438.8 19.7 436.5 20.75 L436.0 20.95 436.4 21.5 Q435.5 26.4 426.7 30.45 421.25 32.95 410.7 36.2 L401.5 39.1 400.5 39.9 400.05 40.0 386.45 43.9 373.4 47.7 368.45 49.05 367.1 49.1 354.45 49.85 352.2 50.4 341.45 53.15 330.65 55.65 324.3 57.05 317.7 58.4 309.75 59.75 304.8 60.55 303.5 60.7 302.1 60.85 302.3 60.7 301.65 60.8 296.75 61.25 295.0 61.25 294.0 61.3 288.8 61.9 279.85 63.3 271.85 64.75 271.6 64.85 Q271.45 64.9 271.25 65.05 L270.2 65.65 267.1 66.85 264.9 67.6 261.85 68.75 Q259.4 69.9 259.05 71.05 L258.85 71.65 263.2 71.35 Q268.25 72.9 261.3 76.1 259.2 77.05 255.15 78.45 256.2 79.4 254.35 80.65 L249.95 83.1 Q245.2 85.6 240.45 87.75 L232.1 91.25 Q226.7 93.4 221.5 95.8 L205.75 103.25 200.95 105.65 199.1 106.4 199.15 106.35 184.55 111.7 Q173.85 115.15 168.8 117.5 166.1 118.7 161.55 121.05 L157.9 122.75 154.1 124.45 Q152.65 125.1 151.4 126.15 L149.15 127.85 Q147.15 129.15 143.45 130.9 L143.75 130.85 Q144.8 130.85 142.3 131.85 140.15 132.85 139.85 133.2 139.55 133.5 137.55 134.4 L133.8 135.85 127.8 137.35 122.25 138.85 115.45 140.3 111.05 141.05 106.9 141.85 103.05 142.5 99.2 142.95 71.45 143.85 59.15 143.55 Q50.1 143.25 40.65 143.25 29.8 143.25 18.65 143.7 L7.0 144.05 Q-0.95 144.05 0.15 142.7 0.5 142.25 2.0 141.55 L4.05 140.6 8.25 138.65 Q11.0 137.4 11.9 136.65 13.5 135.4 12.75 134.6 L11.65 133.65 Q11.05 133.0 11.05 132.6 11.05 131.2 16.55 128.7 21.25 126.55 33.75 121.95 46.25 117.35 50.55 115.35 54.95 113.35 54.3 112.0 53.7 110.7 56.2 109.55 62.25 106.8 81.05 102.15 L94.0 98.9 Q100.05 97.35 101.65 96.65 104.6 95.25 101.3 94.3 L100.55 94.05 99.7 94.35 93.05 96.7 85.5 99.0 99.4 94.0 99.7 93.9 91.8 93.05 Q91.65 93.05 92.25 92.8 L93.25 92.55 94.55 92.4 93.6 92.7 100.9 93.45 Q106.05 91.5 110.4 89.55 L117.35 86.2 Q121.2 84.25 123.9 83.0 L131.45 79.7 129.65 79.75 Q123.15 79.75 127.25 76.65 128.5 75.65 130.65 74.45 132.0 73.75 132.95 73.35 L133.3 73.15 133.5 73.1 133.85 73.1 Q128.55 75.9 127.55 77.55 126.6 79.25 130.55 79.25 L132.8 79.1 Q139.3 76.4 147.35 73.3 L173.65 63.6 Q179.05 61.6 187.45 58.75 L201.45 53.9 207.85 51.65 209.55 50.8 212.25 49.35 211.3 49.5 211.25 49.5 212.6 49.2 218.4 46.25 223.15 44.25 Q226.7 42.8 224.5 44.3 L217.45 47.95 216.55 48.4 218.4 48.05 224.25 46.05 Q229.55 44.25 231.15 44.45 228.65 44.9 226.35 45.65 L222.8 46.9 220.35 47.75 231.65 46.3 237.2 45.75 237.75 45.75 244.5 44.1 Q251.15 42.75 256.2 42.6 261.45 42.3 263.1 43.55 264.55 44.7 262.35 46.15 L261.85 46.5 262.55 46.55 265.25 47.1 267.8 47.1 273.1 47.2 273.5 47.4 274.2 47.5 277.3 47.4 278.55 47.25 278.85 47.25 281.4 47.0 285.1 46.65 288.2 46.15 290.95 45.6 296.45 44.4 301.9 42.95 311.95 40.3 321.45 37.6 322.4 36.9 324.25 35.9 325.45 35.35 325.65 35.3 328.5 33.95 Q331.65 32.3 338.15 31.0 L339.65 30.65 341.4 29.75 342.7 29.0 342.75 28.9 347.0 27.9 361.8 24.05 373.95 20.75 376.55 20.05 381.1 19.8 382.6 19.4 390.35 17.9 399.5 16.4 414.45 15.25 418.4 15.4 420.6 15.8 423.05 16.1 M438.9 42.65 L438.85 42.65 438.65 42.7 438.9 42.65 M437.4 73.95 L437.15 74.05 437.2 74.05 437.4 73.95 M341.95 130.9 L346.5 129.05 348.7 128.0 350.2 127.25 356.15 124.75 Q362.8 121.7 365.85 119.9 368.75 118.25 373.8 114.65 L375.6 113.4 376.7 112.15 377.65 111.55 379.2 110.85 381.3 109.6 Q383.15 108.75 385.1 107.2 L388.35 104.7 Q381.1 107.3 377.35 109.05 L366.95 114.5 358.8 117.75 351.75 120.55 Q351.05 120.9 348.1 123.35 L347.2 124.0 346.45 124.7 346.65 125.05 346.85 125.35 345.95 126.0 Q344.4 126.8 342.75 128.7 L340.1 130.85 Q340.95 130.95 337.6 132.5 L339.85 131.9 Q340.95 131.35 341.95 130.9 M351.65 134.2 L350.5 133.95 349.45 133.35 348.85 133.15 348.35 133.35 Q346.3 134.3 350.05 134.3 L351.65 134.2 M205.7 52.8 L201.8 54.15 188.15 58.9 174.55 63.7 Q155.15 70.8 148.5 73.35 L134.45 78.9 144.35 76.65 155.45 73.35 Q163.4 70.85 173.0 67.1 L187.7 61.05 202.25 54.6 205.7 52.8 M216.65 48.7 L215.6 48.85 214.15 49.55 215.7 49.0 216.65 48.7 M214.8 48.75 L216.95 47.65 219.5 46.25 214.5 48.8 214.8 48.75 M196.9 132.3 L197.0 132.3 197.1 132.2 196.9 132.3 M253.6 119.65 L252.05 120.15 250.7 120.6 248.65 121.5 246.75 122.4 Q244.95 123.2 242.95 124.25 L238.5 126.05 233.15 128.85 230.4 129.8 228.3 130.4 Q227.95 130.55 227.4 131.0 L227.35 131.1 227.1 131.45 226.35 132.1 226.2 132.1 226.55 132.15 229.3 131.6 231.65 131.1 Q231.95 130.9 232.15 130.8 L236.1 129.3 239.55 128.0 243.35 126.35 246.1 125.2 261.9 117.75 267.8 115.25 271.85 113.65 Q274.85 112.15 276.5 111.4 L276.35 111.4 266.55 115.1 Q259.3 117.65 256.65 118.75 L255.1 119.2 253.6 119.65 M227.55 132.35 L228.95 132.6 230.4 131.8 228.05 132.3 227.55 132.35" fill="#000000" fill-opacity="0.101960786" fill-rule="evenodd" stroke="none"/>
    </g>
    <g id="sprite1" transform="matrix(1.0, 0.0, 0.0, 1.0, 0.0, 0.0)">
      <use ffdec:characterId="4065" height="234.85" transform="matrix(1.0, 0.0, 0.0, 1.0, 0.0, 0.0)" width="179.25" xlink:href="#shape2"/>
    </g>
    <g id="shape2" transform="matrix(1.0, 0.0, 0.0, 1.0, 0.0, 0.0)">
      <path d="M175.1 193.6 L176.95 199.85 Q177.75 202.9 177.75 205.75 L177.25 212.15 Q177.25 213.4 178.25 218.0 179.25 222.55 179.25 224.6 179.25 227.45 178.35 229.85 176.55 234.6 171.75 234.6 169.35 234.6 167.0 233.35 L164.75 231.85 Q164.25 231.55 159.35 229.6 L157.1 228.2 Q155.7 227.35 153.5 226.95 L145.8 225.45 145.45 225.5 145.1 228.35 144.85 228.45 144.85 228.4 144.55 226.15 144.4 226.35 Q143.95 227.25 143.35 227.25 142.7 227.25 142.55 226.95 L142.5 226.6 Q137.7 230.55 134.3 232.1 128.4 234.85 120.1 234.85 L106.1 234.15 86.8 233.45 76.05 233.9 63.1 234.35 Q53.35 234.35 48.45 233.1 L43.85 231.2 Q38.8 229.15 35.45 227.95 L35.35 228.5 35.25 228.0 35.25 227.9 Q30.85 226.35 29.35 226.35 L27.55 228.0 Q25.65 229.6 23.75 229.6 L20.75 229.1 14.5 228.6 11.1 227.75 6.25 227.1 Q3.65 227.35 2.15 227.1 L1.6 229.7 1.6 229.75 Q1.0 228.8 0.95 226.75 L0.25 226.25 Q0.0 225.95 0.0 224.95 0.0 224.55 0.5 223.2 0.8 222.35 1.05 222.0 L1.45 219.5 1.9 216.6 2.15 210.75 Q2.45 203.65 2.15 199.1 2.05 197.15 2.8 193.4 3.6 189.25 3.65 187.5 L3.95 184.7 Q4.05 182.65 4.25 181.7 L5.15 175.7 5.35 175.6 5.65 170.6 6.25 164.05 6.0 162.8 5.75 161.5 Q5.75 160.05 6.65 158.4 L7.5 156.15 6.75 154.2 Q6.0 152.7 6.0 152.2 6.0 150.85 6.95 146.5 7.9 142.15 7.9 139.55 L8.5 135.95 Q9.15 132.65 9.5 131.7 L11.2 127.95 13.0 124.0 13.5 122.15 Q13.8 120.85 14.15 120.1 L15.45 118.3 16.75 116.35 Q17.4 113.55 18.85 112.35 L20.0 111.75 21.25 111.1 22.4 110.1 22.9 109.35 24.65 107.6 26.5 105.95 Q28.55 103.9 31.0 102.85 L33.4 101.65 Q33.0 99.05 33.0 97.5 33.0 96.5 33.85 95.75 34.8 94.9 36.75 94.5 L38.4 93.9 38.75 93.75 39.5 93.6 40.45 93.4 Q42.65 93.4 43.75 94.6 L43.95 94.8 43.9 94.55 44.25 92.2 Q44.0 91.65 44.1 91.45 44.3 90.75 45.85 89.95 L47.55 89.2 48.0 88.9 50.6 87.15 51.4 86.7 53.45 85.45 Q54.1 85.05 54.55 84.95 L54.75 82.8 Q54.75 76.95 51.6 70.6 L49.6 66.5 49.05 66.7 Q48.6 66.7 48.55 66.1 L48.5 65.05 48.45 64.2 48.1 63.5 Q47.8 63.8 47.65 64.5 L47.15 65.2 46.5 65.7 Q46.05 65.7 46.0 64.05 L46.1 61.6 Q46.0 58.9 45.15 57.5 L44.95 57.9 44.85 58.3 44.25 59.15 43.8 60.05 43.1 60.85 42.7 60.75 42.75 60.6 42.75 60.4 42.95 59.55 43.25 58.75 43.25 57.1 43.0 51.7 42.9 51.4 42.0 53.65 41.6 54.4 41.3 55.0 41.25 55.75 Q41.2 56.2 40.75 56.2 L40.35 55.95 40.35 55.8 40.5 54.15 40.5 52.55 40.75 49.5 41.2 45.5 41.1 45.05 41.05 45.05 40.85 45.0 40.15 44.75 40.05 44.7 39.3 44.45 Q38.3 44.15 37.8 43.65 37.0 43.55 36.75 42.85 L36.75 42.5 36.5 41.85 36.0 40.1 35.7 38.6 35.4 37.1 Q35.4 36.35 35.95 35.25 L36.45 34.4 36.4 33.85 36.55 25.8 36.95 22.6 Q37.35 20.3 38.7 16.25 39.65 13.3 42.7 9.85 44.0 8.25 45.95 6.65 L47.95 5.3 47.95 5.25 48.6 4.0 49.5 2.85 Q50.8 1.9 53.35 1.25 L54.6 0.8 55.85 0.45 59.25 0.05 60.9 0.0 62.05 0.1 64.3 0.35 66.4 2.3 70.75 2.9 72.1 3.25 74.05 3.95 Q76.55 4.7 78.2 6.35 L79.85 7.65 Q81.1 8.65 81.55 9.2 84.45 12.8 86.0 15.55 L87.2 18.75 88.2 21.2 88.3 21.2 88.35 21.65 88.45 21.95 88.4 22.3 88.4 22.55 88.4 22.6 88.45 22.6 Q89.3 23.0 89.8 23.35 L90.0 23.5 90.15 23.65 90.25 23.8 90.1 23.85 90.5 25.35 90.75 27.15 91.1 28.75 91.4 30.75 91.25 32.3 90.9 33.0 90.2 33.65 88.8 35.0 89.05 35.75 90.6 39.55 91.05 40.8 91.85 42.4 92.25 43.3 Q92.25 43.7 91.7 43.7 L90.9 43.5 Q90.35 43.15 89.8 42.95 L89.75 43.55 90.0 45.6 90.3 47.3 91.35 50.9 91.3 51.25 91.0 51.35 Q89.75 50.3 89.05 50.05 L89.0 51.3 89.5 57.1 Q89.5 57.6 88.95 57.6 L87.2 57.05 86.1 61.55 Q86.1 66.7 87.1 70.25 87.75 72.65 88.95 74.8 91.55 75.05 93.7 76.0 L97.2 76.85 100.15 77.5 Q101.1 77.65 101.4 78.05 L101.7 78.9 102.4 80.4 102.65 80.9 104.45 81.1 Q104.6 79.85 106.55 78.8 108.85 77.6 111.7 78.15 114.5 78.6 115.6 79.85 116.1 80.45 116.15 81.15 L116.25 82.15 Q127.65 83.2 129.75 83.95 133.1 85.05 134.75 86.35 140.35 90.9 145.9 100.35 L149.95 107.6 Q152.6 112.0 155.5 114.5 157.0 115.8 157.8 118.05 158.75 120.8 159.35 121.6 163.1 126.75 163.5 128.6 166.85 142.5 167.75 157.1 167.9 159.6 169.2 164.2 170.7 169.6 171.0 171.35 171.25 172.75 171.5 178.45 L172.0 181.45 Q172.5 184.25 175.1 193.6 M83.8 39.75 L84.0 38.1 Q84.0 31.4 76.1 29.1 L78.1 31.0 Q79.15 32.0 79.15 32.65 79.15 33.0 78.3 33.2 L73.75 33.85 Q76.1 36.15 78.7 36.95 80.35 37.45 80.35 38.25 80.35 39.35 79.2 41.35 L77.6 43.95 Q76.85 45.4 76.85 49.3 76.85 52.6 77.1 54.2 L79.25 50.2 Q80.6 47.5 81.9 46.1 82.7 45.25 83.15 44.0 L83.6 41.95 Q83.55 41.15 83.8 39.75 M115.55 81.9 L115.55 82.1 115.6 82.1 115.55 81.9 M64.25 8.0 Q63.05 7.25 61.6 7.25 61.15 7.1 59.9 7.25 58.75 7.0 56.7 8.25 L55.3 9.25 55.7 9.1 56.65 8.6 Q59.35 7.25 61.95 8.05 63.35 8.5 64.1 9.6 64.7 10.55 64.7 11.6 L64.7 11.95 Q65.75 11.1 65.75 10.2 65.75 8.95 64.25 8.0 M63.9 20.75 L62.9 20.4 62.8 20.4 62.05 20.15 61.4 20.55 59.25 21.9 60.25 24.15 Q61.2 26.6 61.6 26.6 L62.2 26.55 62.5 25.75 62.5 25.25 62.55 25.1 62.5 24.7 Q62.5 24.2 62.7 24.1 62.95 23.95 63.25 24.65 L63.5 25.55 63.55 25.75 63.6 25.85 64.15 25.0 64.6 23.3 Q64.6 22.3 63.9 20.75 M57.55 2.15 L57.6 2.15 57.55 2.1 57.55 2.15 M48.7 4.9 L48.85 4.8 48.8 4.75 48.7 4.9 M57.15 23.25 L53.3 25.95 Q52.05 26.65 49.55 28.7 44.35 32.6 42.9 34.05 L40.75 36.2 40.9 37.3 41.25 38.0 43.7 41.4 Q45.1 43.4 45.35 44.75 L45.95 48.25 Q46.4 50.25 47.25 51.5 47.85 52.5 49.65 53.45 51.65 54.45 51.75 54.6 L52.45 56.25 Q53.2 57.75 53.9 57.75 56.15 57.75 57.15 54.9 57.75 51.85 58.0 51.35 58.8 49.8 60.35 47.75 L62.05 45.45 61.9 45.45 59.1 45.35 59.1 43.5 59.7 42.3 Q60.65 41.4 63.35 41.35 L63.0 36.5 Q62.85 33.7 61.75 31.85 61.15 33.7 58.45 35.95 L53.25 39.4 Q52.95 39.85 52.8 40.9 L52.5 40.95 Q52.15 40.95 52.1 40.55 L52.1 40.15 52.35 39.05 52.7 38.65 53.45 37.8 54.65 36.6 55.0 36.25 50.9 36.85 49.0 37.45 48.5 37.45 48.4 37.0 Q48.4 36.6 49.0 36.15 L49.85 35.25 50.0 35.25 50.05 35.35 Q51.15 34.25 52.5 33.35 L52.9 33.2 51.05 33.05 50.5 32.95 49.15 34.35 48.8 34.3 48.75 33.85 48.9 33.15 48.85 33.1 48.75 32.8 49.0 32.5 49.55 32.05 50.1 31.2 50.45 30.85 50.5 30.85 51.35 29.55 51.8 28.8 Q52.15 28.4 52.8 28.4 L52.85 28.6 53.7 28.15 54.1 28.05 54.2 27.9 Q54.45 27.7 54.75 27.75 L57.7 27.8 59.3 27.8 58.55 24.65 58.2 22.45 57.15 23.25 M41.75 47.9 L41.85 47.9 41.75 47.65 41.75 47.9 M56.8 42.55 L58.5 42.2 58.75 43.0 58.2 45.2 57.4 48.1 57.0 47.9 56.75 48.4 56.15 49.05 56.05 49.35 55.8 49.8 Q54.85 50.45 54.3 51.2 L53.85 52.0 53.4 52.45 53.05 52.4 53.0 52.1 53.05 51.85 53.0 51.65 53.25 49.35 Q53.45 47.35 53.6 47.0 L54.4 44.65 55.3 43.5 55.9 42.85 Q56.35 42.5 56.8 42.55 M55.2 37.25 L55.15 37.2 55.0 37.35 55.2 37.25 M55.05 45.25 L55.15 45.25 55.1 45.1 55.05 45.25 M34.6 96.5 Q33.9 97.15 33.9 97.65 L34.2 100.6 34.3 101.2 34.4 101.9 34.5 102.65 34.55 103.0 34.6 103.3 34.9 105.1 35.65 112.45 Q36.7 122.2 38.4 127.25 L38.5 127.35 38.5 126.65 37.15 116.8 Q36.1 109.5 35.85 103.6 L36.0 103.15 35.9 102.55 35.8 100.75 35.75 100.3 35.75 99.9 Q35.75 96.85 36.0 95.5 L34.6 96.5 M62.35 59.45 L63.9 58.35 Q63.7 58.25 62.6 56.55 62.05 55.7 60.5 57.1 59.65 57.3 58.05 58.75 56.5 60.15 56.5 60.6 56.5 61.4 57.7 62.85 59.1 64.6 60.75 64.6 62.95 64.6 64.35 63.1 L65.35 61.5 65.35 61.35 60.85 60.7 Q61.25 60.15 62.35 59.45 M53.95 50.4 L54.05 50.3 54.0 50.3 53.95 50.4 M52.45 69.95 Q55.75 76.05 55.75 82.75 L55.75 84.1 55.9 84.7 55.85 85.2 57.05 85.75 59.9 87.3 61.05 88.05 62.9 88.9 66.6 90.45 Q68.35 91.25 69.95 92.25 L72.75 91.1 Q73.5 90.8 74.7 90.1 75.55 89.65 76.8 89.35 L77.25 88.4 Q77.85 87.15 77.75 86.6 L78.35 83.25 78.35 80.1 Q72.6 79.4 67.45 77.7 L59.25 74.7 Q56.6 73.75 54.1 71.4 L52.05 69.2 52.45 69.95 M50.85 66.75 L50.8 66.8 50.8 66.85 50.85 66.75 M31.8 104.2 L31.75 104.15 Q27.9 106.3 26.85 107.45 L24.85 109.85 22.75 111.85 Q21.9 112.4 20.9 112.55 20.25 112.65 19.5 113.6 18.15 115.25 18.0 115.85 L16.65 118.2 15.25 120.35 14.5 122.7 13.75 124.85 Q12.05 128.05 11.5 129.35 L10.0 133.85 9.25 138.6 Q8.8 141.1 8.75 143.1 L7.85 147.55 7.0 152.1 Q7.0 152.8 7.75 153.95 8.5 155.05 8.5 156.1 L7.65 158.95 Q6.75 161.1 6.75 161.45 L7.25 164.85 6.0 178.5 5.85 178.55 5.0 182.7 4.9 185.8 4.75 188.85 3.8 194.9 Q3.25 198.65 3.5 201.1 3.8 203.35 3.55 207.1 L3.25 213.25 Q3.25 216.0 2.5 219.45 2.15 220.95 2.15 222.45 L2.15 222.65 2.2 222.65 7.75 221.6 15.1 220.35 Q6.6 216.0 6.6 214.9 L6.65 214.2 10.0 213.7 10.15 213.6 10.05 213.55 7.9 212.35 Q7.6 212.1 7.6 211.3 7.55 210.95 7.65 210.65 7.9 210.05 8.6 210.1 L8.15 208.3 Q7.85 207.15 7.85 206.35 L8.0 204.45 Q7.35 203.35 7.35 202.85 7.35 200.7 10.0 198.2 L12.6 196.0 10.25 194.1 Q7.85 192.3 7.85 191.5 7.85 190.8 8.85 190.4 9.85 189.95 9.85 188.95 L9.95 187.5 Q10.3 186.5 11.95 186.5 15.85 186.5 21.25 187.85 L21.5 187.85 21.4 187.75 Q20.05 186.7 16.5 185.25 L10.75 182.95 Q10.6 182.75 10.6 182.2 L12.6 181.55 Q13.8 181.0 18.35 180.85 L14.55 179.15 10.85 177.45 10.85 176.75 13.6 176.35 12.45 175.15 Q11.85 174.75 11.85 174.25 11.85 174.0 12.85 173.6 13.85 173.15 13.85 172.55 L12.6 170.0 Q11.35 167.75 11.35 166.5 11.35 165.15 12.85 163.9 14.35 162.65 14.35 160.85 14.35 160.1 13.35 157.0 L12.35 154.0 Q12.35 153.5 13.5 152.0 14.6 150.5 14.6 149.5 L14.1 146.5 14.15 144.35 Q14.4 143.3 15.75 142.0 L17.25 141.1 18.65 140.25 19.25 139.2 19.75 138.1 Q17.6 136.5 17.2 135.45 17.0 135.0 17.0 132.9 L17.4 125.0 17.35 124.95 17.75 124.85 Q18.0 124.85 19.05 126.9 20.25 129.25 20.9 129.85 L19.85 125.8 19.75 122.35 20.1 117.6 20.75 117.2 23.95 124.3 Q25.95 129.15 27.25 131.6 24.25 123.95 24.25 119.35 24.25 117.1 25.75 112.1 L25.8 112.05 26.3 111.95 Q26.85 111.95 27.85 114.7 28.95 117.85 29.5 118.45 L29.7 115.35 29.75 112.0 Q29.7 111.05 30.2 110.3 L31.25 109.0 Q31.6 108.5 31.5 107.5 L31.25 105.8 31.35 104.7 31.8 104.2 M39.25 130.75 L39.25 130.5 39.1 128.9 Q38.85 127.8 38.6 127.6 L38.6 127.7 Q38.6 128.95 39.15 130.7 L39.25 130.75 M36.1 174.1 Q35.9 177.2 34.4 183.2 32.8 189.6 32.5 192.25 L32.0 193.4 31.4 194.5 30.9 195.65 30.5 196.75 Q30.4 197.65 30.45 199.0 L30.5 201.25 30.75 205.75 Q30.85 207.25 30.25 210.25 30.25 211.15 31.0 217.1 31.0 218.1 30.25 219.45 L29.5 220.85 29.95 222.45 30.05 222.65 30.6 223.55 Q31.3 224.6 31.25 225.1 L31.15 225.15 31.55 225.2 Q32.0 225.2 33.05 223.85 33.7 223.05 34.3 222.6 L34.25 221.9 Q34.25 221.2 34.9 218.2 L35.5 214.95 35.75 210.95 36.0 208.15 35.5 189.75 Q35.5 186.3 36.0 183.6 L36.5 179.6 36.25 174.1 36.1 174.1 M132.0 168.35 L133.5 181.75 Q133.5 184.3 132.5 189.8 131.5 195.3 131.5 196.65 131.5 197.5 133.9 203.5 L134.5 205.2 135.25 206.85 136.15 207.7 137.0 208.45 Q137.65 209.15 137.65 210.1 137.8 212.1 140.2 216.7 141.9 220.05 142.35 222.1 143.4 222.3 143.4 226.1 144.15 225.65 144.4 224.65 L144.25 222.15 144.75 217.6 144.65 215.0 144.5 213.1 145.0 207.0 Q145.0 199.45 144.25 195.1 143.5 191.05 140.65 182.1 L139.75 179.1 Q139.15 177.35 138.1 175.95 137.75 175.45 137.75 174.45 L137.75 172.75 Q137.25 170.7 137.25 169.75 137.1 167.55 135.75 163.8 L133.5 157.6 Q132.0 164.05 132.0 168.35 M2.25 225.6 L2.35 225.6 2.25 225.4 2.25 225.6 M33.0 225.75 L34.95 226.3 34.6 224.35 33.4 225.6 33.0 225.75" fill="#000000" fill-rule="evenodd" stroke="none"/>
      <path d="M83.8 39.75 Q83.55 41.15 83.6 41.95 L83.15 44.0 Q82.7 45.25 81.9 46.1 80.6 47.5 79.25 50.2 L77.1 54.2 Q76.85 52.6 76.85 49.3 76.85 45.4 77.6 43.95 L79.2 41.35 Q80.35 39.35 80.35 38.25 80.35 37.45 78.7 36.95 76.1 36.15 73.75 33.85 L78.3 33.2 Q79.15 33.0 79.15 32.65 79.15 32.0 78.1 31.0 L76.1 29.1 Q84.0 31.4 84.0 38.1 L83.8 39.75 M63.9 20.75 Q64.6 22.3 64.6 23.3 L64.15 25.0 63.6 25.85 63.55 25.75 63.5 25.55 63.25 24.65 Q62.95 23.95 62.7 24.1 62.5 24.2 62.5 24.7 L62.55 25.1 62.5 25.25 62.5 25.75 62.2 26.55 61.6 26.6 Q61.2 26.6 60.25 24.15 L59.25 21.9 61.4 20.55 62.05 20.15 62.8 20.4 62.9 20.4 63.9 20.75 M57.15 23.25 L58.2 22.45 58.55 24.65 59.3 27.8 57.7 27.8 54.75 27.75 Q54.45 27.7 54.2 27.9 L54.1 28.05 53.7 28.15 52.85 28.6 52.8 28.4 Q52.15 28.4 51.8 28.8 L51.35 29.55 50.5 30.85 50.45 30.85 50.1 31.2 49.55 32.05 49.0 32.5 48.75 32.8 48.85 33.1 48.9 33.15 48.75 33.85 48.8 34.3 49.15 34.35 50.5 32.95 51.05 33.05 52.9 33.2 52.5 33.35 Q51.15 34.25 50.05 35.35 L50.0 35.25 49.85 35.25 49.0 36.15 Q48.4 36.6 48.4 37.0 L48.5 37.45 49.0 37.45 50.9 36.85 55.0 36.25 54.65 36.6 53.45 37.8 52.7 38.65 52.35 39.05 52.1 40.15 52.1 40.55 Q52.15 40.95 52.5 40.95 L52.8 40.9 Q52.95 39.85 53.25 39.4 L58.45 35.95 Q61.15 33.7 61.75 31.85 62.85 33.7 63.0 36.5 L63.35 41.35 Q60.65 41.4 59.7 42.3 L59.1 43.5 59.1 45.35 61.9 45.45 62.05 45.45 60.35 47.75 Q58.8 49.8 58.0 51.35 57.75 51.85 57.15 54.9 56.15 57.75 53.9 57.75 53.2 57.75 52.45 56.25 L51.75 54.6 Q51.65 54.45 49.65 53.45 47.85 52.5 47.25 51.5 46.4 50.25 45.95 48.25 L45.35 44.75 Q45.1 43.4 43.7 41.4 L41.25 38.0 40.9 37.3 40.75 36.2 42.9 34.05 Q44.35 32.6 49.55 28.7 52.05 26.65 53.3 25.95 L57.15 23.25 M56.8 42.55 Q56.35 42.5 55.9 42.85 L55.3 43.5 54.4 44.65 53.6 47.0 Q53.45 47.35 53.25 49.35 L53.0 51.65 53.05 51.85 53.0 52.1 53.05 52.4 53.4 52.45 53.85 52.0 54.3 51.2 Q54.85 50.45 55.8 49.8 L56.05 49.35 56.15 49.05 56.75 48.4 57.0 47.9 57.4 48.1 58.2 45.2 58.75 43.0 58.5 42.2 56.8 42.55 M55.05 45.25 L55.1 45.1 55.15 45.25 55.05 45.25 M53.95 50.4 L54.0 50.3 54.05 50.3 53.95 50.4 M52.45 69.95 L52.05 69.2 54.1 71.4 Q56.6 73.75 59.25 74.7 L67.45 77.7 Q72.6 79.4 78.35 80.1 L78.35 83.25 77.75 86.6 Q77.85 87.15 77.25 88.4 L76.8 89.35 Q75.55 89.65 74.7 90.1 73.5 90.8 72.75 91.1 L69.95 92.25 Q68.35 91.25 66.6 90.45 L62.9 88.9 61.05 88.05 59.9 87.3 57.05 85.75 55.85 85.2 55.9 84.7 55.75 84.1 55.75 82.75 Q55.75 76.05 52.45 69.95" fill="url(#gradient1)" fill-rule="evenodd" stroke="none"/>
      <path d="M64.25 8.0 Q65.75 8.95 65.75 10.2 65.75 11.1 64.7 11.95 L64.7 11.6 Q64.7 10.55 64.1 9.6 63.35 8.5 61.95 8.05 59.35 7.25 56.65 8.6 L55.7 9.1 55.3 9.25 56.7 8.25 Q58.75 7.0 59.9 7.25 61.15 7.1 61.6 7.25 63.05 7.25 64.25 8.0" fill="#f3f7d5" fill-rule="evenodd" stroke="none"/>
      <path d="M34.6 96.5 L36.0 95.5 Q35.75 96.85 35.75 99.9 L35.75 100.3 35.8 100.75 35.9 102.55 36.0 103.15 35.85 103.6 Q36.1 109.5 37.15 116.8 L38.5 126.65 38.5 127.35 38.4 127.25 Q36.7 122.2 35.65 112.45 L34.9 105.1 34.6 103.3 34.55 103.0 34.5 102.65 34.4 101.9 34.3 101.2 34.2 100.6 33.9 97.65 Q33.9 97.15 34.6 96.5 M39.25 130.75 L39.15 130.7 Q38.6 128.95 38.6 127.7 L38.6 127.6 Q38.85 127.8 39.1 128.9 L39.25 130.5 39.25 130.75" fill="#846840" fill-rule="evenodd" stroke="none"/>
      <path d="M62.35 59.45 Q61.25 60.15 60.85 60.7 L65.35 61.35 65.35 61.5 64.35 63.1 Q62.95 64.6 60.75 64.6 59.1 64.6 57.7 62.85 56.5 61.4 56.5 60.6 56.5 60.15 58.05 58.75 59.65 57.3 60.5 57.1 62.05 55.7 62.6 56.55 63.7 58.25 63.9 58.35 L62.35 59.45" fill="#ebb19d" fill-rule="evenodd" stroke="none"/>
      <path d="M31.8 104.2 L31.35 104.7 31.25 105.8 31.5 107.5 Q31.6 108.5 31.25 109.0 L30.2 110.3 Q29.7 111.05 29.75 112.0 L29.7 115.35 29.5 118.45 Q28.95 117.85 27.85 114.7 26.85 111.95 26.3 111.95 L25.8 112.05 25.75 112.1 Q24.25 117.1 24.25 119.35 24.25 123.95 27.25 131.6 25.95 129.15 23.95 124.3 L20.75 117.2 20.1 117.6 19.75 122.35 19.85 125.8 20.9 129.85 Q20.25 129.25 19.05 126.9 18.0 124.85 17.75 124.85 L17.35 124.95 17.4 125.0 17.0 132.9 Q17.0 135.0 17.2 135.45 17.6 136.5 19.75 138.1 L19.25 139.2 18.65 140.25 17.25 141.1 15.75 142.0 Q14.4 143.3 14.15 144.35 L14.1 146.5 14.6 149.5 Q14.6 150.5 13.5 152.0 12.35 153.5 12.35 154.0 L13.35 157.0 Q14.35 160.1 14.35 160.85 14.35 162.65 12.85 163.9 11.35 165.15 11.35 166.5 11.35 167.75 12.6 170.0 L13.85 172.55 Q13.85 173.15 12.85 173.6 11.85 174.0 11.85 174.25 11.85 174.75 12.45 175.15 L13.6 176.35 10.85 176.75 10.85 177.45 14.55 179.15 18.35 180.85 Q13.8 181.0 12.6 181.55 L10.6 182.2 Q10.6 182.75 10.75 182.95 L16.5 185.25 Q20.05 186.7 21.4 187.75 L21.5 187.85 21.25 187.85 Q15.85 186.5 11.95 186.5 10.3 186.5 9.95 187.5 L9.85 188.95 Q9.85 189.95 8.85 190.4 7.85 190.8 7.85 191.5 7.85 192.3 10.25 194.1 L12.6 196.0 10.0 198.2 Q7.35 200.7 7.35 202.85 7.35 203.35 8.0 204.45 L7.85 206.35 Q7.85 207.15 8.15 208.3 L8.6 210.1 Q7.9 210.05 7.65 210.65 7.55 210.95 7.6 211.3 7.6 212.1 7.9 212.35 L10.05 213.55 10.15 213.6 10.0 213.7 6.65 214.2 6.6 214.9 Q6.6 216.0 15.1 220.35 L7.75 221.6 2.2 222.65 2.15 222.65 2.15 222.45 Q2.15 220.95 2.5 219.45 3.25 216.0 3.25 213.25 L3.55 207.1 Q3.8 203.35 3.5 201.1 3.25 198.65 3.8 194.9 L4.75 188.85 4.9 185.8 5.0 182.7 5.85 178.55 6.0 178.5 7.25 164.85 6.75 161.45 Q6.75 161.1 7.65 158.95 L8.5 156.1 Q8.5 155.05 7.75 153.95 7.0 152.8 7.0 152.1 L7.85 147.55 8.75 143.1 Q8.8 141.1 9.25 138.6 L10.0 133.85 11.5 129.35 Q12.05 128.05 13.75 124.85 L14.5 122.7 15.25 120.35 16.65 118.2 18.0 115.85 Q18.15 115.25 19.5 113.6 20.25 112.65 20.9 112.55 21.9 112.4 22.75 111.85 L24.85 109.85 26.85 107.45 Q27.9 106.3 31.75 104.15 L31.8 104.2" fill="#bbbbbb" fill-rule="evenodd" stroke="none"/>
      <path d="M83.5 45.35 L83.15 52.85 Q82.45 57.4 79.0 56.75 79.0 59.55 78.5 61.6 78.2 63.1 75.55 63.9 L72.85 64.35 69.8 63.95 69.0 63.1 66.35 67.6 Q65.9 68.1 64.35 68.1 62.8 68.1 62.25 67.6 L61.1 68.6 Q60.3 69.25 59.75 69.25 56.45 69.25 55.6 66.25 L55.35 63.05 Q55.35 61.1 57.05 58.0 57.9 56.4 58.9 55.45 57.95 56.25 55.75 58.8 53.95 60.85 49.35 60.85 47.3 60.85 46.85 59.8 L46.75 58.55 Q46.75 56.7 50.25 51.7 L53.75 46.75 53.25 45.15 Q52.75 44.2 52.75 43.55 L52.95 41.9 Q53.15 41.15 53.85 40.35 L54.25 40.0 Q47.1 40.65 46.25 38.15 46.15 37.75 47.1 34.1 L47.1 33.5 44.15 36.35 Q41.65 38.75 39.75 38.75 37.8 38.75 37.35 37.65 L37.25 36.5 Q37.25 35.75 40.05 33.1 L43.85 29.35 Q46.45 26.25 49.6 24.9 50.05 24.7 54.85 23.25 59.15 21.9 59.2 19.9 L59.1 18.15 Q59.1 17.0 59.85 16.1 62.0 13.4 64.35 15.2 66.5 16.85 66.5 19.35 L65.6 26.1 Q65.4 27.15 65.65 29.4 L66.0 32.3 Q66.0 35.95 65.25 39.35 64.05 44.55 63.6 47.85 L63.25 51.25 Q62.7 52.9 60.7 54.3 L61.85 54.1 Q62.8 54.1 64.35 55.1 L66.0 56.25 Q66.8 54.75 68.6 53.6 70.15 52.6 70.25 52.0 L70.25 46.75 Q70.25 42.0 70.85 36.25 70.7 33.15 71.05 31.7 71.65 29.4 75.4 26.35 76.85 25.2 78.9 25.6 80.9 26.0 82.65 27.6 L83.0 29.0 84.4 29.35 Q85.3 29.7 85.4 30.0 85.75 30.75 85.75 32.6 85.75 34.65 83.5 45.35 M58.25 31.5 Q57.2 31.2 55.0 32.6 53.05 33.8 52.35 34.75 L52.35 35.0 Q53.75 34.85 55.65 33.45 L58.25 31.5 M56.85 82.1 Q57.6 82.1 61.2 84.25 64.75 86.35 67.85 86.35 71.5 86.35 72.3 79.5 72.7 75.9 73.15 74.75 73.95 72.6 75.9 72.6 79.0 72.6 79.25 74.95 79.4 76.15 79.0 77.75 L79.65 80.4 80.0 82.8 Q80.0 86.3 78.5 90.1 76.25 95.85 71.85 95.85 64.5 95.85 58.75 90.9 54.25 86.95 54.25 84.85 54.25 82.1 56.85 82.1 M22.15 115.1 Q22.95 114.95 23.6 113.9 L25.25 112.05 Q29.5 108.45 30.8 110.7 31.35 111.7 31.35 115.3 31.35 116.45 30.2 120.8 L28.85 125.4 Q28.4 126.2 28.15 128.25 L27.85 130.4 26.0 132.8 Q24.3 134.25 21.0 134.55 21.5 135.6 21.5 137.15 21.5 138.3 20.5 139.65 19.5 141.05 19.5 143.15 19.5 145.35 18.55 146.75 17.6 148.1 17.6 148.6 L18.05 151.35 18.5 154.05 Q18.5 155.85 16.5 164.55 L17.3 168.8 Q18.1 172.1 18.0 172.8 17.85 174.0 19.15 177.0 20.5 180.1 20.5 181.05 L20.2 182.05 19.1 183.75 20.35 185.5 21.0 187.1 Q21.0 188.15 17.95 189.35 14.8 190.55 14.5 193.5 14.25 196.8 12.35 199.8 11.65 200.9 11.25 205.45 11.0 208.75 11.0 212.0 11.0 217.55 14.7 216.75 L17.2 216.3 Q18.35 216.55 18.35 218.6 18.35 221.2 10.35 222.75 L2.1 223.8 1.2 223.75 0.25 223.5 0.15 223.1 Q0.0 222.85 0.0 222.1 0.0 220.8 0.85 220.25 2.2 219.3 6.25 219.25 5.75 213.7 4.85 208.75 4.25 205.55 4.25 201.0 4.25 198.1 4.7 196.5 5.3 194.45 7.35 191.05 8.1 189.8 8.2 187.65 L8.35 184.25 Q8.6 180.75 12.35 182.0 L9.75 177.65 Q8.75 176.2 8.75 174.4 L9.75 172.5 Q10.75 170.85 10.75 169.55 L10.85 165.05 8.75 158.1 10.5 154.8 Q12.2 151.3 12.25 148.55 11.55 145.5 11.55 143.8 11.5 140.65 14.75 139.8 14.25 138.65 14.25 136.6 L15.0 128.15 Q15.0 127.45 15.45 126.25 15.95 124.9 16.6 124.05 17.6 122.75 17.75 121.95 L17.75 120.1 Q17.75 118.55 18.4 117.85 L21.1 115.4 22.15 115.1" fill="#000000" fill-opacity="0.101960786" fill-rule="evenodd" stroke="none"/>
    </g>
    <linearGradient gradientTransform="matrix(0.0427, 0.0, 0.0, 0.0215, 65.05, 40.4)" gradientUnits="userSpaceOnUse" id="gradient1" spreadMethod="pad" x1="-819.2" x2="819.2">
      <stop offset="0.0" stop-color="#f7dbd5"/>
      <stop offset="0.9882352941176471" stop-color="#ebb19d"/>
    </linearGradient>
    <g id="sprite2" transform="matrix(1.0, 0.0, 0.0, 1.0, 81.65, 158.25)">
      <use ffdec:characterId="4063" height="317.4" transform="matrix(1.0, 0.0, 0.0, 1.0, -81.65, -158.25)" width="200.35" xlink:href="#shape3"/>
    </g>
    <g id="shape3" transform="matrix(1.0, 0.0, 0.0, 1.0, 81.65, 158.25)">
      <path d="M105.65 -148.9 Q107.35 -147.25 107.35 -144.6 L107.35 -144.05 108.85 -142.75 Q118.7 -130.65 118.7 -120.7 118.7 -114.55 115.25 -106.5 L112.25 -99.45 113.05 -97.5 112.85 -97.2 Q111.0 -94.05 107.7 -87.6 L102.95 -78.25 100.95 -74.9 99.75 -74.8 Q91.85 -74.15 88.7 -72.95 L87.6 -71.6 82.85 -64.85 Q80.05 -60.9 77.6 -58.6 L74.25 -55.2 Q72.35 -53.25 70.6 -51.85 68.95 -50.55 65.55 -48.55 L62.35 -46.6 61.35 -46.25 60.35 -45.85 60.2 -46.2 59.75 -45.95 Q57.6 -44.85 55.85 -44.85 L53.8 -44.9 Q51.2 -44.35 49.25 -43.3 L43.35 -39.85 Q41.25 -38.85 38.6 -36.2 L38.5 -36.05 38.65 -35.5 38.85 -34.05 38.35 -31.05 37.85 -29.2 Q37.35 -27.2 37.35 -26.3 37.35 -23.55 39.55 -20.65 L40.6 -19.25 Q42.65 -20.55 44.35 -19.95 52.75 -16.15 52.75 -8.3 52.75 -5.95 51.7 -2.55 54.8 -0.15 55.75 2.95 L56.6 8.9 Q57.35 15.1 57.35 20.5 57.35 23.8 56.6 29.05 55.85 34.3 55.85 40.2 L56.35 58.55 Q56.35 60.4 56.85 64.55 L56.6 66.4 56.5 66.2 Q56.0 72.45 53.55 79.35 50.45 87.95 50.45 93.65 50.45 96.7 50.95 102.4 L51.05 106.6 50.95 110.8 Q50.95 112.45 51.9 114.95 L53.45 119.25 Q54.25 122.4 54.35 126.7 L54.6 126.65 Q55.65 126.65 55.25 129.0 55.25 131.5 55.7 132.3 56.1 133.1 56.1 135.35 56.1 138.15 55.45 138.85 53.5 141.1 52.7 142.55 L50.5 146.3 Q49.15 148.2 46.85 149.9 L44.1 151.75 Q42.2 153.05 41.6 153.65 L39.25 155.3 Q37.5 156.2 36.35 156.4 21.1 158.65 10.6 158.65 L-2.35 157.9 -21.55 157.15 -42.6 158.15 -53.4 159.15 Q-61.35 159.15 -63.25 155.75 -63.9 154.65 -63.9 152.95 L-63.9 150.65 -63.95 145.8 Q-63.95 142.7 -64.65 140.9 -65.8 137.8 -68.3 135.8 L-71.45 133.45 -74.3 130.9 Q-77.4 127.45 -77.4 121.25 -77.4 115.95 -74.9 104.65 -72.4 93.35 -72.4 88.45 -72.4 83.4 -75.9 80.2 -79.4 77.0 -79.4 74.1 -79.4 67.3 -70.75 55.8 L-64.85 47.9 Q-62.15 44.05 -62.15 42.3 -62.15 38.95 -67.6 36.5 L-68.9 35.95 -69.05 36.65 -70.5 42.55 Q-71.55 45.8 -73.2 48.05 L-70.2 35.75 -70.1 35.5 Q-74.25 34.05 -79.8 33.5 L-79.95 32.8 -79.35 32.3 Q-78.75 31.9 -78.45 31.9 -78.3 32.05 -78.7 32.65 -73.55 33.3 -69.9 34.45 -68.9 29.7 -68.9 24.8 -68.9 21.35 -69.25 16.55 L-69.65 8.7 -69.3 0.55 -70.9 0.75 Q-77.4 0.75 -80.15 -6.95 -81.05 -9.4 -81.45 -12.35 L-81.65 -15.1 -81.65 -15.5 -81.55 -15.6 -81.2 -15.6 Q-80.4 -8.75 -77.8 -4.7 -75.05 -0.5 -71.1 -0.5 L-69.2 -0.85 Q-68.65 -7.6 -67.3 -15.15 -66.1 -22.15 -62.15 -39.1 L-58.95 -51.05 -55.45 -62.95 -53.9 -68.45 -54.15 -70.65 -54.55 -74.1 -55.15 -73.75 -55.3 -73.85 -54.6 -74.6 -55.15 -81.8 -54.9 -86.8 Q-54.4 -90.25 -53.3 -86.6 L-52.45 -77.6 -52.4 -76.55 -51.25 -77.35 -49.8 -82.35 Q-48.35 -86.65 -46.3 -86.2 -47.9 -85.15 -48.55 -83.3 L-49.4 -80.2 -50.0 -78.15 Q-46.55 -80.25 -41.9 -81.7 L-37.5 -83.0 -36.95 -83.1 Q-36.35 -84.95 -33.85 -87.15 -30.1 -90.45 -25.4 -90.85 -20.7 -91.5 -16.3 -88.4 -12.35 -85.55 -11.55 -82.1 L-11.25 -81.25 -10.4 -81.05 -6.5 -79.75 -3.9 -79.65 1.6 -79.45 2.35 -79.05 Q2.85 -78.7 3.35 -78.7 L6.2 -79.0 7.1 -79.35 7.45 -79.3 9.45 -79.95 12.45 -80.75 14.4 -82.05 16.0 -83.35 Q17.5 -84.55 18.8 -86.35 L18.9 -86.45 18.9 -87.9 Q18.75 -88.75 19.05 -90.1 L19.65 -92.45 21.15 -97.0 21.35 -99.25 21.6 -100.4 21.8 -101.4 21.6 -101.9 21.35 -102.4 Q21.35 -104.35 22.4 -106.65 23.15 -108.3 24.8 -110.95 L24.8 -111.0 23.85 -111.05 23.8 -111.2 23.7 -111.3 23.75 -111.35 23.7 -111.6 24.0 -111.7 Q26.25 -115.0 31.05 -120.35 L31.05 -120.45 31.95 -121.3 31.85 -122.5 31.45 -124.3 31.35 -124.5 33.35 -127.05 Q38.15 -133.25 39.85 -136.45 L44.8 -144.6 45.85 -146.3 49.8 -147.0 50.6 -147.85 Q52.45 -149.7 55.0 -151.6 59.0 -154.5 60.9 -155.3 64.75 -156.95 73.35 -158.1 L77.55 -157.85 80.6 -156.85 83.75 -156.05 87.15 -155.15 87.6 -155.7 89.1 -156.6 91.75 -156.75 93.6 -156.1 97.6 -154.5 99.85 -152.75 105.65 -148.9 M97.05 -138.75 Q94.75 -141.15 91.4 -141.4 88.05 -141.7 85.75 -139.7 L84.95 -138.85 88.85 -139.0 Q97.0 -135.35 97.0 -128.7 97.0 -126.6 96.25 -124.75 97.9 -125.6 98.75 -127.35 99.65 -129.15 99.65 -131.8 99.65 -136.05 97.05 -138.75 M82.55 -100.05 L83.5 -99.15 84.4 -98.25 85.35 -97.3 Q87.45 -95.65 91.1 -93.8 92.75 -93.0 93.0 -91.95 L93.25 -90.1 93.65 -88.35 93.9 -86.45 93.9 -86.4 94.05 -85.9 93.95 -85.55 93.6 -85.3 92.8 -86.15 92.0 -87.7 91.2 -90.05 Q91.05 -90.35 90.1 -90.7 89.05 -91.05 88.95 -91.15 90.35 -88.45 90.35 -86.05 L90.1 -83.1 89.85 -82.85 Q88.85 -83.15 88.15 -84.15 L87.1 -85.6 85.2 -86.8 83.35 -87.75 Q81.3 -87.75 81.15 -87.3 81.05 -87.0 81.35 -86.35 81.45 -86.1 80.85 -86.1 80.5 -86.1 78.9 -87.65 77.35 -89.2 77.1 -89.85 76.5 -91.05 76.5 -93.6 L77.35 -97.7 77.3 -98.85 77.45 -99.5 77.85 -100.25 78.05 -100.6 80.0 -100.9 80.3 -100.9 80.45 -100.85 80.75 -100.85 Q81.65 -100.85 82.55 -100.05 M30.8 -118.8 L30.75 -118.85 30.45 -118.4 30.8 -118.8 M55.85 -125.2 L52.7 -121.45 46.45 -113.95 Q44.55 -111.65 43.1 -106.25 41.85 -101.65 41.85 -99.05 41.85 -97.4 43.35 -90.35 44.15 -86.3 44.15 -82.85 L45.3 -84.3 48.15 -87.5 49.65 -89.05 Q50.7 -89.95 52.3 -90.25 L53.85 -90.7 Q58.35 -94.25 62.4 -96.6 58.5 -97.8 56.95 -100.65 55.75 -104.2 54.5 -105.75 L54.65 -106.2 55.2 -106.45 Q55.7 -106.45 57.65 -104.8 59.75 -103.1 61.25 -102.85 61.05 -103.7 57.35 -107.05 53.75 -110.25 53.75 -110.95 53.75 -113.2 58.9 -112.05 63.45 -111.0 65.35 -109.6 L67.1 -109.6 67.15 -109.85 66.0 -110.95 60.45 -113.2 60.2 -113.2 58.9 -113.4 58.4 -113.35 56.0 -113.5 Q55.35 -113.65 53.8 -114.6 52.45 -115.6 52.45 -115.75 L54.15 -115.8 Q56.55 -115.0 57.45 -115.0 L59.3 -115.4 64.4 -115.8 Q65.15 -115.8 66.85 -114.65 L68.9 -113.15 70.5 -111.65 71.65 -110.3 Q72.65 -109.15 73.3 -107.45 L73.9 -106.2 74.3 -105.25 76.75 -102.1 76.75 -101.9 76.7 -101.45 76.6 -101.3 76.5 -101.2 75.75 -100.4 Q75.35 -100.0 74.6 -99.75 L74.5 -99.7 Q73.3 -99.6 72.25 -98.9 71.65 -98.7 71.2 -98.3 L69.85 -96.65 69.55 -96.3 68.85 -95.5 67.8 -94.1 65.85 -92.7 Q63.5 -91.5 62.65 -89.9 62.1 -88.85 62.1 -87.05 62.1 -85.7 62.6 -84.7 62.95 -83.95 63.8 -83.25 L65.05 -82.45 Q65.2 -82.35 65.4 -82.3 66.3 -81.8 68.4 -80.95 L70.7 -79.95 70.75 -79.9 71.15 -79.6 71.35 -79.3 71.35 -79.05 71.35 -78.45 71.35 -77.65 71.25 -77.25 71.4 -76.5 72.1 -74.0 73.1 -71.45 73.4 -69.5 72.85 -67.25 72.1 -65.35 72.0 -66.1 72.3 -69.2 71.85 -71.3 70.95 -73.45 70.0 -77.3 69.85 -77.7 69.85 -78.2 67.6 -77.85 64.85 -78.1 Q63.8 -77.75 63.5 -76.4 63.2 -75.1 62.75 -74.65 62.9 -74.5 62.3 -74.5 L57.1 -77.25 56.6 -77.2 61.9 -71.2 Q64.7 -67.6 64.85 -65.2 L64.85 -63.1 64.6 -62.85 Q63.5 -63.45 62.95 -65.0 62.45 -66.5 61.45 -66.95 57.1 -68.2 56.6 -68.5 54.9 -69.6 53.85 -69.7 L53.7 -69.6 53.6 -69.25 Q53.6 -68.25 56.5 -65.9 59.35 -63.5 59.35 -62.85 59.35 -62.15 58.0 -61.7 56.35 -61.1 52.2 -60.6 L52.1 -58.35 Q52.2 -58.1 51.6 -58.1 L49.0 -60.0 Q46.65 -61.95 44.15 -61.95 43.1 -61.95 42.85 -60.95 L42.85 -59.9 Q42.85 -58.7 44.8 -56.9 46.85 -55.0 49.1 -54.45 50.25 -54.15 50.35 -53.05 L50.35 -51.5 Q50.6 -51.1 53.5 -49.0 L58.2 -49.55 Q61.9 -50.25 62.7 -51.1 L63.2 -51.9 63.2 -52.1 Q63.2 -52.55 64.0 -53.45 L65.35 -54.85 66.95 -57.25 Q67.4 -57.9 69.5 -58.4 L72.85 -59.1 Q74.1 -59.4 75.5 -60.05 L77.0 -59.95 Q79.3 -62.25 81.9 -65.8 L87.0 -72.6 97.35 -86.05 98.9 -88.05 97.6 -90.35 Q92.8 -98.35 88.1 -104.2 80.8 -113.1 72.75 -116.95 67.4 -119.45 63.6 -121.6 L59.1 -123.85 Q58.4 -124.05 56.9 -125.2 L56.1 -125.5 55.85 -125.2 M71.5 -108.35 L71.2 -108.85 71.35 -108.5 71.5 -108.35 M49.0 -15.15 Q48.15 -16.55 46.35 -16.45 L46.15 -14.2 46.2 -13.7 45.75 -11.55 Q45.1 -8.4 44.45 -6.7 43.9 -5.3 43.05 -2.15 L41.65 2.45 Q38.3 11.85 33.65 20.9 L24.7 39.25 22.2 43.8 Q20.55 46.75 20.1 48.4 L17.8 53.05 Q16.2 56.1 16.1 57.65 L16.25 57.7 Q16.1 58.1 16.1 58.4 16.1 59.05 16.35 58.65 25.3 44.25 35.0 26.8 37.95 21.55 43.55 10.3 49.2 -1.15 50.1 -4.3 L50.85 -6.0 50.9 -8.2 50.9 -10.5 Q50.75 -12.05 50.15 -12.85 L49.0 -15.15 M86.3 -95.1 L86.35 -95.1 86.2 -95.2 86.3 -95.1 M-16.2 -85.9 Q-18.75 -87.9 -21.65 -88.85 -26.15 -90.5 -30.95 -87.5 -35.0 -84.95 -35.0 -83.3 L-34.85 -82.85 Q-35.6 -80.5 -35.9 -76.65 L-36.4 -68.6 -37.15 -60.7 -39.0 -37.1 -40.15 -29.7 -41.0 -21.2 -41.0 -21.1 -42.2 -11.15 -40.45 -22.65 Q-38.15 -36.5 -36.3 -44.6 L-33.55 -56.4 Q-31.85 -63.1 -30.0 -68.2 L-28.1 -74.1 Q-26.95 -77.85 -25.85 -80.05 L-24.15 -83.0 Q-22.7 -84.35 -18.65 -84.6 -15.5 -84.75 -13.9 -83.4 -14.55 -84.6 -16.2 -85.9 M-54.05 -81.85 L-53.55 -75.55 -53.4 -75.7 -53.65 -78.35 -54.05 -81.95 -54.05 -81.85 M-53.4 -74.8 L-53.45 -74.75 -53.45 -74.6 -53.4 -74.8 M-51.65 -75.8 L-52.35 -75.4 -52.3 -73.7 -51.9 -74.95 -51.65 -75.8 M-54.55 -62.35 L-57.85 -50.6 Q-59.9 -43.45 -60.95 -38.75 L-66.1 -15.1 Q-67.4 -7.8 -68.0 -1.4 -65.5 -2.95 -63.05 -6.95 -61.35 -9.75 -59.15 -15.1 -56.6 -21.2 -55.15 -30.45 -54.2 -36.25 -53.65 -45.35 -53.15 -53.55 -53.15 -61.2 L-53.55 -65.6 -54.55 -62.35" fill="#000000" fill-rule="evenodd" stroke="none"/>
      <path d="M97.05 -138.75 Q99.65 -136.05 99.65 -131.8 99.65 -129.15 98.75 -127.35 97.9 -125.6 96.25 -124.75 97.0 -126.6 97.0 -128.7 97.0 -135.35 88.85 -139.0 L84.95 -138.85 85.75 -139.7 Q88.05 -141.7 91.4 -141.4 94.75 -141.15 97.05 -138.75" fill="#f3f7d5" fill-rule="evenodd" stroke="none"/>
      <path d="M82.55 -100.05 Q81.65 -100.85 80.75 -100.85 L80.45 -100.85 80.3 -100.9 80.0 -100.9 78.05 -100.6 77.85 -100.25 77.45 -99.5 77.3 -98.85 77.35 -97.7 76.5 -93.6 Q76.5 -91.05 77.1 -89.85 77.35 -89.2 78.9 -87.65 80.5 -86.1 80.85 -86.1 81.45 -86.1 81.35 -86.35 81.05 -87.0 81.15 -87.3 81.3 -87.75 83.35 -87.75 L85.2 -86.8 87.1 -85.6 88.15 -84.15 Q88.85 -83.15 89.85 -82.85 L90.1 -83.1 90.35 -86.05 Q90.35 -88.45 88.95 -91.15 89.05 -91.05 90.1 -90.7 91.05 -90.35 91.2 -90.05 L92.0 -87.7 92.8 -86.15 93.6 -85.3 93.95 -85.55 94.05 -85.9 93.9 -86.4 93.9 -86.45 93.65 -88.35 93.25 -90.1 93.0 -91.95 Q92.75 -93.0 91.1 -93.8 87.45 -95.65 85.35 -97.3 L84.4 -98.25 83.5 -99.15 82.55 -100.05 M71.5 -108.35 L71.35 -108.5 71.2 -108.85 71.5 -108.35 M55.85 -125.2 L56.1 -125.5 56.9 -125.2 Q58.4 -124.05 59.1 -123.85 L63.6 -121.6 Q67.4 -119.45 72.75 -116.95 80.8 -113.1 88.1 -104.2 92.8 -98.35 97.6 -90.35 L98.9 -88.05 97.35 -86.05 87.0 -72.6 81.9 -65.8 Q79.3 -62.25 77.0 -59.95 L75.5 -60.05 Q74.1 -59.4 72.85 -59.1 L69.5 -58.4 Q67.4 -57.9 66.95 -57.25 L65.35 -54.85 64.0 -53.45 Q63.2 -52.55 63.2 -52.1 L63.2 -51.9 62.7 -51.1 Q61.9 -50.25 58.2 -49.55 L53.5 -49.0 Q50.6 -51.1 50.35 -51.5 L50.35 -53.05 Q50.25 -54.15 49.1 -54.45 46.85 -55.0 44.8 -56.9 42.85 -58.7 42.85 -59.9 L42.85 -60.95 Q43.1 -61.95 44.15 -61.95 46.65 -61.95 49.0 -60.0 L51.6 -58.1 Q52.2 -58.1 52.1 -58.35 L52.2 -60.6 Q56.35 -61.1 58.0 -61.7 59.35 -62.15 59.35 -62.85 59.35 -63.5 56.5 -65.9 53.6 -68.25 53.6 -69.25 L53.7 -69.6 53.85 -69.7 Q54.9 -69.6 56.6 -68.5 57.1 -68.2 61.45 -66.95 62.45 -66.5 62.95 -65.0 63.5 -63.45 64.6 -62.85 L64.85 -63.1 64.85 -65.2 Q64.7 -67.6 61.9 -71.2 L56.6 -77.2 57.1 -77.25 62.3 -74.5 Q62.9 -74.5 62.75 -74.65 63.2 -75.1 63.5 -76.4 63.8 -77.75 64.85 -78.1 L67.6 -77.85 69.85 -78.2 69.85 -77.7 70.0 -77.3 70.95 -73.45 71.85 -71.3 72.3 -69.2 72.0 -66.1 72.1 -65.35 72.85 -67.25 73.4 -69.5 73.1 -71.45 72.1 -74.0 71.4 -76.5 71.25 -77.25 71.35 -77.65 71.35 -78.45 71.35 -79.05 71.35 -79.3 71.15 -79.6 70.75 -79.9 70.7 -79.95 68.4 -80.95 Q66.3 -81.8 65.4 -82.3 65.2 -82.35 65.05 -82.45 L63.8 -83.25 Q62.95 -83.95 62.6 -84.7 62.1 -85.7 62.1 -87.05 62.1 -88.85 62.65 -89.9 63.5 -91.5 65.85 -92.7 L67.8 -94.1 68.85 -95.5 69.55 -96.3 69.85 -96.65 71.2 -98.3 Q71.65 -98.7 72.25 -98.9 73.3 -99.6 74.5 -99.7 L74.6 -99.75 Q75.35 -100.0 75.75 -100.4 L76.5 -101.2 76.6 -101.3 76.7 -101.45 76.75 -101.9 76.75 -102.1 74.3 -105.25 73.9 -106.2 73.3 -107.45 Q72.65 -109.15 71.65 -110.3 L70.5 -111.65 68.9 -113.15 66.85 -114.65 Q65.15 -115.8 64.4 -115.8 L59.3 -115.4 57.45 -115.0 Q56.55 -115.0 54.15 -115.8 L52.45 -115.75 Q52.45 -115.6 53.8 -114.6 55.35 -113.65 56.0 -113.5 L58.4 -113.35 58.9 -113.4 60.2 -113.2 60.45 -113.2 66.0 -110.95 67.15 -109.85 67.1 -109.6 65.35 -109.6 Q63.45 -111.0 58.9 -112.05 53.75 -113.2 53.75 -110.95 53.75 -110.25 57.35 -107.05 61.05 -103.7 61.25 -102.85 59.75 -103.1 57.65 -104.8 55.7 -106.45 55.2 -106.45 L54.65 -106.2 54.5 -105.75 Q55.75 -104.2 56.95 -100.65 58.5 -97.8 62.4 -96.6 58.35 -94.25 53.85 -90.7 L52.3 -90.25 Q50.7 -89.95 49.65 -89.05 L48.15 -87.5 45.3 -84.3 44.15 -82.85 Q44.15 -86.3 43.35 -90.35 41.85 -97.4 41.85 -99.05 41.85 -101.65 43.1 -106.25 44.55 -111.65 46.45 -113.95 L52.7 -121.45 55.85 -125.2 M86.3 -95.1 L86.2 -95.2 86.35 -95.1 86.3 -95.1" fill="url(#gradient2)" fill-rule="evenodd" stroke="none"/>
      <path d="M49.0 -15.15 L50.15 -12.85 Q50.75 -12.05 50.9 -10.5 L50.9 -8.2 50.85 -6.0 50.1 -4.3 Q49.2 -1.15 43.55 10.3 37.95 21.55 35.0 26.8 25.3 44.25 16.35 58.65 16.1 59.05 16.1 58.4 16.1 58.1 16.25 57.7 L16.1 57.65 Q16.2 56.1 17.8 53.05 L20.1 48.4 Q20.55 46.75 22.2 43.8 L24.7 39.25 33.65 20.9 Q38.3 11.85 41.65 2.45 L43.05 -2.15 Q43.9 -5.3 44.45 -6.7 45.1 -8.4 45.75 -11.55 L46.2 -13.7 46.15 -14.2 46.35 -16.45 Q48.15 -16.55 49.0 -15.15 M-16.2 -85.9 Q-14.55 -84.6 -13.9 -83.4 -15.5 -84.75 -18.65 -84.6 -22.7 -84.35 -24.15 -83.0 L-25.85 -80.05 Q-26.95 -77.85 -28.1 -74.1 L-30.0 -68.2 Q-31.85 -63.1 -33.55 -56.4 L-36.3 -44.6 Q-38.15 -36.5 -40.45 -22.65 L-42.2 -11.15 -41.0 -21.1 -41.0 -21.2 -40.15 -29.7 -39.0 -37.1 -37.15 -60.7 -36.4 -68.6 -35.9 -76.65 Q-35.6 -80.5 -34.85 -82.85 L-35.0 -83.3 Q-35.0 -84.95 -30.95 -87.5 -26.15 -90.5 -21.65 -88.85 -18.75 -87.9 -16.2 -85.9" fill="#846840" fill-rule="evenodd" stroke="none"/>
      <path d="M100.5 -111.85 Q101.65 -110.7 102.0 -108.85 L102.15 -106.05 102.0 -103.2 Q101.8 -100.35 102.4 -99.75 103.1 -99.1 103.1 -97.6 103.1 -96.4 100.65 -91.9 L97.75 -86.7 Q96.45 -84.2 94.1 -81.2 L90.0 -76.1 82.0 -65.2 77.85 -59.95 Q74.5 -56.05 73.35 -56.1 72.05 -56.95 70.5 -56.95 L67.25 -54.3 63.85 -51.05 Q62.25 -49.2 61.5 -49.0 L59.75 -48.8 57.6 -47.45 Q56.25 -46.65 55.05 -46.4 L55.1 -46.2 Q55.1 -45.35 54.5 -44.7 53.7 -43.85 52.0 -43.85 50.3 -43.85 49.75 -45.15 L49.35 -47.1 49.35 -47.15 48.55 -46.4 Q47.0 -44.8 46.5 -44.8 44.1 -44.8 43.5 -45.95 L43.35 -47.2 Q43.35 -48.05 44.35 -49.45 L45.25 -50.75 44.9 -51.9 41.4 -52.3 39.3 -51.05 Q37.55 -49.8 36.25 -49.8 33.65 -49.8 33.0 -50.95 L32.85 -52.3 Q32.85 -57.0 35.7 -60.15 40.65 -64.75 44.85 -69.6 L48.35 -73.85 Q50.7 -76.75 52.35 -78.2 L54.45 -80.1 Q55.3 -80.7 56.6 -81.0 58.35 -83.0 60.6 -82.75 61.8 -83.8 62.25 -84.7 60.5 -84.8 60.0 -85.9 59.85 -86.25 59.85 -87.2 59.85 -88.7 63.95 -92.9 L69.35 -98.1 71.65 -100.85 Q69.4 -100.95 68.35 -101.6 67.35 -102.2 67.35 -103.45 67.35 -104.0 67.9 -104.25 68.7 -104.7 69.35 -105.95 64.3 -110.1 63.5 -111.2 L61.4 -113.2 58.5 -115.7 Q56.9 -117.3 51.4 -120.9 L51.3 -120.95 Q46.5 -121.95 46.5 -123.85 46.5 -124.5 47.1 -125.05 47.6 -125.45 48.35 -125.45 L48.35 -125.65 Q48.35 -127.35 49.75 -128.3 51.45 -130.45 60.0 -128.05 65.85 -126.4 75.0 -122.45 L76.5 -120.7 77.3 -119.75 78.5 -118.45 82.75 -114.6 84.4 -112.8 Q88.05 -112.45 92.15 -113.5 96.8 -114.7 100.5 -111.85 M97.1 -107.8 Q96.25 -108.85 93.1 -108.7 L93.25 -108.6 Q94.6 -107.85 94.8 -106.9 L94.85 -105.2 95.5 -103.85 96.1 -102.2 95.65 -100.7 94.85 -99.7 94.75 -99.6 96.35 -99.6 Q97.35 -104.85 97.35 -106.1 L97.1 -107.8" fill="#000000" fill-opacity="0.101960786" fill-rule="evenodd" stroke="none"/>
    </g>
    <linearGradient gradientTransform="matrix(0.0504, -7.0E-4, 6.0E-4, 0.0467, 70.35, -87.25)" gradientUnits="userSpaceOnUse" id="gradient2" spreadMethod="pad" x1="-819.2" x2="819.2">
      <stop offset="0.0" stop-color="#dac2ad"/>
      <stop offset="0.9882352941176471" stop-color="#a36d4b"/>
    </linearGradient>
    <g id="sprite3" transform="matrix(1.0, 0.0, 0.0, 1.0, 0.0, 0.5)">
      <use ffdec:characterId="4061" height="345.15" transform="matrix(1.0, 0.0, 0.0, 1.0, 0.0, -0.5)" width="317.7" xlink:href="#shape4"/>
    </g>
    <g id="shape4" transform="matrix(1.0, 0.0, 0.0, 1.0, 0.0, 0.5)">
      <path d="M169.2 11.65 L169.2 11.75 169.15 11.8 Q171.4 13.5 173.45 16.25 L178.2 23.4 182.4 30.2 182.95 31.05 186.1 33.25 Q187.1 34.15 189.3 35.65 L190.05 36.4 190.7 36.95 Q191.4 37.75 191.5 38.9 191.75 41.8 193.0 46.75 L194.4 53.9 Q195.7 61.0 195.7 62.4 L195.6 64.55 Q195.35 64.55 195.35 64.9 L195.35 65.1 Q195.35 65.95 192.45 69.85 L189.25 74.15 186.65 78.5 184.7 81.15 Q185.5 89.0 185.5 93.9 185.5 100.0 185.0 105.0 L184.5 109.7 Q184.45 116.0 182.85 123.45 180.1 136.4 179.7 138.9 179.3 141.45 178.9 142.6 L177.8 144.85 177.8 145.0 177.95 145.0 178.0 144.95 178.0 145.4 177.95 145.9 178.1 147.2 Q178.4 149.9 178.85 151.3 179.6 153.85 180.6 159.15 L181.05 161.1 180.95 161.15 181.15 161.5 183.45 163.5 183.85 163.8 186.7 162.9 189.9 162.4 Q191.45 162.2 192.85 162.4 L193.4 162.75 Q195.6 162.8 198.35 163.55 200.55 163.95 203.8 165.1 L207.7 166.4 Q211.75 167.35 215.25 169.05 L215.85 169.35 220.25 169.95 Q222.5 170.55 224.35 171.9 L226.6 173.6 Q228.0 174.45 231.1 175.0 L234.9 175.85 Q235.7 170.25 240.45 167.35 245.7 164.2 253.1 165.65 260.6 167.1 265.7 172.5 267.95 174.9 269.35 177.65 L270.6 178.15 Q272.05 178.65 273.6 179.4 L276.25 180.8 278.6 182.5 Q280.65 184.0 285.85 186.0 288.55 187.0 291.6 188.0 294.6 189.2 297.95 190.95 L301.05 192.7 301.1 192.65 301.95 193.25 304.2 194.9 304.15 195.05 Q308.9 199.6 310.7 207.15 L311.65 209.95 Q312.0 209.05 312.6 208.3 L312.75 208.45 312.85 208.9 312.35 211.8 Q314.3 216.5 317.7 222.15 L317.1 222.4 Q314.15 219.4 312.25 215.1 L311.95 214.3 311.95 217.85 Q311.95 221.9 312.5 227.5 L313.45 237.0 Q314.3 245.2 314.2 255.9 L313.95 275.05 Q313.9 281.25 314.45 294.0 314.45 308.0 311.25 318.0 307.2 330.75 304.7 334.75 301.15 340.4 295.1 340.4 L288.35 340.05 273.35 339.65 265.35 338.9 Q259.8 338.5 255.85 337.4 249.25 335.0 245.65 333.9 239.3 332.0 232.15 332.0 L222.15 332.85 214.6 333.65 Q210.6 333.65 202.85 332.1 195.15 330.5 190.75 330.5 186.15 330.5 181.65 331.7 L177.1 333.15 Q168.6 335.4 163.9 335.3 L163.35 335.25 160.85 336.15 159.2 336.55 144.7 336.8 136.85 336.75 Q132.85 337.9 129.85 339.7 L124.7 343.1 Q122.15 344.65 119.35 344.65 112.55 344.65 109.85 336.25 L109.65 337.15 Q109.55 337.6 109.1 337.9 L108.75 337.75 109.3 335.1 103.15 335.05 69.2 336.55 35.45 338.0 19.4 337.25 13.85 336.4 Q3.6 335.95 1.2 335.1 0.0 334.7 0.0 333.15 L1.6 325.85 3.75 316.0 4.95 308.35 4.75 307.3 Q4.75 301.9 8.7 292.2 L15.25 277.65 18.2 270.2 Q19.95 265.9 22.2 262.9 23.1 261.75 26.6 259.25 L28.2 257.5 29.6 255.5 32.95 251.9 36.7 248.4 38.45 245.65 Q37.85 241.9 37.85 240.0 37.85 235.4 40.05 232.0 42.0 228.95 47.6 224.25 55.95 217.3 65.3 221.15 67.7 222.15 69.75 223.7 72.45 222.3 75.5 220.15 L78.1 218.2 78.2 218.0 Q78.85 215.95 79.85 215.15 L79.9 215.2 80.95 213.9 83.65 211.05 86.25 208.3 91.2 202.8 96.2 196.65 Q96.85 195.8 97.4 195.7 98.1 195.6 99.35 196.3 L102.6 197.3 104.8 197.95 106.5 196.05 106.4 194.75 Q106.4 192.35 105.95 191.4 105.45 190.35 105.2 188.25 L104.7 184.8 104.15 182.45 104.45 182.35 103.7 179.15 Q101.3 169.0 94.7 153.5 L93.95 152.9 88.45 148.05 Q85.75 145.9 84.6 142.8 83.65 139.35 82.75 137.55 L80.85 132.35 Q79.35 127.9 79.35 127.3 L79.25 127.5 Q74.15 125.55 73.05 121.0 72.75 115.7 72.25 113.4 L70.35 102.9 70.1 102.9 57.3 91.8 57.1 91.8 57.05 91.55 56.6 91.15 56.75 91.0 Q55.6 89.95 55.25 88.2 L54.85 84.65 Q54.1 80.15 54.1 77.9 L53.25 71.75 Q52.35 65.8 52.35 64.2 L52.55 63.45 52.45 63.3 Q52.45 62.55 55.1 58.65 L57.35 55.55 Q58.65 48.15 62.1 36.4 65.0 26.45 66.3 23.0 68.4 17.5 71.15 13.25 71.3 11.6 74.3 8.45 77.1 5.55 78.35 4.9 L81.7 2.9 Q83.7 1.8 85.35 1.75 L94.2 0.9 98.35 0.0 Q106.4 0.25 112.9 1.75 L123.35 4.15 141.95 5.35 158.6 6.15 Q162.1 6.2 165.25 8.05 167.1 9.1 169.25 11.15 L169.2 11.65 M164.1 42.55 L164.2 42.5 164.15 42.5 164.1 42.55 M162.85 54.75 L163.1 54.75 163.05 54.65 162.85 54.75 M164.9 57.4 Q163.15 56.3 160.95 55.25 156.55 53.05 154.25 53.05 152.8 53.05 151.4 53.8 L150.0 54.75 149.85 55.15 149.85 55.25 152.2 55.05 Q159.15 55.05 162.05 59.0 163.6 61.2 163.6 63.7 163.75 64.25 163.4 64.7 162.6 65.6 159.85 65.4 L153.75 65.75 148.2 66.25 Q148.55 68.25 150.55 71.95 152.9 76.25 153.35 77.65 155.1 83.1 156.1 88.9 L155.95 89.2 155.4 89.3 Q154.7 89.3 153.1 87.6 L151.2 85.5 Q149.05 83.7 145.45 81.9 146.1 83.2 148.95 86.55 151.65 89.75 152.25 91.15 153.3 93.65 154.7 96.15 155.6 98.0 155.6 100.2 L155.5 101.75 154.85 101.9 152.8 100.8 Q152.3 101.0 151.7 100.8 L156.6 109.6 Q159.2 114.85 159.25 118.4 L159.35 118.55 162.05 112.35 Q163.75 108.5 165.85 106.15 L168.1 102.9 171.35 99.75 175.6 96.75 176.95 95.15 177.8 94.1 Q177.3 90.55 176.65 82.9 175.95 74.55 173.35 69.4 172.1 66.85 171.65 62.7 171.15 57.5 170.7 55.9 170.4 54.7 169.05 52.5 L167.6 50.0 Q162.65 47.3 155.1 44.15 L151.15 42.85 150.0 42.55 148.85 43.4 Q146.85 45.15 146.45 46.35 L147.3 46.5 154.6 47.75 Q157.25 48.55 160.1 50.0 160.95 50.5 163.3 53.15 165.7 55.9 165.7 56.7 L165.6 57.25 164.9 57.4 M187.55 165.95 L187.15 166.05 187.3 166.2 187.5 166.15 187.55 165.95 M185.6 165.0 L185.6 164.95 185.5 164.9 185.6 165.0 M185.8 169.8 L186.6 168.3 187.0 167.4 Q185.8 167.05 184.05 165.8 L181.6 163.8 Q180.9 163.15 180.15 162.0 179.45 160.95 179.25 160.25 178.6 158.1 177.9 154.05 L178.2 153.95 178.15 153.85 177.1 148.65 176.8 149.4 175.6 152.9 Q175.3 154.45 175.1 157.25 L174.95 160.3 175.0 162.65 Q175.7 163.85 178.15 166.3 182.0 170.15 184.9 170.15 L185.8 169.8 M128.2 8.1 L127.85 7.65 Q126.85 8.65 126.5 11.4 L125.95 14.95 125.35 14.1 Q124.5 13.4 123.0 13.65 123.1 12.4 122.35 12.4 122.05 12.4 121.45 12.85 L121.3 13.0 120.35 12.9 119.55 12.6 119.5 11.9 Q119.35 10.8 118.35 10.65 117.9 10.6 117.0 11.65 L116.7 12.0 116.7 11.75 Q116.6 11.4 115.95 11.4 115.6 11.4 115.3 11.8 L115.15 12.05 114.75 11.85 113.85 11.65 113.75 11.65 113.6 11.65 Q113.15 11.65 112.7 12.15 L112.4 12.55 Q112.2 12.4 111.85 12.4 L111.7 12.45 111.4 12.15 110.6 11.65 110.2 11.85 Q110.05 11.95 109.6 11.55 L108.6 10.75 Q107.75 10.7 107.75 11.4 L107.85 12.0 Q107.5 10.9 106.85 10.9 106.45 10.9 106.3 11.05 L106.1 11.15 106.1 12.05 106.0 12.0 105.95 11.45 Q105.85 11.1 105.35 10.9 104.6 11.45 104.25 12.65 103.95 13.7 104.1 14.4 103.95 13.9 103.35 13.9 L102.8 14.05 102.6 14.15 102.6 15.65 101.95 15.5 101.6 14.55 Q101.2 14.55 101.1 14.7 L101.0 14.8 100.95 16.2 Q100.95 18.5 103.35 20.8 107.15 24.55 115.35 24.55 L119.65 23.45 Q123.55 22.2 124.35 21.4 125.65 19.95 126.75 17.25 127.7 14.9 128.05 13.0 L128.35 8.7 128.2 8.1 M85.0 7.6 L84.95 7.15 84.85 7.05 Q83.65 6.55 80.9 10.25 L76.5 16.25 76.5 15.85 76.7 15.45 Q80.85 8.2 80.85 7.65 L80.7 7.2 80.35 7.15 Q78.4 8.8 74.35 16.1 L74.25 15.8 74.0 15.15 74.6 14.0 76.95 9.05 76.85 8.7 76.7 8.8 76.35 9.15 77.35 7.05 77.2 6.6 76.85 6.55 Q73.0 11.55 69.95 17.75 66.95 23.85 65.45 29.4 L63.5 36.9 Q62.7 37.85 62.3 39.95 L61.6 43.4 Q60.6 46.3 60.15 48.15 59.35 50.7 59.35 51.8 L59.25 52.55 Q59.25 53.2 59.35 52.9 L59.85 52.9 60.0 52.5 60.1 52.4 Q61.25 51.65 62.0 49.95 L63.1 47.0 65.85 41.4 69.8 34.05 70.2 33.4 Q72.15 30.5 79.35 22.15 L85.7 14.3 85.6 13.9 Q84.65 13.45 81.85 16.65 L81.2 16.5 80.55 16.7 80.25 16.9 80.25 16.65 Q80.15 15.05 79.45 15.5 80.75 13.3 82.4 11.0 L85.0 7.6 M110.3 42.9 Q104.55 45.45 97.6 50.15 87.7 56.85 81.35 64.0 75.3 70.75 70.6 78.05 L69.35 80.15 69.6 81.75 70.35 86.25 71.6 94.35 71.6 94.55 71.6 94.7 71.6 95.15 71.6 95.8 71.35 96.0 71.25 96.35 70.85 98.15 Q70.85 99.3 72.0 105.65 L72.8 109.3 73.35 112.9 73.65 116.7 Q73.85 119.1 74.35 120.4 L74.95 122.2 Q75.4 123.4 76.0 124.15 L77.85 125.55 79.4 127.05 79.45 126.55 79.8 126.55 Q79.1 125.7 78.95 124.6 78.9 122.55 78.5 121.4 77.3 117.75 77.0 115.4 76.0 107.4 76.0 103.4 76.0 102.6 76.4 102.2 76.9 101.75 77.35 103.15 77.55 104.8 77.85 105.65 L79.1 110.5 Q80.25 115.6 82.1 120.4 84.8 127.45 90.35 136.3 L90.0 133.45 89.5 125.15 Q89.5 119.15 90.35 119.05 L91.6 123.45 Q92.2 126.4 92.75 127.65 94.7 131.8 97.25 136.05 L102.0 144.65 103.8 148.65 Q106.0 152.4 108.75 152.4 114.65 152.4 118.65 149.95 122.55 147.6 125.1 142.75 126.65 139.75 127.35 137.3 127.1 135.25 127.8 132.75 L127.65 132.75 123.6 133.4 Q121.9 133.8 121.3 134.2 L120.2 134.4 119.7 134.3 119.5 133.55 Q119.5 132.25 122.65 128.05 L125.75 123.8 Q125.75 123.1 123.85 120.75 122.05 118.55 122.25 118.0 117.65 118.4 115.75 119.45 L113.35 121.15 112.25 120.65 Q112.25 119.75 114.35 115.05 L116.85 109.9 Q117.95 108.0 121.25 103.7 123.35 101.0 123.35 99.3 L123.05 96.75 Q122.35 96.2 122.0 94.4 L121.75 91.85 Q121.75 89.7 122.85 89.55 123.95 89.4 126.8 89.55 129.1 89.45 129.1 87.9 129.1 87.3 127.55 84.1 126.0 80.9 126.0 79.8 126.0 78.2 127.5 75.2 129.0 72.2 129.0 70.55 129.0 67.7 127.25 63.9 125.35 59.75 123.35 59.75 120.8 59.75 120.35 60.75 119.95 61.55 119.1 65.05 L116.7 70.5 Q115.5 72.95 112.55 75.95 L107.9 79.8 106.35 81.65 105.6 81.55 105.6 80.9 Q105.6 80.5 106.65 79.25 L108.0 77.4 108.1 77.25 104.35 78.15 99.45 77.9 99.35 77.35 Q99.35 76.95 100.05 75.9 L101.1 74.15 101.55 72.6 101.85 71.9 101.8 71.9 100.1 71.75 Q95.4 71.75 92.35 74.25 91.85 74.65 89.85 77.15 L89.1 77.15 89.0 76.4 Q89.0 74.3 93.0 67.9 94.3 65.8 96.7 64.3 97.4 63.8 102.35 61.15 L102.6 61.0 95.25 59.55 Q92.95 59.2 92.95 58.35 92.95 57.45 94.95 57.15 L100.1 56.25 103.6 55.35 106.35 54.55 Q109.65 53.4 110.85 52.55 L111.95 51.4 112.3 51.1 112.4 50.55 112.7 49.05 Q112.7 45.85 110.3 42.9 M96.35 58.3 L97.05 58.5 97.1 58.25 96.35 58.3 M114.6 81.55 L113.6 83.2 Q112.6 85.0 112.6 86.1 112.6 87.65 112.95 88.65 113.1 89.0 114.0 89.6 L114.85 90.4 112.9 93.55 110.7 96.75 Q109.85 98.55 108.35 103.05 L108.35 103.15 107.6 103.05 107.35 99.6 107.1 97.05 Q107.1 93.0 108.85 88.8 110.8 84.2 114.35 80.8 L114.5 81.05 114.6 81.55 M119.0 84.5 Q121.45 83.25 123.25 83.8 124.85 84.3 124.85 85.7 124.85 87.25 121.95 88.9 118.65 90.75 118.1 91.9 117.0 91.35 116.7 90.2 L116.6 88.15 Q116.6 86.65 116.75 86.3 117.15 85.45 119.0 84.5 M101.25 76.65 L101.2 76.75 101.25 76.75 101.25 76.65 M76.1 43.15 L75.95 42.7 75.6 42.65 74.3 43.7 72.8 44.4 Q72.15 44.8 71.75 45.1 L71.5 45.2 71.3 45.35 71.25 45.4 68.5 47.4 66.1 49.5 63.6 52.05 60.95 54.4 Q59.3 55.75 58.35 56.75 L55.95 59.65 55.65 60.05 55.6 60.1 Q53.75 61.95 53.75 64.3 53.75 66.25 55.4 76.85 L57.1 87.9 57.85 87.65 57.95 86.95 57.95 86.7 Q59.2 74.85 62.35 65.25 64.45 59.15 67.35 54.0 69.15 50.85 72.85 46.75 L76.1 43.15 M67.35 30.0 L67.45 29.65 67.5 29.65 67.35 30.0 M57.25 82.95 L57.4 83.0 57.35 83.85 57.25 82.95 M69.0 78.7 L69.05 78.85 69.1 78.75 69.0 78.7 M114.1 118.9 L114.1 119.05 114.15 119.05 114.1 118.9 M90.7 124.75 L90.6 124.65 90.6 124.75 90.7 124.75 M106.95 162.9 L100.6 157.9 96.55 155.0 97.6 157.8 99.0 161.0 100.35 164.15 104.45 176.75 107.15 188.2 107.45 189.45 107.05 189.6 107.7 194.25 107.7 194.6 107.95 194.65 107.5 198.65 107.5 198.95 111.6 200.35 118.6 202.55 124.8 204.85 Q129.8 206.75 134.1 207.75 L134.75 207.9 Q135.25 207.55 136.3 207.4 L137.6 207.45 139.7 206.45 Q152.65 200.15 153.1 200.15 L153.45 200.15 151.15 196.3 148.85 192.0 146.35 192.35 143.6 192.65 Q137.65 192.65 134.95 191.3 L132.6 189.5 Q131.3 188.8 130.95 187.65 L130.75 185.8 Q130.75 183.5 132.0 181.05 L132.8 179.7 125.45 182.5 124.95 182.35 122.2 181.15 121.85 181.3 121.65 181.0 121.35 180.9 121.35 180.55 121.45 180.35 121.4 180.2 121.25 179.5 Q121.25 178.7 122.3 175.2 L123.6 171.25 118.0 169.25 Q115.15 168.3 114.4 167.4 111.4 166.2 106.95 162.9 M131.5 337.55 Q132.4 337.05 133.25 336.7 L123.0 335.95 110.1 335.15 112.4 339.15 Q114.8 343.55 117.75 343.55 121.55 343.55 123.4 342.65 124.7 342.05 128.2 339.55 L131.5 337.55 M153.65 334.75 L143.35 335.4 158.55 335.5 161.6 335.1 153.65 334.75" fill="#000000" fill-rule="evenodd" stroke="none"/>
      <path d="M164.9 57.4 L165.6 57.25 165.7 56.7 Q165.7 55.9 163.3 53.15 160.95 50.5 160.1 50.0 157.25 48.55 154.6 47.75 L147.3 46.5 146.45 46.35 Q146.85 45.15 148.85 43.4 L150.0 42.55 151.15 42.85 155.1 44.15 Q162.65 47.3 167.6 50.0 L169.05 52.5 Q170.4 54.7 170.7 55.9 171.15 57.5 171.65 62.7 172.1 66.85 173.35 69.4 175.95 74.55 176.65 82.9 177.3 90.55 177.8 94.1 L176.95 95.15 175.6 96.75 171.35 99.75 168.1 102.9 165.85 106.15 Q163.75 108.5 162.05 112.35 L159.35 118.55 159.25 118.4 Q159.2 114.85 156.6 109.6 L151.7 100.8 Q152.3 101.0 152.8 100.8 L154.85 101.9 155.5 101.75 155.6 100.2 Q155.6 98.0 154.7 96.15 153.3 93.65 152.25 91.15 151.65 89.75 148.95 86.55 146.1 83.2 145.45 81.9 149.05 83.7 151.2 85.5 L153.1 87.6 Q154.7 89.3 155.4 89.3 L155.95 89.2 156.1 88.9 Q155.1 83.1 153.35 77.65 152.9 76.25 150.55 71.95 148.55 68.25 148.2 66.25 L153.75 65.75 159.85 65.4 Q162.6 65.6 163.4 64.7 163.75 64.25 163.6 63.7 163.6 61.2 162.05 59.0 159.15 55.05 152.2 55.05 L149.85 55.25 149.85 55.15 150.0 54.75 151.4 53.8 Q152.8 53.05 154.25 53.05 156.55 53.05 160.95 55.25 163.15 56.3 164.9 57.4 M185.8 169.8 L184.9 170.15 Q182.0 170.15 178.15 166.3 175.7 163.85 175.0 162.65 L174.95 160.3 175.1 157.25 Q175.3 154.45 175.6 152.9 L176.8 149.4 177.1 148.65 178.15 153.85 178.2 153.95 177.9 154.05 Q178.6 158.1 179.25 160.25 179.45 160.95 180.15 162.0 180.9 163.15 181.6 163.8 L184.05 165.8 Q185.8 167.05 187.0 167.4 L186.6 168.3 185.8 169.8 M110.3 42.9 Q112.7 45.85 112.7 49.05 L112.4 50.55 112.3 51.1 111.95 51.4 110.85 52.55 Q109.65 53.4 106.35 54.55 L103.6 55.35 100.1 56.25 94.95 57.15 Q92.95 57.45 92.95 58.35 92.95 59.2 95.25 59.55 L102.6 61.0 102.35 61.15 Q97.4 63.8 96.7 64.3 94.3 65.8 93.0 67.9 89.0 74.3 89.0 76.4 L89.1 77.15 89.85 77.15 Q91.85 74.65 92.35 74.25 95.4 71.75 100.1 71.75 L101.8 71.9 101.85 71.9 101.55 72.6 101.1 74.15 100.05 75.9 Q99.35 76.95 99.35 77.35 L99.45 77.9 104.35 78.15 108.1 77.25 108.0 77.4 106.65 79.25 Q105.6 80.5 105.6 80.9 L105.6 81.55 106.35 81.65 107.9 79.8 112.55 75.95 Q115.5 72.95 116.7 70.5 L119.1 65.05 Q119.95 61.55 120.35 60.75 120.8 59.75 123.35 59.75 125.35 59.75 127.25 63.9 129.0 67.7 129.0 70.55 129.0 72.2 127.5 75.2 126.0 78.2 126.0 79.8 126.0 80.9 127.55 84.1 129.1 87.3 129.1 87.9 129.1 89.45 126.8 89.55 123.95 89.4 122.85 89.55 121.75 89.7 121.75 91.85 L122.0 94.4 Q122.35 96.2 123.05 96.75 L123.35 99.3 Q123.35 101.0 121.25 103.7 117.95 108.0 116.85 109.9 L114.35 115.05 Q112.25 119.75 112.25 120.65 L113.35 121.15 115.75 119.45 Q117.65 118.4 122.25 118.0 122.05 118.55 123.85 120.75 125.75 123.1 125.75 123.8 L122.65 128.05 Q119.5 132.25 119.5 133.55 L119.7 134.3 120.2 134.4 121.3 134.2 Q121.9 133.8 123.6 133.4 L127.65 132.75 127.8 132.75 Q127.1 135.25 127.35 137.3 126.65 139.75 125.1 142.75 122.55 147.6 118.65 149.95 114.65 152.4 108.75 152.4 106.0 152.4 103.8 148.65 L102.0 144.65 97.25 136.05 Q94.7 131.8 92.75 127.65 92.2 126.4 91.6 123.45 L90.35 119.05 Q89.5 119.15 89.5 125.15 L90.0 133.45 90.35 136.3 Q84.8 127.45 82.1 120.4 80.25 115.6 79.1 110.5 L77.85 105.65 Q77.55 104.8 77.35 103.15 76.9 101.75 76.4 102.2 76.0 102.6 76.0 103.4 76.0 107.4 77.0 115.4 77.3 117.75 78.5 121.4 78.9 122.55 78.95 124.6 79.1 125.7 79.8 126.55 L79.45 126.55 79.4 127.05 77.85 125.55 76.0 124.15 Q75.4 123.4 74.95 122.2 L74.35 120.4 Q73.85 119.1 73.65 116.7 L73.35 112.9 72.8 109.3 72.0 105.65 Q70.85 99.3 70.85 98.15 L71.25 96.35 71.35 96.0 71.6 95.8 71.6 95.15 71.6 94.7 71.6 94.55 71.6 94.35 70.35 86.25 69.6 81.75 69.35 80.15 70.6 78.05 Q75.3 70.75 81.35 64.0 87.7 56.85 97.6 50.15 104.55 45.45 110.3 42.9 M119.0 84.5 Q117.15 85.45 116.75 86.3 116.6 86.65 116.6 88.15 L116.7 90.2 Q117.0 91.35 118.1 91.9 118.65 90.75 121.95 88.9 124.85 87.25 124.85 85.7 124.85 84.3 123.25 83.8 121.45 83.25 119.0 84.5 M114.6 81.55 L114.5 81.05 114.35 80.8 Q110.8 84.2 108.85 88.8 107.1 93.0 107.1 97.05 L107.35 99.6 107.6 103.05 108.35 103.15 108.35 103.05 Q109.85 98.55 110.7 96.75 L112.9 93.55 114.85 90.4 114.0 89.6 Q113.1 89.0 112.95 88.65 112.6 87.65 112.6 86.1 112.6 85.0 113.6 83.2 L114.6 81.55 M106.95 162.9 Q111.4 166.2 114.4 167.4 115.15 168.3 118.0 169.25 L123.6 171.25 122.3 175.2 Q121.25 178.7 121.25 179.5 L121.4 180.2 121.45 180.35 121.35 180.55 121.35 180.9 121.65 181.0 121.85 181.3 122.2 181.15 124.95 182.35 125.45 182.5 132.8 179.7 132.0 181.05 Q130.75 183.5 130.75 185.8 L130.95 187.65 Q131.3 188.8 132.6 189.5 L134.95 191.3 Q137.65 192.65 143.6 192.65 L146.35 192.35 148.85 192.0 151.15 196.3 153.45 200.15 153.1 200.15 Q152.65 200.15 139.7 206.45 L137.6 207.45 136.3 207.4 Q135.25 207.55 134.75 207.9 L134.1 207.75 Q129.8 206.75 124.8 204.85 L118.6 202.55 111.6 200.35 107.5 198.95 107.5 198.65 107.95 194.65 107.7 194.6 107.7 194.25 107.05 189.6 107.45 189.45 107.15 188.2 104.45 176.75 100.35 164.15 99.0 161.0 97.6 157.8 96.55 155.0 100.6 157.9 106.95 162.9" fill="url(#gradient3)" fill-rule="evenodd" stroke="none"/>
      <path d="M128.2 8.1 L128.35 8.7 128.05 13.0 Q127.7 14.9 126.75 17.25 125.65 19.95 124.35 21.4 123.55 22.2 119.65 23.45 L115.35 24.55 Q107.15 24.55 103.35 20.8 100.95 18.5 100.95 16.2 L101.0 14.8 101.1 14.7 Q101.2 14.55 101.6 14.55 L101.95 15.5 102.6 15.65 102.6 14.15 102.8 14.05 103.35 13.9 Q103.95 13.9 104.1 14.4 103.95 13.7 104.25 12.65 104.6 11.45 105.35 10.9 105.85 11.1 105.95 11.45 L106.0 12.0 106.1 12.05 106.1 11.15 106.3 11.05 Q106.45 10.9 106.85 10.9 107.5 10.9 107.85 12.0 L107.75 11.4 Q107.75 10.7 108.6 10.75 L109.6 11.55 Q110.05 11.95 110.2 11.85 L110.6 11.65 111.4 12.15 111.7 12.45 111.85 12.4 Q112.2 12.4 112.4 12.55 L112.7 12.15 Q113.15 11.65 113.6 11.65 L113.75 11.65 113.85 11.65 114.75 11.85 115.15 12.05 115.3 11.8 Q115.6 11.4 115.95 11.4 116.6 11.4 116.7 11.75 L116.7 12.0 117.0 11.65 Q117.9 10.6 118.35 10.65 119.35 10.8 119.5 11.9 L119.55 12.6 120.35 12.9 121.3 13.0 121.45 12.85 Q122.05 12.4 122.35 12.4 123.1 12.4 123.0 13.65 124.5 13.4 125.35 14.1 L125.95 14.95 126.5 11.4 Q126.85 8.65 127.85 7.65 L128.2 8.1" fill="#f3f7d5" fill-rule="evenodd" stroke="none"/>
      <path d="M85.0 7.6 L82.4 11.0 Q80.75 13.3 79.45 15.5 80.15 15.05 80.25 16.65 L80.25 16.9 80.55 16.7 81.2 16.5 81.85 16.65 Q84.65 13.45 85.6 13.9 L85.7 14.3 79.35 22.15 Q72.15 30.5 70.2 33.4 L69.8 34.05 65.85 41.4 63.1 47.0 62.0 49.95 Q61.25 51.65 60.1 52.4 L60.0 52.5 59.85 52.9 59.35 52.9 Q59.25 53.2 59.25 52.55 L59.35 51.8 Q59.35 50.7 60.15 48.15 60.6 46.3 61.6 43.4 L62.3 39.95 Q62.7 37.85 63.5 36.9 L65.45 29.4 Q66.95 23.85 69.95 17.75 73.0 11.55 76.85 6.55 L77.2 6.6 77.35 7.05 76.35 9.15 76.7 8.8 76.85 8.7 76.95 9.05 74.6 14.0 74.0 15.15 74.25 15.8 74.35 16.1 Q78.4 8.8 80.35 7.15 L80.7 7.2 80.85 7.65 Q80.85 8.2 76.7 15.45 L76.5 15.85 76.5 16.25 80.9 10.25 Q83.65 6.55 84.85 7.05 L84.95 7.15 85.0 7.6 M67.35 30.0 L67.5 29.65 67.45 29.65 67.35 30.0 M76.1 43.15 L72.85 46.75 Q69.15 50.85 67.35 54.0 64.45 59.15 62.35 65.25 59.2 74.85 57.95 86.7 L57.95 86.95 57.85 87.65 57.1 87.9 55.4 76.85 Q53.75 66.25 53.75 64.3 53.75 61.95 55.6 60.1 L55.65 60.05 55.95 59.65 58.35 56.75 Q59.3 55.75 60.95 54.4 L63.6 52.05 66.1 49.5 68.5 47.4 71.25 45.4 71.3 45.35 71.5 45.2 71.75 45.1 Q72.15 44.8 72.8 44.4 L74.3 43.7 75.6 42.65 75.95 42.7 76.1 43.15 M57.25 82.95 L57.35 83.85 57.4 83.0 57.25 82.95" fill="#d3e05a" fill-rule="evenodd" stroke="none"/>
      <path d="M170.8 47.85 L170.45 50.1 170.0 52.05 Q173.1 52.35 173.5 56.6 173.75 59.3 173.3 63.9 173.55 67.05 174.6 67.7 176.15 68.6 176.8 70.05 178.1 73.25 178.3 76.4 L179.6 88.75 Q180.8 100.45 180.8 102.85 L180.55 105.45 176.4 105.55 Q176.0 105.95 175.95 109.85 175.9 112.9 172.85 112.9 L171.4 112.55 Q170.85 112.25 170.85 111.9 170.45 113.45 169.35 115.1 L168.3 116.65 168.15 119.15 Q167.75 120.9 165.85 120.9 163.75 120.9 163.45 119.55 L163.55 117.65 162.65 117.85 Q163.8 121.5 163.8 122.3 163.8 123.1 162.55 125.3 161.35 127.4 161.05 127.4 158.25 127.4 155.95 121.65 L153.3 113.8 149.45 106.35 Q146.55 100.9 146.55 100.3 146.55 99.7 147.2 97.4 L147.8 94.45 Q147.8 92.8 144.45 82.25 141.05 71.7 141.05 64.45 140.9 62.4 141.25 60.85 142.0 57.75 144.55 58.8 144.3 51.05 144.75 44.65 145.65 32.15 149.35 32.15 149.85 32.15 150.65 32.8 L151.8 33.65 Q152.45 31.3 154.4 29.35 156.9 26.85 157.8 31.55 L158.45 31.1 Q159.1 30.65 159.85 30.65 162.3 30.65 162.3 33.7 L161.75 39.15 161.05 47.05 161.1 47.05 Q161.45 43.85 161.85 42.35 162.55 39.65 164.85 39.65 166.1 39.65 170.8 47.85 M172.55 145.9 Q176.9 146.9 177.65 148.8 L179.3 157.05 Q180.05 160.05 180.65 161.2 181.8 163.3 184.55 165.3 187.25 167.3 187.75 169.2 L187.8 172.95 Q187.8 175.7 185.8 178.05 183.9 180.3 182.1 180.3 177.6 180.3 172.35 164.2 L168.05 148.2 Q168.05 144.8 172.55 145.9 M119.05 6.85 L119.3 8.15 Q119.3 9.0 109.65 21.25 99.5 34.1 98.05 39.65 L97.6 39.65 98.35 34.95 Q98.75 31.55 99.1 30.4 96.05 29.7 95.65 28.45 95.3 27.4 94.35 27.4 92.8 27.4 92.3 26.3 L92.1 25.05 Q92.1 24.3 96.15 17.4 L100.8 9.65 Q101.8 8.1 103.75 5.85 L107.35 1.8 Q110.0 -1.2 111.8 -0.3 113.5 0.6 112.1 3.55 L115.25 5.2 116.85 5.65 Q118.45 5.65 119.05 6.85 M88.3 10.95 Q88.2 12.1 87.55 13.4 87.55 14.05 88.2 14.65 88.8 15.25 88.8 15.85 88.8 17.15 81.55 25.1 L72.6 35.15 Q71.15 37.2 65.75 46.5 61.8 53.3 60.85 53.3 59.6 53.3 59.1 51.95 L58.85 50.4 Q58.85 45.95 68.95 32.05 L75.8 23.05 Q76.55 22.05 76.6 20.75 L76.55 18.55 77.05 16.2 77.55 14.05 75.8 11.5 Q74.05 9.25 74.05 7.45 74.05 5.05 75.45 4.15 76.9 3.2 78.35 5.15 L79.7 8.0 Q81.1 10.4 82.35 10.4 L83.65 9.55 Q84.85 8.65 85.85 8.65 88.5 8.65 88.3 10.95 M81.35 33.85 Q81.35 36.75 78.75 40.95 L73.55 48.3 Q69.45 53.9 66.2 62.55 64.6 66.8 61.25 79.7 58.4 90.55 57.95 90.55 55.75 90.55 55.2 88.3 L55.1 85.9 Q55.1 75.15 63.9 56.2 72.75 37.15 80.55 31.4 L81.05 32.45 81.35 33.85 M111.15 34.8 Q113.35 37.35 113.55 39.4 L113.6 40.75 114.6 40.15 118.95 37.7 Q122.85 36.1 122.85 39.1 122.85 41.7 114.2 45.75 L113.9 45.9 114.05 48.05 Q114.05 52.05 113.5 52.95 112.05 55.35 105.55 57.4 L106.15 58.25 106.35 59.45 Q106.35 61.2 104.55 62.1 100.95 63.95 98.8 65.8 93.75 69.9 93.05 72.15 L92.8 72.4 98.65 70.4 Q103.05 68.8 103.6 68.8 105.7 68.8 106.35 70.0 L106.6 71.3 106.5 72.15 Q109.7 72.05 112.4 69.55 114.45 67.65 115.35 65.55 116.55 62.75 117.05 61.9 118.3 59.75 119.85 58.9 123.45 56.95 127.7 62.95 131.3 68.15 131.3 70.55 131.3 72.5 129.2 75.55 L127.1 78.6 Q127.1 79.45 128.45 82.5 129.8 85.5 129.8 87.4 129.8 88.45 129.3 89.8 128.7 91.4 127.6 92.65 127.3 92.95 126.85 95.05 L126.55 96.4 Q127.4 96.6 127.7 97.45 L128.1 99.8 131.1 101.9 Q132.9 103.35 133.1 104.15 L133.1 104.3 130.95 102.7 128.1 100.55 Q128.1 101.55 127.55 102.8 126.9 104.3 126.05 104.3 L125.3 104.25 125.05 104.7 Q123.2 107.85 121.6 108.8 119.05 110.25 117.6 112.8 116.3 115.7 115.3 117.05 L118.05 114.3 Q118.8 113.65 121.6 113.65 125.55 113.65 126.3 115.05 126.8 115.95 126.8 118.8 129.4 119.75 130.05 121.8 L130.3 124.8 129.75 132.35 Q129.15 139.15 128.8 140.15 127.35 143.85 124.6 147.65 119.55 154.4 111.1 154.4 L111.0 154.4 113.1 156.15 Q119.85 161.95 119.85 162.95 119.85 164.1 119.05 164.65 118.5 165.05 117.9 165.05 114.75 165.05 108.1 158.9 103.75 154.85 100.9 151.15 98.3 149.25 96.15 146.3 94.15 143.6 92.8 140.4 91.85 138.05 91.8 137.15 L91.8 139.45 Q91.45 141.3 89.35 141.3 87.35 141.3 86.45 138.25 85.8 134.65 85.3 133.55 L82.1 126.05 82.35 127.05 82.55 128.55 82.3 130.05 Q82.55 130.4 81.3 130.4 79.75 130.4 77.4 116.2 L75.3 102.1 Q75.3 98.8 77.45 97.75 79.55 96.7 79.55 101.55 79.15 102.9 80.0 105.7 L81.35 109.8 Q82.85 114.55 87.55 126.3 L87.6 126.4 88.4 119.55 88.85 112.3 89.3 112.1 90.35 111.9 Q91.45 111.9 94.0 122.05 97.05 134.15 98.8 137.65 L99.5 139.0 101.2 140.9 Q106.05 146.4 111.6 146.4 116.8 146.4 120.35 141.85 122.15 139.5 123.05 136.8 L118.35 138.4 Q116.5 138.4 116.1 137.05 L116.05 135.55 Q116.05 133.25 119.05 128.65 L122.05 124.45 120.8 122.25 119.35 120.3 115.8 123.15 Q112.0 125.9 109.85 125.9 107.6 125.9 107.1 124.65 L107.05 123.2 Q107.05 120.5 111.2 113.75 114.75 107.85 117.1 105.4 L121.3 99.8 122.4 98.35 122.45 97.15 Q122.5 95.6 122.05 95.15 116.3 94.4 114.45 91.3 113.55 89.8 113.55 86.7 113.55 84.1 114.95 82.55 116.95 80.25 122.05 79.4 121.65 77.25 123.8 74.7 126.1 71.9 126.1 70.4 126.1 69.9 124.2 67.25 L122.1 64.4 Q121.1 65.05 119.95 67.55 L118.1 71.15 Q117.3 72.15 114.3 74.0 L114.3 74.05 Q114.3 76.45 110.05 81.15 106.1 85.55 105.05 85.55 102.5 85.55 102.15 83.95 L102.3 82.05 102.1 82.0 101.1 82.15 Q98.35 82.15 97.8 80.75 L97.8 79.2 Q97.8 78.35 98.25 77.75 L99.8 75.3 100.05 74.9 Q98.2 75.2 94.65 77.8 91.4 80.15 88.3 80.15 86.75 80.15 86.4 78.8 L86.35 77.3 Q86.35 74.0 90.1 69.05 93.85 64.05 98.8 60.8 L93.95 59.0 93.1 58.5 Q90.2 60.95 88.35 62.9 L77.05 75.3 74.1 78.4 71.45 81.3 70.2 84.3 Q69.1 86.65 67.85 86.65 66.65 86.65 66.1 84.9 L65.85 83.05 Q65.85 79.65 75.2 69.45 L86.6 57.9 Q92.8 51.95 103.55 45.55 L108.95 42.95 109.4 42.75 109.35 42.3 108.85 36.95 Q108.85 32.2 111.15 34.8 M101.1 53.85 Q109.8 52.25 109.8 47.65 104.25 50.1 103.05 50.9 L98.2 54.4 101.1 53.85 M108.95 76.55 L107.35 76.8 Q105.4 76.8 104.6 75.95 L104.05 76.55 104.05 76.8 Q105.1 76.55 106.2 76.8 L107.95 77.05 Q108.4 77.05 108.95 76.55 M92.45 135.6 L92.7 135.5 91.6 132.05 91.8 137.1 91.85 135.8 92.45 135.6 M120.8 168.15 Q121.55 168.15 122.5 165.15 123.4 162.15 125.35 162.15 127.85 162.15 128.3 165.9 128.55 168.0 128.3 172.05 129.15 168.55 129.55 168.6 L132.85 169.4 138.1 165.55 Q143.45 161.65 144.35 161.65 146.0 161.65 146.55 162.95 L146.8 164.35 Q146.8 166.05 143.65 168.55 140.0 171.4 139.35 172.8 L137.95 176.65 Q137.1 179.0 135.6 180.7 L137.6 181.25 140.55 181.95 140.3 180.75 140.05 179.05 Q140.05 178.2 140.55 177.55 141.15 176.7 142.35 176.7 143.65 176.7 144.55 177.9 L145.35 179.55 147.6 182.55 148.3 183.95 150.05 183.75 152.85 183.7 Q154.1 183.95 154.8 185.05 L155.3 186.35 Q155.3 187.2 153.2 189.8 L151.1 192.35 Q157.3 205.85 157.3 206.95 L157.0 209.0 Q156.75 210.35 156.8 210.95 156.85 211.8 156.05 212.9 155.1 214.3 153.6 214.2 L154.05 215.2 154.3 216.6 Q154.3 217.45 153.6 218.0 L152.35 218.45 Q148.75 218.45 145.2 210.65 L141.85 201.7 139.8 197.2 Q139.15 195.85 135.2 195.05 L130.3 193.8 Q127.95 192.2 126.7 189.7 125.5 187.25 126.05 185.55 L125.95 185.35 125.1 185.45 Q120.15 185.45 118.6 182.45 118.05 181.35 118.05 179.1 L118.6 176.15 119.35 173.05 Q107.8 169.0 100.4 162.55 93.3 156.3 93.3 150.85 93.3 148.75 94.45 148.15 95.9 147.4 98.1 150.55 L99.7 153.5 101.6 156.9 Q102.5 158.3 109.65 162.95 117.65 168.15 120.8 168.15 M127.55 175.05 Q125.15 174.7 124.0 176.4 123.1 177.65 123.1 179.45 L123.2 180.25 123.3 180.2 123.25 180.25 124.1 180.3 Q126.5 180.3 126.9 178.2 L127.55 175.05 M137.3 190.7 Q136.55 188.55 134.45 187.7 132.1 187.1 131.3 186.55 131.85 187.95 132.85 189.0 134.7 190.95 137.3 190.7" fill="#000000" fill-opacity="0.101960786" fill-rule="evenodd" stroke="none"/>
    </g>
    <linearGradient gradientTransform="matrix(0.094, 0.0, 0.0, 1.0, 119.7, -69.9)" gradientUnits="userSpaceOnUse" id="gradient3" spreadMethod="pad" x1="-819.2" x2="819.2">
      <stop offset="0.0" stop-color="#ebc29c"/>
      <stop offset="0.9882352941176471" stop-color="#cb7a2c"/>
    </linearGradient>
    <g id="sprite4" transform="matrix(1.0, 0.0, 0.0, 1.0, 0.0, 0.0)">
      <use ffdec:characterId="4068" height="115.85" transform="matrix(1.0, 0.0, 0.0, 1.0, 0.0, 0.0)" width="103.15" xlink:href="#shape5"/>
    </g>
    <g id="shape5" transform="matrix(1.0, 0.0, 0.0, 1.0, 0.0, 0.0)">
      <path d="M92.4 87.85 Q93.95 88.85 94.65 90.45 L95.5 93.3 Q95.75 94.3 95.8 96.4 L95.75 98.75 95.25 107.35 95.25 108.05 101.65 107.6 Q102.05 107.6 103.15 108.35 102.1 109.15 96.85 109.5 L95.05 109.55 94.55 111.6 93.05 115.8 92.65 115.85 Q92.4 115.75 92.4 115.1 L93.45 109.6 88.65 109.8 Q77.4 110.4 68.6 110.3 L53.5 110.1 Q43.65 110.6 35.9 110.6 L28.35 110.2 21.8 110.55 16.9 110.85 11.25 110.55 10.9 110.4 Q8.8 111.2 7.25 111.2 4.9 111.2 3.15 110.25 1.65 109.4 1.55 108.15 L1.15 109.6 0.25 109.7 Q0.15 109.75 0.15 109.15 L0.35 108.5 0.65 108.05 0.5 107.8 0.3 107.2 0.35 106.85 0.15 106.85 Q0.0 106.85 0.0 106.45 0.0 105.8 2.05 104.15 L2.25 104.0 3.7 102.9 8.9 99.05 13.35 95.25 Q15.4 93.55 17.35 92.2 L17.9 91.0 18.65 89.1 19.15 86.1 20.1 82.95 Q20.75 81.15 21.65 79.95 23.55 77.25 24.25 73.75 L25.0 67.55 Q25.3 65.1 27.3 61.3 29.7 56.7 30.15 55.3 L30.65 49.1 31.25 45.95 31.4 45.0 Q31.2 41.85 29.75 37.55 L26.55 28.3 Q25.3 23.95 25.3 19.1 L25.05 13.65 24.8 9.95 24.9 6.9 Q25.2 5.45 26.55 3.35 27.35 2.15 27.95 1.75 28.75 1.2 30.65 0.7 L33.1 0.0 34.4 0.85 35.4 1.45 36.4 2.2 Q41.65 6.9 45.55 15.55 48.1 21.15 50.35 28.9 L53.85 42.05 54.25 42.9 55.4 45.85 56.7 48.85 Q57.6 50.45 59.25 51.35 61.55 52.6 63.0 56.5 64.15 59.7 64.15 62.45 64.15 64.6 63.95 65.2 L63.35 66.2 63.95 73.6 64.5 83.0 78.15 83.95 Q85.0 84.7 87.95 85.6 89.9 86.2 92.4 87.85 M50.95 48.55 Q48.25 48.55 45.95 51.4 43.7 54.2 40.9 54.2 37.6 54.2 36.65 52.65 36.3 52.15 36.3 50.75 L36.8 46.95 Q36.8 45.55 35.8 44.2 34.8 42.85 33.15 42.3 L32.1 42.1 32.15 43.3 32.15 43.85 32.4 45.45 31.95 48.45 Q31.45 50.55 31.4 51.55 L31.3 54.5 Q31.3 56.3 30.9 57.35 L29.25 60.35 27.4 63.35 Q26.8 64.65 26.35 66.2 25.85 68.05 25.9 69.2 26.05 71.9 25.0 75.0 24.15 77.5 22.25 80.95 21.3 82.7 20.15 86.95 L19.65 89.95 Q19.3 91.5 18.2 92.45 15.2 95.8 10.45 99.45 L5.95 102.9 4.65 104.5 6.0 106.45 Q6.6 107.25 9.0 108.25 L11.1 108.95 12.65 108.35 17.4 107.6 21.25 107.7 Q22.7 107.7 22.95 105.0 L23.05 103.9 Q23.1 101.5 24.15 98.9 25.35 95.8 27.5 93.6 28.15 92.95 30.15 88.55 32.15 84.05 32.15 83.1 L30.7 80.6 Q29.25 78.45 29.25 77.95 29.25 76.9 30.6 75.95 31.15 75.55 31.75 75.3 31.9 74.55 34.35 73.6 36.65 72.65 35.9 71.3 35.9 70.1 36.25 68.85 L37.0 66.05 Q37.5 63.7 38.2 65.35 L38.9 67.95 39.5 70.6 39.85 72.3 41.1 71.3 43.25 69.95 Q44.3 69.25 46.1 68.55 47.85 67.8 49.05 67.7 48.45 66.9 48.05 65.0 L47.65 62.35 Q47.65 56.7 49.5 52.95 51.05 49.75 53.65 49.1 L50.95 48.55 M35.55 74.5 L35.5 74.55 35.65 74.7 35.55 74.5 M21.05 108.95 L17.7 108.6 Q15.6 108.6 13.4 109.4 L14.8 109.45 20.4 109.1 21.1 109.05 21.05 108.95 M2.9 107.8 Q2.9 110.1 6.65 110.1 L9.15 109.6 5.9 108.2 Q5.1 107.85 4.2 106.4 L3.65 105.7 Q2.9 106.9 2.9 107.8" fill="#000000" fill-rule="evenodd" stroke="none"/>
      <path d="M50.95 48.55 L53.65 49.1 Q51.05 49.75 49.5 52.95 47.65 56.7 47.65 62.35 L48.05 65.0 Q48.45 66.9 49.05 67.7 47.85 67.8 46.1 68.55 44.3 69.25 43.25 69.95 L41.1 71.3 39.85 72.3 39.5 70.6 38.9 67.95 38.2 65.35 Q37.5 63.7 37.0 66.05 L36.25 68.85 Q35.9 70.1 35.9 71.3 36.65 72.65 34.35 73.6 31.9 74.55 31.75 75.3 31.15 75.55 30.6 75.95 29.25 76.9 29.25 77.95 29.25 78.45 30.7 80.6 L32.15 83.1 Q32.15 84.05 30.15 88.55 28.15 92.95 27.5 93.6 25.35 95.8 24.15 98.9 23.1 101.5 23.05 103.9 L22.95 105.0 Q22.7 107.7 21.25 107.7 L17.4 107.6 12.65 108.35 11.1 108.95 9.0 108.25 Q6.6 107.25 6.0 106.45 L4.65 104.5 5.95 102.9 10.45 99.45 Q15.2 95.8 18.2 92.45 19.3 91.5 19.65 89.95 L20.15 86.95 Q21.3 82.7 22.25 80.95 24.15 77.5 25.0 75.0 26.05 71.9 25.9 69.2 25.85 68.05 26.35 66.2 26.8 64.65 27.4 63.35 L29.25 60.35 30.9 57.35 Q31.3 56.3 31.3 54.5 L31.4 51.55 Q31.45 50.55 31.95 48.45 L32.4 45.45 32.15 43.85 32.15 43.3 32.1 42.1 33.15 42.3 Q34.8 42.85 35.8 44.2 36.8 45.55 36.8 46.95 L36.3 50.75 Q36.3 52.15 36.65 52.65 37.6 54.2 40.9 54.2 43.7 54.2 45.95 51.4 48.25 48.55 50.95 48.55" fill="url(#gradient4)" fill-rule="evenodd" stroke="none"/>
      <path d="M55.45 47.9 Q55.45 49.9 52.95 53.05 50.45 56.25 50.45 60.45 L50.95 63.3 51.45 66.1 Q51.45 68.55 47.25 69.7 43.05 70.8 43.05 73.6 43.05 76.6 41.7 76.6 39.3 76.6 38.9 74.85 L37.95 70.6 36.4 74.15 Q34.95 77.5 34.95 78.3 34.95 78.7 35.7 81.35 L36.45 84.3 Q36.45 86.25 35.0 86.75 32.9 87.45 31.7 89.6 L29.35 92.55 Q27.85 94.3 27.45 95.3 26.4 98.3 25.8 100.85 25.4 102.6 23.95 104.35 22.7 105.95 22.7 106.55 22.7 107.2 23.35 108.0 23.95 108.85 23.95 109.45 23.95 111.9 20.7 112.65 L16.95 113.1 12.35 115.05 Q10.3 115.85 9.3 115.85 7.25 115.85 6.3 113.35 L5.7 110.65 Q5.7 109.6 7.8 108.5 9.05 107.85 12.6 106.45 19.9 103.25 21.2 98.85 L23.2 92.1 Q23.6 90.85 25.9 88.45 28.05 86.25 28.05 85.8 L27.4 81.6 Q26.7 78.55 26.7 77.85 26.7 74.15 28.15 72.65 L33.05 69.1 35.55 64.95 Q37.65 61.35 38.8 61.35 40.8 61.35 41.3 63.55 41.6 64.7 41.55 66.35 44.7 65.2 45.45 63.7 L45.7 60.85 45.95 58.25 46.2 55.8 46.05 55.3 42.9 55.55 Q39.35 55.55 37.55 53.95 35.5 52.1 35.2 47.8 35.05 44.95 33.35 43.55 31.7 42.2 31.7 40.4 31.7 39.25 33.1 36.8 L34.95 33.1 Q36.7 27.35 38.7 26.45 L36.65 31.15 Q35.2 34.65 35.2 35.65 35.2 37.65 39.3 41.55 41.15 43.3 40.75 44.55 L39.95 46.9 Q39.95 48.1 40.5 49.05 41.3 50.55 43.05 50.55 45.6 50.55 47.65 47.2 49.75 43.8 51.8 43.8 54.55 43.8 55.3 45.8 55.65 46.8 55.45 47.9" fill="#000000" fill-opacity="0.101960786" fill-rule="evenodd" stroke="none"/>
    </g>
    <linearGradient gradientTransform="matrix(0.094, 0.0, 0.0, 1.0, 156.0, -289.35)" gradientUnits="userSpaceOnUse" id="gradient4" spreadMethod="pad" x1="-819.2" x2="819.2">
      <stop offset="0.0" stop-color="#ebc29c"/>
      <stop offset="0.9882352941176471" stop-color="#cb7a2c"/>
    </linearGradient>
    <g id="sprite5" transform="matrix(1.0, 0.0, 0.0, 1.0, 0.0, 0.0)">
      <use ffdec:characterId="3978" height="149.25" transform="matrix(1.0, 0.0, 0.0, 1.0, 0.0, 0.0)" width="124.2" xlink:href="#shape6"/>
    </g>
    <g id="shape6" transform="matrix(1.0, 0.0, 0.0, 1.0, 0.0, 0.0)">
      <path d="M124.2 149.25 L0.0 149.25 0.0 0.0 124.2 0.0 124.2 149.25" fill="url(#gradient5)" fill-rule="evenodd" stroke="none"/>
    </g>
    <linearGradient gradientTransform="matrix(1.0E-4, -0.0948, 0.091, 1.0E-4, 62.05, 74.65)" gradientUnits="userSpaceOnUse" id="gradient5" spreadMethod="pad" x1="-819.2" x2="819.2">
      <stop offset="0.0" stop-color="#eeb32b"/>
      <stop offset="1.0" stop-color="#282828"/>
    </linearGradient>
    <g id="sprite6" transform="matrix(1.0, 0.0, 0.0, 1.0, 265.1, 150.0)">
      <use ffdec:characterId="3477" height="300.0" transform="matrix(1.0, 0.0, 0.0, 1.0, -265.1, -150.0)" width="533.0" xlink:href="#shape7"/>
    </g>
    <g id="shape7" transform="matrix(1.0, 0.0, 0.0, 1.0, 265.1, 150.0)">
      <path d="M267.9 -150.0 L267.9 150.0 -265.1 150.0 -265.1 -150.0 267.9 -150.0 Z" fill="none" stroke="#ff0000" stroke-linecap="round" stroke-linejoin="round" stroke-width="0.05"/>
      <path d="M1.4 -16.05 L1.45 -16.05 Q9.35 -16.05 14.95 -11.35 20.55 -6.65 20.55 0.0 L39.5 0.0 M20.55 0.0 Q20.55 6.65 14.95 11.35 9.35 16.05 1.45 16.05 L1.4 16.05 1.4 21.45 M-36.65 0.0 L-17.55 0.0 -17.55 -0.05 Q-17.55 -6.65 -11.95 -11.35 -6.4 -16.05 1.4 -16.05 M1.4 16.05 Q-6.4 16.05 -11.95 11.35 -17.55 6.65 -17.55 0.0" fill="none" stroke="#ff0000" stroke-linecap="round" stroke-linejoin="round" stroke-opacity="0.2509804" stroke-width="0.05"/>
      <path d="M1.4 -16.05 L1.4 -21.4" fill="none" stroke="#ff0000" stroke-linecap="round" stroke-linejoin="round" stroke-opacity="0.2509804" stroke-width="1.0"/>
      <path d="M181.15 141.4 L181.15 123.6 191.05 123.6 191.05 141.4 181.15 141.4" fill="#ffffff" fill-rule="evenodd" stroke="none"/>
      <path d="M250.55 123.6 L260.45 123.6 260.45 141.4 260.35 141.4 250.55 141.4 250.55 123.6" fill="#000000" fill-rule="evenodd" stroke="none"/>
      <path d="M230.7 123.6 L240.6 123.6 240.6 141.4 230.7 141.4 230.7 123.6" fill="#ff0000" fill-rule="evenodd" stroke="none"/>
      <path d="M191.05 123.6 L201.0 123.6 201.0 141.4 191.05 141.4 191.05 123.6" fill="#ffff00" fill-rule="evenodd" stroke="none"/>
      <path d="M201.0 123.6 L210.9 123.6 210.9 141.4 201.0 141.4 201.0 123.6" fill="#00ffff" fill-rule="evenodd" stroke="none"/>
      <path d="M210.9 123.6 L220.8 123.6 220.8 141.4 210.9 141.4 210.9 123.6" fill="#00ff00" fill-rule="evenodd" stroke="none"/>
      <path d="M220.8 123.6 L230.7 123.6 230.7 141.4 220.8 141.4 220.8 123.6" fill="#ff00ff" fill-rule="evenodd" stroke="none"/>
      <path d="M240.6 123.6 L250.55 123.6 250.55 141.4 240.6 141.4 240.6 123.6" fill="#0000ff" fill-rule="evenodd" stroke="none"/>
      <path d="M260.35 141.4 L260.35 145.4 181.1 145.4 181.1 141.4 181.15 141.4 191.05 141.4 201.0 141.4 210.9 141.4 220.8 141.4 230.7 141.4 240.6 141.4 250.55 141.4 260.35 141.4" fill="url(#gradient6)" fill-rule="evenodd" stroke="none"/>
    </g>
    <linearGradient gradientTransform="matrix(0.0484, 0.0, 0.0, 0.0024, 220.7, 143.35)" gradientUnits="userSpaceOnUse" id="gradient6" spreadMethod="pad" x1="-819.2" x2="819.2">
      <stop offset="0.0" stop-color="#ffffff"/>
      <stop offset="1.0" stop-color="#000000"/>
    </linearGradient>
  </defs>
</svg>
