<?xml version="1.0" encoding="UTF-8" standalone="no"?>
<svg xmlns:ffdec="https://www.free-decompiler.com/flash" xmlns:xlink="http://www.w3.org/1999/xlink" ffdec:objectType="frame" height="2021.0px" width="4592.9px" xmlns="http://www.w3.org/2000/svg">
  <g transform="matrix(2.0, 0.0, 0.0, 2.0, 2126.0, 970.4)">
    <use ffdec:characterId="4120" height="457.0" transform="matrix(1.0, 0.0, 0.0, 1.0, -400.5, -292.1)" width="996.85" xlink:href="#shape0"/>
    <use ffdec:characterId="4134" height="212.2" transform="matrix(1.0, 0.0, 0.0, 1.0, -43.95, -155.35)" width="211.25" xlink:href="#sprite0"/>
    <use ffdec:characterId="4132" height="207.2" transform="matrix(1.0, 0.0, 0.0, 1.0, -326.0, 54.2)" width="866.65" xlink:href="#sprite1"/>
    <use ffdec:characterId="4130" height="359.6" transform="matrix(1.375, 0.0, 0.0, 1.375, -359.55, -294.5)" width="640.0" xlink:href="#sprite2"/>
    <filter id="filter0">
      <feConvolveMatrix divisor="64.0" in="SourceGraphic" kernelMatrix="1 1 1 1 1 1 1 1 1 1 1 1 1 1 1 1 1 1 1 1 1 1 1 1 1 1 1 1 1 1 1 1 1 1 1 1 1 1 1 1 1 1 1 1 1 1 1 1 1 1 1 1 1 1 1 1 1 1 1 1 1 1 1 1" order="8 8" result="filterResult0"/>
      <feConvolveMatrix divisor="64.0" in="filterResult0" kernelMatrix="1 1 1 1 1 1 1 1 1 1 1 1 1 1 1 1 1 1 1 1 1 1 1 1 1 1 1 1 1 1 1 1 1 1 1 1 1 1 1 1 1 1 1 1 1 1 1 1 1 1 1 1 1 1 1 1 1 1 1 1 1 1 1 1" order="8 8" result="filterResult1"/>
    </filter>
    <use ffdec:characterId="4128" filter="url(#filter0)" height="381.5" transform="matrix(1.3395, 0.0, 0.0, 1.3395, -467.1, -303.8941)" width="295.0" xlink:href="#sprite4"/>
    <filter id="filter1">
      <feConvolveMatrix divisor="64.0" in="SourceGraphic" kernelMatrix="1 1 1 1 1 1 1 1 1 1 1 1 1 1 1 1 1 1 1 1 1 1 1 1 1 1 1 1 1 1 1 1 1 1 1 1 1 1 1 1 1 1 1 1 1 1 1 1 1 1 1 1 1 1 1 1 1 1 1 1 1 1 1 1" order="8 8" result="filterResult2"/>
      <feConvolveMatrix divisor="64.0" in="filterResult2" kernelMatrix="1 1 1 1 1 1 1 1 1 1 1 1 1 1 1 1 1 1 1 1 1 1 1 1 1 1 1 1 1 1 1 1 1 1 1 1 1 1 1 1 1 1 1 1 1 1 1 1 1 1 1 1 1 1 1 1 1 1 1 1 1 1 1 1" order="8 8" result="filterResult3"/>
    </filter>
    <use ffdec:characterId="4126" filter="url(#filter1)" height="428.7" transform="matrix(1.3249, 0.0, 0.0, 1.3249, 256.6171, -324.632)" width="205.15" xlink:href="#sprite5"/>
    <use ffdec:characterId="4124" height="379.05" transform="matrix(1.3772, 0.0, 0.0, 1.3772, -382.4, -318.05)" width="657.35" xlink:href="#sprite6"/>
    <use ffdec:characterId="4041" height="300.0" transform="matrix(1.5046, 0.0, 0.0, 1.5046, -346.3297, -272.9958)" width="533.0" xlink:href="#sprite7"/>
  </g>
  <defs>
    <g id="shape0" transform="matrix(1.0, 0.0, 0.0, 1.0, 400.5, 292.1)">
      <path d="M595.85 -291.6 L595.85 164.4 -400.0 164.4 -400.0 -291.6 595.85 -291.6" fill="#000000" fill-rule="evenodd" stroke="none"/>
      <path d="M595.85 -291.6 L595.85 164.4 -400.0 164.4 -400.0 -291.6 595.85 -291.6 Z" fill="none" stroke="#ff0000" stroke-linecap="round" stroke-linejoin="round" stroke-width="1.0"/>
    </g>
    <g id="sprite0" transform="matrix(1.0, 0.0, 0.0, 1.0, 0.0, 0.05)">
      <use ffdec:characterId="4133" height="212.2" transform="matrix(1.0, 0.0, 0.0, 1.0, 0.0, -0.05)" width="211.25" xlink:href="#shape1"/>
    </g>
    <g id="shape1" transform="matrix(1.0, 0.0, 0.0, 1.0, 0.0, 0.05)">
      <path d="M124.15 109.05 L125.95 110.35 126.8 110.95 Q130.05 113.15 131.9 115.2 L133.6 117.45 134.5 118.55 134.35 118.6 134.2 118.8 134.15 119.2 135.7 120.9 137.55 122.85 Q138.1 123.35 139.9 124.5 141.45 125.4 141.95 126.2 144.3 129.4 150.15 133.6 156.35 138.4 158.7 140.7 L162.65 144.45 164.75 146.25 167.05 148.2 Q170.0 151.3 176.95 155.2 L186.95 160.85 Q191.0 163.5 195.3 167.95 L198.9 171.95 200.5 173.7 200.45 173.9 205.15 179.85 207.7 183.7 207.45 184.2 Q207.9 184.7 208.2 185.55 L208.5 185.15 Q209.8 187.85 209.8 189.7 209.8 193.95 205.45 199.9 201.9 204.65 197.1 206.8 L194.9 207.55 Q193.9 208.2 192.75 208.2 191.85 208.2 191.65 207.8 L188.75 208.35 188.2 208.45 187.8 208.4 186.95 206.55 Q186.45 205.7 186.45 204.45 L186.45 202.85 Q186.75 201.35 188.1 201.35 L193.75 201.4 Q194.1 201.4 194.1 200.65 L191.4 196.35 Q188.6 192.05 188.2 190.95 L186.7 186.05 Q185.65 183.05 184.4 181.2 L180.8 176.2 Q178.45 173.25 176.0 171.45 173.35 169.5 170.1 166.2 L166.05 162.2 162.55 158.45 149.9 146.05 137.9 134.55 Q130.65 127.6 128.0 123.2 L125.95 119.55 124.7 117.55 124.15 116.85 124.15 109.05 M163.85 76.4 Q169.95 80.35 174.55 85.1 184.15 95.0 187.2 100.1 190.7 105.8 194.8 115.1 196.15 118.05 196.45 122.65 L197.05 130.1 197.35 130.1 197.15 131.8 197.05 132.45 Q197.0 133.55 196.05 134.75 L195.65 134.35 195.1 134.05 187.75 127.75 Q182.9 123.5 181.45 120.7 L179.6 117.05 Q178.6 114.9 178.25 113.55 177.45 110.2 177.35 106.45 L177.3 102.7 Q177.1 100.6 176.35 99.3 L174.45 95.6 Q173.25 93.5 171.45 92.2 L166.35 88.4 Q163.15 86.2 160.0 85.1 156.0 83.7 151.0 82.7 L141.55 83.2 139.1 83.75 Q142.55 80.25 147.95 76.4 L148.1 76.5 Q149.0 75.25 151.95 73.4 L152.1 73.35 151.85 73.3 153.95 72.2 Q157.3 72.2 163.85 76.4 M194.45 165.3 L194.8 165.3 202.9 163.7 203.35 163.6 205.55 168.8 Q208.4 175.8 208.4 179.85 L208.3 181.3 208.1 180.95 204.45 176.35 Q202.75 174.3 201.6 173.6 200.05 170.75 196.5 167.25 L194.45 165.3 M205.1 192.65 L204.95 192.8 205.05 192.95 205.1 192.65 M124.15 209.6 L124.15 171.2 125.95 169.3 127.1 167.85 Q129.65 164.6 130.9 161.7 131.9 159.1 132.4 158.45 L134.4 155.95 Q141.15 168.7 148.25 179.0 148.9 181.75 152.95 185.85 L152.85 186.2 153.15 187.6 153.45 189.0 Q153.45 193.15 151.85 199.95 150.2 206.75 150.2 208.4 L149.95 209.3 149.85 209.7 125.95 209.6 124.15 209.6" fill="url(#gradient0)" fill-rule="evenodd" stroke="none"/>
      <path d="M186.05 96.3 Q192.05 103.95 195.0 112.05 L196.45 116.0 197.35 119.95 197.85 126.75 197.9 126.7 197.9 130.85 197.9 134.3 Q197.1 136.0 196.1 136.95 L196.75 142.7 198.45 147.05 Q199.35 147.3 199.8 147.95 L201.85 150.55 Q202.75 151.75 204.25 155.45 205.95 159.6 205.95 161.25 L205.8 162.55 204.85 163.15 206.75 167.5 Q209.7 174.45 209.7 179.65 L209.45 183.3 209.45 183.35 210.2 185.2 Q211.25 187.9 211.25 189.7 211.25 191.8 209.6 195.45 208.1 198.7 206.55 200.7 203.9 204.0 201.5 205.8 197.8 208.5 192.35 209.8 L190.85 209.8 189.15 209.75 186.15 209.95 Q182.6 209.95 179.95 206.9 L179.8 207.2 179.8 207.3 Q179.55 205.9 176.65 203.4 173.8 201.0 171.6 200.1 170.65 199.75 169.25 198.8 L166.65 197.2 164.05 195.35 161.9 193.45 Q157.55 190.15 154.55 187.4 L154.7 188.95 154.15 194.75 153.25 199.95 152.3 205.45 151.15 209.7 151.2 209.7 Q151.35 209.85 151.45 209.8 L151.5 210.2 Q151.5 210.85 151.3 210.7 L150.65 210.7 150.5 211.05 149.75 211.05 149.75 210.7 56.0 210.7 55.5 210.95 55.05 210.8 Q54.9 210.75 54.9 210.35 L54.9 209.8 55.05 209.8 55.2 208.9 55.5 207.2 55.5 204.45 55.7 201.65 56.05 198.8 Q56.65 194.85 56.6 192.95 56.55 191.5 56.65 190.35 L56.05 190.95 49.65 196.65 43.25 202.05 39.5 204.4 Q36.9 205.8 36.15 206.55 L34.7 207.95 33.45 209.35 32.5 210.8 Q31.55 211.95 30.65 211.95 L24.25 212.15 22.05 211.9 22.0 211.95 21.4 212.05 21.0 211.95 20.0 212.05 Q14.7 212.05 9.4 206.2 7.7 204.4 4.2 199.1 2.5 196.55 1.3 192.3 0.0 188.1 0.0 185.0 0.0 181.1 4.25 176.95 L5.6 172.45 7.15 165.5 6.6 165.35 Q5.5 165.0 5.5 163.85 5.5 162.6 6.25 159.8 L6.9 155.95 Q7.35 153.35 8.85 151.2 9.85 149.7 10.85 149.25 L12.5 142.3 Q11.6 141.4 10.75 140.0 L9.65 137.3 9.4 135.35 Q9.1 133.3 9.75 132.55 L10.1 132.7 9.85 125.9 Q9.8 124.15 10.2 121.9 L11.15 117.85 Q13.0 109.55 17.95 101.4 23.35 92.2 30.15 84.45 34.1 80.05 38.85 76.9 40.6 75.8 44.2 73.8 45.9 73.2 48.15 74.15 50.4 75.0 50.5 76.0 L50.55 76.2 51.7 76.95 52.5 77.35 53.05 77.65 59.7 76.3 Q63.75 75.55 69.0 73.0 73.1 71.0 76.2 70.55 L76.4 70.55 76.2 70.2 76.25 70.2 76.2 70.1 74.65 66.7 Q73.85 64.8 73.55 63.6 L72.7 58.7 Q72.2 55.55 71.55 53.85 L69.75 49.35 Q68.4 45.9 68.4 44.3 L68.45 44.0 Q65.9 35.25 65.9 28.75 65.9 25.05 66.85 20.75 67.8 16.45 69.4 13.05 70.35 11.1 73.25 8.45 75.5 6.35 76.9 5.55 L81.0 2.7 Q84.0 1.35 93.65 0.2 96.2 -0.25 100.35 0.2 104.3 0.6 106.4 1.35 L110.25 3.2 Q115.6 6.25 116.8 7.2 121.85 11.0 124.4 17.1 127.1 23.7 128.1 27.0 129.6 31.9 129.85 35.7 L130.15 36.9 129.9 39.1 129.65 42.2 129.75 44.8 129.65 47.45 129.05 50.05 128.15 52.7 Q127.75 53.5 127.3 55.2 126.85 56.45 125.9 57.25 L124.7 64.15 124.25 66.7 124.3 66.7 124.15 67.15 124.15 67.25 124.7 67.45 125.95 67.85 128.85 68.35 136.5 70.05 Q139.9 70.8 142.1 71.85 L145.9 73.85 148.15 74.95 149.25 74.15 149.25 74.1 Q150.1 73.9 150.8 73.4 L152.95 71.85 Q153.9 71.35 154.8 71.3 L155.8 71.3 161.5 73.8 Q166.75 76.5 171.35 80.55 179.35 87.6 186.05 96.3 M163.85 76.4 Q157.3 72.2 153.95 72.2 L151.85 73.3 152.1 73.35 151.95 73.4 Q149.0 75.25 148.1 76.5 L147.95 76.4 Q142.55 80.25 139.1 83.75 L141.55 83.2 151.0 82.7 Q156.0 83.7 160.0 85.1 163.15 86.2 166.35 88.4 L171.45 92.2 Q173.25 93.5 174.45 95.6 L176.35 99.3 Q177.1 100.6 177.3 102.7 L177.35 106.45 Q177.45 110.2 178.25 113.55 178.6 114.9 179.6 117.05 L181.45 120.7 Q182.9 123.5 187.75 127.75 L195.1 134.05 195.65 134.35 196.05 134.75 Q197.0 133.55 197.05 132.45 L197.15 131.8 197.35 130.1 197.05 130.1 196.45 122.65 Q196.15 118.05 194.8 115.1 190.7 105.8 187.2 100.1 184.15 95.0 174.55 85.1 169.95 80.35 163.85 76.4 M124.15 116.85 L124.7 117.55 125.95 119.55 128.0 123.2 Q130.65 127.6 137.9 134.55 L149.9 146.05 162.55 158.45 166.05 162.2 170.1 166.2 Q173.35 169.5 176.0 171.45 178.45 173.25 180.8 176.2 L184.4 181.2 Q185.65 183.05 186.7 186.05 L188.2 190.95 Q188.6 192.05 191.4 196.35 L194.1 200.65 Q194.1 201.4 193.75 201.4 L188.1 201.35 Q186.75 201.35 186.45 202.85 L186.45 204.45 Q186.45 205.7 186.95 206.55 L187.8 208.4 188.2 208.45 188.75 208.35 191.65 207.8 Q191.85 208.2 192.75 208.2 193.9 208.2 194.9 207.55 L197.1 206.8 Q201.9 204.65 205.45 199.9 209.8 193.95 209.8 189.7 209.8 187.85 208.5 185.15 L208.2 185.55 Q207.9 184.7 207.45 184.2 L207.7 183.7 205.15 179.85 200.45 173.9 200.5 173.7 198.9 171.95 195.3 167.95 Q191.0 163.5 186.95 160.85 L176.95 155.2 Q170.0 151.3 167.05 148.2 L164.75 146.25 162.65 144.45 158.7 140.7 Q156.35 138.4 150.15 133.6 144.3 129.4 141.95 126.2 141.45 125.4 139.9 124.5 138.1 123.35 137.55 122.85 L135.7 120.9 134.15 119.2 134.2 118.8 134.35 118.6 134.5 118.55 133.6 117.45 131.9 115.2 Q130.05 113.15 126.8 110.95 L125.95 110.35 124.15 109.05 122.15 107.05 118.8 102.95 Q116.25 99.75 113.05 94.55 L109.3 88.5 Q108.15 87.85 106.9 86.0 105.5 83.9 103.4 83.55 L98.7 82.55 97.9 82.35 97.15 82.35 97.15 82.1 95.9 81.7 93.2 80.6 91.5 79.95 91.0 80.0 Q89.9 80.65 89.8 81.1 90.7 81.85 94.0 83.3 L98.4 85.3 Q99.75 86.0 101.65 87.6 103.5 89.25 104.25 90.35 105.5 92.2 106.85 95.95 L109.05 101.8 110.35 104.75 Q111.35 106.75 112.4 107.6 L115.85 110.0 119.65 112.2 Q122.2 113.8 124.15 116.85 M194.45 165.3 L196.5 167.25 Q200.05 170.75 201.6 173.6 202.75 174.3 204.45 176.35 L208.1 180.95 208.3 181.3 208.4 179.85 Q208.4 175.8 205.55 168.8 L203.35 163.6 202.9 163.7 194.8 165.3 194.45 165.3 M205.1 192.65 L205.05 192.95 204.95 192.8 205.1 192.65 M128.65 46.2 L128.65 44.2 Q128.05 44.45 127.9 44.95 L127.65 46.3 127.25 48.95 Q127.05 49.85 125.25 51.55 L122.65 53.7 Q121.9 52.3 121.7 50.25 121.6 49.05 121.65 46.6 L121.9 39.7 117.85 39.55 Q118.6 39.05 118.0 39.05 L115.65 40.7 Q115.2 40.7 114.5 39.9 L113.65 38.85 111.4 43.2 110.65 43.1 Q110.5 41.5 108.9 36.55 L108.8 36.55 108.8 36.95 109.4 44.8 Q109.4 48.45 108.3 52.55 107.05 57.2 105.0 59.55 L105.0 59.7 Q106.75 59.0 108.3 58.85 L111.9 58.45 Q114.3 58.45 114.3 60.75 114.3 62.4 113.45 63.95 112.1 66.55 109.3 65.95 109.85 66.7 111.15 67.1 113.15 67.7 113.8 68.05 112.65 73.7 111.45 75.75 109.85 78.45 106.65 78.45 104.5 78.45 104.25 74.95 L104.4 70.95 104.65 69.25 Q104.5 68.55 102.4 67.7 L100.25 66.35 98.55 65.1 98.2 73.6 98.2 74.05 97.95 80.2 97.95 81.05 101.1 81.95 101.6 81.4 102.05 81.05 Q103.15 80.45 105.5 80.45 L105.55 80.45 Q107.85 80.5 110.05 82.85 L112.15 85.7 114.75 80.9 117.65 75.95 120.65 70.85 121.8 68.05 Q122.4 66.75 123.1 66.5 L123.4 65.05 124.0 60.45 Q124.3 58.7 124.9 57.5 L124.8 57.1 127.4 51.7 128.2 49.0 128.65 46.2 M76.4 151.8 L79.9 144.05 Q83.35 136.1 85.25 132.6 87.7 128.25 88.15 126.95 88.3 126.45 88.95 125.6 L89.75 124.2 Q90.7 121.55 91.25 121.6 L91.35 121.65 92.65 118.7 Q94.6 114.3 95.15 111.95 96.25 108.1 96.95 100.85 L96.4 100.95 95.15 97.4 Q94.15 94.9 94.15 93.85 94.15 93.45 94.3 93.3 L94.65 93.2 Q95.4 94.15 95.9 95.7 L96.8 98.2 96.9 98.2 Q96.9 95.05 97.3 93.35 L98.0 93.3 Q98.1 95.85 97.8 97.45 L97.8 98.55 98.35 98.4 99.25 97.75 100.9 96.7 Q100.2 94.35 98.15 91.0 95.0 85.95 92.15 85.95 L89.8 86.2 91.95 89.95 Q93.15 91.85 93.15 93.65 93.15 95.55 91.4 96.9 89.65 98.25 89.65 101.25 89.65 103.3 90.8 105.75 L91.9 108.35 Q91.9 108.75 89.55 109.05 87.15 109.3 87.15 111.25 87.15 112.45 88.85 114.65 L91.15 117.95 91.05 118.25 90.5 118.45 89.15 117.65 Q88.2 116.8 86.2 116.8 84.45 116.8 82.55 120.55 80.95 123.75 80.65 126.1 L79.75 128.4 78.75 130.95 Q78.3 133.7 77.25 135.7 L76.4 137.4 74.9 140.4 72.7 145.2 70.0 150.0 Q68.0 153.25 67.25 154.8 65.15 159.05 63.45 164.4 L60.85 173.95 58.3 183.45 56.15 188.35 55.9 189.25 55.95 189.2 57.35 187.65 57.45 187.45 57.5 187.5 Q61.35 183.05 64.5 177.95 68.25 172.1 70.15 166.7 72.75 159.35 76.4 151.8 M32.8 86.95 Q34.6 84.75 40.1 79.95 44.85 75.95 47.0 75.15 L45.9 74.65 Q42.65 74.95 36.85 79.7 31.5 84.15 27.65 89.3 L27.5 89.55 28.7 88.4 27.65 89.95 25.1 93.55 19.9 100.85 Q19.45 101.45 18.05 104.4 L17.25 106.15 18.05 103.65 17.25 105.25 Q14.55 111.25 11.65 120.85 10.7 123.9 10.95 128.5 L11.25 135.95 11.0 136.0 11.4 137.65 Q11.5 138.55 12.55 140.1 L12.55 140.15 Q12.8 141.05 13.8 141.2 L13.15 139.7 12.3 136.05 Q11.5 132.95 11.5 132.1 L11.55 129.1 Q11.55 125.8 12.25 121.75 12.95 117.1 14.1 115.05 L17.65 108.1 Q19.8 103.9 21.9 100.95 24.65 97.1 32.8 86.95 M73.05 57.45 L74.4 62.95 Q74.75 64.3 75.75 66.45 L77.3 69.55 76.9 68.2 Q76.6 67.6 76.45 66.3 L76.15 62.95 Q75.65 56.8 73.75 52.7 L73.65 52.7 Q73.45 55.6 73.05 57.45 M44.2 143.45 Q39.5 141.5 34.5 140.45 L31.35 140.45 31.5 146.5 31.45 149.0 Q34.1 149.5 35.6 150.15 37.45 150.9 39.6 152.3 L43.3 149.05 47.15 145.05 47.35 144.9 44.2 143.45 M14.15 141.75 L14.0 141.5 14.0 141.6 14.05 141.65 14.15 141.75 M94.25 144.6 Q95.6 145.45 96.0 146.95 L96.15 149.2 Q96.15 150.4 95.55 151.7 L95.5 151.85 Q96.8 151.5 97.5 150.65 98.05 149.95 98.05 149.1 98.05 148.0 97.1 146.4 95.85 144.4 94.15 144.55 L94.25 144.6 M94.25 169.6 Q95.6 170.45 96.0 171.95 L96.15 174.2 Q96.15 175.4 95.55 176.7 L95.5 176.85 Q96.8 176.5 97.5 175.65 98.05 174.95 98.05 174.1 98.05 173.0 97.1 171.4 95.85 169.4 94.15 169.55 L94.25 169.6 M94.25 194.6 Q95.6 195.45 96.0 196.95 L96.15 199.2 Q96.15 200.4 95.55 201.7 L95.5 201.85 Q96.8 201.5 97.5 200.65 98.05 199.95 98.05 199.1 98.05 198.0 97.1 196.4 95.85 194.4 94.15 194.55 L94.25 194.6 M124.15 171.2 Q122.65 172.8 120.9 173.45 118.3 174.35 117.65 175.95 117.4 176.6 117.4 178.8 117.4 179.85 118.15 183.7 118.15 185.3 115.0 186.2 111.8 187.1 111.8 187.7 111.8 188.8 114.2 193.0 L116.55 197.35 Q116.55 199.05 114.9 199.8 L112.55 200.55 Q110.6 201.15 110.25 201.55 110.55 202.3 113.1 203.35 115.5 204.4 115.5 205.0 115.5 206.2 113.4 207.5 L110.4 209.2 110.55 209.35 110.65 209.6 124.15 209.6 125.95 209.6 149.85 209.7 149.95 209.3 150.2 208.4 Q150.2 206.75 151.85 199.95 153.45 193.15 153.45 189.0 L153.15 187.6 152.85 186.2 152.95 185.85 Q148.9 181.75 148.25 179.0 141.15 168.7 134.4 155.95 L132.4 158.45 Q131.9 159.1 130.9 161.7 129.65 164.6 127.1 167.85 L125.95 169.3 124.15 171.2" fill="#000000" fill-rule="evenodd" stroke="none"/>
      <path d="M124.15 109.05 L124.15 116.85 Q122.2 113.8 119.65 112.2 L115.85 110.0 112.4 107.6 Q111.35 106.75 110.35 104.75 L109.05 101.8 106.85 95.95 Q105.5 92.2 104.25 90.35 103.5 89.25 101.65 87.6 99.75 86.0 98.4 85.3 L94.0 83.3 Q90.7 81.85 89.8 81.1 89.9 80.65 91.0 80.0 L91.5 79.95 93.2 80.6 95.9 81.7 97.15 82.1 97.15 82.35 97.9 82.35 98.7 82.55 103.4 83.55 Q105.5 83.9 106.9 86.0 108.15 87.85 109.3 88.5 L113.05 94.55 Q116.25 99.75 118.8 102.95 L122.15 107.05 124.15 109.05 M76.4 137.4 L77.25 135.7 Q78.3 133.7 78.75 130.95 L79.75 128.4 80.65 126.1 Q80.95 123.75 82.55 120.55 84.45 116.8 86.2 116.8 88.2 116.8 89.15 117.65 L90.5 118.45 91.05 118.25 91.15 117.95 88.85 114.65 Q87.15 112.45 87.15 111.25 87.15 109.3 89.55 109.05 91.9 108.75 91.9 108.35 L90.8 105.75 Q89.65 103.3 89.65 101.25 89.65 98.25 91.4 96.9 93.15 95.55 93.15 93.65 93.15 91.85 91.95 89.95 L89.8 86.2 92.15 85.95 Q95.0 85.95 98.15 91.0 100.2 94.35 100.9 96.7 L99.25 97.75 98.35 98.4 97.8 98.55 97.8 97.45 Q98.1 95.85 98.0 93.3 L97.3 93.35 Q96.9 95.05 96.9 98.2 L96.8 98.2 95.9 95.7 Q95.4 94.15 94.65 93.2 L94.3 93.3 Q94.15 93.45 94.15 93.85 94.15 94.9 95.15 97.4 L96.4 100.95 96.95 100.85 Q96.25 108.1 95.15 111.95 94.6 114.3 92.65 118.7 L91.35 121.65 91.25 121.6 Q90.7 121.55 89.75 124.2 L88.95 125.6 Q88.3 126.45 88.15 126.95 87.7 128.25 85.25 132.6 83.35 136.1 79.9 144.05 L76.4 151.8 76.4 137.4 M128.65 46.2 L128.2 49.0 127.4 51.7 124.8 57.1 124.9 57.5 Q124.3 58.7 124.0 60.45 L123.4 65.05 123.1 66.5 Q122.4 66.75 121.8 68.05 L120.65 70.85 117.65 75.95 114.75 80.9 112.15 85.7 110.05 82.85 Q107.85 80.5 105.55 80.45 L105.5 80.45 Q103.15 80.45 102.05 81.05 L101.6 81.4 101.1 81.95 97.95 81.05 97.95 80.2 98.2 74.05 98.2 73.6 98.55 65.1 100.25 66.35 102.4 67.7 Q104.5 68.55 104.65 69.25 L104.4 70.95 104.25 74.95 Q104.5 78.45 106.65 78.45 109.85 78.45 111.45 75.75 112.65 73.7 113.8 68.05 113.15 67.7 111.15 67.1 109.85 66.7 109.3 65.95 112.1 66.55 113.45 63.95 114.3 62.4 114.3 60.75 114.3 58.45 111.9 58.45 L108.3 58.85 Q106.75 59.0 105.0 59.7 L105.0 59.55 Q107.05 57.2 108.3 52.55 109.4 48.45 109.4 44.8 L108.8 36.95 108.8 36.55 108.9 36.55 Q110.5 41.5 110.65 43.1 L111.4 43.2 113.65 38.85 114.5 39.9 Q115.2 40.7 115.65 40.7 L118.0 39.05 Q118.6 39.05 117.85 39.55 L121.9 39.7 121.65 46.6 Q121.6 49.05 121.7 50.25 121.9 52.3 122.65 53.7 L125.25 51.55 Q127.05 49.85 127.25 48.95 L127.65 46.3 127.9 44.95 Q128.05 44.45 128.65 44.2 L128.65 46.2 M73.05 57.45 Q73.45 55.6 73.65 52.7 L73.75 52.7 Q75.65 56.8 76.15 62.95 L76.45 66.3 Q76.6 67.6 76.9 68.2 L77.3 69.55 75.75 66.45 Q74.75 64.3 74.4 62.95 L73.05 57.45 M124.15 209.6 L110.65 209.6 110.55 209.35 110.4 209.2 113.4 207.5 Q115.5 206.2 115.5 205.0 115.5 204.4 113.1 203.35 110.55 202.3 110.25 201.55 110.6 201.15 112.55 200.55 L114.9 199.8 Q116.55 199.05 116.55 197.35 L114.2 193.0 Q111.8 188.8 111.8 187.7 111.8 187.1 115.0 186.2 118.15 185.3 118.15 183.7 117.4 179.85 117.4 178.8 117.4 176.6 117.65 175.95 118.3 174.35 120.9 173.45 122.65 172.8 124.15 171.2 L124.15 209.6 M94.25 194.6 L94.15 194.55 Q95.85 194.4 97.1 196.4 98.05 198.0 98.05 199.1 98.05 199.95 97.5 200.65 96.8 201.5 95.5 201.85 L95.55 201.7 Q96.15 200.4 96.15 199.2 L96.0 196.95 Q95.6 195.45 94.25 194.6 M94.25 169.6 L94.15 169.55 Q95.85 169.4 97.1 171.4 98.05 173.0 98.05 174.1 98.05 174.95 97.5 175.65 96.8 176.5 95.5 176.85 L95.55 176.7 Q96.15 175.4 96.15 174.2 L96.0 171.95 Q95.6 170.45 94.25 169.6 M94.25 144.6 L94.15 144.55 Q95.85 144.4 97.1 146.4 98.05 148.0 98.05 149.1 98.05 149.95 97.5 150.65 96.8 151.5 95.5 151.85 L95.55 151.7 Q96.15 150.4 96.15 149.2 L96.0 146.95 Q95.6 145.45 94.25 144.6" fill="url(#gradient1)" fill-rule="evenodd" stroke="none"/>
      <path d="M76.4 137.4 L76.4 151.8 Q72.75 159.35 70.15 166.7 68.25 172.1 64.5 177.95 61.35 183.05 57.5 187.5 L57.45 187.45 57.35 187.65 55.95 189.2 55.9 189.25 56.15 188.35 58.3 183.45 60.85 173.95 63.45 164.4 Q65.15 159.05 67.25 154.8 68.0 153.25 70.0 150.0 L72.7 145.2 74.9 140.4 76.4 137.4 M32.8 86.95 Q24.65 97.1 21.9 100.95 19.8 103.9 17.65 108.1 L14.1 115.05 Q12.95 117.1 12.25 121.75 11.55 125.8 11.55 129.1 L11.5 132.1 Q11.5 132.95 12.3 136.05 L13.15 139.7 13.8 141.2 Q12.8 141.05 12.55 140.15 L12.55 140.1 Q11.5 138.55 11.4 137.65 L11.0 136.0 11.25 135.95 10.95 128.5 Q10.7 123.9 11.65 120.85 14.55 111.25 17.25 105.25 L18.05 103.65 17.25 106.15 18.05 104.4 Q19.45 101.45 19.9 100.85 L25.1 93.55 27.65 89.95 28.7 88.4 27.5 89.55 27.65 89.3 Q31.5 84.15 36.85 79.7 42.65 74.95 45.9 74.65 L47.0 75.15 Q44.85 75.95 40.1 79.95 34.6 84.75 32.8 86.95 M44.2 143.45 L47.35 144.9 47.15 145.05 43.3 149.05 39.6 152.3 Q37.45 150.9 35.6 150.15 34.1 149.5 31.45 149.0 L31.5 146.5 31.35 140.45 34.5 140.45 Q39.5 141.5 44.2 143.45" fill="url(#gradient2)" fill-rule="evenodd" stroke="none"/>
      <path d="M167.0 91.3 Q160.85 84.95 156.45 84.95 L152.25 85.25 146.45 85.9 Q145.6 86.05 144.45 87.0 L142.95 87.9 Q140.85 87.9 139.95 86.15 L139.5 84.65 Q139.5 82.15 142.5 80.15 145.5 78.1 150.1 77.5 161.5 76.0 170.75 83.65 179.75 90.75 182.7 101.2 183.15 102.9 183.7 109.95 184.15 115.75 185.75 118.9 187.6 122.55 192.65 128.25 195.95 131.95 195.95 136.15 195.95 142.1 191.2 143.2 L190.3 141.55 Q189.55 140.15 189.45 139.45 L188.95 137.6 188.45 135.7 Q188.25 134.6 185.55 132.1 182.5 129.25 181.95 128.2 176.8 119.3 176.0 113.2 L175.25 105.7 Q174.6 100.95 172.7 98.2 170.45 94.85 167.0 91.3 M164.4 168.65 Q157.35 162.05 148.55 152.65 140.1 143.65 137.2 139.7 135.25 137.15 133.15 133.1 L131.8 130.45 Q126.25 123.7 124.7 122.2 L126.2 121.65 Q121.55 116.0 114.25 110.9 110.7 108.4 109.3 104.1 L107.45 96.6 Q106.2 92.2 103.15 89.6 100.25 87.15 95.05 85.55 95.75 86.6 96.2 88.15 L96.95 92.9 97.25 96.7 Q97.25 107.35 89.95 119.65 L83.05 130.75 Q78.75 137.85 76.05 143.95 71.7 153.6 67.75 167.65 L66.2 173.3 64.1 179.65 Q62.75 183.1 60.4 186.65 57.4 191.15 55.4 191.15 52.35 191.15 51.3 190.15 50.75 189.65 50.75 188.75 50.75 187.95 52.0 187.6 53.65 187.1 54.1 186.65 54.85 185.9 55.4 183.65 55.75 182.45 56.85 180.65 L58.35 177.95 60.2 172.05 61.7 166.4 64.95 155.0 Q66.95 147.8 69.3 143.15 76.75 128.45 81.8 119.9 L85.35 114.0 Q87.6 110.1 88.15 108.2 90.75 99.65 90.75 97.0 90.75 95.2 89.55 91.05 L88.35 86.9 Q88.35 84.35 90.7 83.8 L90.7 83.75 Q90.7 81.3 95.45 82.05 L97.5 82.5 97.2 72.6 96.95 65.9 Q96.95 58.65 99.7 58.65 100.35 58.65 101.05 59.2 L101.95 59.95 Q101.95 58.35 103.45 56.2 105.15 53.75 105.5 52.45 L106.35 48.4 106.75 45.0 106.1 43.3 105.45 41.75 Q105.45 40.25 107.0 36.3 108.45 32.45 109.45 31.15 110.45 29.75 112.4 29.35 114.7 28.9 115.75 30.95 116.35 33.0 115.45 36.15 121.25 35.5 123.4 36.65 124.7 37.35 124.7 38.9 L124.45 40.05 Q124.25 40.7 124.5 41.15 L125.0 42.1 125.25 43.4 Q125.25 44.4 124.5 45.65 123.45 47.45 121.5 47.45 L117.9 47.15 113.7 46.45 112.55 50.95 111.75 55.15 113.85 57.8 Q115.95 60.35 115.95 62.65 115.95 68.65 113.45 73.45 110.55 78.9 105.95 78.9 104.6 78.9 103.35 77.2 L101.75 74.65 101.5 80.1 Q101.15 82.85 100.0 83.15 L102.95 83.95 Q106.0 85.15 108.5 87.45 110.8 89.5 111.85 91.65 113.2 94.4 114.15 99.95 115.6 104.75 120.45 107.4 131.15 113.3 135.85 122.95 L139.3 130.8 140.65 133.45 141.15 133.95 148.8 141.45 157.05 150.15 Q169.05 163.7 171.75 167.4 L171.9 167.65 174.85 169.9 Q180.65 174.25 187.35 184.95 L190.7 190.85 183.05 190.85 Q180.95 187.2 178.15 183.5 L178.0 183.25 177.95 183.45 177.6 183.7 176.6 183.9 168.65 173.2 167.1 171.25 164.4 168.65 M107.45 72.95 L107.75 71.2 107.1 71.1 106.5 71.15 106.7 72.95 107.45 72.95 M75.25 41.15 Q76.3 38.45 77.2 37.9 77.95 38.95 77.95 40.5 77.95 43.25 79.1 54.05 L80.25 64.75 79.95 67.4 Q79.5 69.45 78.75 69.45 76.4 69.45 75.6 64.55 L74.95 57.4 74.4 50.55 74.2 45.5 Q74.2 43.8 75.25 41.15 M37.45 138.85 L35.5 147.95 Q35.1 149.6 34.65 157.8 33.55 165.2 29.7 165.2 27.5 165.2 26.7 163.7 26.2 162.75 26.2 160.75 26.2 155.65 26.95 151.0 L28.95 140.15 Q28.95 134.55 29.5 129.95 30.05 124.55 34.55 125.25 36.3 125.5 37.6 126.8 38.95 128.2 38.95 130.0 L37.45 138.85 M112.7 178.2 Q117.1 168.95 118.1 167.35 118.85 166.2 120.05 165.95 L124.0 165.7 Q124.7 165.7 127.8 160.3 131.1 154.6 132.45 153.95 135.65 152.35 140.7 158.15 L142.8 161.5 142.95 164.5 Q142.95 167.35 142.35 168.95 141.35 171.45 138.45 173.45 L135.25 174.65 Q132.7 175.75 132.75 177.45 L133.1 179.7 133.45 181.95 133.65 186.55 Q133.5 189.25 131.75 190.95 129.0 193.6 125.4 195.55 123.95 196.35 123.95 198.9 123.95 199.75 124.7 203.55 125.45 207.35 125.45 208.5 L125.45 209.85 109.0 209.85 109.45 204.9 Q109.7 202.6 109.4 197.9 L109.0 192.8 Q109.0 191.2 110.25 189.5 111.1 188.35 110.0 185.4 111.7 180.0 112.7 178.2 M185.2 208.35 L185.2 191.9 Q187.95 197.75 187.95 201.3 187.95 206.2 185.2 208.35" fill="#000000" fill-opacity="0.101960786" fill-rule="evenodd" stroke="none"/>
    </g>
    <linearGradient gradientTransform="matrix(-0.1311, -5.0E-4, 2.0E-4, -0.0328, 100.3, 60.2)" gradientUnits="userSpaceOnUse" id="gradient0" spreadMethod="pad" x1="-819.2" x2="819.2">
      <stop offset="0.0" stop-color="#dd9a00"/>
      <stop offset="1.0" stop-color="#aa3300"/>
    </linearGradient>
    <linearGradient gradientTransform="matrix(-0.1115, -5.0E-4, 2.0E-4, -0.0328, 103.85, 60.2)" gradientUnits="userSpaceOnUse" id="gradient1" spreadMethod="pad" x1="-819.2" x2="819.2">
      <stop offset="0.0" stop-color="#dd9a00"/>
      <stop offset="1.0" stop-color="#aa3300"/>
    </linearGradient>
    <linearGradient gradientTransform="matrix(-0.126, -5.0E-4, 2.0E-4, -0.0328, 107.4, 60.2)" gradientUnits="userSpaceOnUse" id="gradient2" spreadMethod="pad" x1="-819.2" x2="819.2">
      <stop offset="0.0" stop-color="#dd9a00"/>
      <stop offset="1.0" stop-color="#aa3300"/>
    </linearGradient>
    <g id="sprite1" transform="matrix(1.0, 0.0, 0.0, 1.0, 79.95, 0.25)">
      <use ffdec:characterId="4131" height="207.2" transform="matrix(1.0, 0.0, 0.0, 1.0, -79.95, -0.25)" width="866.65" xlink:href="#shape2"/>
    </g>
    <g id="shape2" transform="matrix(1.0, 0.0, 0.0, 1.0, 79.95, 0.25)">
      <path d="M402.25 0.05 Q439.6 0.1 449.75 0.25 L450.9 0.25 483.5 0.0 650.95 0.1 650.95 67.8 Q650.1 71.15 669.45 90.05 688.75 108.9 758.1 166.2 827.4 223.5 728.9 200.25 630.35 176.95 621.4 165.6 612.45 154.2 574.95 155.9 537.45 157.6 501.65 151.5 465.85 145.4 438.45 159.35 411.05 173.25 399.45 173.95 387.8 174.6 382.55 160.85 377.25 147.05 378.7 147.8 361.85 136.9 361.25 143.5 360.7 150.05 357.35 145.75 353.95 141.45 351.45 142.4 348.9 143.35 338.15 159.95 327.4 176.5 319.8 163.45 312.2 150.35 266.6 150.95 220.95 151.5 206.2 144.7 191.45 137.85 135.7 150.55 79.9 163.2 70.4 145.05 60.85 126.85 26.25 146.0 -2.95 155.2 -7.85 143.1 -12.75 130.95 -79.95 132.6 L0.0 0.6 182.0 0.7 184.75 0.7 238.25 0.6 238.75 0.6 244.85 0.45 261.3 0.2 Q261.85 0.65 263.3 0.9 L263.2 1.0 Q259.85 1.1 259.55 1.7 259.55 3.65 260.7 5.1 L261.8 6.7 261.5 8.35 261.0 9.95 260.4 11.65 Q260.05 12.65 260.05 13.45 260.05 14.7 260.5 15.2 260.7 16.15 261.35 16.6 L262.0 16.95 260.0 21.05 Q260.0 21.7 260.55 22.15 261.05 22.65 261.05 23.25 261.05 23.9 260.55 24.55 260.0 25.25 260.0 25.85 260.0 26.8 261.2 28.7 L261.4 29.05 262.0 30.35 262.5 31.25 262.55 31.4 262.55 31.5 262.35 33.15 262.05 34.5 Q262.05 35.1 262.4 36.0 L262.55 36.4 262.45 38.45 262.25 38.65 Q261.75 39.2 261.75 39.8 261.75 40.25 262.25 41.15 L261.75 48.95 261.8 51.65 Q262.6 54.25 266.3 54.25 267.05 54.25 269.05 51.35 271.0 48.45 271.75 48.45 L273.45 48.85 276.25 49.25 Q276.25 50.45 276.85 51.4 277.95 53.2 280.8 53.2 L282.95 52.0 Q285.05 50.75 285.65 50.75 286.3 50.75 287.75 51.25 L289.8 51.7 290.95 51.25 291.75 50.75 294.3 51.0 297.15 49.65 Q299.45 48.5 299.8 48.5 L301.55 49.65 Q303.35 50.75 305.4 50.75 309.5 50.75 311.75 48.7 L313.0 47.2 313.55 47.75 320.15 48.35 326.75 48.2 326.5 48.5 325.65 49.25 Q325.3 49.6 325.3 50.35 L325.5 51.2 Q326.0 52.0 327.55 52.0 333.05 52.0 337.3 49.95 L340.25 48.1 342.25 48.2 346.5 48.45 364.55 47.45 365.6 46.5 Q365.9 46.2 367.25 45.5 L367.8 45.25 368.5 44.75 374.45 44.35 380.0 44.05 Q381.2 45.55 382.7 44.2 384.3 42.8 385.5 45.2 386.5 47.2 391.4 48.35 L397.0 49.2 Q397.8 49.2 398.5 48.55 399.25 47.8 399.25 46.8 398.75 44.8 397.55 44.45 L400.3 41.0 402.8 39.1 Q404.05 38.2 404.05 37.45 404.05 35.2 402.9 32.55 401.75 29.85 401.75 28.8 L402.65 27.4 Q403.5 26.2 403.5 25.45 L402.65 23.8 401.75 21.95 Q401.75 21.55 403.8 20.05 405.8 18.55 405.8 17.2 L405.5 14.8 405.05 12.2 Q404.75 9.95 402.6 8.3 L400.55 6.5 400.45 4.8 Q400.3 3.9 399.75 3.2 L401.5 1.2 402.25 0.05 M345.45 0.0 L370.85 0.05 370.6 0.1 Q368.5 0.9 368.5 2.45 L368.15 4.7 367.75 6.95 Q367.75 7.6 368.25 7.95 368.75 8.35 368.75 8.95 368.75 9.4 366.15 12.4 363.5 15.45 363.5 17.45 363.5 19.2 362.5 20.95 361.3 22.95 361.0 24.95 L356.05 28.7 355.7 29.3 354.3 30.5 353.0 31.7 352.8 32.75 Q352.8 33.15 354.05 34.7 L355.3 36.55 355.05 37.8 354.75 38.45 350.45 38.7 344.8 38.95 344.75 37.95 344.5 37.5 Q347.3 37.35 348.5 35.95 349.3 35.05 349.3 33.8 348.85 28.85 348.0 28.0 351.3 27.4 351.3 24.85 L351.15 22.95 Q351.05 21.8 351.25 21.2 351.85 19.4 352.95 19.85 354.25 20.35 355.0 19.25 L355.55 18.5 355.75 17.35 355.3 15.7 354.8 14.45 Q355.05 13.05 354.65 12.55 353.95 11.8 349.5 11.45 L349.75 11.2 350.85 10.1 351.05 8.85 Q351.05 8.25 350.55 7.8 350.05 7.35 350.05 6.7 350.05 6.1 350.55 4.8 L351.05 2.85 Q351.05 1.15 348.3 0.65 L345.45 0.0 M223.7 43.6 L224.1 43.55 230.8 42.75 230.55 43.2 Q229.95 43.8 228.75 44.0 L226.05 44.5 226.3 45.75 230.05 45.9 232.0 46.25 Q240.75 45.35 242.65 44.45 L244.05 44.7 Q246.7 45.15 246.8 45.7 247.05 46.9 247.75 47.45 L249.75 48.0 Q251.4 48.3 252.25 49.0 L253.1 50.2 Q253.9 51.2 255.0 51.2 257.15 51.2 258.55 49.95 259.8 48.85 259.8 47.6 259.8 45.1 257.5 41.7 254.7 37.55 251.55 38.95 251.45 37.45 249.85 36.2 L248.0 35.2 248.7 34.4 Q249.0 34.0 249.0 33.2 249.0 32.5 248.55 32.15 249.5 30.9 249.5 30.3 249.5 29.95 248.8 29.1 L247.5 27.75 247.8 27.4 Q249.8 26.8 249.8 24.85 L249.35 23.35 248.8 22.25 Q248.7 21.5 247.25 20.4 L245.55 19.25 Q246.15 18.95 246.6 18.0 247.0 17.15 247.0 16.45 L245.3 14.0 Q244.9 13.45 244.8 12.6 L244.55 11.45 243.6 10.55 Q242.9 9.85 243.0 8.75 243.15 6.8 242.45 6.2 L241.75 5.75 Q242.85 4.1 242.95 3.25 243.1 1.75 238.3 1.2 L234.3 0.65 223.7 0.65 223.8 0.7 Q224.3 1.05 224.3 1.75 L222.3 3.7 Q220.3 5.45 220.3 7.45 220.3 8.1 220.8 8.4 221.25 8.7 221.25 9.3 221.25 10.4 220.2 11.1 L218.75 11.75 Q217.25 12.55 217.25 14.7 L210.85 15.85 Q208.5 16.6 208.5 18.45 208.5 20.25 210.4 20.6 L216.75 20.2 216.55 20.75 Q210.75 21.7 210.75 24.3 210.75 26.1 214.1 29.55 216.55 32.1 218.25 33.25 216.15 34.55 215.5 35.7 L215.05 37.2 214.3 39.4 Q213.8 40.7 213.8 41.45 L214.25 42.75 Q215.35 44.0 218.75 44.0 L219.15 44.0 Q217.75 45.25 217.75 46.95 217.75 47.7 218.0 47.7 L219.0 47.7 Q219.5 46.8 221.95 45.1 L223.7 43.6" fill="#1a1a1a" fill-rule="evenodd" stroke="none"/>
      <path d="M261.3 0.2 L265.7 0.15 266.25 0.35 Q268.25 1.15 268.25 2.45 268.25 3.25 267.95 3.35 L267.0 3.45 Q269.25 3.75 269.3 4.45 L268.9 4.85 Q268.5 5.2 268.5 5.95 268.5 6.75 268.2 6.95 L267.5 7.2 268.45 7.9 Q269.0 8.3 269.0 8.95 269.0 10.85 267.4 13.85 265.8 16.85 265.8 17.95 L266.4 22.15 267.0 26.3 Q267.0 27.55 266.35 28.7 265.7 29.8 265.8 32.2 L265.55 33.55 265.3 35.2 265.55 36.2 265.75 37.55 Q265.75 38.2 265.15 38.8 264.5 39.4 264.5 40.0 264.5 40.4 265.4 41.95 L266.25 43.55 Q266.25 44.45 265.35 46.4 264.4 48.55 263.5 48.95 L262.7 48.8 262.5 47.85 Q262.5 47.25 263.15 45.8 263.75 44.4 263.75 43.75 L262.75 41.95 262.25 41.15 Q261.75 40.25 261.75 39.8 261.75 39.2 262.25 38.65 L262.45 38.45 262.75 37.5 262.55 36.4 262.4 36.0 Q262.05 35.1 262.05 34.5 L262.35 33.15 262.55 31.5 262.55 31.4 262.5 31.25 262.2 30.45 261.4 29.0 261.4 29.05 261.2 28.7 Q260.0 26.8 260.0 25.85 260.0 25.25 260.55 24.55 261.05 23.9 261.05 23.25 261.05 22.65 260.55 22.15 260.0 21.7 260.0 21.05 L262.0 16.95 261.35 16.6 Q260.7 16.15 260.5 15.2 260.05 14.7 260.05 13.45 260.05 12.65 260.4 11.65 L261.0 9.95 261.5 8.35 261.8 6.7 260.7 5.1 Q259.55 3.65 259.55 1.7 259.85 1.1 263.2 1.0 L263.75 0.95 263.3 0.9 Q261.85 0.65 261.3 0.2 M312.55 0.0 L345.4 0.0 345.45 0.0 348.3 0.65 Q351.05 1.15 351.05 2.85 L350.55 4.8 Q350.05 6.1 350.05 6.7 350.05 7.35 350.55 7.8 351.05 8.25 351.05 8.85 L350.85 10.1 349.75 11.2 349.5 11.45 Q353.95 11.8 354.65 12.55 355.05 13.05 354.8 14.45 L355.3 15.7 355.75 17.35 355.55 18.5 355.0 19.25 Q354.25 20.35 352.95 19.85 351.85 19.4 351.25 21.2 351.05 21.8 351.15 22.95 L351.3 24.85 Q351.3 27.4 348.0 28.0 348.85 28.85 349.3 33.8 349.3 35.05 348.5 35.95 347.3 37.35 344.5 37.5 L344.75 37.95 344.8 38.95 344.8 39.0 Q344.8 40.45 344.05 41.25 342.85 42.55 339.5 43.2 341.3 43.6 341.3 45.95 341.3 47.05 340.25 48.1 L337.3 49.95 Q333.05 52.0 327.55 52.0 326.0 52.0 325.5 51.2 L325.3 50.35 Q325.3 49.6 325.65 49.25 L326.5 48.5 326.75 48.2 320.15 48.35 313.55 47.75 313.0 47.2 Q312.55 46.6 312.5 45.5 L312.5 45.2 Q312.5 44.6 313.0 43.85 313.5 43.15 313.5 42.5 L312.85 42.0 Q312.15 41.7 312.0 40.25 L312.05 38.5 Q309.55 37.6 308.85 36.6 308.5 36.1 308.5 34.85 308.5 33.9 309.6 33.25 311.7 32.0 313.3 30.45 313.15 29.8 313.45 28.35 L313.75 26.25 Q313.35 22.2 313.5 20.25 L312.4 17.3 Q311.6 15.15 312.8 14.45 309.05 13.7 309.05 11.3 309.05 10.5 310.15 9.85 311.7 8.9 312.8 7.0 311.95 6.5 310.85 5.05 309.75 3.6 309.75 2.95 309.75 2.2 311.4 1.0 L312.55 0.0 M377.55 0.05 L379.0 0.05 381.0 0.05 398.5 0.05 400.5 0.05 402.25 0.05 401.5 1.2 399.75 3.2 Q400.3 3.9 400.45 4.8 L400.55 6.5 402.6 8.3 Q404.75 9.95 405.05 12.2 L405.5 14.8 405.8 17.2 Q405.8 18.55 403.8 20.05 401.75 21.55 401.75 21.95 L402.65 23.8 403.5 25.45 Q403.5 26.2 402.65 27.4 L401.75 28.8 Q401.75 29.85 402.9 32.55 404.05 35.2 404.05 37.45 404.05 38.2 402.8 39.1 L400.3 41.0 397.55 44.45 Q398.75 44.8 399.25 46.8 399.25 47.8 398.5 48.55 397.8 49.2 397.0 49.2 L391.4 48.35 Q386.5 47.2 385.5 45.2 384.3 42.8 382.7 44.2 381.2 45.55 380.0 44.05 L379.75 43.7 379.3 43.1 379.0 42.5 Q378.9 42.05 378.95 41.45 L379.0 40.05 Q379.0 39.45 378.4 38.65 377.8 37.9 377.8 37.25 377.8 36.65 378.3 36.05 378.8 35.45 378.8 34.8 378.8 34.1 378.3 33.45 377.8 32.75 377.8 32.45 L378.15 31.8 378.5 30.5 377.35 30.0 Q376.2 29.55 376.3 27.2 L376.05 25.95 375.8 24.3 Q375.8 23.1 377.45 21.3 L379.05 19.25 Q379.05 18.65 378.55 18.05 378.0 17.45 378.0 16.8 378.0 14.4 380.75 13.75 L379.85 12.4 Q379.3 11.55 379.3 10.75 379.3 7.85 380.75 4.0 377.5 3.35 377.5 1.0 L377.55 0.05 M297.35 4.0 Q299.05 3.6 301.55 5.75 L301.0 7.0 Q300.55 7.95 300.0 7.95 L296.0 7.45 295.9 7.25 295.8 6.45 Q295.8 4.35 297.35 4.0 M296.5 19.5 L297.65 19.45 299.55 19.75 299.5 20.45 298.65 20.5 Q295.9 20.5 296.15 20.15 L296.5 19.5 M299.3 38.45 L296.25 37.95 296.85 37.15 299.55 37.7 299.65 37.45 299.75 38.1 299.3 38.45 M223.7 43.6 L221.95 45.1 Q219.5 46.8 219.0 47.7 L218.0 47.7 Q217.75 47.7 217.75 46.95 217.75 45.25 219.15 44.0 L219.75 43.5 219.05 43.3 Q218.5 43.0 218.5 42.2 218.5 41.5 218.95 41.35 L221.0 40.25 220.05 39.7 Q220.6 38.9 221.0 38.75 L224.05 38.5 224.2 38.65 224.3 39.55 Q224.55 40.95 223.0 41.25 L223.55 41.6 Q224.05 42.0 224.05 42.75 L224.05 42.85 224.0 43.1 223.85 43.4 223.7 43.6 M244.8 29.2 L244.55 30.25 244.0 31.2 Q243.0 32.2 240.5 32.2 239.15 30.85 238.3 30.7 L234.15 30.0 233.95 30.0 233.1 29.9 232.75 29.75 Q232.5 30.3 232.5 29.05 232.5 28.25 233.2 27.65 234.0 26.95 234.25 25.5 L234.25 25.45 Q234.35 24.5 235.05 23.5 235.85 22.5 238.55 22.25 L235.5 21.6 234.75 21.5 234.9 21.3 235.0 21.2 239.1 21.3 242.85 22.45 243.25 22.75 Q244.8 24.15 244.8 28.45 L244.8 28.95 244.8 29.2" fill="url(#gradient3)" fill-rule="evenodd" stroke="none"/>
      <path d="M265.7 0.15 L285.5 0.0 312.55 0.0 311.4 1.0 Q309.75 2.2 309.75 2.95 309.75 3.6 310.85 5.05 311.95 6.5 312.8 7.0 311.7 8.9 310.15 9.85 309.05 10.5 309.05 11.3 309.05 13.7 312.8 14.45 311.6 15.15 312.4 17.3 L313.5 20.25 Q313.35 22.2 313.75 26.25 L313.45 28.35 Q313.15 29.8 313.3 30.45 311.7 32.0 309.6 33.25 308.5 33.9 308.5 34.85 308.5 36.1 308.85 36.6 309.55 37.6 312.05 38.5 L312.0 40.25 Q312.15 41.7 312.85 42.0 L313.5 42.5 Q313.5 43.15 313.0 43.85 312.5 44.6 312.5 45.2 L312.5 45.5 Q312.55 46.6 313.0 47.2 L311.75 48.7 Q309.5 50.75 305.4 50.75 303.35 50.75 301.55 49.65 L299.8 48.5 Q299.45 48.5 297.15 49.65 L294.3 51.0 291.75 50.75 290.95 51.25 289.8 51.7 287.75 51.25 Q286.3 50.75 285.65 50.75 285.05 50.75 282.95 52.0 L280.8 53.2 Q277.95 53.2 276.85 51.4 276.25 50.45 276.25 49.25 L273.45 48.85 271.75 48.45 Q271.0 48.45 269.05 51.35 267.05 54.25 266.3 54.25 262.6 54.25 261.8 51.65 L261.75 48.95 262.25 41.15 262.75 41.95 263.75 43.75 Q263.75 44.4 263.15 45.8 262.5 47.25 262.5 47.85 L262.7 48.8 263.5 48.95 Q264.4 48.55 265.35 46.4 266.25 44.45 266.25 43.55 L265.4 41.95 Q264.5 40.4 264.5 40.0 264.5 39.4 265.15 38.8 265.75 38.2 265.75 37.55 L265.55 36.2 265.3 35.2 265.55 33.55 265.8 32.2 Q265.7 29.8 266.35 28.7 267.0 27.55 267.0 26.3 L266.4 22.15 265.8 17.95 Q265.8 16.85 267.4 13.85 269.0 10.85 269.0 8.95 269.0 8.3 268.45 7.9 L267.5 7.2 268.2 6.95 Q268.5 6.75 268.5 5.95 268.5 5.2 268.9 4.85 L269.3 4.45 Q269.25 3.75 267.0 3.45 L267.95 3.35 Q268.25 3.25 268.25 2.45 268.25 1.15 266.25 0.35 L265.7 0.15 M370.85 0.05 L377.55 0.05 377.5 1.0 Q377.5 3.35 380.75 4.0 379.3 7.85 379.3 10.75 379.3 11.55 379.85 12.4 L380.75 13.75 Q378.0 14.4 378.0 16.8 378.0 17.45 378.55 18.05 379.05 18.65 379.05 19.25 L377.45 21.3 Q375.8 23.1 375.8 24.3 L376.05 25.95 376.3 27.2 Q376.2 29.55 377.35 30.0 L378.5 30.5 378.15 31.8 377.8 32.45 Q377.8 32.75 378.3 33.45 378.8 34.1 378.8 34.8 378.8 35.45 378.3 36.05 377.8 36.65 377.8 37.25 377.8 37.9 378.4 38.65 379.0 39.45 379.0 40.05 L378.95 41.45 Q378.9 42.05 379.0 42.5 L379.3 43.1 379.75 43.7 380.0 44.05 374.45 44.35 368.5 44.75 367.8 45.25 367.25 45.5 Q365.9 46.2 365.6 46.5 L364.55 47.45 346.5 48.45 342.25 48.2 340.25 48.1 Q341.3 47.05 341.3 45.95 341.3 43.6 339.5 43.2 342.85 42.55 344.05 41.25 344.8 40.45 344.8 39.0 L344.8 38.95 350.45 38.7 354.75 38.45 355.05 37.8 355.3 36.55 354.05 34.7 Q352.8 33.15 352.8 32.75 L353.0 31.7 354.3 30.5 355.7 29.3 356.05 28.7 361.0 24.95 Q361.3 22.95 362.5 20.95 363.5 19.2 363.5 17.45 363.5 15.45 366.15 12.4 368.75 9.4 368.75 8.95 368.75 8.35 368.25 7.95 367.75 7.6 367.75 6.95 L368.15 4.7 368.5 2.45 Q368.5 0.9 370.6 0.1 L370.85 0.05 M262.45 38.45 L262.55 36.4 262.75 37.5 262.45 38.45 M262.5 31.25 L262.0 30.35 261.4 29.05 261.4 29.0 262.2 30.45 262.5 31.25 M263.2 1.0 L263.3 0.9 263.75 0.95 263.2 1.0 M299.3 38.45 L299.75 38.1 299.65 37.45 299.55 37.7 296.85 37.15 296.25 37.95 299.3 38.45 M296.5 19.5 L296.15 20.15 Q295.9 20.5 298.65 20.5 L299.5 20.45 299.55 19.75 297.65 19.45 296.5 19.5 M297.35 4.0 Q295.8 4.35 295.8 6.45 L295.9 7.25 296.0 7.45 300.0 7.95 Q300.55 7.95 301.0 7.0 L301.55 5.75 Q299.05 3.6 297.35 4.0 M219.15 44.0 L218.75 44.0 Q215.35 44.0 214.25 42.75 L213.8 41.45 Q213.8 40.7 214.3 39.4 L215.05 37.2 215.5 35.7 Q216.15 34.55 218.25 33.25 216.55 32.1 214.1 29.55 210.75 26.1 210.75 24.3 210.75 21.7 216.55 20.75 L216.75 20.2 210.4 20.6 Q208.5 20.25 208.5 18.45 208.5 16.6 210.85 15.85 L217.25 14.7 Q217.25 12.55 218.75 11.75 L220.2 11.1 Q221.25 10.4 221.25 9.3 221.25 8.7 220.8 8.4 220.3 8.1 220.3 7.45 220.3 5.45 222.3 3.7 L224.3 1.75 Q224.3 1.05 223.8 0.7 L223.7 0.65 234.3 0.65 238.3 1.2 Q243.1 1.75 242.95 3.25 242.85 4.1 241.75 5.75 L242.45 6.2 Q243.15 6.8 243.0 8.75 242.9 9.85 243.6 10.55 L244.55 11.45 244.8 12.6 Q244.9 13.45 245.3 14.0 L247.0 16.45 Q247.0 17.15 246.6 18.0 246.15 18.95 245.55 19.25 L247.25 20.4 Q248.7 21.5 248.8 22.25 L249.35 23.35 249.8 24.85 Q249.8 26.8 247.8 27.4 L247.5 27.75 248.8 29.1 Q249.5 29.95 249.5 30.3 249.5 30.9 248.55 32.15 249.0 32.5 249.0 33.2 249.0 34.0 248.7 34.4 L248.0 35.2 249.85 36.2 Q251.45 37.45 251.55 38.95 254.7 37.55 257.5 41.7 259.8 45.1 259.8 47.6 259.8 48.85 258.55 49.95 257.15 51.2 255.0 51.2 253.9 51.2 253.1 50.2 L252.25 49.0 Q251.4 48.3 249.75 48.0 L247.75 47.45 Q247.05 46.9 246.8 45.7 246.7 45.15 244.05 44.7 L242.65 44.45 Q240.75 45.35 232.0 46.25 L230.05 45.9 226.3 45.75 226.05 44.5 228.75 44.0 Q229.95 43.8 230.55 43.2 L230.8 42.75 224.1 43.55 223.7 43.6 223.85 43.4 224.0 43.1 224.05 42.85 224.05 42.75 Q224.05 42.0 223.55 41.6 L223.0 41.25 Q224.55 40.95 224.3 39.55 L224.2 38.65 224.05 38.5 221.0 38.75 Q220.6 38.9 220.05 39.7 L221.0 40.25 218.95 41.35 Q218.5 41.5 218.5 42.2 218.5 43.0 219.05 43.3 L219.75 43.5 219.15 44.0 M244.8 29.2 L244.8 28.95 244.8 28.45 Q244.8 24.15 243.25 22.75 L242.85 22.45 239.1 21.3 235.0 21.2 234.9 21.3 234.75 21.5 235.5 21.6 238.55 22.25 Q235.85 22.5 235.05 23.5 234.35 24.5 234.25 25.45 L234.25 25.5 Q234.0 26.95 233.2 27.65 232.5 28.25 232.5 29.05 232.5 30.3 232.75 29.75 L233.1 29.9 233.95 30.0 234.15 30.0 238.3 30.7 Q239.15 30.85 240.5 32.2 243.0 32.2 244.0 31.2 L244.55 30.25 244.8 29.2" fill="#000000" fill-rule="evenodd" stroke="none"/>
      <path d="M265.95 -0.1 L285.75 -0.25 312.8 -0.25 345.65 -0.25 345.7 -0.25 371.1 -0.2 377.8 -0.2 379.25 -0.2 381.25 -0.2 398.75 -0.2 400.75 -0.2 402.5 -0.2 451.15 0.0 483.75 -0.25 651.2 -0.15 651.2 67.55 649.4 74.0 Q648.1 78.25 645.3 82.05 642.55 85.65 640.05 86.75 635.3 88.75 629.9 89.65 616.0 91.95 588.25 91.95 554.6 91.95 507.6 88.5 L428.05 81.5 398.75 78.6 381.25 76.95 376.95 76.55 374.8 84.0 Q372.6 90.35 371.3 92.25 L368.3 97.2 Q366.4 100.25 364.3 102.1 358.35 107.25 345.4 107.25 337.85 107.25 292.55 102.25 L238.25 95.7 Q215.45 92.2 166.2 92.35 110.4 92.45 89.75 90.7 70.85 89.1 49.5 84.75 29.95 81.55 18.75 78.65 8.75 76.1 0.25 72.35 L0.25 0.35 182.25 0.45 238.5 0.35 239.0 0.35 245.1 0.2 261.55 -0.05 265.95 -0.1" fill="url(#gradient4)" fill-rule="evenodd" stroke="none"/>
    </g>
    <linearGradient gradientTransform="matrix(-0.1115, -5.0E-4, 2.0E-4, -0.0328, 305.95, -149.55)" gradientUnits="userSpaceOnUse" id="gradient3" spreadMethod="pad" x1="-819.2" x2="819.2">
      <stop offset="0.0" stop-color="#dd9a00"/>
      <stop offset="1.0" stop-color="#aa3300"/>
    </linearGradient>
    <linearGradient gradientTransform="matrix(0.0, -0.0256, 0.0848, 0.0, 301.8, 21.15)" gradientUnits="userSpaceOnUse" id="gradient4" spreadMethod="pad" x1="-819.2" x2="819.2">
      <stop offset="0.0" stop-color="#1a1a1a"/>
      <stop offset="1.0" stop-color="#1a1a1a" stop-opacity="0.5019608"/>
    </linearGradient>
    <g id="sprite2" transform="matrix(1.0, 0.0, 0.0, 1.0, 0.0, 0.0)">
      <use ffdec:characterId="4129" height="359.6" style="mix-blend-mode: overlay" transform="matrix(1.0, 0.0, 0.0, 1.0, 0.0, 0.0)" width="640.0" xlink:href="#sprite3"/>
    </g>
    <g id="sprite3" transform="matrix(1.0, 0.0, 0.0, 1.0, 0.0, 0.0)">
      <use ffdec:characterId="3523" height="359.6" transform="matrix(1.0, 0.0, 0.0, 1.0, 0.0, 0.0)" width="640.0" xlink:href="#shape3"/>
    </g>
    <g id="shape3" transform="matrix(1.0, 0.0, 0.0, 1.0, 0.0, 0.0)">
      <path d="M0.0 0.0 L640.0 0.0 640.0 359.6 0.0 359.6 0.0 0.0" fill="url(#gradient5)" fill-rule="evenodd" stroke="none"/>
    </g>
    <linearGradient gradientTransform="matrix(-0.136, -0.2777, 0.1969, -0.0964, 320.0, 179.8)" gradientUnits="userSpaceOnUse" id="gradient5" spreadMethod="pad" x1="-819.2" x2="819.2">
      <stop offset="0.0" stop-color="#e6a000"/>
      <stop offset="1.0" stop-color="#2c006f"/>
    </linearGradient>
    <g id="sprite4" transform="matrix(1.0, 0.0, 0.0, 1.0, 0.0, -19.75)">
      <use ffdec:characterId="4127" height="381.5" transform="matrix(1.0, 0.0, 0.0, 1.0, 0.0, 19.75)" width="295.0" xlink:href="#shape4"/>
    </g>
    <g id="shape4" transform="matrix(1.0, 0.0, 0.0, 1.0, 0.0, -19.75)">
      <path d="M260.55 392.9 L250.75 392.5 Q242.45 392.5 202.9 396.9 163.3 401.25 148.0 401.25 106.55 401.25 83.0 398.15 54.0 394.4 36.8 384.5 18.05 373.75 9.15 353.6 0.0 332.7 0.0 298.75 0.0 266.6 5.9 227.15 10.35 197.35 19.5 155.9 22.75 141.2 30.7 120.75 34.0 112.25 45.75 84.65 50.95 72.35 54.1 66.35 59.55 56.0 66.25 48.65 71.0 43.45 75.1 39.95 79.0 36.6 87.25 30.65 95.45 24.75 108.85 24.95 L120.1 25.45 131.5 24.9 Q139.95 24.9 169.15 27.85 L185.55 29.75 185.5 27.15 Q185.5 24.1 186.3 22.05 187.8 18.15 191.5 20.9 L191.8 23.8 193.75 22.4 192.15 30.75 Q205.75 32.95 206.75 35.15 L206.45 36.7 Q206.05 37.65 204.5 37.65 L191.65 35.7 Q192.2 39.85 193.8 48.15 196.3 61.4 197.0 62.9 201.95 72.2 212.7 80.6 217.15 84.1 218.65 85.9 221.0 88.8 221.0 92.4 221.0 95.15 218.25 97.15 213.9 100.3 211.0 104.65 213.55 107.05 215.4 111.5 217.35 116.15 217.0 119.4 216.7 122.3 217.05 126.6 L218.0 134.4 219.6 141.55 Q220.85 146.6 221.0 149.4 221.6 158.55 226.4 159.35 L229.6 159.95 Q231.0 160.7 231.0 163.5 231.0 164.55 229.5 169.15 228.0 173.7 228.0 175.15 228.0 177.3 228.75 183.3 229.55 190.0 230.5 194.65 L232.8 204.45 Q234.0 209.65 234.0 213.0 234.0 217.4 231.25 221.85 228.5 226.35 228.5 226.9 228.5 228.55 238.15 238.4 247.75 248.3 247.75 252.4 247.75 253.05 246.25 256.15 L245.3 258.3 244.9 261.9 Q245.35 264.0 247.4 265.9 L253.25 270.35 Q261.75 276.7 261.75 285.15 261.75 288.3 260.4 291.2 259.0 294.1 259.0 296.4 259.0 296.85 263.4 301.85 267.75 307.9 267.75 313.4 267.75 314.65 266.75 318.45 265.75 322.25 265.75 323.5 265.75 325.4 267.25 328.35 268.75 331.35 268.75 334.4 268.75 335.65 267.65 340.05 266.5 344.4 266.5 345.65 266.5 353.4 272.35 372.75 L277.2 389.7 Q284.3 389.85 294.0 389.25 L294.15 389.6 295.0 390.5 292.6 393.05 Q289.05 395.25 281.5 395.25 L278.45 395.15 278.75 397.25 277.15 395.05 268.95 393.95 269.5 393.25 Q269.1 391.55 266.35 388.85 L269.0 389.15 274.15 389.6 Q270.45 381.75 267.05 368.75 262.25 350.3 262.25 341.15 262.25 339.9 263.25 337.8 264.25 335.65 264.25 334.4 264.25 332.5 262.25 328.7 L260.25 324.65 Q260.25 322.8 261.75 319.05 263.25 315.3 263.25 313.4 263.25 312.15 261.95 308.45 260.75 305.15 260.25 304.4 L257.2 301.75 257.25 302.65 256.75 312.75 256.25 320.25 Q256.25 321.5 257.25 327.0 258.25 332.5 258.25 333.75 L257.2 350.75 256.35 349.9 Q255.9 353.55 254.4 358.4 252.8 363.6 251.1 366.2 L251.45 368.2 Q252.7 374.4 254.3 379.55 255.85 384.55 257.55 388.05 259.0 391.0 260.55 392.9 M189.6 59.45 L189.7 60.75 Q190.2 67.9 190.75 72.65 190.85 73.9 198.2 82.2 205.5 90.45 205.5 92.9 L203.5 100.3 Q201.5 108.05 201.5 109.75 201.5 113.1 205.15 122.85 208.2 131.1 209.5 133.4 212.35 138.6 213.2 144.75 213.75 148.45 213.75 155.9 213.9 169.3 217.85 180.9 221.75 192.4 221.75 201.25 221.75 205.7 217.75 217.1 213.75 228.5 213.75 231.65 213.75 232.85 220.5 238.1 226.1 242.45 228.5 243.9 229.45 244.5 239.55 248.5 L240.9 249.1 233.25 240.9 Q223.25 230.35 223.25 227.4 223.25 225.6 226.15 220.3 229.0 215.05 229.0 213.15 229.0 211.85 226.0 199.1 223.0 186.35 223.0 175.25 223.0 173.45 223.65 170.4 224.2 167.5 225.0 165.15 L220.25 161.1 Q217.45 158.75 217.25 157.4 L216.5 153.65 216.0 149.9 Q215.8 147.1 214.6 142.05 213.3 136.55 213.0 134.15 212.0 126.05 212.0 118.4 211.9 112.25 208.95 110.55 207.35 109.65 206.9 109.0 206.0 107.7 206.0 104.75 206.0 101.8 210.9 97.85 215.75 93.85 215.75 92.15 215.75 91.4 211.9 87.55 L203.35 79.15 Q190.7 66.35 189.75 60.15 L189.6 59.45 M255.25 291.2 Q257.25 286.6 257.25 285.5 257.25 280.7 248.75 273.0 L243.85 268.35 243.0 272.65 Q240.5 284.7 240.5 287.0 240.5 289.1 243.1 290.45 L248.9 292.75 Q251.7 293.85 253.6 295.35 L255.25 291.2" fill="#000000" fill-rule="evenodd" stroke="none"/>
      <path d="M268.95 393.95 L268.35 394.85 Q267.45 396.0 266.0 396.0 263.15 396.0 260.55 392.9 259.0 391.0 257.55 388.05 255.85 384.55 254.3 379.55 252.7 374.4 251.45 368.2 L251.1 366.2 Q252.8 363.6 254.4 358.4 255.9 353.55 256.35 349.9 L257.2 350.75 258.25 333.75 Q258.25 332.5 257.25 327.0 256.25 321.5 256.25 320.25 L256.75 312.75 257.25 302.65 257.2 301.75 260.25 304.4 Q260.75 305.15 261.95 308.45 263.25 312.15 263.25 313.4 263.25 315.3 261.75 319.05 260.25 322.8 260.25 324.65 L262.25 328.7 Q264.25 332.5 264.25 334.4 264.25 335.65 263.25 337.8 262.25 339.9 262.25 341.15 262.25 350.3 267.05 368.75 270.45 381.75 274.15 389.6 L269.0 389.15 266.35 388.85 Q269.1 391.55 269.5 393.25 L268.95 393.95 M255.25 291.2 L253.6 295.35 Q251.7 293.85 248.9 292.75 L243.1 290.45 Q240.5 289.1 240.5 287.0 240.5 284.7 243.0 272.65 L243.85 268.35 248.75 273.0 Q257.25 280.7 257.25 285.5 257.25 286.6 255.25 291.2 M189.6 59.45 L189.75 60.15 Q190.7 66.35 203.35 79.15 L211.9 87.55 Q215.75 91.4 215.75 92.15 215.75 93.85 210.9 97.85 206.0 101.8 206.0 104.75 206.0 107.7 206.9 109.0 207.35 109.65 208.95 110.55 211.9 112.25 212.0 118.4 212.0 126.05 213.0 134.15 213.3 136.55 214.6 142.05 215.8 147.1 216.0 149.9 L216.5 153.65 217.25 157.4 Q217.45 158.75 220.25 161.1 L225.0 165.15 Q224.2 167.5 223.65 170.4 223.0 173.45 223.0 175.25 223.0 186.35 226.0 199.1 229.0 211.85 229.0 213.15 229.0 215.05 226.15 220.3 223.25 225.6 223.25 227.4 223.25 230.35 233.25 240.9 L240.9 249.1 239.55 248.5 Q229.45 244.5 228.5 243.9 226.1 242.45 220.5 238.1 213.75 232.85 213.75 231.65 213.75 228.5 217.75 217.1 221.75 205.7 221.75 201.25 221.75 192.4 217.85 180.9 213.9 169.3 213.75 155.9 213.75 148.45 213.2 144.75 212.35 138.6 209.5 133.4 208.2 131.1 205.15 122.85 201.5 113.1 201.5 109.75 201.5 108.05 203.5 100.3 L205.5 92.9 Q205.5 90.45 198.2 82.2 190.85 73.9 190.75 72.65 190.2 67.9 189.7 60.75 L189.6 59.45" fill="url(#gradient6)" fill-rule="evenodd" stroke="none"/>
    </g>
    <linearGradient gradientTransform="matrix(-0.1115, -5.0E-4, 2.0E-4, -0.0328, 423.45, 158.15)" gradientUnits="userSpaceOnUse" id="gradient6" spreadMethod="pad" x1="-819.2" x2="819.2">
      <stop offset="0.0" stop-color="#dd9a00"/>
      <stop offset="1.0" stop-color="#aa3300"/>
    </linearGradient>
    <g id="sprite5" transform="matrix(1.0, 0.0, 0.0, 1.0, -604.2, 6.1)">
      <use ffdec:characterId="4125" height="428.7" transform="matrix(1.0, 0.0, 0.0, 1.0, 604.2, -6.1)" width="205.15" xlink:href="#shape5"/>
    </g>
    <g id="shape5" transform="matrix(1.0, 0.0, 0.0, 1.0, -604.2, 6.1)">
      <path d="M787.35 98.9 Q791.0 121.75 796.45 173.45 798.9 196.25 800.3 229.8 801.5 258.15 806.5 296.85 814.3 356.5 800.6 387.2 786.85 418.15 750.15 422.0 727.85 424.4 698.8 416.9 689.2 414.4 675.8 410.0 L655.95 403.6 Q631.4 396.1 620.05 384.1 615.8 379.5 612.35 373.2 L611.9 372.25 Q613.5 377.05 614.55 378.3 L614.2 379.3 613.25 379.95 Q609.75 379.3 608.55 376.2 607.75 372.35 606.95 370.7 606.15 368.7 605.35 365.45 604.55 362.35 604.35 360.45 603.65 353.7 605.9 348.4 L606.2 347.9 Q605.75 337.85 611.85 314.75 L613.4 306.35 Q614.25 300.4 614.85 297.85 616.3 292.0 621.85 288.5 L625.15 286.1 625.35 285.95 623.25 279.95 Q621.1 274.05 620.8 271.0 620.05 263.9 621.7 255.2 622.75 249.7 624.7 246.6 L626.0 234.6 Q625.85 231.5 626.3 224.05 624.5 218.15 624.15 215.05 623.85 212.1 625.35 207.15 L626.75 202.05 Q625.15 200.0 623.4 194.9 L620.85 186.15 Q620.25 180.4 632.15 146.2 L646.0 108.1 649.3 98.9 648.7 93.2 Q647.5 81.5 649.4 76.05 650.8 71.95 661.45 54.6 663.7 50.9 664.7 45.45 665.5 39.2 666.2 36.0 668.7 24.7 680.75 18.35 697.65 9.5 716.3 1.85 738.7 -7.25 744.0 -5.95 756.0 -0.65 762.35 10.05 764.65 13.7 769.95 27.75 780.5 55.4 787.35 98.9" fill="#000000" fill-rule="evenodd" stroke="none"/>
    </g>
    <g id="sprite6" transform="matrix(1.0, 0.0, 0.0, 1.0, 0.0, 0.0)">
      <use ffdec:characterId="3549" height="379.05" transform="matrix(1.0, 0.0, 0.0, 1.0, 0.0, 0.0)" width="657.35" xlink:href="#shape6"/>
    </g>
    <g id="shape6" transform="matrix(1.0, 0.0, 0.0, 1.0, 0.0, 0.0)">
      <path d="M657.35 379.05 L0.0 379.05 0.0 0.0 657.35 0.0 657.35 379.05" fill="url(#gradient7)" fill-rule="evenodd" stroke="none"/>
    </g>
    <linearGradient gradientTransform="matrix(-0.4492, -0.3248, 0.1353, -0.1871, 328.7, 189.5)" gradientUnits="userSpaceOnUse" id="gradient7" spreadMethod="pad" x1="-819.2" x2="819.2">
      <stop offset="0.0" stop-color="#dea900" stop-opacity="0.4"/>
      <stop offset="1.0" stop-color="#de8400" stop-opacity="0.0"/>
    </linearGradient>
    <g id="sprite7" transform="matrix(1.0, 0.0, 0.0, 1.0, 265.1, 150.0)">
      <use ffdec:characterId="3477" height="300.0" transform="matrix(1.0, 0.0, 0.0, 1.0, -265.1, -150.0)" width="533.0" xlink:href="#shape7"/>
    </g>
    <g id="shape7" transform="matrix(1.0, 0.0, 0.0, 1.0, 265.1, 150.0)">
      <path d="M267.9 -150.0 L267.9 150.0 -265.1 150.0 -265.1 -150.0 267.9 -150.0 Z" fill="none" stroke="#f20000" stroke-linecap="round" stroke-linejoin="round" stroke-width="0.05"/>
      <path d="M1.4 -16.05 L1.45 -16.05 Q9.35 -16.05 14.95 -11.35 20.55 -6.65 20.55 0.0 L39.5 0.0 M20.55 0.0 Q20.55 6.65 14.95 11.35 9.35 16.05 1.45 16.05 L1.4 16.05 1.4 21.45 M-36.65 0.0 L-17.55 0.0 -17.55 -0.05 Q-17.55 -6.65 -11.95 -11.35 -6.4 -16.05 1.4 -16.05 M1.4 16.05 Q-6.4 16.05 -11.95 11.35 -17.55 6.65 -17.55 0.0" fill="none" stroke="#f20000" stroke-linecap="round" stroke-linejoin="round" stroke-opacity="0.2509804" stroke-width="0.05"/>
      <path d="M1.4 -16.05 L1.4 -21.4" fill="none" stroke="#f20000" stroke-linecap="round" stroke-linejoin="round" stroke-opacity="0.2509804" stroke-width="1.0"/>
      <path d="M181.15 141.4 L181.15 123.6 191.05 123.6 191.05 141.4 181.15 141.4" fill="#f2f2f2" fill-rule="evenodd" stroke="none"/>
      <path d="M250.55 123.6 L260.45 123.6 260.45 141.4 260.35 141.4 250.55 141.4 250.55 123.6" fill="#000000" fill-rule="evenodd" stroke="none"/>
      <path d="M230.7 123.6 L240.6 123.6 240.6 141.4 230.7 141.4 230.7 123.6" fill="#f20000" fill-rule="evenodd" stroke="none"/>
      <path d="M191.05 123.6 L201.0 123.6 201.0 141.4 191.05 141.4 191.05 123.6" fill="#f2f200" fill-rule="evenodd" stroke="none"/>
      <path d="M201.0 123.6 L210.9 123.6 210.9 141.4 201.0 141.4 201.0 123.6" fill="#00f2f2" fill-rule="evenodd" stroke="none"/>
      <path d="M210.9 123.6 L220.8 123.6 220.8 141.4 210.9 141.4 210.9 123.6" fill="#00f200" fill-rule="evenodd" stroke="none"/>
      <path d="M220.8 123.6 L230.7 123.6 230.7 141.4 220.8 141.4 220.8 123.6" fill="#f200f2" fill-rule="evenodd" stroke="none"/>
      <path d="M240.6 123.6 L250.55 123.6 250.55 141.4 240.6 141.4 240.6 123.6" fill="#0000f2" fill-rule="evenodd" stroke="none"/>
      <path d="M260.35 141.4 L260.35 145.4 181.1 145.4 181.1 141.4 181.15 141.4 191.05 141.4 201.0 141.4 210.9 141.4 220.8 141.4 230.7 141.4 240.6 141.4 250.55 141.4 260.35 141.4" fill="url(#gradient8)" fill-rule="evenodd" stroke="none"/>
    </g>
    <linearGradient gradientTransform="matrix(0.0484, 0.0, 0.0, 0.0024, 220.7, 143.35)" gradientUnits="userSpaceOnUse" id="gradient8" spreadMethod="pad" x1="-819.2" x2="819.2">
      <stop offset="0.0" stop-color="#f2f2f2"/>
      <stop offset="1.0" stop-color="#000000"/>
    </linearGradient>
  </defs>
</svg>
