<?xml version="1.0" encoding="UTF-8" standalone="no"?>
<svg xmlns:ffdec="https://www.free-decompiler.com/flash" xmlns:xlink="http://www.w3.org/1999/xlink" ffdec:objectType="frame" height="2021.0px" width="4592.9px" xmlns="http://www.w3.org/2000/svg">
  <g transform="matrix(2.0, 0.0, 0.0, 2.0, 2126.0, 970.4)">
    <use ffdec:characterId="4143" height="327.95" transform="matrix(1.0, 0.0, 0.0, 1.0, -300.55, -218.6)" width="714.95" xlink:href="#shape0"/>
    <use ffdec:characterId="4142" height="132.05" transform="matrix(-1.0, 0.0, 0.0, 1.0, 335.8, 32.0)" width="619.0" xlink:href="#sprite0"/>
    <use ffdec:characterId="4140" height="232.05" transform="matrix(-1.0, 0.0, 0.0, 1.0, 151.35, -142.65)" width="206.15" xlink:href="#sprite1"/>
    <use ffdec:characterId="4138" height="363.8" transform="matrix(-1.0, 0.0, 0.0, 1.0, 468.05, -215.35)" width="349.6" xlink:href="#sprite2"/>
    <use ffdec:characterId="4129" height="359.6" style="mix-blend-mode: overlay" transform="matrix(1.0, 0.0, 0.0, 1.0, -280.55, -218.1)" width="640.0" xlink:href="#sprite3"/>
    <filter id="filter0">
      <feConvolveMatrix divisor="64.0" in="SourceGraphic" kernelMatrix="1 1 1 1 1 1 1 1 1 1 1 1 1 1 1 1 1 1 1 1 1 1 1 1 1 1 1 1 1 1 1 1 1 1 1 1 1 1 1 1 1 1 1 1 1 1 1 1 1 1 1 1 1 1 1 1 1 1 1 1 1 1 1 1" order="8 8" result="filterResult0"/>
      <feConvolveMatrix divisor="64.0" in="filterResult0" kernelMatrix="1 1 1 1 1 1 1 1 1 1 1 1 1 1 1 1 1 1 1 1 1 1 1 1 1 1 1 1 1 1 1 1 1 1 1 1 1 1 1 1 1 1 1 1 1 1 1 1 1 1 1 1 1 1 1 1 1 1 1 1 1 1 1 1" order="8 8" result="filterResult1"/>
    </filter>
    <use ffdec:characterId="4128" filter="url(#filter0)" height="381.5" transform="matrix(1.0, 0.0, 0.0, 1.0, -354.05, -224.5)" width="295.0" xlink:href="#sprite4"/>
    <use ffdec:characterId="4124" height="379.05" transform="matrix(1.0, 0.0, 0.0, 1.0, -299.4, -237.55)" width="657.35" xlink:href="#sprite5"/>
    <use ffdec:characterId="4041" height="300.0" transform="matrix(1.0227, 0.0, 0.0, 1.0227, -215.5272, -201.4103)" width="533.0" xlink:href="#sprite6"/>
  </g>
  <defs>
    <g id="shape0" transform="matrix(1.0, 0.0, 0.0, 1.0, 258.5, 228.5)">
      <path d="M455.95 -228.0 L455.95 98.95 -258.0 98.95 -258.0 -228.0 455.95 -228.0" fill="url(#gradient0)" fill-rule="evenodd" stroke="none"/>
      <path d="M455.95 -228.0 L455.95 98.95 -258.0 98.95 -258.0 -228.0 455.95 -228.0 Z" fill="none" stroke="#ff0000" stroke-linecap="round" stroke-linejoin="round" stroke-width="1.0"/>
    </g>
    <linearGradient gradientTransform="matrix(0.4358, 0.0, 0.0, 0.1996, 98.95, -64.55)" gradientUnits="userSpaceOnUse" id="gradient0" spreadMethod="pad" x1="-819.2" x2="819.2">
      <stop offset="0.0" stop-color="#1a1a1a"/>
      <stop offset="1.0" stop-color="#5e5e5e"/>
    </linearGradient>
    <g id="sprite0" transform="matrix(1.0, 0.0, 0.0, 1.0, 0.0, 0.0)">
      <use ffdec:characterId="4141" height="132.05" transform="matrix(1.0, 0.0, 0.0, 1.0, 0.0, 0.0)" width="619.0" xlink:href="#shape1"/>
    </g>
    <g id="shape1" transform="matrix(1.0, 0.0, 0.0, 1.0, 0.0, 0.0)">
      <path d="M619.0 6.25 Q618.5 6.8 616.65 7.35 L612.2 8.15 598.7 8.35 Q598.1 47.25 579.5 89.35 572.8 104.45 551.7 112.25 541.8 115.9 525.2 118.35 493.95 123.0 441.4 122.2 L400.8 121.45 Q378.4 121.2 364.0 122.05 L322.4 123.85 280.2 125.45 221.5 129.05 Q166.5 132.05 122.6 132.05 L83.35 130.25 51.0 128.2 31.75 126.75 18.2 125.35 Q7.85 124.25 6.15 123.35 1.6 120.95 0.4 112.5 0.0 109.6 0.0 100.25 0.0 88.75 3.15 75.3 8.5 52.55 19.85 52.55 24.65 52.55 27.1 59.8 28.35 63.5 28.6 67.35 L28.55 68.55 Q30.35 67.45 33.95 66.45 39.4 64.95 52.3 63.0 89.05 57.55 100.85 54.25 109.3 51.9 123.65 52.4 136.75 52.9 145.65 49.5 L160.55 45.45 Q162.95 44.55 171.75 41.75 L186.15 36.95 207.45 28.7 Q224.3 21.9 230.9 19.5 L237.9 17.15 Q243.85 15.15 244.6 15.15 248.0 14.85 248.8 14.35 249.75 13.7 251.65 13.4 L306.85 10.9 Q331.15 10.3 350.5 6.85 L362.45 4.6 372.1 3.7 372.3 3.95 372.5 4.55 Q376.55 4.25 385.95 4.2 L534.55 3.9 Q566.4 3.9 591.85 4.15 L594.3 4.2 594.25 0.3 Q597.1 -0.75 598.1 1.65 L598.65 4.25 616.7 4.55 617.65 5.3 619.0 6.25" fill="#000000" fill-rule="evenodd" stroke="none"/>
    </g>
    <g id="sprite1" transform="matrix(1.0, 0.0, 0.0, 1.0, 0.0, 0.95)">
      <use ffdec:characterId="4139" height="232.05" transform="matrix(1.0, 0.0, 0.0, 1.0, 0.0, -0.95)" width="206.15" xlink:href="#shape2"/>
    </g>
    <g id="shape2" transform="matrix(1.0, 0.0, 0.0, 1.0, 0.0, 0.95)">
      <path d="M162.2 -0.15 L165.4 -0.95 169.95 -0.7 171.7 -0.55 174.6 0.8 176.2 1.7 177.75 2.35 Q179.65 2.85 181.05 3.5 183.8 4.7 185.65 6.55 L188.2 9.7 Q190.65 13.0 191.55 15.95 L193.3 21.2 193.4 22.6 193.3 22.6 193.3 22.7 193.4 23.85 193.6 24.15 193.55 24.8 193.65 26.0 194.05 28.55 195.0 30.95 Q195.55 32.15 195.55 33.5 L195.5 34.85 194.95 36.45 194.25 37.95 194.25 38.1 Q193.85 38.7 193.85 39.35 L193.75 39.4 193.75 41.1 193.75 42.7 193.9 43.9 Q193.9 45.15 194.05 46.25 L194.2 50.85 193.9 53.0 193.7 54.95 193.3 57.05 192.65 59.1 Q191.55 62.6 191.5 63.2 L190.4 67.45 Q190.05 68.5 189.7 71.55 L189.45 73.6 189.35 74.7 189.15 75.8 Q188.1 78.1 184.75 79.9 L178.75 82.9 179.45 83.25 Q180.3 81.75 183.05 83.55 L185.2 85.0 Q186.6 84.3 190.35 85.95 191.8 87.0 192.8 90.3 193.15 91.4 195.15 92.3 197.3 93.35 197.9 94.3 L198.55 96.75 198.85 99.0 198.85 99.3 Q200.7 102.0 200.7 102.6 200.7 104.65 197.45 107.9 L198.3 111.05 198.45 117.8 Q198.45 121.95 198.25 123.1 198.0 124.4 197.1 124.95 L195.0 125.95 194.65 135.75 Q194.15 144.7 193.1 147.95 L197.15 148.35 200.75 149.9 Q201.9 150.45 201.9 151.4 L201.8 152.15 201.75 152.8 Q203.55 152.75 204.25 154.05 204.65 154.75 204.65 156.35 L204.35 157.45 204.05 158.5 Q204.05 159.2 205.1 160.45 L206.15 162.25 Q206.15 163.9 205.05 165.3 L203.9 166.65 204.3 167.8 204.65 169.3 204.6 170.65 203.65 172.35 202.0 173.6 202.15 175.1 201.8 177.2 200.3 177.35 200.15 177.35 197.75 178.45 194.15 179.75 Q192.65 180.4 192.5 180.55 L192.45 180.7 193.1 182.55 Q193.65 184.6 193.65 186.35 L192.8 191.7 Q191.85 196.9 191.3 198.5 190.05 202.5 188.15 204.5 187.65 205.05 186.25 205.8 L183.9 206.85 179.85 207.3 175.2 207.4 175.15 207.5 174.65 207.4 174.4 207.45 174.4 207.4 172.65 207.35 166.9 207.55 163.25 208.0 153.9 209.75 Q149.7 209.5 148.3 210.5 146.7 211.6 139.4 211.6 L136.65 211.5 134.4 211.35 131.1 211.45 127.0 211.4 127.5 211.6 127.4 211.95 126.9 212.1 Q125.6 212.1 124.1 211.3 L122.75 210.5 121.0 209.8 119.9 209.2 116.45 208.0 113.0 206.6 112.9 206.2 113.15 206.15 112.55 205.35 112.3 204.25 112.7 202.9 113.05 201.65 110.75 200.05 Q108.4 198.4 108.4 196.3 108.4 194.3 109.05 193.85 L107.15 191.9 104.05 193.8 Q100.75 195.55 96.9 196.75 93.75 197.75 91.8 199.6 90.85 200.5 89.25 202.85 87.45 205.5 86.45 209.35 L85.15 216.1 Q84.75 218.25 83.75 219.55 82.25 221.45 78.9 222.7 L72.25 224.8 67.15 226.25 61.1 227.8 55.4 229.0 45.8 230.1 Q32.35 231.1 10.25 231.1 4.05 231.1 2.3 225.05 1.7 223.15 1.4 219.75 L0.9 214.85 Q0.2 211.35 0.05 206.35 L0.0 197.6 Q0.0 190.35 0.7 184.7 L3.05 170.6 Q4.2 164.1 6.25 157.1 L7.4 153.7 Q8.05 152.45 8.65 151.95 L9.9 150.45 Q10.35 149.65 11.3 148.95 L12.8 147.45 13.25 146.45 12.9 146.2 Q13.0 145.75 13.75 145.1 L14.15 144.45 14.35 144.6 15.85 143.6 Q17.3 142.7 19.65 141.35 L23.45 138.65 23.85 138.4 20.7 132.1 Q20.7 130.35 28.7 122.6 L43.1 108.55 Q48.4 102.9 53.45 96.35 54.6 94.8 58.9 90.3 L60.95 87.75 Q61.55 87.2 62.15 86.95 L61.75 86.5 Q58.9 83.55 58.9 82.6 58.9 82.3 63.95 76.3 L69.0 70.4 Q68.15 67.9 68.15 65.3 68.15 62.4 68.5 61.95 69.3 60.95 74.25 59.65 77.6 58.75 81.05 58.15 82.2 53.95 86.7 54.65 88.95 55.0 90.8 56.5 L91.15 56.8 107.7 55.45 Q108.5 53.2 112.2 52.8 115.85 52.4 118.8 54.85 L128.4 55.35 130.1 56.85 130.15 56.9 132.55 55.95 Q132.8 55.8 133.4 55.6 L133.55 54.85 Q134.5 52.7 134.5 49.25 L134.2 47.0 134.0 45.3 133.8 44.65 132.75 41.9 132.3 41.4 Q130.65 39.65 130.65 36.95 L130.65 35.3 131.25 33.45 Q131.55 32.4 132.4 31.65 L132.75 31.4 132.9 28.35 Q132.95 26.55 133.3 24.45 L133.25 24.0 Q133.25 23.45 133.6 22.5 L134.1 19.15 Q134.65 16.5 135.55 14.6 136.35 12.7 139.45 10.0 140.85 8.7 146.3 5.55 147.05 5.05 148.15 4.55 148.4 4.35 149.2 4.0 150.05 3.6 150.25 3.55 L153.35 2.65 Q153.7 2.05 154.6 2.25 L154.7 2.25 155.2 2.05 157.6 1.2 159.95 0.55 162.2 -0.15 M188.2 69.05 L188.9 66.35 190.4 60.85 191.9 55.25 Q192.65 52.3 192.65 49.85 L192.55 39.4 192.8 38.3 193.4 36.7 Q194.05 35.65 194.05 33.55 194.05 31.85 193.85 31.55 L193.05 29.7 Q192.4 27.45 192.4 25.85 L192.2 24.0 192.15 21.75 192.1 21.5 192.05 21.45 192.0 20.7 191.4 18.8 190.0 16.3 189.8 15.9 189.5 15.05 Q189.05 13.45 187.4 11.35 L184.05 7.55 Q182.25 5.6 178.35 4.15 177.55 3.85 176.6 3.35 L174.8 2.45 171.05 0.95 168.95 0.45 164.5 0.35 163.4 0.7 162.4 1.0 161.2 1.15 Q160.7 1.1 160.4 1.35 L158.7 2.3 156.85 3.35 157.6 3.85 158.5 4.65 159.1 5.15 161.1 7.15 161.85 8.85 162.35 10.65 161.85 12.85 161.1 14.9 160.15 16.8 159.5 18.4 158.9 19.4 157.85 21.35 159.95 23.25 Q162.0 25.4 162.0 26.65 162.0 27.35 161.45 27.9 L159.65 29.4 158.95 30.0 161.0 30.1 163.55 30.15 166.35 30.2 Q169.95 30.7 172.95 32.1 L173.1 32.05 Q174.95 31.95 175.35 31.1 L175.65 31.45 175.65 31.5 175.65 32.0 176.0 32.85 176.4 33.6 177.05 33.85 Q177.9 33.85 177.9 33.45 L177.85 32.7 Q178.1 32.2 178.45 32.5 L178.75 33.05 178.85 33.7 179.75 34.35 180.8 35.05 182.75 35.15 187.95 35.55 190.4 36.05 Q190.95 36.3 190.95 36.8 L190.6 37.45 Q190.2 37.8 189.85 37.75 189.45 37.7 189.2 38.0 L190.2 39.2 190.85 40.2 Q191.15 40.6 191.15 41.85 L191.05 42.1 Q190.5 42.05 190.3 41.8 L189.7 41.35 189.3 40.85 188.3 40.2 188.0 40.05 187.85 40.2 Q187.2 41.0 185.65 41.0 184.3 41.0 183.7 40.3 L183.4 39.65 183.25 39.7 182.4 40.15 181.95 40.55 182.55 41.0 182.65 41.05 183.35 41.55 Q183.35 41.9 182.75 41.9 L182.45 41.85 182.0 41.7 181.8 41.6 181.15 41.25 180.35 40.95 180.2 40.75 179.65 40.55 178.15 39.95 Q177.25 39.2 176.85 39.2 175.0 39.2 174.2 40.4 L174.0 41.55 Q174.0 42.75 175.15 44.85 176.25 46.95 176.25 47.95 L176.05 49.0 176.8 49.45 178.25 50.5 Q178.85 51.0 178.85 52.15 178.85 53.5 178.1 54.5 L177.0 55.55 176.35 55.75 174.2 55.85 173.85 55.95 173.9 56.5 Q173.9 58.05 173.5 58.85 L173.5 59.5 Q175.65 59.8 177.75 60.8 179.95 61.85 180.7 63.0 L181.85 65.25 182.1 66.35 182.5 67.4 182.45 67.75 182.15 67.8 179.7 65.6 Q177.2 64.1 175.6 64.1 L170.35 64.55 167.75 65.05 167.75 64.95 166.45 64.9 166.45 65.35 Q167.2 66.6 170.5 68.5 L172.2 69.5 172.3 69.5 Q172.7 69.5 174.1 70.2 L174.95 70.35 Q175.75 70.65 175.75 71.1 175.75 71.7 174.15 71.7 L172.3 71.4 171.3 71.1 169.95 70.7 167.95 70.45 Q165.9 70.45 164.65 72.3 L164.6 72.9 Q164.6 73.75 164.95 74.4 L165.75 75.5 167.1 76.45 169.0 77.65 Q172.85 80.4 178.9 80.35 L179.4 80.4 Q180.55 80.4 182.3 79.25 L182.25 79.3 182.3 79.3 182.9 78.95 Q187.2 76.65 187.5 74.7 L188.0 70.5 188.0 70.45 188.25 69.1 188.25 69.05 188.3 68.8 188.2 69.05 M177.9 27.2 Q178.6 27.3 179.8 28.1 L181.75 29.35 183.95 30.35 185.5 30.7 187.7 30.8 Q188.2 30.85 188.2 31.15 L188.15 31.35 186.85 31.45 183.65 31.1 182.0 30.65 179.65 29.75 177.5 28.85 173.45 27.95 168.6 27.55 165.75 27.15 Q163.8 26.7 163.8 26.25 163.8 25.85 164.7 25.7 L166.1 25.6 172.2 25.7 175.35 26.35 177.9 27.2 M184.15 23.45 L185.6 23.85 Q186.55 24.2 186.8 24.55 184.6 24.15 181.75 22.6 179.0 21.15 175.55 20.6 L175.55 20.5 176.0 20.35 177.85 20.65 179.4 21.15 181.9 22.35 184.15 23.45 M167.55 40.05 Q167.4 38.5 166.7 38.15 L166.2 39.25 165.25 39.9 163.4 39.7 162.45 39.55 Q162.6 40.3 161.9 40.95 160.85 41.85 158.4 41.85 L156.45 41.6 156.1 41.5 156.1 42.05 156.7 43.9 Q156.9 44.8 157.25 45.5 157.4 45.95 158.55 46.2 L159.7 46.65 160.25 47.0 Q161.35 47.65 161.9 48.65 L162.6 50.3 Q163.1 51.2 163.2 52.7 L163.6 52.7 Q165.2 52.7 165.55 52.2 L166.4 50.05 166.9 47.3 Q167.25 45.35 168.6 43.5 L169.85 41.95 169.8 41.8 Q167.75 41.65 167.45 41.1 L167.55 40.05 M181.8 53.95 L181.35 54.4 Q180.85 54.4 180.85 53.8 L181.1 53.3 Q181.4 52.95 181.9 53.1 L181.95 53.4 181.8 53.95 M166.45 88.45 L166.45 88.55 Q163.2 88.85 161.45 89.85 L159.0 91.7 Q156.45 93.6 155.55 94.7 L157.6 96.05 158.5 96.65 159.35 97.4 161.5 94.9 Q162.4 93.8 164.15 92.35 L166.45 89.8 167.95 88.5 168.25 88.2 166.45 88.45 M191.35 147.85 L191.75 147.9 191.7 147.55 191.35 147.85 M200.3 153.75 L200.25 153.55 195.2 153.15 194.45 152.9 194.05 152.6 193.3 152.0 Q192.95 151.8 192.95 151.5 192.95 151.15 193.1 151.15 L194.05 151.05 195.0 151.1 196.0 151.6 197.2 152.1 198.75 152.5 Q199.75 152.5 200.5 152.05 L200.75 151.9 200.9 151.35 197.75 150.2 197.15 149.6 192.05 149.25 189.9 148.85 186.6 149.0 189.3 150.1 Q191.45 151.65 191.45 152.3 191.45 153.5 189.45 157.15 188.35 159.25 184.6 161.8 L182.7 162.8 180.6 163.25 179.6 163.65 177.6 163.95 177.0 164.1 176.45 164.4 174.35 165.4 171.9 167.65 Q170.25 169.05 168.1 169.9 L168.0 169.95 Q172.05 173.5 173.35 176.6 L174.7 179.95 175.05 181.4 175.1 181.5 175.6 181.4 177.35 180.95 179.2 179.85 Q181.15 177.9 185.55 177.9 L186.65 178.15 187.55 178.4 189.45 178.3 189.7 178.05 191.4 177.2 Q191.5 177.05 192.3 176.75 L193.8 176.4 194.95 176.6 196.2 176.75 196.55 176.45 197.7 175.45 198.1 174.7 Q198.3 174.25 198.7 174.1 199.15 173.9 199.3 174.4 L199.55 175.25 199.95 176.25 200.9 175.65 201.0 175.2 200.9 173.8 Q200.9 172.85 202.3 171.85 203.65 170.85 203.65 169.25 L203.3 168.1 Q202.9 167.35 202.9 166.65 202.9 166.25 203.15 165.8 202.2 165.8 201.4 165.15 200.7 164.6 200.7 164.2 200.7 163.85 200.85 163.85 L201.55 163.9 203.1 163.85 204.55 163.75 204.15 163.2 203.7 162.65 203.45 161.5 203.55 160.7 203.65 160.4 Q202.9 159.3 202.9 158.45 L203.3 157.5 203.65 156.15 Q203.65 153.95 201.75 153.75 L201.35 154.3 201.55 155.15 201.7 156.25 Q201.7 157.2 201.45 157.2 L197.85 156.95 Q197.5 156.85 197.5 156.55 L198.1 155.85 199.05 155.15 200.4 153.85 200.3 153.75 M173.5 184.0 L167.95 182.95 Q164.35 182.05 163.0 181.35 161.95 180.8 160.4 179.55 L158.15 177.45 Q156.1 175.05 154.75 173.0 L153.75 171.85 152.65 170.75 151.65 169.7 Q151.3 169.8 151.2 170.0 151.05 170.2 151.05 171.4 151.05 172.95 152.5 174.35 L155.0 177.25 155.15 177.5 155.15 177.55 155.35 177.9 155.1 178.0 154.85 177.95 Q153.95 178.9 150.25 181.4 148.0 182.55 146.7 183.25 L143.45 184.6 Q146.1 185.85 146.1 188.6 L146.1 188.95 146.85 189.25 Q147.75 189.4 149.45 190.5 150.45 190.95 152.5 193.05 L155.05 195.8 Q156.7 197.55 158.65 198.1 L158.8 198.25 161.45 199.3 Q164.65 200.0 166.95 200.9 L172.45 202.65 174.0 203.35 175.2 203.85 175.55 204.0 175.85 202.95 176.25 199.65 176.55 195.75 175.95 190.0 175.15 187.1 173.45 184.3 173.5 184.0 M157.4 145.85 L153.0 151.2 Q152.05 152.45 149.95 153.95 L149.3 154.35 147.3 157.2 Q143.05 163.1 139.45 167.2 L139.4 167.45 143.65 167.75 151.65 167.25 Q152.3 167.25 152.7 168.25 L152.9 169.0 154.25 168.7 156.8 168.2 157.95 167.85 157.9 167.75 159.9 167.1 Q159.0 165.05 158.9 162.15 159.1 157.05 158.9 154.9 L157.8 148.15 157.4 145.85" fill="#000000" fill-rule="evenodd" stroke="none"/>
      <path d="M182.3 79.25 Q180.55 80.4 179.4 80.4 L178.9 80.35 Q172.85 80.4 169.0 77.65 L167.1 76.45 165.75 75.5 164.95 74.4 Q164.6 73.75 164.6 72.9 L164.65 72.3 Q165.9 70.45 167.95 70.45 L169.95 70.7 171.3 71.1 172.3 71.4 174.15 71.7 Q175.75 71.7 175.75 71.1 175.75 70.65 174.95 70.35 L174.1 70.2 Q172.7 69.5 172.3 69.5 L172.2 69.5 170.5 68.5 Q167.2 66.6 166.45 65.35 L166.45 64.9 167.75 64.95 167.75 65.05 170.35 64.55 175.6 64.1 Q177.2 64.1 179.7 65.6 L182.15 67.8 182.45 67.75 182.5 67.4 182.1 66.35 181.85 65.25 180.7 63.0 Q179.95 61.85 177.75 60.8 175.65 59.8 173.5 59.5 L173.5 58.85 Q173.9 58.05 173.9 56.5 L173.85 55.95 174.2 55.85 176.35 55.75 177.0 55.55 178.1 54.5 Q178.85 53.5 178.85 52.15 178.85 51.0 178.25 50.5 L176.8 49.45 176.05 49.0 176.25 47.95 Q176.25 46.95 175.15 44.85 174.0 42.75 174.0 41.55 L174.2 40.4 Q175.0 39.2 176.85 39.2 177.25 39.2 178.15 39.95 L179.65 40.55 180.2 40.75 180.35 40.95 181.15 41.25 181.8 41.6 182.0 41.7 182.45 41.85 182.75 41.9 Q183.35 41.9 183.35 41.55 L182.65 41.05 182.55 41.0 181.95 40.55 182.4 40.15 183.25 39.7 183.4 39.65 183.7 40.3 Q184.3 41.0 185.65 41.0 187.2 41.0 187.85 40.2 L188.0 40.05 188.3 40.2 189.3 40.85 189.7 41.35 190.3 41.8 Q190.5 42.05 191.05 42.1 L191.15 41.85 Q191.15 40.6 190.85 40.2 L190.2 39.2 189.2 38.0 Q189.45 37.7 189.85 37.75 190.2 37.8 190.6 37.45 L190.95 36.8 Q190.95 36.3 190.4 36.05 L187.95 35.55 182.75 35.15 180.8 35.05 179.75 34.35 178.85 33.7 178.75 33.05 178.45 32.5 Q178.1 32.2 177.85 32.7 L177.9 33.45 Q177.9 33.85 177.05 33.85 L176.4 33.6 176.0 32.85 175.65 32.0 175.65 31.5 175.65 31.45 175.35 31.1 Q174.95 31.95 173.1 32.05 L172.95 32.1 Q169.95 30.7 166.35 30.2 L163.55 30.15 161.0 30.1 158.95 30.0 159.65 29.4 161.45 27.9 Q162.0 27.35 162.0 26.65 162.0 25.4 159.95 23.25 L157.85 21.35 158.9 19.4 159.5 18.4 160.15 16.8 161.1 14.9 161.85 12.85 162.35 10.65 161.85 8.85 161.1 7.15 159.1 5.15 158.5 4.65 157.6 3.85 156.85 3.35 158.7 2.3 160.4 1.35 Q160.7 1.1 161.2 1.15 L162.4 1.0 163.4 0.7 164.5 0.35 168.95 0.45 171.05 0.95 174.8 2.45 176.6 3.35 Q177.55 3.85 178.35 4.15 182.25 5.6 184.05 7.55 L187.4 11.35 Q189.05 13.45 189.5 15.05 L189.8 15.9 190.0 16.3 191.4 18.8 192.0 20.7 192.05 21.45 192.1 21.5 192.15 21.75 192.2 24.0 192.4 25.85 Q192.4 27.45 193.05 29.7 L193.85 31.55 Q194.05 31.85 194.05 33.55 194.05 35.65 193.4 36.7 L192.8 38.3 192.55 39.4 192.65 49.85 Q192.65 52.3 191.9 55.25 L190.4 60.85 188.9 66.35 188.2 69.05 188.15 69.1 Q187.9 69.7 187.9 70.45 L187.9 70.5 188.0 70.5 187.5 74.7 Q187.2 76.65 182.9 78.95 L182.3 79.3 182.3 79.25 M184.15 23.45 L181.9 22.35 179.4 21.15 177.85 20.65 176.0 20.35 175.55 20.5 175.55 20.6 Q179.0 21.15 181.75 22.6 184.6 24.15 186.8 24.55 186.55 24.2 185.6 23.85 L184.15 23.45 M177.9 27.2 L175.35 26.35 172.2 25.7 166.1 25.6 164.7 25.7 Q163.8 25.85 163.8 26.25 163.8 26.7 165.75 27.15 L168.6 27.55 173.45 27.95 177.5 28.85 179.65 29.75 182.0 30.65 183.65 31.1 186.85 31.45 188.15 31.35 188.2 31.15 Q188.2 30.85 187.7 30.8 L185.5 30.7 183.95 30.35 181.75 29.35 179.8 28.1 Q178.6 27.3 177.9 27.2 M166.45 88.45 L168.25 88.2 167.95 88.5 166.45 89.8 164.15 92.35 Q162.4 93.8 161.5 94.9 L159.35 97.4 158.5 96.65 157.6 96.05 155.55 94.7 Q156.45 93.6 159.0 91.7 L161.45 89.85 Q163.2 88.85 166.45 88.55 L166.45 88.45 M181.8 53.95 L181.95 53.4 181.9 53.1 Q181.4 52.95 181.1 53.3 L180.85 53.8 Q180.85 54.4 181.35 54.4 L181.8 53.95 M167.55 40.05 L167.45 41.1 Q167.75 41.65 169.8 41.8 L169.85 41.95 168.6 43.5 Q167.25 45.35 166.9 47.3 L166.4 50.05 165.55 52.2 Q165.2 52.7 163.6 52.7 L163.2 52.7 Q163.1 51.2 162.6 50.3 L161.9 48.65 Q161.35 47.65 160.25 47.0 L159.7 46.65 158.55 46.2 Q157.4 45.95 157.25 45.5 156.9 44.8 156.7 43.9 L156.1 42.05 156.1 41.5 156.45 41.6 158.4 41.85 Q160.85 41.85 161.9 40.95 162.6 40.3 162.45 39.55 L163.4 39.7 165.25 39.9 166.2 39.25 166.7 38.15 Q167.4 38.5 167.55 40.05 M173.5 184.0 L173.45 184.3 175.15 187.1 175.95 190.0 176.55 195.75 176.25 199.65 175.85 202.95 175.55 204.0 175.2 203.85 174.0 203.35 172.45 202.65 166.95 200.9 Q164.65 200.0 161.45 199.3 L158.8 198.25 158.65 198.1 Q156.7 197.55 155.05 195.8 L152.5 193.05 Q150.45 190.95 149.45 190.5 147.75 189.4 146.85 189.25 L146.1 188.95 146.1 188.6 Q146.1 185.85 143.45 184.6 L146.7 183.25 Q148.0 182.55 150.25 181.4 153.95 178.9 154.85 177.95 L155.1 178.0 155.35 177.9 155.15 177.55 155.15 177.5 155.0 177.25 152.5 174.35 Q151.05 172.95 151.05 171.4 151.05 170.2 151.2 170.0 151.3 169.8 151.65 169.7 L152.65 170.75 153.75 171.85 154.75 173.0 Q156.1 175.05 158.15 177.45 L160.4 179.55 Q161.95 180.8 163.0 181.35 164.35 182.05 167.95 182.95 L173.5 184.0 M200.3 153.75 L200.4 153.85 199.05 155.15 198.1 155.85 197.5 156.55 Q197.5 156.85 197.85 156.95 L201.45 157.2 Q201.7 157.2 201.7 156.25 L201.55 155.15 201.35 154.3 201.75 153.75 Q203.65 153.95 203.65 156.15 L203.3 157.5 202.9 158.45 Q202.9 159.3 203.65 160.4 L203.55 160.7 203.45 161.5 203.7 162.65 204.15 163.2 204.55 163.75 203.1 163.85 201.55 163.9 200.85 163.85 Q200.7 163.85 200.7 164.2 200.7 164.6 201.4 165.15 202.2 165.8 203.15 165.8 202.9 166.25 202.9 166.65 202.9 167.35 203.3 168.1 L203.65 169.25 Q203.65 170.85 202.3 171.85 200.9 172.85 200.9 173.8 L201.0 175.2 200.9 175.65 199.95 176.25 199.55 175.25 199.3 174.4 Q199.15 173.9 198.7 174.1 198.3 174.25 198.1 174.7 L197.7 175.45 196.55 176.45 196.2 176.75 194.95 176.6 193.8 176.4 192.3 176.75 Q191.5 177.05 191.4 177.2 L189.7 178.05 189.45 178.3 187.55 178.4 186.65 178.15 185.55 177.9 Q181.15 177.9 179.2 179.85 L177.35 180.95 175.6 181.4 175.1 181.5 175.05 181.4 174.7 179.95 173.35 176.6 Q172.05 173.5 168.0 169.95 L168.1 169.9 Q170.25 169.05 171.9 167.65 L174.35 165.4 176.45 164.4 177.0 164.1 177.6 163.95 179.6 163.65 180.6 163.25 182.7 162.8 184.6 161.8 Q188.35 159.25 189.45 157.15 191.45 153.5 191.45 152.3 191.45 151.65 189.3 150.1 L186.6 149.0 189.9 148.85 192.05 149.25 197.15 149.6 197.75 150.2 200.9 151.35 200.75 151.9 200.5 152.05 Q199.75 152.5 198.75 152.5 L197.2 152.1 196.0 151.6 195.0 151.1 194.05 151.05 193.1 151.15 Q192.95 151.15 192.95 151.5 192.95 151.8 193.3 152.0 L194.05 152.6 194.45 152.9 195.2 153.15 200.25 153.55 200.3 153.75" fill="url(#gradient1)" fill-rule="evenodd" stroke="none"/>
      <path d="M159.8 30.95 L158.7 30.05 158.0 30.95 Q157.3 31.45 155.65 31.45 L153.65 31.3 151.65 31.05 151.45 30.8 150.0 30.6 Q149.7 30.4 149.3 30.35 L146.05 30.1 146.05 30.05 147.55 29.95 149.9 29.95 150.75 29.9 151.75 29.6 154.4 29.45 156.7 29.4 156.25 28.1 156.35 27.55 Q156.35 27.4 156.7 27.2 157.05 26.95 157.3 27.0 157.05 26.4 157.25 26.05 L157.8 25.6 157.75 25.1 Q157.75 24.4 158.55 24.25 L158.65 24.25 157.5 23.05 157.2 22.45 156.95 22.2 156.55 21.55 156.4 21.2 Q154.15 17.75 154.15 16.85 154.15 16.15 154.85 16.05 155.65 15.9 156.55 17.6 L157.4 19.15 157.75 18.8 158.3 18.35 158.25 16.95 158.65 16.25 159.05 15.5 158.95 15.25 158.8 15.0 160.8 12.9 161.45 12.35 161.65 11.65 Q161.65 11.45 161.3 11.4 L160.7 11.1 160.5 10.0 160.5 9.3 Q160.5 9.05 161.0 8.55 160.5 8.15 159.5 7.65 159.05 7.45 159.05 7.0 159.05 6.45 159.5 6.2 L159.75 6.1 159.5 6.0 155.85 5.6 154.4 5.8 153.1 5.95 Q152.0 5.95 152.0 4.9 L152.1 4.3 Q152.5 3.95 154.0 3.8 L156.8 3.55 Q156.9 2.65 158.2 1.35 159.8 -0.25 161.45 -0.25 L162.1 -0.1 164.1 -0.6 Q166.7 -1.0 166.7 -0.15 166.7 0.5 165.9 0.6 L162.45 1.2 161.8 1.6 161.35 2.05 Q160.0 2.5 160.0 2.85 160.0 3.45 161.65 4.45 L162.25 4.65 Q164.15 5.3 164.85 5.85 167.95 8.3 167.95 11.2 L167.7 12.95 Q167.5 14.35 166.85 14.75 162.6 17.15 162.6 18.45 162.6 19.25 163.25 20.45 L163.85 21.35 165.4 22.55 Q166.25 23.1 169.15 23.9 172.8 24.0 175.75 25.3 177.45 26.1 179.25 27.25 L180.7 28.25 182.8 29.55 183.6 30.0 184.9 30.45 186.85 30.8 187.4 31.2 184.8 31.55 Q183.4 31.55 181.2 30.4 L178.0 28.7 173.55 26.75 172.25 26.35 171.7 26.4 168.25 25.85 166.15 26.15 165.5 26.3 169.15 29.25 170.45 30.2 172.05 31.05 172.95 31.4 173.8 31.8 174.3 32.75 Q174.3 33.25 173.75 33.25 L172.05 32.95 170.75 32.45 170.4 32.9 169.55 33.2 168.65 32.7 168.05 32.1 167.9 32.5 167.1 32.7 166.5 32.5 166.1 32.2 165.75 31.95 165.25 31.95 163.7 31.5 162.9 30.95 162.6 31.4 Q162.25 31.8 161.7 31.8 160.95 31.8 159.9 31.0 L159.8 30.95 M168.15 64.15 L169.05 63.95 171.15 63.8 172.3 63.6 174.9 63.65 177.5 64.1 179.4 65.0 181.25 66.0 Q182.3 66.6 182.3 67.1 182.35 67.6 181.75 67.6 179.95 66.45 179.55 66.35 L177.65 65.75 173.7 65.55 168.85 66.1 172.75 68.95 Q173.45 69.4 175.7 70.3 177.15 70.85 177.15 71.5 177.15 72.6 174.85 72.6 L172.25 72.3 Q170.15 72.3 169.0 73.95 168.2 75.05 168.2 75.9 168.2 76.85 170.15 78.85 L171.45 80.25 Q171.5 79.85 172.4 79.3 L173.8 78.25 174.0 77.65 174.25 77.1 174.8 76.55 Q175.0 76.15 175.45 76.3 175.8 76.45 175.8 77.25 L175.7 78.45 Q175.65 79.25 175.85 79.7 L176.05 80.7 Q176.2 81.6 175.5 81.6 L174.9 81.35 174.25 81.1 Q173.45 82.2 172.75 82.2 172.15 82.2 172.1 81.6 172.05 82.3 171.0 82.3 170.1 82.3 168.65 80.9 L166.8 78.85 165.75 77.05 165.25 76.1 165.2 75.6 164.7 75.2 Q164.5 75.6 164.0 75.6 163.15 75.6 163.15 73.9 L163.4 71.7 Q163.9 69.55 165.0 69.55 L165.75 69.75 Q166.15 69.75 166.35 69.15 166.55 68.55 167.45 68.55 167.9 68.55 168.25 69.0 168.6 69.45 169.25 69.4 170.55 69.3 170.7 70.45 L171.8 70.35 171.5 70.2 167.3 67.55 167.0 68.0 Q166.8 68.3 166.1 68.3 165.0 68.3 165.0 67.05 L165.25 65.85 165.35 64.65 166.05 64.1 166.2 63.8 166.65 63.45 Q167.45 63.15 168.15 64.15 M186.0 56.25 Q186.9 58.6 186.9 61.35 L186.9 62.75 186.55 64.25 186.05 65.75 Q185.65 66.85 185.1 66.85 185.2 66.0 185.85 64.0 186.45 62.25 186.45 61.3 186.45 59.55 185.35 56.8 184.8 55.55 183.4 53.8 L182.15 52.15 182.35 51.75 Q184.85 53.1 186.0 56.25 M177.2 37.25 Q178.8 36.9 178.8 37.95 178.8 38.55 177.2 39.35 175.6 40.2 175.6 41.2 175.6 42.0 176.2 43.2 176.9 44.55 177.1 46.45 177.25 47.95 178.2 49.15 179.1 50.2 179.1 51.85 179.1 53.1 178.8 53.6 L178.05 54.6 Q177.4 55.25 176.7 55.25 175.3 55.25 175.3 54.1 L175.5 53.6 176.0 53.15 176.2 53.25 176.4 53.35 Q177.0 53.35 177.15 51.8 177.15 50.8 176.35 50.1 175.45 49.25 175.15 46.6 175.05 45.75 174.35 44.05 173.65 42.55 173.65 41.25 173.65 40.4 173.9 39.95 L175.0 38.45 Q175.7 37.6 177.2 37.25 M179.9 39.0 L179.8 38.75 Q179.8 37.85 180.7 37.9 181.35 37.9 181.95 38.65 L182.35 38.6 182.95 38.9 183.55 39.2 184.7 39.1 186.9 39.4 Q188.65 39.65 189.05 40.05 L190.25 40.6 Q191.0 40.9 191.0 41.3 191.0 41.55 190.6 41.65 190.1 42.35 186.9 42.35 L185.05 42.15 185.1 42.25 Q185.3 42.6 186.7 43.25 188.0 43.85 188.0 44.25 L187.9 44.45 185.55 43.7 185.35 43.65 185.5 43.8 186.8 45.15 188.55 46.6 Q189.4 47.4 189.4 47.95 L189.35 48.15 Q187.65 47.85 185.15 46.15 184.35 45.6 182.95 43.7 L181.15 41.05 180.9 40.7 180.3 40.8 180.25 40.7 Q179.55 39.95 179.55 39.6 179.55 39.2 179.9 39.0 M163.5 48.25 L164.2 49.35 164.9 46.35 Q165.35 45.0 166.55 43.75 L162.95 44.75 162.0 44.95 161.25 45.2 159.25 45.3 159.2 45.3 159.4 45.35 Q161.65 45.85 163.5 48.25 M170.35 38.55 L170.3 38.9 170.0 39.4 170.05 39.65 170.15 39.6 Q171.05 39.6 171.05 40.55 L170.75 41.5 171.0 42.55 170.8 43.1 170.4 43.75 170.15 43.5 Q169.75 43.5 169.05 44.05 L168.35 44.8 168.6 45.55 167.55 48.35 166.6 51.3 165.95 53.05 166.3 54.45 Q166.4 55.5 165.15 55.5 L164.9 55.3 Q164.15 56.4 163.15 56.85 L163.25 56.75 163.35 55.8 163.55 54.75 Q163.0 54.0 163.0 53.55 L163.0 53.5 162.65 52.9 160.65 49.9 Q159.8 48.85 157.15 46.9 L155.25 45.95 155.05 45.95 Q153.25 45.95 153.25 44.95 153.25 44.55 153.75 44.3 L153.65 44.0 154.15 43.75 154.5 43.65 154.1 43.55 153.45 43.3 Q153.05 43.0 153.05 42.4 L153.25 41.85 Q153.25 41.7 153.6 41.6 L154.3 41.4 154.75 40.85 155.35 40.3 Q156.25 39.7 157.65 39.6 L158.85 39.3 160.25 39.05 Q160.85 39.05 161.1 39.6 L161.7 39.05 Q162.15 38.65 162.8 38.6 L163.55 38.35 164.95 38.3 164.95 38.25 Q164.95 37.35 166.55 37.1 167.95 36.8 168.1 37.9 L169.4 37.6 Q170.35 37.7 170.35 38.55 M162.3 15.35 L162.75 14.95 162.5 14.95 162.3 15.35 M166.25 82.6 L165.6 83.35 Q164.2 83.35 163.35 82.6 L166.25 82.6 M171.65 80.5 L172.1 81.3 172.1 81.45 172.6 80.6 171.65 80.5 M170.0 83.1 L169.45 83.75 Q170.5 84.0 170.7 85.15 171.4 85.8 171.4 87.2 171.4 89.0 168.4 89.75 163.55 90.95 160.8 92.25 159.9 92.7 159.45 93.0 L158.75 93.5 154.5 97.25 151.15 100.25 Q148.95 100.25 148.95 98.35 148.95 96.5 152.35 93.2 155.5 90.1 159.85 87.4 164.3 84.55 167.3 83.85 L168.25 83.7 167.5 82.95 167.25 82.6 170.3 82.6 170.0 83.1 M187.7 146.6 Q191.9 147.65 193.95 149.6 195.7 151.2 195.7 153.0 195.7 155.5 192.4 159.1 188.5 163.3 183.2 164.6 175.2 166.55 172.05 169.1 L171.85 169.3 172.15 169.85 176.0 176.55 Q176.5 176.2 177.15 175.9 181.1 173.9 186.85 172.7 192.5 171.55 196.5 171.95 200.9 172.4 200.9 174.6 200.9 176.1 197.65 179.6 194.45 183.05 192.6 183.8 L192.4 181.9 192.95 180.3 193.65 178.7 Q190.2 179.3 183.9 182.3 L178.75 184.85 179.05 185.9 Q181.1 192.65 181.1 193.8 181.1 195.05 180.15 196.1 179.1 197.15 177.8 197.15 177.8 198.9 178.25 201.0 L178.65 204.1 Q178.65 205.25 177.8 205.95 177.05 206.55 176.0 206.55 172.7 206.55 166.55 204.0 160.95 201.45 160.7 201.4 156.75 200.2 154.75 198.25 L151.0 194.85 Q148.5 193.15 143.95 188.9 138.1 183.4 138.1 181.35 L138.4 180.15 Q138.95 178.9 140.35 178.9 143.3 178.9 153.6 190.35 156.05 193.1 161.45 195.9 166.85 198.7 172.75 200.35 L172.9 197.55 Q172.9 192.0 170.75 182.85 170.3 180.95 167.45 174.6 L167.2 174.05 166.0 175.05 Q164.7 175.05 164.2 173.65 L163.9 172.1 Q163.9 170.9 165.2 169.3 L164.8 168.1 Q164.8 164.9 168.1 166.35 172.15 162.9 175.9 161.85 182.3 160.05 185.6 158.45 190.4 156.0 190.3 153.2 L182.7 149.5 Q179.25 147.8 179.25 146.05 179.25 143.8 181.45 144.05 183.5 144.25 187.7 146.6" fill="#000000" fill-opacity="0.101960786" fill-rule="evenodd" stroke="none"/>
      <path d="M159.8 30.95 L159.9 31.0 Q160.95 31.8 161.7 31.8 162.25 31.8 162.6 31.4 L164.6 31.95 Q165.25 32.1 165.25 32.7 L164.95 33.25 Q164.6 33.55 164.1 33.55 163.2 33.55 161.7 32.9 L160.15 32.2 159.5 32.15 Q159.35 32.05 159.35 31.6 159.35 31.25 159.75 30.95 L159.8 30.95" fill="#000000" fill-rule="evenodd" stroke="none"/>
    </g>
    <linearGradient gradientTransform="matrix(0.0188, 0.1473, -0.9915, 0.1266, 338.65, 85.1)" gradientUnits="userSpaceOnUse" id="gradient1" spreadMethod="pad" x1="-819.2" x2="819.2">
      <stop offset="0.0" stop-color="#ceb19f"/>
      <stop offset="1.0" stop-color="#a37354"/>
    </linearGradient>
    <g id="sprite2" transform="matrix(1.0, 0.0, 0.0, 1.0, 0.0, 0.0)">
      <use ffdec:characterId="4137" height="363.8" transform="matrix(1.0, 0.0, 0.0, 1.0, 0.0, 0.0)" width="349.6" xlink:href="#shape3"/>
    </g>
    <g id="shape3" transform="matrix(1.0, 0.0, 0.0, 1.0, 0.0, 0.0)">
      <path d="M325.45 185.75 Q326.85 190.75 326.45 199.4 326.25 205.85 328.7 213.1 329.8 216.25 331.9 224.2 L331.95 224.15 336.75 240.6 Q339.45 250.35 340.2 257.0 341.3 266.8 345.0 274.95 346.65 278.65 347.45 282.6 349.6 284.15 349.6 287.95 L349.55 289.7 Q349.35 290.55 348.6 291.4 L347.95 291.8 346.95 295.7 346.95 295.75 Q346.95 296.45 346.05 298.2 L345.35 299.55 Q345.3 301.75 344.7 303.4 343.8 306.0 341.75 306.4 L340.65 308.95 339.2 311.4 335.8 313.35 Q332.95 314.75 332.35 314.75 L332.1 314.7 331.75 317.25 Q330.95 319.15 328.3 319.45 L328.25 319.5 328.0 319.5 327.2 319.5 326.25 319.5 324.6 319.5 322.75 319.1 316.25 318.65 307.5 319.35 300.45 320.5 300.35 320.5 256.8 320.5 256.35 320.75 254.85 320.5 254.0 320.5 253.9 320.35 Q241.05 318.25 238.6 318.25 L225.85 319.2 225.85 319.25 Q225.2 319.7 223.35 319.85 L210.45 320.0 Q187.55 320.0 183.2 319.4 L181.7 319.1 178.65 324.7 Q176.45 328.8 173.45 330.85 L173.5 330.7 168.4 336.95 Q161.4 345.5 158.9 347.75 146.0 359.5 136.25 362.35 132.2 363.55 127.1 363.75 L117.1 363.8 Q92.25 363.8 73.4 360.7 L65.65 359.2 Q36.2 356.9 14.25 352.05 5.65 350.15 2.75 345.4 1.75 343.75 0.6 337.3 0.05 334.3 0.0 328.5 L0.05 322.3 Q0.05 311.55 1.2 300.4 2.55 287.6 5.0 278.8 L8.35 268.05 Q10.2 261.25 10.0 257.05 L10.4 254.3 Q10.45 252.85 13.05 251.5 17.9 248.85 20.5 246.25 L22.6 243.6 Q23.55 242.2 24.65 241.5 L27.85 239.5 30.55 238.05 30.95 238.2 Q44.0 226.05 56.5 215.0 L65.6 207.3 72.7 201.65 77.15 198.3 81.8 194.9 86.0 191.65 88.65 189.4 85.75 186.6 Q83.3 184.0 81.45 182.9 L79.45 181.3 77.35 179.4 75.1 177.8 Q74.05 176.95 74.05 175.9 74.05 172.55 79.3 165.05 82.3 160.8 84.7 158.4 L86.75 154.9 90.2 149.75 Q92.7 146.5 98.2 140.35 101.6 136.7 105.4 131.05 L111.75 121.6 115.1 117.1 Q117.2 114.4 119.6 112.25 122.05 109.95 125.75 107.9 L132.85 104.25 Q137.65 101.75 143.55 100.6 151.5 99.1 171.95 97.5 183.25 96.6 191.15 94.35 199.0 92.15 210.35 91.25 210.1 90.95 217.8 91.4 225.9 91.85 228.85 93.1 L231.35 94.15 231.7 94.35 232.85 95.05 233.6 94.5 235.1 92.65 235.9 90.9 Q236.15 89.9 236.0 89.1 L236.3 85.85 235.2 85.1 234.25 84.9 233.25 84.65 Q232.95 84.45 232.8 83.8 L232.5 82.6 230.1 83.25 Q229.35 83.15 229.35 82.3 L229.85 80.0 230.35 77.45 230.0 74.5 228.45 74.6 226.85 74.4 226.6 73.85 227.85 72.55 229.1 71.1 229.45 69.95 229.25 69.15 Q228.85 68.8 228.6 67.55 L227.85 64.75 Q226.7 62.85 225.85 60.25 224.0 54.8 224.0 51.55 224.0 50.0 224.95 44.75 L224.95 44.5 223.35 44.95 221.95 45.25 Q220.35 45.25 219.6 44.5 224.7 37.55 226.85 27.75 227.9 22.7 231.2 17.4 233.95 13.0 235.95 12.25 L238.6 10.4 Q242.95 7.4 247.1 5.25 256.0 0.6 257.6 0.2 258.3 0.0 265.85 0.0 283.3 0.0 285.75 1.9 L286.1 1.75 286.2 2.15 285.65 3.05 285.75 3.1 288.85 2.3 292.35 1.15 296.15 1.85 299.85 2.75 Q301.55 3.1 303.65 4.65 L306.6 7.15 317.6 16.9 Q317.6 17.4 315.75 17.9 313.85 18.35 313.85 19.35 313.85 22.65 315.0 28.3 L316.1 35.2 Q316.1 37.65 315.0 45.5 L313.9 52.2 313.0 57.65 311.45 64.85 310.35 71.9 Q309.65 76.35 308.85 79.1 L307.2 86.15 305.35 93.5 Q304.65 95.8 303.7 100.7 302.65 105.0 300.8 107.65 299.55 109.9 296.2 112.25 292.5 114.85 285.35 118.0 L285.2 117.95 285.0 118.1 283.9 120.85 283.05 123.35 Q286.4 125.8 288.5 131.25 290.75 137.2 296.35 140.15 301.35 143.55 302.2 144.75 L303.3 146.85 Q304.05 148.15 305.35 148.75 308.25 150.1 311.0 152.6 313.5 154.9 314.95 157.35 315.85 158.85 316.75 161.85 L318.2 166.5 320.35 171.0 321.8 174.3 Q322.95 176.1 323.85 178.75 L324.7 182.25 325.45 185.75 M332.95 264.65 Q333.55 264.85 334.05 265.25 L334.9 266.15 Q335.65 266.95 336.0 268.3 L336.25 270.3 Q336.25 271.85 335.25 273.55 L335.55 273.45 335.8 273.05 336.3 272.8 336.65 272.9 Q336.85 272.9 337.05 272.7 L337.15 272.55 337.35 272.45 337.45 272.3 Q338.5 271.25 338.5 269.8 L338.45 268.9 338.15 267.55 338.2 267.55 Q337.65 266.1 336.45 265.4 L335.85 265.15 Q334.85 264.55 333.7 264.55 L332.95 264.65 M330.4 264.7 L321.15 265.9 315.15 267.05 321.55 267.35 Q323.1 267.35 326.5 265.95 328.35 265.2 330.1 264.85 L330.4 264.7 M339.55 272.05 Q339.35 272.85 338.45 273.55 L338.65 274.9 338.45 275.95 Q340.85 275.0 340.85 273.15 340.85 271.8 339.6 270.2 L339.55 272.05 M342.5 283.3 Q343.2 283.9 344.1 285.2 344.7 286.15 344.9 287.2 L345.05 289.0 Q345.05 290.3 344.4 291.45 L345.35 291.35 346.95 291.05 346.95 291.0 347.25 290.75 Q347.35 290.55 347.6 290.55 L347.65 290.45 347.8 290.35 348.1 289.9 348.1 290.1 Q348.5 289.4 348.5 287.95 L348.35 286.9 Q348.15 283.8 345.85 283.35 L345.5 283.3 345.35 283.25 343.7 282.65 341.45 282.55 342.5 283.3 M333.6 283.1 L335.1 282.7 333.35 282.75 325.7 282.15 320.7 282.0 318.1 281.85 314.45 282.1 317.0 282.65 319.65 283.6 326.25 284.3 Q329.5 284.3 333.6 283.1 M327.3 293.95 L326.95 293.9 326.05 293.8 325.0 293.95 325.05 293.9 319.65 294.15 319.85 294.25 321.45 294.8 323.45 295.3 326.05 295.65 331.3 295.05 333.3 294.9 332.1 294.75 329.6 294.25 327.4 293.95 327.3 293.95 M340.5 295.85 L341.75 297.35 Q342.3 298.4 342.3 300.7 342.3 302.65 342.0 303.45 L341.55 304.75 341.45 305.05 341.45 305.1 Q342.95 304.0 343.55 302.9 344.05 301.95 344.2 300.4 L344.25 299.9 344.25 299.5 344.25 299.1 344.2 296.9 Q343.9 295.8 342.6 295.0 L339.55 295.1 340.5 295.85 M330.6 311.5 Q330.1 310.65 328.2 310.35 L328.25 310.4 329.1 312.1 Q329.5 313.15 329.5 315.35 L329.35 317.3 329.25 317.6 330.35 317.15 Q331.0 316.5 331.0 314.15 331.0 312.2 330.6 311.5 M288.4 14.95 Q287.6 14.45 286.1 14.35 L284.45 14.0 280.6 13.6 278.75 13.0 276.1 13.5 272.1 14.0 267.85 14.75 266.85 14.65 266.8 14.7 266.35 15.8 266.2 16.15 266.2 16.25 266.15 16.3 Q265.4 18.15 265.2 19.1 L264.0 24.75 Q263.35 27.1 262.8 30.4 L261.85 36.0 261.85 39.9 Q264.75 39.7 266.4 39.85 L272.85 40.65 276.25 40.95 Q278.65 41.2 278.75 41.5 L279.35 42.6 281.65 45.2 283.35 46.85 282.75 49.85 Q282.1 52.7 282.1 53.55 282.1 54.95 283.1 57.75 284.1 60.55 284.1 62.15 L283.35 65.6 Q283.35 65.95 284.45 67.5 L286.0 69.85 Q286.65 71.05 288.6 71.25 290.45 71.4 291.15 72.0 291.6 72.4 291.6 73.1 291.6 74.0 290.45 73.9 L285.5 73.65 Q284.75 73.65 283.8 74.95 L282.6 76.65 Q285.85 77.55 287.15 78.45 288.85 79.6 288.85 81.5 L288.7 82.8 287.0 84.5 Q289.35 86.25 291.2 88.45 293.35 91.05 293.6 93.0 L293.6 95.25 Q293.7 95.5 293.1 95.5 292.5 95.5 292.05 93.9 L291.45 92.0 Q290.3 90.85 289.75 90.5 288.75 89.9 286.35 89.25 285.35 90.65 285.15 93.15 L284.85 97.6 284.2 97.75 Q278.4 94.9 277.0 94.65 277.1 95.4 278.25 97.05 279.35 98.6 279.35 99.35 L279.45 100.15 279.1 100.5 269.25 99.9 276.35 105.45 Q280.45 107.75 289.25 109.45 L289.35 109.0 289.9 109.55 290.95 109.75 291.15 109.75 Q293.1 109.75 293.85 107.8 294.4 105.4 294.7 104.5 L295.95 101.85 297.45 99.0 299.3 96.3 Q300.6 94.65 301.85 93.6 L304.3 90.75 305.35 89.4 307.95 78.25 309.3 70.8 310.5 63.6 311.4 60.25 312.1 54.4 312.35 47.55 Q312.35 42.45 311.2 38.4 310.25 34.9 307.35 28.5 306.2 26.0 302.95 23.1 L299.0 19.75 Q297.7 18.3 293.85 17.15 L289.75 16.0 288.4 14.95 M290.55 44.9 Q291.65 44.4 293.15 44.6 L297.25 45.15 Q298.85 45.2 300.55 46.2 302.15 47.15 302.15 47.8 L301.85 48.1 300.75 48.35 Q302.7 49.1 304.55 51.7 305.3 52.85 305.5 53.75 L305.55 55.75 305.55 56.7 Q305.5 57.4 305.1 57.4 304.7 57.4 304.6 56.9 L304.4 56.05 303.4 54.85 301.75 53.55 301.5 53.4 301.5 53.6 301.4 54.35 300.95 55.35 300.05 56.15 298.65 56.7 Q297.45 56.7 296.85 55.8 296.35 55.1 296.35 54.1 296.35 53.1 296.6 52.85 L297.55 52.05 297.4 52.0 296.2 51.75 295.05 51.85 294.2 51.95 293.95 54.45 294.05 55.55 294.5 56.3 294.8 57.15 Q295.2 57.65 295.75 57.9 L296.3 58.05 296.95 58.45 296.95 58.6 296.8 58.7 296.75 58.7 296.6 58.85 294.55 59.05 Q293.6 59.05 292.2 57.5 291.0 56.2 290.75 55.55 L290.5 54.6 Q290.25 54.0 289.75 53.8 L287.95 52.5 287.9 52.55 287.65 52.5 Q287.55 52.6 287.55 52.35 L287.6 52.25 287.5 52.15 287.55 51.85 287.8 51.85 288.4 51.1 289.0 50.6 289.75 50.15 291.25 49.3 292.6 48.4 Q291.95 47.9 290.0 47.3 288.55 46.8 288.55 46.15 288.55 45.75 289.15 45.45 L290.55 44.9 M283.2 119.05 Q281.25 119.95 280.75 121.25 280.0 123.45 278.75 125.0 277.1 127.15 273.85 128.75 L269.35 130.65 Q265.35 132.5 261.0 136.85 258.35 139.5 256.25 142.25 L265.1 142.0 270.75 142.3 272.1 140.05 277.1 131.5 279.0 128.3 280.6 125.35 281.8 122.05 Q282.25 120.85 282.85 120.05 L283.2 119.05 M291.6 236.75 Q290.05 235.6 288.65 233.45 L286.6 230.4 Q285.65 229.3 283.5 224.65 281.85 221.2 281.35 219.25 L276.95 220.4 Q272.15 221.35 270.7 222.35 L268.35 224.4 262.75 228.55 257.5 232.85 253.35 237.0 Q250.6 239.9 248.2 241.4 L241.7 245.3 Q238.3 247.35 235.85 249.5 L227.95 258.45 Q225.8 260.95 223.15 262.9 222.85 263.55 221.65 264.05 L221.15 264.25 219.25 265.1 217.85 266.55 216.6 268.1 Q215.15 270.3 213.6 274.1 L211.15 280.15 210.8 281.0 212.0 281.0 227.95 280.85 Q234.2 280.85 238.0 281.8 L242.75 283.25 Q245.9 283.9 248.2 284.85 L249.05 284.65 251.35 284.4 Q253.25 284.0 255.0 283.0 257.35 281.55 259.1 279.4 L261.8 275.9 264.2 272.25 Q266.85 267.45 269.7 264.75 272.05 262.5 274.95 261.2 L274.35 261.1 Q280.4 259.1 285.85 256.15 L293.75 251.5 296.6 248.95 Q295.45 244.05 295.2 242.15 L293.65 239.6 Q292.25 237.25 291.6 236.75 M273.25 263.5 Q274.65 262.9 277.85 261.85 L282.2 260.4 Q287.0 258.45 289.85 256.15 L291.75 255.05 293.5 254.05 294.9 252.9 295.55 252.3 Q296.0 251.9 296.5 251.95 L296.55 252.4 295.65 256.55 Q295.4 258.65 294.8 260.55 L294.15 262.6 293.15 264.7 292.5 265.85 293.55 264.9 294.45 263.8 296.85 261.35 298.7 259.15 298.8 259.05 298.85 259.0 299.05 258.75 299.65 257.7 299.7 257.9 300.25 257.15 Q301.5 255.15 301.5 253.3 301.5 252.4 300.85 250.85 300.05 248.9 299.0 248.9 L298.55 249.25 Q297.55 249.4 296.1 251.0 L295.85 251.5 295.35 251.9 294.8 252.2 294.2 252.75 294.2 252.7 289.85 255.5 Q285.5 258.05 280.45 259.75 L279.85 259.95 Q275.05 261.75 271.85 264.4 272.9 263.6 273.25 263.5 M274.5 271.05 L275.65 272.3 277.4 274.7 278.4 277.15 278.9 279.0 279.9 278.35 281.8 277.45 285.05 275.3 Q286.4 274.25 288.65 273.4 291.0 272.55 293.3 272.25 L297.7 271.8 301.3 271.1 305.15 269.65 305.7 269.45 305.35 269.5 302.8 269.85 302.85 270.05 301.7 270.0 293.1 271.0 Q287.8 271.0 284.65 270.0 L284.5 269.95 283.45 269.55 Q282.65 269.05 281.8 269.05 L276.8 269.4 273.45 269.85 274.5 271.05 M308.45 253.1 Q308.45 249.25 304.45 249.25 L303.9 249.35 Q304.55 251.0 304.55 253.7 L303.85 258.6 302.75 261.55 302.85 261.4 306.65 257.25 Q308.45 254.85 308.45 253.1 M299.1 265.25 Q297.7 265.95 297.1 266.35 294.55 268.0 294.2 269.7 L301.25 268.65 300.35 265.25 300.25 264.7 Q299.6 265.0 299.1 265.25" fill="#000000" fill-rule="evenodd" stroke="none"/>
      <path d="M283.2 119.05 L282.85 120.05 Q282.25 120.85 281.8 122.05 L280.6 125.35 279.0 128.3 277.1 131.5 272.1 140.05 270.75 142.3 265.1 142.0 256.25 142.25 Q258.35 139.5 261.0 136.85 265.35 132.5 269.35 130.65 L273.85 128.75 Q277.1 127.15 278.75 125.0 280.0 123.45 280.75 121.25 281.25 119.95 283.2 119.05 M290.55 44.9 L289.15 45.45 Q288.55 45.75 288.55 46.15 288.55 46.8 290.0 47.3 291.95 47.9 292.6 48.4 L291.25 49.3 289.75 50.15 289.0 50.6 288.4 51.1 287.8 51.85 287.55 51.85 287.5 52.15 287.6 52.25 287.55 52.35 Q287.55 52.6 287.65 52.5 L287.9 52.55 287.95 52.5 289.75 53.8 Q290.25 54.0 290.5 54.6 L290.75 55.55 Q291.0 56.2 292.2 57.5 293.6 59.05 294.55 59.05 L296.6 58.85 296.75 58.7 296.8 58.7 296.95 58.6 296.95 58.45 296.3 58.05 295.75 57.9 Q295.2 57.65 294.8 57.15 L294.5 56.3 294.05 55.55 293.95 54.45 294.2 51.95 295.05 51.85 296.2 51.75 297.4 52.0 297.55 52.05 296.6 52.85 Q296.35 53.1 296.35 54.1 296.35 55.1 296.85 55.8 297.45 56.7 298.65 56.7 L300.05 56.15 300.95 55.35 301.4 54.35 301.5 53.6 301.5 53.4 301.75 53.55 303.4 54.85 304.4 56.05 304.6 56.9 Q304.7 57.4 305.1 57.4 305.5 57.4 305.55 56.7 L305.55 55.75 305.5 53.75 Q305.3 52.85 304.55 51.7 302.7 49.1 300.75 48.35 L301.85 48.1 302.15 47.8 Q302.15 47.15 300.55 46.2 298.85 45.2 297.25 45.15 L293.15 44.6 Q291.65 44.4 290.55 44.9 M288.4 14.95 L289.75 16.0 293.85 17.15 Q297.7 18.3 299.0 19.75 L302.95 23.1 Q306.2 26.0 307.35 28.5 310.25 34.9 311.2 38.4 312.35 42.45 312.35 47.55 L312.1 54.4 311.4 60.25 310.5 63.6 309.3 70.8 307.95 78.25 305.35 89.4 304.3 90.75 301.85 93.6 Q300.6 94.65 299.3 96.3 L297.45 99.0 295.95 101.85 294.7 104.5 Q294.4 105.4 293.85 107.8 293.1 109.75 291.15 109.75 L290.95 109.75 289.9 109.55 289.35 109.0 289.25 109.45 Q280.45 107.75 276.35 105.45 L269.25 99.9 279.1 100.5 279.45 100.15 279.35 99.35 Q279.35 98.6 278.25 97.05 277.1 95.4 277.0 94.65 278.4 94.9 284.2 97.75 L284.85 97.6 285.15 93.15 Q285.35 90.65 286.35 89.25 288.75 89.9 289.75 90.5 290.3 90.85 291.45 92.0 L292.05 93.9 Q292.5 95.5 293.1 95.5 293.7 95.5 293.6 95.25 L293.6 93.0 Q293.35 91.05 291.2 88.45 289.35 86.25 287.0 84.5 L288.7 82.8 288.85 81.5 Q288.85 79.6 287.15 78.45 285.85 77.55 282.6 76.65 L283.8 74.95 Q284.75 73.65 285.5 73.65 L290.45 73.9 Q291.6 74.0 291.6 73.1 291.6 72.4 291.15 72.0 290.45 71.4 288.6 71.25 286.65 71.05 286.0 69.85 L284.45 67.5 Q283.35 65.95 283.35 65.6 L284.1 62.15 Q284.1 60.55 283.1 57.75 282.1 54.95 282.1 53.55 282.1 52.7 282.75 49.85 L283.35 46.85 281.65 45.2 279.35 42.6 278.75 41.5 Q278.65 41.2 276.25 40.95 L272.85 40.65 266.4 39.85 Q264.75 39.7 261.85 39.9 L261.85 36.0 262.8 30.4 Q263.35 27.1 264.0 24.75 L265.2 19.1 Q265.4 18.15 266.15 16.3 L266.2 16.25 266.2 16.15 266.35 15.8 266.8 14.7 266.85 14.65 267.85 14.75 272.1 14.0 276.1 13.5 278.75 13.0 280.6 13.6 284.45 14.0 286.1 14.35 Q287.6 14.45 288.4 14.95 M330.6 311.5 Q331.0 312.2 331.0 314.15 331.0 316.5 330.35 317.15 L329.25 317.6 329.35 317.3 329.5 315.35 Q329.5 313.15 329.1 312.1 L328.25 310.4 328.2 310.35 Q330.1 310.65 330.6 311.5 M340.5 295.85 L339.55 295.1 342.6 295.0 Q343.9 295.8 344.2 296.9 L344.25 299.1 344.25 299.5 344.25 299.9 344.2 300.4 Q344.05 301.95 343.55 302.9 342.95 304.0 341.45 305.1 L341.45 305.05 341.55 304.75 342.0 303.45 Q342.3 302.65 342.3 300.7 342.3 298.4 341.75 297.35 L340.5 295.85 M327.3 293.95 L327.4 293.95 329.6 294.25 332.1 294.75 333.3 294.9 331.3 295.05 326.05 295.65 323.45 295.3 321.45 294.8 319.85 294.25 319.65 294.15 325.05 293.9 325.0 293.95 326.05 293.8 326.95 293.9 327.3 293.95 M333.6 283.1 Q329.5 284.3 326.25 284.3 L319.65 283.6 317.0 282.65 314.45 282.1 318.1 281.85 320.7 282.0 325.7 282.15 333.35 282.75 335.1 282.7 333.6 283.1 M342.5 283.3 L341.45 282.55 343.7 282.65 345.35 283.25 345.5 283.3 345.85 283.35 Q348.15 283.8 348.35 286.9 L348.5 287.95 Q348.5 289.4 348.1 290.1 L348.1 289.9 347.8 290.35 347.65 290.45 347.6 290.55 Q347.35 290.55 347.25 290.75 L346.95 291.0 346.95 291.05 345.35 291.35 344.4 291.45 Q345.05 290.3 345.05 289.0 L344.9 287.2 Q344.7 286.15 344.1 285.2 343.2 283.9 342.5 283.3 M339.55 272.05 L339.6 270.2 Q340.85 271.8 340.85 273.15 340.85 275.0 338.45 275.95 L338.65 274.9 338.45 273.55 Q339.35 272.85 339.55 272.05 M330.4 264.7 L330.1 264.85 Q328.35 265.2 326.5 265.95 323.1 267.35 321.55 267.35 L315.15 267.05 321.15 265.9 330.4 264.7 M332.95 264.65 L333.7 264.55 Q334.85 264.55 335.85 265.15 L336.45 265.4 Q337.65 266.1 338.2 267.55 L338.15 267.55 338.45 268.9 338.5 269.8 Q338.5 271.25 337.45 272.3 L337.35 272.45 337.15 272.55 337.05 272.7 Q336.85 272.9 336.65 272.9 L336.3 272.8 335.8 273.05 335.55 273.45 335.25 273.55 Q336.25 271.85 336.25 270.3 L336.0 268.3 Q335.65 266.95 334.9 266.15 L334.05 265.25 Q333.55 264.85 332.95 264.65 M308.45 253.1 Q308.45 254.85 306.65 257.25 L302.85 261.4 302.75 261.55 303.85 258.6 304.55 253.7 Q304.55 251.0 303.9 249.35 L304.45 249.25 Q308.45 249.25 308.45 253.1 M274.5 271.05 L273.45 269.85 276.8 269.4 281.8 269.05 Q282.65 269.05 283.45 269.55 L284.5 269.95 284.65 270.0 Q287.8 271.0 293.1 271.0 L301.7 270.0 302.85 270.05 302.8 269.85 305.35 269.5 305.7 269.45 305.15 269.65 301.3 271.1 297.7 271.8 293.3 272.25 Q291.0 272.55 288.65 273.4 286.4 274.25 285.05 275.3 L281.8 277.45 279.9 278.35 278.9 279.0 278.4 277.15 277.4 274.7 275.65 272.3 274.5 271.05 M273.25 263.5 Q272.9 263.6 271.85 264.4 275.05 261.75 279.85 259.95 L280.45 259.75 Q285.5 258.05 289.85 255.5 L294.2 252.7 294.2 252.75 294.8 252.2 295.35 251.9 295.85 251.5 296.1 251.0 Q297.55 249.4 298.55 249.25 L299.0 248.9 Q300.05 248.9 300.85 250.85 301.5 252.4 301.5 253.3 301.5 255.15 300.25 257.15 L299.7 257.9 299.65 257.7 299.05 258.75 298.85 259.0 298.8 259.05 298.7 259.15 296.85 261.35 294.45 263.8 293.55 264.9 292.5 265.85 293.15 264.7 294.15 262.6 294.8 260.55 Q295.4 258.65 295.65 256.55 L296.55 252.4 296.5 251.95 Q296.0 251.9 295.55 252.3 L294.9 252.9 293.5 254.05 291.75 255.05 289.85 256.15 Q287.0 258.45 282.2 260.4 L277.85 261.85 Q274.65 262.9 273.25 263.5" fill="url(#gradient2)" fill-rule="evenodd" stroke="none"/>
      <path d="M267.05 10.6 L267.55 9.15 Q268.1 7.95 268.85 7.7 271.1 6.9 272.0 10.15 272.45 11.8 272.45 13.7 L270.7 25.2 Q269.5 32.4 269.15 35.55 273.2 36.25 278.15 38.3 279.35 38.85 280.35 39.65 283.6 41.45 284.1 47.9 284.1 52.95 283.75 55.9 L284.35 59.5 284.95 63.45 Q284.95 66.55 284.45 68.4 L283.7 70.35 Q285.35 72.3 287.5 72.3 L288.6 72.15 289.2 72.75 Q289.2 73.35 288.55 73.9 287.9 74.45 287.2 74.45 L285.35 74.2 Q285.8 74.8 285.8 75.65 283.65 81.7 281.95 81.7 280.9 81.7 280.55 80.35 L280.45 78.9 Q280.45 73.45 283.15 73.15 L283.65 73.15 Q283.1 72.5 282.85 71.6 L281.75 72.65 Q281.35 72.15 281.1 70.5 L280.9 68.5 Q280.9 66.85 279.8 60.2 278.95 55.2 279.85 52.05 279.6 52.4 279.05 54.15 278.65 55.45 277.8 55.45 275.25 55.45 275.2 53.15 L275.65 49.95 275.15 47.1 274.7 44.65 274.9 42.5 273.75 42.35 273.2 43.5 Q272.45 44.55 271.3 44.55 L268.4 44.4 267.45 49.25 Q266.1 55.25 263.85 60.9 L263.4 61.0 263.4 60.15 263.5 58.95 Q263.5 58.3 263.1 57.7 L262.65 56.85 262.1 57.5 Q261.45 58.15 260.65 58.15 259.05 58.15 258.6 56.7 L258.5 55.2 Q258.5 54.45 260.25 43.25 L260.55 41.3 Q259.0 41.1 258.35 40.25 L257.95 39.15 Q257.95 36.5 261.4 35.65 L262.45 27.9 Q262.65 25.7 263.9 20.95 L265.45 14.1 Q265.5 13.7 266.05 12.75 L267.05 10.6 M271.2 89.9 Q272.7 89.35 273.85 90.45 L275.15 91.7 Q275.7 91.7 276.2 91.2 276.65 90.65 277.25 90.65 278.05 90.65 279.25 91.35 280.5 92.05 281.2 92.05 281.85 92.05 282.95 90.9 284.05 89.7 285.35 89.7 L286.55 89.9 287.6 90.55 287.65 90.35 287.7 91.05 285.8 93.15 Q283.7 95.3 283.1 97.05 282.2 99.75 282.2 103.15 L282.3 105.8 284.75 107.55 289.05 110.65 Q292.75 113.55 292.75 114.3 292.75 115.1 292.3 115.7 291.8 116.35 290.9 116.35 289.9 116.35 284.25 114.7 L282.05 114.05 Q281.6 114.85 280.9 114.85 276.6 114.85 274.5 109.45 L272.9 107.55 272.35 107.0 Q271.65 107.7 270.4 107.7 266.2 107.7 266.2 97.3 266.2 96.0 266.8 94.3 266.95 93.9 268.2 93.4 269.45 92.95 269.6 92.45 L269.8 91.25 Q270.15 90.3 271.2 89.9 M288.25 54.2 Q288.25 53.0 288.45 52.85 289.0 52.25 291.2 53.55 L290.5 54.0 Q291.05 56.05 294.2 59.9 L299.1 65.8 299.0 66.05 298.1 66.15 Q294.8 66.15 291.25 60.3 288.25 55.5 288.25 54.2 M284.3 118.05 Q284.3 122.0 280.5 126.8 276.75 131.5 270.35 135.65 267.2 137.75 264.55 140.05 L260.0 144.3 257.3 148.7 Q255.05 152.4 253.85 152.4 252.5 152.4 251.6 149.95 L250.95 147.35 Q250.95 145.3 257.75 138.25 264.05 131.6 265.85 130.75 272.45 127.7 276.8 122.6 L282.9 114.85 283.85 116.65 284.3 118.05 M273.85 283.85 Q272.4 283.85 271.8 282.9 271.45 282.4 271.45 281.75 271.45 279.2 277.65 275.9 282.45 273.3 286.15 272.35 296.15 270.0 301.95 269.4 316.1 267.9 316.1 273.45 316.1 274.95 314.8 274.95 L311.25 274.55 308.2 274.05 308.2 274.15 292.75 276.2 Q286.1 277.35 283.55 278.4 L278.85 281.35 Q274.95 283.85 273.85 283.85" fill="#000000" fill-opacity="0.101960786" fill-rule="evenodd" stroke="none"/>
    </g>
    <linearGradient gradientTransform="matrix(0.0213, 0.1863, -0.0586, 0.0067, 293.75, 166.9)" gradientUnits="userSpaceOnUse" id="gradient2" spreadMethod="pad" x1="-819.2" x2="819.2">
      <stop offset="0.0" stop-color="#cca399"/>
      <stop offset="1.0" stop-color="#9e5f50"/>
    </linearGradient>
    <g id="sprite3" transform="matrix(1.0, 0.0, 0.0, 1.0, 0.0, 0.0)">
      <use ffdec:characterId="3523" height="359.6" transform="matrix(1.0, 0.0, 0.0, 1.0, 0.0, 0.0)" width="640.0" xlink:href="#shape4"/>
    </g>
    <g id="shape4" transform="matrix(1.0, 0.0, 0.0, 1.0, 0.0, 0.0)">
      <path d="M0.0 0.0 L640.0 0.0 640.0 359.6 0.0 359.6 0.0 0.0" fill="url(#gradient3)" fill-rule="evenodd" stroke="none"/>
    </g>
    <linearGradient gradientTransform="matrix(-0.136, -0.2777, 0.1969, -0.0964, 320.0, 179.8)" gradientUnits="userSpaceOnUse" id="gradient3" spreadMethod="pad" x1="-819.2" x2="819.2">
      <stop offset="0.0" stop-color="#e6a000"/>
      <stop offset="1.0" stop-color="#2c006f"/>
    </linearGradient>
    <g id="sprite4" transform="matrix(1.0, 0.0, 0.0, 1.0, 0.0, -19.75)">
      <use ffdec:characterId="4127" height="381.5" transform="matrix(1.0, 0.0, 0.0, 1.0, 0.0, 19.75)" width="295.0" xlink:href="#shape5"/>
    </g>
    <g id="shape5" transform="matrix(1.0, 0.0, 0.0, 1.0, 0.0, -19.75)">
      <path d="M260.55 392.9 L250.75 392.5 Q242.45 392.5 202.9 396.9 163.3 401.25 148.0 401.25 106.55 401.25 83.0 398.15 54.0 394.4 36.8 384.5 18.05 373.75 9.15 353.6 0.0 332.7 0.0 298.75 0.0 266.6 5.9 227.15 10.35 197.35 19.5 155.9 22.75 141.2 30.7 120.75 34.0 112.25 45.75 84.65 50.95 72.35 54.1 66.35 59.55 56.0 66.25 48.65 71.0 43.45 75.1 39.95 79.0 36.6 87.25 30.65 95.45 24.75 108.85 24.95 L120.1 25.45 131.5 24.9 Q139.95 24.9 169.15 27.85 L185.55 29.75 185.5 27.15 Q185.5 24.1 186.3 22.05 187.8 18.15 191.5 20.9 L191.8 23.8 193.75 22.4 192.15 30.75 Q205.75 32.95 206.75 35.15 L206.45 36.7 Q206.05 37.65 204.5 37.65 L191.65 35.7 Q192.2 39.85 193.8 48.15 196.3 61.4 197.0 62.9 201.95 72.2 212.7 80.6 217.15 84.1 218.65 85.9 221.0 88.8 221.0 92.4 221.0 95.15 218.25 97.15 213.9 100.3 211.0 104.65 213.55 107.05 215.4 111.5 217.35 116.15 217.0 119.4 216.7 122.3 217.05 126.6 L218.0 134.4 219.6 141.55 Q220.85 146.6 221.0 149.4 221.6 158.55 226.4 159.35 L229.6 159.95 Q231.0 160.7 231.0 163.5 231.0 164.55 229.5 169.15 228.0 173.7 228.0 175.15 228.0 177.3 228.75 183.3 229.55 190.0 230.5 194.65 L232.8 204.45 Q234.0 209.65 234.0 213.0 234.0 217.4 231.25 221.85 228.5 226.35 228.5 226.9 228.5 228.55 238.15 238.4 247.75 248.3 247.75 252.4 247.75 253.05 246.25 256.15 L245.3 258.3 244.9 261.9 Q245.35 264.0 247.4 265.9 L253.25 270.35 Q261.75 276.7 261.75 285.15 261.75 288.3 260.4 291.2 259.0 294.1 259.0 296.4 259.0 296.85 263.4 301.85 267.75 307.9 267.75 313.4 267.75 314.65 266.75 318.45 265.75 322.25 265.75 323.5 265.75 325.4 267.25 328.35 268.75 331.35 268.75 334.4 268.75 335.65 267.65 340.05 266.5 344.4 266.5 345.65 266.5 353.4 272.35 372.75 L277.2 389.7 Q284.3 389.85 294.0 389.25 L294.15 389.6 295.0 390.5 292.6 393.05 Q289.05 395.25 281.5 395.25 L278.45 395.15 278.75 397.25 277.15 395.05 268.95 393.95 269.5 393.25 Q269.1 391.55 266.35 388.85 L269.0 389.15 274.15 389.6 Q270.45 381.75 267.05 368.75 262.25 350.3 262.25 341.15 262.25 339.9 263.25 337.8 264.25 335.65 264.25 334.4 264.25 332.5 262.25 328.7 L260.25 324.65 Q260.25 322.8 261.75 319.05 263.25 315.3 263.25 313.4 263.25 312.15 261.95 308.45 260.75 305.15 260.25 304.4 L257.2 301.75 257.25 302.65 256.75 312.75 256.25 320.25 Q256.25 321.5 257.25 327.0 258.25 332.5 258.25 333.75 L257.2 350.75 256.35 349.9 Q255.9 353.55 254.4 358.4 252.8 363.6 251.1 366.2 L251.45 368.2 Q252.7 374.4 254.3 379.55 255.85 384.55 257.55 388.05 259.0 391.0 260.55 392.9 M189.6 59.45 L189.7 60.75 Q190.2 67.9 190.75 72.65 190.85 73.9 198.2 82.2 205.5 90.45 205.5 92.9 L203.5 100.3 Q201.5 108.05 201.5 109.75 201.5 113.1 205.15 122.85 208.2 131.1 209.5 133.4 212.35 138.6 213.2 144.75 213.75 148.45 213.75 155.9 213.9 169.3 217.85 180.9 221.75 192.4 221.75 201.25 221.75 205.7 217.75 217.1 213.75 228.5 213.75 231.65 213.75 232.85 220.5 238.1 226.1 242.45 228.5 243.9 229.45 244.5 239.55 248.5 L240.9 249.1 233.25 240.9 Q223.25 230.35 223.25 227.4 223.25 225.6 226.15 220.3 229.0 215.05 229.0 213.15 229.0 211.85 226.0 199.1 223.0 186.35 223.0 175.25 223.0 173.45 223.65 170.4 224.2 167.5 225.0 165.15 L220.25 161.1 Q217.45 158.75 217.25 157.4 L216.5 153.65 216.0 149.9 Q215.8 147.1 214.6 142.05 213.3 136.55 213.0 134.15 212.0 126.05 212.0 118.4 211.9 112.25 208.95 110.55 207.35 109.65 206.9 109.0 206.0 107.7 206.0 104.75 206.0 101.8 210.9 97.85 215.75 93.85 215.75 92.15 215.75 91.4 211.9 87.55 L203.35 79.15 Q190.7 66.35 189.75 60.15 L189.6 59.45 M255.25 291.2 Q257.25 286.6 257.25 285.5 257.25 280.7 248.75 273.0 L243.85 268.35 243.0 272.65 Q240.5 284.7 240.5 287.0 240.5 289.1 243.1 290.45 L248.9 292.75 Q251.7 293.85 253.6 295.35 L255.25 291.2" fill="#000000" fill-rule="evenodd" stroke="none"/>
      <path d="M268.95 393.95 L268.35 394.85 Q267.45 396.0 266.0 396.0 263.15 396.0 260.55 392.9 259.0 391.0 257.55 388.05 255.85 384.55 254.3 379.55 252.7 374.4 251.45 368.2 L251.1 366.2 Q252.8 363.6 254.4 358.4 255.9 353.55 256.35 349.9 L257.2 350.75 258.25 333.75 Q258.25 332.5 257.25 327.0 256.25 321.5 256.25 320.25 L256.75 312.75 257.25 302.65 257.2 301.75 260.25 304.4 Q260.75 305.15 261.95 308.45 263.25 312.15 263.25 313.4 263.25 315.3 261.75 319.05 260.25 322.8 260.25 324.65 L262.25 328.7 Q264.25 332.5 264.25 334.4 264.25 335.65 263.25 337.8 262.25 339.9 262.25 341.15 262.25 350.3 267.05 368.75 270.45 381.75 274.15 389.6 L269.0 389.15 266.35 388.85 Q269.1 391.55 269.5 393.25 L268.95 393.95 M255.25 291.2 L253.6 295.35 Q251.7 293.85 248.9 292.75 L243.1 290.45 Q240.5 289.1 240.5 287.0 240.5 284.7 243.0 272.65 L243.85 268.35 248.75 273.0 Q257.25 280.7 257.25 285.5 257.25 286.6 255.25 291.2 M189.6 59.45 L189.75 60.15 Q190.7 66.35 203.35 79.15 L211.9 87.55 Q215.75 91.4 215.75 92.15 215.75 93.85 210.9 97.85 206.0 101.8 206.0 104.75 206.0 107.7 206.9 109.0 207.35 109.65 208.95 110.55 211.9 112.25 212.0 118.4 212.0 126.05 213.0 134.15 213.3 136.55 214.6 142.05 215.8 147.1 216.0 149.9 L216.5 153.65 217.25 157.4 Q217.45 158.75 220.25 161.1 L225.0 165.15 Q224.2 167.5 223.65 170.4 223.0 173.45 223.0 175.25 223.0 186.35 226.0 199.1 229.0 211.85 229.0 213.15 229.0 215.05 226.15 220.3 223.25 225.6 223.25 227.4 223.25 230.35 233.25 240.9 L240.9 249.1 239.55 248.5 Q229.45 244.5 228.5 243.9 226.1 242.45 220.5 238.1 213.75 232.85 213.75 231.65 213.75 228.5 217.75 217.1 221.75 205.7 221.75 201.25 221.75 192.4 217.85 180.9 213.9 169.3 213.75 155.9 213.75 148.45 213.2 144.75 212.35 138.6 209.5 133.4 208.2 131.1 205.15 122.85 201.5 113.1 201.5 109.75 201.5 108.05 203.5 100.3 L205.5 92.9 Q205.5 90.45 198.2 82.2 190.85 73.9 190.75 72.65 190.2 67.9 189.7 60.75 L189.6 59.45" fill="url(#gradient4)" fill-rule="evenodd" stroke="none"/>
    </g>
    <linearGradient gradientTransform="matrix(-0.1115, -5.0E-4, 2.0E-4, -0.0328, 423.45, 158.15)" gradientUnits="userSpaceOnUse" id="gradient4" spreadMethod="pad" x1="-819.2" x2="819.2">
      <stop offset="0.0" stop-color="#dd9a00"/>
      <stop offset="1.0" stop-color="#aa3300"/>
    </linearGradient>
    <g id="sprite5" transform="matrix(1.0, 0.0, 0.0, 1.0, 0.0, 0.0)">
      <use ffdec:characterId="3549" height="379.05" transform="matrix(1.0, 0.0, 0.0, 1.0, 0.0, 0.0)" width="657.35" xlink:href="#shape6"/>
    </g>
    <g id="shape6" transform="matrix(1.0, 0.0, 0.0, 1.0, 0.0, 0.0)">
      <path d="M657.35 379.05 L0.0 379.05 0.0 0.0 657.35 0.0 657.35 379.05" fill="url(#gradient5)" fill-rule="evenodd" stroke="none"/>
    </g>
    <linearGradient gradientTransform="matrix(-0.4492, -0.3248, 0.1353, -0.1871, 328.7, 189.5)" gradientUnits="userSpaceOnUse" id="gradient5" spreadMethod="pad" x1="-819.2" x2="819.2">
      <stop offset="0.0" stop-color="#dea900" stop-opacity="0.4"/>
      <stop offset="1.0" stop-color="#de8400" stop-opacity="0.0"/>
    </linearGradient>
    <g id="sprite6" transform="matrix(1.0, 0.0, 0.0, 1.0, 265.1, 150.0)">
      <use ffdec:characterId="3477" height="300.0" transform="matrix(1.0, 0.0, 0.0, 1.0, -265.1, -150.0)" width="533.0" xlink:href="#shape7"/>
    </g>
    <g id="shape7" transform="matrix(1.0, 0.0, 0.0, 1.0, 265.1, 150.0)">
      <path d="M267.9 -150.0 L267.9 150.0 -265.1 150.0 -265.1 -150.0 267.9 -150.0 Z" fill="none" stroke="#ff0000" stroke-linecap="round" stroke-linejoin="round" stroke-width="0.05"/>
      <path d="M1.4 -16.05 L1.45 -16.05 Q9.35 -16.05 14.95 -11.35 20.55 -6.65 20.55 0.0 L39.5 0.0 M20.55 0.0 Q20.55 6.65 14.95 11.35 9.35 16.05 1.45 16.05 L1.4 16.05 1.4 21.45 M-36.65 0.0 L-17.55 0.0 -17.55 -0.05 Q-17.55 -6.65 -11.95 -11.35 -6.4 -16.05 1.4 -16.05 M1.4 16.05 Q-6.4 16.05 -11.95 11.35 -17.55 6.65 -17.55 0.0" fill="none" stroke="#ff0000" stroke-linecap="round" stroke-linejoin="round" stroke-opacity="0.2509804" stroke-width="0.05"/>
      <path d="M1.4 -16.05 L1.4 -21.4" fill="none" stroke="#ff0000" stroke-linecap="round" stroke-linejoin="round" stroke-opacity="0.2509804" stroke-width="1.0"/>
      <path d="M181.15 141.4 L181.15 123.6 191.05 123.6 191.05 141.4 181.15 141.4" fill="#ffffff" fill-rule="evenodd" stroke="none"/>
      <path d="M250.55 123.6 L260.45 123.6 260.45 141.4 260.35 141.4 250.55 141.4 250.55 123.6" fill="#000000" fill-rule="evenodd" stroke="none"/>
      <path d="M230.7 123.6 L240.6 123.6 240.6 141.4 230.7 141.4 230.7 123.6" fill="#ff0000" fill-rule="evenodd" stroke="none"/>
      <path d="M191.05 123.6 L201.0 123.6 201.0 141.4 191.05 141.4 191.05 123.6" fill="#ffff00" fill-rule="evenodd" stroke="none"/>
      <path d="M201.0 123.6 L210.9 123.6 210.9 141.4 201.0 141.4 201.0 123.6" fill="#00ffff" fill-rule="evenodd" stroke="none"/>
      <path d="M210.9 123.6 L220.8 123.6 220.8 141.4 210.9 141.4 210.9 123.6" fill="#00ff00" fill-rule="evenodd" stroke="none"/>
      <path d="M220.8 123.6 L230.7 123.6 230.7 141.4 220.8 141.4 220.8 123.6" fill="#ff00ff" fill-rule="evenodd" stroke="none"/>
      <path d="M240.6 123.6 L250.55 123.6 250.55 141.4 240.6 141.4 240.6 123.6" fill="#0000ff" fill-rule="evenodd" stroke="none"/>
      <path d="M260.35 141.4 L260.35 145.4 181.1 145.4 181.1 141.4 181.15 141.4 191.05 141.4 201.0 141.4 210.9 141.4 220.8 141.4 230.7 141.4 240.6 141.4 250.55 141.4 260.35 141.4" fill="url(#gradient6)" fill-rule="evenodd" stroke="none"/>
    </g>
    <linearGradient gradientTransform="matrix(0.0484, 0.0, 0.0, 0.0024, 220.7, 143.35)" gradientUnits="userSpaceOnUse" id="gradient6" spreadMethod="pad" x1="-819.2" x2="819.2">
      <stop offset="0.0" stop-color="#ffffff"/>
      <stop offset="1.0" stop-color="#000000"/>
    </linearGradient>
  </defs>
</svg>
