<?xml version="1.0" encoding="UTF-8" standalone="no"?>
<svg xmlns:ffdec="https://www.free-decompiler.com/flash" xmlns:xlink="http://www.w3.org/1999/xlink" ffdec:objectType="frame" height="2021.0px" width="4592.9px" xmlns="http://www.w3.org/2000/svg">
  <g transform="matrix(2.0, 0.0, 0.0, 2.0, 2126.0, 970.4)">
    <use ffdec:characterId="4051" height="485.2" transform="matrix(1.0, 0.0, 0.0, 1.0, -409.45, -259.6)" width="934.85" xlink:href="#shape0"/>
    <use ffdec:characterId="4050" height="368.0" transform="matrix(1.0, 0.0, 0.0, 1.0, -53.6, -187.0)" width="255.25" xlink:href="#sprite0"/>
    <use ffdec:characterId="4048" height="196.6" transform="matrix(1.0, 0.0, 0.0, 1.0, -205.0, -51.4)" width="121.95" xlink:href="#shape3"/>
    <filter id="filter1">
      <feColorMatrix in="SourceGraphic" result="filterResult4" type="matrix" values="0 0 0 0 0.9490196,0 0 0 0 1.0,0 0 0 0 0.5019608,0 0 0 1 0"/>
      <feConvolveMatrix divisor="16.0" in="filterResult4" kernelMatrix="1 1 1 1 1 1 1 1 1 1 1 1 1 1 1 1" order="4 4" result="filterResult5"/>
      <feConvolveMatrix divisor="16.0" in="filterResult5" kernelMatrix="1 1 1 1 1 1 1 1 1 1 1 1 1 1 1 1" order="4 4" result="filterResult6"/>
      <feComposite in="SourceGraphic" in2="filterResult6" operator="over" result="filterResult7"/>
    </filter>
    <use ffdec:characterId="4047" filter="url(#filter1)" height="1.65" transform="matrix(1.0, 0.0, 0.0, 1.0, -143.85, -27.85)" width="1.6" xlink:href="#sprite1"/>
    <filter id="filter2">
      <feColorMatrix in="SourceGraphic" result="filterResult8" type="matrix" values="0 0 0 0 0.9490196,0 0 0 0 1.0,0 0 0 0 0.5019608,0 0 0 1 0"/>
      <feConvolveMatrix divisor="16.0" in="filterResult8" kernelMatrix="1 1 1 1 1 1 1 1 1 1 1 1 1 1 1 1" order="4 4" result="filterResult9"/>
      <feConvolveMatrix divisor="16.0" in="filterResult9" kernelMatrix="1 1 1 1 1 1 1 1 1 1 1 1 1 1 1 1" order="4 4" result="filterResult10"/>
      <feComposite in="SourceGraphic" in2="filterResult10" operator="over" result="filterResult11"/>
    </filter>
    <use ffdec:characterId="4047" filter="url(#filter2)" height="1.65" transform="matrix(1.0, 0.0, 0.0, 1.0, 288.65, -107.6)" width="1.6" xlink:href="#sprite1"/>
    <filter id="filter3">
      <feColorMatrix in="SourceGraphic" result="filterResult12" type="matrix" values="0 0 0 0 0.9490196,0 0 0 0 1.0,0 0 0 0 0.5019608,0 0 0 1 0"/>
      <feConvolveMatrix divisor="16.0" in="filterResult12" kernelMatrix="1 1 1 1 1 1 1 1 1 1 1 1 1 1 1 1" order="4 4" result="filterResult13"/>
      <feConvolveMatrix divisor="16.0" in="filterResult13" kernelMatrix="1 1 1 1 1 1 1 1 1 1 1 1 1 1 1 1" order="4 4" result="filterResult14"/>
      <feComposite in="SourceGraphic" in2="filterResult14" operator="over" result="filterResult15"/>
    </filter>
    <use ffdec:characterId="4047" filter="url(#filter3)" height="1.65" transform="matrix(1.0, 0.0, 0.0, 1.0, 300.85, -107.1)" width="1.6" xlink:href="#sprite1"/>
    <use ffdec:characterId="4045" height="144.05" transform="matrix(-1.0, 0.0, -1.1778, 1.0458, 583.65, 129.25)" width="830.7" xlink:href="#sprite2"/>
    <use ffdec:characterId="4043" height="393.15" style="mix-blend-mode: overlay" transform="matrix(-1.2089, 0.0, 0.0, 1.2089, 509.9993, -259.0701)" width="726.2" xlink:href="#sprite3"/>
    <use ffdec:characterId="4041" height="300.0" transform="matrix(1.1916, 0.0, 0.0, 1.1916, -244.1863, -203.3861)" width="533.0" xlink:href="#sprite4"/>
    <use ffdec:characterId="4040" height="471.95" transform="matrix(1.0, 0.0, 0.0, 1.0, -315.25, -256.95)" width="823.95" xlink:href="#morphshape0"/>
  </g>
  <defs>
    <g id="shape0" transform="matrix(1.0, 0.0, 0.0, 1.0, 409.45, 259.6)">
      <path d="M524.9 225.1 L-408.95 225.1 -408.95 -259.1 524.9 -259.1 524.9 225.1" fill="url(#gradient0)" fill-rule="evenodd" stroke="none"/>
      <path d="M524.9 225.1 L-408.95 225.1 -408.95 -259.1 524.9 -259.1 524.9 225.1 Z" fill="none" stroke="#000000" stroke-linecap="round" stroke-linejoin="round" stroke-width="1.0"/>
      <path d="M156.85 -134.55 Q162.5 -137.15 164.05 -138.25 L166.9 -140.15 168.3 -140.9 168.7 -141.05 170.7 -141.35 173.0 -141.55 174.95 -141.35 Q176.0 -141.35 178.1 -142.2 L183.2 -142.55 Q185.35 -142.0 185.65 -141.05 186.0 -140.15 187.65 -139.3 L189.95 -138.75 191.45 -138.05 Q192.55 -137.2 192.25 -135.7 L191.65 -134.25 190.65 -132.25 Q190.3 -131.65 190.4 -130.3 190.35 -128.95 192.35 -126.25 192.95 -125.45 192.75 -124.35 L191.95 -122.3 190.2 -118.4 189.35 -116.4 188.85 -114.9 188.95 -114.6 188.5 -113.7 Q188.3 -113.4 188.2 -112.0 187.95 -109.9 187.4 -108.7 L187.15 -108.3 188.1 -108.75 188.95 -109.2 191.7 -109.65 Q193.5 -109.65 193.9 -109.25 194.35 -108.9 195.65 -108.9 L198.75 -109.25 200.2 -108.95 201.05 -108.7 203.2 -109.05 205.75 -109.65 207.3 -110.15 208.5 -110.35 209.3 -110.45 209.9 -110.9 209.9 -110.65 210.2 -110.55 211.3 -110.95 212.3 -111.4 215.2 -111.65 216.15 -111.9 217.75 -111.95 219.0 -112.1 222.05 -112.25 222.35 -112.25 222.35 -112.4 223.65 -112.3 225.2 -112.05 Q226.25 -112.15 227.85 -111.15 228.05 -110.95 229.3 -110.7 L230.55 -110.25 231.45 -109.15 Q233.25 -107.85 233.65 -106.8 L234.55 -105.4 234.55 -105.15 234.7 -104.75 235.05 -104.1 235.8 -102.8 236.15 -101.6 236.65 -98.9 236.8 -96.15 236.95 -93.45 237.3 -82.5 237.8 -79.75 238.25 -77.05 238.2 -71.6 238.05 -71.4 238.0 -71.3 Q237.5 -70.3 235.65 -68.95 L235.2 -68.65 232.35 -66.65 232.35 -66.4 232.3 -65.25 232.1 -63.05 Q231.8 -62.0 231.95 -60.45 L232.15 -58.65 232.2 -58.3 232.05 -54.3 231.6 -49.95 231.35 -47.85 Q231.15 -46.45 231.25 -45.55 L232.4 -32.5 232.6 -28.1 Q232.6 -26.65 233.15 -23.7 L234.25 -15.0 Q234.7 -12.05 234.25 -6.25 L234.15 -4.1 233.9 -1.85 233.35 0.3 232.95 1.55 232.95 1.65 Q233.25 1.55 233.4 2.0 L233.5 3.0 233.4 4.75 233.4 5.1 232.9 8.35 Q232.7 9.55 232.8 10.1 L232.85 11.0 232.7 11.9 232.3 13.6 Q232.05 14.75 232.6 15.45 233.45 16.75 232.65 19.0 231.55 22.1 231.5 22.7 231.45 23.95 232.0 26.2 L232.85 29.8 232.8 33.45 Q232.6 35.7 233.0 37.0 L233.6 40.6 233.45 41.5 233.25 42.35 233.6 44.15 Q233.4 49.6 233.5 51.25 L233.65 54.8 233.55 56.0 Q233.45 57.65 231.85 61.9 L231.6 62.55 228.35 70.0 225.75 74.85 Q224.6 77.25 224.05 79.9 223.65 81.8 223.4 85.0 L222.6 89.8 Q221.8 93.3 220.95 95.1 L218.2 100.0 216.0 103.5 214.8 107.9 214.6 110.65 214.65 113.45 214.65 116.25 214.35 119.0 213.25 124.5 212.15 130.0 Q211.55 133.35 211.8 135.6 L212.15 141.25 212.1 143.15 213.6 142.8 214.7 143.0 215.1 143.5 214.45 143.85 213.45 143.5 212.05 143.85 211.6 146.65 Q211.15 146.75 211.2 146.25 L211.35 145.55 211.4 144.05 210.95 144.15 210.25 143.9 205.95 144.85 197.5 145.75 188.3 144.95 184.7 144.15 Q180.65 142.9 179.05 142.6 L178.25 142.5 177.05 142.6 Q176.55 145.2 176.7 147.15 L176.3 147.3 Q176.0 145.35 176.35 142.65 L175.8 142.7 174.95 142.65 175.0 142.35 175.15 142.15 176.45 142.05 176.8 140.3 178.5 133.4 Q178.7 132.2 178.35 129.95 L178.1 128.15 Q177.85 127.0 177.3 126.5 175.3 124.7 175.1 123.0 L175.05 121.45 175.05 121.35 Q174.85 120.6 174.95 118.95 175.0 117.1 174.3 115.95 L173.05 113.1 172.0 110.05 Q170.95 107.2 171.05 104.15 171.05 101.9 171.85 98.25 L172.6 95.25 Q173.0 93.5 173.0 92.35 L172.5 89.8 172.4 89.35 Q171.85 87.35 171.8 86.45 L171.9 83.45 171.8 80.5 Q171.45 77.95 173.1 74.75 L172.2 74.45 171.95 74.2 171.15 73.85 170.45 73.85 169.55 75.05 169.1 75.55 167.65 77.25 Q166.6 78.65 165.7 80.5 L162.15 87.2 157.6 93.85 156.4 95.5 155.25 97.2 154.25 98.65 154.65 98.35 152.95 100.5 151.6 102.1 150.65 104.0 149.55 105.75 148.55 108.3 144.7 115.05 Q144.05 116.2 143.15 118.45 L142.25 120.1 Q141.9 120.6 141.6 121.65 L137.75 128.75 137.45 129.2 136.85 130.5 135.5 132.3 134.35 133.85 133.1 135.7 Q132.7 136.6 132.9 138.2 L133.3 139.9 133.3 141.5 Q133.3 141.75 133.75 141.7 L134.25 141.75 134.35 142.8 134.55 143.4 134.55 143.7 134.35 144.0 133.1 144.2 131.45 144.5 121.95 144.7 115.15 144.35 112.4 143.95 109.5 143.6 103.0 143.7 101.8 143.6 99.7 143.45 99.85 142.95 101.6 142.95 101.65 142.2 102.2 140.85 104.25 137.2 105.3 134.5 106.55 131.9 108.2 126.65 108.85 124.05 Q109.2 122.25 109.5 121.4 L110.45 118.45 110.3 118.5 110.85 117.15 111.0 116.25 111.6 115.1 111.75 114.65 113.05 110.7 114.0 106.75 115.05 102.95 117.65 95.15 118.25 93.2 118.55 92.35 118.55 92.25 118.7 91.3 119.35 89.1 119.2 89.25 118.95 89.25 Q120.15 86.0 120.6 82.2 120.95 78.4 121.9 75.25 L124.35 67.05 Q125.05 64.9 126.8 61.35 L128.75 57.65 130.95 54.1 131.95 51.55 132.95 48.9 Q133.35 47.25 135.0 43.85 L138.1 38.1 141.15 32.5 143.15 28.0 145.05 23.55 146.25 21.5 146.1 21.5 146.0 21.6 145.7 21.4 Q145.3 20.85 146.0 19.0 L147.25 16.3 148.1 14.85 148.6 13.55 150.15 10.9 150.85 9.4 Q147.95 10.0 144.9 11.3 L139.25 13.75 Q135.25 15.3 133.85 16.15 130.0 18.35 129.55 18.35 L129.15 18.3 129.2 18.25 126.6 19.7 Q125.6 20.25 124.55 20.95 L122.4 22.45 Q120.35 23.9 117.6 25.05 L113.45 26.7 112.0 29.25 109.85 33.0 109.95 32.95 109.5 33.8 101.7 46.9 99.45 50.55 96.5 55.6 95.15 58.15 93.6 60.6 90.55 65.55 87.9 70.5 87.95 70.65 87.75 71.1 87.55 71.55 87.0 72.5 Q86.65 73.15 86.25 74.45 L84.65 78.25 84.65 78.3 84.6 78.4 84.6 78.9 Q84.65 80.0 83.55 82.25 L82.2 85.65 81.0 88.95 80.7 89.4 80.5 89.8 77.7 93.4 Q75.2 96.1 74.2 98.2 L73.65 100.0 72.9 102.15 72.25 103.15 72.3 103.25 71.5 103.7 69.25 103.45 68.95 103.0 68.75 102.15 68.9 100.35 69.1 98.6 Q69.35 97.6 69.7 96.85 70.15 95.9 71.55 94.3 L73.65 91.95 70.1 94.55 Q67.8 96.3 67.0 97.35 L62.85 102.15 62.1 102.9 Q61.6 103.4 61.2 104.25 L60.5 105.7 59.0 108.45 57.55 111.25 56.5 112.9 Q55.8 113.85 55.05 113.9 L54.95 113.8 54.85 113.85 53.75 113.9 53.7 113.95 Q52.05 113.95 51.95 113.35 L52.3 112.4 54.55 108.2 56.3 105.1 56.75 104.25 Q58.0 101.65 59.2 100.15 L60.6 98.35 59.0 100.0 58.35 100.6 56.8 102.05 55.9 102.85 53.85 105.05 53.7 105.2 50.65 109.75 Q47.65 114.2 47.3 114.2 44.2 114.2 43.9 113.45 L44.25 112.5 45.15 111.05 45.45 110.65 46.15 109.7 45.3 109.75 Q43.6 109.75 43.55 109.25 L44.0 108.35 48.0 101.85 50.2 98.6 51.6 96.75 52.35 95.95 53.6 94.4 54.5 93.2 53.3 94.35 50.4 97.25 48.45 99.55 Q46.95 101.25 46.3 101.25 45.4 101.25 45.05 100.75 L44.95 100.3 45.0 100.05 47.8 96.35 51.15 92.35 Q55.45 87.7 59.0 84.75 L63.3 80.8 67.25 77.1 68.2 76.25 71.4 72.8 73.95 69.8 75.25 67.8 76.25 65.9 79.8 57.45 83.05 49.7 85.8 43.0 86.35 41.6 Q87.35 38.8 87.9 37.6 L89.2 34.7 89.15 34.7 Q87.25 35.7 86.9 35.7 86.0 35.7 85.5 35.25 L84.85 34.55 Q84.4 34.3 85.0 33.1 L85.45 32.25 86.35 31.35 87.5 30.5 Q86.25 30.45 87.2 28.55 L87.95 26.45 88.45 25.55 Q88.75 25.15 89.7 24.45 L91.15 23.45 91.65 23.1 Q91.3 22.8 91.25 22.0 91.1 21.5 91.4 20.85 L92.4 18.65 Q93.35 16.65 94.0 16.1 94.5 15.7 96.45 14.7 L96.5 14.5 Q96.55 14.35 97.6 13.9 98.1 13.6 98.55 13.45 L98.8 12.8 99.7 10.8 99.9 10.2 101.2 7.2 101.55 6.45 101.8 5.95 102.1 5.45 102.5 4.4 103.45 2.2 104.75 -2.1 106.25 -6.5 107.05 -8.65 108.15 -10.8 111.7 -19.55 112.4 -21.35 113.3 -24.5 113.95 -26.65 Q113.95 -27.35 115.0 -29.65 L116.7 -33.0 Q118.45 -36.55 120.85 -42.9 123.25 -49.3 125.05 -53.05 L125.9 -54.7 128.8 -59.55 132.8 -65.1 135.6 -68.15 138.7 -71.2 140.45 -72.7 142.2 -74.2 Q143.25 -74.9 143.85 -75.7 L144.95 -77.25 145.0 -77.25 Q145.35 -78.25 145.15 -79.4 L144.6 -82.1 143.95 -83.3 142.85 -84.5 142.45 -85.0 141.55 -85.4 141.05 -85.6 140.1 -85.75 Q139.6 -85.8 139.35 -86.2 138.45 -87.55 138.5 -88.9 L138.45 -94.15 138.1 -95.45 Q137.95 -96.25 138.15 -96.65 L138.1 -96.95 137.25 -97.25 137.15 -97.75 137.15 -98.75 137.35 -99.8 137.65 -101.75 Q137.8 -103.0 137.45 -103.9 L137.2 -104.95 137.1 -106.0 136.65 -108.05 Q136.25 -108.85 136.7 -110.05 L137.55 -112.1 139.65 -116.0 141.6 -119.65 Q141.85 -120.4 143.05 -121.6 L145.05 -123.4 148.3 -127.05 151.2 -130.8 Q153.45 -133.0 156.85 -134.55 M136.4 -19.05 L135.5 -16.25 134.45 -13.45 129.3 -2.3 126.35 3.65 127.2 3.7 128.65 3.7 129.6 3.4 135.1 1.05 142.3 -2.5 148.6 -5.9 150.65 -7.1 Q150.25 -9.6 149.65 -10.85 L147.7 -15.05 Q146.3 -17.55 143.95 -19.45 141.65 -21.3 139.7 -26.2 L138.9 -24.75 136.4 -19.05 M145.2 -20.8 L145.65 -20.45 144.75 -21.2 144.65 -21.25 145.2 -20.8 M196.8 -53.4 L196.85 -53.45 196.8 -53.45 196.8 -53.4 M444.5 -137.1 L448.2 -137.45 449.45 -137.35 450.15 -137.35 451.15 -137.5 452.1 -137.35 452.3 -137.35 453.55 -136.95 454.25 -137.0 454.7 -136.6 454.8 -136.75 Q455.45 -136.65 456.15 -135.75 L456.35 -135.6 Q457.55 -135.1 458.4 -133.6 L458.6 -133.3 459.8 -131.95 463.05 -129.2 464.45 -127.9 464.8 -127.55 465.25 -127.25 465.8 -127.05 465.7 -126.75 Q465.3 -125.95 463.55 -125.95 L462.65 -125.95 462.6 -125.85 462.4 -124.25 462.6 -121.15 463.0 -117.95 463.6 -116.6 Q464.15 -115.25 464.0 -114.9 L463.75 -114.6 462.45 -114.45 Q461.3 -114.45 460.45 -115.05 L460.25 -114.1 Q459.7 -111.75 459.65 -110.25 L459.5 -106.45 Q459.4 -105.15 459.95 -102.75 459.75 -102.35 459.15 -102.35 458.1 -102.35 456.65 -103.75 L455.75 -100.25 Q455.4 -98.85 455.5 -96.6 L455.4 -94.4 454.85 -93.7 Q453.55 -93.7 452.4 -95.0 L451.7 -96.0 Q450.75 -93.9 450.35 -92.15 L449.85 -89.6 449.7 -87.2 449.35 -87.1 Q448.75 -87.1 447.55 -88.05 L446.3 -89.2 Q445.85 -89.65 445.55 -90.45 L445.5 -90.35 444.35 -88.25 443.75 -86.5 443.8 -85.7 443.7 -84.85 Q443.6 -84.75 443.35 -84.75 442.7 -84.75 441.4 -86.55 L440.75 -87.4 440.6 -87.6 440.0 -86.5 439.0 -84.2 438.65 -83.5 Q438.6 -83.35 438.35 -83.35 L437.0 -84.25 Q436.65 -84.4 436.25 -85.3 L436.0 -86.1 435.9 -85.85 435.05 -83.95 Q435.75 -83.45 436.7 -83.0 L437.45 -82.65 443.45 -81.6 445.4 -81.15 446.5 -80.25 Q448.5 -78.7 448.85 -76.75 450.5 -65.85 450.55 -59.55 L450.65 -51.0 450.8 -42.3 450.6 -33.7 Q450.15 -28.8 448.35 -25.15 L448.1 -24.85 448.1 -24.9 448.0 -24.75 Q447.1 -22.8 440.9 -16.25 L433.7 -9.0 425.7 -1.3 425.7 -1.25 425.45 -1.0 425.35 -0.75 423.6 0.9 419.45 5.35 415.3 10.2 414.15 15.65 412.0 23.15 408.45 33.3 408.35 33.6 407.85 34.65 406.95 36.8 399.45 51.35 396.0 57.55 391.55 65.9 389.65 69.9 389.55 69.9 389.05 71.15 387.9 73.4 385.5 77.95 Q384.25 80.5 383.3 83.7 L381.75 89.1 379.8 94.65 378.05 100.25 376.75 105.8 374.9 111.45 Q372.3 118.0 370.1 122.5 L369.25 123.9 369.2 123.9 368.5 125.3 365.65 131.1 357.15 149.25 352.85 158.25 350.95 162.75 349.3 166.5 350.8 166.6 350.95 166.85 350.65 167.85 Q350.35 168.5 345.7 169.85 340.4 171.35 336.2 171.35 L334.9 171.25 334.2 172.5 334.8 171.2 333.85 171.1 333.85 170.85 334.15 169.95 Q334.45 169.3 335.9 168.7 L338.55 162.6 Q341.15 156.65 342.0 152.7 L342.8 150.3 343.55 147.75 344.25 142.85 344.95 137.95 Q345.4 135.05 345.95 133.05 346.95 129.5 349.75 123.1 352.75 116.3 353.7 113.3 355.7 107.2 355.75 103.5 L355.75 98.5 356.25 94.25 356.4 93.6 357.25 90.7 359.75 84.9 361.4 78.25 363.25 69.05 364.8 59.65 Q366.3 50.8 369.15 41.45 L371.35 34.95 370.1 35.35 367.45 36.3 359.6 47.25 345.8 64.25 Q341.2 69.7 333.35 81.45 L327.75 88.3 326.9 89.6 325.5 91.95 324.2 94.25 322.6 96.65 318.4 101.3 313.85 106.05 309.3 110.75 Q306.5 113.6 305.2 115.4 L298.2 124.8 Q292.3 133.0 283.65 142.1 L278.75 147.15 Q275.65 150.4 273.4 153.45 L268.6 159.8 Q266.15 163.2 264.8 166.0 264.05 167.55 262.15 172.75 L261.95 173.15 Q263.35 173.7 263.0 174.35 262.55 175.3 261.7 175.6 L259.05 175.85 Q256.4 175.85 252.7 173.65 249.4 171.7 249.2 170.85 248.85 169.25 249.4 167.6 249.55 167.05 250.6 164.85 L251.85 162.55 Q252.85 161.25 254.55 160.85 L255.05 161.05 260.65 152.45 268.2 140.6 Q272.8 132.4 275.2 128.9 277.5 124.9 278.95 123.0 L280.9 120.05 Q281.75 118.7 282.55 117.8 283.65 115.95 286.75 111.9 L291.05 106.35 301.05 94.2 Q306.0 87.75 309.15 81.75 L312.45 74.8 312.5 74.8 314.85 70.35 317.6 65.1 319.9 60.25 321.25 57.8 321.35 57.55 321.4 57.5 Q325.3 50.1 329.35 43.35 L338.6 28.05 340.2 25.55 340.65 22.85 341.75 17.15 342.2 14.25 342.9 11.4 343.05 7.4 342.9 6.05 342.85 5.4 Q342.75 2.2 343.1 -3.6 L343.15 -8.9 Q343.25 -12.15 343.65 -14.25 L344.8 -20.0 345.3 -22.4 Q345.25 -23.25 345.5 -24.0 L346.45 -26.0 Q349.6 -32.6 359.85 -47.8 L367.2 -58.65 370.95 -64.15 373.05 -67.7 Q374.05 -69.8 377.65 -74.65 L382.55 -80.8 Q386.8 -85.55 389.15 -87.1 394.45 -90.75 401.65 -91.0 L402.95 -91.05 403.6 -91.0 403.65 -91.05 403.9 -91.05 403.85 -91.0 405.25 -90.95 405.3 -91.05 407.1 -93.65 405.3 -92.8 Q404.3 -92.05 401.95 -91.3 L401.3 -91.3 403.55 -94.0 404.5 -95.15 405.4 -96.55 405.35 -96.6 403.15 -96.0 Q401.0 -95.3 400.25 -95.15 L400.0 -95.45 400.75 -95.95 402.1 -96.9 403.8 -98.3 405.4 -99.75 406.65 -101.1 409.15 -104.25 410.45 -105.95 408.75 -104.65 406.8 -103.2 402.15 -100.5 401.9 -100.5 401.95 -100.7 404.75 -103.5 408.5 -107.35 411.05 -110.6 411.9 -112.1 Q411.25 -111.7 409.55 -110.95 407.15 -109.85 405.9 -109.5 L405.9 -109.75 408.35 -111.65 Q411.1 -113.6 412.45 -114.85 L413.85 -116.3 412.9 -116.2 412.75 -116.3 Q412.6 -116.05 412.75 -116.4 L414.5 -117.2 414.8 -117.3 414.95 -117.5 417.0 -119.9 417.0 -120.05 414.6 -119.5 414.65 -119.75 Q414.9 -120.2 416.25 -120.85 L418.25 -121.75 421.75 -123.75 Q424.85 -126.0 426.8 -127.7 L426.9 -127.75 422.75 -126.55 422.4 -126.6 Q422.25 -126.55 422.4 -126.8 L427.1 -129.6 432.9 -132.85 Q435.85 -134.4 440.25 -135.95 L444.5 -137.1 M415.55 -120.0 L415.6 -120.1 415.45 -120.0 415.55 -120.0 M424.3 -127.45 L424.3 -127.5 424.2 -127.45 424.3 -127.45 M416.45 -117.4 L416.55 -117.4 416.6 -117.5 416.45 -117.4 M407.05 -110.3 L407.15 -110.3 407.15 -110.4 407.05 -110.3 M436.2 -111.8 L436.35 -111.8 436.35 -111.85 436.2 -111.8 M402.8 -92.2 L402.75 -92.25 402.75 -92.2 402.8 -92.2 M401.15 -95.7 L401.1 -95.75 401.1 -95.7 401.15 -95.7 M403.45 -101.65 L403.4 -101.6 403.45 -101.6 403.45 -101.65 M379.2 -56.2 L378.1 -54.65 376.4 -52.5 376.3 -52.5 372.7 -47.8 367.55 -41.1 361.75 -33.75 Q358.25 -29.4 357.7 -27.75 L357.55 -27.7 357.3 -27.3 Q356.2 -25.05 355.7 -22.6 L354.95 -18.3 353.55 -9.45 352.0 -0.5 351.7 1.2 351.8 1.2 351.75 1.45 351.9 2.7 352.45 3.6 352.9 2.95 352.9 2.9 353.15 2.45 353.2 2.4 353.5 1.95 353.9 0.9 Q355.55 -2.5 362.35 -10.7 L368.7 -19.1 369.0 -19.75 370.0 -21.45 Q371.3 -24.15 372.05 -28.0 L373.1 -34.6 374.2 -41.1 374.9 -44.25 375.6 -47.2 Q376.45 -50.55 378.55 -54.85 L379.2 -56.2 M432.15 -53.25 L430.0 -49.3 430.1 -49.3 430.0 -49.05 429.9 -48.85 429.85 -48.75 427.2 -44.75 424.5 -41.2 424.0 -40.6 423.15 -39.55 421.1 -37.15 419.3 -34.75 416.7 -29.9 Q415.1 -26.55 414.9 -24.85 L414.9 -24.35 415.0 -24.4 414.95 -23.9 414.95 -23.2 414.95 -23.1 Q415.0 -21.65 415.35 -19.15 L415.35 -19.1 415.95 -16.2 416.4 -14.3 416.55 -14.4 416.65 -14.4 416.6 -14.15 416.5 -14.0 416.65 -13.5 416.65 -13.35 417.0 -12.1 Q417.0 -11.45 417.35 -10.05 L417.65 -8.0 417.65 -3.9 417.65 -3.75 419.0 -4.1 419.8 -4.3 420.95 -5.55 422.3 -6.95 422.35 -6.9 427.05 -12.3 432.7 -19.6 435.45 -23.1 437.2 -26.2 436.95 -28.6 436.6 -32.25 435.2 -39.45 434.05 -42.95 Q433.3 -45.35 433.15 -46.65 L432.6 -50.2 432.15 -53.25 M107.6 10.2 L108.0 10.1 108.1 10.05 107.65 10.15 107.6 10.2 M-98.8 -5.85 L-94.8 -7.25 -89.7 -8.7 -86.95 -9.45 -85.8 -9.55 -85.55 -9.5 Q-85.3 -9.4 -85.45 -9.05 L-85.55 -8.2 -83.95 -8.5 -83.7 -8.7 -82.5 -9.0 -79.55 -9.55 -77.4 -9.8 -73.6 -10.9 -72.25 -11.45 -71.6 -11.6 -71.25 -11.9 -70.0 -12.9 -70.35 -14.0 -70.75 -14.65 -70.8 -15.2 Q-70.8 -15.45 -71.15 -15.75 L-71.6 -16.15 Q-71.9 -16.65 -71.55 -17.4 L-71.0 -18.1 -70.4 -18.9 -70.3 -19.35 Q-71.5 -19.05 -71.65 -19.9 -71.9 -20.5 -71.55 -21.15 L-70.15 -22.95 -70.6 -24.1 Q-71.2 -25.05 -70.7 -26.0 L-69.45 -27.45 Q-68.6 -28.15 -68.1 -29.1 L-68.05 -29.6 -68.3 -30.25 -68.15 -31.05 Q-68.9 -30.5 -69.3 -30.5 -69.95 -30.5 -69.95 -30.9 L-69.85 -31.35 -69.8 -31.45 -69.75 -31.5 -69.5 -32.05 -68.3 -33.8 -65.5 -35.9 Q-64.1 -36.85 -63.3 -37.9 L-62.55 -38.85 -60.9 -42.1 -59.7 -43.3 -58.05 -44.45 Q-56.7 -45.2 -54.85 -46.65 L-53.5 -47.8 -53.25 -47.95 -53.25 -48.2 Q-53.0 -48.65 -51.7 -49.0 L-49.4 -49.65 -48.6 -49.8 -47.95 -49.95 -47.3 -50.25 -45.35 -50.9 -44.2 -50.7 Q-43.5 -50.7 -42.85 -51.05 L-42.25 -51.4 -38.9 -51.15 -38.0 -50.9 -36.7 -50.6 -35.55 -50.2 -34.85 -50.1 -34.2 -49.95 -34.15 -50.0 -33.7 -50.1 -33.4 -49.9 -29.65 -50.0 Q-27.55 -50.0 -26.9 -48.0 -26.75 -47.3 -27.15 -46.65 L-27.65 -45.8 -27.7 -44.7 -27.5 -44.45 -27.15 -42.55 Q-27.15 -41.6 -27.45 -40.65 L-27.7 -39.95 -27.7 -39.2 -27.75 -38.4 -28.05 -37.85 -28.85 -36.7 -29.0 -35.8 -29.1 -34.9 -29.85 -33.1 -30.85 -31.45 -30.85 -31.35 -31.1 -30.1 -31.25 -29.05 -31.2 -29.1 -31.55 -28.35 -31.8 -27.6 Q-32.45 -26.3 -33.2 -25.45 L-34.5 -23.3 -35.8 -20.5 -37.5 -18.3 -45.4 -8.1 -46.1 -7.25 -46.2 -6.9 -46.9 -6.25 -46.75 -6.2 -46.7 -6.3 -46.1 -6.25 Q-46.0 -6.1 -45.65 -6.1 L-45.4 -6.1 -42.75 -5.6 -38.95 -4.7 -38.25 -4.6 -38.3 -4.45 -38.25 -4.35 -37.7 -5.4 -37.4 -5.95 Q-37.15 -6.4 -36.75 -6.45 -36.1 -6.55 -35.45 -6.15 L-34.65 -5.6 -33.0 -4.7 -31.85 -3.85 -30.6 -2.7 -30.2 -2.15 -29.6 -1.45 -28.7 0.15 -27.6 3.25 Q-26.9 5.6 -26.9 6.35 L-26.6 9.45 Q-26.3 11.1 -25.95 15.4 -25.55 20.75 -25.95 21.65 L-26.0 21.75 Q-26.0 22.4 -26.15 22.75 -26.5 23.5 -30.5 26.1 L-32.15 27.15 -32.15 27.55 -32.05 28.4 -32.25 30.15 -32.6 33.65 -34.0 40.6 -35.65 47.45 Q-36.8 51.6 -38.2 54.5 L-38.5 55.0 -38.6 55.35 -40.0 57.45 -41.3 59.25 -45.05 63.1 -45.4 63.5 -44.6 63.6 -42.1 63.75 -41.7 63.9 -40.85 64.1 Q-40.25 64.35 -38.9 65.25 -36.3 66.9 -34.9 68.4 -33.7 69.65 -33.95 72.45 -34.15 74.7 -34.9 76.25 -35.55 77.65 -39.05 82.5 L-41.45 85.6 -43.6 87.85 -44.9 89.1 -47.8 92.0 Q-50.0 93.95 -55.1 97.85 L-59.3 100.85 -63.5 103.75 -67.7 106.6 Q-70.65 108.5 -72.05 109.55 L-88.2 121.25 -92.1 124.1 -96.1 127.1 -100.2 129.9 Q-102.45 131.45 -103.35 132.55 L-102.95 133.45 -101.7 135.05 Q-101.1 136.35 -102.0 138.2 L-102.7 139.55 -104.05 140.95 -104.45 141.25 -105.4 141.7 -106.85 142.05 -110.35 142.55 -114.85 142.9 -120.65 142.8 -122.35 142.6 -123.3 142.55 -124.2 142.25 -126.55 141.5 -128.6 139.8 -132.8 135.1 -134.7 132.85 Q-135.9 131.55 -137.5 130.75 L-139.1 130.1 Q-140.15 129.55 -140.3 128.95 L-140.55 127.85 -140.0 126.7 -138.3 123.85 -135.35 120.65 Q-134.0 119.3 -131.2 117.65 L-126.6 114.65 -121.65 111.65 -116.65 108.65 -114.65 107.15 -112.55 105.65 -108.55 102.85 -109.5 102.5 -109.9 102.0 -111.4 102.15 -111.45 102.25 -112.8 102.1 -113.85 102.3 -118.15 102.45 -119.45 102.55 -119.75 102.7 -122.25 102.85 -125.9 102.7 -125.85 102.6 -127.95 102.45 -129.4 102.35 -130.95 102.25 -133.2 102.45 -134.0 102.65 -137.5 106.8 -139.15 109.25 -140.3 111.65 -142.45 116.65 -144.15 122.35 -145.6 127.7 -146.2 129.0 -146.65 130.4 Q-146.8 131.6 -147.3 132.75 L-147.5 133.4 -147.35 134.6 -146.9 137.15 -146.65 139.25 Q-146.5 141.45 -146.85 142.1 L-147.65 143.2 -148.45 144.1 Q-149.95 145.2 -155.0 145.2 L-165.7 144.9 -168.0 144.4 -170.65 143.7 -171.8 142.9 Q-172.25 142.45 -172.2 141.9 L-171.8 140.9 -171.0 139.0 -169.3 136.2 -167.65 133.8 -165.05 128.95 Q-163.8 126.35 -163.2 123.65 -162.6 120.75 -163.0 118.6 -163.8 114.45 -164.2 113.4 L-164.8 110.9 -165.2 108.25 Q-165.55 106.5 -165.25 102.45 L-164.8 97.95 -164.15 95.35 -163.3 92.8 Q-162.7 88.75 -162.1 87.6 L-161.85 87.1 -160.95 84.75 -159.55 82.65 -158.2 81.1 -156.45 79.35 -154.35 77.5 -152.85 76.35 -152.5 75.3 -151.55 73.35 -150.55 71.35 -149.85 69.4 Q-147.85 65.2 -146.6 63.75 L-144.75 60.95 -143.75 59.55 -143.4 58.8 -142.9 58.3 -142.55 56.75 -142.2 54.8 -142.1 53.75 -141.5 52.0 Q-141.1 50.45 -140.15 48.5 L-137.0 41.65 Q-134.05 35.55 -131.85 31.85 -131.1 30.25 -128.7 26.95 L-127.0 24.5 -126.05 23.3 -126.0 23.2 Q-128.0 22.65 -128.7 22.05 -129.45 21.4 -129.0 20.45 -128.4 19.2 -125.2 15.75 -122.55 12.7 -120.45 11.1 L-114.9 6.4 -112.25 4.05 -109.3 1.7 -103.1 -3.0 -99.95 -5.25 -99.6 -5.45 -99.65 -5.35 -98.8 -5.85 M-30.75 -33.65 L-30.85 -32.6 -30.6 -33.0 -30.35 -34.1 -30.75 -33.75 -30.75 -33.65 M-70.95 45.1 Q-77.35 50.75 -80.25 54.85 -83.8 59.95 -85.5 63.65 L-85.3 64.0 -82.6 63.35 -77.65 63.05 -70.4 62.55 -64.0 62.15 -64.05 62.3 -62.4 60.75 -58.6 57.1 -57.1 55.2 -56.6 54.5 -56.55 53.55 -56.55 51.85 Q-56.35 49.35 -56.45 48.35 L-56.5 44.9 -56.25 41.5 -55.85 38.05 -55.95 36.25 -56.15 34.6 -55.95 29.95 -56.4 30.45 Q-57.15 31.55 -60.85 35.35 L-70.95 45.1" fill="#000000" fill-opacity="0.101960786" fill-rule="evenodd" stroke="none"/>
    </g>
    <linearGradient gradientTransform="matrix(1.0E-4, -0.3085, 0.2955, 1.0E-4, 57.95, -17.0)" gradientUnits="userSpaceOnUse" id="gradient0" spreadMethod="pad" x1="-819.2" x2="819.2">
      <stop offset="0.0" stop-color="#1a1a1a"/>
      <stop offset="0.9882352941176471" stop-color="#444444"/>
    </linearGradient>
    <g id="sprite0" transform="matrix(1.0, 0.0, 0.0, 1.0, 28.75, 181.65)">
      <use ffdec:characterId="4049" height="368.0" transform="matrix(1.0, 0.0, 0.0, 1.0, -28.75, -181.65)" width="255.25" xlink:href="#shape1"/>
      <filter id="filter0">
        <feColorMatrix in="SourceGraphic" result="filterResult0" type="matrix" values="0 0 0 0 0.9490196,0 0 0 0 1.0,0 0 0 0 0.5019608,0 0 0 1 0"/>
        <feConvolveMatrix divisor="16.0" in="filterResult0" kernelMatrix="1 1 1 1 1 1 1 1 1 1 1 1 1 1 1 1" order="4 4" result="filterResult1"/>
        <feConvolveMatrix divisor="16.0" in="filterResult1" kernelMatrix="1 1 1 1 1 1 1 1 1 1 1 1 1 1 1 1" order="4 4" result="filterResult2"/>
        <feComposite in="SourceGraphic" in2="filterResult2" operator="over" result="filterResult3"/>
      </filter>
      <use ffdec:characterId="4047" filter="url(#filter0)" height="1.65" transform="matrix(1.0, 0.0, 0.0, 1.0, 8.7, -109.35)" width="1.6" xlink:href="#sprite1"/>
    </g>
    <g id="shape1" transform="matrix(1.0, 0.0, 0.0, 1.0, 28.75, 181.65)">
      <path d="M102.8 -129.55 L105.05 -126.1 107.0 -122.6 108.8 -119.2 Q111.4 -114.55 116.0 -105.3 L118.25 -101.8 120.55 -98.4 123.8 -91.45 123.75 -91.2 123.75 -91.1 Q123.75 -89.8 122.2 -88.1 L121.8 -87.7 119.4 -85.2 119.6 -84.85 120.25 -83.4 121.3 -80.6 Q121.55 -79.3 122.7 -77.3 L124.1 -75.05 124.35 -74.6 Q125.5 -72.55 126.65 -69.5 L128.75 -64.0 129.7 -61.3 130.95 -58.4 140.5 -41.85 143.4 -36.25 Q144.3 -34.4 146.8 -30.7 L153.55 -19.65 Q155.9 -15.9 158.9 -8.55 L160.1 -5.8 161.15 -2.95 161.8 -0.2 162.05 1.35 162.1 1.5 Q162.45 1.35 162.9 1.95 L163.65 3.2 Q163.85 4.05 164.6 5.45 L164.8 5.85 166.2 10.0 Q166.6 11.5 167.15 12.2 L167.7 13.35 168.1 14.5 168.65 16.65 Q169.05 18.1 170.1 19.0 172.0 20.65 172.4 23.5 172.9 27.45 173.2 28.2 173.9 29.8 175.95 32.65 L179.25 37.2 Q180.15 38.7 181.45 41.85 182.55 44.7 183.9 46.35 L186.85 50.9 187.2 52.05 187.5 53.15 189.0 55.45 Q192.15 62.35 193.25 64.45 L195.6 68.95 196.25 70.45 Q197.15 72.55 197.7 77.95 L197.8 78.8 Q198.2 83.4 198.2 88.25 L197.9 94.4 Q197.9 97.45 198.85 100.8 199.5 103.2 201.15 107.25 L203.1 113.35 Q204.25 117.8 204.25 120.1 L203.75 126.3 203.1 130.75 204.3 136.35 205.7 139.8 207.5 143.4 209.25 146.95 210.55 150.4 212.5 157.4 214.55 164.4 Q215.8 168.65 217.5 171.5 219.85 175.4 221.4 178.65 L222.5 181.05 224.15 180.6 225.7 180.9 226.5 181.5 225.95 181.95 224.45 181.5 222.9 181.95 224.05 185.5 Q223.55 185.65 223.3 185.0 L223.05 184.1 222.15 182.2 221.65 182.35 220.6 182.0 215.75 183.2 Q210.4 184.35 205.6 184.35 L193.4 183.35 188.3 182.35 180.2 180.35 179.1 180.25 177.65 180.35 Q178.7 183.65 180.0 186.15 L179.65 186.35 Q178.05 183.85 176.85 180.45 L176.15 180.5 175.05 180.45 174.95 180.05 175.0 179.8 176.6 179.65 175.95 177.45 173.85 168.7 Q173.4 167.15 171.55 164.3 L170.15 162.05 Q169.15 160.55 168.15 159.95 164.45 157.65 163.2 155.5 L162.2 153.55 162.1 153.4 Q161.4 152.45 160.55 150.35 159.45 148.0 157.85 146.55 L154.5 142.95 151.35 139.05 Q148.2 135.45 146.45 131.55 145.1 128.7 143.85 124.1 L142.95 120.3 Q142.4 118.05 141.7 116.6 L139.55 113.35 139.1 112.8 136.55 109.1 134.85 105.3 132.95 101.55 Q130.9 98.3 131.0 94.25 L129.7 93.9 129.25 93.55 128.0 93.1 127.1 93.1 126.7 94.65 126.45 95.3 Q125.75 96.75 125.65 97.45 125.2 99.2 125.2 101.55 L124.8 110.05 Q124.6 112.65 123.1 118.5 L122.6 120.6 122.15 122.75 121.75 124.6 121.75 124.65 122.1 124.2 121.25 126.95 Q120.55 128.65 120.55 128.95 120.45 129.75 120.5 131.4 L120.15 133.6 120.5 136.85 119.75 145.4 Q119.6 146.85 119.85 149.7 L119.75 151.8 Q119.6 152.45 119.85 153.8 119.85 159.35 119.3 162.8 L119.2 163.35 119.2 165.0 Q119.1 166.3 118.65 167.3 L118.15 169.25 117.7 171.6 Q117.7 172.75 118.95 174.8 L120.5 176.95 121.5 178.95 Q121.65 179.3 122.2 179.25 L122.85 179.3 123.6 180.6 124.25 181.4 124.45 181.75 124.35 182.15 122.9 182.4 121.0 182.8 109.05 183.05 100.2 182.6 96.45 182.1 92.55 181.65 84.4 181.75 82.8 181.65 80.05 181.45 79.95 180.8 82.15 180.8 81.8 179.85 Q81.65 179.5 81.65 178.15 L82.0 173.5 81.65 170.1 81.65 166.8 80.5 160.15 79.75 156.85 Q79.1 154.55 78.95 153.45 L78.35 149.7 78.15 149.8 78.05 148.05 77.7 146.95 77.7 145.45 77.65 144.9 76.9 139.9 75.7 134.85 74.7 130.05 73.15 120.15 72.75 117.7 72.6 116.6 72.5 116.45 72.15 115.25 71.65 112.45 71.5 112.65 71.2 112.65 Q70.75 108.55 68.95 103.7 67.05 98.9 66.35 94.9 L64.45 84.5 Q64.0 81.75 64.0 77.25 L64.25 72.55 64.85 68.05 64.6 64.8 64.2 61.45 Q63.7 59.35 63.7 55.05 63.7 52.85 64.15 47.75 L64.55 40.65 64.35 34.95 64.0 29.3 64.25 26.7 64.1 26.7 64.0 26.8 63.5 26.55 Q62.7 25.85 62.45 23.5 L62.35 20.1 62.55 18.25 62.35 16.6 62.7 13.25 62.7 11.35 Q59.4 12.1 56.3 13.75 L50.65 16.85 Q46.5 18.8 45.25 19.9 41.7 22.7 41.1 22.7 L40.6 22.6 38.25 24.4 36.4 26.0 34.6 27.9 Q32.85 29.75 30.05 31.2 L25.8 33.3 25.55 36.5 25.1 41.3 Q25.2 41.2 25.25 41.2 L25.2 42.3 23.35 58.9 22.7 63.55 22.1 69.95 21.9 73.2 21.45 76.3 20.6 82.6 20.3 88.85 20.45 89.05 20.5 89.65 20.5 90.2 20.35 91.4 20.6 93.9 20.95 98.7 20.95 98.9 21.25 99.55 Q22.0 100.95 22.0 103.8 L22.4 108.1 22.85 112.3 22.75 112.85 22.75 113.35 Q22.75 114.45 21.4 117.95 19.9 121.35 19.9 124.0 L20.3 126.3 20.7 129.05 20.5 130.3 20.6 130.45 Q20.15 131.0 19.85 131.0 L16.85 130.7 Q16.75 130.7 16.15 130.1 L15.4 129.05 14.5 126.75 13.7 124.55 Q13.4 123.25 13.4 122.3 13.4 121.1 14.15 119.05 L15.35 116.1 12.5 119.4 Q10.65 121.6 10.25 122.95 9.5 125.5 7.95 129.05 L7.4 130.0 Q7.1 130.6 7.1 131.7 L7.1 133.55 6.9 137.05 6.8 140.6 6.45 142.7 Q6.15 143.9 5.25 143.95 L5.05 143.8 4.95 143.9 3.6 143.95 3.55 144.0 Q1.45 144.0 0.95 143.25 0.8 143.05 0.8 142.05 0.8 140.4 1.15 136.7 L1.45 132.8 1.45 131.7 Q1.45 128.4 2.1 126.5 L2.7 124.2 1.7 126.3 1.25 127.05 0.2 128.9 -0.45 129.9 -1.7 132.7 -1.8 132.9 -2.85 138.7 Q-3.95 144.35 -4.4 144.35 -8.3 144.35 -9.2 143.4 L-9.35 142.15 -9.1 140.35 -8.95 139.8 -8.65 138.6 -9.65 138.7 Q-11.8 138.7 -12.2 138.05 L-12.2 136.9 -11.1 128.65 -10.3 124.55 -9.65 122.2 -9.2 121.15 -8.55 119.2 -8.15 117.7 -8.15 117.6 -8.95 119.15 -10.85 122.8 -11.95 125.75 Q-12.8 127.9 -13.65 127.9 -14.8 127.9 -15.5 127.25 L-15.95 126.7 -16.0 126.35 -14.75 121.65 -12.95 116.6 Q-10.35 110.7 -7.6 106.95 L-4.55 101.95 -1.85 97.25 -1.15 96.15 Q-0.2 94.35 0.75 91.8 L2.15 88.0 2.6 85.45 2.65 83.05 2.0 72.3 1.4 62.45 0.75 53.95 0.55 52.2 Q0.1 48.65 0.1 47.1 L0.0 43.45 -0.05 43.45 Q-1.9 44.7 -2.35 44.7 -3.5 44.7 -4.4 44.15 L-5.65 43.25 Q-6.35 42.95 -6.35 41.4 L-6.3 40.35 -5.7 39.2 -4.75 38.1 Q-6.35 38.05 -6.35 35.65 L-6.65 32.95 -6.6 31.85 Q-6.5 31.3 -5.7 30.45 L-4.45 29.15 -4.05 28.7 -5.2 27.3 Q-5.7 26.7 -5.7 25.85 L-5.85 23.05 Q-5.85 20.55 -5.35 19.85 L-3.1 18.05 -3.2 17.8 -2.15 17.05 -1.2 16.45 -1.25 15.65 -1.4 13.1 -1.45 12.35 -1.65 8.55 -1.7 7.6 -1.65 6.95 -1.6 6.3 -1.7 5.0 -1.9 2.2 -2.85 -3.25 -3.7 -8.85 -4.0 -11.6 -3.95 -14.3 -4.75 -25.4 -5.0 -27.7 -5.8 -31.7 -6.3 -34.4 Q-6.75 -35.3 -6.8 -38.25 L-6.65 -42.5 Q-6.65 -47.0 -7.5 -55.05 -8.4 -63.15 -8.4 -67.9 L-8.3 -70.0 Q-8.2 -72.95 -7.6 -76.15 -6.9 -80.5 -5.95 -83.2 L-4.25 -87.1 -2.25 -90.95 Q-1.85 -91.9 -0.9 -92.85 L0.35 -94.75 Q1.25 -95.65 1.6 -96.65 L2.0 -98.65 2.1 -98.65 Q1.9 -99.9 0.95 -101.35 L-1.4 -104.8 -3.0 -106.3 -5.1 -107.85 -5.9 -108.45 -7.3 -109.0 -8.05 -109.25 -9.4 -109.4 Q-10.05 -109.5 -10.6 -110.0 -12.55 -111.7 -13.35 -113.4 L-16.65 -120.1 -17.85 -121.75 Q-18.55 -122.75 -18.55 -123.25 L-18.8 -123.65 -20.05 -124.0 -20.5 -124.65 -21.05 -125.9 -21.45 -127.25 -22.3 -129.75 Q-22.85 -131.3 -23.85 -132.45 L-24.8 -133.8 -25.6 -135.1 Q-26.95 -137.3 -27.4 -137.7 -28.45 -138.75 -28.6 -140.25 L-28.75 -142.85 -28.5 -147.8 Q-28.25 -150.9 -28.3 -152.45 -28.45 -153.4 -27.6 -154.9 L-26.2 -157.2 Q-24.7 -160.2 -24.3 -161.85 -23.5 -165.45 -22.9 -166.6 -21.45 -169.4 -18.1 -171.35 -12.5 -174.65 -11.15 -176.05 L-8.75 -178.45 -7.45 -179.4 -7.05 -179.6 -4.65 -180.0 -1.85 -180.25 0.75 -180.0 Q2.1 -180.0 4.2 -181.05 6.0 -181.95 10.45 -181.5 13.5 -180.8 14.45 -179.6 15.5 -178.45 18.1 -177.4 L21.4 -176.7 23.65 -175.8 Q25.65 -174.7 26.15 -172.8 L26.25 -170.95 26.25 -168.45 Q26.15 -167.65 27.1 -165.95 27.9 -164.25 32.1 -160.8 33.3 -159.8 33.75 -158.4 L34.0 -155.8 34.2 -150.85 34.3 -148.3 Q34.3 -147.5 34.6 -146.4 L34.9 -146.05 34.9 -144.9 Q34.85 -144.5 35.55 -142.75 36.55 -140.05 36.55 -138.55 L36.5 -138.05 37.45 -138.6 38.25 -139.2 41.45 -139.75 Q43.7 -139.75 44.45 -139.25 45.25 -138.8 46.9 -138.8 L50.65 -139.25 52.65 -138.85 53.85 -138.55 56.4 -139.0 59.25 -139.75 60.9 -140.4 62.3 -140.65 63.25 -140.75 63.75 -141.35 63.95 -141.0 64.4 -140.9 Q64.85 -140.9 65.55 -141.4 L66.5 -141.95 70.05 -142.3 71.05 -142.6 73.1 -142.65 74.6 -142.85 78.35 -143.05 78.75 -143.05 78.7 -143.25 80.4 -143.1 82.5 -142.8 Q83.75 -142.9 86.4 -141.65 86.8 -141.4 88.5 -141.1 L90.35 -140.5 92.2 -139.1 Q95.3 -137.45 96.45 -136.15 L98.4 -134.35 98.6 -134.05 99.05 -133.55 99.85 -132.7 101.6 -131.05 102.8 -129.55 M30.45 -137.45 L32.5 -135.5 Q31.8 -132.85 29.5 -135.1 L29.2 -135.1 30.25 -134.05 31.2 -132.85 Q31.2 -132.5 29.9 -132.25 L27.6 -131.65 30.9 -127.05 32.8 -130.4 Q34.05 -133.15 34.05 -134.25 34.05 -136.0 33.3 -137.8 32.4 -140.05 30.75 -141.0 L33.0 -138.05 Q33.0 -137.4 30.45 -137.45 M20.7 -124.95 L20.0 -125.6 18.85 -127.3 18.4 -128.1 17.65 -128.95 16.8 -129.65 13.95 -130.15 Q12.5 -129.8 12.0 -129.45 L11.4 -129.2 Q10.65 -128.6 10.2 -128.6 9.65 -128.6 7.1 -130.15 4.65 -131.75 2.65 -131.75 -1.25 -131.75 -1.25 -130.35 -1.25 -129.85 -0.9 -129.4 L0.0 -128.25 1.05 -127.4 2.0 -126.25 Q2.0 -125.35 0.05 -124.85 -1.9 -124.25 -1.9 -123.25 L-1.35 -121.2 Q-0.85 -119.85 -0.85 -119.3 -0.85 -117.55 -2.25 -116.25 L-4.05 -114.8 -2.35 -115.0 5.75 -115.3 7.05 -115.7 10.2 -116.35 Q11.75 -116.6 12.55 -117.25 15.85 -119.9 17.15 -120.2 18.4 -120.65 18.4 -118.8 18.4 -117.9 17.65 -115.95 L16.5 -113.15 14.45 -107.65 Q16.95 -107.85 17.8 -106.95 18.25 -106.45 18.25 -105.5 18.25 -104.15 17.05 -102.95 L19.05 -102.9 22.6 -103.25 Q22.95 -103.45 22.95 -103.95 L22.5 -105.8 Q22.0 -107.15 22.0 -107.7 22.0 -108.65 23.85 -111.95 25.65 -115.25 25.65 -117.65 L25.45 -119.45 25.2 -121.15 25.3 -122.85 Q25.1 -123.95 23.85 -124.4 L21.1 -124.65 20.7 -124.95 M9.85 -104.1 L9.75 -104.3 4.55 -104.9 2.2 -105.55 3.1 -103.9 3.95 -102.1 4.9 -100.1 Q5.7 -98.7 6.1 -98.7 6.85 -98.7 7.4 -99.9 L8.1 -101.3 Q9.85 -103.45 9.85 -104.1 M40.1 -115.25 L40.1 -114.0 Q43.8 -119.5 44.75 -121.5 46.45 -124.95 46.45 -128.6 46.45 -131.45 44.8 -132.65 43.4 -133.65 40.55 -133.8 L40.6 -125.2 40.4 -120.2 40.1 -115.25 M26.6 -32.0 Q26.6 -27.1 26.9 -24.75 L27.45 -21.2 27.85 -17.65 28.15 -3.5 28.05 4.05 29.2 4.1 31.0 4.1 32.05 3.7 Q34.4 2.7 37.55 0.75 L44.55 -3.75 50.45 -8.1 52.3 -9.6 48.75 -14.35 43.65 -19.7 Q40.35 -22.85 36.25 -25.3 32.15 -27.65 26.7 -33.85 L26.6 -32.0 M36.15 -27.5 L35.95 -27.55 Q36.5 -27.25 37.0 -27.0 L37.75 -26.55 36.15 -27.5 M18.1 -32.4 L1.35 -32.45 0.95 -32.35 -1.35 -32.25 -1.6 -30.95 -0.6 -23.55 0.9 -16.2 Q2.45 -6.1 2.45 -1.5 L2.45 0.5 2.35 1.35 2.2 2.25 1.9 5.5 1.85 5.75 Q7.65 5.0 11.15 3.85 13.7 2.95 14.6 2.85 L16.5 2.65 18.65 2.55 18.6 2.4 19.2 0.5 19.55 -1.4 19.75 -5.15 19.4 -12.85 Q18.5 -18.6 18.5 -20.6 L18.2 -24.25 Q17.9 -26.3 17.9 -27.8 L18.1 -32.4 M79.25 -13.85 L81.3 -14.2 83.5 -14.95 88.3 -16.8 97.2 -21.1 104.3 -25.05 Q105.7 -25.75 107.25 -27.4 L108.45 -28.6 108.5 -28.95 109.0 -31.0 109.45 -32.9 109.65 -34.8 110.15 -38.65 110.7 -42.4 Q111.15 -49.45 111.15 -57.6 L111.15 -60.0 110.95 -63.15 110.7 -68.8 110.4 -79.85 110.55 -81.8 110.45 -82.5 108.05 -82.7 107.35 -82.95 106.65 -82.9 106.65 -82.75 105.0 -82.6 104.75 -82.45 104.65 -82.45 104.35 -82.4 103.8 -81.9 101.45 -81.2 99.75 -80.05 98.65 -79.3 98.6 -79.2 95.0 -76.7 89.9 -73.55 87.35 -71.9 85.8 -70.5 83.9 -69.2 83.8 -69.15 83.55 -68.8 83.1 -68.0 82.95 -67.5 82.6 -66.45 82.6 -66.25 Q82.55 -65.25 83.45 -62.85 L85.85 -55.95 88.05 -49.0 90.65 -42.8 90.65 -42.85 90.9 -42.4 90.85 -42.3 90.9 -42.15 90.65 -41.9 90.6 -41.8 86.8 -37.2 81.15 -30.4 76.5 -24.85 Q72.95 -20.4 72.95 -18.5 72.95 -18.05 73.4 -16.9 L74.1 -15.55 Q75.75 -13.9 76.9 -13.8 L78.85 -13.9 79.25 -13.85 M82.4 -68.45 L82.4 -68.35 82.5 -68.45 82.4 -68.45 M1.85 12.3 L1.25 13.4 1.25 15.4 2.6 14.8 3.8 14.2 Q4.45 13.8 5.6 13.55 L7.1 12.75 Q7.6 12.35 8.05 12.35 L6.15 12.4 2.1 11.9 1.85 12.3 M8.8 12.15 Q8.45 12.15 8.3 12.3 L8.3 12.35 8.75 12.2 8.8 12.15 M4.35 46.3 L4.25 47.3 4.25 49.35 4.45 53.55 5.85 61.7 6.3 68.75 6.65 78.2 Q6.65 85.15 6.35 87.9 L6.3 88.85 6.0 90.25 Q5.75 91.75 5.0 92.8 4.25 93.8 2.15 97.55 L2.0 97.9 0.3 100.95 -0.5 102.0 -4.0 106.0 -7.55 110.0 Q-11.7 115.6 -12.2 118.0 L-13.45 121.85 -14.35 124.0 -15.05 125.95 -14.9 126.3 -14.8 126.45 -14.8 126.5 -14.15 126.8 Q-13.6 126.8 -12.7 124.8 L-11.25 121.4 -9.85 118.55 -9.2 117.5 -9.15 117.95 -8.7 117.1 Q-7.5 114.7 -7.2 114.7 L-7.0 114.75 -6.05 113.45 -4.85 110.7 Q-4.45 109.55 -4.05 109.3 L-3.95 109.35 -4.2 110.25 -5.4 113.95 -6.9 117.7 -8.2 121.3 Q-8.95 124.1 -9.9 129.6 -10.9 135.05 -10.9 136.2 L-10.85 136.6 -10.5 136.95 -10.1 137.2 -8.7 137.4 Q-7.85 137.4 -7.85 135.5 L-7.55 133.6 -7.1 129.8 Q-6.9 128.45 -6.2 127.9 -5.95 127.7 -5.8 127.0 L-5.4 126.0 -4.5 123.95 Q-1.65 118.45 -1.25 115.45 L-1.0 115.35 -0.5 115.4 -0.5 117.1 -1.85 120.65 Q-2.75 123.25 -5.15 127.7 -5.9 128.95 -6.2 131.2 L-6.8 134.7 -7.45 138.15 -8.0 139.8 -8.5 141.8 Q-8.5 142.15 -7.95 142.55 -7.05 143.1 -5.2 143.1 -4.5 143.1 -4.4 142.5 L-4.3 141.65 -3.75 139.9 -3.5 138.05 -3.1 136.4 Q-2.85 135.7 -2.75 134.6 L-2.5 132.95 -2.1 131.5 -2.05 131.65 -0.95 129.35 -0.3 128.65 0.75 126.5 1.0 126.05 Q2.7 122.45 3.65 120.9 L3.95 121.05 4.35 120.2 4.55 120.6 Q4.55 121.5 3.8 123.6 L3.75 124.4 3.75 124.6 Q2.85 127.25 2.45 129.3 L2.15 134.55 1.95 140.75 2.0 142.25 2.8 142.8 4.3 143.1 Q5.65 143.1 5.65 142.3 5.5 140.9 5.75 139.75 6.1 138.15 6.1 135.95 L6.35 132.15 6.7 129.8 6.8 129.6 7.75 128.45 8.55 125.3 Q9.15 123.15 10.85 120.55 L14.45 115.75 14.95 115.2 15.75 114.55 16.05 114.05 17.2 113.0 18.4 111.6 18.9 113.25 19.1 114.65 Q19.1 115.5 18.7 116.65 L17.65 118.7 Q16.1 121.15 16.1 122.95 16.1 124.1 16.5 125.05 L16.7 126.3 Q16.8 127.15 17.2 127.95 17.9 129.35 18.85 129.35 19.35 129.35 19.45 128.95 L19.55 128.2 Q19.55 127.4 19.15 126.45 18.8 125.5 18.8 124.85 18.8 122.7 20.25 118.05 21.65 113.45 21.65 111.45 21.65 108.9 20.6 103.55 L20.15 99.45 20.1 98.95 20.1 98.75 19.55 95.8 19.1 92.8 17.8 86.85 Q17.4 84.1 17.3 76.35 L17.3 75.05 Q17.3 71.6 17.65 68.1 18.1 63.45 19.1 58.55 19.2 55.45 20.05 50.35 L20.95 46.5 Q21.7 43.3 21.7 42.1 L21.4 40.35 Q21.25 39.9 20.5 39.3 L19.55 38.75 Q17.5 38.75 15.65 39.5 14.4 39.95 13.85 40.45 L13.15 40.95 10.0 43.25 9.25 43.7 Q7.85 44.4 7.15 45.1 L5.15 46.3 4.35 46.3 M20.25 112.6 Q19.9 110.75 19.9 109.95 L19.8 107.45 19.85 107.2 20.35 111.45 20.25 113.1 20.25 112.85 20.25 112.6" fill="#000000" fill-rule="evenodd" stroke="none"/>
      <path d="M40.1 -115.25 L40.4 -120.2 40.6 -125.2 40.55 -133.8 Q43.4 -133.65 44.8 -132.65 46.45 -131.45 46.45 -128.6 46.45 -124.95 44.75 -121.5 43.8 -119.5 40.1 -114.0 L40.1 -115.25 M9.85 -104.1 Q9.85 -103.45 8.1 -101.3 L7.4 -99.9 Q6.85 -98.7 6.1 -98.7 5.7 -98.7 4.9 -100.1 L3.95 -102.1 3.1 -103.9 2.2 -105.55 4.55 -104.9 9.75 -104.3 9.85 -104.1 M20.7 -124.95 L21.1 -124.65 23.85 -124.4 Q25.1 -123.95 25.3 -122.85 L25.2 -121.15 25.45 -119.45 25.65 -117.65 Q25.65 -115.25 23.85 -111.95 22.0 -108.65 22.0 -107.7 22.0 -107.15 22.5 -105.8 L22.95 -103.95 Q22.95 -103.45 22.6 -103.25 L19.05 -102.9 17.05 -102.95 Q18.25 -104.15 18.25 -105.5 18.25 -106.45 17.8 -106.95 16.95 -107.85 14.45 -107.65 L16.5 -113.15 17.65 -115.95 Q18.4 -117.9 18.4 -118.8 18.4 -120.65 17.15 -120.2 15.85 -119.9 12.55 -117.25 11.75 -116.6 10.2 -116.35 L7.05 -115.7 5.75 -115.3 -2.35 -115.0 -4.05 -114.8 -2.25 -116.25 Q-0.85 -117.55 -0.85 -119.3 -0.85 -119.85 -1.35 -121.2 L-1.9 -123.25 Q-1.9 -124.25 0.05 -124.85 2.0 -125.35 2.0 -126.25 L1.05 -127.4 0.0 -128.25 -0.9 -129.4 Q-1.25 -129.85 -1.25 -130.35 -1.25 -131.75 2.65 -131.75 4.65 -131.75 7.1 -130.15 9.65 -128.6 10.2 -128.6 10.65 -128.6 11.4 -129.2 L12.0 -129.45 Q12.5 -129.8 13.95 -130.15 L16.8 -129.65 17.65 -128.95 18.4 -128.1 18.85 -127.3 20.0 -125.6 20.7 -124.95 M30.45 -137.45 Q33.0 -137.4 33.0 -138.05 L30.75 -141.0 Q32.4 -140.05 33.3 -137.8 34.05 -136.0 34.05 -134.25 34.05 -133.15 32.8 -130.4 L30.9 -127.05 27.6 -131.65 29.9 -132.25 Q31.2 -132.5 31.2 -132.85 L30.25 -134.05 29.2 -135.1 29.5 -135.1 Q31.8 -132.85 32.5 -135.5 L30.45 -137.45 M79.25 -13.85 L78.85 -13.9 76.9 -13.8 Q75.75 -13.9 74.1 -15.55 L73.4 -16.9 Q72.95 -18.05 72.95 -18.5 72.95 -20.4 76.5 -24.85 L81.15 -30.4 86.8 -37.2 90.6 -41.8 90.65 -41.9 90.9 -42.15 90.85 -42.3 90.9 -42.4 90.65 -42.85 90.65 -42.8 88.05 -49.0 85.85 -55.95 83.45 -62.85 Q82.55 -65.25 82.6 -66.25 L82.6 -66.45 82.95 -67.5 83.1 -68.0 83.55 -68.8 83.8 -69.15 83.9 -69.2 85.8 -70.5 87.35 -71.9 89.9 -73.55 95.0 -76.7 98.6 -79.2 98.65 -79.3 99.75 -80.05 101.45 -81.2 103.8 -81.9 104.35 -82.4 104.65 -82.45 104.75 -82.45 105.0 -82.6 106.65 -82.75 106.65 -82.9 107.35 -82.95 108.05 -82.7 110.45 -82.5 110.55 -81.8 110.4 -79.85 110.7 -68.8 110.95 -63.15 111.15 -60.0 111.15 -57.6 Q111.15 -49.45 110.7 -42.4 L110.15 -38.65 109.65 -34.8 109.45 -32.9 109.0 -31.0 108.5 -28.95 108.45 -28.6 107.25 -27.4 Q105.7 -25.75 104.3 -25.05 L97.2 -21.1 88.3 -16.8 83.5 -14.95 81.3 -14.2 79.25 -13.85 M18.1 -32.4 L17.9 -27.8 Q17.9 -26.3 18.2 -24.25 L18.5 -20.6 Q18.5 -18.6 19.4 -12.85 L19.75 -5.15 19.55 -1.4 19.2 0.5 18.6 2.4 18.65 2.55 16.5 2.65 14.6 2.85 Q13.7 2.95 11.15 3.85 7.65 5.0 1.85 5.75 L1.9 5.5 2.2 2.25 2.35 1.35 2.45 0.5 2.45 -1.5 Q2.45 -6.1 0.9 -16.2 L-0.6 -23.55 -1.6 -30.95 -1.35 -32.25 0.95 -32.35 1.35 -32.45 18.1 -32.4 M1.85 12.3 L2.1 11.9 6.15 12.4 8.05 12.35 Q7.6 12.35 7.1 12.75 L5.6 13.55 Q4.45 13.8 3.8 14.2 L2.6 14.8 1.25 15.4 1.25 13.4 1.85 12.3 M20.25 112.6 L20.25 112.85 20.25 113.1 20.35 111.45 19.85 107.2 19.8 107.45 19.9 109.95 Q19.9 110.75 20.25 112.6 M4.35 46.3 L5.15 46.3 7.15 45.1 Q7.85 44.4 9.25 43.7 L10.0 43.25 13.15 40.95 13.85 40.45 Q14.4 39.95 15.65 39.5 17.5 38.75 19.55 38.75 L20.5 39.3 Q21.25 39.9 21.4 40.35 L21.7 42.1 Q21.7 43.3 20.95 46.5 L20.05 50.35 Q19.2 55.45 19.1 58.55 18.1 63.45 17.65 68.1 17.3 71.6 17.3 75.05 L17.3 76.35 Q17.4 84.1 17.8 86.85 L19.1 92.8 19.55 95.8 20.1 98.75 20.1 98.95 20.15 99.45 20.6 103.55 Q21.65 108.9 21.65 111.45 21.65 113.45 20.25 118.05 18.8 122.7 18.8 124.85 18.8 125.5 19.15 126.45 19.55 127.4 19.55 128.2 L19.45 128.95 Q19.35 129.35 18.85 129.35 17.9 129.35 17.2 127.95 16.8 127.15 16.7 126.3 L16.5 125.05 Q16.1 124.1 16.1 122.95 16.1 121.15 17.65 118.7 L18.7 116.65 Q19.1 115.5 19.1 114.65 L18.9 113.25 18.4 111.6 17.2 113.0 16.05 114.05 15.75 114.55 14.95 115.2 14.45 115.75 10.85 120.55 Q9.15 123.15 8.55 125.3 L7.75 128.45 6.8 129.6 6.7 129.8 6.35 132.15 6.1 135.95 Q6.1 138.15 5.75 139.75 5.5 140.9 5.65 142.3 5.65 143.1 4.3 143.1 L2.8 142.8 2.0 142.25 1.95 140.75 2.15 134.55 2.45 129.3 Q2.85 127.25 3.75 124.6 L3.75 124.4 3.8 123.6 Q4.55 121.5 4.55 120.6 L4.35 120.2 3.95 121.05 3.65 120.9 Q2.7 122.45 1.0 126.05 L0.75 126.5 -0.3 128.65 -0.95 129.35 -2.05 131.65 -2.1 131.5 -2.5 132.95 -2.75 134.6 Q-2.85 135.7 -3.1 136.4 L-3.5 138.05 -3.75 139.9 -4.3 141.65 -4.4 142.5 Q-4.5 143.1 -5.2 143.1 -7.05 143.1 -7.95 142.55 -8.5 142.15 -8.5 141.8 L-8.0 139.8 -7.45 138.15 -6.8 134.7 -6.2 131.2 Q-5.9 128.95 -5.15 127.7 -2.75 123.25 -1.85 120.65 L-0.5 117.1 -0.5 115.4 -1.0 115.35 -1.25 115.45 Q-1.65 118.45 -4.5 123.95 L-5.4 126.0 -5.8 127.0 Q-5.95 127.7 -6.2 127.9 -6.9 128.45 -7.1 129.8 L-7.55 133.6 -7.85 135.5 Q-7.85 137.4 -8.7 137.4 L-10.1 137.2 -10.5 136.95 -10.85 136.6 -10.9 136.2 Q-10.9 135.05 -9.9 129.6 -8.95 124.1 -8.2 121.3 L-6.9 117.7 -5.4 113.95 -4.2 110.25 -3.95 109.35 -4.05 109.3 Q-4.45 109.55 -4.85 110.7 L-6.05 113.45 -7.0 114.75 -7.2 114.7 Q-7.5 114.7 -8.7 117.1 L-9.15 117.95 -9.2 117.5 -9.85 118.55 -11.25 121.4 -12.7 124.8 Q-13.6 126.8 -14.15 126.8 L-14.8 126.5 -14.8 126.45 -14.9 126.3 -15.05 125.95 -14.35 124.0 -13.45 121.85 -12.2 118.0 Q-11.7 115.6 -7.55 110.0 L-4.0 106.0 -0.5 102.0 0.3 100.95 2.0 97.9 2.15 97.55 Q4.25 93.8 5.0 92.8 5.75 91.75 6.0 90.25 L6.3 88.85 6.35 87.9 Q6.65 85.15 6.65 78.2 L6.3 68.75 5.85 61.7 4.45 53.55 4.25 49.35 4.25 47.3 4.35 46.3" fill="url(#gradient1)" fill-rule="evenodd" stroke="none"/>
      <path d="M32.75 -138.45 Q33.4 -130.45 34.25 -127.2 35.6 -121.9 38.9 -117.6 L38.5 -126.85 Q38.5 -135.45 43.4 -135.55 45.25 -135.6 46.75 -134.15 48.25 -132.75 48.25 -130.85 L47.6 -122.95 Q46.9 -115.65 46.75 -112.45 46.7 -109.95 47.9 -103.95 48.25 -98.65 44.0 -95.95 40.9 -99.2 39.9 -103.6 39.35 -106.1 39.25 -111.45 L39.1 -113.9 39.0 -113.7 Q36.65 -113.5 34.4 -115.65 L32.25 -118.2 Q32.25 -116.55 31.35 -113.3 30.25 -109.3 30.0 -107.7 29.7 -105.9 29.95 -102.45 L30.25 -97.6 Q30.25 -96.2 29.6 -93.55 L28.75 -89.7 Q24.45 -89.15 21.35 -94.45 19.05 -98.3 18.25 -103.2 17.8 -105.8 18.6 -111.4 L19.5 -118.2 Q19.5 -120.5 10.15 -121.95 L0.5 -122.95 Q-4.45 -122.95 -6.8 -125.95 -8.25 -127.85 -8.25 -129.7 -8.25 -132.4 -6.5 -134.3 -3.45 -137.6 4.75 -139.45 16.45 -142.25 21.6 -142.55 31.1 -143.2 32.75 -138.45 M25.25 -134.95 L21.3 -134.75 19.0 -134.2 16.75 -133.7 Q20.6 -132.7 26.25 -130.7 L25.55 -133.0 Q25.25 -134.35 25.25 -134.95 M12.45 -100.6 Q13.5 -97.8 13.5 -96.1 13.5 -94.25 12.75 -92.7 11.75 -90.7 10.0 -90.7 7.25 -90.7 3.75 -98.7 L0.75 -106.6 Q0.75 -110.1 3.45 -110.8 6.55 -111.6 10.25 -106.2 11.0 -104.05 12.45 -100.6 M74.25 -64.2 Q74.25 -69.8 81.05 -76.25 86.85 -81.75 95.8 -86.4 104.2 -90.7 110.25 -91.75 116.65 -92.9 116.0 -89.45 116.5 -87.7 117.85 -74.3 119.25 -60.4 119.25 -55.7 119.25 -50.6 118.25 -40.9 117.1 -30.45 116.0 -27.2 115.2 -24.75 110.8 -20.15 106.15 -15.25 102.75 -13.7 95.75 -10.15 89.6 -7.35 77.7 -1.95 73.6 -1.95 69.35 -1.95 68.65 -4.7 L68.75 -7.95 Q58.75 -6.5 58.75 -13.95 58.75 -16.5 62.05 -20.5 L69.25 -28.05 Q79.75 -38.6 79.75 -43.95 79.75 -46.9 77.0 -52.8 74.25 -58.75 74.25 -64.2 M21.0 -30.45 L22.25 -15.35 23.0 -4.6 Q23.0 4.8 20.75 12.35 16.95 25.05 8.0 25.05 -0.35 25.05 -1.2 14.55 -1.5 11.25 -1.05 6.3 L-0.5 0.3 Q-0.5 -4.55 -0.85 -14.6 L-1.25 -25.2 Q-1.25 -28.2 0.0 -31.2 1.65 -35.2 2.5 -40.2 6.4 -36.05 6.15 -33.05 L5.5 -30.25 Q5.0 -28.3 5.0 -26.7 5.0 -21.25 5.85 -6.55 6.85 11.3 8.0 15.8 11.8 14.0 13.7 6.25 15.0 0.85 15.0 -4.7 L13.75 -24.2 12.5 -43.7 Q12.5 -47.5 14.25 -48.95 16.6 -50.9 20.25 -43.2 20.7 -40.95 20.8 -37.1 L21.0 -30.45 M80.0 -18.2 L95.85 -26.65 Q104.15 -31.8 104.75 -36.45 106.75 -52.45 106.75 -55.95 L106.15 -64.1 104.75 -75.45 Q102.35 -74.8 95.65 -69.85 88.75 -64.75 88.75 -63.1 L91.25 -55.0 Q93.75 -46.5 93.75 -43.95 93.75 -36.7 91.2 -32.0 88.8 -27.5 80.25 -18.45 L80.0 -18.2 M1.7 39.0 Q2.35 33.45 5.0 31.8 7.65 33.25 8.25 38.6 L8.5 47.8 Q9.3 55.2 10.1 68.15 L10.55 76.4 11.1 74.6 Q13.55 66.8 13.25 63.3 13.9 59.05 14.0 51.0 L14.0 41.9 Q14.0 33.95 15.4 29.65 16.65 25.8 18.5 26.25 20.3 26.65 21.6 31.05 23.0 35.95 23.0 43.55 23.0 48.2 20.75 64.3 18.5 80.4 18.5 83.3 L20.65 90.75 Q22.75 98.45 22.75 99.8 L22.1 104.0 Q21.65 106.6 22.5 111.05 22.85 113.1 22.0 117.1 21.0 121.55 21.0 122.3 L20.9 125.0 20.75 127.55 Q20.4 127.55 19.75 128.8 L17.25 128.55 15.5 115.05 Q9.8 120.9 8.15 130.8 7.2 136.45 6.25 147.8 L6.4 148.2 Q6.5 148.55 5.0 148.55 1.15 148.55 0.8 139.25 L1.0 127.3 Q-0.65 130.1 -1.85 133.85 -3.25 138.4 -3.5 142.8 L-4.0 143.3 Q-4.5 143.8 -6.0 143.8 -7.5 143.8 -9.75 136.7 -12.1 129.05 -11.0 124.05 L-12.4 124.1 -14.75 124.55 Q-14.4 122.1 -12.5 118.85 L-9.85 114.95 -9.75 114.6 Q-8.65 111.85 -8.25 110.3 -7.8 108.6 -5.05 105.6 L-1.25 101.3 Q1.25 97.15 2.3 92.35 3.1 88.6 3.25 83.3 3.4 76.05 2.45 61.9 1.5 48.9 1.5 47.65 1.5 40.65 1.7 39.0" fill="#000000" fill-opacity="0.101960786" fill-rule="evenodd" stroke="none"/>
    </g>
    <linearGradient gradientTransform="matrix(0.0768, -6.0E-4, 4.0E-4, 0.0423, 47.95, -25.15)" gradientUnits="userSpaceOnUse" id="gradient1" spreadMethod="pad" x1="-819.2" x2="819.2">
      <stop offset="0.0" stop-color="#232c18"/>
      <stop offset="0.9882352941176471" stop-color="#496237"/>
    </linearGradient>
    <g id="sprite1" transform="matrix(1.0, 0.0, 0.0, 1.0, -153.05, 5.6)">
      <use ffdec:characterId="4046" height="1.65" transform="matrix(1.0, 0.0, 0.0, 1.0, 153.05, -5.6)" width="1.6" xlink:href="#shape2"/>
    </g>
    <g id="shape2" transform="matrix(1.0, 0.0, 0.0, 1.0, -153.05, 5.6)">
      <path d="M153.15 -4.35 L153.05 -4.8 Q153.05 -5.65 153.85 -5.6 154.65 -5.55 154.65 -4.75 L154.45 -4.3 Q154.15 -3.95 153.85 -3.95 153.35 -3.95 153.15 -4.35" fill="#f2ff80" fill-opacity="0.47843137" fill-rule="evenodd" stroke="none"/>
    </g>
    <g id="shape3" transform="matrix(1.0, 0.0, 0.0, 1.0, 205.0, 51.4)">
      <path d="M-166.45 -39.75 L-166.3 -42.1 -165.7 -43.3 -164.6 -44.45 Q-163.6 -45.2 -162.45 -46.65 L-161.65 -47.8 -161.5 -47.95 -161.6 -48.2 Q-161.6 -48.65 -160.45 -49.0 L-158.45 -49.65 -157.75 -49.8 -157.15 -49.95 -156.65 -50.25 -155.0 -50.9 -153.8 -50.7 Q-153.1 -50.7 -152.6 -51.05 L-152.15 -51.4 -148.7 -51.15 -147.65 -50.9 -146.25 -50.6 -144.9 -50.2 -144.15 -50.1 -143.4 -49.95 -143.4 -50.0 -143.0 -50.1 -142.6 -49.9 -138.9 -50.0 Q-136.8 -50.0 -135.15 -48.0 -134.7 -47.3 -134.75 -46.65 L-134.85 -45.8 -134.35 -44.7 -134.05 -44.45 -132.8 -42.55 Q-132.3 -41.6 -132.15 -40.65 L-132.1 -39.95 -131.7 -39.2 -131.4 -38.4 -131.4 -37.85 -131.65 -36.7 -131.35 -35.8 -131.05 -34.9 -130.9 -33.1 -131.1 -31.45 -131.05 -31.35 -130.7 -30.1 -130.35 -29.05 -130.35 -29.1 -130.3 -28.35 -130.2 -27.6 Q-130.2 -26.3 -130.55 -25.45 L-130.8 -23.3 -130.75 -20.5 -131.4 -18.3 -134.35 -8.1 -134.65 -7.25 -134.6 -6.9 -135.0 -6.25 -134.8 -6.2 -134.8 -6.3 -134.2 -6.25 -133.65 -6.1 -133.4 -6.1 -130.5 -5.6 -126.3 -4.7 -125.55 -4.6 -125.5 -4.45 -125.4 -4.35 -125.35 -5.4 -125.35 -5.95 -124.9 -6.45 -123.5 -6.15 -122.4 -5.6 -120.35 -4.7 -118.75 -3.85 -116.95 -2.7 -116.3 -2.15 Q-115.85 -1.95 -115.35 -1.45 L-113.7 0.15 -111.1 3.25 Q-109.25 5.6 -108.9 6.35 L-107.1 9.45 -103.55 15.4 Q-100.55 20.75 -100.55 21.65 L-100.55 21.75 Q-100.2 22.4 -100.2 22.75 -100.2 23.5 -102.95 26.1 L-104.05 27.15 -103.9 27.55 -103.35 28.4 -102.7 30.15 -101.4 33.65 -99.4 40.6 -97.75 47.45 Q-96.9 51.6 -96.9 54.5 L-96.95 55.0 -96.9 55.35 Q-96.9 55.9 -97.25 57.45 L-97.7 59.25 -99.6 63.1 -99.75 63.5 -98.9 63.6 -96.3 63.75 -95.85 63.9 -94.9 64.1 Q-94.2 64.35 -92.4 65.25 -89.0 66.9 -86.85 68.4 -85.05 69.65 -83.95 72.45 -83.05 74.7 -83.05 76.25 -83.05 77.65 -84.2 82.5 L-85.1 85.6 -86.15 87.85 -86.85 89.1 -88.35 92.0 Q-89.6 93.95 -92.8 97.85 L-95.55 100.85 -98.35 103.75 -101.2 106.6 -104.1 109.55 -114.6 121.25 -117.15 124.1 -119.7 127.1 -122.4 129.9 Q-123.9 131.45 -124.3 132.55 L-123.45 133.45 -121.45 135.05 Q-120.2 136.35 -120.2 138.2 L-120.25 139.55 -120.95 140.95 -121.2 141.25 -121.9 141.7 -123.2 142.05 -126.45 142.55 -130.8 142.9 -136.65 142.8 -138.45 142.6 -139.4 142.55 -140.45 142.25 -143.15 141.5 -146.05 139.8 -152.5 135.1 -155.5 132.85 Q-157.3 131.55 -159.3 130.75 L-161.2 130.1 Q-162.55 129.55 -163.0 128.95 L-163.75 127.85 -163.75 126.7 -163.45 123.85 Q-163.15 122.7 -162.05 120.65 -161.35 119.3 -159.35 117.65 L-156.2 114.65 -152.7 111.65 -149.15 108.65 -147.85 107.15 -146.5 105.65 -143.85 102.85 -144.95 102.5 -145.6 102.0 -147.05 102.15 -147.05 102.25 -148.45 102.1 -149.4 102.3 -153.65 102.45 -154.9 102.55 -155.15 102.7 -157.55 102.85 -161.3 102.7 -161.3 102.6 -163.45 102.45 -164.95 102.35 -166.55 102.25 -168.7 102.45 -169.4 102.65 -170.9 106.8 Q-171.3 108.05 -171.35 109.25 L-171.35 111.65 -171.1 116.65 -170.0 122.35 -168.9 127.7 -168.85 129.0 -168.65 130.4 Q-168.2 131.6 -168.15 132.75 L-168.05 133.4 -167.3 134.6 -165.6 137.15 -164.35 139.25 Q-163.15 141.45 -163.15 142.1 L-163.45 143.2 -163.8 144.1 Q-164.75 145.2 -169.8 145.2 L-180.65 144.9 -183.2 144.4 -186.2 143.7 -187.75 142.9 -188.6 141.9 -188.7 140.9 -188.8 139.0 -188.45 136.2 -188.0 133.8 -187.75 128.95 Q-187.75 126.35 -188.45 123.65 -189.25 120.75 -190.7 118.6 -193.5 114.45 -194.4 113.4 L-196.2 110.9 -197.9 108.25 Q-199.1 106.5 -200.75 102.45 L-202.45 97.95 -203.1 95.35 -203.45 92.8 Q-204.8 88.75 -204.8 87.6 L-204.75 87.1 -205.0 84.75 -204.65 82.65 -204.0 81.1 -203.1 79.35 Q-202.55 78.15 -201.9 77.5 L-200.95 76.35 -201.15 75.3 -201.1 73.35 -201.1 71.35 -201.35 69.4 Q-201.35 65.2 -200.8 63.75 L-200.3 60.95 -200.0 59.55 -200.0 58.8 -199.75 58.3 -200.15 56.75 -200.75 54.8 -201.15 53.75 -201.4 52.0 Q-201.75 50.45 -201.75 48.5 L-201.9 41.65 Q-201.9 35.55 -201.5 31.85 -201.5 30.25 -200.7 26.95 L-200.2 24.5 -199.85 23.3 -199.85 23.2 Q-202.1 22.65 -203.1 22.05 -204.15 21.4 -204.15 20.45 -204.15 19.2 -202.65 15.75 -201.45 12.7 -200.15 11.1 L-196.85 6.4 -195.35 4.05 -193.55 1.7 -189.6 -3.0 -187.55 -5.25 -187.3 -5.45 -187.3 -5.35 -186.7 -5.85 Q-186.0 -6.4 -183.35 -7.25 L-178.95 -8.7 -176.55 -9.45 -175.45 -9.55 -175.2 -9.5 Q-174.9 -9.4 -174.9 -9.05 L-174.55 -8.2 Q-174.1 -8.55 -173.1 -8.5 L-172.95 -8.7 -171.9 -9.0 -169.2 -9.55 -167.2 -9.8 -163.9 -10.9 -162.85 -11.45 -162.25 -11.6 -162.05 -11.9 -161.3 -12.9 -162.15 -14.0 -162.9 -14.65 -163.2 -15.2 -163.8 -15.75 -164.45 -16.15 Q-165.0 -16.65 -165.0 -17.4 L-164.8 -18.1 -164.6 -18.9 -164.7 -19.35 Q-165.75 -19.05 -166.35 -19.9 -166.85 -20.5 -166.85 -21.15 L-166.3 -22.95 -167.3 -24.1 Q-168.35 -25.05 -168.35 -26.0 -168.35 -26.7 -167.8 -27.45 -167.25 -28.15 -167.25 -29.1 -167.25 -29.5 -167.4 -29.6 L-168.0 -30.25 -168.2 -31.05 Q-168.7 -30.5 -169.1 -30.5 -169.75 -30.5 -169.95 -30.9 L-170.05 -31.35 -170.05 -31.45 -170.05 -31.5 -170.05 -32.05 Q-170.05 -33.2 -169.7 -33.8 L-167.9 -35.9 Q-167.0 -36.85 -166.7 -37.9 L-166.4 -38.85 -166.45 -39.75 M-162.55 -26.55 L-163.05 -25.65 Q-163.45 -25.1 -163.45 -23.4 -163.45 -21.8 -162.4 -20.15 -161.5 -18.7 -160.2 -17.85 L-160.0 -17.9 -159.8 -17.6 -159.4 -17.4 -158.55 -16.75 -158.3 -17.95 Q-158.3 -19.15 -159.25 -20.15 L-160.65 -21.7 -161.3 -22.6 -162.05 -23.6 Q-162.65 -24.8 -162.65 -25.45 L-162.55 -26.55 M-140.15 -37.55 L-142.05 -37.15 -142.4 -37.15 -142.3 -35.95 Q-142.3 -34.85 -143.1 -33.75 -143.85 -32.75 -144.65 -32.45 L-145.3 -32.45 -145.35 -32.8 -144.65 -33.4 -143.65 -34.25 Q-143.25 -34.9 -143.25 -35.95 L-143.55 -37.15 -146.25 -37.5 -148.85 -37.9 Q-150.4 -37.9 -151.25 -35.7 L-151.85 -33.25 Q-152.45 -30.0 -152.45 -28.75 L-152.25 -27.0 -152.1 -25.5 Q-152.1 -24.6 -152.45 -23.35 L-152.85 -21.65 -152.7 -20.6 -152.2 -19.3 Q-151.7 -17.95 -149.35 -17.25 L-149.35 -17.4 -149.15 -17.5 -149.2 -17.35 -148.7 -15.2 -148.1 -13.3 -147.05 -11.2 Q-146.15 -9.75 -145.3 -9.45 L-145.2 -9.25 -143.55 -9.0 -142.25 -8.6 Q-141.75 -8.6 -140.75 -9.6 L-139.7 -10.85 -140.0 -11.1 -141.55 -11.15 -141.6 -11.45 Q-141.6 -11.6 -140.45 -11.95 -139.35 -12.25 -139.35 -12.6 -139.35 -13.0 -139.9 -13.25 L-142.4 -13.15 -142.5 -13.1 -142.8 -13.15 Q-143.5 -13.25 -143.6 -13.6 L-143.7 -14.3 -143.2 -14.95 -142.0 -16.4 Q-141.25 -17.15 -140.15 -17.5 L-139.95 -17.6 -141.75 -19.0 Q-142.6 -19.7 -142.6 -20.25 -142.6 -20.95 -141.4 -21.85 -140.05 -22.9 -138.5 -22.9 -137.05 -22.9 -137.2 -21.65 L-137.25 -21.15 -137.65 -20.55 -134.85 -20.55 Q-137.0 -23.6 -138.1 -28.1 L-138.95 -27.55 -139.8 -26.9 -140.35 -26.25 Q-140.85 -25.9 -142.05 -25.9 L-145.45 -26.15 -146.75 -26.4 -148.4 -26.6 -148.6 -26.9 Q-148.6 -27.7 -145.1 -28.8 -144.8 -28.9 -144.35 -29.15 L-143.15 -29.5 -142.2 -29.95 -138.45 -30.25 -136.05 -30.05 -135.5 -29.9 -135.45 -30.05 Q-135.45 -30.95 -136.3 -31.4 L-137.7 -31.85 Q-138.7 -32.25 -139.05 -32.6 L-139.3 -33.55 Q-139.3 -34.0 -138.7 -35.05 -138.15 -36.1 -138.15 -36.6 L-138.45 -37.25 -138.9 -36.65 Q-139.4 -35.45 -139.85 -35.45 L-140.3 -35.9 -140.45 -36.5 -140.05 -37.55 -140.15 -37.55 M-131.65 -32.6 L-131.6 -33.0 -131.9 -34.1 -132.15 -33.75 -132.1 -33.65 -131.65 -32.6 M-134.75 -25.65 L-135.5 -24.75 -135.65 -24.3 -135.1 -22.8 -134.5 -21.8 -134.1 -23.0 -133.8 -24.25 -134.05 -25.1 Q-134.35 -25.65 -134.75 -25.65 M-159.0 -12.4 Q-159.0 -10.1 -160.15 -6.55 L-160.95 -4.5 -159.6 -3.15 -158.45 -2.15 -157.2 -1.15 -155.1 0.8 -151.2 4.8 -149.95 6.3 -147.7 4.3 Q-145.4 1.75 -145.4 0.55 -145.4 0.25 -145.55 0.15 L-147.75 -0.25 -148.4 -0.4 -150.05 -0.9 Q-150.8 -1.15 -152.7 -2.1 L-153.45 -2.55 Q-154.35 -3.25 -154.45 -4.4 L-154.45 -6.5 Q-154.8 -8.35 -156.1 -10.55 L-156.95 -11.65 -157.5 -12.4 -159.1 -13.7 -159.0 -12.4 M-121.25 41.5 L-122.5 38.05 -123.45 36.25 -124.45 34.6 -126.5 29.95 -126.7 30.45 Q-126.95 31.55 -128.8 35.35 L-134.2 45.1 Q-137.85 50.75 -138.75 54.85 -139.85 59.95 -139.75 63.65 L-139.4 64.0 Q-138.05 63.5 -137.0 63.35 L-132.2 63.05 -125.2 62.55 -119.0 62.15 -118.95 62.3 -118.05 60.75 -116.05 57.1 Q-115.6 56.45 -115.45 55.2 L-115.3 54.5 -115.7 53.55 -116.5 51.85 -118.1 48.35 -119.85 44.9 -121.25 41.5" fill="#000000" fill-rule="evenodd" stroke="none"/>
      <path d="M-134.75 -25.65 Q-134.35 -25.65 -134.05 -25.1 L-133.8 -24.25 -134.1 -23.0 -134.5 -21.8 -135.1 -22.8 -135.65 -24.3 -135.5 -24.75 -134.75 -25.65" fill="#663f6b" fill-rule="evenodd" stroke="none"/>
      <path d="M-140.15 -37.55 L-140.05 -37.55 -140.45 -36.5 -140.3 -35.9 -139.85 -35.45 Q-139.4 -35.45 -138.9 -36.65 L-138.45 -37.25 -138.15 -36.6 Q-138.15 -36.1 -138.7 -35.05 -139.3 -34.0 -139.3 -33.55 L-139.05 -32.6 Q-138.7 -32.25 -137.7 -31.85 L-136.3 -31.4 Q-135.45 -30.95 -135.45 -30.05 L-135.5 -29.9 -136.05 -30.05 -138.45 -30.25 -142.2 -29.95 -143.15 -29.5 -144.35 -29.15 Q-144.8 -28.9 -145.1 -28.8 -148.6 -27.7 -148.6 -26.9 L-148.4 -26.6 -146.75 -26.4 -145.45 -26.15 -142.05 -25.9 Q-140.85 -25.9 -140.35 -26.25 L-139.8 -26.9 -138.95 -27.55 -138.1 -28.1 Q-137.0 -23.6 -134.85 -20.55 L-137.65 -20.55 -137.25 -21.15 -137.2 -21.65 Q-137.05 -22.9 -138.5 -22.9 -140.05 -22.9 -141.4 -21.85 -142.6 -20.95 -142.6 -20.25 -142.6 -19.7 -141.75 -19.0 L-139.95 -17.6 -140.15 -17.5 Q-141.25 -17.15 -142.0 -16.4 L-143.2 -14.95 -143.7 -14.3 -143.6 -13.6 Q-143.5 -13.25 -142.8 -13.15 L-142.5 -13.1 -142.4 -13.15 -139.9 -13.25 Q-139.35 -13.0 -139.35 -12.6 -139.35 -12.25 -140.45 -11.95 -141.6 -11.6 -141.6 -11.45 L-141.55 -11.15 -140.0 -11.1 -139.7 -10.85 -140.75 -9.6 Q-141.75 -8.6 -142.25 -8.6 L-143.55 -9.0 -145.2 -9.25 -145.3 -9.45 Q-146.15 -9.75 -147.05 -11.2 L-148.1 -13.3 -148.7 -15.2 -149.2 -17.35 -149.15 -17.5 -149.35 -17.4 -149.35 -17.25 Q-151.7 -17.95 -152.2 -19.3 L-152.7 -20.6 -152.85 -21.65 -152.45 -23.35 Q-152.1 -24.6 -152.1 -25.5 L-152.25 -27.0 -152.45 -28.75 Q-152.45 -30.0 -151.85 -33.25 L-151.25 -35.7 Q-150.4 -37.9 -148.85 -37.9 L-146.25 -37.5 -143.55 -37.15 -143.25 -35.95 Q-143.25 -34.9 -143.65 -34.25 L-144.65 -33.4 -145.35 -32.8 -145.3 -32.45 -144.65 -32.45 Q-143.85 -32.75 -143.1 -33.75 -142.3 -34.85 -142.3 -35.95 L-142.4 -37.15 -142.05 -37.15 -140.15 -37.55 M-162.55 -26.55 L-162.65 -25.45 Q-162.65 -24.8 -162.05 -23.6 L-161.3 -22.6 -160.65 -21.7 -159.25 -20.15 Q-158.3 -19.15 -158.3 -17.95 L-158.55 -16.75 -159.4 -17.4 -159.8 -17.6 -160.0 -17.9 -160.2 -17.85 Q-161.5 -18.7 -162.4 -20.15 -163.45 -21.8 -163.45 -23.4 -163.45 -25.1 -163.05 -25.65 L-162.55 -26.55 M-159.0 -12.4 L-159.1 -13.7 -157.5 -12.4 -156.95 -11.65 -156.1 -10.55 Q-154.8 -8.35 -154.45 -6.5 L-154.45 -4.4 Q-154.35 -3.25 -153.45 -2.55 L-152.7 -2.1 Q-150.8 -1.15 -150.05 -0.9 L-148.4 -0.4 -147.75 -0.25 -145.55 0.15 Q-145.4 0.25 -145.4 0.55 -145.4 1.75 -147.7 4.3 L-149.95 6.3 -151.2 4.8 -155.1 0.8 -157.2 -1.15 -158.45 -2.15 -159.6 -3.15 -160.95 -4.5 -160.15 -6.55 Q-159.0 -10.1 -159.0 -12.4" fill="url(#gradient2)" fill-rule="evenodd" stroke="none"/>
    </g>
    <linearGradient gradientTransform="matrix(0.0, -0.0281, 0.0179, 0.0, -147.15, -15.55)" gradientUnits="userSpaceOnUse" id="gradient2" spreadMethod="pad" x1="-819.2" x2="819.2">
      <stop offset="0.0" stop-color="#1d1320"/>
      <stop offset="0.9882352941176471" stop-color="#663f6b"/>
    </linearGradient>
    <g id="sprite2" transform="matrix(1.0, 0.0, 0.0, 1.0, 0.0, 0.0)">
      <use ffdec:characterId="4044" height="144.05" transform="matrix(1.0, 0.0, 0.0, 1.0, 0.0, 0.0)" width="830.7" xlink:href="#shape4"/>
    </g>
    <g id="shape4" transform="matrix(1.0, 0.0, 0.0, 1.0, 0.0, 0.0)">
      <path d="M830.45 7.1 L828.75 10.0 827.0 12.75 826.8 13.1 828.0 14.0 829.05 14.95 829.15 15.25 829.35 15.5 828.4 16.3 Q826.05 17.5 822.95 19.45 L818.05 22.4 811.8 25.85 809.8 26.7 809.25 26.85 809.1 26.9 801.95 28.85 795.0 30.6 788.5 32.35 784.25 33.45 773.75 38.6 763.45 43.1 758.75 45.05 Q753.15 47.6 744.9 50.6 L728.1 56.9 724.05 58.4 720.9 59.3 720.85 59.35 721.05 59.35 720.65 59.5 720.15 59.75 Q719.7 59.95 719.2 60.25 L716.3 61.9 711.1 65.1 Q710.75 65.3 710.25 65.65 L710.2 65.65 Q709.75 66.25 710.0 66.8 L710.1 66.85 710.2 67.0 713.9 66.65 717.55 66.4 720.5 66.4 720.7 66.55 724.95 66.9 729.0 67.55 731.75 68.05 737.0 69.1 737.3 69.25 741.15 69.5 Q742.9 69.75 743.6 70.3 L744.3 71.0 747.6 71.55 750.6 71.9 Q756.35 69.6 763.7 68.45 L777.85 67.75 Q784.1 68.35 784.35 70.55 784.55 71.5 783.5 72.6 L784.3 72.8 786.2 73.35 Q787.2 73.6 787.6 73.9 L788.45 74.6 Q789.15 75.2 792.6 76.0 L796.55 76.85 Q798.5 77.3 800.3 78.05 L801.85 78.75 801.95 78.7 802.3 78.95 803.05 79.6 802.9 79.7 Q803.65 81.55 798.65 84.6 L797.2 85.75 799.65 85.05 799.65 85.1 799.35 85.3 796.25 86.5 Q794.1 88.4 792.45 90.7 L791.65 90.8 Q791.3 89.55 793.2 87.8 L793.65 87.5 790.5 88.95 782.55 92.85 775.05 96.7 Q768.7 100.05 759.1 104.4 L741.9 112.15 725.6 119.85 Q713.2 125.55 701.15 129.6 685.9 134.75 679.85 136.4 671.25 138.7 665.2 138.7 L658.8 138.55 644.15 138.4 636.8 138.1 628.65 137.45 621.5 136.05 609.7 135.3 599.0 135.6 590.7 135.95 580.35 135.3 569.65 134.7 559.45 135.15 553.6 135.75 538.55 136.65 538.0 136.6 534.7 136.95 532.7 137.1 518.0 137.25 510.15 137.2 500.6 138.4 492.4 139.8 485.75 140.4 Q478.95 140.4 483.65 137.0 L482.6 137.4 481.45 137.7 481.25 137.6 484.1 136.55 478.0 136.5 Q465.15 136.5 442.7 137.1 420.35 137.7 407.7 137.7 397.05 137.7 392.3 137.4 L387.45 137.1 376.0 136.55 Q375.15 136.35 376.5 135.75 L379.9 134.5 378.85 134.5 371.65 134.35 368.1 134.35 363.95 135.4 359.55 136.1 355.35 136.3 349.0 137.1 345.3 137.4 Q343.25 137.4 344.5 136.35 L346.3 135.3 348.5 134.75 346.45 134.35 Q345.75 134.0 346.7 133.5 L345.05 134.1 344.0 134.1 344.4 133.9 345.15 133.65 345.85 133.45 345.95 133.35 346.3 133.1 346.65 132.95 346.45 132.95 346.6 132.8 340.6 132.25 340.2 132.25 337.35 133.4 337.05 133.45 338.7 132.5 338.35 132.6 336.55 132.95 336.05 132.85 336.3 132.7 323.25 134.95 306.55 136.05 293.2 135.75 274.55 135.5 263.35 135.65 250.0 135.85 236.45 135.35 233.55 134.55 228.05 133.25 227.45 133.5 227.75 133.25 227.9 133.2 223.3 132.6 220.05 133.25 214.9 133.95 212.3 133.7 206.5 133.55 203.85 133.2 199.55 132.9 195.45 132.9 192.6 133.95 192.55 133.95 Q192.8 133.6 194.55 132.8 L194.35 132.55 Q194.3 132.45 195.25 132.05 L197.3 131.3 197.5 131.25 198.3 130.85 Q199.4 130.3 200.75 130.1 L200.9 130.05 201.5 129.8 204.5 128.65 209.95 126.25 Q216.5 123.4 220.2 121.55 221.85 120.75 225.9 119.2 L232.0 116.85 234.75 115.7 237.75 114.5 244.0 112.05 244.25 112.0 248.95 109.95 255.35 107.3 256.25 106.8 257.1 106.3 Q258.4 105.7 260.8 105.0 L263.6 104.1 264.6 103.3 Q265.15 102.7 265.6 102.5 L271.55 100.2 278.7 97.35 282.5 95.9 287.2 94.2 292.2 92.65 297.55 91.05 299.7 90.3 Q301.15 89.75 302.15 89.45 L305.05 88.75 308.1 87.95 Q311.15 86.8 313.75 86.3 L315.4 86.1 317.2 85.8 319.25 85.4 320.4 85.1 323.7 84.4 327.0 83.75 334.3 82.45 337.7 81.95 341.0 80.3 343.4 79.6 347.4 79.1 349.55 78.85 350.05 78.8 350.95 78.7 352.1 78.65 Q354.3 78.65 354.35 79.1 L354.3 79.2 354.5 79.1 356.9 78.15 357.45 77.85 360.55 77.25 362.9 76.9 363.65 76.8 367.75 76.1 368.95 75.9 372.1 75.4 373.65 75.2 375.8 74.3 Q380.95 71.95 383.4 69.35 L388.85 63.85 389.2 63.7 389.8 63.1 389.7 63.1 390.05 62.9 390.35 62.65 390.45 62.55 Q392.45 60.9 395.5 59.0 L395.3 59.0 394.8 58.9 394.75 58.85 394.25 58.75 393.45 58.45 Q392.75 58.4 393.1 58.1 L393.45 57.95 393.75 57.7 394.75 57.0 395.8 56.35 396.85 55.75 399.0 55.0 400.25 54.7 400.75 54.45 408.05 51.2 411.25 49.9 Q413.65 48.95 418.6 47.3 422.2 46.1 428.25 44.7 L434.3 43.4 437.55 42.85 439.35 42.35 441.25 41.85 446.5 41.2 448.15 41.05 449.75 40.9 453.45 40.75 455.2 40.7 456.25 40.75 458.25 40.85 458.6 41.65 462.45 41.9 463.5 42.0 464.8 42.3 Q466.7 42.6 466.9 43.3 L467.4 43.8 467.7 44.45 Q467.4 45.9 466.5 47.0 L464.85 48.3 463.7 49.3 463.8 49.3 463.3 49.65 462.9 49.75 462.7 49.85 462.7 49.9 462.75 49.9 463.4 50.2 463.5 50.25 463.5 50.3 463.45 50.4 463.3 50.4 462.35 51.0 461.0 51.7 459.95 52.4 458.45 53.2 457.0 53.8 456.0 54.1 454.7 54.35 450.7 55.2 444.65 58.05 444.0 58.35 443.15 58.8 442.7 59.0 Q434.3 62.85 425.9 65.7 421.35 67.8 419.2 69.2 L417.05 71.05 420.7 71.55 423.45 71.9 425.9 72.2 Q426.7 72.25 426.65 72.4 L426.15 72.75 425.5 73.35 425.35 73.55 427.0 73.65 Q428.25 73.1 431.15 72.7 L436.85 72.45 Q439.25 72.6 439.25 73.1 L438.6 73.65 437.85 74.05 449.75 74.8 Q452.15 75.25 452.6 75.75 454.2 77.6 451.4 81.45 L449.0 84.4 Q447.8 86.2 448.45 87.2 448.8 87.75 447.65 88.65 L446.0 90.1 Q445.25 92.15 444.0 92.9 435.0 98.55 422.95 104.5 420.95 105.5 418.2 107.35 L413.7 110.3 407.9 113.15 405.7 114.4 Q403.75 115.5 398.05 119.3 L395.7 120.95 399.85 119.55 406.05 117.0 Q408.5 116.05 413.9 114.5 L422.1 112.05 428.05 109.5 431.4 108.25 432.4 107.85 433.7 107.2 434.45 106.75 437.35 104.85 442.4 101.05 Q444.95 99.3 449.2 97.35 L453.8 95.15 456.85 93.6 459.6 92.4 Q461.2 91.8 464.45 90.95 L467.25 90.3 470.85 89.85 473.95 89.6 Q474.15 89.6 474.5 89.95 L475.0 90.15 475.3 90.5 Q476.35 92.4 472.65 95.9 470.2 98.2 465.65 101.35 L457.5 106.65 457.15 107.0 455.7 108.2 454.9 108.85 460.9 107.2 468.55 105.75 471.7 105.05 474.85 104.2 481.35 102.75 488.2 101.35 492.45 100.2 496.8 97.9 Q500.9 96.05 506.1 94.7 510.8 93.45 520.5 91.55 535.0 88.7 540.9 90.3 542.45 90.7 543.15 91.3 L552.0 89.85 556.35 89.1 556.65 89.0 Q559.1 88.15 560.8 87.85 L563.0 87.35 568.25 86.2 573.3 85.05 583.05 82.8 593.55 80.35 595.55 79.95 596.95 80.2 599.35 80.6 600.95 80.85 604.35 80.1 605.4 79.55 Q607.5 78.6 607.9 78.2 608.35 77.75 609.95 76.9 L612.5 75.5 614.0 74.55 614.4 74.55 616.55 73.25 Q622.3 69.6 628.55 64.25 628.95 63.4 629.95 62.6 L630.0 62.55 628.8 60.6 Q627.95 59.75 629.55 58.45 631.65 57.1 632.35 56.35 L635.05 54.25 638.05 52.15 637.75 52.25 Q634.35 51.45 637.3 49.65 L643.25 46.55 Q647.75 43.85 650.65 42.3 L650.4 42.3 Q650.05 42.3 647.4 37.75 L647.2 37.75 647.35 37.65 647.2 37.5 647.55 37.45 Q647.3 37.0 648.5 36.3 L651.25 34.85 Q654.5 33.0 656.45 32.15 L661.05 29.6 Q665.45 27.2 666.9 26.55 L667.7 26.25 667.75 26.2 674.5 24.3 679.5 23.05 701.2 15.25 717.2 9.85 Q724.2 7.6 730.75 5.85 732.3 5.2 738.15 3.9 L738.65 3.85 739.65 3.25 Q741.75 2.3 743.95 1.95 746.25 1.55 746.0 2.35 L745.95 2.4 750.45 1.65 755.15 1.2 764.75 0.85 769.7 0.5 778.5 0.85 Q783.3 -0.25 784.25 0.1 784.95 0.4 782.65 1.2 L782.7 1.2 791.0 2.2 808.55 2.7 824.5 3.0 Q827.95 3.0 829.45 3.75 830.4 4.2 830.7 5.05 L830.2 5.2 830.1 5.25 830.0 5.3 Q830.75 5.95 830.45 7.1 M710.95 67.45 L710.9 67.45 710.95 67.5 710.95 67.45 M711.6 67.95 L711.8 67.95 712.0 67.9 711.55 67.9 711.6 67.95 M483.6 138.2 Q482.1 139.95 485.05 139.95 L491.55 139.6 499.05 138.35 504.15 137.55 506.65 137.2 497.05 136.9 484.9 136.55 483.6 138.2 M528.8 136.4 Q523.15 136.4 517.9 136.65 L533.0 136.7 536.4 136.55 528.8 136.4 M423.05 16.1 L425.65 16.45 426.55 16.25 428.9 15.9 431.65 15.85 432.95 16.1 435.55 16.7 436.2 17.45 Q438.45 18.65 438.6 19.0 438.8 19.7 436.5 20.75 L436.0 20.95 436.4 21.5 Q435.5 26.4 426.7 30.45 421.25 32.95 410.7 36.2 L401.5 39.1 400.5 39.9 400.05 40.0 386.45 43.9 373.4 47.7 368.45 49.05 367.1 49.1 354.45 49.85 352.2 50.4 341.45 53.15 330.65 55.65 324.3 57.05 317.7 58.4 309.75 59.75 304.8 60.55 303.5 60.7 302.1 60.85 302.3 60.7 301.65 60.8 296.75 61.25 295.0 61.25 294.0 61.3 288.8 61.9 279.85 63.3 271.85 64.75 271.6 64.85 Q271.45 64.9 271.25 65.05 L270.2 65.65 267.1 66.85 264.9 67.6 261.85 68.75 Q259.4 69.9 259.05 71.05 L258.85 71.65 263.2 71.35 Q268.25 72.9 261.3 76.1 259.2 77.05 255.15 78.45 256.2 79.4 254.35 80.65 L249.95 83.1 Q245.2 85.6 240.45 87.75 L232.1 91.25 Q226.7 93.4 221.5 95.8 L205.75 103.25 200.95 105.65 199.1 106.4 199.15 106.35 184.55 111.7 Q173.85 115.15 168.8 117.5 166.1 118.7 161.55 121.05 L157.9 122.75 154.1 124.45 Q152.65 125.1 151.4 126.15 L149.15 127.85 Q147.15 129.15 143.45 130.9 L143.75 130.85 Q144.8 130.85 142.3 131.85 140.15 132.85 139.85 133.2 139.55 133.5 137.55 134.4 L133.8 135.85 127.8 137.35 122.25 138.85 115.45 140.3 111.05 141.05 106.9 141.85 103.05 142.5 99.2 142.95 71.45 143.85 59.15 143.55 Q50.1 143.25 40.65 143.25 29.8 143.25 18.65 143.7 L7.0 144.05 Q-0.95 144.05 0.15 142.7 0.5 142.25 2.0 141.55 L4.05 140.6 8.25 138.65 Q11.0 137.4 11.9 136.65 13.5 135.4 12.75 134.6 L11.65 133.65 Q11.05 133.0 11.05 132.6 11.05 131.2 16.55 128.7 21.25 126.55 33.75 121.95 46.25 117.35 50.55 115.35 54.95 113.35 54.3 112.0 53.7 110.7 56.2 109.55 62.25 106.8 81.05 102.15 L94.0 98.9 Q100.05 97.35 101.65 96.65 104.6 95.25 101.3 94.3 L100.55 94.05 99.7 94.35 93.05 96.7 85.5 99.0 99.4 94.0 99.7 93.9 91.8 93.05 Q91.65 93.05 92.25 92.8 L93.25 92.55 94.55 92.4 93.6 92.7 100.9 93.45 Q106.05 91.5 110.4 89.55 L117.35 86.2 Q121.2 84.25 123.9 83.0 L131.45 79.7 129.65 79.75 Q123.15 79.75 127.25 76.65 128.5 75.65 130.65 74.45 132.0 73.75 132.95 73.35 L133.3 73.15 133.5 73.1 133.85 73.1 Q128.55 75.9 127.55 77.55 126.6 79.25 130.55 79.25 L132.8 79.1 Q139.3 76.4 147.35 73.3 L173.65 63.6 Q179.05 61.6 187.45 58.75 L201.45 53.9 207.85 51.65 209.55 50.8 212.25 49.35 211.3 49.5 211.25 49.5 212.6 49.2 218.4 46.25 223.15 44.25 Q226.7 42.8 224.5 44.3 L217.45 47.95 216.55 48.4 218.4 48.05 224.25 46.05 Q229.55 44.25 231.15 44.45 228.65 44.9 226.35 45.65 L222.8 46.9 220.35 47.75 231.65 46.3 237.2 45.75 237.75 45.75 244.5 44.1 Q251.15 42.75 256.2 42.6 261.45 42.3 263.1 43.55 264.55 44.7 262.35 46.15 L261.85 46.5 262.55 46.55 265.25 47.1 267.8 47.1 273.1 47.2 273.5 47.4 274.2 47.5 277.3 47.4 278.55 47.25 278.85 47.25 281.4 47.0 285.1 46.65 288.2 46.15 290.95 45.6 296.45 44.4 301.9 42.95 311.95 40.3 321.45 37.6 322.4 36.9 324.25 35.9 325.45 35.35 325.65 35.3 328.5 33.95 Q331.65 32.3 338.15 31.0 L339.65 30.65 341.4 29.75 342.7 29.0 342.75 28.9 347.0 27.9 361.8 24.05 373.95 20.75 376.55 20.05 381.1 19.8 382.6 19.4 390.35 17.9 399.5 16.4 414.45 15.25 418.4 15.4 420.6 15.8 423.05 16.1 M438.9 42.65 L438.85 42.65 438.65 42.7 438.9 42.65 M437.4 73.95 L437.15 74.05 437.2 74.05 437.4 73.95 M341.95 130.9 L346.5 129.05 348.7 128.0 350.2 127.25 356.15 124.75 Q362.8 121.7 365.85 119.9 368.75 118.25 373.8 114.65 L375.6 113.4 376.7 112.15 377.65 111.55 379.2 110.85 381.3 109.6 Q383.15 108.75 385.1 107.2 L388.35 104.7 Q381.1 107.3 377.35 109.05 L366.95 114.5 358.8 117.75 351.75 120.55 Q351.05 120.9 348.1 123.35 L347.2 124.0 346.45 124.7 346.65 125.05 346.85 125.35 345.95 126.0 Q344.4 126.8 342.75 128.7 L340.1 130.85 Q340.95 130.95 337.6 132.5 L339.85 131.9 Q340.95 131.35 341.95 130.9 M351.65 134.2 L350.5 133.95 349.45 133.35 348.85 133.15 348.35 133.35 Q346.3 134.3 350.05 134.3 L351.65 134.2 M205.7 52.8 L201.8 54.15 188.15 58.9 174.55 63.7 Q155.15 70.8 148.5 73.35 L134.45 78.9 144.35 76.65 155.45 73.35 Q163.4 70.85 173.0 67.1 L187.7 61.05 202.25 54.6 205.7 52.8 M216.65 48.7 L215.6 48.85 214.15 49.55 215.7 49.0 216.65 48.7 M214.8 48.75 L216.95 47.65 219.5 46.25 214.5 48.8 214.8 48.75 M196.9 132.3 L197.0 132.3 197.1 132.2 196.9 132.3 M253.6 119.65 L252.05 120.15 250.7 120.6 248.65 121.5 246.75 122.4 Q244.95 123.2 242.95 124.25 L238.5 126.05 233.15 128.85 230.4 129.8 228.3 130.4 Q227.95 130.55 227.4 131.0 L227.35 131.1 227.1 131.45 226.35 132.1 226.2 132.1 226.55 132.15 229.3 131.6 231.65 131.1 Q231.95 130.9 232.15 130.8 L236.1 129.3 239.55 128.0 243.35 126.35 246.1 125.2 261.9 117.75 267.8 115.25 271.85 113.65 Q274.85 112.15 276.5 111.4 L276.35 111.4 266.55 115.1 Q259.3 117.65 256.65 118.75 L255.1 119.2 253.6 119.65 M227.55 132.35 L228.95 132.6 230.4 131.8 228.05 132.3 227.55 132.35" fill="#000000" fill-opacity="0.101960786" fill-rule="evenodd" stroke="none"/>
    </g>
    <g id="sprite3" transform="matrix(1.0, 0.0, 0.0, 1.0, 43.55, 5.6)">
      <use ffdec:characterId="4042" height="393.15" transform="matrix(1.0, 0.0, 0.0, 1.0, -43.55, -5.6)" width="726.2" xlink:href="#shape5"/>
    </g>
    <g id="shape5" transform="matrix(1.0, 0.0, 0.0, 1.0, 43.55, 5.6)">
      <path d="M682.65 -5.6 L682.65 387.55 -43.55 387.55 -43.55 -5.6 682.65 -5.6" fill="url(#gradient3)" fill-rule="evenodd" stroke="none"/>
    </g>
    <linearGradient gradientTransform="matrix(0.0, -0.24, 0.4432, 0.0, 319.55, 191.0)" gradientUnits="userSpaceOnUse" id="gradient3" spreadMethod="pad" x1="-819.2" x2="819.2">
      <stop offset="0.0" stop-color="#00005e"/>
      <stop offset="1.0" stop-color="#ee7700"/>
    </linearGradient>
    <g id="sprite4" transform="matrix(1.0, 0.0, 0.0, 1.0, 265.1, 150.0)">
      <use ffdec:characterId="3477" height="300.0" transform="matrix(1.0, 0.0, 0.0, 1.0, -265.1, -150.0)" width="533.0" xlink:href="#shape6"/>
    </g>
    <g id="shape6" transform="matrix(1.0, 0.0, 0.0, 1.0, 265.1, 150.0)">
      <path d="M267.9 -150.0 L267.9 150.0 -265.1 150.0 -265.1 -150.0 267.9 -150.0 Z" fill="none" stroke="#ff0000" stroke-linecap="round" stroke-linejoin="round" stroke-width="0.05"/>
      <path d="M1.4 -16.05 L1.45 -16.05 Q9.35 -16.05 14.95 -11.35 20.55 -6.65 20.55 0.0 L39.5 0.0 M20.55 0.0 Q20.55 6.65 14.95 11.35 9.35 16.05 1.45 16.05 L1.4 16.05 1.4 21.45 M-36.65 0.0 L-17.55 0.0 -17.55 -0.05 Q-17.55 -6.65 -11.95 -11.35 -6.4 -16.05 1.4 -16.05 M1.4 16.05 Q-6.4 16.05 -11.95 11.35 -17.55 6.65 -17.55 0.0" fill="none" stroke="#ff0000" stroke-linecap="round" stroke-linejoin="round" stroke-opacity="0.2509804" stroke-width="0.05"/>
      <path d="M1.4 -16.05 L1.4 -21.4" fill="none" stroke="#ff0000" stroke-linecap="round" stroke-linejoin="round" stroke-opacity="0.2509804" stroke-width="1.0"/>
      <path d="M181.15 141.4 L181.15 123.6 191.05 123.6 191.05 141.4 181.15 141.4" fill="#ffffff" fill-rule="evenodd" stroke="none"/>
      <path d="M250.55 123.6 L260.45 123.6 260.45 141.4 260.35 141.4 250.55 141.4 250.55 123.6" fill="#000000" fill-rule="evenodd" stroke="none"/>
      <path d="M230.7 123.6 L240.6 123.6 240.6 141.4 230.7 141.4 230.7 123.6" fill="#ff0000" fill-rule="evenodd" stroke="none"/>
      <path d="M191.05 123.6 L201.0 123.6 201.0 141.4 191.05 141.4 191.05 123.6" fill="#ffff00" fill-rule="evenodd" stroke="none"/>
      <path d="M201.0 123.6 L210.9 123.6 210.9 141.4 201.0 141.4 201.0 123.6" fill="#00ffff" fill-rule="evenodd" stroke="none"/>
      <path d="M210.9 123.6 L220.8 123.6 220.8 141.4 210.9 141.4 210.9 123.6" fill="#00ff00" fill-rule="evenodd" stroke="none"/>
      <path d="M220.8 123.6 L230.7 123.6 230.7 141.4 220.8 141.4 220.8 123.6" fill="#ff00ff" fill-rule="evenodd" stroke="none"/>
      <path d="M240.6 123.6 L250.55 123.6 250.55 141.4 240.6 141.4 240.6 123.6" fill="#0000ff" fill-rule="evenodd" stroke="none"/>
      <path d="M260.35 141.4 L260.35 145.4 181.1 145.4 181.1 141.4 181.15 141.4 191.05 141.4 201.0 141.4 210.9 141.4 220.8 141.4 230.7 141.4 240.6 141.4 250.55 141.4 260.35 141.4" fill="url(#gradient4)" fill-rule="evenodd" stroke="none"/>
    </g>
    <linearGradient gradientTransform="matrix(0.0484, 0.0, 0.0, 0.0024, 220.7, 143.35)" gradientUnits="userSpaceOnUse" id="gradient4" spreadMethod="pad" x1="-819.2" x2="819.2">
      <stop offset="0.0" stop-color="#ffffff"/>
      <stop offset="1.0" stop-color="#000000"/>
    </linearGradient>
    <g id="morphshape0" transform="matrix(1.0, 0.0, 0.0, 1.0, 315.25, 256.95)">
      <path d="M-315.25 -256.95 L-315.25 215.0 508.7 215.0 508.7 -256.95 -315.25 -256.95" fill="#000000" fill-opacity="0.7882353" fill-rule="evenodd" stroke="none"/>
      <path d="M-315.25 -256.95 L508.7 -256.95 508.7 215.0 -315.25 215.0 -315.25 -256.95 Z" fill="none" stroke="#000000" stroke-linecap="round" stroke-linejoin="round" stroke-opacity="0.0" stroke-width="0.0"/>
    </g>
  </defs>
</svg>
