<?xml version="1.0" encoding="UTF-8" standalone="no"?>
<svg xmlns:ffdec="https://www.free-decompiler.com/flash" xmlns:xlink="http://www.w3.org/1999/xlink" ffdec:objectType="frame" height="2021.0px" width="4592.9px" xmlns="http://www.w3.org/2000/svg">
  <g transform="matrix(2.0, 0.0, 0.0, 2.0, 2126.0, 970.4)">
    <use ffdec:characterId="4078" height="485.2" transform="matrix(1.0, 0.0, 0.0, 1.0, -409.45, -259.6)" width="934.85" xlink:href="#shape0"/>
    <use ffdec:characterId="4053" height="368.05" transform="matrix(1.0, 0.0, 0.0, 1.0, -55.15, -187.0)" width="256.35" xlink:href="#sprite0"/>
    <filter id="filter2">
      <feConvolveMatrix divisor="1.0" in="SourceGraphic" kernelMatrix="1" order="1 1" result="filterResult8"/>
    </filter>
    <use ffdec:characterId="4077" filter="url(#filter2)" height="196.6" transform="matrix(1.1372, 0.0, 0.0, 1.1372, -231.35, -64.9)" width="121.95" xlink:href="#sprite2"/>
    <use ffdec:characterId="4043" height="393.15" style="mix-blend-mode: overlay" transform="matrix(-1.2089, 0.0, 0.0, 1.2089, 509.9993, -259.0701)" width="726.2" xlink:href="#sprite3"/>
    <use ffdec:characterId="4041" height="300.0" transform="matrix(1.2601, 0.0, 0.0, 1.2601, -287.4488, -221.3629)" width="533.0" xlink:href="#sprite4"/>
  </g>
  <defs>
    <g id="shape0" transform="matrix(1.0, 0.0, 0.0, 1.0, 409.45, 259.6)">
      <path d="M524.9 -259.1 L524.9 225.1 -408.95 225.1 -408.95 -259.1 524.9 -259.1" fill="url(#gradient0)" fill-rule="evenodd" stroke="none"/>
      <path d="M524.9 -259.1 L524.9 225.1 -408.95 225.1 -408.95 -259.1 524.9 -259.1 Z" fill="none" stroke="#000000" stroke-linecap="round" stroke-linejoin="round" stroke-width="1.0"/>
      <path d="M148.3 -103.05 L151.2 -106.8 Q153.45 -109.0 156.85 -110.55 162.5 -113.15 164.05 -114.25 L166.9 -116.15 168.3 -116.9 168.7 -117.05 170.7 -117.35 173.0 -117.55 174.95 -117.35 Q176.0 -117.35 178.1 -118.2 L183.2 -118.55 Q185.35 -118.0 185.65 -117.05 186.0 -116.15 187.65 -115.3 L189.95 -114.75 191.45 -114.05 Q192.55 -113.2 192.25 -111.7 L191.65 -110.25 190.65 -108.25 Q190.3 -107.65 190.4 -106.3 190.35 -104.95 192.35 -102.25 192.95 -101.45 192.75 -100.35 L191.95 -98.3 190.2 -94.4 189.35 -92.4 188.85 -90.9 188.95 -90.6 188.5 -89.7 Q188.3 -89.4 188.2 -88.0 187.95 -85.9 187.4 -84.7 L187.15 -84.3 188.1 -84.75 188.95 -85.2 191.7 -85.65 Q193.5 -85.65 193.9 -85.25 194.35 -84.9 195.65 -84.9 L198.75 -85.25 200.2 -84.95 201.05 -84.7 203.2 -85.05 205.75 -85.65 207.3 -86.15 208.5 -86.35 209.3 -86.45 209.9 -86.9 209.9 -86.65 210.2 -86.55 211.3 -86.95 212.3 -87.4 215.2 -87.65 216.15 -87.9 217.75 -87.95 219.0 -88.1 222.05 -88.25 222.35 -88.25 222.35 -88.4 223.65 -88.3 225.2 -88.05 Q226.25 -88.15 227.85 -87.15 228.05 -86.95 229.3 -86.7 L230.55 -86.25 231.45 -85.15 Q233.25 -83.85 233.65 -82.8 L234.55 -81.4 234.55 -81.15 234.7 -80.75 235.05 -80.1 235.8 -78.8 236.15 -77.6 236.65 -74.9 236.8 -72.15 236.95 -69.45 237.3 -58.5 237.8 -55.75 238.25 -53.05 238.2 -47.6 238.05 -47.4 238.0 -47.3 Q237.5 -46.3 235.65 -44.95 L235.2 -44.65 232.35 -42.65 232.35 -42.4 232.3 -41.25 232.1 -39.05 Q231.8 -38.0 231.95 -36.45 L232.15 -34.65 232.2 -34.3 232.05 -30.3 231.6 -25.95 231.35 -23.85 Q231.15 -22.45 231.25 -21.55 L232.4 -8.5 232.6 -4.1 Q232.6 -2.65 233.15 0.3 L234.25 9.0 Q234.7 11.95 234.25 17.75 L234.15 19.9 233.9 22.15 233.35 24.3 232.95 25.55 232.95 25.65 Q233.25 25.55 233.4 26.0 L233.5 27.0 233.4 28.75 233.4 29.1 232.9 32.35 Q232.7 33.55 232.8 34.1 L232.85 35.0 232.7 35.9 232.3 37.6 Q232.05 38.75 232.6 39.45 233.45 40.75 232.65 43.0 231.55 46.1 231.5 46.7 231.45 47.95 232.0 50.2 L232.85 53.8 232.8 57.45 Q232.6 59.7 233.0 61.0 L233.6 64.6 233.45 65.5 233.25 66.35 233.6 68.15 Q233.4 73.6 233.5 75.25 L233.65 78.8 233.55 80.0 Q233.45 81.65 231.85 85.9 L231.6 86.55 228.35 94.0 225.75 98.85 Q224.6 101.25 224.05 103.9 223.65 105.8 223.4 109.0 L222.6 113.8 Q221.8 117.3 220.95 119.1 L218.2 124.0 216.0 127.5 214.8 131.9 214.6 134.65 214.65 137.45 214.65 140.25 214.35 143.0 213.25 148.5 212.15 154.0 Q211.55 157.35 211.8 159.6 L212.15 165.25 212.1 167.15 213.6 166.8 214.7 167.0 215.1 167.5 214.45 167.85 213.45 167.5 212.05 167.85 211.6 170.65 Q211.15 170.75 211.2 170.25 L211.35 169.55 211.4 168.05 210.95 168.15 210.25 167.9 205.95 168.85 197.5 169.75 188.3 168.95 184.7 168.15 Q180.65 166.9 179.05 166.6 L178.25 166.5 177.05 166.6 Q176.55 169.2 176.7 171.15 L176.3 171.3 Q176.0 169.35 176.35 166.65 L175.8 166.7 174.95 166.65 175.0 166.35 175.15 166.15 176.45 166.05 176.8 164.3 178.5 157.4 Q178.7 156.2 178.35 153.95 L178.1 152.15 Q177.85 151.0 177.3 150.5 175.3 148.7 175.1 147.0 L175.05 145.45 175.05 145.35 Q174.85 144.6 174.95 142.95 175.0 141.1 174.3 139.95 L173.05 137.1 172.0 134.05 Q170.95 131.2 171.05 128.15 171.05 125.9 171.85 122.25 L172.6 119.25 Q173.0 117.5 173.0 116.35 L172.5 113.8 172.4 113.35 Q171.85 111.35 171.8 110.45 L171.9 107.45 171.8 104.5 Q171.45 101.95 173.1 98.75 L172.2 98.45 171.95 98.2 171.15 97.85 170.45 97.85 169.55 99.05 169.1 99.55 167.65 101.25 Q166.6 102.65 165.7 104.5 L162.15 111.2 157.6 117.85 156.4 119.5 155.25 121.2 154.25 122.65 154.65 122.35 152.95 124.5 151.6 126.1 150.65 128.0 149.55 129.75 148.55 132.3 144.7 139.05 Q144.05 140.2 143.15 142.45 L142.25 144.1 Q141.9 144.6 141.6 145.65 L137.75 152.75 137.45 153.2 136.85 154.5 135.5 156.3 134.35 157.85 133.1 159.7 Q132.7 160.6 132.9 162.2 L133.3 163.9 133.3 165.5 Q133.3 165.75 133.75 165.7 L134.25 165.75 134.35 166.8 134.55 167.4 134.55 167.7 134.35 168.0 133.1 168.2 131.45 168.5 121.95 168.7 115.15 168.35 112.4 167.95 109.5 167.6 103.0 167.7 101.8 167.6 99.7 167.45 99.85 166.95 101.6 166.95 101.65 166.2 102.2 164.85 104.25 161.2 105.3 158.5 106.55 155.9 108.2 150.65 108.85 148.05 Q109.2 146.25 109.5 145.4 L110.45 142.45 110.3 142.5 110.85 141.15 111.0 140.25 111.6 139.1 111.75 138.65 113.05 134.7 114.0 130.75 115.05 126.95 117.65 119.15 118.25 117.2 118.55 116.35 118.55 116.25 118.7 115.3 119.35 113.1 119.2 113.25 118.95 113.25 Q120.15 110.0 120.6 106.2 120.95 102.4 121.9 99.25 L124.35 91.05 Q125.05 88.9 126.8 85.35 L128.75 81.65 130.95 78.1 131.95 75.55 132.95 72.9 Q133.35 71.25 135.0 67.85 L138.1 62.1 141.15 56.5 143.15 52.0 145.05 47.55 146.25 45.5 146.1 45.5 146.0 45.6 145.7 45.4 Q145.3 44.85 146.0 43.0 L147.25 40.3 148.1 38.85 148.6 37.55 150.15 34.9 150.85 33.4 Q147.95 34.0 144.9 35.3 L139.25 37.75 Q135.25 39.3 133.85 40.15 130.0 42.35 129.55 42.35 L129.15 42.3 129.2 42.25 126.6 43.7 Q125.6 44.25 124.55 44.95 L122.4 46.45 Q120.35 47.9 117.6 49.05 L113.45 50.7 112.0 53.25 109.85 57.0 109.95 56.95 109.5 57.8 101.7 70.9 99.45 74.55 96.5 79.6 95.15 82.15 93.6 84.6 90.55 89.55 87.9 94.5 87.95 94.65 87.75 95.1 87.55 95.55 87.0 96.5 Q86.65 97.15 86.25 98.45 L84.65 102.25 84.65 102.3 84.6 102.4 84.6 102.9 Q84.65 104.0 83.55 106.25 L82.2 109.65 81.0 112.95 80.7 113.4 80.5 113.8 77.7 117.4 Q75.2 120.1 74.2 122.2 L73.65 124.0 72.9 126.15 72.25 127.15 72.3 127.25 71.5 127.7 69.25 127.45 68.95 127.0 68.75 126.15 68.9 124.35 69.1 122.6 Q69.35 121.6 69.7 120.85 70.15 119.9 71.55 118.3 L73.65 115.95 70.1 118.55 Q67.8 120.3 67.0 121.35 L62.85 126.15 62.1 126.9 Q61.6 127.4 61.2 128.25 L60.5 129.7 59.0 132.45 57.55 135.25 56.5 136.9 Q55.8 137.85 55.05 137.9 L54.95 137.8 54.85 137.85 53.75 137.9 53.7 137.95 Q52.05 137.95 51.95 137.35 L52.3 136.4 54.55 132.2 56.3 129.1 56.75 128.25 Q58.0 125.65 59.2 124.15 L60.6 122.35 59.0 124.0 58.35 124.6 56.8 126.05 55.9 126.85 53.85 129.05 53.7 129.2 50.65 133.75 Q47.65 138.2 47.3 138.2 44.2 138.2 43.9 137.45 L44.25 136.5 45.15 135.05 45.45 134.65 46.15 133.7 45.3 133.75 Q43.6 133.75 43.55 133.25 L44.0 132.35 48.0 125.85 50.2 122.6 51.6 120.75 52.35 119.95 53.6 118.4 54.5 117.2 53.3 118.35 50.4 121.25 48.45 123.55 Q46.95 125.25 46.3 125.25 45.4 125.25 45.05 124.75 L44.95 124.3 45.0 124.05 47.8 120.35 51.15 116.35 Q55.45 111.7 59.0 108.75 L63.3 104.8 67.25 101.1 68.2 100.25 71.4 96.8 73.95 93.8 75.25 91.8 76.25 89.9 79.8 81.45 83.05 73.7 85.8 67.0 86.35 65.6 Q87.35 62.8 87.9 61.6 L89.2 58.7 89.15 58.7 Q87.25 59.7 86.9 59.7 86.0 59.7 85.5 59.25 L84.85 58.55 Q84.4 58.3 85.0 57.1 L85.45 56.25 86.35 55.35 87.5 54.5 Q86.25 54.45 87.2 52.55 L87.95 50.45 88.45 49.55 Q88.75 49.15 89.7 48.45 L91.15 47.45 91.65 47.1 Q91.3 46.8 91.25 46.0 91.1 45.5 91.4 44.85 L92.4 42.65 Q93.35 40.65 94.0 40.1 94.5 39.7 96.45 38.7 L96.5 38.5 Q96.55 38.35 97.6 37.9 98.1 37.6 98.55 37.45 L98.8 36.8 99.7 34.8 99.9 34.2 101.2 31.2 101.55 30.45 101.8 29.95 102.1 29.45 102.5 28.4 103.45 26.2 104.75 21.9 106.25 17.5 107.05 15.35 108.15 13.2 111.7 4.45 112.4 2.65 113.3 -0.5 113.95 -2.65 Q113.95 -3.35 115.0 -5.65 L116.7 -9.0 Q118.45 -12.55 120.85 -18.9 123.25 -25.3 125.05 -29.05 L125.9 -30.7 128.8 -35.55 132.8 -41.1 135.6 -44.15 138.7 -47.2 140.45 -48.7 142.2 -50.2 Q143.25 -50.9 143.85 -51.7 L144.95 -53.25 145.0 -53.25 Q145.35 -54.25 145.15 -55.4 L144.6 -58.1 143.95 -59.3 142.85 -60.5 142.45 -61.0 141.55 -61.4 141.05 -61.6 140.1 -61.75 Q139.6 -61.8 139.35 -62.2 138.45 -63.55 138.5 -64.9 L138.45 -70.15 138.1 -71.45 Q137.95 -72.25 138.15 -72.65 L138.1 -72.95 137.25 -73.25 137.15 -73.75 137.15 -74.75 137.35 -75.8 137.65 -77.75 Q137.8 -79.0 137.45 -79.9 L137.2 -80.95 137.1 -82.0 136.65 -84.05 Q136.25 -84.85 136.7 -86.05 L137.55 -88.1 139.65 -92.0 141.6 -95.65 Q141.85 -96.4 143.05 -97.6 L145.05 -99.4 148.3 -103.05 M138.9 -0.75 L136.4 4.95 135.5 7.75 134.45 10.55 129.3 21.7 126.35 27.65 127.2 27.7 128.65 27.7 129.6 27.4 135.1 25.05 142.3 21.5 148.6 18.1 150.65 16.9 Q150.25 14.4 149.65 13.15 L147.7 8.95 Q146.3 6.45 143.95 4.55 141.65 2.7 139.7 -2.2 L138.9 -0.75 M196.8 -29.4 L196.85 -29.45 196.8 -29.45 196.8 -29.4 M422.4 -102.6 Q422.25 -102.55 422.4 -102.8 L427.1 -105.6 432.9 -108.85 Q435.85 -110.4 440.25 -111.95 L444.5 -113.1 448.2 -113.45 449.45 -113.35 450.15 -113.35 451.15 -113.5 452.1 -113.35 452.3 -113.35 453.55 -112.95 454.25 -113.0 454.7 -112.6 454.8 -112.75 Q455.45 -112.65 456.15 -111.75 L456.35 -111.6 Q457.55 -111.1 458.4 -109.6 L458.6 -109.3 459.8 -107.95 463.05 -105.2 464.45 -103.9 464.8 -103.55 465.25 -103.25 465.8 -103.05 465.7 -102.75 Q465.3 -101.95 463.55 -101.95 L462.65 -101.95 462.6 -101.85 462.4 -100.25 462.6 -97.15 463.0 -93.95 463.6 -92.6 Q464.15 -91.25 464.0 -90.9 L463.75 -90.6 462.45 -90.45 Q461.3 -90.45 460.45 -91.05 L460.25 -90.1 Q459.7 -87.75 459.65 -86.25 L459.5 -82.45 Q459.4 -81.15 459.95 -78.75 459.75 -78.35 459.15 -78.35 458.1 -78.35 456.65 -79.75 L455.75 -76.25 Q455.4 -74.85 455.5 -72.6 L455.4 -70.4 454.85 -69.7 Q453.55 -69.7 452.4 -71.0 L451.7 -72.0 Q450.75 -69.9 450.35 -68.15 L449.85 -65.6 449.7 -63.2 449.35 -63.1 Q448.75 -63.1 447.55 -64.05 L446.3 -65.2 Q445.85 -65.65 445.55 -66.45 L445.5 -66.35 444.35 -64.25 443.75 -62.5 443.8 -61.7 443.7 -60.85 Q443.6 -60.75 443.35 -60.75 442.7 -60.75 441.4 -62.55 L440.75 -63.4 440.6 -63.6 440.0 -62.5 439.0 -60.2 438.65 -59.5 Q438.6 -59.35 438.35 -59.35 L437.0 -60.25 Q436.65 -60.4 436.25 -61.3 L436.0 -62.1 435.9 -61.85 435.05 -59.95 Q435.75 -59.45 436.7 -59.0 L437.45 -58.65 443.45 -57.6 445.4 -57.15 446.5 -56.25 Q448.5 -54.7 448.85 -52.75 450.5 -41.85 450.55 -35.55 L450.65 -27.0 450.8 -18.3 450.6 -9.7 Q450.15 -4.8 448.35 -1.15 L448.1 -0.85 448.1 -0.9 448.0 -0.75 Q447.1 1.2 440.9 7.75 L433.7 15.0 425.7 22.7 425.7 22.75 425.45 23.0 425.35 23.25 423.6 24.9 419.45 29.35 415.3 34.2 414.15 39.65 412.0 47.15 408.45 57.3 408.35 57.6 407.85 58.65 406.95 60.8 399.45 75.35 396.0 81.55 391.55 89.9 389.65 93.9 389.55 93.9 389.05 95.15 387.9 97.4 385.5 101.95 Q384.25 104.5 383.3 107.7 L381.75 113.1 379.8 118.65 378.05 124.25 376.75 129.8 374.9 135.45 Q372.3 142.0 370.1 146.5 L369.25 147.9 369.2 147.9 368.5 149.3 365.65 155.1 357.15 173.25 352.85 182.25 350.95 186.75 349.3 190.5 350.8 190.6 350.95 190.85 350.65 191.85 Q350.35 192.5 345.7 193.85 340.4 195.35 336.2 195.35 L334.9 195.25 334.2 196.5 334.8 195.2 333.85 195.1 333.85 194.85 334.15 193.95 Q334.45 193.3 335.9 192.7 L338.55 186.6 Q341.15 180.65 342.0 176.7 L342.8 174.3 343.55 171.75 344.25 166.85 344.95 161.95 Q345.4 159.05 345.95 157.05 346.95 153.5 349.75 147.1 352.75 140.3 353.7 137.3 355.7 131.2 355.75 127.5 L355.75 122.5 356.25 118.25 356.4 117.6 357.25 114.7 359.75 108.9 361.4 102.25 363.25 93.05 364.8 83.65 Q366.3 74.8 369.15 65.45 L371.35 58.95 370.1 59.35 367.45 60.3 359.6 71.25 345.8 88.25 Q341.2 93.7 333.35 105.45 L327.75 112.3 326.9 113.6 325.5 115.95 324.2 118.25 322.6 120.65 318.4 125.3 313.85 130.05 309.3 134.75 Q306.5 137.6 305.2 139.4 L298.2 148.8 Q292.3 157.0 283.65 166.1 L278.75 171.15 Q275.65 174.4 273.4 177.45 L268.6 183.8 Q266.15 187.2 264.8 190.0 264.05 191.55 262.15 196.75 L261.95 197.15 Q263.35 197.7 263.0 198.35 262.55 199.3 261.7 199.6 L259.05 199.85 Q256.4 199.85 252.7 197.65 249.4 195.7 249.2 194.85 248.85 193.25 249.4 191.6 249.55 191.05 250.6 188.85 L251.85 186.55 Q252.85 185.25 254.55 184.85 L255.05 185.05 260.65 176.45 268.2 164.6 Q272.8 156.4 275.2 152.9 277.5 148.9 278.95 147.0 L280.9 144.05 Q281.75 142.7 282.55 141.8 283.65 139.95 286.75 135.9 L291.05 130.35 301.05 118.2 Q306.0 111.75 309.15 105.75 L312.45 98.8 312.5 98.8 314.85 94.35 317.6 89.1 319.9 84.25 321.25 81.8 321.35 81.55 321.4 81.5 Q325.3 74.1 329.35 67.35 L338.6 52.05 340.2 49.55 340.65 46.85 341.75 41.15 342.2 38.25 342.9 35.4 343.05 31.4 342.9 30.05 342.85 29.4 Q342.75 26.2 343.1 20.4 L343.15 15.1 Q343.25 11.85 343.65 9.75 344.35 5.9 344.8 4.0 L345.3 1.6 Q345.25 0.75 345.5 0.0 L346.45 -2.0 Q349.6 -8.6 359.85 -23.8 L367.2 -34.65 370.95 -40.15 373.05 -43.7 Q374.05 -45.8 377.65 -50.65 L382.55 -56.8 Q386.8 -61.55 389.15 -63.1 394.45 -66.75 401.65 -67.0 L402.95 -67.05 403.6 -67.0 403.65 -67.05 403.9 -67.05 403.85 -67.0 405.25 -66.95 405.3 -67.05 407.1 -69.65 405.3 -68.8 Q404.3 -68.05 401.95 -67.3 L401.3 -67.3 403.55 -70.0 404.5 -71.15 405.4 -72.55 405.35 -72.6 403.15 -72.0 Q401.0 -71.3 400.25 -71.15 L400.0 -71.45 400.75 -71.95 402.1 -72.9 403.8 -74.3 405.4 -75.75 406.65 -77.1 409.15 -80.25 410.45 -81.95 408.75 -80.65 406.8 -79.2 402.15 -76.5 401.9 -76.5 401.95 -76.7 404.75 -79.5 408.5 -83.35 411.05 -86.6 411.9 -88.1 Q411.25 -87.7 409.55 -86.95 407.15 -85.85 405.9 -85.5 L405.9 -85.75 408.35 -87.65 Q411.1 -89.6 412.45 -90.85 L413.85 -92.3 412.9 -92.2 412.75 -92.3 Q412.6 -92.05 412.75 -92.4 L414.5 -93.2 414.8 -93.3 414.95 -93.5 417.0 -95.9 417.0 -96.05 414.6 -95.5 414.65 -95.75 Q414.9 -96.2 416.25 -96.85 L418.25 -97.75 421.75 -99.75 Q424.85 -102.0 426.8 -103.7 L426.9 -103.75 422.75 -102.55 422.4 -102.6 M402.75 -68.25 L402.75 -68.2 402.8 -68.2 402.75 -68.25 M401.15 -71.7 L401.1 -71.75 401.1 -71.7 401.15 -71.7 M403.45 -77.65 L403.4 -77.6 403.45 -77.6 403.45 -77.65 M424.2 -103.45 L424.3 -103.45 424.3 -103.5 424.2 -103.45 M357.7 -3.75 L357.55 -3.7 357.3 -3.3 Q356.2 -1.05 355.7 1.4 L354.95 5.7 353.55 14.55 352.0 23.5 351.7 25.2 351.8 25.2 351.75 25.45 351.9 26.7 352.45 27.6 352.9 26.95 352.9 26.9 353.15 26.45 353.2 26.4 353.5 25.95 353.9 24.9 Q355.55 21.5 362.35 13.3 L368.7 4.9 369.0 4.25 370.0 2.55 Q371.3 -0.15 372.05 -4.0 L373.1 -10.6 374.2 -17.1 374.9 -20.25 375.6 -23.2 Q376.45 -26.55 378.55 -30.85 L379.2 -32.2 378.1 -30.65 376.4 -28.5 376.3 -28.5 372.7 -23.8 367.55 -17.1 361.75 -9.75 Q358.25 -5.4 357.7 -3.75 M436.2 -87.8 L436.35 -87.8 436.35 -87.85 436.2 -87.8 M415.6 -96.1 L415.45 -96.0 415.55 -96.0 415.6 -96.1 M416.6 -93.5 L416.45 -93.4 416.55 -93.4 416.6 -93.5 M407.05 -86.3 L407.15 -86.3 407.15 -86.4 407.05 -86.3 M430.0 -25.3 L430.1 -25.3 430.0 -25.05 429.9 -24.85 429.85 -24.75 427.2 -20.75 424.5 -17.2 424.0 -16.6 423.15 -15.55 421.1 -13.15 419.3 -10.75 416.7 -5.9 Q415.1 -2.55 414.9 -0.85 L414.9 -0.35 415.0 -0.4 414.95 0.1 414.95 0.8 414.95 0.9 415.35 4.85 415.35 4.9 415.95 7.8 416.4 9.7 416.55 9.6 416.65 9.6 416.6 9.85 416.5 10.0 416.65 10.5 416.65 10.65 417.0 11.9 Q417.0 12.55 417.35 13.95 L417.65 16.0 417.65 20.1 417.65 20.25 419.0 19.9 419.8 19.7 420.95 18.45 422.3 17.05 422.35 17.1 427.05 11.7 432.7 4.4 435.45 0.9 437.2 -2.2 436.95 -4.6 436.6 -8.25 435.2 -15.45 434.05 -18.95 Q433.3 -21.35 433.15 -22.65 L432.6 -26.2 432.15 -29.25 430.0 -25.3 M145.2 3.2 L145.65 3.55 144.75 2.8 144.65 2.75 145.2 3.2 M108.0 34.1 L108.1 34.05 107.65 34.15 107.6 34.2 108.0 34.1 M-49.4 -25.65 L-48.6 -25.8 -47.95 -25.95 -47.3 -26.25 -45.35 -26.9 -44.2 -26.7 Q-43.5 -26.7 -42.85 -27.05 L-42.25 -27.4 -38.9 -27.15 -38.0 -26.9 -36.7 -26.6 -35.55 -26.2 -34.85 -26.1 -34.2 -25.95 -34.15 -26.0 -33.7 -26.1 -33.4 -25.9 -29.65 -26.0 Q-27.55 -26.0 -26.9 -24.0 -26.75 -23.3 -27.15 -22.65 L-27.65 -21.8 -27.7 -20.7 -27.5 -20.45 -27.15 -18.55 Q-27.15 -17.6 -27.45 -16.65 L-27.7 -15.95 -27.7 -15.2 -27.75 -14.4 -28.05 -13.85 -28.85 -12.7 -29.0 -11.8 -29.1 -10.9 -29.85 -9.1 -30.85 -7.45 -30.85 -7.35 -31.1 -6.1 -31.25 -5.05 -31.2 -5.1 -31.55 -4.35 -31.8 -3.6 Q-32.45 -2.3 -33.2 -1.45 L-34.5 0.7 -35.8 3.5 -37.5 5.7 -45.4 15.9 -46.1 16.75 -46.2 17.1 -46.9 17.75 -46.75 17.8 -46.7 17.7 -46.1 17.75 -45.65 17.9 -45.4 17.9 -42.75 18.4 -38.95 19.3 -38.25 19.4 -38.3 19.55 -38.25 19.65 -37.7 18.6 -37.4 18.05 Q-37.15 17.6 -36.75 17.55 -36.1 17.45 -35.45 17.85 L-34.65 18.4 Q-34.0 18.6 -33.0 19.3 L-31.85 20.15 -30.6 21.3 -30.2 21.85 Q-29.85 22.05 -29.6 22.55 L-28.7 24.15 -27.6 27.25 Q-26.9 29.6 -26.9 30.35 L-26.6 33.45 Q-26.3 35.1 -25.95 39.4 -25.55 44.75 -25.95 45.65 L-26.0 45.75 Q-26.0 46.4 -26.15 46.75 -26.5 47.5 -30.5 50.1 L-32.15 51.15 -32.15 51.55 -32.05 52.4 -32.25 54.15 -32.6 57.65 -34.0 64.6 -35.65 71.45 Q-36.8 75.6 -38.2 78.5 L-38.5 79.0 -38.6 79.35 -40.0 81.45 -41.3 83.25 -45.05 87.1 -45.4 87.5 -44.6 87.6 -42.1 87.75 -41.7 87.9 -40.85 88.1 Q-40.25 88.35 -38.9 89.25 -36.3 90.9 -34.9 92.4 -33.7 93.65 -33.95 96.45 -34.15 98.7 -34.9 100.25 -35.55 101.65 -39.05 106.5 L-41.45 109.6 -43.6 111.85 -44.9 113.1 -47.8 116.0 Q-50.0 117.95 -55.1 121.85 L-59.3 124.85 -63.5 127.75 -67.7 130.6 Q-70.65 132.5 -72.05 133.55 L-88.2 145.25 -92.1 148.1 -96.1 151.1 -100.2 153.9 Q-102.45 155.45 -103.35 156.55 L-102.95 157.45 -101.7 159.05 Q-101.1 160.35 -102.0 162.2 L-102.7 163.55 -104.05 164.95 -104.45 165.25 -105.4 165.7 -106.85 166.05 -110.35 166.55 -114.85 166.9 -120.65 166.8 -122.35 166.6 -123.3 166.55 -124.2 166.25 -126.55 165.5 -128.6 163.8 -132.8 159.1 -134.7 156.85 Q-135.9 155.55 -137.5 154.75 L-139.1 154.1 Q-140.15 153.55 -140.3 152.95 L-140.55 151.85 -140.0 150.7 -138.3 147.85 -135.35 144.65 Q-134.0 143.3 -131.2 141.65 L-126.6 138.65 -121.65 135.65 -116.65 132.65 -114.65 131.15 -112.55 129.65 -108.55 126.85 -109.5 126.5 -109.9 126.0 -111.4 126.15 -111.45 126.25 -112.8 126.1 -113.85 126.3 -118.15 126.45 -119.45 126.55 -119.75 126.7 -122.25 126.85 -125.9 126.7 -125.85 126.6 -127.95 126.45 -129.4 126.35 -130.95 126.25 -133.2 126.45 -134.0 126.65 -137.5 130.8 -139.15 133.25 -140.3 135.65 -142.45 140.65 -144.15 146.35 -145.6 151.7 -146.2 153.0 -146.65 154.4 Q-146.8 155.6 -147.3 156.75 L-147.5 157.4 -147.35 158.6 -146.9 161.15 -146.65 163.25 Q-146.5 165.45 -146.85 166.1 L-147.65 167.2 -148.45 168.1 Q-149.95 169.2 -155.0 169.2 L-165.7 168.9 -168.0 168.4 -170.65 167.7 -171.8 166.9 Q-172.25 166.45 -172.2 165.9 L-171.8 164.9 -171.0 163.0 -169.3 160.2 -167.65 157.8 -165.05 152.95 Q-163.8 150.35 -163.2 147.65 -162.6 144.75 -163.0 142.6 -163.8 138.45 -164.2 137.4 L-164.8 134.9 -165.2 132.25 Q-165.55 130.5 -165.25 126.45 L-164.8 121.95 -164.15 119.35 -163.3 116.8 Q-162.7 112.75 -162.1 111.6 L-161.85 111.1 -160.95 108.75 -159.55 106.65 -158.2 105.1 -156.45 103.35 -154.35 101.5 -152.85 100.35 -152.5 99.3 -151.55 97.35 -150.55 95.35 -149.85 93.4 Q-147.85 89.2 -146.6 87.75 L-144.75 84.95 -143.75 83.55 -143.4 82.8 -142.9 82.3 -142.55 80.75 -142.2 78.8 -142.1 77.75 -141.5 76.0 Q-141.1 74.45 -140.15 72.5 L-137.0 65.65 Q-134.05 59.55 -131.85 55.85 -131.1 54.25 -128.7 50.95 L-127.0 48.5 -126.05 47.3 -126.0 47.2 Q-128.0 46.65 -128.7 46.05 -129.45 45.4 -129.0 44.45 -128.4 43.2 -125.2 39.75 -122.55 36.7 -120.45 35.1 L-114.9 30.4 -112.25 28.05 -109.3 25.7 -103.1 21.0 -99.95 18.75 -99.6 18.55 -99.65 18.65 -98.8 18.15 Q-97.85 17.6 -94.8 16.75 L-89.7 15.3 -86.95 14.55 -85.8 14.45 -85.55 14.5 Q-85.3 14.6 -85.45 14.95 L-85.55 15.8 -83.95 15.5 -83.7 15.3 -82.5 15.0 -79.55 14.45 -77.4 14.2 -73.6 13.1 -72.25 12.55 -71.6 12.4 -71.25 12.1 -70.0 11.1 -70.35 10.0 -70.75 9.35 -70.8 8.8 Q-70.8 8.55 -71.15 8.25 L-71.6 7.85 Q-71.9 7.35 -71.55 6.6 L-71.0 5.9 -70.4 5.1 -70.3 4.65 Q-71.5 4.95 -71.65 4.1 -71.9 3.5 -71.55 2.85 L-70.15 1.05 Q-70.05 0.85 -70.6 -0.1 -71.2 -1.05 -70.7 -2.0 L-69.45 -3.45 Q-68.6 -4.15 -68.1 -5.1 L-68.05 -5.6 -68.3 -6.25 -68.15 -7.05 Q-68.9 -6.5 -69.3 -6.5 -69.95 -6.5 -69.95 -6.9 L-69.85 -7.35 -69.8 -7.45 -69.75 -7.5 -69.5 -8.05 -68.3 -9.8 -65.5 -11.9 Q-64.1 -12.85 -63.3 -13.9 L-62.55 -14.85 -60.9 -18.1 -59.7 -19.3 -58.05 -20.45 Q-56.7 -21.2 -54.85 -22.65 L-53.5 -23.8 -53.25 -23.95 -53.25 -24.2 Q-53.0 -24.65 -51.7 -25.0 L-49.4 -25.65 M-30.75 -9.65 L-30.85 -8.6 -30.6 -9.0 -30.35 -10.1 -30.75 -9.75 -30.75 -9.65 M-55.95 60.25 L-56.15 58.6 -55.95 53.95 -56.4 54.45 Q-57.15 55.55 -60.85 59.35 L-70.95 69.1 Q-77.35 74.75 -80.25 78.85 -83.8 83.95 -85.5 87.65 L-85.3 88.0 -82.6 87.35 -77.65 87.05 -70.4 86.55 -64.0 86.15 -64.05 86.3 -62.4 84.75 -58.6 81.1 -57.1 79.2 -56.6 78.5 -56.55 77.55 -56.55 75.85 Q-56.35 73.35 -56.45 72.35 L-56.5 68.9 -56.25 65.5 -55.85 62.05 -55.95 60.25" fill="#000000" fill-opacity="0.101960786" fill-rule="evenodd" stroke="none"/>
    </g>
    <linearGradient gradientTransform="matrix(1.0E-4, -0.3085, 0.2955, 1.0E-4, 57.95, -17.0)" gradientUnits="userSpaceOnUse" id="gradient0" spreadMethod="pad" x1="-819.2" x2="819.2">
      <stop offset="0.0" stop-color="#1a1a1a"/>
      <stop offset="0.9882352941176471" stop-color="#444444"/>
    </linearGradient>
    <g id="sprite0" transform="matrix(1.0, 0.0, 0.0, 1.0, 29.85, 181.7)">
      <use ffdec:characterId="4052" height="368.05" transform="matrix(1.0, 0.0, 0.0, 1.0, -29.85, -181.7)" width="256.35" xlink:href="#shape1"/>
      <filter id="filter0">
        <feColorMatrix in="SourceGraphic" result="filterResult0" type="matrix" values="0 0 0 0 0.9490196,0 0 0 0 1.0,0 0 0 0 0.5019608,0 0 0 1 0"/>
        <feConvolveMatrix divisor="16.0" in="filterResult0" kernelMatrix="1 1 1 1 1 1 1 1 1 1 1 1 1 1 1 1" order="4 4" result="filterResult1"/>
        <feConvolveMatrix divisor="16.0" in="filterResult1" kernelMatrix="1 1 1 1 1 1 1 1 1 1 1 1 1 1 1 1" order="4 4" result="filterResult2"/>
        <feComposite in="SourceGraphic" in2="filterResult2" operator="over" result="filterResult3"/>
      </filter>
      <use ffdec:characterId="4047" filter="url(#filter0)" height="1.65" transform="matrix(1.0, 0.0, 0.0, 1.0, 12.2, -132.05)" width="1.6" xlink:href="#sprite1"/>
    </g>
    <g id="shape1" transform="matrix(1.0, 0.0, 0.0, 1.0, 29.85, 181.7)">
      <path d="M112.55 -113.7 Q115.95 -109.15 124.0 -96.45 L124.85 -95.2 Q125.25 -94.0 125.25 -92.95 L125.25 -92.75 Q126.5 -91.65 126.5 -90.85 126.5 -89.3 119.25 -85.1 119.45 -83.75 121.1 -81.3 L123.75 -77.4 Q124.95 -75.2 128.95 -69.6 132.8 -64.25 134.05 -61.65 135.45 -58.85 136.75 -53.75 138.2 -48.05 139.05 -45.9 140.4 -42.65 142.85 -38.0 L146.6 -31.0 146.8 -30.7 153.55 -19.65 Q155.9 -15.9 158.9 -8.55 L160.1 -5.8 161.15 -2.95 161.8 -0.2 162.05 1.35 162.1 1.5 Q162.45 1.35 162.9 1.95 L163.65 3.2 Q163.85 4.05 164.6 5.45 L164.8 5.85 166.2 10.0 Q166.6 11.5 167.15 12.2 L167.7 13.35 168.1 14.5 168.65 16.65 Q169.05 18.1 170.1 19.0 172.0 20.65 172.4 23.5 172.9 27.45 173.2 28.2 173.9 29.8 175.95 32.65 L179.25 37.2 Q180.15 38.7 181.45 41.85 182.55 44.7 183.9 46.35 L186.85 50.9 187.2 52.05 187.5 53.15 189.0 55.45 Q192.15 62.35 193.25 64.45 L195.6 68.95 196.25 70.45 Q197.15 72.55 197.7 77.95 L197.8 78.8 Q198.2 83.4 198.2 88.25 L197.9 94.4 Q197.9 97.45 198.85 100.8 199.5 103.2 201.15 107.25 L203.1 113.35 Q204.25 117.8 204.25 120.1 L203.75 126.3 203.1 130.75 204.3 136.35 205.7 139.8 207.5 143.4 209.25 146.95 210.55 150.4 212.5 157.4 214.55 164.4 Q215.8 168.65 217.5 171.5 219.85 175.4 221.4 178.65 L222.5 181.05 224.15 180.6 225.7 180.9 226.5 181.5 225.95 181.95 224.45 181.5 222.9 181.95 224.05 185.5 Q223.55 185.65 223.3 185.0 L223.05 184.1 222.15 182.2 221.65 182.35 220.6 182.0 215.75 183.2 Q210.4 184.35 205.6 184.35 L193.4 183.35 188.3 182.35 180.2 180.35 179.1 180.25 177.65 180.35 Q178.7 183.65 180.0 186.15 L179.65 186.35 Q178.05 183.85 176.85 180.45 L176.15 180.5 175.05 180.45 174.95 180.05 175.0 179.8 176.6 179.65 175.95 177.45 173.85 168.7 Q173.4 167.15 171.55 164.3 L170.15 162.05 Q169.15 160.55 168.15 159.95 164.45 157.65 163.2 155.5 L162.2 153.55 162.1 153.4 Q161.4 152.45 160.55 150.35 159.45 148.0 157.85 146.55 L154.5 142.95 151.35 139.05 Q148.2 135.45 146.45 131.55 145.1 128.7 143.85 124.1 L142.95 120.3 Q142.4 118.05 141.7 116.6 L139.55 113.35 139.1 112.8 136.55 109.1 134.85 105.3 132.95 101.55 Q130.9 98.3 131.0 94.25 L129.7 93.9 129.25 93.55 128.0 93.1 127.1 93.1 126.7 94.65 126.45 95.3 Q125.75 96.75 125.65 97.45 125.2 99.2 125.2 101.55 L124.8 110.05 Q124.6 112.65 123.1 118.5 L122.6 120.6 122.15 122.75 121.75 124.6 121.75 124.65 122.1 124.2 121.25 126.95 Q120.55 128.65 120.55 128.95 120.45 129.75 120.5 131.4 L120.15 133.6 120.5 136.85 119.75 145.4 Q119.6 146.85 119.85 149.7 L119.75 151.8 Q119.6 152.45 119.85 153.8 119.85 159.35 119.3 162.8 L119.2 163.35 119.2 165.0 Q119.1 166.3 118.65 167.3 L118.15 169.25 117.7 171.6 Q117.7 172.75 118.95 174.8 L120.5 176.95 121.5 178.95 Q121.65 179.3 122.2 179.25 L122.85 179.3 123.6 180.6 124.25 181.4 124.45 181.75 124.35 182.15 122.9 182.4 121.0 182.8 109.05 183.05 100.2 182.6 96.45 182.1 92.55 181.65 84.4 181.75 82.8 181.65 80.05 181.45 79.95 180.8 82.15 180.8 81.8 179.85 Q81.65 179.5 81.65 178.15 L82.0 173.5 81.65 170.1 81.65 166.8 80.5 160.15 79.75 156.85 Q79.1 154.55 78.95 153.45 L78.35 149.7 78.15 149.8 78.15 149.7 78.05 148.05 77.7 146.95 77.7 145.45 77.65 144.9 76.9 139.9 75.7 134.85 74.7 130.05 73.15 120.15 72.75 117.7 72.6 116.6 72.5 116.45 72.15 115.25 71.65 112.45 71.5 112.65 71.2 112.65 Q70.75 108.55 68.95 103.7 67.05 98.9 66.35 94.9 L64.45 84.5 Q64.0 81.75 64.0 77.25 L64.25 72.55 64.85 68.05 64.6 64.8 64.2 61.45 Q63.7 59.35 63.7 55.05 63.7 52.85 64.15 47.75 L64.55 40.65 64.35 34.95 64.0 29.3 64.25 26.7 64.1 26.7 64.0 26.8 63.5 26.55 Q62.7 25.85 62.45 23.5 L62.35 20.1 62.55 18.25 62.35 16.6 62.4 16.15 62.25 15.25 62.25 15.15 59.25 16.8 56.5 18.05 Q54.95 18.75 53.75 19.8 L52.35 21.5 50.7 22.95 49.55 24.25 Q48.25 25.55 48.25 27.0 L48.75 30.65 Q48.75 32.95 48.25 35.05 47.75 37.2 47.75 40.2 47.75 44.45 51.4 51.45 55.0 58.5 55.0 59.85 55.0 60.7 54.65 61.35 54.05 62.3 52.75 62.3 50.05 62.3 48.45 59.2 47.1 55.7 46.4 54.9 45.35 53.7 44.3 51.45 L43.3 48.85 42.75 51.9 Q42.75 53.1 45.15 61.8 L47.5 70.3 Q47.5 70.95 46.25 72.0 44.95 73.05 44.0 73.05 41.35 73.05 41.05 72.2 40.95 70.15 40.0 67.8 L38.0 62.4 Q36.7 59.5 36.5 56.95 L35.85 54.35 35.3 52.65 Q36.4 58.3 38.25 71.7 38.25 72.95 38.05 73.2 37.35 74.05 34.5 74.05 32.45 74.05 32.15 72.8 L32.15 71.3 31.5 68.3 29.65 62.55 Q29.1 60.5 28.45 56.85 L27.4 50.9 27.15 50.55 Q26.45 53.75 26.1 61.75 25.75 68.55 25.5 68.55 20.85 68.55 20.4 67.5 L20.25 60.15 19.75 51.7 19.85 48.5 19.9 48.2 19.75 48.25 Q18.65 48.8 17.4 48.8 L15.85 62.4 15.2 67.05 14.6 73.45 14.4 76.7 13.95 79.8 13.1 86.1 12.8 92.35 12.95 92.55 13.0 93.15 13.0 93.7 12.85 94.9 13.1 97.4 13.45 102.2 13.45 102.4 13.75 103.05 Q14.5 104.45 14.5 107.3 L14.9 111.6 15.35 115.8 15.25 116.35 15.25 116.85 Q15.25 117.95 13.9 121.45 12.4 124.85 12.4 127.5 L12.8 129.8 13.2 132.55 13.0 133.8 13.1 133.95 12.35 134.5 9.35 134.2 8.65 133.6 7.9 132.55 7.0 130.25 6.2 128.05 Q5.9 126.75 5.9 125.8 5.9 124.6 6.65 122.55 L7.85 119.6 5.0 122.9 Q3.15 125.1 2.75 126.45 L0.65 132.1 0.45 132.55 -0.1 133.5 Q-0.4 134.1 -0.4 135.2 L-0.4 137.05 -0.6 140.55 -0.7 144.1 -1.05 146.2 Q-1.35 147.4 -2.25 147.45 L-2.45 147.3 -2.55 147.4 -3.9 147.45 -3.95 147.5 Q-6.05 147.5 -6.55 146.75 L-6.7 145.55 -6.35 140.2 -6.05 136.3 -6.05 135.2 Q-6.05 131.9 -5.4 130.0 L-4.8 127.7 -5.8 129.8 -6.25 130.55 -7.3 132.4 -7.95 133.4 -9.2 136.2 -9.3 136.4 -10.35 142.2 Q-11.45 147.85 -11.9 147.85 -15.8 147.85 -16.7 146.9 L-16.85 145.65 -16.6 143.85 -16.45 143.3 -16.15 142.1 -17.15 142.2 Q-19.3 142.2 -19.7 141.55 L-19.7 140.4 -18.6 132.15 -17.8 128.05 -17.15 125.7 -16.7 124.65 -16.05 122.7 -15.65 121.2 -15.65 121.1 -16.45 122.65 -18.35 126.3 -19.45 129.25 Q-20.3 131.4 -21.15 131.4 -22.3 131.4 -23.0 130.75 L-23.45 130.2 -23.5 129.85 -22.25 125.15 -20.45 120.1 Q-17.85 114.2 -15.1 110.45 -13.8 108.6 -12.05 105.45 L-9.35 100.75 -8.65 99.65 -6.75 95.3 -5.35 91.5 -4.9 88.95 -4.85 86.55 -5.5 75.8 -6.1 65.95 -6.7 57.75 Q-7.4 57.45 -7.6 55.05 L-7.25 40.1 Q-7.25 37.15 -6.0 24.25 L-4.75 11.55 Q-4.8 9.05 -4.3 4.4 L-3.75 -2.7 -3.4 -6.8 -3.7 -8.85 -4.0 -11.6 -3.95 -14.3 -4.75 -25.4 -5.0 -27.7 -5.8 -31.7 -6.3 -34.4 Q-6.75 -35.3 -6.8 -38.25 L-6.65 -42.5 Q-6.65 -47.0 -7.5 -55.05 -8.4 -63.15 -8.4 -67.9 L-8.3 -70.0 Q-8.2 -72.95 -7.6 -76.15 -6.9 -80.5 -5.95 -83.2 L-4.25 -87.1 -2.25 -90.95 Q-1.85 -91.9 -0.9 -92.85 L0.35 -94.75 0.6 -95.0 0.7 -95.0 1.65 -96.55 Q2.8 -97.4 4.15 -99.25 L5.25 -100.05 5.0 -100.25 3.5 -101.6 0.5 -104.1 -1.8 -106.7 -4.25 -109.35 Q-6.9 -111.65 -9.5 -114.85 L-13.75 -120.05 -18.4 -125.35 -21.0 -127.9 Q-22.95 -129.7 -23.5 -130.45 L-27.35 -135.35 Q-29.85 -138.75 -29.85 -140.8 L-29.7 -141.55 -29.7 -141.65 -29.75 -143.45 Q-29.75 -145.65 -28.35 -151.2 -27.05 -156.3 -27.35 -159.1 -27.4 -160.0 -27.05 -161.1 L-26.25 -163.05 -25.8 -165.0 Q-25.55 -166.2 -25.1 -166.95 L-21.9 -170.95 -20.65 -172.95 -19.2 -174.0 -16.75 -175.35 -12.5 -177.05 -9.95 -177.75 Q-7.95 -178.35 -7.4 -179.1 -6.5 -180.35 -4.25 -181.05 L-1.35 -181.65 10.25 -181.05 12.85 -180.95 15.75 -180.7 Q16.7 -180.55 17.75 -179.8 21.25 -177.15 22.75 -174.45 L25.05 -169.2 Q26.4 -165.75 27.5 -163.7 L30.9 -157.65 Q32.0 -155.4 32.0 -153.3 L31.85 -151.7 31.75 -151.45 31.1 -152.75 31.6 -151.4 33.45 -147.1 Q35.25 -143.1 35.25 -141.25 35.25 -139.35 34.55 -137.4 L41.75 -138.05 45.0 -138.05 46.45 -138.6 Q49.45 -139.65 50.6 -139.2 L50.65 -139.25 52.65 -138.85 53.85 -138.55 56.4 -139.0 59.25 -139.75 60.9 -140.4 62.3 -140.65 63.25 -140.75 63.75 -141.35 63.95 -141.0 64.4 -140.9 Q64.85 -140.9 65.55 -141.4 L66.5 -141.95 70.05 -142.3 71.05 -142.6 73.1 -142.65 74.6 -142.85 78.35 -143.05 78.75 -143.05 78.7 -143.25 80.4 -143.1 82.5 -142.8 Q83.75 -142.9 86.4 -141.65 86.8 -141.4 88.5 -141.1 L90.35 -140.5 92.2 -139.1 Q95.3 -137.45 96.45 -136.15 L96.75 -135.8 101.45 -128.95 Q107.45 -120.45 112.55 -113.7 M32.1 -147.1 L30.65 -150.5 30.25 -147.2 29.75 -142.9 Q29.75 -141.25 30.35 -139.45 31.1 -137.4 32.35 -136.0 L32.8 -136.15 33.4 -138.1 Q34.15 -140.35 34.15 -141.2 34.15 -142.55 32.1 -147.1 M25.8 -134.85 Q24.5 -137.55 22.25 -140.05 19.25 -143.0 17.6 -145.05 15.6 -147.5 12.55 -148.3 10.05 -148.9 7.65 -148.3 7.85 -147.75 9.2 -146.7 10.35 -145.8 10.35 -145.05 10.35 -144.65 9.75 -144.45 L4.0 -143.85 0.0 -144.55 -2.25 -145.05 Q-2.85 -145.05 -3.0 -144.5 L-3.0 -143.9 Q-3.0 -140.05 1.75 -137.5 L6.5 -135.4 Q6.5 -134.65 5.65 -134.5 L2.85 -133.6 1.7 -132.6 0.4 -131.35 Q-0.45 -130.6 -2.95 -129.75 L-8.15 -128.1 Q-7.4 -127.6 -5.5 -127.15 L-2.7 -126.7 Q-0.3 -126.7 1.65 -128.1 2.55 -128.8 4.85 -131.25 9.1 -135.8 14.35 -135.8 17.25 -135.8 18.5 -135.2 19.25 -134.85 19.25 -134.4 19.25 -133.6 18.15 -133.25 16.75 -132.85 16.1 -131.55 L15.5 -129.85 Q15.15 -129.35 13.2 -129.4 L10.4 -129.35 12.0 -128.2 13.65 -126.7 Q13.35 -126.3 12.3 -126.35 L8.35 -126.45 5.45 -126.35 Q5.05 -126.35 4.45 -125.95 L3.9 -125.45 Q3.9 -125.1 4.7 -123.75 L5.75 -122.1 Q6.25 -121.4 6.35 -120.45 L6.4 -118.7 Q6.5 -118.0 7.2 -117.15 L8.15 -115.6 8.65 -113.75 Q9.05 -112.35 9.5 -112.35 10.6 -112.35 11.55 -113.65 L13.25 -116.35 14.15 -118.4 Q14.7 -119.7 15.35 -119.7 16.3 -119.7 16.45 -117.7 L16.75 -114.7 Q17.1 -113.85 19.25 -113.4 L22.25 -112.85 24.65 -112.1 27.25 -111.35 Q26.7 -113.0 26.55 -115.1 L26.5 -118.9 26.9 -124.4 27.25 -129.65 Q27.25 -132.0 25.8 -134.85 M40.1 -114.35 L39.85 -114.8 40.1 -115.0 40.1 -114.35 M41.7 -116.35 L42.3 -116.95 Q45.15 -123.5 45.15 -126.3 45.15 -128.45 43.7 -129.4 41.4 -130.95 35.0 -131.05 L36.25 -123.15 Q36.75 -118.55 36.75 -115.1 L36.7 -110.95 35.75 -105.7 35.75 -104.45 Q37.55 -106.9 40.45 -112.95 L40.2 -114.1 41.7 -116.35 M23.4 -100.85 L23.35 -100.7 23.45 -100.7 Q25.8 -100.75 27.0 -101.85 27.85 -102.6 27.85 -103.6 27.85 -104.8 26.4 -106.1 25.0 -107.35 23.4 -107.6 L23.9 -103.85 Q23.9 -101.9 23.4 -100.85 M42.35 -136.85 L42.15 -136.9 42.3 -136.85 42.35 -136.85 M44.8 -119.65 L44.75 -119.7 44.75 -119.6 44.8 -119.65 M26.6 -32.0 Q26.6 -27.1 26.9 -24.75 L27.45 -21.2 27.85 -17.7 28.1 -14.5 28.05 -12.3 28.15 -4.2 27.3 -4.0 27.25 -3.8 26.1 5.4 24.6 15.3 Q24.4 16.8 24.3 20.2 L23.7 23.65 25.4 21.8 29.75 17.3 31.35 15.05 Q32.2 13.45 32.75 12.8 L36.5 8.3 Q38.95 5.35 45.85 0.2 L53.6 -5.65 Q52.9 -6.25 52.1 -7.65 L50.4 -11.2 48.4 -14.2 48.15 -15.0 43.65 -19.7 Q40.35 -22.85 36.25 -25.3 32.15 -27.65 26.7 -33.85 L26.6 -32.0 M35.95 -27.55 L36.75 -27.1 36.35 -27.35 36.0 -27.55 35.95 -27.55 M-3.05 49.95 L-3.25 51.65 -3.25 52.85 -3.05 57.05 -1.65 65.2 -1.2 72.25 Q-0.85 79.05 -0.85 81.7 -0.85 88.65 -1.15 91.4 L-1.2 92.35 -1.5 93.75 Q-1.75 95.25 -2.5 96.3 L-5.35 101.05 -5.5 101.4 -7.2 104.45 -8.0 105.5 -11.5 109.5 -15.05 113.5 Q-19.2 119.1 -19.7 121.5 -20.4 124.15 -20.95 125.35 L-21.85 127.5 -22.55 129.45 -22.4 129.8 -22.3 129.95 -22.3 130.0 -21.65 130.3 Q-21.1 130.3 -20.2 128.3 L-18.75 124.9 -17.35 122.05 -16.7 121.0 -16.65 121.45 -16.2 120.6 Q-15.0 118.2 -14.7 118.2 L-14.5 118.25 -13.55 116.95 -12.35 114.2 -12.05 113.55 -11.55 112.8 -11.45 112.85 -11.7 113.75 -12.9 117.45 -14.4 121.2 -15.7 124.8 Q-16.45 127.6 -17.4 133.1 -18.4 138.55 -18.4 139.7 L-18.35 140.1 -18.0 140.45 -17.6 140.7 -16.2 140.9 Q-15.35 140.9 -15.35 139.0 L-15.05 137.1 -14.6 133.3 Q-14.4 131.95 -13.7 131.4 -13.45 131.2 -13.3 130.5 L-12.9 129.5 -12.0 127.45 Q-9.15 121.95 -8.75 118.95 L-8.5 118.85 -8.0 118.9 -8.0 120.6 -9.35 124.15 Q-10.25 126.75 -12.65 131.2 -13.4 132.45 -13.7 134.7 L-14.3 138.2 -14.95 141.65 -15.5 143.3 -16.0 145.3 Q-16.0 145.65 -15.45 146.05 -14.55 146.6 -12.7 146.6 -12.0 146.6 -11.9 146.0 L-11.8 145.15 -11.25 143.4 -11.0 141.55 -10.6 139.9 Q-10.35 139.2 -10.25 138.1 L-10.0 136.45 -9.6 135.0 -9.55 135.15 -8.45 132.85 -7.8 132.15 -6.75 130.0 -6.5 129.55 -3.85 124.4 -3.55 124.55 -3.15 123.7 -2.95 124.1 Q-2.95 125.0 -3.7 127.1 L-3.75 127.9 -3.75 128.1 -5.05 132.8 -5.35 138.05 -5.55 144.25 -5.5 145.75 -4.7 146.3 -3.2 146.6 Q-1.85 146.6 -1.85 145.8 -2.0 144.4 -1.75 143.25 -1.4 141.65 -1.4 139.45 L-1.15 135.65 -0.8 133.3 -0.7 133.1 Q-0.1 132.85 0.25 131.95 L1.05 128.8 Q1.65 126.65 3.35 124.05 L6.95 119.25 7.45 118.7 Q8.0 118.2 8.25 118.05 L8.55 117.55 9.7 116.5 10.9 115.1 11.4 116.75 11.6 118.15 Q11.6 119.0 11.2 120.15 L10.15 122.2 Q8.6 124.65 8.6 126.45 8.6 127.6 9.0 128.55 L9.2 129.8 Q9.3 130.65 9.7 131.45 10.4 132.85 11.35 132.85 11.85 132.85 11.95 132.45 L12.05 131.7 Q12.05 130.9 11.65 129.95 11.3 129.0 11.3 128.35 11.3 126.2 12.75 121.55 14.15 116.95 14.15 114.95 14.15 112.4 13.1 107.05 13.0 104.15 12.65 102.95 L12.6 102.45 12.6 102.25 12.05 99.3 11.6 96.3 10.3 90.35 Q9.9 87.6 9.8 79.85 L9.8 78.55 Q9.8 75.1 10.15 71.6 10.6 66.95 11.6 62.05 11.7 58.95 12.55 53.85 L13.45 50.0 13.85 48.3 13.5 48.2 13.5 47.45 13.8 43.65 13.35 43.1 13.9 42.9 14.85 34.2 Q16.15 22.5 16.75 19.55 L19.25 5.65 Q20.25 0.75 20.15 -1.3 L20.4 -2.75 19.85 -2.65 19.65 -2.6 19.75 -5.15 19.4 -12.85 Q18.5 -18.6 18.5 -20.6 L18.2 -24.25 Q17.9 -26.3 17.9 -27.8 L18.1 -32.4 1.35 -32.45 0.95 -32.35 -1.35 -32.25 -1.6 -30.95 -0.6 -23.55 0.9 -16.2 Q2.45 -6.1 2.45 -1.5 L2.45 0.5 2.35 1.35 2.35 2.1 2.35 2.65 1.2 13.7 -0.5 27.55 Q-1.35 32.55 -2.1 40.3 L-3.05 49.8 -3.05 49.95 M74.6 -18.75 Q74.0 -18.15 73.75 -16.9 L73.5 -16.4 73.5 -15.2 73.3 -14.95 73.25 -14.65 73.5 -14.55 73.5 -14.45 73.5 -13.7 73.5 -13.15 Q74.35 -11.9 78.5 -11.9 84.0 -11.9 91.15 -15.25 94.7 -16.85 98.3 -18.75 L98.75 -18.95 Q101.85 -19.8 104.35 -21.4 109.15 -23.6 114.3 -26.15 L114.65 -26.7 Q116.1 -29.0 116.1 -33.7 L115.75 -46.6 115.1 -57.95 114.1 -70.05 Q113.55 -75.45 112.55 -79.7 L112.5 -79.7 112.4 -79.7 Q111.25 -78.45 110.8 -78.2 107.9 -76.5 105.5 -74.45 L95.0 -66.3 91.25 -60.9 87.45 -56.1 89.5 -50.1 Q92.6 -40.85 93.2 -36.9 88.5 -33.1 86.0 -31.4 81.7 -28.45 78.1 -23.95 76.05 -21.35 74.65 -18.8 L74.6 -18.75 M63.15 14.65 L63.25 14.95 63.25 14.6 63.15 14.65 M43.15 47.35 L43.35 47.2 43.0 47.2 43.15 47.35 M-6.25 51.4 L-6.45 51.4 -6.45 51.5 -6.25 51.4" fill="#000000" fill-rule="evenodd" stroke="none"/>
      <path d="M25.8 -134.85 Q27.25 -132.0 27.25 -129.65 L26.9 -124.4 26.5 -118.9 26.55 -115.1 Q26.7 -113.0 27.25 -111.35 L24.65 -112.1 22.25 -112.85 19.25 -113.4 Q17.1 -113.85 16.75 -114.7 L16.45 -117.7 Q16.3 -119.7 15.35 -119.7 14.7 -119.7 14.15 -118.4 L13.25 -116.35 11.55 -113.65 Q10.6 -112.35 9.5 -112.35 9.05 -112.35 8.65 -113.75 L8.15 -115.6 7.2 -117.15 Q6.5 -118.0 6.4 -118.7 L6.35 -120.45 Q6.25 -121.4 5.75 -122.1 L4.7 -123.75 Q3.9 -125.1 3.9 -125.45 L4.45 -125.95 Q5.05 -126.35 5.45 -126.35 L8.35 -126.45 12.3 -126.35 Q13.35 -126.3 13.65 -126.7 L12.0 -128.2 10.4 -129.35 13.2 -129.4 Q15.15 -129.35 15.5 -129.85 L16.1 -131.55 Q16.75 -132.85 18.15 -133.25 19.25 -133.6 19.25 -134.4 19.25 -134.85 18.5 -135.2 17.25 -135.8 14.35 -135.8 9.1 -135.8 4.85 -131.25 2.55 -128.8 1.65 -128.1 -0.3 -126.7 -2.7 -126.7 L-5.5 -127.15 Q-7.4 -127.6 -8.15 -128.1 L-2.95 -129.75 Q-0.45 -130.6 0.4 -131.35 L1.7 -132.6 2.85 -133.6 5.65 -134.5 Q6.5 -134.65 6.5 -135.4 L1.75 -137.5 Q-3.0 -140.05 -3.0 -143.9 L-3.0 -144.5 Q-2.85 -145.05 -2.25 -145.05 L0.0 -144.55 4.0 -143.85 9.75 -144.45 Q10.35 -144.65 10.35 -145.05 10.35 -145.8 9.2 -146.7 7.85 -147.75 7.65 -148.3 10.05 -148.9 12.55 -148.3 15.6 -147.5 17.6 -145.05 19.25 -143.0 22.25 -140.05 24.5 -137.55 25.8 -134.85 M32.1 -147.1 Q34.15 -142.55 34.15 -141.2 34.15 -140.35 33.4 -138.1 L32.8 -136.15 32.35 -136.0 Q31.1 -137.4 30.35 -139.45 29.75 -141.25 29.75 -142.9 L30.25 -147.2 30.65 -150.5 32.1 -147.1 M40.1 -114.35 L40.2 -114.1 40.45 -112.95 Q37.55 -106.9 35.75 -104.45 L35.75 -105.7 36.7 -110.95 36.75 -115.1 Q36.75 -118.55 36.25 -123.15 L35.0 -131.05 Q41.4 -130.95 43.7 -129.4 45.15 -128.45 45.15 -126.3 45.15 -123.5 42.3 -116.95 L41.7 -116.35 40.1 -115.0 39.85 -114.8 40.1 -114.35 M23.45 -100.7 L23.4 -100.85 Q23.9 -101.9 23.9 -103.85 L23.4 -107.6 Q25.0 -107.35 26.4 -106.1 27.85 -104.8 27.85 -103.6 27.85 -102.6 27.0 -101.85 25.8 -100.75 23.45 -100.7 M-3.05 49.8 L-2.1 40.3 Q-1.35 32.55 -0.5 27.55 L1.2 13.7 2.35 2.65 2.35 2.1 2.35 1.35 2.45 0.5 2.45 -1.5 Q2.45 -6.1 0.9 -16.2 L-0.6 -23.55 -1.6 -30.95 -1.35 -32.25 0.95 -32.35 1.35 -32.45 18.1 -32.4 17.9 -27.8 Q17.9 -26.3 18.2 -24.25 L18.5 -20.6 Q18.5 -18.6 19.4 -12.85 L19.75 -5.15 19.65 -2.6 19.85 -2.65 20.4 -2.75 20.15 -1.3 Q20.25 0.75 19.25 5.65 L16.75 19.55 Q16.15 22.5 14.85 34.2 L13.9 42.9 13.35 43.1 13.8 43.65 13.5 47.45 13.5 48.2 13.85 48.3 13.45 50.0 12.55 53.85 Q11.7 58.95 11.6 62.05 10.6 66.95 10.15 71.6 9.8 75.1 9.8 78.55 L9.8 79.85 Q9.9 87.6 10.3 90.35 L11.6 96.3 12.05 99.3 12.6 102.25 12.6 102.45 12.65 102.95 Q13.0 104.15 13.1 107.05 14.15 112.4 14.15 114.95 14.15 116.95 12.75 121.55 11.3 126.2 11.3 128.35 11.3 129.0 11.65 129.95 12.05 130.9 12.05 131.7 L11.95 132.45 Q11.85 132.85 11.35 132.85 10.4 132.85 9.7 131.45 9.3 130.65 9.2 129.8 L9.0 128.55 Q8.6 127.6 8.6 126.45 8.6 124.65 10.15 122.2 L11.2 120.15 Q11.6 119.0 11.6 118.15 L11.4 116.75 10.9 115.1 9.7 116.5 8.55 117.55 8.25 118.05 Q8.0 118.2 7.45 118.7 L6.95 119.25 3.35 124.05 Q1.65 126.65 1.05 128.8 L0.25 131.95 Q-0.1 132.85 -0.7 133.1 L-0.8 133.3 -1.15 135.65 -1.4 139.45 Q-1.4 141.65 -1.75 143.25 -2.0 144.4 -1.85 145.8 -1.85 146.6 -3.2 146.6 L-4.7 146.3 -5.5 145.75 -5.55 144.25 -5.35 138.05 -5.05 132.8 -3.75 128.1 -3.75 127.9 -3.7 127.1 Q-2.95 125.0 -2.95 124.1 L-3.15 123.7 -3.55 124.55 -3.85 124.4 -6.5 129.55 -6.75 130.0 -7.8 132.15 -8.45 132.85 -9.55 135.15 -9.6 135.0 -10.0 136.45 -10.25 138.1 Q-10.35 139.2 -10.6 139.9 L-11.0 141.55 -11.25 143.4 -11.8 145.15 -11.9 146.0 Q-12.0 146.6 -12.7 146.6 -14.55 146.6 -15.45 146.05 -16.0 145.65 -16.0 145.3 L-15.5 143.3 -14.95 141.65 -14.3 138.2 -13.7 134.7 Q-13.4 132.45 -12.65 131.2 -10.25 126.75 -9.35 124.15 L-8.0 120.6 -8.0 118.9 -8.5 118.85 -8.75 118.95 Q-9.15 121.95 -12.0 127.45 L-12.9 129.5 -13.3 130.5 Q-13.45 131.2 -13.7 131.4 -14.4 131.95 -14.6 133.3 L-15.05 137.1 -15.35 139.0 Q-15.35 140.9 -16.2 140.9 L-17.6 140.7 -18.0 140.45 -18.35 140.1 -18.4 139.7 Q-18.4 138.55 -17.4 133.1 -16.45 127.6 -15.7 124.8 L-14.4 121.2 -12.9 117.45 -11.7 113.75 -11.45 112.85 -11.55 112.8 -12.05 113.55 -12.35 114.2 -13.55 116.95 -14.5 118.25 -14.7 118.2 Q-15.0 118.2 -16.2 120.6 L-16.65 121.45 -16.7 121.0 -17.35 122.05 -18.75 124.9 -20.2 128.3 Q-21.1 130.3 -21.65 130.3 L-22.3 130.0 -22.3 129.95 -22.4 129.8 -22.55 129.45 -21.85 127.5 -20.95 125.35 Q-20.4 124.15 -19.7 121.5 -19.2 119.1 -15.05 113.5 L-11.5 109.5 -8.0 105.5 -7.2 104.45 -5.5 101.4 -5.35 101.05 -2.5 96.3 Q-1.75 95.25 -1.5 93.75 L-1.2 92.35 -1.15 91.4 Q-0.85 88.65 -0.85 81.7 -0.85 79.05 -1.2 72.25 L-1.65 65.2 -3.05 57.05 -3.25 52.85 -3.25 51.65 -3.05 49.95 -2.8 49.8 -3.05 49.8 M74.6 -18.75 L74.65 -18.8 Q76.05 -21.35 78.1 -23.95 81.7 -28.45 86.0 -31.4 88.5 -33.1 93.2 -36.9 92.6 -40.85 89.5 -50.1 L87.45 -56.1 91.25 -60.9 95.0 -66.3 105.5 -74.45 Q107.9 -76.5 110.8 -78.2 111.25 -78.45 112.4 -79.7 L112.5 -79.7 112.55 -79.7 Q113.55 -75.45 114.1 -70.05 L115.1 -57.95 115.75 -46.6 116.1 -33.7 Q116.1 -29.0 114.65 -26.7 L114.3 -26.15 Q109.15 -23.6 104.35 -21.4 101.85 -19.8 98.75 -18.95 L98.3 -18.75 Q94.7 -16.85 91.15 -15.25 84.0 -11.9 78.5 -11.9 74.35 -11.9 73.5 -13.15 L73.5 -13.7 73.5 -14.45 73.5 -14.55 73.25 -14.65 73.3 -14.95 73.5 -15.2 73.5 -16.4 73.75 -16.9 Q74.0 -18.15 74.6 -18.75 M12.8 116.1 L12.75 116.1 12.75 116.35 12.75 116.6 12.8 116.1" fill="url(#gradient1)" fill-rule="evenodd" stroke="none"/>
      <path d="M40.2 -114.1 L40.1 -114.35 40.1 -115.0 41.7 -116.35 40.2 -114.1 M-3.05 49.8 L-2.8 49.8 -3.05 49.95 -3.05 49.8" fill="url(#gradient2)" fill-rule="evenodd" stroke="none"/>
      <path d="M8.45 -155.7 L12.0 -155.65 Q12.8 -157.5 14.8 -158.55 17.6 -160.05 19.5 -156.7 L20.0 -150.4 20.0 -150.15 21.35 -151.0 Q22.7 -151.75 23.5 -151.9 L25.5 -152.35 27.25 -152.65 Q30.3 -152.65 32.25 -148.3 33.5 -145.4 33.75 -142.65 L34.3 -137.55 34.8 -132.45 Q42.75 -132.6 46.85 -126.4 49.55 -122.25 49.55 -118.45 49.55 -113.9 46.8 -113.9 44.45 -113.9 43.45 -114.35 L41.75 -115.4 41.3 -115.05 41.25 -114.1 Q41.25 -112.55 42.65 -108.45 44.05 -104.35 44.05 -102.95 44.05 -101.5 43.55 -100.4 42.65 -98.45 40.5 -98.45 38.25 -98.45 36.85 -100.4 L35.75 -102.65 34.5 -102.9 32.3 -100.65 Q32.3 -99.9 33.05 -98.4 33.8 -96.95 33.8 -95.95 33.8 -94.65 32.8 -93.15 31.55 -91.15 29.5 -91.15 26.5 -91.15 25.5 -93.3 L24.55 -96.2 Q22.3 -95.35 20.85 -94.0 19.95 -93.15 17.9 -93.15 13.75 -93.15 11.25 -100.4 9.45 -107.85 9.0 -108.15 5.25 -109.2 3.95 -111.35 L2.3 -115.4 1.45 -119.6 Q0.7 -121.85 -3.45 -122.15 -3.7 -117.95 -5.7 -117.95 -9.5 -117.95 -10.6 -124.6 -10.95 -126.8 -10.95 -132.4 L-11.2 -146.85 Q-11.2 -148.8 -10.5 -149.65 L-8.9 -150.5 Q-7.75 -150.95 -7.25 -151.95 L-6.35 -154.5 Q-5.5 -156.2 -3.5 -156.2 -2.0 -156.2 0.05 -153.65 1.9 -156.4 4.0 -156.4 4.65 -156.4 5.3 -155.9 5.95 -155.45 6.55 -155.45 L8.45 -155.7 M24.8 -34.1 Q24.8 -30.15 20.25 -29.9 L20.2 -29.9 20.75 -27.65 Q22.6 -20.85 23.0 -17.35 23.3 -14.95 23.3 -8.55 23.3 -0.1 21.5 13.25 19.75 26.25 17.75 33.1 15.45 40.8 15.05 54.1 14.8 62.45 14.55 64.4 13.95 69.65 12.1 73.25 L12.0 76.3 Q11.85 80.8 12.3 85.3 L12.3 89.8 Q12.3 91.6 11.55 92.7 10.8 93.75 10.8 94.2 10.8 95.15 13.15 100.85 15.5 106.55 15.5 107.55 15.5 108.5 15.0 109.3 14.45 110.2 13.4 110.5 L14.8 114.3 14.4 116.2 14.0 118.05 Q14.0 119.3 13.25 122.35 12.5 125.4 12.5 126.3 12.5 126.95 13.0 128.85 L13.5 131.4 Q13.5 132.7 13.05 133.3 12.5 134.05 11.0 134.05 7.55 134.05 7.05 130.55 6.7 127.95 7.75 125.1 L7.75 120.8 Q4.35 123.0 3.1 127.1 L1.05 133.85 Q0.5 135.0 -0.9 141.75 -2.0 146.85 -3.45 146.85 -5.4 146.85 -6.0 144.55 L-6.2 142.2 Q-4.7 132.15 -4.7 130.65 -4.7 129.7 -5.25 128.05 L-5.45 127.8 Q-6.45 129.75 -9.6 140.6 -11.9 148.6 -14.0 148.6 L-15.1 148.45 -15.95 148.05 -15.8 145.5 -15.5 143.1 -15.95 141.0 -16.25 141.1 Q-18.55 141.1 -19.2 139.55 L-19.45 137.6 Q-19.45 133.85 -17.25 127.25 L-15.2 121.15 -16.65 123.3 Q-20.8 129.35 -22.0 129.35 L-23.05 129.2 -23.75 128.8 -23.85 128.55 -23.95 127.65 Q-23.95 125.5 -19.95 118.3 L-15.2 110.05 Q-12.0 103.65 -9.25 102.25 L-8.05 98.65 -6.25 94.6 -4.7 92.35 Q-3.9 91.1 -3.95 90.1 L-4.45 86.15 Q-4.45 84.15 -3.3 82.65 L-4.7 74.3 -6.45 53.05 -4.7 23.4 Q-2.95 -3.55 -2.95 -9.6 L-3.95 -33.35 Q-3.95 -37.4 0.0 -37.4 1.55 -37.4 2.35 -36.5 3.2 -35.65 7.1 -35.65 7.55 -35.65 8.95 -36.45 10.35 -37.2 11.75 -37.35 12.25 -39.2 13.95 -40.6 16.45 -42.65 18.05 -37.85 L22.25 -37.65 Q23.9 -37.2 24.5 -35.7 L24.8 -34.1 M4.3 -27.7 Q4.8 -15.6 4.75 -7.45 4.7 3.6 3.8 12.8 3.4 16.55 3.2 22.9 L2.8 33.05 1.7 44.45 Q1.3 47.75 1.3 53.2 1.3 59.95 2.7 70.25 L3.7 78.0 3.55 71.3 Q3.55 70.1 3.9 66.45 L4.8 59.85 Q5.75 55.1 7.8 54.1 8.6 39.6 11.55 22.9 15.55 -0.2 15.55 -8.2 15.55 -15.25 13.55 -24.6 L12.55 -29.35 12.15 -29.3 Q12.3 -28.85 11.25 -28.4 L9.65 -27.95 4.3 -27.7 M67.45 -16.6 L69.25 -17.0 71.55 -21.3 Q76.1 -28.9 83.05 -35.4 87.8 -39.9 91.65 -42.05 L91.1 -43.3 Q89.55 -49.5 88.75 -51.15 L87.6 -53.6 Q85.8 -52.4 85.0 -52.4 82.9 -52.4 82.25 -53.75 L82.0 -55.1 Q82.0 -56.5 84.8 -59.95 83.0 -64.0 83.0 -64.45 83.0 -66.85 84.6 -68.5 86.55 -70.5 88.75 -66.65 L89.7 -65.3 96.05 -71.7 Q97.55 -73.6 100.05 -75.65 97.3 -80.75 97.3 -81.6 97.3 -83.15 98.6 -84.15 100.5 -85.7 104.0 -82.9 L106.25 -80.2 107.5 -81.0 Q105.75 -86.2 105.75 -87.05 105.75 -89.2 106.95 -90.25 108.65 -91.75 111.5 -87.7 L113.55 -84.2 113.65 -84.05 Q118.0 -85.25 118.0 -80.6 118.0 -79.5 116.2 -77.6 L117.3 -73.35 119.0 -65.95 Q120.55 -58.95 120.55 -36.7 L120.55 -34.55 Q121.8 -33.8 121.8 -31.95 121.8 -30.15 120.25 -28.95 L119.75 -25.15 Q118.4 -16.45 115.0 -16.45 113.8 -16.45 113.1 -18.0 112.55 -17.65 111.85 -17.65 109.65 -17.65 109.0 -22.45 L108.95 -22.85 106.7 -21.1 Q104.0 -19.0 101.75 -17.9 95.9 -14.6 90.7 -12.05 80.6 -7.15 76.0 -7.15 74.8 -7.15 74.2 -7.65 L73.75 -6.55 Q71.8 -2.4 69.4 -2.4 67.25 -2.4 66.6 -4.1 L66.3 -5.95 Q66.3 -8.15 66.85 -10.5 64.75 -10.75 64.05 -11.95 L63.75 -13.55 Q63.75 -15.6 67.45 -16.6 M93.65 -58.45 L97.45 -50.2 Q100.25 -43.8 100.25 -43.05 L99.8 -40.4 99.75 -40.25 99.75 -40.2 Q99.75 -37.55 97.2 -36.25 92.95 -34.0 90.0 -30.45 L85.55 -25.8 81.05 -21.15 79.75 -19.4 Q81.7 -20.1 86.35 -22.1 92.1 -24.6 95.5 -25.45 98.0 -26.1 102.9 -28.3 106.65 -30.0 108.9 -31.3 L109.55 -36.1 Q110.3 -40.95 110.3 -44.95 110.3 -55.55 104.25 -68.15 L101.75 -66.15 Q99.2 -63.4 93.75 -58.6 L93.65 -58.45 M2.55 109.55 Q1.5 111.15 1.5 112.55 1.5 113.6 0.45 115.4 2.2 113.35 4.25 108.25 L4.4 107.95 Q3.4 108.25 2.55 109.55" fill="#000000" fill-opacity="0.101960786" fill-rule="evenodd" stroke="none"/>
    </g>
    <linearGradient gradientTransform="matrix(0.0768, -6.0E-4, 4.0E-4, 0.0423, 40.45, -21.65)" gradientUnits="userSpaceOnUse" id="gradient1" spreadMethod="pad" x1="-819.2" x2="819.2">
      <stop offset="0.0" stop-color="#232c18"/>
      <stop offset="0.9882352941176471" stop-color="#496237"/>
    </linearGradient>
    <linearGradient gradientTransform="matrix(0.0768, -6.0E-4, 4.0E-4, 0.0423, 47.95, -25.15)" gradientUnits="userSpaceOnUse" id="gradient2" spreadMethod="pad" x1="-819.2" x2="819.2">
      <stop offset="0.0" stop-color="#232c18"/>
      <stop offset="0.9882352941176471" stop-color="#496237"/>
    </linearGradient>
    <g id="sprite1" transform="matrix(1.0, 0.0, 0.0, 1.0, -153.05, 5.6)">
      <use ffdec:characterId="4046" height="1.65" transform="matrix(1.0, 0.0, 0.0, 1.0, 153.05, -5.6)" width="1.6" xlink:href="#shape2"/>
    </g>
    <g id="shape2" transform="matrix(1.0, 0.0, 0.0, 1.0, -153.05, 5.6)">
      <path d="M153.15 -4.35 L153.05 -4.8 Q153.05 -5.65 153.85 -5.6 154.65 -5.55 154.65 -4.75 L154.45 -4.3 Q154.15 -3.95 153.85 -3.95 153.35 -3.95 153.15 -4.35" fill="#f2ff80" fill-opacity="0.47843137" fill-rule="evenodd" stroke="none"/>
    </g>
    <g id="sprite2" transform="matrix(1.0, 0.0, 0.0, 1.0, 0.0, 0.0)">
      <use ffdec:characterId="4076" height="196.6" transform="matrix(1.0, 0.0, 0.0, 1.0, 0.0, 0.0)" width="121.95" xlink:href="#shape3"/>
      <filter id="filter1">
        <feColorMatrix in="SourceGraphic" result="filterResult4" type="matrix" values="0 0 0 0 0.9490196,0 0 0 0 1.0,0 0 0 0 0.5019608,0 0 0 1 0"/>
        <feConvolveMatrix divisor="16.0" in="filterResult4" kernelMatrix="1 1 1 1 1 1 1 1 1 1 1 1 1 1 1 1" order="4 4" result="filterResult5"/>
        <feConvolveMatrix divisor="16.0" in="filterResult5" kernelMatrix="1 1 1 1 1 1 1 1 1 1 1 1 1 1 1 1" order="4 4" result="filterResult6"/>
        <feComposite in="SourceGraphic" in2="filterResult6" operator="over" result="filterResult7"/>
      </filter>
      <use ffdec:characterId="4047" filter="url(#filter1)" height="1.65" transform="matrix(1.0, 0.0, 0.0, 1.0, 61.75, 23.45)" width="1.6" xlink:href="#sprite1"/>
    </g>
    <g id="shape3" transform="matrix(1.0, 0.0, 0.0, 1.0, 0.0, 0.0)">
      <path d="M38.7 9.3 L39.3 8.1 40.4 6.95 42.55 4.75 43.35 3.6 43.5 3.45 43.4 3.2 Q43.4 2.75 44.55 2.4 L46.55 1.75 47.25 1.6 47.85 1.45 48.35 1.15 50.0 0.5 51.2 0.7 Q51.9 0.7 52.4 0.35 L52.85 0.0 56.3 0.25 57.35 0.5 58.75 0.8 60.1 1.2 60.85 1.3 61.6 1.45 61.6 1.4 62.0 1.3 62.4 1.5 66.1 1.4 Q68.2 1.4 69.85 3.4 70.3 4.1 70.25 4.75 L70.15 5.6 Q70.15 5.95 70.65 6.7 L70.95 6.95 72.2 8.85 72.85 10.75 72.9 11.45 73.3 12.2 73.6 13.0 73.6 13.55 73.35 14.7 73.65 15.6 73.95 16.5 74.1 18.3 73.9 19.95 73.95 20.05 74.3 21.3 74.65 22.35 74.65 22.3 74.7 23.05 74.8 23.8 Q74.8 25.1 74.45 25.95 74.2 26.55 74.2 28.1 L74.25 30.9 73.6 33.1 70.65 43.3 70.35 44.15 70.4 44.5 70.0 45.15 70.2 45.2 70.2 45.1 70.8 45.15 71.35 45.3 71.6 45.3 74.5 45.8 78.7 46.7 79.45 46.8 79.5 46.95 79.6 47.05 79.65 46.0 79.65 45.45 Q79.7 45.0 80.1 44.95 80.7 44.85 81.5 45.25 L82.6 45.8 84.65 46.7 86.25 47.55 88.05 48.7 88.7 49.25 Q89.15 49.45 89.65 49.95 L91.3 51.55 93.9 54.65 96.1 57.75 97.9 60.85 101.45 66.8 Q104.45 72.15 104.45 73.05 L104.45 73.15 104.8 74.15 Q104.8 74.9 102.05 77.5 L100.95 78.55 101.1 78.95 101.65 79.8 102.3 81.55 103.6 85.05 105.6 92.0 107.25 98.85 Q108.1 103.0 108.1 105.9 L108.05 106.4 108.1 106.75 107.75 108.85 107.3 110.65 105.4 114.5 105.25 114.9 106.1 115.0 108.7 115.15 109.15 115.3 110.1 115.5 112.6 116.65 118.15 119.8 Q119.95 121.05 121.05 123.85 121.95 126.1 121.95 127.65 121.95 129.05 120.8 133.9 L119.9 137.0 118.85 139.25 118.15 140.5 116.65 143.4 112.2 149.25 109.45 152.25 106.65 155.15 103.8 158.0 100.9 160.95 90.4 172.65 87.85 175.5 85.3 178.5 82.6 181.3 Q81.1 182.85 80.7 183.95 L81.55 184.85 83.55 186.45 Q84.8 187.75 84.8 189.6 L84.75 190.95 84.05 192.35 83.8 192.65 83.1 193.1 81.8 193.45 78.55 193.95 74.2 194.3 68.35 194.2 66.55 194.0 65.6 193.95 64.55 193.65 61.85 192.9 58.95 191.2 Q57.3 189.85 52.5 186.5 L49.5 184.25 Q47.7 182.95 45.7 182.15 L43.8 181.5 Q42.45 180.95 42.0 180.35 L41.25 179.25 41.25 178.1 Q41.25 176.3 41.55 175.25 41.85 174.1 42.95 172.05 43.65 170.7 45.65 169.05 47.7 167.0 48.8 166.05 49.9 165.05 52.3 163.05 L55.85 160.05 57.15 158.55 58.5 157.05 61.15 154.25 60.05 153.9 59.4 153.4 57.95 153.55 57.95 153.65 56.55 153.5 55.6 153.7 51.35 153.85 50.1 153.95 49.85 154.1 47.45 154.25 43.7 154.1 43.7 154.0 41.55 153.85 40.05 153.75 38.45 153.65 36.3 153.85 35.6 154.05 34.1 158.2 Q33.7 159.45 33.65 160.65 L33.65 163.05 Q33.65 166.65 33.9 168.05 L35.0 173.75 36.1 179.1 36.15 180.4 36.35 181.8 Q36.8 183.0 36.85 184.15 L36.95 184.8 37.7 186.0 39.4 188.55 40.65 190.65 Q41.85 192.85 41.85 193.5 L41.55 194.6 41.2 195.5 Q40.25 196.6 35.2 196.6 L24.35 196.3 21.8 195.8 18.8 195.1 17.25 194.3 Q16.6 193.85 16.4 193.3 L16.3 192.3 16.2 190.4 Q16.2 189.2 16.55 187.6 L17.0 185.2 17.25 180.35 Q17.25 177.75 16.55 175.05 15.75 172.15 14.3 170.0 L10.6 164.8 8.8 162.3 7.1 159.65 Q5.9 157.9 4.25 153.85 L2.55 149.35 Q2.1 148.3 1.9 146.75 L1.55 144.2 Q0.2 140.15 0.2 139.0 L0.25 138.5 0.0 136.15 Q0.0 135.2 0.35 134.05 0.65 132.95 1.0 132.5 L1.9 130.75 Q2.45 129.55 3.1 128.9 L4.05 127.75 3.85 126.7 3.9 124.75 3.9 122.75 3.65 120.8 Q3.65 116.6 4.2 115.15 L4.7 112.35 5.0 110.95 5.0 110.2 5.25 109.7 4.85 108.15 4.25 106.2 3.85 105.15 3.6 103.4 Q3.25 101.85 3.25 99.9 L3.1 93.05 Q3.1 86.95 3.5 83.25 3.5 81.65 4.3 78.35 L4.8 75.9 5.15 74.7 5.15 74.6 1.9 73.45 Q0.85 72.8 0.85 71.85 0.85 70.6 2.35 67.15 3.55 64.1 4.85 62.5 L8.15 57.8 9.65 55.45 11.45 53.1 15.4 48.4 Q16.5 46.95 17.45 46.15 L17.7 45.95 17.7 46.05 18.3 45.55 Q19.0 45.0 21.65 44.15 L26.05 42.7 28.45 41.95 29.55 41.85 29.8 41.9 30.1 42.35 30.45 43.2 Q30.9 42.85 31.9 42.9 L32.05 42.7 33.1 42.4 35.8 41.85 37.8 41.6 41.1 40.5 Q41.2 40.45 42.15 39.95 L42.75 39.8 42.95 39.5 43.7 38.5 42.85 37.4 42.1 36.75 41.8 36.2 Q41.65 35.95 41.2 35.65 L40.55 35.25 Q40.0 34.75 40.0 34.0 L40.2 33.3 40.4 32.5 40.3 32.05 Q39.25 32.35 38.65 31.5 38.15 30.9 38.15 30.25 L38.7 28.45 37.7 27.3 Q36.65 26.35 36.65 25.4 36.65 24.7 37.2 23.95 37.75 23.25 37.75 22.3 L37.6 21.8 37.0 21.15 36.8 20.35 Q36.3 20.9 35.9 20.9 35.25 20.9 35.05 20.5 L34.95 20.05 34.95 19.95 34.95 19.9 34.95 19.35 Q34.95 18.2 35.3 17.6 L37.1 15.5 Q38.0 14.55 38.3 13.5 38.3 13.0 38.6 12.55 L38.55 11.65 38.7 9.3 M41.95 25.75 Q41.55 26.3 41.55 28.0 41.55 29.6 42.6 31.25 43.5 32.7 44.8 33.55 L45.0 33.5 45.2 33.8 45.6 34.0 46.45 34.65 46.7 33.45 Q46.7 32.25 45.75 31.25 L44.35 29.7 43.7 28.8 42.95 27.8 Q42.35 26.6 42.35 25.95 L42.45 24.85 41.95 25.75 M64.85 13.85 L62.95 14.25 62.6 14.25 62.7 15.45 Q62.7 16.55 61.9 17.65 L60.35 18.95 59.7 18.95 59.65 18.6 Q59.65 18.5 60.35 18.0 L61.35 17.15 Q61.75 16.5 61.75 15.45 L61.45 14.25 58.75 13.9 56.15 13.5 Q54.6 13.5 53.75 15.7 53.35 16.7 53.15 18.15 52.55 21.4 52.55 22.65 L52.75 24.4 52.9 25.9 52.55 28.05 52.15 29.75 Q52.15 30.35 52.3 30.8 L52.8 32.1 Q53.3 33.45 55.65 34.15 L55.65 34.0 55.85 33.9 55.8 34.05 56.3 36.2 56.9 38.1 Q57.1 38.85 57.95 40.2 58.85 41.65 59.7 41.95 L59.8 42.15 61.45 42.4 Q62.25 42.8 62.75 42.8 L64.25 41.8 65.3 40.55 65.0 40.3 63.45 40.25 63.4 39.95 Q63.4 39.8 64.55 39.45 65.65 39.15 65.65 38.8 65.65 38.4 65.1 38.15 L62.6 38.25 62.5 38.3 62.2 38.25 Q61.5 38.15 61.4 37.8 L61.3 37.1 61.8 36.45 63.0 35.0 Q63.75 34.25 64.85 33.9 L65.05 33.8 63.25 32.4 Q62.4 31.7 62.4 31.15 62.4 30.45 63.6 29.55 64.95 28.5 66.5 28.5 67.95 28.5 67.8 29.75 L67.75 30.25 67.35 30.85 70.15 30.85 Q68.0 27.8 66.9 23.3 L66.05 23.85 65.2 24.5 64.65 25.15 Q64.15 25.5 62.95 25.5 L59.55 25.25 58.25 25.0 56.6 24.8 56.4 24.5 Q56.4 23.7 59.9 22.6 L60.65 22.25 61.85 21.9 62.8 21.45 66.55 21.15 68.95 21.35 69.5 21.5 69.55 21.35 Q69.55 20.45 68.7 20.0 L67.3 19.55 Q66.3 19.15 65.95 18.8 L65.7 17.85 Q65.7 17.4 66.3 16.35 L66.85 14.8 66.55 14.15 66.1 14.75 Q65.6 15.95 65.15 15.95 L64.7 15.5 64.55 14.9 Q64.55 14.5 64.95 13.85 L64.85 13.85 M73.35 18.8 L73.4 18.4 73.1 17.3 72.85 17.65 72.9 17.75 73.35 18.8 M70.25 25.75 Q69.85 25.75 69.5 26.65 L69.35 27.1 69.9 28.6 70.5 29.6 70.9 28.4 71.2 27.15 70.95 26.3 Q70.65 25.75 70.25 25.75 M46.0 39.0 Q46.0 41.3 44.85 44.85 L44.05 46.9 45.4 48.25 Q45.65 48.6 46.55 49.25 L47.8 50.25 49.9 52.2 53.8 56.2 55.05 57.7 57.3 55.7 Q59.6 53.15 59.6 51.95 L59.45 51.55 57.25 51.15 56.6 51.0 54.95 50.5 52.3 49.3 51.55 48.85 Q50.65 48.15 50.55 47.0 L50.55 44.9 Q50.2 43.05 48.9 40.85 L48.05 39.75 47.5 39.0 45.9 37.7 46.0 39.0 M83.75 92.9 L82.5 89.45 81.55 87.65 80.55 86.0 78.5 81.35 78.3 81.85 Q78.05 82.95 76.2 86.75 L70.8 96.5 Q67.15 102.15 66.25 106.25 65.15 111.35 65.25 115.05 L65.6 115.4 Q66.95 114.9 68.0 114.75 L72.8 114.45 79.8 113.95 86.0 113.55 86.05 113.7 86.95 112.15 Q88.6 108.95 88.95 108.5 89.4 107.85 89.55 106.6 L89.7 105.9 89.3 104.95 88.5 103.25 86.9 99.75 85.15 96.3 83.75 92.9" fill="#000000" fill-rule="evenodd" stroke="none"/>
      <path d="M64.85 13.85 L64.95 13.85 Q64.55 14.5 64.55 14.9 L64.7 15.5 65.15 15.95 Q65.6 15.95 66.1 14.75 L66.55 14.15 66.85 14.8 66.3 16.35 Q65.7 17.4 65.7 17.85 L65.95 18.8 Q66.3 19.15 67.3 19.55 L68.7 20.0 Q69.55 20.45 69.55 21.35 L69.5 21.5 68.95 21.35 66.55 21.15 62.8 21.45 61.85 21.9 60.65 22.25 59.9 22.6 Q56.4 23.7 56.4 24.5 L56.6 24.8 58.25 25.0 59.55 25.25 62.95 25.5 Q64.15 25.5 64.65 25.15 L65.2 24.5 66.05 23.85 66.9 23.3 Q68.0 27.8 70.15 30.85 L67.35 30.85 67.75 30.25 67.8 29.75 Q67.95 28.5 66.5 28.5 64.95 28.5 63.6 29.55 62.4 30.45 62.4 31.15 62.4 31.7 63.25 32.4 L65.05 33.8 64.85 33.9 Q63.75 34.25 63.0 35.0 L61.8 36.45 61.3 37.1 61.4 37.8 Q61.5 38.15 62.2 38.25 L62.5 38.3 62.6 38.25 65.1 38.15 Q65.65 38.4 65.65 38.8 65.65 39.15 64.55 39.45 63.4 39.8 63.4 39.95 L63.45 40.25 65.0 40.3 65.3 40.55 64.25 41.8 62.75 42.8 Q62.25 42.8 61.45 42.4 L59.8 42.15 59.7 41.95 Q58.85 41.65 57.95 40.2 57.1 38.85 56.9 38.1 L56.3 36.2 55.8 34.05 55.85 33.9 55.65 34.0 55.65 34.15 Q53.3 33.45 52.8 32.1 L52.3 30.8 Q52.15 30.35 52.15 29.75 L52.55 28.05 52.9 25.9 52.75 24.4 52.55 22.65 Q52.55 21.4 53.15 18.15 53.35 16.7 53.75 15.7 54.6 13.5 56.15 13.5 L58.75 13.9 61.45 14.25 61.75 15.45 Q61.75 16.5 61.35 17.15 L60.35 18.0 Q59.65 18.5 59.65 18.6 L59.7 18.95 60.35 18.95 61.9 17.65 Q62.7 16.55 62.7 15.45 L62.6 14.25 62.95 14.25 64.85 13.85 M41.95 25.75 L42.45 24.85 42.35 25.95 Q42.35 26.6 42.95 27.8 L43.7 28.8 44.35 29.7 45.75 31.25 Q46.7 32.25 46.7 33.45 L46.45 34.65 45.6 34.0 45.2 33.8 45.0 33.5 44.8 33.55 Q43.5 32.7 42.6 31.25 41.55 29.6 41.55 28.0 41.55 26.3 41.95 25.75 M46.0 39.0 L45.9 37.7 47.5 39.0 48.05 39.75 48.9 40.85 Q50.2 43.05 50.55 44.9 L50.55 47.0 Q50.65 48.15 51.55 48.85 L52.3 49.3 54.95 50.5 56.6 51.0 57.25 51.15 59.45 51.55 59.6 51.95 Q59.6 53.15 57.3 55.7 L55.05 57.7 53.8 56.2 49.9 52.2 47.8 50.25 46.55 49.25 Q45.65 48.6 45.4 48.25 L44.05 46.9 44.85 44.85 Q46.0 41.3 46.0 39.0" fill="url(#gradient3)" fill-rule="evenodd" stroke="none"/>
      <path d="M70.25 25.75 Q70.65 25.75 70.95 26.3 L71.2 27.15 70.9 28.4 70.5 29.6 69.9 28.6 69.35 27.1 69.5 26.65 Q69.85 25.75 70.25 25.75" fill="#663f6b" fill-rule="evenodd" stroke="none"/>
    </g>
    <linearGradient gradientTransform="matrix(0.0, -0.0281, 0.0179, 0.0, 57.85, 35.85)" gradientUnits="userSpaceOnUse" id="gradient3" spreadMethod="pad" x1="-819.2" x2="819.2">
      <stop offset="0.0" stop-color="#1d1320"/>
      <stop offset="0.9882352941176471" stop-color="#663f6b"/>
    </linearGradient>
    <g id="sprite3" transform="matrix(1.0, 0.0, 0.0, 1.0, 43.55, 5.6)">
      <use ffdec:characterId="4042" height="393.15" transform="matrix(1.0, 0.0, 0.0, 1.0, -43.55, -5.6)" width="726.2" xlink:href="#shape4"/>
    </g>
    <g id="shape4" transform="matrix(1.0, 0.0, 0.0, 1.0, 43.55, 5.6)">
      <path d="M682.65 -5.6 L682.65 387.55 -43.55 387.55 -43.55 -5.6 682.65 -5.6" fill="url(#gradient4)" fill-rule="evenodd" stroke="none"/>
    </g>
    <linearGradient gradientTransform="matrix(0.0, -0.24, 0.4432, 0.0, 319.55, 191.0)" gradientUnits="userSpaceOnUse" id="gradient4" spreadMethod="pad" x1="-819.2" x2="819.2">
      <stop offset="0.0" stop-color="#00005e"/>
      <stop offset="1.0" stop-color="#ee7700"/>
    </linearGradient>
    <g id="sprite4" transform="matrix(1.0, 0.0, 0.0, 1.0, 265.1, 150.0)">
      <use ffdec:characterId="3477" height="300.0" transform="matrix(1.0, 0.0, 0.0, 1.0, -265.1, -150.0)" width="533.0" xlink:href="#shape5"/>
    </g>
    <g id="shape5" transform="matrix(1.0, 0.0, 0.0, 1.0, 265.1, 150.0)">
      <path d="M267.9 -150.0 L267.9 150.0 -265.1 150.0 -265.1 -150.0 267.9 -150.0 Z" fill="none" stroke="#ff0000" stroke-linecap="round" stroke-linejoin="round" stroke-width="0.05"/>
      <path d="M1.4 -16.05 L1.45 -16.05 Q9.35 -16.05 14.95 -11.35 20.55 -6.65 20.55 0.0 L39.5 0.0 M20.55 0.0 Q20.55 6.65 14.95 11.35 9.35 16.05 1.45 16.05 L1.4 16.05 1.4 21.45 M-36.65 0.0 L-17.55 0.0 -17.55 -0.05 Q-17.55 -6.65 -11.95 -11.35 -6.4 -16.05 1.4 -16.05 M1.4 16.05 Q-6.4 16.05 -11.95 11.35 -17.55 6.65 -17.55 0.0" fill="none" stroke="#ff0000" stroke-linecap="round" stroke-linejoin="round" stroke-opacity="0.2509804" stroke-width="0.05"/>
      <path d="M1.4 -16.05 L1.4 -21.4" fill="none" stroke="#ff0000" stroke-linecap="round" stroke-linejoin="round" stroke-opacity="0.2509804" stroke-width="1.0"/>
      <path d="M181.15 141.4 L181.15 123.6 191.05 123.6 191.05 141.4 181.15 141.4" fill="#ffffff" fill-rule="evenodd" stroke="none"/>
      <path d="M250.55 123.6 L260.45 123.6 260.45 141.4 260.35 141.4 250.55 141.4 250.55 123.6" fill="#000000" fill-rule="evenodd" stroke="none"/>
      <path d="M230.7 123.6 L240.6 123.6 240.6 141.4 230.7 141.4 230.7 123.6" fill="#ff0000" fill-rule="evenodd" stroke="none"/>
      <path d="M191.05 123.6 L201.0 123.6 201.0 141.4 191.05 141.4 191.05 123.6" fill="#ffff00" fill-rule="evenodd" stroke="none"/>
      <path d="M201.0 123.6 L210.9 123.6 210.9 141.4 201.0 141.4 201.0 123.6" fill="#00ffff" fill-rule="evenodd" stroke="none"/>
      <path d="M210.9 123.6 L220.8 123.6 220.8 141.4 210.9 141.4 210.9 123.6" fill="#00ff00" fill-rule="evenodd" stroke="none"/>
      <path d="M220.8 123.6 L230.7 123.6 230.7 141.4 220.8 141.4 220.8 123.6" fill="#ff00ff" fill-rule="evenodd" stroke="none"/>
      <path d="M240.6 123.6 L250.55 123.6 250.55 141.4 240.6 141.4 240.6 123.6" fill="#0000ff" fill-rule="evenodd" stroke="none"/>
      <path d="M260.35 141.4 L260.35 145.4 181.1 145.4 181.1 141.4 181.15 141.4 191.05 141.4 201.0 141.4 210.9 141.4 220.8 141.4 230.7 141.4 240.6 141.4 250.55 141.4 260.35 141.4" fill="url(#gradient5)" fill-rule="evenodd" stroke="none"/>
    </g>
    <linearGradient gradientTransform="matrix(0.0484, 0.0, 0.0, 0.0024, 220.7, 143.35)" gradientUnits="userSpaceOnUse" id="gradient5" spreadMethod="pad" x1="-819.2" x2="819.2">
      <stop offset="0.0" stop-color="#ffffff"/>
      <stop offset="1.0" stop-color="#000000"/>
    </linearGradient>
  </defs>
</svg>
