<?xml version="1.0" encoding="UTF-8" standalone="no"?>
<svg xmlns:ffdec="https://www.free-decompiler.com/flash" xmlns:xlink="http://www.w3.org/1999/xlink" ffdec:objectType="frame" height="496.4px" width="949.0px" xmlns="http://www.w3.org/2000/svg">
  <g transform="matrix(2.0, 0.0, 0.0, 2.0, 474.5, 248.2)">
    <use ffdec:characterId="2845" height="248.2" transform="matrix(1.0, 0.0, 0.0, 1.0, -237.25, -124.1)" width="474.5" xlink:href="#shape0"/>
    <filter id="filter0">
      <feFlood flood-color="#000000" flood-opacity="1.0" result="filterResult0"/>
      <feOffset dx="3.5355799791601" dy="3.535487832104965" in="SourceGraphic" result="filterResult1"/>
      <feComposite in="filterResult0" in2="filterResult1" operator="out" result="filterResult2"/>
      <feConvolveMatrix divisor="169.0" in="filterResult2" kernelMatrix="1 1 1 1 1 1 1 1 1 1 1 1 1 1 1 1 1 1 1 1 1 1 1 1 1 1 1 1 1 1 1 1 1 1 1 1 1 1 1 1 1 1 1 1 1 1 1 1 1 1 1 1 1 1 1 1 1 1 1 1 1 1 1 1 1 1 1 1 1 1 1 1 1 1 1 1 1 1 1 1 1 1 1 1 1 1 1 1 1 1 1 1 1 1 1 1 1 1 1 1 1 1 1 1 1 1 1 1 1 1 1 1 1 1 1 1 1 1 1 1 1 1 1 1 1 1 1 1 1 1 1 1 1 1 1 1 1 1 1 1 1 1 1 1 1 1 1 1 1 1 1 1 1 1 1 1 1 1 1 1 1 1 1 1 1 1 1 1 1" order="13 13" result="filterResult3"/>
      <feComposite in="filterResult3" in2="SourceGraphic" operator="in" result="filterResult4"/>
      <feComposite in="filterResult4" in2="SourceGraphic" operator="over" result="filterResult5"/>
    </filter>
    <use ffdec:characterId="2844" filter="url(#filter0)" height="223.25" transform="matrix(1.0, 0.0, 0.0, 1.0, -224.25, -111.6)" width="448.5" xlink:href="#sprite0"/>
  </g>
  <defs>
    <g id="shape0" transform="matrix(1.0, 0.0, 0.0, 1.0, 237.25, 124.1)">
      <path d="M236.75 123.6 L-236.75 123.6 -236.75 -123.6 236.75 -123.6 236.75 123.6" fill="url(#gradient0)" fill-rule="evenodd" stroke="none"/>
      <path d="M236.75 123.6 L-236.75 123.6 -236.75 -123.6 236.75 -123.6 236.75 123.6 Z" fill="none" stroke="#000000" stroke-linecap="round" stroke-linejoin="round" stroke-width="1.0"/>
    </g>
    <linearGradient gradientTransform="matrix(0.0, -0.1509, 0.289, 0.0, 0.0, 0.0)" gradientUnits="userSpaceOnUse" id="gradient0" spreadMethod="pad" x1="-819.2" x2="819.2">
      <stop offset="0.0" stop-color="#32333d"/>
      <stop offset="1.0" stop-color="#5e7377"/>
    </linearGradient>
    <g id="sprite0" transform="matrix(1.0, 0.0, 0.0, 1.0, 224.25, 111.6)">
      <use ffdec:characterId="2843" height="223.25" transform="matrix(1.0, 0.0, 0.0, 1.0, -224.25, -111.6)" width="448.5" xlink:href="#shape1"/>
    </g>
    <g id="shape1" transform="matrix(1.0, 0.0, 0.0, 1.0, 224.25, 111.6)">
      <path d="M-224.25 -111.6 L224.25 -111.6 224.25 111.65 -224.25 111.65 -224.25 -111.6" fill="url(#gradient1)" fill-rule="evenodd" stroke="none"/>
    </g>
    <radialGradient cx="0" cy="0" gradientTransform="matrix(0.527, 0.0, 0.0, 0.2868, -69.5, -60.55)" gradientUnits="userSpaceOnUse" id="gradient1" r="819.2" spreadMethod="pad">
      <stop offset="0.0" stop-color="#e1e1e1"/>
      <stop offset="1.0" stop-color="#777777"/>
    </radialGradient>
  </defs>
</svg>
