<?xml version="1.0" encoding="UTF-8" standalone="no"?>
<svg xmlns:ffdec="https://www.free-decompiler.com/flash" xmlns:xlink="http://www.w3.org/1999/xlink" ffdec:objectType="frame" height="283.8px" width="368.4px" xmlns="http://www.w3.org/2000/svg">
  <g transform="matrix(2.0, 0.0, 0.0, 2.0, 136.9, 165.8)">
    <use ffdec:characterId="144" height="19.95" id="shadower" transform="matrix(1.9385, 0.2857, 0.0273, 1.3902, -68.4731, 12.6832)" width="65.05" xlink:href="#sprite0"/>
    <filter id="filter0"/>
    <use ffdec:characterId="2595" filter="url(#filter0)" height="36.3" id="hand2" transform="matrix(0.8225, 0.38, -0.38, 0.8225, 11.8572, -21.8782)" width="24.05" xlink:href="#sprite1"/>
    <filter id="filter1"/>
    <use ffdec:characterId="2592" filter="url(#filter1)" height="30.85" id="arm2" transform="matrix(0.9044, 0.0836, -0.0836, 0.9044, 4.7291, 5.31)" width="15.05" xlink:href="#sprite3"/>
    <filter id="filter2"/>
    <use ffdec:characterId="2601" filter="url(#filter2)" height="26.5" id="leg4" transform="matrix(0.8932, 0.1657, -0.1657, 0.8932, -32.9781, -12.5928)" width="24.45" xlink:href="#sprite5"/>
    <filter id="filter3"/>
    <use ffdec:characterId="2592" filter="url(#filter3)" height="30.85" id="leg2" transform="matrix(0.8965, 0.1301, -0.1301, 0.8965, -32.165, 5.5494)" width="15.05" xlink:href="#sprite3"/>
    <filter id="filter4"/>
    <use ffdec:characterId="2607" filter="url(#filter4)" height="33.1" id="chest" transform="matrix(1.0, 0.0, 0.0, 1.0, -42.7, -22.8)" width="36.7" xlink:href="#sprite7"/>
    <filter id="filter5"/>
    <use ffdec:characterId="2604" filter="url(#filter5)" height="51.3" id="foot1" transform="matrix(1.0367, 0.1048, -0.1048, 1.0367, -16.7707, -43.0449)" width="57.25" xlink:href="#sprite9"/>
    <filter id="filter6"/>
    <use ffdec:characterId="2601" filter="url(#filter6)" height="26.5" id="leg3" transform="matrix(0.9694, 0.233, -0.233, 0.9694, -41.0991, -16.0349)" width="24.45" xlink:href="#sprite5"/>
    <filter id="filter7"/>
    <use ffdec:characterId="2592" filter="url(#filter7)" height="30.85" id="leg1" transform="matrix(0.936, 0.3366, -0.3366, 0.936, -40.9004, 4.6732)" width="15.05" xlink:href="#sprite3"/>
    <filter id="filter9"/>
    <use ffdec:characterId="2598" filter="url(#filter9)" height="38.3" id="head" transform="matrix(0.663, 0.7405, -0.7405, 0.663, 40.5792, -55.5305)" width="31.7" xlink:href="#sprite11"/>
    <filter id="filter10"/>
    <use ffdec:characterId="2595" filter="url(#filter10)" height="36.3" id="hand1" transform="matrix(0.9394, 0.334, -0.334, 0.9394, 14.4553, -26.8721)" width="24.05" xlink:href="#sprite1"/>
    <filter id="filter11"/>
    <use ffdec:characterId="2592" filter="url(#filter11)" height="30.85" id="arm1" transform="matrix(0.9656, -0.25, 0.25, 0.9656, 12.7047, 9.9077)" width="15.05" xlink:href="#sprite3"/>
    <filter id="filter12">
      <feColorMatrix in="SourceGraphic" result="filterResult3" type="matrix" values="0 0 0 0 0.0,0 0 0 0 0.0,0 0 0 0 1.0,0 0 0 1 0"/>
      <feConvolveMatrix divisor="144.0" in="filterResult3" kernelMatrix="1 1 1 1 1 1 1 1 1 1 1 1 1 1 1 1 1 1 1 1 1 1 1 1 1 1 1 1 1 1 1 1 1 1 1 1 1 1 1 1 1 1 1 1 1 1 1 1 1 1 1 1 1 1 1 1 1 1 1 1 1 1 1 1 1 1 1 1 1 1 1 1 1 1 1 1 1 1 1 1 1 1 1 1 1 1 1 1 1 1 1 1 1 1 1 1 1 1 1 1 1 1 1 1 1 1 1 1 1 1 1 1 1 1 1 1 1 1 1 1 1 1 1 1 1 1 1 1 1 1 1 1 1 1 1 1 1 1 1 1 1 1 1 1" order="12 12" result="filterResult4"/>
      <feComposite in="SourceGraphic" in2="filterResult4" operator="over" result="filterResult5"/>
    </filter>
    <use ffdec:characterId="165" filter="url(#filter12)" height="12.1" transform="matrix(1.0, 0.0, 0.0, 1.0, 24.95, -66.05)" width="28.55" xlink:href="#sprite14"/>
  </g>
  <defs>
    <g id="sprite0" transform="matrix(1.0, 0.0, 0.0, 1.0, 32.5, 9.95)">
      <use ffdec:characterId="143" height="19.95" transform="matrix(1.0, 0.0, 0.0, 1.0, -32.5, -9.95)" width="65.05" xlink:href="#shape0"/>
    </g>
    <g id="shape0" transform="matrix(1.0, 0.0, 0.0, 1.0, 32.5, 9.95)">
      <path d="M1.45 8.25 Q-12.05 10.55 -22.0 9.8 -31.85 9.0 -32.45 5.6 -33.05 2.2 -24.0 -1.85 -14.9 -5.9 -1.4 -8.2 12.1 -10.55 22.0 -9.75 31.95 -9.0 32.5 -5.6 33.1 -2.2 24.0 1.85 14.95 5.9 1.45 8.25" fill="url(#gradient0)" fill-rule="evenodd" stroke="none"/>
    </g>
    <radialGradient cx="0" cy="0" gradientTransform="matrix(0.0432, -0.0074, 0.0018, 0.0106, 0.05, 0.0)" gradientUnits="userSpaceOnUse" id="gradient0" r="819.2" spreadMethod="pad">
      <stop offset="0.3333333333333333" stop-color="#000000" stop-opacity="0.68235296"/>
      <stop offset="0.8627450980392157" stop-color="#000000" stop-opacity="0.0"/>
      <stop offset="1.0" stop-color="#000000" stop-opacity="0.0"/>
    </radialGradient>
    <g id="sprite1" transform="matrix(1.0, 0.0, 0.0, 1.0, 12.55, 16.0)">
      <use ffdec:characterId="2594" height="36.3" transform="matrix(1.0, 0.0, 0.0, 1.0, -12.55, -16.0)" width="24.05" xlink:href="#sprite2"/>
    </g>
    <g id="sprite2" transform="matrix(1.0, 0.0, 0.0, 1.0, 12.55, 16.0)">
      <use ffdec:characterId="2593" height="36.3" transform="matrix(1.0, 0.0, 0.0, 1.0, -12.55, -16.0)" width="24.05" xlink:href="#shape1"/>
    </g>
    <g id="shape1" transform="matrix(1.0, 0.0, 0.0, 1.0, 12.55, 16.0)">
      <path d="M-12.5 -6.4 L-12.45 -6.15 -12.55 -6.4 -12.5 -6.4" fill="#473d33" fill-rule="evenodd" stroke="none"/>
      <path d="M-12.45 -6.15 L-12.5 -6.4 Q-9.35 -13.95 -1.95 -15.7 0.7 -17.0 7.75 -12.3 9.85 -10.05 11.5 0.8 9.95 4.8 10.35 8.75 11.6 12.95 10.6 15.8 L10.6 16.15 8.5 19.5 -1.35 19.8 -6.6 9.05 -7.15 7.8 Q-8.15 5.55 -10.6 3.8 -10.65 -1.0 -12.45 -6.15" fill="url(#gradient1)" fill-rule="evenodd" stroke="none"/>
      <path d="M-12.45 -6.15 L-12.5 -6.4 -12.55 -6.4 -12.45 -6.15 Q-10.65 -1.0 -10.6 3.8 -8.15 5.55 -7.15 7.8 L-6.6 9.05 -1.35 19.8 8.5 19.5 10.6 16.15 M10.6 15.8 Q11.6 12.95 10.35 8.75 9.95 4.8 11.5 0.8 9.85 -10.05 7.75 -12.3" fill="none" stroke="#000000" stroke-linecap="round" stroke-linejoin="round" stroke-width="0.05"/>
      <path d="M-6.25 -0.4 Q-4.55 4.1 -0.4 4.95 L1.4 6.2 1.95 6.35 Q0.4 8.35 -4.35 9.6 -4.25 10.25 -1.65 12.9 2.15 15.2 5.25 14.8 1.25 16.85 -1.5 15.9 0.15 18.45 1.9 20.25 L-1.35 19.8 -6.6 9.05 -7.15 7.8 Q-8.15 5.55 -10.6 3.8 -10.65 -1.0 -12.45 -6.15 L-12.5 -6.4 Q-10.3 -11.75 -5.95 -14.15 L-5.6 -14.35 -6.0 -13.85 Q-7.55 -10.5 -7.3 -6.85 -7.95 -3.25 -6.25 -0.4 M10.35 8.75 L9.95 8.9 7.6 5.4 7.65 5.35 Q9.6 1.8 10.25 -5.95 L11.5 0.8 Q9.95 4.8 10.35 8.75" fill="#000000" fill-opacity="0.4" fill-rule="evenodd" stroke="none"/>
    </g>
    <radialGradient cx="0" cy="0" gradientTransform="matrix(0.0356, 0.0, 0.0, 0.0356, 0.35, -8.5)" gradientUnits="userSpaceOnUse" id="gradient1" r="819.2" spreadMethod="pad">
      <stop offset="0.0" stop-color="#1e1915"/>
      <stop offset="1.0" stop-color="#090503"/>
    </radialGradient>
    <g id="sprite3" transform="matrix(1.0, 0.0, 0.0, 1.0, 8.5, 16.95)">
      <use ffdec:characterId="2591" height="30.85" transform="matrix(1.0, 0.0, 0.0, 1.0, -8.5, -16.95)" width="15.05" xlink:href="#sprite4"/>
    </g>
    <g id="sprite4" transform="matrix(1.0, 0.0, 0.0, 1.0, 8.45, 16.95)">
      <use ffdec:characterId="2590" height="30.85" transform="matrix(1.0, 0.0, 0.0, 1.0, -8.45, -16.95)" width="15.05" xlink:href="#shape2"/>
    </g>
    <g id="shape2" transform="matrix(1.0, 0.0, 0.0, 1.0, 8.45, 16.95)">
      <path d="M-0.85 7.15 L-0.8 7.15 -0.85 7.15" fill="#4b4234" fill-rule="evenodd" stroke="none"/>
      <path d="M0.85 7.15 L1.95 7.1 1.35 7.15 0.85 7.15" fill="#2d271f" fill-rule="evenodd" stroke="none"/>
      <path d="M-0.85 7.15 Q-3.15 -0.45 -8.45 -6.55 -8.05 -9.15 -5.55 -12.55 0.2 -16.35 6.1 -16.95 7.45 -3.1 5.2 8.65 L5.15 8.85 Q4.05 7.15 2.15 7.1 L1.95 7.1 0.85 7.15 -0.8 7.15 -0.85 7.15" fill="url(#gradient2)" fill-rule="evenodd" stroke="none"/>
      <path d="M1.95 7.1 L2.15 7.1 Q4.05 7.15 5.15 8.85 L5.3 8.8 5.4 9.0 6.3 10.55 6.4 12.8 -4.0 13.9 -5.2 9.7 -3.6 8.0 -2.8 8.55 -0.75 10.0 0.45 9.7 1.35 7.15 1.95 7.1" fill="url(#gradient3)" fill-rule="evenodd" stroke="none"/>
      <path d="M-0.8 7.15 L0.85 7.15 1.35 7.15 0.45 9.7 -0.75 10.0 -2.8 8.55 -0.8 7.15" fill="url(#gradient4)" fill-rule="evenodd" stroke="none"/>
      <path d="M-5.55 -12.55 Q-8.05 -9.15 -8.45 -6.55 -3.15 -0.45 -0.85 7.15 L-0.8 7.15 0.85 7.15 1.35 7.15 1.95 7.1 2.15 7.1 Q4.05 7.15 5.15 8.85 L5.2 8.65 Q7.45 -3.1 6.1 -16.95 M5.4 9.0 L6.3 10.55 6.4 12.8 -4.0 13.9 -5.2 9.7 -3.6 8.0 -2.8 8.55 -0.8 7.15 M-2.8 8.55 L-0.75 10.0 0.45 9.7 1.35 7.15 M5.2 8.65 L5.3 8.8" fill="none" stroke="#000000" stroke-linecap="round" stroke-linejoin="round" stroke-width="0.05"/>
      <path d="M-5.5 -12.15 Q-1.1 -12.8 2.95 -6.35 -1.6 -9.3 -4.6 -6.55 -3.1 -7.05 1.25 -1.7 -0.75 -3.25 -2.35 -1.0 L-0.15 7.15 -0.8 7.15 -0.85 7.15 Q-3.15 -0.45 -8.45 -6.55 -8.1 -8.95 -5.9 -12.05 L-5.5 -12.15" fill="#000000" fill-opacity="0.4" fill-rule="evenodd" stroke="none"/>
    </g>
    <radialGradient cx="0" cy="0" gradientTransform="matrix(0.0262, 0.0, 0.0, 0.0262, 2.45, -12.4)" gradientUnits="userSpaceOnUse" id="gradient2" r="819.2" spreadMethod="pad">
      <stop offset="0.0" stop-color="#1e1915"/>
      <stop offset="1.0" stop-color="#090503"/>
    </radialGradient>
    <radialGradient cx="0" cy="0" gradientTransform="matrix(0.0082, 0.0, 0.0, 0.0082, 1.45, 9.95)" gradientUnits="userSpaceOnUse" id="gradient3" r="819.2" spreadMethod="pad">
      <stop offset="0.0" stop-color="#241f17"/>
      <stop offset="1.0" stop-color="#0f1311"/>
    </radialGradient>
    <radialGradient cx="0" cy="0" gradientTransform="matrix(0.0036, 0.0, 0.0, 0.0036, 0.15, 8.25)" gradientUnits="userSpaceOnUse" id="gradient4" r="819.2" spreadMethod="pad">
      <stop offset="0.0" stop-color="#241f17"/>
      <stop offset="1.0" stop-color="#0f1311"/>
    </radialGradient>
    <g id="sprite5" transform="matrix(1.0, 0.0, 0.0, 1.0, 13.9, 13.2)">
      <use ffdec:characterId="2600" height="26.5" transform="matrix(1.0, 0.0, 0.0, 1.0, -13.9, -13.2)" width="24.45" xlink:href="#sprite6"/>
    </g>
    <g id="sprite6" transform="matrix(1.0, 0.0, 0.0, 1.0, 13.9, 13.2)">
      <use ffdec:characterId="2599" height="26.5" transform="matrix(1.0, 0.0, 0.0, 1.0, -13.9, -13.2)" width="24.45" xlink:href="#shape3"/>
    </g>
    <g id="shape3" transform="matrix(1.0, 0.0, 0.0, 1.0, 13.9, 13.2)">
      <path d="M-10.7 4.8 L-11.75 5.6 -13.9 3.35 -10.7 4.8" fill="#4b4234" fill-rule="evenodd" stroke="none"/>
      <path d="M9.95 -9.95 Q10.55 -7.7 10.55 -5.65 10.55 -1.45 8.0 2.05 5.8 5.8 4.8 10.9 -3.2 14.75 -7.0 12.4 -9.3 8.4 -11.75 5.6 L-10.7 4.8 -11.4 3.4 -11.55 3.15 Q-11.8 0.25 -11.6 -3.15 -11.4 -6.95 -10.9 -7.95 L-10.35 -9.1 Q-6.7 -12.05 -2.65 -12.9 3.65 -14.2 9.65 -10.15 L9.95 -9.95" fill="url(#gradient5)" fill-rule="evenodd" stroke="none"/>
      <path d="M4.8 10.9 Q5.8 5.8 8.0 2.05 10.55 -1.45 10.55 -5.65 10.55 -7.7 9.95 -9.95 M-11.6 -3.15 Q-11.8 0.25 -11.55 3.15 L-11.4 3.4 -10.7 4.8 -13.9 3.35 -11.75 5.6 Q-9.3 8.4 -7.0 12.4" fill="none" stroke="#000000" stroke-linecap="round" stroke-linejoin="round" stroke-width="0.05"/>
      <path d="M10.55 -5.65 Q10.55 -1.45 8.0 2.05 5.8 5.8 4.8 10.9 -3.2 14.75 -7.0 12.4 -10.3 6.65 -13.9 3.35 L-10.7 4.8 -11.4 3.4 -11.55 3.15 Q-11.8 0.25 -11.6 -3.15 -11.4 -6.95 -10.9 -7.95 L-10.75 -7.95 Q-10.2 -2.4 -8.85 1.6 -5.95 5.15 -3.6 5.9 L-1.65 8.05 -5.15 8.25 -7.55 7.2 -5.5 9.35 -2.65 11.4 1.95 10.85 Q4.4 8.25 4.6 4.85 4.25 3.9 2.55 3.75 6.95 -0.1 9.85 -5.95 L10.45 -6.05 10.55 -5.65" fill="#000000" fill-opacity="0.4" fill-rule="evenodd" stroke="none"/>
    </g>
    <radialGradient cx="0" cy="0" gradientTransform="matrix(0.0231, 0.0, 0.0, 0.0231, -0.4, -2.7)" gradientUnits="userSpaceOnUse" id="gradient5" r="819.2" spreadMethod="pad">
      <stop offset="0.0" stop-color="#1e1915"/>
      <stop offset="1.0" stop-color="#090503"/>
    </radialGradient>
    <g id="sprite7" transform="matrix(1.0, 0.0, 0.0, 1.0, 15.85, 18.7)">
      <use ffdec:characterId="2606" height="33.1" transform="matrix(1.0, 0.0, 0.0, 1.0, -15.85, -18.7)" width="36.7" xlink:href="#sprite8"/>
    </g>
    <g id="sprite8" transform="matrix(1.0, 0.0, 0.0, 1.0, 15.9, 18.65)">
      <use ffdec:characterId="2605" height="33.1" transform="matrix(1.0, 0.0, 0.0, 1.0, -15.9, -18.65)" width="36.7" xlink:href="#shape4"/>
    </g>
    <g id="shape4" transform="matrix(1.0, 0.0, 0.0, 1.0, 15.9, 18.65)">
      <path d="M9.2 -14.05 L8.85 -13.95 8.8 -13.95 8.3 -13.85 7.8 -13.65 8.8 -14.05 8.8 -13.95 9.2 -14.05" fill="#978468" fill-rule="evenodd" stroke="none"/>
      <path d="M9.2 -14.05 L9.3 -14.1 12.6 -15.1 Q19.75 -6.9 20.7 5.9 14.2 6.5 9.6 4.65 6.4 7.8 1.7 9.4 -0.8 11.95 -0.9 14.45 -6.7 14.2 -10.25 11.45 -9.15 6.9 -13.6 2.75 L-15.9 -0.35 Q-16.1 -6.4 -13.95 -9.95 -13.35 -11.75 -14.6 -13.05 -14.1 -14.2 -11.05 -13.9 -11.0 -15.1 -12.7 -16.6 L-6.3 -16.3 Q-6.15 -17.85 -7.3 -18.45 -4.3 -19.3 3.4 -16.15 5.65 -13.2 7.8 -13.65 L8.3 -13.85 8.8 -13.95 8.85 -13.95 9.2 -14.05" fill="url(#gradient6)" fill-rule="evenodd" stroke="none"/>
      <path d="M-0.9 14.45 Q-0.8 11.95 1.7 9.4 6.4 7.8 9.6 4.65 14.2 6.5 20.7 5.9 L20.8 7.75 20.8 12.4 20.05 12.4 Q14.05 14.25 8.55 14.0 L3.2 13.55 2.0 14.25 1.7 14.45 -0.9 14.45" fill="url(#gradient7)" fill-rule="evenodd" stroke="none"/>
      <path d="M12.6 -15.1 L9.3 -14.1 9.2 -14.05 8.85 -13.95 8.8 -13.95 8.3 -13.85 7.8 -13.65 Q5.65 -13.2 3.4 -16.15 -4.3 -19.3 -7.3 -18.45 -6.15 -17.85 -6.3 -16.3 L-12.7 -16.6 Q-11.0 -15.1 -11.05 -13.9 -14.1 -14.2 -14.6 -13.05 -13.35 -11.75 -13.95 -9.95 -16.1 -6.4 -15.9 -0.35 L-13.6 2.75 Q-9.15 6.9 -10.25 11.45 -6.7 14.2 -0.9 14.45 L1.7 14.45 2.0 14.25 3.2 13.55 8.55 14.0 Q14.05 14.25 20.05 12.4" fill="none" stroke="#000000" stroke-linecap="round" stroke-linejoin="round" stroke-width="0.05"/>
      <path d="M-10.05 -16.75 L-6.3 -16.3 Q-6.15 -17.85 -7.3 -18.45 -4.3 -19.3 3.4 -16.15 5.4 -13.5 7.35 -13.6 L8.9 -10.2 Q5.85 -12.7 1.95 -13.85 3.3 -11.7 2.2 -9.6 2.1 -11.0 -0.05 -12.45 -3.7 -8.65 -10.05 -9.5 -5.95 -10.2 -4.3 -12.95 -6.35 -15.15 -10.05 -16.75" fill="#000000" fill-opacity="0.4" fill-rule="evenodd" stroke="none"/>
      <path d="M7.35 -13.6 L7.8 -13.65 8.3 -13.85 8.8 -13.95 8.85 -13.95 12.6 -15.1 M-10.05 -16.75 L-6.3 -16.3 Q-6.15 -17.85 -7.3 -18.45 -4.3 -19.3 3.4 -16.15 5.4 -13.5 7.35 -13.6 M-10.05 -16.75 L-12.7 -16.6 Q-11.0 -15.1 -11.05 -13.9 -14.1 -14.2 -14.6 -13.05 -13.35 -11.75 -13.95 -9.95 -16.1 -6.4 -15.9 -0.35 L-13.6 2.75 Q-9.15 6.9 -10.25 11.45 -6.7 14.2 -0.9 14.45 L1.7 14.45 2.0 14.25 3.2 13.55 8.55 14.0 Q14.05 14.25 20.05 12.4" fill="none" stroke="#000000" stroke-linecap="round" stroke-linejoin="round" stroke-width="0.05"/>
    </g>
    <radialGradient cx="0" cy="0" gradientTransform="matrix(0.0345, 0.0, 0.0, 0.0345, -10.75, 0.25)" gradientUnits="userSpaceOnUse" id="gradient6" r="819.2" spreadMethod="pad">
      <stop offset="0.0" stop-color="#3c332b"/>
      <stop offset="1.0" stop-color="#130a06"/>
    </radialGradient>
    <radialGradient cx="0" cy="0" gradientTransform="matrix(7.0E-4, 0.0141, -0.0238, 0.0011, 16.25, 10.0)" gradientUnits="userSpaceOnUse" id="gradient7" r="819.2" spreadMethod="pad">
      <stop offset="0.0" stop-color="#493e2e"/>
      <stop offset="1.0" stop-color="#1e2622"/>
    </radialGradient>
    <g id="sprite9" transform="matrix(1.0, 0.0, 0.0, 1.0, 29.2, 28.15)">
      <use ffdec:characterId="2603" height="51.3" transform="matrix(1.0, 0.0, 0.0, 1.0, -29.2, -28.15)" width="57.25" xlink:href="#sprite10"/>
    </g>
    <g id="sprite10" transform="matrix(1.0, 0.0, 0.0, 1.0, 29.15, 28.15)">
      <use ffdec:characterId="2602" height="51.3" transform="matrix(1.0, 0.0, 0.0, 1.0, -29.15, -28.15)" width="57.25" xlink:href="#shape5"/>
    </g>
    <g id="shape5" transform="matrix(1.0, 0.0, 0.0, 1.0, 29.15, 28.15)">
      <path d="M10.7 -28.15 Q17.25 -22.15 21.35 -12.65 23.3 -4.25 28.1 4.9 25.35 4.2 23.8 6.15 25.85 8.95 26.6 12.35 24.95 9.8 22.35 10.4 L22.05 12.55 Q17.6 12.6 13.5 9.15 8.8 7.45 0.85 9.0 -6.75 9.45 -12.75 12.25 -18.0 14.65 -24.0 14.35 -27.2 10.9 -29.15 7.1 -28.9 -0.25 -26.9 -5.7 -21.3 -8.55 -16.15 -12.4 -18.4 -14.05 -21.15 -12.9 -16.75 -16.25 -11.05 -16.75 -12.5 -18.9 -15.15 -18.9 -10.2 -20.45 -5.25 -20.1 -3.25 -23.85 2.2 -26.35 5.5 -26.35 10.7 -28.15" fill="url(#gradient8)" fill-rule="evenodd" stroke="none"/>
      <path d="M22.05 12.55 L22.05 12.6 Q21.5 15.05 20.2 16.85 14.8 18.95 9.35 22.35 4.6 24.65 -5.0 20.45 -7.9 17.15 -17.65 19.9 -21.3 17.25 -24.0 14.35 -18.0 14.65 -12.75 12.25 -6.75 9.45 0.85 9.0 8.8 7.45 13.5 9.15 17.6 12.6 22.05 12.55" fill="url(#gradient9)" fill-rule="evenodd" stroke="none"/>
      <path d="M21.35 -12.65 Q23.3 -4.25 28.1 4.9 25.35 4.2 23.8 6.15 25.85 8.95 26.6 12.35 24.95 9.8 22.35 10.4 L22.05 12.55 M22.05 12.6 Q21.5 15.05 20.2 16.85 14.8 18.95 9.35 22.35 4.6 24.65 -5.0 20.45 -7.9 17.15 -17.65 19.9 M-26.9 -5.7 Q-21.3 -8.55 -16.15 -12.4 -18.4 -14.05 -21.15 -12.9 -16.75 -16.25 -11.05 -16.75 -12.5 -18.9 -15.15 -18.9 -10.2 -20.45 -5.25 -20.1 -3.25 -23.85 2.2 -26.35 5.5 -26.35 10.7 -28.15" fill="none" stroke="#000000" stroke-linecap="round" stroke-linejoin="round" stroke-width="0.05"/>
      <path d="M4.6 -26.55 Q9.8 -25.4 11.85 -17.75 8.55 -20.5 5.25 -19.0 8.55 -15.1 9.5 -7.75 7.7 -11.65 5.55 -12.35 1.95 -3.7 3.9 5.6 0.2 -2.95 1.0 -12.25 -1.15 -0.6 -8.5 9.4 -4.85 2.05 -5.65 -8.75 -9.1 1.55 -15.6 5.0 -12.3 2.35 -11.75 -7.0 -17.35 -0.6 -24.25 -1.0 -18.9 -2.95 -15.9 -7.85 -19.7 -9.1 -24.4 -7.0 -20.15 -9.45 -16.15 -12.4 -18.4 -14.05 -21.15 -12.9 -16.75 -16.25 -11.05 -16.75 -12.5 -18.9 -15.15 -18.9 -10.2 -20.45 -5.25 -20.1 -3.25 -23.85 2.2 -26.35 L4.6 -26.55" fill="#000000" fill-opacity="0.4" fill-rule="evenodd" stroke="none"/>
    </g>
    <radialGradient cx="0" cy="0" gradientTransform="matrix(0.0464, 0.0, 0.0, 0.0464, -0.25, 8.25)" gradientUnits="userSpaceOnUse" id="gradient8" r="819.2" spreadMethod="pad">
      <stop offset="0.0" stop-color="#3c332b"/>
      <stop offset="1.0" stop-color="#130a06"/>
    </radialGradient>
    <radialGradient cx="0" cy="0" gradientTransform="matrix(0.0017, 0.0165, -0.0472, 0.0048, -17.0, 16.0)" gradientUnits="userSpaceOnUse" id="gradient9" r="819.2" spreadMethod="pad">
      <stop offset="0.0" stop-color="#493e2e"/>
      <stop offset="1.0" stop-color="#1e2622"/>
    </radialGradient>
    <g id="sprite11" transform="matrix(1.0, 0.0, 0.0, 1.0, 12.65, 19.4)">
      <use ffdec:characterId="2597" height="38.3" transform="matrix(1.0, 0.0, 0.0, 1.0, -12.65, -19.4)" width="31.7" xlink:href="#sprite12"/>
    </g>
    <g id="sprite12" transform="matrix(1.0, 0.0, 0.0, 1.0, 13.0, 19.5)">
      <use ffdec:characterId="2596" height="38.3" transform="matrix(1.0, 0.0, 0.0, 1.0, -13.0, -19.5)" width="31.7" xlink:href="#shape6"/>
      <filter id="filter8">
        <feColorMatrix in="SourceGraphic" result="filterResult0" type="matrix" values="0 0 0 0 1.0,0 0 0 0 0.2,0 0 0 0 0.0,0 0 0 1 0"/>
        <feConvolveMatrix divisor="25.0" in="filterResult0" kernelMatrix="1 1 1 1 1 1 1 1 1 1 1 1 1 1 1 1 1 1 1 1 1 1 1 1 1" order="5 5" result="filterResult1"/>
        <feComposite in="SourceGraphic" in2="filterResult1" operator="over" result="filterResult2"/>
      </filter>
      <use ffdec:characterId="2581" filter="url(#filter8)" height="2.2" transform="matrix(1.0, 0.0, 0.0, 1.0, 9.05, -4.5)" width="3.35" xlink:href="#sprite13"/>
    </g>
    <g id="shape6" transform="matrix(1.0, 0.0, 0.0, 1.0, 13.0, 19.5)">
      <path d="M-10.8 1.25 L-13.0 -0.55 Q-10.15 -2.05 -7.15 -2.05 L-10.25 -3.4 Q-7.2 -9.0 -0.9 -12.05 2.45 -14.75 3.8 -19.5 7.0 -17.9 10.05 -15.3 12.35 -12.2 13.0 -8.75 L14.4 -7.45 14.55 -6.35 12.95 -5.45 Q11.85 -4.7 9.1 -5.45 7.8 -4.5 7.75 -2.85 8.8 0.7 8.3 2.55 L6.85 5.1 Q10.7 6.45 12.65 8.35 L12.85 8.7 12.85 8.75 Q16.25 9.75 18.05 6.3 L18.7 5.95 18.3 8.2 18.45 10.45 18.3 10.6 Q16.1 12.65 13.7 13.9 12.55 14.5 11.4 14.9 L7.95 18.8 Q-10.05 18.95 -10.8 1.25 M13.7 13.9 L12.05 14.15 11.5 14.8 13.7 13.9" fill="url(#gradient10)" fill-rule="evenodd" stroke="none"/>
      <path d="M12.95 -5.45 L12.7 -4.65 Q12.45 -2.75 13.5 -1.0 16.25 2.3 18.05 6.2 L18.05 6.3 Q16.25 9.75 12.85 8.75 L12.85 8.7 12.65 8.35 Q10.7 6.45 6.85 5.1 L8.3 2.55 Q8.8 0.7 7.75 -2.85 7.8 -4.5 9.1 -5.45 11.85 -4.7 12.95 -5.45" fill="url(#gradient11)" fill-rule="evenodd" stroke="none"/>
      <path d="M-10.8 1.25 L-13.0 -0.55 Q-10.15 -2.05 -7.15 -2.05 L-10.25 -3.4 Q-7.2 -9.0 -0.9 -12.05 2.45 -14.75 3.8 -19.5 7.0 -17.9 10.05 -15.3 12.35 -12.2 13.0 -8.75 L14.4 -7.45 14.55 -6.35 12.95 -5.45 12.7 -4.65 Q12.45 -2.75 13.5 -1.0 16.25 2.3 18.05 6.2 L18.05 6.3 18.7 5.95 18.3 8.2 18.45 10.45 18.3 10.6 Q16.1 12.65 13.7 13.9 12.55 14.5 11.4 14.9 L7.95 18.8 M12.95 -5.45 Q11.85 -4.7 9.1 -5.45 7.8 -4.5 7.75 -2.85 8.8 0.7 8.3 2.55 L6.85 5.1 Q10.7 6.45 12.65 8.35 L12.85 8.7 12.85 8.75 Q16.25 9.75 18.05 6.3" fill="none" stroke="#000000" stroke-linecap="round" stroke-linejoin="round" stroke-width="0.05"/>
      <path d="M2.3 -13.15 L6.8 -14.35 Q2.0 -11.95 -0.5 -8.05 3.35 -10.0 7.4 -8.7 1.3 -7.0 -1.65 -1.75 3.45 2.6 3.25 9.2 1.35 4.45 -3.4 2.2 -5.9 5.6 -5.05 8.6 -7.25 5.7 -6.0 2.95 -8.5 3.8 -10.1 6.55 -10.7 4.1 -10.8 1.25 L-13.0 -0.55 Q-10.15 -2.05 -7.15 -2.05 L-10.25 -3.4 Q-7.2 -9.0 -0.9 -12.05 2.05 -14.45 3.5 -18.45 L2.3 -13.15 M7.75 -2.85 Q7.8 -4.5 9.1 -5.45 11.85 -4.7 12.95 -5.45 L12.7 -4.65 Q12.45 -2.85 13.4 -1.15 11.7 -1.9 8.45 1.0 8.4 -0.6 7.75 -2.85 M14.85 0.75 L16.65 3.45 18.05 6.2 18.05 6.3 17.45 7.25 15.5 3.5 14.55 3.55 14.3 2.5 14.85 0.75 M9.6 14.6 L7.1 13.95 17.7 11.15 Q15.75 12.8 13.7 13.9 12.55 14.5 11.4 14.9 L8.15 18.6 9.6 14.6" fill="#000000" fill-opacity="0.4" fill-rule="evenodd" stroke="none"/>
    </g>
    <radialGradient cx="0" cy="0" gradientTransform="matrix(0.0242, 0.0, 0.0, 0.0242, 2.85, -0.35)" gradientUnits="userSpaceOnUse" id="gradient10" r="819.2" spreadMethod="pad">
      <stop offset="0.0" stop-color="#3c332b"/>
      <stop offset="1.0" stop-color="#130a06"/>
    </radialGradient>
    <radialGradient cx="0" cy="0" gradientTransform="matrix(0.0169, 0.0, 0.0, 0.0169, 13.75, 7.6)" gradientUnits="userSpaceOnUse" id="gradient11" r="819.2" spreadMethod="pad">
      <stop offset="0.0" stop-color="#493e2e"/>
      <stop offset="1.0" stop-color="#1e2622"/>
    </radialGradient>
    <g id="sprite13" transform="matrix(1.0, 0.0, 0.0, 1.0, 1.65, 1.1)">
      <use ffdec:characterId="2580" height="2.2" transform="matrix(1.0, 0.0, 0.0, 1.0, -1.65, -1.1)" width="3.35" xlink:href="#shape7"/>
    </g>
    <g id="shape7" transform="matrix(1.0, 0.0, 0.0, 1.0, 1.65, 1.1)">
      <path d="M-1.45 0.6 L-1.65 -0.75 1.7 -1.1 1.5 1.1 -1.45 0.6" fill="#ffcc00" fill-rule="evenodd" stroke="none"/>
    </g>
    <g id="sprite14" transform="matrix(1.0, 0.0, 0.0, 1.0, 13.1, 6.05)">
      <use ffdec:characterId="164" height="6.05" transform="matrix(1.0, 0.0, 0.0, 1.0, -13.1, -3.0)" width="6.05" xlink:href="#sprite15"/>
      <use ffdec:characterId="164" height="6.05" transform="matrix(1.0, 0.0, 0.0, 1.0, 9.4, -3.0)" width="6.05" xlink:href="#sprite15"/>
      <use ffdec:characterId="164" height="6.05" transform="matrix(2.0, 0.0, 0.0, 2.0, -6.45, -6.05)" width="6.05" xlink:href="#sprite15"/>
      <use ffdec:characterId="164" height="6.05" transform="matrix(0.4, 0.0, 0.0, 0.4, -0.8, -1.17)" width="6.05" xlink:href="#sprite15"/>
    </g>
    <g id="sprite15" transform="matrix(1.0, 0.0, 0.0, 1.0, 3.0, 3.05)">
      <use ffdec:characterId="163" height="6.05" transform="matrix(1.0, 0.0, 0.0, 1.0, -3.0, -3.05)" width="6.05" xlink:href="#shape8"/>
    </g>
    <g id="shape8" transform="matrix(1.0, 0.0, 0.0, 1.0, 3.0, 3.05)">
      <path d="M-2.3 -1.95 L-1.9 -2.35 -0.25 -0.65 -0.25 -3.05 0.3 -3.05 0.3 -0.7 1.95 -2.35 2.35 -1.95 0.7 -0.3 3.05 -0.3 3.05 0.25 0.7 0.25 2.35 1.95 1.95 2.35 0.3 0.7 0.3 3.0 -0.25 3.0 -0.25 0.65 -1.9 2.35 -2.3 1.95 -0.65 0.25 -3.0 0.25 -3.0 -0.3 -0.65 -0.3 -2.3 -1.95" fill="#ffffff" fill-rule="evenodd" stroke="none"/>
    </g>
  </defs>
</svg>
