<?xml version="1.0" encoding="UTF-8" standalone="no"?>
<svg xmlns:ffdec="https://www.free-decompiler.com/flash" xmlns:xlink="http://www.w3.org/1999/xlink" ffdec:objectType="frame" height="335.1px" width="425.5px" xmlns="http://www.w3.org/2000/svg">
  <g transform="matrix(2.0, 0.0, 0.0, 2.0, 254.2, 187.0)">
    <filter id="filter0">
      <feColorMatrix in="SourceGraphic" result="filterResult0" type="matrix" values="0 0 0 0 0.0,0 0 0 0 0.8,0 0 0 0 0.0,0 0 0 1 0"/>
      <feConvolveMatrix divisor="169.0" in="filterResult0" kernelMatrix="1 1 1 1 1 1 1 1 1 1 1 1 1 1 1 1 1 1 1 1 1 1 1 1 1 1 1 1 1 1 1 1 1 1 1 1 1 1 1 1 1 1 1 1 1 1 1 1 1 1 1 1 1 1 1 1 1 1 1 1 1 1 1 1 1 1 1 1 1 1 1 1 1 1 1 1 1 1 1 1 1 1 1 1 1 1 1 1 1 1 1 1 1 1 1 1 1 1 1 1 1 1 1 1 1 1 1 1 1 1 1 1 1 1 1 1 1 1 1 1 1 1 1 1 1 1 1 1 1 1 1 1 1 1 1 1 1 1 1 1 1 1 1 1 1 1 1 1 1 1 1 1 1 1 1 1 1 1 1 1 1 1 1 1 1 1 1 1 1" order="13 13" result="filterResult1"/>
      <feComposite in="SourceGraphic" in2="filterResult1" operator="over" result="filterResult2"/>
    </filter>
    <use ffdec:characterId="1269" filter="url(#filter0)" height="167.55" transform="matrix(1.0, 0.0, 0.0, 1.0, -127.1, -93.5)" width="212.75" xlink:href="#sprite0"/>
  </g>
  <defs>
    <g id="sprite0" transform="matrix(1.0, 0.0, 0.0, 1.0, 127.1, 93.5)">
      <use ffdec:characterId="1259" height="33.3" transform="matrix(1.0, 0.0, 0.0, 1.0, -28.7, -28.45)" width="37.5" xlink:href="#shape0"/>
      <use ffdec:characterId="105" height="45.1" transform="matrix(0.4165, -0.2954, 0.5776, 0.8144, -88.2706, 37.3328)" width="355.1" xlink:href="#shape1"/>
    </g>
    <g id="shape0" transform="matrix(1.0, 0.0, 0.0, 1.0, 28.7, 28.45)">
      <path d="M8.65 -9.9 Q8.35 4.85 5.6 4.85 0.2 4.85 -9.1 -1.7 -9.1 -3.25 -7.35 -3.85 L-28.7 -17.85 Q-28.7 -20.55 -25.85 -20.55 -24.45 -20.55 -15.4 -15.85 -4.5 -10.2 -1.85 -9.1 -2.2 -11.2 -3.9 -15.85 -3.9 -23.4 -1.1 -23.4 0.05 -23.4 2.95 -15.2 3.75 -17.25 5.4 -17.25 9.55 -17.25 8.65 -9.9 M-10.85 -28.45 Q-8.3 -28.45 -8.25 -24.95 -8.25 -24.5 -8.8 -23.6 -9.4 -22.6 -10.0 -22.6 -14.05 -22.6 -13.3 -25.35 -13.3 -28.45 -10.85 -28.45" fill="#cfff87" fill-rule="evenodd" stroke="none"/>
    </g>
    <g id="shape1" transform="matrix(1.0, 0.0, 0.0, 1.0, 177.55, 22.55)">
      <path d="M125.55 -15.95 Q177.55 -9.35 177.55 0.0 177.55 9.35 125.55 15.95 73.6 22.55 0.0 22.55 -73.6 22.55 -125.55 15.95 -177.55 9.35 -177.55 0.0 -177.55 -9.35 -125.55 -15.95 -73.6 -22.55 0.0 -22.55 73.6 -22.55 125.55 -15.95" fill="url(#gradient0)" fill-rule="evenodd" stroke="none"/>
    </g>
    <radialGradient cx="0" cy="0" gradientTransform="matrix(0.2204, 0.0, 0.0, 0.028, -0.05, 0.0)" gradientUnits="userSpaceOnUse" id="gradient0" r="819.2" spreadMethod="pad">
      <stop offset="0.06274509803921569" stop-color="#cfff87"/>
      <stop offset="0.12941176470588237" stop-color="#cfff87" stop-opacity="0.8156863"/>
      <stop offset="0.21176470588235294" stop-color="#cfff87" stop-opacity="0.7647059"/>
      <stop offset="0.44313725490196076" stop-color="#cfff87" stop-opacity="0.21176471"/>
      <stop offset="0.9098039215686274" stop-color="#cfff87" stop-opacity="0.0"/>
    </radialGradient>
  </defs>
</svg>
