<?xml version="1.0" encoding="UTF-8" standalone="no"?>
<svg xmlns:ffdec="https://www.free-decompiler.com/flash" xmlns:xlink="http://www.w3.org/1999/xlink" ffdec:objectType="frame" height="148.1px" width="29.4px" xmlns="http://www.w3.org/2000/svg">
  <g transform="matrix(2.0, 0.0, 0.0, 2.0, 14.1, 96.0)">
    <use ffdec:characterId="1908" height="73.0" transform="matrix(1.0, 0.0, 0.0, 1.0, -7.05, -46.95)" width="14.7" xlink:href="#shape0"/>
    <use ffdec:characterId="105" height="45.1" transform="matrix(-0.0019, 0.0425, -0.2015, -0.0088, 4.1252, -47.5905)" width="355.1" xlink:href="#shape1"/>
    <use ffdec:characterId="105" height="45.1" transform="matrix(-0.0038, 0.0788, -0.2015, -0.0099, 6.3764, -42.7653)" width="355.1" xlink:href="#shape1"/>
    <use ffdec:characterId="105" height="45.1" transform="matrix(-0.0019, 0.0425, -0.2015, -0.0088, 2.9252, -4.3405)" width="355.1" xlink:href="#shape1"/>
    <use ffdec:characterId="105" height="45.1" transform="matrix(-0.0019, 0.0425, -0.2015, -0.0088, 7.0752, -2.3405)" width="355.1" xlink:href="#shape1"/>
  </g>
  <defs>
    <g id="shape0" transform="matrix(1.0, 0.0, 0.0, 1.0, 7.05, 46.95)">
      <path d="M1.4 25.75 L-1.75 25.6 -2.75 24.9 Q-1.15 18.0 -2.75 9.0 L2.7 9.0 Q1.4 16.9 2.7 24.9 L1.4 25.75" fill="url(#gradient0)" fill-rule="evenodd" stroke="none"/>
      <path d="M1.4 25.75 L-1.75 25.6 -2.75 24.9 Q-1.15 18.0 -2.75 9.0 L2.7 9.0 Q1.4 16.9 2.7 24.9 L1.4 25.75 Z" fill="none" stroke="#000000" stroke-linecap="round" stroke-linejoin="round" stroke-width="0.05"/>
      <path d="M4.6 -40.75 L7.25 -38.5 Q4.1 -15.5 6.1 8.4 L4.6 7.95 3.8 7.7 Q2.2 -15.15 4.6 -40.75" fill="url(#gradient1)" fill-rule="evenodd" stroke="none"/>
      <path d="M1.35 7.05 Q-1.8 6.0 -5.0 5.45 0.3 -17.35 -2.65 -46.95 L4.6 -40.75 Q2.2 -15.15 3.8 7.7 L1.35 7.05" fill="url(#gradient2)" fill-rule="evenodd" stroke="none"/>
      <path d="M6.1 8.4 L7.6 8.9 Q7.9 12.05 7.0 12.7 6.85 13.6 5.05 12.35 -0.2 8.85 -5.9 8.95 -7.45 7.1 -6.9 5.45 -2.7 6.0 1.35 7.05 L3.8 7.7 4.6 7.95 6.1 8.4" fill="url(#gradient3)" fill-rule="evenodd" stroke="none"/>
      <path d="M4.6 -40.75 L7.25 -38.5 Q4.1 -15.5 6.1 8.4 L7.6 8.9 Q7.9 12.05 7.0 12.7 6.85 13.6 5.05 12.35 -0.2 8.85 -5.9 8.95 -7.45 7.1 -6.9 5.45 -2.7 6.0 1.35 7.05 L3.8 7.7 4.6 7.95 6.1 8.4 M-5.0 5.45 Q0.3 -17.35 -2.65 -46.95 L4.6 -40.75" fill="none" stroke="#000000" stroke-linecap="round" stroke-linejoin="round" stroke-width="0.05"/>
      <path d="M4.6 -40.75 Q2.2 -15.15 3.8 7.7" fill="none" stroke="#000000" stroke-linecap="round" stroke-linejoin="round" stroke-width="0.05"/>
      <path d="M1.3 -31.5 L1.3 -26.25 0.8 -26.25 0.8 -31.5 1.3 -31.5 M0.3 -39.0 L-0.95 -39.0 -0.95 -41.25 0.3 -41.25 0.3 -39.0 M-1.45 2.25 L-1.45 4.25 -2.7 4.25 -2.7 2.25 -1.45 2.25 M3.05 4.25 L3.05 6.25 1.3 6.25 1.3 4.25 3.05 4.25" fill="#00ffff" fill-rule="evenodd" stroke="none"/>
    </g>
    <radialGradient cx="0" cy="0" gradientTransform="matrix(0.0087, 0.0, 0.0, 0.0161, -1.5, 19.6)" gradientUnits="userSpaceOnUse" id="gradient0" r="819.2" spreadMethod="pad">
      <stop offset="0.0" stop-color="#2b2b2b"/>
      <stop offset="1.0" stop-color="#07070a"/>
    </radialGradient>
    <radialGradient cx="0" cy="0" gradientTransform="matrix(0.0361, 0.0, 0.0, 0.0361, 4.35, -13.9)" gradientUnits="userSpaceOnUse" id="gradient1" r="819.2" spreadMethod="pad">
      <stop offset="0.0" stop-color="#aeaeae"/>
      <stop offset="1.0" stop-color="#333333"/>
    </radialGradient>
    <radialGradient cx="0" cy="0" gradientTransform="matrix(0.0606, -0.0014, 0.0014, 0.0606, 0.15, -33.25)" gradientUnits="userSpaceOnUse" id="gradient2" r="819.2" spreadMethod="pad">
      <stop offset="0.0" stop-color="#203346"/>
      <stop offset="1.0" stop-color="#1f1625"/>
    </radialGradient>
    <radialGradient cx="0" cy="0" gradientTransform="matrix(0.015, 0.0, 0.0, 0.0115, 1.05, 7.6)" gradientUnits="userSpaceOnUse" id="gradient3" r="819.2" spreadMethod="pad">
      <stop offset="0.0" stop-color="#3c3c3c"/>
      <stop offset="1.0" stop-color="#131317"/>
    </radialGradient>
    <g id="shape1" transform="matrix(1.0, 0.0, 0.0, 1.0, 177.55, 22.55)">
      <path d="M125.55 -15.95 Q177.55 -9.35 177.55 0.0 177.55 9.35 125.55 15.95 73.6 22.55 0.0 22.55 -73.6 22.55 -125.55 15.95 -177.55 9.35 -177.55 0.0 -177.55 -9.35 -125.55 -15.95 -73.6 -22.55 0.0 -22.55 73.6 -22.55 125.55 -15.95" fill="url(#gradient4)" fill-rule="evenodd" stroke="none"/>
    </g>
    <radialGradient cx="0" cy="0" gradientTransform="matrix(0.2204, 0.0, 0.0, 0.028, -0.05, 0.0)" gradientUnits="userSpaceOnUse" id="gradient4" r="819.2" spreadMethod="pad">
      <stop offset="0.06274509803921569" stop-color="#65fefe" stop-opacity="0.49803922"/>
      <stop offset="0.12941176470588237" stop-color="#65fefe" stop-opacity="0.40784314"/>
      <stop offset="0.21176470588235294" stop-color="#65fefe" stop-opacity="0.38039216"/>
      <stop offset="0.44313725490196076" stop-color="#65fefe" stop-opacity="0.105882354"/>
      <stop offset="0.9098039215686274" stop-color="#65fefe" stop-opacity="0.0"/>
    </radialGradient>
  </defs>
</svg>
