<?xml version="1.0" encoding="UTF-8" standalone="no"?>
<svg xmlns:ffdec="https://www.free-decompiler.com/flash" xmlns:xlink="http://www.w3.org/1999/xlink" ffdec:objectType="frame" height="308.8px" width="1116.6px" xmlns="http://www.w3.org/2000/svg">
  <g transform="matrix(2.0, 0.0, 0.0, 2.0, 515.2, 115.1)">
    <use ffdec:characterId="144" height="19.95" id="shadower" transform="matrix(1.6298, 0.3049, -0.0296, 1.5616, -37.8735, 3.6038)" width="65.05" xlink:href="#sprite0"/>
    <use ffdec:characterId="2468" height="40.6" transform="matrix(1.0, 0.0, 0.0, 1.0, -19.75, -4.75)" width="74.7" xlink:href="#sprite1"/>
    <filter id="filter0">
      <feFlood flood-color="#ff3366" flood-opacity="1.0" result="filterResult0"/>
      <feComposite in="filterResult0" in2="SourceGraphic" operator="out" result="filterResult1"/>
      <feConvolveMatrix divisor="25.0" in="filterResult1" kernelMatrix="1 1 1 1 1 1 1 1 1 1 1 1 1 1 1 1 1 1 1 1 1 1 1 1 1" order="5 5" result="filterResult2"/>
      <feComposite in="filterResult2" in2="SourceGraphic" operator="in" result="filterResult3"/>
      <feComposite in="filterResult3" in2="SourceGraphic" operator="over" result="filterResult4"/>
      <feColorMatrix in="filterResult4" result="filterResult5" type="matrix" values="0 0 0 0 1.0,0 0 0 0 0.2,0 0 0 0 0.4,0 0 0 1 0"/>
      <feConvolveMatrix divisor="81.0" in="filterResult5" kernelMatrix="1 1 1 1 1 1 1 1 1 1 1 1 1 1 1 1 1 1 1 1 1 1 1 1 1 1 1 1 1 1 1 1 1 1 1 1 1 1 1 1 1 1 1 1 1 1 1 1 1 1 1 1 1 1 1 1 1 1 1 1 1 1 1 1 1 1 1 1 1 1 1 1 1 1 1 1 1 1 1 1 1" order="9 9" result="filterResult6"/>
      <feComposite in="filterResult4" in2="filterResult6" operator="over" result="filterResult7"/>
    </filter>
    <use ffdec:characterId="884" filter="url(#filter0)" height="130.05" transform="matrix(0.7096, 0.0, 0.0, 0.7096, -38.0056, -46.0631)" width="162.75" xlink:href="#sprite2"/>
  </g>
  <defs>
    <g id="sprite0" transform="matrix(1.0, 0.0, 0.0, 1.0, 32.5, 9.95)">
      <use ffdec:characterId="143" height="19.95" transform="matrix(1.0, 0.0, 0.0, 1.0, -32.5, -9.95)" width="65.05" xlink:href="#shape0"/>
    </g>
    <g id="shape0" transform="matrix(1.0, 0.0, 0.0, 1.0, 32.5, 9.95)">
      <path d="M1.45 8.25 Q-12.05 10.55 -22.0 9.8 -31.85 9.0 -32.45 5.6 -33.05 2.2 -24.0 -1.85 -14.9 -5.9 -1.4 -8.2 12.1 -10.55 22.0 -9.75 31.95 -9.0 32.5 -5.6 33.1 -2.2 24.0 1.85 14.95 5.9 1.45 8.25" fill="url(#gradient0)" fill-rule="evenodd" stroke="none"/>
    </g>
    <radialGradient cx="0" cy="0" gradientTransform="matrix(0.0432, -0.0074, 0.0018, 0.0106, 0.05, 0.0)" gradientUnits="userSpaceOnUse" id="gradient0" r="819.2" spreadMethod="pad">
      <stop offset="0.3333333333333333" stop-color="#000000" stop-opacity="0.68235296"/>
      <stop offset="0.8627450980392157" stop-color="#000000" stop-opacity="0.0"/>
      <stop offset="1.0" stop-color="#000000" stop-opacity="0.0"/>
    </radialGradient>
    <g id="sprite1" transform="matrix(1.0, 0.0, 0.0, 1.0, 34.35, 16.3)">
      <use ffdec:characterId="2465" height="40.6" transform="matrix(1.0, 0.0, 0.0, 1.0, -34.35, -16.3)" width="74.7" xlink:href="#shape1"/>
    </g>
    <g id="shape1" transform="matrix(1.0, 0.0, 0.0, 1.0, 34.35, 16.3)">
      <path d="M9.9 -6.95 L9.8 -8.0 12.0 -8.05 12.15 -6.25 12.35 -4.7 10.2 -4.7 9.9 -6.95 M1.35 -10.1 L2.55 -12.05 4.4 -10.75 3.6 -9.25 2.8 -7.85 0.75 -9.0 1.35 -10.1 M-2.4 2.35 Q-2.7 -0.15 -2.15 -2.65 L-1.2 -5.15 1.8 -2.85 1.2 -1.35 Q0.8 0.5 1.15 3.0 L5.6 4.45 Q7.55 3.05 8.45 1.55 L9.2 -0.45 12.0 -0.6 11.0 2.6 Q10.15 4.9 8.65 6.9 L7.15 8.6 4.95 8.45 3.65 12.85 -1.75 11.8 -0.8 6.55 -2.15 5.25 -2.4 2.35" fill="#53423e" fill-rule="evenodd" stroke="none"/>
      <path d="M12.15 -6.25 L20.15 -4.0 20.7 -0.95 20.55 -0.15 20.75 -0.15 20.8 3.6 Q20.65 5.45 20.0 6.85 L18.85 8.75 18.3 9.25 16.4 8.9 13.55 8.25 8.65 6.9 Q10.15 4.9 11.0 2.6 L12.0 -0.6 9.2 -0.45 8.45 1.55 Q7.55 3.05 5.6 4.45 L1.15 3.0 Q0.8 0.5 1.2 -1.35 L1.8 -2.85 -1.2 -5.15 -2.15 -2.65 Q-2.7 -0.15 -2.4 2.35 L-6.7 -0.15 -10.35 -2.65 -10.25 -5.7 -10.25 -5.9 -10.0 -6.95 Q-9.6 -8.75 -8.6 -10.35 L-8.25 -10.95 -7.5 -12.0 -6.15 -13.5 Q-2.4 -11.65 1.35 -10.1 L0.75 -9.0 2.8 -7.85 3.6 -9.25 9.9 -6.95 10.2 -4.7 12.35 -4.7 12.15 -6.25 M8.0 -5.95 L4.8 -6.8 3.0 0.7 6.35 1.35 8.0 -5.95" fill="url(#gradient1)" fill-rule="evenodd" stroke="none"/>
      <path d="M20.7 -0.95 L23.15 -0.8 Q23.6 1.65 23.45 4.1 L20.8 3.6 20.75 -0.15 20.7 -0.95" fill="url(#gradient2)" fill-rule="evenodd" stroke="none"/>
      <path d="M23.15 -0.8 L22.35 -4.25 25.15 -4.45 Q27.7 -0.05 27.7 3.6 L27.7 4.1 28.05 4.15 27.95 9.45 24.7 12.4 21.75 12.8 21.35 18.25 19.95 18.45 19.5 18.45 19.5 17.45 19.5 11.6 22.1 10.05 22.35 9.95 23.0 7.8 23.45 4.1 Q23.6 1.65 23.15 -0.8" fill="url(#gradient3)" fill-rule="evenodd" stroke="none"/>
      <path d="M39.25 11.7 L39.85 12.0 40.25 14.65 28.7 18.7 28.6 18.75 28.05 14.6 32.9 14.05 39.25 11.7" fill="url(#gradient4)" fill-rule="evenodd" stroke="none"/>
      <path d="M32.7 5.4 L34.65 9.5 39.25 11.7 32.9 14.05 28.05 14.6 28.05 14.5 31.5 13.0 32.7 5.4" fill="url(#gradient5)" fill-rule="evenodd" stroke="none"/>
      <path d="M28.05 4.15 L32.5 4.9 32.7 5.4 31.5 13.0 28.05 14.5 27.6 14.65 27.5 14.7 27.45 14.75 24.9 17.8 21.35 18.25 21.75 12.8 24.7 12.4 27.95 9.45 28.05 4.15" fill="url(#gradient6)" fill-rule="evenodd" stroke="none"/>
      <path d="M20.0 6.85 Q20.65 5.45 20.8 3.6 L23.45 4.1 23.0 7.8 20.0 6.85 M-10.25 -5.7 L-12.8 -5.35 -12.35 -7.05 -10.0 -6.95 -10.25 -5.9 -10.25 -5.7" fill="#485a62" fill-rule="evenodd" stroke="none"/>
      <path d="M18.85 8.75 L20.0 6.85 23.0 7.8 22.35 9.95 22.1 10.05 21.9 9.7 19.15 9.05 18.85 8.75" fill="url(#gradient7)" fill-rule="evenodd" stroke="none"/>
      <path d="M-1.75 11.8 L3.65 12.85 7.35 11.35 9.45 13.45 15.95 12.8 16.4 8.9 18.3 9.25 18.85 8.75 19.15 9.05 21.9 9.7 22.1 10.05 19.5 11.6 19.5 17.45 -9.6 17.45 -10.0 17.45 -10.45 15.5 -8.85 13.0 -6.75 13.0 -3.6 8.65 -1.75 11.8" fill="url(#gradient8)" fill-rule="evenodd" stroke="none"/>
      <path d="M28.05 14.5 L28.05 14.6 27.6 14.65 28.05 14.5" fill="#483a37" fill-rule="evenodd" stroke="none"/>
      <path d="M28.65 18.95 L27.95 22.05 19.5 23.7 19.5 21.6 19.5 18.45 19.95 18.45 21.35 18.25 24.9 17.8 27.45 14.75 27.5 14.7 27.6 14.65 28.05 14.6 28.6 18.75 28.65 18.95" fill="url(#gradient9)" fill-rule="evenodd" stroke="none"/>
      <path d="M28.7 18.7 L28.65 18.95 28.6 18.75 28.7 18.7" fill="#b5a97d" fill-rule="evenodd" stroke="none"/>
      <path d="M19.5 21.6 L19.15 21.6 -9.1 21.6 -9.6 19.7 -9.6 17.45 19.5 17.45 19.5 18.45 19.5 21.6" fill="url(#gradient10)" fill-rule="evenodd" stroke="none"/>
      <path d="M-16.2 -12.05 Q-14.3 -14.55 -11.5 -16.2 L-8.35 -15.15 -9.75 -13.05 -11.5 -9.6 Q-14.2 -9.3 -16.2 -12.05" fill="url(#gradient11)" fill-rule="evenodd" stroke="none"/>
      <path d="M-19.5 -4.55 Q-18.55 -8.95 -16.2 -12.05 -14.2 -9.3 -11.5 -9.6 L-12.35 -7.05 -12.8 -5.35 -13.05 -3.7 Q-16.25 -2.65 -19.5 -4.55" fill="url(#gradient12)" fill-rule="evenodd" stroke="none"/>
      <path d="M-9.75 -13.05 L-7.5 -12.0 -8.25 -10.95 -8.3 -10.9 -8.4 -10.75 -8.45 -10.65 -8.6 -10.35 Q-9.6 -8.75 -10.0 -6.95 L-12.35 -7.05 -11.5 -9.6 -9.75 -13.05" fill="url(#gradient13)" fill-rule="evenodd" stroke="none"/>
      <path d="M-22.0 2.15 L-19.85 -1.75 -19.5 -4.55 Q-16.25 -2.65 -13.05 -3.7 L-13.1 -0.5 -8.55 2.1 -7.15 2.85 -7.15 3.15 -10.8 3.85 Q-20.3 5.4 -22.0 2.15" fill="url(#gradient14)" fill-rule="evenodd" stroke="none"/>
      <path d="M-8.55 2.1 L-13.1 -0.5 -13.05 -3.7 -12.8 -5.35 -10.25 -5.7 -10.35 -2.65 -6.7 -0.15 -8.55 2.1" fill="url(#gradient15)" fill-rule="evenodd" stroke="none"/>
      <path d="M-8.25 -10.95 L-8.6 -10.35 -8.45 -10.65 -8.4 -10.75 -8.25 -10.95" fill="#999999" fill-rule="evenodd" stroke="none"/>
      <path d="M-7.15 3.15 L-7.15 10.35 -8.85 13.0 -10.45 15.5 -10.0 17.45 -9.6 19.7 -13.4 20.2 -13.75 14.9 -10.15 9.9 -10.8 3.85 -7.15 3.15" fill="url(#gradient16)" fill-rule="evenodd" stroke="none"/>
      <path d="M-24.8 6.05 Q-23.25 4.15 -22.0 2.15 -20.3 5.4 -10.8 3.85 L-10.15 9.9 -13.75 14.9 -13.4 20.2 Q-18.35 20.4 -22.05 18.45 L-21.85 17.4 -16.9 9.45 -22.55 8.75 -22.85 8.7 -24.8 6.05" fill="url(#gradient17)" fill-rule="evenodd" stroke="none"/>
      <path d="M-9.6 17.45 L-9.6 19.7 -10.0 17.45 -9.6 17.45" fill="#554a33" fill-rule="evenodd" stroke="none"/>
      <path d="M-9.1 21.6 L-8.15 24.1 -23.45 23.3 -24.5 20.3 -23.45 20.65 -22.45 16.95 -22.2 18.05 -22.05 18.45 Q-18.35 20.4 -13.4 20.2 L-9.6 19.7 -9.1 21.6" fill="url(#gradient18)" fill-rule="evenodd" stroke="none"/>
      <path d="M-33.25 14.0 Q-28.35 10.45 -24.8 6.05 L-22.85 8.7 -22.55 8.75 -26.7 14.1 Q-29.45 13.45 -33.25 14.0" fill="url(#gradient19)" fill-rule="evenodd" stroke="none"/>
      <path d="M-24.5 20.3 Q-28.85 16.75 -34.25 17.25 L-33.35 14.1 -33.25 14.0 Q-29.45 13.45 -26.7 14.1 -24.35 14.6 -22.7 15.95 L-22.45 16.95 -23.45 20.65 -24.5 20.3" fill="url(#gradient20)" fill-rule="evenodd" stroke="none"/>
      <path d="M-21.85 17.4 L-22.05 18.45 -22.2 18.05 -21.85 17.4" fill="#4f4d42" fill-rule="evenodd" stroke="none"/>
      <path d="M-21.85 17.4 L-22.2 18.05 -22.45 16.95 -21.85 17.4" fill="#3f3230" fill-rule="evenodd" stroke="none"/>
      <path d="M-21.85 17.4 L-22.45 16.95 -22.7 15.95 Q-24.35 14.6 -26.7 14.1 L-22.55 8.75 -16.9 9.45 -21.85 17.4" fill="url(#gradient21)" fill-rule="evenodd" stroke="none"/>
      <path d="M8.0 -5.95 L6.35 1.35 3.0 0.7 4.8 -6.8 8.0 -5.95" fill="#5c0101" fill-rule="evenodd" stroke="none"/>
      <path d="M9.9 -6.95 L9.8 -8.0 12.0 -8.05 12.15 -6.25 20.15 -4.0 20.7 -0.95 23.15 -0.8 22.35 -4.25 25.15 -4.45 Q27.7 -0.05 27.7 3.6 L28.05 4.15 32.5 4.9 32.7 5.4 34.65 9.5 39.25 11.7 39.85 12.0 40.25 14.65 28.7 18.7 28.65 18.95 27.95 22.05 19.5 23.7 19.5 21.6 19.5 18.45 19.5 17.45 -9.6 17.45 -10.0 17.45 -10.45 15.5 -8.85 13.0 -6.75 13.0 -3.6 8.65 -1.75 11.8 3.65 12.85 4.95 8.45 7.15 8.6 8.65 6.9 13.55 8.25 16.4 8.9 18.3 9.25 18.85 8.75 20.0 6.85 Q20.65 5.45 20.8 3.6 L20.75 -0.15 20.55 -0.15 M19.15 21.6 L-9.1 21.6 -8.15 24.1 -23.45 23.3 -24.5 20.3 Q-28.85 16.75 -34.25 17.25 L-33.35 14.1 -33.25 14.0 Q-28.35 10.45 -24.8 6.05 -23.25 4.15 -22.0 2.15 L-19.85 -1.75 -19.5 -4.55 Q-18.55 -8.95 -16.2 -12.05 -14.3 -14.55 -11.5 -16.2 L-8.35 -15.15 -9.75 -13.05 -7.5 -12.0 -6.15 -13.5 Q-2.4 -11.65 1.35 -10.1 L2.55 -12.05 4.4 -10.75 3.6 -9.25 9.9 -6.95 10.2 -4.7 12.35 -4.7 12.15 -6.25 M1.35 -10.1 L0.75 -9.0 2.8 -7.85 3.6 -9.25 M8.65 6.9 Q10.15 4.9 11.0 2.6 L12.0 -0.6 9.2 -0.45 8.45 1.55 Q7.55 3.05 5.6 4.45 L1.15 3.0 Q0.8 0.5 1.2 -1.35 L1.8 -2.85 -1.2 -5.15 -2.15 -2.65 Q-2.7 -0.15 -2.4 2.35 L-2.15 5.25 -0.8 6.55 -1.75 11.8 M20.7 -0.95 L20.75 -0.15 M8.0 -5.95 L6.35 1.35 3.0 0.7 4.8 -6.8 8.0 -5.95 M28.05 4.15 L27.7 4.1 27.7 3.6 M20.8 3.6 L23.45 4.1 Q23.6 1.65 23.15 -0.8 M22.1 10.05 L22.35 9.95 23.0 7.8 20.0 6.85 M23.45 4.1 L23.0 7.8 M28.05 14.5 L28.05 14.6 32.9 14.05 39.25 11.7 M28.05 14.6 L27.6 14.65 27.5 14.7 27.45 14.75 24.9 17.8 21.35 18.25 19.95 18.45 M28.6 18.75 L28.65 18.95 M19.15 9.05 L21.9 9.7 M-9.6 19.7 L-9.1 21.6 M16.4 8.9 L15.95 12.8 9.45 13.45 7.35 11.35 3.65 12.85 M22.1 10.05 L19.5 11.6 19.5 17.45 M-12.35 -7.05 L-11.5 -9.6 -9.75 -13.05 M-13.05 -3.7 L-13.1 -0.5 -8.55 2.1 -6.7 -0.15 -10.35 -2.65 -10.25 -5.7 -12.8 -5.35 -13.05 -3.7 M-10.25 -5.7 L-10.25 -5.9 -10.0 -6.95 -12.35 -7.05 -12.8 -5.35 M-8.6 -10.35 Q-9.6 -8.75 -10.0 -6.95 M-8.6 -10.35 L-8.45 -10.65 -8.4 -10.75 -8.3 -10.9 -8.25 -10.95 -7.5 -12.0 M-8.85 13.0 L-7.15 10.35 -7.15 3.15 -7.15 2.85 -8.55 2.1 M-13.4 20.2 L-9.6 19.7 -10.0 17.45 M-22.55 8.75 L-22.85 8.7 M-22.2 18.05 L-22.05 18.45 Q-18.35 20.4 -13.4 20.2 M-26.7 14.1 Q-24.35 14.6 -22.7 15.95 L-22.45 16.95 -22.2 18.05 M-26.7 14.1 Q-29.45 13.45 -33.25 14.0 M-2.4 2.35 L-6.7 -0.15" fill="none" stroke="#000000" stroke-linecap="round" stroke-linejoin="round" stroke-width="0.25"/>
    </g>
    <radialGradient cx="0" cy="0" gradientTransform="matrix(-0.0025, 0.0109, 0.0317, 0.0082, 8.3, -6.05)" gradientUnits="userSpaceOnUse" id="gradient1" r="819.2" spreadMethod="pad">
      <stop offset="0.058823529411764705" stop-color="#ffffff"/>
      <stop offset="0.25098039215686274" stop-color="#a6a6a6"/>
      <stop offset="0.7490196078431373" stop-color="#6a6a6a"/>
      <stop offset="0.7686274509803922" stop-color="#22262b"/>
      <stop offset="1.0" stop-color="#424f57"/>
    </radialGradient>
    <radialGradient cx="0" cy="0" gradientTransform="matrix(-0.0044, 0.0, 0.0, 0.0046, 23.05, 1.85)" gradientUnits="userSpaceOnUse" id="gradient2" r="819.2" spreadMethod="pad">
      <stop offset="0.0" stop-color="#333c44"/>
      <stop offset="1.0" stop-color="#1d1c28"/>
    </radialGradient>
    <linearGradient gradientTransform="matrix(-0.0036, 0.0139, 0.0052, 0.0014, 23.85, 7.4)" gradientUnits="userSpaceOnUse" id="gradient3" spreadMethod="pad" x1="-819.2" x2="819.2">
      <stop offset="0.0" stop-color="#3f3230"/>
      <stop offset="1.0" stop-color="#624d40"/>
    </linearGradient>
    <linearGradient gradientTransform="matrix(0.0074, -0.0015, -5.0E-4, -0.0029, 34.2, 15.2)" gradientUnits="userSpaceOnUse" id="gradient4" spreadMethod="pad" x1="-819.2" x2="819.2">
      <stop offset="0.0" stop-color="#554a33"/>
      <stop offset="1.0" stop-color="#251f16"/>
    </linearGradient>
    <linearGradient gradientTransform="matrix(-0.0069, 0.0, 0.0, 0.0056, 33.65, 10.0)" gradientUnits="userSpaceOnUse" id="gradient5" spreadMethod="pad" x1="-819.2" x2="819.2">
      <stop offset="0.0" stop-color="#3f3230"/>
      <stop offset="1.0" stop-color="#624d40"/>
    </linearGradient>
    <linearGradient gradientTransform="matrix(0.0016, -0.0092, -0.0058, -0.0011, 26.85, 11.6)" gradientUnits="userSpaceOnUse" id="gradient6" spreadMethod="pad" x1="-819.2" x2="819.2">
      <stop offset="0.0" stop-color="#625e59"/>
      <stop offset="1.0" stop-color="#463c39"/>
    </linearGradient>
    <radialGradient cx="0" cy="0" gradientTransform="matrix(-0.0037, 0.0, 0.0, 0.0039, 21.8, 8.15)" gradientUnits="userSpaceOnUse" id="gradient7" r="819.2" spreadMethod="pad">
      <stop offset="0.0" stop-color="#333c44"/>
      <stop offset="1.0" stop-color="#1d1c28"/>
    </radialGradient>
    <radialGradient cx="0" cy="0" gradientTransform="matrix(-0.0206, 0.0, 0.0, 0.0215, 6.3, 16.05)" gradientUnits="userSpaceOnUse" id="gradient8" r="819.2" spreadMethod="pad">
      <stop offset="0.0" stop-color="#333c44"/>
      <stop offset="1.0" stop-color="#1d1c28"/>
    </radialGradient>
    <linearGradient gradientTransform="matrix(-0.0055, 0.0, 0.0, 0.0056, 24.15, 19.15)" gradientUnits="userSpaceOnUse" id="gradient9" spreadMethod="pad" x1="-819.2" x2="819.2">
      <stop offset="0.0" stop-color="#534424"/>
      <stop offset="0.4666666666666667" stop-color="#a08545"/>
      <stop offset="0.4823529411764706" stop-color="#cfc09e"/>
      <stop offset="1.0" stop-color="#927243"/>
    </linearGradient>
    <linearGradient gradientTransform="matrix(-0.0178, 0.0, 0.0, 0.0025, 5.0, 19.55)" gradientUnits="userSpaceOnUse" id="gradient10" spreadMethod="pad" x1="-819.2" x2="819.2">
      <stop offset="0.0" stop-color="#251f16"/>
      <stop offset="0.35294117647058826" stop-color="#554a33"/>
      <stop offset="0.6588235294117647" stop-color="#504630"/>
      <stop offset="1.0" stop-color="#251f16"/>
    </linearGradient>
    <linearGradient gradientTransform="matrix(-0.0017, 0.004, 0.0033, 0.0016, -12.45, -13.25)" gradientUnits="userSpaceOnUse" id="gradient11" spreadMethod="pad" x1="-819.2" x2="819.2">
      <stop offset="0.0" stop-color="#625e59"/>
      <stop offset="1.0" stop-color="#463c39"/>
    </linearGradient>
    <linearGradient gradientTransform="matrix(-0.0013, 0.005, 0.0038, 0.0011, -15.4, -7.5)" gradientUnits="userSpaceOnUse" id="gradient12" spreadMethod="pad" x1="-819.2" x2="819.2">
      <stop offset="0.0" stop-color="#3f3230"/>
      <stop offset="1.0" stop-color="#624d40"/>
    </linearGradient>
    <radialGradient cx="0" cy="0" gradientTransform="matrix(-0.0052, 0.0, 0.0, 0.0054, -10.0, -8.55)" gradientUnits="userSpaceOnUse" id="gradient13" r="819.2" spreadMethod="pad">
      <stop offset="0.0" stop-color="#333c44"/>
      <stop offset="1.0" stop-color="#1d1c28"/>
    </radialGradient>
    <linearGradient gradientTransform="matrix(-0.0091, 0.0, 0.0, 0.0054, -14.6, -0.15)" gradientUnits="userSpaceOnUse" id="gradient14" spreadMethod="pad" x1="-819.2" x2="819.2">
      <stop offset="0.0" stop-color="#663c3c"/>
      <stop offset="1.0" stop-color="#44342b"/>
    </linearGradient>
    <radialGradient cx="0" cy="0" gradientTransform="matrix(-0.0056, 0.0, 0.0, 0.0059, -10.0, -1.45)" gradientUnits="userSpaceOnUse" id="gradient15" r="819.2" spreadMethod="pad">
      <stop offset="0.0" stop-color="#333c44"/>
      <stop offset="1.0" stop-color="#1d1c28"/>
    </radialGradient>
    <linearGradient gradientTransform="matrix(-0.0027, 0.0107, 0.0031, 9.0E-4, -10.2, 11.7)" gradientUnits="userSpaceOnUse" id="gradient16" spreadMethod="pad" x1="-819.2" x2="819.2">
      <stop offset="0.0" stop-color="#3f3230"/>
      <stop offset="1.0" stop-color="#624d40"/>
    </linearGradient>
    <linearGradient gradientTransform="matrix(-0.0089, -0.0025, -0.0027, 0.0103, -18.25, 10.8)" gradientUnits="userSpaceOnUse" id="gradient17" spreadMethod="pad" x1="-819.2" x2="819.2">
      <stop offset="0.0" stop-color="#625e59"/>
      <stop offset="1.0" stop-color="#463c39"/>
    </linearGradient>
    <linearGradient gradientTransform="matrix(0.009, -0.0023, -0.0014, -0.0062, -16.65, 20.85)" gradientUnits="userSpaceOnUse" id="gradient18" spreadMethod="pad" x1="-819.2" x2="819.2">
      <stop offset="0.0" stop-color="#534424"/>
      <stop offset="0.4666666666666667" stop-color="#a08545"/>
      <stop offset="0.4823529411764706" stop-color="#cfc09e"/>
      <stop offset="1.0" stop-color="#927243"/>
    </linearGradient>
    <linearGradient gradientTransform="matrix(-0.0065, 0.0, 0.0, 0.0049, -27.9, 10.05)" gradientUnits="userSpaceOnUse" id="gradient19" spreadMethod="pad" x1="-819.2" x2="819.2">
      <stop offset="0.0" stop-color="#663c3c"/>
      <stop offset="1.0" stop-color="#44342b"/>
    </linearGradient>
    <linearGradient gradientTransform="matrix(-0.0066, -0.002, -9.0E-4, 0.0031, -28.15, 16.4)" gradientUnits="userSpaceOnUse" id="gradient20" spreadMethod="pad" x1="-819.2" x2="819.2">
      <stop offset="0.0" stop-color="#554a33"/>
      <stop offset="1.0" stop-color="#251f16"/>
    </linearGradient>
    <linearGradient gradientTransform="matrix(-0.0013, 0.0053, 0.0049, 0.0014, -22.0, 12.7)" gradientUnits="userSpaceOnUse" id="gradient21" spreadMethod="pad" x1="-819.2" x2="819.2">
      <stop offset="0.0" stop-color="#3f3230"/>
      <stop offset="1.0" stop-color="#624d40"/>
    </linearGradient>
    <g id="sprite2" transform="matrix(1.0, 0.0, 0.0, 1.0, 79.0, 69.85)">
      <use ffdec:characterId="867" height="87.75" transform="matrix(1.0, 0.0, 0.0, 1.0, -28.55, -43.85)" width="64.6" xlink:href="#shape2"/>
    </g>
    <g id="shape2" transform="matrix(1.0, 0.0, 0.0, 1.0, 28.55, 43.85)">
      <path d="M17.5 -42.1 L10.65 -30.45 Q6.5 -23.35 2.45 -20.1 1.95 -20.2 1.95 -21.35 2.45 -21.45 2.45 -20.85 L10.15 -33.85 Q15.9 -43.85 17.95 -43.85 18.5 -43.85 21.0 -40.25 21.0 -37.95 17.1 -27.8 15.15 -22.7 14.6 -20.0 L18.1 -17.8 Q21.9 -15.4 23.25 -15.1 L23.7 -14.35 Q23.35 -13.7 22.5 -13.3 L22.75 -13.2 Q22.75 -11.4 20.55 -10.15 L15.6 -8.2 Q8.4 -5.4 8.25 0.15 8.15 2.95 4.3 7.5 L-2.05 14.7 Q-8.1 22.7 -18.8 43.9 -20.05 42.9 -20.05 40.5 -20.05 38.4 -15.65 28.0 L-11.05 17.45 -10.55 17.9 -15.25 28.6 Q-19.55 38.75 -19.55 40.5 L-19.05 42.95 -18.9 43.15 -11.7 29.15 Q-6.95 20.2 -2.8 14.4 L3.3 7.55 Q7.3 2.9 7.0 0.15 5.8 -10.7 20.0 -12.35 L20.25 -12.6 11.7 -12.2 Q8.5 -12.2 6.85 -13.0 L3.95 -14.85 3.75 -15.6 3.85 -16.05 4.7 -16.2 14.7 -14.7 Q13.35 -15.85 12.2 -17.75 L12.25 -17.9 12.2 -18.0 12.2 -19.35 Q12.2 -21.2 15.7 -30.05 19.2 -38.9 19.2 -40.35 18.35 -41.75 17.5 -42.1 M28.5 19.95 Q28.45 20.45 27.2 20.45 22.55 20.45 16.7 15.45 11.35 10.85 11.45 8.9 L12.2 8.4 17.55 13.45 Q21.55 17.05 24.75 17.95 L21.3 14.9 Q18.75 12.4 18.75 10.65 18.8 6.7 15.8 5.1 L13.7 4.15 Q12.75 3.7 12.75 3.15 12.75 1.9 14.25 1.2 L19.95 6.15 Q21.5 7.45 21.2 8.75 L20.5 10.75 Q20.5 12.0 24.3 15.3 28.25 18.65 28.5 19.95 M-23.7 -11.95 Q-15.6 -12.55 -11.65 -13.45 -10.9 -13.05 -10.65 -12.45 L-12.05 -12.35 -12.55 -12.8 Q-14.3 -13.2 -26.3 -10.2 L-26.3 -10.1 Q-6.2 -6.4 -2.15 -5.2 L-2.05 -4.85 Q-1.55 -4.2 -2.8 -4.2 -5.9 -4.2 -14.55 -5.85 -24.05 -7.65 -28.4 -9.45 L-28.55 -10.2 Q-28.55 -11.6 -23.7 -11.95" fill="#ffffff" fill-rule="evenodd" stroke="none"/>
      <path d="M14.85 -10.5 Q14.5 -10.55 14.5 -11.35 14.5 -13.75 17.55 -13.35 17.8 -13.6 17.8 -12.35 17.8 -11.65 16.5 -10.5 L14.85 -10.5 M35.8 -19.35 Q36.05 -19.5 36.05 -18.25 L35.8 -17.1 Q36.25 -16.85 35.0 -16.85 L32.8 -17.1 32.3 -18.4 32.5 -19.35 34.25 -19.6 35.8 -19.35 M25.8 1.25 Q26.0 0.85 26.0 2.1 L25.8 3.05 Q26.75 3.5 25.5 3.5 23.65 3.5 22.75 3.0 22.5 3.25 22.5 2.0 L22.55 1.25 24.25 1.0 25.8 1.25 M-20.35 -23.35 Q-21.05 -22.35 -22.25 -22.35 L-23.75 -22.6 -24.1 -23.55 Q-24.1 -25.5 -22.25 -25.5 -20.7 -25.5 -20.35 -23.35 M-20.5 5.35 L-20.6 6.75 -22.5 7.05 Q-23.55 7.05 -24.35 6.05 -24.5 6.6 -24.5 5.35 -24.5 4.55 -22.0 3.5 -20.5 3.8 -20.5 5.35" fill="#ffffff" fill-rule="evenodd" stroke="none"/>
    </g>
  </defs>
</svg>
