<?xml version="1.0" encoding="UTF-8" standalone="no"?>
<svg xmlns:ffdec="https://www.free-decompiler.com/flash" xmlns:xlink="http://www.w3.org/1999/xlink" ffdec:objectType="frame" height="1526.2px" width="1686.6px" xmlns="http://www.w3.org/2000/svg">
  <g transform="matrix(2.0, 0.0, 0.0, 2.0, 812.9, 576.1)">
    <use ffdec:characterId="3326" height="576.2" transform="matrix(1.0, 0.0, 0.0, 1.0, -406.45, -288.05)" width="812.95" xlink:href="#shape0"/>
    <filter id="filter1">
      <feOffset dx="3.5355799791601" dy="3.535487832104965" in="SourceGraphic" result="filterResult9"/>
      <feColorMatrix in="filterResult9" result="filterResult10" type="matrix" values="0 0 0 0 0.0,0 0 0 0 0.0,0 0 0 0 0.0,0 0 0 1 0"/>
      <feConvolveMatrix divisor="25.0" in="filterResult10" kernelMatrix="1 1 1 1 1 1 1 1 1 1 1 1 1 1 1 1 1 1 1 1 1 1 1 1 1" order="5 5" result="filterResult11"/>
      <feComposite in="SourceGraphic" in2="filterResult11" operator="over" result="filterResult12"/>
    </filter>
    <use ffdec:characterId="3325" filter="url(#filter1)" height="412.1" id="InstanceName_0" transform="matrix(1.0, 0.0, 0.0, 1.0, -237.25, -204.2)" width="474.5" xlink:href="#sprite0"/>
    <use ffdec:characterId="3331" height="19.05" transform="matrix(1.0, 0.0, 0.0, 1.0, -186.95, -170.35)" width="380.95" xlink:href="#text0"/>
    <use ffdec:characterId="3330" height="19.05" transform="matrix(1.0, 0.0, 0.0, 1.0, -104.5, -7.55)" width="222.0" xlink:href="#text1"/>
    <filter id="filter2">
      <feColorMatrix in="SourceGraphic" result="filterResult13" type="matrix" values="0 0 0 0 0.0,0 0 0 0 0.0,0 0 0 0 0.0,0 0 0 1 0"/>
      <feConvolveMatrix divisor="4.0" in="filterResult13" kernelMatrix="1 1 1 1" order="2 2" result="filterResult14"/>
      <feComposite in="SourceGraphic" in2="filterResult14" operator="over" result="filterResult15"/>
      <feOffset dx="1.41423199166404" dy="1.4141951328419862" in="filterResult15" result="filterResult16"/>
      <feColorMatrix in="filterResult16" result="filterResult17" type="matrix" values="0 0 0 0 0.0,0 0 0 0 0.0,0 0 0 0 0.0,0 0 0 1 0"/>
      <feConvolveMatrix divisor="25.0" in="filterResult17" kernelMatrix="1 1 1 1 1 1 1 1 1 1 1 1 1 1 1 1 1 1 1 1 1 1 1 1 1" order="5 5" result="filterResult18"/>
      <feColorMatrix in="filterResult18" result="filterResult19" type="matrix" values="1 0 0 0 0,0 1 0 0 0,0 0 1 0 0,0 0 0 0.73828125 0"/>
      <feComposite in="filterResult15" in2="filterResult19" operator="over" result="filterResult20"/>
    </filter>
    <use ffdec:characterId="3329" filter="url(#filter2)" height="20.2" transform="matrix(1.0, 0.0, 0.0, 1.0, -111.0, 134.45)" width="222.0" xlink:href="#text2"/>
    <filter id="filter3">
      <feColorMatrix in="SourceGraphic" result="filterResult21" type="matrix" values="0 0 0 0 0.0,0 0 0 0 0.0,0 0 0 0 0.0,0 0 0 1 0"/>
      <feConvolveMatrix divisor="4.0" in="filterResult21" kernelMatrix="1 1 1 1" order="2 2" result="filterResult22"/>
      <feComposite in="SourceGraphic" in2="filterResult22" operator="over" result="filterResult23"/>
      <feOffset dx="1.41423199166404" dy="1.4141951328419862" in="filterResult23" result="filterResult24"/>
      <feColorMatrix in="filterResult24" result="filterResult25" type="matrix" values="0 0 0 0 0.0,0 0 0 0 0.0,0 0 0 0 0.0,0 0 0 1 0"/>
      <feConvolveMatrix divisor="25.0" in="filterResult25" kernelMatrix="1 1 1 1 1 1 1 1 1 1 1 1 1 1 1 1 1 1 1 1 1 1 1 1 1" order="5 5" result="filterResult26"/>
      <feColorMatrix in="filterResult26" result="filterResult27" type="matrix" values="1 0 0 0 0,0 1 0 0 0,0 0 1 0 0,0 0 0 0.73828125 0"/>
      <feComposite in="filterResult23" in2="filterResult27" operator="over" result="filterResult28"/>
    </filter>
    <use ffdec:characterId="3321" filter="url(#filter3)" height="20.2" transform="matrix(1.0, 0.0, 0.0, 1.0, -111.0, 159.45)" width="222.0" xlink:href="#text3"/>
    <use ffdec:characterId="3328" height="30.0" transform="matrix(8.0433, 0.0, 0.0, 0.7333, -120.65, 132.6999)" width="30.0" xlink:href="#button0"/>
    <use ffdec:characterId="3320" height="30.0" transform="matrix(8.0433, 0.0, 0.0, 0.7333, -120.65, 158.1999)" width="30.0" xlink:href="#button1"/>
    <use ffdec:characterId="3319" height="259.5" transform="matrix(1.0, 0.0, 0.0, 1.0, -187.45, -139.6)" width="381.3" xlink:href="#shape3"/>
    <use ffdec:characterId="3327" height="258.9" id="naxTevt2" transform="matrix(1.0, 0.0, 0.0, 1.0, -184.1, -139.2)" width="374.05" xlink:href="#text4"/>
  </g>
  <defs>
    <g id="shape0" transform="matrix(1.0, 0.0, 0.0, 1.0, 406.45, 288.05)">
      <path d="M-387.85 -73.0 L-403.85 -73.0 -403.85 -69.0 -387.85 -69.0 -387.85 -73.0 -387.85 -69.0 -403.85 -69.0 -403.85 -73.0 -387.85 -73.0 M-406.45 -288.05 L406.5 -288.05 406.5 288.15 -406.45 288.15 -406.45 -288.05" fill="#000000" fill-opacity="0.7019608" fill-rule="evenodd" stroke="none"/>
    </g>
    <g id="sprite0" transform="matrix(1.0, 0.0, 0.0, 1.0, 237.25, 206.05)">
      <use ffdec:characterId="3324" height="412.1" transform="matrix(1.0, 0.0, 0.0, 1.0, -237.25, -206.05)" width="474.5" xlink:href="#shape1"/>
      <filter id="filter0">
        <feFlood flood-color="#000000" flood-opacity="1.0" result="filterResult0"/>
        <feOffset dx="3.5355799791601" dy="3.535487832104965" in="SourceGraphic" result="filterResult1"/>
        <feComposite in="filterResult0" in2="filterResult1" operator="out" result="filterResult2"/>
        <feConvolveMatrix divisor="169.0" in="filterResult2" kernelMatrix="1 1 1 1 1 1 1 1 1 1 1 1 1 1 1 1 1 1 1 1 1 1 1 1 1 1 1 1 1 1 1 1 1 1 1 1 1 1 1 1 1 1 1 1 1 1 1 1 1 1 1 1 1 1 1 1 1 1 1 1 1 1 1 1 1 1 1 1 1 1 1 1 1 1 1 1 1 1 1 1 1 1 1 1 1 1 1 1 1 1 1 1 1 1 1 1 1 1 1 1 1 1 1 1 1 1 1 1 1 1 1 1 1 1 1 1 1 1 1 1 1 1 1 1 1 1 1 1 1 1 1 1 1 1 1 1 1 1 1 1 1 1 1 1 1 1 1 1 1 1 1 1 1 1 1 1 1 1 1 1 1 1 1 1 1 1 1 1 1" order="13 13" result="filterResult3"/>
        <feComposite in="filterResult3" in2="SourceGraphic" operator="in" result="filterResult4"/>
        <feComposite in="filterResult4" in2="SourceGraphic" operator="over" result="filterResult5"/>
        <feColorMatrix in="filterResult5" result="filterResult6" type="matrix" values="0 0 0 0 0.0,0 0 0 0 0.0,0 0 0 0 0.0,0 0 0 1 0"/>
        <feConvolveMatrix divisor="9.0" in="filterResult6" kernelMatrix="1 1 1 1 1 1 1 1 1" order="3 3" result="filterResult7"/>
        <feComposite in="filterResult5" in2="filterResult7" operator="over" result="filterResult8"/>
      </filter>
      <use ffdec:characterId="2844" filter="url(#filter0)" height="223.25" transform="matrix(1.0, 0.0, 0.0, 1.6874, -224.25, -188.3148)" width="448.5" xlink:href="#sprite1"/>
    </g>
    <g id="shape1" transform="matrix(1.0, 0.0, 0.0, 1.0, 237.25, 206.05)">
      <path d="M236.75 -205.55 L236.75 205.55 -236.75 205.55 -236.75 -205.55 236.75 -205.55" fill="url(#gradient0)" fill-rule="evenodd" stroke="none"/>
      <path d="M236.75 -205.55 L236.75 205.55 -236.75 205.55 -236.75 -205.55 236.75 -205.55 Z" fill="none" stroke="#000000" stroke-linecap="round" stroke-linejoin="round" stroke-width="1.0"/>
    </g>
    <linearGradient gradientTransform="matrix(0.0, -0.2509, 0.289, 0.0, 0.0, 0.0)" gradientUnits="userSpaceOnUse" id="gradient0" spreadMethod="pad" x1="-819.2" x2="819.2">
      <stop offset="0.0" stop-color="#32333d"/>
      <stop offset="1.0" stop-color="#5e7377"/>
    </linearGradient>
    <g id="sprite1" transform="matrix(1.0, 0.0, 0.0, 1.0, 224.25, 111.6)">
      <use ffdec:characterId="2843" height="223.25" transform="matrix(1.0, 0.0, 0.0, 1.0, -224.25, -111.6)" width="448.5" xlink:href="#shape2"/>
    </g>
    <g id="shape2" transform="matrix(1.0, 0.0, 0.0, 1.0, 224.25, 111.6)">
      <path d="M-224.25 -111.6 L224.25 -111.6 224.25 111.65 -224.25 111.65 -224.25 -111.6" fill="url(#gradient1)" fill-rule="evenodd" stroke="none"/>
    </g>
    <radialGradient cx="0" cy="0" gradientTransform="matrix(0.527, 0.0, 0.0, 0.2868, -69.5, -60.55)" gradientUnits="userSpaceOnUse" id="gradient1" r="819.2" spreadMethod="pad">
      <stop offset="0.0" stop-color="#e1e1e1"/>
      <stop offset="1.0" stop-color="#777777"/>
    </radialGradient>
    <g id="shape3" transform="matrix(1.0, 0.0, 0.0, 1.0, 187.45, 139.6)">
      <path d="M-187.45 -139.6 L193.85 -139.6 193.85 119.9 -187.45 119.9 -187.45 -139.6" fill="#ffffff" fill-rule="evenodd" stroke="none"/>
      <path d="M-187.45 -139.6 L193.85 -139.6 193.85 119.9 -187.45 119.9 -187.45 -139.6 Z" fill="none" stroke="#000000" stroke-linecap="round" stroke-linejoin="round" stroke-width="0.05"/>
    </g>
  </defs>
</svg>
