<?xml version="1.0" encoding="UTF-8" standalone="no"?>
<svg xmlns:ffdec="https://www.free-decompiler.com/flash" xmlns:xlink="http://www.w3.org/1999/xlink" ffdec:objectType="frame" height="159.6px" width="190.2px" xmlns="http://www.w3.org/2000/svg">
  <g transform="matrix(2.0, 0.0, 0.0, 2.0, 95.1, 83.6)">
    <clipPath id="clipPath0" transform="matrix(0.0892, 0.0, 0.0, 0.266, 0.0, -41.8)">
      <path d="M533.0 300.0 L0.0 300.0 0.0 0.0 533.0 0.0 533.0 300.0" fill="#ffffff" fill-rule="evenodd" stroke="none"/>
    </clipPath>
    <g clip-path="url(#clipPath0)">
      <use ffdec:characterId="3385" height="61.6" transform="matrix(-1.0, 0.0, 0.0, -1.0, -5.0E-4, 30.7995)" width="30.5" xlink:href="#sprite0"/>
    </g>
    <clipPath id="clipPath1" transform="matrix(0.0892, 0.0, 0.0, 0.266, -47.55, -41.8)">
      <path d="M533.0 300.0 L0.0 300.0 0.0 0.0 533.0 0.0 533.0 300.0" fill="#ffffff" fill-rule="evenodd" stroke="none"/>
    </clipPath>
    <g clip-path="url(#clipPath1)">
      <use ffdec:characterId="3385" height="61.6" transform="matrix(0.997, 0.0, 0.0, 0.997, 0.0, -30.7069)" width="30.5" xlink:href="#sprite0"/>
    </g>
  </g>
  <defs>
    <g id="sprite0" transform="matrix(1.0, 0.0, 0.0, 1.0, 0.0, 30.8)">
      <use ffdec:characterId="3384" height="61.6" transform="matrix(1.0, 0.0, 0.0, 1.0, 0.0, -30.8)" width="30.5" xlink:href="#shape1"/>
    </g>
    <g id="shape1" transform="matrix(1.0, 0.0, 0.0, 1.0, 0.0, 30.8)">
      <path d="M17.2 -17.5 Q10.05 -24.65 0.0 -24.75 L0.0 -30.8 Q12.55 -30.7 21.45 -21.8 L21.65 -21.6 Q30.5 -12.6 30.5 0.0 30.5 12.75 21.45 21.75 12.55 30.7 0.0 30.8 L0.0 24.75 Q10.05 24.65 17.2 17.5 24.45 10.25 24.45 0.0 24.45 -6.4 21.65 -11.6 19.95 -14.75 17.2 -17.5" fill="#ffffff" fill-rule="evenodd" stroke="none"/>
    </g>
  </defs>
</svg>
