<?xml version="1.0" encoding="UTF-8" standalone="no"?>
<svg xmlns:ffdec="https://www.free-decompiler.com/flash" xmlns:xlink="http://www.w3.org/1999/xlink" ffdec:objectType="frame" height="691.4px" width="496.6px" xmlns="http://www.w3.org/2000/svg">
  <g transform="matrix(2.0, 0.0, 0.0, 2.0, -1.0, 1.0)">
    <use ffdec:characterId="3099" height="345.7" id="lineMC" transform="matrix(1.0, 0.0, 0.0, 1.0, 0.5, -0.5)" width="248.3" xlink:href="#sprite0"/>
    <use ffdec:characterId="3097" height="48.7" id="st1" transform="matrix(1.0, 0.0, 0.0, 1.0, 73.15, 26.9)" width="65.75" xlink:href="#sprite1"/>
    <use ffdec:characterId="3097" height="48.7" id="st5" transform="matrix(1.0, 0.0, 0.0, 1.0, 73.15, 66.9)" width="65.75" xlink:href="#sprite1"/>
    <use ffdec:characterId="3097" height="48.7" id="st2" transform="matrix(1.0, 0.0, 0.0, 1.0, 125.15, 26.9)" width="65.75" xlink:href="#sprite1"/>
    <use ffdec:characterId="3097" height="48.7" id="st12" transform="matrix(1.0, 0.0, 0.0, 1.0, 21.15, 146.9)" width="65.75" xlink:href="#sprite1"/>
    <use ffdec:characterId="3097" height="48.7" id="st9" transform="matrix(1.0, 0.0, 0.0, 1.0, 73.15, 106.9)" width="65.75" xlink:href="#sprite1"/>
    <use ffdec:characterId="3097" height="48.7" id="st13" transform="matrix(1.0, 0.0, 0.0, 1.0, 73.15, 146.9)" width="65.75" xlink:href="#sprite1"/>
    <use ffdec:characterId="3097" height="48.7" id="st18" transform="matrix(1.0, 0.0, 0.0, 1.0, 125.15, 186.9)" width="65.75" xlink:href="#sprite1"/>
    <use ffdec:characterId="3097" height="48.7" id="st6" transform="matrix(1.0, 0.0, 0.0, 1.0, 125.15, 66.9)" width="65.75" xlink:href="#sprite1"/>
    <use ffdec:characterId="3097" height="48.7" id="st20" transform="matrix(1.0, 0.0, 0.0, 1.0, 21.15, 226.9)" width="65.75" xlink:href="#sprite1"/>
    <use ffdec:characterId="3097" height="48.7" id="st24" transform="matrix(1.0, 0.0, 0.0, 1.0, 21.15, 266.9)" width="65.75" xlink:href="#sprite1"/>
    <use ffdec:characterId="3097" height="48.7" id="st16" transform="matrix(1.0, 0.0, 0.0, 1.0, 21.15, 186.9)" width="65.75" xlink:href="#sprite1"/>
    <use ffdec:characterId="3097" height="48.7" id="st22" transform="matrix(1.0, 0.0, 0.0, 1.0, 125.15, 226.9)" width="65.75" xlink:href="#sprite1"/>
    <use ffdec:characterId="3097" height="48.7" id="st25" transform="matrix(1.0, 0.0, 0.0, 1.0, 73.15, 266.9)" width="65.75" xlink:href="#sprite1"/>
    <use ffdec:characterId="3097" height="48.7" id="st0" transform="matrix(1.0, 0.0, 0.0, 1.0, 21.15, 26.9)" width="65.75" xlink:href="#sprite1"/>
    <use ffdec:characterId="3097" height="48.7" id="st4" transform="matrix(1.0, 0.0, 0.0, 1.0, 21.15, 66.9)" width="65.75" xlink:href="#sprite1"/>
    <use ffdec:characterId="3097" height="48.7" id="st8" transform="matrix(1.0, 0.0, 0.0, 1.0, 21.15, 106.9)" width="65.75" xlink:href="#sprite1"/>
    <use ffdec:characterId="3097" height="48.7" id="st10" transform="matrix(1.0, 0.0, 0.0, 1.0, 125.15, 106.9)" width="65.75" xlink:href="#sprite1"/>
    <use ffdec:characterId="3097" height="48.7" id="st14" transform="matrix(1.0, 0.0, 0.0, 1.0, 125.15, 146.9)" width="65.75" xlink:href="#sprite1"/>
    <use ffdec:characterId="3097" height="48.7" id="st17" transform="matrix(1.0, 0.0, 0.0, 1.0, 73.15, 186.9)" width="65.75" xlink:href="#sprite1"/>
    <use ffdec:characterId="3097" height="48.7" id="st21" transform="matrix(1.0, 0.0, 0.0, 1.0, 73.15, 226.9)" width="65.75" xlink:href="#sprite1"/>
    <use ffdec:characterId="3097" height="48.7" id="st3" transform="matrix(1.0, 0.0, 0.0, 1.0, 177.15, 26.9)" width="65.75" xlink:href="#sprite1"/>
    <use ffdec:characterId="3097" height="48.7" id="st19" transform="matrix(1.0, 0.0, 0.0, 1.0, 177.15, 186.9)" width="65.75" xlink:href="#sprite1"/>
    <use ffdec:characterId="3097" height="48.7" id="st7" transform="matrix(1.0, 0.0, 0.0, 1.0, 177.15, 66.9)" width="65.75" xlink:href="#sprite1"/>
    <use ffdec:characterId="3097" height="48.7" id="st23" transform="matrix(1.0, 0.0, 0.0, 1.0, 177.15, 226.9)" width="65.75" xlink:href="#sprite1"/>
    <use ffdec:characterId="3097" height="48.7" id="st27" transform="matrix(1.0, 0.0, 0.0, 1.0, 177.15, 266.9)" width="65.75" xlink:href="#sprite1"/>
    <use ffdec:characterId="3097" height="48.7" id="st11" transform="matrix(1.0, 0.0, 0.0, 1.0, 177.15, 106.9)" width="65.75" xlink:href="#sprite1"/>
    <use ffdec:characterId="3097" height="48.7" id="st15" transform="matrix(1.0, 0.0, 0.0, 1.0, 177.15, 146.9)" width="65.75" xlink:href="#sprite1"/>
    <use ffdec:characterId="3097" height="48.7" id="st26" transform="matrix(1.0, 0.0, 0.0, 1.0, 125.15, 266.9)" width="65.75" xlink:href="#sprite1"/>
  </g>
  <defs>
    <g id="sprite0" transform="matrix(1.0, 0.0, 0.0, 1.0, 0.5, 0.5)">
      <use ffdec:characterId="3098" height="345.7" transform="matrix(1.0, 0.0, 0.0, 1.0, -0.5, -0.5)" width="248.3" xlink:href="#shape0"/>
    </g>
    <g id="shape0" transform="matrix(1.0, 0.0, 0.0, 1.0, 0.5, 0.5)">
      <path d="M0.0 344.7 L0.0 0.0 247.3 0.0 247.3 344.7 0.0 344.7 Z" fill="none" stroke="#000000" stroke-linecap="round" stroke-linejoin="round" stroke-width="1.0"/>
    </g>
    <g id="sprite1" transform="matrix(1.0, 0.0, 0.0, 1.0, 20.25, 22.95)">
      <use ffdec:characterId="2427" height="48.7" id="thing2" transform="matrix(1.0, 0.0, 0.0, 1.0, -20.25, -22.95)" width="57.85" xlink:href="#sprite2"/>
      <use ffdec:characterId="3096" height="22.5" id="thingo2" transform="matrix(1.1628, 0.0, 0.0, 1.1628, -13.0815, -13.0815)" width="22.5" xlink:href="#button0"/>
      <use ffdec:characterId="3095" height="20.55" id="thingoShow" transform="matrix(1.0, 0.0, 0.0, 1.0, 4.95, 4.75)" width="40.55" xlink:href="#sprite4"/>
    </g>
    <g id="sprite2" transform="matrix(1.0, 0.0, 0.0, 1.0, 20.25, 22.6)">
      <clipPath id="clipPath0" transform="matrix(1.0, 0.0, 0.0, 1.0, 0.0, 0.0)">
        <path d="M11.5 0.0 Q11.5 4.75 8.15 8.15 4.8 11.5 0.0 11.5 -4.8 11.5 -8.15 8.15 -11.5 4.75 -11.5 0.0 L-11.4 -1.3 -11.35 -1.85 Q-10.8 -5.45 -8.15 -8.15 -4.8 -11.5 0.0 -11.5 L2.95 -11.15 Q5.85 -10.45 8.15 -8.15 10.4 -5.85 11.2 -2.9 L11.3 -2.45 11.5 0.0" fill="#ffcc00" fill-rule="evenodd" stroke="none"/>
      </clipPath>
      <use ffdec:characterId="2241" height="23.0" id="bfilter" transform="matrix(1.0, 0.0, 0.0, 1.0, -11.5, -11.5)" width="23.0" xlink:href="#sprite3"/>
    </g>
    <g id="sprite3" transform="matrix(1.0, 0.0, 0.0, 1.0, 11.5, 11.5)">
      <use ffdec:characterId="2240" height="23.0" transform="matrix(1.0, 0.0, 0.0, 1.0, -11.5, -11.5)" width="23.0" xlink:href="#shape2"/>
    </g>
    <g id="shape2" transform="matrix(1.0, 0.0, 0.0, 1.0, 11.5, 11.5)">
      <path d="M11.5 0.0 Q11.5 4.75 8.15 8.15 4.8 11.5 0.0 11.5 -4.8 11.5 -8.15 8.15 -11.5 4.75 -11.5 0.0 L-11.4 -1.3 -11.35 -1.85 Q-10.8 -5.45 -8.15 -8.15 -4.8 -11.5 0.0 -11.5 L2.95 -11.15 Q5.85 -10.45 8.15 -8.15 10.4 -5.85 11.2 -2.9 L11.3 -2.45 11.5 0.0" fill="#000000" fill-rule="evenodd" stroke="none"/>
    </g>
    <g id="button0" transform="matrix(1.0, 0.0, 0.0, 1.0, 11.25, 11.25)">
      <use ffdec:characterId="2434" height="21.0" transform="matrix(1.0, 0.0, 0.0, 1.0, -10.5, -10.5)" width="21.0" xlink:href="#shape3"/>
    </g>
    <g id="shape3" transform="matrix(1.0, 0.0, 0.0, 1.0, 10.5, 10.5)">
      <path d="M10.5 -0.15 L10.5 0.0 10.4 1.8 10.4 1.95 10.4 1.9 10.3 2.2 10.3 2.3 10.25 2.55 9.35 4.85 9.2 5.2 7.55 7.35 7.45 7.4 7.35 7.5 5.95 8.7 Q3.35 10.5 0.0 10.5 -3.15 10.5 -5.6 8.9 L-5.9 8.7 -7.3 7.5 -7.4 7.4 -7.45 7.35 -7.5 7.3 -7.55 7.25 -9.25 4.95 -9.35 4.75 -9.45 4.55 -10.3 1.95 -10.35 1.7 -10.5 0.0 -10.5 -0.15 Q-10.45 -4.35 -7.5 -7.35 L-7.4 -7.45 -7.3 -7.55 Q-4.3 -10.55 0.0 -10.5 4.3 -10.55 7.35 -7.55 L7.45 -7.45 7.55 -7.35 Q10.45 -4.35 10.5 -0.15 M0.0 -9.5 Q-3.95 -9.55 -6.7 -6.75 -9.5 -3.95 -9.5 0.0 L-9.35 1.55 Q-9.15 3.0 -8.45 4.3 L-6.7 6.7 -5.25 7.95 Q-2.95 9.5 0.0 9.5 2.95 9.5 5.3 7.95 L6.75 6.7 8.4 4.55 Q9.05 3.4 9.35 2.1 L9.35 2.05 9.4 1.7 9.4 1.65 9.5 0.0 Q9.5 -3.95 6.75 -6.75 3.95 -9.55 0.0 -9.5" fill="#000000" fill-rule="evenodd" stroke="none"/>
    </g>
    <g id="sprite4" transform="matrix(1.0, 0.0, 0.0, 1.0, 20.25, 9.6)">
      <use ffdec:characterId="3094" height="19.05" transform="matrix(1.0, 0.0, 0.0, 1.0, -19.25, -8.1)" width="18.3" xlink:href="#text0"/>
      <use ffdec:characterId="3093" height="19.05" transform="matrix(1.0, 0.0, 0.0, 1.0, 2.3, -8.1)" width="18.0" xlink:href="#text1"/>
      <use ffdec:characterId="3092" height="19.05" transform="matrix(1.0, 0.0, 0.0, 1.0, -20.25, -9.6)" width="18.3" xlink:href="#text2"/>
      <use ffdec:characterId="3091" height="19.05" transform="matrix(1.0, 0.0, 0.0, 1.0, 1.3, -9.6)" width="18.0" xlink:href="#text3"/>
      <use ffdec:characterId="3090" height="11.35" transform="matrix(1.0, 0.0, 0.0, 1.0, -4.1, -5.45)" width="5.45" xlink:href="#shape4"/>
    </g>
    <g id="shape4" transform="matrix(1.0, 0.0, 0.0, 1.0, 4.1, 5.45)">
      <path d="M-3.6 4.4 L-0.15 -4.95" fill="none" stroke="#ffffff" stroke-linecap="round" stroke-linejoin="round" stroke-width="1.0"/>
      <path d="M-2.6 5.4 L0.85 -3.95" fill="none" stroke="#000000" stroke-linecap="round" stroke-linejoin="round" stroke-width="1.0"/>
    </g>
  </defs>
</svg>
