<?xml version="1.0" encoding="UTF-8" standalone="no"?>
<svg xmlns:ffdec="https://www.free-decompiler.com/flash" xmlns:xlink="http://www.w3.org/1999/xlink" ffdec:objectType="frame" height="4004.1px" width="7682.6px" xmlns="http://www.w3.org/2000/svg">
  <g transform="matrix(2.0, 0.0, 0.0, 2.0, 4622.9, 1925.9)">
    <use ffdec:characterId="333" height="372.95" transform="matrix(2.0745, 0.0, 0.0, 1.0111, -262.0106, -216.0102)" width="608.0" xlink:href="#shape0"/>
    <use ffdec:characterId="3522" height="200.0" transform="matrix(1.2274, 0.0, 0.0, 1.2274, 152.6161, -141.1573)" width="127.5" xlink:href="#sprite0"/>
    <use ffdec:characterId="3497" height="2.0" transform="matrix(-1.6289, 0.0, 0.0, 1.6289, 147.0, 92.8)" width="2.0" xlink:href="#shape3"/>
    <use ffdec:characterId="3497" height="2.0" transform="matrix(1.6289, 0.0, 0.0, 1.6289, 47.55, 88.2)" width="2.0" xlink:href="#shape3"/>
    <use ffdec:characterId="3497" height="2.0" transform="matrix(1.6289, 0.0, 0.0, 1.6289, 39.45, 176.5)" width="2.0" xlink:href="#shape3"/>
    <use ffdec:characterId="3497" height="2.0" transform="matrix(-1.6289, 0.0, 0.0, 1.6289, 9.85, 103.45)" width="2.0" xlink:href="#shape3"/>
    <use ffdec:characterId="3496" height="524.1" transform="matrix(1.5737, 0.0, 0.0, 1.5737, -356.3261, -276.2761)" width="524.1" xlink:href="#sprite1"/>
    <use ffdec:characterId="3507" height="583.25" transform="matrix(0.5991, 0.7743, -0.7743, 0.5991, -52.7826, -342.8964)" width="540.35" xlink:href="#sprite2"/>
    <use ffdec:characterId="3478" height="300.0" transform="matrix(1.0765, 0.0, 0.0, 1.0765, -198.3781, -186.1216)" width="533.0" xlink:href="#sprite5"/>
  </g>
  <defs>
    <g id="shape0" transform="matrix(1.0, 0.0, 0.0, 1.0, -26.7, -26.05)">
      <path d="M634.7 26.05 L634.7 399.0 26.7 399.0 26.7 26.05 634.7 26.05" fill="#000000" fill-rule="evenodd" stroke="none"/>
    </g>
    <g id="sprite0" transform="matrix(1.0, 0.0, 0.0, 1.0, -2.05, -18.0)">
      <use ffdec:characterId="3509" height="200.0" transform="matrix(1.0, 0.0, 0.0, 1.0, 2.05, 18.0)" width="127.5" xlink:href="#shape1"/>
      <use ffdec:characterId="3508" height="198.5" transform="matrix(1.0, 0.0, 0.0, 1.0, 2.05, 18.0)" width="127.5" xlink:href="#shape2"/>
    </g>
    <g id="shape1" transform="matrix(1.0, 0.0, 0.0, 1.0, -2.05, -18.0)">
      <path d="M83.85 80.2 Q85.8 81.3 87.15 82.55 L88.7 83.85 Q94.45 103.65 109.55 117.8 L102.0 163.55 102.9 163.65 112.45 133.45 Q113.2 131.0 115.8 131.05 117.65 137.7 117.6 144.1 L117.55 144.1 117.15 144.05 117.4 148.0 Q116.5 157.1 111.65 165.65 107.15 173.55 98.05 174.3 94.0 172.25 89.9 171.05 L89.5 170.95 89.35 170.9 Q86.05 169.85 83.0 169.6 L76.3 169.35 71.4 169.15 71.05 169.8 71.05 169.9 Q68.45 170.3 65.85 171.0 53.5 162.0 43.6 150.2 42.7 149.2 42.75 147.9 43.2 137.0 42.25 126.25 L42.4 123.8 41.95 123.05 Q40.45 109.15 36.65 95.5 L31.45 112.05 Q27.05 112.8 22.8 114.1 L16.15 113.9 14.95 114.55 10.1 113.55 9.5 112.7 Q12.15 101.05 17.15 90.3 L21.55 82.0 Q27.45 73.25 38.6 73.95 L37.65 91.7 44.2 70.2 46.15 69.75 47.1 71.2 Q49.2 71.6 50.8 72.6 L51.15 72.85 53.35 74.9 Q54.7 76.1 55.2 76.35 L55.2 76.3 55.25 76.3 55.75 76.3 56.1 74.35 Q60.8 73.15 65.8 73.45 L67.75 73.65 67.75 73.7 68.95 73.9 70.9 74.45 Q73.5 75.15 78.9 77.85 L79.1 77.95 79.5 78.0 Q80.25 78.55 80.9 78.8 L83.85 80.2 M92.9 78.45 L102.0 72.85 Q108.95 73.05 113.9 78.95 124.75 91.9 127.9 108.95 129.25 116.45 129.45 124.15 102.25 108.45 92.9 78.45 M96.9 91.25 Q107.4 114.5 129.55 125.55 L129.45 126.55 128.65 126.9 Q119.95 124.45 112.85 118.0 L113.15 119.1 Q104.95 111.1 98.2 101.75 90.85 91.5 91.9 79.35 L96.9 91.25 M65.7 22.95 L65.6 26.05 Q64.5 26.45 63.95 27.4 60.1 33.8 60.2 42.05 60.25 45.9 56.5 46.0 57.4 47.0 58.75 47.0 60.9 46.85 62.8 45.95 66.85 49.75 68.3 54.95 L67.0 56.75 69.25 59.3 68.55 62.45 Q62.3 65.35 55.85 63.05 48.55 51.1 46.6 37.15 L48.6 39.05 45.65 31.05 46.1 30.2 46.85 30.55 47.9 29.15 Q50.15 28.8 51.9 30.15 53.5 31.45 54.2 30.4 L53.95 30.1 Q51.4 27.65 47.55 26.95 L46.1 22.55 51.45 27.65 51.85 27.1 Q49.25 23.1 50.6 18.45 L56.85 18.0 58.15 19.4 Q62.2 24.5 58.5 30.2 L59.9 30.35 59.3 29.2 64.8 22.4 65.7 22.95 M44.95 27.35 L44.6 23.7 46.65 27.0 44.95 27.35 M66.85 27.95 L69.6 27.55 66.35 28.65 64.9 29.15 65.7 28.55 66.35 28.65 66.85 27.95 M64.4 36.25 L64.45 36.25 64.45 36.3 64.4 36.25 M70.2 37.95 L72.05 38.15 70.0 41.4 66.7 38.65 70.2 37.95 M70.95 61.1 L71.0 61.05 71.0 61.1 70.95 61.1 M63.15 54.75 L61.85 54.4 60.55 54.3 59.35 54.35 59.35 54.65 61.9 55.1 63.15 54.75 M53.2 58.85 Q53.65 58.95 53.25 59.2 L53.2 58.85 M53.25 121.1 Q47.75 120.75 46.35 122.55 L54.35 122.0 59.35 122.95 66.15 124.55 68.95 126.0 Q71.05 127.15 72.65 127.15 L73.1 127.05 69.45 124.45 Q67.05 123.15 63.65 122.55 56.0 121.25 53.25 121.1 M30.0 118.45 Q34.2 119.15 37.25 122.2 L36.95 127.3 36.9 129.1 Q35.55 138.3 29.7 146.1 25.7 151.4 19.0 150.2 L20.5 129.15 20.75 127.0 22.15 117.45 30.0 118.45 M35.8 167.95 L36.6 166.9 Q44.05 170.85 41.9 180.05 L40.4 180.0 Q38.4 176.3 40.1 172.0 37.05 171.15 35.8 167.95 M9.65 114.15 L9.65 114.05 9.65 114.0 9.85 114.2 9.65 114.15 M26.4 150.95 L26.45 150.9 26.45 150.95 26.4 150.95 M32.35 169.75 L32.65 168.85 Q40.2 172.15 37.8 180.3 L36.55 180.05 36.1 173.7 35.65 173.5 Q33.25 172.25 32.35 169.75 M19.8 164.35 Q30.45 183.55 27.7 204.5 27.3 207.45 24.6 208.95 L21.95 210.15 15.95 210.95 15.55 210.25 14.9 209.1 13.65 206.75 Q4.0 188.15 2.1 166.8 1.7 162.5 4.65 159.05 15.0 154.2 19.8 164.5 L19.8 164.35 M42.0 166.15 L42.85 166.6 Q47.9 170.75 46.45 177.45 L44.9 177.35 Q43.8 174.25 45.0 170.75 40.35 169.7 42.0 166.15 M78.35 182.8 Q79.25 186.3 78.6 189.55 77.7 192.15 75.8 195.05 73.7 198.2 71.05 200.65 L69.7 201.85 69.35 202.15 67.05 203.8 Q65.3 204.95 60.75 207.25 55.75 209.8 54.1 210.8 L45.5 215.65 Q41.05 217.65 36.55 218.0 L33.3 217.55 Q35.2 212.4 37.05 208.45 L36.75 208.5 Q44.75 190.95 61.55 179.95 66.3 176.9 71.8 177.55 76.4 178.4 78.35 182.8 M99.9 139.0 L99.9 139.55 99.95 139.0 99.9 139.0" fill="url(#gradient0)" fill-rule="evenodd" stroke="none"/>
      <path d="M99.9 139.0 L99.95 139.0 99.9 139.55 99.9 139.0" fill="#000000" fill-rule="evenodd" stroke="none"/>
    </g>
    <linearGradient gradientTransform="matrix(0.0232, -0.1045, 0.1268, 0.0281, 59.5, 111.6)" gradientUnits="userSpaceOnUse" id="gradient0" spreadMethod="pad" x1="-819.2" x2="819.2">
      <stop offset="0.0" stop-color="#dddd00"/>
      <stop offset="1.0" stop-color="#8e4702"/>
    </linearGradient>
    <g id="shape2" transform="matrix(1.0, 0.0, 0.0, 1.0, -2.05, -18.0)">
      <path d="M87.15 82.55 L88.7 83.85 Q94.45 103.65 109.55 117.8 L102.0 163.55 102.9 163.65 102.95 163.5 103.05 163.5 103.5 163.35 103.65 163.35 Q104.55 163.35 105.0 162.05 L105.8 159.3 106.65 157.05 107.05 155.85 107.25 155.4 108.75 151.9 111.3 146.15 115.35 136.25 116.15 134.2 116.4 135.1 116.7 136.8 117.0 140.35 117.2 143.85 117.2 144.05 117.15 144.05 117.2 144.6 Q117.1 147.95 116.1 153.05 115.6 155.4 114.3 159.0 L113.1 162.45 113.2 162.75 111.65 165.65 Q107.15 173.55 98.05 174.3 94.0 172.25 89.9 171.05 L89.5 170.95 89.35 170.9 Q86.05 169.85 83.0 169.6 L76.3 169.35 71.4 169.15 71.4 169.2 68.75 169.55 Q66.4 169.9 65.0 170.4 53.15 161.6 43.6 150.2 42.7 149.2 42.75 147.9 43.2 137.0 42.25 126.25 L42.4 123.8 41.95 123.05 Q40.65 110.75 37.5 98.65 L37.55 98.45 37.25 97.65 36.65 95.5 35.45 99.3 34.9 100.55 34.05 102.0 32.9 104.05 31.7 105.95 28.45 110.0 Q26.7 112.25 26.1 113.2 L22.8 114.1 16.15 113.9 14.95 114.55 10.1 113.55 9.5 112.7 Q12.15 101.05 17.15 90.3 L21.55 82.0 Q26.65 74.45 35.65 73.95 L36.0 76.35 Q36.25 77.85 36.15 80.85 L36.75 89.9 37.0 90.05 37.35 90.15 37.75 90.0 37.65 91.7 44.2 70.2 46.15 69.75 47.1 71.2 Q49.2 71.6 50.8 72.6 L51.15 72.85 53.35 74.9 Q54.7 76.1 55.2 76.35 L55.2 76.3 55.25 76.3 55.75 76.3 56.1 74.35 Q60.8 73.15 65.8 73.45 L67.75 73.65 67.75 73.7 68.95 73.9 70.9 74.45 Q73.5 75.15 78.9 77.85 L79.1 77.95 79.5 78.0 Q80.25 78.55 80.9 78.8 L83.85 80.2 Q85.8 81.3 87.15 82.55 M102.35 72.9 L102.65 73.05 Q103.85 73.7 105.2 74.15 L106.8 74.8 107.0 75.05 Q109.15 77.25 111.8 81.35 L116.05 87.7 Q118.5 91.45 119.75 93.9 123.15 100.45 125.4 106.5 126.25 108.85 126.75 111.3 126.8 113.6 127.4 116.25 L127.65 117.75 127.65 117.85 127.75 118.45 127.75 118.65 124.35 116.55 Q118.95 113.25 115.5 110.25 112.3 107.45 109.2 103.95 L103.95 97.7 Q101.75 95.0 99.95 91.3 L97.1 85.2 Q96.45 83.9 95.9 82.0 L95.15 78.9 95.05 77.15 102.0 72.85 102.35 72.9 M96.9 91.25 Q107.4 114.5 129.55 125.55 L129.45 126.55 128.65 126.9 Q119.95 124.45 112.85 118.0 L113.15 119.1 Q104.95 111.1 98.2 101.75 90.85 91.5 91.9 79.35 L96.9 91.25 M51.3 23.55 L51.15 20.45 Q51.15 19.45 51.4 18.4 L56.7 18.0 57.75 20.55 58.95 23.25 Q59.3 24.3 59.3 25.65 L59.0 27.65 58.65 29.5 58.75 29.85 58.5 30.2 59.0 30.25 59.4 30.35 59.55 30.3 59.9 30.35 59.8 30.15 60.45 27.8 63.6 23.9 63.15 25.1 60.9 31.8 59.9 35.05 58.8 38.4 57.9 41.75 57.05 43.75 56.4 45.25 Q56.4 45.8 56.8 46.0 L56.5 46.0 Q57.4 47.0 58.75 47.0 L61.2 46.6 61.3 47.0 61.8 48.45 63.8 51.65 65.65 54.6 66.45 55.55 Q66.3 56.1 66.3 56.8 66.3 57.95 66.75 58.8 L67.2 60.4 65.95 62.0 64.4 63.45 63.55 63.95 Q59.75 64.45 55.85 63.05 48.55 51.1 46.6 37.15 L48.6 39.05 45.65 31.05 46.1 30.2 46.85 30.55 47.9 29.15 Q50.15 28.8 51.9 30.15 53.5 31.45 54.2 30.4 L53.95 30.1 Q51.4 27.65 47.55 26.95 L46.1 22.55 51.45 27.65 51.8 27.2 Q52.05 27.2 52.3 27.0 L52.5 26.55 51.95 25.1 Q51.35 24.0 51.3 23.55 M112.75 77.65 L114.15 79.45 114.0 79.25 112.75 77.65 M44.95 27.35 L44.6 23.7 46.65 27.0 44.95 27.35 M64.45 36.25 L64.45 36.3 64.4 36.25 64.45 36.25 M38.5 73.95 L38.6 73.95 38.55 75.35 38.5 73.95 M70.85 40.1 L69.65 38.8 69.05 38.2 70.2 37.95 72.05 38.15 70.85 40.1 M71.0 61.1 L70.95 61.1 71.0 61.05 71.0 61.1 M63.15 54.75 L61.85 54.4 60.55 54.3 59.35 54.35 59.35 54.65 61.9 55.1 63.15 54.75 M69.15 59.8 L68.9 58.9 69.25 59.3 69.15 59.8 M53.25 59.2 L53.2 58.85 Q53.65 58.95 53.25 59.2 M48.05 121.5 Q47.4 121.7 47.0 122.0 L46.35 122.55 46.9 122.6 Q47.0 123.0 47.55 123.0 L49.5 122.75 50.7 122.55 Q52.55 122.55 63.15 124.8 67.95 125.9 71.55 127.8 72.3 127.8 72.3 127.15 L72.65 127.15 73.1 127.05 69.45 124.45 Q67.05 123.15 63.65 122.55 56.0 121.25 53.25 121.1 L48.05 121.5 M30.0 118.45 Q33.7 119.05 36.5 121.5 L36.25 123.9 36.0 126.3 35.1 131.0 34.25 135.85 Q33.5 138.5 32.1 140.45 29.95 143.4 27.5 145.2 26.2 146.25 23.4 147.45 22.25 147.95 19.9 148.5 L19.1 148.75 20.5 129.15 20.75 127.0 22.15 117.45 30.0 118.45 M9.65 114.05 L9.65 114.0 9.85 114.2 9.65 114.15 9.65 114.05 M26.45 150.95 L26.4 150.95 26.45 150.9 26.45 150.95 M36.3 167.85 L36.15 167.55 36.6 166.9 Q44.05 170.85 41.9 180.05 L41.2 180.05 40.95 177.7 41.1 172.8 Q41.05 172.35 40.0 171.75 L38.85 171.15 36.3 167.85 M32.65 168.95 L32.65 168.85 Q40.2 172.15 37.8 180.3 L37.35 180.2 37.15 178.4 36.75 174.2 Q36.7 173.5 35.7 173.05 L34.35 172.2 33.0 170.0 32.65 168.95 M19.4 167.3 L20.35 170.3 21.45 173.25 Q22.15 174.75 23.25 179.1 24.65 184.85 25.65 190.85 26.05 193.3 26.25 196.8 26.25 199.45 26.5 200.9 L26.25 201.75 Q25.45 204.45 23.45 206.45 L22.15 207.65 20.7 208.7 18.95 209.2 18.75 209.15 Q17.8 209.1 16.05 209.85 15.7 210.0 15.5 210.1 L14.9 209.1 13.65 206.75 Q4.0 188.15 2.1 166.8 1.7 162.5 4.65 159.05 10.75 156.2 14.9 158.6 L16.85 161.45 19.4 167.3 M77.65 182.75 L78.0 184.8 Q78.0 189.1 74.05 195.6 L71.65 199.45 71.0 199.95 Q67.95 202.4 64.55 203.85 60.8 205.55 57.95 207.35 56.4 208.4 49.8 211.5 46.65 213.0 41.55 214.65 L37.7 215.85 34.1 216.4 33.7 216.5 Q35.4 211.95 37.05 208.45 L36.75 208.5 Q44.75 190.95 61.55 179.95 66.3 176.9 71.8 177.55 73.9 177.95 75.5 179.1 75.65 180.3 77.2 182.15 L77.65 182.75 M44.2 170.1 L42.5 168.15 41.85 166.5 42.0 166.15 42.85 166.6 Q47.9 170.75 46.45 177.45 L45.55 177.4 45.45 176.3 Q45.05 174.7 45.05 172.2 L44.85 171.2 45.0 170.75 44.6 170.65 44.2 170.1 M39.65 173.55 L39.6 173.55 39.65 173.5 39.65 173.55 M99.9 139.0 L99.9 139.55 99.95 139.0 99.9 139.0 M22.85 209.1 L22.85 209.15 22.55 209.25 22.95 208.95 22.85 209.1" fill="url(#gradient1)" fill-rule="evenodd" stroke="none"/>
      <path d="M99.9 139.0 L99.95 139.0 99.9 139.55 99.9 139.0" fill="url(#gradient2)" fill-rule="evenodd" stroke="none"/>
    </g>
    <linearGradient gradientTransform="matrix(0.0232, -0.1045, 0.1268, 0.0281, 59.5, 111.6)" gradientUnits="userSpaceOnUse" id="gradient1" spreadMethod="pad" x1="-819.2" x2="819.2">
      <stop offset="0.0" stop-color="#dede00" stop-opacity="0.5019608"/>
      <stop offset="1.0" stop-color="#8f4602" stop-opacity="0.5019608"/>
    </linearGradient>
    <linearGradient gradientTransform="matrix(0.0, 0.0, 0.0, 3.0E-4, 99.9, 139.25)" gradientUnits="userSpaceOnUse" id="gradient2" spreadMethod="pad" x1="-819.2" x2="819.2">
      <stop offset="0.0" stop-color="#dede00" stop-opacity="0.5019608"/>
      <stop offset="1.0" stop-color="#8f4602" stop-opacity="0.5019608"/>
    </linearGradient>
    <g id="shape3" transform="matrix(1.0, 0.0, 0.0, 1.0, 0.0, 0.0)">
      <path d="M2.0 1.0 L1.7 1.7 1.0 2.0 Q0.6 2.0 0.3 1.7 0.0 1.4 0.0 1.0 0.0 0.6 0.3 0.3 0.6 0.0 1.0 0.0 1.4 0.0 1.7 0.3 L2.0 1.0" fill="#ff9900" fill-opacity="0.6392157" fill-rule="evenodd" stroke="none"/>
    </g>
    <g id="sprite1" transform="matrix(1.0, 0.0, 0.0, 1.0, 39.0, 39.0)">
      <use ffdec:characterId="3485" height="446.1" transform="matrix(1.0, 0.0, 0.0, 1.0, 0.0, 0.0)" width="446.1" xlink:href="#shape4"/>
    </g>
    <g id="shape4" transform="matrix(1.0, 0.0, 0.0, 1.0, 0.0, 0.0)">
      <path d="M380.75 65.3 Q446.1 130.65 446.1 223.05 446.1 315.45 380.75 380.75 315.45 446.1 223.05 446.1 130.65 446.1 65.3 380.75 0.0 315.45 0.0 223.05 0.0 130.65 65.3 65.3 130.65 0.0 223.05 0.0 315.45 0.0 380.75 65.3" fill="url(#gradient3)" fill-rule="evenodd" stroke="none"/>
    </g>
    <radialGradient cx="0" cy="0" gradientTransform="matrix(0.2747, 0.0, 0.0, 0.2747, 223.05, 223.05)" gradientUnits="userSpaceOnUse" id="gradient3" r="819.2" spreadMethod="pad">
      <stop offset="0.0" stop-color="#dd8400" stop-opacity="0.8392157"/>
      <stop offset="1.0" stop-color="#de8400" stop-opacity="0.0"/>
    </radialGradient>
    <g id="sprite2" transform="matrix(1.0, 0.0, 0.0, 1.0, 266.0, 281.15)">
      <use ffdec:characterId="3506" height="583.25" transform="matrix(1.0, 0.0, 0.0, 1.0, -266.0, -281.15)" width="540.35" xlink:href="#shape5"/>
      <filter id="filter0">
        <feColorMatrix in="SourceGraphic" result="filterResult0" type="matrix" values="0 0 0 0 0.96862745,0 0 0 0 0.6745098,0 0 0 0 0.0,0 0 0 1 0"/>
        <feConvolveMatrix divisor="625.0" in="filterResult0" kernelMatrix="1 1 1 1 1 1 1 1 1 1 1 1 1 1 1 1 1 1 1 1 1 1 1 1 1 1 1 1 1 1 1 1 1 1 1 1 1 1 1 1 1 1 1 1 1 1 1 1 1 1 1 1 1 1 1 1 1 1 1 1 1 1 1 1 1 1 1 1 1 1 1 1 1 1 1 1 1 1 1 1 1 1 1 1 1 1 1 1 1 1 1 1 1 1 1 1 1 1 1 1 1 1 1 1 1 1 1 1 1 1 1 1 1 1 1 1 1 1 1 1 1 1 1 1 1 1 1 1 1 1 1 1 1 1 1 1 1 1 1 1 1 1 1 1 1 1 1 1 1 1 1 1 1 1 1 1 1 1 1 1 1 1 1 1 1 1 1 1 1 1 1 1 1 1 1 1 1 1 1 1 1 1 1 1 1 1 1 1 1 1 1 1 1 1 1 1 1 1 1 1 1 1 1 1 1 1 1 1 1 1 1 1 1 1 1 1 1 1 1 1 1 1 1 1 1 1 1 1 1 1 1 1 1 1 1 1 1 1 1 1 1 1 1 1 1 1 1 1 1 1 1 1 1 1 1 1 1 1 1 1 1 1 1 1 1 1 1 1 1 1 1 1 1 1 1 1 1 1 1 1 1 1 1 1 1 1 1 1 1 1 1 1 1 1 1 1 1 1 1 1 1 1 1 1 1 1 1 1 1 1 1 1 1 1 1 1 1 1 1 1 1 1 1 1 1 1 1 1 1 1 1 1 1 1 1 1 1 1 1 1 1 1 1 1 1 1 1 1 1 1 1 1 1 1 1 1 1 1 1 1 1 1 1 1 1 1 1 1 1 1 1 1 1 1 1 1 1 1 1 1 1 1 1 1 1 1 1 1 1 1 1 1 1 1 1 1 1 1 1 1 1 1 1 1 1 1 1 1 1 1 1 1 1 1 1 1 1 1 1 1 1 1 1 1 1 1 1 1 1 1 1 1 1 1 1 1 1 1 1 1 1 1 1 1 1 1 1 1 1 1 1 1 1 1 1 1 1 1 1 1 1 1 1 1 1 1 1 1 1 1 1 1 1 1 1 1 1 1 1 1 1 1 1 1 1 1 1 1 1 1 1 1 1 1 1 1 1 1 1 1 1 1 1 1 1 1 1 1 1 1 1 1 1 1 1 1 1 1 1 1 1 1 1 1 1 1 1 1 1 1 1 1 1 1 1 1 1 1 1 1 1 1 1 1 1 1 1 1 1 1 1 1 1 1 1 1 1 1 1 1 1 1 1 1 1 1 1 1 1 1 1 1 1 1 1 1 1 1 1 1 1 1 1 1 1 1 1 1 1 1 1 1 1 1 1 1 1 1 1 1 1 1 1 1 1 1 1 1 1 1 1 1 1 1 1 1 1 1 1 1 1 1 1 1 1" order="25 25" result="filterResult1"/>
        <feConvolveMatrix divisor="625.0" in="filterResult1" kernelMatrix="1 1 1 1 1 1 1 1 1 1 1 1 1 1 1 1 1 1 1 1 1 1 1 1 1 1 1 1 1 1 1 1 1 1 1 1 1 1 1 1 1 1 1 1 1 1 1 1 1 1 1 1 1 1 1 1 1 1 1 1 1 1 1 1 1 1 1 1 1 1 1 1 1 1 1 1 1 1 1 1 1 1 1 1 1 1 1 1 1 1 1 1 1 1 1 1 1 1 1 1 1 1 1 1 1 1 1 1 1 1 1 1 1 1 1 1 1 1 1 1 1 1 1 1 1 1 1 1 1 1 1 1 1 1 1 1 1 1 1 1 1 1 1 1 1 1 1 1 1 1 1 1 1 1 1 1 1 1 1 1 1 1 1 1 1 1 1 1 1 1 1 1 1 1 1 1 1 1 1 1 1 1 1 1 1 1 1 1 1 1 1 1 1 1 1 1 1 1 1 1 1 1 1 1 1 1 1 1 1 1 1 1 1 1 1 1 1 1 1 1 1 1 1 1 1 1 1 1 1 1 1 1 1 1 1 1 1 1 1 1 1 1 1 1 1 1 1 1 1 1 1 1 1 1 1 1 1 1 1 1 1 1 1 1 1 1 1 1 1 1 1 1 1 1 1 1 1 1 1 1 1 1 1 1 1 1 1 1 1 1 1 1 1 1 1 1 1 1 1 1 1 1 1 1 1 1 1 1 1 1 1 1 1 1 1 1 1 1 1 1 1 1 1 1 1 1 1 1 1 1 1 1 1 1 1 1 1 1 1 1 1 1 1 1 1 1 1 1 1 1 1 1 1 1 1 1 1 1 1 1 1 1 1 1 1 1 1 1 1 1 1 1 1 1 1 1 1 1 1 1 1 1 1 1 1 1 1 1 1 1 1 1 1 1 1 1 1 1 1 1 1 1 1 1 1 1 1 1 1 1 1 1 1 1 1 1 1 1 1 1 1 1 1 1 1 1 1 1 1 1 1 1 1 1 1 1 1 1 1 1 1 1 1 1 1 1 1 1 1 1 1 1 1 1 1 1 1 1 1 1 1 1 1 1 1 1 1 1 1 1 1 1 1 1 1 1 1 1 1 1 1 1 1 1 1 1 1 1 1 1 1 1 1 1 1 1 1 1 1 1 1 1 1 1 1 1 1 1 1 1 1 1 1 1 1 1 1 1 1 1 1 1 1 1 1 1 1 1 1 1 1 1 1 1 1 1 1 1 1 1 1 1 1 1 1 1 1 1 1 1 1 1 1 1 1 1 1 1 1 1 1 1 1 1 1 1 1 1 1 1 1 1 1 1 1 1 1 1 1 1 1 1 1 1 1 1 1 1 1 1 1 1 1 1 1 1 1 1 1 1 1 1 1 1 1 1 1 1 1 1 1 1 1 1 1 1 1 1 1 1 1 1 1 1 1" order="25 25" result="filterResult2"/>
        <feConvolveMatrix divisor="625.0" in="filterResult2" kernelMatrix="1 1 1 1 1 1 1 1 1 1 1 1 1 1 1 1 1 1 1 1 1 1 1 1 1 1 1 1 1 1 1 1 1 1 1 1 1 1 1 1 1 1 1 1 1 1 1 1 1 1 1 1 1 1 1 1 1 1 1 1 1 1 1 1 1 1 1 1 1 1 1 1 1 1 1 1 1 1 1 1 1 1 1 1 1 1 1 1 1 1 1 1 1 1 1 1 1 1 1 1 1 1 1 1 1 1 1 1 1 1 1 1 1 1 1 1 1 1 1 1 1 1 1 1 1 1 1 1 1 1 1 1 1 1 1 1 1 1 1 1 1 1 1 1 1 1 1 1 1 1 1 1 1 1 1 1 1 1 1 1 1 1 1 1 1 1 1 1 1 1 1 1 1 1 1 1 1 1 1 1 1 1 1 1 1 1 1 1 1 1 1 1 1 1 1 1 1 1 1 1 1 1 1 1 1 1 1 1 1 1 1 1 1 1 1 1 1 1 1 1 1 1 1 1 1 1 1 1 1 1 1 1 1 1 1 1 1 1 1 1 1 1 1 1 1 1 1 1 1 1 1 1 1 1 1 1 1 1 1 1 1 1 1 1 1 1 1 1 1 1 1 1 1 1 1 1 1 1 1 1 1 1 1 1 1 1 1 1 1 1 1 1 1 1 1 1 1 1 1 1 1 1 1 1 1 1 1 1 1 1 1 1 1 1 1 1 1 1 1 1 1 1 1 1 1 1 1 1 1 1 1 1 1 1 1 1 1 1 1 1 1 1 1 1 1 1 1 1 1 1 1 1 1 1 1 1 1 1 1 1 1 1 1 1 1 1 1 1 1 1 1 1 1 1 1 1 1 1 1 1 1 1 1 1 1 1 1 1 1 1 1 1 1 1 1 1 1 1 1 1 1 1 1 1 1 1 1 1 1 1 1 1 1 1 1 1 1 1 1 1 1 1 1 1 1 1 1 1 1 1 1 1 1 1 1 1 1 1 1 1 1 1 1 1 1 1 1 1 1 1 1 1 1 1 1 1 1 1 1 1 1 1 1 1 1 1 1 1 1 1 1 1 1 1 1 1 1 1 1 1 1 1 1 1 1 1 1 1 1 1 1 1 1 1 1 1 1 1 1 1 1 1 1 1 1 1 1 1 1 1 1 1 1 1 1 1 1 1 1 1 1 1 1 1 1 1 1 1 1 1 1 1 1 1 1 1 1 1 1 1 1 1 1 1 1 1 1 1 1 1 1 1 1 1 1 1 1 1 1 1 1 1 1 1 1 1 1 1 1 1 1 1 1 1 1 1 1 1 1 1 1 1 1 1 1 1 1 1 1 1 1 1 1 1 1 1 1 1 1 1 1 1 1 1 1 1 1 1 1 1 1 1 1 1 1 1 1 1 1 1 1 1 1 1 1" order="25 25" result="filterResult3"/>
        <feComposite in="SourceGraphic" in2="filterResult3" operator="over" result="filterResult4"/>
        <feFlood flood-color="#f7ac00" flood-opacity="1.0" result="filterResult5"/>
        <feComposite in="filterResult5" in2="filterResult4" operator="out" result="filterResult6"/>
        <feConvolveMatrix divisor="121.0" in="filterResult6" kernelMatrix="1 1 1 1 1 1 1 1 1 1 1 1 1 1 1 1 1 1 1 1 1 1 1 1 1 1 1 1 1 1 1 1 1 1 1 1 1 1 1 1 1 1 1 1 1 1 1 1 1 1 1 1 1 1 1 1 1 1 1 1 1 1 1 1 1 1 1 1 1 1 1 1 1 1 1 1 1 1 1 1 1 1 1 1 1 1 1 1 1 1 1 1 1 1 1 1 1 1 1 1 1 1 1 1 1 1 1 1 1 1 1 1 1 1 1 1 1 1 1 1 1" order="11 11" result="filterResult7"/>
        <feComposite in="filterResult7" in2="filterResult4" operator="in" result="filterResult8"/>
        <feComposite in="filterResult8" in2="filterResult4" operator="over" result="filterResult9"/>
      </filter>
      <use ffdec:characterId="3503" filter="url(#filter0)" height="51.4" transform="matrix(0.9915, 0.1267, -0.1267, 0.9915, -119.95, -80.85)" width="48.95" xlink:href="#sprite3"/>
      <use ffdec:characterId="3505" height="445.25" transform="matrix(1.0, 0.0, 0.0, 1.0, -178.3, -258.05)" width="442.5" xlink:href="#shape7"/>
      <filter id="filter1">
        <feConvolveMatrix divisor="256.0" in="SourceGraphic" kernelMatrix="1 1 1 1 1 1 1 1 1 1 1 1 1 1 1 1 1 1 1 1 1 1 1 1 1 1 1 1 1 1 1 1 1 1 1 1 1 1 1 1 1 1 1 1 1 1 1 1 1 1 1 1 1 1 1 1 1 1 1 1 1 1 1 1 1 1 1 1 1 1 1 1 1 1 1 1 1 1 1 1 1 1 1 1 1 1 1 1 1 1 1 1 1 1 1 1 1 1 1 1 1 1 1 1 1 1 1 1 1 1 1 1 1 1 1 1 1 1 1 1 1 1 1 1 1 1 1 1 1 1 1 1 1 1 1 1 1 1 1 1 1 1 1 1 1 1 1 1 1 1 1 1 1 1 1 1 1 1 1 1 1 1 1 1 1 1 1 1 1 1 1 1 1 1 1 1 1 1 1 1 1 1 1 1 1 1 1 1 1 1 1 1 1 1 1 1 1 1 1 1 1 1 1 1 1 1 1 1 1 1 1 1 1 1 1 1 1 1 1 1 1 1 1 1 1 1 1 1 1 1 1 1 1 1 1 1 1 1 1 1 1 1 1 1 1 1 1 1 1 1 1 1 1 1 1 1" order="16 16" result="filterResult10"/>
        <feConvolveMatrix divisor="256.0" in="filterResult10" kernelMatrix="1 1 1 1 1 1 1 1 1 1 1 1 1 1 1 1 1 1 1 1 1 1 1 1 1 1 1 1 1 1 1 1 1 1 1 1 1 1 1 1 1 1 1 1 1 1 1 1 1 1 1 1 1 1 1 1 1 1 1 1 1 1 1 1 1 1 1 1 1 1 1 1 1 1 1 1 1 1 1 1 1 1 1 1 1 1 1 1 1 1 1 1 1 1 1 1 1 1 1 1 1 1 1 1 1 1 1 1 1 1 1 1 1 1 1 1 1 1 1 1 1 1 1 1 1 1 1 1 1 1 1 1 1 1 1 1 1 1 1 1 1 1 1 1 1 1 1 1 1 1 1 1 1 1 1 1 1 1 1 1 1 1 1 1 1 1 1 1 1 1 1 1 1 1 1 1 1 1 1 1 1 1 1 1 1 1 1 1 1 1 1 1 1 1 1 1 1 1 1 1 1 1 1 1 1 1 1 1 1 1 1 1 1 1 1 1 1 1 1 1 1 1 1 1 1 1 1 1 1 1 1 1 1 1 1 1 1 1 1 1 1 1 1 1 1 1 1 1 1 1 1 1 1 1 1 1" order="16 16" result="filterResult11"/>
      </filter>
      <use ffdec:characterId="3500" filter="url(#filter1)" height="192.9" transform="matrix(1.0, 0.0, 0.0, 1.0, -3.2, -98.15)" width="238.0" xlink:href="#sprite4"/>
    </g>
    <g id="shape5" transform="matrix(1.0, 0.0, 0.0, 1.0, 266.0, 281.15)">
      <path d="M51.8 -79.65 Q41.15 -79.95 30.35 -79.1 L13.45 -77.4 -8.45 -76.4 Q-12.75 -76.45 -15.75 -79.8 -19.15 -83.7 -23.8 -85.6 -32.05 -88.85 -40.1 -92.35 -50.45 -96.7 -57.6 -105.05 -64.05 -112.6 -67.05 -121.95 -69.05 -128.2 -70.05 -134.8 -71.65 -144.95 -76.6 -154.1 -81.2 -162.45 -88.7 -168.55 L-97.3 -175.6 Q-102.9 -180.2 -106.1 -186.85 L-105.75 -187.1 Q-100.9 -187.5 -96.4 -185.85 -91.95 -184.45 -88.4 -181.25 -77.95 -171.95 -71.4 -160.1 L-70.95 -159.9 -66.6 -146.0 -66.1 -145.95 Q-65.55 -141.3 -65.35 -136.6 -64.4 -117.1 -49.55 -104.95 -45.4 -101.6 -40.2 -100.15 -22.55 -95.05 -3.85 -94.9 26.9 -93.1 57.3 -88.5 84.65 -84.4 112.2 -82.7 117.3 -82.4 122.25 -80.8 124.5 -80.0 125.45 -77.65 127.5 -72.8 127.45 -67.45 127.25 -51.0 118.6 -36.65 L117.65 -41.65 Q116.5 -46.95 114.1 -51.55 L111.4 -48.9 Q105.35 -43.0 102.7 -38.6 L104.15 -38.75 104.25 -38.65 101.3 -35.8 101.25 -35.75 98.65 -30.2 Q97.0 -26.7 97.0 -24.5 L96.5 -18.6 Q96.0 -14.75 96.0 -13.65 96.0 -6.6 104.4 -3.25 110.55 -0.85 123.4 0.05 L127.75 0.35 Q123.8 -1.45 120.05 -3.95 L150.6 -1.3 Q159.25 -0.5 163.4 7.25 L164.25 8.8 Q161.55 10.8 158.95 10.25 L159.15 10.7 160.5 14.0 156.45 14.0 156.45 31.05 156.35 30.9 Q155.3 29.3 154.65 26.9 L153.75 23.75 Q150.35 17.5 150.0 16.25 148.3 10.25 144.75 8.3 141.9 6.75 136.95 7.55 L127.65 9.7 Q121.7 11.05 117.75 10.5 108.0 9.2 102.45 7.25 100.1 6.45 96.75 4.5 L92.15 2.4 Q89.3 1.05 88.5 -0.75 87.25 -3.6 86.55 -8.0 86.0 -11.35 86.0 -13.9 86.0 -16.45 86.65 -20.4 L79.25 -19.55 68.65 -32.2 68.6 -40.2 69.0 -40.55 Q70.1 -38.85 71.95 -36.65 77.25 -30.4 83.0 -30.4 85.45 -30.4 89.25 -32.25 91.0 -39.3 92.25 -42.0 94.25 -46.45 98.75 -51.35 103.05 -56.0 107.7 -58.95 L108.6 -59.5 107.7 -60.45 Q100.35 -68.2 90.6 -72.25 80.5 -76.55 69.5 -78.0 L51.8 -79.65" fill="url(#gradient4)" fill-rule="evenodd" stroke="none"/>
      <path d="M202.75 39.95 L201.75 42.9 200.5 46.1 Q199.75 47.5 198.75 47.5 L198.05 47.4 197.95 47.85 197.95 47.35 Q197.2 47.1 196.95 46.35 L196.75 45.1 Q196.75 44.05 197.25 43.05 L197.25 43.0 196.75 43.05 195.85 43.25 194.75 42.85 192.05 46.05 Q186.05 53.65 185.15 60.7 184.55 65.35 185.6 70.95 186.75 77.0 189.2 80.5 197.1 91.95 200.25 95.0 201.0 94.05 202.3 93.3 202.45 92.05 204.4 90.7 L208.4 87.5 210.85 84.15 Q212.8 82.35 215.15 84.85 L219.55 87.55 223.75 90.5 Q224.35 91.0 224.75 92.25 L224.8 92.35 225.15 92.5 226.8 92.7 Q228.15 92.85 229.15 93.6 230.55 94.6 231.55 94.95 L233.85 95.75 240.1 98.05 Q243.7 99.3 245.85 100.75 248.15 102.3 252.0 104.3 253.9 105.4 254.5 106.55 L256.0 107.2 258.85 108.0 260.35 108.25 Q261.15 108.4 262.25 109.0 L263.35 109.9 264.25 110.75 266.1 112.35 267.85 114.25 270.1 116.15 271.75 117.85 Q272.85 119.9 273.0 121.5 L273.0 124.95 272.9 128.95 271.25 133.6 270.75 135.7 Q270.45 137.2 270.0 137.9 268.65 139.9 267.75 142.0 L265.7 146.9 260.55 162.35 260.2 162.3 260.15 162.65 Q260.0 163.6 260.1 166.5 259.9 169.0 258.0 169.0 256.2 169.0 255.95 167.45 L256.0 165.6 255.75 162.0 255.15 158.05 Q255.0 157.1 255.0 155.05 L255.0 153.4 Q255.15 152.55 255.6 152.3 L256.0 151.9 254.9 149.2 253.75 146.5 253.8 145.95 Q252.35 145.7 251.7 143.6 L251.1 140.35 Q250.9 139.3 249.65 137.4 L247.6 134.5 244.35 128.75 Q243.75 127.55 241.6 125.3 239.55 123.2 238.9 123.0 L236.35 121.95 235.85 120.35 233.75 117.5 231.1 114.55 Q229.4 112.8 227.25 111.75 220.4 107.55 217.7 106.25 216.05 105.45 213.65 105.0 213.1 106.75 212.2 107.4 210.2 108.85 204.3 108.1 189.3 106.2 180.75 85.7 177.6 78.3 176.1 70.1 174.8 63.05 175.25 59.65 175.45 57.85 176.5 54.5 177.55 51.2 178.6 48.65 172.9 47.05 169.7 44.4 L170.65 43.4 171.85 41.4 Q172.7 40.6 175.0 39.4 176.95 38.4 177.6 37.4 L178.0 36.6 Q179.2 37.85 180.5 38.05 184.05 38.5 187.0 35.95 L186.8 35.7 Q185.5 34.25 185.5 33.25 184.35 33.35 183.7 32.8 L183.1 32.75 183.4 32.5 183.35 32.4 Q183.0 31.9 183.0 31.25 183.0 30.15 183.95 29.7 L188.0 28.1 191.65 27.8 Q194.1 28.0 195.35 28.75 L196.8 29.35 Q197.6 29.65 197.9 30.15 L200.0 32.1 202.0 34.1 Q202.55 35.15 202.7 35.95 L202.75 37.85 202.75 39.95 M238.25 138.4 L235.45 136.65 Q234.5 135.75 234.5 134.75 234.5 133.0 236.5 132.75 237.55 132.8 238.55 133.65 L240.25 135.0 Q245.5 137.65 245.5 140.05 L245.05 141.2 Q244.4 142.0 243.5 142.0 242.55 142.0 240.75 140.45 L238.25 138.4" fill="url(#gradient5)" fill-rule="evenodd" stroke="none"/>
      <path d="M-106.1 -186.85 Q-102.9 -180.2 -97.3 -175.6 L-88.7 -168.55 Q-81.2 -162.45 -76.6 -154.1 -71.65 -144.95 -70.05 -134.8 -69.05 -128.2 -67.05 -121.95 -64.05 -112.6 -57.6 -105.05 -50.45 -96.7 -40.1 -92.35 -32.05 -88.85 -23.8 -85.6 -19.15 -83.7 -15.75 -79.8 -12.75 -76.45 -8.45 -76.4 L13.45 -77.4 30.35 -79.1 Q41.15 -79.95 51.8 -79.65 L69.5 -78.0 Q80.5 -76.55 90.6 -72.25 100.35 -68.2 107.7 -60.45 115.3 -52.55 117.65 -41.65 L118.6 -36.65 Q127.25 -51.0 127.45 -67.45 127.5 -72.8 125.45 -77.65 124.5 -80.0 122.25 -80.8 117.3 -82.4 112.2 -82.7 84.65 -84.4 57.3 -88.5 26.9 -93.1 -3.85 -94.9 -22.55 -95.05 -40.2 -100.15 -45.4 -101.6 -49.55 -104.95 -64.4 -117.1 -65.35 -136.6 -65.55 -141.3 -66.1 -145.95 L-66.1 -146.0 -66.6 -146.0 -70.95 -159.9 -71.4 -160.1 Q-77.95 -171.95 -88.4 -181.25 -91.95 -184.45 -96.4 -185.85 -100.9 -187.5 -105.75 -187.1 L-106.3 -187.1 -106.15 -186.85 -106.1 -186.85 M67.75 -89.65 L121.0 -85.4 Q125.5 -85.15 128.0 -79.4 L129.3 -73.65 130.4 -67.0 Q130.4 -56.35 124.65 -42.85 L114.9 -23.05 114.65 -22.6 115.0 -22.75 115.3 -22.85 Q115.4 -22.35 114.5 -18.9 L113.55 -15.2 114.35 -14.55 114.65 -13.1 115.15 -11.75 118.55 -8.85 118.35 -8.45 119.3 -7.45 124.55 -6.35 128.7 -6.0 147.75 -5.1 Q154.15 -4.8 158.25 -2.4 160.25 -1.2 163.25 1.9 166.55 5.35 168.5 9.85 170.0 13.4 170.45 16.95 167.65 28.8 162.3 39.75 160.6 44.3 160.25 46.9 L159.65 51.25 166.25 45.95 174.0 39.5 176.95 36.3 179.25 33.85 Q179.25 33.35 179.55 33.0 L180.6 31.75 181.4 30.7 Q181.7 30.4 182.1 30.4 L182.85 28.45 182.8 29.9 182.6 30.4 182.75 30.4 Q186.55 26.8 191.3 26.35 196.85 25.9 200.4 29.85 204.15 34.05 203.25 41.0 202.65 45.25 200.55 48.7 200.1 52.2 200.4 55.0 201.0 60.8 204.7 65.75 207.2 69.0 210.9 76.05 214.8 82.6 221.1 87.05 225.8 90.4 237.4 96.15 L261.65 107.7 Q269.8 111.55 272.8 118.75 274.9 123.75 274.2 129.0 273.6 133.35 270.15 141.45 L270.0 141.9 269.65 143.65 269.25 145.7 Q268.6 150.5 269.2 153.25 L271.3 157.25 Q273.25 160.65 273.2 161.0 L266.15 151.05 265.15 153.55 262.15 162.85 262.9 163.05 263.1 162.9 263.1 163.65 262.75 164.55 262.2 164.7 261.55 164.6 261.25 165.6 Q259.1 172.8 258.2 178.4 L257.7 178.35 257.9 175.65 258.0 173.2 258.35 171.15 257.95 172.35 Q257.1 174.45 254.85 174.15 L253.45 173.85 250.6 175.6 137.25 160.6 Q-0.3 446.9 -263.0 154.0 L-265.45 151.9 -266.0 151.25 Q-266.0 149.45 -263.0 148.0 L-262.8 148.0 -262.95 146.55 -263.0 146.25 -262.95 145.65 -263.0 142.9 Q-264.5 142.3 -264.55 139.4 L-265.25 139.05 Q-265.35 139.75 -265.35 138.5 -265.35 137.85 -264.4 137.55 L-264.35 134.05 -264.4 129.55 -264.25 125.05 -264.2 120.55 Q-264.15 117.85 -264.25 116.05 -264.3 114.6 -264.95 111.55 L-265.35 109.3 -265.85 109.3 -265.85 -186.65 Q-264.9 -187.6 -259.1 -187.5 -250.55 -187.15 -244.65 -187.15 L-213.7 -188.65 -199.5 -190.65 -188.4 -192.4 Q-179.45 -193.45 -209.1 -221.4 -202.15 -279.55 -190.3 -281.1 -185.1 -281.8 -178.95 -271.7 L-177.05 -268.65 Q-165.15 -250.15 -153.6 -246.6 -146.35 -244.4 -139.75 -247.85 L-127.6 -233.5 -114.1 -217.5 -98.2 -199.6 Q-90.4 -191.1 -84.5 -181.65 L-84.65 -181.45 -80.1 -175.4 -76.0 -170.8 Q-75.7 -171.65 -73.7 -171.35 -71.3 -171.05 -68.35 -169.4 -62.95 -166.4 -61.3 -162.5 L-61.0 -162.25 Q-59.65 -161.25 -59.35 -159.25 L-59.25 -155.9 Q-59.25 -153.15 -59.95 -151.2 -60.95 -148.45 -63.6 -146.45 L-63.5 -143.9 -62.3 -135.35 -58.65 -137.15 -53.5 -139.15 -52.7 -138.75 Q-52.35 -138.45 -52.35 -137.6 -52.35 -136.55 -54.45 -131.25 -56.05 -127.1 -57.35 -125.15 -58.2 -122.15 -58.9 -120.45 L-58.05 -118.5 Q-54.4 -111.05 -48.0 -106.75 -43.3 -103.6 -38.45 -101.9 -30.15 -99.05 -17.25 -98.15 L2.3 -97.2 12.0 -96.9 14.4 -96.45 18.5 -95.9 38.5 -93.9 52.35 -91.85 67.75 -89.65 M68.6 -40.2 L68.65 -32.2 79.25 -19.55 93.8 -21.25 Q96.05 -31.75 104.25 -38.65 L104.4 -38.75 104.15 -38.75 Q99.95 -38.75 93.3 -34.55 86.65 -30.4 83.0 -30.4 77.25 -30.4 71.95 -36.65 70.1 -38.85 69.0 -40.55 L68.65 -41.15 68.6 -40.2 M150.6 -1.3 L120.05 -3.95 Q133.25 4.9 149.4 4.85 152.65 5.5 154.95 7.8 159.5 12.35 164.25 8.8 L163.4 7.25 Q159.25 -0.5 150.6 -1.3 M165.75 11.4 L165.65 11.15 165.6 11.2 165.75 11.4 M167.25 24.4 L167.3 24.3 167.25 24.3 167.25 24.4 M183.95 32.6 Q197.55 33.6 198.2 47.65 L198.65 45.6 199.1 45.7 200.3 42.85 Q203.1 34.55 195.35 30.8 190.2 28.35 185.7 30.9 L183.95 32.6 M222.95 91.3 Q217.9 88.4 212.85 85.7 204.45 90.4 199.55 99.25 L197.65 102.55 Q211.65 100.15 224.6 105.9 233.75 110.2 241.0 117.1 246.55 122.4 250.05 128.8 254.75 137.45 256.4 147.15 257.55 154.25 257.35 161.45 L257.7 162.1 260.3 162.5 Q266.95 143.95 271.75 125.15 272.1 123.75 271.65 122.35 269.8 116.5 264.45 113.25 252.9 105.95 240.55 100.25 231.65 96.25 222.95 91.3 M258.5 164.6 Q258.85 166.75 258.7 168.95 L258.65 169.3 259.8 164.35 258.45 164.2 258.5 164.6 M119.65 140.8 L119.75 140.4 119.65 140.4 119.65 140.8 M-175.0 -84.75 L-174.75 -84.65 -174.7 -84.7 -174.45 -86.0 -175.0 -84.75 M-55.4 -135.6 L-55.35 -135.5 -55.1 -135.75 -55.4 -135.6 M-65.2 -147.5 L-64.75 -148.25 -65.1 -148.35 -65.2 -147.5 M-60.0 -123.45 L-59.9 -123.05 -59.7 -123.55 -60.0 -123.45 M-113.5 -186.8 L-113.5 -187.1 -114.45 -187.1 -113.5 -186.8 M-104.35 -178.3 L-104.35 -177.5 -104.05 -177.75 -104.35 -178.3 M-107.5 -183.9 L-107.95 -184.7 -108.0 -184.75 -108.5 -184.5 -107.5 -183.9" fill="#000000" fill-rule="evenodd" stroke="none"/>
      <path d="M-106.15 -186.85 L-106.3 -187.1 -105.75 -187.1 -106.15 -186.85 M69.0 -40.55 L68.6 -40.2 68.65 -41.15 69.0 -40.55 M-107.5 -183.9 L-108.5 -184.5 -108.0 -184.75 -107.95 -184.7 -107.5 -183.9 M-104.35 -178.3 L-104.05 -177.75 -104.35 -177.5 -104.35 -178.3" fill="#ffffff" fill-rule="evenodd" stroke="none"/>
      <path d="M-106.1 -186.85 L-106.15 -186.85 -105.75 -187.1 -106.1 -186.85" fill="#454c27" fill-rule="evenodd" stroke="none"/>
      <path d="M58.1 -2.55 L59.1 -2.05 Q57.55 9.4 56.6 20.85 55.35 36.25 59.75 50.8 62.35 59.5 65.5 68.05 73.5 89.4 82.75 110.1 86.65 118.85 91.55 127.05 94.9 132.8 99.1 137.95 L104.4 144.25 Q109.1 149.5 112.2 156.0 L113.2 158.1 Q110.7 157.0 108.9 154.7 L78.05 115.05 Q72.05 107.35 66.7 99.15 60.7 89.85 55.6 80.2 51.35 71.95 50.35 62.85 49.4 54.05 50.45 45.1 L52.75 26.2 Q53.85 17.95 55.5 9.85 L58.1 -2.55" fill="url(#gradient6)" fill-rule="evenodd" stroke="none"/>
      <path d="M-100.55 -79.45 L-100.45 -80.6 Q-96.8 -81.8 -92.65 -80.45 -82.3 -77.35 -73.85 -70.6 L-70.4 -66.9 Q-52.3 -47.0 -58.7 -20.05 L-58.8 -19.5 -59.2 -18.15 Q-60.35 -14.35 -62.2 -11.1 L-62.2 -11.55 -62.4 -11.3 -62.85 -10.85 -62.8 -10.65 -63.0 -10.8 -63.05 -10.8 Q-63.55 -10.9 -63.7 -11.3 L-67.05 -13.6 -68.2 -14.5 Q-72.5 -17.6 -79.05 -20.5 -95.7 -27.95 -114.35 -29.05 L-110.8 -28.95 -122.05 -30.1 Q-122.9 -30.15 -123.4 -29.8 L-125.45 -30.5 -125.55 -32.3 Q-111.9 -47.25 -104.8 -66.25 -102.3 -72.85 -100.55 -79.45" fill="url(#gradient7)" fill-rule="evenodd" stroke="none"/>
      <path d="M-64.25 -34.5 L-64.45 -34.5 Q-65.15 -34.55 -65.7 -35.05 L-65.75 -35.15 -64.25 -34.5 M-55.1 -31.7 L-55.5 -31.65 Q-56.05 -31.65 -57.75 -32.35 L-59.35 -32.95 -55.1 -31.7" fill="#1f2211" fill-rule="evenodd" stroke="none"/>
      <path d="M-182.15 -142.15 Q-184.6 -143.5 -185.15 -144.05 L-187.6 -146.05 Q-189.45 -147.55 -189.45 -148.2 -189.45 -149.95 -187.2 -148.95 -185.3 -148.1 -184.25 -146.8 -183.7 -145.8 -181.7 -144.9 L-178.3 -143.15 Q-177.0 -142.2 -174.2 -138.8 L-171.8 -136.75 -169.2 -134.5 Q-168.45 -133.5 -166.6 -132.35 L-163.05 -130.25 Q-161.95 -129.55 -160.75 -128.2 L-158.9 -125.9 Q-157.4 -124.25 -153.5 -121.45 L-148.2 -117.3 -143.1 -112.9 Q-139.7 -110.4 -135.95 -108.9 L-128.3 -106.05 Q-123.05 -104.05 -120.65 -102.5 -114.9 -98.7 -112.1 -94.05 -109.55 -89.85 -109.55 -85.25 -109.55 -81.8 -110.55 -78.2 L-111.55 -74.15 -110.9 -70.2 Q-110.3 -66.0 -110.3 -63.4 L-110.5 -59.0 Q-110.6 -57.8 -111.45 -56.9 L-111.85 -55.85 -112.0 -54.85 -111.3 -52.25 -111.3 -51.3 -111.75 -51.3 Q-111.75 -52.5 -112.6 -55.1 L-113.5 -57.85 Q-112.75 -60.4 -112.75 -60.65 L-112.75 -63.5 -113.25 -68.9 Q-113.35 -70.55 -113.7 -71.85 L-114.0 -74.25 Q-114.0 -75.95 -113.0 -79.5 -112.0 -83.05 -112.0 -85.25 -112.0 -89.2 -115.15 -93.85 -118.8 -99.15 -124.45 -101.75 L-131.15 -104.35 -131.75 -104.55 Q-133.9 -105.25 -135.95 -106.2 -139.05 -107.4 -140.0 -107.9 -142.1 -109.0 -145.2 -111.55 L-150.0 -115.75 -155.4 -120.0 -160.5 -124.15 Q-161.35 -125.05 -165.65 -127.95 -169.5 -130.55 -170.5 -132.05 L-172.65 -134.1 -175.2 -136.15 -179.15 -140.3 Q-179.7 -140.9 -182.15 -142.15" fill="url(#gradient8)" fill-rule="evenodd" stroke="none"/>
    </g>
    <linearGradient gradientTransform="matrix(0.0224, 0.1591, -0.1975, 0.0278, 60.6, -73.3)" gradientUnits="userSpaceOnUse" id="gradient4" spreadMethod="pad" x1="-819.2" x2="819.2">
      <stop offset="0.0" stop-color="#f79400"/>
      <stop offset="1.0" stop-color="#39603d"/>
    </linearGradient>
    <linearGradient gradientTransform="matrix(0.002, 0.1606, -0.1993, 0.0025, 85.1, -74.75)" gradientUnits="userSpaceOnUse" id="gradient5" spreadMethod="pad" x1="-819.2" x2="819.2">
      <stop offset="0.0" stop-color="#f79400"/>
      <stop offset="1.0" stop-color="#39603d"/>
    </linearGradient>
    <linearGradient gradientTransform="matrix(0.0444, 0.0041, -0.0087, 0.0941, 84.05, 77.6)" gradientUnits="userSpaceOnUse" id="gradient6" spreadMethod="pad" x1="-819.2" x2="819.2">
      <stop offset="0.0" stop-color="#454c27"/>
      <stop offset="1.0" stop-color="#000000"/>
    </linearGradient>
    <linearGradient gradientTransform="matrix(0.0166, 0.0307, -0.0353, 0.019, -84.1, -24.4)" gradientUnits="userSpaceOnUse" id="gradient7" spreadMethod="pad" x1="-819.2" x2="819.2">
      <stop offset="0.0" stop-color="#000000"/>
      <stop offset="1.0" stop-color="#5b6434"/>
    </linearGradient>
    <linearGradient gradientTransform="matrix(-0.0346, -0.0333, 0.0388, -0.0403, -163.3, -122.95)" gradientUnits="userSpaceOnUse" id="gradient8" spreadMethod="pad" x1="-819.2" x2="819.2">
      <stop offset="0.0" stop-color="#1f2211"/>
      <stop offset="1.0" stop-color="#000000"/>
    </linearGradient>
    <g id="sprite3" transform="matrix(1.0, 0.0, 0.0, 1.0, 0.0, 0.0)">
      <use ffdec:characterId="3502" height="51.4" transform="matrix(1.0, 0.0, 0.0, 1.0, 0.0, 0.0)" width="48.95" xlink:href="#shape6"/>
    </g>
    <g id="shape6" transform="matrix(1.0, 0.0, 0.0, 1.0, 0.0, 0.0)">
      <path d="M37.65 8.15 Q41.9 11.4 48.95 18.05 45.05 20.45 43.2 21.25 40.25 22.6 34.65 25.8 28.85 29.1 26.95 30.6 24.6 32.4 14.45 39.3 4.85 46.25 0.05 51.4 L0.0 51.3 Q1.6 49.75 3.3 45.2 L7.3 34.75 Q9.0 31.35 10.9 25.9 L14.05 16.75 Q15.55 12.5 18.9 0.0 29.8 2.1 37.65 8.15" fill="#ffffff" fill-rule="evenodd" stroke="none"/>
    </g>
    <g id="shape7" transform="matrix(1.0, 0.0, 0.0, 1.0, 178.3, 258.05)">
      <path d="M56.4 -58.6 Q65.4 -58.6 72.4 -47.9 L77.15 -40.55 Q79.7 -37.2 82.2 -37.2 91.75 -37.2 96.5 -39.4 L99.8 -42.0 Q101.15 -43.05 102.65 -43.8 104.4 -44.7 108.2 -46.2 L105.7 -54.9 Q103.9 -60.6 101.2 -63.6 96.15 -69.25 78.6 -73.2 64.3 -76.4 54.6 -76.4 L6.4 -74.6 2.35 -74.0 -2.4 -73.4 Q-13.6 -73.4 -20.6 -77.85 L-27.1 -82.15 Q-31.55 -84.8 -37.0 -86.6 -42.5 -88.4 -51.5 -93.55 -60.25 -98.55 -62.2 -100.8 -68.55 -108.25 -72.35 -115.4 -76.85 -123.8 -77.2 -130.8 -78.1 -145.5 -84.15 -155.45 -88.55 -162.6 -96.95 -168.85 -109.2 -178.0 -138.8 -207.9 -168.4 -237.8 -176.85 -253.5 -185.3 -269.2 -145.1 -230.6 -104.95 -192.05 -99.0 -186.8 L-92.35 -179.65 -84.8 -171.8 Q-72.6 -158.4 -69.2 -141.2 -66.75 -128.75 -66.0 -126.4 -63.4 -118.1 -57.2 -110.6 -53.25 -105.8 -44.2 -100.85 -37.85 -97.3 -33.4 -95.8 -29.9 -94.6 -20.2 -88.5 -10.25 -83.0 -2.0 -83.0 L4.65 -83.55 22.2 -84.6 34.05 -85.2 46.0 -85.8 Q77.4 -85.8 95.95 -77.6 109.1 -71.75 111.8 -64.6 L116.8 -52.65 Q119.8 -45.0 119.8 -40.6 L119.65 -36.4 Q118.75 -33.4 114.8 -33.4 113.45 -33.4 111.65 -34.7 109.9 -36.0 109.2 -36.0 L101.3 -31.9 93.2 -27.8 81.6 -27.8 Q77.95 -27.95 76.35 -28.75 75.05 -29.4 72.85 -31.85 L66.6 -38.4 62.9 -44.0 Q59.2 -49.2 57.8 -49.2 53.15 -49.2 52.05 -46.8 L51.8 -44.2 Q51.8 -42.5 53.85 -38.45 55.95 -34.3 58.0 -32.2 60.8 -29.25 65.95 -26.0 L72.2 -22.0 78.0 -16.4 83.6 -10.6 Q86.0 -8.2 90.9 -6.0 99.35 -2.2 110.0 -2.2 L115.0 -3.2 120.0 -4.2 Q122.6 -4.2 128.25 -2.4 134.4 -0.4 136.0 -0.2 L144.35 1.5 153.4 3.6 Q158.3 4.95 160.8 8.8 162.0 10.7 163.0 14.4 L165.35 22.3 Q161.6 25.6 158.25 29.3 L157.0 24.2 Q156.0 20.3 154.6 17.4 152.85 13.75 151.0 13.0 147.75 11.65 133.9 8.5 L120.4 5.6 Q119.4 5.6 117.8 6.5 116.2 7.4 115.2 7.4 95.9 7.4 85.2 2.5 81.45 0.8 76.8 -3.6 L70.6 -9.45 Q66.15 -13.4 60.4 -17.4 49.05 -25.3 45.6 -30.95 42.6 -35.8 42.6 -44.4 42.6 -49.65 43.8 -52.2 46.8 -58.6 56.4 -58.6 M160.55 43.45 Q158.95 45.0 157.4 47.3 L153.4 53.0 153.35 52.9 152.25 46.3 Q155.6 42.6 159.35 39.3 L160.35 42.7 160.55 43.45 M162.7 54.4 L163.85 64.7 165.0 76.4 Q165.1 79.85 165.7 81.95 166.75 85.65 169.4 87.8 L174.35 93.8 Q178.05 98.4 179.4 98.4 L183.35 96.8 Q186.95 95.2 189.2 95.2 211.2 95.2 226.05 101.6 241.8 108.35 250.2 122.6 L260.1 138.75 Q264.2 146.5 264.2 154.4 264.2 157.9 263.7 159.3 263.25 160.55 260.2 165.8 257.9 169.75 258.55 171.7 259.8 175.55 259.8 176.6 L259.5 181.1 Q259.2 184.8 259.2 186.8 L258.8 187.2 258.35 182.9 258.0 178.4 Q255.8 171.7 255.8 170.3 255.8 169.3 256.7 166.1 L257.6 161.9 Q257.6 161.15 256.55 159.3 255.4 157.25 255.0 153.8 254.7 151.15 252.8 146.6 250.4 141.0 244.0 131.6 240.35 124.2 232.55 117.95 217.3 105.6 192.7 105.6 186.75 105.6 185.0 107.4 183.25 109.2 181.2 109.2 174.4 109.2 165.55 99.85 157.9 91.75 156.6 86.8 155.5 82.8 155.25 75.75 L154.65 64.25 Q155.95 63.3 157.2 61.3 160.4 56.2 162.55 54.5 L162.7 54.4" fill="#000000" fill-opacity="0.15294118" fill-rule="evenodd" stroke="none"/>
    </g>
    <g id="sprite4" transform="matrix(1.0, 0.0, 0.0, 1.0, 0.0, 0.0)">
      <use ffdec:characterId="3499" height="192.9" transform="matrix(1.0, 0.0, 0.0, 1.0, 0.0, 0.0)" width="238.0" xlink:href="#shape8"/>
    </g>
    <g id="shape8" transform="matrix(1.0, 0.0, 0.0, 1.0, 0.0, 0.0)">
      <path d="M78.3 12.45 L77.4 12.15 73.85 11.5 73.15 11.3 71.05 10.7 70.45 10.55 Q68.6 9.75 66.2 9.15 L49.25 6.25 43.4 5.25 38.1 4.35 34.4 3.6 27.45 3.05 19.05 2.65 16.85 2.4 6.95 1.85 5.9 1.55 3.5 1.3 2.4 1.0 0.8 0.9 Q0.0 0.8 0.0 0.45 0.0 -0.3 3.4 0.15 L12.4 0.95 15.25 0.75 20.1 0.5 29.2 0.85 33.8 1.3 37.2 1.45 37.2 1.35 59.65 3.55 81.6 5.75 96.0 4.85 110.4 3.95 Q114.2 3.95 128.8 9.55 131.65 10.6 133.3 13.4 134.25 14.95 135.2 17.35 136.65 19.85 136.95 24.8 L137.0 32.35 Q137.0 46.0 131.0 60.95 L126.9 70.75 Q125.0 75.45 125.0 77.95 125.0 81.65 125.25 82.55 125.95 85.15 129.0 86.95 130.75 88.0 136.75 88.1 L147.0 88.15 158.25 89.0 Q159.3 89.2 161.8 90.75 166.65 93.8 170.75 98.7 L173.2 101.95 172.95 102.55 Q174.15 104.1 174.35 106.95 175.6 114.1 175.6 119.7 L175.45 127.7 175.25 128.3 177.2 126.75 184.5 121.7 Q192.4 116.3 198.3 117.85 200.1 118.35 201.25 119.15 L201.3 119.0 Q205.45 120.65 208.05 123.5 211.8 127.55 211.6 132.35 211.25 140.25 209.45 147.15 208.15 152.15 212.8 162.65 218.55 175.65 219.05 178.6 L219.15 178.95 219.15 179.0 219.25 179.05 224.9 183.95 227.85 186.45 231.1 188.9 234.95 190.7 Q237.5 191.95 238.0 192.55 238.1 192.95 237.6 192.9 L236.1 192.15 Q234.75 191.45 233.5 191.1 L232.85 190.6 231.85 190.25 230.85 189.85 230.0 189.55 225.0 187.0 222.6 185.25 220.25 183.65 Q218.55 182.7 217.6 181.75 L215.85 180.15 Q214.3 178.6 212.95 176.7 L211.55 174.35 209.75 171.9 Q207.3 168.4 204.95 163.65 201.95 157.7 201.4 150.25 201.25 147.85 201.65 143.65 L202.3 137.0 Q202.6 135.3 202.4 134.1 202.0 131.75 199.25 129.8 197.45 128.45 194.2 127.85 L192.95 129.1 188.25 134.15 Q187.0 135.6 183.35 138.3 179.45 141.15 178.5 142.15 177.35 143.35 174.15 145.75 L169.5 149.4 Q167.35 151.35 164.6 155.1 163.45 156.65 161.1 156.65 158.4 156.65 157.5 154.4 L157.1 152.05 Q157.1 151.45 158.2 149.7 L158.1 148.8 Q158.1 148.25 160.6 139.65 L163.6 128.95 Q165.1 121.7 165.1 118.9 L165.1 113.95 Q165.1 112.85 165.4 111.95 L164.55 108.8 Q163.9 106.45 163.0 105.55 L160.55 102.3 Q159.0 100.25 156.8 99.15 154.3 97.9 149.4 97.9 144.5 97.85 141.8 96.55 L137.2 96.95 131.6 97.55 Q126.25 97.55 121.45 93.4 117.4 89.95 117.2 87.75 116.6 81.75 116.6 77.55 116.6 71.45 122.6 56.4 128.6 41.35 128.6 33.15 L128.15 27.6 Q127.55 23.2 126.6 20.55 126.35 19.65 124.15 18.4 121.9 17.05 118.2 15.75 L109.6 15.15 103.4 14.55 100.6 14.3 99.75 14.1 97.65 14.2 95.45 13.75 86.35 13.55 85.75 13.35 84.5 13.15 82.55 12.9 80.4 12.7 78.3 12.45" fill="#ffcc00" fill-opacity="0.44705883" fill-rule="evenodd" stroke="none"/>
    </g>
    <g id="sprite5" transform="matrix(1.0, 0.0, 0.0, 1.0, 265.1, 150.0)">
      <use ffdec:characterId="3477" height="300.0" transform="matrix(1.0, 0.0, 0.0, 1.0, -265.1, -150.0)" width="533.0" xlink:href="#shape9"/>
    </g>
    <g id="shape9" transform="matrix(1.0, 0.0, 0.0, 1.0, 265.1, 150.0)">
      <path d="M267.9 -150.0 L267.9 150.0 -265.1 150.0 -265.1 -150.0 267.9 -150.0 Z" fill="none" stroke="#ff0000" stroke-linecap="round" stroke-linejoin="round" stroke-width="0.05"/>
      <path d="M1.4 -16.05 L1.45 -16.05 Q9.35 -16.05 14.95 -11.35 20.55 -6.65 20.55 0.0 L39.5 0.0 M20.55 0.0 Q20.55 6.65 14.95 11.35 9.35 16.05 1.45 16.05 L1.4 16.05 1.4 21.45 M-36.65 0.0 L-17.55 0.0 -17.55 -0.05 Q-17.55 -6.65 -11.95 -11.35 -6.4 -16.05 1.4 -16.05 M1.4 16.05 Q-6.4 16.05 -11.95 11.35 -17.55 6.65 -17.55 0.0" fill="none" stroke="#ff0000" stroke-linecap="round" stroke-linejoin="round" stroke-opacity="0.2509804" stroke-width="0.05"/>
      <path d="M1.4 -16.05 L1.4 -21.4" fill="none" stroke="#ff0000" stroke-linecap="round" stroke-linejoin="round" stroke-opacity="0.2509804" stroke-width="1.0"/>
      <path d="M181.15 141.4 L181.15 123.6 191.05 123.6 191.05 141.4 181.15 141.4" fill="#ffffff" fill-rule="evenodd" stroke="none"/>
      <path d="M250.55 123.6 L260.45 123.6 260.45 141.4 260.35 141.4 250.55 141.4 250.55 123.6" fill="#000000" fill-rule="evenodd" stroke="none"/>
      <path d="M230.7 123.6 L240.6 123.6 240.6 141.4 230.7 141.4 230.7 123.6" fill="#ff0000" fill-rule="evenodd" stroke="none"/>
      <path d="M191.05 123.6 L201.0 123.6 201.0 141.4 191.05 141.4 191.05 123.6" fill="#ffff00" fill-rule="evenodd" stroke="none"/>
      <path d="M201.0 123.6 L210.9 123.6 210.9 141.4 201.0 141.4 201.0 123.6" fill="#00ffff" fill-rule="evenodd" stroke="none"/>
      <path d="M210.9 123.6 L220.8 123.6 220.8 141.4 210.9 141.4 210.9 123.6" fill="#00ff00" fill-rule="evenodd" stroke="none"/>
      <path d="M220.8 123.6 L230.7 123.6 230.7 141.4 220.8 141.4 220.8 123.6" fill="#ff00ff" fill-rule="evenodd" stroke="none"/>
      <path d="M240.6 123.6 L250.55 123.6 250.55 141.4 240.6 141.4 240.6 123.6" fill="#0000ff" fill-rule="evenodd" stroke="none"/>
      <path d="M260.35 141.4 L260.35 145.4 181.1 145.4 181.1 141.4 181.15 141.4 191.05 141.4 201.0 141.4 210.9 141.4 220.8 141.4 230.7 141.4 240.6 141.4 250.55 141.4 260.35 141.4" fill="url(#gradient9)" fill-rule="evenodd" stroke="none"/>
    </g>
    <linearGradient gradientTransform="matrix(0.0484, 0.0, 0.0, 0.0024, 220.7, 143.35)" gradientUnits="userSpaceOnUse" id="gradient9" spreadMethod="pad" x1="-819.2" x2="819.2">
      <stop offset="0.0" stop-color="#ffffff"/>
      <stop offset="1.0" stop-color="#000000"/>
    </linearGradient>
  </defs>
</svg>
