<?xml version="1.0" encoding="UTF-8" standalone="no"?>
<svg xmlns:ffdec="https://www.free-decompiler.com/flash" xmlns:xlink="http://www.w3.org/1999/xlink" ffdec:objectType="frame" height="4004.1px" width="7682.6px" xmlns="http://www.w3.org/2000/svg">
  <g transform="matrix(2.0, 0.0, 0.0, 2.0, 4622.9, 1925.9)">
    <use ffdec:characterId="333" height="372.95" transform="matrix(2.0745, 0.0, 0.0, 1.0111, -262.0106, -216.0102)" width="608.0" xlink:href="#shape0"/>
    <use ffdec:characterId="3548" height="201.8" transform="matrix(1.2274, 0.0, 0.0, 1.2274, 85.1161, -143.3668)" width="138.3" xlink:href="#sprite0"/>
    <use ffdec:characterId="3497" height="2.0" transform="matrix(-1.6289, 0.0, 0.0, 1.6289, 122.15, 96.4)" width="2.0" xlink:href="#shape3"/>
    <use ffdec:characterId="3497" height="2.0" transform="matrix(1.6289, 0.0, 0.0, 1.6289, 39.45, 176.5)" width="2.0" xlink:href="#shape3"/>
    <use ffdec:characterId="3496" height="524.1" transform="matrix(1.5737, 0.0, 0.0, 1.5737, -420.3249, -346.2749)" width="524.1" xlink:href="#sprite1"/>
    <use ffdec:characterId="3478" height="300.0" transform="matrix(0.3786, 0.0, 0.0, 0.3786, 172.6369, -167.1379)" width="533.0" xlink:href="#sprite2"/>
  </g>
  <defs>
    <g id="shape0" transform="matrix(1.0, 0.0, 0.0, 1.0, -26.7, -26.05)">
      <path d="M634.7 26.05 L634.7 399.0 26.7 399.0 26.7 26.05 634.7 26.05" fill="#000000" fill-rule="evenodd" stroke="none"/>
    </g>
    <g id="sprite0" transform="matrix(1.0, 0.0, 0.0, 1.0, -2.05, -16.2)">
      <use ffdec:characterId="3536" height="201.8" transform="matrix(1.0, 0.0, 0.0, 1.0, 2.05, 16.2)" width="138.3" xlink:href="#shape1"/>
      <use ffdec:characterId="3535" height="199.1" transform="matrix(1.0, 0.0, 0.0, 1.0, 2.05, 17.4)" width="138.15" xlink:href="#shape2"/>
    </g>
    <g id="shape1" transform="matrix(1.0, 0.0, 0.0, 1.0, -2.05, -16.2)">
      <path d="M32.35 169.75 L32.65 168.85 Q40.2 172.15 37.8 180.3 L36.55 180.05 36.1 173.7 35.65 173.5 Q33.25 172.25 32.35 169.75 M40.1 172.0 Q37.05 171.15 35.8 167.95 L36.6 166.9 Q44.05 170.85 41.9 180.05 L40.4 180.0 Q38.4 176.3 40.1 172.0 M19.8 164.35 Q30.45 183.55 27.7 204.5 27.3 207.45 24.6 208.95 L21.95 210.15 15.95 210.95 15.55 210.25 14.9 209.1 13.65 206.75 Q4.0 188.15 2.1 166.8 1.7 162.5 4.65 159.05 15.0 154.2 19.8 164.5 L19.8 164.35 M42.0 166.15 L42.85 166.6 Q47.9 170.75 46.45 177.45 L44.9 177.35 Q43.8 174.25 45.0 170.75 40.35 169.7 42.0 166.15 M78.6 189.55 Q77.7 192.15 75.8 195.05 73.7 198.2 71.05 200.65 L69.7 201.85 69.35 202.15 67.05 203.8 Q65.3 204.95 60.75 207.25 55.75 209.8 54.1 210.8 L45.5 215.65 Q41.05 217.65 36.55 218.0 L33.3 217.55 Q35.2 212.4 37.05 208.45 L36.75 208.5 Q44.75 190.95 61.55 179.95 66.3 176.9 71.8 177.55 76.4 178.4 78.35 182.8 79.25 186.3 78.6 189.55" fill="url(#gradient0)" fill-rule="evenodd" stroke="none"/>
      <path d="M104.7 139.55 L104.75 139.0 104.8 139.0 104.7 139.55" fill="#000000" fill-rule="evenodd" stroke="none"/>
      <path d="M61.6 122.0 L66.45 122.95 73.05 124.55 75.65 126.0 Q77.55 127.15 79.15 127.15 L79.65 127.05 76.35 124.45 Q74.1 123.15 70.8 122.55 63.35 121.25 60.6 121.1 55.15 120.75 53.5 122.55 L61.6 122.0 M81.7 73.65 L81.7 73.7 82.85 73.9 84.7 74.45 Q87.25 75.15 92.25 77.85 L92.45 77.95 92.85 78.0 94.1 78.8 Q95.65 79.45 96.9 80.2 98.65 81.3 99.85 82.55 L101.2 83.85 Q104.25 103.65 117.35 117.8 L103.45 163.55 104.35 163.65 118.1 133.45 Q119.2 131.0 121.8 131.05 122.7 137.7 121.75 144.1 L121.7 144.1 121.3 144.05 121.0 148.0 Q118.85 157.1 112.85 165.65 107.25 173.55 98.05 174.3 94.25 172.25 90.35 171.05 L89.95 170.95 89.8 170.9 Q86.65 169.85 83.65 169.6 L76.95 169.35 72.1 169.15 71.65 169.8 71.65 169.9 66.3 171.0 Q55.2 162.0 46.9 150.2 46.15 149.2 46.4 147.9 48.35 137.0 48.9 126.25 L49.4 123.8 49.05 123.05 Q49.45 109.15 47.55 95.5 L40.05 112.05 Q35.55 112.8 31.15 114.1 L24.5 113.9 23.2 114.55 18.5 113.55 18.0 112.7 Q22.3 101.05 28.8 90.3 L34.35 82.0 Q41.45 73.25 52.5 73.95 L49.1 91.7 58.6 70.2 60.65 69.75 61.4 71.2 Q63.4 71.6 64.9 72.6 L65.2 72.85 67.1 74.9 68.75 76.35 68.75 76.3 69.3 76.3 69.95 74.35 Q74.8 73.15 79.75 73.45 L81.7 73.65 M43.15 129.1 Q40.5 138.3 33.6 146.1 28.85 151.4 22.3 150.2 L26.75 129.15 27.3 127.0 30.0 117.45 37.7 118.45 Q41.85 119.15 44.45 122.2 L43.45 127.3 43.15 129.1 M17.95 114.15 L18.0 114.05 18.0 114.0 18.15 114.2 17.95 114.15 M29.6 150.95 L29.65 150.9 29.65 150.95 29.6 150.95 M104.7 139.55 L104.8 139.0 104.75 139.0 104.7 139.55" fill="url(#gradient1)" fill-rule="evenodd" stroke="none"/>
      <path d="M111.7 97.85 Q118.95 121.1 139.6 132.15 L139.35 133.15 138.5 133.5 Q130.15 131.05 123.95 124.6 L124.1 125.7 Q117.0 117.7 111.55 108.35 105.6 98.1 108.35 85.95 109.85 91.95 111.7 97.85 M109.45 85.05 L119.35 79.45 Q126.25 79.65 130.4 85.55 139.45 98.5 140.25 115.55 140.55 123.05 139.7 130.75 114.65 115.05 109.45 85.05" fill="url(#gradient2)" fill-rule="evenodd" stroke="none"/>
      <path d="M105.75 21.7 L107.5 22.2 108.05 24.45 108.8 27.45 107.2 28.2 Q106.25 28.75 105.6 29.6 104.85 30.5 104.95 30.9 L105.05 31.1 105.05 31.15 105.1 31.3 105.1 31.35 105.15 31.3 105.15 31.35 105.35 32.2 Q105.4 32.7 105.95 33.15 L106.85 34.0 107.7 34.65 107.7 34.8 Q107.25 35.45 107.35 35.7 L107.35 35.75 Q107.2 36.15 107.35 36.65 L107.85 37.95 108.25 39.45 108.6 40.75 108.7 41.75 108.15 42.75 107.65 43.1 107.85 42.0 107.7 41.0 Q107.5 39.5 105.9 36.1 104.15 32.7 103.95 31.25 103.85 31.0 103.9 30.15 L103.9 29.45 103.85 28.85 Q103.7 28.1 102.75 27.15 L102.55 26.9 101.05 25.95 99.65 24.9 98.45 24.05 97.3 23.35 95.1 21.65 94.45 21.25 94.9 21.05 95.35 20.9 95.95 20.6 96.65 20.3 98.1 19.85 98.2 19.65 97.35 19.35 95.85 19.25 93.9 19.05 94.3 18.15 95.25 17.9 96.3 17.55 Q97.0 17.35 97.95 16.8 L98.9 16.2 99.1 16.55 Q100.0 17.95 101.95 19.8 L103.55 20.85 105.75 21.7 M97.55 26.75 L98.15 27.35 97.5 27.2 95.6 26.85 94.6 26.8 94.05 26.7 95.45 26.3 Q97.05 26.2 97.55 26.75 M104.9 29.75 L104.75 30.25 105.15 29.35 Q104.95 29.45 104.9 29.75 M104.25 28.65 L104.2 29.1 104.15 29.5 104.2 29.5 104.5 28.65 Q104.5 28.55 104.35 28.55 L104.25 28.65 M108.75 30.4 L109.2 30.35 109.3 30.6 109.3 30.9 108.6 30.9 107.7 31.1 107.85 30.95 Q108.15 30.55 108.75 30.4 M91.7 33.6 Q92.6 33.55 93.1 33.1 L93.6 32.4 94.6 30.85 96.75 31.0 98.15 31.4 97.3 31.75 96.65 31.95 96.65 32.0 Q96.7 32.25 97.35 32.55 L98.05 33.15 97.95 34.0 97.65 34.75 Q96.85 36.1 96.9 36.45 L97.1 38.05 Q97.25 39.0 96.95 39.6 L95.05 43.05 94.45 44.5 93.4 46.4 93.5 43.8 92.2 39.9 91.1 37.95 Q90.35 36.75 90.25 36.0 L90.15 34.9 Q90.15 33.75 90.55 33.6 L91.7 33.6 M103.8 45.55 L105.05 45.0 Q105.65 44.55 105.95 44.5 L106.1 44.45 106.1 44.5 Q105.65 45.25 105.95 46.95 L105.6 46.65 Q104.85 46.1 103.75 45.7 L103.8 45.55 M103.8 48.45 L103.95 48.4 105.85 48.8 106.3 49.3 106.55 49.55 106.3 51.35 105.75 54.15 105.4 55.8 Q105.0 56.3 104.8 57.35 L104.5 59.1 104.1 62.65 103.8 65.45 103.4 65.8 102.25 66.1 Q101.85 66.2 100.95 65.5 99.85 64.8 99.75 64.1 L99.75 63.45 98.35 63.05 97.15 62.65 96.25 62.05 94.65 59.9 94.4 59.75 94.35 59.5 Q94.25 59.05 95.05 58.6 L95.3 58.5 95.4 58.5 Q96.5 57.95 98.95 57.45 L100.3 57.45 101.5 57.35 102.8 57.0 102.9 56.95 Q102.85 56.8 102.1 56.6 L101.1 56.05 100.65 55.5 100.3 54.85 100.9 54.8 102.05 54.8 103.3 54.8 Q104.05 54.7 104.65 53.3 105.3 52.0 105.1 50.9 L104.55 49.6 103.8 48.45 M94.95 53.55 L94.45 54.3 93.8 55.9 93.3 57.4 Q93.25 53.9 95.55 51.35 L95.4 51.95 Q95.2 52.55 95.35 52.75 L94.95 53.55" fill="url(#gradient3)" fill-rule="evenodd" stroke="none"/>
      <path d="M98.85 25.95 L98.8 25.9 98.85 25.85 98.85 25.95 M97.65 25.7 L97.8 25.8 97.65 25.8 97.65 25.7 M108.05 31.5 L108.15 31.45 108.15 31.5 108.05 31.5 M108.85 32.5 L109.0 32.55 108.9 32.7 108.85 32.5 M103.8 45.55 L103.75 45.7 103.7 45.55 103.8 45.55 M103.95 48.4 L103.8 48.45 103.75 48.4 103.95 48.4" fill="url(#gradient4)" fill-rule="evenodd" stroke="none"/>
      <path d="M70.0 62.8 L70.15 62.65 70.2 62.7 70.0 62.8 M72.85 43.5 L72.85 43.35 72.9 43.5 72.85 43.5" fill="url(#gradient5)" fill-rule="evenodd" stroke="none"/>
    </g>
    <linearGradient gradientTransform="matrix(0.0232, -0.1045, 0.1268, 0.0281, 59.5, 111.6)" gradientUnits="userSpaceOnUse" id="gradient0" spreadMethod="pad" x1="-819.2" x2="819.2">
      <stop offset="0.0" stop-color="#dddd00"/>
      <stop offset="1.0" stop-color="#8e4702"/>
    </linearGradient>
    <linearGradient gradientTransform="matrix(0.0377, -0.1045, 0.1229, 0.0281, 68.15, 111.6)" gradientUnits="userSpaceOnUse" id="gradient1" spreadMethod="pad" x1="-819.2" x2="819.2">
      <stop offset="0.0" stop-color="#dddd00"/>
      <stop offset="1.0" stop-color="#8e4702"/>
    </linearGradient>
    <linearGradient gradientTransform="matrix(0.0377, -0.1045, 0.1229, 0.0281, 71.45, 118.2)" gradientUnits="userSpaceOnUse" id="gradient2" spreadMethod="pad" x1="-819.2" x2="819.2">
      <stop offset="0.0" stop-color="#dddd00"/>
      <stop offset="1.0" stop-color="#8e4702"/>
    </linearGradient>
    <linearGradient gradientTransform="matrix(0.0019, -0.0322, 0.039, 0.0023, -104.75, 64.35)" gradientUnits="userSpaceOnUse" id="gradient3" spreadMethod="pad" x1="-819.2" x2="819.2">
      <stop offset="0.0" stop-color="#dddd00"/>
      <stop offset="1.0" stop-color="#8e4702"/>
    </linearGradient>
    <linearGradient gradientTransform="matrix(0.0075, 0.0461, -0.0168, 0.0027, 93.0, 44.45)" gradientUnits="userSpaceOnUse" id="gradient4" spreadMethod="pad" x1="-819.2" x2="819.2">
      <stop offset="0.0" stop-color="#765282"/>
      <stop offset="1.0" stop-color="#37283e"/>
    </linearGradient>
    <linearGradient gradientTransform="matrix(0.0059, 0.0365, -0.0133, 0.0022, 93.75, 44.85)" gradientUnits="userSpaceOnUse" id="gradient5" spreadMethod="pad" x1="-819.2" x2="819.2">
      <stop offset="0.0" stop-color="#765282"/>
      <stop offset="1.0" stop-color="#37283e"/>
    </linearGradient>
    <g id="shape2" transform="matrix(1.0, 0.0, 0.0, 1.0, -2.05, -17.4)">
      <path d="M121.7 144.05 L121.8 143.95 121.75 144.05 121.7 144.05 M136.15 118.45 L136.15 118.65 136.1 118.6 136.15 118.45" fill="url(#gradient6)" fill-rule="evenodd" stroke="none"/>
      <path d="M64.45 36.3 L64.4 36.25 64.45 36.25 64.45 36.3 M38.6 73.95 L38.55 75.35 38.5 73.95 38.6 73.95 M70.95 61.1 L71.0 61.05 71.0 61.1 70.95 61.1 M69.15 59.8 L68.9 58.9 69.25 59.3 69.15 59.8 M53.2 58.85 Q53.65 58.95 53.25 59.2 L53.2 58.85 M9.65 114.15 L9.65 114.05 9.65 114.0 9.85 114.2 9.65 114.15 M26.4 150.95 L26.45 150.9 26.45 150.95 26.4 150.95 M32.65 168.95 L32.65 168.85 32.7 168.85 32.65 168.95 M39.65 173.55 L39.6 173.55 39.65 173.5 39.65 173.55 M22.55 209.25 L22.95 208.95 22.85 209.1 22.85 209.15 22.55 209.25" fill="url(#gradient7)" fill-rule="evenodd" stroke="none"/>
      <path d="M95.2 26.55 L95.2 26.75 94.75 26.55 94.65 26.55 94.7 26.5 95.2 26.55 M94.15 26.75 L94.05 26.7 94.15 26.7 94.15 26.75 M97.3 31.75 L97.3 31.6 97.5 31.6 97.65 31.65 97.3 31.75 M108.25 30.6 L108.45 30.6 109.2 30.6 109.3 30.65 109.3 30.75 108.55 30.75 107.95 30.85 108.25 30.6 M104.3 48.7 L104.1 48.45 104.4 48.5 104.3 48.7 M100.75 54.95 L100.65 54.85 100.9 54.8 100.75 54.95" fill="url(#gradient8)" fill-rule="evenodd" stroke="none"/>
      <path d="M97.65 25.8 L97.65 25.7 97.8 25.8 97.65 25.8 M98.85 25.95 L98.8 25.9 98.85 25.85 98.85 25.95 M108.85 32.5 L109.0 32.55 108.9 32.7 108.85 32.5" fill="url(#gradient9)" fill-rule="evenodd" stroke="none"/>
      <path d="M72.85 43.5 L72.85 43.35 72.9 43.5 72.85 43.5 M70.0 62.8 L70.15 62.65 70.2 62.7 70.0 62.8" fill="url(#gradient10)" fill-rule="evenodd" stroke="none"/>
      <path d="M104.05 22.15 L104.45 22.45 105.45 22.95 106.85 23.5 107.6 23.75 107.65 24.0 107.8 24.7 107.95 25.45 108.05 27.4 108.05 27.75 Q107.65 27.9 107.2 28.2 106.25 28.75 105.6 29.6 104.85 30.5 104.95 30.9 L105.05 31.1 105.05 31.15 105.1 31.3 105.1 31.35 105.35 32.25 105.6 32.8 105.9 33.35 106.95 34.45 107.6 35.0 Q107.25 35.5 107.35 35.7 L107.35 35.75 Q107.2 36.15 107.35 36.65 L107.85 37.95 108.25 39.45 108.6 40.75 108.7 41.75 108.15 42.75 107.65 43.1 107.85 42.0 107.7 41.0 Q107.5 39.5 105.9 36.1 104.15 32.7 103.95 31.25 103.85 31.0 103.9 30.15 L103.9 29.45 103.85 28.85 Q103.7 28.1 102.75 27.15 L102.55 26.9 101.05 25.95 99.65 24.9 98.45 24.05 97.3 23.35 95.1 21.65 94.45 21.25 94.9 21.05 95.35 20.9 95.95 20.6 96.65 20.3 98.1 19.85 98.2 19.65 97.35 19.35 95.85 19.25 93.9 19.05 94.15 18.65 94.85 18.45 95.55 18.25 96.7 18.0 98.45 17.45 98.6 17.4 98.95 17.95 99.45 18.5 Q100.0 19.45 101.6 20.65 L103.25 21.7 104.05 22.15 M95.2 26.55 L95.65 26.55 96.7 26.55 97.6 26.8 98.15 27.35 97.5 27.2 96.45 27.0 96.0 26.9 95.2 26.75 95.2 26.55 M97.3 31.75 L96.65 31.95 96.65 32.0 Q96.7 32.25 97.35 32.55 L98.05 33.15 98.0 33.35 97.9 34.0 97.7 34.7 97.65 34.75 Q96.85 36.1 96.9 36.45 L96.9 36.5 96.9 36.7 96.95 37.4 96.9 38.7 96.65 40.0 96.45 40.5 96.05 41.2 95.95 41.3 95.25 42.4 95.1 41.6 94.45 40.0 Q93.95 38.75 92.55 36.85 L91.45 35.1 Q91.1 34.35 91.05 33.6 L91.7 33.6 Q92.6 33.55 93.1 33.1 L93.6 32.4 94.35 31.35 94.4 31.35 95.55 31.3 96.4 31.4 97.3 31.6 97.3 31.75 M104.9 29.75 L104.75 30.25 105.15 29.35 Q104.95 29.45 104.9 29.75 M104.5 28.65 Q104.5 28.55 104.35 28.55 L104.25 28.65 104.2 29.1 104.15 29.5 104.2 29.5 104.5 28.65 M104.25 45.9 L105.3 45.4 105.9 45.1 Q105.75 45.8 105.95 46.95 L105.6 46.65 Q105.0 46.25 104.25 45.9 M104.4 48.5 L105.85 48.8 106.3 49.3 106.55 49.55 106.3 51.35 105.75 54.15 105.4 55.8 Q105.0 56.3 104.8 57.35 L104.5 59.1 104.1 62.65 103.8 65.4 103.25 65.45 102.15 65.35 101.1 65.0 99.9 64.2 99.75 64.0 99.8 63.55 99.8 63.15 99.35 62.7 98.35 62.45 96.8 61.8 96.05 61.35 95.5 60.85 95.15 60.2 95.5 60.0 Q96.65 59.45 97.5 59.3 L99.25 58.6 100.6 58.2 101.35 57.45 101.55 57.35 102.8 57.0 102.9 56.95 102.55 56.75 102.55 56.65 Q102.55 56.2 102.1 56.2 L101.6 55.65 100.75 54.95 100.9 54.8 102.05 54.8 103.3 54.8 Q104.05 54.7 104.65 53.3 105.3 52.0 105.1 50.9 L104.8 50.0 104.8 49.55 104.3 48.7 104.4 48.5 M121.7 144.05 L121.65 144.6 Q121.05 147.95 119.3 153.05 118.45 155.4 116.6 159.0 114.9 162.25 114.9 162.45 L114.95 162.75 112.95 165.65 Q107.25 173.55 98.05 174.3 94.3 172.25 90.4 171.05 L90.0 170.95 89.85 170.9 Q86.7 169.85 83.7 169.6 L77.05 169.35 72.15 169.15 72.15 169.2 69.45 169.55 Q67.05 169.9 65.6 170.4 55.05 161.6 47.2 150.2 46.45 149.2 46.7 147.9 48.8 137.0 49.5 126.25 L50.0 123.8 49.65 123.05 Q50.2 110.75 48.9 98.65 L48.95 98.45 Q49.05 97.85 48.8 97.65 L48.5 95.5 46.75 99.3 44.95 102.0 43.45 104.05 42.0 105.95 38.15 110.0 35.3 113.2 31.85 114.1 25.25 113.9 23.95 114.55 19.25 113.55 18.75 112.7 Q23.2 101.05 29.8 90.3 L35.45 82.0 Q41.7 74.45 50.75 73.95 L50.75 76.35 50.2 80.85 49.45 89.9 49.7 90.05 50.0 90.15 50.45 90.0 50.1 91.7 59.85 70.2 61.9 69.75 62.6 71.2 Q64.65 71.6 66.1 72.6 L66.45 72.85 68.3 74.9 69.95 76.35 69.95 76.3 70.5 76.3 71.15 74.35 Q76.05 73.15 81.0 73.45 L82.9 73.65 82.9 73.7 84.05 73.9 85.95 74.45 Q88.45 75.15 93.4 77.85 L93.6 77.95 94.0 78.0 95.3 78.8 Q96.8 79.45 98.0 80.2 99.8 81.3 100.95 82.55 L102.3 83.85 Q105.1 103.65 118.05 117.8 L103.6 163.55 104.5 163.65 104.55 163.5 104.65 163.5 105.15 163.35 105.3 163.35 Q106.2 163.35 106.85 162.05 L108.05 159.3 109.25 157.05 109.8 155.85 110.1 155.4 112.1 151.9 115.55 146.15 121.05 136.25 122.2 134.2 122.3 135.1 122.35 136.8 122.1 140.35 121.8 143.85 121.8 143.9 121.8 143.95 121.7 144.05 M93.8 54.55 L94.15 54.05 Q94.65 53.05 95.3 52.35 95.25 52.65 95.35 52.75 L94.95 53.55 94.45 54.3 93.8 55.9 93.3 57.4 93.5 55.4 93.8 54.55 M71.45 122.55 L61.25 121.1 56.0 121.5 Q55.3 121.7 54.85 122.0 L54.15 122.55 54.7 122.6 Q54.7 123.0 55.25 123.0 L57.25 122.75 58.5 122.55 Q60.35 122.55 70.6 124.8 75.25 125.9 78.55 127.8 79.3 127.8 79.4 127.15 L79.75 127.15 80.2 127.05 76.95 124.45 Q74.75 123.15 71.45 122.55 M41.6 131.0 L40.05 135.85 Q38.9 138.5 37.2 140.45 34.6 143.4 31.9 145.2 L27.45 147.45 23.8 148.5 22.95 148.75 27.3 129.15 27.85 127.0 30.7 117.45 38.4 118.45 Q42.0 119.05 44.45 121.5 L43.85 123.9 43.2 126.3 41.6 131.0 M32.7 168.85 Q40.2 172.15 37.8 180.3 L37.35 180.2 37.15 178.4 36.75 174.2 Q36.7 173.5 35.7 173.05 L34.35 172.2 33.0 170.0 32.65 168.95 32.7 168.85 M4.65 159.05 Q10.75 156.2 14.9 158.6 L16.85 161.45 19.4 167.3 20.35 170.3 21.45 173.25 Q22.15 174.75 23.25 179.1 24.65 184.85 25.65 190.85 26.05 193.3 26.25 196.8 26.25 199.45 26.5 200.9 L26.25 201.75 Q25.45 204.45 23.45 206.45 L22.15 207.65 20.7 208.7 18.95 209.2 18.75 209.15 Q17.8 209.1 16.05 209.85 15.7 210.0 15.5 210.1 L14.9 209.1 13.65 206.75 Q4.0 188.15 2.1 166.8 1.7 162.5 4.65 159.05 M40.0 171.75 L38.85 171.15 36.3 167.85 36.15 167.55 36.6 166.9 Q44.05 170.85 41.9 180.05 L41.2 180.05 40.95 177.7 41.1 172.8 Q41.05 172.35 40.0 171.75 M78.0 184.8 Q78.0 189.1 74.05 195.6 L71.65 199.45 71.0 199.95 Q67.95 202.4 64.55 203.85 60.8 205.55 57.95 207.35 56.4 208.4 49.8 211.5 46.65 213.0 41.55 214.65 L37.7 215.85 34.1 216.4 33.7 216.5 Q35.4 211.95 37.05 208.45 L36.75 208.5 Q44.75 190.95 61.55 179.95 66.3 176.9 71.8 177.55 73.9 177.95 75.5 179.1 75.65 180.3 77.2 182.15 L77.65 182.75 78.0 184.8 M44.6 170.65 L44.2 170.1 42.5 168.15 41.85 166.5 42.0 166.15 42.85 166.6 Q47.9 170.75 46.45 177.45 L45.55 177.4 45.45 176.3 Q45.05 174.7 45.05 172.2 L44.85 171.2 45.0 170.75 44.6 170.65 M105.25 139.0 L105.2 139.0 105.15 139.55 105.25 139.0" fill="url(#gradient11)" fill-rule="evenodd" stroke="none"/>
      <path d="M120.6 79.45 L120.9 79.5 121.2 79.65 Q122.3 80.3 123.6 80.75 L125.1 81.4 125.25 81.65 Q127.05 83.85 129.1 87.95 L132.4 94.3 135.15 100.5 Q137.55 107.05 138.9 113.1 139.4 115.45 139.55 117.9 139.25 120.2 139.45 122.85 L139.45 124.35 139.45 124.45 139.45 125.05 139.4 125.2 136.35 123.15 Q131.45 119.85 128.45 116.85 125.65 114.05 123.1 110.55 L118.8 104.3 Q117.0 101.6 115.75 97.9 L113.8 91.8 Q113.35 90.5 113.1 88.6 L112.8 85.5 113.0 83.75 120.6 79.45 M112.7 97.85 Q119.7 121.1 140.2 132.15 L139.95 133.15 139.1 133.5 Q130.75 131.05 124.6 124.6 L124.75 125.7 Q117.75 117.7 112.4 108.35 106.6 98.1 109.5 85.95 110.95 91.95 112.7 97.85" fill="url(#gradient12)" fill-rule="evenodd" stroke="none"/>
    </g>
    <linearGradient gradientTransform="matrix(0.0389, -0.1045, 0.1225, 0.0281, 68.95, 111.6)" gradientUnits="userSpaceOnUse" id="gradient6" spreadMethod="pad" x1="-819.2" x2="819.2">
      <stop offset="0.0" stop-color="#dddd00"/>
      <stop offset="1.0" stop-color="#8e4702"/>
    </linearGradient>
    <linearGradient gradientTransform="matrix(0.0232, -0.1045, 0.1268, 0.0281, 59.5, 111.6)" gradientUnits="userSpaceOnUse" id="gradient7" spreadMethod="pad" x1="-819.2" x2="819.2">
      <stop offset="0.0" stop-color="#dddd00"/>
      <stop offset="1.0" stop-color="#8e4702"/>
    </linearGradient>
    <linearGradient gradientTransform="matrix(0.0019, -0.0322, 0.039, 0.0023, -104.75, 64.35)" gradientUnits="userSpaceOnUse" id="gradient8" spreadMethod="pad" x1="-819.2" x2="819.2">
      <stop offset="0.0" stop-color="#dddd00"/>
      <stop offset="1.0" stop-color="#8e4702"/>
    </linearGradient>
    <linearGradient gradientTransform="matrix(0.0075, 0.0461, -0.0168, 0.0027, 93.0, 44.45)" gradientUnits="userSpaceOnUse" id="gradient9" spreadMethod="pad" x1="-819.2" x2="819.2">
      <stop offset="0.0" stop-color="#765282"/>
      <stop offset="1.0" stop-color="#37283e"/>
    </linearGradient>
    <linearGradient gradientTransform="matrix(0.0059, 0.0365, -0.0133, 0.0022, 93.75, 44.85)" gradientUnits="userSpaceOnUse" id="gradient10" spreadMethod="pad" x1="-819.2" x2="819.2">
      <stop offset="0.0" stop-color="#765282"/>
      <stop offset="1.0" stop-color="#37283e"/>
    </linearGradient>
    <linearGradient gradientTransform="matrix(0.0232, -0.1045, 0.1268, 0.0281, 59.5, 111.6)" gradientUnits="userSpaceOnUse" id="gradient11" spreadMethod="pad" x1="-819.2" x2="819.2">
      <stop offset="0.0" stop-color="#dede00" stop-opacity="0.5019608"/>
      <stop offset="1.0" stop-color="#8f4602" stop-opacity="0.5019608"/>
    </linearGradient>
    <linearGradient gradientTransform="matrix(0.0232, -0.1045, 0.1268, 0.0281, 62.8, 118.2)" gradientUnits="userSpaceOnUse" id="gradient12" spreadMethod="pad" x1="-819.2" x2="819.2">
      <stop offset="0.0" stop-color="#dede00" stop-opacity="0.5019608"/>
      <stop offset="1.0" stop-color="#8f4602" stop-opacity="0.5019608"/>
    </linearGradient>
    <g id="shape3" transform="matrix(1.0, 0.0, 0.0, 1.0, 0.0, 0.0)">
      <path d="M2.0 1.0 L1.7 1.7 1.0 2.0 Q0.6 2.0 0.3 1.7 0.0 1.4 0.0 1.0 0.0 0.6 0.3 0.3 0.6 0.0 1.0 0.0 1.4 0.0 1.7 0.3 L2.0 1.0" fill="#ff9900" fill-opacity="0.9607843" fill-rule="evenodd" stroke="none"/>
    </g>
    <g id="sprite1" transform="matrix(1.0, 0.0, 0.0, 1.0, 39.0, 39.0)">
      <use ffdec:characterId="3485" height="446.1" transform="matrix(1.0, 0.0, 0.0, 1.0, 0.0, 0.0)" width="446.1" xlink:href="#shape4"/>
    </g>
    <g id="shape4" transform="matrix(1.0, 0.0, 0.0, 1.0, 0.0, 0.0)">
      <path d="M380.75 65.3 Q446.1 130.65 446.1 223.05 446.1 315.45 380.75 380.75 315.45 446.1 223.05 446.1 130.65 446.1 65.3 380.75 0.0 315.45 0.0 223.05 0.0 130.65 65.3 65.3 130.65 0.0 223.05 0.0 315.45 0.0 380.75 65.3" fill="url(#gradient13)" fill-rule="evenodd" stroke="none"/>
    </g>
    <radialGradient cx="0" cy="0" gradientTransform="matrix(0.2747, 0.0, 0.0, 0.2747, 223.05, 223.05)" gradientUnits="userSpaceOnUse" id="gradient13" r="819.2" spreadMethod="pad">
      <stop offset="0.0" stop-color="#dd8400" stop-opacity="0.8392157"/>
      <stop offset="1.0" stop-color="#de8400" stop-opacity="0.0"/>
    </radialGradient>
    <g id="sprite2" transform="matrix(1.0, 0.0, 0.0, 1.0, 265.1, 150.0)">
      <use ffdec:characterId="3477" height="300.0" transform="matrix(1.0, 0.0, 0.0, 1.0, -265.1, -150.0)" width="533.0" xlink:href="#shape5"/>
    </g>
    <g id="shape5" transform="matrix(1.0, 0.0, 0.0, 1.0, 265.1, 150.0)">
      <path d="M267.9 -150.0 L267.9 150.0 -265.1 150.0 -265.1 -150.0 267.9 -150.0 Z" fill="none" stroke="#ff0000" stroke-linecap="round" stroke-linejoin="round" stroke-width="0.05"/>
      <path d="M1.4 -16.05 L1.45 -16.05 Q9.35 -16.05 14.95 -11.35 20.55 -6.65 20.55 0.0 L39.5 0.0 M20.55 0.0 Q20.55 6.65 14.95 11.35 9.35 16.05 1.45 16.05 L1.4 16.05 1.4 21.45 M-36.65 0.0 L-17.55 0.0 -17.55 -0.05 Q-17.55 -6.65 -11.95 -11.35 -6.4 -16.05 1.4 -16.05 M1.4 16.05 Q-6.4 16.05 -11.95 11.35 -17.55 6.65 -17.55 0.0" fill="none" stroke="#ff0000" stroke-linecap="round" stroke-linejoin="round" stroke-opacity="0.2509804" stroke-width="0.05"/>
      <path d="M1.4 -16.05 L1.4 -21.4" fill="none" stroke="#ff0000" stroke-linecap="round" stroke-linejoin="round" stroke-opacity="0.2509804" stroke-width="1.0"/>
      <path d="M181.15 141.4 L181.15 123.6 191.05 123.6 191.05 141.4 181.15 141.4" fill="#ffffff" fill-rule="evenodd" stroke="none"/>
      <path d="M250.55 123.6 L260.45 123.6 260.45 141.4 260.35 141.4 250.55 141.4 250.55 123.6" fill="#000000" fill-rule="evenodd" stroke="none"/>
      <path d="M230.7 123.6 L240.6 123.6 240.6 141.4 230.7 141.4 230.7 123.6" fill="#ff0000" fill-rule="evenodd" stroke="none"/>
      <path d="M191.05 123.6 L201.0 123.6 201.0 141.4 191.05 141.4 191.05 123.6" fill="#ffff00" fill-rule="evenodd" stroke="none"/>
      <path d="M201.0 123.6 L210.9 123.6 210.9 141.4 201.0 141.4 201.0 123.6" fill="#00ffff" fill-rule="evenodd" stroke="none"/>
      <path d="M210.9 123.6 L220.8 123.6 220.8 141.4 210.9 141.4 210.9 123.6" fill="#00ff00" fill-rule="evenodd" stroke="none"/>
      <path d="M220.8 123.6 L230.7 123.6 230.7 141.4 220.8 141.4 220.8 123.6" fill="#ff00ff" fill-rule="evenodd" stroke="none"/>
      <path d="M240.6 123.6 L250.55 123.6 250.55 141.4 240.6 141.4 240.6 123.6" fill="#0000ff" fill-rule="evenodd" stroke="none"/>
      <path d="M260.35 141.4 L260.35 145.4 181.1 145.4 181.1 141.4 181.15 141.4 191.05 141.4 201.0 141.4 210.9 141.4 220.8 141.4 230.7 141.4 240.6 141.4 250.55 141.4 260.35 141.4" fill="url(#gradient14)" fill-rule="evenodd" stroke="none"/>
    </g>
    <linearGradient gradientTransform="matrix(0.0484, 0.0, 0.0, 0.0024, 220.7, 143.35)" gradientUnits="userSpaceOnUse" id="gradient14" spreadMethod="pad" x1="-819.2" x2="819.2">
      <stop offset="0.0" stop-color="#ffffff"/>
      <stop offset="1.0" stop-color="#000000"/>
    </linearGradient>
  </defs>
</svg>
