<?xml version="1.0" encoding="UTF-8" standalone="no"?>
<svg xmlns:ffdec="https://www.free-decompiler.com/flash" xmlns:xlink="http://www.w3.org/1999/xlink" ffdec:objectType="frame" height="4004.1px" width="7682.6px" xmlns="http://www.w3.org/2000/svg">
  <g transform="matrix(2.0, 0.0, 0.0, 2.0, 4622.9, 1925.9)">
    <use ffdec:characterId="333" height="372.95" transform="matrix(2.0745, 0.0, 0.0, 1.0111, -262.0106, -216.0102)" width="608.0" xlink:href="#shape0"/>
    <use ffdec:characterId="3565" height="576.65" transform="matrix(2.3776, 0.0, 0.0, 2.3776, -2022.5454, -459.55)" width="1423.15" xlink:href="#sprite0"/>
    <filter id="filter0">
      <feConvolveMatrix divisor="81.0" in="SourceGraphic" kernelMatrix="1 1 1 1 1 1 1 1 1 1 1 1 1 1 1 1 1 1 1 1 1 1 1 1 1 1 1 1 1 1 1 1 1 1 1 1 1 1 1 1 1 1 1 1 1 1 1 1 1 1 1 1 1 1 1 1 1 1 1 1 1 1 1 1 1 1 1 1 1 1 1 1 1 1 1 1 1 1 1 1 1" order="9 9" result="filterResult0"/>
      <feConvolveMatrix divisor="81.0" in="filterResult0" kernelMatrix="1 1 1 1 1 1 1 1 1 1 1 1 1 1 1 1 1 1 1 1 1 1 1 1 1 1 1 1 1 1 1 1 1 1 1 1 1 1 1 1 1 1 1 1 1 1 1 1 1 1 1 1 1 1 1 1 1 1 1 1 1 1 1 1 1 1 1 1 1 1 1 1 1 1 1 1 1 1 1 1 1" order="9 9" result="filterResult1"/>
    </filter>
    <use ffdec:characterId="3558" filter="url(#filter0)" height="108.0" transform="matrix(1.9539, 3.9522, -3.9522, 1.9539, 278.1, -135.75)" width="156.45" xlink:href="#sprite1"/>
    <use ffdec:characterId="3563" height="122.15" transform="matrix(0.9603, 2.0508, -2.0508, 0.9603, -124.0, -133.9)" width="110.45" xlink:href="#sprite2"/>
    <use ffdec:characterId="3561" height="79.35" transform="matrix(1.0, 0.0, 0.0, 1.0, 253.75, -239.7)" width="78.75" xlink:href="#morphshape0"/>
    <filter id="filter1">
      <feColorMatrix in="SourceGraphic" result="filterResult2" type="matrix" values="0 0 0 0 1.0,0 0 0 0 1.0,0 0 0 0 1.0,0 0 0 1 0"/>
      <feConvolveMatrix divisor="2116.0" in="filterResult2" kernelMatrix="1 1 1 1 1 1 1 1 1 1 1 1 1 1 1 1 1 1 1 1 1 1 1 1 1 1 1 1 1 1 1 1 1 1 1 1 1 1 1 1 1 1 1 1 1 1 1 1 1 1 1 1 1 1 1 1 1 1 1 1 1 1 1 1 1 1 1 1 1 1 1 1 1 1 1 1 1 1 1 1 1 1 1 1 1 1 1 1 1 1 1 1 1 1 1 1 1 1 1 1 1 1 1 1 1 1 1 1 1 1 1 1 1 1 1 1 1 1 1 1 1 1 1 1 1 1 1 1 1 1 1 1 1 1 1 1 1 1 1 1 1 1 1 1 1 1 1 1 1 1 1 1 1 1 1 1 1 1 1 1 1 1 1 1 1 1 1 1 1 1 1 1 1 1 1 1 1 1 1 1 1 1 1 1 1 1 1 1 1 1 1 1 1 1 1 1 1 1 1 1 1 1 1 1 1 1 1 1 1 1 1 1 1 1 1 1 1 1 1 1 1 1 1 1 1 1 1 1 1 1 1 1 1 1 1 1 1 1 1 1 1 1 1 1 1 1 1 1 1 1 1 1 1 1 1 1 1 1 1 1 1 1 1 1 1 1 1 1 1 1 1 1 1 1 1 1 1 1 1 1 1 1 1 1 1 1 1 1 1 1 1 1 1 1 1 1 1 1 1 1 1 1 1 1 1 1 1 1 1 1 1 1 1 1 1 1 1 1 1 1 1 1 1 1 1 1 1 1 1 1 1 1 1 1 1 1 1 1 1 1 1 1 1 1 1 1 1 1 1 1 1 1 1 1 1 1 1 1 1 1 1 1 1 1 1 1 1 1 1 1 1 1 1 1 1 1 1 1 1 1 1 1 1 1 1 1 1 1 1 1 1 1 1 1 1 1 1 1 1 1 1 1 1 1 1 1 1 1 1 1 1 1 1 1 1 1 1 1 1 1 1 1 1 1 1 1 1 1 1 1 1 1 1 1 1 1 1 1 1 1 1 1 1 1 1 1 1 1 1 1 1 1 1 1 1 1 1 1 1 1 1 1 1 1 1 1 1 1 1 1 1 1 1 1 1 1 1 1 1 1 1 1 1 1 1 1 1 1 1 1 1 1 1 1 1 1 1 1 1 1 1 1 1 1 1 1 1 1 1 1 1 1 1 1 1 1 1 1 1 1 1 1 1 1 1 1 1 1 1 1 1 1 1 1 1 1 1 1 1 1 1 1 1 1 1 1 1 1 1 1 1 1 1 1 1 1 1 1 1 1 1 1 1 1 1 1 1 1 1 1 1 1 1 1 1 1 1 1 1 1 1 1 1 1 1 1 1 1 1 1 1 1 1 1 1 1 1 1 1 1 1 1 1 1 1 1 1 1 1 1 1 1 1 1 1 1 1 1 1 1 1 1 1 1 1 1 1 1 1 1 1 1 1 1 1 1 1 1 1 1 1 1 1 1 1 1 1 1 1 1 1 1 1 1 1 1 1 1 1 1 1 1 1 1 1 1 1 1 1 1 1 1 1 1 1 1 1 1 1 1 1 1 1 1 1 1 1 1 1 1 1 1 1 1 1 1 1 1 1 1 1 1 1 1 1 1 1 1 1 1 1 1 1 1 1 1 1 1 1 1 1 1 1 1 1 1 1 1 1 1 1 1 1 1 1 1 1 1 1 1 1 1 1 1 1 1 1 1 1 1 1 1 1 1 1 1 1 1 1 1 1 1 1 1 1 1 1 1 1 1 1 1 1 1 1 1 1 1 1 1 1 1 1 1 1 1 1 1 1 1 1 1 1 1 1 1 1 1 1 1 1 1 1 1 1 1 1 1 1 1 1 1 1 1 1 1 1 1 1 1 1 1 1 1 1 1 1 1 1 1 1 1 1 1 1 1 1 1 1 1 1 1 1 1 1 1 1 1 1 1 1 1 1 1 1 1 1 1 1 1 1 1 1 1 1 1 1 1 1 1 1 1 1 1 1 1 1 1 1 1 1 1 1 1 1 1 1 1 1 1 1 1 1 1 1 1 1 1 1 1 1 1 1 1 1 1 1 1 1 1 1 1 1 1 1 1 1 1 1 1 1 1 1 1 1 1 1 1 1 1 1 1 1 1 1 1 1 1 1 1 1 1 1 1 1 1 1 1 1 1 1 1 1 1 1 1 1 1 1 1 1 1 1 1 1 1 1 1 1 1 1 1 1 1 1 1 1 1 1 1 1 1 1 1 1 1 1 1 1 1 1 1 1 1 1 1 1 1 1 1 1 1 1 1 1 1 1 1 1 1 1 1 1 1 1 1 1 1 1 1 1 1 1 1 1 1 1 1 1 1 1 1 1 1 1 1 1 1 1 1 1 1 1 1 1 1 1 1 1 1 1 1 1 1 1 1 1 1 1 1 1 1 1 1 1 1 1 1 1 1 1 1 1 1 1 1 1 1 1 1 1 1 1 1 1 1 1 1 1 1 1 1 1 1 1 1 1 1 1 1 1 1 1 1 1 1 1 1 1 1 1 1 1 1 1 1 1 1 1 1 1 1 1 1 1 1 1 1 1 1 1 1 1 1 1 1 1 1 1 1 1 1 1 1 1 1 1 1 1 1 1 1 1 1 1 1 1 1 1 1 1 1 1 1 1 1 1 1 1 1 1 1 1 1 1 1 1 1 1 1 1 1 1 1 1 1 1 1 1 1 1 1 1 1 1 1 1 1 1 1 1 1 1 1 1 1 1 1 1 1 1 1 1 1 1 1 1 1 1 1 1 1 1 1 1 1 1 1 1 1 1 1 1 1 1 1 1 1 1 1 1 1 1 1 1 1 1 1 1 1 1 1 1 1 1 1 1 1 1 1 1 1 1 1 1 1 1 1 1 1 1 1 1 1 1 1 1 1 1 1 1 1 1 1 1 1 1 1 1 1 1 1 1 1 1 1 1 1 1 1 1 1 1 1 1 1 1 1 1 1 1 1 1 1 1 1 1 1 1 1 1 1 1 1 1 1 1 1 1 1 1 1 1 1 1 1 1 1 1 1 1 1 1 1 1 1 1 1 1 1 1 1 1 1 1 1 1 1 1 1 1 1 1 1 1 1 1 1 1 1 1 1 1 1 1 1 1 1 1 1 1 1 1 1 1 1 1 1 1 1 1 1 1 1 1 1 1 1 1 1 1 1 1 1 1 1 1 1 1 1 1 1 1 1 1 1 1 1 1 1 1 1 1 1 1 1 1 1 1 1 1 1 1 1 1 1 1 1 1 1 1 1 1 1 1 1 1 1 1 1 1 1 1 1 1 1 1 1 1 1 1 1 1 1 1 1 1 1 1 1 1 1 1 1 1 1 1 1 1 1 1 1 1 1 1 1 1 1 1 1 1 1 1 1 1 1 1 1 1 1 1 1 1 1 1 1 1 1 1 1 1 1 1 1 1 1 1 1 1 1 1 1 1 1 1 1 1 1 1 1 1 1 1 1 1 1 1 1 1 1 1 1 1 1 1 1 1 1 1 1 1 1 1 1 1 1 1 1 1 1 1 1 1 1 1 1 1 1 1 1 1 1 1 1 1 1 1 1 1 1 1 1 1 1 1 1 1 1 1 1 1 1 1 1 1 1 1 1 1 1 1 1 1 1 1 1 1 1 1 1 1 1 1 1 1 1 1 1 1 1 1 1 1 1 1 1 1 1 1 1 1 1 1 1 1 1 1 1 1 1 1 1 1 1 1 1 1 1 1 1 1 1 1 1 1 1 1 1 1 1 1 1 1 1 1 1 1 1 1 1 1 1 1 1 1 1 1 1 1 1 1 1 1 1 1 1 1 1 1 1 1 1 1 1 1 1 1 1 1 1 1 1 1 1 1 1 1 1 1 1 1 1 1 1 1 1 1 1 1 1 1 1 1 1 1 1 1 1 1 1 1 1 1 1 1 1 1 1 1 1 1 1 1 1 1 1 1 1 1 1 1 1 1 1 1 1 1 1 1 1 1 1 1 1 1 1 1 1 1 1 1 1 1 1 1 1 1 1 1 1 1 1 1 1 1 1 1 1 1 1 1 1 1 1 1 1 1 1 1 1 1 1 1 1 1 1 1 1 1 1 1 1 1 1 1 1 1 1 1 1 1 1 1 1 1 1 1 1 1 1 1 1 1 1 1 1 1 1 1 1 1 1 1 1 1 1 1 1 1 1 1 1 1 1 1 1 1 1 1 1 1 1 1 1 1 1 1 1 1 1 1 1 1 1 1 1 1 1 1 1 1 1 1 1 1 1 1 1 1 1 1 1 1 1 1 1 1 1 1 1 1 1 1 1 1 1 1 1 1 1 1 1 1 1 1 1 1 1 1 1 1 1 1 1 1 1 1 1 1 1 1 1 1 1 1 1 1 1 1 1 1 1 1 1 1 1 1 1 1 1 1 1 1 1 1 1 1 1 1 1 1 1 1 1 1 1 1 1 1 1 1 1 1 1 1 1 1 1 1 1 1 1 1 1 1 1 1 1 1 1 1 1 1 1 1 1 1 1 1 1 1 1 1 1 1 1 1 1 1 1 1 1 1 1 1 1 1 1 1 1 1 1 1 1 1 1 1 1 1 1 1 1 1 1 1 1 1 1 1 1 1 1 1 1 1 1 1 1 1 1 1 1 1 1 1 1 1 1 1 1 1 1 1 1 1 1 1 1 1 1 1 1 1 1 1 1 1 1 1 1 1 1 1 1 1 1 1 1 1 1 1 1 1 1 1 1 1 1 1 1 1 1 1 1 1 1 1 1 1 1 1 1 1 1 1 1" order="46 46" result="filterResult3"/>
      <feConvolveMatrix divisor="2116.0" in="filterResult3" kernelMatrix="1 1 1 1 1 1 1 1 1 1 1 1 1 1 1 1 1 1 1 1 1 1 1 1 1 1 1 1 1 1 1 1 1 1 1 1 1 1 1 1 1 1 1 1 1 1 1 1 1 1 1 1 1 1 1 1 1 1 1 1 1 1 1 1 1 1 1 1 1 1 1 1 1 1 1 1 1 1 1 1 1 1 1 1 1 1 1 1 1 1 1 1 1 1 1 1 1 1 1 1 1 1 1 1 1 1 1 1 1 1 1 1 1 1 1 1 1 1 1 1 1 1 1 1 1 1 1 1 1 1 1 1 1 1 1 1 1 1 1 1 1 1 1 1 1 1 1 1 1 1 1 1 1 1 1 1 1 1 1 1 1 1 1 1 1 1 1 1 1 1 1 1 1 1 1 1 1 1 1 1 1 1 1 1 1 1 1 1 1 1 1 1 1 1 1 1 1 1 1 1 1 1 1 1 1 1 1 1 1 1 1 1 1 1 1 1 1 1 1 1 1 1 1 1 1 1 1 1 1 1 1 1 1 1 1 1 1 1 1 1 1 1 1 1 1 1 1 1 1 1 1 1 1 1 1 1 1 1 1 1 1 1 1 1 1 1 1 1 1 1 1 1 1 1 1 1 1 1 1 1 1 1 1 1 1 1 1 1 1 1 1 1 1 1 1 1 1 1 1 1 1 1 1 1 1 1 1 1 1 1 1 1 1 1 1 1 1 1 1 1 1 1 1 1 1 1 1 1 1 1 1 1 1 1 1 1 1 1 1 1 1 1 1 1 1 1 1 1 1 1 1 1 1 1 1 1 1 1 1 1 1 1 1 1 1 1 1 1 1 1 1 1 1 1 1 1 1 1 1 1 1 1 1 1 1 1 1 1 1 1 1 1 1 1 1 1 1 1 1 1 1 1 1 1 1 1 1 1 1 1 1 1 1 1 1 1 1 1 1 1 1 1 1 1 1 1 1 1 1 1 1 1 1 1 1 1 1 1 1 1 1 1 1 1 1 1 1 1 1 1 1 1 1 1 1 1 1 1 1 1 1 1 1 1 1 1 1 1 1 1 1 1 1 1 1 1 1 1 1 1 1 1 1 1 1 1 1 1 1 1 1 1 1 1 1 1 1 1 1 1 1 1 1 1 1 1 1 1 1 1 1 1 1 1 1 1 1 1 1 1 1 1 1 1 1 1 1 1 1 1 1 1 1 1 1 1 1 1 1 1 1 1 1 1 1 1 1 1 1 1 1 1 1 1 1 1 1 1 1 1 1 1 1 1 1 1 1 1 1 1 1 1 1 1 1 1 1 1 1 1 1 1 1 1 1 1 1 1 1 1 1 1 1 1 1 1 1 1 1 1 1 1 1 1 1 1 1 1 1 1 1 1 1 1 1 1 1 1 1 1 1 1 1 1 1 1 1 1 1 1 1 1 1 1 1 1 1 1 1 1 1 1 1 1 1 1 1 1 1 1 1 1 1 1 1 1 1 1 1 1 1 1 1 1 1 1 1 1 1 1 1 1 1 1 1 1 1 1 1 1 1 1 1 1 1 1 1 1 1 1 1 1 1 1 1 1 1 1 1 1 1 1 1 1 1 1 1 1 1 1 1 1 1 1 1 1 1 1 1 1 1 1 1 1 1 1 1 1 1 1 1 1 1 1 1 1 1 1 1 1 1 1 1 1 1 1 1 1 1 1 1 1 1 1 1 1 1 1 1 1 1 1 1 1 1 1 1 1 1 1 1 1 1 1 1 1 1 1 1 1 1 1 1 1 1 1 1 1 1 1 1 1 1 1 1 1 1 1 1 1 1 1 1 1 1 1 1 1 1 1 1 1 1 1 1 1 1 1 1 1 1 1 1 1 1 1 1 1 1 1 1 1 1 1 1 1 1 1 1 1 1 1 1 1 1 1 1 1 1 1 1 1 1 1 1 1 1 1 1 1 1 1 1 1 1 1 1 1 1 1 1 1 1 1 1 1 1 1 1 1 1 1 1 1 1 1 1 1 1 1 1 1 1 1 1 1 1 1 1 1 1 1 1 1 1 1 1 1 1 1 1 1 1 1 1 1 1 1 1 1 1 1 1 1 1 1 1 1 1 1 1 1 1 1 1 1 1 1 1 1 1 1 1 1 1 1 1 1 1 1 1 1 1 1 1 1 1 1 1 1 1 1 1 1 1 1 1 1 1 1 1 1 1 1 1 1 1 1 1 1 1 1 1 1 1 1 1 1 1 1 1 1 1 1 1 1 1 1 1 1 1 1 1 1 1 1 1 1 1 1 1 1 1 1 1 1 1 1 1 1 1 1 1 1 1 1 1 1 1 1 1 1 1 1 1 1 1 1 1 1 1 1 1 1 1 1 1 1 1 1 1 1 1 1 1 1 1 1 1 1 1 1 1 1 1 1 1 1 1 1 1 1 1 1 1 1 1 1 1 1 1 1 1 1 1 1 1 1 1 1 1 1 1 1 1 1 1 1 1 1 1 1 1 1 1 1 1 1 1 1 1 1 1 1 1 1 1 1 1 1 1 1 1 1 1 1 1 1 1 1 1 1 1 1 1 1 1 1 1 1 1 1 1 1 1 1 1 1 1 1 1 1 1 1 1 1 1 1 1 1 1 1 1 1 1 1 1 1 1 1 1 1 1 1 1 1 1 1 1 1 1 1 1 1 1 1 1 1 1 1 1 1 1 1 1 1 1 1 1 1 1 1 1 1 1 1 1 1 1 1 1 1 1 1 1 1 1 1 1 1 1 1 1 1 1 1 1 1 1 1 1 1 1 1 1 1 1 1 1 1 1 1 1 1 1 1 1 1 1 1 1 1 1 1 1 1 1 1 1 1 1 1 1 1 1 1 1 1 1 1 1 1 1 1 1 1 1 1 1 1 1 1 1 1 1 1 1 1 1 1 1 1 1 1 1 1 1 1 1 1 1 1 1 1 1 1 1 1 1 1 1 1 1 1 1 1 1 1 1 1 1 1 1 1 1 1 1 1 1 1 1 1 1 1 1 1 1 1 1 1 1 1 1 1 1 1 1 1 1 1 1 1 1 1 1 1 1 1 1 1 1 1 1 1 1 1 1 1 1 1 1 1 1 1 1 1 1 1 1 1 1 1 1 1 1 1 1 1 1 1 1 1 1 1 1 1 1 1 1 1 1 1 1 1 1 1 1 1 1 1 1 1 1 1 1 1 1 1 1 1 1 1 1 1 1 1 1 1 1 1 1 1 1 1 1 1 1 1 1 1 1 1 1 1 1 1 1 1 1 1 1 1 1 1 1 1 1 1 1 1 1 1 1 1 1 1 1 1 1 1 1 1 1 1 1 1 1 1 1 1 1 1 1 1 1 1 1 1 1 1 1 1 1 1 1 1 1 1 1 1 1 1 1 1 1 1 1 1 1 1 1 1 1 1 1 1 1 1 1 1 1 1 1 1 1 1 1 1 1 1 1 1 1 1 1 1 1 1 1 1 1 1 1 1 1 1 1 1 1 1 1 1 1 1 1 1 1 1 1 1 1 1 1 1 1 1 1 1 1 1 1 1 1 1 1 1 1 1 1 1 1 1 1 1 1 1 1 1 1 1 1 1 1 1 1 1 1 1 1 1 1 1 1 1 1 1 1 1 1 1 1 1 1 1 1 1 1 1 1 1 1 1 1 1 1 1 1 1 1 1 1 1 1 1 1 1 1 1 1 1 1 1 1 1 1 1 1 1 1 1 1 1 1 1 1 1 1 1 1 1 1 1 1 1 1 1 1 1 1 1 1 1 1 1 1 1 1 1 1 1 1 1 1 1 1 1 1 1 1 1 1 1 1 1 1 1 1 1 1 1 1 1 1 1 1 1 1 1 1 1 1 1 1 1 1 1 1 1 1 1 1 1 1 1 1 1 1 1 1 1 1 1 1 1 1 1 1 1 1 1 1 1 1 1 1 1 1 1 1 1 1 1 1 1 1 1 1 1 1 1 1 1 1 1 1 1 1 1 1 1 1 1 1 1 1 1 1 1 1 1 1 1 1 1 1 1 1 1 1 1 1 1 1 1 1 1 1 1 1 1 1 1 1 1 1 1 1 1 1 1 1 1 1 1 1 1 1 1 1 1 1 1 1 1 1 1 1 1 1 1 1 1 1 1 1 1 1 1 1 1 1 1 1 1 1 1 1 1 1 1 1 1 1 1 1 1 1 1 1 1 1 1 1 1 1 1 1 1 1 1 1 1 1 1 1 1 1 1 1 1 1 1 1 1 1 1 1 1 1 1 1 1 1 1 1 1 1 1 1 1 1 1 1 1 1 1 1 1 1 1 1 1 1 1 1 1 1 1 1 1 1 1 1 1 1 1 1 1 1 1 1 1 1 1 1 1 1 1 1 1 1 1 1 1 1 1 1 1 1 1 1 1 1 1 1 1 1 1 1 1 1 1 1 1 1 1 1 1 1 1 1 1 1 1 1 1 1 1 1 1 1 1 1 1 1 1 1 1 1 1 1 1 1 1 1 1 1 1 1 1 1 1 1 1 1 1 1 1 1 1 1 1 1 1 1 1 1 1 1 1 1 1 1 1 1 1 1 1 1 1 1 1 1 1 1 1 1 1 1 1 1 1 1 1 1 1 1 1 1 1 1 1 1 1 1 1 1 1 1 1 1 1 1 1 1 1 1 1 1 1 1 1 1 1 1 1 1 1 1 1 1 1 1 1 1 1 1 1 1 1 1 1 1 1 1 1 1 1 1 1 1 1 1 1 1 1 1 1 1 1 1 1 1 1 1 1" order="46 46" result="filterResult4"/>
      <feComposite in="SourceGraphic" in2="filterResult4" operator="over" result="filterResult5"/>
      <feConvolveMatrix divisor="121.0" in="filterResult5" kernelMatrix="1 1 1 1 1 1 1 1 1 1 1 1 1 1 1 1 1 1 1 1 1 1 1 1 1 1 1 1 1 1 1 1 1 1 1 1 1 1 1 1 1 1 1 1 1 1 1 1 1 1 1 1 1 1 1 1 1 1 1 1 1 1 1 1 1 1 1 1 1 1 1 1 1 1 1 1 1 1 1 1 1 1 1 1 1 1 1 1 1 1 1 1 1 1 1 1 1 1 1 1 1 1 1 1 1 1 1 1 1 1 1 1 1 1 1 1 1 1 1 1 1" order="11 11" result="filterResult6"/>
      <feConvolveMatrix divisor="121.0" in="filterResult6" kernelMatrix="1 1 1 1 1 1 1 1 1 1 1 1 1 1 1 1 1 1 1 1 1 1 1 1 1 1 1 1 1 1 1 1 1 1 1 1 1 1 1 1 1 1 1 1 1 1 1 1 1 1 1 1 1 1 1 1 1 1 1 1 1 1 1 1 1 1 1 1 1 1 1 1 1 1 1 1 1 1 1 1 1 1 1 1 1 1 1 1 1 1 1 1 1 1 1 1 1 1 1 1 1 1 1 1 1 1 1 1 1 1 1 1 1 1 1 1 1 1 1 1 1" order="11 11" result="filterResult7"/>
    </filter>
    <use ffdec:characterId="3560" filter="url(#filter1)" height="25.8" transform="matrix(0.7491, 0.0, 0.0, 0.7491, 292.1, -218.8)" width="25.0" xlink:href="#sprite3"/>
    <use ffdec:characterId="3552" height="393.15" style="mix-blend-mode: overlay" transform="matrix(1.0, 0.0, 0.0, 1.0, -250.6, -242.75)" width="726.2" xlink:href="#sprite4"/>
    <use ffdec:characterId="3550" height="379.05" transform="matrix(1.0, 0.0, 0.0, 1.0, -212.45, -237.6)" width="657.35" xlink:href="#sprite5"/>
    <use ffdec:characterId="3478" height="300.0" transform="matrix(0.9323, 0.0, 0.0, 0.9323, -152.564, -171.8491)" width="533.0" xlink:href="#sprite6"/>
  </g>
  <defs>
    <g id="shape0" transform="matrix(1.0, 0.0, 0.0, 1.0, -26.7, -26.05)">
      <path d="M634.7 26.05 L634.7 399.0 26.7 399.0 26.7 26.05 634.7 26.05" fill="#000000" fill-rule="evenodd" stroke="none"/>
    </g>
    <g id="sprite0" transform="matrix(1.0, 0.0, 0.0, 1.0, 534.8, 0.0)">
      <use ffdec:characterId="3564" height="576.65" transform="matrix(1.0, 0.0, 0.0, 1.0, -534.8, 0.0)" width="1423.15" xlink:href="#shape1"/>
    </g>
    <g id="shape1" transform="matrix(1.0, 0.0, 0.0, 1.0, 534.8, 0.0)">
      <path d="M-371.8 8.35 L-247.65 5.8 Q43.25 4.05 45.95 4.3 L55.55 5.55 58.9 5.55 56.0 3.3 55.75 1.8 56.0 0.75 Q56.2 0.3 57.75 0.3 62.0 0.3 63.8 4.35 L64.25 5.55 594.4 5.55 Q591.85 3.95 591.85 2.3 591.85 0.85 594.55 1.1 L601.6 2.6 Q615.45 6.05 623.0 6.05 L641.45 5.0 643.05 3.4 Q646.1 0.6 648.0 0.1 L648.25 0.0 Q648.5 0.05 648.5 0.85 648.5 1.8 645.15 4.75 L665.4 3.55 666.15 3.55 Q739.1 3.55 769.0 6.5 796.8 9.25 809.75 9.2 822.7 9.1 853.05 9.35 883.35 9.55 869.9 44.0 856.45 78.4 864.9 96.95 870.45 109.25 874.05 129.05 L881.55 160.85 Q886.2 180.75 887.45 193.55 889.25 214.55 887.45 257.15 L887.45 261.15 887.65 410.6 Q884.8 570.2 870.45 570.2 852.35 570.2 846.6 568.75 842.15 566.8 838.0 565.85 821.7 561.3 729.75 561.3 L665.4 564.2 659.3 565.2 Q635.45 569.2 629.6 569.4 L519.9 574.55 482.6 576.65 Q463.95 576.65 406.1 566.45 349.6 556.65 318.6 557.3 273.3 558.25 251.7 555.5 235.15 553.55 222.75 547.6 212.25 542.6 204.05 540.65 200.05 539.7 180.75 536.3 L150.5 531.8 Q122.55 527.75 115.25 525.0 108.85 522.9 101.4 518.7 98.7 517.1 89.75 511.3 L76.0 503.05 Q64.8 496.25 63.25 494.35 57.95 487.55 49.45 489.0 45.2 489.8 41.75 491.9 L39.45 491.55 -534.8 478.7 50.25 469.3 Q57.7 469.3 80.35 485.3 91.9 493.55 104.5 503.2 112.4 508.2 160.5 517.1 184.7 521.45 208.75 525.0 224.7 530.15 237.0 531.3 L375.6 543.55 Q385.8 544.55 419.25 551.8 451.25 558.9 453.5 558.9 506.9 558.9 520.45 555.2 535.6 551.15 631.6 550.0 637.55 550.0 660.65 546.45 L665.4 545.7 732.45 542.75 787.65 545.15 840.0 548.4 Q850.0 550.8 860.6 550.8 863.1 523.05 865.6 411.55 867.6 319.4 867.75 261.15 L867.75 257.15 Q870.1 215.3 867.75 194.3 866.3 180.55 862.55 162.8 861.15 155.8 855.2 131.3 850.75 111.75 845.0 99.8 836.75 82.5 853.35 45.75 869.95 9.0 849.6 17.4 829.25 25.85 818.0 16.05 788.9 26.25 795.65 14.55 785.65 19.8 784.4 18.65 782.25 16.45 773.65 14.8 747.5 9.55 665.8 9.55 L665.4 9.55 Q652.95 9.35 642.0 9.5 L641.7 8.7 Q641.05 7.8 639.0 7.8 L636.75 8.15 636.2 8.65 635.9 9.05 634.05 9.25 632.65 9.4 631.4 9.1 630.1 8.8 Q629.45 8.8 627.75 9.45 L625.4 10.05 624.7 9.8 624.0 9.55 Q623.45 9.55 621.75 10.8 L618.85 10.9 Q618.35 11.1 618.35 11.3 L620.2 11.95 620.1 12.0 612.25 11.05 608.6 11.05 67.0 11.05 Q66.25 11.55 65.95 12.7 65.4 13.5 63.0 13.55 L62.4 13.05 Q61.75 12.7 59.3 12.1 60.2 9.25 57.5 9.45 55.25 9.55 54.85 11.35 L54.75 12.15 Q54.75 13.0 56.55 14.3 57.55 15.0 58.55 15.4 L56.5 15.15 45.05 14.7 43.5 13.6 Q44.65 12.9 44.15 11.75 L44.15 11.05 43.55 11.05 Q42.55 10.35 -371.8 8.35" fill="#1f1e27" fill-rule="evenodd" stroke="none"/>
      <path d="M-529.6 259.9 L-495.9 9.0 -371.8 8.35 Q42.55 10.35 43.55 11.05 L44.15 11.75 Q44.65 12.9 43.5 13.6 L45.05 14.7 56.5 15.15 58.55 15.4 Q57.55 15.0 56.55 14.3 54.75 13.0 54.75 12.15 L54.85 11.35 Q55.25 9.55 57.5 9.45 60.2 9.25 59.3 12.1 61.75 12.7 62.4 13.05 L63.0 13.55 63.25 14.1 63.2 14.55 62.7 15.4 61.15 15.8 63.85 16.5 68.8 18.3 Q70.8 18.75 73.45 20.35 75.95 21.8 76.75 22.8 L77.4 25.4 Q78.25 27.55 81.05 27.55 L87.5 27.1 90.85 26.6 Q93.4 26.6 94.15 27.15 L94.65 27.85 98.6 28.2 100.55 28.65 102.5 29.9 103.8 31.1 104.2 31.7 104.3 31.9 Q105.3 33.55 105.25 34.0 L104.9 36.15 Q104.9 37.05 105.9 39.4 L106.55 40.85 106.7 41.15 Q108.25 44.4 109.0 44.95 L115.15 49.25 Q119.0 51.95 121.1 53.8 122.95 55.35 124.35 58.1 L126.55 62.6 Q128.15 65.45 130.15 66.7 133.65 68.8 142.15 70.3 144.85 70.8 146.65 72.2 L149.25 74.7 151.3 76.9 153.05 79.05 Q154.2 80.4 155.15 83.45 156.65 86.2 161.3 87.8 164.15 88.75 165.55 89.4 L169.6 91.7 Q170.7 92.35 171.2 93.7 L171.75 96.05 Q171.9 97.25 174.85 98.3 178.0 99.5 178.3 100.1 L179.25 102.35 179.25 103.5 180.05 105.8 181.05 109.9 Q181.7 112.5 182.5 114.05 182.9 114.85 186.75 118.15 187.55 118.85 188.25 120.25 L189.25 122.3 Q189.95 123.7 190.1 126.3 L190.5 130.55 Q190.95 133.45 191.3 134.55 192.05 137.0 193.5 138.8 194.6 140.15 199.65 142.75 L206.8 146.55 Q209.55 148.2 211.55 150.55 213.55 152.75 214.15 154.8 L215.4 157.65 215.5 157.65 Q216.1 157.65 216.1 157.3 L216.1 154.9 Q215.45 152.3 214.65 151.3 213.9 150.4 212.45 149.45 L210.7 148.45 199.6 139.5 Q191.05 132.35 191.05 128.3 191.05 127.2 192.3 122.55 L193.55 117.8 Q193.55 114.65 188.45 112.35 182.55 109.7 181.05 106.05 180.35 104.3 180.75 99.1 181.1 94.65 179.25 92.55 177.95 91.1 174.25 90.35 170.9 89.65 169.25 87.05 167.6 84.45 166.45 83.75 164.75 82.8 159.25 81.85 L157.3 81.3 156.5 80.7 Q158.6 80.0 161.3 78.55 L162.0 78.2 162.9 77.35 164.5 76.45 166.75 74.7 Q167.25 74.3 173.25 72.05 176.45 70.85 177.9 70.7 180.1 70.4 181.35 71.7 182.4 72.3 183.45 73.45 L184.65 75.3 185.1 77.2 Q185.5 78.6 186.3 78.8 L192.4 79.85 Q195.45 80.35 197.1 81.55 198.4 82.5 199.25 85.0 199.9 87.0 199.9 88.7 L199.65 92.05 199.45 95.5 199.7 97.1 200.5 101.55 200.9 103.0 Q202.05 106.85 204.15 109.45 204.95 110.4 206.85 111.45 L210.3 113.15 Q212.35 114.1 213.8 115.05 L217.0 117.05 Q223.85 121.2 226.75 126.25 228.5 129.3 228.75 132.7 L228.8 132.95 Q228.85 133.8 229.25 134.9 L233.3 137.3 Q237.45 139.6 238.25 140.2 L239.2 141.7 239.9 143.2 241.7 144.65 243.4 146.2 244.0 149.0 Q244.3 150.5 245.25 151.6 L245.9 152.2 247.0 153.0 250.25 155.1 254.75 158.2 Q255.8 159.2 256.9 161.05 L257.5 162.0 258.6 163.2 Q259.35 164.45 261.25 166.2 263.35 168.15 265.7 169.15 268.6 170.35 273.35 170.8 L274.45 170.95 274.5 170.9 280.25 170.55 Q285.0 170.1 291.35 173.15 294.4 174.65 295.85 175.8 304.35 178.8 309.7 178.8 313.4 178.8 321.35 173.95 323.75 172.6 327.65 171.85 L340.8 170.65 350.4 169.85 352.0 169.05 Q358.15 166.2 358.85 165.65 L361.2 163.95 Q363.2 162.7 365.1 162.2 L370.2 161.6 371.1 161.75 372.0 161.7 Q375.8 161.55 376.1 162.65 377.05 162.05 377.4 162.05 L377.5 162.1 375.45 164.05 375.45 163.8 374.85 164.15 373.05 164.9 Q368.1 168.5 366.05 172.35 364.85 174.55 361.95 177.05 L357.55 180.6 352.6 182.25 Q347.75 183.75 347.25 184.05 L345.15 185.2 353.3 183.8 357.6 183.0 358.25 182.55 Q360.55 181.45 361.25 180.95 L364.9 177.8 370.75 171.4 373.35 168.25 Q375.3 166.05 377.0 164.8 378.4 163.85 383.75 162.8 L383.95 162.8 385.35 161.7 390.1 158.05 Q392.0 156.2 394.75 151.65 L394.85 151.5 Q397.3 147.4 400.35 145.15 404.6 141.95 410.75 141.05 L414.0 140.7 Q417.9 140.6 420.3 141.35 L420.75 141.3 Q422.45 140.5 426.45 142.1 430.4 143.7 430.4 145.05 L430.05 146.1 429.8 146.5 430.1 146.55 Q428.8 148.5 428.3 149.85 427.25 152.85 427.25 159.3 L427.5 161.7 427.75 164.1 427.4 166.7 427.0 169.15 Q427.0 169.8 427.15 170.2 L427.25 169.95 Q428.25 167.7 428.5 166.2 L429.4 160.55 Q429.7 157.75 431.15 149.15 431.55 146.85 434.05 143.6 435.7 141.4 439.25 137.7 440.15 136.8 440.75 134.65 L441.5 132.05 443.8 129.3 Q444.45 128.55 447.2 127.85 449.95 127.1 450.25 126.8 L452.3 123.75 453.35 120.75 Q454.75 117.2 455.05 116.8 L457.25 114.85 Q458.9 113.6 460.45 112.85 L461.0 112.2 463.4 110.55 Q464.65 109.55 465.75 107.3 L466.9 105.0 468.85 101.1 469.75 100.0 472.0 98.0 476.1 95.05 Q477.6 94.0 483.2 92.4 485.4 91.75 486.9 91.6 L492.5 88.3 Q498.4 85.45 500.5 86.3 L500.75 86.2 504.5 86.5 Q507.35 87.25 507.35 88.6 507.35 89.25 505.9 90.05 L506.6 90.3 505.3 90.6 Q503.45 91.15 500.25 93.95 496.25 97.4 496.25 100.05 L496.75 104.0 497.25 107.9 Q497.25 108.8 494.35 111.1 L490.8 113.6 487.0 115.8 Q484.6 116.9 479.5 118.05 476.7 118.65 474.9 120.3 473.45 121.55 473.0 123.1 472.7 124.05 470.8 126.45 L470.25 127.2 Q472.85 125.1 474.65 124.05 479.15 121.35 480.3 120.9 484.35 119.2 490.9 118.8 L493.7 118.95 Q494.7 118.85 496.25 117.15 L496.8 116.3 497.25 115.45 Q498.1 114.0 498.65 111.85 L499.3 108.45 Q499.7 106.3 500.6 104.8 501.85 102.75 503.15 101.4 505.2 99.2 508.25 97.6 510.25 96.55 514.5 95.0 L520.9 92.7 521.05 92.6 522.6 91.35 Q523.6 90.35 524.55 89.8 L528.9 87.1 Q533.15 84.8 536.4 81.3 L540.75 75.65 Q545.45 69.15 554.6 64.2 556.15 63.4 563.65 61.85 570.9 60.4 572.65 60.4 577.0 60.45 581.85 58.3 L582.9 57.85 583.95 57.0 585.6 56.05 Q587.35 54.05 587.85 52.8 588.7 50.7 592.45 47.35 592.9 45.6 595.6 43.25 598.85 40.35 603.15 38.35 604.65 37.7 606.35 36.15 608.15 34.55 608.5 33.45 L609.5 31.15 610.75 28.55 612.75 23.7 613.95 20.9 615.0 18.8 617.9 13.95 620.1 12.0 620.2 11.95 620.8 11.45 621.75 10.8 Q623.45 9.55 624.0 9.55 L624.7 9.8 625.4 10.05 627.75 9.45 Q629.45 8.8 630.1 8.8 L631.4 9.1 632.65 9.4 634.05 9.25 635.9 9.05 636.2 8.65 636.75 8.15 639.0 7.8 Q641.05 7.8 641.7 8.7 L642.0 9.5 Q652.95 9.35 665.4 9.55 L665.4 261.15 -529.6 259.9" fill="url(#gradient0)" fill-rule="evenodd" stroke="none"/>
      <path d="M63.0 13.55 Q65.4 13.5 65.95 12.7 66.25 11.55 67.0 11.05 L608.6 11.05 612.25 11.05 620.1 12.0 617.9 13.95 615.0 18.8 613.95 20.9 607.7 24.95 Q601.3 28.75 598.75 31.1 L591.3 37.85 Q588.15 41.1 587.25 44.3 L586.3 47.75 585.0 51.05 Q583.85 52.9 580.55 54.5 576.45 56.55 571.6 56.55 L561.6 55.65 Q555.35 55.15 552.8 57.1 L549.0 60.55 Q547.95 61.25 545.6 64.4 L544.75 65.55 Q543.1 66.7 540.55 69.2 L540.2 69.6 541.1 69.7 539.65 70.85 Q535.2 74.65 533.05 77.6 L530.05 80.75 529.0 81.7 Q525.15 80.9 522.7 81.65 L521.8 82.0 514.5 82.8 510.65 82.2 506.75 81.55 503.05 81.8 502.9 81.8 Q498.5 81.8 493.65 85.85 488.7 89.95 485.4 90.05 L475.65 90.8 Q475.3 90.85 474.5 91.25 473.75 91.6 473.55 91.85 L471.85 93.45 470.8 94.6 Q470.2 95.6 470.0 97.6 L469.75 100.0 468.85 101.1 466.9 105.0 465.4 106.05 458.65 107.8 Q458.3 107.9 457.25 108.95 L456.15 110.1 Q453.95 111.9 452.95 115.8 451.9 120.25 450.65 121.8 450.0 122.65 445.95 123.45 441.6 124.3 440.0 125.6 438.55 126.8 438.5 128.35 L438.3 131.3 438.0 133.4 437.25 134.6 436.5 136.6 Q435.65 136.8 429.05 136.65 421.75 136.45 420.25 136.8 L417.1 137.75 415.0 138.6 Q413.1 139.55 410.75 141.05 404.6 141.95 400.35 145.15 397.3 147.4 394.85 151.5 393.2 152.45 392.0 153.3 L387.6 156.4 Q386.5 156.65 385.1 157.35 L380.2 160.15 Q379.05 159.6 377.35 159.2 L374.0 158.65 372.4 158.2 Q369.95 157.3 368.25 157.3 362.55 157.3 353.75 162.65 L345.8 168.1 Q342.95 169.4 336.15 169.35 L328.25 169.3 Q327.15 169.5 325.2 170.45 L322.5 171.55 316.3 174.1 Q309.85 176.55 305.9 176.55 302.6 176.55 299.7 174.95 298.5 174.3 294.85 171.45 288.25 166.3 280.25 166.3 L273.75 166.9 268.25 167.85 Q262.9 168.5 261.75 164.85 L260.75 160.05 Q260.15 157.4 255.75 155.6 253.55 154.7 247.0 153.0 L245.9 152.2 245.25 151.6 Q245.3 150.45 246.0 149.1 246.75 147.65 246.75 146.45 L246.5 145.0 Q246.2 144.25 245.3 143.55 L243.65 143.15 242.25 142.8 241.75 140.85 Q241.75 138.6 240.8 137.55 238.35 134.7 236.3 135.25 L232.3 135.6 Q230.1 134.75 228.8 132.95 L228.75 132.7 Q228.5 129.3 226.75 126.25 L225.75 123.05 Q223.75 119.05 221.25 116.4 218.1 113.1 213.25 110.8 206.95 107.8 203.85 105.55 L200.9 103.0 200.5 101.55 199.7 97.1 200.05 95.3 201.05 92.8 Q203.05 88.3 203.05 86.15 203.05 83.75 201.85 81.1 200.2 77.55 197.3 77.1 L192.75 76.8 190.05 76.9 Q188.25 76.75 186.25 73.05 185.65 71.8 183.85 70.5 180.9 68.35 176.75 68.35 175.9 68.35 170.2 71.85 168.05 73.15 165.9 73.95 L165.5 73.6 164.0 74.55 163.0 74.8 163.05 75.2 Q160.9 76.5 159.0 77.05 156.15 77.85 154.35 78.7 L152.35 75.9 Q150.7 72.35 149.45 70.15 L149.3 69.1 Q147.85 65.3 143.5 64.9 134.85 64.15 131.5 63.05 126.8 61.55 124.55 57.0 121.7 51.2 120.05 49.85 116.5 46.85 109.55 43.35 107.6 42.4 106.7 41.15 L106.55 40.85 105.9 39.4 Q105.7 38.3 106.05 36.3 106.9 32.15 106.5 29.55 106.35 28.6 105.7 27.7 L104.3 26.1 102.5 24.3 Q102.15 23.0 101.45 22.85 L91.75 22.85 79.95 22.0 79.25 20.4 Q78.45 19.05 76.0 17.6 L67.85 15.6 63.2 14.55 63.25 14.1 63.0 13.55 M620.2 11.95 L618.35 11.3 Q618.35 11.1 618.85 10.9 L621.75 10.8 620.8 11.45 620.2 11.95" fill="url(#gradient1)" fill-rule="evenodd" stroke="none"/>
      <path d="M613.95 20.9 L612.75 23.7 610.75 28.55 609.5 31.15 608.5 33.45 Q608.15 34.55 606.35 36.15 604.65 37.7 603.15 38.35 598.85 40.35 595.6 43.25 592.9 45.6 592.45 47.35 588.7 50.7 587.85 52.8 587.35 54.05 585.6 56.05 L583.95 57.0 582.9 57.85 581.85 58.3 Q577.0 60.45 572.65 60.4 570.9 60.4 563.65 61.85 556.15 63.4 554.6 64.2 545.45 69.15 540.75 75.65 L536.4 81.3 Q533.15 84.8 528.9 87.1 L524.55 89.8 Q523.6 90.35 522.6 91.35 L521.05 92.6 520.9 92.7 514.5 95.0 Q510.25 96.55 508.25 97.6 505.2 99.2 503.15 101.4 501.85 102.75 500.6 104.8 499.7 106.3 499.3 108.45 L498.65 111.85 Q498.1 114.0 497.25 115.45 L496.8 116.3 496.25 117.15 Q494.7 118.85 493.7 118.95 L490.9 118.8 Q484.35 119.2 480.3 120.9 479.15 121.35 474.65 124.05 472.85 125.1 470.25 127.2 L470.8 126.45 Q472.7 124.05 473.0 123.1 473.45 121.55 474.9 120.3 476.7 118.65 479.5 118.05 484.6 116.9 487.0 115.8 L490.8 113.6 494.35 111.1 Q497.25 108.8 497.25 107.9 L496.75 104.0 496.25 100.05 Q496.25 97.4 500.25 93.95 503.45 91.15 505.3 90.6 L506.6 90.3 505.9 90.05 Q507.35 89.25 507.35 88.6 507.35 87.25 504.5 86.5 L500.75 86.2 500.5 86.3 Q498.4 85.45 492.5 88.3 L486.9 91.6 Q485.4 91.75 483.2 92.4 477.6 94.0 476.1 95.05 L472.0 98.0 469.75 100.0 470.0 97.6 Q470.2 95.6 470.8 94.6 L471.85 93.45 473.55 91.85 Q473.75 91.6 474.5 91.25 475.3 90.85 475.65 90.8 L485.4 90.05 Q488.7 89.95 493.65 85.85 498.5 81.8 502.9 81.8 L503.05 81.8 506.75 81.55 510.65 82.2 514.5 82.8 521.8 82.0 522.7 81.65 Q525.15 80.9 529.0 81.7 L530.05 80.75 533.05 77.6 Q535.2 74.65 539.65 70.85 L541.1 69.7 540.2 69.6 540.55 69.2 Q543.1 66.7 544.75 65.55 L545.6 64.4 Q547.95 61.25 549.0 60.55 L552.8 57.1 Q555.35 55.15 561.6 55.65 L571.6 56.55 Q576.45 56.55 580.55 54.5 583.85 52.9 585.0 51.05 L586.3 47.75 587.25 44.3 Q588.15 41.1 591.3 37.85 L598.75 31.1 Q601.3 28.75 607.7 24.95 L613.95 20.9 M466.9 105.0 L465.75 107.3 Q464.65 109.55 463.4 110.55 L461.0 112.2 460.45 112.85 Q458.9 113.6 457.25 114.85 L455.05 116.8 Q454.75 117.2 453.35 120.75 L452.3 123.75 450.25 126.8 Q449.95 127.1 447.2 127.85 444.45 128.55 443.8 129.3 L441.5 132.05 440.75 134.65 Q440.15 136.8 439.25 137.7 435.7 141.4 434.05 143.6 431.55 146.85 431.15 149.15 429.7 157.75 429.4 160.55 L428.5 166.2 Q428.25 167.7 427.25 169.95 L427.15 170.2 Q427.0 169.8 427.0 169.15 L427.4 166.7 427.75 164.1 427.5 161.7 427.25 159.3 Q427.25 152.85 428.3 149.85 428.8 148.5 430.1 146.55 L429.8 146.5 430.05 146.1 430.4 145.05 Q430.4 143.7 426.45 142.1 422.45 140.5 420.75 141.3 L420.3 141.35 Q417.9 140.6 414.0 140.7 L410.75 141.05 Q413.1 139.55 415.0 138.6 L417.1 137.75 420.25 136.8 Q421.75 136.45 429.05 136.65 435.65 136.8 436.5 136.6 L437.25 134.6 438.0 133.4 438.3 131.3 438.5 128.35 Q438.55 126.8 440.0 125.6 441.6 124.3 445.95 123.45 450.0 122.65 450.65 121.8 451.9 120.25 452.95 115.8 453.95 111.9 456.15 110.1 L457.25 108.95 Q458.3 107.9 458.65 107.8 L465.4 106.05 466.9 105.0 M394.85 151.5 L394.75 151.65 Q392.0 156.2 390.1 158.05 L385.35 161.7 383.95 162.8 383.75 162.8 Q378.4 163.85 377.0 164.8 375.3 166.05 373.35 168.25 L370.75 171.4 364.9 177.8 361.25 180.95 Q360.55 181.45 358.25 182.55 L357.6 183.0 353.3 183.8 345.15 185.2 347.25 184.05 Q347.75 183.75 352.6 182.25 L357.55 180.6 361.95 177.05 Q364.85 174.55 366.05 172.35 368.1 168.5 373.05 164.9 L374.85 164.15 375.45 163.8 375.45 164.05 377.5 162.1 377.4 162.05 Q377.05 162.05 376.1 162.65 375.8 161.55 372.0 161.7 L371.1 161.75 370.2 161.6 365.1 162.2 Q363.2 162.7 361.2 163.95 L358.85 165.65 Q358.15 166.2 352.0 169.05 L350.4 169.85 340.8 170.65 327.65 171.85 Q323.75 172.6 321.35 173.95 313.4 178.8 309.7 178.8 304.35 178.8 295.85 175.8 294.4 174.65 291.35 173.15 285.0 170.1 280.25 170.55 L274.5 170.9 274.45 170.95 273.35 170.8 Q268.6 170.35 265.7 169.15 263.35 168.15 261.25 166.2 259.35 164.45 258.6 163.2 L257.5 162.0 256.9 161.05 Q255.8 159.2 254.75 158.2 L250.25 155.1 247.0 153.0 Q253.55 154.7 255.75 155.6 260.15 157.4 260.75 160.05 L261.75 164.85 Q262.9 168.5 268.25 167.85 L273.75 166.9 280.25 166.3 Q288.25 166.3 294.85 171.45 298.5 174.3 299.7 174.95 302.6 176.55 305.9 176.55 309.85 176.55 316.3 174.1 L322.5 171.55 325.2 170.45 Q327.15 169.5 328.25 169.3 L336.15 169.35 Q342.95 169.4 345.8 168.1 L353.75 162.65 Q362.55 157.3 368.25 157.3 369.95 157.3 372.4 158.2 L374.0 158.65 377.35 159.2 Q379.05 159.6 380.2 160.15 L385.1 157.35 Q386.5 156.65 387.6 156.4 L392.0 153.3 Q393.2 152.45 394.85 151.5 M245.25 151.6 Q244.3 150.5 244.0 149.0 L243.4 146.2 241.7 144.65 239.9 143.2 239.2 141.7 238.25 140.2 Q237.45 139.6 233.3 137.3 L229.25 134.9 Q228.85 133.8 228.8 132.95 230.1 134.75 232.3 135.6 L236.3 135.25 Q238.35 134.7 240.8 137.55 241.75 138.6 241.75 140.85 L242.25 142.8 243.65 143.15 245.3 143.55 Q246.2 144.25 246.5 145.0 L246.75 146.45 Q246.75 147.65 246.0 149.1 245.3 150.45 245.25 151.6 M226.75 126.25 Q223.85 121.2 217.0 117.05 L213.8 115.05 Q212.35 114.1 210.3 113.15 L206.85 111.45 Q204.95 110.4 204.15 109.45 202.05 106.85 200.9 103.0 L203.85 105.55 Q206.95 107.8 213.25 110.8 218.1 113.1 221.25 116.4 223.75 119.05 225.75 123.05 L226.75 126.25 M199.7 97.1 L199.45 95.5 199.65 92.05 199.9 88.7 Q199.9 87.0 199.25 85.0 198.4 82.5 197.1 81.55 195.45 80.35 192.4 79.85 L186.3 78.8 Q185.5 78.6 185.1 77.2 L184.65 75.3 183.45 73.45 Q182.4 72.3 181.35 71.7 180.1 70.4 177.9 70.7 176.45 70.85 173.25 72.05 167.25 74.3 166.75 74.7 L164.5 76.45 162.9 77.35 162.0 78.2 161.3 78.55 Q158.6 80.0 156.5 80.7 L157.3 81.3 159.25 81.85 Q164.75 82.8 166.45 83.75 167.6 84.45 169.25 87.05 170.9 89.65 174.25 90.35 177.95 91.1 179.25 92.55 181.1 94.65 180.75 99.1 180.35 104.3 181.05 106.05 182.55 109.7 188.45 112.35 193.55 114.65 193.55 117.8 L192.3 122.55 Q191.05 127.2 191.05 128.3 191.05 132.35 199.6 139.5 L210.7 148.45 212.45 149.45 Q213.9 150.4 214.65 151.3 215.45 152.3 216.1 154.9 L216.1 157.3 Q216.1 157.65 215.5 157.65 L215.4 157.65 214.15 154.8 Q213.55 152.75 211.55 150.55 209.55 148.2 206.8 146.55 L199.65 142.75 Q194.6 140.15 193.5 138.8 192.05 137.0 191.3 134.55 190.95 133.45 190.5 130.55 L190.1 126.3 Q189.95 123.7 189.25 122.3 L188.25 120.25 Q187.55 118.85 186.75 118.15 182.9 114.85 182.5 114.05 181.7 112.5 181.05 109.9 L180.05 105.8 179.25 103.5 179.25 102.35 178.3 100.1 Q178.0 99.5 174.85 98.3 171.9 97.25 171.75 96.05 L171.2 93.7 Q170.7 92.35 169.6 91.7 L165.55 89.4 Q164.15 88.75 161.3 87.8 156.65 86.2 155.15 83.45 154.2 80.4 153.05 79.05 L151.3 76.9 149.25 74.7 146.65 72.2 Q144.85 70.8 142.15 70.3 133.65 68.8 130.15 66.7 128.15 65.45 126.55 62.6 L124.35 58.1 Q122.95 55.35 121.1 53.8 119.0 51.95 115.15 49.25 L109.0 44.95 Q108.25 44.4 106.7 41.15 107.6 42.4 109.55 43.35 116.5 46.85 120.05 49.85 121.7 51.2 124.55 57.0 126.8 61.55 131.5 63.05 134.85 64.15 143.5 64.9 147.85 65.3 149.3 69.1 L149.45 70.15 Q150.7 72.35 152.35 75.9 L154.35 78.7 Q156.15 77.85 159.0 77.05 160.9 76.5 163.05 75.2 L163.0 74.8 164.0 74.55 165.5 73.6 165.9 73.95 Q168.05 73.15 170.2 71.85 175.9 68.35 176.75 68.35 180.9 68.35 183.85 70.5 185.65 71.8 186.25 73.05 188.25 76.75 190.05 76.9 L192.75 76.8 197.3 77.1 Q200.2 77.55 201.85 81.1 203.05 83.75 203.05 86.15 203.05 88.3 201.05 92.8 L200.05 95.3 199.7 97.1 M105.9 39.4 Q104.9 37.05 104.9 36.15 L105.25 34.0 Q105.3 33.55 104.3 31.9 L104.8 32.5 104.8 31.65 104.2 31.7 103.8 31.1 102.5 29.9 100.55 28.65 98.6 28.2 94.65 27.85 94.15 27.15 Q93.4 26.6 90.85 26.6 L87.5 27.1 81.05 27.55 Q78.25 27.55 77.4 25.4 L76.75 22.8 Q75.95 21.8 73.45 20.35 70.8 18.75 68.8 18.3 L63.85 16.5 61.15 15.8 62.7 15.4 63.2 14.55 67.85 15.6 76.0 17.6 Q78.45 19.05 79.25 20.4 L79.95 22.0 91.75 22.85 101.45 22.85 Q102.15 23.0 102.5 24.3 L104.3 26.1 105.7 27.7 Q106.35 28.6 106.5 29.55 106.9 32.15 106.05 36.3 105.7 38.3 105.9 39.4" fill="#11101d" fill-rule="evenodd" stroke="none"/>
      <path d="M-534.8 478.7 L-529.6 259.9 665.4 261.15 665.4 545.7 660.65 546.45 Q637.55 550.0 631.6 550.0 535.6 551.15 520.45 555.2 506.9 558.9 453.5 558.9 451.25 558.9 419.25 551.8 385.8 544.55 375.6 543.55 L237.0 531.3 Q224.7 530.15 208.75 525.0 184.7 521.45 160.5 517.1 112.4 508.2 104.5 503.2 91.9 493.55 80.35 485.3 57.7 469.3 50.25 469.3 L-534.8 478.7" fill="url(#gradient2)" fill-rule="evenodd" stroke="none"/>
      <path d="M665.4 9.55 L665.8 9.55 Q747.5 9.55 773.65 14.8 782.25 16.45 784.4 18.65 785.65 19.8 795.65 14.55 788.9 26.25 818.0 16.05 829.25 25.85 849.6 17.4 869.95 9.0 853.35 45.75 836.75 82.5 845.0 99.8 850.75 111.75 855.2 131.3 861.15 155.8 862.55 162.8 866.3 180.55 867.75 194.3 870.1 215.3 867.75 257.15 L867.75 261.15 665.4 261.15 665.4 9.55" fill="url(#gradient3)" fill-rule="evenodd" stroke="none"/>
      <path d="M867.75 261.15 Q867.6 319.4 865.6 411.55 863.1 523.05 860.6 550.8 850.0 550.8 840.0 548.4 L787.65 545.15 732.45 542.75 665.4 545.7 665.4 261.15 867.75 261.15" fill="url(#gradient4)" fill-rule="evenodd" stroke="none"/>
    </g>
    <linearGradient gradientTransform="matrix(0.0, 0.2418, -1.0, 0.0, 964.65, 181.3)" gradientUnits="userSpaceOnUse" id="gradient0" spreadMethod="pad" x1="-819.2" x2="819.2">
      <stop offset="0.0" stop-color="#09050d"/>
      <stop offset="1.0" stop-color="#000000"/>
    </linearGradient>
    <radialGradient cx="0" cy="0" gradientTransform="matrix(0.5139, 0.0, 0.0, 0.3246, 190.0, 224.05)" gradientUnits="userSpaceOnUse" id="gradient1" r="819.2" spreadMethod="pad">
      <stop offset="0.0" stop-color="#100918"/>
      <stop offset="1.0" stop-color="#000000"/>
    </radialGradient>
    <linearGradient gradientTransform="matrix(0.0, 0.7803, -1.0, 0.0, 964.65, 3.4)" gradientUnits="userSpaceOnUse" id="gradient2" spreadMethod="pad" x1="-819.2" x2="819.2">
      <stop offset="0.0" stop-color="#09050d"/>
      <stop offset="1.0" stop-color="#000000"/>
    </linearGradient>
    <linearGradient gradientTransform="matrix(0.0, 0.2418, -3.5844, 0.0, 1738.05, 181.3)" gradientUnits="userSpaceOnUse" id="gradient3" spreadMethod="pad" x1="-819.2" x2="819.2">
      <stop offset="0.0" stop-color="#09050d"/>
      <stop offset="1.0" stop-color="#000000"/>
    </linearGradient>
    <linearGradient gradientTransform="matrix(0.0, 0.7803, -3.5844, 0.0, 1738.05, 3.4)" gradientUnits="userSpaceOnUse" id="gradient4" spreadMethod="pad" x1="-819.2" x2="819.2">
      <stop offset="0.0" stop-color="#09050d"/>
      <stop offset="1.0" stop-color="#000000"/>
    </linearGradient>
    <g id="sprite1" transform="matrix(1.0, 0.0, 0.0, 1.0, 0.0, 0.0)">
      <use ffdec:characterId="3553" height="108.0" transform="matrix(1.0, 0.0, 0.0, 1.0, 0.0, 0.0)" width="156.45" xlink:href="#shape2"/>
    </g>
    <g id="shape2" transform="matrix(1.0, 0.0, 0.0, 1.0, 0.0, 0.0)">
      <path d="M0.0 101.45 L39.45 0.0 156.45 20.0 8.45 108.0 0.0 101.45" fill="url(#gradient5)" fill-rule="evenodd" stroke="none"/>
    </g>
    <linearGradient gradientTransform="matrix(0.0343, -0.0542, 0.8435, 0.5339, -63.6, -11.35)" gradientUnits="userSpaceOnUse" id="gradient5" spreadMethod="pad" x1="-819.2" x2="819.2">
      <stop offset="0.0" stop-color="#ffffff" stop-opacity="0.627451"/>
      <stop offset="1.0" stop-color="#ffffff" stop-opacity="0.0"/>
    </linearGradient>
    <g id="sprite2" transform="matrix(1.0, 0.0, 0.0, 1.0, 0.0, 0.0)">
      <use ffdec:characterId="3562" height="122.15" transform="matrix(1.0, 0.0, 0.0, 1.0, 0.0, 0.0)" width="110.45" xlink:href="#shape3"/>
    </g>
    <g id="shape3" transform="matrix(1.0, 0.0, 0.0, 1.0, 0.0, 0.0)">
      <path d="M106.1 34.4 L106.2 34.35 107.0 35.45 Q108.4 37.65 108.75 39.1 L109.4 44.1 Q109.15 45.5 109.2 47.4 109.25 52.0 108.95 53.4 107.25 61.65 106.05 65.25 104.35 70.15 101.0 77.1 L98.2 81.95 98.0 81.9 Q97.25 81.9 97.0 82.95 L96.7 84.35 95.6 86.15 95.0 86.9 Q93.95 88.15 93.85 88.65 93.4 90.35 89.35 92.5 85.25 94.65 82.2 94.65 79.5 94.65 77.85 93.55 L77.95 93.35 80.1 93.15 81.6 92.45 83.7 92.7 84.8 91.7 86.1 90.95 86.3 90.6 86.65 90.15 87.95 89.35 89.1 88.6 89.8 86.8 Q90.0 86.3 91.15 85.1 92.15 84.05 92.2 83.45 92.2 82.75 93.4 81.95 94.6 81.15 94.6 79.9 L94.45 78.85 Q94.45 78.55 94.9 78.2 L95.65 77.6 Q96.45 76.5 96.45 75.1 96.45 74.4 97.4 73.9 98.45 73.35 98.55 73.0 L98.65 71.7 Q98.6 70.9 98.85 70.5 99.3 69.75 100.1 69.7 100.55 69.65 100.55 68.2 100.55 67.0 101.0 65.7 101.15 65.25 101.75 64.5 102.25 63.95 102.2 63.4 102.1 62.55 102.35 61.9 L102.65 60.9 102.6 59.1 Q102.6 58.75 103.1 58.1 L103.55 57.15 Q103.55 55.6 103.7 55.2 L103.9 54.0 103.9 53.25 104.45 49.45 104.6 47.5 104.8 46.55 105.0 45.7 104.75 44.9 104.45 44.15 Q104.45 43.9 104.95 43.35 L105.45 42.7 105.0 41.7 104.55 40.9 Q104.55 40.6 105.0 40.3 L105.45 39.65 Q105.45 38.9 104.7 37.95 L103.95 36.8 104.3 36.35 103.25 35.25 102.55 34.4 102.15 33.75 101.05 32.2 103.55 32.65 104.3 32.95 104.5 33.1 104.7 33.2 104.9 33.4 Q105.45 33.4 106.1 34.4 M75.3 27.0 Q75.9 26.45 76.25 26.45 79.0 26.45 81.75 28.85 L84.15 31.05 83.9 31.35 Q80.2 36.0 80.2 37.2 L80.25 37.45 80.6 37.5 Q82.8 34.0 85.8 30.5 87.45 28.5 89.25 26.85 92.3 24.0 94.05 24.0 95.8 24.0 97.45 25.55 98.95 26.95 98.95 27.85 98.95 28.5 97.25 30.15 95.7 31.7 95.6 32.3 94.65 32.7 93.8 33.25 89.85 35.85 85.9 42.5 84.35 45.05 82.5 48.9 L82.05 49.85 81.8 48.35 81.15 45.8 80.45 43.2 Q79.95 40.55 79.3 39.05 L79.35 38.85 79.3 38.55 79.25 38.65 79.1 38.6 78.8 38.1 78.4 38.5 Q76.85 38.35 75.95 39.4 L75.35 40.45 74.9 40.45 Q75.55 44.8 77.1 51.25 L78.6 57.35 Q77.5 59.8 76.55 62.8 75.3 63.5 73.65 65.65 L70.95 69.35 65.55 76.45 60.5 83.55 56.7 89.05 55.45 89.5 54.2 90.2 52.45 91.25 49.25 93.8 46.45 92.25 44.7 91.35 44.65 91.0 44.25 91.1 44.05 91.05 43.65 91.15 43.6 91.3 Q41.8 91.9 39.75 93.2 L36.05 95.95 31.4 99.05 29.05 100.7 30.45 96.95 31.6 93.6 32.0 93.75 Q35.55 92.0 35.55 91.45 35.55 90.85 34.35 90.05 33.15 89.3 32.6 89.45 L32.85 87.85 32.6 87.8 32.8 84.7 32.8 84.5 33.2 84.5 32.95 83.8 32.6 82.9 33.4 82.15 33.8 82.2 34.7 81.5 34.8 81.5 35.3 81.1 38.1 78.95 41.95 75.9 42.05 75.9 Q44.55 71.4 49.7 64.85 L58.5 53.8 66.85 42.65 74.6 31.4 74.55 31.15 74.45 31.25 73.45 31.95 Q73.05 32.1 72.4 32.4 L71.25 33.05 69.1 34.2 Q69.9 33.0 72.4 30.65 L74.3 28.15 75.0 27.3 75.3 27.0 M86.05 44.25 L88.85 46.7 91.4 43.5 Q94.3 40.6 97.1 40.6 97.75 40.6 98.25 40.95 L98.75 41.2 Q92.45 42.05 86.5 54.55 L84.6 58.85 84.15 58.75 84.15 58.65 82.4 51.45 82.65 50.9 85.95 44.35 86.05 44.25 M88.05 60.35 Q88.7 60.65 88.7 61.45 L88.45 62.65 Q87.9 63.2 85.65 63.2 L84.4 63.05 84.1 63.2 Q83.3 63.2 82.85 62.75 L82.7 62.6 Q81.3 62.05 80.8 61.3 L83.65 59.6 84.3 59.65 84.2 59.9 85.2 59.8 85.2 59.75 88.05 60.35 M83.55 58.55 L83.4 58.6 Q82.8 58.55 81.15 59.75 L80.2 60.5 80.15 60.25 Q80.6 59.2 81.0 55.65 L81.4 51.25 81.8 52.2 Q82.15 52.8 82.15 54.0 L82.65 56.3 83.55 58.55 M64.2 60.45 Q65.9 62.45 71.9 64.5 72.4 64.5 72.55 64.1 72.0 63.75 68.35 62.05 65.45 60.7 64.85 59.9 63.75 58.4 62.1 57.3 61.45 56.9 60.65 55.7 60.1 54.9 59.6 55.1 59.3 55.85 61.1 57.55 L64.2 60.45 M65.9 89.15 Q65.9 90.05 64.55 91.4 62.95 93.05 61.0 93.05 59.75 93.05 58.2 92.15 59.35 92.15 60.3 90.65 61.2 89.2 61.2 87.5 L60.95 86.15 60.65 85.0 Q61.85 84.65 63.8 86.0 65.9 87.45 65.9 89.15 M79.65 61.9 L79.8 61.95 Q80.35 63.0 82.85 63.6 80.25 71.65 80.25 79.15 80.25 80.7 81.0 83.25 L81.9 85.45 80.45 85.1 79.35 85.2 79.35 85.6 79.4 85.65 78.6 85.7 Q78.05 86.25 77.55 86.25 L74.5 86.2 Q74.25 81.6 73.8 79.05 74.85 69.6 79.0 59.0 L79.65 61.9 M19.05 91.45 L19.05 91.4 23.35 88.05 24.75 87.05 Q25.0 86.4 26.55 85.5 L27.95 84.6 Q28.25 84.3 28.5 84.25 L29.4 83.55 29.9 83.15 Q30.1 82.6 31.1 82.0 L31.6 81.7 32.35 81.0 33.15 81.3 32.3 82.0 32.3 82.05 30.3 83.8 30.15 83.8 29.05 84.65 27.45 86.25 26.0 87.15 25.5 87.6 25.15 87.8 19.15 92.65 19.15 92.6 17.65 93.95 17.55 93.95 13.35 97.35 13.25 97.55 12.75 97.95 12.65 97.95 12.55 98.0 12.55 97.9 12.35 97.65 12.25 97.3 12.3 97.05 12.3 96.55 12.75 96.5 12.55 96.75 12.85 96.6 13.15 96.55 13.3 96.2 16.9 93.25 18.35 91.95 19.05 91.45 M35.25 75.7 Q35.0 73.7 33.1 71.3 30.4 67.85 26.55 68.0 L26.95 67.75 30.05 65.25 Q33.0 62.85 35.35 59.85 37.9 56.65 39.15 53.6 L40.4 50.45 Q41.25 48.65 42.4 47.15 L44.35 44.3 Q46.65 41.55 48.85 41.55 52.15 41.55 52.15 45.1 L51.75 46.75 46.65 53.05 44.9 55.2 44.5 55.35 43.8 56.25 43.9 56.3 43.95 56.35 43.05 57.35 Q40.85 59.9 39.9 61.45 39.4 62.25 38.4 65.8 L37.05 68.6 36.85 68.95 35.8 67.55 Q34.3 66.15 31.85 65.8 L31.4 66.95 33.0 67.2 35.1 68.4 Q35.45 68.55 36.0 69.95 36.55 71.3 36.55 72.0 L36.15 74.25 35.35 75.65 35.25 75.7 M41.15 79.45 L40.95 79.5 43.3 81.9 46.1 84.0 Q52.9 88.3 53.5 88.3 L53.85 88.25 53.9 88.05 Q53.1 87.25 50.65 85.85 L46.85 83.7 Q45.6 82.95 43.8 81.45 42.05 80.0 41.15 79.45 M33.95 80.45 L33.55 80.2 Q32.55 80.05 32.4 79.45 L30.45 78.1 Q27.65 76.15 26.5 75.85 L27.5 74.3 30.6 75.8 30.8 75.85 31.35 76.15 Q35.25 78.25 35.25 79.1 L35.15 79.35 35.1 79.3 34.9 79.7 34.9 79.8 Q34.9 80.2 34.4 80.25 L34.2 80.45 33.95 80.45 M31.1 84.15 L31.65 83.7 31.85 84.15 31.85 84.35 31.95 85.85 31.7 88.75 31.75 89.1 Q31.3 91.7 29.95 95.5 28.1 100.8 25.6 105.1 22.05 111.1 18.9 114.15 L16.95 116.1 Q15.65 117.3 14.4 117.9 L11.1 119.85 Q9.0 121.05 6.95 121.05 L5.2 120.7 3.9 120.35 3.7 120.4 3.1 119.8 Q3.55 119.8 4.05 119.15 4.55 118.45 4.8 118.45 L6.2 118.45 Q7.5 117.9 8.55 117.95 L10.25 117.0 11.4 116.2 12.95 114.4 Q14.3 112.7 15.5 112.15 16.5 111.7 17.45 110.3 L19.0 108.1 Q19.8 107.2 20.4 105.9 L21.5 103.7 21.95 103.15 22.25 102.95 22.35 102.4 22.65 102.1 22.9 101.8 24.2 99.6 26.75 95.15 27.0 94.1 27.15 92.9 27.55 90.8 27.9 86.8 31.1 84.15 M36.45 85.8 L35.0 85.75 Q34.2 86.15 34.2 86.8 34.2 87.2 35.6 88.2 L36.4 89.2 Q36.65 89.6 37.6 89.6 38.3 89.6 38.75 88.95 L39.1 88.1 Q39.1 87.55 38.15 86.95 L36.45 85.8 M55.55 92.8 L56.5 93.2 Q57.5 93.6 57.5 94.0 57.1 95.8 56.65 95.8 56.2 95.8 54.25 94.7 L55.05 93.6 55.55 92.8" fill="#f77b00" fill-rule="evenodd" stroke="none"/>
      <path d="M106.2 34.35 L106.15 34.35 106.1 34.4 Q105.45 33.4 104.9 33.4 L104.7 33.2 104.5 33.1 104.3 32.95 103.55 32.65 101.05 32.2 102.15 33.75 102.55 34.4 103.25 35.25 104.3 36.35 103.95 36.8 104.7 37.95 Q105.45 38.9 105.45 39.65 L105.0 40.3 Q104.55 40.6 104.55 40.9 L105.0 41.7 105.45 42.7 104.95 43.35 Q104.45 43.9 104.45 44.15 L104.75 44.9 105.0 45.7 104.8 46.55 104.6 47.5 104.45 49.45 103.9 53.25 103.9 54.0 103.7 55.2 Q103.55 55.6 103.55 57.15 L103.1 58.1 Q102.6 58.75 102.6 59.1 L102.65 60.9 102.35 61.9 Q102.1 62.55 102.2 63.4 102.25 63.95 101.75 64.5 101.15 65.25 101.0 65.7 100.55 67.0 100.55 68.2 100.55 69.65 100.1 69.7 99.3 69.75 98.85 70.5 98.6 70.9 98.65 71.7 L98.55 73.0 Q98.45 73.35 97.4 73.9 96.45 74.4 96.45 75.1 96.45 76.5 95.65 77.6 L94.9 78.2 Q94.45 78.55 94.45 78.85 L94.6 79.9 Q94.6 81.15 93.4 81.95 92.2 82.75 92.2 83.45 92.15 84.05 91.15 85.1 90.0 86.3 89.8 86.8 L89.1 88.6 87.95 89.35 86.65 90.15 86.3 90.6 86.1 90.95 84.8 91.7 83.7 92.7 81.6 92.45 80.1 93.15 77.95 93.35 77.55 93.35 77.85 93.55 Q79.5 94.65 82.2 94.65 85.25 94.65 89.35 92.5 93.4 90.35 93.85 88.65 93.95 88.15 95.0 86.9 L95.6 86.15 96.7 84.35 97.0 82.95 Q97.25 81.9 98.0 81.9 L98.2 81.95 101.0 77.1 Q104.35 70.15 106.05 65.25 107.25 61.65 108.95 53.4 109.25 52.0 109.2 47.4 109.15 45.5 109.4 44.1 L108.75 39.1 Q108.4 37.65 107.0 35.45 L106.2 34.35 M110.45 43.2 Q110.45 49.7 109.75 54.05 108.95 58.9 106.6 66.2 L104.35 72.0 101.65 77.75 Q100.55 80.1 97.8 84.25 L97.1 85.9 95.75 87.6 Q94.75 88.85 94.5 89.5 93.3 92.65 84.15 95.55 79.25 95.55 77.8 94.85 75.6 93.8 74.05 89.45 L73.45 86.35 Q73.15 84.1 73.15 82.8 L73.15 82.45 73.05 81.1 Q73.05 75.8 75.1 67.85 L76.1 64.3 74.65 66.15 71.55 70.05 66.4 76.85 61.45 83.75 Q62.2 83.85 63.65 84.7 66.8 86.55 66.8 89.05 66.8 90.35 65.55 92.0 63.9 94.15 61.25 94.15 L58.35 93.6 58.45 93.9 58.1 95.65 Q57.65 96.9 56.75 96.9 L54.2 95.85 51.65 94.5 Q51.25 94.45 50.95 94.15 L50.8 94.0 49.15 95.1 44.0 92.0 41.45 93.6 36.3 96.75 Q30.6 100.25 28.6 102.05 L28.5 102.05 26.65 105.5 Q22.65 111.6 19.75 114.7 L17.8 116.85 Q16.65 118.0 15.0 118.7 L12.05 120.5 Q9.05 122.15 7.3 122.15 L5.1 121.85 Q3.65 121.85 2.1 119.9 L0.7 117.8 Q0.0 116.6 0.0 113.3 0.0 108.65 1.85 104.15 2.85 101.7 5.1 97.75 L5.15 97.85 5.15 97.9 6.45 95.65 8.75 92.1 Q11.9 87.75 15.05 84.95 L19.35 81.5 Q22.25 79.6 25.15 78.95 26.55 78.05 29.05 79.65 L29.2 79.5 29.8 79.1 29.65 79.0 27.95 77.65 Q27.7 77.4 26.85 77.1 L25.6 76.45 Q24.2 76.4 23.65 76.0 L22.15 76.25 Q21.25 76.0 21.25 75.55 L21.4 74.65 21.2 73.2 Q21.2 72.8 21.75 72.45 L22.7 71.75 23.5 71.2 Q23.2 70.85 23.05 70.3 L22.85 68.85 Q22.85 66.05 29.05 60.7 L30.55 59.3 Q29.4 59.0 27.25 56.65 25.15 54.35 23.65 52.0 21.5 48.6 21.5 44.6 21.5 43.25 22.0 41.1 22.55 38.8 23.2 37.65 L24.5 35.95 Q25.45 34.75 25.4 34.2 25.1 33.55 25.65 32.4 L26.6 30.7 27.65 29.05 28.55 27.2 Q28.85 25.3 29.55 23.75 30.4 21.6 32.7 19.35 34.1 18.0 35.0 17.55 L34.8 16.45 34.05 15.6 33.05 14.5 Q31.4 12.35 31.4 10.55 L31.65 8.8 Q31.9 7.75 32.25 7.4 32.7 6.25 34.75 4.95 37.7 3.05 40.65 3.55 44.05 4.15 46.75 5.7 L50.25 8.1 52.5 10.15 52.6 10.1 52.6 9.7 Q52.6 7.65 55.4 4.2 58.65 0.15 62.2 0.25 66.15 -1.0 72.45 3.45 78.25 7.6 78.25 9.75 L78.45 11.1 Q78.45 12.95 76.7 13.1 74.3 13.3 72.85 15.75 L69.65 20.3 69.3 20.3 70.5 20.95 73.85 23.7 75.8 25.7 Q77.5 25.3 81.3 27.3 82.0 27.9 83.6 28.9 84.5 29.5 84.8 30.2 L87.65 26.9 90.05 24.55 Q91.75 23.0 94.4 23.0 96.4 22.95 98.25 25.0 99.85 26.75 99.85 27.9 99.85 28.9 98.15 30.65 L97.05 31.75 Q98.85 31.2 100.95 31.2 103.5 31.2 105.1 32.55 107.5 33.6 108.9 36.65 110.15 39.3 110.25 42.2 L110.45 43.2 M71.8 4.5 L72.45 4.7 70.35 3.25 Q67.1 1.2 64.85 1.2 59.4 1.2 56.9 3.85 55.35 5.45 53.3 10.7 L53.3 10.8 53.25 10.95 53.45 11.2 53.6 10.95 53.6 11.3 53.9 11.7 54.3 12.2 Q54.4 11.7 55.45 10.0 L56.9 7.65 Q58.4 5.5 60.85 4.3 63.1 3.25 65.05 3.45 68.7 3.6 71.8 4.5 M73.8 25.35 L72.7 24.4 70.35 22.2 Q68.65 21.0 64.75 19.4 L63.4 19.05 62.3 18.75 62.3 19.0 62.3 20.15 Q63.55 19.9 65.65 20.65 66.85 21.1 69.4 22.45 71.9 23.95 73.65 25.45 L74.75 26.4 74.9 26.2 74.95 26.15 73.8 25.35 M75.3 27.0 L75.0 27.3 74.3 28.15 72.4 30.65 Q69.9 33.0 69.1 34.2 L71.25 33.05 72.4 32.4 Q73.05 32.1 73.45 31.95 L74.45 31.25 74.55 31.15 74.6 31.4 66.85 42.65 58.5 53.8 49.7 64.85 Q44.55 71.4 42.05 75.9 L41.95 75.9 38.1 78.95 35.3 81.1 34.8 81.5 34.7 81.5 33.8 82.2 33.4 82.15 32.6 82.9 32.95 83.8 33.2 84.5 32.8 84.5 32.8 84.7 32.6 87.8 32.85 87.85 32.6 89.45 Q33.15 89.3 34.35 90.05 35.55 90.85 35.55 91.45 35.55 92.0 32.0 93.75 L31.6 93.6 30.45 96.95 29.05 100.7 31.4 99.05 36.05 95.95 39.75 93.2 Q41.8 91.9 43.6 91.3 L43.65 91.15 44.05 91.05 44.25 91.1 44.65 91.0 44.7 91.35 46.45 92.25 49.25 93.8 52.45 91.25 54.2 90.2 55.45 89.5 56.7 89.05 60.5 83.55 65.55 76.45 70.95 69.35 73.65 65.65 Q75.3 63.5 76.55 62.8 77.5 59.8 78.6 57.35 L77.1 51.25 Q75.55 44.8 74.9 40.45 L75.35 40.45 75.95 39.4 Q76.85 38.35 78.4 38.5 L78.8 38.1 79.1 38.6 79.25 38.65 79.3 38.55 79.35 38.85 79.3 39.05 Q79.95 40.55 80.45 43.2 L81.15 45.8 81.8 48.35 82.05 49.85 82.5 48.9 Q84.35 45.05 85.9 42.5 89.85 35.85 93.8 33.25 94.65 32.7 95.6 32.3 95.7 31.7 97.25 30.15 98.95 28.5 98.95 27.85 98.95 26.95 97.45 25.55 95.8 24.0 94.05 24.0 92.3 24.0 89.25 26.85 87.45 28.5 85.8 30.5 82.8 34.0 80.6 37.5 L80.25 37.45 80.2 37.2 Q80.2 36.0 83.9 31.35 L84.15 31.05 81.75 28.85 Q79.0 26.45 76.25 26.45 75.9 26.45 75.3 27.0 M68.9 20.05 L68.95 20.1 68.95 19.95 68.9 20.05 M66.85 24.0 L65.9 25.55 66.3 25.85 68.2 27.55 70.15 29.3 71.2 30.65 73.1 28.4 71.65 27.15 69.15 25.05 66.85 23.95 66.85 24.0 M99.55 41.75 Q94.35 43.0 89.75 50.3 87.4 54.0 85.45 59.1 L88.65 59.35 89.15 59.7 Q89.7 60.0 89.7 61.45 89.7 63.4 88.45 64.25 L87.15 64.25 83.8 63.8 82.3 69.35 Q81.05 74.8 81.05 79.05 81.05 80.4 81.7 82.65 82.35 84.8 83.05 85.75 L83.3 85.75 Q85.1 85.75 87.15 83.95 L89.2 81.55 92.05 77.0 94.3 72.2 96.4 67.4 Q98.45 63.35 99.75 58.05 101.0 52.8 101.0 48.3 101.0 45.25 99.55 41.8 L99.55 41.75 M84.15 58.75 L84.6 58.85 86.5 54.55 Q92.45 42.05 98.75 41.2 L98.25 40.95 Q97.75 40.6 97.1 40.6 94.3 40.6 91.4 43.5 L88.85 46.7 86.05 44.25 86.0 44.25 85.95 44.35 82.65 50.9 82.4 51.45 84.15 58.65 84.1 58.75 84.15 58.75 M88.05 60.35 L85.2 59.75 85.2 59.8 84.2 59.9 84.3 59.65 83.65 59.6 80.8 61.3 Q81.3 62.05 82.7 62.6 L82.85 62.75 Q83.3 63.2 84.1 63.2 L84.4 63.05 85.65 63.2 Q87.9 63.2 88.45 62.65 L88.7 61.45 Q88.7 60.65 88.05 60.35 M83.4 58.6 L83.6 58.65 83.55 58.55 82.65 56.3 82.15 54.0 Q82.15 52.8 81.8 52.2 L81.4 51.25 81.0 55.65 Q80.6 59.2 80.15 60.25 L80.2 60.5 81.15 59.75 Q82.8 58.55 83.4 58.6 M81.45 51.1 L81.45 50.95 81.4 51.25 81.45 51.1 M64.2 60.45 L61.1 57.55 Q59.3 55.85 59.6 55.1 60.1 54.9 60.65 55.7 61.45 56.9 62.1 57.3 63.75 58.4 64.85 59.9 65.45 60.7 68.35 62.05 72.0 63.75 72.55 64.1 72.4 64.5 71.9 64.5 65.9 62.45 64.2 60.45 M79.75 58.5 L79.8 58.6 79.8 58.5 79.75 58.5 M79.65 61.9 L79.0 59.0 Q74.85 69.6 73.8 79.05 74.25 81.6 74.5 86.2 L77.55 86.25 Q78.05 86.25 78.6 85.7 L79.4 85.65 79.35 85.6 79.35 85.2 80.45 85.1 81.9 85.45 81.0 83.25 Q80.25 80.7 80.25 79.15 80.25 71.65 82.85 63.6 80.35 63.0 79.8 61.95 L79.65 61.9 M65.9 89.15 Q65.9 87.45 63.8 86.0 61.85 84.65 60.65 85.0 L60.95 86.15 61.2 87.5 Q61.2 89.2 60.3 90.65 59.35 92.15 58.2 92.15 59.75 93.05 61.0 93.05 62.95 93.05 64.55 91.4 65.9 90.05 65.9 89.15 M53.75 13.1 L52.1 11.2 Q45.9 4.5 39.9 4.5 36.3 4.5 34.15 6.45 32.95 7.55 32.7 8.55 L32.7 8.95 32.55 9.65 32.35 10.45 Q32.35 11.9 33.85 13.75 33.4 12.4 33.4 11.25 33.4 10.25 34.0 8.95 34.65 7.5 35.6 7.05 L37.15 6.0 Q38.05 5.35 39.25 5.05 L43.55 5.55 45.25 6.55 47.85 8.55 50.1 10.55 52.45 12.65 Q52.8 12.95 53.7 13.2 L53.9 13.25 53.75 13.1 M53.25 17.1 Q52.75 17.05 52.35 17.85 52.0 18.45 52.0 18.85 L52.5 19.45 52.7 19.6 52.9 18.7 53.45 17.3 53.25 17.1 M37.25 37.95 L42.25 33.0 Q45.75 29.85 48.75 29.0 L48.9 29.05 48.95 29.35 48.15 30.8 50.1 30.1 Q51.9 29.45 53.0 29.4 50.85 27.85 49.2 27.85 46.9 27.85 37.8 33.2 31.95 36.65 28.75 38.85 L28.1 39.65 28.1 39.8 27.55 40.15 27.5 40.15 26.85 40.55 23.1 42.8 22.9 42.75 22.8 42.35 24.15 39.1 Q24.35 38.2 25.7 37.15 L27.25 35.9 27.85 32.75 Q28.15 30.7 29.8 29.5 31.35 28.35 31.35 26.3 31.25 25.3 31.95 23.1 32.4 21.65 32.95 20.55 L32.5 20.95 30.5 24.3 Q29.95 25.2 29.55 27.8 L28.75 29.45 27.65 31.1 Q26.55 33.25 26.4 34.6 26.35 35.25 25.6 36.35 L24.3 37.95 Q23.4 39.0 22.9 41.25 L22.7 42.35 22.7 42.4 22.5 44.7 Q22.5 49.3 25.85 53.4 L25.9 53.45 25.9 53.5 26.5 54.1 26.05 53.4 25.85 52.25 26.05 49.95 25.5 46.2 Q25.5 44.4 25.7 43.95 L25.5 44.15 26.05 43.15 26.55 42.7 27.5 41.35 27.6 41.4 27.6 41.5 27.65 41.4 27.95 40.8 28.35 40.4 Q30.0 38.8 32.0 37.75 L32.2 37.8 32.25 38.15 31.15 39.8 Q30.0 41.45 29.8 42.3 L34.4 37.6 Q37.3 34.3 39.55 32.7 L39.75 32.75 39.8 33.05 38.8 35.15 37.15 37.85 37.15 37.95 37.15 38.0 37.25 37.95 M24.0 41.25 L24.05 41.25 24.0 41.15 24.0 41.25 M12.75 92.9 Q7.25 99.75 7.25 104.6 7.25 105.5 8.7 105.5 9.85 105.5 11.35 104.0 L12.65 102.45 Q13.95 100.35 15.15 99.0 L17.1 95.7 17.45 94.9 Q13.4 98.1 12.9 98.55 L12.3 98.45 12.15 98.5 Q11.95 98.3 11.8 97.15 L11.65 95.9 Q11.65 93.9 14.4 91.8 L17.25 89.65 16.5 89.65 Q15.0 90.05 12.75 92.9 M17.2 88.7 L18.05 89.05 20.35 87.25 23.6 84.3 23.4 84.3 Q22.0 84.3 20.45 85.55 L18.25 87.35 16.7 88.7 17.2 88.7 M19.05 91.45 L18.35 91.95 16.9 93.25 13.3 96.2 13.15 96.55 12.85 96.6 12.55 96.75 12.75 96.5 12.3 96.55 12.3 97.05 12.25 97.3 12.35 97.65 12.55 97.9 12.55 98.0 12.65 97.95 12.75 97.95 13.25 97.55 13.35 97.35 17.55 93.95 17.65 93.95 19.15 92.6 19.15 92.65 25.15 87.8 25.5 87.6 26.0 87.15 27.45 86.25 29.05 84.65 30.15 83.8 30.3 83.8 32.3 82.05 32.3 82.0 33.15 81.3 32.35 81.0 31.6 81.7 31.1 82.0 Q30.1 82.6 29.9 83.15 L29.4 83.55 28.5 84.25 Q28.25 84.3 27.95 84.6 L26.55 85.5 Q25.0 86.4 24.75 87.05 L23.35 88.05 19.05 91.4 19.05 91.45 M35.35 75.65 L36.15 74.25 36.55 72.0 Q36.55 71.3 36.0 69.95 35.45 68.55 35.1 68.4 L33.0 67.2 31.4 66.95 31.85 65.8 Q34.3 66.15 35.8 67.55 L36.85 68.95 37.05 68.6 38.4 65.8 Q39.4 62.25 39.9 61.45 40.85 59.9 43.05 57.35 L43.95 56.35 43.9 56.3 43.8 56.25 44.5 55.35 44.9 55.2 46.65 53.05 51.75 46.75 52.15 45.1 Q52.15 41.55 48.85 41.55 46.65 41.55 44.35 44.3 L42.4 47.15 Q41.25 48.65 40.4 50.45 L39.15 53.6 Q37.9 56.65 35.35 59.85 33.0 62.85 30.05 65.25 L26.95 67.75 26.55 68.0 Q30.4 67.85 33.1 71.3 35.0 73.7 35.25 75.7 L35.25 75.8 35.35 75.65 M45.15 56.15 Q42.2 59.55 40.65 62.25 40.2 63.0 39.25 66.45 L38.65 68.15 39.85 66.95 41.6 65.05 Q41.75 64.85 42.85 64.35 L44.25 63.45 Q45.4 61.95 46.6 59.45 L48.45 55.4 45.15 56.15 M26.7 54.35 L26.75 54.3 26.7 54.3 26.7 54.35 M33.95 80.45 L34.2 80.45 34.4 80.25 Q34.9 80.2 34.9 79.8 L34.9 79.7 35.1 79.3 35.15 79.35 35.25 79.1 Q35.25 78.25 31.35 76.15 L30.8 75.85 30.6 75.8 27.5 74.3 26.5 75.85 Q27.65 76.15 30.45 78.1 L32.4 79.45 Q32.55 80.05 33.55 80.2 L33.95 80.45 M41.15 79.45 Q42.05 80.0 43.8 81.45 45.6 82.95 46.85 83.7 L50.65 85.85 Q53.1 87.25 53.9 88.05 L53.85 88.25 53.5 88.3 Q52.9 88.3 46.1 84.0 L43.3 81.9 40.95 79.5 41.15 79.45 M28.15 80.3 L28.1 80.45 28.25 80.35 28.15 80.3 M30.6 79.6 L30.4 79.5 30.35 79.55 30.55 79.65 30.6 79.6 M31.1 84.15 L27.9 86.8 27.55 90.8 27.15 92.9 27.0 94.1 26.75 95.15 24.2 99.6 22.9 101.8 22.65 102.1 22.35 102.4 22.25 102.95 21.95 103.15 21.5 103.7 20.4 105.9 Q19.8 107.2 19.0 108.1 L17.45 110.3 Q16.5 111.7 15.5 112.15 14.3 112.7 12.95 114.4 L11.4 116.2 10.25 117.0 8.55 117.95 Q7.5 117.9 6.2 118.45 L4.8 118.45 Q4.55 118.45 4.05 119.15 3.55 119.8 3.1 119.8 L3.7 120.4 3.9 120.35 5.2 120.7 6.95 121.05 Q9.0 121.05 11.1 119.85 L14.4 117.9 Q15.65 117.3 16.95 116.1 L18.9 114.15 Q22.05 111.1 25.6 105.1 28.1 100.8 29.95 95.5 31.3 91.7 31.75 89.1 L31.7 88.75 31.95 85.85 31.85 84.35 31.85 84.15 31.65 83.7 31.1 84.15 M26.95 82.6 L26.9 82.6 26.95 82.7 26.95 82.6 M24.55 89.35 Q22.65 90.7 19.15 93.6 L17.9 96.75 15.75 100.15 13.4 103.6 Q11.0 106.6 9.2 106.6 7.1 106.6 6.65 105.15 L6.6 103.65 6.6 103.5 Q5.35 107.15 5.35 110.4 L5.35 112.6 Q5.55 114.4 6.55 114.4 9.1 114.4 12.6 111.45 L15.7 108.4 Q18.1 106.05 20.95 101.45 22.2 99.4 23.85 95.0 25.55 90.65 25.8 88.45 25.1 88.95 24.55 89.35 M36.45 85.8 L38.15 86.95 Q39.1 87.55 39.1 88.1 L38.75 88.95 Q38.3 89.6 37.6 89.6 36.65 89.6 36.4 89.2 L35.6 88.2 Q34.2 87.2 34.2 86.8 34.2 86.15 35.0 85.75 L36.45 85.8 M35.2 86.75 L36.25 87.65 37.25 88.65 38.15 88.15 35.7 86.3 35.2 86.75 M32.6 89.55 L31.6 93.5 32.85 92.45 Q33.9 91.7 34.3 91.55 L34.45 91.3 33.45 90.4 32.6 89.55 M55.55 92.8 L55.05 93.6 54.25 94.7 Q56.2 95.8 56.65 95.8 57.1 95.8 57.5 94.0 57.5 93.6 56.5 93.2 L55.55 92.8 M55.3 91.0 L55.35 91.05 55.35 91.0 55.3 91.0 M55.45 90.95 L55.7 90.85 55.65 90.8 55.45 90.95 M12.3 95.75 L12.3 96.0 12.4 95.95 12.3 95.75 M23.25 99.45 L23.2 99.45 23.1 99.6 23.25 99.45 M21.6 102.35 L21.65 102.25 21.5 102.4 21.2 102.95 21.6 102.35" fill="#000000" fill-rule="evenodd" stroke="none"/>
      <path d="M73.65 25.45 Q71.9 23.95 69.4 22.45 66.85 21.1 65.65 20.65 63.55 19.9 62.3 20.15 L62.3 19.0 62.3 18.75 63.4 19.05 64.75 19.4 Q68.65 21.0 70.35 22.2 L72.7 24.4 73.8 25.35 73.65 25.45 M71.8 4.5 Q68.7 3.6 65.05 3.45 63.1 3.25 60.85 4.3 58.4 5.5 56.9 7.65 L55.45 10.0 Q54.4 11.7 54.3 12.2 L53.9 11.7 53.6 11.3 53.6 10.95 53.45 11.2 53.25 10.95 53.3 10.8 53.3 10.7 Q55.35 5.45 56.9 3.85 59.4 1.2 64.85 1.2 67.1 1.2 70.35 3.25 L72.45 4.7 71.8 4.5 M53.7 13.2 Q52.8 12.95 52.45 12.65 L50.1 10.55 47.85 8.55 45.25 6.55 43.55 5.55 39.25 5.05 Q38.05 5.35 37.15 6.0 L35.6 7.05 Q34.65 7.5 34.0 8.95 33.4 10.25 33.4 11.25 33.4 12.4 33.85 13.75 32.35 11.9 32.35 10.45 L32.55 9.65 32.7 8.95 32.7 8.55 Q32.95 7.55 34.15 6.45 36.3 4.5 39.9 4.5 45.9 4.5 52.1 11.2 L53.75 13.1 53.7 13.2 M25.9 53.5 L25.9 53.45 25.85 53.4 Q22.5 49.3 22.5 44.7 L22.7 42.4 22.7 42.35 22.9 41.25 Q23.4 39.0 24.3 37.95 L25.6 36.35 Q26.35 35.25 26.4 34.6 26.55 33.25 27.65 31.1 L28.75 29.45 29.55 27.8 Q29.95 25.2 30.5 24.3 L32.5 20.95 32.95 20.55 Q32.4 21.65 31.95 23.1 31.25 25.3 31.35 26.3 31.35 28.35 29.8 29.5 28.15 30.7 27.85 32.75 L27.25 35.9 25.7 37.15 Q24.35 38.2 24.15 39.1 L22.8 42.35 22.9 42.75 23.1 42.8 26.85 40.55 27.5 40.15 27.55 40.15 28.1 39.8 28.1 39.65 28.75 38.85 Q31.95 36.65 37.8 33.2 46.9 27.85 49.2 27.85 50.85 27.85 53.0 29.4 51.9 29.45 50.1 30.1 L48.15 30.8 48.95 29.35 48.9 29.05 48.75 29.0 Q45.75 29.85 42.25 33.0 L37.25 37.95 37.15 37.95 37.15 37.85 38.8 35.15 39.8 33.05 39.75 32.75 39.55 32.7 Q37.3 34.3 34.4 37.6 L29.8 42.3 Q30.0 41.45 31.15 39.8 L32.25 38.15 32.2 37.8 32.0 37.75 Q30.0 38.8 28.35 40.4 L27.95 40.8 27.65 41.4 27.5 41.35 26.55 42.7 26.05 43.15 25.5 44.15 25.7 43.95 Q25.5 44.4 25.5 46.2 L26.05 49.95 25.85 52.25 26.05 53.4 25.9 53.5 M53.25 17.1 L53.45 17.3 52.9 18.7 52.7 19.6 52.5 19.45 52.0 18.85 Q52.0 18.45 52.35 17.85 52.75 17.05 53.25 17.1 M12.75 92.9 Q15.0 90.05 16.5 89.65 L17.25 89.65 14.4 91.8 Q11.65 93.9 11.65 95.9 L11.8 97.15 Q11.95 98.3 12.15 98.5 L12.3 98.45 12.9 98.55 Q13.4 98.1 17.45 94.9 L17.1 95.7 15.15 99.0 Q13.95 100.35 12.65 102.45 L11.35 104.0 Q9.85 105.5 8.7 105.5 7.25 105.5 7.25 104.6 7.25 99.75 12.75 92.9" fill="#9f97c6" fill-rule="evenodd" stroke="none"/>
    </g>
    <g id="morphshape0" transform="matrix(1.0, 0.0, 0.0, 1.0, -253.75, 239.7)">
      <path d="M292.5 -210.95 Q290.85 -203.95 297.25 -200.2 302.85 -196.85 307.65 -201.3 310.55 -204.0 310.85 -208.05 311.7 -217.25 302.55 -218.0 294.45 -218.85 292.5 -210.95" fill="#ffffff" fill-opacity="0.36078432" fill-rule="evenodd" stroke="none"/>
      <path d="M292.5 -210.95 Q294.45 -218.85 302.55 -218.0 311.7 -217.25 310.85 -208.05 310.55 -204.0 307.65 -201.3 302.85 -196.85 297.25 -200.2 290.85 -203.95 292.5 -210.95 Z" fill="none" stroke="#000000" stroke-linecap="round" stroke-linejoin="round" stroke-opacity="0.0" stroke-width="0.0"/>
    </g>
    <g id="sprite3" transform="matrix(1.0, 0.0, 0.0, 1.0, 0.0, 0.0)">
      <use ffdec:characterId="3559" height="19.35" transform="matrix(1.3333, 0.0, 0.0, 1.3333, -0.018, 9.0E-4)" width="18.75" xlink:href="#shape4"/>
    </g>
    <g id="shape4" transform="matrix(1.0, 0.0, 0.0, 1.0, -253.75, 179.7)">
      <path d="M254.1 -172.55 Q256.05 -180.45 264.15 -179.6 273.3 -178.85 272.45 -169.65 272.15 -165.6 269.25 -162.9 264.45 -158.45 258.85 -161.8 252.45 -165.55 254.1 -172.55" fill="#ffffff" fill-opacity="0.35686275" fill-rule="evenodd" stroke="none"/>
    </g>
    <g id="sprite4" transform="matrix(1.0, 0.0, 0.0, 1.0, 43.55, 5.6)">
      <use ffdec:characterId="3551" height="393.15" transform="matrix(1.0, 0.0, 0.0, 1.0, -43.55, -5.6)" width="726.2" xlink:href="#shape5"/>
    </g>
    <g id="shape5" transform="matrix(1.0, 0.0, 0.0, 1.0, 43.55, 5.6)">
      <path d="M682.65 -5.6 L682.65 387.55 -43.55 387.55 -43.55 -5.6 682.65 -5.6" fill="url(#gradient6)" fill-rule="evenodd" stroke="none"/>
    </g>
    <linearGradient gradientTransform="matrix(0.0, -0.24, 0.4432, 0.0, 319.55, 191.0)" gradientUnits="userSpaceOnUse" id="gradient6" spreadMethod="pad" x1="-819.2" x2="819.2">
      <stop offset="0.0" stop-color="#00005e"/>
      <stop offset="1.0" stop-color="#ee7700"/>
    </linearGradient>
    <g id="sprite5" transform="matrix(1.0, 0.0, 0.0, 1.0, 0.0, 0.0)">
      <use ffdec:characterId="3549" height="379.05" transform="matrix(1.0, 0.0, 0.0, 1.0, 0.0, 0.0)" width="657.35" xlink:href="#shape6"/>
    </g>
    <g id="shape6" transform="matrix(1.0, 0.0, 0.0, 1.0, 0.0, 0.0)">
      <path d="M657.35 379.05 L0.0 379.05 0.0 0.0 657.35 0.0 657.35 379.05" fill="url(#gradient7)" fill-rule="evenodd" stroke="none"/>
    </g>
    <linearGradient gradientTransform="matrix(-0.4492, -0.3248, 0.1353, -0.1871, 328.7, 189.5)" gradientUnits="userSpaceOnUse" id="gradient7" spreadMethod="pad" x1="-819.2" x2="819.2">
      <stop offset="0.0" stop-color="#dea900" stop-opacity="0.30588236"/>
      <stop offset="1.0" stop-color="#de8400" stop-opacity="0.0"/>
    </linearGradient>
    <g id="sprite6" transform="matrix(1.0, 0.0, 0.0, 1.0, 265.1, 150.0)">
      <use ffdec:characterId="3477" height="300.0" transform="matrix(1.0, 0.0, 0.0, 1.0, -265.1, -150.0)" width="533.0" xlink:href="#shape7"/>
    </g>
    <g id="shape7" transform="matrix(1.0, 0.0, 0.0, 1.0, 265.1, 150.0)">
      <path d="M267.9 -150.0 L267.9 150.0 -265.1 150.0 -265.1 -150.0 267.9 -150.0 Z" fill="none" stroke="#ff0000" stroke-linecap="round" stroke-linejoin="round" stroke-width="0.05"/>
      <path d="M1.4 -16.05 L1.45 -16.05 Q9.35 -16.05 14.95 -11.35 20.55 -6.65 20.55 0.0 L39.5 0.0 M20.55 0.0 Q20.55 6.65 14.95 11.35 9.35 16.05 1.45 16.05 L1.4 16.05 1.4 21.45 M-36.65 0.0 L-17.55 0.0 -17.55 -0.05 Q-17.55 -6.65 -11.95 -11.35 -6.4 -16.05 1.4 -16.05 M1.4 16.05 Q-6.4 16.05 -11.95 11.35 -17.55 6.65 -17.55 0.0" fill="none" stroke="#ff0000" stroke-linecap="round" stroke-linejoin="round" stroke-opacity="0.2509804" stroke-width="0.05"/>
      <path d="M1.4 -16.05 L1.4 -21.4" fill="none" stroke="#ff0000" stroke-linecap="round" stroke-linejoin="round" stroke-opacity="0.2509804" stroke-width="1.0"/>
      <path d="M181.15 141.4 L181.15 123.6 191.05 123.6 191.05 141.4 181.15 141.4" fill="#ffffff" fill-rule="evenodd" stroke="none"/>
      <path d="M250.55 123.6 L260.45 123.6 260.45 141.4 260.35 141.4 250.55 141.4 250.55 123.6" fill="#000000" fill-rule="evenodd" stroke="none"/>
      <path d="M230.7 123.6 L240.6 123.6 240.6 141.4 230.7 141.4 230.7 123.6" fill="#ff0000" fill-rule="evenodd" stroke="none"/>
      <path d="M191.05 123.6 L201.0 123.6 201.0 141.4 191.05 141.4 191.05 123.6" fill="#ffff00" fill-rule="evenodd" stroke="none"/>
      <path d="M201.0 123.6 L210.9 123.6 210.9 141.4 201.0 141.4 201.0 123.6" fill="#00ffff" fill-rule="evenodd" stroke="none"/>
      <path d="M210.9 123.6 L220.8 123.6 220.8 141.4 210.9 141.4 210.9 123.6" fill="#00ff00" fill-rule="evenodd" stroke="none"/>
      <path d="M220.8 123.6 L230.7 123.6 230.7 141.4 220.8 141.4 220.8 123.6" fill="#ff00ff" fill-rule="evenodd" stroke="none"/>
      <path d="M240.6 123.6 L250.55 123.6 250.55 141.4 240.6 141.4 240.6 123.6" fill="#0000ff" fill-rule="evenodd" stroke="none"/>
      <path d="M260.35 141.4 L260.35 145.4 181.1 145.4 181.1 141.4 181.15 141.4 191.05 141.4 201.0 141.4 210.9 141.4 220.8 141.4 230.7 141.4 240.6 141.4 250.55 141.4 260.35 141.4" fill="url(#gradient8)" fill-rule="evenodd" stroke="none"/>
    </g>
    <linearGradient gradientTransform="matrix(0.0484, 0.0, 0.0, 0.0024, 220.7, 143.35)" gradientUnits="userSpaceOnUse" id="gradient8" spreadMethod="pad" x1="-819.2" x2="819.2">
      <stop offset="0.0" stop-color="#ffffff"/>
      <stop offset="1.0" stop-color="#000000"/>
    </linearGradient>
  </defs>
</svg>
