<?xml version="1.0" encoding="UTF-8" standalone="no"?>
<svg xmlns:ffdec="https://www.free-decompiler.com/flash" xmlns:xlink="http://www.w3.org/1999/xlink" ffdec:objectType="frame" height="4004.1px" width="7682.6px" xmlns="http://www.w3.org/2000/svg">
  <g transform="matrix(2.0, 0.0, 0.0, 2.0, 4622.9, 1925.9)">
    <use ffdec:characterId="333" height="372.95" transform="matrix(2.0745, 0.0, 0.0, 1.0111, -262.0106, -216.0102)" width="608.0" xlink:href="#shape0"/>
    <use ffdec:characterId="3580" height="353.1" transform="matrix(1.0, 0.0, 0.0, 1.0, -759.25, -219.95)" width="598.15" xlink:href="#shape1"/>
    <use ffdec:characterId="3578" height="310.3" transform="matrix(1.0, 0.0, 0.0, 1.0, -700.4, -185.4)" width="522.45" xlink:href="#sprite0"/>
    <use ffdec:characterId="3576" height="402.4" transform="matrix(1.0, 0.0, 0.0, 1.0, 262.75, -284.5)" width="655.4" xlink:href="#sprite1"/>
    <clipPath id="clipPath0" transform="matrix(0.0297, 0.0, 0.0, 0.0326, -918.2, -335.3)">
      <path d="M-321.1 133.15 L-995.25 133.15 -995.25 -219.95 -321.1 -219.95 -321.1 133.15" fill="#ff0000" fill-rule="evenodd" stroke="none"/>
    </clipPath>
    <use ffdec:characterId="3478" height="300.0" transform="matrix(1.032, 0.0, 0.0, 1.032, -735.2947, -198.8019)" width="533.0" xlink:href="#sprite2"/>
  </g>
  <defs>
    <g id="shape0" transform="matrix(1.0, 0.0, 0.0, 1.0, -26.7, -26.05)">
      <path d="M634.7 26.05 L634.7 399.0 26.7 399.0 26.7 26.05 634.7 26.05" fill="#000000" fill-rule="evenodd" stroke="none"/>
    </g>
    <g id="shape1" transform="matrix(1.0, 0.0, 0.0, 1.0, 759.25, 219.95)">
      <path d="M-161.1 133.15 L-759.25 133.15 -759.25 -219.95 -161.1 -219.95 -161.1 133.15" fill="url(#gradient0)" fill-rule="evenodd" stroke="none"/>
    </g>
    <linearGradient gradientTransform="matrix(0.172, -0.3195, 0.373, 0.2009, -460.2, -43.35)" gradientUnits="userSpaceOnUse" id="gradient0" spreadMethod="pad" x1="-819.2" x2="819.2">
      <stop offset="0.0" stop-color="#431b1b"/>
      <stop offset="1.0" stop-color="#000000"/>
    </linearGradient>
    <g id="sprite0" transform="matrix(1.0, 0.0, 0.0, 1.0, 0.0, 0.0)">
      <use ffdec:characterId="3577" height="310.3" transform="matrix(1.0, 0.0, 0.0, 1.0, 0.0, 0.0)" width="522.45" xlink:href="#shape2"/>
    </g>
    <g id="shape2" transform="matrix(1.0, 0.0, 0.0, 1.0, 0.0, 0.0)">
      <path d="M498.4 82.9 L502.6 82.8 502.65 95.7 506.9 95.6 503.7 113.5 500.35 113.75 500.55 112.25 500.55 111.9 493.1 112.05 493.55 113.9 455.8 114.9 455.65 114.7 455.7 133.15 430.45 133.0 430.45 146.25 522.45 144.95 502.0 163.45 452.35 169.95 450.3 165.0 442.35 165.0 440.2 170.05 430.35 170.15 430.35 178.4 415.7 175.5 404.4 158.15 381.05 158.2 372.35 167.5 361.2 165.15 357.6 156.9 356.3 156.5 352.45 155.8 Q343.5 156.9 334.9 160.05 330.2 161.75 325.25 162.7 317.7 163.85 310.25 165.45 L309.55 186.6 300.7 187.75 298.4 167.3 Q290.6 168.0 282.9 167.3 L282.1 165.65 281.8 164.75 281.65 163.7 281.65 162.75 277.05 162.95 272.65 162.4 Q244.35 164.4 216.45 159.75 L216.1 160.5 210.6 160.35 Q207.85 160.55 205.2 161.25 186.25 165.05 168.0 171.55 165.6 185.7 159.7 198.7 L159.25 197.75 156.4 198.45 Q156.15 203.1 154.75 207.25 151.9 215.65 149.65 223.95 146.8 234.55 141.0 243.8 L134.4 243.6 134.15 248.5 Q150.85 250.6 167.5 247.8 L169.4 245.85 Q171.4 244.0 173.9 243.55 190.25 243.3 206.0 247.9 214.25 245.2 222.15 248.7 225.6 250.3 228.15 252.9 236.8 261.85 236.35 274.55 237.9 275.3 239.4 276.2 241.55 277.45 242.85 279.6 247.65 287.55 245.3 296.5 L245.1 297.85 244.9 298.1 243.85 298.35 243.6 298.35 245.1 303.8 239.7 297.85 Q236.95 301.35 232.45 301.5 222.45 302.3 212.5 304.15 176.85 310.95 140.45 310.25 96.8 309.4 53.2 305.85 L43.7 306.45 35.85 306.15 Q22.2 305.95 8.7 302.9 7.85 302.6 7.45 301.95 L5.7 298.8 Q2.8 293.6 3.15 288.3 -0.55 277.35 0.1 265.65 0.35 261.05 1.65 256.8 6.3 241.4 15.75 228.1 L15.05 226.3 Q14.55 225.0 15.1 223.7 17.75 217.85 21.75 212.65 L18.75 209.95 24.0 199.3 Q33.45 178.4 45.7 159.15 L42.5 156.35 42.05 156.9 42.4 155.85 42.25 155.3 44.45 149.35 Q56.3 115.85 85.4 95.9 104.35 82.95 127.05 80.1 L127.4 79.3 127.4 80.05 Q131.35 79.45 135.05 77.55 L139.1 75.1 138.7 71.3 Q138.7 68.75 140.15 62.3 L139.9 53.35 139.95 51.3 139.85 48.85 Q139.85 39.8 153.85 22.8 L159.25 16.0 Q162.75 12.0 166.15 9.8 172.25 5.9 177.85 3.55 183.85 1.0 187.2 1.3 191.3 0.45 195.25 2.35 204.55 -1.7 214.35 1.2 216.05 1.75 217.5 2.7 226.0 8.25 233.9 14.8 235.9 16.65 236.75 19.25 237.9 22.8 236.85 26.4 241.25 30.4 241.2 36.3 241.2 38.6 241.8 40.75 243.4 46.85 242.75 53.2 L242.3 55.15 242.1 57.55 242.6 58.95 Q243.1 60.2 243.1 61.2 L242.5 64.7 242.7 66.7 Q242.7 68.05 241.65 68.05 240.55 68.05 240.1 67.4 239.75 66.9 239.75 65.7 L240.2 63.4 240.6 61.55 239.65 59.1 Q238.7 56.85 238.7 56.2 L238.9 54.9 238.95 53.85 238.7 52.9 238.35 52.15 238.3 52.05 238.1 53.15 Q238.1 54.35 238.9 58.45 L238.6 63.55 238.55 63.65 238.2 63.7 Q236.4 63.7 236.35 61.55 L236.75 58.55 Q236.95 57.6 236.55 55.95 L236.25 54.3 Q235.6 57.7 235.05 61.65 233.95 69.45 229.4 76.4 231.5 85.55 227.6 92.65 225.7 96.1 221.1 94.65 L219.8 99.0 214.55 100.05 Q215.5 101.15 215.05 102.45 214.65 103.6 213.55 104.55 L212.15 105.7 219.6 109.85 Q229.35 115.3 240.3 116.45 L249.35 117.3 250.25 111.8 271.0 102.0 290.2 105.85 301.25 105.6 308.55 89.7 382.6 88.7 391.7 104.45 393.2 104.3 409.75 93.9 438.1 97.35 449.45 97.1 445.7 97.35 449.45 97.4 449.65 97.25 455.2 97.25 455.2 96.9 471.95 96.45 471.6 97.8 479.75 97.35 479.45 96.3 492.0 95.95 498.4 82.9 M384.75 104.45 L378.5 95.5 313.95 96.45 309.7 105.5 383.55 104.6 384.75 104.45 M216.75 20.55 Q225.8 21.55 227.55 22.25 228.4 22.6 228.45 23.1 L228.4 24.3 233.1 26.95 Q234.95 28.05 235.0 28.65 L234.45 29.95 Q236.3 31.3 237.8 33.55 L238.9 35.5 239.1 35.45 239.25 35.6 238.65 33.3 238.6 33.25 237.05 30.05 235.9 27.8 Q235.25 26.15 235.5 24.1 235.75 22.2 234.85 20.65 230.05 12.1 221.4 7.3 L221.3 8.0 220.2 7.05 Q217.9 4.35 214.9 3.0 209.85 4.8 205.5 1.9 201.5 2.25 197.75 3.8 195.35 4.65 193.0 3.45 189.85 1.65 187.3 3.65 186.9 2.55 183.9 3.05 L183.3 3.55 180.1 4.2 Q178.25 4.75 176.85 5.55 L174.35 6.95 173.8 7.3 Q173.45 7.4 173.25 7.55 L173.25 7.6 169.15 9.9 Q165.4 12.05 164.25 13.1 161.55 15.7 158.35 19.7 L156.3 22.3 157.8 21.2 156.25 22.85 153.1 26.35 151.2 28.8 150.15 29.95 Q148.55 31.65 147.6 33.2 L145.8 36.65 144.1 39.95 Q142.35 42.8 141.55 46.6 L141.3 48.1 141.45 47.95 Q141.2 50.0 141.35 52.1 L141.6 61.65 141.05 65.45 140.85 66.6 140.2 70.5 141.5 66.85 141.9 65.65 146.4 53.4 146.55 53.0 147.65 48.55 Q147.8 47.9 148.55 47.4 149.35 46.9 149.6 47.95 L149.85 50.6 149.95 51.9 151.15 49.15 Q156.0 39.75 157.7 35.45 159.35 36.15 159.3 38.15 L158.7 41.6 158.7 41.85 158.8 41.7 Q160.95 38.1 165.0 30.1 169.15 22.6 173.7 17.7 L174.3 17.8 174.45 18.6 174.1 20.25 173.45 21.8 173.6 21.95 174.8 20.85 178.45 17.45 Q181.7 14.7 184.0 14.3 L184.25 14.25 Q184.5 14.3 184.5 15.1 L184.1 17.25 183.5 19.55 183.5 19.8 Q184.4 19.85 188.7 17.75 193.05 15.7 194.25 15.7 L198.5 16.05 198.75 16.1 Q199.0 16.1 199.0 16.85 199.0 17.6 198.55 18.05 L198.0 18.55 198.0 18.95 203.75 18.25 208.75 17.7 216.6 17.8 216.85 17.75 Q217.1 17.8 217.1 18.6 L216.8 19.7 216.1 20.45 216.75 20.55 M163.55 114.15 L168.95 110.0 Q172.9 107.3 177.2 105.95 L178.1 105.95 Q178.35 106.05 178.35 106.85 L175.95 111.95 172.45 118.45 172.6 118.6 Q178.35 113.45 180.75 112.15 183.3 110.8 187.25 110.8 191.8 110.8 196.95 112.5 L204.0 114.95 Q209.1 116.25 210.6 117.4 211.65 118.25 211.65 120.2 211.65 122.0 210.15 126.6 L210.25 126.7 213.15 123.8 213.2 123.65 Q214.65 121.1 216.4 119.75 L216.35 120.45 216.35 120.5 219.5 120.35 223.1 122.05 Q228.9 125.5 232.2 126.7 236.1 128.3 240.45 131.35 L244.1 134.3 Q243.05 132.55 242.85 130.3 L241.45 127.8 238.9 124.8 Q234.1 120.5 228.45 117.5 220.55 113.3 212.55 109.7 L211.55 108.55 Q209.9 107.25 206.6 107.1 L199.55 103.3 199.15 102.8 Q198.65 102.35 196.55 101.8 L190.7 99.15 190.55 99.05 Q189.15 98.2 188.1 98.1 180.45 95.05 172.4 93.05 L165.45 97.55 165.55 97.8 164.15 98.45 164.1 98.4 163.95 98.5 164.0 98.5 Q162.2 99.5 161.4 100.85 159.9 102.25 158.1 103.35 L157.25 103.9 Q152.5 109.7 146.7 118.1 L146.7 118.35 146.85 118.25 Q154.85 110.9 159.2 107.25 166.9 100.7 172.45 97.15 L172.65 97.05 Q172.85 97.1 172.85 97.9 L171.0 101.0 167.7 106.2 165.7 110.1 163.45 114.05 163.35 114.3 163.55 114.15 M125.45 82.95 Q112.3 86.5 99.35 90.8 95.8 91.95 92.45 94.0 84.2 99.15 77.15 105.75 70.15 112.3 63.75 119.3 59.4 124.05 56.7 129.65 L48.9 146.3 Q51.15 142.3 54.55 137.8 L70.6 118.35 Q73.45 114.65 82.1 108.9 L93.6 101.45 Q94.9 100.55 106.75 95.05 110.25 93.35 122.85 91.25 L139.65 88.9 Q148.1 87.25 157.45 91.7 160.9 93.4 163.35 95.4 L163.8 95.75 165.25 94.8 Q149.7 83.2 130.2 82.95 L126.35 83.3 126.45 83.5 126.45 83.6 126.15 83.65 125.65 83.65 126.0 82.8 125.45 82.95 M204.05 252.15 L204.05 251.9 Q204.05 251.55 203.15 251.3 201.7 250.85 200.6 250.2 L198.55 249.75 Q195.4 247.85 191.6 247.3 L185.75 246.1 174.25 246.45 Q173.9 245.9 172.55 246.75 L171.5 247.5 170.9 247.75 171.2 247.75 170.0 248.95 169.1 250.55 169.05 250.55 165.9 256.5 Q171.4 253.65 177.7 254.15 183.3 253.15 191.9 257.85 197.3 260.85 199.25 263.35 201.7 257.8 204.55 252.4 L204.65 252.2 204.05 252.15 M210.1 249.5 L209.8 249.5 Q208.45 249.5 207.5 250.6 L206.5 251.85 206.3 253.0 206.3 253.25 204.35 258.85 207.35 259.15 Q212.25 260.1 219.1 263.2 226.1 266.4 230.8 269.95 L233.8 272.5 Q233.05 261.25 224.4 253.65 218.1 248.1 210.1 249.5" fill="url(#gradient1)" fill-rule="evenodd" stroke="none"/>
      <path d="M238.6 33.25 L238.65 33.3 237.8 33.55 238.6 33.25" fill="url(#gradient2)" fill-rule="evenodd" stroke="none"/>
      <path d="M237.8 33.55 Q236.3 31.3 234.45 29.95 L235.0 28.65 Q234.95 28.05 233.1 26.95 L228.4 24.3 228.45 23.1 Q228.4 22.6 227.55 22.25 225.8 21.55 216.75 20.55 L216.8 19.7 217.1 18.6 Q217.1 17.8 216.85 17.75 L216.6 17.8 208.75 17.7 203.75 18.25 198.0 18.95 198.0 18.55 198.55 18.05 Q199.0 17.6 199.0 16.85 199.0 16.1 198.75 16.1 L198.5 16.05 194.25 15.7 Q193.05 15.7 188.7 17.75 184.4 19.85 183.5 19.8 L183.5 19.55 184.1 17.25 184.5 15.1 Q184.5 14.3 184.25 14.25 L184.0 14.3 Q181.7 14.7 178.45 17.45 L174.8 20.85 174.1 20.25 174.45 18.6 174.3 17.8 173.7 17.7 Q169.15 22.6 165.0 30.1 160.95 38.1 158.8 41.7 L158.7 41.6 159.3 38.15 Q159.35 36.15 157.7 35.45 156.0 39.75 151.15 49.15 L149.95 51.9 149.85 50.6 149.6 47.95 Q149.35 46.9 148.55 47.4 147.8 47.9 147.65 48.55 L146.55 53.0 146.4 53.4 141.9 65.65 141.05 65.45 141.6 61.65 141.35 52.1 Q141.2 50.0 141.45 47.95 L141.3 48.1 141.55 46.6 Q142.35 42.8 144.1 39.95 L145.8 36.65 147.6 33.2 Q148.55 31.65 150.15 29.95 L151.2 28.8 153.1 26.35 156.25 22.85 157.8 21.2 156.3 22.3 158.35 19.7 Q161.55 15.7 164.25 13.1 165.4 12.05 169.15 9.9 L173.25 7.6 173.25 7.55 Q173.45 7.4 173.8 7.3 L174.35 6.95 176.85 5.55 Q178.25 4.75 180.1 4.2 L183.3 3.55 183.9 3.05 Q186.9 2.55 187.3 3.65 189.85 1.65 193.0 3.45 195.35 4.65 197.75 3.8 201.5 2.25 205.5 1.9 209.85 4.8 214.9 3.0 217.9 4.35 220.2 7.05 L221.3 8.0 221.4 7.3 Q230.05 12.1 234.85 20.65 235.75 22.2 235.5 24.1 235.25 26.15 235.9 27.8 L237.05 30.05 238.6 33.25 237.8 33.55" fill="url(#gradient3)" fill-rule="evenodd" stroke="none"/>
      <path d="M125.65 83.65 L126.15 83.65 126.45 83.6 126.45 83.5 126.35 83.3 130.2 82.95 Q149.7 83.2 165.25 94.8 L163.8 95.75 163.35 95.4 Q160.9 93.4 157.45 91.7 148.1 87.25 139.65 88.9 L122.85 91.25 Q110.25 93.35 106.75 95.05 94.9 100.55 93.6 101.45 L82.1 108.9 Q73.45 114.65 70.6 118.35 L54.55 137.8 Q51.15 142.3 48.9 146.3 L56.7 129.65 Q59.4 124.05 63.75 119.3 70.15 112.3 77.15 105.75 84.2 99.15 92.45 94.0 95.8 91.95 99.35 90.8 112.3 86.5 125.45 82.95 L125.65 83.65" fill="url(#gradient4)" fill-rule="evenodd" stroke="none"/>
      <path d="M146.7 118.1 Q152.5 109.7 157.25 103.9 L158.1 103.35 Q159.9 102.25 161.4 100.85 162.2 99.5 164.0 98.5 L163.95 98.5 164.1 98.4 164.15 98.45 165.55 97.8 165.45 97.55 172.4 93.05 Q180.45 95.05 188.1 98.1 189.15 98.2 190.55 99.05 L190.7 99.15 196.55 101.8 Q198.65 102.35 199.15 102.8 L199.55 103.3 206.6 107.1 Q209.9 107.25 211.55 108.55 L212.55 109.7 Q220.55 113.3 228.45 117.5 234.1 120.5 238.9 124.8 L241.45 127.8 242.85 130.3 Q243.05 132.55 244.1 134.3 L240.45 131.35 Q236.1 128.3 232.2 126.7 228.9 125.5 223.1 122.05 L219.5 120.35 216.35 120.5 216.35 120.45 216.4 119.75 Q214.65 121.1 213.2 123.65 L213.15 123.8 210.25 126.7 210.15 126.6 Q211.65 122.0 211.65 120.2 211.65 118.25 210.6 117.4 209.1 116.25 204.0 114.95 L196.95 112.5 Q191.8 110.8 187.25 110.8 183.3 110.8 180.75 112.15 178.35 113.45 172.6 118.6 L172.45 118.45 175.95 111.95 178.35 106.85 Q178.35 106.05 178.1 105.95 L177.2 105.95 Q172.9 107.3 168.95 110.0 L163.55 114.15 163.45 114.05 165.7 110.1 167.7 106.2 171.0 101.0 172.85 97.9 Q172.85 97.1 172.65 97.05 L172.45 97.15 Q166.9 100.7 159.2 107.25 154.85 110.9 146.85 118.25 L146.7 118.1" fill="url(#gradient5)" fill-rule="evenodd" stroke="none"/>
      <path d="M210.1 249.5 Q218.1 248.1 224.4 253.65 233.05 261.25 233.8 272.5 L230.8 269.95 Q226.1 266.4 219.1 263.2 212.25 260.1 207.35 259.15 L204.35 258.85 206.3 253.25 206.3 253.0 206.5 251.85 207.5 250.6 Q208.45 249.5 209.8 249.5 L210.1 249.5" fill="url(#gradient6)" fill-rule="evenodd" stroke="none"/>
      <path d="M204.55 252.4 Q201.7 257.8 199.25 263.35 197.3 260.85 191.9 257.85 183.3 253.15 177.7 254.15 171.4 253.65 165.9 256.5 L169.05 250.55 169.1 250.55 170.0 248.95 171.2 247.75 170.9 247.75 171.5 247.5 172.55 246.75 Q173.9 245.9 174.25 246.45 L185.75 246.1 191.6 247.3 Q195.4 247.85 198.55 249.75 L200.6 250.2 Q201.7 250.85 203.15 251.3 204.05 251.55 204.05 251.9 L204.05 252.15 204.55 252.4" fill="url(#gradient7)" fill-rule="evenodd" stroke="none"/>
    </g>
    <linearGradient gradientTransform="matrix(-0.0555, 0.2033, -0.2785, -0.076, 264.05, 193.65)" gradientUnits="userSpaceOnUse" id="gradient1" spreadMethod="pad" x1="-819.2" x2="819.2">
      <stop offset="0.0" stop-color="#3f2705"/>
      <stop offset="1.0" stop-color="#283546"/>
    </linearGradient>
    <linearGradient gradientTransform="matrix(0.0596, 0.0, 0.0, 0.0389, 189.85, 33.75)" gradientUnits="userSpaceOnUse" id="gradient2" spreadMethod="pad" x1="-819.2" x2="819.2">
      <stop offset="0.0" stop-color="#d28513"/>
      <stop offset="1.0" stop-color="#283546"/>
    </linearGradient>
    <linearGradient gradientTransform="matrix(8.0E-4, 0.038, -0.0599, 0.0013, 189.5, 33.4)" gradientUnits="userSpaceOnUse" id="gradient3" spreadMethod="pad" x1="-819.2" x2="819.2">
      <stop offset="0.0" stop-color="#d28513"/>
      <stop offset="1.0" stop-color="#283546"/>
    </linearGradient>
    <linearGradient gradientTransform="matrix(-0.0164, 0.0511, -0.0553, -0.0177, 107.6, 118.95)" gradientUnits="userSpaceOnUse" id="gradient4" spreadMethod="pad" x1="-819.2" x2="819.2">
      <stop offset="0.0" stop-color="#d28513"/>
      <stop offset="1.0" stop-color="#283546"/>
    </linearGradient>
    <linearGradient gradientTransform="matrix(-0.006, 0.0186, -0.0568, -0.0182, 198.1, 117.85)" gradientUnits="userSpaceOnUse" id="gradient5" spreadMethod="pad" x1="-819.2" x2="819.2">
      <stop offset="0.0" stop-color="#d28513"/>
      <stop offset="1.0" stop-color="#283546"/>
    </linearGradient>
    <linearGradient gradientTransform="matrix(-0.0031, 0.0097, -0.0188, -0.006, 220.95, 259.65)" gradientUnits="userSpaceOnUse" id="gradient6" spreadMethod="pad" x1="-819.2" x2="819.2">
      <stop offset="0.0" stop-color="#d28513"/>
      <stop offset="1.0" stop-color="#283546"/>
    </linearGradient>
    <linearGradient gradientTransform="matrix(-0.0055, 0.0114, -0.0183, -0.0087, 185.35, 254.25)" gradientUnits="userSpaceOnUse" id="gradient7" spreadMethod="pad" x1="-819.2" x2="819.2">
      <stop offset="0.0" stop-color="#d28513"/>
      <stop offset="1.0" stop-color="#283546"/>
    </linearGradient>
    <g id="sprite1" transform="matrix(1.0, 0.0, 0.0, 1.0, 0.0, 0.0)">
      <use ffdec:characterId="3575" height="402.4" transform="matrix(1.0, 0.0, 0.0, 1.0, 0.0, 0.0)" width="655.4" xlink:href="#shape3"/>
    </g>
    <g id="shape3" transform="matrix(1.0, 0.0, 0.0, 1.0, 0.0, 0.0)">
      <path d="M655.4 352.95 Q655.4 363.9 636.7 373.4 620.45 381.7 591.2 388.4 L574.95 392.15 Q566.45 393.75 549.05 395.55 L458.4 400.05 383.65 402.4 Q367.7 402.4 360.25 398.65 356.3 396.65 355.65 394.45 354.25 393.7 352.65 393.05 L346.0 391.05 Q344.95 390.55 339.3 388.9 L333.4 387.3 Q330.65 386.05 325.05 384.85 313.95 382.55 297.8 382.55 L276.75 383.5 253.9 384.4 Q188.7 383.7 171.55 383.15 L159.4 382.05 Q135.05 380.05 132.6 379.15 L130.3 381.8 Q129.35 383.0 128.35 385.75 126.65 388.05 120.9 388.4 L104.3 389.3 92.05 390.8 85.9 391.9 53.4 392.9 25.5 392.3 Q20.4 392.25 12.55 393.7 6.2 394.4 2.0 391.05 0.5 389.9 0.15 389.15 0.0 388.8 0.0 387.65 0.0 386.05 3.25 371.6 L7.15 354.3 Q9.2 344.15 9.0 337.4 L10.25 330.05 9.3 331.35 Q5.25 337.4 5.65 341.15 L5.15 341.15 4.95 339.95 4.75 338.35 Q4.75 334.45 8.85 328.45 L11.35 325.2 Q12.1 322.7 13.15 321.4 L13.6 321.55 13.65 322.35 13.6 322.9 14.55 322.2 14.55 321.85 16.35 318.45 Q18.4 314.85 19.05 312.65 L20.35 308.05 Q21.15 305.35 22.05 303.65 24.55 297.3 26.3 294.0 28.4 290.1 31.05 288.65 L30.95 283.85 Q30.85 279.3 31.15 276.55 L30.85 268.5 30.55 263.85 30.55 263.65 30.5 263.8 30.4 263.9 29.65 263.1 29.55 261.8 Q30.55 250.55 30.55 244.55 L30.55 244.4 31.4 244.25 Q31.9 244.25 32.1 244.6 L32.3 246.0 Q39.6 243.15 43.95 241.8 L43.9 241.4 43.8 238.0 43.8 237.55 43.55 237.55 42.05 217.0 42.05 214.45 41.8 211.75 Q41.55 210.8 38.05 206.45 37.6 205.85 36.8 201.45 36.05 197.35 36.05 196.3 36.05 188.7 42.0 181.65 49.55 172.7 62.85 172.0 64.3 169.75 74.3 163.1 L86.65 155.2 Q88.1 154.3 98.15 146.6 103.0 142.85 106.45 141.25 L107.0 140.75 Q106.2 139.1 105.5 135.65 L104.3 129.7 Q102.05 121.55 101.55 118.05 101.0 113.9 101.3 106.6 101.7 97.85 101.55 94.8 101.35 91.25 101.65 83.5 101.55 76.5 99.05 71.55 L96.15 65.85 92.55 59.95 Q91.3 58.25 90.0 53.95 89.05 51.7 87.25 50.45 L86.55 50.65 86.05 50.5 85.4 50.05 86.15 49.75 84.65 49.2 Q87.1 47.8 88.65 48.6 L98.15 42.95 Q106.45 37.7 113.55 35.3 119.05 33.5 134.9 30.15 L145.45 28.05 Q151.65 26.8 157.05 25.0 166.35 22.0 173.45 26.1 179.3 29.5 179.3 33.3 179.3 35.45 175.5 39.65 172.3 43.25 170.15 44.1 L170.2 44.25 Q178.05 42.9 185.8 40.75 191.4 39.15 197.85 39.15 L197.9 38.95 199.5 38.95 199.35 39.25 Q200.8 39.45 201.8 40.15 L203.9 41.55 203.55 42.05 202.4 42.3 Q201.8 42.3 201.05 41.7 200.3 41.05 199.65 41.05 L199.2 41.05 199.3 41.25 199.35 41.3 Q200.05 42.3 202.15 43.8 204.95 45.95 206.35 45.4 L210.5 45.55 212.15 46.35 212.15 45.95 212.5 45.95 212.7 46.6 212.9 46.7 213.05 46.85 213.15 47.1 Q216.15 45.75 219.9 44.65 229.6 41.8 236.55 42.85 L236.85 41.65 237.15 40.45 238.55 43.2 238.9 43.3 239.0 43.7 238.85 43.8 Q239.3 44.45 239.5 44.35 241.7 43.15 247.4 43.7 L252.2 43.8 257.9 44.2 261.9 44.2 267.55 44.0 Q267.8 44.15 267.15 44.45 L276.85 44.15 276.65 41.95 Q277.75 42.65 278.4 43.95 283.85 42.85 289.35 43.05 L302.75 43.45 318.9 43.2 321.05 43.4 322.9 42.3 324.1 41.2 324.05 39.0 324.15 35.75 Q324.4 33.7 325.15 33.45 L325.7 39.65 326.55 38.75 Q328.65 37.0 331.5 36.95 334.1 38.2 340.75 40.25 346.95 42.15 348.8 43.2 L351.55 45.3 353.5 46.65 358.7 45.6 358.65 44.8 Q358.65 44.05 358.8 43.45 L359.65 43.45 360.1 45.35 370.55 43.45 383.0 42.2 Q380.9 33.35 380.9 31.95 380.9 30.75 378.65 23.4 L379.05 23.4 384.8 42.05 391.8 41.55 416.3 40.45 416.3 40.05 427.55 40.7 435.45 40.4 443.9 39.95 458.05 39.5 472.4 39.2 Q524.35 38.45 541.95 37.8 L581.15 39.5 Q592.25 40.65 595.2 42.3 L606.3 51.3 Q613.6 57.6 620.45 69.7 626.0 79.45 628.1 88.2 629.9 95.75 629.9 106.25 629.9 114.55 627.4 134.9 624.9 155.25 624.9 174.7 624.9 193.75 627.65 208.45 629.45 218.1 633.65 230.7 638.3 244.55 639.65 250.75 642.4 262.95 642.4 277.8 642.4 281.85 641.65 290.7 640.9 299.6 640.9 307.2 640.9 314.85 641.4 318.75 642.25 325.35 644.9 330.3 648.35 336.7 652.7 342.85 655.4 347.2 655.4 352.95 M344.45 280.65 Q346.1 285.15 348.4 288.8 355.6 300.4 366.7 300.4 376.5 300.4 384.2 294.5 389.05 290.8 390.55 287.65 391.9 285.05 393.95 279.05 395.95 273.45 397.05 271.45 399.25 260.85 400.35 248.7 401.55 235.3 401.55 217.55 401.55 201.2 396.05 124.55 395.2 116.9 392.55 101.25 389.9 85.4 389.05 78.05 L387.8 66.65 386.05 54.8 383.35 43.6 383.3 43.35 370.8 44.2 Q367.85 44.4 362.35 45.55 L360.25 46.0 362.9 55.4 Q365.2 63.25 365.8 67.45 368.05 83.3 369.65 91.05 370.55 95.45 372.6 102.8 L375.8 114.7 Q376.9 119.15 376.9 126.5 376.9 135.15 377.3 138.3 L381.0 161.95 Q383.4 176.6 384.3 185.55 386.35 204.5 387.05 209.2 388.1 215.6 388.45 221.25 388.8 226.1 388.8 232.65 L388.85 245.35 Q388.6 251.25 386.8 260.15 385.6 266.3 382.3 273.65 L380.95 277.15 379.3 280.4 378.85 281.8 379.15 281.55 379.55 281.9 Q379.15 283.0 377.65 284.7 L377.5 284.9 Q376.7 286.3 375.5 286.8 L374.5 287.7 Q369.1 292.4 364.8 292.4 357.2 292.4 350.25 286.7 346.85 283.9 344.55 280.6 L344.35 280.35 344.45 280.65 M355.05 47.45 Q357.25 48.25 358.15 48.8 L359.45 50.0 Q358.95 47.7 358.8 46.3 L354.5 47.2 355.05 47.45 M324.6 89.15 Q323.8 91.4 323.8 92.3 L324.95 97.0 326.3 102.8 327.3 107.9 328.4 112.95 Q329.1 116.8 330.55 123.25 L332.8 133.55 334.75 143.85 Q336.0 150.85 336.8 154.2 338.0 162.3 339.0 166.3 340.75 173.5 344.9 173.95 341.85 157.35 335.5 130.05 327.75 96.45 325.65 86.55 L324.6 89.15 M325.35 112.25 L325.3 112.2 325.3 112.25 325.35 112.25 M375.8 351.3 L375.25 351.0 375.6 351.7 375.8 351.3 M267.15 46.45 L260.1 46.2 Q261.7 48.05 263.15 50.8 L265.9 56.45 267.8 61.65 269.9 67.3 Q271.75 71.4 273.75 78.2 L277.0 89.45 Q278.45 94.15 283.1 111.4 286.8 125.0 289.65 132.7 284.7 111.85 281.35 87.1 278.95 69.15 276.95 45.75 L276.0 45.85 267.15 46.45 M313.15 224.9 Q311.3 220.25 307.15 207.5 303.6 196.55 300.65 190.05 299.25 186.95 297.85 181.5 L295.65 172.45 290.75 155.2 Q288.2 145.9 279.15 120.45 273.75 105.35 270.7 94.4 270.35 94.1 269.9 93.95 L269.3 94.5 269.15 94.6 270.1 98.2 271.25 102.7 272.85 111.35 Q273.85 116.85 274.9 120.3 L285.4 155.2 Q287.25 161.45 291.3 172.55 L297.5 190.05 300.25 198.8 Q302.0 204.05 304.0 207.7 309.5 217.8 312.9 224.95 L313.15 224.95 313.15 224.9 M309.6 73.05 Q313.25 81.05 317.65 81.05 318.9 81.05 320.05 80.45 319.3 74.7 315.9 65.0 L310.65 49.7 Q308.7 51.1 307.45 54.25 306.3 57.15 306.3 59.95 306.3 65.95 309.6 73.05 M299.4 68.7 Q302.9 68.25 303.45 67.5 303.75 67.1 303.55 66.2 L300.35 67.4 Q296.9 68.7 292.15 69.2 L292.3 70.3 292.3 70.55 295.85 69.55 299.4 68.7 M312.4 91.3 Q309.15 96.5 306.45 103.25 303.3 111.2 303.3 115.9 L303.55 118.4 303.9 121.3 304.4 121.3 308.4 106.55 Q310.9 97.45 313.05 91.3 L312.4 91.3 M213.35 49.0 L213.5 50.45 212.85 56.3 Q212.15 61.6 212.15 64.3 212.15 78.6 215.9 109.35 219.25 137.0 221.75 148.7 227.15 173.35 233.15 190.75 L235.1 196.15 234.65 193.8 Q234.3 191.8 233.0 188.2 L231.15 182.55 Q227.2 166.75 226.4 159.7 L223.2 133.65 Q222.5 126.85 222.5 114.5 222.5 98.3 224.5 78.3 L225.5 69.3 226.5 60.3 Q227.1 57.55 227.75 51.0 228.35 46.85 229.75 44.4 224.2 44.9 218.5 46.85 L213.35 49.0 M171.8 49.05 L175.65 58.45 181.0 68.5 184.4 75.0 186.55 68.65 Q188.75 61.9 189.9 59.05 191.2 55.9 193.05 49.35 194.95 43.95 197.95 41.25 L197.9 41.1 Q190.7 41.35 181.3 43.75 L170.7 46.2 Q171.25 48.2 171.8 49.05 M164.05 164.05 L158.2 173.8 Q154.3 179.6 149.9 183.95 L140.0 193.65 Q133.8 199.85 131.3 203.45 121.65 216.95 117.8 222.95 L110.6 234.45 107.55 238.8 106.35 240.75 106.65 241.95 106.55 242.7 106.15 243.05 105.5 242.15 105.4 242.3 106.65 247.75 106.85 247.5 Q109.8 244.3 111.8 244.05 L117.7 236.85 Q122.7 230.75 125.65 226.2 127.45 223.45 130.75 215.95 133.6 209.35 136.65 205.55 L145.7 195.5 Q151.45 189.15 154.15 184.95 157.25 180.25 159.9 174.8 162.8 168.85 164.05 164.3 L164.05 164.05 M290.65 135.7 L289.65 133.55 289.65 133.7 290.05 134.95 290.65 135.7 M37.8 196.3 Q37.8 198.05 39.25 202.75 40.25 206.2 40.8 207.55 L41.05 207.55 Q40.75 198.1 44.4 190.3 45.1 188.9 47.6 186.2 50.15 183.5 51.9 182.3 52.8 181.75 58.55 179.2 63.05 177.25 63.05 176.45 63.05 174.3 60.9 174.4 59.2 174.5 52.9 176.45 50.0 177.75 47.15 179.5 43.9 181.45 42.9 182.8 41.8 184.3 39.85 189.15 37.8 194.35 37.8 196.3 M64.95 172.75 L67.4 172.7 Q76.0 172.7 82.8 176.5 L90.05 181.7 Q89.55 178.35 86.4 174.2 83.1 169.85 78.55 166.95 78.4 166.15 78.55 165.95 L81.4 165.7 Q84.85 165.7 87.35 166.5 90.2 167.4 92.55 167.55 92.0 166.1 89.95 163.65 L88.05 161.15 88.15 160.35 88.4 160.3 90.65 160.2 98.05 161.45 96.05 157.7 Q94.55 155.25 94.55 154.8 L94.65 153.8 104.05 154.3 101.8 150.55 100.2 147.4 98.9 148.3 93.9 152.2 87.9 156.7 Q83.6 159.75 74.15 165.65 67.8 169.8 64.95 172.75 M62.55 180.05 L62.5 180.1 62.55 180.3 62.55 180.05 M123.0 128.25 Q110.45 133.7 109.8 133.7 L107.25 133.6 Q107.65 135.7 107.65 137.05 L107.55 140.3 Q109.15 139.05 111.7 137.85 L122.3 133.3 Q128.05 130.8 133.2 127.2 L141.55 121.3 Q136.3 122.4 123.0 128.25 M132.95 180.25 Q130.9 179.95 128.4 181.45 L124.4 183.95 115.3 190.8 Q105.2 197.8 95.4 203.8 91.7 206.1 91.65 210.15 L92.3 217.05 92.4 224.05 Q92.4 228.4 91.8 230.95 L91.8 233.05 Q97.5 233.3 102.35 236.7 L105.4 239.25 111.5 228.5 Q119.55 214.45 121.65 209.8 L128.55 193.7 132.15 185.55 Q133.85 181.9 135.1 180.0 L132.95 180.25 M43.45 209.75 L43.3 209.55 43.4 209.75 43.45 209.75 M109.05 247.15 L109.15 247.25 110.25 245.95 109.05 247.15 M119.4 218.75 L119.2 218.6 119.2 218.65 117.85 221.15 119.4 218.75 M45.5 242.75 L45.4 244.5 45.3 244.75 Q44.6 244.25 44.25 243.05 39.25 244.35 33.9 247.3 32.05 248.35 31.85 250.1 31.7 251.15 31.8 253.55 31.7 254.65 31.75 256.6 L31.8 259.9 31.65 260.15 Q36.05 256.0 50.2 248.9 L71.65 238.05 61.15 239.95 50.9 242.0 45.5 242.75 M31.65 291.15 L31.1 291.15 30.55 291.65 31.7 291.65 31.65 291.15 M30.55 293.4 Q29.3 293.65 28.15 295.65 L25.8 299.95 Q24.3 302.6 23.9 303.9 L21.0 312.3 Q19.2 317.1 17.05 320.8 L16.9 321.15 Q28.6 324.15 37.8 327.4 47.65 330.8 59.9 336.3 L43.55 324.4 Q44.2 323.0 47.45 322.45 L53.4 321.65 61.5 319.85 64.8 319.05 65.05 318.65 Q59.75 316.3 49.25 314.3 42.15 312.95 41.05 310.15 41.4 309.8 46.45 308.15 50.1 306.9 52.15 306.3 L56.4 304.6 Q60.1 303.3 62.55 303.4 63.65 303.05 64.15 302.65 L53.25 301.85 Q48.4 301.25 47.05 299.9 48.5 297.75 53.3 296.3 L59.8 294.65 61.4 294.05 Q60.45 293.9 51.15 294.05 41.5 294.2 36.05 293.65 L30.55 293.4 M137.3 378.65 L135.1 376.15 133.55 378.0 132.7 379.0 137.3 378.9 137.3 378.65 M238.65 205.25 L238.75 205.2 238.5 204.95 238.65 205.25" fill="#000000" fill-rule="evenodd" stroke="none"/>
      <path d="M344.55 280.6 Q346.85 283.9 350.25 286.7 357.2 292.4 364.8 292.4 369.1 292.4 374.5 287.7 L375.5 286.8 Q376.7 286.3 377.5 284.9 L377.65 284.7 Q379.15 283.0 379.55 281.9 L379.15 281.55 378.85 281.8 379.3 280.4 380.95 277.15 382.3 273.65 Q385.6 266.3 386.8 260.15 388.6 251.25 388.85 245.35 L388.8 232.65 Q388.8 226.1 388.45 221.25 388.1 215.6 387.05 209.2 386.35 204.5 384.3 185.55 383.4 176.6 381.0 161.95 L377.3 138.3 Q376.9 135.15 376.9 126.5 376.9 119.15 375.8 114.7 L372.6 102.8 Q370.55 95.45 369.65 91.05 368.05 83.3 365.8 67.45 365.2 63.25 362.9 55.4 L360.25 46.0 362.35 45.55 Q367.85 44.4 370.8 44.2 L383.3 43.35 383.35 43.6 386.05 54.8 387.8 66.65 389.05 78.05 Q389.9 85.4 392.55 101.25 395.2 116.9 396.05 124.55 401.55 201.2 401.55 217.55 401.55 235.3 400.35 248.7 399.25 260.85 397.05 271.45 395.95 273.45 393.95 279.05 391.9 285.05 390.55 287.65 389.05 290.8 384.2 294.5 376.5 300.4 366.7 300.4 355.6 300.4 348.4 288.8 346.1 285.15 344.45 280.65 L344.55 280.6 M312.9 224.95 Q309.5 217.8 304.0 207.7 302.0 204.05 300.25 198.8 L297.5 190.05 291.3 172.55 Q287.25 161.45 285.4 155.2 L274.9 120.3 Q273.85 116.85 272.85 111.35 L271.25 102.7 270.1 98.2 269.15 94.6 269.3 94.5 269.9 93.95 Q270.35 94.1 270.7 94.4 273.75 105.35 279.15 120.45 288.2 145.9 290.75 155.2 L295.65 172.45 297.85 181.5 Q299.25 186.95 300.65 190.05 303.6 196.55 307.15 207.5 311.3 220.25 313.15 224.9 L312.9 224.95 M267.15 46.45 L276.0 45.85 276.95 45.75 Q278.95 69.15 281.35 87.1 284.7 111.85 289.65 132.7 286.8 125.0 283.1 111.4 278.45 94.15 277.0 89.45 L273.75 78.2 Q271.75 71.4 269.9 67.3 L267.8 61.65 265.9 56.45 263.15 50.8 Q261.7 48.05 260.1 46.2 L267.15 46.45" fill="#5e5e5e" fill-rule="evenodd" stroke="none"/>
      <path d="M324.6 89.15 L325.65 86.55 Q327.75 96.45 335.5 130.05 341.85 157.35 344.9 173.95 340.75 173.5 339.0 166.3 338.0 162.3 336.8 154.2 336.0 150.85 334.75 143.85 L332.8 133.55 330.55 123.25 Q329.1 116.8 328.4 112.95 L327.3 107.9 326.3 102.8 324.95 97.0 323.8 92.3 Q323.8 91.4 324.6 89.15 M304.1 0.35 L304.15 0.0 304.3 0.0 304.75 6.05 Q305.4 13.0 306.05 17.05 L307.45 28.9 307.5 29.35 307.1 29.45 307.1 29.4 304.8 18.45 303.4 12.85 302.05 7.55 Q301.75 6.05 301.9 1.95 L301.65 0.5 304.1 0.35 M312.4 91.3 L313.05 91.3 Q310.9 97.45 308.4 106.55 L304.4 121.3 303.9 121.3 303.55 118.4 303.3 115.9 Q303.3 111.2 306.45 103.25 309.15 96.5 312.4 91.3 M299.4 68.7 L295.85 69.55 292.3 70.55 292.3 70.3 292.15 69.2 Q296.9 68.7 300.35 67.4 L303.55 66.2 Q303.75 67.1 303.45 67.5 302.9 68.25 299.4 68.7 M309.6 73.05 Q306.3 65.95 306.3 59.95 306.3 57.15 307.45 54.25 308.7 51.1 310.65 49.7 L315.9 65.0 Q319.3 74.7 320.05 80.45 318.9 81.05 317.65 81.05 313.25 81.05 309.6 73.05" fill="#bbbbbb" fill-rule="evenodd" stroke="none"/>
      <path d="M213.35 49.0 L218.5 46.85 Q224.2 44.9 229.75 44.4 228.35 46.85 227.75 51.0 227.1 57.55 226.5 60.3 L225.5 69.3 224.5 78.3 Q222.5 98.3 222.5 114.5 222.5 126.85 223.2 133.65 L226.4 159.7 Q227.2 166.75 231.15 182.55 L233.0 188.2 Q234.3 191.8 234.65 193.8 L235.1 196.15 233.15 190.75 Q227.15 173.35 221.75 148.7 219.25 137.0 215.9 109.35 212.15 78.6 212.15 64.3 212.15 61.6 212.85 56.3 L213.5 50.45 213.35 49.0 M164.05 164.05 L164.05 164.3 Q162.8 168.85 159.9 174.8 157.25 180.25 154.15 184.95 151.45 189.15 145.7 195.5 L136.65 205.55 Q133.6 209.35 130.75 215.95 127.45 223.45 125.65 226.2 122.7 230.75 117.7 236.85 L111.8 244.05 Q109.8 244.3 106.85 247.5 L106.65 247.75 105.4 242.3 105.5 242.15 106.15 243.05 106.55 242.7 106.65 241.95 106.35 240.75 107.55 238.8 110.6 234.45 117.8 222.95 Q121.65 216.95 131.3 203.45 133.8 199.85 140.0 193.65 L149.9 183.95 Q154.3 179.6 158.2 173.8 L164.05 164.05" fill="#d0d0d0" fill-rule="evenodd" stroke="none"/>
      <path d="M64.95 172.75 Q67.8 169.8 74.15 165.65 83.6 159.75 87.9 156.7 L93.9 152.2 98.9 148.3 100.2 147.4 101.8 150.55 104.05 154.3 94.65 153.8 94.55 154.8 Q94.55 155.25 96.05 157.7 L98.05 161.45 90.65 160.2 88.4 160.3 88.15 160.35 88.05 161.15 89.95 163.65 Q92.0 166.1 92.55 167.55 90.2 167.4 87.35 166.5 84.85 165.7 81.4 165.7 L78.55 165.95 Q78.4 166.15 78.55 166.95 83.1 169.85 86.4 174.2 89.55 178.35 90.05 181.7 L82.8 176.5 Q76.0 172.7 67.4 172.7 L64.95 172.75 M37.8 196.3 Q37.8 194.35 39.85 189.15 41.8 184.3 42.9 182.8 43.9 181.45 47.15 179.5 50.0 177.75 52.9 176.45 59.2 174.5 60.9 174.4 63.05 174.3 63.05 176.45 63.05 177.25 58.55 179.2 52.8 181.75 51.9 182.3 50.15 183.5 47.6 186.2 45.1 188.9 44.4 190.3 40.75 198.1 41.05 207.55 L40.8 207.55 Q40.25 206.2 39.25 202.75 37.8 198.05 37.8 196.3 M123.0 128.25 Q136.3 122.4 141.55 121.3 L133.2 127.2 Q128.05 130.8 122.3 133.3 L111.7 137.85 Q109.15 139.05 107.55 140.3 L107.65 137.05 Q107.65 135.7 107.25 133.6 L109.8 133.7 Q110.45 133.7 123.0 128.25" fill="#4f507d" fill-rule="evenodd" stroke="none"/>
      <path d="M45.5 242.75 L50.9 242.0 61.15 239.95 71.65 238.05 50.2 248.9 Q36.05 256.0 31.65 260.15 L31.8 259.9 31.75 256.6 Q31.7 254.65 31.8 253.55 31.7 251.15 31.85 250.1 32.05 248.35 33.9 247.3 39.25 244.35 44.25 243.05 44.6 244.25 45.3 244.75 L45.4 244.5 45.5 242.75 M30.55 293.4 L36.05 293.65 Q41.5 294.2 51.15 294.05 60.45 293.9 61.4 294.05 L59.8 294.65 53.3 296.3 Q48.5 297.75 47.05 299.9 48.4 301.25 53.25 301.85 L64.15 302.65 Q63.65 303.05 62.55 303.4 60.1 303.3 56.4 304.6 L52.15 306.3 Q50.1 306.9 46.45 308.15 41.4 309.8 41.05 310.15 42.15 312.95 49.25 314.3 59.75 316.3 65.05 318.65 L64.8 319.05 61.5 319.85 53.4 321.65 47.45 322.45 Q44.2 323.0 43.55 324.4 L59.9 336.3 Q47.65 330.8 37.8 327.4 28.6 324.15 16.9 321.15 L17.05 320.8 Q19.2 317.1 21.0 312.3 L23.9 303.9 Q24.3 302.6 25.8 299.95 L28.15 295.65 Q29.3 293.65 30.55 293.4" fill="#463d28" fill-rule="evenodd" stroke="none"/>
    </g>
    <g id="sprite2" transform="matrix(1.0, 0.0, 0.0, 1.0, 265.1, 150.0)">
      <use ffdec:characterId="3477" height="300.0" transform="matrix(1.0, 0.0, 0.0, 1.0, -265.1, -150.0)" width="533.0" xlink:href="#shape5"/>
    </g>
    <g id="shape5" transform="matrix(1.0, 0.0, 0.0, 1.0, 265.1, 150.0)">
      <path d="M267.9 -150.0 L267.9 150.0 -265.1 150.0 -265.1 -150.0 267.9 -150.0 Z" fill="none" stroke="#ff0000" stroke-linecap="round" stroke-linejoin="round" stroke-width="0.05"/>
      <path d="M1.4 -16.05 L1.45 -16.05 Q9.35 -16.05 14.95 -11.35 20.55 -6.65 20.55 0.0 L39.5 0.0 M20.55 0.0 Q20.55 6.65 14.95 11.35 9.35 16.05 1.45 16.05 L1.4 16.05 1.4 21.45 M-36.65 0.0 L-17.55 0.0 -17.55 -0.05 Q-17.55 -6.65 -11.95 -11.35 -6.4 -16.05 1.4 -16.05 M1.4 16.05 Q-6.4 16.05 -11.95 11.35 -17.55 6.65 -17.55 0.0" fill="none" stroke="#ff0000" stroke-linecap="round" stroke-linejoin="round" stroke-opacity="0.2509804" stroke-width="0.05"/>
      <path d="M1.4 -16.05 L1.4 -21.4" fill="none" stroke="#ff0000" stroke-linecap="round" stroke-linejoin="round" stroke-opacity="0.2509804" stroke-width="1.0"/>
      <path d="M181.15 141.4 L181.15 123.6 191.05 123.6 191.05 141.4 181.15 141.4" fill="#ffffff" fill-rule="evenodd" stroke="none"/>
      <path d="M250.55 123.6 L260.45 123.6 260.45 141.4 260.35 141.4 250.55 141.4 250.55 123.6" fill="#000000" fill-rule="evenodd" stroke="none"/>
      <path d="M230.7 123.6 L240.6 123.6 240.6 141.4 230.7 141.4 230.7 123.6" fill="#ff0000" fill-rule="evenodd" stroke="none"/>
      <path d="M191.05 123.6 L201.0 123.6 201.0 141.4 191.05 141.4 191.05 123.6" fill="#ffff00" fill-rule="evenodd" stroke="none"/>
      <path d="M201.0 123.6 L210.9 123.6 210.9 141.4 201.0 141.4 201.0 123.6" fill="#00ffff" fill-rule="evenodd" stroke="none"/>
      <path d="M210.9 123.6 L220.8 123.6 220.8 141.4 210.9 141.4 210.9 123.6" fill="#00ff00" fill-rule="evenodd" stroke="none"/>
      <path d="M220.8 123.6 L230.7 123.6 230.7 141.4 220.8 141.4 220.8 123.6" fill="#ff00ff" fill-rule="evenodd" stroke="none"/>
      <path d="M240.6 123.6 L250.55 123.6 250.55 141.4 240.6 141.4 240.6 123.6" fill="#0000ff" fill-rule="evenodd" stroke="none"/>
      <path d="M260.35 141.4 L260.35 145.4 181.1 145.4 181.1 141.4 181.15 141.4 191.05 141.4 201.0 141.4 210.9 141.4 220.8 141.4 230.7 141.4 240.6 141.4 250.55 141.4 260.35 141.4" fill="url(#gradient8)" fill-rule="evenodd" stroke="none"/>
    </g>
    <linearGradient gradientTransform="matrix(0.0484, 0.0, 0.0, 0.0024, 220.7, 143.35)" gradientUnits="userSpaceOnUse" id="gradient8" spreadMethod="pad" x1="-819.2" x2="819.2">
      <stop offset="0.0" stop-color="#ffffff"/>
      <stop offset="1.0" stop-color="#000000"/>
    </linearGradient>
  </defs>
</svg>
