<?xml version="1.0" encoding="UTF-8" standalone="no"?>
<svg xmlns:ffdec="https://www.free-decompiler.com/flash" xmlns:xlink="http://www.w3.org/1999/xlink" ffdec:objectType="frame" height="4004.1px" width="7682.6px" xmlns="http://www.w3.org/2000/svg">
  <g transform="matrix(2.0, 0.0, 0.0, 2.0, 4622.9, 1925.9)">
    <use ffdec:characterId="333" height="372.95" transform="matrix(2.0745, 0.0, 0.0, 1.0111, -262.0106, -216.0102)" width="608.0" xlink:href="#shape0"/>
    <use ffdec:characterId="2870" height="300.0" transform="matrix(1.2648, 0.0, 0.0, 1.177, -995.25, -219.95)" width="533.0" xlink:href="#shape1"/>
    <use ffdec:characterId="3588" height="349.8" transform="matrix(0.9999, -0.0048, 0.0048, 0.9999, -869.4759, -194.149)" width="413.65" xlink:href="#sprite0"/>
    <use ffdec:characterId="3586" height="103.0" transform="matrix(-0.322, -0.9453, 0.9453, -0.322, -893.4346, 0.224)" width="276.8" xlink:href="#sprite1"/>
    <use ffdec:characterId="3589" height="84.0" transform="matrix(1.0, 0.0, 0.0, 1.0, -891.25, -228.05)" width="115.6" xlink:href="#morphshape0"/>
    <clipPath id="clipPath0" transform="matrix(0.241, 0.0, 0.0, 0.2379, -667.8, -144.65)">
      <path d="M-321.1 133.15 L-995.25 133.15 -995.25 -219.95 -321.1 -219.95 -321.1 133.15" fill="#ff0000" fill-rule="evenodd" stroke="none"/>
    </clipPath>
    <use ffdec:characterId="3478" height="300.0" transform="matrix(1.032, 0.0, 0.0, 1.032, -975.2947, -208.8019)" width="533.0" xlink:href="#sprite2"/>
  </g>
  <defs>
    <g id="shape0" transform="matrix(1.0, 0.0, 0.0, 1.0, -26.7, -26.05)">
      <path d="M634.7 26.05 L634.7 399.0 26.7 399.0 26.7 26.05 634.7 26.05" fill="#000000" fill-rule="evenodd" stroke="none"/>
    </g>
    <g id="shape1" transform="matrix(1.0, 0.0, 0.0, 1.0, 0.0, 0.0)">
      <path d="M533.0 300.0 L0.0 300.0 0.0 0.0 533.0 0.0 533.0 300.0" fill="#ffffff" fill-rule="evenodd" stroke="none"/>
    </g>
    <g id="sprite0" transform="matrix(1.0, 0.0, 0.0, 1.0, 0.0, 15.9)">
      <use ffdec:characterId="3587" height="349.8" transform="matrix(1.0, 0.0, 0.0, 1.0, 0.0, -15.9)" width="413.65" xlink:href="#shape2"/>
    </g>
    <g id="shape2" transform="matrix(1.0, 0.0, 0.0, 1.0, 0.0, 15.9)">
      <path d="M105.35 -11.25 L90.5 30.05 90.35 30.9 Q74.55 81.8 69.15 137.1 L63.4 118.15 Q68.85 71.3 80.1 27.95 L84.25 17.6 Q90.35 1.6 93.3 -14.7 101.8 -18.3 105.35 -11.25" fill="#2d2d2d" fill-rule="evenodd" stroke="none"/>
      <path d="M329.25 120.55 L331.3 123.0 Q335.6 129.05 332.75 136.0 331.35 139.35 330.55 142.95 L329.95 143.2 Q330.25 144.2 330.0 145.05 329.75 146.15 328.95 147.0 L327.7 148.1 327.3 148.25 324.85 146.2 320.9 147.6 Q319.45 143.5 320.9 139.7 L313.05 135.4 312.95 134.7 Q300.45 133.0 289.05 139.75 275.5 147.7 259.45 148.35 L251.35 149.6 247.4 150.35 Q264.3 184.75 282.8 218.25 286.9 225.7 289.65 233.8 295.8 252.15 296.65 271.5 L301.7 271.45 301.65 272.55 Q318.3 274.8 334.9 271.4 L337.2 270.5 Q349.7 264.8 362.95 269.3 366.45 270.55 370.2 271.1 L383.7 271.55 Q388.8 272.25 393.0 275.4 398.45 279.4 401.35 285.3 403.5 289.7 403.7 294.45 L403.85 298.6 Q411.6 302.95 413.25 311.5 414.3 316.95 412.55 322.0 L411.1 322.4 412.6 327.85 407.2 321.9 Q405.6 324.15 403.1 324.75 355.1 334.55 306.1 333.85 L226.25 331.25 215.15 331.4 Q194.65 331.45 175.5 324.55 172.5 323.4 170.1 320.85 163.65 313.9 160.9 304.8 158.0 295.15 158.15 285.0 158.25 276.05 160.9 267.6 L150.35 252.2 Q133.0 274.4 114.1 295.35 L114.05 303.95 115.25 303.95 113.9 306.05 Q105.0 312.85 93.75 312.7 73.75 312.45 63.55 295.0 57.6 284.8 55.8 273.0 50.9 240.4 44.2 208.25 43.35 204.2 41.15 200.65 35.0 190.8 25.8 183.55 16.0 175.9 6.65 167.4 3.85 164.8 3.7 160.85 L3.8 157.0 Q0.2 155.35 1.2 151.75 2.0 148.9 0.0 146.45 0.75 142.05 3.6 138.7 5.1 137.0 6.85 135.6 L7.0 129.95 Q9.2 127.7 11.9 128.9 13.5 129.6 14.0 131.2 17.45 130.45 17.95 133.7 18.15 135.0 17.95 136.35 17.7 138.15 16.6 139.6 24.05 138.0 27.35 143.25 27.95 144.15 28.1 145.35 L31.6 145.6 Q33.65 138.35 40.1 141.95 45.5 144.9 50.65 148.3 62.0 155.75 63.45 169.5 63.7 172.05 64.6 174.65 70.0 189.85 76.0 204.75 80.9 216.95 86.5 228.9 L92.6 194.45 Q83.4 182.75 85.5 168.05 88.2 148.95 92.6 130.35 96.1 115.5 111.7 116.35 L111.65 115.6 112.25 115.75 112.8 115.2 113.2 115.95 Q114.35 114.35 113.6 112.35 112.5 109.55 110.4 107.25 102.85 106.1 96.0 108.95 L98.6 111.0 Q88.7 114.65 77.6 112.15 54.35 107.05 37.15 91.1 28.25 82.8 28.4 70.8 28.45 68.7 27.1 67.1 L25.25 64.95 Q31.4 49.35 39.7 34.8 41.6 31.45 42.75 27.65 43.9 23.9 43.45 20.1 L45.0 19.8 Q45.05 21.65 45.4 23.7 45.6 24.85 46.5 25.75 L46.95 26.25 Q48.65 22.8 48.4 19.05 L48.15 16.45 49.0 16.3 52.4 22.8 55.9 11.5 57.0 11.3 58.5 19.55 Q64.15 11.35 62.75 1.4 L62.5 0.05 63.95 0.25 64.9 1.5 68.05 19.6 Q86.6 19.85 104.55 25.1 106.0 27.25 108.4 27.8 L110.4 27.55 Q111.7 26.85 114.45 27.6 116.9 26.45 120.15 27.9 123.35 29.35 125.2 29.25 126.25 29.6 126.9 30.7 127.8 32.3 127.95 34.15 138.55 40.0 149.5 44.5 155.5 46.9 156.55 53.4 L159.85 56.05 Q174.3 56.0 186.7 64.35 196.35 70.85 199.45 81.85 200.5 85.7 202.85 89.25 208.05 97.15 214.15 104.45 221.1 112.7 232.15 114.15 240.15 114.9 248.1 114.05 L300.4 110.8 Q307.3 110.25 313.9 110.45 317.65 110.8 320.8 113.0 L324.6 115.95 329.25 120.55 M338.4 271.8 L333.4 280.55 Q339.85 277.8 346.65 278.05 357.2 278.85 365.15 285.85 L366.75 287.4 372.15 276.25 371.55 276.2 371.35 275.65 Q357.0 268.25 341.55 270.35 L338.4 271.8 M371.85 282.9 Q388.55 285.45 401.3 296.55 399.9 280.25 385.05 274.3 381.5 272.85 377.6 273.55 L374.0 275.9 371.85 282.9 M94.25 130.4 Q92.95 138.9 91.15 147.5 89.2 156.75 87.9 165.85 86.3 176.8 90.65 186.75 91.8 189.35 93.2 191.5 L93.4 190.45 95.05 192.8 94.8 194.15 99.55 202.1 Q93.35 191.1 92.15 178.75 91.75 174.55 92.65 170.3 96.6 152.1 98.9 133.5 99.25 130.8 100.55 128.4 102.2 125.5 105.45 124.1 116.55 119.4 128.7 120.8 118.2 117.3 107.75 118.2 96.1 118.5 94.25 130.4 M5.0 159.45 Q6.05 164.8 10.45 168.3 L23.4 178.65 Q33.1 186.2 40.6 196.25 L41.25 196.15 Q42.2 197.6 42.75 199.35 44.75 205.5 46.15 211.7 49.65 227.05 51.7 241.55 54.3 259.85 58.25 278.0 63.3 301.5 84.65 310.6 80.1 308.2 76.4 304.5 68.75 296.7 64.45 286.7 59.9 276.2 58.65 264.6 L56.95 246.2 Q56.1 235.8 54.6 225.55 53.05 215.25 49.85 205.3 46.2 194.1 37.15 186.65 L22.0 174.35 Q12.75 166.9 5.55 158.35 L5.0 159.45 M46.7 37.0 L48.65 32.5 Q39.05 38.75 34.95 49.5 36.65 47.4 39.1 45.85 40.5 45.05 41.9 44.8 34.2 51.6 31.35 61.4 30.25 65.2 30.1 69.3 L31.75 65.7 32.7 65.35 Q29.7 72.15 31.25 79.6 L31.7 81.6 32.7 81.65 Q37.95 93.25 58.05 103.45 78.1 113.65 94.8 110.8 L63.95 104.85 57.15 96.45 56.15 99.1 45.7 89.3 42.75 90.45 Q40.35 80.85 41.15 70.95 L35.8 75.05 39.65 56.35 35.15 59.1 34.2 59.05 Q39.35 46.7 49.45 37.8 L49.1 36.45 46.7 37.0 M49.7 23.2 L49.65 23.05 49.5 23.05 49.5 23.25 49.7 23.2 M224.85 113.5 L227.6 117.1 232.05 124.6 Q245.3 123.3 258.05 118.85 262.0 117.45 266.05 117.2 L296.2 113.65 Q303.3 112.5 310.3 113.45 L316.35 113.3 Q309.85 111.1 302.9 111.95 L281.75 113.45 261.0 114.95 247.3 116.2 Q235.8 116.2 224.85 113.5 M208.05 142.9 L207.15 139.15 Q203.6 129.3 201.0 119.05 L198.7 109.35 197.3 126.7 170.35 123.3 Q180.6 126.3 189.65 131.75 198.9 137.2 208.05 142.9 M162.35 57.75 Q171.75 62.8 181.1 68.2 189.5 73.1 195.7 80.65 195.15 77.4 193.45 74.45 189.2 66.85 181.25 63.2 L175.85 60.55 Q169.5 57.3 162.35 57.75" fill="url(#gradient0)" fill-rule="evenodd" stroke="none"/>
    </g>
    <linearGradient gradientTransform="matrix(0.0, 0.1649, -0.1894, 0.0, 414.85, 179.2)" gradientUnits="userSpaceOnUse" id="gradient0" spreadMethod="pad" x1="-819.2" x2="819.2">
      <stop offset="0.0" stop-color="#333333"/>
      <stop offset="1.0" stop-color="#000000"/>
    </linearGradient>
    <g id="sprite1" transform="matrix(1.0, 0.0, 0.0, 1.0, 62.65, 21.75)">
      <use ffdec:characterId="3585" height="103.0" transform="matrix(1.0, 0.0, 0.0, 1.0, -62.65, -21.75)" width="276.8" xlink:href="#shape3"/>
    </g>
    <g id="shape3" transform="matrix(1.0, 0.0, 0.0, 1.0, 62.65, 21.75)">
      <path d="M7.7 -5.95 L82.35 2.2 77.3 -7.45 13.05 -14.35 7.7 -5.95 M82.15 -13.75 L89.2 3.05 90.8 3.1 108.4 -5.2 136.2 1.65 147.5 2.8 143.75 2.55 147.45 3.15 147.65 3.0 153.2 3.6 153.25 3.3 169.95 4.9 169.45 6.2 177.6 6.7 177.35 5.65 189.85 6.85 197.85 -5.35 202.05 -4.9 200.5 7.9 204.7 8.35 199.45 25.7 196.0 25.55 196.4 24.05 196.45 23.7 189.05 23.0 189.3 24.9 151.45 21.0 149.3 39.35 124.25 36.2 122.65 49.25 214.15 59.25 191.55 75.05 141.5 75.55 140.05 70.35 132.2 69.35 129.4 74.05 119.6 72.95 118.6 81.25 104.4 76.5 95.3 57.9 72.1 55.15 62.35 63.3 51.55 59.65 42.3 28.65 42.5 26.1 6.0 21.55 -2.3 74.6 -11.25 74.65 -10.8 23.05 -10.35 22.65 -62.65 28.65 -52.1 -6.9 -30.3 -14.15 -11.7 -7.95 -0.7 -6.85 8.5 -21.75 82.15 -13.75" fill="#262626" fill-rule="evenodd" stroke="none"/>
    </g>
    <g id="morphshape0" transform="matrix(1.0, 0.0, 0.0, 1.0, 891.25, 228.05)">
      <path d="M-790.6 -185.45 L-790.0 -184.2 Q-788.75 -182.45 -786.85 -183.25 -785.1 -183.75 -785.1 -185.55 -785.15 -187.75 -787.35 -188.35 -787.45 -188.55 -789.1 -188.0 -789.8 -187.65 -790.55 -186.3 L-790.6 -185.55 M-793.95 -200.25 L-793.35 -199.0 Q-792.15 -197.25 -790.2 -198.05 -788.45 -198.55 -788.45 -200.35 -788.5 -202.55 -790.65 -203.15 -790.75 -203.3 -792.45 -202.8 -793.15 -202.45 -793.9 -201.05 L-793.95 -200.35 M-805.25 -167.15 L-801.65 -163.95 -804.65 -167.5 -805.2 -167.15 M-807.0 -186.25 Q-807.2 -184.95 -806.55 -183.55 L-804.8 -180.4 Q-803.8 -178.85 -802.55 -179.85 L-802.4 -180.45 Q-801.6 -181.95 -802.8 -182.85 -804.0 -183.7 -805.9 -186.45 -806.9 -186.65 -807.0 -186.15 M-819.85 -192.05 Q-819.4 -189.9 -818.3 -187.8 -816.75 -184.95 -813.8 -183.95 -812.25 -183.25 -810.8 -183.95 -809.7 -185.1 -810.05 -186.6 -810.35 -188.1 -810.75 -189.6 L-811.45 -191.9 -812.15 -193.45 -813.15 -194.2 -814.4 -194.7 -816.3 -195.05 Q-816.85 -195.0 -818.35 -194.15 L-819.75 -192.7 -819.9 -191.95 M-823.8 -209.3 L-823.6 -208.55 -823.1 -207.75 Q-822.25 -205.4 -820.1 -206.6 -818.45 -207.15 -818.85 -208.8 -819.4 -210.7 -821.5 -211.15 -821.7 -211.3 -821.95 -211.3 -822.45 -211.15 -823.75 -209.95 L-823.8 -209.25 M-842.4 -206.6 Q-835.8 -195.8 -823.9 -185.55 L-822.55 -184.35 -821.95 -183.85 Q-814.95 -177.75 -808.3 -171.2 L-808.7 -170.7 -808.85 -170.45 -813.8 -175.05 Q-815.1 -175.05 -814.05 -174.05 L-809.15 -169.5 -809.15 -169.4 -809.2 -168.7 Q-808.55 -166.45 -806.45 -166.75 -805.0 -165.05 -803.95 -163.05 -802.95 -161.15 -801.35 -159.7 -802.0 -158.95 -802.0 -157.8 L-801.95 -157.1 Q-804.65 -158.85 -807.05 -161.1 -810.4 -164.2 -814.2 -166.7 L-814.8 -166.7 Q-813.4 -162.65 -808.75 -159.15 L-800.9 -153.05 Q-797.8 -150.55 -794.25 -149.7 L-794.6 -150.5 -794.55 -150.5 Q-793.8 -150.55 -793.05 -150.9 L-792.4 -151.15 -792.15 -150.95 Q-790.8 -149.75 -789.3 -148.85 L-788.85 -147.45 Q-787.6 -146.85 -786.3 -146.75 -785.65 -146.7 -785.3 -147.05 -783.1 -146.55 -782.05 -148.55 L-780.75 -148.4 Q-780.0 -148.55 -779.3 -148.75 -779.05 -149.1 -778.95 -149.5 -778.45 -151.3 -778.95 -152.95 -778.05 -153.5 -777.5 -154.9 L-777.6 -155.55 Q-778.35 -157.05 -779.8 -157.7 -781.1 -158.3 -782.05 -159.1 L-782.4 -159.35 -783.8 -164.15 Q-782.25 -161.4 -780.5 -159.05 -783.2 -166.25 -786.35 -173.1 L-788.65 -178.0 -794.85 -194.25 Q-798.35 -203.65 -803.95 -211.85 -803.9 -204.35 -799.65 -195.05 -796.8 -188.95 -794.55 -182.7 L-795.0 -182.95 Q-798.45 -182.45 -795.85 -179.25 -793.5 -176.4 -792.9 -178.05 L-791.95 -175.05 Q-789.35 -166.65 -785.55 -161.9 -786.8 -162.65 -788.05 -163.3 L-788.1 -163.15 -789.4 -162.6 -789.6 -162.45 -789.95 -162.6 -791.9 -162.45 Q-792.65 -162.35 -793.25 -161.9 -793.7 -161.35 -794.05 -160.75 L-794.25 -160.0 Q-794.9 -160.6 -795.65 -160.85 L-794.85 -161.1 Q-793.35 -161.6 -793.05 -163.25 -792.85 -164.35 -792.75 -165.5 -791.45 -167.25 -792.6 -169.25 L-794.7 -172.95 Q-795.85 -175.1 -798.2 -174.9 L-798.8 -174.3 Q-799.45 -172.35 -798.35 -170.55 L-798.1 -170.1 Q-798.95 -169.45 -799.8 -168.8 -800.6 -167.5 -801.35 -166.05 L-803.85 -168.95 Q-803.8 -169.6 -803.8 -170.2 -803.9 -172.4 -807.05 -172.9 -812.85 -180.4 -819.5 -186.9 -819.65 -188.05 -821.4 -188.7 L-823.95 -191.05 Q-833.15 -199.25 -842.3 -206.7 L-842.4 -206.7 M-842.4 -211.9 Q-841.8 -210.35 -841.0 -211.85 -840.35 -212.75 -841.15 -213.85 -841.75 -213.85 -842.15 -213.6 -842.75 -212.85 -842.4 -211.85 M-785.25 -176.15 Q-787.15 -174.4 -782.35 -174.7 -782.05 -176.85 -784.45 -176.55 L-785.25 -176.15" fill="#313131" fill-rule="evenodd" stroke="none"/>
      <path d="M-842.4 -211.85 Q-842.75 -212.85 -842.15 -213.6 -841.75 -213.85 -841.15 -213.85 -840.35 -212.75 -841.0 -211.85 -841.8 -210.35 -842.4 -211.9 M-842.4 -206.7 L-842.3 -206.7 Q-833.15 -199.25 -823.95 -191.05 L-821.4 -188.7 Q-819.65 -188.05 -819.5 -186.9 -812.85 -180.4 -807.05 -172.9 -803.9 -172.4 -803.8 -170.2 -803.8 -169.6 -803.85 -168.95 L-801.35 -166.05 Q-800.6 -167.5 -799.8 -168.8 -798.95 -169.45 -798.1 -170.1 L-798.35 -170.55 Q-799.45 -172.35 -798.8 -174.3 L-798.2 -174.9 Q-795.85 -175.1 -794.7 -172.95 L-792.6 -169.25 Q-791.45 -167.25 -792.75 -165.5 -792.85 -164.35 -793.05 -163.25 -793.35 -161.6 -794.85 -161.1 L-795.65 -160.85 Q-794.9 -160.6 -794.25 -160.0 L-794.05 -160.75 Q-793.7 -161.35 -793.25 -161.9 -792.65 -162.35 -791.9 -162.45 L-789.95 -162.6 -789.6 -162.45 -789.4 -162.6 -788.1 -163.15 -788.05 -163.3 Q-786.8 -162.65 -785.55 -161.9 -789.35 -166.65 -791.95 -175.05 L-792.9 -178.05 Q-793.5 -176.4 -795.85 -179.25 -798.45 -182.45 -795.0 -182.95 L-794.55 -182.7 Q-796.8 -188.95 -799.65 -195.05 -803.9 -204.35 -803.95 -211.85 -798.35 -203.65 -794.85 -194.25 L-788.65 -178.0 -786.35 -173.1 Q-783.2 -166.25 -780.5 -159.05 -782.25 -161.4 -783.8 -164.15 L-782.4 -159.35 -782.05 -159.1 Q-781.1 -158.3 -779.8 -157.7 -778.35 -157.05 -777.6 -155.55 L-777.5 -154.9 Q-778.05 -153.5 -778.95 -152.95 -778.45 -151.3 -778.95 -149.5 -779.05 -149.1 -779.3 -148.75 -780.0 -148.55 -780.75 -148.4 L-782.05 -148.55 Q-783.1 -146.55 -785.3 -147.05 -785.65 -146.7 -786.3 -146.75 -787.6 -146.85 -788.85 -147.45 L-789.3 -148.85 Q-790.8 -149.75 -792.15 -150.95 L-792.4 -151.15 -793.05 -150.9 Q-793.8 -150.55 -794.55 -150.5 L-794.6 -150.5 -794.25 -149.7 Q-797.8 -150.55 -800.9 -153.05 L-808.75 -159.15 Q-813.4 -162.65 -814.8 -166.7 L-814.2 -166.7 Q-810.4 -164.2 -807.05 -161.1 -804.65 -158.85 -801.95 -157.1 L-802.0 -157.8 Q-802.0 -158.95 -801.35 -159.7 -802.95 -161.15 -803.95 -163.05 -805.0 -165.05 -806.45 -166.75 -808.55 -166.45 -809.2 -168.7 L-809.15 -169.4 -809.15 -169.5 -814.05 -174.05 Q-815.1 -175.05 -813.8 -175.05 L-808.85 -170.45 -808.7 -170.7 -808.3 -171.2 Q-814.95 -177.75 -821.95 -183.85 L-822.55 -184.35 -823.9 -185.55 Q-835.8 -195.8 -842.4 -206.6 M-823.8 -209.25 L-823.75 -209.95 Q-822.45 -211.15 -821.95 -211.3 -821.7 -211.3 -821.5 -211.15 -819.4 -210.7 -818.85 -208.8 -818.45 -207.15 -820.1 -206.6 -822.25 -205.4 -823.1 -207.75 L-823.6 -208.55 -823.8 -209.3 M-819.9 -191.95 L-819.75 -192.7 -818.35 -194.15 Q-816.85 -195.0 -816.3 -195.05 L-814.4 -194.7 -813.15 -194.2 -812.15 -193.45 -811.45 -191.9 -810.75 -189.6 Q-810.35 -188.1 -810.05 -186.6 -809.7 -185.1 -810.8 -183.95 -812.25 -183.25 -813.8 -183.95 -816.75 -184.95 -818.3 -187.8 -819.4 -189.9 -819.85 -192.05 M-807.0 -186.15 Q-806.9 -186.65 -805.9 -186.45 -804.0 -183.7 -802.8 -182.85 -801.6 -181.95 -802.4 -180.45 L-802.55 -179.85 Q-803.8 -178.85 -804.8 -180.4 L-806.55 -183.55 Q-807.2 -184.95 -807.0 -186.25 M-805.2 -167.15 L-804.65 -167.5 -801.65 -163.95 -805.25 -167.15 M-793.95 -200.35 L-793.9 -201.05 Q-793.15 -202.45 -792.45 -202.8 -790.75 -203.3 -790.65 -203.15 -788.5 -202.55 -788.45 -200.35 -788.45 -198.55 -790.2 -198.05 -792.15 -197.25 -793.35 -199.0 L-793.95 -200.25 M-790.6 -185.55 L-790.55 -186.3 Q-789.8 -187.65 -789.1 -188.0 -787.45 -188.55 -787.35 -188.35 -785.15 -187.75 -785.1 -185.55 -785.1 -183.75 -786.85 -183.25 -788.75 -182.45 -790.0 -184.2 L-790.6 -185.45 M-786.05 -173.6 L-785.3 -173.95 Q-783.75 -170.45 -785.4 -171.05 -787.75 -172.0 -786.1 -173.6 L-785.35 -173.95 Q-783.8 -170.45 -785.45 -171.05 -787.8 -172.0 -786.15 -173.6 M-785.25 -176.15 L-784.45 -176.55 Q-782.05 -176.85 -782.35 -174.7 -787.15 -174.4 -785.25 -176.15 L-784.45 -176.55 Q-782.05 -176.85 -782.35 -174.7 -787.15 -174.4 -785.25 -176.15 Z" fill="none" stroke="#000000" stroke-linecap="round" stroke-linejoin="round" stroke-opacity="0.0" stroke-width="0.0"/>
    </g>
    <g id="sprite2" transform="matrix(1.0, 0.0, 0.0, 1.0, 265.1, 150.0)">
      <use ffdec:characterId="3477" height="300.0" transform="matrix(1.0, 0.0, 0.0, 1.0, -265.1, -150.0)" width="533.0" xlink:href="#shape5"/>
    </g>
    <g id="shape5" transform="matrix(1.0, 0.0, 0.0, 1.0, 265.1, 150.0)">
      <path d="M267.9 -150.0 L267.9 150.0 -265.1 150.0 -265.1 -150.0 267.9 -150.0 Z" fill="none" stroke="#ff0000" stroke-linecap="round" stroke-linejoin="round" stroke-width="0.05"/>
      <path d="M1.4 -16.05 L1.45 -16.05 Q9.35 -16.05 14.95 -11.35 20.55 -6.65 20.55 0.0 L39.5 0.0 M20.55 0.0 Q20.55 6.65 14.95 11.35 9.35 16.05 1.45 16.05 L1.4 16.05 1.4 21.45 M-36.65 0.0 L-17.55 0.0 -17.55 -0.05 Q-17.55 -6.65 -11.95 -11.35 -6.4 -16.05 1.4 -16.05 M1.4 16.05 Q-6.4 16.05 -11.95 11.35 -17.55 6.65 -17.55 0.0" fill="none" stroke="#ff0000" stroke-linecap="round" stroke-linejoin="round" stroke-opacity="0.2509804" stroke-width="0.05"/>
      <path d="M1.4 -16.05 L1.4 -21.4" fill="none" stroke="#ff0000" stroke-linecap="round" stroke-linejoin="round" stroke-opacity="0.2509804" stroke-width="1.0"/>
      <path d="M181.15 141.4 L181.15 123.6 191.05 123.6 191.05 141.4 181.15 141.4" fill="#ffffff" fill-rule="evenodd" stroke="none"/>
      <path d="M250.55 123.6 L260.45 123.6 260.45 141.4 260.35 141.4 250.55 141.4 250.55 123.6" fill="#000000" fill-rule="evenodd" stroke="none"/>
      <path d="M230.7 123.6 L240.6 123.6 240.6 141.4 230.7 141.4 230.7 123.6" fill="#ff0000" fill-rule="evenodd" stroke="none"/>
      <path d="M191.05 123.6 L201.0 123.6 201.0 141.4 191.05 141.4 191.05 123.6" fill="#ffff00" fill-rule="evenodd" stroke="none"/>
      <path d="M201.0 123.6 L210.9 123.6 210.9 141.4 201.0 141.4 201.0 123.6" fill="#00ffff" fill-rule="evenodd" stroke="none"/>
      <path d="M210.9 123.6 L220.8 123.6 220.8 141.4 210.9 141.4 210.9 123.6" fill="#00ff00" fill-rule="evenodd" stroke="none"/>
      <path d="M220.8 123.6 L230.7 123.6 230.7 141.4 220.8 141.4 220.8 123.6" fill="#ff00ff" fill-rule="evenodd" stroke="none"/>
      <path d="M240.6 123.6 L250.55 123.6 250.55 141.4 240.6 141.4 240.6 123.6" fill="#0000ff" fill-rule="evenodd" stroke="none"/>
      <path d="M260.35 141.4 L260.35 145.4 181.1 145.4 181.1 141.4 181.15 141.4 191.05 141.4 201.0 141.4 210.9 141.4 220.8 141.4 230.7 141.4 240.6 141.4 250.55 141.4 260.35 141.4" fill="url(#gradient1)" fill-rule="evenodd" stroke="none"/>
    </g>
    <linearGradient gradientTransform="matrix(0.0484, 0.0, 0.0, 0.0024, 220.7, 143.35)" gradientUnits="userSpaceOnUse" id="gradient1" spreadMethod="pad" x1="-819.2" x2="819.2">
      <stop offset="0.0" stop-color="#ffffff"/>
      <stop offset="1.0" stop-color="#000000"/>
    </linearGradient>
  </defs>
</svg>
