<?xml version="1.0" encoding="UTF-8" standalone="no"?>
<svg xmlns:ffdec="https://www.free-decompiler.com/flash" xmlns:xlink="http://www.w3.org/1999/xlink" ffdec:objectType="frame" height="4004.1px" width="7682.6px" xmlns="http://www.w3.org/2000/svg">
  <g transform="matrix(2.0, 0.0, 0.0, 2.0, 4622.9, 1925.9)">
    <use ffdec:characterId="333" height="372.95" transform="matrix(2.0745, 0.0, 0.0, 1.0111, -262.0106, -216.0102)" width="608.0" xlink:href="#shape0"/>
    <use ffdec:characterId="2870" height="300.0" transform="matrix(1.2648, 0.0, 0.0, 1.177, -995.25, -219.95)" width="533.0" xlink:href="#shape1"/>
    <use ffdec:characterId="3588" height="349.8" transform="matrix(0.9999, -0.0092, 0.0092, 0.9999, -871.047, -193.0981)" width="413.65" xlink:href="#sprite0"/>
    <use ffdec:characterId="3586" height="103.0" transform="matrix(-0.4931, -0.8678, 0.8678, -0.4931, -873.5836, -0.6113)" width="276.8" xlink:href="#sprite1"/>
    <use ffdec:characterId="3589" height="84.0" transform="matrix(1.0, 0.0, 0.0, 1.0, -891.25, -228.05)" width="115.6" xlink:href="#morphshape0"/>
    <clipPath id="clipPath0" transform="matrix(0.241, 0.0, 0.0, 0.2379, -667.8, -144.65)">
      <path d="M-321.1 133.15 L-995.25 133.15 -995.25 -219.95 -321.1 -219.95 -321.1 133.15" fill="#ff0000" fill-rule="evenodd" stroke="none"/>
    </clipPath>
    <use ffdec:characterId="3478" height="300.0" transform="matrix(1.032, 0.0, 0.0, 1.032, -975.2947, -208.8019)" width="533.0" xlink:href="#sprite2"/>
  </g>
  <defs>
    <g id="shape0" transform="matrix(1.0, 0.0, 0.0, 1.0, -26.7, -26.05)">
      <path d="M634.7 26.05 L634.7 399.0 26.7 399.0 26.7 26.05 634.7 26.05" fill="#000000" fill-rule="evenodd" stroke="none"/>
    </g>
    <g id="shape1" transform="matrix(1.0, 0.0, 0.0, 1.0, 0.0, 0.0)">
      <path d="M533.0 300.0 L0.0 300.0 0.0 0.0 533.0 0.0 533.0 300.0" fill="#ffffff" fill-rule="evenodd" stroke="none"/>
    </g>
    <g id="sprite0" transform="matrix(1.0, 0.0, 0.0, 1.0, 0.0, 15.9)">
      <use ffdec:characterId="3587" height="349.8" transform="matrix(1.0, 0.0, 0.0, 1.0, 0.0, -15.9)" width="413.65" xlink:href="#shape2"/>
    </g>
    <g id="shape2" transform="matrix(1.0, 0.0, 0.0, 1.0, 0.0, 15.9)">
      <path d="M105.35 -11.25 L90.5 30.05 90.35 30.9 Q74.55 81.8 69.15 137.1 L63.4 118.15 Q68.85 71.3 80.1 27.95 L84.25 17.6 Q90.35 1.6 93.3 -14.7 101.8 -18.3 105.35 -11.25" fill="#2d2d2d" fill-rule="evenodd" stroke="none"/>
      <path d="M329.25 120.55 L331.3 123.0 Q335.6 129.05 332.75 136.0 331.35 139.35 330.55 142.95 L329.95 143.2 Q330.25 144.2 330.0 145.05 329.75 146.15 328.95 147.0 L327.7 148.1 327.3 148.25 324.85 146.2 320.9 147.6 Q319.45 143.5 320.9 139.7 L313.05 135.4 312.95 134.7 Q300.45 133.0 289.05 139.75 275.5 147.7 259.45 148.35 L251.35 149.6 247.4 150.35 Q264.3 184.75 282.8 218.25 286.9 225.7 289.65 233.8 295.8 252.15 296.65 271.5 L301.7 271.45 301.65 272.55 Q318.3 274.8 334.9 271.4 L337.2 270.5 Q349.7 264.8 362.95 269.3 366.45 270.55 370.2 271.1 L383.7 271.55 Q388.8 272.25 393.0 275.4 398.45 279.4 401.35 285.3 403.5 289.7 403.7 294.45 L403.85 298.6 Q411.6 302.95 413.25 311.5 414.3 316.95 412.55 322.0 L411.1 322.4 412.6 327.85 407.2 321.9 Q405.6 324.15 403.1 324.75 355.1 334.55 306.1 333.85 L226.25 331.25 215.15 331.4 Q194.65 331.45 175.5 324.55 172.5 323.4 170.1 320.85 163.65 313.9 160.9 304.8 158.0 295.15 158.15 285.0 158.25 276.05 160.9 267.6 L150.35 252.2 Q133.0 274.4 114.1 295.35 L114.05 303.95 115.25 303.95 113.9 306.05 Q105.0 312.85 93.75 312.7 73.75 312.45 63.55 295.0 57.6 284.8 55.8 273.0 50.9 240.4 44.2 208.25 43.35 204.2 41.15 200.65 35.0 190.8 25.8 183.55 16.0 175.9 6.65 167.4 3.85 164.8 3.7 160.85 L3.8 157.0 Q0.2 155.35 1.2 151.75 2.0 148.9 0.0 146.45 0.75 142.05 3.6 138.7 5.1 137.0 6.85 135.6 L7.0 129.95 Q9.2 127.7 11.9 128.9 13.5 129.6 14.0 131.2 17.45 130.45 17.95 133.7 18.15 135.0 17.95 136.35 17.7 138.15 16.6 139.6 24.05 138.0 27.35 143.25 27.95 144.15 28.1 145.35 L31.6 145.6 Q33.65 138.35 40.1 141.95 45.5 144.9 50.65 148.3 62.0 155.75 63.45 169.5 63.7 172.05 64.6 174.65 70.0 189.85 76.0 204.75 80.9 216.95 86.5 228.9 L92.6 194.45 Q83.4 182.75 85.5 168.05 88.2 148.95 92.6 130.35 96.1 115.5 111.7 116.35 L111.65 115.6 112.25 115.75 112.8 115.2 113.2 115.95 Q114.35 114.35 113.6 112.35 112.5 109.55 110.4 107.25 102.85 106.1 96.0 108.95 L98.6 111.0 Q88.7 114.65 77.6 112.15 54.35 107.05 37.15 91.1 28.25 82.8 28.4 70.8 28.45 68.7 27.1 67.1 L25.25 64.95 Q31.4 49.35 39.7 34.8 41.6 31.45 42.75 27.65 43.9 23.9 43.45 20.1 L45.0 19.8 Q45.05 21.65 45.4 23.7 45.6 24.85 46.5 25.75 L46.95 26.25 Q48.65 22.8 48.4 19.05 L48.15 16.45 49.0 16.3 52.4 22.8 55.9 11.5 57.0 11.3 58.5 19.55 Q64.15 11.35 62.75 1.4 L62.5 0.05 63.95 0.25 64.9 1.5 68.05 19.6 Q86.6 19.85 104.55 25.1 106.0 27.25 108.4 27.8 L110.4 27.55 Q111.7 26.85 114.45 27.6 116.9 26.45 120.15 27.9 123.35 29.35 125.2 29.25 126.25 29.6 126.9 30.7 127.8 32.3 127.95 34.15 138.55 40.0 149.5 44.5 155.5 46.9 156.55 53.4 L159.85 56.05 Q174.3 56.0 186.7 64.35 196.35 70.85 199.45 81.85 200.5 85.7 202.85 89.25 208.05 97.15 214.15 104.45 221.1 112.7 232.15 114.15 240.15 114.9 248.1 114.05 L300.4 110.8 Q307.3 110.25 313.9 110.45 317.65 110.8 320.8 113.0 L324.6 115.95 329.25 120.55 M338.4 271.8 L333.4 280.55 Q339.85 277.8 346.65 278.05 357.2 278.85 365.15 285.85 L366.75 287.4 372.15 276.25 371.55 276.2 371.35 275.65 Q357.0 268.25 341.55 270.35 L338.4 271.8 M371.85 282.9 Q388.55 285.45 401.3 296.55 399.9 280.25 385.05 274.3 381.5 272.85 377.6 273.55 L374.0 275.9 371.85 282.9 M94.25 130.4 Q92.95 138.9 91.15 147.5 89.2 156.75 87.9 165.85 86.3 176.8 90.65 186.75 91.8 189.35 93.2 191.5 L93.4 190.45 95.05 192.8 94.8 194.15 99.55 202.1 Q93.35 191.1 92.15 178.75 91.75 174.55 92.65 170.3 96.6 152.1 98.9 133.5 99.25 130.8 100.55 128.4 102.2 125.5 105.45 124.1 116.55 119.4 128.7 120.8 118.2 117.3 107.75 118.2 96.1 118.5 94.25 130.4 M5.0 159.45 Q6.05 164.8 10.45 168.3 L23.4 178.65 Q33.1 186.2 40.6 196.25 L41.25 196.15 Q42.2 197.6 42.75 199.35 44.75 205.5 46.15 211.7 49.65 227.05 51.7 241.55 54.3 259.85 58.25 278.0 63.3 301.5 84.65 310.6 80.1 308.2 76.4 304.5 68.75 296.7 64.45 286.7 59.9 276.2 58.65 264.6 L56.95 246.2 Q56.1 235.8 54.6 225.55 53.05 215.25 49.85 205.3 46.2 194.1 37.15 186.65 L22.0 174.35 Q12.75 166.9 5.55 158.35 L5.0 159.45 M46.7 37.0 L48.65 32.5 Q39.05 38.75 34.95 49.5 36.65 47.4 39.1 45.85 40.5 45.05 41.9 44.8 34.2 51.6 31.35 61.4 30.25 65.2 30.1 69.3 L31.75 65.7 32.7 65.35 Q29.7 72.15 31.25 79.6 L31.7 81.6 32.7 81.65 Q37.95 93.25 58.05 103.45 78.1 113.65 94.8 110.8 L63.95 104.85 57.15 96.45 56.15 99.1 45.7 89.3 42.75 90.45 Q40.35 80.85 41.15 70.95 L35.8 75.05 39.65 56.35 35.15 59.1 34.2 59.05 Q39.35 46.7 49.45 37.8 L49.1 36.45 46.7 37.0 M49.7 23.2 L49.65 23.05 49.5 23.05 49.5 23.25 49.7 23.2 M224.85 113.5 L227.6 117.1 232.05 124.6 Q245.3 123.3 258.05 118.85 262.0 117.45 266.05 117.2 L296.2 113.65 Q303.3 112.5 310.3 113.45 L316.35 113.3 Q309.85 111.1 302.9 111.95 L281.75 113.45 261.0 114.95 247.3 116.2 Q235.8 116.2 224.85 113.5 M208.05 142.9 L207.15 139.15 Q203.6 129.3 201.0 119.05 L198.7 109.35 197.3 126.7 170.35 123.3 Q180.6 126.3 189.65 131.75 198.9 137.2 208.05 142.9 M162.35 57.75 Q171.75 62.8 181.1 68.2 189.5 73.1 195.7 80.65 195.15 77.4 193.45 74.45 189.2 66.85 181.25 63.2 L175.85 60.55 Q169.5 57.3 162.35 57.75" fill="url(#gradient0)" fill-rule="evenodd" stroke="none"/>
    </g>
    <linearGradient gradientTransform="matrix(0.0, 0.1649, -0.1894, 0.0, 414.85, 179.2)" gradientUnits="userSpaceOnUse" id="gradient0" spreadMethod="pad" x1="-819.2" x2="819.2">
      <stop offset="0.0" stop-color="#333333"/>
      <stop offset="1.0" stop-color="#000000"/>
    </linearGradient>
    <g id="sprite1" transform="matrix(1.0, 0.0, 0.0, 1.0, 62.65, 21.75)">
      <use ffdec:characterId="3585" height="103.0" transform="matrix(1.0, 0.0, 0.0, 1.0, -62.65, -21.75)" width="276.8" xlink:href="#shape3"/>
    </g>
    <g id="shape3" transform="matrix(1.0, 0.0, 0.0, 1.0, 62.65, 21.75)">
      <path d="M7.7 -5.95 L82.35 2.2 77.3 -7.45 13.05 -14.35 7.7 -5.95 M82.15 -13.75 L89.2 3.05 90.8 3.1 108.4 -5.2 136.2 1.65 147.5 2.8 143.75 2.55 147.45 3.15 147.65 3.0 153.2 3.6 153.25 3.3 169.95 4.9 169.45 6.2 177.6 6.7 177.35 5.65 189.85 6.85 197.85 -5.35 202.05 -4.9 200.5 7.9 204.7 8.35 199.45 25.7 196.0 25.55 196.4 24.05 196.45 23.7 189.05 23.0 189.3 24.9 151.45 21.0 149.3 39.35 124.25 36.2 122.65 49.25 214.15 59.25 191.55 75.05 141.5 75.55 140.05 70.35 132.2 69.35 129.4 74.05 119.6 72.95 118.6 81.25 104.4 76.5 95.3 57.9 72.1 55.15 62.35 63.3 51.55 59.65 42.3 28.65 42.5 26.1 6.0 21.55 -2.3 74.6 -11.25 74.65 -10.8 23.05 -10.35 22.65 -62.65 28.65 -52.1 -6.9 -30.3 -14.15 -11.7 -7.95 -0.7 -6.85 8.5 -21.75 82.15 -13.75" fill="#262626" fill-rule="evenodd" stroke="none"/>
    </g>
    <g id="morphshape0" transform="matrix(1.0, 0.0, 0.0, 1.0, 891.25, 228.05)">
      <path d="M-793.1 -186.25 L-792.55 -185.0 Q-791.35 -183.3 -789.55 -183.95 -787.75 -184.2 -787.55 -185.95 -787.45 -188.05 -789.55 -188.8 -789.7 -189.2 -791.45 -188.7 -792.15 -188.35 -793.0 -186.95 L-793.05 -186.2 M-796.75 -201.3 L-796.2 -200.1 Q-795.1 -198.4 -793.25 -199.05 -791.5 -199.3 -791.3 -201.05 -791.2 -203.15 -793.25 -203.9 -793.4 -204.25 -795.2 -203.8 -795.9 -203.45 -796.75 -202.05 L-796.8 -201.3 M-807.55 -167.35 L-803.85 -164.1 -807.0 -167.7 -807.55 -167.35 M-809.9 -186.6 Q-810.1 -185.3 -809.4 -183.9 L-807.5 -180.65 Q-806.4 -179.1 -805.15 -180.15 L-805.0 -180.8 Q-804.25 -182.35 -805.5 -183.3 -806.75 -184.2 -808.75 -187.05 -809.75 -187.25 -809.8 -186.75 M-823.05 -192.75 Q-822.65 -190.75 -821.65 -188.8 -820.15 -185.95 -817.25 -184.8 -815.55 -183.85 -813.9 -184.45 -812.75 -185.45 -812.95 -186.9 -813.15 -188.45 -813.6 -190.0 L-814.4 -192.4 -815.15 -194.1 -816.2 -194.95 -817.45 -195.45 -819.3 -195.85 Q-819.95 -195.8 -821.5 -195.0 L-822.95 -193.5 -823.1 -192.75 M-827.45 -210.35 L-827.25 -209.6 -826.75 -208.75 Q-825.95 -206.55 -823.95 -207.65 -822.3 -207.9 -822.45 -209.55 -822.8 -211.35 -824.8 -211.95 -825.1 -212.3 -825.6 -212.35 -826.1 -212.2 -827.35 -211.1 L-827.45 -210.4 M-846.55 -208.15 Q-839.55 -197.1 -827.15 -186.65 L-825.75 -185.45 -825.15 -184.9 Q-817.9 -178.65 -810.95 -171.95 L-811.35 -171.4 -811.5 -171.15 -816.65 -175.85 Q-817.95 -175.85 -816.85 -174.8 L-811.75 -170.15 -811.75 -170.05 -811.75 -169.3 Q-811.05 -167.0 -808.9 -167.3 -807.4 -165.55 -806.3 -163.5 -805.2 -161.55 -803.55 -160.1 -804.2 -159.3 -804.2 -158.15 L-804.1 -157.4 Q-806.9 -159.2 -809.4 -161.5 -812.9 -164.65 -816.85 -167.2 L-817.5 -167.2 Q-816.0 -163.05 -811.15 -159.5 L-803.0 -153.25 Q-799.8 -150.7 -796.15 -149.8 L-796.5 -150.65 -796.45 -150.65 Q-795.65 -150.7 -794.9 -151.05 L-794.25 -151.3 -793.95 -151.1 Q-792.55 -149.9 -791.0 -148.95 L-790.5 -147.55 Q-789.2 -146.9 -787.9 -146.8 -787.2 -146.75 -786.85 -147.1 -784.55 -146.55 -783.5 -148.6 L-782.2 -148.45 Q-781.4 -148.55 -780.65 -148.75 -780.4 -149.1 -780.3 -149.5 -779.8 -151.35 -780.35 -153.05 -779.45 -153.6 -778.95 -155.0 L-779.1 -155.7 Q-779.9 -157.2 -781.4 -157.9 -782.7 -158.5 -783.7 -159.3 L-784.1 -159.55 -785.65 -164.45 Q-784.0 -161.65 -782.2 -159.25 -785.1 -166.6 -788.5 -173.6 L-790.95 -178.65 -797.6 -195.25 Q-801.35 -204.85 -807.25 -213.2 -807.05 -205.55 -802.5 -196.1 -799.45 -189.85 -797.0 -183.45 L-797.5 -183.7 Q-801.05 -183.2 -798.3 -179.95 -795.85 -177.0 -795.25 -178.65 L-794.2 -175.55 Q-791.4 -166.95 -787.4 -162.1 -788.7 -162.85 -790.0 -163.5 L-790.05 -163.35 -791.4 -162.75 -791.6 -162.6 -792.0 -162.75 -794.0 -162.6 Q-794.8 -162.5 -795.4 -162.0 -795.9 -161.45 -796.25 -160.85 L-796.4 -160.05 Q-797.05 -160.7 -797.85 -160.95 L-797.0 -161.2 Q-795.45 -161.7 -795.15 -163.4 -794.95 -164.5 -794.9 -165.7 -793.6 -167.5 -794.8 -169.55 L-797.05 -173.3 Q-798.25 -175.5 -800.65 -175.3 L-801.25 -174.65 Q-801.9 -172.65 -800.75 -170.8 L-800.45 -170.35 Q-801.35 -169.7 -802.15 -169.0 -802.9 -167.7 -803.6 -166.15 L-806.2 -169.15 Q-806.15 -169.8 -806.15 -170.45 -806.3 -172.7 -809.5 -173.2 -815.6 -180.85 -822.5 -187.5 -822.65 -188.65 -824.45 -189.35 L-827.15 -191.75 Q-836.7 -200.1 -846.25 -207.7 L-846.35 -207.7 M-846.55 -213.2 Q-846.05 -211.7 -845.25 -212.95 -844.5 -213.6 -845.2 -214.8 -845.7 -214.95 -846.2 -214.85 -846.8 -214.15 -846.5 -213.2 M-787.35 -176.55 Q-789.25 -174.75 -784.35 -175.05 -784.1 -177.25 -786.55 -176.95 L-787.35 -176.55" fill="#313131" fill-rule="evenodd" stroke="none"/>
      <path d="M-846.5 -213.2 Q-846.8 -214.15 -846.2 -214.85 -845.7 -214.95 -845.2 -214.8 -844.5 -213.6 -845.25 -212.95 -846.05 -211.7 -846.55 -213.2 M-846.35 -207.7 L-846.25 -207.7 Q-836.7 -200.1 -827.15 -191.75 L-824.45 -189.35 Q-822.65 -188.65 -822.5 -187.5 -815.6 -180.85 -809.5 -173.2 -806.3 -172.7 -806.15 -170.45 -806.15 -169.8 -806.2 -169.15 L-803.6 -166.15 Q-802.9 -167.7 -802.15 -169.0 -801.35 -169.7 -800.45 -170.35 L-800.75 -170.8 Q-801.9 -172.65 -801.25 -174.65 L-800.65 -175.3 Q-798.25 -175.5 -797.05 -173.3 L-794.8 -169.55 Q-793.6 -167.5 -794.9 -165.7 -794.95 -164.5 -795.15 -163.4 -795.45 -161.7 -797.0 -161.2 L-797.85 -160.95 Q-797.05 -160.7 -796.4 -160.05 L-796.25 -160.85 Q-795.9 -161.45 -795.4 -162.0 -794.8 -162.5 -794.0 -162.6 L-792.0 -162.75 -791.6 -162.6 -791.4 -162.75 -790.05 -163.35 -790.0 -163.5 Q-788.7 -162.85 -787.4 -162.1 -791.4 -166.95 -794.2 -175.55 L-795.25 -178.65 Q-795.85 -177.0 -798.3 -179.95 -801.05 -183.2 -797.5 -183.7 L-797.0 -183.45 Q-799.45 -189.85 -802.5 -196.1 -807.05 -205.55 -807.25 -213.2 -801.35 -204.85 -797.6 -195.25 L-790.95 -178.65 -788.5 -173.6 Q-785.1 -166.6 -782.2 -159.25 -784.0 -161.65 -785.65 -164.45 L-784.1 -159.55 -783.7 -159.3 Q-782.7 -158.5 -781.4 -157.9 -779.9 -157.2 -779.1 -155.7 L-778.95 -155.0 Q-779.45 -153.6 -780.35 -153.05 -779.8 -151.35 -780.3 -149.5 -780.4 -149.1 -780.65 -148.75 -781.4 -148.55 -782.2 -148.45 L-783.5 -148.6 Q-784.55 -146.55 -786.85 -147.1 -787.2 -146.75 -787.9 -146.8 -789.2 -146.9 -790.5 -147.55 L-791.0 -148.95 Q-792.55 -149.9 -793.95 -151.1 L-794.25 -151.3 -794.9 -151.05 Q-795.65 -150.7 -796.45 -150.65 L-796.5 -150.65 -796.15 -149.8 Q-799.8 -150.7 -803.0 -153.25 L-811.15 -159.5 Q-816.0 -163.05 -817.5 -167.2 L-816.85 -167.2 Q-812.9 -164.65 -809.4 -161.5 -806.9 -159.2 -804.1 -157.4 L-804.2 -158.15 Q-804.2 -159.3 -803.55 -160.1 -805.2 -161.55 -806.3 -163.5 -807.4 -165.55 -808.9 -167.3 -811.05 -167.0 -811.75 -169.3 L-811.75 -170.05 -811.75 -170.15 -816.85 -174.8 Q-817.95 -175.85 -816.65 -175.85 L-811.5 -171.15 -811.35 -171.4 -810.95 -171.95 Q-817.9 -178.65 -825.15 -184.9 L-825.75 -185.45 -827.15 -186.65 Q-839.55 -197.1 -846.55 -208.15 M-827.45 -210.4 L-827.35 -211.1 Q-826.1 -212.2 -825.6 -212.35 -825.1 -212.3 -824.8 -211.95 -822.8 -211.35 -822.45 -209.55 -822.3 -207.9 -823.95 -207.65 -825.95 -206.55 -826.75 -208.75 L-827.25 -209.6 -827.45 -210.35 M-823.1 -192.75 L-822.95 -193.5 -821.5 -195.0 Q-819.95 -195.8 -819.3 -195.85 L-817.45 -195.45 -816.2 -194.95 -815.15 -194.1 -814.4 -192.4 -813.6 -190.0 Q-813.15 -188.45 -812.95 -186.9 -812.75 -185.45 -813.9 -184.45 -815.55 -183.85 -817.25 -184.8 -820.15 -185.95 -821.65 -188.8 -822.65 -190.75 -823.05 -192.75 M-809.8 -186.75 Q-809.75 -187.25 -808.75 -187.05 -806.75 -184.2 -805.5 -183.3 -804.25 -182.35 -805.0 -180.8 L-805.15 -180.15 Q-806.4 -179.1 -807.5 -180.65 L-809.4 -183.9 Q-810.1 -185.3 -809.9 -186.6 M-807.55 -167.35 L-807.0 -167.7 -803.85 -164.1 -807.55 -167.35 M-796.8 -201.3 L-796.75 -202.05 Q-795.9 -203.45 -795.2 -203.8 -793.4 -204.25 -793.25 -203.9 -791.2 -203.15 -791.3 -201.05 -791.5 -199.3 -793.25 -199.05 -795.1 -198.4 -796.2 -200.1 L-796.75 -201.3 M-793.05 -186.2 L-793.0 -186.95 Q-792.15 -188.35 -791.45 -188.7 -789.7 -189.2 -789.55 -188.8 -787.45 -188.05 -787.55 -185.95 -787.75 -184.2 -789.55 -183.95 -791.35 -183.3 -792.55 -185.0 L-793.1 -186.25 M-788.85 -171.8 L-788.1 -172.1 Q-786.65 -168.9 -788.15 -169.4 -790.35 -170.3 -788.85 -171.8 L-788.1 -172.1 Q-786.65 -168.9 -788.15 -169.4 -790.35 -170.3 -788.85 -171.8 M-787.35 -176.55 L-786.55 -176.95 Q-784.1 -177.25 -784.35 -175.05 -789.25 -174.75 -787.35 -176.55 L-786.55 -176.95 Q-784.1 -177.25 -784.35 -175.05 -789.25 -174.75 -787.35 -176.55 Z" fill="none" stroke="#000000" stroke-linecap="round" stroke-linejoin="round" stroke-opacity="0.0" stroke-width="0.0"/>
    </g>
    <g id="sprite2" transform="matrix(1.0, 0.0, 0.0, 1.0, 265.1, 150.0)">
      <use ffdec:characterId="3477" height="300.0" transform="matrix(1.0, 0.0, 0.0, 1.0, -265.1, -150.0)" width="533.0" xlink:href="#shape5"/>
    </g>
    <g id="shape5" transform="matrix(1.0, 0.0, 0.0, 1.0, 265.1, 150.0)">
      <path d="M267.9 -150.0 L267.9 150.0 -265.1 150.0 -265.1 -150.0 267.9 -150.0 Z" fill="none" stroke="#ff0000" stroke-linecap="round" stroke-linejoin="round" stroke-width="0.05"/>
      <path d="M1.4 -16.05 L1.45 -16.05 Q9.35 -16.05 14.95 -11.35 20.55 -6.65 20.55 0.0 L39.5 0.0 M20.55 0.0 Q20.55 6.65 14.95 11.35 9.35 16.05 1.45 16.05 L1.4 16.05 1.4 21.45 M-36.65 0.0 L-17.55 0.0 -17.55 -0.05 Q-17.55 -6.65 -11.95 -11.35 -6.4 -16.05 1.4 -16.05 M1.4 16.05 Q-6.4 16.05 -11.95 11.35 -17.55 6.65 -17.55 0.0" fill="none" stroke="#ff0000" stroke-linecap="round" stroke-linejoin="round" stroke-opacity="0.2509804" stroke-width="0.05"/>
      <path d="M1.4 -16.05 L1.4 -21.4" fill="none" stroke="#ff0000" stroke-linecap="round" stroke-linejoin="round" stroke-opacity="0.2509804" stroke-width="1.0"/>
      <path d="M181.15 141.4 L181.15 123.6 191.05 123.6 191.05 141.4 181.15 141.4" fill="#ffffff" fill-rule="evenodd" stroke="none"/>
      <path d="M250.55 123.6 L260.45 123.6 260.45 141.4 260.35 141.4 250.55 141.4 250.55 123.6" fill="#000000" fill-rule="evenodd" stroke="none"/>
      <path d="M230.7 123.6 L240.6 123.6 240.6 141.4 230.7 141.4 230.7 123.6" fill="#ff0000" fill-rule="evenodd" stroke="none"/>
      <path d="M191.05 123.6 L201.0 123.6 201.0 141.4 191.05 141.4 191.05 123.6" fill="#ffff00" fill-rule="evenodd" stroke="none"/>
      <path d="M201.0 123.6 L210.9 123.6 210.9 141.4 201.0 141.4 201.0 123.6" fill="#00ffff" fill-rule="evenodd" stroke="none"/>
      <path d="M210.9 123.6 L220.8 123.6 220.8 141.4 210.9 141.4 210.9 123.6" fill="#00ff00" fill-rule="evenodd" stroke="none"/>
      <path d="M220.8 123.6 L230.7 123.6 230.7 141.4 220.8 141.4 220.8 123.6" fill="#ff00ff" fill-rule="evenodd" stroke="none"/>
      <path d="M240.6 123.6 L250.55 123.6 250.55 141.4 240.6 141.4 240.6 123.6" fill="#0000ff" fill-rule="evenodd" stroke="none"/>
      <path d="M260.35 141.4 L260.35 145.4 181.1 145.4 181.1 141.4 181.15 141.4 191.05 141.4 201.0 141.4 210.9 141.4 220.8 141.4 230.7 141.4 240.6 141.4 250.55 141.4 260.35 141.4" fill="url(#gradient1)" fill-rule="evenodd" stroke="none"/>
    </g>
    <linearGradient gradientTransform="matrix(0.0484, 0.0, 0.0, 0.0024, 220.7, 143.35)" gradientUnits="userSpaceOnUse" id="gradient1" spreadMethod="pad" x1="-819.2" x2="819.2">
      <stop offset="0.0" stop-color="#ffffff"/>
      <stop offset="1.0" stop-color="#000000"/>
    </linearGradient>
  </defs>
</svg>
