<?xml version="1.0" encoding="UTF-8" standalone="no"?>
<svg xmlns:ffdec="https://www.free-decompiler.com/flash" xmlns:xlink="http://www.w3.org/1999/xlink" ffdec:objectType="frame" height="4004.1px" width="7682.6px" xmlns="http://www.w3.org/2000/svg">
  <g transform="matrix(2.0, 0.0, 0.0, 2.0, 4622.9, 1925.9)">
    <use ffdec:characterId="333" height="372.95" transform="matrix(2.0745, 0.0, 0.0, 1.0111, -262.0106, -216.0102)" width="608.0" xlink:href="#shape0"/>
    <use ffdec:characterId="2870" height="300.0" transform="matrix(1.2648, 0.0, 0.0, 1.177, -995.25, -219.95)" width="533.0" xlink:href="#shape1"/>
    <use ffdec:characterId="3588" height="349.8" transform="matrix(0.9996, -0.0222, 0.0222, 0.9996, -875.4528, -189.7437)" width="413.65" xlink:href="#sprite0"/>
    <use ffdec:characterId="3586" height="103.0" transform="matrix(-0.8453, -0.53, 0.53, -0.8453, -825.6199, -24.0137)" width="276.8" xlink:href="#sprite1"/>
    <use ffdec:characterId="3589" height="84.0" transform="matrix(1.0, 0.0, 0.0, 1.0, -891.25, -228.05)" width="115.6" xlink:href="#morphshape0"/>
    <clipPath id="clipPath0" transform="matrix(0.241, 0.0, 0.0, 0.2379, -667.8, -144.65)">
      <path d="M-321.1 133.15 L-995.25 133.15 -995.25 -219.95 -321.1 -219.95 -321.1 133.15" fill="#ff0000" fill-rule="evenodd" stroke="none"/>
    </clipPath>
    <use ffdec:characterId="3478" height="300.0" transform="matrix(1.032, 0.0, 0.0, 1.032, -975.2947, -208.8019)" width="533.0" xlink:href="#sprite2"/>
  </g>
  <defs>
    <g id="shape0" transform="matrix(1.0, 0.0, 0.0, 1.0, -26.7, -26.05)">
      <path d="M634.7 26.05 L634.7 399.0 26.7 399.0 26.7 26.05 634.7 26.05" fill="#000000" fill-rule="evenodd" stroke="none"/>
    </g>
    <g id="shape1" transform="matrix(1.0, 0.0, 0.0, 1.0, 0.0, 0.0)">
      <path d="M533.0 300.0 L0.0 300.0 0.0 0.0 533.0 0.0 533.0 300.0" fill="#ffffff" fill-rule="evenodd" stroke="none"/>
    </g>
    <g id="sprite0" transform="matrix(1.0, 0.0, 0.0, 1.0, 0.0, 15.9)">
      <use ffdec:characterId="3587" height="349.8" transform="matrix(1.0, 0.0, 0.0, 1.0, 0.0, -15.9)" width="413.65" xlink:href="#shape2"/>
    </g>
    <g id="shape2" transform="matrix(1.0, 0.0, 0.0, 1.0, 0.0, 15.9)">
      <path d="M105.35 -11.25 L90.5 30.05 90.35 30.9 Q74.55 81.8 69.15 137.1 L63.4 118.15 Q68.85 71.3 80.1 27.95 L84.25 17.6 Q90.35 1.6 93.3 -14.7 101.8 -18.3 105.35 -11.25" fill="#2d2d2d" fill-rule="evenodd" stroke="none"/>
      <path d="M329.25 120.55 L331.3 123.0 Q335.6 129.05 332.75 136.0 331.35 139.35 330.55 142.95 L329.95 143.2 Q330.25 144.2 330.0 145.05 329.75 146.15 328.95 147.0 L327.7 148.1 327.3 148.25 324.85 146.2 320.9 147.6 Q319.45 143.5 320.9 139.7 L313.05 135.4 312.95 134.7 Q300.45 133.0 289.05 139.75 275.5 147.7 259.45 148.35 L251.35 149.6 247.4 150.35 Q264.3 184.75 282.8 218.25 286.9 225.7 289.65 233.8 295.8 252.15 296.65 271.5 L301.7 271.45 301.65 272.55 Q318.3 274.8 334.9 271.4 L337.2 270.5 Q349.7 264.8 362.95 269.3 366.45 270.55 370.2 271.1 L383.7 271.55 Q388.8 272.25 393.0 275.4 398.45 279.4 401.35 285.3 403.5 289.7 403.7 294.45 L403.85 298.6 Q411.6 302.95 413.25 311.5 414.3 316.95 412.55 322.0 L411.1 322.4 412.6 327.85 407.2 321.9 Q405.6 324.15 403.1 324.75 355.1 334.55 306.1 333.85 L226.25 331.25 215.15 331.4 Q194.65 331.45 175.5 324.55 172.5 323.4 170.1 320.85 163.65 313.9 160.9 304.8 158.0 295.15 158.15 285.0 158.25 276.05 160.9 267.6 L150.35 252.2 Q133.0 274.4 114.1 295.35 L114.05 303.95 115.25 303.95 113.9 306.05 Q105.0 312.85 93.75 312.7 73.75 312.45 63.55 295.0 57.6 284.8 55.8 273.0 50.9 240.4 44.2 208.25 43.35 204.2 41.15 200.65 35.0 190.8 25.8 183.55 16.0 175.9 6.65 167.4 3.85 164.8 3.7 160.85 L3.8 157.0 Q0.2 155.35 1.2 151.75 2.0 148.9 0.0 146.45 0.75 142.05 3.6 138.7 5.1 137.0 6.85 135.6 L7.0 129.95 Q9.2 127.7 11.9 128.9 13.5 129.6 14.0 131.2 17.45 130.45 17.95 133.7 18.15 135.0 17.95 136.35 17.7 138.15 16.6 139.6 24.05 138.0 27.35 143.25 27.95 144.15 28.1 145.35 L31.6 145.6 Q33.65 138.35 40.1 141.95 45.5 144.9 50.65 148.3 62.0 155.75 63.45 169.5 63.7 172.05 64.6 174.65 70.0 189.85 76.0 204.75 80.9 216.95 86.5 228.9 L92.6 194.45 Q83.4 182.75 85.5 168.05 88.2 148.95 92.6 130.35 96.1 115.5 111.7 116.35 L111.65 115.6 112.25 115.75 112.8 115.2 113.2 115.95 Q114.35 114.35 113.6 112.35 112.5 109.55 110.4 107.25 102.85 106.1 96.0 108.95 L98.6 111.0 Q88.7 114.65 77.6 112.15 54.35 107.05 37.15 91.1 28.25 82.8 28.4 70.8 28.45 68.7 27.1 67.1 L25.25 64.95 Q31.4 49.35 39.7 34.8 41.6 31.45 42.75 27.65 43.9 23.9 43.45 20.1 L45.0 19.8 Q45.05 21.65 45.4 23.7 45.6 24.85 46.5 25.75 L46.95 26.25 Q48.65 22.8 48.4 19.05 L48.15 16.45 49.0 16.3 52.4 22.8 55.9 11.5 57.0 11.3 58.5 19.55 Q64.15 11.35 62.75 1.4 L62.5 0.05 63.95 0.25 64.9 1.5 68.05 19.6 Q86.6 19.85 104.55 25.1 106.0 27.25 108.4 27.8 L110.4 27.55 Q111.7 26.85 114.45 27.6 116.9 26.45 120.15 27.9 123.35 29.35 125.2 29.25 126.25 29.6 126.9 30.7 127.8 32.3 127.95 34.15 138.55 40.0 149.5 44.5 155.5 46.9 156.55 53.4 L159.85 56.05 Q174.3 56.0 186.7 64.35 196.35 70.85 199.45 81.85 200.5 85.7 202.85 89.25 208.05 97.15 214.15 104.45 221.1 112.7 232.15 114.15 240.15 114.9 248.1 114.05 L300.4 110.8 Q307.3 110.25 313.9 110.45 317.65 110.8 320.8 113.0 L324.6 115.95 329.25 120.55 M338.4 271.8 L333.4 280.55 Q339.85 277.8 346.65 278.05 357.2 278.85 365.15 285.85 L366.75 287.4 372.15 276.25 371.55 276.2 371.35 275.65 Q357.0 268.25 341.55 270.35 L338.4 271.8 M371.85 282.9 Q388.55 285.45 401.3 296.55 399.9 280.25 385.05 274.3 381.5 272.85 377.6 273.55 L374.0 275.9 371.85 282.9 M94.25 130.4 Q92.95 138.9 91.15 147.5 89.2 156.75 87.9 165.85 86.3 176.8 90.65 186.75 91.8 189.35 93.2 191.5 L93.4 190.45 95.05 192.8 94.8 194.15 99.55 202.1 Q93.35 191.1 92.15 178.75 91.75 174.55 92.65 170.3 96.6 152.1 98.9 133.5 99.25 130.8 100.55 128.4 102.2 125.5 105.45 124.1 116.55 119.4 128.7 120.8 118.2 117.3 107.75 118.2 96.1 118.5 94.25 130.4 M5.0 159.45 Q6.05 164.8 10.45 168.3 L23.4 178.65 Q33.1 186.2 40.6 196.25 L41.25 196.15 Q42.2 197.6 42.75 199.35 44.75 205.5 46.15 211.7 49.65 227.05 51.7 241.55 54.3 259.85 58.25 278.0 63.3 301.5 84.65 310.6 80.1 308.2 76.4 304.5 68.75 296.7 64.45 286.7 59.9 276.2 58.65 264.6 L56.95 246.2 Q56.1 235.8 54.6 225.55 53.05 215.25 49.85 205.3 46.2 194.1 37.15 186.65 L22.0 174.35 Q12.75 166.9 5.55 158.35 L5.0 159.45 M46.7 37.0 L48.65 32.5 Q39.05 38.75 34.95 49.5 36.65 47.4 39.1 45.85 40.5 45.05 41.9 44.8 34.2 51.6 31.35 61.4 30.25 65.2 30.1 69.3 L31.75 65.7 32.7 65.35 Q29.7 72.15 31.25 79.6 L31.7 81.6 32.7 81.65 Q37.95 93.25 58.05 103.45 78.1 113.65 94.8 110.8 L63.95 104.85 57.15 96.45 56.15 99.1 45.7 89.3 42.75 90.45 Q40.35 80.85 41.15 70.95 L35.8 75.05 39.65 56.35 35.15 59.1 34.2 59.05 Q39.35 46.7 49.45 37.8 L49.1 36.45 46.7 37.0 M49.7 23.2 L49.65 23.05 49.5 23.05 49.5 23.25 49.7 23.2 M224.85 113.5 L227.6 117.1 232.05 124.6 Q245.3 123.3 258.05 118.85 262.0 117.45 266.05 117.2 L296.2 113.65 Q303.3 112.5 310.3 113.45 L316.35 113.3 Q309.85 111.1 302.9 111.95 L281.75 113.45 261.0 114.95 247.3 116.2 Q235.8 116.2 224.85 113.5 M208.05 142.9 L207.15 139.15 Q203.6 129.3 201.0 119.05 L198.7 109.35 197.3 126.7 170.35 123.3 Q180.6 126.3 189.65 131.75 198.9 137.2 208.05 142.9 M162.35 57.75 Q171.75 62.8 181.1 68.2 189.5 73.1 195.7 80.65 195.15 77.4 193.45 74.45 189.2 66.85 181.25 63.2 L175.85 60.55 Q169.5 57.3 162.35 57.75" fill="url(#gradient0)" fill-rule="evenodd" stroke="none"/>
    </g>
    <linearGradient gradientTransform="matrix(0.0, 0.1649, -0.1894, 0.0, 414.85, 179.2)" gradientUnits="userSpaceOnUse" id="gradient0" spreadMethod="pad" x1="-819.2" x2="819.2">
      <stop offset="0.0" stop-color="#333333"/>
      <stop offset="1.0" stop-color="#000000"/>
    </linearGradient>
    <g id="sprite1" transform="matrix(1.0, 0.0, 0.0, 1.0, 62.65, 21.75)">
      <use ffdec:characterId="3585" height="103.0" transform="matrix(1.0, 0.0, 0.0, 1.0, -62.65, -21.75)" width="276.8" xlink:href="#shape3"/>
    </g>
    <g id="shape3" transform="matrix(1.0, 0.0, 0.0, 1.0, 62.65, 21.75)">
      <path d="M7.7 -5.95 L82.35 2.2 77.3 -7.45 13.05 -14.35 7.7 -5.95 M82.15 -13.75 L89.2 3.05 90.8 3.1 108.4 -5.2 136.2 1.65 147.5 2.8 143.75 2.55 147.45 3.15 147.65 3.0 153.2 3.6 153.25 3.3 169.95 4.9 169.45 6.2 177.6 6.7 177.35 5.65 189.85 6.85 197.85 -5.35 202.05 -4.9 200.5 7.9 204.7 8.35 199.45 25.7 196.0 25.55 196.4 24.05 196.45 23.7 189.05 23.0 189.3 24.9 151.45 21.0 149.3 39.35 124.25 36.2 122.65 49.25 214.15 59.25 191.55 75.05 141.5 75.55 140.05 70.35 132.2 69.35 129.4 74.05 119.6 72.95 118.6 81.25 104.4 76.5 95.3 57.9 72.1 55.15 62.35 63.3 51.55 59.65 42.3 28.65 42.5 26.1 6.0 21.55 -2.3 74.6 -11.25 74.65 -10.8 23.05 -10.35 22.65 -62.65 28.65 -52.1 -6.9 -30.3 -14.15 -11.7 -7.95 -0.7 -6.85 8.5 -21.75 82.15 -13.75" fill="#262626" fill-rule="evenodd" stroke="none"/>
    </g>
    <g id="morphshape0" transform="matrix(1.0, 0.0, 0.0, 1.0, 891.25, 228.05)">
      <path d="M-799.5 -187.9 L-799.05 -186.75 Q-798.0 -185.25 -796.5 -185.55 -794.6 -185.2 -793.85 -186.8 -793.3 -188.65 -795.1 -189.75 -795.45 -190.8 -797.55 -190.5 -798.3 -190.2 -799.35 -188.7 L-799.4 -187.9 M-804.2 -203.8 L-803.7 -202.65 Q-802.75 -201.15 -801.15 -201.45 -799.3 -201.1 -798.55 -202.7 -798.0 -204.5 -799.8 -205.65 -800.15 -206.65 -802.25 -206.4 -803.05 -206.1 -804.1 -204.6 L-804.2 -203.8 M-813.65 -167.85 L-809.55 -164.45 -813.05 -168.25 -813.65 -167.85 M-817.0 -188.45 Q-817.15 -187.05 -816.35 -185.55 L-814.2 -182.15 Q-812.95 -180.5 -811.7 -181.55 L-811.6 -182.2 Q-810.9 -183.8 -812.25 -184.75 -813.65 -185.7 -815.9 -188.7 -817.0 -188.9 -817.05 -188.35 M-831.5 -194.75 Q-831.15 -193.15 -830.4 -191.55 -828.9 -188.65 -826.15 -187.1 -824.2 -185.5 -821.95 -185.7 -820.6 -186.35 -820.45 -187.75 -820.4 -189.3 -821.0 -190.95 L-822.05 -193.7 -822.95 -195.65 -824.0 -196.7 -825.3 -197.3 -827.1 -197.75 Q-827.9 -197.8 -829.6 -197.1 L-831.15 -195.55 -831.4 -194.75 M-837.05 -213.35 L-836.85 -212.55 -836.35 -211.7 Q-835.6 -209.9 -833.95 -210.6 -832.25 -210.0 -831.75 -211.7 -831.6 -213.35 -833.45 -214.35 -834.05 -215.2 -835.1 -215.35 -835.7 -215.1 -836.85 -214.15 L-837.0 -213.4 M-856.65 -210.45 Q-848.7 -198.8 -835.1 -187.8 L-833.55 -186.5 -832.9 -185.95 Q-824.9 -179.4 -817.25 -172.35 L-817.65 -171.8 -817.8 -171.55 -823.5 -176.5 Q-824.9 -176.5 -823.7 -175.4 L-818.05 -170.5 -818.05 -170.4 -818.05 -169.65 Q-817.2 -167.2 -815.0 -167.55 -813.3 -165.7 -812.05 -163.55 -810.8 -161.5 -809.0 -159.95 -809.65 -159.15 -809.6 -157.95 L-809.45 -157.15 Q-812.5 -159.0 -815.3 -161.45 -819.15 -164.75 -823.45 -167.45 L-824.1 -167.45 Q-822.3 -163.1 -817.0 -159.35 L-808.05 -152.75 Q-804.55 -150.05 -800.65 -149.1 L-801.1 -149.95 -801.05 -149.95 Q-800.25 -150.0 -799.45 -150.35 L-798.75 -150.65 -798.45 -150.45 Q-796.9 -149.15 -795.2 -148.2 L-794.6 -146.7 Q-793.2 -146.05 -791.8 -145.95 -791.05 -145.9 -790.7 -146.3 -788.25 -145.75 -787.25 -147.9 L-785.85 -147.75 Q-785.05 -147.85 -784.3 -148.1 -784.05 -148.5 -783.95 -148.95 -783.55 -150.9 -784.2 -152.65 -783.3 -153.25 -782.85 -154.75 L-783.0 -155.45 Q-783.9 -157.05 -785.55 -157.75 -786.95 -158.45 -788.1 -159.25 L-788.5 -159.5 -790.4 -164.7 Q-788.5 -161.85 -786.5 -159.25 -789.95 -166.95 -793.9 -174.35 L-796.75 -179.65 -804.7 -197.1 Q-809.2 -207.2 -815.9 -216.0 -815.25 -207.95 -809.95 -198.0 -806.4 -191.45 -803.45 -184.7 L-803.95 -185.0 Q-807.65 -184.45 -804.6 -181.0 -801.9 -177.9 -801.35 -179.65 L-800.1 -176.4 Q-796.65 -167.35 -792.15 -162.2 -793.5 -163.05 -794.9 -163.7 L-794.95 -163.55 -796.3 -162.95 -796.5 -162.8 -796.9 -162.95 -798.95 -162.8 Q-799.75 -162.7 -800.35 -162.2 -800.85 -161.65 -801.15 -160.95 L-801.3 -160.15 Q-802.05 -160.8 -802.9 -161.05 L-802.05 -161.35 Q-800.45 -161.9 -800.25 -163.7 -800.15 -164.9 -800.1 -166.1 -798.85 -168.0 -800.2 -170.15 L-802.75 -174.1 Q-804.15 -176.4 -806.65 -176.2 L-807.25 -175.55 Q-807.8 -173.45 -806.5 -171.5 L-806.2 -171.0 Q-807.15 -170.35 -807.95 -169.6 -808.7 -168.4 -809.35 -166.65 L-812.25 -169.8 Q-812.2 -170.45 -812.3 -171.15 -812.6 -173.55 -816.0 -174.1 -822.85 -182.15 -830.5 -189.15 -830.75 -190.35 -832.7 -191.05 L-835.65 -193.6 Q-846.2 -202.4 -856.65 -210.4 L-856.75 -210.4 M-857.2 -216.65 Q-856.95 -215.25 -856.15 -215.85 -855.25 -215.85 -855.7 -217.35 -856.0 -217.85 -856.75 -218.05 -857.35 -217.4 -857.25 -216.6 M-792.9 -177.65 Q-794.8 -175.75 -789.65 -176.1 -789.5 -178.4 -792.05 -178.05 L-792.9 -177.6" fill="#313131" fill-rule="evenodd" stroke="none"/>
      <path d="M-857.25 -216.6 Q-857.35 -217.4 -856.75 -218.05 -856.0 -217.85 -855.7 -217.35 -855.25 -215.85 -856.15 -215.85 -856.95 -215.25 -857.2 -216.65 M-856.75 -210.4 L-856.65 -210.4 Q-846.2 -202.4 -835.65 -193.6 L-832.7 -191.05 Q-830.75 -190.35 -830.5 -189.15 -822.85 -182.15 -816.0 -174.1 -812.6 -173.55 -812.3 -171.15 -812.2 -170.45 -812.25 -169.8 L-809.35 -166.65 Q-808.7 -168.4 -807.95 -169.6 -807.15 -170.35 -806.2 -171.0 L-806.5 -171.5 Q-807.8 -173.45 -807.25 -175.55 L-806.65 -176.2 Q-804.15 -176.4 -802.75 -174.1 L-800.2 -170.15 Q-798.85 -168.0 -800.1 -166.1 -800.15 -164.9 -800.25 -163.7 -800.45 -161.9 -802.05 -161.35 L-802.9 -161.05 Q-802.05 -160.8 -801.3 -160.15 L-801.15 -160.95 Q-800.85 -161.65 -800.35 -162.2 -799.75 -162.7 -798.95 -162.8 L-796.9 -162.95 -796.5 -162.8 -796.3 -162.95 -794.95 -163.55 -794.9 -163.7 Q-793.5 -163.05 -792.15 -162.2 -796.65 -167.35 -800.1 -176.4 L-801.35 -179.65 Q-801.9 -177.9 -804.6 -181.0 -807.65 -184.45 -803.95 -185.0 L-803.45 -184.7 Q-806.4 -191.45 -809.95 -198.0 -815.25 -207.95 -815.9 -216.0 -809.2 -207.2 -804.7 -197.1 L-796.75 -179.65 -793.9 -174.35 Q-789.95 -166.95 -786.5 -159.25 -788.5 -161.85 -790.4 -164.7 L-788.5 -159.5 -788.1 -159.25 Q-786.95 -158.45 -785.55 -157.75 -783.9 -157.05 -783.0 -155.45 L-782.85 -154.75 Q-783.3 -153.25 -784.2 -152.65 -783.55 -150.9 -783.95 -148.95 -784.05 -148.5 -784.3 -148.1 -785.05 -147.85 -785.85 -147.75 L-787.25 -147.9 Q-788.25 -145.75 -790.7 -146.3 -791.05 -145.9 -791.8 -145.95 -793.2 -146.05 -794.6 -146.7 L-795.2 -148.2 Q-796.9 -149.15 -798.45 -150.45 L-798.75 -150.65 -799.45 -150.35 Q-800.25 -150.0 -801.05 -149.95 L-801.1 -149.95 -800.65 -149.1 Q-804.55 -150.05 -808.05 -152.75 L-817.0 -159.35 Q-822.3 -163.1 -824.1 -167.45 L-823.45 -167.45 Q-819.15 -164.75 -815.3 -161.45 -812.5 -159.0 -809.45 -157.15 L-809.6 -157.95 Q-809.65 -159.15 -809.0 -159.95 -810.8 -161.5 -812.05 -163.55 -813.3 -165.7 -815.0 -167.55 -817.2 -167.2 -818.05 -169.65 L-818.05 -170.4 -818.05 -170.5 -823.7 -175.4 Q-824.9 -176.5 -823.5 -176.5 L-817.8 -171.55 -817.65 -171.8 -817.25 -172.35 Q-824.9 -179.4 -832.9 -185.95 L-833.55 -186.5 -835.1 -187.8 Q-848.7 -198.8 -856.65 -210.45 M-837.0 -213.4 L-836.85 -214.15 Q-835.7 -215.1 -835.1 -215.35 -834.05 -215.2 -833.45 -214.35 -831.6 -213.35 -831.75 -211.7 -832.25 -210.0 -833.95 -210.6 -835.6 -209.9 -836.35 -211.7 L-836.85 -212.55 -837.05 -213.35 M-831.4 -194.75 L-831.15 -195.55 -829.6 -197.1 Q-827.9 -197.8 -827.1 -197.75 L-825.3 -197.3 -824.0 -196.7 -822.95 -195.65 -822.05 -193.7 -821.0 -190.95 Q-820.4 -189.3 -820.45 -187.75 -820.6 -186.35 -821.95 -185.7 -824.2 -185.5 -826.15 -187.1 -828.9 -188.65 -830.4 -191.55 -831.15 -193.15 -831.5 -194.75 M-817.05 -188.35 Q-817.0 -188.9 -815.9 -188.7 -813.65 -185.7 -812.25 -184.75 -810.9 -183.8 -811.6 -182.2 L-811.7 -181.55 Q-812.95 -180.5 -814.2 -182.15 L-816.35 -185.55 Q-817.15 -187.05 -817.0 -188.45 M-813.65 -167.85 L-813.05 -168.25 -809.55 -164.45 -813.65 -167.85 M-804.2 -203.8 L-804.1 -204.6 Q-803.05 -206.1 -802.25 -206.4 -800.15 -206.65 -799.8 -205.65 -798.0 -204.5 -798.55 -202.7 -799.3 -201.1 -801.15 -201.45 -802.75 -201.15 -803.7 -202.65 L-804.2 -203.8 M-799.4 -187.9 L-799.35 -188.7 Q-798.3 -190.2 -797.55 -190.5 -795.45 -190.8 -795.1 -189.75 -793.3 -188.65 -793.85 -186.8 -794.6 -185.2 -796.5 -185.55 -798.0 -185.25 -799.05 -186.75 L-799.5 -187.9 M-796.15 -167.2 L-795.45 -167.4 Q-794.25 -164.85 -795.3 -165.15 -797.1 -165.95 -796.1 -167.2 L-795.4 -167.4 Q-794.2 -164.85 -795.25 -165.15 -797.05 -165.95 -796.05 -167.2 M-792.9 -177.55 L-792.05 -178.0 Q-789.5 -178.35 -789.65 -176.05 -794.8 -175.7 -792.9 -177.6 L-792.05 -178.05 Q-789.5 -178.4 -789.65 -176.1 -794.8 -175.75 -792.9 -177.65" fill="none" stroke="#000000" stroke-linecap="round" stroke-linejoin="round" stroke-opacity="0.0" stroke-width="0.0"/>
    </g>
    <g id="sprite2" transform="matrix(1.0, 0.0, 0.0, 1.0, 265.1, 150.0)">
      <use ffdec:characterId="3477" height="300.0" transform="matrix(1.0, 0.0, 0.0, 1.0, -265.1, -150.0)" width="533.0" xlink:href="#shape5"/>
    </g>
    <g id="shape5" transform="matrix(1.0, 0.0, 0.0, 1.0, 265.1, 150.0)">
      <path d="M267.9 -150.0 L267.9 150.0 -265.1 150.0 -265.1 -150.0 267.9 -150.0 Z" fill="none" stroke="#ff0000" stroke-linecap="round" stroke-linejoin="round" stroke-width="0.05"/>
      <path d="M1.4 -16.05 L1.45 -16.05 Q9.35 -16.05 14.95 -11.35 20.55 -6.65 20.55 0.0 L39.5 0.0 M20.55 0.0 Q20.55 6.65 14.95 11.35 9.35 16.05 1.45 16.05 L1.4 16.05 1.4 21.45 M-36.65 0.0 L-17.55 0.0 -17.55 -0.05 Q-17.55 -6.65 -11.95 -11.35 -6.4 -16.05 1.4 -16.05 M1.4 16.05 Q-6.4 16.05 -11.95 11.35 -17.55 6.65 -17.55 0.0" fill="none" stroke="#ff0000" stroke-linecap="round" stroke-linejoin="round" stroke-opacity="0.2509804" stroke-width="0.05"/>
      <path d="M1.4 -16.05 L1.4 -21.4" fill="none" stroke="#ff0000" stroke-linecap="round" stroke-linejoin="round" stroke-opacity="0.2509804" stroke-width="1.0"/>
      <path d="M181.15 141.4 L181.15 123.6 191.05 123.6 191.05 141.4 181.15 141.4" fill="#ffffff" fill-rule="evenodd" stroke="none"/>
      <path d="M250.55 123.6 L260.45 123.6 260.45 141.4 260.35 141.4 250.55 141.4 250.55 123.6" fill="#000000" fill-rule="evenodd" stroke="none"/>
      <path d="M230.7 123.6 L240.6 123.6 240.6 141.4 230.7 141.4 230.7 123.6" fill="#ff0000" fill-rule="evenodd" stroke="none"/>
      <path d="M191.05 123.6 L201.0 123.6 201.0 141.4 191.05 141.4 191.05 123.6" fill="#ffff00" fill-rule="evenodd" stroke="none"/>
      <path d="M201.0 123.6 L210.9 123.6 210.9 141.4 201.0 141.4 201.0 123.6" fill="#00ffff" fill-rule="evenodd" stroke="none"/>
      <path d="M210.9 123.6 L220.8 123.6 220.8 141.4 210.9 141.4 210.9 123.6" fill="#00ff00" fill-rule="evenodd" stroke="none"/>
      <path d="M220.8 123.6 L230.7 123.6 230.7 141.4 220.8 141.4 220.8 123.6" fill="#ff00ff" fill-rule="evenodd" stroke="none"/>
      <path d="M240.6 123.6 L250.55 123.6 250.55 141.4 240.6 141.4 240.6 123.6" fill="#0000ff" fill-rule="evenodd" stroke="none"/>
      <path d="M260.35 141.4 L260.35 145.4 181.1 145.4 181.1 141.4 181.15 141.4 191.05 141.4 201.0 141.4 210.9 141.4 220.8 141.4 230.7 141.4 240.6 141.4 250.55 141.4 260.35 141.4" fill="url(#gradient1)" fill-rule="evenodd" stroke="none"/>
    </g>
    <linearGradient gradientTransform="matrix(0.0484, 0.0, 0.0, 0.0024, 220.7, 143.35)" gradientUnits="userSpaceOnUse" id="gradient1" spreadMethod="pad" x1="-819.2" x2="819.2">
      <stop offset="0.0" stop-color="#ffffff"/>
      <stop offset="1.0" stop-color="#000000"/>
    </linearGradient>
  </defs>
</svg>
