<?xml version="1.0" encoding="UTF-8" standalone="no"?>
<svg xmlns:ffdec="https://www.free-decompiler.com/flash" xmlns:xlink="http://www.w3.org/1999/xlink" ffdec:objectType="frame" height="4004.1px" width="7682.6px" xmlns="http://www.w3.org/2000/svg">
  <g transform="matrix(2.0, 0.0, 0.0, 2.0, 4622.9, 1925.9)">
    <use ffdec:characterId="333" height="372.95" transform="matrix(2.0745, 0.0, 0.0, 1.0111, -262.0106, -216.0102)" width="608.0" xlink:href="#shape0"/>
    <use ffdec:characterId="2870" height="300.0" transform="matrix(1.2648, 0.0, 0.0, 1.177, -995.25, -219.95)" width="533.0" xlink:href="#shape1"/>
    <use ffdec:characterId="3588" height="349.8" transform="matrix(0.9995, -0.0264, 0.0264, 0.9995, -876.87, -188.6915)" width="413.65" xlink:href="#sprite0"/>
    <use ffdec:characterId="3586" height="103.0" transform="matrix(-0.9162, -0.3953, 0.3953, -0.9162, -813.6449, -36.8065)" width="276.8" xlink:href="#sprite1"/>
    <use ffdec:characterId="3589" height="84.0" transform="matrix(1.0, 0.0, 0.0, 1.0, -891.25, -228.05)" width="115.6" xlink:href="#morphshape0"/>
    <use ffdec:characterId="3478" height="300.0" transform="matrix(1.032, 0.0, 0.0, 1.032, -975.2947, -208.8019)" width="533.0" xlink:href="#sprite2"/>
  </g>
  <defs>
    <g id="shape0" transform="matrix(1.0, 0.0, 0.0, 1.0, -26.7, -26.05)">
      <path d="M634.7 26.05 L634.7 399.0 26.7 399.0 26.7 26.05 634.7 26.05" fill="#000000" fill-rule="evenodd" stroke="none"/>
    </g>
    <g id="shape1" transform="matrix(1.0, 0.0, 0.0, 1.0, 0.0, 0.0)">
      <path d="M533.0 300.0 L0.0 300.0 0.0 0.0 533.0 0.0 533.0 300.0" fill="#ffffff" fill-rule="evenodd" stroke="none"/>
    </g>
    <g id="sprite0" transform="matrix(1.0, 0.0, 0.0, 1.0, 0.0, 15.9)">
      <use ffdec:characterId="3587" height="349.8" transform="matrix(1.0, 0.0, 0.0, 1.0, 0.0, -15.9)" width="413.65" xlink:href="#shape2"/>
    </g>
    <g id="shape2" transform="matrix(1.0, 0.0, 0.0, 1.0, 0.0, 15.9)">
      <path d="M105.35 -11.25 L90.5 30.05 90.35 30.9 Q74.55 81.8 69.15 137.1 L63.4 118.15 Q68.85 71.3 80.1 27.95 L84.25 17.6 Q90.35 1.6 93.3 -14.7 101.8 -18.3 105.35 -11.25" fill="#2d2d2d" fill-rule="evenodd" stroke="none"/>
      <path d="M329.25 120.55 L331.3 123.0 Q335.6 129.05 332.75 136.0 331.35 139.35 330.55 142.95 L329.95 143.2 Q330.25 144.2 330.0 145.05 329.75 146.15 328.95 147.0 L327.7 148.1 327.3 148.25 324.85 146.2 320.9 147.6 Q319.45 143.5 320.9 139.7 L313.05 135.4 312.95 134.7 Q300.45 133.0 289.05 139.75 275.5 147.7 259.45 148.35 L251.35 149.6 247.4 150.35 Q264.3 184.75 282.8 218.25 286.9 225.7 289.65 233.8 295.8 252.15 296.65 271.5 L301.7 271.45 301.65 272.55 Q318.3 274.8 334.9 271.4 L337.2 270.5 Q349.7 264.8 362.95 269.3 366.45 270.55 370.2 271.1 L383.7 271.55 Q388.8 272.25 393.0 275.4 398.45 279.4 401.35 285.3 403.5 289.7 403.7 294.45 L403.85 298.6 Q411.6 302.95 413.25 311.5 414.3 316.95 412.55 322.0 L411.1 322.4 412.6 327.85 407.2 321.9 Q405.6 324.15 403.1 324.75 355.1 334.55 306.1 333.85 L226.25 331.25 215.15 331.4 Q194.65 331.45 175.5 324.55 172.5 323.4 170.1 320.85 163.65 313.9 160.9 304.8 158.0 295.15 158.15 285.0 158.25 276.05 160.9 267.6 L150.35 252.2 Q133.0 274.4 114.1 295.35 L114.05 303.95 115.25 303.95 113.9 306.05 Q105.0 312.85 93.75 312.7 73.75 312.45 63.55 295.0 57.6 284.8 55.8 273.0 50.9 240.4 44.2 208.25 43.35 204.2 41.15 200.65 35.0 190.8 25.8 183.55 16.0 175.9 6.65 167.4 3.85 164.8 3.7 160.85 L3.8 157.0 Q0.2 155.35 1.2 151.75 2.0 148.9 0.0 146.45 0.75 142.05 3.6 138.7 5.1 137.0 6.85 135.6 L7.0 129.95 Q9.2 127.7 11.9 128.9 13.5 129.6 14.0 131.2 17.45 130.45 17.95 133.7 18.15 135.0 17.95 136.35 17.7 138.15 16.6 139.6 24.05 138.0 27.35 143.25 27.95 144.15 28.1 145.35 L31.6 145.6 Q33.65 138.35 40.1 141.95 45.5 144.9 50.65 148.3 62.0 155.75 63.45 169.5 63.7 172.05 64.6 174.65 70.0 189.85 76.0 204.75 80.9 216.95 86.5 228.9 L92.6 194.45 Q83.4 182.75 85.5 168.05 88.2 148.95 92.6 130.35 96.1 115.5 111.7 116.35 L111.65 115.6 112.25 115.75 112.8 115.2 113.2 115.95 Q114.35 114.35 113.6 112.35 112.5 109.55 110.4 107.25 102.85 106.1 96.0 108.95 L98.6 111.0 Q88.7 114.65 77.6 112.15 54.35 107.05 37.15 91.1 28.25 82.8 28.4 70.8 28.45 68.7 27.1 67.1 L25.25 64.95 Q31.4 49.35 39.7 34.8 41.6 31.45 42.75 27.65 43.9 23.9 43.45 20.1 L45.0 19.8 Q45.05 21.65 45.4 23.7 45.6 24.85 46.5 25.75 L46.95 26.25 Q48.65 22.8 48.4 19.05 L48.15 16.45 49.0 16.3 52.4 22.8 55.9 11.5 57.0 11.3 58.5 19.55 Q64.15 11.35 62.75 1.4 L62.5 0.05 63.95 0.25 64.9 1.5 68.05 19.6 Q86.6 19.85 104.55 25.1 106.0 27.25 108.4 27.8 L110.4 27.55 Q111.7 26.85 114.45 27.6 116.9 26.45 120.15 27.9 123.35 29.35 125.2 29.25 126.25 29.6 126.9 30.7 127.8 32.3 127.95 34.15 138.55 40.0 149.5 44.5 155.5 46.9 156.55 53.4 L159.85 56.05 Q174.3 56.0 186.7 64.35 196.35 70.85 199.45 81.85 200.5 85.7 202.85 89.25 208.05 97.15 214.15 104.45 221.1 112.7 232.15 114.15 240.15 114.9 248.1 114.05 L300.4 110.8 Q307.3 110.25 313.9 110.45 317.65 110.8 320.8 113.0 L324.6 115.95 329.25 120.55 M338.4 271.8 L333.4 280.55 Q339.85 277.8 346.65 278.05 357.2 278.85 365.15 285.85 L366.75 287.4 372.15 276.25 371.55 276.2 371.35 275.65 Q357.0 268.25 341.55 270.35 L338.4 271.8 M371.85 282.9 Q388.55 285.45 401.3 296.55 399.9 280.25 385.05 274.3 381.5 272.85 377.6 273.55 L374.0 275.9 371.85 282.9 M94.25 130.4 Q92.95 138.9 91.15 147.5 89.2 156.75 87.9 165.85 86.3 176.8 90.65 186.75 91.8 189.35 93.2 191.5 L93.4 190.45 95.05 192.8 94.8 194.15 99.55 202.1 Q93.35 191.1 92.15 178.75 91.75 174.55 92.65 170.3 96.6 152.1 98.9 133.5 99.25 130.8 100.55 128.4 102.2 125.5 105.45 124.1 116.55 119.4 128.7 120.8 118.2 117.3 107.75 118.2 96.1 118.5 94.25 130.4 M5.0 159.45 Q6.05 164.8 10.45 168.3 L23.4 178.65 Q33.1 186.2 40.6 196.25 L41.25 196.15 Q42.2 197.6 42.75 199.35 44.75 205.5 46.15 211.7 49.65 227.05 51.7 241.55 54.3 259.85 58.25 278.0 63.3 301.5 84.65 310.6 80.1 308.2 76.4 304.5 68.75 296.7 64.45 286.7 59.9 276.2 58.65 264.6 L56.95 246.2 Q56.1 235.8 54.6 225.55 53.05 215.25 49.85 205.3 46.2 194.1 37.15 186.65 L22.0 174.35 Q12.75 166.9 5.55 158.35 L5.0 159.45 M46.7 37.0 L48.65 32.5 Q39.05 38.75 34.95 49.5 36.65 47.4 39.1 45.85 40.5 45.05 41.9 44.8 34.2 51.6 31.35 61.4 30.25 65.2 30.1 69.3 L31.75 65.7 32.7 65.35 Q29.7 72.15 31.25 79.6 L31.7 81.6 32.7 81.65 Q37.95 93.25 58.05 103.45 78.1 113.65 94.8 110.8 L63.95 104.85 57.15 96.45 56.15 99.1 45.7 89.3 42.75 90.45 Q40.35 80.85 41.15 70.95 L35.8 75.05 39.65 56.35 35.15 59.1 34.2 59.05 Q39.35 46.7 49.45 37.8 L49.1 36.45 46.7 37.0 M49.7 23.2 L49.65 23.05 49.5 23.05 49.5 23.25 49.7 23.2 M224.85 113.5 L227.6 117.1 232.05 124.6 Q245.3 123.3 258.05 118.85 262.0 117.45 266.05 117.2 L296.2 113.65 Q303.3 112.5 310.3 113.45 L316.35 113.3 Q309.85 111.1 302.9 111.95 L281.75 113.45 261.0 114.95 247.3 116.2 Q235.8 116.2 224.85 113.5 M208.05 142.9 L207.15 139.15 Q203.6 129.3 201.0 119.05 L198.7 109.35 197.3 126.7 170.35 123.3 Q180.6 126.3 189.65 131.75 198.9 137.2 208.05 142.9 M162.35 57.75 Q171.75 62.8 181.1 68.2 189.5 73.1 195.7 80.65 195.15 77.4 193.45 74.45 189.2 66.85 181.25 63.2 L175.85 60.55 Q169.5 57.3 162.35 57.75" fill="url(#gradient0)" fill-rule="evenodd" stroke="none"/>
    </g>
    <linearGradient gradientTransform="matrix(0.0, 0.1649, -0.1894, 0.0, 414.85, 179.2)" gradientUnits="userSpaceOnUse" id="gradient0" spreadMethod="pad" x1="-819.2" x2="819.2">
      <stop offset="0.0" stop-color="#333333"/>
      <stop offset="1.0" stop-color="#000000"/>
    </linearGradient>
    <g id="sprite1" transform="matrix(1.0, 0.0, 0.0, 1.0, 62.65, 21.75)">
      <use ffdec:characterId="3585" height="103.0" transform="matrix(1.0, 0.0, 0.0, 1.0, -62.65, -21.75)" width="276.8" xlink:href="#shape3"/>
    </g>
    <g id="shape3" transform="matrix(1.0, 0.0, 0.0, 1.0, 62.65, 21.75)">
      <path d="M7.7 -5.95 L82.35 2.2 77.3 -7.45 13.05 -14.35 7.7 -5.95 M82.15 -13.75 L89.2 3.05 90.8 3.1 108.4 -5.2 136.2 1.65 147.5 2.8 143.75 2.55 147.45 3.15 147.65 3.0 153.2 3.6 153.25 3.3 169.95 4.9 169.45 6.2 177.6 6.7 177.35 5.65 189.85 6.85 197.85 -5.35 202.05 -4.9 200.5 7.9 204.7 8.35 199.45 25.7 196.0 25.55 196.4 24.05 196.45 23.7 189.05 23.0 189.3 24.9 151.45 21.0 149.3 39.35 124.25 36.2 122.65 49.25 214.15 59.25 191.55 75.05 141.5 75.55 140.05 70.35 132.2 69.35 129.4 74.05 119.6 72.95 118.6 81.25 104.4 76.5 95.3 57.9 72.1 55.15 62.35 63.3 51.55 59.65 42.3 28.65 42.5 26.1 6.0 21.55 -2.3 74.6 -11.25 74.65 -10.8 23.05 -10.35 22.65 -62.65 28.65 -52.1 -6.9 -30.3 -14.15 -11.7 -7.95 -0.7 -6.85 8.5 -21.75 82.15 -13.75" fill="#262626" fill-rule="evenodd" stroke="none"/>
    </g>
    <g id="morphshape0" transform="matrix(1.0, 0.0, 0.0, 1.0, 891.25, 228.05)">
      <path d="M-801.35 -188.4 L-800.9 -187.25 Q-799.9 -185.85 -798.45 -186.05 -796.55 -185.5 -795.65 -187.05 -794.95 -188.8 -796.7 -190.05 -797.15 -191.25 -799.35 -191.0 -800.15 -190.7 -801.3 -189.2 L-801.35 -188.4 M-806.5 -204.55 L-806.05 -203.45 Q-805.1 -202.0 -803.6 -202.2 -801.75 -201.65 -800.85 -203.2 -800.15 -204.95 -801.85 -206.2 -802.3 -207.35 -804.5 -207.15 -805.3 -206.85 -806.4 -205.35 L-806.5 -204.55 M-815.5 -168.0 L-811.3 -164.55 -814.95 -168.4 -815.55 -168.0 M-819.25 -188.75 Q-819.35 -187.35 -818.5 -185.85 L-816.25 -182.4 Q-815.0 -180.75 -813.75 -181.85 L-813.65 -182.55 Q-812.95 -184.2 -814.35 -185.2 -815.8 -186.15 -818.15 -189.15 -819.25 -189.35 -819.3 -188.8 M-834.0 -195.45 Q-833.7 -193.95 -833.0 -192.5 -831.55 -189.6 -828.85 -187.9 -826.8 -186.1 -824.35 -186.2 -822.9 -186.7 -822.65 -188.05 -822.55 -189.6 -823.2 -191.3 L-824.35 -194.15 -825.3 -196.2 -826.35 -197.35 -827.7 -197.95 -829.5 -198.4 Q-830.35 -198.45 -832.1 -197.8 L-833.7 -196.25 -833.95 -195.4 M-839.95 -214.3 L-839.75 -213.5 -839.25 -212.65 Q-838.55 -210.95 -837.05 -211.55 -835.3 -210.7 -834.6 -212.4 -834.3 -214.05 -836.15 -215.15 -836.85 -216.15 -838.1 -216.3 -838.7 -216.05 -839.8 -215.1 L-839.95 -214.3 M-859.95 -211.05 Q-851.7 -199.25 -837.7 -188.05 L-836.1 -186.75 -835.4 -186.2 Q-827.2 -179.55 -819.3 -172.35 L-819.7 -171.8 -819.85 -171.55 -825.7 -176.6 Q-827.1 -176.6 -825.85 -175.5 L-820.05 -170.5 -820.05 -170.4 -820.0 -169.65 Q-819.1 -167.15 -816.85 -167.5 -815.1 -165.65 -813.8 -163.5 -812.5 -161.45 -810.65 -159.9 -811.3 -159.05 -811.2 -157.8 L-811.05 -157.0 Q-814.2 -158.9 -817.05 -161.4 -821.05 -164.75 -825.45 -167.5 L-826.1 -167.5 Q-824.2 -163.1 -818.8 -159.3 L-809.6 -152.6 Q-806.0 -149.85 -802.0 -148.9 L-802.45 -149.8 -802.4 -149.8 Q-801.6 -149.85 -800.8 -150.2 L-800.1 -150.5 -799.75 -150.3 Q-798.15 -149.0 -796.4 -148.0 L-795.75 -146.5 Q-794.35 -145.8 -792.95 -145.7 -792.2 -145.65 -791.85 -146.05 -789.35 -145.5 -788.4 -147.7 L-787.0 -147.55 Q-786.2 -147.6 -785.45 -147.9 -785.2 -148.3 -785.1 -148.75 -784.7 -150.7 -785.4 -152.5 -784.5 -153.1 -784.05 -154.6 L-784.25 -155.35 Q-785.2 -156.95 -786.9 -157.65 -788.3 -158.35 -789.5 -159.15 L-789.9 -159.4 -791.9 -164.65 Q-789.9 -161.75 -787.8 -159.1 -791.4 -166.95 -795.55 -174.45 L-798.5 -179.85 -806.8 -197.6 Q-811.5 -207.85 -818.45 -216.8 -817.65 -208.6 -812.15 -198.45 -808.45 -191.8 -805.35 -184.95 L-805.9 -185.25 Q-809.65 -184.7 -806.5 -181.2 -803.7 -178.1 -803.2 -179.85 L-801.85 -176.55 Q-798.2 -167.35 -793.55 -162.15 -794.95 -163.0 -796.4 -163.65 L-796.45 -163.5 -797.85 -162.9 -798.05 -162.75 -798.45 -162.9 -800.55 -162.75 Q-801.4 -162.65 -802.0 -162.15 -802.55 -161.6 -802.8 -160.9 L-802.95 -160.05 Q-803.7 -160.7 -804.55 -160.95 L-803.7 -161.25 Q-802.1 -161.8 -801.9 -163.6 -801.8 -164.8 -801.8 -166.05 -800.55 -167.95 -801.95 -170.15 L-804.6 -174.2 Q-806.05 -176.55 -808.6 -176.35 L-809.2 -175.65 Q-809.75 -173.55 -808.4 -171.6 L-808.05 -171.1 Q-809.0 -170.45 -809.8 -169.65 -810.55 -168.45 -811.2 -166.65 L-814.2 -169.85 Q-814.15 -170.5 -814.25 -171.2 -814.6 -173.65 -818.05 -174.2 -825.1 -182.4 -832.95 -189.5 -833.2 -190.75 -835.2 -191.5 L-838.25 -194.1 Q-849.1 -203.05 -859.85 -211.2 L-859.95 -211.2 M-860.5 -217.7 Q-860.3 -216.35 -859.5 -216.75 -858.55 -216.55 -858.9 -218.1 -859.15 -218.7 -859.95 -219.0 -860.55 -218.4 -860.55 -217.65 M-794.6 -177.9 Q-796.5 -176.0 -791.25 -176.35 -791.15 -178.7 -793.75 -178.35 L-794.6 -177.9" fill="#313131" fill-rule="evenodd" stroke="none"/>
      <path d="M-860.55 -217.65 Q-860.55 -218.4 -859.95 -219.0 -859.15 -218.7 -858.9 -218.1 -858.55 -216.55 -859.5 -216.75 -860.3 -216.35 -860.5 -217.7 M-859.95 -211.2 L-859.85 -211.2 Q-849.1 -203.05 -838.25 -194.1 L-835.2 -191.5 Q-833.2 -190.75 -832.95 -189.5 -825.1 -182.4 -818.05 -174.2 -814.6 -173.65 -814.25 -171.2 -814.15 -170.5 -814.2 -169.85 L-811.2 -166.65 Q-810.55 -168.45 -809.8 -169.65 -809.0 -170.45 -808.05 -171.1 L-808.4 -171.6 Q-809.75 -173.55 -809.2 -175.65 L-808.6 -176.35 Q-806.05 -176.55 -804.6 -174.2 L-801.95 -170.15 Q-800.55 -167.95 -801.8 -166.05 -801.8 -164.8 -801.9 -163.6 -802.1 -161.8 -803.7 -161.25 L-804.55 -160.95 Q-803.7 -160.7 -802.95 -160.05 L-802.8 -160.9 Q-802.55 -161.6 -802.0 -162.15 -801.4 -162.65 -800.55 -162.75 L-798.45 -162.9 -798.05 -162.75 -797.85 -162.9 -796.45 -163.5 -796.4 -163.65 Q-794.95 -163.0 -793.55 -162.15 -798.2 -167.35 -801.85 -176.55 L-803.2 -179.85 Q-803.7 -178.1 -806.5 -181.2 -809.65 -184.7 -805.9 -185.25 L-805.35 -184.95 Q-808.45 -191.8 -812.15 -198.45 -817.65 -208.6 -818.45 -216.8 -811.5 -207.85 -806.8 -197.6 L-798.5 -179.85 -795.55 -174.45 Q-791.4 -166.95 -787.8 -159.1 -789.9 -161.75 -791.9 -164.65 L-789.9 -159.4 -789.5 -159.15 Q-788.3 -158.35 -786.9 -157.65 -785.2 -156.95 -784.25 -155.35 L-784.05 -154.6 Q-784.5 -153.1 -785.4 -152.5 -784.7 -150.7 -785.1 -148.75 -785.2 -148.3 -785.45 -147.9 -786.2 -147.6 -787.0 -147.55 L-788.4 -147.7 Q-789.35 -145.5 -791.85 -146.05 -792.2 -145.65 -792.95 -145.7 -794.35 -145.8 -795.75 -146.5 L-796.4 -148.0 Q-798.15 -149.0 -799.75 -150.3 L-800.1 -150.5 -800.8 -150.2 Q-801.6 -149.85 -802.4 -149.8 L-802.45 -149.8 -802.0 -148.9 Q-806.0 -149.85 -809.6 -152.6 L-818.8 -159.3 Q-824.2 -163.1 -826.1 -167.5 L-825.45 -167.5 Q-821.05 -164.75 -817.05 -161.4 -814.2 -158.9 -811.05 -157.0 L-811.2 -157.8 Q-811.3 -159.05 -810.65 -159.9 -812.5 -161.45 -813.8 -163.5 -815.1 -165.65 -816.85 -167.5 -819.1 -167.15 -820.0 -169.65 L-820.05 -170.4 -820.05 -170.5 -825.85 -175.5 Q-827.1 -176.6 -825.7 -176.6 L-819.85 -171.55 -819.7 -171.8 -819.3 -172.35 Q-827.2 -179.55 -835.4 -186.2 L-836.1 -186.75 -837.7 -188.05 Q-851.7 -199.25 -859.95 -211.05 M-839.95 -214.3 L-839.8 -215.1 Q-838.7 -216.05 -838.1 -216.3 -836.85 -216.15 -836.15 -215.15 -834.3 -214.05 -834.6 -212.4 -835.3 -210.7 -837.05 -211.55 -838.55 -210.95 -839.25 -212.65 L-839.75 -213.5 -839.95 -214.3 M-833.95 -195.4 L-833.7 -196.25 -832.1 -197.8 Q-830.35 -198.45 -829.5 -198.4 L-827.7 -197.95 -826.35 -197.35 -825.3 -196.2 -824.35 -194.15 -823.2 -191.3 Q-822.55 -189.6 -822.65 -188.05 -822.9 -186.7 -824.35 -186.2 -826.8 -186.1 -828.85 -187.9 -831.55 -189.6 -833.0 -192.5 -833.7 -193.95 -834.0 -195.45 M-819.3 -188.8 Q-819.25 -189.35 -818.15 -189.15 -815.8 -186.15 -814.35 -185.2 -812.95 -184.2 -813.65 -182.55 L-813.75 -181.85 Q-815.0 -180.75 -816.25 -182.4 L-818.5 -185.85 Q-819.35 -187.35 -819.25 -188.75 M-815.55 -168.0 L-814.95 -168.4 -811.3 -164.55 -815.5 -168.0 M-806.5 -204.55 L-806.4 -205.35 Q-805.3 -206.85 -804.5 -207.15 -802.3 -207.35 -801.85 -206.2 -800.15 -204.95 -800.85 -203.2 -801.75 -201.65 -803.6 -202.2 -805.1 -202.0 -806.05 -203.45 L-806.5 -204.55 M-801.35 -188.4 L-801.3 -189.2 Q-800.15 -190.7 -799.35 -191.0 -797.15 -191.25 -796.7 -190.05 -794.95 -188.8 -795.65 -187.05 -796.55 -185.5 -798.45 -186.05 -799.9 -185.85 -800.9 -187.25 L-801.35 -188.4 M-798.4 -165.8 L-797.75 -166.0 Q-796.65 -163.65 -797.55 -163.85 -799.25 -164.6 -798.45 -165.8 L-797.8 -166.0 Q-796.7 -163.65 -797.6 -163.85 -799.3 -164.6 -798.5 -165.8 M-794.6 -177.9 L-793.75 -178.35 Q-791.15 -178.7 -791.25 -176.35 -796.5 -176.0 -794.6 -177.9 L-793.75 -178.35 Q-791.15 -178.7 -791.25 -176.35 -796.5 -176.0 -794.6 -177.9 Z" fill="none" stroke="#000000" stroke-linecap="round" stroke-linejoin="round" stroke-opacity="0.0" stroke-width="0.0"/>
    </g>
    <g id="sprite2" transform="matrix(1.0, 0.0, 0.0, 1.0, 265.1, 150.0)">
      <use ffdec:characterId="3477" height="300.0" transform="matrix(1.0, 0.0, 0.0, 1.0, -265.1, -150.0)" width="533.0" xlink:href="#shape4"/>
    </g>
    <g id="shape4" transform="matrix(1.0, 0.0, 0.0, 1.0, 265.1, 150.0)">
      <path d="M267.9 -150.0 L267.9 150.0 -265.1 150.0 -265.1 -150.0 267.9 -150.0 Z" fill="none" stroke="#ff0000" stroke-linecap="round" stroke-linejoin="round" stroke-width="0.05"/>
      <path d="M1.4 -16.05 L1.45 -16.05 Q9.35 -16.05 14.95 -11.35 20.55 -6.65 20.55 0.0 L39.5 0.0 M20.55 0.0 Q20.55 6.65 14.95 11.35 9.35 16.05 1.45 16.05 L1.4 16.05 1.4 21.45 M-36.65 0.0 L-17.55 0.0 -17.55 -0.05 Q-17.55 -6.65 -11.95 -11.35 -6.4 -16.05 1.4 -16.05 M1.4 16.05 Q-6.4 16.05 -11.95 11.35 -17.55 6.65 -17.55 0.0" fill="none" stroke="#ff0000" stroke-linecap="round" stroke-linejoin="round" stroke-opacity="0.2509804" stroke-width="0.05"/>
      <path d="M1.4 -16.05 L1.4 -21.4" fill="none" stroke="#ff0000" stroke-linecap="round" stroke-linejoin="round" stroke-opacity="0.2509804" stroke-width="1.0"/>
      <path d="M181.15 141.4 L181.15 123.6 191.05 123.6 191.05 141.4 181.15 141.4" fill="#ffffff" fill-rule="evenodd" stroke="none"/>
      <path d="M250.55 123.6 L260.45 123.6 260.45 141.4 260.35 141.4 250.55 141.4 250.55 123.6" fill="#000000" fill-rule="evenodd" stroke="none"/>
      <path d="M230.7 123.6 L240.6 123.6 240.6 141.4 230.7 141.4 230.7 123.6" fill="#ff0000" fill-rule="evenodd" stroke="none"/>
      <path d="M191.05 123.6 L201.0 123.6 201.0 141.4 191.05 141.4 191.05 123.6" fill="#ffff00" fill-rule="evenodd" stroke="none"/>
      <path d="M201.0 123.6 L210.9 123.6 210.9 141.4 201.0 141.4 201.0 123.6" fill="#00ffff" fill-rule="evenodd" stroke="none"/>
      <path d="M210.9 123.6 L220.8 123.6 220.8 141.4 210.9 141.4 210.9 123.6" fill="#00ff00" fill-rule="evenodd" stroke="none"/>
      <path d="M220.8 123.6 L230.7 123.6 230.7 141.4 220.8 141.4 220.8 123.6" fill="#ff00ff" fill-rule="evenodd" stroke="none"/>
      <path d="M240.6 123.6 L250.55 123.6 250.55 141.4 240.6 141.4 240.6 123.6" fill="#0000ff" fill-rule="evenodd" stroke="none"/>
      <path d="M260.35 141.4 L260.35 145.4 181.1 145.4 181.1 141.4 181.15 141.4 191.05 141.4 201.0 141.4 210.9 141.4 220.8 141.4 230.7 141.4 240.6 141.4 250.55 141.4 260.35 141.4" fill="url(#gradient1)" fill-rule="evenodd" stroke="none"/>
    </g>
    <linearGradient gradientTransform="matrix(0.0484, 0.0, 0.0, 0.0024, 220.7, 143.35)" gradientUnits="userSpaceOnUse" id="gradient1" spreadMethod="pad" x1="-819.2" x2="819.2">
      <stop offset="0.0" stop-color="#ffffff"/>
      <stop offset="1.0" stop-color="#000000"/>
    </linearGradient>
  </defs>
</svg>
