<?xml version="1.0" encoding="UTF-8" standalone="no"?>
<svg xmlns:ffdec="https://www.free-decompiler.com/flash" xmlns:xlink="http://www.w3.org/1999/xlink" ffdec:objectType="frame" height="4004.1px" width="7682.6px" xmlns="http://www.w3.org/2000/svg">
  <g transform="matrix(2.0, 0.0, 0.0, 2.0, 4622.9, 1925.9)">
    <use ffdec:characterId="333" height="372.95" transform="matrix(2.0745, 0.0, 0.0, 1.0111, -262.0106, -216.0102)" width="608.0" xlink:href="#shape0"/>
    <use ffdec:characterId="2870" height="300.0" transform="matrix(1.2648, 0.0, 0.0, 1.177, -995.25, -219.95)" width="533.0" xlink:href="#shape1"/>
    <use ffdec:characterId="3588" height="349.8" transform="matrix(0.9993, -0.0309, 0.0309, 0.9993, -878.3411, -187.5891)" width="413.65" xlink:href="#sprite0"/>
    <use ffdec:characterId="3586" height="103.0" transform="matrix(-0.9744, -0.2169, 0.2169, -0.9744, -801.7724, -55.7692)" width="276.8" xlink:href="#sprite1"/>
    <use ffdec:characterId="3589" height="84.0" transform="matrix(1.0, 0.0, 0.0, 1.0, -891.25, -228.05)" width="115.6" xlink:href="#morphshape0"/>
    <use ffdec:characterId="3478" height="300.0" transform="matrix(1.032, 0.0, 0.0, 1.032, -975.2947, -208.8019)" width="533.0" xlink:href="#sprite2"/>
  </g>
  <defs>
    <g id="shape0" transform="matrix(1.0, 0.0, 0.0, 1.0, -26.7, -26.05)">
      <path d="M634.7 26.05 L634.7 399.0 26.7 399.0 26.7 26.05 634.7 26.05" fill="#000000" fill-rule="evenodd" stroke="none"/>
    </g>
    <g id="shape1" transform="matrix(1.0, 0.0, 0.0, 1.0, 0.0, 0.0)">
      <path d="M533.0 300.0 L0.0 300.0 0.0 0.0 533.0 0.0 533.0 300.0" fill="#ffffff" fill-rule="evenodd" stroke="none"/>
    </g>
    <g id="sprite0" transform="matrix(1.0, 0.0, 0.0, 1.0, 0.0, 15.9)">
      <use ffdec:characterId="3587" height="349.8" transform="matrix(1.0, 0.0, 0.0, 1.0, 0.0, -15.9)" width="413.65" xlink:href="#shape2"/>
    </g>
    <g id="shape2" transform="matrix(1.0, 0.0, 0.0, 1.0, 0.0, 15.9)">
      <path d="M105.35 -11.25 L90.5 30.05 90.35 30.9 Q74.55 81.8 69.15 137.1 L63.4 118.15 Q68.85 71.3 80.1 27.95 L84.25 17.6 Q90.35 1.6 93.3 -14.7 101.8 -18.3 105.35 -11.25" fill="#2d2d2d" fill-rule="evenodd" stroke="none"/>
      <path d="M329.25 120.55 L331.3 123.0 Q335.6 129.05 332.75 136.0 331.35 139.35 330.55 142.95 L329.95 143.2 Q330.25 144.2 330.0 145.05 329.75 146.15 328.95 147.0 L327.7 148.1 327.3 148.25 324.85 146.2 320.9 147.6 Q319.45 143.5 320.9 139.7 L313.05 135.4 312.95 134.7 Q300.45 133.0 289.05 139.75 275.5 147.7 259.45 148.35 L251.35 149.6 247.4 150.35 Q264.3 184.75 282.8 218.25 286.9 225.7 289.65 233.8 295.8 252.15 296.65 271.5 L301.7 271.45 301.65 272.55 Q318.3 274.8 334.9 271.4 L337.2 270.5 Q349.7 264.8 362.95 269.3 366.45 270.55 370.2 271.1 L383.7 271.55 Q388.8 272.25 393.0 275.4 398.45 279.4 401.35 285.3 403.5 289.7 403.7 294.45 L403.85 298.6 Q411.6 302.95 413.25 311.5 414.3 316.95 412.55 322.0 L411.1 322.4 412.6 327.85 407.2 321.9 Q405.6 324.15 403.1 324.75 355.1 334.55 306.1 333.85 L226.25 331.25 215.15 331.4 Q194.65 331.45 175.5 324.55 172.5 323.4 170.1 320.85 163.65 313.9 160.9 304.8 158.0 295.15 158.15 285.0 158.25 276.05 160.9 267.6 L150.35 252.2 Q133.0 274.4 114.1 295.35 L114.05 303.95 115.25 303.95 113.9 306.05 Q105.0 312.85 93.75 312.7 73.75 312.45 63.55 295.0 57.6 284.8 55.8 273.0 50.9 240.4 44.2 208.25 43.35 204.2 41.15 200.65 35.0 190.8 25.8 183.55 16.0 175.9 6.65 167.4 3.85 164.8 3.7 160.85 L3.8 157.0 Q0.2 155.35 1.2 151.75 2.0 148.9 0.0 146.45 0.75 142.05 3.6 138.7 5.1 137.0 6.85 135.6 L7.0 129.95 Q9.2 127.7 11.9 128.9 13.5 129.6 14.0 131.2 17.45 130.45 17.95 133.7 18.15 135.0 17.95 136.35 17.7 138.15 16.6 139.6 24.05 138.0 27.35 143.25 27.95 144.15 28.1 145.35 L31.6 145.6 Q33.65 138.35 40.1 141.95 45.5 144.9 50.65 148.3 62.0 155.75 63.45 169.5 63.7 172.05 64.6 174.65 70.0 189.85 76.0 204.75 80.9 216.95 86.5 228.9 L92.6 194.45 Q83.4 182.75 85.5 168.05 88.2 148.95 92.6 130.35 96.1 115.5 111.7 116.35 L111.65 115.6 112.25 115.75 112.8 115.2 113.2 115.95 Q114.35 114.35 113.6 112.35 112.5 109.55 110.4 107.25 102.85 106.1 96.0 108.95 L98.6 111.0 Q88.7 114.65 77.6 112.15 54.35 107.05 37.15 91.1 28.25 82.8 28.4 70.8 28.45 68.7 27.1 67.1 L25.25 64.95 Q31.4 49.35 39.7 34.8 41.6 31.45 42.75 27.65 43.9 23.9 43.45 20.1 L45.0 19.8 Q45.05 21.65 45.4 23.7 45.6 24.85 46.5 25.75 L46.95 26.25 Q48.65 22.8 48.4 19.05 L48.15 16.45 49.0 16.3 52.4 22.8 55.9 11.5 57.0 11.3 58.5 19.55 Q64.15 11.35 62.75 1.4 L62.5 0.05 63.95 0.25 64.9 1.5 68.05 19.6 Q86.6 19.85 104.55 25.1 106.0 27.25 108.4 27.8 L110.4 27.55 Q111.7 26.85 114.45 27.6 116.9 26.45 120.15 27.9 123.35 29.35 125.2 29.25 126.25 29.6 126.9 30.7 127.8 32.3 127.95 34.15 138.55 40.0 149.5 44.5 155.5 46.9 156.55 53.4 L159.85 56.05 Q174.3 56.0 186.7 64.35 196.35 70.85 199.45 81.85 200.5 85.7 202.85 89.25 208.05 97.15 214.15 104.45 221.1 112.7 232.15 114.15 240.15 114.9 248.1 114.05 L300.4 110.8 Q307.3 110.25 313.9 110.45 317.65 110.8 320.8 113.0 L324.6 115.95 329.25 120.55 M338.4 271.8 L333.4 280.55 Q339.85 277.8 346.65 278.05 357.2 278.85 365.15 285.85 L366.75 287.4 372.15 276.25 371.55 276.2 371.35 275.65 Q357.0 268.25 341.55 270.35 L338.4 271.8 M371.85 282.9 Q388.55 285.45 401.3 296.55 399.9 280.25 385.05 274.3 381.5 272.85 377.6 273.55 L374.0 275.9 371.85 282.9 M94.25 130.4 Q92.95 138.9 91.15 147.5 89.2 156.75 87.9 165.85 86.3 176.8 90.65 186.75 91.8 189.35 93.2 191.5 L93.4 190.45 95.05 192.8 94.8 194.15 99.55 202.1 Q93.35 191.1 92.15 178.75 91.75 174.55 92.65 170.3 96.6 152.1 98.9 133.5 99.25 130.8 100.55 128.4 102.2 125.5 105.45 124.1 116.55 119.4 128.7 120.8 118.2 117.3 107.75 118.2 96.1 118.5 94.25 130.4 M5.0 159.45 Q6.05 164.8 10.45 168.3 L23.4 178.65 Q33.1 186.2 40.6 196.25 L41.25 196.15 Q42.2 197.6 42.75 199.35 44.75 205.5 46.15 211.7 49.65 227.05 51.7 241.55 54.3 259.85 58.25 278.0 63.3 301.5 84.65 310.6 80.1 308.2 76.4 304.5 68.75 296.7 64.45 286.7 59.9 276.2 58.65 264.6 L56.95 246.2 Q56.1 235.8 54.6 225.55 53.05 215.25 49.85 205.3 46.2 194.1 37.15 186.65 L22.0 174.35 Q12.75 166.9 5.55 158.35 L5.0 159.45 M46.7 37.0 L48.65 32.5 Q39.05 38.75 34.95 49.5 36.65 47.4 39.1 45.85 40.5 45.05 41.9 44.8 34.2 51.6 31.35 61.4 30.25 65.2 30.1 69.3 L31.75 65.7 32.7 65.35 Q29.7 72.15 31.25 79.6 L31.7 81.6 32.7 81.65 Q37.95 93.25 58.05 103.45 78.1 113.65 94.8 110.8 L63.95 104.85 57.15 96.45 56.15 99.1 45.7 89.3 42.75 90.45 Q40.35 80.85 41.15 70.95 L35.8 75.05 39.65 56.35 35.15 59.1 34.2 59.05 Q39.35 46.7 49.45 37.8 L49.1 36.45 46.7 37.0 M49.7 23.2 L49.65 23.05 49.5 23.05 49.5 23.25 49.7 23.2 M224.85 113.5 L227.6 117.1 232.05 124.6 Q245.3 123.3 258.05 118.85 262.0 117.45 266.05 117.2 L296.2 113.65 Q303.3 112.5 310.3 113.45 L316.35 113.3 Q309.85 111.1 302.9 111.95 L281.75 113.45 261.0 114.95 247.3 116.2 Q235.8 116.2 224.85 113.5 M208.05 142.9 L207.15 139.15 Q203.6 129.3 201.0 119.05 L198.7 109.35 197.3 126.7 170.35 123.3 Q180.6 126.3 189.65 131.75 198.9 137.2 208.05 142.9 M162.35 57.75 Q171.75 62.8 181.1 68.2 189.5 73.1 195.7 80.65 195.15 77.4 193.45 74.45 189.2 66.85 181.25 63.2 L175.85 60.55 Q169.5 57.3 162.35 57.75" fill="url(#gradient0)" fill-rule="evenodd" stroke="none"/>
    </g>
    <linearGradient gradientTransform="matrix(0.0, 0.1649, -0.1894, 0.0, 414.85, 179.2)" gradientUnits="userSpaceOnUse" id="gradient0" spreadMethod="pad" x1="-819.2" x2="819.2">
      <stop offset="0.0" stop-color="#333333"/>
      <stop offset="1.0" stop-color="#000000"/>
    </linearGradient>
    <g id="sprite1" transform="matrix(1.0, 0.0, 0.0, 1.0, 62.65, 21.75)">
      <use ffdec:characterId="3585" height="103.0" transform="matrix(1.0, 0.0, 0.0, 1.0, -62.65, -21.75)" width="276.8" xlink:href="#shape3"/>
    </g>
    <g id="shape3" transform="matrix(1.0, 0.0, 0.0, 1.0, 62.65, 21.75)">
      <path d="M7.7 -5.95 L82.35 2.2 77.3 -7.45 13.05 -14.35 7.7 -5.95 M82.15 -13.75 L89.2 3.05 90.8 3.1 108.4 -5.2 136.2 1.65 147.5 2.8 143.75 2.55 147.45 3.15 147.65 3.0 153.2 3.6 153.25 3.3 169.95 4.9 169.45 6.2 177.6 6.7 177.35 5.65 189.85 6.85 197.85 -5.35 202.05 -4.9 200.5 7.9 204.7 8.35 199.45 25.7 196.0 25.55 196.4 24.05 196.45 23.7 189.05 23.0 189.3 24.9 151.45 21.0 149.3 39.35 124.25 36.2 122.65 49.25 214.15 59.25 191.55 75.05 141.5 75.55 140.05 70.35 132.2 69.35 129.4 74.05 119.6 72.95 118.6 81.25 104.4 76.5 95.3 57.9 72.1 55.15 62.35 63.3 51.55 59.65 42.3 28.65 42.5 26.1 6.0 21.55 -2.3 74.6 -11.25 74.65 -10.8 23.05 -10.35 22.65 -62.65 28.65 -52.1 -6.9 -30.3 -14.15 -11.7 -7.95 -0.7 -6.85 8.5 -21.75 82.15 -13.75" fill="#262626" fill-rule="evenodd" stroke="none"/>
    </g>
    <g id="morphshape0" transform="matrix(1.0, 0.0, 0.0, 1.0, 891.25, 228.05)">
      <path d="M-803.8 -189.05 L-803.4 -187.95 Q-802.45 -186.6 -801.15 -186.65 -799.2 -185.85 -798.1 -187.35 -797.25 -189.0 -798.85 -190.4 -799.35 -191.85 -801.65 -191.7 -802.45 -191.4 -803.7 -189.85 L-803.8 -189.05 M-809.25 -205.5 L-808.85 -204.45 Q-808.0 -203.1 -806.6 -203.2 -804.7 -202.4 -803.6 -203.9 -802.75 -205.55 -804.35 -206.95 -804.85 -208.35 -807.2 -208.2 -808.05 -207.9 -809.25 -206.35 L-809.35 -205.5 M-817.9 -168.2 L-813.55 -164.65 -817.3 -168.6 -817.9 -168.2 M-822.1 -189.3 Q-822.2 -187.85 -821.3 -186.3 L-818.95 -182.8 Q-817.6 -181.1 -816.3 -182.2 L-816.2 -182.9 Q-815.55 -184.6 -817.0 -185.6 -818.5 -186.6 -820.95 -189.7 -822.1 -189.95 -822.1 -189.4 M-837.05 -196.15 Q-836.8 -194.8 -836.2 -193.45 -834.75 -190.55 -832.15 -188.7 -830.0 -186.65 -827.35 -186.6 -825.85 -187.0 -825.45 -188.3 -825.25 -189.9 -825.95 -191.65 L-827.2 -194.6 -828.25 -196.75 -829.35 -198.0 -830.7 -198.65 -832.45 -199.15 Q-833.35 -199.25 -835.2 -198.65 L-836.85 -197.05 -837.15 -196.2 M-843.6 -215.45 L-843.4 -214.65 -842.95 -213.75 Q-842.3 -212.2 -840.95 -212.65 -839.2 -211.5 -838.2 -213.2 -837.7 -214.75 -839.45 -216.0 -840.25 -217.2 -841.7 -217.4 -842.35 -217.1 -843.4 -216.25 L-843.6 -215.45 M-863.95 -212.25 Q-855.3 -200.2 -840.85 -188.8 L-839.2 -187.45 -838.5 -186.85 Q-830.0 -180.05 -821.8 -172.75 L-822.2 -172.15 -822.3 -171.85 -828.35 -177.0 Q-829.8 -177.0 -828.5 -175.85 L-822.5 -170.75 -822.5 -170.6 -822.45 -169.8 Q-821.45 -167.25 -819.15 -167.6 -817.35 -165.7 -815.95 -163.5 -814.6 -161.4 -812.65 -159.8 -813.25 -158.95 -813.15 -157.7 L-812.95 -156.85 Q-816.2 -158.8 -819.15 -161.35 -823.25 -164.8 -827.8 -167.6 L-828.5 -167.6 Q-826.5 -163.1 -820.9 -159.2 L-811.4 -152.4 Q-807.65 -149.6 -803.55 -148.6 L-804.05 -149.5 -803.95 -149.5 Q-803.1 -149.6 -802.3 -150.0 L-801.6 -150.3 -801.25 -150.05 Q-799.6 -148.7 -797.8 -147.7 L-797.1 -146.15 Q-795.65 -145.45 -794.2 -145.35 -793.4 -145.3 -793.1 -145.7 -790.55 -145.1 -789.6 -147.35 L-788.15 -147.15 Q-787.3 -147.2 -786.5 -147.5 -786.3 -147.9 -786.25 -148.35 -785.9 -150.35 -786.65 -152.2 -785.7 -152.8 -785.3 -154.35 L-785.5 -155.1 Q-786.5 -156.75 -788.25 -157.5 -789.7 -158.25 -790.95 -159.1 L-791.4 -159.4 -793.5 -164.75 Q-791.4 -161.8 -789.25 -159.1 -793.05 -167.1 -797.4 -174.75 L-800.5 -180.25 -809.3 -198.35 Q-814.3 -208.8 -821.55 -217.9 -820.6 -209.55 -814.8 -199.25 -810.9 -192.45 -807.65 -185.45 L-808.2 -185.75 Q-812.0 -185.2 -808.7 -181.65 -805.8 -178.45 -805.3 -180.25 L-803.85 -176.9 Q-800.0 -167.55 -795.2 -162.25 -796.65 -163.15 -798.15 -163.85 L-798.2 -163.65 -799.6 -163.0 -799.8 -162.8 -800.25 -163.0 -802.4 -162.8 Q-803.25 -162.7 -803.9 -162.15 -804.45 -161.65 -804.7 -160.9 L-804.8 -160.05 Q-805.6 -160.75 -806.5 -161.05 L-805.6 -161.35 Q-803.95 -161.9 -803.8 -163.75 -803.75 -165.0 -803.75 -166.25 -802.5 -168.2 -804.0 -170.45 L-806.8 -174.55 Q-808.3 -176.95 -810.9 -176.7 L-811.5 -176.0 Q-812.0 -173.85 -810.55 -171.85 L-810.2 -171.35 Q-811.2 -170.75 -811.95 -169.9 -812.65 -168.75 -813.25 -166.85 L-816.4 -170.1 Q-816.35 -170.8 -816.5 -171.55 -816.9 -174.05 -820.45 -174.6 -827.8 -182.95 -835.95 -190.2 -836.25 -191.45 -838.3 -192.2 L-841.45 -194.85 Q-852.65 -203.95 -863.75 -212.25 L-863.9 -212.25 M-864.7 -218.9 Q-864.6 -217.6 -863.75 -217.8 -862.75 -217.4 -863.0 -219.05 -863.15 -219.75 -864.05 -220.2 -864.6 -219.65 -864.65 -218.95 M-796.6 -178.25 Q-798.55 -176.3 -793.2 -176.65 -793.15 -179.05 -795.8 -178.7 L-796.65 -178.25" fill="#313131" fill-rule="evenodd" stroke="none"/>
      <path d="M-864.65 -218.95 Q-864.6 -219.65 -864.05 -220.2 -863.15 -219.75 -863.0 -219.05 -862.75 -217.4 -863.75 -217.8 -864.6 -217.6 -864.7 -218.9 M-863.9 -212.25 L-863.75 -212.25 Q-852.65 -203.95 -841.45 -194.85 L-838.3 -192.2 Q-836.25 -191.45 -835.95 -190.2 -827.8 -182.95 -820.45 -174.6 -816.9 -174.05 -816.5 -171.55 -816.35 -170.8 -816.4 -170.1 L-813.25 -166.85 Q-812.65 -168.75 -811.95 -169.9 -811.2 -170.75 -810.2 -171.35 L-810.55 -171.85 Q-812.0 -173.85 -811.5 -176.0 L-810.9 -176.7 Q-808.3 -176.95 -806.8 -174.55 L-804.0 -170.45 Q-802.5 -168.2 -803.75 -166.25 -803.75 -165.0 -803.8 -163.75 -803.95 -161.9 -805.6 -161.35 L-806.5 -161.05 Q-805.6 -160.75 -804.8 -160.05 L-804.7 -160.9 Q-804.45 -161.65 -803.9 -162.15 -803.25 -162.7 -802.4 -162.8 L-800.25 -163.0 -799.8 -162.8 -799.6 -163.0 -798.2 -163.65 -798.15 -163.85 Q-796.65 -163.15 -795.2 -162.25 -800.0 -167.55 -803.85 -176.9 L-805.3 -180.25 Q-805.8 -178.45 -808.7 -181.65 -812.0 -185.2 -808.2 -185.75 L-807.65 -185.45 Q-810.9 -192.45 -814.8 -199.25 -820.6 -209.55 -821.55 -217.9 -814.3 -208.8 -809.3 -198.35 L-800.5 -180.25 -797.4 -174.75 Q-793.05 -167.1 -789.25 -159.1 -791.4 -161.8 -793.5 -164.75 L-791.4 -159.4 -790.95 -159.1 Q-789.7 -158.25 -788.25 -157.5 -786.5 -156.75 -785.5 -155.1 L-785.3 -154.35 Q-785.7 -152.8 -786.65 -152.2 -785.9 -150.35 -786.25 -148.35 -786.3 -147.9 -786.5 -147.5 -787.3 -147.2 -788.15 -147.15 L-789.6 -147.35 Q-790.55 -145.1 -793.1 -145.7 -793.4 -145.3 -794.2 -145.35 -795.65 -145.45 -797.1 -146.15 L-797.8 -147.7 Q-799.6 -148.7 -801.25 -150.05 L-801.6 -150.3 -802.3 -150.0 Q-803.1 -149.6 -803.95 -149.5 L-804.05 -149.5 -803.55 -148.6 Q-807.65 -149.6 -811.4 -152.4 L-820.9 -159.2 Q-826.5 -163.1 -828.5 -167.6 L-827.8 -167.6 Q-823.25 -164.8 -819.15 -161.35 -816.2 -158.8 -812.95 -156.85 L-813.15 -157.7 Q-813.25 -158.95 -812.65 -159.8 -814.6 -161.4 -815.95 -163.5 -817.35 -165.7 -819.15 -167.6 -821.45 -167.25 -822.45 -169.8 L-822.5 -170.6 -822.5 -170.75 -828.5 -175.85 Q-829.8 -177.0 -828.35 -177.0 L-822.3 -171.85 -822.2 -172.15 -821.8 -172.75 Q-830.0 -180.05 -838.5 -186.85 L-839.2 -187.45 -840.85 -188.8 Q-855.3 -200.2 -863.95 -212.25 M-843.6 -215.45 L-843.4 -216.25 Q-842.35 -217.1 -841.7 -217.4 -840.25 -217.2 -839.45 -216.0 -837.7 -214.75 -838.2 -213.2 -839.2 -211.5 -840.95 -212.65 -842.3 -212.2 -842.95 -213.75 L-843.4 -214.65 -843.6 -215.45 M-837.15 -196.2 L-836.85 -197.05 -835.2 -198.65 Q-833.35 -199.25 -832.45 -199.15 L-830.7 -198.65 -829.35 -198.0 -828.25 -196.75 -827.2 -194.6 -825.95 -191.65 Q-825.25 -189.9 -825.45 -188.3 -825.85 -187.0 -827.35 -186.6 -830.0 -186.65 -832.15 -188.7 -834.75 -190.55 -836.2 -193.45 -836.8 -194.8 -837.05 -196.15 M-822.1 -189.4 Q-822.1 -189.95 -820.95 -189.7 -818.5 -186.6 -817.0 -185.6 -815.55 -184.6 -816.2 -182.9 L-816.3 -182.2 Q-817.6 -181.1 -818.95 -182.8 L-821.3 -186.3 Q-822.2 -187.85 -822.1 -189.3 M-817.9 -168.2 L-817.3 -168.6 -813.55 -164.65 -817.9 -168.2 M-809.35 -205.5 L-809.25 -206.35 Q-808.05 -207.9 -807.2 -208.2 -804.85 -208.35 -804.35 -206.95 -802.75 -205.55 -803.6 -203.9 -804.7 -202.4 -806.6 -203.2 -808.0 -203.1 -808.85 -204.45 L-809.25 -205.5 M-803.8 -189.05 L-803.7 -189.85 Q-802.45 -191.4 -801.65 -191.7 -799.35 -191.85 -798.85 -190.4 -797.25 -189.0 -798.1 -187.35 -799.2 -185.85 -801.15 -186.65 -802.45 -186.6 -803.4 -187.95 L-803.8 -189.05 M-801.2 -164.0 L-800.55 -164.15 Q-799.55 -162.1 -800.3 -162.2 -801.85 -162.9 -801.2 -164.0 L-800.55 -164.15 Q-799.55 -162.1 -800.3 -162.2 -801.85 -162.9 -801.2 -164.0 M-796.7 -178.25 L-795.85 -178.7 Q-793.2 -179.05 -793.25 -176.65 -798.6 -176.3 -796.65 -178.25 L-795.8 -178.7 Q-793.15 -179.05 -793.2 -176.65 -798.55 -176.3 -796.6 -178.25" fill="none" stroke="#000000" stroke-linecap="round" stroke-linejoin="round" stroke-opacity="0.0" stroke-width="0.0"/>
    </g>
    <g id="sprite2" transform="matrix(1.0, 0.0, 0.0, 1.0, 265.1, 150.0)">
      <use ffdec:characterId="3477" height="300.0" transform="matrix(1.0, 0.0, 0.0, 1.0, -265.1, -150.0)" width="533.0" xlink:href="#shape4"/>
    </g>
    <g id="shape4" transform="matrix(1.0, 0.0, 0.0, 1.0, 265.1, 150.0)">
      <path d="M267.9 -150.0 L267.9 150.0 -265.1 150.0 -265.1 -150.0 267.9 -150.0 Z" fill="none" stroke="#ff0000" stroke-linecap="round" stroke-linejoin="round" stroke-width="0.05"/>
      <path d="M1.4 -16.05 L1.45 -16.05 Q9.35 -16.05 14.95 -11.35 20.55 -6.65 20.55 0.0 L39.5 0.0 M20.55 0.0 Q20.55 6.65 14.95 11.35 9.35 16.05 1.45 16.05 L1.4 16.05 1.4 21.45 M-36.65 0.0 L-17.55 0.0 -17.55 -0.05 Q-17.55 -6.65 -11.95 -11.35 -6.4 -16.05 1.4 -16.05 M1.4 16.05 Q-6.4 16.05 -11.95 11.35 -17.55 6.65 -17.55 0.0" fill="none" stroke="#ff0000" stroke-linecap="round" stroke-linejoin="round" stroke-opacity="0.2509804" stroke-width="0.05"/>
      <path d="M1.4 -16.05 L1.4 -21.4" fill="none" stroke="#ff0000" stroke-linecap="round" stroke-linejoin="round" stroke-opacity="0.2509804" stroke-width="1.0"/>
      <path d="M181.15 141.4 L181.15 123.6 191.05 123.6 191.05 141.4 181.15 141.4" fill="#ffffff" fill-rule="evenodd" stroke="none"/>
      <path d="M250.55 123.6 L260.45 123.6 260.45 141.4 260.35 141.4 250.55 141.4 250.55 123.6" fill="#000000" fill-rule="evenodd" stroke="none"/>
      <path d="M230.7 123.6 L240.6 123.6 240.6 141.4 230.7 141.4 230.7 123.6" fill="#ff0000" fill-rule="evenodd" stroke="none"/>
      <path d="M191.05 123.6 L201.0 123.6 201.0 141.4 191.05 141.4 191.05 123.6" fill="#ffff00" fill-rule="evenodd" stroke="none"/>
      <path d="M201.0 123.6 L210.9 123.6 210.9 141.4 201.0 141.4 201.0 123.6" fill="#00ffff" fill-rule="evenodd" stroke="none"/>
      <path d="M210.9 123.6 L220.8 123.6 220.8 141.4 210.9 141.4 210.9 123.6" fill="#00ff00" fill-rule="evenodd" stroke="none"/>
      <path d="M220.8 123.6 L230.7 123.6 230.7 141.4 220.8 141.4 220.8 123.6" fill="#ff00ff" fill-rule="evenodd" stroke="none"/>
      <path d="M240.6 123.6 L250.55 123.6 250.55 141.4 240.6 141.4 240.6 123.6" fill="#0000ff" fill-rule="evenodd" stroke="none"/>
      <path d="M260.35 141.4 L260.35 145.4 181.1 145.4 181.1 141.4 181.15 141.4 191.05 141.4 201.0 141.4 210.9 141.4 220.8 141.4 230.7 141.4 240.6 141.4 250.55 141.4 260.35 141.4" fill="url(#gradient1)" fill-rule="evenodd" stroke="none"/>
    </g>
    <linearGradient gradientTransform="matrix(0.0484, 0.0, 0.0, 0.0024, 220.7, 143.35)" gradientUnits="userSpaceOnUse" id="gradient1" spreadMethod="pad" x1="-819.2" x2="819.2">
      <stop offset="0.0" stop-color="#ffffff"/>
      <stop offset="1.0" stop-color="#000000"/>
    </linearGradient>
  </defs>
</svg>
