<?xml version="1.0" encoding="UTF-8" standalone="no"?>
<svg xmlns:ffdec="https://www.free-decompiler.com/flash" xmlns:xlink="http://www.w3.org/1999/xlink" ffdec:objectType="frame" height="4004.1px" width="7682.6px" xmlns="http://www.w3.org/2000/svg">
  <g transform="matrix(2.0, 0.0, 0.0, 2.0, 4622.9, 1925.9)">
    <use ffdec:characterId="333" height="372.95" transform="matrix(2.0745, 0.0, 0.0, 1.0111, -262.0106, -216.0102)" width="608.0" xlink:href="#shape0"/>
    <use ffdec:characterId="2870" height="300.0" transform="matrix(1.2648, 0.0, 0.0, 1.177, -995.25, -219.95)" width="533.0" xlink:href="#shape1"/>
    <use ffdec:characterId="3588" height="349.8" transform="matrix(0.9993, -0.0314, 0.0314, 0.9993, -878.5986, -187.4388)" width="413.65" xlink:href="#sprite0"/>
    <use ffdec:characterId="3586" height="103.0" transform="matrix(-0.988, -0.1437, 0.1437, -0.988, -798.1267, -64.0586)" width="276.8" xlink:href="#sprite1"/>
    <use ffdec:characterId="3589" height="84.0" transform="matrix(1.0, 0.0, 0.0, 1.0, -891.25, -228.05)" width="115.6" xlink:href="#morphshape0"/>
    <use ffdec:characterId="3478" height="300.0" transform="matrix(1.032, 0.0, 0.0, 1.032, -975.2947, -208.8019)" width="533.0" xlink:href="#sprite2"/>
  </g>
  <defs>
    <g id="shape0" transform="matrix(1.0, 0.0, 0.0, 1.0, -26.7, -26.05)">
      <path d="M634.7 26.05 L634.7 399.0 26.7 399.0 26.7 26.05 634.7 26.05" fill="#000000" fill-rule="evenodd" stroke="none"/>
    </g>
    <g id="shape1" transform="matrix(1.0, 0.0, 0.0, 1.0, 0.0, 0.0)">
      <path d="M533.0 300.0 L0.0 300.0 0.0 0.0 533.0 0.0 533.0 300.0" fill="#ffffff" fill-rule="evenodd" stroke="none"/>
    </g>
    <g id="sprite0" transform="matrix(1.0, 0.0, 0.0, 1.0, 0.0, 15.9)">
      <use ffdec:characterId="3587" height="349.8" transform="matrix(1.0, 0.0, 0.0, 1.0, 0.0, -15.9)" width="413.65" xlink:href="#shape2"/>
    </g>
    <g id="shape2" transform="matrix(1.0, 0.0, 0.0, 1.0, 0.0, 15.9)">
      <path d="M105.35 -11.25 L90.5 30.05 90.35 30.9 Q74.55 81.8 69.15 137.1 L63.4 118.15 Q68.85 71.3 80.1 27.95 L84.25 17.6 Q90.35 1.6 93.3 -14.7 101.8 -18.3 105.35 -11.25" fill="#2d2d2d" fill-rule="evenodd" stroke="none"/>
      <path d="M329.25 120.55 L331.3 123.0 Q335.6 129.05 332.75 136.0 331.35 139.35 330.55 142.95 L329.95 143.2 Q330.25 144.2 330.0 145.05 329.75 146.15 328.95 147.0 L327.7 148.1 327.3 148.25 324.85 146.2 320.9 147.6 Q319.45 143.5 320.9 139.7 L313.05 135.4 312.95 134.7 Q300.45 133.0 289.05 139.75 275.5 147.7 259.45 148.35 L251.35 149.6 247.4 150.35 Q264.3 184.75 282.8 218.25 286.9 225.7 289.65 233.8 295.8 252.15 296.65 271.5 L301.7 271.45 301.65 272.55 Q318.3 274.8 334.9 271.4 L337.2 270.5 Q349.7 264.8 362.95 269.3 366.45 270.55 370.2 271.1 L383.7 271.55 Q388.8 272.25 393.0 275.4 398.45 279.4 401.35 285.3 403.5 289.7 403.7 294.45 L403.85 298.6 Q411.6 302.95 413.25 311.5 414.3 316.95 412.55 322.0 L411.1 322.4 412.6 327.85 407.2 321.9 Q405.6 324.15 403.1 324.75 355.1 334.55 306.1 333.85 L226.25 331.25 215.15 331.4 Q194.65 331.45 175.5 324.55 172.5 323.4 170.1 320.85 163.65 313.9 160.9 304.8 158.0 295.15 158.15 285.0 158.25 276.05 160.9 267.6 L150.35 252.2 Q133.0 274.4 114.1 295.35 L114.05 303.95 115.25 303.95 113.9 306.05 Q105.0 312.85 93.75 312.7 73.75 312.45 63.55 295.0 57.6 284.8 55.8 273.0 50.9 240.4 44.2 208.25 43.35 204.2 41.15 200.65 35.0 190.8 25.8 183.55 16.0 175.9 6.65 167.4 3.85 164.8 3.7 160.85 L3.8 157.0 Q0.2 155.35 1.2 151.75 2.0 148.9 0.0 146.45 0.75 142.05 3.6 138.7 5.1 137.0 6.85 135.6 L7.0 129.95 Q9.2 127.7 11.9 128.9 13.5 129.6 14.0 131.2 17.45 130.45 17.95 133.7 18.15 135.0 17.95 136.35 17.7 138.15 16.6 139.6 24.05 138.0 27.35 143.25 27.95 144.15 28.1 145.35 L31.6 145.6 Q33.65 138.35 40.1 141.95 45.5 144.9 50.65 148.3 62.0 155.75 63.45 169.5 63.7 172.05 64.6 174.65 70.0 189.85 76.0 204.75 80.9 216.95 86.5 228.9 L92.6 194.45 Q83.4 182.75 85.5 168.05 88.2 148.95 92.6 130.35 96.1 115.5 111.7 116.35 L111.65 115.6 112.25 115.75 112.8 115.2 113.2 115.95 Q114.35 114.35 113.6 112.35 112.5 109.55 110.4 107.25 102.85 106.1 96.0 108.95 L98.6 111.0 Q88.7 114.65 77.6 112.15 54.35 107.05 37.15 91.1 28.25 82.8 28.4 70.8 28.45 68.7 27.1 67.1 L25.25 64.95 Q31.4 49.35 39.7 34.8 41.6 31.45 42.75 27.65 43.9 23.9 43.45 20.1 L45.0 19.8 Q45.05 21.65 45.4 23.7 45.6 24.85 46.5 25.75 L46.95 26.25 Q48.65 22.8 48.4 19.05 L48.15 16.45 49.0 16.3 52.4 22.8 55.9 11.5 57.0 11.3 58.5 19.55 Q64.15 11.35 62.75 1.4 L62.5 0.05 63.95 0.25 64.9 1.5 68.05 19.6 Q86.6 19.85 104.55 25.1 106.0 27.25 108.4 27.8 L110.4 27.55 Q111.7 26.85 114.45 27.6 116.9 26.45 120.15 27.9 123.35 29.35 125.2 29.25 126.25 29.6 126.9 30.7 127.8 32.3 127.95 34.15 138.55 40.0 149.5 44.5 155.5 46.9 156.55 53.4 L159.85 56.05 Q174.3 56.0 186.7 64.35 196.35 70.85 199.45 81.85 200.5 85.7 202.85 89.25 208.05 97.15 214.15 104.45 221.1 112.7 232.15 114.15 240.15 114.9 248.1 114.05 L300.4 110.8 Q307.3 110.25 313.9 110.45 317.65 110.8 320.8 113.0 L324.6 115.95 329.25 120.55 M338.4 271.8 L333.4 280.55 Q339.85 277.8 346.65 278.05 357.2 278.85 365.15 285.85 L366.75 287.4 372.15 276.25 371.55 276.2 371.35 275.65 Q357.0 268.25 341.55 270.35 L338.4 271.8 M371.85 282.9 Q388.55 285.45 401.3 296.55 399.9 280.25 385.05 274.3 381.5 272.85 377.6 273.55 L374.0 275.9 371.85 282.9 M94.25 130.4 Q92.95 138.9 91.15 147.5 89.2 156.75 87.9 165.85 86.3 176.8 90.65 186.75 91.8 189.35 93.2 191.5 L93.4 190.45 95.05 192.8 94.8 194.15 99.55 202.1 Q93.35 191.1 92.15 178.75 91.75 174.55 92.65 170.3 96.6 152.1 98.9 133.5 99.25 130.8 100.55 128.4 102.2 125.5 105.45 124.1 116.55 119.4 128.7 120.8 118.2 117.3 107.75 118.2 96.1 118.5 94.25 130.4 M5.0 159.45 Q6.05 164.8 10.45 168.3 L23.4 178.65 Q33.1 186.2 40.6 196.25 L41.25 196.15 Q42.2 197.6 42.75 199.35 44.75 205.5 46.15 211.7 49.65 227.05 51.7 241.55 54.3 259.85 58.25 278.0 63.3 301.5 84.65 310.6 80.1 308.2 76.4 304.5 68.75 296.7 64.45 286.7 59.9 276.2 58.65 264.6 L56.95 246.2 Q56.1 235.8 54.6 225.55 53.05 215.25 49.85 205.3 46.2 194.1 37.15 186.65 L22.0 174.35 Q12.75 166.9 5.55 158.35 L5.0 159.45 M46.7 37.0 L48.65 32.5 Q39.05 38.75 34.95 49.5 36.65 47.4 39.1 45.85 40.5 45.05 41.9 44.8 34.2 51.6 31.35 61.4 30.25 65.2 30.1 69.3 L31.75 65.7 32.7 65.35 Q29.7 72.15 31.25 79.6 L31.7 81.6 32.7 81.65 Q37.95 93.25 58.05 103.45 78.1 113.65 94.8 110.8 L63.95 104.85 57.15 96.45 56.15 99.1 45.7 89.3 42.75 90.45 Q40.35 80.85 41.15 70.95 L35.8 75.05 39.65 56.35 35.15 59.1 34.2 59.05 Q39.35 46.7 49.45 37.8 L49.1 36.45 46.7 37.0 M49.7 23.2 L49.65 23.05 49.5 23.05 49.5 23.25 49.7 23.2 M224.85 113.5 L227.6 117.1 232.05 124.6 Q245.3 123.3 258.05 118.85 262.0 117.45 266.05 117.2 L296.2 113.65 Q303.3 112.5 310.3 113.45 L316.35 113.3 Q309.85 111.1 302.9 111.95 L281.75 113.45 261.0 114.95 247.3 116.2 Q235.8 116.2 224.85 113.5 M208.05 142.9 L207.15 139.15 Q203.6 129.3 201.0 119.05 L198.7 109.35 197.3 126.7 170.35 123.3 Q180.6 126.3 189.65 131.75 198.9 137.2 208.05 142.9 M162.35 57.75 Q171.75 62.8 181.1 68.2 189.5 73.1 195.7 80.65 195.15 77.4 193.45 74.45 189.2 66.85 181.25 63.2 L175.85 60.55 Q169.5 57.3 162.35 57.75" fill="url(#gradient0)" fill-rule="evenodd" stroke="none"/>
    </g>
    <linearGradient gradientTransform="matrix(0.0, 0.1649, -0.1894, 0.0, 414.85, 179.2)" gradientUnits="userSpaceOnUse" id="gradient0" spreadMethod="pad" x1="-819.2" x2="819.2">
      <stop offset="0.0" stop-color="#333333"/>
      <stop offset="1.0" stop-color="#000000"/>
    </linearGradient>
    <g id="sprite1" transform="matrix(1.0, 0.0, 0.0, 1.0, 62.65, 21.75)">
      <use ffdec:characterId="3585" height="103.0" transform="matrix(1.0, 0.0, 0.0, 1.0, -62.65, -21.75)" width="276.8" xlink:href="#shape3"/>
    </g>
    <g id="shape3" transform="matrix(1.0, 0.0, 0.0, 1.0, 62.65, 21.75)">
      <path d="M7.7 -5.95 L82.35 2.2 77.3 -7.45 13.05 -14.35 7.7 -5.95 M82.15 -13.75 L89.2 3.05 90.8 3.1 108.4 -5.2 136.2 1.65 147.5 2.8 143.75 2.55 147.45 3.15 147.65 3.0 153.2 3.6 153.25 3.3 169.95 4.9 169.45 6.2 177.6 6.7 177.35 5.65 189.85 6.85 197.85 -5.35 202.05 -4.9 200.5 7.9 204.7 8.35 199.45 25.7 196.0 25.55 196.4 24.05 196.45 23.7 189.05 23.0 189.3 24.9 151.45 21.0 149.3 39.35 124.25 36.2 122.65 49.25 214.15 59.25 191.55 75.05 141.5 75.55 140.05 70.35 132.2 69.35 129.4 74.05 119.6 72.95 118.6 81.25 104.4 76.5 95.3 57.9 72.1 55.15 62.35 63.3 51.55 59.65 42.3 28.65 42.5 26.1 6.0 21.55 -2.3 74.6 -11.25 74.65 -10.8 23.05 -10.35 22.65 -62.65 28.65 -52.1 -6.9 -30.3 -14.15 -11.7 -7.95 -0.7 -6.85 8.5 -21.75 82.15 -13.75" fill="#262626" fill-rule="evenodd" stroke="none"/>
    </g>
    <g id="morphshape0" transform="matrix(1.0, 0.0, 0.0, 1.0, 891.25, 228.05)">
      <path d="M-804.8 -189.3 L-804.4 -188.2 Q-803.5 -186.9 -802.25 -186.9 -800.3 -186.0 -799.1 -187.5 -798.2 -189.15 -799.75 -190.6 -800.3 -192.15 -802.65 -192.0 -803.45 -191.7 -804.7 -190.15 L-804.8 -189.35 M-810.4 -205.85 L-810.0 -204.8 Q-809.15 -203.45 -807.8 -203.5 -805.9 -202.6 -804.7 -204.1 -803.75 -205.7 -805.3 -207.2 -805.85 -208.7 -808.25 -208.6 -809.1 -208.3 -810.35 -206.75 L-810.45 -205.9 M-818.8 -168.3 L-814.4 -164.75 -818.2 -168.7 -818.8 -168.3 M-823.25 -189.6 Q-823.35 -188.15 -822.45 -186.6 L-820.05 -183.05 Q-818.7 -181.35 -817.4 -182.45 L-817.3 -183.15 Q-816.65 -184.85 -818.1 -185.85 -819.6 -186.85 -822.05 -189.95 -823.2 -190.2 -823.2 -189.65 M-838.45 -196.5 Q-838.2 -195.2 -837.65 -193.9 -836.2 -191.0 -833.6 -189.1 -831.4 -186.95 -828.65 -186.85 -827.1 -187.2 -826.65 -188.5 -826.4 -190.1 -827.15 -191.85 L-828.4 -194.85 -829.45 -197.05 -830.55 -198.3 -831.9 -198.95 -833.65 -199.45 Q-834.6 -199.55 -836.45 -198.95 L-838.1 -197.35 -838.4 -196.5 M-845.0 -215.9 L-844.8 -215.1 -844.35 -214.2 Q-843.7 -212.75 -842.4 -213.15 -840.65 -211.85 -839.55 -213.55 -839.0 -215.1 -840.75 -216.4 -841.6 -217.65 -843.15 -217.85 -843.8 -217.55 -844.85 -216.7 L-845.05 -215.9 M-865.5 -212.7 Q-856.7 -200.55 -842.05 -189.05 L-840.35 -187.7 -839.65 -187.1 Q-831.05 -180.25 -822.75 -172.9 L-823.15 -172.3 -823.25 -172.0 -829.4 -177.15 Q-830.85 -177.15 -829.55 -176.0 L-823.45 -170.9 -823.45 -170.75 -823.4 -169.95 Q-822.4 -167.4 -820.1 -167.75 -818.25 -165.85 -816.85 -163.65 -815.45 -161.55 -813.5 -159.95 -814.1 -159.1 -814.0 -157.85 L-813.8 -157.0 Q-817.05 -158.95 -820.05 -161.5 -824.2 -164.95 -828.8 -167.75 L-829.5 -167.75 Q-827.45 -163.25 -821.8 -159.35 L-812.2 -152.5 Q-808.4 -149.7 -804.3 -148.7 L-804.8 -149.6 -804.7 -149.6 Q-803.85 -149.7 -803.05 -150.1 L-802.35 -150.4 -802.0 -150.15 Q-800.35 -148.8 -798.55 -147.8 L-797.85 -146.25 Q-796.4 -145.55 -794.95 -145.45 -794.15 -145.4 -793.85 -145.8 -791.25 -145.2 -790.3 -147.45 L-788.85 -147.25 Q-788.0 -147.3 -787.2 -147.6 -787.0 -148.0 -786.95 -148.45 -786.6 -150.45 -787.35 -152.3 -786.4 -152.9 -786.0 -154.45 L-786.2 -155.2 Q-787.2 -156.85 -788.95 -157.6 -790.4 -158.35 -791.65 -159.2 L-792.1 -159.5 -794.25 -164.9 Q-792.15 -161.95 -789.95 -159.2 -793.85 -167.25 -798.3 -174.95 L-801.5 -180.5 -810.5 -198.7 Q-815.6 -209.25 -822.95 -218.45 -821.95 -210.05 -816.05 -199.65 -812.1 -192.8 -808.75 -185.75 L-809.3 -186.05 Q-813.15 -185.5 -809.8 -181.9 -806.85 -178.7 -806.35 -180.5 L-804.9 -177.1 Q-800.95 -167.65 -796.05 -162.3 -797.5 -163.2 -799.0 -163.9 L-799.05 -163.7 -800.45 -163.05 -800.65 -162.85 -801.1 -163.05 -803.25 -162.85 Q-804.1 -162.75 -804.75 -162.2 -805.3 -161.7 -805.55 -160.95 L-805.65 -160.1 Q-806.45 -160.8 -807.35 -161.1 L-806.45 -161.4 Q-804.8 -161.95 -804.65 -163.8 -804.6 -165.05 -804.6 -166.3 -803.35 -168.25 -804.85 -170.5 L-807.7 -174.65 Q-809.25 -177.05 -811.85 -176.8 L-812.45 -176.1 Q-812.95 -173.95 -811.5 -171.95 L-811.15 -171.45 Q-812.15 -170.85 -812.9 -170.0 -813.6 -168.85 -814.2 -166.95 L-817.4 -170.25 Q-817.35 -170.95 -817.5 -171.7 -817.9 -174.2 -821.45 -174.75 -828.9 -183.15 -837.15 -190.45 -837.45 -191.7 -839.55 -192.45 L-842.75 -195.1 Q-854.1 -204.3 -865.35 -212.65 L-865.5 -212.65 M-866.35 -219.45 Q-866.3 -218.15 -865.45 -218.25 -864.4 -217.75 -864.6 -219.45 -864.7 -220.2 -865.65 -220.7 -866.2 -220.15 -866.3 -219.5 M-797.45 -178.4 Q-799.4 -176.45 -794.05 -176.8 -794.0 -179.2 -796.65 -178.85 L-797.5 -178.4" fill="#313131" fill-rule="evenodd" stroke="none"/>
      <path d="M-866.3 -219.5 Q-866.2 -220.15 -865.65 -220.7 -864.7 -220.2 -864.6 -219.45 -864.4 -217.75 -865.45 -218.25 -866.3 -218.15 -866.35 -219.45 M-865.5 -212.65 L-865.35 -212.65 Q-854.1 -204.3 -842.75 -195.1 L-839.55 -192.45 Q-837.45 -191.7 -837.15 -190.45 -828.9 -183.15 -821.45 -174.75 -817.9 -174.2 -817.5 -171.7 -817.35 -170.95 -817.4 -170.25 L-814.2 -166.95 Q-813.6 -168.85 -812.9 -170.0 -812.15 -170.85 -811.15 -171.45 L-811.5 -171.95 Q-812.95 -173.95 -812.45 -176.1 L-811.85 -176.8 Q-809.25 -177.05 -807.7 -174.65 L-804.85 -170.5 Q-803.35 -168.25 -804.6 -166.3 -804.6 -165.05 -804.65 -163.8 -804.8 -161.95 -806.45 -161.4 L-807.35 -161.1 Q-806.45 -160.8 -805.65 -160.1 L-805.55 -160.95 Q-805.3 -161.7 -804.75 -162.2 -804.1 -162.75 -803.25 -162.85 L-801.1 -163.05 -800.65 -162.85 -800.45 -163.05 -799.05 -163.7 -799.0 -163.9 Q-797.5 -163.2 -796.05 -162.3 -800.95 -167.65 -804.9 -177.1 L-806.35 -180.5 Q-806.85 -178.7 -809.8 -181.9 -813.15 -185.5 -809.3 -186.05 L-808.75 -185.75 Q-812.1 -192.8 -816.05 -199.65 -821.95 -210.05 -822.95 -218.45 -815.6 -209.25 -810.5 -198.7 L-801.5 -180.5 -798.3 -174.95 Q-793.85 -167.25 -789.95 -159.2 -792.15 -161.95 -794.25 -164.9 L-792.1 -159.5 -791.65 -159.2 Q-790.4 -158.35 -788.95 -157.6 -787.2 -156.85 -786.2 -155.2 L-786.0 -154.45 Q-786.4 -152.9 -787.35 -152.3 -786.6 -150.45 -786.95 -148.45 -787.0 -148.0 -787.2 -147.6 -788.0 -147.3 -788.85 -147.25 L-790.3 -147.45 Q-791.25 -145.2 -793.85 -145.8 -794.15 -145.4 -794.95 -145.45 -796.4 -145.55 -797.85 -146.25 L-798.55 -147.8 Q-800.35 -148.8 -802.0 -150.15 L-802.35 -150.4 -803.05 -150.1 Q-803.85 -149.7 -804.7 -149.6 L-804.8 -149.6 -804.3 -148.7 Q-808.4 -149.7 -812.2 -152.5 L-821.8 -159.35 Q-827.45 -163.25 -829.5 -167.75 L-828.8 -167.75 Q-824.2 -164.95 -820.05 -161.5 -817.05 -158.95 -813.8 -157.0 L-814.0 -157.85 Q-814.1 -159.1 -813.5 -159.95 -815.45 -161.55 -816.85 -163.65 -818.25 -165.85 -820.1 -167.75 -822.4 -167.4 -823.4 -169.95 L-823.45 -170.75 -823.45 -170.9 -829.55 -176.0 Q-830.85 -177.15 -829.4 -177.15 L-823.25 -172.0 -823.15 -172.3 -822.75 -172.9 Q-831.05 -180.25 -839.65 -187.1 L-840.35 -187.7 -842.05 -189.05 Q-856.7 -200.55 -865.5 -212.7 M-845.05 -215.9 L-844.85 -216.7 Q-843.8 -217.55 -843.15 -217.85 -841.6 -217.65 -840.75 -216.4 -839.0 -215.1 -839.55 -213.55 -840.65 -211.85 -842.4 -213.15 -843.7 -212.75 -844.35 -214.2 L-844.8 -215.1 -845.0 -215.9 M-838.4 -196.5 L-838.1 -197.35 -836.45 -198.95 Q-834.6 -199.55 -833.65 -199.45 L-831.9 -198.95 -830.55 -198.3 -829.45 -197.05 -828.4 -194.85 -827.15 -191.85 Q-826.4 -190.1 -826.65 -188.5 -827.1 -187.2 -828.65 -186.85 -831.4 -186.95 -833.6 -189.1 -836.2 -191.0 -837.65 -193.9 -838.2 -195.2 -838.45 -196.5 M-823.2 -189.65 Q-823.2 -190.2 -822.05 -189.95 -819.6 -186.85 -818.1 -185.85 -816.65 -184.85 -817.3 -183.15 L-817.4 -182.45 Q-818.7 -181.35 -820.05 -183.05 L-822.45 -186.6 Q-823.35 -188.15 -823.25 -189.6 M-818.8 -168.3 L-818.2 -168.7 -814.4 -164.75 -818.8 -168.3 M-810.45 -205.9 L-810.35 -206.75 Q-809.1 -208.3 -808.25 -208.6 -805.85 -208.7 -805.3 -207.2 -803.75 -205.7 -804.7 -204.1 -805.9 -202.6 -807.8 -203.5 -809.15 -203.45 -810.0 -204.8 L-810.4 -205.85 M-804.8 -189.35 L-804.7 -190.15 Q-803.45 -191.7 -802.65 -192.0 -800.3 -192.15 -799.75 -190.6 -798.2 -189.15 -799.1 -187.5 -800.3 -186.0 -802.25 -186.9 -803.5 -186.9 -804.4 -188.2 L-804.8 -189.3 M-802.35 -163.3 L-801.7 -163.45 Q-800.75 -161.5 -801.4 -161.6 -802.85 -162.3 -802.3 -163.35 L-801.65 -163.5 Q-800.7 -161.55 -801.35 -161.65 -802.8 -162.35 -802.25 -163.4 M-797.55 -178.4 L-796.7 -178.85 Q-794.05 -179.2 -794.1 -176.8 -799.45 -176.45 -797.5 -178.4 L-796.65 -178.85 Q-794.0 -179.2 -794.05 -176.8 -799.4 -176.45 -797.45 -178.4" fill="none" stroke="#000000" stroke-linecap="round" stroke-linejoin="round" stroke-opacity="0.0" stroke-width="0.0"/>
    </g>
    <g id="sprite2" transform="matrix(1.0, 0.0, 0.0, 1.0, 265.1, 150.0)">
      <use ffdec:characterId="3477" height="300.0" transform="matrix(1.0, 0.0, 0.0, 1.0, -265.1, -150.0)" width="533.0" xlink:href="#shape4"/>
    </g>
    <g id="shape4" transform="matrix(1.0, 0.0, 0.0, 1.0, 265.1, 150.0)">
      <path d="M267.9 -150.0 L267.9 150.0 -265.1 150.0 -265.1 -150.0 267.9 -150.0 Z" fill="none" stroke="#ff0000" stroke-linecap="round" stroke-linejoin="round" stroke-width="0.05"/>
      <path d="M1.4 -16.05 L1.45 -16.05 Q9.35 -16.05 14.95 -11.35 20.55 -6.65 20.55 0.0 L39.5 0.0 M20.55 0.0 Q20.55 6.65 14.95 11.35 9.35 16.05 1.45 16.05 L1.4 16.05 1.4 21.45 M-36.65 0.0 L-17.55 0.0 -17.55 -0.05 Q-17.55 -6.65 -11.95 -11.35 -6.4 -16.05 1.4 -16.05 M1.4 16.05 Q-6.4 16.05 -11.95 11.35 -17.55 6.65 -17.55 0.0" fill="none" stroke="#ff0000" stroke-linecap="round" stroke-linejoin="round" stroke-opacity="0.2509804" stroke-width="0.05"/>
      <path d="M1.4 -16.05 L1.4 -21.4" fill="none" stroke="#ff0000" stroke-linecap="round" stroke-linejoin="round" stroke-opacity="0.2509804" stroke-width="1.0"/>
      <path d="M181.15 141.4 L181.15 123.6 191.05 123.6 191.05 141.4 181.15 141.4" fill="#ffffff" fill-rule="evenodd" stroke="none"/>
      <path d="M250.55 123.6 L260.45 123.6 260.45 141.4 260.35 141.4 250.55 141.4 250.55 123.6" fill="#000000" fill-rule="evenodd" stroke="none"/>
      <path d="M230.7 123.6 L240.6 123.6 240.6 141.4 230.7 141.4 230.7 123.6" fill="#ff0000" fill-rule="evenodd" stroke="none"/>
      <path d="M191.05 123.6 L201.0 123.6 201.0 141.4 191.05 141.4 191.05 123.6" fill="#ffff00" fill-rule="evenodd" stroke="none"/>
      <path d="M201.0 123.6 L210.9 123.6 210.9 141.4 201.0 141.4 201.0 123.6" fill="#00ffff" fill-rule="evenodd" stroke="none"/>
      <path d="M210.9 123.6 L220.8 123.6 220.8 141.4 210.9 141.4 210.9 123.6" fill="#00ff00" fill-rule="evenodd" stroke="none"/>
      <path d="M220.8 123.6 L230.7 123.6 230.7 141.4 220.8 141.4 220.8 123.6" fill="#ff00ff" fill-rule="evenodd" stroke="none"/>
      <path d="M240.6 123.6 L250.55 123.6 250.55 141.4 240.6 141.4 240.6 123.6" fill="#0000ff" fill-rule="evenodd" stroke="none"/>
      <path d="M260.35 141.4 L260.35 145.4 181.1 145.4 181.1 141.4 181.15 141.4 191.05 141.4 201.0 141.4 210.9 141.4 220.8 141.4 230.7 141.4 240.6 141.4 250.55 141.4 260.35 141.4" fill="url(#gradient1)" fill-rule="evenodd" stroke="none"/>
    </g>
    <linearGradient gradientTransform="matrix(0.0484, 0.0, 0.0, 0.0024, 220.7, 143.35)" gradientUnits="userSpaceOnUse" id="gradient1" spreadMethod="pad" x1="-819.2" x2="819.2">
      <stop offset="0.0" stop-color="#ffffff"/>
      <stop offset="1.0" stop-color="#000000"/>
    </linearGradient>
  </defs>
</svg>
