<?xml version="1.0" encoding="UTF-8" standalone="no"?>
<svg xmlns:ffdec="https://www.free-decompiler.com/flash" xmlns:xlink="http://www.w3.org/1999/xlink" ffdec:objectType="frame" height="4004.1px" width="7682.6px" xmlns="http://www.w3.org/2000/svg">
  <g transform="matrix(2.0, 0.0, 0.0, 2.0, 4622.9, 1925.9)">
    <use ffdec:characterId="333" height="372.95" transform="matrix(2.0745, 0.0, 0.0, 1.0111, -262.0106, -216.0102)" width="608.0" xlink:href="#shape0"/>
    <use ffdec:characterId="2870" height="300.0" transform="matrix(1.2648, 0.0, 0.0, 1.177, -995.25, -219.95)" width="533.0" xlink:href="#shape1"/>
    <use ffdec:characterId="3588" height="349.8" transform="matrix(0.9982, -0.053, 0.053, 0.9982, -885.6921, -181.7219)" width="413.65" xlink:href="#sprite0"/>
    <use ffdec:characterId="3586" height="103.0" transform="matrix(-0.771, 0.6317, -0.6317, -0.771, -802.858, -171.3058)" width="276.8" xlink:href="#sprite1"/>
    <use ffdec:characterId="3589" height="84.0" transform="matrix(1.0, 0.0, 0.0, 1.0, -891.25, -228.05)" width="115.6" xlink:href="#morphshape0"/>
    <use ffdec:characterId="3478" height="300.0" transform="matrix(1.032, 0.0, 0.0, 1.032, -975.2947, -208.8019)" width="533.0" xlink:href="#sprite2"/>
  </g>
  <defs>
    <g id="shape0" transform="matrix(1.0, 0.0, 0.0, 1.0, -26.7, -26.05)">
      <path d="M634.7 26.05 L634.7 399.0 26.7 399.0 26.7 26.05 634.7 26.05" fill="#000000" fill-rule="evenodd" stroke="none"/>
    </g>
    <g id="shape1" transform="matrix(1.0, 0.0, 0.0, 1.0, 0.0, 0.0)">
      <path d="M533.0 300.0 L0.0 300.0 0.0 0.0 533.0 0.0 533.0 300.0" fill="#ffffff" fill-rule="evenodd" stroke="none"/>
    </g>
    <g id="sprite0" transform="matrix(1.0, 0.0, 0.0, 1.0, 0.0, 15.9)">
      <use ffdec:characterId="3587" height="349.8" transform="matrix(1.0, 0.0, 0.0, 1.0, 0.0, -15.9)" width="413.65" xlink:href="#shape2"/>
    </g>
    <g id="shape2" transform="matrix(1.0, 0.0, 0.0, 1.0, 0.0, 15.9)">
      <path d="M105.35 -11.25 L90.5 30.05 90.35 30.9 Q74.55 81.8 69.15 137.1 L63.4 118.15 Q68.85 71.3 80.1 27.95 L84.25 17.6 Q90.35 1.6 93.3 -14.7 101.8 -18.3 105.35 -11.25" fill="#2d2d2d" fill-rule="evenodd" stroke="none"/>
      <path d="M329.25 120.55 L331.3 123.0 Q335.6 129.05 332.75 136.0 331.35 139.35 330.55 142.95 L329.95 143.2 Q330.25 144.2 330.0 145.05 329.75 146.15 328.95 147.0 L327.7 148.1 327.3 148.25 324.85 146.2 320.9 147.6 Q319.45 143.5 320.9 139.7 L313.05 135.4 312.95 134.7 Q300.45 133.0 289.05 139.75 275.5 147.7 259.45 148.35 L251.35 149.6 247.4 150.35 Q264.3 184.75 282.8 218.25 286.9 225.7 289.65 233.8 295.8 252.15 296.65 271.5 L301.7 271.45 301.65 272.55 Q318.3 274.8 334.9 271.4 L337.2 270.5 Q349.7 264.8 362.95 269.3 366.45 270.55 370.2 271.1 L383.7 271.55 Q388.8 272.25 393.0 275.4 398.45 279.4 401.35 285.3 403.5 289.7 403.7 294.45 L403.85 298.6 Q411.6 302.95 413.25 311.5 414.3 316.95 412.55 322.0 L411.1 322.4 412.6 327.85 407.2 321.9 Q405.6 324.15 403.1 324.75 355.1 334.55 306.1 333.85 L226.25 331.25 215.15 331.4 Q194.65 331.45 175.5 324.55 172.5 323.4 170.1 320.85 163.65 313.9 160.9 304.8 158.0 295.15 158.15 285.0 158.25 276.05 160.9 267.6 L150.35 252.2 Q133.0 274.4 114.1 295.35 L114.05 303.95 115.25 303.95 113.9 306.05 Q105.0 312.85 93.75 312.7 73.75 312.45 63.55 295.0 57.6 284.8 55.8 273.0 50.9 240.4 44.2 208.25 43.35 204.2 41.15 200.65 35.0 190.8 25.8 183.55 16.0 175.9 6.65 167.4 3.85 164.8 3.7 160.85 L3.8 157.0 Q0.2 155.35 1.2 151.75 2.0 148.9 0.0 146.45 0.75 142.05 3.6 138.7 5.1 137.0 6.85 135.6 L7.0 129.95 Q9.2 127.7 11.9 128.9 13.5 129.6 14.0 131.2 17.45 130.45 17.95 133.7 18.15 135.0 17.95 136.35 17.7 138.15 16.6 139.6 24.05 138.0 27.35 143.25 27.95 144.15 28.1 145.35 L31.6 145.6 Q33.65 138.35 40.1 141.95 45.5 144.9 50.65 148.3 62.0 155.75 63.45 169.5 63.7 172.05 64.6 174.65 70.0 189.85 76.0 204.75 80.9 216.95 86.5 228.9 L92.6 194.45 Q83.4 182.75 85.5 168.05 88.2 148.95 92.6 130.35 96.1 115.5 111.7 116.35 L111.65 115.6 112.25 115.75 112.8 115.2 113.2 115.95 Q114.35 114.35 113.6 112.35 112.5 109.55 110.4 107.25 102.85 106.1 96.0 108.95 L98.6 111.0 Q88.7 114.65 77.6 112.15 54.35 107.05 37.15 91.1 28.25 82.8 28.4 70.8 28.45 68.7 27.1 67.1 L25.25 64.95 Q31.4 49.35 39.7 34.8 41.6 31.45 42.75 27.65 43.9 23.9 43.45 20.1 L45.0 19.8 Q45.05 21.65 45.4 23.7 45.6 24.85 46.5 25.75 L46.95 26.25 Q48.65 22.8 48.4 19.05 L48.15 16.45 49.0 16.3 52.4 22.8 55.9 11.5 57.0 11.3 58.5 19.55 Q64.15 11.35 62.75 1.4 L62.5 0.05 63.95 0.25 64.9 1.5 68.05 19.6 Q86.6 19.85 104.55 25.1 106.0 27.25 108.4 27.8 L110.4 27.55 Q111.7 26.85 114.45 27.6 116.9 26.45 120.15 27.9 123.35 29.35 125.2 29.25 126.25 29.6 126.9 30.7 127.8 32.3 127.95 34.15 138.55 40.0 149.5 44.5 155.5 46.9 156.55 53.4 L159.85 56.05 Q174.3 56.0 186.7 64.35 196.35 70.85 199.45 81.85 200.5 85.7 202.85 89.25 208.05 97.15 214.15 104.45 221.1 112.7 232.15 114.15 240.15 114.9 248.1 114.05 L300.4 110.8 Q307.3 110.25 313.9 110.45 317.65 110.8 320.8 113.0 L324.6 115.95 329.25 120.55 M338.4 271.8 L333.4 280.55 Q339.85 277.8 346.65 278.05 357.2 278.85 365.15 285.85 L366.75 287.4 372.15 276.25 371.55 276.2 371.35 275.65 Q357.0 268.25 341.55 270.35 L338.4 271.8 M371.85 282.9 Q388.55 285.45 401.3 296.55 399.9 280.25 385.05 274.3 381.5 272.85 377.6 273.55 L374.0 275.9 371.85 282.9 M94.25 130.4 Q92.95 138.9 91.15 147.5 89.2 156.75 87.9 165.85 86.3 176.8 90.65 186.75 91.8 189.35 93.2 191.5 L93.4 190.45 95.05 192.8 94.8 194.15 99.55 202.1 Q93.35 191.1 92.15 178.75 91.75 174.55 92.65 170.3 96.6 152.1 98.9 133.5 99.25 130.8 100.55 128.4 102.2 125.5 105.45 124.1 116.55 119.4 128.7 120.8 118.2 117.3 107.75 118.2 96.1 118.5 94.25 130.4 M5.0 159.45 Q6.05 164.8 10.45 168.3 L23.4 178.65 Q33.1 186.2 40.6 196.25 L41.25 196.15 Q42.2 197.6 42.75 199.35 44.75 205.5 46.15 211.7 49.65 227.05 51.7 241.55 54.3 259.85 58.25 278.0 63.3 301.5 84.65 310.6 80.1 308.2 76.4 304.5 68.75 296.7 64.45 286.7 59.9 276.2 58.65 264.6 L56.95 246.2 Q56.1 235.8 54.6 225.55 53.05 215.25 49.85 205.3 46.2 194.1 37.15 186.65 L22.0 174.35 Q12.75 166.9 5.55 158.35 L5.0 159.45 M46.7 37.0 L48.65 32.5 Q39.05 38.75 34.95 49.5 36.65 47.4 39.1 45.85 40.5 45.05 41.9 44.8 34.2 51.6 31.35 61.4 30.25 65.2 30.1 69.3 L31.75 65.7 32.7 65.35 Q29.7 72.15 31.25 79.6 L31.7 81.6 32.7 81.65 Q37.95 93.25 58.05 103.45 78.1 113.65 94.8 110.8 L63.95 104.85 57.15 96.45 56.15 99.1 45.7 89.3 42.75 90.45 Q40.35 80.85 41.15 70.95 L35.8 75.05 39.65 56.35 35.15 59.1 34.2 59.05 Q39.35 46.7 49.45 37.8 L49.1 36.45 46.7 37.0 M49.7 23.2 L49.65 23.05 49.5 23.05 49.5 23.25 49.7 23.2 M224.85 113.5 L227.6 117.1 232.05 124.6 Q245.3 123.3 258.05 118.85 262.0 117.45 266.05 117.2 L296.2 113.65 Q303.3 112.5 310.3 113.45 L316.35 113.3 Q309.85 111.1 302.9 111.95 L281.75 113.45 261.0 114.95 247.3 116.2 Q235.8 116.2 224.85 113.5 M208.05 142.9 L207.15 139.15 Q203.6 129.3 201.0 119.05 L198.7 109.35 197.3 126.7 170.35 123.3 Q180.6 126.3 189.65 131.75 198.9 137.2 208.05 142.9 M162.35 57.75 Q171.75 62.8 181.1 68.2 189.5 73.1 195.7 80.65 195.15 77.4 193.45 74.45 189.2 66.85 181.25 63.2 L175.85 60.55 Q169.5 57.3 162.35 57.75" fill="url(#gradient0)" fill-rule="evenodd" stroke="none"/>
    </g>
    <linearGradient gradientTransform="matrix(0.0, 0.1649, -0.1894, 0.0, 414.85, 179.2)" gradientUnits="userSpaceOnUse" id="gradient0" spreadMethod="pad" x1="-819.2" x2="819.2">
      <stop offset="0.0" stop-color="#333333"/>
      <stop offset="1.0" stop-color="#000000"/>
    </linearGradient>
    <g id="sprite1" transform="matrix(1.0, 0.0, 0.0, 1.0, 62.65, 21.75)">
      <use ffdec:characterId="3585" height="103.0" transform="matrix(1.0, 0.0, 0.0, 1.0, -62.65, -21.75)" width="276.8" xlink:href="#shape3"/>
    </g>
    <g id="shape3" transform="matrix(1.0, 0.0, 0.0, 1.0, 62.65, 21.75)">
      <path d="M7.7 -5.95 L82.35 2.2 77.3 -7.45 13.05 -14.35 7.7 -5.95 M82.15 -13.75 L89.2 3.05 90.8 3.1 108.4 -5.2 136.2 1.65 147.5 2.8 143.75 2.55 147.45 3.15 147.65 3.0 153.2 3.6 153.25 3.3 169.95 4.9 169.45 6.2 177.6 6.7 177.35 5.65 189.85 6.85 197.85 -5.35 202.05 -4.9 200.5 7.9 204.7 8.35 199.45 25.7 196.0 25.55 196.4 24.05 196.45 23.7 189.05 23.0 189.3 24.9 151.45 21.0 149.3 39.35 124.25 36.2 122.65 49.25 214.15 59.25 191.55 75.05 141.5 75.55 140.05 70.35 132.2 69.35 129.4 74.05 119.6 72.95 118.6 81.25 104.4 76.5 95.3 57.9 72.1 55.15 62.35 63.3 51.55 59.65 42.3 28.65 42.5 26.1 6.0 21.55 -2.3 74.6 -11.25 74.65 -10.8 23.05 -10.35 22.65 -62.65 28.65 -52.1 -6.9 -30.3 -14.15 -11.7 -7.95 -0.7 -6.85 8.5 -21.75 82.15 -13.75" fill="#262626" fill-rule="evenodd" stroke="none"/>
    </g>
    <g id="morphshape0" transform="matrix(1.0, 0.0, 0.0, 1.0, 891.25, 228.05)">
      <path d="M-815.6 -192.2 L-815.4 -191.2 Q-814.7 -190.25 -813.9 -189.65 -811.75 -187.7 -809.7 -189.0 -808.05 -190.2 -809.15 -192.3 -810.05 -194.85 -812.95 -195.05 -813.85 -194.8 -815.5 -193.05 L-815.6 -192.2 M-823.0 -210.05 L-822.75 -209.15 Q-822.15 -208.15 -821.3 -207.6 -819.25 -205.65 -817.15 -206.95 -815.45 -208.1 -816.5 -210.25 -817.4 -212.75 -820.3 -212.95 -821.25 -212.7 -822.85 -211.0 L-823.0 -210.1 M-829.1 -169.2 L-824.05 -165.35 -828.5 -169.65 -829.15 -169.2 M-835.6 -192.25 Q-835.6 -190.65 -834.5 -188.95 L-831.65 -185.15 Q-830.05 -183.3 -828.75 -184.5 L-828.7 -185.3 Q-828.1 -187.15 -829.75 -188.25 -831.45 -189.3 -834.35 -192.65 -835.6 -192.9 -835.55 -192.3 M-852.5 -199.9 Q-852.4 -199.2 -852.25 -198.55 -850.9 -195.6 -848.6 -193.0 -845.95 -189.75 -842.15 -189.0 -840.25 -188.7 -839.2 -189.85 -838.55 -191.5 -839.5 -193.45 L-841.2 -197.0 -842.55 -199.65 -843.7 -201.3 -845.15 -202.1 -846.85 -202.65 Q-848.05 -202.9 -850.2 -202.55 L-852.05 -200.9 -852.5 -199.95 M-861.25 -220.9 L-861.05 -220.05 -860.6 -219.1 Q-860.1 -218.3 -859.45 -218.05 -857.6 -215.35 -855.4 -217.1 -853.95 -218.4 -855.45 -220.3 -856.8 -222.45 -859.3 -222.85 -860.1 -222.4 -860.95 -221.8 L-861.2 -220.9 M-883.0 -217.1 Q-872.55 -203.95 -855.8 -191.55 L-853.9 -190.1 -853.1 -189.45 Q-843.25 -182.05 -833.7 -174.05 L-834.1 -173.4 -834.2 -173.1 -841.2 -178.7 Q-842.75 -178.7 -841.25 -177.5 L-834.3 -171.95 -834.3 -171.8 -834.15 -170.95 Q-832.85 -168.2 -830.4 -168.6 -828.25 -166.5 -826.55 -164.1 -824.9 -161.8 -822.65 -160.05 -823.25 -159.1 -823.05 -157.75 L-822.8 -156.85 Q-826.5 -158.95 -829.95 -161.7 -834.75 -165.45 -839.95 -168.45 L-840.7 -168.45 Q-838.15 -163.6 -831.75 -159.35 L-820.85 -151.9 Q-816.55 -148.9 -812.0 -147.85 L-812.6 -148.85 -812.5 -148.85 Q-811.6 -148.95 -810.75 -149.35 L-810.0 -149.7 -809.55 -149.45 Q-807.7 -148.0 -805.7 -146.9 L-804.8 -145.2 Q-803.15 -144.4 -801.6 -144.3 -800.75 -144.25 -800.45 -144.7 -797.6 -144.05 -796.75 -146.5 L-795.15 -146.3 Q-794.25 -146.25 -793.4 -146.65 -793.2 -147.1 -793.15 -147.6 -792.95 -149.8 -793.95 -151.8 -793.0 -152.45 -792.65 -154.15 L-792.95 -155.0 Q-794.2 -156.8 -796.15 -157.6 -797.7 -158.45 -799.15 -159.3 L-799.65 -159.6 -802.4 -165.45 Q-799.85 -162.35 -797.3 -159.3 -802.1 -168.0 -807.5 -176.3 L-811.35 -182.3 -822.45 -202.0 Q-828.75 -213.45 -837.4 -223.4 -835.65 -214.3 -828.45 -203.05 -823.6 -195.65 -819.45 -188.0 L-820.1 -188.35 Q-824.2 -187.75 -820.3 -183.85 -816.85 -180.4 -816.45 -182.35 L-814.6 -178.7 Q-809.6 -168.5 -803.9 -162.7 -805.5 -163.7 -807.25 -164.4 L-807.3 -164.2 -808.8 -163.5 -809.0 -163.3 -809.5 -163.5 -811.8 -163.3 Q-812.75 -163.2 -813.4 -162.6 -814.05 -162.1 -814.2 -161.25 L-814.25 -160.3 Q-815.15 -161.05 -816.1 -161.35 L-815.15 -161.7 Q-813.45 -162.3 -813.45 -164.35 -813.55 -165.7 -813.65 -167.05 -812.45 -169.2 -814.25 -171.65 L-817.65 -176.15 Q-819.5 -178.8 -822.35 -178.55 L-822.95 -177.75 Q-823.35 -175.4 -821.6 -173.2 L-821.15 -172.65 Q-822.2 -172.05 -822.9 -171.05 -823.55 -170.0 -824.1 -167.75 L-827.8 -171.3 Q-827.75 -172.0 -828.0 -172.8 -828.6 -175.5 -832.5 -176.1 -841.25 -185.2 -850.75 -193.1 -851.15 -194.45 -853.45 -195.3 L-857.1 -198.15 Q-870.1 -208.1 -882.9 -217.15 L-883.05 -217.15 M-884.45 -225.2 Q-884.8 -224.15 -883.95 -223.15 -882.65 -221.55 -882.35 -223.7 -882.1 -225.05 -883.45 -226.1 -884.0 -225.7 -884.45 -225.25 M-806.8 -180.15 Q-808.75 -178.0 -802.95 -178.4 -803.1 -181.05 -805.95 -180.65 L-806.85 -180.15" fill="#313131" fill-rule="evenodd" stroke="none"/>
      <path d="M-884.45 -225.25 Q-884.0 -225.7 -883.45 -226.1 -882.1 -225.05 -882.35 -223.7 -882.65 -221.55 -883.95 -223.15 -884.8 -224.15 -884.45 -225.2 M-883.05 -217.15 L-882.9 -217.15 Q-870.1 -208.1 -857.1 -198.15 L-853.45 -195.3 Q-851.15 -194.45 -850.75 -193.1 -841.25 -185.2 -832.5 -176.1 -828.6 -175.5 -828.0 -172.8 -827.75 -172.0 -827.8 -171.3 L-824.1 -167.75 Q-823.55 -170.0 -822.9 -171.05 -822.2 -172.05 -821.15 -172.65 L-821.6 -173.2 Q-823.35 -175.4 -822.95 -177.75 L-822.35 -178.55 Q-819.5 -178.8 -817.65 -176.15 L-814.25 -171.65 Q-812.45 -169.2 -813.65 -167.05 -813.55 -165.7 -813.45 -164.35 -813.45 -162.3 -815.15 -161.7 L-816.1 -161.35 Q-815.15 -161.05 -814.25 -160.3 L-814.2 -161.25 Q-814.05 -162.1 -813.4 -162.6 -812.75 -163.2 -811.8 -163.3 L-809.5 -163.5 -809.0 -163.3 -808.8 -163.5 -807.3 -164.2 -807.25 -164.4 Q-805.5 -163.7 -803.9 -162.7 -809.6 -168.5 -814.6 -178.7 L-816.45 -182.35 Q-816.85 -180.4 -820.3 -183.85 -824.2 -187.75 -820.1 -188.35 L-819.45 -188.0 Q-823.6 -195.65 -828.45 -203.05 -835.65 -214.3 -837.4 -223.4 -828.75 -213.45 -822.45 -202.0 L-811.35 -182.3 -807.5 -176.3 Q-802.1 -168.0 -797.3 -159.3 -799.85 -162.35 -802.4 -165.45 L-799.65 -159.6 -799.15 -159.3 Q-797.7 -158.45 -796.15 -157.6 -794.2 -156.8 -792.95 -155.0 L-792.65 -154.15 Q-793.0 -152.45 -793.95 -151.8 -792.95 -149.8 -793.15 -147.6 -793.2 -147.1 -793.4 -146.65 -794.25 -146.25 -795.15 -146.3 L-796.75 -146.5 Q-797.6 -144.05 -800.45 -144.7 -800.75 -144.25 -801.6 -144.3 -803.15 -144.4 -804.8 -145.2 L-805.7 -146.9 Q-807.7 -148.0 -809.55 -149.45 L-810.0 -149.7 -810.75 -149.35 Q-811.6 -148.95 -812.5 -148.85 L-812.6 -148.85 -812.0 -147.85 Q-816.55 -148.9 -820.85 -151.9 L-831.75 -159.35 Q-838.15 -163.6 -840.7 -168.45 L-839.95 -168.45 Q-834.75 -165.45 -829.95 -161.7 -826.5 -158.95 -822.8 -156.85 L-823.05 -157.75 Q-823.25 -159.1 -822.65 -160.05 -824.9 -161.8 -826.55 -164.1 -828.25 -166.5 -830.4 -168.6 -832.85 -168.2 -834.15 -170.95 L-834.3 -171.8 -834.3 -171.95 -841.25 -177.5 Q-842.75 -178.7 -841.2 -178.7 L-834.2 -173.1 -834.1 -173.4 -833.7 -174.05 Q-843.25 -182.05 -853.1 -189.45 L-853.9 -190.1 -855.8 -191.55 Q-872.55 -203.95 -883.0 -217.1 M-861.2 -220.9 L-860.95 -221.8 Q-860.1 -222.4 -859.3 -222.85 -856.8 -222.45 -855.45 -220.3 -853.95 -218.4 -855.4 -217.1 -857.6 -215.35 -859.45 -218.05 -860.1 -218.3 -860.6 -219.1 L-861.05 -220.05 -861.25 -220.9 M-852.5 -199.95 L-852.05 -200.9 -850.2 -202.55 Q-848.05 -202.9 -846.85 -202.65 L-845.15 -202.1 -843.7 -201.3 -842.55 -199.65 -841.2 -197.0 -839.5 -193.45 Q-838.55 -191.5 -839.2 -189.85 -840.25 -188.7 -842.15 -189.0 -845.95 -189.75 -848.6 -193.0 -850.9 -195.6 -852.25 -198.55 -852.4 -199.2 -852.5 -199.9 M-835.55 -192.3 Q-835.6 -192.9 -834.35 -192.65 -831.45 -189.3 -829.75 -188.25 -828.1 -187.15 -828.7 -185.3 L-828.75 -184.5 Q-830.05 -183.3 -831.65 -185.15 L-834.5 -188.95 Q-835.6 -190.65 -835.6 -192.25 M-829.15 -169.2 L-828.5 -169.65 -824.05 -165.35 -829.1 -169.2 M-823.0 -210.1 L-822.85 -211.0 Q-821.25 -212.7 -820.3 -212.95 -817.4 -212.75 -816.5 -210.25 -815.45 -208.1 -817.15 -206.95 -819.25 -205.65 -821.3 -207.6 -822.15 -208.15 -822.75 -209.15 L-823.0 -210.05 M-815.6 -192.2 L-815.5 -193.05 Q-813.85 -194.8 -812.95 -195.05 -810.05 -194.85 -809.15 -192.3 -808.05 -190.2 -809.7 -189.0 -811.75 -187.7 -813.9 -189.65 -814.7 -190.25 -815.4 -191.2 L-815.6 -192.2 M-814.65 -155.55 L-814.1 -155.5 Q-813.65 -154.7 -813.55 -154.4 -814.35 -154.9 -814.65 -155.55 L-814.1 -155.5 Q-813.65 -154.7 -813.55 -154.4 -814.35 -154.9 -814.65 -155.55 M-806.9 -180.15 L-806.0 -180.65 Q-803.15 -181.05 -803.0 -178.4 -808.8 -178.0 -806.85 -180.15 L-805.95 -180.65 Q-803.1 -181.05 -802.95 -178.4 -808.75 -178.0 -806.8 -180.15" fill="none" stroke="#000000" stroke-linecap="round" stroke-linejoin="round" stroke-opacity="0.0" stroke-width="0.0"/>
    </g>
    <g id="sprite2" transform="matrix(1.0, 0.0, 0.0, 1.0, 265.1, 150.0)">
      <use ffdec:characterId="3477" height="300.0" transform="matrix(1.0, 0.0, 0.0, 1.0, -265.1, -150.0)" width="533.0" xlink:href="#shape4"/>
    </g>
    <g id="shape4" transform="matrix(1.0, 0.0, 0.0, 1.0, 265.1, 150.0)">
      <path d="M267.9 -150.0 L267.9 150.0 -265.1 150.0 -265.1 -150.0 267.9 -150.0 Z" fill="none" stroke="#ff0000" stroke-linecap="round" stroke-linejoin="round" stroke-width="0.05"/>
      <path d="M1.4 -16.05 L1.45 -16.05 Q9.35 -16.05 14.95 -11.35 20.55 -6.65 20.55 0.0 L39.5 0.0 M20.55 0.0 Q20.55 6.65 14.95 11.35 9.35 16.05 1.45 16.05 L1.4 16.05 1.4 21.45 M-36.65 0.0 L-17.55 0.0 -17.55 -0.05 Q-17.55 -6.65 -11.95 -11.35 -6.4 -16.05 1.4 -16.05 M1.4 16.05 Q-6.4 16.05 -11.95 11.35 -17.55 6.65 -17.55 0.0" fill="none" stroke="#ff0000" stroke-linecap="round" stroke-linejoin="round" stroke-opacity="0.2509804" stroke-width="0.05"/>
      <path d="M1.4 -16.05 L1.4 -21.4" fill="none" stroke="#ff0000" stroke-linecap="round" stroke-linejoin="round" stroke-opacity="0.2509804" stroke-width="1.0"/>
      <path d="M181.15 141.4 L181.15 123.6 191.05 123.6 191.05 141.4 181.15 141.4" fill="#ffffff" fill-rule="evenodd" stroke="none"/>
      <path d="M250.55 123.6 L260.45 123.6 260.45 141.4 260.35 141.4 250.55 141.4 250.55 123.6" fill="#000000" fill-rule="evenodd" stroke="none"/>
      <path d="M230.7 123.6 L240.6 123.6 240.6 141.4 230.7 141.4 230.7 123.6" fill="#ff0000" fill-rule="evenodd" stroke="none"/>
      <path d="M191.05 123.6 L201.0 123.6 201.0 141.4 191.05 141.4 191.05 123.6" fill="#ffff00" fill-rule="evenodd" stroke="none"/>
      <path d="M201.0 123.6 L210.9 123.6 210.9 141.4 201.0 141.4 201.0 123.6" fill="#00ffff" fill-rule="evenodd" stroke="none"/>
      <path d="M210.9 123.6 L220.8 123.6 220.8 141.4 210.9 141.4 210.9 123.6" fill="#00ff00" fill-rule="evenodd" stroke="none"/>
      <path d="M220.8 123.6 L230.7 123.6 230.7 141.4 220.8 141.4 220.8 123.6" fill="#ff00ff" fill-rule="evenodd" stroke="none"/>
      <path d="M240.6 123.6 L250.55 123.6 250.55 141.4 240.6 141.4 240.6 123.6" fill="#0000ff" fill-rule="evenodd" stroke="none"/>
      <path d="M260.35 141.4 L260.35 145.4 181.1 145.4 181.1 141.4 181.15 141.4 191.05 141.4 201.0 141.4 210.9 141.4 220.8 141.4 230.7 141.4 240.6 141.4 250.55 141.4 260.35 141.4" fill="url(#gradient1)" fill-rule="evenodd" stroke="none"/>
    </g>
    <linearGradient gradientTransform="matrix(0.0484, 0.0, 0.0, 0.0024, 220.7, 143.35)" gradientUnits="userSpaceOnUse" id="gradient1" spreadMethod="pad" x1="-819.2" x2="819.2">
      <stop offset="0.0" stop-color="#ffffff"/>
      <stop offset="1.0" stop-color="#000000"/>
    </linearGradient>
  </defs>
</svg>
