<?xml version="1.0" encoding="UTF-8" standalone="no"?>
<svg xmlns:ffdec="https://www.free-decompiler.com/flash" xmlns:xlink="http://www.w3.org/1999/xlink" ffdec:objectType="frame" height="4004.1px" width="7682.6px" xmlns="http://www.w3.org/2000/svg">
  <g transform="matrix(2.0, 0.0, 0.0, 2.0, 4622.9, 1925.9)">
    <use ffdec:characterId="333" height="372.95" transform="matrix(2.0745, 0.0, 0.0, 1.0111, -262.0106, -216.0102)" width="608.0" xlink:href="#shape0"/>
    <use ffdec:characterId="2870" height="300.0" transform="matrix(1.2648, 0.0, 0.0, 1.177, -995.25, -219.95)" width="533.0" xlink:href="#shape1"/>
    <use ffdec:characterId="3588" height="349.8" transform="matrix(0.9982, -0.0532, 0.0532, 0.9982, -885.796, -181.6716)" width="413.65" xlink:href="#sprite0"/>
    <use ffdec:characterId="3586" height="103.0" transform="matrix(-0.7479, 0.6588, -0.6588, -0.7479, -805.0143, -175.9576)" width="276.8" xlink:href="#sprite1"/>
    <use ffdec:characterId="3589" height="84.0" transform="matrix(1.0, 0.0, 0.0, 1.0, -891.25, -228.05)" width="115.6" xlink:href="#morphshape0"/>
    <use ffdec:characterId="3478" height="300.0" transform="matrix(1.032, 0.0, 0.0, 1.032, -975.2947, -208.8519)" width="533.0" xlink:href="#sprite2"/>
  </g>
  <defs>
    <g id="shape0" transform="matrix(1.0, 0.0, 0.0, 1.0, -26.7, -26.05)">
      <path d="M634.7 26.05 L634.7 399.0 26.7 399.0 26.7 26.05 634.7 26.05" fill="#000000" fill-rule="evenodd" stroke="none"/>
    </g>
    <g id="shape1" transform="matrix(1.0, 0.0, 0.0, 1.0, 0.0, 0.0)">
      <path d="M533.0 300.0 L0.0 300.0 0.0 0.0 533.0 0.0 533.0 300.0" fill="#ffffff" fill-rule="evenodd" stroke="none"/>
    </g>
    <g id="sprite0" transform="matrix(1.0, 0.0, 0.0, 1.0, 0.0, 15.9)">
      <use ffdec:characterId="3587" height="349.8" transform="matrix(1.0, 0.0, 0.0, 1.0, 0.0, -15.9)" width="413.65" xlink:href="#shape2"/>
    </g>
    <g id="shape2" transform="matrix(1.0, 0.0, 0.0, 1.0, 0.0, 15.9)">
      <path d="M105.35 -11.25 L90.5 30.05 90.35 30.9 Q74.55 81.8 69.15 137.1 L63.4 118.15 Q68.85 71.3 80.1 27.95 L84.25 17.6 Q90.35 1.6 93.3 -14.7 101.8 -18.3 105.35 -11.25" fill="#2d2d2d" fill-rule="evenodd" stroke="none"/>
      <path d="M329.25 120.55 L331.3 123.0 Q335.6 129.05 332.75 136.0 331.35 139.35 330.55 142.95 L329.95 143.2 Q330.25 144.2 330.0 145.05 329.75 146.15 328.95 147.0 L327.7 148.1 327.3 148.25 324.85 146.2 320.9 147.6 Q319.45 143.5 320.9 139.7 L313.05 135.4 312.95 134.7 Q300.45 133.0 289.05 139.75 275.5 147.7 259.45 148.35 L251.35 149.6 247.4 150.35 Q264.3 184.75 282.8 218.25 286.9 225.7 289.65 233.8 295.8 252.15 296.65 271.5 L301.7 271.45 301.65 272.55 Q318.3 274.8 334.9 271.4 L337.2 270.5 Q349.7 264.8 362.95 269.3 366.45 270.55 370.2 271.1 L383.7 271.55 Q388.8 272.25 393.0 275.4 398.45 279.4 401.35 285.3 403.5 289.7 403.7 294.45 L403.85 298.6 Q411.6 302.95 413.25 311.5 414.3 316.95 412.55 322.0 L411.1 322.4 412.6 327.85 407.2 321.9 Q405.6 324.15 403.1 324.75 355.1 334.55 306.1 333.85 L226.25 331.25 215.15 331.4 Q194.65 331.45 175.5 324.55 172.5 323.4 170.1 320.85 163.65 313.9 160.9 304.8 158.0 295.15 158.15 285.0 158.25 276.05 160.9 267.6 L150.35 252.2 Q133.0 274.4 114.1 295.35 L114.05 303.95 115.25 303.95 113.9 306.05 Q105.0 312.85 93.75 312.7 73.75 312.45 63.55 295.0 57.6 284.8 55.8 273.0 50.9 240.4 44.2 208.25 43.35 204.2 41.15 200.65 35.0 190.8 25.8 183.55 16.0 175.9 6.65 167.4 3.85 164.8 3.7 160.85 L3.8 157.0 Q0.2 155.35 1.2 151.75 2.0 148.9 0.0 146.45 0.75 142.05 3.6 138.7 5.1 137.0 6.85 135.6 L7.0 129.95 Q9.2 127.7 11.9 128.9 13.5 129.6 14.0 131.2 17.45 130.45 17.95 133.7 18.15 135.0 17.95 136.35 17.7 138.15 16.6 139.6 24.05 138.0 27.35 143.25 27.95 144.15 28.1 145.35 L31.6 145.6 Q33.65 138.35 40.1 141.95 45.5 144.9 50.65 148.3 62.0 155.75 63.45 169.5 63.7 172.05 64.6 174.65 70.0 189.85 76.0 204.75 80.9 216.95 86.5 228.9 L92.6 194.45 Q83.4 182.75 85.5 168.05 88.2 148.95 92.6 130.35 96.1 115.5 111.7 116.35 L111.65 115.6 112.25 115.75 112.8 115.2 113.2 115.95 Q114.35 114.35 113.6 112.35 112.5 109.55 110.4 107.25 102.85 106.1 96.0 108.95 L98.6 111.0 Q88.7 114.65 77.6 112.15 54.35 107.05 37.15 91.1 28.25 82.8 28.4 70.8 28.45 68.7 27.1 67.1 L25.25 64.95 Q31.4 49.35 39.7 34.8 41.6 31.45 42.75 27.65 43.9 23.9 43.45 20.1 L45.0 19.8 Q45.05 21.65 45.4 23.7 45.6 24.85 46.5 25.75 L46.95 26.25 Q48.65 22.8 48.4 19.05 L48.15 16.45 49.0 16.3 52.4 22.8 55.9 11.5 57.0 11.3 58.5 19.55 Q64.15 11.35 62.75 1.4 L62.5 0.05 63.95 0.25 64.9 1.5 68.05 19.6 Q86.6 19.85 104.55 25.1 106.0 27.25 108.4 27.8 L110.4 27.55 Q111.7 26.85 114.45 27.6 116.9 26.45 120.15 27.9 123.35 29.35 125.2 29.25 126.25 29.6 126.9 30.7 127.8 32.3 127.95 34.15 138.55 40.0 149.5 44.5 155.5 46.9 156.55 53.4 L159.85 56.05 Q174.3 56.0 186.7 64.35 196.35 70.85 199.45 81.85 200.5 85.7 202.85 89.25 208.05 97.15 214.15 104.45 221.1 112.7 232.15 114.15 240.15 114.9 248.1 114.05 L300.4 110.8 Q307.3 110.25 313.9 110.45 317.65 110.8 320.8 113.0 L324.6 115.95 329.25 120.55 M338.4 271.8 L333.4 280.55 Q339.85 277.8 346.65 278.05 357.2 278.85 365.15 285.85 L366.75 287.4 372.15 276.25 371.55 276.2 371.35 275.65 Q357.0 268.25 341.55 270.35 L338.4 271.8 M371.85 282.9 Q388.55 285.45 401.3 296.55 399.9 280.25 385.05 274.3 381.5 272.85 377.6 273.55 L374.0 275.9 371.85 282.9 M94.25 130.4 Q92.95 138.9 91.15 147.5 89.2 156.75 87.9 165.85 86.3 176.8 90.65 186.75 91.8 189.35 93.2 191.5 L93.4 190.45 95.05 192.8 94.8 194.15 99.55 202.1 Q93.35 191.1 92.15 178.75 91.75 174.55 92.65 170.3 96.6 152.1 98.9 133.5 99.25 130.8 100.55 128.4 102.2 125.5 105.45 124.1 116.55 119.4 128.7 120.8 118.2 117.3 107.75 118.2 96.1 118.5 94.25 130.4 M5.0 159.45 Q6.05 164.8 10.45 168.3 L23.4 178.65 Q33.1 186.2 40.6 196.25 L41.25 196.15 Q42.2 197.6 42.75 199.35 44.75 205.5 46.15 211.7 49.65 227.05 51.7 241.55 54.3 259.85 58.25 278.0 63.3 301.5 84.65 310.6 80.1 308.2 76.4 304.5 68.75 296.7 64.45 286.7 59.9 276.2 58.65 264.6 L56.95 246.2 Q56.1 235.8 54.6 225.55 53.05 215.25 49.85 205.3 46.2 194.1 37.15 186.65 L22.0 174.35 Q12.75 166.9 5.55 158.35 L5.0 159.45 M46.7 37.0 L48.65 32.5 Q39.05 38.75 34.95 49.5 36.65 47.4 39.1 45.85 40.5 45.05 41.9 44.8 34.2 51.6 31.35 61.4 30.25 65.2 30.1 69.3 L31.75 65.7 32.7 65.35 Q29.7 72.15 31.25 79.6 L31.7 81.6 32.7 81.65 Q37.95 93.25 58.05 103.45 78.1 113.65 94.8 110.8 L63.95 104.85 57.15 96.45 56.15 99.1 45.7 89.3 42.75 90.45 Q40.35 80.85 41.15 70.95 L35.8 75.05 39.65 56.35 35.15 59.1 34.2 59.05 Q39.35 46.7 49.45 37.8 L49.1 36.45 46.7 37.0 M49.7 23.2 L49.65 23.05 49.5 23.05 49.5 23.25 49.7 23.2 M224.85 113.5 L227.6 117.1 232.05 124.6 Q245.3 123.3 258.05 118.85 262.0 117.45 266.05 117.2 L296.2 113.65 Q303.3 112.5 310.3 113.45 L316.35 113.3 Q309.85 111.1 302.9 111.95 L281.75 113.45 261.0 114.95 247.3 116.2 Q235.8 116.2 224.85 113.5 M208.05 142.9 L207.15 139.15 Q203.6 129.3 201.0 119.05 L198.7 109.35 197.3 126.7 170.35 123.3 Q180.6 126.3 189.65 131.75 198.9 137.2 208.05 142.9 M162.35 57.75 Q171.75 62.8 181.1 68.2 189.5 73.1 195.7 80.65 195.15 77.4 193.45 74.45 189.2 66.85 181.25 63.2 L175.85 60.55 Q169.5 57.3 162.35 57.75" fill="url(#gradient0)" fill-rule="evenodd" stroke="none"/>
    </g>
    <linearGradient gradientTransform="matrix(0.0, 0.1649, -0.1894, 0.0, 414.85, 179.2)" gradientUnits="userSpaceOnUse" id="gradient0" spreadMethod="pad" x1="-819.2" x2="819.2">
      <stop offset="0.0" stop-color="#333333"/>
      <stop offset="1.0" stop-color="#000000"/>
    </linearGradient>
    <g id="sprite1" transform="matrix(1.0, 0.0, 0.0, 1.0, 62.65, 21.75)">
      <use ffdec:characterId="3585" height="103.0" transform="matrix(1.0, 0.0, 0.0, 1.0, -62.65, -21.75)" width="276.8" xlink:href="#shape3"/>
    </g>
    <g id="shape3" transform="matrix(1.0, 0.0, 0.0, 1.0, 62.65, 21.75)">
      <path d="M7.7 -5.95 L82.35 2.2 77.3 -7.45 13.05 -14.35 7.7 -5.95 M82.15 -13.75 L89.2 3.05 90.8 3.1 108.4 -5.2 136.2 1.65 147.5 2.8 143.75 2.55 147.45 3.15 147.65 3.0 153.2 3.6 153.25 3.3 169.95 4.9 169.45 6.2 177.6 6.7 177.35 5.65 189.85 6.85 197.85 -5.35 202.05 -4.9 200.5 7.9 204.7 8.35 199.45 25.7 196.0 25.55 196.4 24.05 196.45 23.7 189.05 23.0 189.3 24.9 151.45 21.0 149.3 39.35 124.25 36.2 122.65 49.25 214.15 59.25 191.55 75.05 141.5 75.55 140.05 70.35 132.2 69.35 129.4 74.05 119.6 72.95 118.6 81.25 104.4 76.5 95.3 57.9 72.1 55.15 62.35 63.3 51.55 59.65 42.3 28.65 42.5 26.1 6.0 21.55 -2.3 74.6 -11.25 74.65 -10.8 23.05 -10.35 22.65 -62.65 28.65 -52.1 -6.9 -30.3 -14.15 -11.7 -7.95 -0.7 -6.85 8.5 -21.75 82.15 -13.75" fill="#262626" fill-rule="evenodd" stroke="none"/>
    </g>
    <g id="morphshape0" transform="matrix(1.0, 0.0, 0.0, 1.0, 891.25, 228.05)">
      <path d="M-816.0 -192.35 L-815.8 -191.35 Q-815.1 -190.4 -814.35 -189.8 -812.2 -187.8 -810.1 -189.05 -808.45 -190.25 -809.5 -192.4 -810.4 -195.0 -813.35 -195.2 -814.25 -194.95 -815.95 -193.2 L-816.05 -192.35 M-823.5 -210.25 L-823.25 -209.35 Q-822.65 -208.35 -821.8 -207.8 -819.75 -205.8 -817.6 -207.05 -815.9 -208.2 -816.95 -210.4 -817.85 -212.95 -820.8 -213.15 -821.75 -212.9 -823.4 -211.2 L-823.55 -210.3 M-829.6 -169.2 L-824.5 -165.35 -828.95 -169.65 -829.6 -169.2 M-836.1 -192.35 Q-836.1 -190.75 -835.0 -189.05 L-832.15 -185.25 Q-830.55 -183.4 -829.25 -184.6 L-829.2 -185.4 Q-828.6 -187.25 -830.25 -188.35 -832.0 -189.4 -834.9 -192.75 -836.15 -193.0 -836.1 -192.4 M-853.2 -200.05 Q-853.1 -199.4 -852.95 -198.75 -851.6 -195.8 -849.3 -193.15 -846.65 -189.85 -842.8 -189.05 -840.9 -188.75 -839.85 -189.9 -839.2 -191.55 -840.15 -193.5 L-841.85 -197.1 -843.2 -199.75 -844.35 -201.45 -845.8 -202.25 -847.5 -202.8 Q-848.7 -203.05 -850.85 -202.7 L-852.7 -201.05 -853.15 -200.1 M-861.9 -221.1 L-861.7 -220.25 -861.25 -219.3 Q-860.75 -218.55 -860.15 -218.25 -858.3 -215.5 -856.05 -217.25 -854.55 -218.55 -856.05 -220.5 -857.45 -222.7 -860.0 -223.1 -860.8 -222.65 -861.65 -222.05 L-861.9 -221.15 M-883.85 -217.25 Q-873.35 -204.05 -856.5 -191.6 L-854.6 -190.15 -853.8 -189.5 Q-843.9 -182.1 -834.3 -174.1 L-834.7 -173.45 -834.8 -173.15 -841.85 -178.75 Q-843.4 -178.75 -841.9 -177.55 L-834.9 -172.0 -834.9 -171.85 -834.75 -171.0 Q-833.45 -168.2 -831.0 -168.6 -828.85 -166.5 -827.15 -164.1 -825.5 -161.8 -823.25 -160.05 -823.85 -159.1 -823.65 -157.75 L-823.4 -156.85 Q-827.1 -158.95 -830.55 -161.75 -835.35 -165.5 -840.55 -168.55 L-841.3 -168.55 Q-838.7 -163.65 -832.25 -159.4 L-821.25 -151.95 Q-816.9 -148.9 -812.35 -147.85 L-812.95 -148.85 -812.85 -148.85 Q-811.95 -148.95 -811.1 -149.35 L-810.35 -149.7 -809.9 -149.45 Q-808.0 -148.0 -805.95 -146.9 L-805.05 -145.2 Q-803.4 -144.4 -801.85 -144.3 -801.0 -144.25 -800.7 -144.7 -797.85 -144.05 -797.0 -146.5 L-795.4 -146.3 Q-794.5 -146.25 -793.65 -146.65 -793.45 -147.1 -793.4 -147.6 -793.2 -149.8 -794.2 -151.8 -793.25 -152.45 -792.9 -154.15 L-793.2 -155.0 Q-794.45 -156.8 -796.45 -157.6 -798.0 -158.45 -799.5 -159.3 L-800.0 -159.6 -802.75 -165.45 Q-800.2 -162.35 -797.65 -159.3 -802.5 -168.05 -807.95 -176.4 L-811.85 -182.4 -823.05 -202.2 Q-829.4 -213.65 -838.15 -223.6 -836.4 -214.45 -829.15 -203.15 -824.25 -195.75 -820.05 -188.1 L-820.7 -188.45 Q-824.8 -187.85 -820.9 -183.95 -817.45 -180.5 -817.05 -182.45 L-815.15 -178.8 Q-810.1 -168.55 -804.35 -162.75 -805.95 -163.75 -807.7 -164.45 L-807.75 -164.25 -809.25 -163.55 -809.45 -163.35 -809.95 -163.55 -812.25 -163.35 Q-813.2 -163.25 -813.85 -162.65 -814.5 -162.15 -814.65 -161.3 L-814.7 -160.35 Q-815.6 -161.1 -816.55 -161.4 L-815.6 -161.75 Q-813.9 -162.35 -813.9 -164.4 -814.0 -165.75 -814.1 -167.1 -812.9 -169.25 -814.7 -171.7 L-818.1 -176.2 Q-819.95 -178.85 -822.8 -178.6 L-823.4 -177.8 Q-823.8 -175.45 -822.05 -173.25 L-821.6 -172.7 Q-822.65 -172.1 -823.35 -171.1 -824.0 -170.05 -824.55 -167.75 L-828.3 -171.3 Q-828.25 -172.0 -828.5 -172.8 -829.15 -175.55 -833.05 -176.15 -841.85 -185.3 -851.4 -193.2 -851.8 -194.55 -854.1 -195.4 L-857.75 -198.3 Q-870.85 -208.25 -883.7 -217.35 L-883.85 -217.35 M-885.35 -225.55 Q-885.7 -224.5 -884.85 -223.45 -883.55 -221.8 -883.25 -223.95 -882.95 -225.3 -884.3 -226.35 -884.85 -225.95 -885.3 -225.5 M-807.25 -180.2 Q-809.2 -178.05 -803.4 -178.45 -803.55 -181.1 -806.4 -180.7 L-807.3 -180.2" fill="#313131" fill-rule="evenodd" stroke="none"/>
      <path d="M-885.3 -225.5 Q-884.85 -225.95 -884.3 -226.35 -882.95 -225.3 -883.25 -223.95 -883.55 -221.8 -884.85 -223.45 -885.7 -224.5 -885.35 -225.55 M-883.85 -217.35 L-883.7 -217.35 Q-870.85 -208.25 -857.75 -198.3 L-854.1 -195.4 Q-851.8 -194.55 -851.4 -193.2 -841.85 -185.3 -833.05 -176.15 -829.15 -175.55 -828.5 -172.8 -828.25 -172.0 -828.3 -171.3 L-824.55 -167.75 Q-824.0 -170.05 -823.35 -171.1 -822.65 -172.1 -821.6 -172.7 L-822.05 -173.25 Q-823.8 -175.45 -823.4 -177.8 L-822.8 -178.6 Q-819.95 -178.85 -818.1 -176.2 L-814.7 -171.7 Q-812.9 -169.25 -814.1 -167.1 -814.0 -165.75 -813.9 -164.4 -813.9 -162.35 -815.6 -161.75 L-816.55 -161.4 Q-815.6 -161.1 -814.7 -160.35 L-814.65 -161.3 Q-814.5 -162.15 -813.85 -162.65 -813.2 -163.25 -812.25 -163.35 L-809.95 -163.55 -809.45 -163.35 -809.25 -163.55 -807.75 -164.25 -807.7 -164.45 Q-805.95 -163.75 -804.35 -162.75 -810.1 -168.55 -815.15 -178.8 L-817.05 -182.45 Q-817.45 -180.5 -820.9 -183.95 -824.8 -187.85 -820.7 -188.45 L-820.05 -188.1 Q-824.25 -195.75 -829.15 -203.15 -836.4 -214.45 -838.15 -223.6 -829.4 -213.65 -823.05 -202.2 L-811.85 -182.4 -807.95 -176.4 Q-802.5 -168.05 -797.65 -159.3 -800.2 -162.35 -802.75 -165.45 L-800.0 -159.6 -799.5 -159.3 Q-798.0 -158.45 -796.45 -157.6 -794.45 -156.8 -793.2 -155.0 L-792.9 -154.15 Q-793.25 -152.45 -794.2 -151.8 -793.2 -149.8 -793.4 -147.6 -793.45 -147.1 -793.65 -146.65 -794.5 -146.25 -795.4 -146.3 L-797.0 -146.5 Q-797.85 -144.05 -800.7 -144.7 -801.0 -144.25 -801.85 -144.3 -803.4 -144.4 -805.05 -145.2 L-805.95 -146.9 Q-808.0 -148.0 -809.9 -149.45 L-810.35 -149.7 -811.1 -149.35 Q-811.95 -148.95 -812.85 -148.85 L-812.95 -148.85 -812.35 -147.85 Q-816.9 -148.9 -821.25 -151.95 L-832.25 -159.4 Q-838.7 -163.65 -841.3 -168.55 L-840.55 -168.55 Q-835.35 -165.5 -830.55 -161.75 -827.1 -158.95 -823.4 -156.85 L-823.65 -157.75 Q-823.85 -159.1 -823.25 -160.05 -825.5 -161.8 -827.15 -164.1 -828.85 -166.5 -831.0 -168.6 -833.45 -168.2 -834.75 -171.0 L-834.9 -171.85 -834.9 -172.0 -841.9 -177.55 Q-843.4 -178.75 -841.85 -178.75 L-834.8 -173.15 -834.7 -173.45 -834.3 -174.1 Q-843.9 -182.1 -853.8 -189.5 L-854.6 -190.15 -856.5 -191.6 Q-873.35 -204.05 -883.85 -217.25 M-861.9 -221.15 L-861.65 -222.05 Q-860.8 -222.65 -860.0 -223.1 -857.45 -222.7 -856.05 -220.5 -854.55 -218.55 -856.05 -217.25 -858.3 -215.5 -860.15 -218.25 -860.75 -218.55 -861.25 -219.3 L-861.7 -220.25 -861.9 -221.1 M-853.15 -200.1 L-852.7 -201.05 -850.85 -202.7 Q-848.7 -203.05 -847.5 -202.8 L-845.8 -202.25 -844.35 -201.45 -843.2 -199.75 -841.85 -197.1 -840.15 -193.5 Q-839.2 -191.55 -839.85 -189.9 -840.9 -188.75 -842.8 -189.05 -846.65 -189.85 -849.3 -193.15 -851.6 -195.8 -852.95 -198.75 -853.1 -199.4 -853.2 -200.05 M-836.1 -192.4 Q-836.15 -193.0 -834.9 -192.75 -832.0 -189.4 -830.25 -188.35 -828.6 -187.25 -829.2 -185.4 L-829.25 -184.6 Q-830.55 -183.4 -832.15 -185.25 L-835.0 -189.05 Q-836.1 -190.75 -836.1 -192.35 M-829.6 -169.2 L-828.95 -169.65 -824.5 -165.35 -829.6 -169.2 M-823.55 -210.3 L-823.4 -211.2 Q-821.75 -212.9 -820.8 -213.15 -817.85 -212.95 -816.95 -210.4 -815.9 -208.2 -817.6 -207.05 -819.75 -205.8 -821.8 -207.8 -822.65 -208.35 -823.25 -209.35 L-823.5 -210.25 M-816.05 -192.35 L-815.95 -193.2 Q-814.25 -194.95 -813.35 -195.2 -810.4 -195.0 -809.5 -192.4 -808.45 -190.25 -810.1 -189.05 -812.2 -187.8 -814.35 -189.8 -815.1 -190.4 -815.8 -191.35 L-816.0 -192.35 M-815.2 -155.2 L-814.65 -155.15 Q-814.2 -154.4 -814.1 -154.05 -814.85 -154.55 -815.2 -155.2 L-814.65 -155.15 Q-814.2 -154.4 -814.1 -154.05 -814.85 -154.55 -815.2 -155.2 M-807.35 -180.2 L-806.45 -180.7 Q-803.6 -181.1 -803.45 -178.45 -809.25 -178.05 -807.3 -180.2 L-806.4 -180.7 Q-803.55 -181.1 -803.4 -178.45 -809.2 -178.05 -807.25 -180.2" fill="none" stroke="#000000" stroke-linecap="round" stroke-linejoin="round" stroke-opacity="0.0" stroke-width="0.0"/>
    </g>
    <g id="sprite2" transform="matrix(1.0, 0.0, 0.0, 1.0, 265.1, 150.0)">
      <use ffdec:characterId="3477" height="300.0" transform="matrix(1.0, 0.0, 0.0, 1.0, -265.1, -150.0)" width="533.0" xlink:href="#shape4"/>
    </g>
    <g id="shape4" transform="matrix(1.0, 0.0, 0.0, 1.0, 265.1, 150.0)">
      <path d="M267.9 -150.0 L267.9 150.0 -265.1 150.0 -265.1 -150.0 267.9 -150.0 Z" fill="none" stroke="#da0000" stroke-linecap="round" stroke-linejoin="round" stroke-width="0.05"/>
      <path d="M1.4 -16.05 L1.45 -16.05 Q9.35 -16.05 14.95 -11.35 20.55 -6.65 20.55 0.0 L39.5 0.0 M20.55 0.0 Q20.55 6.65 14.95 11.35 9.35 16.05 1.45 16.05 L1.4 16.05 1.4 21.45 M-36.65 0.0 L-17.55 0.0 -17.55 -0.05 Q-17.55 -6.65 -11.95 -11.35 -6.4 -16.05 1.4 -16.05 M1.4 16.05 Q-6.4 16.05 -11.95 11.35 -17.55 6.65 -17.55 0.0" fill="none" stroke="#da0000" stroke-linecap="round" stroke-linejoin="round" stroke-opacity="0.2509804" stroke-width="0.05"/>
      <path d="M1.4 -16.05 L1.4 -21.4" fill="none" stroke="#da0000" stroke-linecap="round" stroke-linejoin="round" stroke-opacity="0.2509804" stroke-width="1.0"/>
      <path d="M181.15 141.4 L181.15 123.6 191.05 123.6 191.05 141.4 181.15 141.4" fill="#dadada" fill-rule="evenodd" stroke="none"/>
      <path d="M250.55 123.6 L260.45 123.6 260.45 141.4 260.35 141.4 250.55 141.4 250.55 123.6" fill="#000000" fill-rule="evenodd" stroke="none"/>
      <path d="M230.7 123.6 L240.6 123.6 240.6 141.4 230.7 141.4 230.7 123.6" fill="#da0000" fill-rule="evenodd" stroke="none"/>
      <path d="M191.05 123.6 L201.0 123.6 201.0 141.4 191.05 141.4 191.05 123.6" fill="#dada00" fill-rule="evenodd" stroke="none"/>
      <path d="M201.0 123.6 L210.9 123.6 210.9 141.4 201.0 141.4 201.0 123.6" fill="#00dada" fill-rule="evenodd" stroke="none"/>
      <path d="M210.9 123.6 L220.8 123.6 220.8 141.4 210.9 141.4 210.9 123.6" fill="#00da00" fill-rule="evenodd" stroke="none"/>
      <path d="M220.8 123.6 L230.7 123.6 230.7 141.4 220.8 141.4 220.8 123.6" fill="#da00da" fill-rule="evenodd" stroke="none"/>
      <path d="M240.6 123.6 L250.55 123.6 250.55 141.4 240.6 141.4 240.6 123.6" fill="#0000da" fill-rule="evenodd" stroke="none"/>
      <path d="M260.35 141.4 L260.35 145.4 181.1 145.4 181.1 141.4 181.15 141.4 191.05 141.4 201.0 141.4 210.9 141.4 220.8 141.4 230.7 141.4 240.6 141.4 250.55 141.4 260.35 141.4" fill="url(#gradient1)" fill-rule="evenodd" stroke="none"/>
    </g>
    <linearGradient gradientTransform="matrix(0.0484, 0.0, 0.0, 0.0024, 220.7, 143.35)" gradientUnits="userSpaceOnUse" id="gradient1" spreadMethod="pad" x1="-819.2" x2="819.2">
      <stop offset="0.0" stop-color="#dadada"/>
      <stop offset="1.0" stop-color="#000000"/>
    </linearGradient>
  </defs>
</svg>
