<?xml version="1.0" encoding="UTF-8" standalone="no"?>
<svg xmlns:ffdec="https://www.free-decompiler.com/flash" xmlns:xlink="http://www.w3.org/1999/xlink" ffdec:objectType="frame" height="4004.1px" width="7682.6px" xmlns="http://www.w3.org/2000/svg">
  <g transform="matrix(2.0, 0.0, 0.0, 2.0, 4622.9, 1925.9)">
    <use ffdec:characterId="333" height="372.95" transform="matrix(2.0745, 0.0, 0.0, 1.0111, -262.0106, -216.0102)" width="608.0" xlink:href="#shape0"/>
    <use ffdec:characterId="2870" height="300.0" transform="matrix(1.2648, 0.0, 0.0, 1.177, -995.25, -219.95)" width="533.0" xlink:href="#shape1"/>
    <use ffdec:characterId="3588" height="349.8" transform="matrix(0.998, -0.0574, 0.0574, 0.998, -887.2632, -180.5675)" width="413.65" xlink:href="#sprite0"/>
    <use ffdec:characterId="3586" height="103.0" transform="matrix(-0.6389, 0.7649, -0.7649, -0.6389, -816.0893, -194.9754)" width="276.8" xlink:href="#sprite1"/>
    <use ffdec:characterId="3589" height="84.0" transform="matrix(1.0, 0.0, 0.0, 1.0, -891.25, -228.05)" width="115.6" xlink:href="#morphshape0"/>
    <use ffdec:characterId="3478" height="300.0" transform="matrix(1.032, 0.0, 0.0, 1.032, -975.2947, -208.8519)" width="533.0" xlink:href="#sprite2"/>
  </g>
  <defs>
    <g id="shape0" transform="matrix(1.0, 0.0, 0.0, 1.0, -26.7, -26.05)">
      <path d="M634.7 26.05 L634.7 399.0 26.7 399.0 26.7 26.05 634.7 26.05" fill="#000000" fill-rule="evenodd" stroke="none"/>
    </g>
    <g id="shape1" transform="matrix(1.0, 0.0, 0.0, 1.0, 0.0, 0.0)">
      <path d="M533.0 300.0 L0.0 300.0 0.0 0.0 533.0 0.0 533.0 300.0" fill="#ffffff" fill-rule="evenodd" stroke="none"/>
    </g>
    <g id="sprite0" transform="matrix(1.0, 0.0, 0.0, 1.0, 0.0, 15.9)">
      <use ffdec:characterId="3587" height="349.8" transform="matrix(1.0, 0.0, 0.0, 1.0, 0.0, -15.9)" width="413.65" xlink:href="#shape2"/>
    </g>
    <g id="shape2" transform="matrix(1.0, 0.0, 0.0, 1.0, 0.0, 15.9)">
      <path d="M105.35 -11.25 L90.5 30.05 90.35 30.9 Q74.55 81.8 69.15 137.1 L63.4 118.15 Q68.85 71.3 80.1 27.95 L84.25 17.6 Q90.35 1.6 93.3 -14.7 101.8 -18.3 105.35 -11.25" fill="#2d2d2d" fill-rule="evenodd" stroke="none"/>
      <path d="M329.25 120.55 L331.3 123.0 Q335.6 129.05 332.75 136.0 331.35 139.35 330.55 142.95 L329.95 143.2 Q330.25 144.2 330.0 145.05 329.75 146.15 328.95 147.0 L327.7 148.1 327.3 148.25 324.85 146.2 320.9 147.6 Q319.45 143.5 320.9 139.7 L313.05 135.4 312.95 134.7 Q300.45 133.0 289.05 139.75 275.5 147.7 259.45 148.35 L251.35 149.6 247.4 150.35 Q264.3 184.75 282.8 218.25 286.9 225.7 289.65 233.8 295.8 252.15 296.65 271.5 L301.7 271.45 301.65 272.55 Q318.3 274.8 334.9 271.4 L337.2 270.5 Q349.7 264.8 362.95 269.3 366.45 270.55 370.2 271.1 L383.7 271.55 Q388.8 272.25 393.0 275.4 398.45 279.4 401.35 285.3 403.5 289.7 403.7 294.45 L403.85 298.6 Q411.6 302.95 413.25 311.5 414.3 316.95 412.55 322.0 L411.1 322.4 412.6 327.85 407.2 321.9 Q405.6 324.15 403.1 324.75 355.1 334.55 306.1 333.85 L226.25 331.25 215.15 331.4 Q194.65 331.45 175.5 324.55 172.5 323.4 170.1 320.85 163.65 313.9 160.9 304.8 158.0 295.15 158.15 285.0 158.25 276.05 160.9 267.6 L150.35 252.2 Q133.0 274.4 114.1 295.35 L114.05 303.95 115.25 303.95 113.9 306.05 Q105.0 312.85 93.75 312.7 73.75 312.45 63.55 295.0 57.6 284.8 55.8 273.0 50.9 240.4 44.2 208.25 43.35 204.2 41.15 200.65 35.0 190.8 25.8 183.55 16.0 175.9 6.65 167.4 3.85 164.8 3.7 160.85 L3.8 157.0 Q0.2 155.35 1.2 151.75 2.0 148.9 0.0 146.45 0.75 142.05 3.6 138.7 5.1 137.0 6.85 135.6 L7.0 129.95 Q9.2 127.7 11.9 128.9 13.5 129.6 14.0 131.2 17.45 130.45 17.95 133.7 18.15 135.0 17.95 136.35 17.7 138.15 16.6 139.6 24.05 138.0 27.35 143.25 27.95 144.15 28.1 145.35 L31.6 145.6 Q33.65 138.35 40.1 141.95 45.5 144.9 50.65 148.3 62.0 155.75 63.45 169.5 63.7 172.05 64.6 174.65 70.0 189.85 76.0 204.75 80.9 216.95 86.5 228.9 L92.6 194.45 Q83.4 182.75 85.5 168.05 88.2 148.95 92.6 130.35 96.1 115.5 111.7 116.35 L111.65 115.6 112.25 115.75 112.8 115.2 113.2 115.95 Q114.35 114.35 113.6 112.35 112.5 109.55 110.4 107.25 102.85 106.1 96.0 108.95 L98.6 111.0 Q88.7 114.65 77.6 112.15 54.35 107.05 37.15 91.1 28.25 82.8 28.4 70.8 28.45 68.7 27.1 67.1 L25.25 64.95 Q31.4 49.35 39.7 34.8 41.6 31.45 42.75 27.65 43.9 23.9 43.45 20.1 L45.0 19.8 Q45.05 21.65 45.4 23.7 45.6 24.85 46.5 25.75 L46.95 26.25 Q48.65 22.8 48.4 19.05 L48.15 16.45 49.0 16.3 52.4 22.8 55.9 11.5 57.0 11.3 58.5 19.55 Q64.15 11.35 62.75 1.4 L62.5 0.05 63.95 0.25 64.9 1.5 68.05 19.6 Q86.6 19.85 104.55 25.1 106.0 27.25 108.4 27.8 L110.4 27.55 Q111.7 26.85 114.45 27.6 116.9 26.45 120.15 27.9 123.35 29.35 125.2 29.25 126.25 29.6 126.9 30.7 127.8 32.3 127.95 34.15 138.55 40.0 149.5 44.5 155.5 46.9 156.55 53.4 L159.85 56.05 Q174.3 56.0 186.7 64.35 196.35 70.85 199.45 81.85 200.5 85.7 202.85 89.25 208.05 97.15 214.15 104.45 221.1 112.7 232.15 114.15 240.15 114.9 248.1 114.05 L300.4 110.8 Q307.3 110.25 313.9 110.45 317.65 110.8 320.8 113.0 L324.6 115.95 329.25 120.55 M338.4 271.8 L333.4 280.55 Q339.85 277.8 346.65 278.05 357.2 278.85 365.15 285.85 L366.75 287.4 372.15 276.25 371.55 276.2 371.35 275.65 Q357.0 268.25 341.55 270.35 L338.4 271.8 M371.85 282.9 Q388.55 285.45 401.3 296.55 399.9 280.25 385.05 274.3 381.5 272.85 377.6 273.55 L374.0 275.9 371.85 282.9 M94.25 130.4 Q92.95 138.9 91.15 147.5 89.2 156.75 87.9 165.85 86.3 176.8 90.65 186.75 91.8 189.35 93.2 191.5 L93.4 190.45 95.05 192.8 94.8 194.15 99.55 202.1 Q93.35 191.1 92.15 178.75 91.75 174.55 92.65 170.3 96.6 152.1 98.9 133.5 99.25 130.8 100.55 128.4 102.2 125.5 105.45 124.1 116.55 119.4 128.7 120.8 118.2 117.3 107.75 118.2 96.1 118.5 94.25 130.4 M5.0 159.45 Q6.05 164.8 10.45 168.3 L23.4 178.65 Q33.1 186.2 40.6 196.25 L41.25 196.15 Q42.2 197.6 42.75 199.35 44.75 205.5 46.15 211.7 49.65 227.05 51.7 241.55 54.3 259.85 58.25 278.0 63.3 301.5 84.65 310.6 80.1 308.2 76.4 304.5 68.75 296.7 64.45 286.7 59.9 276.2 58.65 264.6 L56.95 246.2 Q56.1 235.8 54.6 225.55 53.05 215.25 49.85 205.3 46.2 194.1 37.15 186.65 L22.0 174.35 Q12.75 166.9 5.55 158.35 L5.0 159.45 M46.7 37.0 L48.65 32.5 Q39.05 38.75 34.95 49.5 36.65 47.4 39.1 45.85 40.5 45.05 41.9 44.8 34.2 51.6 31.35 61.4 30.25 65.2 30.1 69.3 L31.75 65.7 32.7 65.35 Q29.7 72.15 31.25 79.6 L31.7 81.6 32.7 81.65 Q37.95 93.25 58.05 103.45 78.1 113.65 94.8 110.8 L63.95 104.85 57.15 96.45 56.15 99.1 45.7 89.3 42.75 90.45 Q40.35 80.85 41.15 70.95 L35.8 75.05 39.65 56.35 35.15 59.1 34.2 59.05 Q39.35 46.7 49.45 37.8 L49.1 36.45 46.7 37.0 M49.7 23.2 L49.65 23.05 49.5 23.05 49.5 23.25 49.7 23.2 M224.85 113.5 L227.6 117.1 232.05 124.6 Q245.3 123.3 258.05 118.85 262.0 117.45 266.05 117.2 L296.2 113.65 Q303.3 112.5 310.3 113.45 L316.35 113.3 Q309.85 111.1 302.9 111.95 L281.75 113.45 261.0 114.95 247.3 116.2 Q235.8 116.2 224.85 113.5 M208.05 142.9 L207.15 139.15 Q203.6 129.3 201.0 119.05 L198.7 109.35 197.3 126.7 170.35 123.3 Q180.6 126.3 189.65 131.75 198.9 137.2 208.05 142.9 M162.35 57.75 Q171.75 62.8 181.1 68.2 189.5 73.1 195.7 80.65 195.15 77.4 193.45 74.45 189.2 66.85 181.25 63.2 L175.85 60.55 Q169.5 57.3 162.35 57.75" fill="url(#gradient0)" fill-rule="evenodd" stroke="none"/>
    </g>
    <linearGradient gradientTransform="matrix(0.0, 0.1649, -0.1894, 0.0, 414.85, 179.2)" gradientUnits="userSpaceOnUse" id="gradient0" spreadMethod="pad" x1="-819.2" x2="819.2">
      <stop offset="0.0" stop-color="#333333"/>
      <stop offset="1.0" stop-color="#000000"/>
    </linearGradient>
    <g id="sprite1" transform="matrix(1.0, 0.0, 0.0, 1.0, 62.65, 21.75)">
      <use ffdec:characterId="3585" height="103.0" transform="matrix(1.0, 0.0, 0.0, 1.0, -62.65, -21.75)" width="276.8" xlink:href="#shape3"/>
    </g>
    <g id="shape3" transform="matrix(1.0, 0.0, 0.0, 1.0, 62.65, 21.75)">
      <path d="M7.7 -5.95 L82.35 2.2 77.3 -7.45 13.05 -14.35 7.7 -5.95 M82.15 -13.75 L89.2 3.05 90.8 3.1 108.4 -5.2 136.2 1.65 147.5 2.8 143.75 2.55 147.45 3.15 147.65 3.0 153.2 3.6 153.25 3.3 169.95 4.9 169.45 6.2 177.6 6.7 177.35 5.65 189.85 6.85 197.85 -5.35 202.05 -4.9 200.5 7.9 204.7 8.35 199.45 25.7 196.0 25.55 196.4 24.05 196.45 23.7 189.05 23.0 189.3 24.9 151.45 21.0 149.3 39.35 124.25 36.2 122.65 49.25 214.15 59.25 191.55 75.05 141.5 75.55 140.05 70.35 132.2 69.35 129.4 74.05 119.6 72.95 118.6 81.25 104.4 76.5 95.3 57.9 72.1 55.15 62.35 63.3 51.55 59.65 42.3 28.65 42.5 26.1 6.0 21.55 -2.3 74.6 -11.25 74.65 -10.8 23.05 -10.35 22.65 -62.65 28.65 -52.1 -6.9 -30.3 -14.15 -11.7 -7.95 -0.7 -6.85 8.5 -21.75 82.15 -13.75" fill="#262626" fill-rule="evenodd" stroke="none"/>
    </g>
    <g id="morphshape0" transform="matrix(1.0, 0.0, 0.0, 1.0, 891.25, 228.05)">
      <path d="M-818.05 -192.85 L-817.9 -191.9 Q-817.25 -191.0 -816.6 -190.3 -814.4 -188.1 -812.1 -189.35 -810.3 -190.45 -811.25 -192.7 -812.2 -195.5 -815.25 -195.75 -816.2 -195.5 -817.95 -193.7 L-818.05 -192.85 M-825.85 -211.1 L-825.65 -210.25 Q-825.1 -209.3 -824.35 -208.65 -822.25 -206.45 -819.9 -207.7 -818.05 -208.75 -819.0 -211.05 -819.95 -213.8 -823.0 -214.05 -824.0 -213.8 -825.7 -212.05 L-825.85 -211.1 M-831.5 -169.4 L-826.3 -165.5 -830.85 -169.85 -831.5 -169.4 M-838.3 -192.9 Q-838.25 -191.25 -837.15 -189.5 L-834.2 -185.65 Q-832.55 -183.75 -831.25 -184.95 L-831.2 -185.75 Q-830.65 -187.65 -832.3 -188.75 -834.05 -189.85 -837.05 -193.25 -838.35 -193.5 -838.3 -192.9 M-855.7 -200.75 Q-855.65 -200.2 -855.6 -199.65 -854.25 -196.7 -852.0 -193.95 -849.25 -190.45 -845.25 -189.55 -843.3 -189.15 -842.15 -190.25 -841.4 -191.9 -842.4 -193.85 L-844.2 -197.55 -845.6 -200.3 -846.75 -202.05 -848.25 -202.9 -849.9 -203.5 Q-851.15 -203.8 -853.35 -203.45 L-855.2 -201.75 -855.7 -200.75 M-864.8 -222.05 L-864.6 -221.2 -864.15 -220.25 Q-863.7 -219.6 -863.2 -219.2 -861.3 -216.2 -858.85 -217.95 -857.2 -219.2 -858.65 -221.25 -860.15 -223.6 -862.85 -224.05 -863.7 -223.55 -864.55 -223.0 L-864.85 -222.05 M-887.05 -218.2 Q-876.25 -204.85 -859.05 -192.25 L-857.1 -190.75 -856.25 -190.1 Q-846.1 -182.6 -836.25 -174.5 L-836.65 -173.85 -836.75 -173.55 -844.0 -179.25 Q-845.6 -179.25 -844.1 -178.0 L-836.9 -172.35 -836.9 -172.2 -836.75 -171.35 Q-835.4 -168.55 -832.9 -168.95 -830.7 -166.8 -828.95 -164.35 -827.25 -162.0 -824.95 -160.2 -825.55 -159.25 -825.3 -157.85 L-825.0 -156.9 Q-828.8 -159.05 -832.35 -161.85 -837.25 -165.65 -842.55 -168.7 L-843.3 -168.7 Q-840.6 -163.75 -834.0 -159.45 L-822.8 -151.9 Q-818.35 -148.85 -813.7 -147.75 L-814.35 -148.75 -814.25 -148.75 Q-813.35 -148.85 -812.5 -149.25 L-811.75 -149.6 -811.3 -149.35 Q-809.4 -147.85 -807.35 -146.75 L-806.45 -145.0 Q-804.75 -144.2 -803.15 -144.1 -802.25 -144.05 -801.95 -144.5 -799.05 -143.85 -798.25 -146.3 L-796.6 -146.1 Q-795.7 -146.05 -794.85 -146.5 -794.65 -146.95 -794.6 -147.45 -794.45 -149.7 -795.45 -151.75 -794.5 -152.4 -794.2 -154.15 L-794.5 -155.0 Q-795.75 -156.85 -797.75 -157.65 -799.35 -158.55 -800.85 -159.4 L-801.35 -159.7 -804.2 -165.65 Q-801.55 -162.5 -798.95 -159.4 -804.0 -168.25 -809.6 -176.7 L-813.6 -182.8 -825.2 -202.85 Q-831.8 -214.5 -840.75 -224.6 -838.85 -215.35 -831.35 -203.9 -826.3 -196.4 -821.95 -188.65 L-822.6 -189.0 Q-826.75 -188.4 -822.75 -184.45 -819.2 -180.95 -818.85 -182.95 L-816.9 -179.25 Q-811.65 -168.85 -805.75 -162.95 -807.4 -164.0 -809.15 -164.7 L-809.2 -164.5 -810.7 -163.8 -810.9 -163.6 -811.4 -163.8 -813.75 -163.6 Q-814.7 -163.5 -815.35 -162.9 -816.0 -162.4 -816.1 -161.5 L-816.15 -160.55 Q-817.1 -161.3 -818.1 -161.6 L-817.15 -161.95 Q-815.4 -162.55 -815.45 -164.65 -815.6 -166.05 -815.7 -167.4 -814.5 -169.6 -816.35 -172.05 L-819.85 -176.6 Q-821.75 -179.25 -824.6 -179.0 L-825.2 -178.2 Q-825.55 -175.8 -823.75 -173.55 L-823.3 -173.0 Q-824.4 -172.4 -825.1 -171.35 -825.75 -170.35 -826.25 -168.0 L-830.1 -171.6 Q-830.05 -172.3 -830.35 -173.15 -831.0 -175.9 -834.95 -176.5 -844.0 -185.75 -853.8 -193.75 -854.25 -195.15 -856.6 -196.0 L-860.35 -198.9 Q-873.75 -209.0 -886.9 -218.2 L-887.05 -218.2 M-888.6 -226.6 Q-889.05 -225.55 -888.2 -224.3 -886.85 -222.45 -886.45 -224.7 -886.1 -226.15 -887.55 -227.3 -888.1 -226.95 -888.6 -226.55 M-809.15 -180.6 Q-811.1 -178.4 -805.2 -178.8 -805.35 -181.45 -808.2 -181.05 L-809.1 -180.55" fill="#313131" fill-rule="evenodd" stroke="none"/>
      <path d="M-888.6 -226.55 Q-888.1 -226.95 -887.55 -227.3 -886.1 -226.15 -886.45 -224.7 -886.85 -222.45 -888.2 -224.3 -889.05 -225.55 -888.6 -226.6 M-887.05 -218.2 L-886.9 -218.2 Q-873.75 -209.0 -860.35 -198.9 L-856.6 -196.0 Q-854.25 -195.15 -853.8 -193.75 -844.0 -185.75 -834.95 -176.5 -831.0 -175.9 -830.35 -173.15 -830.05 -172.3 -830.1 -171.6 L-826.25 -168.0 Q-825.75 -170.35 -825.1 -171.35 -824.4 -172.4 -823.3 -173.0 L-823.75 -173.55 Q-825.55 -175.8 -825.2 -178.2 L-824.6 -179.0 Q-821.75 -179.25 -819.85 -176.6 L-816.35 -172.05 Q-814.5 -169.6 -815.7 -167.4 -815.6 -166.05 -815.45 -164.65 -815.4 -162.55 -817.15 -161.95 L-818.1 -161.6 Q-817.1 -161.3 -816.15 -160.55 L-816.1 -161.5 Q-816.0 -162.4 -815.35 -162.9 -814.7 -163.5 -813.75 -163.6 L-811.4 -163.8 -810.9 -163.6 -810.7 -163.8 -809.2 -164.5 -809.15 -164.7 Q-807.4 -164.0 -805.75 -162.95 -811.65 -168.85 -816.9 -179.25 L-818.85 -182.95 Q-819.2 -180.95 -822.75 -184.45 -826.75 -188.4 -822.6 -189.0 L-821.95 -188.65 Q-826.3 -196.4 -831.35 -203.9 -838.85 -215.35 -840.75 -224.6 -831.8 -214.5 -825.2 -202.85 L-813.6 -182.8 -809.6 -176.7 Q-804.0 -168.25 -798.95 -159.4 -801.55 -162.5 -804.2 -165.65 L-801.35 -159.7 -800.85 -159.4 Q-799.35 -158.55 -797.75 -157.65 -795.75 -156.85 -794.5 -155.0 L-794.2 -154.15 Q-794.5 -152.4 -795.45 -151.75 -794.45 -149.7 -794.6 -147.45 -794.65 -146.95 -794.85 -146.5 -795.7 -146.05 -796.6 -146.1 L-798.25 -146.3 Q-799.05 -143.85 -801.95 -144.5 -802.25 -144.05 -803.15 -144.1 -804.75 -144.2 -806.45 -145.0 L-807.35 -146.75 Q-809.4 -147.85 -811.3 -149.35 L-811.75 -149.6 -812.5 -149.25 Q-813.35 -148.85 -814.25 -148.75 L-814.35 -148.75 -813.7 -147.75 Q-818.35 -148.85 -822.8 -151.9 L-834.0 -159.45 Q-840.6 -163.75 -843.3 -168.7 L-842.55 -168.7 Q-837.25 -165.65 -832.35 -161.85 -828.8 -159.05 -825.0 -156.9 L-825.3 -157.85 Q-825.55 -159.25 -824.95 -160.2 -827.25 -162.0 -828.95 -164.35 -830.7 -166.8 -832.9 -168.95 -835.4 -168.55 -836.75 -171.35 L-836.9 -172.2 -836.9 -172.35 -844.1 -178.0 Q-845.6 -179.25 -844.0 -179.25 L-836.75 -173.55 -836.65 -173.85 -836.25 -174.5 Q-846.1 -182.6 -856.25 -190.1 L-857.1 -190.75 -859.05 -192.25 Q-876.25 -204.85 -887.05 -218.2 M-864.85 -222.05 L-864.55 -223.0 Q-863.7 -223.55 -862.85 -224.05 -860.15 -223.6 -858.65 -221.25 -857.2 -219.2 -858.85 -217.95 -861.3 -216.2 -863.2 -219.2 -863.7 -219.6 -864.15 -220.25 L-864.6 -221.2 -864.8 -222.05 M-855.7 -200.75 L-855.2 -201.75 -853.35 -203.45 Q-851.15 -203.8 -849.9 -203.5 L-848.25 -202.9 -846.75 -202.05 -845.6 -200.3 -844.2 -197.55 -842.4 -193.85 Q-841.4 -191.9 -842.15 -190.25 -843.3 -189.15 -845.25 -189.55 -849.25 -190.45 -852.0 -193.95 -854.25 -196.7 -855.6 -199.65 -855.65 -200.2 -855.7 -200.75 M-838.3 -192.9 Q-838.35 -193.5 -837.05 -193.25 -834.05 -189.85 -832.3 -188.75 -830.65 -187.65 -831.2 -185.75 L-831.25 -184.95 Q-832.55 -183.75 -834.2 -185.65 L-837.15 -189.5 Q-838.25 -191.25 -838.3 -192.9 M-831.5 -169.4 L-830.85 -169.85 -826.3 -165.5 -831.5 -169.4 M-825.85 -211.1 L-825.7 -212.05 Q-824.0 -213.8 -823.0 -214.05 -819.95 -213.8 -819.0 -211.05 -818.05 -208.75 -819.9 -207.7 -822.25 -206.45 -824.35 -208.65 -825.1 -209.3 -825.65 -210.25 L-825.85 -211.1 M-818.05 -192.85 L-817.95 -193.7 Q-816.2 -195.5 -815.25 -195.75 -812.2 -195.5 -811.25 -192.7 -810.3 -190.45 -812.1 -189.35 -814.4 -188.1 -816.6 -190.3 -817.25 -191.0 -817.9 -191.9 L-818.05 -192.85 M-817.45 -153.75 L-816.95 -153.65 Q-816.6 -153.1 -816.35 -152.7 -817.0 -153.2 -817.5 -153.75 L-817.0 -153.65 Q-816.65 -153.1 -816.4 -152.7 -817.05 -153.2 -817.55 -153.75 M-809.05 -180.5 L-808.15 -181.0 Q-805.3 -181.4 -805.15 -178.75 -811.05 -178.35 -809.1 -180.55 L-808.2 -181.05 Q-805.35 -181.45 -805.2 -178.8 -811.1 -178.4 -809.15 -180.6" fill="none" stroke="#000000" stroke-linecap="round" stroke-linejoin="round" stroke-opacity="0.0" stroke-width="0.0"/>
    </g>
    <g id="sprite2" transform="matrix(1.0, 0.0, 0.0, 1.0, 265.1, 150.0)">
      <use ffdec:characterId="3477" height="300.0" transform="matrix(1.0, 0.0, 0.0, 1.0, -265.1, -150.0)" width="533.0" xlink:href="#shape4"/>
    </g>
    <g id="shape4" transform="matrix(1.0, 0.0, 0.0, 1.0, 265.1, 150.0)">
      <path d="M267.9 -150.0 L267.9 150.0 -265.1 150.0 -265.1 -150.0 267.9 -150.0 Z" fill="none" stroke="#480000" stroke-linecap="round" stroke-linejoin="round" stroke-width="0.05"/>
      <path d="M1.4 -16.05 L1.45 -16.05 Q9.35 -16.05 14.95 -11.35 20.55 -6.65 20.55 0.0 L39.5 0.0 M20.55 0.0 Q20.55 6.65 14.95 11.35 9.35 16.05 1.45 16.05 L1.4 16.05 1.4 21.45 M-36.65 0.0 L-17.55 0.0 -17.55 -0.05 Q-17.55 -6.65 -11.95 -11.35 -6.4 -16.05 1.4 -16.05 M1.4 16.05 Q-6.4 16.05 -11.95 11.35 -17.55 6.65 -17.55 0.0" fill="none" stroke="#480000" stroke-linecap="round" stroke-linejoin="round" stroke-opacity="0.2509804" stroke-width="0.05"/>
      <path d="M1.4 -16.05 L1.4 -21.4" fill="none" stroke="#480000" stroke-linecap="round" stroke-linejoin="round" stroke-opacity="0.2509804" stroke-width="1.0"/>
      <path d="M181.15 141.4 L181.15 123.6 191.05 123.6 191.05 141.4 181.15 141.4" fill="#484848" fill-rule="evenodd" stroke="none"/>
      <path d="M250.55 123.6 L260.45 123.6 260.45 141.4 260.35 141.4 250.55 141.4 250.55 123.6" fill="#000000" fill-rule="evenodd" stroke="none"/>
      <path d="M230.7 123.6 L240.6 123.6 240.6 141.4 230.7 141.4 230.7 123.6" fill="#480000" fill-rule="evenodd" stroke="none"/>
      <path d="M191.05 123.6 L201.0 123.6 201.0 141.4 191.05 141.4 191.05 123.6" fill="#484800" fill-rule="evenodd" stroke="none"/>
      <path d="M201.0 123.6 L210.9 123.6 210.9 141.4 201.0 141.4 201.0 123.6" fill="#004848" fill-rule="evenodd" stroke="none"/>
      <path d="M210.9 123.6 L220.8 123.6 220.8 141.4 210.9 141.4 210.9 123.6" fill="#004800" fill-rule="evenodd" stroke="none"/>
      <path d="M220.8 123.6 L230.7 123.6 230.7 141.4 220.8 141.4 220.8 123.6" fill="#480048" fill-rule="evenodd" stroke="none"/>
      <path d="M240.6 123.6 L250.55 123.6 250.55 141.4 240.6 141.4 240.6 123.6" fill="#000048" fill-rule="evenodd" stroke="none"/>
      <path d="M260.35 141.4 L260.35 145.4 181.1 145.4 181.1 141.4 181.15 141.4 191.05 141.4 201.0 141.4 210.9 141.4 220.8 141.4 230.7 141.4 240.6 141.4 250.55 141.4 260.35 141.4" fill="url(#gradient1)" fill-rule="evenodd" stroke="none"/>
    </g>
    <linearGradient gradientTransform="matrix(0.0484, 0.0, 0.0, 0.0024, 220.7, 143.35)" gradientUnits="userSpaceOnUse" id="gradient1" spreadMethod="pad" x1="-819.2" x2="819.2">
      <stop offset="0.0" stop-color="#484848"/>
      <stop offset="1.0" stop-color="#000000"/>
    </linearGradient>
  </defs>
</svg>
