<?xml version="1.0" encoding="UTF-8" standalone="no"?>
<svg xmlns:ffdec="https://www.free-decompiler.com/flash" xmlns:xlink="http://www.w3.org/1999/xlink" ffdec:objectType="frame" height="4004.1px" width="7682.6px" xmlns="http://www.w3.org/2000/svg">
  <g transform="matrix(2.0, 0.0, 0.0, 2.0, 4622.9, 1925.9)">
    <use ffdec:characterId="333" height="372.95" transform="matrix(1.0611, 0.0, 0.0, 1.0111, -262.0187, -216.0102)" width="608.0" xlink:href="#shape0"/>
    <use ffdec:characterId="3498" height="63.4" transform="matrix(1.6289, 0.0, 0.0, 1.6289, 152.2572, 16.4612)" width="70.8" xlink:href="#sprite0"/>
    <use ffdec:characterId="3496" height="524.1" transform="matrix(1.0, 0.0, 0.0, 1.0, -156.95, -214.95)" width="524.1" xlink:href="#sprite1"/>
    <use ffdec:characterId="3484" height="348.9" transform="matrix(1.0, 0.0, 0.0, 1.0, -266.0, -193.15)" width="543.5" xlink:href="#shape3"/>
    <filter id="filter0">
      <feColorMatrix in="SourceGraphic" result="filterResult0" type="matrix" values="0 0 0 0 0.96862745,0 0 0 0 0.6745098,0 0 0 0 0.0,0 0 0 1 0"/>
      <feConvolveMatrix divisor="625.0" in="filterResult0" kernelMatrix="1 1 1 1 1 1 1 1 1 1 1 1 1 1 1 1 1 1 1 1 1 1 1 1 1 1 1 1 1 1 1 1 1 1 1 1 1 1 1 1 1 1 1 1 1 1 1 1 1 1 1 1 1 1 1 1 1 1 1 1 1 1 1 1 1 1 1 1 1 1 1 1 1 1 1 1 1 1 1 1 1 1 1 1 1 1 1 1 1 1 1 1 1 1 1 1 1 1 1 1 1 1 1 1 1 1 1 1 1 1 1 1 1 1 1 1 1 1 1 1 1 1 1 1 1 1 1 1 1 1 1 1 1 1 1 1 1 1 1 1 1 1 1 1 1 1 1 1 1 1 1 1 1 1 1 1 1 1 1 1 1 1 1 1 1 1 1 1 1 1 1 1 1 1 1 1 1 1 1 1 1 1 1 1 1 1 1 1 1 1 1 1 1 1 1 1 1 1 1 1 1 1 1 1 1 1 1 1 1 1 1 1 1 1 1 1 1 1 1 1 1 1 1 1 1 1 1 1 1 1 1 1 1 1 1 1 1 1 1 1 1 1 1 1 1 1 1 1 1 1 1 1 1 1 1 1 1 1 1 1 1 1 1 1 1 1 1 1 1 1 1 1 1 1 1 1 1 1 1 1 1 1 1 1 1 1 1 1 1 1 1 1 1 1 1 1 1 1 1 1 1 1 1 1 1 1 1 1 1 1 1 1 1 1 1 1 1 1 1 1 1 1 1 1 1 1 1 1 1 1 1 1 1 1 1 1 1 1 1 1 1 1 1 1 1 1 1 1 1 1 1 1 1 1 1 1 1 1 1 1 1 1 1 1 1 1 1 1 1 1 1 1 1 1 1 1 1 1 1 1 1 1 1 1 1 1 1 1 1 1 1 1 1 1 1 1 1 1 1 1 1 1 1 1 1 1 1 1 1 1 1 1 1 1 1 1 1 1 1 1 1 1 1 1 1 1 1 1 1 1 1 1 1 1 1 1 1 1 1 1 1 1 1 1 1 1 1 1 1 1 1 1 1 1 1 1 1 1 1 1 1 1 1 1 1 1 1 1 1 1 1 1 1 1 1 1 1 1 1 1 1 1 1 1 1 1 1 1 1 1 1 1 1 1 1 1 1 1 1 1 1 1 1 1 1 1 1 1 1 1 1 1 1 1 1 1 1 1 1 1 1 1 1 1 1 1 1 1 1 1 1 1 1 1 1 1 1 1 1 1 1 1 1 1 1 1 1 1 1 1 1 1 1 1 1 1 1 1 1 1 1 1 1 1 1 1 1 1 1 1 1 1 1 1 1 1 1 1 1 1 1 1 1 1 1 1 1 1 1 1 1 1 1 1 1 1 1 1 1 1 1 1 1 1 1 1 1 1 1 1 1 1 1 1 1 1 1 1 1 1 1 1 1 1 1" order="25 25" result="filterResult1"/>
      <feConvolveMatrix divisor="625.0" in="filterResult1" kernelMatrix="1 1 1 1 1 1 1 1 1 1 1 1 1 1 1 1 1 1 1 1 1 1 1 1 1 1 1 1 1 1 1 1 1 1 1 1 1 1 1 1 1 1 1 1 1 1 1 1 1 1 1 1 1 1 1 1 1 1 1 1 1 1 1 1 1 1 1 1 1 1 1 1 1 1 1 1 1 1 1 1 1 1 1 1 1 1 1 1 1 1 1 1 1 1 1 1 1 1 1 1 1 1 1 1 1 1 1 1 1 1 1 1 1 1 1 1 1 1 1 1 1 1 1 1 1 1 1 1 1 1 1 1 1 1 1 1 1 1 1 1 1 1 1 1 1 1 1 1 1 1 1 1 1 1 1 1 1 1 1 1 1 1 1 1 1 1 1 1 1 1 1 1 1 1 1 1 1 1 1 1 1 1 1 1 1 1 1 1 1 1 1 1 1 1 1 1 1 1 1 1 1 1 1 1 1 1 1 1 1 1 1 1 1 1 1 1 1 1 1 1 1 1 1 1 1 1 1 1 1 1 1 1 1 1 1 1 1 1 1 1 1 1 1 1 1 1 1 1 1 1 1 1 1 1 1 1 1 1 1 1 1 1 1 1 1 1 1 1 1 1 1 1 1 1 1 1 1 1 1 1 1 1 1 1 1 1 1 1 1 1 1 1 1 1 1 1 1 1 1 1 1 1 1 1 1 1 1 1 1 1 1 1 1 1 1 1 1 1 1 1 1 1 1 1 1 1 1 1 1 1 1 1 1 1 1 1 1 1 1 1 1 1 1 1 1 1 1 1 1 1 1 1 1 1 1 1 1 1 1 1 1 1 1 1 1 1 1 1 1 1 1 1 1 1 1 1 1 1 1 1 1 1 1 1 1 1 1 1 1 1 1 1 1 1 1 1 1 1 1 1 1 1 1 1 1 1 1 1 1 1 1 1 1 1 1 1 1 1 1 1 1 1 1 1 1 1 1 1 1 1 1 1 1 1 1 1 1 1 1 1 1 1 1 1 1 1 1 1 1 1 1 1 1 1 1 1 1 1 1 1 1 1 1 1 1 1 1 1 1 1 1 1 1 1 1 1 1 1 1 1 1 1 1 1 1 1 1 1 1 1 1 1 1 1 1 1 1 1 1 1 1 1 1 1 1 1 1 1 1 1 1 1 1 1 1 1 1 1 1 1 1 1 1 1 1 1 1 1 1 1 1 1 1 1 1 1 1 1 1 1 1 1 1 1 1 1 1 1 1 1 1 1 1 1 1 1 1 1 1 1 1 1 1 1 1 1 1 1 1 1 1 1 1 1 1 1 1 1 1 1 1 1 1 1 1 1 1 1 1 1 1 1 1 1 1 1 1 1 1 1 1 1 1 1 1 1 1 1 1 1 1 1 1 1 1 1 1 1 1 1 1 1 1 1 1" order="25 25" result="filterResult2"/>
      <feConvolveMatrix divisor="625.0" in="filterResult2" kernelMatrix="1 1 1 1 1 1 1 1 1 1 1 1 1 1 1 1 1 1 1 1 1 1 1 1 1 1 1 1 1 1 1 1 1 1 1 1 1 1 1 1 1 1 1 1 1 1 1 1 1 1 1 1 1 1 1 1 1 1 1 1 1 1 1 1 1 1 1 1 1 1 1 1 1 1 1 1 1 1 1 1 1 1 1 1 1 1 1 1 1 1 1 1 1 1 1 1 1 1 1 1 1 1 1 1 1 1 1 1 1 1 1 1 1 1 1 1 1 1 1 1 1 1 1 1 1 1 1 1 1 1 1 1 1 1 1 1 1 1 1 1 1 1 1 1 1 1 1 1 1 1 1 1 1 1 1 1 1 1 1 1 1 1 1 1 1 1 1 1 1 1 1 1 1 1 1 1 1 1 1 1 1 1 1 1 1 1 1 1 1 1 1 1 1 1 1 1 1 1 1 1 1 1 1 1 1 1 1 1 1 1 1 1 1 1 1 1 1 1 1 1 1 1 1 1 1 1 1 1 1 1 1 1 1 1 1 1 1 1 1 1 1 1 1 1 1 1 1 1 1 1 1 1 1 1 1 1 1 1 1 1 1 1 1 1 1 1 1 1 1 1 1 1 1 1 1 1 1 1 1 1 1 1 1 1 1 1 1 1 1 1 1 1 1 1 1 1 1 1 1 1 1 1 1 1 1 1 1 1 1 1 1 1 1 1 1 1 1 1 1 1 1 1 1 1 1 1 1 1 1 1 1 1 1 1 1 1 1 1 1 1 1 1 1 1 1 1 1 1 1 1 1 1 1 1 1 1 1 1 1 1 1 1 1 1 1 1 1 1 1 1 1 1 1 1 1 1 1 1 1 1 1 1 1 1 1 1 1 1 1 1 1 1 1 1 1 1 1 1 1 1 1 1 1 1 1 1 1 1 1 1 1 1 1 1 1 1 1 1 1 1 1 1 1 1 1 1 1 1 1 1 1 1 1 1 1 1 1 1 1 1 1 1 1 1 1 1 1 1 1 1 1 1 1 1 1 1 1 1 1 1 1 1 1 1 1 1 1 1 1 1 1 1 1 1 1 1 1 1 1 1 1 1 1 1 1 1 1 1 1 1 1 1 1 1 1 1 1 1 1 1 1 1 1 1 1 1 1 1 1 1 1 1 1 1 1 1 1 1 1 1 1 1 1 1 1 1 1 1 1 1 1 1 1 1 1 1 1 1 1 1 1 1 1 1 1 1 1 1 1 1 1 1 1 1 1 1 1 1 1 1 1 1 1 1 1 1 1 1 1 1 1 1 1 1 1 1 1 1 1 1 1 1 1 1 1 1 1 1 1 1 1 1 1 1 1 1 1 1 1 1 1 1 1 1 1 1 1 1 1 1 1 1 1 1 1 1 1 1 1 1 1 1 1 1 1" order="25 25" result="filterResult3"/>
      <feComposite in="SourceGraphic" in2="filterResult3" operator="over" result="filterResult4"/>
      <feFlood flood-color="#f7ac00" flood-opacity="1.0" result="filterResult5"/>
      <feComposite in="filterResult5" in2="filterResult4" operator="out" result="filterResult6"/>
      <feConvolveMatrix divisor="121.0" in="filterResult6" kernelMatrix="1 1 1 1 1 1 1 1 1 1 1 1 1 1 1 1 1 1 1 1 1 1 1 1 1 1 1 1 1 1 1 1 1 1 1 1 1 1 1 1 1 1 1 1 1 1 1 1 1 1 1 1 1 1 1 1 1 1 1 1 1 1 1 1 1 1 1 1 1 1 1 1 1 1 1 1 1 1 1 1 1 1 1 1 1 1 1 1 1 1 1 1 1 1 1 1 1 1 1 1 1 1 1 1 1 1 1 1 1 1 1 1 1 1 1 1 1 1 1 1 1" order="11 11" result="filterResult7"/>
      <feComposite in="filterResult7" in2="filterResult4" operator="in" result="filterResult8"/>
      <feComposite in="filterResult8" in2="filterResult4" operator="over" result="filterResult9"/>
    </filter>
    <use ffdec:characterId="3483" filter="url(#filter0)" height="33.2" transform="matrix(0.9915, 0.1267, -0.1267, 0.9915, -126.3794, -90.1461)" width="37.5" xlink:href="#sprite2"/>
    <use ffdec:characterId="3481" height="365.25" transform="matrix(1.0, 0.0, 0.0, 1.0, -114.8, -195.05)" width="385.0" xlink:href="#shape5"/>
    <filter id="filter1">
      <feConvolveMatrix divisor="256.0" in="SourceGraphic" kernelMatrix="1 1 1 1 1 1 1 1 1 1 1 1 1 1 1 1 1 1 1 1 1 1 1 1 1 1 1 1 1 1 1 1 1 1 1 1 1 1 1 1 1 1 1 1 1 1 1 1 1 1 1 1 1 1 1 1 1 1 1 1 1 1 1 1 1 1 1 1 1 1 1 1 1 1 1 1 1 1 1 1 1 1 1 1 1 1 1 1 1 1 1 1 1 1 1 1 1 1 1 1 1 1 1 1 1 1 1 1 1 1 1 1 1 1 1 1 1 1 1 1 1 1 1 1 1 1 1 1 1 1 1 1 1 1 1 1 1 1 1 1 1 1 1 1 1 1 1 1 1 1 1 1 1 1 1 1 1 1 1 1 1 1 1 1 1 1 1 1 1 1 1 1 1 1 1 1 1 1 1 1 1 1 1 1 1 1 1 1 1 1 1 1 1 1 1 1 1 1 1 1 1 1 1 1 1 1 1 1 1 1 1 1 1 1 1 1 1 1 1 1 1 1 1 1 1 1 1 1 1 1 1 1 1 1 1 1 1 1 1 1 1 1 1 1 1 1 1 1 1 1 1 1 1 1 1 1" order="16 16" result="filterResult10"/>
      <feConvolveMatrix divisor="256.0" in="filterResult10" kernelMatrix="1 1 1 1 1 1 1 1 1 1 1 1 1 1 1 1 1 1 1 1 1 1 1 1 1 1 1 1 1 1 1 1 1 1 1 1 1 1 1 1 1 1 1 1 1 1 1 1 1 1 1 1 1 1 1 1 1 1 1 1 1 1 1 1 1 1 1 1 1 1 1 1 1 1 1 1 1 1 1 1 1 1 1 1 1 1 1 1 1 1 1 1 1 1 1 1 1 1 1 1 1 1 1 1 1 1 1 1 1 1 1 1 1 1 1 1 1 1 1 1 1 1 1 1 1 1 1 1 1 1 1 1 1 1 1 1 1 1 1 1 1 1 1 1 1 1 1 1 1 1 1 1 1 1 1 1 1 1 1 1 1 1 1 1 1 1 1 1 1 1 1 1 1 1 1 1 1 1 1 1 1 1 1 1 1 1 1 1 1 1 1 1 1 1 1 1 1 1 1 1 1 1 1 1 1 1 1 1 1 1 1 1 1 1 1 1 1 1 1 1 1 1 1 1 1 1 1 1 1 1 1 1 1 1 1 1 1 1 1 1 1 1 1 1 1 1 1 1 1 1 1 1 1 1 1 1" order="16 16" result="filterResult11"/>
    </filter>
    <use ffdec:characterId="3480" filter="url(#filter1)" height="174.45" transform="matrix(1.0, 0.0, 0.0, 1.0, -3.2, -98.15)" width="234.95" xlink:href="#sprite3"/>
    <use ffdec:characterId="3478" height="300.0" transform="matrix(0.2317, 0.0, 0.0, 0.2317, -171.4168, -102.7488)" width="533.0" xlink:href="#sprite4"/>
  </g>
  <defs>
    <g id="shape0" transform="matrix(1.0, 0.0, 0.0, 1.0, -26.7, -26.05)">
      <path d="M634.7 26.05 L634.7 399.0 26.7 399.0 26.7 26.05 634.7 26.05" fill="#000000" fill-rule="evenodd" stroke="none"/>
    </g>
    <g id="sprite0" transform="matrix(1.0, 0.0, 0.0, 1.0, -80.55, -75.15)">
      <use ffdec:characterId="3497" height="2.0" transform="matrix(1.0, 0.0, 0.0, 1.0, 104.9, 93.8)" width="2.0" xlink:href="#shape1"/>
    </g>
    <g id="shape1" transform="matrix(1.0, 0.0, 0.0, 1.0, 0.0, 0.0)">
      <path d="M2.0 1.0 L1.7 1.7 1.0 2.0 Q0.6 2.0 0.3 1.7 0.0 1.4 0.0 1.0 0.0 0.6 0.3 0.3 0.6 0.0 1.0 0.0 1.4 0.0 1.7 0.3 L2.0 1.0" fill="#ff9900" fill-rule="evenodd" stroke="none"/>
    </g>
    <g id="sprite1" transform="matrix(1.0, 0.0, 0.0, 1.0, 39.0, 39.0)">
      <use ffdec:characterId="3485" height="446.1" transform="matrix(1.0, 0.0, 0.0, 1.0, 0.0, 0.0)" width="446.1" xlink:href="#shape2"/>
    </g>
    <g id="shape2" transform="matrix(1.0, 0.0, 0.0, 1.0, 0.0, 0.0)">
      <path d="M380.75 65.3 Q446.1 130.65 446.1 223.05 446.1 315.45 380.75 380.75 315.45 446.1 223.05 446.1 130.65 446.1 65.3 380.75 0.0 315.45 0.0 223.05 0.0 130.65 65.3 65.3 130.65 0.0 223.05 0.0 315.45 0.0 380.75 65.3" fill="url(#gradient0)" fill-rule="evenodd" stroke="none"/>
    </g>
    <radialGradient cx="0" cy="0" gradientTransform="matrix(0.2747, 0.0, 0.0, 0.2747, 223.05, 223.05)" gradientUnits="userSpaceOnUse" id="gradient0" r="819.2" spreadMethod="pad">
      <stop offset="0.0" stop-color="#dd8400"/>
      <stop offset="1.0" stop-color="#de8400" stop-opacity="0.0"/>
    </radialGradient>
    <g id="shape3" transform="matrix(1.0, 0.0, 0.0, 1.0, 266.0, 193.15)">
      <path d="M51.8 -79.65 Q41.15 -79.95 30.35 -79.1 L13.45 -77.4 -8.45 -76.4 Q-12.75 -76.45 -15.75 -79.8 -19.15 -83.7 -23.8 -85.6 -32.05 -88.85 -40.1 -92.35 -50.45 -96.7 -57.6 -105.05 -64.05 -112.6 -67.05 -121.95 -69.05 -128.2 -70.05 -134.8 -71.65 -144.95 -76.6 -154.1 -81.2 -162.45 -88.7 -168.55 L-97.3 -175.6 Q-102.9 -180.2 -106.1 -186.85 L-105.75 -187.1 Q-100.9 -187.5 -96.4 -185.85 -91.95 -184.45 -88.4 -181.25 -77.95 -171.95 -71.4 -160.1 L-70.95 -159.9 -66.6 -146.0 -66.1 -145.95 Q-65.55 -141.3 -65.35 -136.6 -64.4 -117.1 -49.55 -104.95 -45.4 -101.6 -40.2 -100.15 -22.55 -95.05 -3.85 -94.9 26.9 -93.1 57.3 -88.5 84.65 -84.4 112.2 -82.7 117.3 -82.4 122.25 -80.8 124.5 -80.0 125.45 -77.65 127.5 -72.8 127.45 -67.45 127.25 -51.0 118.6 -36.65 L117.65 -41.65 Q116.5 -46.95 114.1 -51.55 L111.4 -48.9 Q105.35 -43.0 102.7 -38.6 L104.15 -38.75 104.25 -38.65 101.3 -35.8 101.25 -35.75 98.65 -30.2 Q97.0 -26.7 97.0 -24.5 L96.5 -18.6 Q96.0 -14.75 96.0 -13.65 96.0 -6.6 104.4 -3.25 110.55 -0.85 123.4 0.05 L127.75 0.35 Q123.8 -1.45 120.05 -3.95 L150.6 -1.3 Q159.25 -0.5 163.4 7.25 L164.25 8.8 Q161.55 10.8 158.95 10.25 L159.15 10.7 162.0 17.75 Q165.85 26.5 169.6 26.5 173.65 26.5 176.45 22.75 L177.7 21.3 171.5 20.95 Q176.3 15.45 183.1 17.65 191.3 20.35 189.65 28.95 L188.8 31.95 188.35 31.9 188.15 34.0 Q187.45 30.05 185.85 27.25 L185.55 27.7 Q183.35 30.9 182.1 33.0 177.1 41.25 177.1 48.35 177.1 53.05 178.85 58.5 180.75 64.35 183.6 67.5 194.8 79.95 197.6 81.2 L197.95 81.35 Q201.55 74.45 207.7 69.8 L218.45 74.0 Q227.7 77.8 237.1 80.6 250.1 84.6 262.5 90.3 268.25 92.85 270.85 98.4 271.45 99.75 271.3 101.15 269.0 120.45 264.85 139.7 L261.85 139.6 Q261.2 132.15 259.0 125.05 256.1 115.6 250.3 107.65 245.95 101.8 239.8 97.25 231.65 91.35 222.0 88.3 216.55 86.65 211.1 86.4 L211.1 86.75 Q211.1 90.15 209.9 91.3 208.05 93.0 202.1 93.0 187.0 93.0 175.9 73.75 171.85 66.8 169.3 58.85 167.1 52.05 167.1 48.6 167.1 46.8 167.75 43.3 168.35 39.95 169.1 37.25 159.6 35.85 156.35 30.9 155.3 29.3 154.65 26.9 L153.75 23.75 Q150.35 17.5 150.0 16.25 148.3 10.25 144.75 8.3 141.9 6.75 136.95 7.55 L127.65 9.7 Q121.7 11.05 117.75 10.5 108.0 9.2 102.45 7.25 100.1 6.45 96.75 4.5 L92.15 2.4 Q89.3 1.05 88.5 -0.75 87.25 -3.6 86.55 -8.0 86.0 -11.35 86.0 -13.9 86.0 -16.45 86.65 -20.4 L79.25 -19.55 68.65 -32.2 68.6 -40.2 69.0 -40.55 Q70.1 -38.85 71.95 -36.65 77.25 -30.4 83.0 -30.4 85.45 -30.4 89.25 -32.25 91.0 -39.3 92.25 -42.0 94.25 -46.45 98.75 -51.35 103.05 -56.0 107.7 -58.95 L108.6 -59.5 107.7 -60.45 Q100.35 -68.2 90.6 -72.25 80.5 -76.55 69.5 -78.0 L51.8 -79.65" fill="url(#gradient1)" fill-rule="evenodd" stroke="none"/>
      <path d="M-106.1 -186.85 Q-102.9 -180.2 -97.3 -175.6 L-88.7 -168.55 Q-81.2 -162.45 -76.6 -154.1 -71.65 -144.95 -70.05 -134.8 -69.05 -128.2 -67.05 -121.95 -64.05 -112.6 -57.6 -105.05 -50.45 -96.7 -40.1 -92.35 -32.05 -88.85 -23.8 -85.6 -19.15 -83.7 -15.75 -79.8 -12.75 -76.45 -8.45 -76.4 L13.45 -77.4 30.35 -79.1 Q41.15 -79.95 51.8 -79.65 L69.5 -78.0 Q80.5 -76.55 90.6 -72.25 100.35 -68.2 107.7 -60.45 115.3 -52.55 117.65 -41.65 L118.6 -36.65 Q127.25 -51.0 127.45 -67.45 127.5 -72.8 125.45 -77.65 124.5 -80.0 122.25 -80.8 117.3 -82.4 112.2 -82.7 84.65 -84.4 57.3 -88.5 26.9 -93.1 -3.85 -94.9 -22.55 -95.05 -40.2 -100.15 -45.4 -101.6 -49.55 -104.95 -64.4 -117.1 -65.35 -136.6 -65.55 -141.3 -66.1 -145.95 L-66.1 -146.0 -66.6 -146.0 -70.95 -159.9 -71.4 -160.1 Q-77.95 -171.95 -88.4 -181.25 -91.95 -184.45 -96.4 -185.85 -100.9 -187.5 -105.75 -187.1 L-106.3 -187.1 -106.15 -186.85 -106.1 -186.85 M67.75 -89.65 L121.0 -85.4 Q125.5 -85.15 128.0 -79.4 L129.3 -73.65 130.4 -67.0 Q130.4 -56.35 124.65 -42.85 L114.9 -23.05 114.65 -22.6 115.0 -22.75 115.3 -22.85 Q115.4 -22.35 114.5 -18.9 L113.55 -15.2 114.35 -14.55 114.65 -13.1 115.15 -11.75 118.55 -8.85 118.35 -8.45 119.3 -7.45 124.55 -6.35 128.7 -6.0 147.75 -5.1 Q154.15 -4.8 158.25 -2.4 160.25 -1.2 163.25 1.9 166.55 5.35 168.5 9.85 170.3 14.15 170.55 18.4 L170.3 19.05 170.4 19.1 Q173.8 14.85 178.55 13.8 184.0 12.6 188.0 16.05 192.3 19.75 192.3 26.75 192.3 31.05 190.65 34.7 190.65 38.25 191.35 40.95 192.7 46.7 197.0 51.05 199.9 54.0 204.5 60.5 209.25 66.45 216.05 70.05 221.15 72.75 233.45 76.95 L259.0 85.25 Q267.6 87.95 271.5 94.7 274.25 99.35 274.25 104.65 274.25 109.05 271.9 117.55 L271.8 118.0 271.7 119.8 271.5 121.9 Q271.5 126.75 272.5 129.4 L275.1 133.05 Q277.5 136.2 277.5 136.55 L269.15 127.6 268.5 130.25 266.75 139.8 267.55 139.9 267.7 139.75 267.8 140.5 Q267.8 141.3 267.6 141.45 L267.05 141.65 266.4 141.65 266.2 142.7 Q265.0 150.1 264.85 155.75 L264.35 155.75 264.2 153.1 264.0 150.6 264.05 148.55 263.85 149.8 Q263.25 152.0 261.0 152.0 L259.55 151.9 257.0 154.0 -263.0 154.0 -265.45 151.9 -266.0 151.25 Q-266.0 149.45 -263.0 148.0 L-262.8 148.0 -262.95 146.55 -263.0 146.25 -262.95 145.65 -263.0 142.9 Q-264.5 142.3 -264.55 139.4 L-265.25 139.05 Q-265.35 139.75 -265.35 138.5 -265.35 137.85 -264.4 137.55 L-264.35 134.05 -264.4 129.55 -264.25 125.05 -264.2 120.55 Q-264.15 117.85 -264.25 116.05 -264.3 114.6 -264.95 111.55 L-265.35 109.3 -265.85 109.3 -265.85 -186.65 Q-264.9 -187.6 -259.1 -187.5 -250.55 -187.15 -244.65 -187.15 L-213.7 -188.65 -199.5 -190.65 -188.4 -192.4 -168.75 -193.0 Q-146.1 -192.6 -140.3 -191.15 L-110.8 -190.25 -110.9 -190.6 -110.75 -192.65 -110.4 -192.65 -108.5 -190.25 Q-98.5 -190.35 -96.6 -189.95 -93.95 -189.5 -89.75 -186.25 L-86.65 -184.35 Q-84.95 -183.3 -84.25 -182.15 L-84.65 -181.45 -80.1 -175.4 -76.0 -170.8 Q-75.7 -171.65 -73.7 -171.35 -71.3 -171.05 -68.35 -169.4 -62.95 -166.4 -61.3 -162.5 L-61.0 -162.25 Q-59.65 -161.25 -59.35 -159.25 L-59.25 -155.9 Q-59.25 -153.15 -59.95 -151.2 -60.95 -148.45 -63.6 -146.45 L-63.5 -143.9 -62.3 -135.35 -58.65 -137.15 -53.5 -139.15 -52.7 -138.75 Q-52.35 -138.45 -52.35 -137.6 -52.35 -136.55 -54.45 -131.25 -56.05 -127.1 -57.35 -125.15 -58.2 -122.15 -58.9 -120.45 L-58.05 -118.5 Q-54.4 -111.05 -48.0 -106.75 -43.3 -103.6 -38.45 -101.9 -30.15 -99.05 -17.25 -98.15 L2.3 -97.2 12.0 -96.9 14.4 -96.45 18.5 -95.9 38.5 -93.9 52.35 -91.85 67.75 -89.65 M68.6 -40.2 L68.65 -32.2 79.25 -19.55 93.8 -21.25 Q96.05 -31.75 104.25 -38.65 L104.4 -38.75 104.15 -38.75 Q99.95 -38.75 93.3 -34.55 86.65 -30.4 83.0 -30.4 77.25 -30.4 71.95 -36.65 70.1 -38.85 69.0 -40.55 L68.65 -41.15 68.6 -40.2 M270.85 98.4 Q268.25 92.85 262.5 90.3 250.1 84.6 237.1 80.6 227.7 77.8 218.45 74.0 L207.7 69.8 Q200.0 75.6 196.3 84.95 L194.9 88.5 Q208.4 84.25 222.0 88.3 231.65 91.35 239.8 97.25 245.95 101.8 250.3 107.65 256.1 115.6 259.0 125.05 261.1 131.9 261.8 139.05 L262.25 139.65 264.85 139.7 Q269.0 120.45 271.3 101.15 271.45 99.75 270.85 98.4 M150.6 -1.3 L120.05 -3.95 Q133.25 4.9 149.4 4.85 152.65 5.5 154.95 7.8 159.5 12.35 164.25 8.8 L163.4 7.25 Q159.25 -0.5 150.6 -1.3 M165.75 11.4 L165.65 11.15 165.6 11.2 165.75 11.4 M167.3 24.3 L167.25 24.3 167.25 24.4 167.3 24.3 M188.35 31.9 L188.8 31.95 189.65 28.95 Q191.3 20.35 183.1 17.65 176.3 15.45 171.5 20.95 185.65 19.85 188.15 34.0 L188.35 31.9 M188.55 38.6 L188.55 38.55 188.5 38.25 188.2 38.6 188.55 38.6 M188.95 38.1 L189.5 41.3 189.25 38.8 189.3 37.15 188.9 37.7 188.95 38.1 M263.35 142.05 Q264.0 144.1 264.1 146.35 L264.1 146.7 264.6 141.65 263.25 141.65 263.35 142.05 M119.65 140.4 L119.65 140.8 119.75 140.4 119.65 140.4 M-175.0 -84.75 L-174.75 -84.65 -174.7 -84.7 -174.45 -86.0 -175.0 -84.75 M-55.35 -135.5 L-55.1 -135.75 -55.4 -135.6 -55.35 -135.5 M-65.2 -147.5 L-64.75 -148.25 -65.1 -148.35 -65.2 -147.5 M-59.9 -123.05 L-59.7 -123.55 -60.0 -123.45 -59.9 -123.05 M-113.5 -186.8 L-113.5 -187.1 -114.45 -187.1 -113.5 -186.8 M-104.05 -177.75 L-104.35 -178.3 -104.35 -177.5 -104.05 -177.75 M-107.5 -183.9 L-107.95 -184.7 -108.0 -184.75 -108.5 -184.5 -107.5 -183.9" fill="#000000" fill-rule="evenodd" stroke="none"/>
      <path d="M-106.15 -186.85 L-106.3 -187.1 -105.75 -187.1 -106.15 -186.85 M69.0 -40.55 L68.6 -40.2 68.65 -41.15 69.0 -40.55 M-107.5 -183.9 L-108.5 -184.5 -108.0 -184.75 -107.95 -184.7 -107.5 -183.9 M-104.05 -177.75 L-104.35 -177.5 -104.35 -178.3 -104.05 -177.75" fill="#ffffff" fill-rule="evenodd" stroke="none"/>
      <path d="M-106.1 -186.85 L-106.15 -186.85 -105.75 -187.1 -106.1 -186.85" fill="#454c27" fill-rule="evenodd" stroke="none"/>
      <path d="M58.05 -2.45 L59.1 -2.05 Q58.6 9.5 58.75 21.0 58.9 36.45 64.65 50.55 68.05 58.95 72.0 67.15 81.85 87.7 93.0 107.5 97.7 115.85 103.3 123.55 107.25 129.0 111.85 133.7 L117.75 139.5 Q122.9 144.3 126.6 150.5 L127.8 152.5 Q125.15 151.65 123.15 149.5 L88.8 112.85 Q82.1 105.75 76.05 98.05 69.2 89.35 63.25 80.2 58.2 72.4 56.4 63.4 54.65 54.7 54.85 45.7 55.05 36.2 55.4 26.65 55.75 18.35 56.65 10.15 L58.05 -2.45" fill="url(#gradient2)" fill-rule="evenodd" stroke="none"/>
      <path d="M-110.9 -102.2 Q-107.25 -103.4 -103.1 -102.05 -92.75 -98.95 -84.3 -92.2 L-80.85 -88.5 Q-62.75 -68.6 -69.15 -41.65 L-69.25 -41.1 -69.65 -39.75 Q-70.8 -35.95 -72.65 -32.7 L-72.65 -33.15 -72.85 -32.9 -73.3 -32.45 -73.25 -32.25 -73.45 -32.4 -73.5 -32.4 Q-74.0 -32.5 -74.15 -32.9 L-77.5 -35.2 -78.65 -36.1 Q-82.95 -39.2 -89.5 -42.1 -106.15 -49.55 -124.8 -50.65 L-121.25 -50.55 -132.5 -51.7 -133.85 -51.4 -135.9 -52.1 -136.0 -53.9 Q-122.35 -68.85 -115.25 -87.85 -112.75 -94.45 -111.0 -101.05 L-110.9 -102.2" fill="url(#gradient3)" fill-rule="evenodd" stroke="none"/>
      <path d="M-65.75 -35.15 L-64.25 -34.5 -64.45 -34.5 Q-65.15 -34.55 -65.7 -35.05 L-65.75 -35.15 M-55.5 -31.65 Q-56.05 -31.65 -57.75 -32.35 L-59.35 -32.95 -55.1 -31.7 -55.5 -31.65" fill="#1f2211" fill-rule="evenodd" stroke="none"/>
      <path d="M-188.75 -164.75 Q-187.45 -163.8 -184.65 -160.4 -184.2 -159.85 -182.25 -158.35 L-179.65 -156.1 Q-178.9 -155.1 -177.05 -153.95 L-173.5 -151.85 -171.2 -149.8 -169.35 -147.5 Q-167.85 -145.85 -163.95 -143.05 L-158.65 -138.9 Q-155.85 -136.2 -153.55 -134.5 -150.15 -132.0 -146.4 -130.5 L-138.75 -127.65 Q-133.5 -125.65 -131.1 -124.1 -125.35 -120.3 -122.55 -115.65 -120.0 -111.45 -120.0 -106.85 -120.0 -103.4 -121.0 -99.8 L-122.0 -95.75 -121.35 -91.8 Q-120.75 -87.6 -120.75 -85.0 L-120.95 -80.6 Q-121.05 -79.4 -121.9 -78.5 L-122.3 -77.45 -122.45 -76.45 -121.75 -73.85 -121.75 -72.9 -122.2 -72.9 Q-122.2 -74.1 -123.05 -76.7 L-123.95 -79.45 Q-123.2 -82.0 -123.2 -82.25 L-123.2 -85.1 -123.7 -90.5 Q-123.8 -92.15 -124.15 -93.45 L-124.45 -95.85 Q-124.45 -97.55 -123.45 -101.1 -122.45 -104.65 -122.45 -106.85 -122.45 -110.8 -125.6 -115.45 -129.25 -120.75 -134.9 -123.35 L-141.6 -125.95 -142.2 -126.15 Q-144.35 -126.85 -146.4 -127.8 -149.5 -129.0 -150.45 -129.5 -152.55 -130.6 -155.65 -133.15 L-160.45 -137.35 -165.85 -141.6 -170.95 -145.75 Q-171.8 -146.65 -176.1 -149.55 -179.95 -152.15 -180.95 -153.65 L-183.1 -155.7 -185.65 -157.75 -189.6 -161.9 -192.6 -163.75 -195.6 -165.65 -198.05 -167.65 Q-199.9 -169.15 -199.9 -169.8 -199.9 -171.55 -197.65 -170.55 -195.75 -169.7 -194.7 -168.4 -194.15 -167.4 -192.15 -166.5 L-188.75 -164.75" fill="url(#gradient4)" fill-rule="evenodd" stroke="none"/>
    </g>
    <linearGradient gradientTransform="matrix(0.0224, 0.1591, -0.1975, 0.0278, 60.6, -73.3)" gradientUnits="userSpaceOnUse" id="gradient1" spreadMethod="pad" x1="-819.2" x2="819.2">
      <stop offset="0.0" stop-color="#f79400"/>
      <stop offset="1.0" stop-color="#39603d"/>
    </linearGradient>
    <linearGradient gradientTransform="matrix(0.0446, 0.0, 0.0, 0.0946, 91.3, 75.0)" gradientUnits="userSpaceOnUse" id="gradient2" spreadMethod="pad" x1="-819.2" x2="819.2">
      <stop offset="0.0" stop-color="#454c27"/>
      <stop offset="1.0" stop-color="#000000"/>
    </linearGradient>
    <linearGradient gradientTransform="matrix(0.0166, 0.0307, -0.0353, 0.019, -94.55, -46.0)" gradientUnits="userSpaceOnUse" id="gradient3" spreadMethod="pad" x1="-819.2" x2="819.2">
      <stop offset="0.0" stop-color="#000000"/>
      <stop offset="1.0" stop-color="#5b6434"/>
    </linearGradient>
    <linearGradient gradientTransform="matrix(-0.0346, -0.0333, 0.0388, -0.0403, -173.75, -144.55)" gradientUnits="userSpaceOnUse" id="gradient4" spreadMethod="pad" x1="-819.2" x2="819.2">
      <stop offset="0.0" stop-color="#1f2211"/>
      <stop offset="1.0" stop-color="#000000"/>
    </linearGradient>
    <g id="sprite2" transform="matrix(1.0, 0.0, 0.0, 1.0, -5.55, -11.7)">
      <use ffdec:characterId="3482" height="33.2" transform="matrix(1.0, 0.0, 0.0, 1.0, 5.55, 11.7)" width="37.5" xlink:href="#shape4"/>
    </g>
    <g id="shape4" transform="matrix(1.0, 0.0, 0.0, 1.0, -5.55, -11.7)">
      <path d="M42.0 11.7 L43.05 12.65 Q22.1 27.4 5.55 44.9 17.25 30.15 42.0 11.7" fill="#ffffff" fill-rule="evenodd" stroke="none"/>
    </g>
    <g id="shape5" transform="matrix(1.0, 0.0, 0.0, 1.0, 114.8, 195.05)">
      <path d="M54.6 -76.4 L6.4 -74.6 2.35 -74.0 -2.4 -73.4 Q-13.6 -73.4 -20.6 -77.85 L-27.1 -82.15 Q-31.55 -84.8 -37.0 -86.6 -42.5 -88.4 -51.5 -93.55 -60.25 -98.55 -62.2 -100.8 -68.55 -108.25 -72.35 -115.4 -76.85 -123.8 -77.2 -130.8 -78.1 -145.5 -84.15 -155.45 -88.55 -162.6 -96.95 -168.85 L-109.3 -178.05 Q-114.8 -183.25 -114.8 -190.0 -114.8 -197.45 -108.4 -193.95 -104.95 -192.05 -99.0 -186.8 L-92.35 -179.65 -84.8 -171.8 Q-72.6 -158.4 -69.2 -141.2 -66.75 -128.75 -66.0 -126.4 -63.4 -118.1 -57.2 -110.6 -53.25 -105.8 -44.2 -100.85 -37.85 -97.3 -33.4 -95.8 -29.9 -94.6 -20.2 -88.5 -10.25 -83.0 -2.0 -83.0 L4.65 -83.55 22.2 -84.6 34.05 -85.2 46.0 -85.8 Q77.4 -85.8 95.95 -77.6 109.1 -71.75 111.8 -64.6 L116.8 -52.65 Q119.8 -45.0 119.8 -40.6 L119.65 -36.4 Q118.75 -33.4 114.8 -33.4 113.45 -33.4 111.65 -34.7 109.9 -36.0 109.2 -36.0 L101.3 -31.9 93.2 -27.8 81.6 -27.8 Q77.95 -27.95 76.35 -28.75 75.05 -29.4 72.85 -31.85 L66.6 -38.4 62.9 -44.0 Q59.2 -49.2 57.8 -49.2 53.15 -49.2 52.05 -46.8 L51.8 -44.2 Q51.8 -42.5 53.85 -38.45 55.95 -34.3 58.0 -32.2 60.8 -29.25 65.95 -26.0 L72.2 -22.0 78.0 -16.4 83.6 -10.6 Q86.0 -8.2 90.9 -6.0 99.35 -2.2 110.0 -2.2 L115.0 -3.2 120.0 -4.2 Q122.6 -4.2 128.25 -2.4 134.4 -0.4 136.0 -0.2 L144.35 1.5 153.4 3.6 Q158.3 4.95 160.8 8.8 162.0 10.7 163.0 14.4 L166.35 25.7 Q168.25 32.45 168.6 36.6 L169.85 47.7 171.0 59.4 Q171.1 62.85 171.7 64.95 172.75 68.65 175.4 70.8 L180.35 76.8 Q184.05 81.4 185.4 81.4 L189.35 79.8 Q192.95 78.2 195.2 78.2 217.2 78.2 232.05 84.6 247.8 91.35 256.2 105.6 L266.1 121.75 Q270.2 129.5 270.2 137.4 270.2 140.9 269.7 142.3 269.25 143.55 266.2 148.8 263.9 152.75 264.55 154.7 265.8 158.55 265.8 159.6 L265.5 164.1 Q265.2 167.8 265.2 169.8 L264.8 170.2 264.35 165.9 264.0 161.4 Q261.8 154.7 261.8 153.3 261.8 152.3 262.7 149.1 L263.6 144.9 Q263.6 144.15 262.55 142.3 261.4 140.25 261.0 136.8 260.7 134.15 258.8 129.6 256.4 124.0 250.0 114.6 246.35 107.2 238.55 100.95 223.3 88.6 198.7 88.6 192.75 88.6 191.0 90.4 189.25 92.2 187.2 92.2 180.4 92.2 171.55 82.85 163.9 74.75 162.6 69.8 161.5 65.8 161.25 58.75 L160.6 47.0 159.35 35.9 Q158.4 29.3 157.0 24.2 156.0 20.3 154.6 17.4 152.85 13.75 151.0 13.0 147.75 11.65 133.9 8.5 L120.4 5.6 Q119.4 5.6 117.8 6.5 116.2 7.4 115.2 7.4 95.9 7.4 85.2 2.5 81.45 0.8 76.8 -3.6 L70.6 -9.45 Q66.15 -13.4 60.4 -17.4 49.05 -25.3 45.6 -30.95 42.6 -35.8 42.6 -44.4 42.6 -49.65 43.8 -52.2 46.8 -58.6 56.4 -58.6 65.4 -58.6 72.4 -47.9 L77.15 -40.55 Q79.7 -37.2 82.2 -37.2 91.75 -37.2 96.5 -39.4 L99.8 -42.0 Q101.15 -43.05 102.65 -43.8 104.4 -44.7 108.2 -46.2 L105.7 -54.9 Q103.9 -60.6 101.2 -63.6 96.15 -69.25 78.6 -73.2 64.3 -76.4 54.6 -76.4" fill="#000000" fill-opacity="0.15294118" fill-rule="evenodd" stroke="none"/>
    </g>
    <g id="sprite3" transform="matrix(1.0, 0.0, 0.0, 1.0, 37.2, 1.35)">
      <use ffdec:characterId="3479" height="174.45" transform="matrix(1.0, 0.0, 0.0, 1.0, -37.2, -1.35)" width="234.95" xlink:href="#shape6"/>
    </g>
    <g id="shape6" transform="matrix(1.0, 0.0, 0.0, 1.0, 37.2, 1.35)">
      <path d="M-37.2 -0.9 Q-37.2 -1.65 -33.8 -1.2 L-24.8 -0.4 -21.95 -0.6 -17.1 -0.85 -8.0 -0.5 -3.4 -0.05 0.0 0.1 0.0 0.0 22.45 2.2 44.4 4.4 58.8 3.5 73.2 2.6 Q77.0 2.6 91.6 8.2 94.45 9.25 96.1 12.05 97.05 13.6 98.0 16.0 99.45 18.5 99.75 23.45 L99.8 31.0 Q99.8 44.65 93.8 59.6 L89.7 69.4 Q87.8 74.1 87.8 76.6 87.8 80.3 88.05 81.2 88.75 83.8 91.8 85.6 93.55 86.65 99.55 86.75 L109.8 86.8 121.05 87.65 Q122.1 87.85 124.6 89.4 129.45 92.45 133.55 97.35 138.1 102.7 137.8 106.0 149.95 104.8 156.4 109.7 160.8 113.05 161.4 117.8 162.4 125.7 161.8 132.8 161.4 137.9 167.75 147.5 175.6 159.35 176.6 162.2 L176.8 162.5 176.8 162.55 176.9 162.6 Q177.55 163.1 183.35 166.45 184.5 167.1 186.65 168.45 188.65 169.65 190.25 170.25 L194.35 171.4 Q197.1 172.2 197.7 172.7 197.85 173.1 197.35 173.1 L195.75 172.65 193.0 172.05 Q192.5 171.7 192.25 171.7 L191.25 171.5 190.2 171.25 189.25 171.1 183.95 169.45 181.25 168.15 178.65 166.95 Q176.85 166.3 175.7 165.55 L173.75 164.2 Q171.95 163.0 170.3 161.3 L168.5 159.25 166.3 157.15 Q163.35 154.1 160.2 149.8 156.2 144.45 154.4 137.2 153.85 134.85 153.55 130.65 L153.0 124.0 Q153.05 122.3 152.65 121.1 151.85 118.9 148.8 117.4 146.05 116.05 140.8 116.4 L136.0 117.0 Q130.45 117.0 128.55 111.75 L127.35 107.45 Q126.7 105.1 125.8 104.2 L123.35 100.95 Q121.8 98.9 119.6 97.8 117.1 96.55 112.2 96.55 107.3 96.5 104.6 95.2 L100.0 95.6 94.4 96.2 Q89.05 96.2 84.25 92.05 80.2 88.6 80.0 86.4 79.4 80.4 79.4 76.2 79.4 70.1 85.4 55.05 91.4 40.0 91.4 31.8 L90.95 26.25 Q90.35 21.85 89.4 19.2 89.15 18.3 86.95 17.05 84.7 15.7 81.0 14.4 L72.4 13.8 66.2 13.2 63.4 12.95 62.55 12.75 60.45 12.85 58.25 12.4 49.15 12.2 48.55 12.0 47.3 11.8 45.35 11.55 43.2 11.35 41.1 11.1 40.2 10.8 36.65 10.15 35.95 9.95 33.85 9.35 33.25 9.2 Q31.4 8.4 29.0 7.8 25.6 6.95 12.05 4.9 L6.2 3.9 0.9 3.0 -2.8 2.25 -9.75 1.7 -18.15 1.3 -20.35 1.05 -30.25 0.5 -31.3 0.2 -33.7 -0.05 -34.8 -0.35 -36.4 -0.45 Q-37.2 -0.55 -37.2 -0.9" fill="#ffcc00" fill-opacity="0.44705883" fill-rule="evenodd" stroke="none"/>
    </g>
    <g id="sprite4" transform="matrix(1.0, 0.0, 0.0, 1.0, 265.1, 150.0)">
      <use ffdec:characterId="3477" height="300.0" transform="matrix(1.0, 0.0, 0.0, 1.0, -265.1, -150.0)" width="533.0" xlink:href="#shape7"/>
    </g>
    <g id="shape7" transform="matrix(1.0, 0.0, 0.0, 1.0, 265.1, 150.0)">
      <path d="M267.9 -150.0 L267.9 150.0 -265.1 150.0 -265.1 -150.0 267.9 -150.0 Z" fill="none" stroke="#7f0000" stroke-linecap="round" stroke-linejoin="round" stroke-width="0.05"/>
      <path d="M1.4 -16.05 L1.45 -16.05 Q9.35 -16.05 14.95 -11.35 20.55 -6.65 20.55 0.0 L39.5 0.0 M20.55 0.0 Q20.55 6.65 14.95 11.35 9.35 16.05 1.45 16.05 L1.4 16.05 1.4 21.45 M-36.65 0.0 L-17.55 0.0 -17.55 -0.05 Q-17.55 -6.65 -11.95 -11.35 -6.4 -16.05 1.4 -16.05 M1.4 16.05 Q-6.4 16.05 -11.95 11.35 -17.55 6.65 -17.55 0.0" fill="none" stroke="#7f0000" stroke-linecap="round" stroke-linejoin="round" stroke-opacity="0.2509804" stroke-width="0.05"/>
      <path d="M1.4 -16.05 L1.4 -21.4" fill="none" stroke="#7f0000" stroke-linecap="round" stroke-linejoin="round" stroke-opacity="0.2509804" stroke-width="1.0"/>
      <path d="M181.15 141.4 L181.15 123.6 191.05 123.6 191.05 141.4 181.15 141.4" fill="#7f7f7f" fill-rule="evenodd" stroke="none"/>
      <path d="M250.55 123.6 L260.45 123.6 260.45 141.4 260.35 141.4 250.55 141.4 250.55 123.6" fill="#000000" fill-rule="evenodd" stroke="none"/>
      <path d="M230.7 123.6 L240.6 123.6 240.6 141.4 230.7 141.4 230.7 123.6" fill="#7f0000" fill-rule="evenodd" stroke="none"/>
      <path d="M191.05 123.6 L201.0 123.6 201.0 141.4 191.05 141.4 191.05 123.6" fill="#7f7f00" fill-rule="evenodd" stroke="none"/>
      <path d="M201.0 123.6 L210.9 123.6 210.9 141.4 201.0 141.4 201.0 123.6" fill="#007f7f" fill-rule="evenodd" stroke="none"/>
      <path d="M210.9 123.6 L220.8 123.6 220.8 141.4 210.9 141.4 210.9 123.6" fill="#007f00" fill-rule="evenodd" stroke="none"/>
      <path d="M220.8 123.6 L230.7 123.6 230.7 141.4 220.8 141.4 220.8 123.6" fill="#7f007f" fill-rule="evenodd" stroke="none"/>
      <path d="M240.6 123.6 L250.55 123.6 250.55 141.4 240.6 141.4 240.6 123.6" fill="#00007f" fill-rule="evenodd" stroke="none"/>
      <path d="M260.35 141.4 L260.35 145.4 181.1 145.4 181.1 141.4 181.15 141.4 191.05 141.4 201.0 141.4 210.9 141.4 220.8 141.4 230.7 141.4 240.6 141.4 250.55 141.4 260.35 141.4" fill="url(#gradient5)" fill-rule="evenodd" stroke="none"/>
    </g>
    <linearGradient gradientTransform="matrix(0.0484, 0.0, 0.0, 0.0024, 220.7, 143.35)" gradientUnits="userSpaceOnUse" id="gradient5" spreadMethod="pad" x1="-819.2" x2="819.2">
      <stop offset="0.0" stop-color="#7f7f7f"/>
      <stop offset="1.0" stop-color="#000000"/>
    </linearGradient>
  </defs>
</svg>
