<?xml version="1.0" encoding="UTF-8" standalone="no"?>
<svg xmlns:ffdec="https://www.free-decompiler.com/flash" xmlns:xlink="http://www.w3.org/1999/xlink" ffdec:objectType="frame" height="4004.1px" width="7682.6px" xmlns="http://www.w3.org/2000/svg">
  <g transform="matrix(2.0, 0.0, 0.0, 2.0, 4622.9, 1925.9)">
    <use ffdec:characterId="3607" height="628.85" transform="matrix(1.0, 0.0, 0.0, 1.0, -303.0, -237.4)" width="742.6" xlink:href="#shape0"/>
    <use ffdec:characterId="3606" height="682.95" transform="matrix(0.9993, -0.0314, 0.0314, 0.9993, -109.4344, -522.8243)" width="922.1" xlink:href="#sprite0"/>
    <use ffdec:characterId="3478" height="300.0" transform="matrix(1.0199, 0.0, 0.0, 1.0199, -223.187, -231.0323)" width="533.0" xlink:href="#sprite1"/>
  </g>
  <defs>
    <g id="shape0" transform="matrix(1.0, 0.0, 0.0, 1.0, 303.0, 237.4)">
      <path d="M439.6 391.45 L-303.0 391.45 -303.0 -237.4 439.6 -237.4 439.6 391.45" fill="url(#gradient0)" fill-rule="evenodd" stroke="none"/>
    </g>
    <linearGradient gradientTransform="matrix(0.0, 0.3838, -0.4532, 0.0, 68.3, 77.0)" gradientUnits="userSpaceOnUse" id="gradient0" spreadMethod="pad" x1="-819.2" x2="819.2">
      <stop offset="0.0" stop-color="#18171c"/>
      <stop offset="0.19607843137254902" stop-color="#29292f"/>
      <stop offset="1.0" stop-color="#a23000"/>
    </linearGradient>
    <g id="sprite0" transform="matrix(1.0, 0.0, 0.0, 1.0, 0.0, 321.6)">
      <use ffdec:characterId="3605" height="682.95" transform="matrix(1.0, 0.0, 0.0, 1.0, 0.0, -321.6)" width="922.1" xlink:href="#shape1"/>
    </g>
    <g id="shape1" transform="matrix(1.0, 0.0, 0.0, 1.0, 0.0, 321.6)">
      <path d="M327.05 348.9 Q316.7 349.05 306.75 347.05 L295.8 344.1 295.25 355.4 291.95 342.0 290.25 340.75 Q290.95 325.2 285.4 310.5 281.15 299.2 271.15 291.85 261.1 284.45 245.9 290.7 230.7 296.95 217.1 301.85 L190.4 311.2 Q177.35 315.65 158.85 318.2 140.35 320.75 125.65 314.45 110.9 308.1 105.15 290.95 99.35 273.8 102.65 256.4 103.95 246.6 95.65 240.8 94.8 240.2 93.8 240.2 85.15 240.3 77.8 235.8 76.45 234.9 75.75 233.55 70.35 223.4 75.45 212.75 76.45 210.7 78.1 209.2 88.75 199.85 103.0 198.85 98.4 198.1 94.35 196.1 86.1 192.0 77.0 192.2 73.95 192.7 71.1 192.1 56.2 188.7 51.15 174.0 50.2 171.25 50.65 170.15 54.05 161.7 54.35 152.6 54.85 138.6 46.2 127.8 45.05 126.4 43.65 125.45 35.2 119.75 24.8 118.75 13.5 117.25 5.55 109.2 0.05 103.65 0.0 95.75 0.0 92.6 11.4 76.7 21.7 62.25 37.45 17.65 L36.4 17.65 35.85 17.1 Q35.55 16.5 35.8 15.8 36.6 13.7 38.7 13.4 L38.7 -114.65 Q167.05 -406.6 863.1 -286.65 L922.1 349.35 442.65 361.35 442.65 343.35 Q435.5 343.75 428.3 343.45 410.95 342.9 393.55 344.35 L355.95 348.1 346.95 348.7 327.05 348.9" fill="#000000" fill-rule="evenodd" stroke="none"/>
    </g>
    <g id="sprite1" transform="matrix(1.0, 0.0, 0.0, 1.0, 265.1, 150.0)">
      <use ffdec:characterId="3477" height="300.0" transform="matrix(1.0, 0.0, 0.0, 1.0, -265.1, -150.0)" width="533.0" xlink:href="#shape2"/>
    </g>
    <g id="shape2" transform="matrix(1.0, 0.0, 0.0, 1.0, 265.1, 150.0)">
      <path d="M267.9 -150.0 L267.9 150.0 -265.1 150.0 -265.1 -150.0 267.9 -150.0 Z" fill="none" stroke="#ff0000" stroke-linecap="round" stroke-linejoin="round" stroke-width="0.05"/>
      <path d="M1.4 -16.05 L1.45 -16.05 Q9.35 -16.05 14.95 -11.35 20.55 -6.65 20.55 0.0 L39.5 0.0 M20.55 0.0 Q20.55 6.65 14.95 11.35 9.35 16.05 1.45 16.05 L1.4 16.05 1.4 21.45 M-36.65 0.0 L-17.55 0.0 -17.55 -0.05 Q-17.55 -6.65 -11.95 -11.35 -6.4 -16.05 1.4 -16.05 M1.4 16.05 Q-6.4 16.05 -11.95 11.35 -17.55 6.65 -17.55 0.0" fill="none" stroke="#ff0000" stroke-linecap="round" stroke-linejoin="round" stroke-opacity="0.2509804" stroke-width="0.05"/>
      <path d="M1.4 -16.05 L1.4 -21.4" fill="none" stroke="#ff0000" stroke-linecap="round" stroke-linejoin="round" stroke-opacity="0.2509804" stroke-width="1.0"/>
      <path d="M181.15 141.4 L181.15 123.6 191.05 123.6 191.05 141.4 181.15 141.4" fill="#ffffff" fill-rule="evenodd" stroke="none"/>
      <path d="M250.55 123.6 L260.45 123.6 260.45 141.4 260.35 141.4 250.55 141.4 250.55 123.6" fill="#000000" fill-rule="evenodd" stroke="none"/>
      <path d="M230.7 123.6 L240.6 123.6 240.6 141.4 230.7 141.4 230.7 123.6" fill="#ff0000" fill-rule="evenodd" stroke="none"/>
      <path d="M191.05 123.6 L201.0 123.6 201.0 141.4 191.05 141.4 191.05 123.6" fill="#ffff00" fill-rule="evenodd" stroke="none"/>
      <path d="M201.0 123.6 L210.9 123.6 210.9 141.4 201.0 141.4 201.0 123.6" fill="#00ffff" fill-rule="evenodd" stroke="none"/>
      <path d="M210.9 123.6 L220.8 123.6 220.8 141.4 210.9 141.4 210.9 123.6" fill="#00ff00" fill-rule="evenodd" stroke="none"/>
      <path d="M220.8 123.6 L230.7 123.6 230.7 141.4 220.8 141.4 220.8 123.6" fill="#ff00ff" fill-rule="evenodd" stroke="none"/>
      <path d="M240.6 123.6 L250.55 123.6 250.55 141.4 240.6 141.4 240.6 123.6" fill="#0000ff" fill-rule="evenodd" stroke="none"/>
      <path d="M260.35 141.4 L260.35 145.4 181.1 145.4 181.1 141.4 181.15 141.4 191.05 141.4 201.0 141.4 210.9 141.4 220.8 141.4 230.7 141.4 240.6 141.4 250.55 141.4 260.35 141.4" fill="url(#gradient1)" fill-rule="evenodd" stroke="none"/>
    </g>
    <linearGradient gradientTransform="matrix(0.0484, 0.0, 0.0, 0.0024, 220.7, 143.35)" gradientUnits="userSpaceOnUse" id="gradient1" spreadMethod="pad" x1="-819.2" x2="819.2">
      <stop offset="0.0" stop-color="#ffffff"/>
      <stop offset="1.0" stop-color="#000000"/>
    </linearGradient>
  </defs>
</svg>
