<?xml version="1.0" encoding="UTF-8" standalone="no"?>
<svg xmlns:ffdec="https://www.free-decompiler.com/flash" xmlns:xlink="http://www.w3.org/1999/xlink" ffdec:objectType="frame" height="4004.1px" width="7682.6px" xmlns="http://www.w3.org/2000/svg">
  <g transform="matrix(2.0, 0.0, 0.0, 2.0, 4622.9, 1925.9)">
    <use ffdec:characterId="3626" height="430.1" transform="matrix(1.0, 0.0, 0.0, 1.0, -294.55, -220.45)" width="734.2" xlink:href="#shape0"/>
    <filter id="filter1">
      <feConvolveMatrix divisor="16.0" in="SourceGraphic" kernelMatrix="1 1 1 1 1 1 1 1 1 1 1 1 1 1 1 1" order="4 4" result="filterResult4"/>
    </filter>
    <use ffdec:characterId="3624" filter="url(#filter1)" height="349.2" transform="matrix(0.8481, 0.0, 0.0, 0.8481, -304.6543, -141.309)" width="357.55" xlink:href="#sprite0"/>
    <use ffdec:characterId="3619" height="314.1" transform="matrix(0.9999, 0.0097, -0.0097, 0.9999, 174.202, -116.5115)" width="101.55" xlink:href="#shape4"/>
    <clipPath id="clipPath0" transform="matrix(0.1237, 0.0415, -0.0415, 0.1237, 49.9, -126.95)">
      <path d="M56.45 204.55 Q52.2 226.7 83.4 247.15 114.55 267.6 153.75 256.55 192.95 245.45 209.55 217.6 226.1 189.7 214.75 163.4 203.35 137.1 173.1 123.0 142.8 108.85 116.2 116.5 89.6 124.1 75.15 153.2 60.7 182.25 56.5 204.45" fill="#0033ff" fill-rule="evenodd" stroke="none"/>
      <path d="M56.5 204.45 Q60.7 182.25 75.15 153.2 89.6 124.1 116.2 116.5 142.8 108.85 173.1 123.0 203.35 137.1 214.75 163.4 226.1 189.7 209.55 217.6 192.95 245.45 153.75 256.55 114.55 267.6 83.4 247.15 52.2 226.7 56.45 204.55" fill="none" stroke="#000000" stroke-linecap="round" stroke-linejoin="round" stroke-opacity="0.0" stroke-width="0.0"/>
    </clipPath>
    <g clip-path="url(#clipPath0)">
      <use ffdec:characterId="3631" height="170.65" transform="matrix(0.1237, 0.0415, -0.0415, 0.1237, 50.8722, -113.0145)" width="195.7" xlink:href="#shape5"/>
      <use ffdec:characterId="3630" height="95.1" transform="matrix(0.1217, 0.0468, -0.0468, 0.1217, 51.65, -113.55)" width="174.5" xlink:href="#sprite2"/>
    </g>
    <clipPath id="clipPath1" transform="matrix(0.0763, -0.0105, 0.0105, 0.0763, 1.8, -123.8)">
      <path d="M53.7 220.25 Q58.5 239.25 104.75 248.0 151.0 256.7 186.75 245.7 222.45 234.65 224.85 200.15 227.25 165.6 203.45 141.3 179.6 117.0 148.6 115.45 117.55 113.9 94.8 126.35 72.05 138.8 60.5 170.05 48.95 201.25 53.8 220.25" fill="#0033ff" fill-rule="evenodd" stroke="none"/>
      <path d="M53.8 220.25 Q48.95 201.25 60.5 170.05 72.05 138.8 94.8 126.35 117.55 113.9 148.6 115.45 179.6 117.0 203.45 141.3 227.25 165.6 224.85 200.15 222.45 234.65 186.75 245.7 151.0 256.7 104.75 248.0 58.5 239.25 53.7 220.25" fill="none" stroke="#000000" stroke-linecap="round" stroke-linejoin="round" stroke-opacity="0.0" stroke-width="0.0"/>
    </clipPath>
    <g clip-path="url(#clipPath1)">
      <use ffdec:characterId="3631" height="170.65" transform="matrix(0.0763, -0.0105, 0.0105, 0.0763, 5.9624, -116.6816)" width="195.7" xlink:href="#shape5"/>
      <use ffdec:characterId="3630" height="95.1" transform="matrix(0.071, -0.0296, 0.0296, 0.071, 4.15, -115.35)" width="174.5" xlink:href="#sprite2"/>
    </g>
    <clipPath id="clipPath2" transform="matrix(0.2097, 0.0, 0.0, 0.2097, 98.15, -157.8)">
      <path d="M54.1 187.25 Q47.3 216.8 66.85 242.5 86.35 268.15 129.05 261.15 171.75 254.1 203.15 234.05 234.55 214.0 228.15 183.3 221.75 152.6 195.4 130.45 169.0 108.3 136.45 109.7 103.9 111.1 82.4 134.45 60.9 157.8 54.15 187.35" fill="#0033ff" fill-rule="evenodd" stroke="none"/>
      <path d="M54.15 187.35 Q60.9 157.8 82.4 134.45 103.9 111.1 136.45 109.7 169.0 108.3 195.4 130.45 221.75 152.6 228.15 183.3 234.55 214.0 203.15 234.05 171.75 254.1 129.05 261.15 86.35 268.15 66.85 242.5 47.3 216.8 54.1 187.25" fill="none" stroke="#000000" stroke-linecap="round" stroke-linejoin="round" stroke-opacity="0.0" stroke-width="0.0"/>
    </clipPath>
    <g clip-path="url(#clipPath2)">
      <use ffdec:characterId="3631" height="170.65" transform="matrix(0.2097, 0.0, 0.0, 0.2097, 106.7478, -137.0605)" width="195.7" xlink:href="#shape5"/>
      <use ffdec:characterId="3630" height="95.1" transform="matrix(0.2075, 0.0294, -0.0294, 0.2075, 109.6, -140.75)" width="174.5" xlink:href="#sprite2"/>
    </g>
    <clipPath id="clipPath3" transform="matrix(0.0745, 0.0, 0.0, 0.0745, -15.75, -97.0)">
      <path d="M54.1 187.25 Q47.3 216.8 66.85 242.5 86.35 268.15 129.05 261.15 171.75 254.1 203.15 234.05 234.55 214.0 228.15 183.3 221.75 152.6 195.4 130.45 169.0 108.3 136.45 109.7 103.9 111.1 82.4 134.45 60.9 157.8 54.15 187.35" fill="#0033ff" fill-rule="evenodd" stroke="none"/>
      <path d="M54.15 187.35 Q60.9 157.8 82.4 134.45 103.9 111.1 136.45 109.7 169.0 108.3 195.4 130.45 221.75 152.6 228.15 183.3 234.55 214.0 203.15 234.05 171.75 254.1 129.05 261.15 86.35 268.15 66.85 242.5 47.3 216.8 54.1 187.25" fill="none" stroke="#000000" stroke-linecap="round" stroke-linejoin="round" stroke-opacity="0.0" stroke-width="0.0"/>
    </clipPath>
    <g clip-path="url(#clipPath3)">
      <use ffdec:characterId="3631" height="170.65" transform="matrix(0.0745, 0.0, 0.0, 0.0745, -12.6964, -89.6341)" width="195.7" xlink:href="#shape5"/>
      <use ffdec:characterId="3630" height="95.1" transform="matrix(0.0737, 0.0104, -0.0104, 0.0737, -11.75, -90.9)" width="174.5" xlink:href="#sprite2"/>
    </g>
    <clipPath id="clipPath4" transform="matrix(0.0442, 0.0148, -0.0148, 0.0442, -53.0, -91.75)">
      <path d="M56.45 204.55 Q52.2 226.7 83.4 247.15 114.55 267.6 153.75 256.55 192.95 245.45 209.55 217.6 226.1 189.7 214.75 163.4 203.35 137.1 173.1 123.0 142.8 108.85 116.2 116.5 89.6 124.1 75.15 153.2 60.7 182.25 56.5 204.45" fill="#0033ff" fill-rule="evenodd" stroke="none"/>
      <path d="M56.5 204.45 Q60.7 182.25 75.15 153.2 89.6 124.1 116.2 116.5 142.8 108.85 173.1 123.0 203.35 137.1 214.75 163.4 226.1 189.7 209.55 217.6 192.95 245.45 153.75 256.55 114.55 267.6 83.4 247.15 52.2 226.7 56.45 204.55" fill="none" stroke="#000000" stroke-linecap="round" stroke-linejoin="round" stroke-opacity="0.0" stroke-width="0.0"/>
    </clipPath>
    <g clip-path="url(#clipPath4)">
      <use ffdec:characterId="3631" height="170.65" transform="matrix(0.0442, 0.0148, -0.0148, 0.0442, -52.6533, -86.7758)" width="195.7" xlink:href="#shape5"/>
      <use ffdec:characterId="3630" height="95.1" transform="matrix(0.0435, 0.0167, -0.0167, 0.0435, -52.45, -86.95)" width="174.5" xlink:href="#sprite2"/>
    </g>
    <filter id="filter2">
      <feConvolveMatrix divisor="4.0" in="SourceGraphic" kernelMatrix="1 1 1 1" order="2 2" result="filterResult5"/>
    </filter>
    <use ffdec:characterId="3635" filter="url(#filter2)" height="202.65" transform="matrix(0.031, -0.0042, 0.0042, 0.031, -89.8622, -62.4389)" width="222.05" xlink:href="#sprite3"/>
    <clipPath id="clipPath6" transform="matrix(0.0257, -0.0035, 0.0035, 0.0257, -32.45, -92.0)">
      <path d="M53.7 220.25 Q58.5 239.25 104.75 248.0 151.0 256.7 186.75 245.7 222.45 234.65 224.85 200.15 227.25 165.6 203.45 141.3 179.6 117.0 148.6 115.45 117.55 113.9 94.8 126.35 72.05 138.8 60.5 170.05 48.95 201.25 53.8 220.25" fill="#0033ff" fill-rule="evenodd" stroke="none"/>
      <path d="M53.8 220.25 Q48.95 201.25 60.5 170.05 72.05 138.8 94.8 126.35 117.55 113.9 148.6 115.45 179.6 117.0 203.45 141.3 227.25 165.6 224.85 200.15 222.45 234.65 186.75 245.7 151.0 256.7 104.75 248.0 58.5 239.25 53.7 220.25" fill="none" stroke="#000000" stroke-linecap="round" stroke-linejoin="round" stroke-opacity="0.0" stroke-width="0.0"/>
    </clipPath>
    <g clip-path="url(#clipPath6)">
      <use ffdec:characterId="3631" height="170.65" transform="matrix(0.0257, -0.0035, 0.0035, 0.0257, -31.0472, -89.6017)" width="195.7" xlink:href="#shape5"/>
      <use ffdec:characterId="3630" height="95.1" transform="matrix(0.0239, -0.01, 0.01, 0.0239, -31.65, -89.15)" width="174.5" xlink:href="#sprite2"/>
    </g>
    <filter id="filter3">
      <feConvolveMatrix divisor="1.0" in="SourceGraphic" kernelMatrix="1" order="1 1" result="filterResult6"/>
    </filter>
    <use ffdec:characterId="3635" filter="url(#filter3)" height="202.65" transform="matrix(0.0257, -0.0035, 0.0035, 0.0257, -63.6375, -74.2816)" width="222.05" xlink:href="#sprite3"/>
    <filter id="filter4">
      <feConvolveMatrix divisor="4.0" in="SourceGraphic" kernelMatrix="1 1 1 1" order="2 2" result="filterResult7"/>
    </filter>
    <use ffdec:characterId="3635" filter="url(#filter4)" height="202.65" transform="matrix(0.0257, -0.0035, 0.0035, 0.0257, -99.0875, -62.4816)" width="222.05" xlink:href="#sprite3"/>
    <use ffdec:characterId="3478" height="300.0" transform="matrix(1.1359, 0.0, 0.0, 1.1358, -263.2298, -211.9773)" width="533.0" xlink:href="#sprite4"/>
  </g>
  <defs>
    <g id="shape0" transform="matrix(1.0, 0.0, 0.0, 1.0, 294.55, 220.45)">
      <path d="M439.15 -219.95 L439.15 209.15 -294.05 209.15 -294.05 -219.95 439.15 -219.95" fill="url(#gradient0)" fill-rule="evenodd" stroke="none"/>
      <path d="M439.15 -219.95 L439.15 209.15 -294.05 209.15 -294.05 -219.95 439.15 -219.95 Z" fill="none" stroke="#000000" stroke-linecap="round" stroke-linejoin="round" stroke-width="1.0"/>
    </g>
    <linearGradient gradientTransform="matrix(0.0149, -0.2846, 0.46, 0.0241, 72.55, -5.4)" gradientUnits="userSpaceOnUse" id="gradient0" spreadMethod="pad" x1="-819.2" x2="819.2">
      <stop offset="0.0" stop-color="#913f09"/>
      <stop offset="0.19607843137254902" stop-color="#542b13"/>
      <stop offset="0.5607843137254902" stop-color="#17161d"/>
      <stop offset="1.0" stop-color="#000000"/>
    </linearGradient>
    <g id="sprite0" transform="matrix(1.0, 0.0, 0.0, 1.0, 286.7, 163.55)">
      <use ffdec:characterId="3623" height="349.2" transform="matrix(1.0, 0.0, 0.0, 1.0, -286.7, -163.55)" width="357.55" xlink:href="#shape1"/>
      <filter id="filter0">
        <feColorMatrix in="SourceGraphic" result="filterResult0" type="matrix" values="0 0 0 0 1.0,0 0 0 0 0.6,0 0 0 0 0.0,0 0 0 1 0"/>
        <feConvolveMatrix divisor="144.0" in="filterResult0" kernelMatrix="1 1 1 1 1 1 1 1 1 1 1 1 1 1 1 1 1 1 1 1 1 1 1 1 1 1 1 1 1 1 1 1 1 1 1 1 1 1 1 1 1 1 1 1 1 1 1 1 1 1 1 1 1 1 1 1 1 1 1 1 1 1 1 1 1 1 1 1 1 1 1 1 1 1 1 1 1 1 1 1 1 1 1 1 1 1 1 1 1 1 1 1 1 1 1 1 1 1 1 1 1 1 1 1 1 1 1 1 1 1 1 1 1 1 1 1 1 1 1 1 1 1 1 1 1 1 1 1 1 1 1 1 1 1 1 1 1 1 1 1 1 1 1 1" order="12 12" result="filterResult1"/>
        <feConvolveMatrix divisor="144.0" in="filterResult1" kernelMatrix="1 1 1 1 1 1 1 1 1 1 1 1 1 1 1 1 1 1 1 1 1 1 1 1 1 1 1 1 1 1 1 1 1 1 1 1 1 1 1 1 1 1 1 1 1 1 1 1 1 1 1 1 1 1 1 1 1 1 1 1 1 1 1 1 1 1 1 1 1 1 1 1 1 1 1 1 1 1 1 1 1 1 1 1 1 1 1 1 1 1 1 1 1 1 1 1 1 1 1 1 1 1 1 1 1 1 1 1 1 1 1 1 1 1 1 1 1 1 1 1 1 1 1 1 1 1 1 1 1 1 1 1 1 1 1 1 1 1 1 1 1 1 1 1" order="12 12" result="filterResult2"/>
        <feComposite in="SourceGraphic" in2="filterResult2" operator="over" result="filterResult3"/>
      </filter>
      <use ffdec:characterId="3622" filter="url(#filter0)" height="16.65" transform="matrix(1.0, 0.0, 0.0, 1.0, -121.2, -24.1)" width="18.7" xlink:href="#sprite1"/>
      <use ffdec:characterId="3620" height="190.15" transform="matrix(1.0, 0.0, 0.0, 1.0, -273.0, -33.3)" width="175.9" xlink:href="#shape3"/>
    </g>
    <g id="shape1" transform="matrix(1.0, 0.0, 0.0, 1.0, 286.7, 163.55)">
      <path d="M-163.8 -159.6 L-158.45 -160.2 Q-150.65 -161.75 -142.8 -161.5 -136.65 -161.25 -127.95 -159.7 -125.8 -159.0 -123.6 -157.0 L-119.45 -153.7 -112.45 -151.35 Q-106.6 -149.45 -106.6 -148.45 -107.2 -146.35 -107.8 -145.0 L-105.85 -144.05 Q-99.3 -140.3 -98.1 -139.85 -86.35 -133.25 -82.45 -130.1 -80.2 -128.3 -75.5 -125.3 L-67.1 -120.35 Q-64.85 -119.2 -58.95 -117.0 -54.2 -115.05 -54.2 -113.65 -54.2 -112.5 -55.85 -111.85 L-60.35 -110.6 Q-59.15 -108.35 -57.5 -104.1 L-56.05 -100.3 Q-55.05 -99.85 -53.95 -97.9 L-50.2 -90.55 -49.5 -89.4 -48.05 -88.3 -41.5 -81.25 Q-39.25 -78.35 -35.05 -75.25 L-29.4 -71.3 -14.2 -60.65 Q-2.25 -52.35 -2.25 -51.5 -2.25 -50.95 -2.65 -50.5 -3.2 -50.0 -4.0 -50.0 L-14.35 -51.5 -24.8 -53.3 -25.15 -53.25 -21.05 -49.45 Q-18.75 -47.4 -18.75 -46.55 L-18.75 -46.3 -18.0 -45.95 -16.0 -43.55 -10.95 -36.4 -5.1 -30.2 Q0.3 -24.3 0.3 -23.1 0.3 -21.25 -4.7 -19.7 -9.7 -18.1 -9.7 -16.9 -9.7 -16.45 -2.95 -9.85 3.8 -3.3 3.8 -2.6 3.8 -0.7 0.15 0.45 -4.75 1.95 -6.6 3.0 L-3.65 7.2 Q-2.5 7.65 -1.75 9.15 L0.1 13.2 Q1.05 14.7 4.2 21.45 6.4 26.05 6.8 34.0 L7.05 34.5 7.2 36.6 7.5 42.95 8.55 45.95 Q9.75 49.4 10.95 51.6 L14.1 57.55 Q16.25 61.35 17.8 63.2 19.55 65.3 21.85 69.35 L25.05 74.85 28.9 80.35 32.7 86.1 Q34.65 89.25 37.5 93.05 L39.65 98.3 Q47.3 116.85 51.25 124.6 L53.8 130.75 Q60.25 135.1 65.15 145.7 69.25 154.7 70.85 164.0 70.85 166.45 69.15 168.05 67.5 169.6 65.1 169.6 63.2 169.6 54.1 162.9 L53.45 163.3 -14.5 163.55 -14.85 163.6 -23.85 165.0 Q-27.95 165.0 -30.4 163.6 L-40.6 163.65 Q-51.7 167.2 -60.2 170.55 -63.3 171.75 -69.4 171.75 -70.85 171.75 -73.0 173.05 -75.15 174.35 -76.6 174.35 -81.55 174.35 -83.1 171.55 -83.65 170.55 -83.65 168.45 -83.65 167.05 -79.1 163.8 L-97.15 163.85 Q-197.15 163.5 -231.3 163.0 L-232.2 163.6 Q-237.5 168.65 -235.5 165.6 L-237.75 166.15 -240.6 165.8 Q-268.85 193.2 -267.65 182.75 -266.0 167.9 -252.3 151.6 -238.6 135.3 -263.05 154.25 -287.5 173.15 -281.15 164.35 -274.8 155.5 -250.05 132.25 -225.3 108.95 -275.95 121.35 -229.3 101.35 -260.45 106.85 -291.65 112.35 -285.8 106.95 -280.2 101.7 -243.05 93.0 L-243.95 92.35 -245.2 91.1 Q-245.25 92.15 -246.15 92.8 -246.9 93.35 -247.7 93.35 -250.95 93.35 -252.8 88.35 -253.35 86.85 -254.3 82.2 -254.7 80.45 -256.65 77.0 L-259.8 71.35 Q-262.05 66.6 -267.35 60.2 L-266.7 65.8 -266.95 66.0 -267.8 66.3 Q-269.9 61.55 -271.0 55.7 -273.95 51.75 -273.95 49.6 -273.95 48.0 -272.95 47.7 L-271.85 50.05 -271.85 50.0 Q-272.45 39.25 -272.95 33.6 -273.6 26.8 -273.95 13.7 L-274.2 0.95 Q-274.2 -39.25 -262.05 -71.8 -254.15 -93.0 -250.4 -107.95 -245.3 -128.0 -245.2 -144.95 L-244.2 -145.05 -244.05 -144.5 Q-242.0 -147.25 -234.4 -154.6 -227.4 -161.25 -219.5 -162.65 L-211.8 -163.3 -202.95 -163.45 Q-202.95 -163.8 -185.35 -162.95 L-184.35 -161.7 -183.7 -160.35 Q-183.65 -159.05 -182.15 -156.0 L-180.95 -156.7 Q-180.15 -157.2 -177.2 -157.7 L-171.45 -158.6 -163.8 -159.6 M-167.45 -51.55 L-160.45 -54.2 Q-156.3 -56.0 -147.3 -56.8 L-149.8 -59.5 -156.2 -67.25 -157.85 -66.5 -162.15 -63.2 Q-165.0 -60.75 -167.8 -56.8 L-172.45 -49.95 -172.4 -49.8 -167.45 -51.55 M-173.95 -82.3 L-165.45 -80.7 -167.55 -84.3 -173.95 -82.3 M-140.95 -104.6 L-140.4 -104.0 -137.95 -101.3 Q-133.95 -97.55 -133.95 -95.35 -133.95 -92.85 -140.2 -91.6 L-144.0 -90.95 Q-140.85 -87.55 -135.45 -86.2 -130.5 -84.95 -124.55 -81.1 -119.9 -78.05 -116.6 -74.85 -113.85 -72.15 -112.4 -68.9 -111.1 -65.9 -111.1 -63.05 L-111.55 -57.25 -106.05 -56.75 -94.95 -55.55 Q-94.7 -55.55 -93.65 -54.75 L-92.35 -53.3 Q-94.35 -51.3 -99.1 -48.85 L-106.1 -45.25 -106.15 -45.4 Q-107.85 -44.6 -109.4 -45.05 -113.6 -46.15 -117.1 -44.55 L-120.0 -42.75 Q-122.1 -41.3 -122.6 -40.55 L-126.2 -36.5 Q-128.2 -34.3 -128.85 -32.75 L-128.85 -32.3 -129.1 -32.2 -129.2 -31.9 -130.2 -31.9 -131.45 -31.8 Q-132.25 -31.8 -134.35 -33.4 -136.45 -35.05 -137.35 -35.05 L-134.25 -31.9 Q-131.05 -29.05 -128.2 -29.05 -127.8 -29.05 -119.2 -37.65 L-116.15 -40.05 Q-113.45 -41.9 -112.45 -41.95 L-104.4 -42.65 -101.7 -43.3 -97.35 -43.6 -91.95 -44.1 -92.1 -43.35 Q-89.35 -42.2 -89.1 -42.2 -88.65 -42.2 -86.8 -46.15 -84.85 -50.2 -82.2 -50.7 L-81.9 -50.8 Q-81.6 -50.75 -81.6 -49.95 -81.6 -49.35 -83.35 -46.8 L-85.7 -43.2 -86.85 -39.75 Q-87.45 -37.55 -88.2 -36.55 L-85.8 -38.75 Q-83.9 -40.75 -82.95 -41.2 -81.95 -41.0 -81.7 -40.3 L-85.45 -36.25 Q-87.45 -33.75 -88.35 -31.7 L-88.6 -31.3 -88.2 -31.5 Q-81.15 -35.15 -80.45 -35.7 L-79.55 -35.45 Q-79.2 -35.25 -79.2 -34.4 -79.2 -33.65 -80.1 -33.0 L-82.6 -31.2 -82.85 -30.9 -82.6 -30.95 -79.25 -32.25 Q-77.3 -33.05 -75.8 -33.05 -74.5 -33.05 -74.2 -32.3 -75.1 -31.7 -80.35 -29.4 -85.0 -27.35 -86.85 -25.65 L-87.1 -25.3 Q-84.05 -25.65 -80.9 -26.7 L-77.45 -27.65 Q-75.3 -27.65 -74.7 -27.15 -75.35 -26.25 -79.75 -25.0 L-86.2 -23.05 -88.35 -21.4 -88.8 -20.95 -83.1 -20.5 Q-77.95 -20.1 -77.95 -18.55 -77.95 -17.65 -79.5 -17.4 L-88.95 -15.9 Q-90.65 -15.6 -91.65 -14.9 L-93.35 -13.15 -94.1 -12.9 -93.45 -13.0 -92.65 -13.15 -90.45 -13.4 -86.35 -13.4 -86.15 -13.25 Q-85.95 -13.15 -85.95 -12.4 L-86.05 -11.65 -86.35 -11.4 Q-90.7 -11.35 -91.9 -10.45 L-94.6 -8.9 -95.2 -8.55 -91.85 -7.45 Q-90.95 -7.05 -90.95 -6.2 -90.95 -4.15 -101.95 -0.85 -112.7 2.45 -118.2 2.35 -121.6 2.3 -122.45 4.15 L-123.2 7.1 -125.95 12.6 -127.35 12.45 -127.45 11.35 Q-127.45 10.2 -126.65 7.8 L-125.45 4.2 -129.8 7.7 Q-133.6 10.6 -134.2 10.6 L-135.1 10.35 -135.4 10.2 -135.45 9.4 Q-135.45 8.8 -133.85 5.95 L-132.1 2.85 -131.95 2.7 -132.1 2.75 Q-135.5 3.75 -137.85 7.15 L-140.85 12.35 -140.95 12.45 -140.85 12.5 Q-132.75 14.25 -126.2 19.5 -121.3 23.5 -120.15 26.9 L-118.85 28.85 -116.4 31.5 Q-114.45 33.2 -112.6 33.2 -109.75 33.2 -104.3 29.35 -98.85 25.45 -94.7 25.45 -92.8 25.45 -91.9 26.0 L-89.85 21.6 Q-89.85 20.05 -91.9 17.55 -93.85 15.3 -95.2 14.7 L-103.05 12.75 Q-109.95 10.95 -109.95 9.85 -109.95 7.7 -105.1 5.25 -99.6 2.5 -92.45 2.35 -85.25 0.95 -69.95 4.5 -58.3 7.15 -53.05 9.8 L-53.15 9.55 -52.05 10.3 -50.65 11.9 -48.7 15.0 Q-47.5 16.95 -46.25 18.1 L-42.25 21.25 Q-39.75 22.95 -37.8 23.65 -36.8 24.0 -32.85 26.05 L-32.8 26.1 -25.85 33.4 Q-20.9 38.55 -18.8 41.45 -16.5 44.5 -14.45 48.9 -12.5 52.95 -11.3 56.85 L-10.8 58.55 -11.05 56.85 Q-11.8 51.65 -13.0 46.1 -15.75 33.4 -20.65 20.45 -23.8 12.2 -25.85 7.35 -28.8 0.4 -31.95 -5.45 L-40.05 -19.85 -41.3 -22.1 -41.5 -22.5 Q-43.8 -27.6 -43.25 -34.8 -43.0 -37.45 -44.95 -40.95 -46.0 -42.8 -49.3 -47.25 L-52.5 -50.25 -55.55 -53.25 Q-57.25 -55.6 -58.9 -56.5 L-59.8 -57.35 -59.75 -57.55 -59.8 -57.55 -60.3 -57.6 -60.65 -57.65 Q-61.35 -57.85 -62.15 -58.35 -63.55 -58.8 -66.9 -61.25 L-71.95 -65.3 Q-73.5 -66.5 -76.6 -68.25 L-80.95 -70.8 Q-83.65 -72.55 -88.55 -76.55 L-90.7 -78.35 Q-99.85 -78.4 -101.45 -78.6 -110.4 -79.5 -113.5 -82.5 -114.6 -83.5 -115.35 -85.15 L-116.6 -87.7 Q-118.8 -91.2 -119.4 -97.35 L-119.5 -99.45 Q-121.25 -100.55 -122.95 -101.3 -129.15 -103.95 -140.95 -104.6 M-119.45 -58.45 L-120.2 -62.9 Q-120.75 -65.6 -122.1 -67.45 -126.6 -73.7 -136.6 -76.75 -146.75 -79.1 -149.45 -80.7 -152.7 -82.6 -155.2 -85.15 L-152.8 -78.4 Q-140.65 -76.2 -138.85 -75.05 -139.7 -73.55 -144.05 -71.85 L-148.85 -70.1 Q-145.2 -63.45 -140.25 -57.3 L-127.95 -57.55 -119.2 -57.45 -119.45 -58.45 M-140.85 -54.55 L-140.7 -54.45 -140.8 -54.55 -140.85 -54.55 M-90.6 -27.3 Q-90.3 -27.3 -88.3 -28.65 L-85.85 -30.55 Q-86.3 -30.55 -88.0 -29.4 L-90.6 -27.3 M-55.8 57.45 L-58.1 57.6 -62.85 60.6 Q-67.3 63.85 -68.95 65.85 -70.3 67.45 -71.0 69.2 L-71.05 69.3 -71.3 71.25 -71.15 71.3 -71.25 71.45 -70.7 73.25 -70.8 73.65 -72.25 73.6 -73.75 73.5 -73.85 73.55 -74.25 73.85 -75.55 74.6 -77.3 75.65 -78.05 76.55 Q-83.5 83.1 -84.35 92.45 -81.75 92.05 -78.15 90.8 L-74.9 89.9 -76.0 89.5 -75.85 89.45 -76.1 89.2 -76.4 88.4 Q-76.4 87.95 -74.5 87.75 L-74.05 87.7 -74.0 87.7 -72.65 87.8 -70.1 84.2 -66.35 79.35 -66.35 79.05 -66.4 78.8 -66.6 78.55 -66.5 78.5 -66.65 77.55 Q-66.65 77.1 -65.35 77.05 L-63.95 77.0 -60.7 72.55 -56.75 67.55 -56.75 67.1 -56.9 64.85 -56.8 64.55 -56.45 64.5 Q-56.15 64.5 -55.45 65.5 L-55.25 65.8 -54.45 64.95 -54.25 65.05 Q-54.0 61.5 -53.4 58.1 -54.0 57.45 -55.8 57.45 M-68.1 85.2 L-69.8 88.35 -70.3 89.15 -69.95 89.1 Q-66.3 88.7 -63.45 87.05 -61.5 85.9 -60.7 84.85 L-59.25 82.75 -60.15 81.35 Q-59.25 81.35 -58.65 81.9 L-57.55 80.1 -54.45 75.1 -54.45 68.55 -58.9 74.25 -62.85 78.85 Q-62.85 79.75 -65.05 81.95 L-68.1 85.2 M-20.5 90.05 Q-26.55 94.75 -32.8 98.85 -37.1 103.15 -40.95 110.0 -43.6 114.7 -45.4 119.45 -44.85 119.65 -44.3 120.35 L-42.8 122.5 Q-40.3 125.6 -34.9 125.6 -32.7 125.6 -31.45 124.65 L-29.6 122.9 -29.65 122.15 Q-29.65 120.85 -25.3 115.45 L-20.8 109.95 -17.85 104.15 Q-16.05 100.45 -15.55 98.35 L-12.3 86.7 -11.65 82.15 Q-14.65 85.45 -20.5 90.05 M-29.4 122.75 L-29.35 122.7 -29.4 122.7 -29.4 122.75" fill="#000000" fill-rule="evenodd" stroke="none"/>
      <path d="M-90.6 -27.3 L-88.0 -29.4 Q-86.3 -30.55 -85.85 -30.55 L-88.3 -28.65 Q-90.3 -27.3 -90.6 -27.3" fill="#4b224d" fill-rule="evenodd" stroke="none"/>
      <path d="M-68.1 85.2 L-65.05 81.95 Q-62.85 79.75 -62.85 78.85 L-58.9 74.25 -54.45 68.55 -54.45 75.1 -57.55 80.1 -58.65 81.9 Q-59.25 81.35 -60.15 81.35 L-59.25 82.75 -60.7 84.85 Q-61.5 85.9 -63.45 87.05 -66.3 88.7 -69.95 89.1 L-70.3 89.15 -69.8 88.35 -68.1 85.2 M-55.8 57.45 Q-54.0 57.45 -53.4 58.1 -54.0 61.5 -54.25 65.05 L-54.45 64.95 -55.25 65.8 -55.45 65.5 Q-56.15 64.5 -56.45 64.5 L-56.8 64.55 -56.9 64.85 -56.75 67.1 -56.75 67.55 -60.7 72.55 -63.95 77.0 -65.35 77.05 Q-66.65 77.1 -66.65 77.55 L-66.5 78.5 -66.6 78.55 -66.4 78.8 -66.35 79.05 -66.35 79.35 -70.1 84.2 -72.65 87.8 -74.0 87.7 -74.05 87.7 -74.5 87.75 Q-76.4 87.95 -76.4 88.4 L-76.1 89.2 -75.85 89.45 -76.0 89.5 -74.9 89.9 -78.15 90.8 Q-81.75 92.05 -84.35 92.45 -83.5 83.1 -78.05 76.55 L-77.3 75.65 -75.55 74.6 -74.25 73.85 -73.85 73.55 -73.75 73.5 -72.25 73.6 -70.8 73.65 -70.7 73.25 -71.25 71.45 -71.15 71.3 -71.3 71.25 -71.05 69.3 -71.0 69.2 Q-70.3 67.45 -68.95 65.85 -67.3 63.85 -62.85 60.6 L-58.1 57.6 -55.8 57.45" fill="#ffffff" fill-rule="evenodd" stroke="none"/>
      <path d="M-119.45 -58.45 L-119.2 -57.45 -127.95 -57.55 -140.25 -57.3 Q-145.2 -63.45 -148.85 -70.1 L-144.05 -71.85 Q-139.7 -73.55 -138.85 -75.05 -140.65 -76.2 -152.8 -78.4 L-155.2 -85.15 Q-152.7 -82.6 -149.45 -80.7 -146.75 -79.1 -136.6 -76.75 -126.6 -73.7 -122.1 -67.45 -120.75 -65.6 -120.2 -62.9 L-119.45 -58.45 M-140.95 -104.6 Q-129.15 -103.95 -122.95 -101.3 -121.25 -100.55 -119.5 -99.45 L-119.4 -97.35 Q-118.8 -91.2 -116.6 -87.7 L-115.35 -85.15 Q-114.6 -83.5 -113.5 -82.5 -110.4 -79.5 -101.45 -78.6 -99.85 -78.4 -90.7 -78.35 L-88.55 -76.55 Q-83.65 -72.55 -80.95 -70.8 L-76.6 -68.25 Q-73.5 -66.5 -71.95 -65.3 L-66.9 -61.25 Q-63.55 -58.8 -62.15 -58.35 -61.35 -57.85 -60.65 -57.65 L-60.3 -57.6 -59.8 -57.55 -59.75 -57.55 -59.8 -57.35 -58.9 -56.5 Q-57.25 -55.6 -55.55 -53.25 L-52.5 -50.25 -49.3 -47.25 Q-46.0 -42.8 -44.95 -40.95 -43.0 -37.45 -43.25 -34.8 -43.8 -27.6 -41.5 -22.5 L-41.3 -22.1 -40.05 -19.85 -31.95 -5.45 Q-28.8 0.4 -25.85 7.35 -23.8 12.2 -20.65 20.45 -15.75 33.4 -13.0 46.1 -11.8 51.65 -11.05 56.85 L-10.8 58.55 -11.3 56.85 Q-12.5 52.95 -14.45 48.9 -16.5 44.5 -18.8 41.45 -20.9 38.55 -25.85 33.4 L-32.8 26.1 -32.85 26.05 Q-36.8 24.0 -37.8 23.65 -39.75 22.95 -42.25 21.25 L-46.25 18.1 Q-47.5 16.95 -48.7 15.0 L-50.65 11.9 -52.05 10.3 -53.15 9.55 -53.05 9.8 Q-58.3 7.15 -69.95 4.5 -85.25 0.95 -92.45 2.35 -99.6 2.5 -105.1 5.25 -109.95 7.7 -109.95 9.85 -109.95 10.95 -103.05 12.75 L-95.2 14.7 Q-93.85 15.3 -91.9 17.55 -89.85 20.05 -89.85 21.6 L-91.9 26.0 Q-92.8 25.45 -94.7 25.45 -98.85 25.45 -104.3 29.35 -109.75 33.2 -112.6 33.2 -114.45 33.2 -116.4 31.5 L-118.85 28.85 -120.15 26.9 Q-121.3 23.5 -126.2 19.5 -132.75 14.25 -140.85 12.5 L-140.95 12.45 -140.85 12.35 -137.85 7.15 Q-135.5 3.75 -132.1 2.75 L-131.95 2.7 -132.1 2.85 -133.85 5.95 Q-135.45 8.8 -135.45 9.4 L-135.4 10.2 -135.1 10.35 -134.2 10.6 Q-133.6 10.6 -129.8 7.7 L-125.45 4.2 -126.65 7.8 Q-127.45 10.2 -127.45 11.35 L-127.35 12.45 -125.95 12.6 -123.2 7.1 -122.45 4.15 Q-121.6 2.3 -118.2 2.35 -112.7 2.45 -101.95 -0.85 -90.95 -4.15 -90.95 -6.2 -90.95 -7.05 -91.85 -7.45 L-95.2 -8.55 -94.6 -8.9 -91.9 -10.45 Q-90.7 -11.35 -86.35 -11.4 L-86.05 -11.65 -85.95 -12.4 Q-85.95 -13.15 -86.15 -13.25 L-86.35 -13.4 -90.45 -13.4 -92.65 -13.15 -93.45 -13.0 -94.1 -12.9 -93.35 -13.15 -91.65 -14.9 Q-90.65 -15.6 -88.95 -15.9 L-79.5 -17.4 Q-77.95 -17.65 -77.95 -18.55 -77.95 -20.1 -83.1 -20.5 L-88.8 -20.95 -88.35 -21.4 -86.2 -23.05 -79.75 -25.0 Q-75.35 -26.25 -74.7 -27.15 -75.3 -27.65 -77.45 -27.65 L-80.9 -26.7 Q-84.05 -25.65 -87.1 -25.3 L-86.85 -25.65 Q-85.0 -27.35 -80.35 -29.4 -75.1 -31.7 -74.2 -32.3 -74.5 -33.05 -75.8 -33.05 -77.3 -33.05 -79.25 -32.25 L-82.6 -30.95 -82.85 -30.9 -82.6 -31.2 -80.1 -33.0 Q-79.2 -33.65 -79.2 -34.4 -79.2 -35.25 -79.55 -35.45 L-80.45 -35.7 Q-81.15 -35.15 -88.2 -31.5 L-88.6 -31.3 -88.35 -31.7 Q-87.45 -33.75 -85.45 -36.25 L-81.7 -40.3 Q-81.95 -41.0 -82.95 -41.2 -83.9 -40.75 -85.8 -38.75 L-88.2 -36.55 Q-87.45 -37.55 -86.85 -39.75 L-85.7 -43.2 -83.35 -46.8 Q-81.6 -49.35 -81.6 -49.95 -81.6 -50.75 -81.9 -50.8 L-82.2 -50.7 Q-84.85 -50.2 -86.8 -46.15 -88.65 -42.2 -89.1 -42.2 -89.35 -42.2 -92.1 -43.35 L-91.95 -44.1 -97.35 -43.6 -101.7 -43.3 -104.4 -42.65 -112.45 -41.95 Q-113.45 -41.9 -116.15 -40.05 L-119.2 -37.65 Q-127.8 -29.05 -128.2 -29.05 -131.05 -29.05 -134.25 -31.9 L-137.35 -35.05 Q-136.45 -35.05 -134.35 -33.4 -132.25 -31.8 -131.45 -31.8 L-130.2 -31.9 -129.2 -31.9 -129.1 -32.2 -128.85 -32.3 -128.85 -32.75 Q-128.2 -34.3 -126.2 -36.5 L-122.6 -40.55 Q-122.1 -41.3 -120.0 -42.75 L-117.1 -44.55 Q-113.6 -46.15 -109.4 -45.05 -107.85 -44.6 -106.15 -45.4 L-106.1 -45.25 -99.1 -48.85 Q-94.35 -51.3 -92.35 -53.3 L-93.65 -54.75 Q-94.7 -55.55 -94.95 -55.55 L-106.05 -56.75 -111.55 -57.25 -111.1 -63.05 Q-111.1 -65.9 -112.4 -68.9 -113.85 -72.15 -116.6 -74.85 -119.9 -78.05 -124.55 -81.1 -130.5 -84.95 -135.45 -86.2 -140.85 -87.55 -144.0 -90.95 L-140.2 -91.6 Q-133.95 -92.85 -133.95 -95.35 -133.95 -97.55 -137.95 -101.3 L-140.4 -104.0 -140.95 -104.6 M-173.95 -82.3 L-167.55 -84.3 -165.45 -80.7 -173.95 -82.3 M-167.45 -51.55 L-172.4 -49.8 -172.45 -49.95 -167.8 -56.8 Q-165.0 -60.75 -162.15 -63.2 L-157.85 -66.5 -156.2 -67.25 -149.8 -59.5 -147.3 -56.8 Q-156.3 -56.0 -160.45 -54.2 L-167.45 -51.55 M-20.5 90.05 Q-14.65 85.45 -11.65 82.15 L-12.3 86.7 -15.55 98.35 Q-16.05 100.45 -17.85 104.15 L-20.8 109.95 -25.3 115.45 Q-29.65 120.85 -29.65 122.15 L-29.6 122.9 -31.45 124.65 Q-32.7 125.6 -34.9 125.6 -40.3 125.6 -42.8 122.5 L-44.3 120.35 Q-44.85 119.65 -45.4 119.45 -43.6 114.7 -40.95 110.0 -37.1 103.15 -32.8 98.85 -26.55 94.75 -20.5 90.05" fill="url(#gradient1)" fill-rule="evenodd" stroke="none"/>
    </g>
    <linearGradient gradientTransform="matrix(-0.1015, -0.1194, 0.7607, -0.6467, -295.7, 205.0)" gradientUnits="userSpaceOnUse" id="gradient1" spreadMethod="pad" x1="-819.2" x2="819.2">
      <stop offset="0.0" stop-color="#1c0d1e"/>
      <stop offset="1.0" stop-color="#4b224d"/>
    </linearGradient>
    <g id="sprite1" transform="matrix(1.0, 0.0, 0.0, 1.0, -0.6, -1.5)">
      <use ffdec:characterId="3621" height="16.65" transform="matrix(1.0, 0.0, 0.0, 1.0, 0.6, 1.5)" width="18.7" xlink:href="#shape2"/>
    </g>
    <g id="shape2" transform="matrix(1.0, 0.0, 0.0, 1.0, -0.6, -1.5)">
      <path d="M16.25 1.95 Q17.0 2.05 17.65 2.45 L18.6 3.2 Q20.15 6.75 18.25 10.15 15.95 14.25 11.75 16.7 6.7 19.7 2.1 16.5 L1.2 15.7 Q0.2 13.3 0.9 10.55 2.2 5.7 6.4 3.05 9.9 0.9 13.95 1.75 L16.25 1.95" fill="#ffe680" fill-rule="evenodd" stroke="none"/>
    </g>
    <g id="shape3" transform="matrix(1.0, 0.0, 0.0, 1.0, 273.0, 33.3)">
      <path d="M-122.3 -29.0 Q-117.95 -33.3 -111.85 -33.3 -105.75 -33.3 -101.45 -29.0 -97.1 -24.65 -97.1 -18.55 -97.1 -12.45 -101.45 -8.15 -105.75 -3.8 -111.85 -3.8 -117.95 -3.8 -122.3 -8.15 -126.6 -12.45 -126.6 -18.55 -126.6 -24.65 -122.3 -29.0" fill="url(#gradient2)" fill-rule="evenodd" stroke="none"/>
      <path d="M-258.15 60.0 Q-257.15 63.2 -257.0 64.85 -256.6 68.5 -256.15 69.2 -255.6 70.1 -251.0 73.85 -250.05 74.6 -249.25 78.2 -248.4 82.15 -247.25 83.6 -241.35 91.05 -240.25 93.35 -237.95 97.75 -236.05 102.25 -233.0 109.5 -233.0 112.5 -233.0 115.85 -235.65 116.9 L-234.15 121.0 Q-231.0 129.95 -231.0 133.1 -231.0 137.8 -231.8 141.35 -233.45 148.85 -238.0 148.85 -241.4 148.85 -243.2 147.55 L-243.2 147.75 Q-242.9 151.0 -243.05 151.95 -243.7 156.85 -253.0 156.85 -260.85 156.85 -262.45 152.85 -262.95 151.6 -263.05 149.45 -263.1 147.15 -263.25 146.6 -263.95 144.0 -264.5 140.4 L-265.0 135.0 -264.0 123.2 -263.0 111.45 Q-266.0 104.85 -266.0 103.75 -266.0 103.1 -264.65 101.0 L-268.0 90.25 Q-273.0 73.95 -273.0 57.75 -273.0 48.55 -269.2 47.5 -265.25 46.45 -259.5 55.1 L-258.15 60.0" fill="#000000" fill-rule="evenodd" stroke="none"/>
    </g>
    <radialGradient cx="0" cy="0" gradientTransform="matrix(0.0181, 0.0, 0.0, 0.0181, -111.85, -18.55)" gradientUnits="userSpaceOnUse" id="gradient2" r="819.2" spreadMethod="pad">
      <stop offset="0.0" stop-color="#ffc900" stop-opacity="0.2509804"/>
      <stop offset="1.0" stop-color="#ffc900" stop-opacity="0.0"/>
    </radialGradient>
    <g id="shape4" transform="matrix(1.0, 0.0, 0.0, 1.0, -13.0, 97.95)">
      <path d="M24.95 174.6 L28.3 175.1 29.05 175.2 48.0 177.55 60.65 178.85 62.95 179.05 62.95 216.15 24.95 216.15 24.95 174.6" fill="#ffffff" fill-rule="evenodd" stroke="none"/>
      <path d="M24.95 174.6 L18.25 173.2 Q15.0 172.2 13.9 170.75 13.0 169.6 13.0 167.15 13.0 162.85 15.35 161.05 17.6 159.35 22.85 159.3 L24.95 159.35 24.95 -74.95 62.95 -97.95 Q64.35 -86.7 67.95 -75.95 77.2 -48.65 100.95 -24.95 L100.95 165.8 102.35 165.9 112.0 166.4 104.7 173.25 114.55 182.4 101.85 181.75 100.95 181.7 100.95 216.15 95.95 216.15 95.95 181.4 67.95 179.45 67.95 216.15 62.95 216.15 62.95 179.05 60.65 178.85 48.0 177.55 29.05 175.2 28.3 175.1 24.95 174.6" fill="url(#gradient3)" fill-rule="evenodd" stroke="none"/>
      <path d="M100.95 -28.75 L100.95 162.0 24.95 155.55 24.95 -78.75 100.95 -28.75" fill="url(#gradient4)" fill-rule="evenodd" stroke="none"/>
      <path d="M62.95 -73.7 L62.95 163.55 55.5 162.8 36.05 160.4 33.05 160.05 29.05 159.65 29.05 -71.6 59.55 -89.15 Q60.35 -80.1 62.95 -73.7" fill="url(#gradient5)" fill-rule="evenodd" stroke="none"/>
    </g>
    <linearGradient gradientTransform="matrix(0.0, 0.1496, -0.1917, 0.0, 83.5, 37.9)" gradientUnits="userSpaceOnUse" id="gradient3" spreadMethod="pad" x1="-819.2" x2="819.2">
      <stop offset="0.0" stop-color="#cccccc"/>
      <stop offset="1.0" stop-color="#888888"/>
    </linearGradient>
    <radialGradient cx="0" cy="0" gradientTransform="matrix(0.1108, 0.0, 0.0, 0.1108, 100.95, 66.6)" gradientUnits="userSpaceOnUse" id="gradient4" r="819.2" spreadMethod="pad">
      <stop offset="0.0" stop-color="#ffffff"/>
      <stop offset="1.0" stop-color="#ffffff" stop-opacity="0.0"/>
    </radialGradient>
    <linearGradient gradientTransform="matrix(0.0207, 0.0, 0.0, 0.1542, 46.0, 37.2)" gradientUnits="userSpaceOnUse" id="gradient5" spreadMethod="pad" x1="-819.2" x2="819.2">
      <stop offset="0.0" stop-color="#000000" stop-opacity="0.0"/>
      <stop offset="1.0" stop-color="#000000" stop-opacity="0.5019608"/>
    </linearGradient>
    <g id="shape5" transform="matrix(1.0, 0.0, 0.0, 1.0, -41.0, -98.9)">
      <path d="M236.7 196.6 Q236.7 237.3 203.15 248.0 168.95 259.1 130.85 267.25 92.8 275.05 67.05 256.15 41.0 237.3 41.0 196.6 41.0 156.2 69.65 127.55 98.3 98.9 139.0 98.9 179.4 98.9 208.05 127.55 236.7 156.2 236.7 196.6" fill="url(#gradient6)" fill-rule="evenodd" stroke="none"/>
    </g>
    <radialGradient cx="0" cy="0" gradientTransform="matrix(0.1765, -0.0312, 0.0222, 0.1253, 130.2, 162.7)" gradientUnits="userSpaceOnUse" id="gradient6" r="819.2" spreadMethod="pad">
      <stop offset="0.5607843137254902" stop-color="#220000"/>
      <stop offset="1.0" stop-color="#ff0000"/>
    </radialGradient>
    <g id="sprite2" transform="matrix(1.0, 0.0, 0.0, 1.0, 0.0, 0.0)">
      <use ffdec:characterId="3629" height="95.1" transform="matrix(1.0, 0.0, 0.0, 1.0, 0.0, 0.0)" width="174.5" xlink:href="#shape6"/>
    </g>
    <g id="shape6" transform="matrix(1.0, 0.0, 0.0, 1.0, 0.0, 0.0)">
      <path d="M172.25 45.25 Q163.8 65.1 144.25 74.9 126.0 84.35 105.2 85.3 88.9 85.65 72.6 83.7 50.15 80.1 28.0 85.95 15.0 89.2 2.6 94.1 1.3 94.4 0.0 95.1 0.35 87.9 1.3 81.4 6.2 51.1 28.65 28.65 57.3 0.0 98.0 0.0 138.4 0.0 167.05 28.65 L170.95 32.55 174.5 36.45 172.25 45.25" fill="url(#gradient7)" fill-rule="evenodd" stroke="none"/>
    </g>
    <radialGradient cx="0" cy="0" fx="227.20000000000002" fy="0" gradientTransform="matrix(0.0269, 0.1006, -0.1716, 0.046, 71.3, 3.25)" gradientUnits="userSpaceOnUse" id="gradient7" r="819.2" spreadMethod="pad">
      <stop offset="0.0" stop-color="#ffffff" stop-opacity="0.0"/>
      <stop offset="1.0" stop-color="#f0c931" stop-opacity="0.7019608"/>
    </radialGradient>
    <g id="sprite3" transform="matrix(1.0, 0.0, 0.0, 1.0, -14.65, -66.9)">
      <clipPath id="clipPath5" transform="matrix(1.0, 0.0, 0.0, 1.0, 0.0, 0.0)">
        <path d="M51.75 184.65 Q47.35 216.9 66.9 240.5 86.4 264.05 129.55 259.25 172.65 254.45 206.15 235.85 239.65 217.25 230.7 184.95 221.75 152.65 197.2 131.4 172.65 110.15 138.5 110.15 104.35 110.15 80.2 131.25 56.1 152.4 51.75 184.65" fill="#0033ff" fill-rule="evenodd" stroke="none"/>
        <path d="M51.75 184.65 Q56.1 152.4 80.2 131.25 104.35 110.15 138.5 110.15 172.65 110.15 197.2 131.4 221.75 152.65 230.7 184.95 239.65 217.25 206.15 235.85 172.65 254.45 129.55 259.25 86.4 264.05 66.9 240.5 47.35 216.9 51.75 184.65 Z" fill="none" stroke="#000000" stroke-linecap="round" stroke-linejoin="round" stroke-opacity="0.0" stroke-width="0.0"/>
      </clipPath>
      <g clip-path="url(#clipPath5)">
        <use ffdec:characterId="3631" height="170.65" transform="matrix(1.0, 0.0, 0.0, 1.0, 41.0, 98.9)" width="195.7" xlink:href="#shape5"/>
        <use ffdec:characterId="3630" height="95.1" transform="matrix(1.0, 0.0, 0.0, 1.0, 41.0, 98.9)" width="174.5" xlink:href="#sprite2"/>
      </g>
    </g>
    <g id="sprite4" transform="matrix(1.0, 0.0, 0.0, 1.0, 265.1, 150.0)">
      <use ffdec:characterId="3477" height="300.0" transform="matrix(1.0, 0.0, 0.0, 1.0, -265.1, -150.0)" width="533.0" xlink:href="#shape7"/>
    </g>
    <g id="shape7" transform="matrix(1.0, 0.0, 0.0, 1.0, 265.1, 150.0)">
      <path d="M267.9 -150.0 L267.9 150.0 -265.1 150.0 -265.1 -150.0 267.9 -150.0 Z" fill="none" stroke="#ff0000" stroke-linecap="round" stroke-linejoin="round" stroke-width="0.05"/>
      <path d="M1.4 -16.05 L1.45 -16.05 Q9.35 -16.05 14.95 -11.35 20.55 -6.65 20.55 0.0 L39.5 0.0 M20.55 0.0 Q20.55 6.65 14.95 11.35 9.35 16.05 1.45 16.05 L1.4 16.05 1.4 21.45 M-36.65 0.0 L-17.55 0.0 -17.55 -0.05 Q-17.55 -6.65 -11.95 -11.35 -6.4 -16.05 1.4 -16.05 M1.4 16.05 Q-6.4 16.05 -11.95 11.35 -17.55 6.65 -17.55 0.0" fill="none" stroke="#ff0000" stroke-linecap="round" stroke-linejoin="round" stroke-opacity="0.2509804" stroke-width="0.05"/>
      <path d="M1.4 -16.05 L1.4 -21.4" fill="none" stroke="#ff0000" stroke-linecap="round" stroke-linejoin="round" stroke-opacity="0.2509804" stroke-width="1.0"/>
      <path d="M181.15 141.4 L181.15 123.6 191.05 123.6 191.05 141.4 181.15 141.4" fill="#ffffff" fill-rule="evenodd" stroke="none"/>
      <path d="M250.55 123.6 L260.45 123.6 260.45 141.4 260.35 141.4 250.55 141.4 250.55 123.6" fill="#000000" fill-rule="evenodd" stroke="none"/>
      <path d="M230.7 123.6 L240.6 123.6 240.6 141.4 230.7 141.4 230.7 123.6" fill="#ff0000" fill-rule="evenodd" stroke="none"/>
      <path d="M191.05 123.6 L201.0 123.6 201.0 141.4 191.05 141.4 191.05 123.6" fill="#ffff00" fill-rule="evenodd" stroke="none"/>
      <path d="M201.0 123.6 L210.9 123.6 210.9 141.4 201.0 141.4 201.0 123.6" fill="#00ffff" fill-rule="evenodd" stroke="none"/>
      <path d="M210.9 123.6 L220.8 123.6 220.8 141.4 210.9 141.4 210.9 123.6" fill="#00ff00" fill-rule="evenodd" stroke="none"/>
      <path d="M220.8 123.6 L230.7 123.6 230.7 141.4 220.8 141.4 220.8 123.6" fill="#ff00ff" fill-rule="evenodd" stroke="none"/>
      <path d="M240.6 123.6 L250.55 123.6 250.55 141.4 240.6 141.4 240.6 123.6" fill="#0000ff" fill-rule="evenodd" stroke="none"/>
      <path d="M260.35 141.4 L260.35 145.4 181.1 145.4 181.1 141.4 181.15 141.4 191.05 141.4 201.0 141.4 210.9 141.4 220.8 141.4 230.7 141.4 240.6 141.4 250.55 141.4 260.35 141.4" fill="url(#gradient8)" fill-rule="evenodd" stroke="none"/>
    </g>
    <linearGradient gradientTransform="matrix(0.0484, 0.0, 0.0, 0.0024, 220.7, 143.35)" gradientUnits="userSpaceOnUse" id="gradient8" spreadMethod="pad" x1="-819.2" x2="819.2">
      <stop offset="0.0" stop-color="#ffffff"/>
      <stop offset="1.0" stop-color="#000000"/>
    </linearGradient>
  </defs>
</svg>
