<?xml version="1.0" encoding="UTF-8" standalone="no"?>
<svg xmlns:ffdec="https://www.free-decompiler.com/flash" xmlns:xlink="http://www.w3.org/1999/xlink" ffdec:objectType="frame" height="4004.1px" width="7682.6px" xmlns="http://www.w3.org/2000/svg">
  <g transform="matrix(2.0, 0.0, 0.0, 2.0, 4622.9, 1925.9)">
    <use ffdec:characterId="333" height="372.95" transform="matrix(1.0611, 0.0, 0.0, 1.0111, -262.0187, -216.0102)" width="608.0" xlink:href="#shape0"/>
    <use ffdec:characterId="3522" height="200.0" transform="matrix(1.4648, 0.0, 0.0, 1.4648, 28.6528, -166.0839)" width="127.5" xlink:href="#sprite0"/>
    <use ffdec:characterId="3497" height="2.0" transform="matrix(1.6289, 0.0, 0.0, 1.6289, -72.05, 129.35)" width="2.0" xlink:href="#shape3"/>
    <use ffdec:characterId="3496" height="524.1" transform="matrix(1.5737, 0.0, 0.0, 1.5737, -616.3261, -276.2761)" width="524.1" xlink:href="#sprite1"/>
    <use ffdec:characterId="3478" height="300.0" transform="matrix(1.0765, 0.0, 0.0, 1.0765, -198.3781, -186.1216)" width="533.0" xlink:href="#sprite2"/>
  </g>
  <defs>
    <g id="shape0" transform="matrix(1.0, 0.0, 0.0, 1.0, -26.7, -26.05)">
      <path d="M634.7 26.05 L634.7 399.0 26.7 399.0 26.7 26.05 634.7 26.05" fill="#000000" fill-rule="evenodd" stroke="none"/>
    </g>
    <g id="sprite0" transform="matrix(1.0, 0.0, 0.0, 1.0, -2.05, -18.0)">
      <use ffdec:characterId="3509" height="200.0" transform="matrix(1.0, 0.0, 0.0, 1.0, 2.05, 18.0)" width="127.5" xlink:href="#shape1"/>
      <use ffdec:characterId="3508" height="198.5" transform="matrix(1.0, 0.0, 0.0, 1.0, 2.05, 18.0)" width="127.5" xlink:href="#shape2"/>
    </g>
    <g id="shape1" transform="matrix(1.0, 0.0, 0.0, 1.0, -2.05, -18.0)">
      <path d="M83.85 80.2 Q85.8 81.3 87.15 82.55 L88.7 83.85 Q94.45 103.65 109.55 117.8 L102.0 163.55 102.9 163.65 112.45 133.45 Q113.2 131.0 115.8 131.05 117.65 137.7 117.6 144.1 L117.55 144.1 117.15 144.05 117.4 148.0 Q116.5 157.1 111.65 165.65 107.15 173.55 98.05 174.3 94.0 172.25 89.9 171.05 L89.5 170.95 89.35 170.9 Q86.05 169.85 83.0 169.6 L76.3 169.35 71.4 169.15 71.05 169.8 71.05 169.9 Q68.45 170.3 65.85 171.0 53.5 162.0 43.6 150.2 42.7 149.2 42.75 147.9 43.2 137.0 42.25 126.25 L42.4 123.8 41.95 123.05 Q40.45 109.15 36.65 95.5 L31.45 112.05 Q27.05 112.8 22.8 114.1 L16.15 113.9 14.95 114.55 10.1 113.55 9.5 112.7 Q12.15 101.05 17.15 90.3 L21.55 82.0 Q27.45 73.25 38.6 73.95 L37.65 91.7 44.2 70.2 46.15 69.75 47.1 71.2 Q49.2 71.6 50.8 72.6 L51.15 72.85 53.35 74.9 Q54.7 76.1 55.2 76.35 L55.2 76.3 55.25 76.3 55.75 76.3 56.1 74.35 Q60.8 73.15 65.8 73.45 L67.75 73.65 67.75 73.7 68.95 73.9 70.9 74.45 Q73.5 75.15 78.9 77.85 L79.1 77.95 79.5 78.0 Q80.25 78.55 80.9 78.8 L83.85 80.2 M92.9 78.45 L102.0 72.85 Q108.95 73.05 113.9 78.95 124.75 91.9 127.9 108.95 129.25 116.45 129.45 124.15 102.25 108.45 92.9 78.45 M96.9 91.25 Q107.4 114.5 129.55 125.55 L129.45 126.55 128.65 126.9 Q119.95 124.45 112.85 118.0 L113.15 119.1 Q104.95 111.1 98.2 101.75 90.85 91.5 91.9 79.35 L96.9 91.25 M65.7 22.95 L65.6 26.05 Q64.5 26.45 63.95 27.4 60.1 33.8 60.2 42.05 60.25 45.9 56.5 46.0 57.4 47.0 58.75 47.0 60.9 46.85 62.8 45.95 66.85 49.75 68.3 54.95 L67.0 56.75 69.25 59.3 68.55 62.45 Q62.3 65.35 55.85 63.05 48.55 51.1 46.6 37.15 L48.6 39.05 45.65 31.05 46.1 30.2 46.85 30.55 47.9 29.15 Q50.15 28.8 51.9 30.15 53.5 31.45 54.2 30.4 L53.95 30.1 Q51.4 27.65 47.55 26.95 L46.1 22.55 51.45 27.65 51.85 27.1 Q49.25 23.1 50.6 18.45 L56.85 18.0 58.15 19.4 Q62.2 24.5 58.5 30.2 L59.9 30.35 59.3 29.2 64.8 22.4 65.7 22.95 M44.95 27.35 L44.6 23.7 46.65 27.0 44.95 27.35 M66.85 27.95 L69.6 27.55 66.35 28.65 64.9 29.15 65.7 28.55 66.35 28.65 66.85 27.95 M64.4 36.25 L64.45 36.25 64.45 36.3 64.4 36.25 M70.2 37.95 L72.05 38.15 70.0 41.4 66.7 38.65 70.2 37.95 M70.95 61.1 L71.0 61.05 71.0 61.1 70.95 61.1 M63.15 54.75 L61.85 54.4 60.55 54.3 59.35 54.35 59.35 54.65 61.9 55.1 63.15 54.75 M53.2 58.85 Q53.65 58.95 53.25 59.2 L53.2 58.85 M53.25 121.1 Q47.75 120.75 46.35 122.55 L54.35 122.0 59.35 122.95 66.15 124.55 68.95 126.0 Q71.05 127.15 72.65 127.15 L73.1 127.05 69.45 124.45 Q67.05 123.15 63.65 122.55 56.0 121.25 53.25 121.1 M30.0 118.45 Q34.2 119.15 37.25 122.2 L36.95 127.3 36.9 129.1 Q35.55 138.3 29.7 146.1 25.7 151.4 19.0 150.2 L20.5 129.15 20.75 127.0 22.15 117.45 30.0 118.45 M35.8 167.95 L36.6 166.9 Q44.05 170.85 41.9 180.05 L40.4 180.0 Q38.4 176.3 40.1 172.0 37.05 171.15 35.8 167.95 M9.65 114.15 L9.65 114.05 9.65 114.0 9.85 114.2 9.65 114.15 M26.4 150.95 L26.45 150.9 26.45 150.95 26.4 150.95 M32.35 169.75 L32.65 168.85 Q40.2 172.15 37.8 180.3 L36.55 180.05 36.1 173.7 35.65 173.5 Q33.25 172.25 32.35 169.75 M19.8 164.35 Q30.45 183.55 27.7 204.5 27.3 207.45 24.6 208.95 L21.95 210.15 15.95 210.95 15.55 210.25 14.9 209.1 13.65 206.75 Q4.0 188.15 2.1 166.8 1.7 162.5 4.65 159.05 15.0 154.2 19.8 164.5 L19.8 164.35 M42.0 166.15 L42.85 166.6 Q47.9 170.75 46.45 177.45 L44.9 177.35 Q43.8 174.25 45.0 170.75 40.35 169.7 42.0 166.15 M78.35 182.8 Q79.25 186.3 78.6 189.55 77.7 192.15 75.8 195.05 73.7 198.2 71.05 200.65 L69.7 201.85 69.35 202.15 67.05 203.8 Q65.3 204.95 60.75 207.25 55.75 209.8 54.1 210.8 L45.5 215.65 Q41.05 217.65 36.55 218.0 L33.3 217.55 Q35.2 212.4 37.05 208.45 L36.75 208.5 Q44.75 190.95 61.55 179.95 66.3 176.9 71.8 177.55 76.4 178.4 78.35 182.8 M99.9 139.0 L99.9 139.55 99.95 139.0 99.9 139.0" fill="url(#gradient0)" fill-rule="evenodd" stroke="none"/>
      <path d="M99.9 139.0 L99.95 139.0 99.9 139.55 99.9 139.0" fill="#000000" fill-rule="evenodd" stroke="none"/>
    </g>
    <linearGradient gradientTransform="matrix(0.0232, -0.1045, 0.1268, 0.0281, 59.5, 111.6)" gradientUnits="userSpaceOnUse" id="gradient0" spreadMethod="pad" x1="-819.2" x2="819.2">
      <stop offset="0.0" stop-color="#dddd00"/>
      <stop offset="1.0" stop-color="#8e4702"/>
    </linearGradient>
    <g id="shape2" transform="matrix(1.0, 0.0, 0.0, 1.0, -2.05, -18.0)">
      <path d="M87.15 82.55 L88.7 83.85 Q94.45 103.65 109.55 117.8 L102.0 163.55 102.9 163.65 102.95 163.5 103.05 163.5 103.5 163.35 103.65 163.35 Q104.55 163.35 105.0 162.05 L105.8 159.3 106.65 157.05 107.05 155.85 107.25 155.4 108.75 151.9 111.3 146.15 115.35 136.25 116.15 134.2 116.4 135.1 116.7 136.8 117.0 140.35 117.2 143.85 117.2 144.05 117.15 144.05 117.2 144.6 Q117.1 147.95 116.1 153.05 115.6 155.4 114.3 159.0 L113.1 162.45 113.2 162.75 111.65 165.65 Q107.15 173.55 98.05 174.3 94.0 172.25 89.9 171.05 L89.5 170.95 89.35 170.9 Q86.05 169.85 83.0 169.6 L76.3 169.35 71.4 169.15 71.4 169.2 68.75 169.55 Q66.4 169.9 65.0 170.4 53.15 161.6 43.6 150.2 42.7 149.2 42.75 147.9 43.2 137.0 42.25 126.25 L42.4 123.8 41.95 123.05 Q40.65 110.75 37.5 98.65 L37.55 98.45 37.25 97.65 36.65 95.5 35.45 99.3 34.9 100.55 34.05 102.0 32.9 104.05 31.7 105.95 28.45 110.0 Q26.7 112.25 26.1 113.2 L22.8 114.1 16.15 113.9 14.95 114.55 10.1 113.55 9.5 112.7 Q12.15 101.05 17.15 90.3 L21.55 82.0 Q26.65 74.45 35.65 73.95 L36.0 76.35 Q36.25 77.85 36.15 80.85 L36.75 89.9 37.0 90.05 37.35 90.15 37.75 90.0 37.65 91.7 44.2 70.2 46.15 69.75 47.1 71.2 Q49.2 71.6 50.8 72.6 L51.15 72.85 53.35 74.9 Q54.7 76.1 55.2 76.35 L55.2 76.3 55.25 76.3 55.75 76.3 56.1 74.35 Q60.8 73.15 65.8 73.45 L67.75 73.65 67.75 73.7 68.95 73.9 70.9 74.45 Q73.5 75.15 78.9 77.85 L79.1 77.95 79.5 78.0 Q80.25 78.55 80.9 78.8 L83.85 80.2 Q85.8 81.3 87.15 82.55 M102.35 72.9 L102.65 73.05 Q103.85 73.7 105.2 74.15 L106.8 74.8 107.0 75.05 Q109.15 77.25 111.8 81.35 L116.05 87.7 Q118.5 91.45 119.75 93.9 123.15 100.45 125.4 106.5 126.25 108.85 126.75 111.3 126.8 113.6 127.4 116.25 L127.65 117.75 127.65 117.85 127.75 118.45 127.75 118.65 124.35 116.55 Q118.95 113.25 115.5 110.25 112.3 107.45 109.2 103.95 L103.95 97.7 Q101.75 95.0 99.95 91.3 L97.1 85.2 Q96.45 83.9 95.9 82.0 L95.15 78.9 95.05 77.15 102.0 72.85 102.35 72.9 M96.9 91.25 Q107.4 114.5 129.55 125.55 L129.45 126.55 128.65 126.9 Q119.95 124.45 112.85 118.0 L113.15 119.1 Q104.95 111.1 98.2 101.75 90.85 91.5 91.9 79.35 L96.9 91.25 M51.3 23.55 L51.15 20.45 Q51.15 19.45 51.4 18.4 L56.7 18.0 57.75 20.55 58.95 23.25 Q59.3 24.3 59.3 25.65 L59.0 27.65 58.65 29.5 58.75 29.85 58.5 30.2 59.0 30.25 59.4 30.35 59.55 30.3 59.9 30.35 59.8 30.15 60.45 27.8 63.6 23.9 63.15 25.1 60.9 31.8 59.9 35.05 58.8 38.4 57.9 41.75 57.05 43.75 56.4 45.25 Q56.4 45.8 56.8 46.0 L56.5 46.0 Q57.4 47.0 58.75 47.0 L61.2 46.6 61.3 47.0 61.8 48.45 63.8 51.65 65.65 54.6 66.45 55.55 Q66.3 56.1 66.3 56.8 66.3 57.95 66.75 58.8 L67.2 60.4 65.95 62.0 64.4 63.45 63.55 63.95 Q59.75 64.45 55.85 63.05 48.55 51.1 46.6 37.15 L48.6 39.05 45.65 31.05 46.1 30.2 46.85 30.55 47.9 29.15 Q50.15 28.8 51.9 30.15 53.5 31.45 54.2 30.4 L53.95 30.1 Q51.4 27.65 47.55 26.95 L46.1 22.55 51.45 27.65 51.8 27.2 Q52.05 27.2 52.3 27.0 L52.5 26.55 51.95 25.1 Q51.35 24.0 51.3 23.55 M112.75 77.65 L114.15 79.45 114.0 79.25 112.75 77.65 M44.95 27.35 L44.6 23.7 46.65 27.0 44.95 27.35 M64.45 36.25 L64.45 36.3 64.4 36.25 64.45 36.25 M38.5 73.95 L38.6 73.95 38.55 75.35 38.5 73.95 M70.85 40.1 L69.65 38.8 69.05 38.2 70.2 37.95 72.05 38.15 70.85 40.1 M71.0 61.1 L70.95 61.1 71.0 61.05 71.0 61.1 M63.15 54.75 L61.85 54.4 60.55 54.3 59.35 54.35 59.35 54.65 61.9 55.1 63.15 54.75 M69.15 59.8 L68.9 58.9 69.25 59.3 69.15 59.8 M53.25 59.2 L53.2 58.85 Q53.65 58.95 53.25 59.2 M48.05 121.5 Q47.4 121.7 47.0 122.0 L46.35 122.55 46.9 122.6 Q47.0 123.0 47.55 123.0 L49.5 122.75 50.7 122.55 Q52.55 122.55 63.15 124.8 67.95 125.9 71.55 127.8 72.3 127.8 72.3 127.15 L72.65 127.15 73.1 127.05 69.45 124.45 Q67.05 123.15 63.65 122.55 56.0 121.25 53.25 121.1 L48.05 121.5 M30.0 118.45 Q33.7 119.05 36.5 121.5 L36.25 123.9 36.0 126.3 35.1 131.0 34.25 135.85 Q33.5 138.5 32.1 140.45 29.95 143.4 27.5 145.2 26.2 146.25 23.4 147.45 22.25 147.95 19.9 148.5 L19.1 148.75 20.5 129.15 20.75 127.0 22.15 117.45 30.0 118.45 M9.65 114.05 L9.65 114.0 9.85 114.2 9.65 114.15 9.65 114.05 M26.45 150.95 L26.4 150.95 26.45 150.9 26.45 150.95 M36.3 167.85 L36.15 167.55 36.6 166.9 Q44.05 170.85 41.9 180.05 L41.2 180.05 40.95 177.7 41.1 172.8 Q41.05 172.35 40.0 171.75 L38.85 171.15 36.3 167.85 M32.65 168.95 L32.65 168.85 Q40.2 172.15 37.8 180.3 L37.35 180.2 37.15 178.4 36.75 174.2 Q36.7 173.5 35.7 173.05 L34.35 172.2 33.0 170.0 32.65 168.95 M19.4 167.3 L20.35 170.3 21.45 173.25 Q22.15 174.75 23.25 179.1 24.65 184.85 25.65 190.85 26.05 193.3 26.25 196.8 26.25 199.45 26.5 200.9 L26.25 201.75 Q25.45 204.45 23.45 206.45 L22.15 207.65 20.7 208.7 18.95 209.2 18.75 209.15 Q17.8 209.1 16.05 209.85 15.7 210.0 15.5 210.1 L14.9 209.1 13.65 206.75 Q4.0 188.15 2.1 166.8 1.7 162.5 4.65 159.05 10.75 156.2 14.9 158.6 L16.85 161.45 19.4 167.3 M77.65 182.75 L78.0 184.8 Q78.0 189.1 74.05 195.6 L71.65 199.45 71.0 199.95 Q67.95 202.4 64.55 203.85 60.8 205.55 57.95 207.35 56.4 208.4 49.8 211.5 46.65 213.0 41.55 214.65 L37.7 215.85 34.1 216.4 33.7 216.5 Q35.4 211.95 37.05 208.45 L36.75 208.5 Q44.75 190.95 61.55 179.95 66.3 176.9 71.8 177.55 73.9 177.95 75.5 179.1 75.65 180.3 77.2 182.15 L77.65 182.75 M44.2 170.1 L42.5 168.15 41.85 166.5 42.0 166.15 42.85 166.6 Q47.9 170.75 46.45 177.45 L45.55 177.4 45.45 176.3 Q45.05 174.7 45.05 172.2 L44.85 171.2 45.0 170.75 44.6 170.65 44.2 170.1 M39.65 173.55 L39.6 173.55 39.65 173.5 39.65 173.55 M99.9 139.0 L99.9 139.55 99.95 139.0 99.9 139.0 M22.85 209.1 L22.85 209.15 22.55 209.25 22.95 208.95 22.85 209.1" fill="url(#gradient1)" fill-rule="evenodd" stroke="none"/>
      <path d="M99.9 139.0 L99.95 139.0 99.9 139.55 99.9 139.0" fill="url(#gradient2)" fill-rule="evenodd" stroke="none"/>
    </g>
    <linearGradient gradientTransform="matrix(0.0232, -0.1045, 0.1268, 0.0281, 59.5, 111.6)" gradientUnits="userSpaceOnUse" id="gradient1" spreadMethod="pad" x1="-819.2" x2="819.2">
      <stop offset="0.0" stop-color="#dede00" stop-opacity="0.5019608"/>
      <stop offset="1.0" stop-color="#8f4602" stop-opacity="0.5019608"/>
    </linearGradient>
    <linearGradient gradientTransform="matrix(0.0, 0.0, 0.0, 3.0E-4, 99.9, 139.25)" gradientUnits="userSpaceOnUse" id="gradient2" spreadMethod="pad" x1="-819.2" x2="819.2">
      <stop offset="0.0" stop-color="#dede00" stop-opacity="0.5019608"/>
      <stop offset="1.0" stop-color="#8f4602" stop-opacity="0.5019608"/>
    </linearGradient>
    <g id="shape3" transform="matrix(1.0, 0.0, 0.0, 1.0, 0.0, 0.0)">
      <path d="M2.0 1.0 L1.7 1.7 1.0 2.0 Q0.6 2.0 0.3 1.7 0.0 1.4 0.0 1.0 0.0 0.6 0.3 0.3 0.6 0.0 1.0 0.0 1.4 0.0 1.7 0.3 L2.0 1.0" fill="#ff9900" fill-opacity="0.39607844" fill-rule="evenodd" stroke="none"/>
    </g>
    <g id="sprite1" transform="matrix(1.0, 0.0, 0.0, 1.0, 39.0, 39.0)">
      <use ffdec:characterId="3485" height="446.1" transform="matrix(1.0, 0.0, 0.0, 1.0, 0.0, 0.0)" width="446.1" xlink:href="#shape4"/>
    </g>
    <g id="shape4" transform="matrix(1.0, 0.0, 0.0, 1.0, 0.0, 0.0)">
      <path d="M380.75 65.3 Q446.1 130.65 446.1 223.05 446.1 315.45 380.75 380.75 315.45 446.1 223.05 446.1 130.65 446.1 65.3 380.75 0.0 315.45 0.0 223.05 0.0 130.65 65.3 65.3 130.65 0.0 223.05 0.0 315.45 0.0 380.75 65.3" fill="url(#gradient3)" fill-rule="evenodd" stroke="none"/>
    </g>
    <radialGradient cx="0" cy="0" gradientTransform="matrix(0.2747, 0.0, 0.0, 0.2747, 223.05, 223.05)" gradientUnits="userSpaceOnUse" id="gradient3" r="819.2" spreadMethod="pad">
      <stop offset="0.0" stop-color="#dd8400" stop-opacity="0.8392157"/>
      <stop offset="1.0" stop-color="#de8400" stop-opacity="0.0"/>
    </radialGradient>
    <g id="sprite2" transform="matrix(1.0, 0.0, 0.0, 1.0, 265.1, 150.0)">
      <use ffdec:characterId="3477" height="300.0" transform="matrix(1.0, 0.0, 0.0, 1.0, -265.1, -150.0)" width="533.0" xlink:href="#shape5"/>
    </g>
    <g id="shape5" transform="matrix(1.0, 0.0, 0.0, 1.0, 265.1, 150.0)">
      <path d="M267.9 -150.0 L267.9 150.0 -265.1 150.0 -265.1 -150.0 267.9 -150.0 Z" fill="none" stroke="#ff0000" stroke-linecap="round" stroke-linejoin="round" stroke-width="0.05"/>
      <path d="M1.4 -16.05 L1.45 -16.05 Q9.35 -16.05 14.95 -11.35 20.55 -6.65 20.55 0.0 L39.5 0.0 M20.55 0.0 Q20.55 6.65 14.95 11.35 9.35 16.05 1.45 16.05 L1.4 16.05 1.4 21.45 M-36.65 0.0 L-17.55 0.0 -17.55 -0.05 Q-17.55 -6.65 -11.95 -11.35 -6.4 -16.05 1.4 -16.05 M1.4 16.05 Q-6.4 16.05 -11.95 11.35 -17.55 6.65 -17.55 0.0" fill="none" stroke="#ff0000" stroke-linecap="round" stroke-linejoin="round" stroke-opacity="0.2509804" stroke-width="0.05"/>
      <path d="M1.4 -16.05 L1.4 -21.4" fill="none" stroke="#ff0000" stroke-linecap="round" stroke-linejoin="round" stroke-opacity="0.2509804" stroke-width="1.0"/>
      <path d="M181.15 141.4 L181.15 123.6 191.05 123.6 191.05 141.4 181.15 141.4" fill="#ffffff" fill-rule="evenodd" stroke="none"/>
      <path d="M250.55 123.6 L260.45 123.6 260.45 141.4 260.35 141.4 250.55 141.4 250.55 123.6" fill="#000000" fill-rule="evenodd" stroke="none"/>
      <path d="M230.7 123.6 L240.6 123.6 240.6 141.4 230.7 141.4 230.7 123.6" fill="#ff0000" fill-rule="evenodd" stroke="none"/>
      <path d="M191.05 123.6 L201.0 123.6 201.0 141.4 191.05 141.4 191.05 123.6" fill="#ffff00" fill-rule="evenodd" stroke="none"/>
      <path d="M201.0 123.6 L210.9 123.6 210.9 141.4 201.0 141.4 201.0 123.6" fill="#00ffff" fill-rule="evenodd" stroke="none"/>
      <path d="M210.9 123.6 L220.8 123.6 220.8 141.4 210.9 141.4 210.9 123.6" fill="#00ff00" fill-rule="evenodd" stroke="none"/>
      <path d="M220.8 123.6 L230.7 123.6 230.7 141.4 220.8 141.4 220.8 123.6" fill="#ff00ff" fill-rule="evenodd" stroke="none"/>
      <path d="M240.6 123.6 L250.55 123.6 250.55 141.4 240.6 141.4 240.6 123.6" fill="#0000ff" fill-rule="evenodd" stroke="none"/>
      <path d="M260.35 141.4 L260.35 145.4 181.1 145.4 181.1 141.4 181.15 141.4 191.05 141.4 201.0 141.4 210.9 141.4 220.8 141.4 230.7 141.4 240.6 141.4 250.55 141.4 260.35 141.4" fill="url(#gradient4)" fill-rule="evenodd" stroke="none"/>
    </g>
    <linearGradient gradientTransform="matrix(0.0484, 0.0, 0.0, 0.0024, 220.7, 143.35)" gradientUnits="userSpaceOnUse" id="gradient4" spreadMethod="pad" x1="-819.2" x2="819.2">
      <stop offset="0.0" stop-color="#ffffff"/>
      <stop offset="1.0" stop-color="#000000"/>
    </linearGradient>
  </defs>
</svg>
