<?xml version="1.0" encoding="UTF-8" standalone="no"?>
<svg xmlns:ffdec="https://www.free-decompiler.com/flash" xmlns:xlink="http://www.w3.org/1999/xlink" ffdec:objectType="frame" height="22.7px" width="16.6px" xmlns="http://www.w3.org/2000/svg">
  <g transform="matrix(2.0, 0.0, 0.0, 2.0, 5.1, 13.4)">
    <use ffdec:characterId="586" height="11.35" transform="matrix(1.0, 0.0, 0.0, 1.0, -2.55, -6.7)" width="7.9" xlink:href="#shape0"/>
    <filter id="filter0">
      <feFlood flood-color="#99ff66" flood-opacity="1.0" result="filterResult0"/>
      <feComposite in="filterResult0" in2="SourceGraphic" operator="out" result="filterResult1"/>
      <feConvolveMatrix divisor="25.0" in="filterResult1" kernelMatrix="1 1 1 1 1 1 1 1 1 1 1 1 1 1 1 1 1 1 1 1 1 1 1 1 1" order="5 5" result="filterResult2"/>
      <feComposite in="filterResult2" in2="SourceGraphic" operator="in" result="filterResult3"/>
      <feComposite in="filterResult3" in2="SourceGraphic" operator="over" result="filterResult4"/>
      <feColorMatrix in="filterResult4" result="filterResult5" type="matrix" values="0 0 0 0 0.0,0 0 0 0 1.0,0 0 0 0 0.0,0 0 0 1 0"/>
      <feConvolveMatrix divisor="49.0" in="filterResult5" kernelMatrix="1 1 1 1 1 1 1 1 1 1 1 1 1 1 1 1 1 1 1 1 1 1 1 1 1 1 1 1 1 1 1 1 1 1 1 1 1 1 1 1 1 1 1 1 1 1 1 1 1" order="7 7" result="filterResult6"/>
      <feComposite in="filterResult4" in2="filterResult6" operator="over" result="filterResult7"/>
    </filter>
    <use ffdec:characterId="585" filter="url(#filter0)" height="6.45" transform="matrix(1.0, 0.0, 0.0, 1.0, -2.55, -5.1)" width="8.3" xlink:href="#sprite0"/>
  </g>
  <defs>
    <g id="shape0" transform="matrix(1.0, 0.0, 0.0, 1.0, 2.55, 6.7)">
      <path d="M5.0 -1.3 L5.35 1.4 4.5 1.5 4.5 1.6 3.7 4.65 -0.6 3.7 -1.05 0.7 -1.3 0.5 -1.45 0.35 Q-2.55 -0.85 -2.55 -2.55 -2.55 -4.25 -1.45 -5.5 -0.3 -6.7 1.3 -6.7 2.9 -6.7 4.0 -5.5 5.15 -4.25 5.15 -2.55 L5.1 -1.85 5.0 -1.3" fill="url(#gradient0)" fill-rule="evenodd" stroke="none"/>
      <path d="M5.1 -1.85 L5.05 -1.6 5.0 -1.3 5.35 1.4 4.5 1.5 4.5 1.6 3.7 4.65 -0.6 3.7 -1.05 0.7 -1.3 0.5 -1.45 0.35 Q-2.55 -0.85 -2.55 -2.55 -2.55 -4.25 -1.45 -5.5 -0.3 -6.7 1.3 -6.7 2.9 -6.7 4.0 -5.5 5.15 -4.25 5.15 -2.55 L5.1 -1.85 5.0 -1.3" fill="none" stroke="#000000" stroke-linecap="round" stroke-linejoin="round" stroke-width="0.05"/>
    </g>
    <radialGradient cx="0" cy="0" gradientTransform="matrix(0.0101, 0.0, 0.0, 0.0101, 4.7, -2.65)" gradientUnits="userSpaceOnUse" id="gradient0" r="819.2" spreadMethod="pad">
      <stop offset="0.0" stop-color="#2f5135"/>
      <stop offset="0.4980392156862745" stop-color="#141f17"/>
      <stop offset="1.0" stop-color="#335539"/>
    </radialGradient>
    <g id="sprite0" transform="matrix(1.0, 0.0, 0.0, 1.0, 3.75, 7.6)">
      <use ffdec:characterId="584" height="6.45" transform="matrix(1.0, 0.0, 0.0, 1.0, -3.75, -7.6)" width="8.3" xlink:href="#shape1"/>
    </g>
    <g id="shape1" transform="matrix(1.0, 0.0, 0.0, 1.0, 3.75, 7.6)">
      <path d="M4.45 -5.2 L4.15 -4.25 4.05 -3.6 3.6 -2.65 3.5 -2.65 3.35 -2.65 2.5 -1.75 Q1.35 -0.7 -0.1 -1.5 -1.4 -2.2 -2.45 -2.15 -2.3 -2.6 -1.75 -2.6 -0.9 -2.55 -0.1 -2.1 L0.4 -1.7 Q1.5 -1.5 2.25 -2.3 L2.95 -3.05 0.45 -3.45 -1.5 -4.65 Q-2.3 -5.25 -3.3 -5.25 L-3.4 -5.2 -3.45 -5.1 -3.55 -5.0 -3.6 -4.95 -3.6 -4.85 -3.6 -4.75 -3.7 -4.7 -3.75 -4.8 -3.75 -5.0 -3.7 -5.15 -3.6 -5.45 -3.25 -5.7 Q-1.9 -5.6 -0.85 -4.75 0.2 -3.85 1.5 -3.85 L3.1 -3.55 3.05 -3.65 2.9 -4.15 2.8 -4.45 2.0 -4.85 0.45 -6.25 Q-0.95 -7.6 -2.7 -7.3 L-2.7 -7.4 -2.65 -7.45 -2.4 -7.55 -2.3 -7.55 -2.25 -7.6 -0.7 -7.35 Q0.25 -7.1 1.0 -6.4 L2.55 -5.2 2.8 -5.1 2.7 -5.7 4.55 -5.7 4.45 -5.2" fill="#ffffff" fill-rule="evenodd" stroke="none"/>
    </g>
  </defs>
</svg>
