<?xml version="1.0" encoding="UTF-8" standalone="no"?>
<svg xmlns:ffdec="https://www.free-decompiler.com/flash" xmlns:xlink="http://www.w3.org/1999/xlink" ffdec:objectType="frame" height="127.4px" width="71.6px" xmlns="http://www.w3.org/2000/svg">
  <g transform="matrix(2.0, 0.0, 0.0, 2.0, 38.7, 68.6)">
    <use ffdec:characterId="2477" height="58.9" transform="matrix(1.0, 0.0, 0.0, 1.0, -17.85, -29.5)" width="33.9" xlink:href="#shape0"/>
    <filter id="filter0">
      <feFlood flood-color="#66ffff" flood-opacity="1.0" result="filterResult0"/>
      <feComposite in="filterResult0" in2="SourceGraphic" operator="out" result="filterResult1"/>
      <feConvolveMatrix divisor="49.0" in="filterResult1" kernelMatrix="1 1 1 1 1 1 1 1 1 1 1 1 1 1 1 1 1 1 1 1 1 1 1 1 1 1 1 1 1 1 1 1 1 1 1 1 1 1 1 1 1 1 1 1 1 1 1 1 1" order="7 7" result="filterResult2"/>
      <feComposite in="filterResult2" in2="SourceGraphic" operator="in" result="filterResult3"/>
      <feComposite in="filterResult3" in2="SourceGraphic" operator="over" result="filterResult4"/>
      <feColorMatrix in="filterResult4" result="filterResult5" type="matrix" values="0 0 0 0 0.0,0 0 0 0 0.8,0 0 0 0 1.0,0 0 0 1 0"/>
      <feConvolveMatrix divisor="35.0" in="filterResult5" kernelMatrix="1 1 1 1 1 1 1 1 1 1 1 1 1 1 1 1 1 1 1 1 1 1 1 1 1 1 1 1 1 1 1 1 1 1 1" order="7 5" result="filterResult6"/>
      <feComposite in="filterResult4" in2="filterResult6" operator="over" result="filterResult7"/>
    </filter>
    <use ffdec:characterId="2476" filter="url(#filter0)" height="49.75" transform="matrix(1.0, 0.0, 0.0, 1.0, -13.2, -28.55)" width="22.85" xlink:href="#sprite0"/>
    <use ffdec:characterId="2474" height="50.65" transform="matrix(1.0, 0.0, 0.0, 1.0, -19.35, -34.3)" width="35.8" xlink:href="#shape2"/>
  </g>
  <defs>
    <g id="shape0" transform="matrix(1.0, 0.0, 0.0, 1.0, 17.85, 29.5)">
      <path d="M-3.9 19.6 L-8.0 5.75 3.95 -4.35 14.4 16.2 15.55 26.7 2.85 28.9 -3.9 19.6" fill="url(#gradient0)" fill-rule="evenodd" stroke="none"/>
      <path d="M-4.6 -15.65 Q-6.8 -13.3 -9.9 -13.3 -12.95 -13.3 -15.15 -15.65 -17.35 -17.95 -17.35 -21.15 -17.35 -24.35 -15.15 -26.7 -12.95 -29.0 -9.9 -29.0 -6.8 -29.0 -4.6 -26.7 -2.4 -24.35 -2.4 -21.15 -2.4 -17.95 -4.6 -15.65" fill="url(#gradient1)" fill-rule="evenodd" stroke="none"/>
      <path d="M-4.6 -15.65 Q-6.8 -13.3 -9.9 -13.3 -12.95 -13.3 -15.15 -15.65 -17.35 -17.95 -17.35 -21.15 -17.35 -24.35 -15.15 -26.7 -12.95 -29.0 -9.9 -29.0 -6.8 -29.0 -4.6 -26.7 -2.4 -24.35 -2.4 -21.15 -2.4 -17.95 -4.6 -15.65 M-3.9 19.6 L2.85 28.9 15.55 26.7 14.4 16.2 3.95 -4.35 -8.0 5.75 -3.9 19.6 Z" fill="none" stroke="#000000" stroke-linecap="round" stroke-linejoin="round" stroke-width="1.0"/>
    </g>
    <radialGradient cx="0" cy="0" gradientTransform="matrix(0.0347, 0.0, 0.0, 0.0347, 11.2, 23.15)" gradientUnits="userSpaceOnUse" id="gradient0" r="819.2" spreadMethod="pad">
      <stop offset="0.0" stop-color="#262626"/>
      <stop offset="1.0" stop-color="#111111"/>
    </radialGradient>
    <radialGradient cx="0" cy="0" gradientTransform="matrix(0.017, 0.0, 0.0, 0.017, -13.1, -26.15)" gradientUnits="userSpaceOnUse" id="gradient1" r="819.2" spreadMethod="pad">
      <stop offset="0.0" stop-color="#ffffff"/>
      <stop offset="0.42745098039215684" stop-color="#836549"/>
      <stop offset="0.44313725490196076" stop-color="#392d24"/>
      <stop offset="0.6980392156862745" stop-color="#7a615a"/>
      <stop offset="1.0" stop-color="#a27a77"/>
    </radialGradient>
    <g id="sprite0" transform="matrix(1.0, 0.0, 0.0, 1.0, 12.2, 24.45)">
      <use ffdec:characterId="2475" height="49.75" transform="matrix(1.0, 0.0, 0.0, 1.0, -12.2, -24.45)" width="22.85" xlink:href="#shape1"/>
    </g>
    <g id="shape1" transform="matrix(1.0, 0.0, 0.0, 1.0, 12.2, 24.45)">
      <path d="M-12.15 -12.55 L-12.15 -12.6 Q-2.6 -8.35 -1.65 -24.45 L10.65 16.65 6.6 25.3 Q2.8 16.95 -4.55 10.65 L-5.05 10.25 -9.1 7.2 Q-11.65 0.25 -12.1 -7.05 L-12.15 -12.55" fill="#ffffff" fill-rule="evenodd" stroke="none"/>
    </g>
    <g id="shape2" transform="matrix(1.0, 0.0, 0.0, 1.0, 19.35, 34.3)">
      <path d="M-14.0 -15.75 L-3.15 -24.9 -2.4 -33.8 9.55 -22.25 15.95 -0.25 11.45 15.85 7.3 6.1 2.45 3.15 -18.85 11.7 -16.3 5.75 -3.55 -5.45 -5.0 -12.2 -14.0 -15.75" fill="url(#gradient2)" fill-rule="evenodd" stroke="none"/>
      <path d="M-14.0 -15.75 L-3.15 -24.9 -2.4 -33.8 9.55 -22.25 15.95 -0.25 11.45 15.85 7.3 6.1 2.45 3.15 -18.85 11.7 -16.3 5.75 -3.55 -5.45 -5.0 -12.2 -14.0 -15.75 -14.75 -15.15" fill="none" stroke="#000000" stroke-linecap="round" stroke-linejoin="round" stroke-width="1.0"/>
    </g>
    <radialGradient cx="0" cy="0" gradientTransform="matrix(0.0471, 0.0, 0.0, 0.0471, -2.25, -20.2)" gradientUnits="userSpaceOnUse" id="gradient2" r="819.2" spreadMethod="pad">
      <stop offset="0.0" stop-color="#ffffff"/>
      <stop offset="0.43529411764705883" stop-color="#7c9aad"/>
      <stop offset="0.44313725490196076" stop-color="#58607c"/>
      <stop offset="0.6470588235294118" stop-color="#7e8aa3"/>
      <stop offset="1.0" stop-color="#c2cde7"/>
    </radialGradient>
  </defs>
</svg>
