<?xml version="1.0" encoding="UTF-8" standalone="no"?>
<svg xmlns:ffdec="https://www.free-decompiler.com/flash" xmlns:xlink="http://www.w3.org/1999/xlink" ffdec:objectType="frame" height="69.7px" width="50.7px" xmlns="http://www.w3.org/2000/svg">
  <g transform="matrix(2.0, 0.0, 0.0, 2.0, 24.3, 32.7)">
    <use ffdec:characterId="2537" height="34.85" transform="matrix(1.0, 0.0, 0.0, 1.0, -12.15, -16.35)" width="25.35" xlink:href="#sprite0"/>
  </g>
  <defs>
    <g id="sprite0" transform="matrix(1.0, 0.0, 0.0, 1.0, 12.15, 16.35)">
      <use ffdec:characterId="2536" height="34.85" transform="matrix(1.0, 0.0, 0.0, 1.0, -12.15, -16.35)" width="25.35" xlink:href="#shape0"/>
    </g>
    <g id="shape0" transform="matrix(1.0, 0.0, 0.0, 1.0, 12.15, 16.35)">
      <path d="M-3.3 -15.55 L3.05 -16.35 Q9.25 -8.0 11.9 1.15 L13.2 6.6 Q9.0 17.3 1.0 18.4 -4.3 19.45 -10.5 10.8 L-11.6 9.15 Q-13.2 -1.25 -10.1 -12.0 L-3.3 -15.55" fill="url(#gradient0)" fill-rule="evenodd" stroke="none"/>
      <path d="M-3.3 -15.55 L3.05 -16.35 Q9.25 -8.0 11.9 1.15 L13.2 6.6 Q9.0 17.3 1.0 18.4 -4.3 19.45 -10.5 10.8 L-11.6 9.15 Q-13.2 -1.25 -10.1 -12.0 L-3.3 -15.55 Z" fill="none" stroke="#000000" stroke-linecap="round" stroke-linejoin="round" stroke-width="0.05"/>
    </g>
    <radialGradient cx="0" cy="0" gradientTransform="matrix(0.0351, 0.0, 0.0, 0.0351, -3.15, -10.05)" gradientUnits="userSpaceOnUse" id="gradient0" r="819.2" spreadMethod="pad">
      <stop offset="0.0" stop-color="#597546"/>
      <stop offset="0.2549019607843137" stop-color="#263124"/>
      <stop offset="0.6235294117647059" stop-color="#0c1116"/>
      <stop offset="1.0" stop-color="#000000"/>
    </radialGradient>
  </defs>
</svg>
