<?xml version="1.0" encoding="UTF-8" standalone="no"?>
<svg xmlns:ffdec="https://www.free-decompiler.com/flash" xmlns:xlink="http://www.w3.org/1999/xlink" ffdec:objectType="frame" height="103.0px" width="1762.0px" xmlns="http://www.w3.org/2000/svg">
  <g transform="matrix(2.0, 0.0, 0.0, 2.0, 1305.9, 4.9)">
    <use ffdec:characterId="3232" height="17.1" transform="matrix(0.3341, -0.0396, 0.0961, 0.9947, 54.15, 31.9334)" width="194.5" xlink:href="#sprite0"/>
    <use ffdec:characterId="3232" height="17.1" transform="matrix(0.2966, -0.0391, 0.1054, 0.9937, 133.8758, 30.9564)" width="194.5" xlink:href="#sprite0"/>
    <use ffdec:characterId="3232" height="17.1" transform="matrix(0.6669, 0.0, 0.0, 1.0, -652.9425, -2.45)" width="194.5" xlink:href="#sprite0"/>
    <use ffdec:characterId="3232" height="17.1" transform="matrix(0.5596, -0.02, 0.0308, 0.9993, -424.4808, 15.6179)" width="194.5" xlink:href="#sprite0"/>
    <use ffdec:characterId="3232" height="17.1" transform="matrix(0.4686, -0.0329, 0.057, 0.998, -231.4187, 26.8894)" width="194.5" xlink:href="#sprite0"/>
  </g>
  <defs>
    <g id="sprite0" transform="matrix(1.0, 0.0, 0.0, 1.0, 782.45, 5.1)">
      <filter id="filter0">
        <feColorMatrix in="SourceGraphic" result="filterResult0" type="matrix" values="0 0 0 0 1.0,0 0 0 0 1.0,0 0 0 0 0.6,0 0 0 1 0"/>
        <feConvolveMatrix divisor="324.0" in="filterResult0" kernelMatrix="1 1 1 1 1 1 1 1 1 1 1 1 1 1 1 1 1 1 1 1 1 1 1 1 1 1 1 1 1 1 1 1 1 1 1 1 1 1 1 1 1 1 1 1 1 1 1 1 1 1 1 1 1 1 1 1 1 1 1 1 1 1 1 1 1 1 1 1 1 1 1 1 1 1 1 1 1 1 1 1 1 1 1 1 1 1 1 1 1 1 1 1 1 1 1 1 1 1 1 1 1 1 1 1 1 1 1 1 1 1 1 1 1 1 1 1 1 1 1 1 1 1 1 1 1 1 1 1 1 1 1 1 1 1 1 1 1 1 1 1 1 1 1 1 1 1 1 1 1 1 1 1 1 1 1 1 1 1 1 1 1 1 1 1 1 1 1 1 1 1 1 1 1 1 1 1 1 1 1 1 1 1 1 1 1 1 1 1 1 1 1 1 1 1 1 1 1 1 1 1 1 1 1 1 1 1 1 1 1 1 1 1 1 1 1 1 1 1 1 1 1 1 1 1 1 1 1 1 1 1 1 1 1 1 1 1 1 1 1 1 1 1 1 1 1 1 1 1 1 1 1 1 1 1 1 1 1 1 1 1 1 1 1 1 1 1 1 1 1 1 1 1 1 1 1 1 1 1 1 1 1 1 1 1 1 1 1 1 1 1 1 1 1 1 1 1 1 1 1 1 1 1 1 1 1 1 1 1 1 1 1 1 1 1 1 1 1 1 1 1 1 1 1 1" order="18 18" result="filterResult1"/>
        <feComposite in="SourceGraphic" in2="filterResult1" operator="over" result="filterResult2"/>
      </filter>
      <use ffdec:characterId="3231" filter="url(#filter0)" height="5.25" transform="matrix(-1.0032, -0.0568, -2.0989, 1.2786, -587.9491, 5.272)" width="182.9" xlink:href="#sprite1"/>
    </g>
    <g id="sprite1" transform="matrix(1.0, 0.0, 0.0, 1.0, 90.25, -8.95)">
      <use ffdec:characterId="3230" height="5.25" transform="matrix(1.0, 0.0, 0.0, 1.0, -90.25, 8.95)" width="182.9" xlink:href="#shape0"/>
    </g>
    <g id="shape0" transform="matrix(1.0, 0.0, 0.0, 1.0, 90.25, -8.95)">
      <path d="M48.7 13.95 L45.4 13.9 53.3 14.2 Q-2.7 13.0 -40.55 13.45 -89.45 14.0 -89.9 12.6 -91.6 10.45 -84.85 9.45 -78.15 8.45 -64.9 9.55 L-3.6 11.85 Q44.35 13.05 92.65 13.8 L48.7 13.95" fill="#ffffff" fill-rule="evenodd" stroke="none"/>
    </g>
  </defs>
</svg>
