<?xml version="1.0" encoding="UTF-8" standalone="no"?>
<svg xmlns:ffdec="https://www.free-decompiler.com/flash" xmlns:xlink="http://www.w3.org/1999/xlink" ffdec:objectType="frame" height="25.9px" width="23.1px" xmlns="http://www.w3.org/2000/svg">
  <g transform="matrix(2.0, 0.0, 0.0, 2.0, 8.0, 14.8)">
    <use ffdec:characterId="815" height="12.95" transform="matrix(1.0, 0.0, 0.0, 1.0, -4.0, -7.4)" width="11.55" xlink:href="#shape0"/>
    <filter id="filter0">
      <feFlood flood-color="#99cc33" flood-opacity="1.0" result="filterResult0"/>
      <feComposite in="filterResult0" in2="SourceGraphic" operator="out" result="filterResult1"/>
      <feConvolveMatrix divisor="25.0" in="filterResult1" kernelMatrix="1 1 1 1 1 1 1 1 1 1 1 1 1 1 1 1 1 1 1 1 1 1 1 1 1" order="5 5" result="filterResult2"/>
      <feComposite in="filterResult2" in2="SourceGraphic" operator="in" result="filterResult3"/>
      <feComposite in="filterResult3" in2="SourceGraphic" operator="over" result="filterResult4"/>
      <feColorMatrix in="filterResult4" result="filterResult5" type="matrix" values="0 0 0 0 0.0,0 0 0 0 1.0,0 0 0 0 0.0,0 0 0 1 0"/>
      <feConvolveMatrix divisor="25.0" in="filterResult5" kernelMatrix="1 1 1 1 1 1 1 1 1 1 1 1 1 1 1 1 1 1 1 1 1 1 1 1 1" order="5 5" result="filterResult6"/>
      <feComposite in="filterResult4" in2="filterResult6" operator="over" result="filterResult7"/>
    </filter>
    <use ffdec:characterId="60" filter="url(#filter0)" height="3.0" transform="matrix(1.0, 0.0, 0.0, 1.0, 2.35, -1.55)" width="3.0" xlink:href="#sprite0"/>
  </g>
  <defs>
    <g id="shape0" transform="matrix(1.0, 0.0, 0.0, 1.0, 4.0, 7.4)">
      <path d="M1.55 -1.1 L1.5 -0.45 1.5 0.8 1.0 5.55 -1.0 4.05 -1.4 1.25 -2.25 1.0 -2.85 -0.15 1.55 -1.1" fill="url(#gradient0)" fill-rule="evenodd" stroke="none"/>
      <path d="M1.5 -0.45 L1.55 -1.1 5.15 -1.9 5.0 -0.5 3.7 0.15 1.5 -0.45 3.7 0.15 5.0 -0.5 5.3 0.1 1.5 0.8 1.5 -0.45" fill="#000000" fill-rule="evenodd" stroke="none"/>
      <path d="M5.15 -1.9 L1.55 -1.1 -2.85 -0.15 -2.95 -0.15 -3.15 -0.1 -3.95 0.15 -4.0 -0.35 -3.55 -0.95 -3.8 -3.75 -2.35 -6.6 3.25 -7.4 5.8 -3.1 7.05 -3.1 7.55 -2.4 5.15 -1.9" fill="url(#gradient1)" fill-rule="evenodd" stroke="none"/>
      <path d="M1.55 -1.1 L1.5 -0.45 3.7 0.15 5.0 -0.5 5.15 -1.9 1.55 -1.1 -2.85 -0.15 -2.25 1.0 -1.4 1.25 -1.0 4.05 1.0 5.55 1.5 0.8 1.5 -0.45 M5.15 -1.9 L7.55 -2.4 7.05 -3.1 5.8 -3.1 3.25 -7.4 -2.35 -6.6 -3.8 -3.75 -3.55 -0.95 -4.0 -0.35 -3.95 0.15 -3.15 -0.1 -2.95 -0.15 -2.85 -0.15 M1.5 0.8 L5.3 0.1 5.0 -0.5" fill="none" stroke="#000000" stroke-linecap="round" stroke-linejoin="round" stroke-width="0.05"/>
    </g>
    <radialGradient cx="0" cy="0" gradientTransform="matrix(0.0068, 0.0, 0.0, 0.0068, -0.3, 4.15)" gradientUnits="userSpaceOnUse" id="gradient0" r="819.2" spreadMethod="pad">
      <stop offset="0.0" stop-color="#302925"/>
      <stop offset="1.0" stop-color="#0d0e0c"/>
    </radialGradient>
    <radialGradient cx="0" cy="0" gradientTransform="matrix(0.008, 0.0, 0.0, 0.008, 1.0, -2.5)" gradientUnits="userSpaceOnUse" id="gradient1" r="819.2" spreadMethod="pad">
      <stop offset="0.0" stop-color="#3a3946"/>
      <stop offset="0.6196078431372549" stop-color="#17171c"/>
      <stop offset="1.0" stop-color="#322323"/>
    </radialGradient>
    <g id="sprite0" transform="matrix(1.0, 0.0, 0.0, 1.0, 1.5, 1.5)">
      <use ffdec:characterId="59" height="1.3" transform="matrix(0.0046, 0.0, 0.0, 2.3077, -1.5245, -1.5116)" width="653.2" xlink:href="#shape1"/>
    </g>
    <g id="shape1" transform="matrix(1.0, 0.0, 0.0, 1.0, 277.5, 12.55)">
      <path d="M36.7 -12.55 L276.3 -12.4 Q375.7 -12.2 375.7 -11.9 375.7 -11.65 276.3 -11.45 L36.7 -11.25 -203.0 -11.45 Q-252.65 -11.55 -277.5 -11.9 -252.65 -12.3 -203.0 -12.4 L36.7 -12.55" fill="#ffffff" fill-rule="evenodd" stroke="none"/>
    </g>
  </defs>
</svg>
