<?xml version="1.0" encoding="UTF-8" standalone="no"?>
<svg xmlns:ffdec="https://www.free-decompiler.com/flash" xmlns:xlink="http://www.w3.org/1999/xlink" ffdec:objectType="frame" height="25.4px" width="25.5px" xmlns="http://www.w3.org/2000/svg">
  <g transform="matrix(2.0, 0.0, 0.0, 2.0, 17.9, 13.9)">
    <use ffdec:characterId="859" height="12.7" transform="matrix(1.0, 0.0, 0.0, 1.0, -8.95, -6.95)" width="12.75" xlink:href="#shape0"/>
    <filter id="filter0">
      <feFlood flood-color="#ffff66" flood-opacity="1.0" result="filterResult0"/>
      <feComposite in="filterResult0" in2="SourceGraphic" operator="out" result="filterResult1"/>
      <feConvolveMatrix divisor="25.0" in="filterResult1" kernelMatrix="1 1 1 1 1 1 1 1 1 1 1 1 1 1 1 1 1 1 1 1 1 1 1 1 1" order="5 5" result="filterResult2"/>
      <feComposite in="filterResult2" in2="SourceGraphic" operator="in" result="filterResult3"/>
      <feComposite in="filterResult3" in2="SourceGraphic" operator="over" result="filterResult4"/>
      <feColorMatrix in="filterResult4" result="filterResult5" type="matrix" values="0 0 0 0 1.0,0 0 0 0 0.8,0 0 0 0 0.0,0 0 0 1 0"/>
      <feConvolveMatrix divisor="25.0" in="filterResult5" kernelMatrix="1 1 1 1 1 1 1 1 1 1 1 1 1 1 1 1 1 1 1 1 1 1 1 1 1" order="5 5" result="filterResult6"/>
      <feComposite in="filterResult4" in2="filterResult6" operator="over" result="filterResult7"/>
    </filter>
    <use ffdec:characterId="858" filter="url(#filter0)" height="9.8" transform="matrix(1.0, 0.0, 0.0, 1.0, -0.65, -6.15)" width="4.45" xlink:href="#sprite0"/>
  </g>
  <defs>
    <g id="shape0" transform="matrix(1.0, 0.0, 0.0, 1.0, 8.95, 6.95)">
      <path d="M-6.4 5.1 Q-7.1 3.6 -8.0 2.9 L-8.35 1.4 Q-7.15 1.9 -6.75 3.15 L-6.7 3.15 -6.4 5.1" fill="url(#gradient0)" fill-rule="evenodd" stroke="none"/>
      <path d="M1.0 3.65 Q0.1 4.3 -0.35 5.75 -2.85 4.65 -6.3 5.45 L-6.4 5.1 -6.7 3.15 Q-3.65 2.3 -0.65 3.25 L-0.6 3.2 1.0 3.65" fill="url(#gradient1)" fill-rule="evenodd" stroke="none"/>
      <path d="M-8.35 1.4 L-8.95 0.75 Q-5.85 -9.4 2.95 -6.15 -0.2 -2.55 -0.65 3.2 L-0.65 3.25 Q-3.65 2.3 -6.7 3.15 L-6.75 3.15 Q-7.15 1.9 -8.35 1.4" fill="url(#gradient2)" fill-rule="evenodd" stroke="none"/>
      <path d="M2.95 -6.15 L3.8 -4.05 1.0 3.65 Q0.1 4.3 -0.35 5.75 -2.85 4.65 -6.3 5.45 L-6.4 5.1 Q-7.1 3.6 -8.0 2.9 L-8.35 1.4 -8.95 0.75 Q-5.85 -9.4 2.95 -6.15 -0.2 -2.55 -0.65 3.2 L-0.6 3.2 1.0 3.65 M-0.65 3.25 L-0.65 3.2 M-0.65 3.25 Q-3.65 2.3 -6.7 3.15 L-6.4 5.1 M-8.35 1.4 Q-7.15 1.9 -6.75 3.15 L-6.7 3.15" fill="none" stroke="#000000" stroke-linecap="round" stroke-linejoin="round" stroke-width="0.05"/>
    </g>
    <radialGradient cx="0" cy="0" gradientTransform="matrix(0.0031, 0.0, 0.0, 0.0031, -6.95, 3.55)" gradientUnits="userSpaceOnUse" id="gradient0" r="819.2" spreadMethod="pad">
      <stop offset="0.0" stop-color="#0e131d"/>
      <stop offset="1.0" stop-color="#06060b"/>
    </radialGradient>
    <radialGradient cx="0" cy="0" gradientTransform="matrix(0.0066, 0.0, 0.0, 0.0066, -4.35, 3.8)" gradientUnits="userSpaceOnUse" id="gradient1" r="819.2" spreadMethod="pad">
      <stop offset="0.0" stop-color="#0e131d"/>
      <stop offset="1.0" stop-color="#06060b"/>
    </radialGradient>
    <radialGradient cx="0" cy="0" gradientTransform="matrix(0.0143, 0.0, 0.0, 0.0143, -4.85, 2.1)" gradientUnits="userSpaceOnUse" id="gradient2" r="819.2" spreadMethod="pad">
      <stop offset="0.0" stop-color="#efece4"/>
      <stop offset="0.41568627450980394" stop-color="#8d662e"/>
      <stop offset="0.4666666666666667" stop-color="#422c0b"/>
      <stop offset="0.7294117647058823" stop-color="#bf8837"/>
      <stop offset="1.0" stop-color="#cba670"/>
    </radialGradient>
    <g id="sprite0" transform="matrix(1.0, 0.0, 0.0, 1.0, 2.2, 4.9)">
      <use ffdec:characterId="857" height="9.8" transform="matrix(1.0, 0.0, 0.0, 1.0, -2.2, -4.9)" width="4.45" xlink:href="#shape1"/>
    </g>
    <g id="shape1" transform="matrix(1.0, 0.0, 0.0, 1.0, 2.2, 4.9)">
      <path d="M2.25 -2.8 L-0.55 4.9 -2.15 4.45 -2.2 4.45 Q-1.75 -1.3 1.4 -4.9 L2.25 -2.8" fill="#ffffff" fill-rule="evenodd" stroke="none"/>
    </g>
  </defs>
</svg>
