<?xml version="1.0" encoding="UTF-8" standalone="no"?>
<svg xmlns:ffdec="https://www.free-decompiler.com/flash" xmlns:xlink="http://www.w3.org/1999/xlink" ffdec:objectType="frame" height="276.0px" width="248.2px" xmlns="http://www.w3.org/2000/svg">
  <g transform="matrix(2.0, 0.0, 0.0, 2.0, 167.4, 138.0)">
    <use ffdec:characterId="152" height="29.95" transform="matrix(1.0, 0.0, 0.0, 1.0, -83.7, -11.35)" width="124.1" xlink:href="#sprite0"/>
    <use ffdec:characterId="151" height="29.95" transform="matrix(1.0, 0.0, 0.0, 1.0, -83.7, -11.35)" width="124.1" xlink:href="#sprite1"/>
  </g>
  <defs>
    <g id="sprite0" transform="matrix(1.0, 0.0, 0.0, 1.0, 83.7, 11.35)">
      <use ffdec:characterId="151" height="29.95" transform="matrix(1.0, 0.0, 0.0, 1.0, -83.7, -11.35)" width="124.1" xlink:href="#sprite1"/>
    </g>
    <g id="sprite1" transform="matrix(1.0, 0.0, 0.0, 1.0, 83.7, 11.35)">
      <use ffdec:characterId="150" height="29.95" transform="matrix(1.0, 0.0, 0.0, 1.0, -83.7, -11.35)" width="124.1" xlink:href="#shape0"/>
    </g>
    <g id="shape0" transform="matrix(1.0, 0.0, 0.0, 1.0, 83.7, 11.35)">
      <path d="M40.4 -11.15 Q-8.95 37.5 -83.65 6.6 L-83.7 6.15 Q-25.2 18.9 -14.9 -8.35 L40.4 -11.35 40.4 -11.15" fill="url(#gradient0)" fill-rule="evenodd" stroke="none"/>
    </g>
    <linearGradient gradientTransform="matrix(-0.0226, 0.0405, -0.0533, -0.0297, -21.7, -2.45)" gradientUnits="userSpaceOnUse" id="gradient0" spreadMethod="pad" x1="-819.2" x2="819.2">
      <stop offset="0.0" stop-color="#ffffff" stop-opacity="0.19607843"/>
      <stop offset="1.0" stop-color="#ffffff" stop-opacity="0.0"/>
    </linearGradient>
  </defs>
</svg>
