<?xml version="1.0" encoding="UTF-8" standalone="no"?>
<svg xmlns:ffdec="https://www.free-decompiler.com/flash" xmlns:xlink="http://www.w3.org/1999/xlink" ffdec:objectType="frame" height="33.6px" width="22.5px" xmlns="http://www.w3.org/2000/svg">
  <g transform="matrix(2.0, 0.0, 0.0, 2.0, -5.8, -10.9)">
    <filter id="filter0">
      <feColorMatrix in="SourceGraphic" result="filterResult0" type="matrix" values="0 0 0 0 1.0,0 0 0 0 0.0,0 0 0 0 0.0,0 0 0 1 0"/>
      <feConvolveMatrix divisor="144.0" in="filterResult0" kernelMatrix="1 1 1 1 1 1 1 1 1 1 1 1 1 1 1 1 1 1 1 1 1 1 1 1 1 1 1 1 1 1 1 1 1 1 1 1 1 1 1 1 1 1 1 1 1 1 1 1 1 1 1 1 1 1 1 1 1 1 1 1 1 1 1 1 1 1 1 1 1 1 1 1 1 1 1 1 1 1 1 1 1 1 1 1 1 1 1 1 1 1 1 1 1 1 1 1 1 1 1 1 1 1 1 1 1 1 1 1 1 1 1 1 1 1 1 1 1 1 1 1 1 1 1 1 1 1 1 1 1 1 1 1 1 1 1 1 1 1 1 1 1 1 1 1" order="12 12" result="filterResult1"/>
      <feComposite in="SourceGraphic" in2="filterResult1" operator="over" result="filterResult2"/>
      <feConvolveMatrix divisor="441.0" in="filterResult2" kernelMatrix="1 1 1 1 1 1 1 1 1 1 1 1 1 1 1 1 1 1 1 1 1 1 1 1 1 1 1 1 1 1 1 1 1 1 1 1 1 1 1 1 1 1 1 1 1 1 1 1 1 1 1 1 1 1 1 1 1 1 1 1 1 1 1 1 1 1 1 1 1 1 1 1 1 1 1 1 1 1 1 1 1 1 1 1 1 1 1 1 1 1 1 1 1 1 1 1 1 1 1 1 1 1 1 1 1 1 1 1 1 1 1 1 1 1 1 1 1 1 1 1 1 1 1 1 1 1 1 1 1 1 1 1 1 1 1 1 1 1 1 1 1 1 1 1 1 1 1 1 1 1 1 1 1 1 1 1 1 1 1 1 1 1 1 1 1 1 1 1 1 1 1 1 1 1 1 1 1 1 1 1 1 1 1 1 1 1 1 1 1 1 1 1 1 1 1 1 1 1 1 1 1 1 1 1 1 1 1 1 1 1 1 1 1 1 1 1 1 1 1 1 1 1 1 1 1 1 1 1 1 1 1 1 1 1 1 1 1 1 1 1 1 1 1 1 1 1 1 1 1 1 1 1 1 1 1 1 1 1 1 1 1 1 1 1 1 1 1 1 1 1 1 1 1 1 1 1 1 1 1 1 1 1 1 1 1 1 1 1 1 1 1 1 1 1 1 1 1 1 1 1 1 1 1 1 1 1 1 1 1 1 1 1 1 1 1 1 1 1 1 1 1 1 1 1 1 1 1 1 1 1 1 1 1 1 1 1 1 1 1 1 1 1 1 1 1 1 1 1 1 1 1 1 1 1 1 1 1 1 1 1 1 1 1 1 1 1 1 1 1 1 1 1 1 1 1 1 1 1 1 1 1 1 1 1 1 1 1 1 1 1 1 1 1 1 1 1 1 1 1 1 1 1 1 1 1 1 1 1 1 1 1 1 1 1 1 1 1 1 1 1 1 1 1 1 1 1 1 1 1 1 1 1 1 1 1 1 1 1 1 1 1" order="21 21" result="filterResult3"/>
    </filter>
    <use ffdec:characterId="2959" filter="url(#filter0)" height="4.05" style="mix-blend-mode: hard-light" transform="matrix(-0.1927, 0.8106, -1.8478, -0.608, 14.15, 7.9)" width="17.7" xlink:href="#sprite0"/>
    <filter id="filter1">
      <feConvolveMatrix divisor="54.0" in="SourceGraphic" kernelMatrix="1 1 1 1 1 1 1 1 1 1 1 1 1 1 1 1 1 1 1 1 1 1 1 1 1 1 1 1 1 1 1 1 1 1 1 1 1 1 1 1 1 1 1 1 1 1 1 1 1 1 1 1 1 1" order="6 9" result="filterResult4"/>
    </filter>
    <use ffdec:characterId="2962" filter="url(#filter1)" height="3.1" style="mix-blend-mode: hard-light" transform="matrix(0.0, 2.4296, -2.4296, 0.0, 10.4785, 6.3785)" width="3.1" xlink:href="#sprite1"/>
    <filter id="filter2">
      <feConvolveMatrix divisor="54.0" in="SourceGraphic" kernelMatrix="1 1 1 1 1 1 1 1 1 1 1 1 1 1 1 1 1 1 1 1 1 1 1 1 1 1 1 1 1 1 1 1 1 1 1 1 1 1 1 1 1 1 1 1 1 1 1 1 1 1 1 1 1 1" order="6 9" result="filterResult5"/>
    </filter>
    <use ffdec:characterId="2962" filter="url(#filter2)" height="3.1" style="mix-blend-mode: hard-light" transform="matrix(0.0, 2.4296, -2.4296, 0.0, 10.4285, 14.3285)" width="3.1" xlink:href="#sprite1"/>
    <filter id="filter3">
      <feConvolveMatrix divisor="25.0" in="SourceGraphic" kernelMatrix="1 1 1 1 1 1 1 1 1 1 1 1 1 1 1 1 1 1 1 1 1 1 1 1 1" order="5 5" result="filterResult6"/>
    </filter>
    <use ffdec:characterId="2962" filter="url(#filter3)" height="3.1" style="mix-blend-mode: hard-light" transform="matrix(0.0, 1.0057, -1.0057, 0.0, 9.4997, 8.8997)" width="3.1" xlink:href="#sprite1"/>
    <filter id="filter4">
      <feConvolveMatrix divisor="25.0" in="SourceGraphic" kernelMatrix="1 1 1 1 1 1 1 1 1 1 1 1 1 1 1 1 1 1 1 1 1 1 1 1 1" order="5 5" result="filterResult7"/>
    </filter>
    <use ffdec:characterId="2962" filter="url(#filter4)" height="3.1" style="mix-blend-mode: hard-light" transform="matrix(0.0, 1.0057, -1.0057, 0.0, 9.0497, 16.4997)" width="3.1" xlink:href="#sprite1"/>
    <use ffdec:characterId="2962" height="3.1" style="mix-blend-mode: hard-light" transform="matrix(0.0, 0.7789, -0.7789, 0.0, 7.9111, 9.0111)" width="3.1" xlink:href="#sprite1"/>
    <use ffdec:characterId="2962" height="3.1" style="mix-blend-mode: hard-light" transform="matrix(0.0, 0.7789, -0.7789, 0.0, 8.2611, 16.2611)" width="3.1" xlink:href="#sprite1"/>
  </g>
  <defs>
    <g id="sprite0" transform="matrix(1.0, 0.0, 0.0, 1.0, 0.0, 0.0)">
      <use ffdec:characterId="2958" height="4.05" transform="matrix(1.0, 0.0, 0.0, 1.0, 0.0, 0.0)" width="17.7" xlink:href="#shape0"/>
    </g>
    <g id="shape0" transform="matrix(1.0, 0.0, 0.0, 1.0, 0.0, 0.0)">
      <path d="M17.7 0.0 L15.85 1.9 Q14.05 3.3 11.8 3.3 L8.7 3.05 8.05 2.75 Q7.2 2.75 5.85 3.4 L3.2 4.05 0.9 3.5 Q0.0 3.0 0.0 2.6 0.0 1.75 0.8 1.85 L2.4 2.1 11.5 0.95 17.7 0.0" fill="#ffffff" fill-rule="evenodd" stroke="none"/>
    </g>
    <g id="sprite1" transform="matrix(1.0, 0.0, 0.0, 1.0, 0.05, -0.05)">
      <use ffdec:characterId="59" height="1.3" transform="matrix(0.0047, 0.0, 0.0, 2.3846, -0.0669, 0.0731)" width="653.2" xlink:href="#shape1"/>
    </g>
    <g id="shape1" transform="matrix(1.0, 0.0, 0.0, 1.0, 277.5, 12.55)">
      <path d="M36.7 -12.55 L276.3 -12.4 Q375.7 -12.2 375.7 -11.9 375.7 -11.65 276.3 -11.45 L36.7 -11.25 -203.0 -11.45 Q-252.65 -11.55 -277.5 -11.9 -252.65 -12.3 -203.0 -12.4 L36.7 -12.55" fill="#ffffff" fill-rule="evenodd" stroke="none"/>
    </g>
  </defs>
</svg>
