<?xml version="1.0" encoding="UTF-8" standalone="no"?>
<svg xmlns:ffdec="https://www.free-decompiler.com/flash" xmlns:xlink="http://www.w3.org/1999/xlink" ffdec:objectType="frame" height="111.2px" width="112.0px" xmlns="http://www.w3.org/2000/svg">
  <g transform="matrix(2.0, 0.0, 0.0, 2.0, 56.0, 55.6)">
    <use ffdec:characterId="161" height="55.6" transform="matrix(1.0, 0.0, 0.0, 1.0, -28.0, -27.8)" width="56.0" xlink:href="#sprite0"/>
    <use ffdec:characterId="159" height="55.6" transform="matrix(1.0, 0.0, 0.0, 1.0, -28.0, -27.8)" width="56.0" xlink:href="#shape1"/>
  </g>
  <defs>
    <g id="sprite0" transform="matrix(1.0, 0.0, 0.0, 1.0, 28.0, 27.8)">
      <use ffdec:characterId="160" height="55.6" transform="matrix(1.0, 0.0, 0.0, 1.0, -28.0, -27.8)" width="56.0" xlink:href="#shape0"/>
    </g>
    <g id="shape0" transform="matrix(1.0, 0.0, 0.0, 1.0, 28.0, 27.8)">
      <path d="M0.0 -27.8 Q11.6 -27.8 19.8 -19.65 28.0 -11.5 28.0 0.0 28.0 11.5 19.8 19.65 11.6 27.8 0.0 27.8 -11.6 27.8 -19.8 19.65 -28.0 11.5 -28.0 0.0 -28.0 -11.5 -19.8 -19.65 -11.6 -27.8 0.0 -27.8" fill="url(#gradient0)" fill-rule="evenodd" stroke="none"/>
    </g>
    <radialGradient cx="0" cy="0" gradientTransform="matrix(0.0347, 0.0, 0.0, 0.0347, 0.0, 0.0)" gradientUnits="userSpaceOnUse" id="gradient0" r="819.2" spreadMethod="pad">
      <stop offset="0.0" stop-color="#00ff00"/>
      <stop offset="1.0" stop-color="#00ff00" stop-opacity="0.0"/>
    </radialGradient>
    <g id="shape1" transform="matrix(1.0, 0.0, 0.0, 1.0, 28.0, 27.8)">
      <path d="M19.8 -19.65 Q28.0 -11.5 28.0 0.0 28.0 11.5 19.8 19.65 11.6 27.8 0.0 27.8 -11.6 27.8 -19.8 19.65 -28.0 11.5 -28.0 0.0 -28.0 -11.5 -19.8 -19.65 -11.6 -27.8 0.0 -27.8 11.6 -27.8 19.8 -19.65" fill="url(#gradient1)" fill-rule="evenodd" stroke="none"/>
    </g>
    <radialGradient cx="0" cy="0" gradientTransform="matrix(0.0347, 0.0, 0.0, 0.0347, 0.0, 0.0)" gradientUnits="userSpaceOnUse" id="gradient1" r="819.2" spreadMethod="pad">
      <stop offset="0.0" stop-color="#ffffff" stop-opacity="0.6313726"/>
      <stop offset="0.2549019607843137" stop-color="#ffffff" stop-opacity="0.37254903"/>
      <stop offset="1.0" stop-color="#ffffff" stop-opacity="0.0"/>
    </radialGradient>
  </defs>
</svg>
