<?xml version="1.0" encoding="UTF-8" standalone="no"?>
<svg xmlns:ffdec="https://www.free-decompiler.com/flash" xmlns:xlink="http://www.w3.org/1999/xlink" ffdec:objectType="frame" height="477.1px" width="677.7px" xmlns="http://www.w3.org/2000/svg">
  <g transform="matrix(2.0, 0.0, 0.0, 2.0, 182.3, 2.6)">
    <use ffdec:characterId="258" height="210.4" transform="matrix(1.0, 0.0, 0.0, 1.0, -91.15, 26.85)" width="335.85" xlink:href="#sprite0"/>
    <use ffdec:characterId="259" height="203.6" transform="matrix(1.0, 0.0, 0.0, 1.0, -89.3, -1.3)" width="337.0" xlink:href="#sprite2"/>
  </g>
  <defs>
    <g id="sprite0" transform="matrix(1.0, 0.0, 0.0, 1.0, 91.15, 5.15)">
      <use ffdec:characterId="172" height="100.0" id="boundingBox_mc" transform="matrix(0.16, 0.0, 0.0, 1.0, 0.0, 0.0)" width="100.0" xlink:href="#sprite1"/>
    </g>
    <g id="sprite1" transform="matrix(1.0, 0.0, 0.0, 1.0, 0.0, 0.0)">
      <use ffdec:characterId="171" height="100.0" transform="matrix(1.0, 0.0, 0.0, 1.0, 0.0, 0.0)" width="100.0" xlink:href="#shape0"/>
    </g>
    <g id="shape0" transform="matrix(1.0, 0.0, 0.0, 1.0, 0.0, 0.0)">
      <path d="M100.0 100.0 L0.0 100.0 0.0 0.0 100.0 0.0 100.0 100.0" fill="#ffffff" fill-rule="evenodd" stroke="none"/>
      <path d="M100.0 100.0 L0.0 100.0 0.0 0.0 100.0 0.0 100.0 100.0 Z" fill="none" stroke="#666666" stroke-linecap="round" stroke-linejoin="round" stroke-width="0.05"/>
    </g>
    <g id="sprite2" transform="matrix(1.0, 0.0, 0.0, 1.0, 90.3, 1.3)">
      <use ffdec:characterId="172" height="100.0" id="boundingBox_mc" transform="matrix(1.0, 0.0, 0.0, 0.16, 0.0, 0.0)" width="100.0" xlink:href="#sprite1"/>
    </g>
  </defs>
</svg>
