<?xml version="1.0" encoding="UTF-8" standalone="no"?>
<svg xmlns:ffdec="https://www.free-decompiler.com/flash" xmlns:xlink="http://www.w3.org/1999/xlink" ffdec:objectType="frame" height="306.9px" width="203.9px" xmlns="http://www.w3.org/2000/svg">
  <g transform="matrix(2.0, 0.0, 0.0, 2.0, 105.4, 149.3)">
    <use ffdec:characterId="1928" height="31.0" transform="matrix(1.0, 0.0, 0.0, 1.0, -15.5, -15.5)" width="31.0" xlink:href="#shape0"/>
    <clipPath id="clipPath0" transform="matrix(1.0, 0.0, 0.0, 1.0, 0.0, 0.0)">
      <path d="M15.0 -15.0 L15.0 15.0 -15.0 15.0 -15.0 -15.0 15.0 -15.0" fill="#33cc33" fill-rule="evenodd" stroke="none"/>
      <path d="M15.0 -15.0 L15.0 15.0 -15.0 15.0 -15.0 -15.0 15.0 -15.0 Z" fill="none" stroke="#000000" stroke-linecap="round" stroke-linejoin="round" stroke-width="1.0"/>
    </clipPath>
    <g clip-path="url(#clipPath0)">
      <use ffdec:characterId="1966" height="40.5" transform="matrix(1.0, 0.0, 0.0, 1.0, -10.25, -19.8)" width="26.35" xlink:href="#shape2"/>
      <filter id="filter0">
        <feColorMatrix in="SourceGraphic" result="filterResult0" type="matrix" values="0 0 0 0 1.0,0 0 0 0 0.2,0 0 0 0 0.0,0 0 0 1 0"/>
        <feConvolveMatrix divisor="204.0" in="filterResult0" kernelMatrix="1 1 1 1 1 1 1 1 1 1 1 1 1 1 1 1 1 1 1 1 1 1 1 1 1 1 1 1 1 1 1 1 1 1 1 1 1 1 1 1 1 1 1 1 1 1 1 1 1 1 1 1 1 1 1 1 1 1 1 1 1 1 1 1 1 1 1 1 1 1 1 1 1 1 1 1 1 1 1 1 1 1 1 1 1 1 1 1 1 1 1 1 1 1 1 1 1 1 1 1 1 1 1 1 1 1 1 1 1 1 1 1 1 1 1 1 1 1 1 1 1 1 1 1 1 1 1 1 1 1 1 1 1 1 1 1 1 1 1 1 1 1 1 1 1 1 1 1 1 1 1 1 1 1 1 1 1 1 1 1 1 1 1 1 1 1 1 1 1 1 1 1 1 1 1 1 1 1 1 1 1 1 1 1 1 1 1 1 1 1 1 1 1 1 1 1 1 1 1 1 1 1 1 1" order="12 17" result="filterResult1"/>
        <feComposite in="SourceGraphic" in2="filterResult1" operator="over" result="filterResult2"/>
      </filter>
      <use ffdec:characterId="1965" filter="url(#filter0)" height="8.85" transform="matrix(1.0, 0.0, 0.0, 1.0, -2.7, -2.55)" width="6.55" xlink:href="#sprite0"/>
    </g>
    <use ffdec:characterId="1912" height="31.0" transform="matrix(1.0, 0.0, 0.0, 1.0, -15.5, -15.5)" width="31.0" xlink:href="#shape4"/>
  </g>
  <defs>
    <g id="shape0" transform="matrix(1.0, 0.0, 0.0, 1.0, 15.5, 15.5)">
      <path d="M15.0 15.0 L-15.0 15.0 -15.0 -15.0 15.0 -15.0 15.0 15.0" fill="#000000" fill-rule="evenodd" stroke="none"/>
      <path d="M15.0 15.0 L-15.0 15.0 -15.0 -15.0 15.0 -15.0 15.0 15.0 Z" fill="none" stroke="#000000" stroke-linecap="round" stroke-linejoin="round" stroke-width="1.0"/>
    </g>
    <g id="shape2" transform="matrix(1.0, 0.0, 0.0, 1.0, 10.25, 19.8)">
      <path d="M-9.15 -3.95 L-8.4 -2.95 -7.35 0.5 -9.15 -3.95 M10.95 1.9 L11.45 1.9 Q11.25 2.9 10.3 3.65 10.95 2.9 10.95 1.9" fill="url(#gradient0)" fill-rule="evenodd" stroke="none"/>
      <path d="M-9.7 -4.7 L-9.15 -3.95 -7.35 0.5 -4.1 5.45 -5.7 17.9 -0.85 19.2 3.1 7.5 7.65 4.75 Q9.0 4.75 10.0 3.95 L10.3 3.65 Q11.25 2.9 11.45 1.9 L12.35 1.75 1.85 17.75 -0.85 20.2 -6.3 19.05 -9.6 9.65 -9.7 -4.7" fill="url(#gradient1)" fill-rule="evenodd" stroke="none"/>
      <path d="M-8.4 -2.95 Q-7.1 -2.95 -5.85 -0.35 -4.6 2.25 -4.1 5.45 L-7.35 0.5 -8.4 -2.95 M3.1 7.5 Q3.1 5.2 5.4 3.55 7.7 1.9 10.95 1.9 10.95 2.9 10.3 3.65 L10.0 3.95 Q9.0 4.75 7.65 4.75 L3.1 7.5 M10.3 3.65 Q9.35 4.35 7.65 4.75 9.35 4.35 10.3 3.65" fill="#000000" fill-rule="evenodd" stroke="none"/>
      <path d="M-9.7 -4.7 Q-10.1 -10.45 -5.85 -14.6 2.15 -22.55 11.95 -17.0 17.55 -9.05 14.5 -0.05 L12.35 1.75 11.45 1.9 10.95 1.9 Q7.7 1.9 5.4 3.55 3.1 5.2 3.1 7.5 L-0.85 19.2 -5.7 17.9 -4.1 5.45 Q-4.6 2.25 -5.85 -0.35 -7.1 -2.95 -8.4 -2.95 L-9.15 -3.95 -9.7 -4.7 M2.8 4.1 Q5.65 -0.6 0.75 -2.55 -0.6 -2.35 -1.5 -1.25 -3.5 1.15 -2.15 3.95 0.05 8.6 2.8 4.1" fill="url(#gradient2)" fill-rule="evenodd" stroke="none"/>
      <path d="M12.35 1.75 L14.5 -0.05 Q17.55 -9.05 11.95 -17.0 2.15 -22.55 -5.85 -14.6 -10.1 -10.45 -9.7 -4.7 L-9.6 9.65 -6.3 19.05 -0.85 20.2 1.85 17.75 12.35 1.75 M-8.4 -2.95 Q-7.1 -2.95 -5.85 -0.35 -4.6 2.25 -4.1 5.45 L-5.7 17.9 -0.85 19.2 3.1 7.5 M10.3 3.65 Q11.25 2.9 11.45 1.9 M7.65 4.75 Q9.35 4.35 10.3 3.65 M-7.35 0.5 L-8.4 -2.95" fill="none" stroke="#000000" stroke-linecap="round" stroke-linejoin="round" stroke-width="1.0"/>
    </g>
    <radialGradient cx="0" cy="0" gradientTransform="matrix(0.0253, 0.0, 0.0, 0.0253, 2.95, 0.2)" gradientUnits="userSpaceOnUse" id="gradient0" r="819.2" spreadMethod="pad">
      <stop offset="0.09019607843137255" stop-color="#acac97"/>
      <stop offset="0.7333333333333333" stop-color="#4d4653"/>
      <stop offset="1.0" stop-color="#20263e"/>
    </radialGradient>
    <linearGradient gradientTransform="matrix(0.0031, -0.0139, 0.0137, 0.003, -1.0, 9.1)" gradientUnits="userSpaceOnUse" id="gradient1" spreadMethod="pad" x1="-819.2" x2="819.2">
      <stop offset="0.0" stop-color="#303561"/>
      <stop offset="0.4980392156862745" stop-color="#363a49"/>
      <stop offset="1.0" stop-color="#000000"/>
    </linearGradient>
    <radialGradient cx="0" cy="0" gradientTransform="matrix(0.0342, 0.0, 0.0, 0.0342, 3.5, -8.5)" gradientUnits="userSpaceOnUse" id="gradient2" r="819.2" spreadMethod="pad">
      <stop offset="0.0" stop-color="#c7c5b8"/>
      <stop offset="0.24705882352941178" stop-color="#312736"/>
      <stop offset="0.6666666666666666" stop-color="#362d27"/>
      <stop offset="1.0" stop-color="#6f4a33"/>
    </radialGradient>
    <g id="sprite0" transform="matrix(1.0, 0.0, 0.0, 1.0, 3.25, 4.4)">
      <use ffdec:characterId="1964" height="8.85" transform="matrix(1.0, 0.0, 0.0, 1.0, -3.25, -4.4)" width="6.55" xlink:href="#shape3"/>
    </g>
    <g id="shape3" transform="matrix(1.0, 0.0, 0.0, 1.0, 3.25, 4.4)">
      <path d="M0.2 -4.4 Q5.1 -2.45 2.25 2.25 -0.5 6.75 -2.7 2.1 -4.05 -0.7 -2.05 -3.1 -1.15 -4.2 0.2 -4.4" fill="#ff9900" fill-rule="evenodd" stroke="none"/>
    </g>
    <g id="shape4" transform="matrix(1.0, 0.0, 0.0, 1.0, 15.5, 15.5)">
      <path d="M15.0 15.0 L-15.0 15.0 -15.0 -15.0 15.0 -15.0 15.0 15.0 Z" fill="none" stroke="#000000" stroke-linecap="round" stroke-linejoin="round" stroke-width="1.0"/>
    </g>
  </defs>
</svg>
