<?xml version="1.0" encoding="UTF-8" standalone="no"?>
<svg xmlns:ffdec="https://www.free-decompiler.com/flash" xmlns:xlink="http://www.w3.org/1999/xlink" ffdec:objectType="frame" height="306.9px" width="203.9px" xmlns="http://www.w3.org/2000/svg">
  <g transform="matrix(2.0, 0.0, 0.0, 2.0, 105.4, 149.3)">
    <use ffdec:characterId="1928" height="31.0" transform="matrix(1.0, 0.0, 0.0, 1.0, -15.5, -15.5)" width="31.0" xlink:href="#shape0"/>
    <clipPath id="clipPath0" transform="matrix(1.0, 0.0, 0.0, 1.0, 0.0, 0.0)">
      <path d="M15.0 -15.0 L15.0 15.0 -15.0 15.0 -15.0 -15.0 15.0 -15.0" fill="#33cc33" fill-rule="evenodd" stroke="none"/>
      <path d="M15.0 -15.0 L15.0 15.0 -15.0 15.0 -15.0 -15.0 15.0 -15.0 Z" fill="none" stroke="#000000" stroke-linecap="round" stroke-linejoin="round" stroke-width="1.0"/>
    </clipPath>
    <g clip-path="url(#clipPath0)">
      <use ffdec:characterId="1406" height="5.7" transform="matrix(1.229, 0.3939, -0.3939, 1.229, -5.6883, 2.4969)" width="15.6" xlink:href="#sprite0"/>
      <use ffdec:characterId="1400" height="33.5" transform="matrix(1.238, 0.0, 0.0, 1.238, -9.0901, -33.7228)" width="13.2" xlink:href="#sprite1"/>
    </g>
    <use ffdec:characterId="1912" height="31.0" transform="matrix(1.0, 0.0, 0.0, 1.0, -15.5, -15.5)" width="31.0" xlink:href="#shape5"/>
  </g>
  <defs>
    <g id="shape0" transform="matrix(1.0, 0.0, 0.0, 1.0, 15.5, 15.5)">
      <path d="M15.0 15.0 L-15.0 15.0 -15.0 -15.0 15.0 -15.0 15.0 15.0" fill="#000000" fill-rule="evenodd" stroke="none"/>
      <path d="M15.0 15.0 L-15.0 15.0 -15.0 -15.0 15.0 -15.0 15.0 15.0 Z" fill="none" stroke="#000000" stroke-linecap="round" stroke-linejoin="round" stroke-width="1.0"/>
    </g>
    <g id="sprite0" transform="matrix(1.0, 0.0, 0.0, 1.0, 5.85, 3.05)">
      <use ffdec:characterId="1405" height="5.7" transform="matrix(1.0, 0.0, 0.0, 1.0, -5.85, -3.05)" width="15.6" xlink:href="#shape2"/>
    </g>
    <g id="shape2" transform="matrix(1.0, 0.0, 0.0, 1.0, 5.85, 3.05)">
      <path d="M-1.0 -3.05 L3.7 -2.8 5.9 -1.8 9.75 2.05 4.05 2.5 3.3 2.65 -5.7 1.1 -5.85 0.5 -5.55 -2.55 -1.0 -3.05" fill="url(#gradient0)" fill-rule="evenodd" stroke="none"/>
      <path d="M-1.0 -3.05 L3.7 -2.8 5.9 -1.8 9.75 2.05 4.05 2.5 3.3 2.65 -5.7 1.1 -5.85 0.5 -5.55 -2.55" fill="none" stroke="#000000" stroke-linecap="round" stroke-linejoin="round" stroke-width="0.05"/>
    </g>
    <radialGradient cx="0" cy="0" gradientTransform="matrix(0.0123, 0.0, 0.0, 0.0123, 4.05, -1.5)" gradientUnits="userSpaceOnUse" id="gradient0" r="819.2" spreadMethod="pad">
      <stop offset="0.0" stop-color="#491d1d"/>
      <stop offset="0.5333333333333333" stop-color="#320a0a"/>
      <stop offset="0.9019607843137255" stop-color="#723838"/>
    </radialGradient>
    <g id="sprite1" transform="matrix(1.0, 0.0, 0.0, 1.0, 6.05, 17.95)">
      <use ffdec:characterId="1399" height="33.5" transform="matrix(1.0, 0.0, 0.0, 1.0, -6.05, -17.95)" width="13.2" xlink:href="#shape3"/>
      <filter id="filter0">
        <feFlood flood-color="#ff0000" flood-opacity="1.0" result="filterResult0"/>
        <feComposite in="filterResult0" in2="SourceGraphic" operator="out" result="filterResult1"/>
        <feConvolveMatrix divisor="25.0" in="filterResult1" kernelMatrix="1 1 1 1 1 1 1 1 1 1 1 1 1 1 1 1 1 1 1 1 1 1 1 1 1" order="5 5" result="filterResult2"/>
        <feComposite in="filterResult2" in2="SourceGraphic" operator="in" result="filterResult3"/>
        <feComposite in="filterResult3" in2="SourceGraphic" operator="over" result="filterResult4"/>
        <feColorMatrix in="filterResult4" result="filterResult5" type="matrix" values="0 0 0 0 1.0,0 0 0 0 0.0,0 0 0 0 0.0,0 0 0 1 0"/>
        <feConvolveMatrix divisor="49.0" in="filterResult5" kernelMatrix="1 1 1 1 1 1 1 1 1 1 1 1 1 1 1 1 1 1 1 1 1 1 1 1 1 1 1 1 1 1 1 1 1 1 1 1 1 1 1 1 1 1 1 1 1 1 1 1 1" order="7 7" result="filterResult6"/>
        <feComposite in="filterResult4" in2="filterResult6" operator="over" result="filterResult7"/>
      </filter>
      <use ffdec:characterId="490" filter="url(#filter0)" height="14.05" transform="matrix(1.0, 0.0, 0.0, 1.0, -6.05, -8.8)" width="9.7" xlink:href="#sprite2"/>
    </g>
    <g id="shape3" transform="matrix(1.0, 0.0, 0.0, 1.0, 6.05, 17.95)">
      <path d="M4.25 1.25 L4.35 1.1 4.3 1.3 4.25 1.25 M-3.45 -16.9 L-3.55 -16.75 -3.55 -16.9 -3.45 -16.9" fill="#ffffff" fill-rule="evenodd" stroke="none"/>
      <path d="M3.45 -5.3 L3.4 -5.35 -0.25 -8.95 Q-0.75 -13.45 -3.55 -16.75 L-3.45 -16.9 Q0.4 -16.3 3.35 -17.95 4.2 -14.1 5.55 -10.15 L3.45 -5.3" fill="url(#gradient1)" fill-rule="evenodd" stroke="none"/>
      <path d="M-4.65 -8.8 Q-3.45 -7.3 -2.9 -5.45 L-2.7 -4.35 -2.65 -4.3 -0.55 -2.6 -0.4 -0.05 3.5 3.35 3.4 5.25 -0.7 1.6 -4.25 -1.6 Q-4.35 -3.05 -5.05 -4.1 L-6.05 -5.25 Q-4.95 -6.35 -4.65 -8.8" fill="url(#gradient2)" fill-rule="evenodd" stroke="none"/>
      <path d="M-0.55 -2.6 L3.65 0.8 3.5 3.35 -0.4 -0.05 -0.55 -2.6" fill="#0d0e15" fill-rule="evenodd" stroke="none"/>
      <path d="M-3.9 4.35 L-0.65 7.05 -0.45 11.9 1.1 14.7 -0.15 15.55 -3.85 12.85 -3.9 4.35" fill="url(#gradient3)" fill-rule="evenodd" stroke="none"/>
      <path d="M-0.65 7.05 L2.5 9.7 2.25 13.3 1.1 14.7 -0.45 11.9 -0.65 7.05" fill="#434d70" fill-rule="evenodd" stroke="none"/>
      <path d="M-3.55 -16.75 Q-0.75 -13.45 -0.25 -8.95 L3.4 -5.35 3.45 -5.3 Q4.45 -3.1 4.35 1.1 L4.25 1.25 3.65 0.8 -0.55 -2.6 -2.65 -4.3 -2.7 -4.35 -2.9 -5.45 Q-3.45 -7.3 -4.65 -8.8 L-4.9 -9.1 -5.85 -10.0 Q-4.1 -13.1 -3.55 -16.75" fill="url(#gradient4)" fill-rule="evenodd" stroke="none"/>
      <path d="M-5.05 -4.1 Q-4.35 -3.05 -4.25 -1.6 L-0.7 1.6 -0.5 5.35 2.8 8.7 2.65 9.75 2.5 9.7 -0.65 7.05 -3.9 4.35 -4.2 4.1 Q-4.25 2.15 -5.85 0.65 -4.85 -0.75 -5.05 -4.1" fill="url(#gradient5)" fill-rule="evenodd" stroke="none"/>
      <path d="M4.35 1.1 Q4.45 -3.1 3.45 -5.3 L5.55 -10.15 7.15 -5.85 Q5.3 -2.7 4.35 1.1 M-0.7 1.6 L3.4 5.25 3.45 5.3 2.8 8.7 -0.5 5.35 -0.7 1.6" fill="#140e0e" fill-rule="evenodd" stroke="none"/>
      <path d="M-3.55 -16.75 Q-4.1 -13.1 -5.85 -10.0 L-4.9 -9.1 -4.65 -8.8 Q-3.45 -7.3 -2.9 -5.45 L-2.7 -4.35 -2.65 -4.3 -0.55 -2.6 3.65 0.8 4.25 1.25 4.3 1.3 4.35 1.1 Q5.3 -2.7 7.15 -5.85 L5.55 -10.15 Q4.2 -14.1 3.35 -17.95 0.4 -16.3 -3.45 -16.9 L-3.55 -16.9 -3.55 -16.75 M-5.05 -4.1 Q-4.35 -3.05 -4.25 -1.6 L-0.7 1.6 3.4 5.25 3.5 3.35 3.65 0.8 M-4.65 -8.8 Q-4.95 -6.35 -6.05 -5.25 L-5.05 -4.1 Q-4.85 -0.75 -5.85 0.65 -4.25 2.15 -4.2 4.1 L-3.9 4.35 -0.65 7.05 2.5 9.7 2.6 9.8 2.65 9.75 2.8 8.7 3.45 5.3 3.4 5.25 M1.1 14.7 L2.25 13.3 2.5 9.7 M1.1 14.7 L-0.15 15.55 -3.85 12.85 -3.9 4.35" fill="none" stroke="#000000" stroke-linecap="round" stroke-linejoin="round" stroke-width="0.05"/>
    </g>
    <radialGradient cx="0" cy="0" gradientTransform="matrix(0.013, 0.0, 0.0, 0.013, 0.85, -15.65)" gradientUnits="userSpaceOnUse" id="gradient1" r="819.2" spreadMethod="pad">
      <stop offset="0.0" stop-color="#c4cbd5"/>
      <stop offset="0.40784313725490196" stop-color="#58647c"/>
      <stop offset="0.4588235294117647" stop-color="#4a5468"/>
      <stop offset="0.48627450980392156" stop-color="#6c7893"/>
      <stop offset="1.0" stop-color="#2d2637"/>
    </radialGradient>
    <radialGradient cx="0" cy="0" gradientTransform="matrix(0.012, 0.0, 0.0, 0.012, 0.7, -0.55)" gradientUnits="userSpaceOnUse" id="gradient2" r="819.2" spreadMethod="pad">
      <stop offset="0.0" stop-color="#203346"/>
      <stop offset="0.5333333333333333" stop-color="#141427"/>
      <stop offset="0.9176470588235294" stop-color="#324178"/>
    </radialGradient>
    <radialGradient cx="0" cy="0" gradientTransform="matrix(0.0097, 0.0, 0.0, 0.0097, -1.5, 11.95)" gradientUnits="userSpaceOnUse" id="gradient3" r="819.2" spreadMethod="pad">
      <stop offset="0.0" stop-color="#c4cbd5"/>
      <stop offset="0.40784313725490196" stop-color="#58647c"/>
      <stop offset="0.4588235294117647" stop-color="#4a5468"/>
      <stop offset="0.48627450980392156" stop-color="#6c7893"/>
      <stop offset="1.0" stop-color="#2d2637"/>
    </radialGradient>
    <radialGradient cx="0" cy="0" gradientTransform="matrix(0.0181, 0.0, 0.0, 0.0181, 1.6, -2.9)" gradientUnits="userSpaceOnUse" id="gradient4" r="819.2" spreadMethod="pad">
      <stop offset="0.0" stop-color="#491d1d"/>
      <stop offset="0.5333333333333333" stop-color="#320a0a"/>
      <stop offset="0.9019607843137255" stop-color="#723838"/>
    </radialGradient>
    <radialGradient cx="0" cy="0" gradientTransform="matrix(0.0111, 0.0, 0.0, 0.0111, -1.55, 4.3)" gradientUnits="userSpaceOnUse" id="gradient5" r="819.2" spreadMethod="pad">
      <stop offset="0.0" stop-color="#491d1d"/>
      <stop offset="0.5333333333333333" stop-color="#320a0a"/>
      <stop offset="0.9019607843137255" stop-color="#723838"/>
    </radialGradient>
    <g id="sprite2" transform="matrix(1.0, 0.0, 0.0, 1.0, 4.85, 7.05)">
      <use ffdec:characterId="489" height="14.05" transform="matrix(1.0, 0.0, 0.0, 1.0, -4.85, -7.05)" width="9.7" xlink:href="#shape4"/>
    </g>
    <g id="shape4" transform="matrix(1.0, 0.0, 0.0, 1.0, 4.85, 7.05)">
      <path d="M-1.5 -2.6 L-1.45 -2.55 4.85 2.55 4.6 7.0 -3.05 0.15 Q-3.15 -1.3 -3.85 -2.35 L-4.85 -3.5 Q-3.75 -4.6 -3.45 -7.05 -2.25 -5.55 -1.7 -3.7 L-1.5 -2.6" fill="#ffffff" fill-rule="evenodd" stroke="none"/>
    </g>
    <g id="shape5" transform="matrix(1.0, 0.0, 0.0, 1.0, 15.5, 15.5)">
      <path d="M15.0 15.0 L-15.0 15.0 -15.0 -15.0 15.0 -15.0 15.0 15.0 Z" fill="none" stroke="#000000" stroke-linecap="round" stroke-linejoin="round" stroke-width="1.0"/>
    </g>
  </defs>
</svg>
