<?xml version="1.0" encoding="UTF-8" standalone="no"?>
<svg xmlns:ffdec="https://www.free-decompiler.com/flash" xmlns:xlink="http://www.w3.org/1999/xlink" ffdec:objectType="frame" height="306.9px" width="203.9px" xmlns="http://www.w3.org/2000/svg">
  <g transform="matrix(2.0, 0.0, 0.0, 2.0, 105.4, 149.3)">
    <use ffdec:characterId="1928" height="31.0" transform="matrix(1.0, 0.0, 0.0, 1.0, -15.5, -15.5)" width="31.0" xlink:href="#shape0"/>
    <clipPath id="clipPath0" transform="matrix(1.0, 0.0, 0.0, 1.0, 0.0, 0.0)">
      <path d="M15.0 -15.0 L15.0 15.0 -15.0 15.0 -15.0 -15.0 15.0 -15.0" fill="#33cc33" fill-rule="evenodd" stroke="none"/>
      <path d="M15.0 -15.0 L15.0 15.0 -15.0 15.0 -15.0 -15.0 15.0 -15.0 Z" fill="none" stroke="#000000" stroke-linecap="round" stroke-linejoin="round" stroke-width="1.0"/>
    </clipPath>
    <g clip-path="url(#clipPath0)">
      <use ffdec:characterId="2023" height="5.3" transform="matrix(1.229, 0.3939, -0.3939, 1.229, -5.8459, 2.9885)" width="11.75" xlink:href="#sprite0"/>
      <use ffdec:characterId="2021" height="30.4" transform="matrix(1.238, 0.0, 0.0, 1.238, -21.3467, -30.3182)" width="29.4" xlink:href="#sprite1"/>
    </g>
    <use ffdec:characterId="1912" height="31.0" transform="matrix(1.0, 0.0, 0.0, 1.0, -15.5, -15.5)" width="31.0" xlink:href="#shape5"/>
  </g>
  <defs>
    <g id="shape0" transform="matrix(1.0, 0.0, 0.0, 1.0, 15.5, 15.5)">
      <path d="M15.0 15.0 L-15.0 15.0 -15.0 -15.0 15.0 -15.0 15.0 15.0" fill="#000000" fill-rule="evenodd" stroke="none"/>
      <path d="M15.0 15.0 L-15.0 15.0 -15.0 -15.0 15.0 -15.0 15.0 15.0 Z" fill="none" stroke="#000000" stroke-linecap="round" stroke-linejoin="round" stroke-width="1.0"/>
    </g>
    <g id="sprite0" transform="matrix(1.0, 0.0, 0.0, 1.0, 5.85, 2.65)">
      <use ffdec:characterId="2022" height="5.3" transform="matrix(1.0, 0.0, 0.0, 1.0, -5.85, -2.65)" width="11.75" xlink:href="#shape2"/>
    </g>
    <g id="shape2" transform="matrix(1.0, 0.0, 0.0, 1.0, 5.85, 2.65)">
      <path d="M5.15 2.3 L4.25 2.45 3.45 2.6 3.35 2.5 4.25 2.45 5.25 2.15 5.15 2.3 M-5.7 1.2 L-5.85 1.15 -5.85 0.65 -5.7 1.2" fill="#54451b" fill-rule="evenodd" stroke="none"/>
      <path d="M5.7 1.25 L5.85 2.0 5.9 2.2 5.15 2.3 5.25 2.15 5.7 1.25 M3.45 2.6 L2.65 2.65 3.35 2.5 3.45 2.6 M5.85 2.0 L5.25 2.15 5.85 2.0" fill="#000000" fill-rule="evenodd" stroke="none"/>
      <path d="M-1.35 -2.65 L3.0 -2.4 5.05 -1.5 5.7 1.25 5.25 2.15 4.25 2.45 3.35 2.5 2.65 2.65 -5.7 1.2 -5.85 0.65 -5.6 -2.2 -1.35 -2.65" fill="url(#gradient0)" fill-rule="evenodd" stroke="none"/>
      <path d="M-1.35 -2.65 L3.0 -2.4 5.05 -1.5 5.7 1.25 5.85 2.0 5.25 2.15 4.25 2.45 3.35 2.5 2.65 2.65 -5.7 1.2 -5.85 0.65 -5.6 -2.2" fill="none" stroke="#000000" stroke-linecap="round" stroke-linejoin="round" stroke-width="0.05"/>
    </g>
    <radialGradient cx="0" cy="0" gradientTransform="matrix(0.0102, -0.0022, 0.0029, 0.0122, 2.2, -1.4)" gradientUnits="userSpaceOnUse" id="gradient0" r="819.2" spreadMethod="pad">
      <stop offset="0.0" stop-color="#332f37"/>
      <stop offset="0.5333333333333333" stop-color="#0f0b0b"/>
      <stop offset="0.9176470588235294" stop-color="#5f4b4b"/>
    </radialGradient>
    <g id="sprite1" transform="matrix(1.0, 0.0, 0.0, 1.0, 15.95, 15.2)">
      <use ffdec:characterId="2020" height="30.4" transform="matrix(1.0, 0.0, 0.0, 1.0, -6.2, -15.2)" width="12.35" xlink:href="#shape3"/>
      <use ffdec:characterId="105" height="45.1" transform="matrix(0.0797, 0.0077, -0.0249, 0.2574, -14.8386, -10.7279)" width="355.1" xlink:href="#shape4"/>
    </g>
    <g id="shape3" transform="matrix(1.0, 0.0, 0.0, 1.0, 6.2, 15.2)">
      <path d="M6.15 -8.85 L4.65 -5.5 4.05 -4.65 4.05 -4.6 -1.8 -5.2 -1.95 -8.3 Q1.2 -7.7 6.15 -8.85 M3.3 -1.45 L3.0 -0.15 3.1 8.75 -0.75 8.3 -1.2 4.15 -1.65 -1.9 3.3 -1.45 M3.2 10.95 L3.3 12.85 0.15 14.95 -0.45 10.6 3.2 10.95" fill="url(#gradient1)" fill-rule="evenodd" stroke="none"/>
      <path d="M0.15 14.95 L-0.1 15.2 -4.9 12.5 -4.65 10.2 -0.45 10.6 0.15 14.95 M-4.45 7.9 L-3.7 0.5 -4.2 -2.45 -1.65 -1.9 -1.2 4.15 -0.75 8.3 -4.45 7.9 M-5.0 -5.95 L-6.2 -9.65 Q-3.0 -8.5 -1.95 -8.3 L-1.8 -5.2 -5.0 -5.95" fill="url(#gradient2)" fill-rule="evenodd" stroke="none"/>
      <path d="M4.05 -4.6 L3.3 -1.45 -1.65 -1.9 -4.2 -2.45 -4.6 -4.9 -5.0 -5.95 -1.8 -5.2 4.05 -4.6" fill="#feeb45" fill-rule="evenodd" stroke="none"/>
      <path d="M-4.65 10.2 L-4.45 7.9 -0.75 8.3 -0.45 10.6 -4.65 10.2" fill="url(#gradient3)" fill-rule="evenodd" stroke="none"/>
      <path d="M3.1 8.75 L3.2 10.95 -0.45 10.6 -0.75 8.3 3.1 8.75" fill="url(#gradient4)" fill-rule="evenodd" stroke="none"/>
      <path d="M2.3 -15.2 L3.85 -11.35 6.15 -8.85 Q1.2 -7.7 -1.95 -8.3 L-2.0 -14.55 Q0.3 -13.95 2.3 -15.2" fill="url(#gradient5)" fill-rule="evenodd" stroke="none"/>
      <path d="M-6.2 -9.65 L-3.1 -14.5 -3.1 -14.55 -2.75 -14.8 -2.0 -14.55 -1.95 -8.3 Q-3.0 -8.5 -6.2 -9.65" fill="url(#gradient6)" fill-rule="evenodd" stroke="none"/>
      <path d="M2.3 -15.2 L3.85 -11.35 6.15 -8.85 4.65 -5.5 4.05 -4.65 4.05 -4.6 3.3 -1.45 3.0 -0.15 3.1 8.75 3.2 10.95 3.3 12.85 M-4.9 12.5 L-4.65 10.2 -4.45 7.9 -3.7 0.5 -4.2 -2.45 -4.6 -4.9 -5.0 -5.95 -6.2 -9.65 -3.1 -14.5 -3.1 -14.55 -2.75 -14.8 M-1.95 -8.3 Q-3.0 -8.5 -6.2 -9.65 M-1.95 -8.3 Q1.2 -7.7 6.15 -8.85" fill="none" stroke="#000000" stroke-linecap="round" stroke-linejoin="round" stroke-width="0.05"/>
      <path d="M-0.45 10.6 L-4.65 10.2 M-0.45 10.6 L3.2 10.95 M-0.75 8.3 L-4.45 7.9 M3.1 8.75 L-0.75 8.3" fill="none" stroke="#000000" stroke-linecap="round" stroke-linejoin="round" stroke-width="0.05"/>
      <path d="M1.1 -7.2 L2.7 -6.75 2.85 -6.75 3.65 -7.55 3.8 -7.45 3.9 -8.3 4.2 -8.4 4.45 -7.75 4.65 -7.5 4.55 -6.8 4.55 -6.1 4.7 -5.7 Q3.15 -2.0 3.15 0.2 3.25 0.35 2.85 0.35 L2.85 0.3 2.85 0.9 2.85 1.4 2.9 2.9 2.75 5.55 2.6 5.55 2.35 1.85 2.25 0.75 Q1.45 -1.25 0.6 -4.3 L-0.3 -8.15 -0.3 -8.2 -0.3 -8.25 -0.05 -8.85 0.05 -8.65 1.1 -7.15 1.1 -7.2 M3.75 -7.05 L3.75 -7.1 3.55 -6.85 3.75 -6.95 3.75 -7.05" fill="#000000" fill-opacity="0.3019608" fill-rule="evenodd" stroke="none"/>
    </g>
    <radialGradient cx="0" cy="0" gradientTransform="matrix(0.006, 0.0, 0.0, 0.0248, 1.6, -8.65)" gradientUnits="userSpaceOnUse" id="gradient1" r="819.2" spreadMethod="pad">
      <stop offset="0.0" stop-color="#444444"/>
      <stop offset="1.0" stop-color="#000000"/>
    </radialGradient>
    <radialGradient cx="0" cy="0" gradientTransform="matrix(0.008, 0.0, 0.0, 0.0211, -5.75, -1.05)" gradientUnits="userSpaceOnUse" id="gradient2" r="819.2" spreadMethod="pad">
      <stop offset="0.0" stop-color="#444444"/>
      <stop offset="1.0" stop-color="#000000"/>
    </radialGradient>
    <radialGradient cx="0" cy="0" gradientTransform="matrix(0.008, 0.0, 0.0, 0.0211, -5.75, -1.05)" gradientUnits="userSpaceOnUse" id="gradient3" r="819.2" spreadMethod="pad">
      <stop offset="0.0" stop-color="#bfbfbf"/>
      <stop offset="1.0" stop-color="#777777"/>
    </radialGradient>
    <radialGradient cx="0" cy="0" gradientTransform="matrix(0.006, 0.0, 0.0, 0.0248, 1.6, -8.65)" gradientUnits="userSpaceOnUse" id="gradient4" r="819.2" spreadMethod="pad">
      <stop offset="0.0" stop-color="#bfbfbf"/>
      <stop offset="1.0" stop-color="#777777"/>
    </radialGradient>
    <radialGradient cx="0" cy="0" gradientTransform="matrix(0.006, 0.0, 0.0, 0.0248, 1.6, -8.65)" gradientUnits="userSpaceOnUse" id="gradient5" r="819.2" spreadMethod="pad">
      <stop offset="0.0" stop-color="#332f37"/>
      <stop offset="0.5333333333333333" stop-color="#0f0b0b"/>
      <stop offset="0.9176470588235294" stop-color="#5f4b4b"/>
    </radialGradient>
    <radialGradient cx="0" cy="0" gradientTransform="matrix(0.008, 0.0, 0.0, 0.0211, -5.75, -1.05)" gradientUnits="userSpaceOnUse" id="gradient6" r="819.2" spreadMethod="pad">
      <stop offset="0.0" stop-color="#332f37"/>
      <stop offset="0.5333333333333333" stop-color="#0f0b0b"/>
      <stop offset="0.9176470588235294" stop-color="#5f4b4b"/>
    </radialGradient>
    <g id="shape4" transform="matrix(1.0, 0.0, 0.0, 1.0, 177.55, 22.55)">
      <path d="M125.55 -15.95 Q177.55 -9.35 177.55 0.0 177.55 9.35 125.55 15.95 73.6 22.55 0.0 22.55 -73.6 22.55 -125.55 15.95 -177.55 9.35 -177.55 0.0 -177.55 -9.35 -125.55 -15.95 -73.6 -22.55 0.0 -22.55 73.6 -22.55 125.55 -15.95" fill="url(#gradient7)" fill-rule="evenodd" stroke="none"/>
    </g>
    <radialGradient cx="0" cy="0" gradientTransform="matrix(0.2204, 0.0, 0.0, 0.028, -0.05, 0.0)" gradientUnits="userSpaceOnUse" id="gradient7" r="819.2" spreadMethod="pad">
      <stop offset="0.06274509803921569" stop-color="#ffcc00"/>
      <stop offset="0.12941176470588237" stop-color="#ffcc00" stop-opacity="0.8156863"/>
      <stop offset="0.21176470588235294" stop-color="#ffcc00" stop-opacity="0.7647059"/>
      <stop offset="0.44313725490196076" stop-color="#ffcc00" stop-opacity="0.21176471"/>
      <stop offset="0.9098039215686274" stop-color="#ffcc00" stop-opacity="0.0"/>
    </radialGradient>
    <g id="shape5" transform="matrix(1.0, 0.0, 0.0, 1.0, 15.5, 15.5)">
      <path d="M15.0 15.0 L-15.0 15.0 -15.0 -15.0 15.0 -15.0 15.0 15.0 Z" fill="none" stroke="#000000" stroke-linecap="round" stroke-linejoin="round" stroke-width="1.0"/>
    </g>
  </defs>
</svg>
