<?xml version="1.0" encoding="UTF-8" standalone="no"?>
<svg xmlns:ffdec="https://www.free-decompiler.com/flash" xmlns:xlink="http://www.w3.org/1999/xlink" ffdec:objectType="frame" height="306.9px" width="203.9px" xmlns="http://www.w3.org/2000/svg">
  <g transform="matrix(2.0, 0.0, 0.0, 2.0, 105.4, 149.3)">
    <use ffdec:characterId="1928" height="31.0" transform="matrix(1.0, 0.0, 0.0, 1.0, -15.5, -15.5)" width="31.0" xlink:href="#shape0"/>
    <clipPath id="clipPath0" transform="matrix(1.0, 0.0, 0.0, 1.0, 0.0, 0.0)">
      <path d="M15.0 -15.0 L15.0 15.0 -15.0 15.0 -15.0 -15.0 15.0 -15.0" fill="#33cc33" fill-rule="evenodd" stroke="none"/>
      <path d="M15.0 -15.0 L15.0 15.0 -15.0 15.0 -15.0 -15.0 15.0 -15.0 Z" fill="none" stroke="#000000" stroke-linecap="round" stroke-linejoin="round" stroke-width="1.0"/>
    </clipPath>
    <g clip-path="url(#clipPath0)">
      <use ffdec:characterId="1480" height="5.3" transform="matrix(0.9672, -0.001, 0.001, 0.9672, -2.4607, 9.8925)" width="11.75" xlink:href="#sprite0"/>
      <use ffdec:characterId="1484" height="30.35" transform="matrix(0.8833, -0.2841, 0.2841, 0.8833, -12.4416, -12.9985)" width="12.4" xlink:href="#sprite1"/>
    </g>
    <use ffdec:characterId="1912" height="31.0" transform="matrix(1.0, 0.0, 0.0, 1.0, -15.5, -15.5)" width="31.0" xlink:href="#shape5"/>
  </g>
  <defs>
    <g id="shape0" transform="matrix(1.0, 0.0, 0.0, 1.0, 15.5, 15.5)">
      <path d="M15.0 15.0 L-15.0 15.0 -15.0 -15.0 15.0 -15.0 15.0 15.0" fill="#000000" fill-rule="evenodd" stroke="none"/>
      <path d="M15.0 15.0 L-15.0 15.0 -15.0 -15.0 15.0 -15.0 15.0 15.0 Z" fill="none" stroke="#000000" stroke-linecap="round" stroke-linejoin="round" stroke-width="1.0"/>
    </g>
    <g id="sprite0" transform="matrix(1.0, 0.0, 0.0, 1.0, 5.85, 2.65)">
      <use ffdec:characterId="1479" height="5.3" transform="matrix(1.0, 0.0, 0.0, 1.0, -5.85, -2.65)" width="11.75" xlink:href="#shape2"/>
    </g>
    <g id="shape2" transform="matrix(1.0, 0.0, 0.0, 1.0, 5.85, 2.65)">
      <path d="M5.15 2.3 L4.25 2.45 3.45 2.6 3.35 2.5 4.25 2.45 5.25 2.15 5.15 2.3 M-5.7 1.2 L-5.85 1.15 -5.85 0.65 -5.7 1.2" fill="#54451b" fill-rule="evenodd" stroke="none"/>
      <path d="M5.7 1.25 L5.85 2.0 5.9 2.2 5.15 2.3 5.25 2.15 5.7 1.25 M3.45 2.6 L2.65 2.65 3.35 2.5 3.45 2.6 M5.85 2.0 L5.25 2.15 5.85 2.0" fill="#000000" fill-rule="evenodd" stroke="none"/>
      <path d="M-1.35 -2.65 L3.0 -2.4 5.05 -1.5 5.7 1.25 5.25 2.15 4.25 2.45 3.35 2.5 2.65 2.65 -5.7 1.2 -5.85 0.65 -5.6 -2.2 -1.35 -2.65" fill="url(#gradient0)" fill-rule="evenodd" stroke="none"/>
      <path d="M-1.35 -2.65 L3.0 -2.4 5.05 -1.5 5.7 1.25 5.85 2.0 5.25 2.15 4.25 2.45 3.35 2.5 2.65 2.65 -5.7 1.2 -5.85 0.65 -5.6 -2.2" fill="none" stroke="#000000" stroke-linecap="round" stroke-linejoin="round" stroke-width="0.05"/>
    </g>
    <radialGradient cx="0" cy="0" gradientTransform="matrix(0.0102, -0.0022, 0.0029, 0.0122, 2.2, -1.4)" gradientUnits="userSpaceOnUse" id="gradient0" r="819.2" spreadMethod="pad">
      <stop offset="0.0" stop-color="#ffffff"/>
      <stop offset="0.42745098039215684" stop-color="#7c9aad"/>
      <stop offset="0.44313725490196076" stop-color="#58607c"/>
      <stop offset="0.6470588235294118" stop-color="#7e8aa3"/>
      <stop offset="1.0" stop-color="#c2cde7"/>
    </radialGradient>
    <g id="sprite1" transform="matrix(1.0, 0.0, 0.0, 1.0, 6.1, 15.15)">
      <use ffdec:characterId="1483" height="30.35" transform="matrix(1.0, 0.0, 0.0, 1.0, -6.1, -15.15)" width="12.4" xlink:href="#shape3"/>
      <filter id="filter0">
        <feColorMatrix in="SourceGraphic" result="filterResult0" type="matrix" values="0 0 0 0 1.0,0 0 0 0 0.8,0 0 0 0 0.0,0 0 0 1 0"/>
        <feConvolveMatrix divisor="25.0" in="filterResult0" kernelMatrix="1 1 1 1 1 1 1 1 1 1 1 1 1 1 1 1 1 1 1 1 1 1 1 1 1" order="5 5" result="filterResult1"/>
        <feComposite in="SourceGraphic" in2="filterResult1" operator="over" result="filterResult2"/>
      </filter>
      <use ffdec:characterId="941" filter="url(#filter0)" height="6.1" transform="matrix(1.0, 0.0, 0.0, 1.0, -6.1, -8.4)" width="12.4" xlink:href="#sprite2"/>
    </g>
    <g id="shape3" transform="matrix(1.0, 0.0, 0.0, 1.0, 6.1, 15.15)">
      <path d="M5.35 -4.6 Q4.3 -2.35 3.65 -0.1 L3.45 4.85 1.85 13.3 Q0.7 14.15 -0.05 15.2 -2.25 13.95 -4.4 13.1 -4.4 8.85 -4.55 4.75 L-4.65 0.45 -5.85 -4.1 -1.6 -2.3 Q1.0 -3.45 5.35 -4.6" fill="url(#gradient1)" fill-rule="evenodd" stroke="none"/>
      <path d="M-6.0 -7.5 L-5.9 -10.35 -4.95 -14.2 -4.95 -14.25 Q-4.55 -14.3 -4.35 -14.5 0.0 -13.55 3.7 -15.15 L6.2 -11.3 6.3 -8.4 Q-0.75 -5.65 -6.0 -7.5" fill="url(#gradient2)" fill-rule="evenodd" stroke="none"/>
      <path d="M5.35 -4.6 Q4.3 -2.35 3.65 -0.1 L3.45 4.85 1.85 13.3 Q0.7 14.15 -0.05 15.2 -2.25 13.95 -4.4 13.1 -4.4 8.85 -4.55 4.75 L-4.65 0.45 -5.85 -4.1 -6.1 -4.75 -6.05 -6.1 -6.0 -7.5 -5.9 -10.35 -4.95 -14.2 -4.95 -14.25 Q-4.55 -14.3 -4.35 -14.5 0.0 -13.55 3.7 -15.15 L6.2 -11.3 6.3 -8.4 6.3 -7.1 6.3 -5.45 5.35 -4.6 Q1.0 -3.45 -1.6 -2.3 L-5.85 -4.1 M6.3 -8.4 Q-0.75 -5.65 -6.0 -7.5" fill="none" stroke="#000000" stroke-linecap="round" stroke-linejoin="round" stroke-width="0.05"/>
    </g>
    <radialGradient cx="0" cy="0" gradientTransform="matrix(0.0151, 0.0, 0.0, 0.0151, 0.4, 2.85)" gradientUnits="userSpaceOnUse" id="gradient1" r="819.2" spreadMethod="pad">
      <stop offset="0.0" stop-color="#817d8a"/>
      <stop offset="0.3803921568627451" stop-color="#413e4a"/>
      <stop offset="0.6823529411764706" stop-color="#221f25"/>
      <stop offset="0.9725490196078431" stop-color="#8c879a"/>
    </radialGradient>
    <radialGradient cx="0" cy="0" gradientTransform="matrix(0.012, 0.0, 0.0, 0.012, 1.9, -13.4)" gradientUnits="userSpaceOnUse" id="gradient2" r="819.2" spreadMethod="pad">
      <stop offset="0.0" stop-color="#ffffff"/>
      <stop offset="0.42745098039215684" stop-color="#7c9aad"/>
      <stop offset="0.44313725490196076" stop-color="#58607c"/>
      <stop offset="0.6470588235294118" stop-color="#7e8aa3"/>
      <stop offset="1.0" stop-color="#c2cde7"/>
    </radialGradient>
    <g id="sprite2" transform="matrix(1.0, 0.0, 0.0, 1.0, 6.2, 3.05)">
      <use ffdec:characterId="940" height="6.1" transform="matrix(1.0, 0.0, 0.0, 1.0, -6.2, -3.05)" width="12.4" xlink:href="#shape4"/>
    </g>
    <g id="shape4" transform="matrix(1.0, 0.0, 0.0, 1.0, 6.2, 3.05)">
      <path d="M6.2 -1.75 L6.2 -0.1 5.25 0.75 Q0.9 1.9 -1.7 3.05 L-5.95 1.25 -6.2 0.6 -6.15 -0.75 -6.1 -2.15 Q-0.85 -0.3 6.2 -3.05 L6.2 -1.75" fill="#ffffff" fill-rule="evenodd" stroke="none"/>
    </g>
    <g id="shape5" transform="matrix(1.0, 0.0, 0.0, 1.0, 15.5, 15.5)">
      <path d="M15.0 15.0 L-15.0 15.0 -15.0 -15.0 15.0 -15.0 15.0 15.0 Z" fill="none" stroke="#000000" stroke-linecap="round" stroke-linejoin="round" stroke-width="1.0"/>
    </g>
  </defs>
</svg>
