<?xml version="1.0" encoding="UTF-8" standalone="no"?>
<svg xmlns:ffdec="https://www.free-decompiler.com/flash" xmlns:xlink="http://www.w3.org/1999/xlink" ffdec:objectType="frame" height="306.9px" width="203.9px" xmlns="http://www.w3.org/2000/svg">
  <g transform="matrix(2.0, 0.0, 0.0, 2.0, 105.4, 149.3)">
    <use ffdec:characterId="1928" height="31.0" transform="matrix(1.0, 0.0, 0.0, 1.0, -15.5, -15.5)" width="31.0" xlink:href="#shape0"/>
    <clipPath id="clipPath0" transform="matrix(1.0, 0.0, 0.0, 1.0, 0.0, 0.0)">
      <path d="M15.0 -15.0 L15.0 15.0 -15.0 15.0 -15.0 -15.0 15.0 -15.0" fill="#33cc33" fill-rule="evenodd" stroke="none"/>
      <path d="M15.0 -15.0 L15.0 15.0 -15.0 15.0 -15.0 -15.0 15.0 -15.0 Z" fill="none" stroke="#000000" stroke-linecap="round" stroke-linejoin="round" stroke-width="1.0"/>
    </clipPath>
    <g clip-path="url(#clipPath0)">
      <use ffdec:characterId="850" height="5.3" transform="matrix(0.9672, -0.001, 0.001, 0.9672, -2.4607, 9.8925)" width="11.75" xlink:href="#sprite0"/>
      <use ffdec:characterId="846" height="30.4" transform="matrix(0.8833, -0.2841, 0.2841, 0.8833, -15.2822, -12.1336)" width="13.95" xlink:href="#sprite1"/>
    </g>
    <use ffdec:characterId="1912" height="31.0" transform="matrix(1.0, 0.0, 0.0, 1.0, -15.5, -15.5)" width="31.0" xlink:href="#shape4"/>
  </g>
  <defs>
    <g id="shape0" transform="matrix(1.0, 0.0, 0.0, 1.0, 15.5, 15.5)">
      <path d="M15.0 15.0 L-15.0 15.0 -15.0 -15.0 15.0 -15.0 15.0 15.0" fill="#000000" fill-rule="evenodd" stroke="none"/>
      <path d="M15.0 15.0 L-15.0 15.0 -15.0 -15.0 15.0 -15.0 15.0 15.0 Z" fill="none" stroke="#000000" stroke-linecap="round" stroke-linejoin="round" stroke-width="1.0"/>
    </g>
    <g id="sprite0" transform="matrix(1.0, 0.0, 0.0, 1.0, 5.85, 2.65)">
      <use ffdec:characterId="681" height="5.3" transform="matrix(1.0, 0.0, 0.0, 1.0, -5.85, -2.65)" width="11.75" xlink:href="#shape2"/>
    </g>
    <g id="shape2" transform="matrix(1.0, 0.0, 0.0, 1.0, 5.85, 2.65)">
      <path d="M-5.7 1.2 L-5.85 1.15 -5.85 0.65 -5.7 1.2" fill="url(#gradient0)" fill-rule="evenodd" stroke="none"/>
      <path d="M5.85 2.0 L5.9 2.2 4.25 2.45 5.85 2.0" fill="url(#gradient1)" fill-rule="evenodd" stroke="none"/>
      <path d="M4.25 2.45 L2.65 2.65 3.35 2.5 4.25 2.45" fill="url(#gradient2)" fill-rule="evenodd" stroke="none"/>
      <path d="M-1.35 -2.65 L3.0 -2.4 5.05 -1.5 5.85 2.0 4.25 2.45 3.35 2.5 2.65 2.65 -5.7 1.2 -5.85 0.65 -5.6 -2.2 -1.35 -2.65" fill="url(#gradient3)" fill-rule="evenodd" stroke="none"/>
      <path d="M-1.35 -2.65 L3.0 -2.4 5.05 -1.5 5.85 2.0 4.25 2.45 3.35 2.5 2.65 2.65 -5.7 1.2 -5.85 0.65 -5.6 -2.2" fill="none" stroke="#000000" stroke-linecap="round" stroke-linejoin="round" stroke-width="0.05"/>
    </g>
    <radialGradient cx="0" cy="0" gradientTransform="matrix(4.0E-4, 0.0, 0.0, 4.0E-4, -5.8, 0.9)" gradientUnits="userSpaceOnUse" id="gradient0" r="819.2" spreadMethod="pad">
      <stop offset="0.0" stop-color="#5b3f2d"/>
      <stop offset="1.0" stop-color="#252016"/>
    </radialGradient>
    <radialGradient cx="0" cy="0" gradientTransform="matrix(0.001, 0.0, 0.0, 0.001, 5.05, 2.2)" gradientUnits="userSpaceOnUse" id="gradient1" r="819.2" spreadMethod="pad">
      <stop offset="0.0" stop-color="#5b3f2d"/>
      <stop offset="1.0" stop-color="#252016"/>
    </radialGradient>
    <radialGradient cx="0" cy="0" gradientTransform="matrix(0.001, 0.0, 0.0, 0.001, 3.45, 2.55)" gradientUnits="userSpaceOnUse" id="gradient2" r="819.2" spreadMethod="pad">
      <stop offset="0.0" stop-color="#5b3f2d"/>
      <stop offset="1.0" stop-color="#252016"/>
    </radialGradient>
    <radialGradient cx="0" cy="0" gradientTransform="matrix(0.0124, 0.0, 0.0, 0.0124, 4.3, 0.0)" gradientUnits="userSpaceOnUse" id="gradient3" r="819.2" spreadMethod="pad">
      <stop offset="0.0" stop-color="#ffffff"/>
      <stop offset="0.42745098039215684" stop-color="#836549"/>
      <stop offset="0.44313725490196076" stop-color="#392d24"/>
      <stop offset="0.6980392156862745" stop-color="#7a615a"/>
      <stop offset="1.0" stop-color="#a27a77"/>
    </radialGradient>
    <g id="sprite1" transform="matrix(1.0, 0.0, 0.0, 1.0, 9.3, 15.2)">
      <use ffdec:characterId="845" height="30.4" transform="matrix(1.0, 0.0, 0.0, 1.0, -9.3, -15.2)" width="13.95" xlink:href="#shape3"/>
    </g>
    <g id="shape3" transform="matrix(1.0, 0.0, 0.0, 1.0, 9.3, 15.2)">
      <path d="M-4.05 -8.5 L-3.1 -14.5 -3.1 -14.55 -2.75 -14.8 Q-0.05 -13.75 2.3 -15.2 L3.85 -11.35 4.65 -5.5 4.05 -4.65 3.0 -0.15 2.85 4.95 1.6 13.4 0.1 15.0 Q1.6 6.3 1.35 -2.9 L-0.75 -7.6 -4.05 -8.5" fill="url(#gradient4)" fill-rule="evenodd" stroke="none"/>
      <path d="M0.1 15.0 L-0.1 15.2 -3.55 13.15 -3.7 0.5 -4.6 -4.9 -4.05 -8.5 -0.75 -7.6 1.35 -2.9 Q1.6 6.3 0.1 15.0" fill="url(#gradient5)" fill-rule="evenodd" stroke="none"/>
      <path d="M-4.05 -8.5 L-3.1 -14.5 -3.1 -14.55 -2.75 -14.8 Q-0.05 -13.75 2.3 -15.2 L3.85 -11.35 4.65 -5.5 4.05 -4.65 3.0 -0.15 2.85 4.95 1.6 13.4 0.1 15.0 -0.1 15.2 -3.55 13.15 -3.7 0.5 -4.6 -4.9 -4.05 -8.5 -0.75 -7.6 1.35 -2.9 Q1.6 6.3 0.1 15.0" fill="none" stroke="#000000" stroke-linecap="round" stroke-linejoin="round" stroke-width="0.05"/>
      <path d="M-2.5 -1.4 L-8.0 -6.15 -8.85 -12.15 -6.65 -7.25 -2.35 -5.8 Q-1.5 -3.0 -2.5 -1.4" fill="url(#gradient6)" fill-rule="evenodd" stroke="none"/>
      <path d="M-2.95 9.35 L-8.45 4.6 -9.3 -1.4 -7.1 3.5 -2.8 4.95 Q-1.95 7.5 -2.95 9.35" fill="url(#gradient7)" fill-rule="evenodd" stroke="none"/>
      <path d="M-2.5 -1.4 L-8.0 -6.15 -8.85 -12.15 -6.65 -7.25 -2.35 -5.8 Q-1.5 -3.0 -2.5 -1.4" fill="none" stroke="url(#gradient8)" stroke-linecap="round" stroke-linejoin="round" stroke-width="0.05"/>
      <path d="M-2.95 9.35 L-8.45 4.6 -9.3 -1.4 -7.1 3.5 -2.8 4.95 Q-1.95 7.5 -2.95 9.35 Z" fill="none" stroke="url(#gradient9)" stroke-linecap="round" stroke-linejoin="round" stroke-width="0.05"/>
    </g>
    <radialGradient cx="0" cy="0" gradientTransform="matrix(0.0297, 0.0, 0.0, 0.0297, 2.2, -8.8)" gradientUnits="userSpaceOnUse" id="gradient4" r="819.2" spreadMethod="pad">
      <stop offset="0.0" stop-color="#ffffff"/>
      <stop offset="0.42745098039215684" stop-color="#836549"/>
      <stop offset="0.44313725490196076" stop-color="#392d24"/>
      <stop offset="0.6980392156862745" stop-color="#7a615a"/>
      <stop offset="1.0" stop-color="#a27a77"/>
    </radialGradient>
    <radialGradient cx="0" cy="0" gradientTransform="matrix(0.008, 1.0E-4, -1.0E-4, 0.0182, -4.15, 4.05)" gradientUnits="userSpaceOnUse" id="gradient5" r="819.2" spreadMethod="pad">
      <stop offset="0.0" stop-color="#313627"/>
      <stop offset="1.0" stop-color="#151515"/>
    </radialGradient>
    <radialGradient cx="0" cy="0" gradientTransform="matrix(0.0126, 0.0, 0.0, 0.0126, -8.45, -9.85)" gradientUnits="userSpaceOnUse" id="gradient6" r="819.2" spreadMethod="pad">
      <stop offset="0.0" stop-color="#ffffff"/>
      <stop offset="0.24705882352941178" stop-color="#81dff5"/>
      <stop offset="0.6470588235294118" stop-color="#a78a61"/>
      <stop offset="1.0" stop-color="#493a2e"/>
    </radialGradient>
    <radialGradient cx="0" cy="0" gradientTransform="matrix(0.0127, 0.0, 0.0, 0.0127, -8.55, 1.5)" gradientUnits="userSpaceOnUse" id="gradient7" r="819.2" spreadMethod="pad">
      <stop offset="0.0" stop-color="#ffffff"/>
      <stop offset="0.24705882352941178" stop-color="#81dff5"/>
      <stop offset="0.6470588235294118" stop-color="#a78a61"/>
      <stop offset="1.0" stop-color="#493a2e"/>
    </radialGradient>
    <linearGradient gradientTransform="matrix(0.0042, 0.0, 0.0, 0.0066, -5.4, -6.8)" gradientUnits="userSpaceOnUse" id="gradient8" spreadMethod="pad" x1="-819.2" x2="819.2">
      <stop offset="0.0" stop-color="#ffffff"/>
      <stop offset="0.1803921568627451" stop-color="#6cc1d7"/>
      <stop offset="0.47058823529411764" stop-color="#000000"/>
    </linearGradient>
    <linearGradient gradientTransform="matrix(0.0042, 0.0, 0.0, 0.0066, -5.85, 3.95)" gradientUnits="userSpaceOnUse" id="gradient9" spreadMethod="pad" x1="-819.2" x2="819.2">
      <stop offset="0.0" stop-color="#ffffff"/>
      <stop offset="0.1803921568627451" stop-color="#6cc1d7"/>
      <stop offset="0.47058823529411764" stop-color="#000000"/>
    </linearGradient>
    <g id="shape4" transform="matrix(1.0, 0.0, 0.0, 1.0, 15.5, 15.5)">
      <path d="M15.0 15.0 L-15.0 15.0 -15.0 -15.0 15.0 -15.0 15.0 15.0 Z" fill="none" stroke="#000000" stroke-linecap="round" stroke-linejoin="round" stroke-width="1.0"/>
    </g>
  </defs>
</svg>
