<?xml version="1.0" encoding="UTF-8" standalone="no"?>
<svg xmlns:ffdec="https://www.free-decompiler.com/flash" xmlns:xlink="http://www.w3.org/1999/xlink" ffdec:objectType="frame" height="306.9px" width="203.9px" xmlns="http://www.w3.org/2000/svg">
  <g transform="matrix(2.0, 0.0, 0.0, 2.0, 105.4, 149.3)">
    <use ffdec:characterId="1928" height="31.0" transform="matrix(1.0, 0.0, 0.0, 1.0, -15.5, -15.5)" width="31.0" xlink:href="#shape0"/>
    <clipPath id="clipPath0" transform="matrix(1.0, 0.0, 0.0, 1.0, 0.0, 0.0)">
      <path d="M15.0 -15.0 L15.0 15.0 -15.0 15.0 -15.0 -15.0 15.0 -15.0" fill="#33cc33" fill-rule="evenodd" stroke="none"/>
      <path d="M15.0 -15.0 L15.0 15.0 -15.0 15.0 -15.0 -15.0 15.0 -15.0 Z" fill="none" stroke="#000000" stroke-linecap="round" stroke-linejoin="round" stroke-width="1.0"/>
    </clipPath>
    <g clip-path="url(#clipPath0)">
      <use ffdec:characterId="1803" height="5.3" transform="matrix(0.9672, -0.001, 0.001, 0.9672, -2.4607, 9.8925)" width="11.75" xlink:href="#sprite0"/>
      <use ffdec:characterId="1798" height="29.5" transform="matrix(0.8833, -0.2841, 0.2841, 0.8833, -14.0456, -12.5313)" width="13.95" xlink:href="#sprite1"/>
    </g>
    <use ffdec:characterId="1912" height="31.0" transform="matrix(1.0, 0.0, 0.0, 1.0, -15.5, -15.5)" width="31.0" xlink:href="#shape4"/>
  </g>
  <defs>
    <g id="shape0" transform="matrix(1.0, 0.0, 0.0, 1.0, 15.5, 15.5)">
      <path d="M15.0 15.0 L-15.0 15.0 -15.0 -15.0 15.0 -15.0 15.0 15.0" fill="#000000" fill-rule="evenodd" stroke="none"/>
      <path d="M15.0 15.0 L-15.0 15.0 -15.0 -15.0 15.0 -15.0 15.0 15.0 Z" fill="none" stroke="#000000" stroke-linecap="round" stroke-linejoin="round" stroke-width="1.0"/>
    </g>
    <g id="sprite0" transform="matrix(1.0, 0.0, 0.0, 1.0, 5.85, 2.65)">
      <use ffdec:characterId="1802" height="5.3" transform="matrix(1.0, 0.0, 0.0, 1.0, -5.85, -2.65)" width="11.75" xlink:href="#shape2"/>
    </g>
    <g id="shape2" transform="matrix(1.0, 0.0, 0.0, 1.0, 5.85, 2.65)">
      <path d="M5.15 2.3 L4.25 2.45 3.45 2.6 3.35 2.5 4.25 2.45 5.25 2.15 5.15 2.3 M-5.7 1.2 L-5.85 1.15 -5.85 0.65 -5.7 1.2" fill="#54451b" fill-rule="evenodd" stroke="none"/>
      <path d="M5.7 1.25 L5.85 2.0 5.9 2.2 5.15 2.3 5.25 2.15 5.7 1.25 M3.45 2.6 L2.65 2.65 3.35 2.5 3.45 2.6 M5.85 2.0 L5.25 2.15 5.85 2.0" fill="#000000" fill-rule="evenodd" stroke="none"/>
      <path d="M-1.35 -2.65 L3.0 -2.4 5.05 -1.5 5.7 1.25 5.25 2.15 4.25 2.45 3.35 2.5 2.65 2.65 -5.7 1.2 -5.85 0.65 -5.6 -2.2 -1.35 -2.65" fill="url(#gradient0)" fill-rule="evenodd" stroke="none"/>
      <path d="M-1.35 -2.65 L3.0 -2.4 5.05 -1.5 5.7 1.25 5.85 2.0 5.25 2.15 4.25 2.45 3.35 2.5 2.65 2.65 -5.7 1.2 -5.85 0.65 -5.6 -2.2" fill="none" stroke="#000000" stroke-linecap="round" stroke-linejoin="round" stroke-width="0.05"/>
    </g>
    <radialGradient cx="0" cy="0" gradientTransform="matrix(0.0102, -0.0022, 0.0029, 0.0122, 2.2, -1.4)" gradientUnits="userSpaceOnUse" id="gradient0" r="819.2" spreadMethod="pad">
      <stop offset="0.0" stop-color="#404040"/>
      <stop offset="0.6196078431372549" stop-color="#1e1e1e"/>
      <stop offset="1.0" stop-color="#333333"/>
    </radialGradient>
    <g id="sprite1" transform="matrix(1.0, 0.0, 0.0, 1.0, 7.9, 15.2)">
      <use ffdec:characterId="1797" height="29.5" transform="matrix(1.0, 0.0, 0.0, 1.0, -7.9, -15.2)" width="13.95" xlink:href="#shape3"/>
    </g>
    <g id="shape3" transform="matrix(1.0, 0.0, 0.0, 1.0, 7.9, 15.2)">
      <path d="M2.3 -15.2 L3.85 -11.35 4.65 -5.5 4.5 -5.35 Q2.95 3.0 6.05 13.6 -1.4 15.45 -7.9 12.45 -3.8 4.1 -4.6 -4.9 L-3.1 -14.5 -3.1 -14.55 -2.75 -14.8 -2.0 -14.55 Q0.3 -13.95 2.3 -15.2" fill="url(#gradient1)" fill-rule="evenodd" stroke="none"/>
      <path d="M2.3 -15.2 L3.85 -11.35 4.65 -5.5 4.5 -5.35 M-4.6 -4.9 L-3.1 -14.5 -3.1 -14.55 -2.75 -14.8" fill="none" stroke="#000000" stroke-linecap="round" stroke-linejoin="round" stroke-width="0.05"/>
      <path d="M4.5 -5.35 Q2.95 3.0 6.05 13.6 -1.4 15.45 -7.9 12.45 -3.8 4.1 -4.6 -4.9" fill="none" stroke="#000000" stroke-linecap="round" stroke-linejoin="round" stroke-width="0.05"/>
    </g>
    <linearGradient gradientTransform="matrix(-9.0E-4, -0.0179, 0.0085, -4.0E-4, -1.55, -0.25)" gradientUnits="userSpaceOnUse" id="gradient1" spreadMethod="pad" x1="-819.2" x2="819.2">
      <stop offset="0.0" stop-color="#e98bf3"/>
      <stop offset="1.0" stop-color="#ffffff"/>
    </linearGradient>
    <g id="shape4" transform="matrix(1.0, 0.0, 0.0, 1.0, 15.5, 15.5)">
      <path d="M15.0 15.0 L-15.0 15.0 -15.0 -15.0 15.0 -15.0 15.0 15.0 Z" fill="none" stroke="#000000" stroke-linecap="round" stroke-linejoin="round" stroke-width="1.0"/>
    </g>
  </defs>
</svg>
