<?xml version="1.0" encoding="UTF-8" standalone="no"?>
<svg xmlns:ffdec="https://www.free-decompiler.com/flash" xmlns:xlink="http://www.w3.org/1999/xlink" ffdec:objectType="frame" height="306.9px" width="203.9px" xmlns="http://www.w3.org/2000/svg">
  <g transform="matrix(2.0, 0.0, 0.0, 2.0, 105.4, 149.3)">
    <use ffdec:characterId="1928" height="31.0" transform="matrix(1.0, 0.0, 0.0, 1.0, -15.5, -15.5)" width="31.0" xlink:href="#shape0"/>
    <clipPath id="clipPath0" transform="matrix(1.0, 0.0, 0.0, 1.0, 0.0, 0.0)">
      <path d="M15.0 -15.0 L15.0 15.0 -15.0 15.0 -15.0 -15.0 15.0 -15.0" fill="#33cc33" fill-rule="evenodd" stroke="none"/>
      <path d="M15.0 -15.0 L15.0 15.0 -15.0 15.0 -15.0 -15.0 15.0 -15.0 Z" fill="none" stroke="#000000" stroke-linecap="round" stroke-linejoin="round" stroke-width="1.0"/>
    </clipPath>
    <g clip-path="url(#clipPath0)">
      <use ffdec:characterId="733" height="5.7" transform="matrix(0.9672, -0.001, 0.001, 0.9672, -2.4611, 9.5056)" width="15.6" xlink:href="#sprite0"/>
      <use ffdec:characterId="727" height="33.5" transform="matrix(0.8833, -0.2841, 0.2841, 0.8833, -13.1928, -15.4858)" width="13.2" xlink:href="#sprite1"/>
    </g>
    <use ffdec:characterId="1912" height="31.0" transform="matrix(1.0, 0.0, 0.0, 1.0, -15.5, -15.5)" width="31.0" xlink:href="#shape4"/>
  </g>
  <defs>
    <g id="shape0" transform="matrix(1.0, 0.0, 0.0, 1.0, 15.5, 15.5)">
      <path d="M15.0 15.0 L-15.0 15.0 -15.0 -15.0 15.0 -15.0 15.0 15.0" fill="#000000" fill-rule="evenodd" stroke="none"/>
      <path d="M15.0 15.0 L-15.0 15.0 -15.0 -15.0 15.0 -15.0 15.0 15.0 Z" fill="none" stroke="#000000" stroke-linecap="round" stroke-linejoin="round" stroke-width="1.0"/>
    </g>
    <g id="sprite0" transform="matrix(1.0, 0.0, 0.0, 1.0, 5.85, 3.05)">
      <use ffdec:characterId="732" height="5.7" transform="matrix(1.0, 0.0, 0.0, 1.0, -5.85, -3.05)" width="15.6" xlink:href="#shape2"/>
    </g>
    <g id="shape2" transform="matrix(1.0, 0.0, 0.0, 1.0, 5.85, 3.05)">
      <path d="M-1.0 -3.05 L3.7 -2.8 5.9 -1.8 9.75 2.05 4.05 2.5 3.3 2.65 -5.7 1.1 -5.85 0.5 -5.55 -2.55 -1.0 -3.05" fill="url(#gradient0)" fill-rule="evenodd" stroke="none"/>
      <path d="M-1.0 -3.05 L3.7 -2.8 5.9 -1.8 9.75 2.05 4.05 2.5 3.3 2.65 -5.7 1.1 -5.85 0.5 -5.55 -2.55" fill="none" stroke="#000000" stroke-linecap="round" stroke-linejoin="round" stroke-width="0.05"/>
    </g>
    <radialGradient cx="0" cy="0" gradientTransform="matrix(0.0123, 0.0, 0.0, 0.0123, 4.05, -1.5)" gradientUnits="userSpaceOnUse" id="gradient0" r="819.2" spreadMethod="pad">
      <stop offset="0.0" stop-color="#2f332b"/>
      <stop offset="1.0" stop-color="#0d0b0f"/>
    </radialGradient>
    <g id="sprite1" transform="matrix(1.0, 0.0, 0.0, 1.0, 6.05, 17.95)">
      <use ffdec:characterId="726" height="33.5" transform="matrix(1.0, 0.0, 0.0, 1.0, -6.05, -17.95)" width="13.2" xlink:href="#shape3"/>
    </g>
    <g id="shape3" transform="matrix(1.0, 0.0, 0.0, 1.0, 6.05, 17.95)">
      <path d="M2.85 4.1 Q2.0 8.55 2.25 13.3 L1.1 14.7 -0.15 15.55 -3.85 12.85 Q-2.95 6.0 -3.9 -1.4 L2.85 4.1" fill="url(#gradient1)" fill-rule="evenodd" stroke="none"/>
      <path d="M2.85 4.1 Q2.0 8.55 2.25 13.3 L1.1 14.7 -0.15 15.55 -3.85 12.85 Q-2.95 6.0 -3.9 -1.4" fill="none" stroke="#000000" stroke-linecap="round" stroke-linejoin="round" stroke-width="0.05"/>
      <path d="M4.35 1.1 L4.3 1.3 4.25 1.25 4.35 1.1 M-3.55 -16.75 L-3.55 -16.9 -3.45 -16.9 -3.55 -16.75" fill="#ffffff" fill-rule="evenodd" stroke="none"/>
      <path d="M5.55 -10.15 L7.15 -5.85 Q5.3 -2.7 4.35 1.1 4.45 -3.1 3.45 -5.3 L5.55 -10.15" fill="#140e0e" fill-rule="evenodd" stroke="none"/>
      <path d="M4.25 1.25 L3.65 0.8 -2.65 -4.3 -2.7 -4.35 -2.9 -5.45 Q-3.45 -7.3 -4.65 -8.8 L-4.9 -9.1 -5.85 -10.0 Q-4.1 -13.1 -3.55 -16.75 -0.75 -13.45 -0.25 -8.95 L3.4 -5.35 3.45 -5.3 Q4.45 -3.1 4.35 1.1 L4.25 1.25" fill="url(#gradient2)" fill-rule="evenodd" stroke="none"/>
      <path d="M-3.45 -16.9 Q0.4 -16.3 3.35 -17.95 4.2 -14.1 5.55 -10.15 L3.45 -5.3 3.4 -5.35 -0.25 -8.95 Q-0.75 -13.45 -3.55 -16.75 L-3.45 -16.9" fill="url(#gradient3)" fill-rule="evenodd" stroke="none"/>
      <path d="M3.65 0.8 L3.4 5.25 -4.25 -1.6 Q-4.35 -3.05 -5.05 -4.1 L-6.05 -5.25 Q-4.95 -6.35 -4.65 -8.8 -3.45 -7.3 -2.9 -5.45 L-2.7 -4.35 -2.65 -4.3 3.65 0.8" fill="url(#gradient4)" fill-rule="evenodd" stroke="none"/>
      <path d="M5.55 -10.15 L7.15 -5.85 Q5.3 -2.7 4.35 1.1 L4.3 1.3 4.25 1.25 3.65 0.8 3.4 5.25 -4.25 -1.6 Q-4.35 -3.05 -5.05 -4.1 L-6.05 -5.25 Q-4.95 -6.35 -4.65 -8.8 L-4.9 -9.1 -5.85 -10.0 Q-4.1 -13.1 -3.55 -16.75 L-3.55 -16.9 -3.45 -16.9 Q0.4 -16.3 3.35 -17.95 4.2 -14.1 5.55 -10.15 M3.65 0.8 L-2.65 -4.3 -2.7 -4.35 -2.9 -5.45 Q-3.45 -7.3 -4.65 -8.8" fill="none" stroke="#000000" stroke-linecap="round" stroke-linejoin="round" stroke-width="0.05"/>
    </g>
    <radialGradient cx="0" cy="0" gradientTransform="matrix(0.0086, 0.0, 0.0, 0.0086, -2.1, 8.75)" gradientUnits="userSpaceOnUse" id="gradient1" r="819.2" spreadMethod="pad">
      <stop offset="0.0" stop-color="#332d2b"/>
      <stop offset="1.0" stop-color="#0d0d0d"/>
    </radialGradient>
    <radialGradient cx="0" cy="0" gradientTransform="matrix(0.0181, 0.0, 0.0, 0.0181, 1.6, -2.9)" gradientUnits="userSpaceOnUse" id="gradient2" r="819.2" spreadMethod="pad">
      <stop offset="0.0" stop-color="#3c3c66"/>
      <stop offset="0.5372549019607843" stop-color="#152337"/>
      <stop offset="1.0" stop-color="#34543d"/>
    </radialGradient>
    <radialGradient cx="0" cy="0" gradientTransform="matrix(0.013, 0.0, 0.0, 0.013, 0.85, -15.65)" gradientUnits="userSpaceOnUse" id="gradient3" r="819.2" spreadMethod="pad">
      <stop offset="0.0" stop-color="#efece4"/>
      <stop offset="0.44313725490196076" stop-color="#756646"/>
      <stop offset="0.4666666666666667" stop-color="#2e281f"/>
      <stop offset="0.7294117647058823" stop-color="#8b7b6b"/>
      <stop offset="1.0" stop-color="#a79e94"/>
    </radialGradient>
    <radialGradient cx="0" cy="0" gradientTransform="matrix(-0.0035, 0.0079, -0.0106, -0.0047, -1.0, 0.0)" gradientUnits="userSpaceOnUse" id="gradient4" r="819.2" spreadMethod="pad">
      <stop offset="0.0" stop-color="#2f332b"/>
      <stop offset="1.0" stop-color="#0d0b0f"/>
    </radialGradient>
    <g id="shape4" transform="matrix(1.0, 0.0, 0.0, 1.0, 15.5, 15.5)">
      <path d="M15.0 15.0 L-15.0 15.0 -15.0 -15.0 15.0 -15.0 15.0 15.0 Z" fill="none" stroke="#000000" stroke-linecap="round" stroke-linejoin="round" stroke-width="1.0"/>
    </g>
  </defs>
</svg>
