<?xml version="1.0" encoding="UTF-8" standalone="no"?>
<svg xmlns:ffdec="https://www.free-decompiler.com/flash" xmlns:xlink="http://www.w3.org/1999/xlink" ffdec:objectType="frame" height="306.9px" width="203.9px" xmlns="http://www.w3.org/2000/svg">
  <g transform="matrix(2.0, 0.0, 0.0, 2.0, 105.4, 149.3)">
    <use ffdec:characterId="1928" height="31.0" transform="matrix(1.0, 0.0, 0.0, 1.0, -15.5, -15.5)" width="31.0" xlink:href="#shape0"/>
    <clipPath id="clipPath0" transform="matrix(1.0, 0.0, 0.0, 1.0, 0.0, 0.0)">
      <path d="M15.0 -15.0 L15.0 15.0 -15.0 15.0 -15.0 -15.0 15.0 -15.0" fill="#33cc33" fill-rule="evenodd" stroke="none"/>
      <path d="M15.0 -15.0 L15.0 15.0 -15.0 15.0 -15.0 -15.0 15.0 -15.0 Z" fill="none" stroke="#000000" stroke-linecap="round" stroke-linejoin="round" stroke-width="1.0"/>
    </clipPath>
    <g clip-path="url(#clipPath0)">
      <use ffdec:characterId="599" height="5.3" transform="matrix(1.229, 0.3939, -0.3939, 1.229, -5.8459, 2.9885)" width="11.75" xlink:href="#sprite0"/>
      <use ffdec:characterId="603" height="30.35" transform="matrix(1.238, 0.0, 0.0, 1.238, -9.152, -30.2563)" width="12.4" xlink:href="#sprite1"/>
    </g>
    <use ffdec:characterId="1912" height="31.0" transform="matrix(1.0, 0.0, 0.0, 1.0, -15.5, -15.5)" width="31.0" xlink:href="#shape4"/>
  </g>
  <defs>
    <g id="shape0" transform="matrix(1.0, 0.0, 0.0, 1.0, 15.5, 15.5)">
      <path d="M15.0 15.0 L-15.0 15.0 -15.0 -15.0 15.0 -15.0 15.0 15.0" fill="#000000" fill-rule="evenodd" stroke="none"/>
      <path d="M15.0 15.0 L-15.0 15.0 -15.0 -15.0 15.0 -15.0 15.0 15.0 Z" fill="none" stroke="#000000" stroke-linecap="round" stroke-linejoin="round" stroke-width="1.0"/>
    </g>
    <g id="sprite0" transform="matrix(1.0, 0.0, 0.0, 1.0, 5.85, 2.65)">
      <use ffdec:characterId="598" height="5.3" transform="matrix(1.0, 0.0, 0.0, 1.0, -5.85, -2.65)" width="11.75" xlink:href="#shape2"/>
    </g>
    <g id="shape2" transform="matrix(1.0, 0.0, 0.0, 1.0, 5.85, 2.65)">
      <path d="M5.15 2.3 L4.25 2.45 3.45 2.6 3.35 2.5 4.25 2.45 5.25 2.15 5.15 2.3 M-5.7 1.2 L-5.85 1.15 -5.85 0.65 -5.7 1.2" fill="#54451b" fill-rule="evenodd" stroke="none"/>
      <path d="M5.7 1.25 L5.85 2.0 5.9 2.2 5.15 2.3 5.25 2.15 5.7 1.25 M3.45 2.6 L2.65 2.65 3.35 2.5 3.45 2.6 M5.85 2.0 L5.25 2.15 5.85 2.0" fill="#000000" fill-rule="evenodd" stroke="none"/>
      <path d="M-1.35 -2.65 L3.0 -2.4 5.05 -1.5 5.7 1.25 5.25 2.15 4.25 2.45 3.35 2.5 2.65 2.65 -5.7 1.2 -5.85 0.65 -5.6 -2.2 -1.35 -2.65" fill="url(#gradient0)" fill-rule="evenodd" stroke="none"/>
      <path d="M-1.35 -2.65 L3.0 -2.4 5.05 -1.5 5.7 1.25 5.85 2.0 5.25 2.15 4.25 2.45 3.35 2.5 2.65 2.65 -5.7 1.2 -5.85 0.65 -5.6 -2.2" fill="none" stroke="#000000" stroke-linecap="round" stroke-linejoin="round" stroke-width="0.05"/>
    </g>
    <radialGradient cx="0" cy="0" gradientTransform="matrix(0.0107, 0.0, 0.0, 0.0107, 2.75, -0.9)" gradientUnits="userSpaceOnUse" id="gradient0" r="819.2" spreadMethod="pad">
      <stop offset="0.0" stop-color="#c88a2f"/>
      <stop offset="1.0" stop-color="#643e35"/>
    </radialGradient>
    <g id="sprite1" transform="matrix(1.0, 0.0, 0.0, 1.0, 6.1, 15.15)">
      <use ffdec:characterId="602" height="30.35" transform="matrix(1.0, 0.0, 0.0, 1.0, -6.1, -15.15)" width="12.4" xlink:href="#shape3"/>
    </g>
    <g id="shape3" transform="matrix(1.0, 0.0, 0.0, 1.0, 6.1, 15.15)">
      <path d="M-1.5 -6.85 L-1.45 -6.75 -1.5 -6.75 -1.5 -6.85 M0.45 -3.1 L0.5 -3.1 0.55 -2.85 0.45 -3.1" fill="#737373" fill-rule="evenodd" stroke="none"/>
      <path d="M-5.85 -4.1 L-6.1 -4.75 -6.05 -6.1 -6.0 -7.5 Q-3.9 -6.75 -1.5 -6.75 L-1.45 -6.75 0.45 -3.1 -1.6 -2.3 -5.85 -4.1" fill="url(#gradient1)" fill-rule="evenodd" stroke="none"/>
      <path d="M-1.1 -14.15 Q1.4 -14.15 3.7 -15.15 L6.2 -11.3 6.3 -8.4 6.3 -7.1 6.3 -5.45 5.35 -4.6 Q4.3 -2.35 3.65 -0.1 L3.45 4.85 1.85 13.3 Q0.85 14.05 0.15 15.0 1.05 6.8 0.55 -2.85 L0.5 -3.1 0.45 -3.1 -1.45 -6.75 -1.5 -6.85 -1.1 -14.15" fill="url(#gradient2)" fill-rule="evenodd" stroke="none"/>
      <path d="M-6.0 -7.5 L-5.9 -10.35 -4.95 -14.2 -4.95 -14.25 Q-4.55 -14.3 -4.35 -14.5 L-1.1 -14.15 -1.5 -6.85 -1.5 -6.75 Q-3.9 -6.75 -6.0 -7.5" fill="url(#gradient3)" fill-rule="evenodd" stroke="none"/>
      <path d="M0.15 15.0 L-0.05 15.2 Q-2.25 13.95 -4.4 13.1 -4.4 8.85 -4.55 4.75 L-4.65 0.45 -5.85 -4.1 -1.6 -2.3 0.45 -3.1 0.55 -2.85 Q1.05 6.8 0.15 15.0" fill="url(#gradient4)" fill-rule="evenodd" stroke="none"/>
      <path d="M-1.1 -14.15 Q1.4 -14.15 3.7 -15.15 L6.2 -11.3 6.3 -8.4 6.3 -7.1 6.3 -5.45 5.35 -4.6 Q4.3 -2.35 3.65 -0.1 L3.45 4.85 1.85 13.3 Q0.85 14.05 0.15 15.0 L-0.05 15.2 Q-2.25 13.95 -4.4 13.1 -4.4 8.85 -4.55 4.75 L-4.65 0.45 -5.85 -4.1 -6.1 -4.75 -6.05 -6.1 -6.0 -7.5 -5.9 -10.35 -4.95 -14.2 -4.95 -14.25 Q-4.55 -14.3 -4.35 -14.5 L-1.1 -14.15 -1.5 -6.85 -1.45 -6.75 0.45 -3.1 0.5 -3.1 0.55 -2.85 Q1.05 6.8 0.15 15.0 M0.45 -3.1 L0.55 -2.85 M-1.5 -6.85 L-1.5 -6.75 -1.45 -6.75 M-5.85 -4.1 L-1.6 -2.3 0.45 -3.1 M-1.5 -6.75 Q-3.9 -6.75 -6.0 -7.5" fill="none" stroke="#000000" stroke-linecap="round" stroke-linejoin="round" stroke-width="0.05"/>
    </g>
    <radialGradient cx="0" cy="0" gradientTransform="matrix(0.0073, 0.0, 0.0, 0.0073, -5.25, -4.9)" gradientUnits="userSpaceOnUse" id="gradient1" r="819.2" spreadMethod="pad">
      <stop offset="0.0" stop-color="#c88a2f"/>
      <stop offset="1.0" stop-color="#643e35"/>
    </radialGradient>
    <radialGradient cx="0" cy="0" gradientTransform="matrix(0.0328, 0.0, 0.0, 0.0328, 3.15, -11.75)" gradientUnits="userSpaceOnUse" id="gradient2" r="819.2" spreadMethod="pad">
      <stop offset="0.0" stop-color="#c88a2f"/>
      <stop offset="1.0" stop-color="#643e35"/>
    </radialGradient>
    <radialGradient cx="0" cy="0" gradientTransform="matrix(0.0064, 0.0, 0.0, 0.0064, -4.35, -10.0)" gradientUnits="userSpaceOnUse" id="gradient3" r="819.2" spreadMethod="pad">
      <stop offset="0.0" stop-color="#5b6568"/>
      <stop offset="0.30980392156862746" stop-color="#2c2f34"/>
      <stop offset="1.0" stop-color="#18161d"/>
    </radialGradient>
    <radialGradient cx="0" cy="0" gradientTransform="matrix(0.0128, 0.0, 0.0, 0.0128, -3.0, 5.1)" gradientUnits="userSpaceOnUse" id="gradient4" r="819.2" spreadMethod="pad">
      <stop offset="0.0" stop-color="#5b6568"/>
      <stop offset="0.30980392156862746" stop-color="#2c2f34"/>
      <stop offset="1.0" stop-color="#18161d"/>
    </radialGradient>
    <g id="shape4" transform="matrix(1.0, 0.0, 0.0, 1.0, 15.5, 15.5)">
      <path d="M15.0 15.0 L-15.0 15.0 -15.0 -15.0 15.0 -15.0 15.0 15.0 Z" fill="none" stroke="#000000" stroke-linecap="round" stroke-linejoin="round" stroke-width="1.0"/>
    </g>
  </defs>
</svg>
