<?xml version="1.0" encoding="UTF-8" standalone="no"?>
<svg xmlns:ffdec="https://www.free-decompiler.com/flash" xmlns:xlink="http://www.w3.org/1999/xlink" ffdec:objectType="frame" height="306.9px" width="203.9px" xmlns="http://www.w3.org/2000/svg">
  <g transform="matrix(2.0, 0.0, 0.0, 2.0, 105.4, 149.3)">
    <use ffdec:characterId="1928" height="31.0" transform="matrix(1.0, 0.0, 0.0, 1.0, -15.5, -15.5)" width="31.0" xlink:href="#shape0"/>
    <clipPath id="clipPath0" transform="matrix(1.0, 0.0, 0.0, 1.0, 0.0, 0.0)">
      <path d="M15.0 -15.0 L15.0 15.0 -15.0 15.0 -15.0 -15.0 15.0 -15.0" fill="#33cc33" fill-rule="evenodd" stroke="none"/>
      <path d="M15.0 -15.0 L15.0 15.0 -15.0 15.0 -15.0 -15.0 15.0 -15.0 Z" fill="none" stroke="#000000" stroke-linecap="round" stroke-linejoin="round" stroke-width="1.0"/>
    </clipPath>
    <g clip-path="url(#clipPath0)">
      <use ffdec:characterId="1826" height="14.0" transform="matrix(2.0463, 1.1149, -1.1149, 2.0463, -1.9358, -17.2228)" width="7.8" xlink:href="#sprite0"/>
    </g>
    <use ffdec:characterId="1912" height="31.0" transform="matrix(1.0, 0.0, 0.0, 1.0, -15.5, -15.5)" width="31.0" xlink:href="#shape3"/>
  </g>
  <defs>
    <g id="shape0" transform="matrix(1.0, 0.0, 0.0, 1.0, 15.5, 15.5)">
      <path d="M15.0 15.0 L-15.0 15.0 -15.0 -15.0 15.0 -15.0 15.0 15.0" fill="#000000" fill-rule="evenodd" stroke="none"/>
      <path d="M15.0 15.0 L-15.0 15.0 -15.0 -15.0 15.0 -15.0 15.0 15.0 Z" fill="none" stroke="#000000" stroke-linecap="round" stroke-linejoin="round" stroke-width="1.0"/>
    </g>
    <g id="sprite0" transform="matrix(1.0, 0.0, 0.0, 1.0, 3.55, 8.95)">
      <use ffdec:characterId="1825" height="14.0" transform="matrix(1.0, 0.0, 0.0, 1.0, -3.55, -8.95)" width="7.8" xlink:href="#shape2"/>
    </g>
    <g id="shape2" transform="matrix(1.0, 0.0, 0.0, 1.0, 3.55, 8.95)">
      <path d="M2.0 4.95 L2.0 5.0 1.95 5.05 1.9 4.85 2.0 4.95" fill="url(#gradient0)" fill-rule="evenodd" stroke="none"/>
      <path d="M1.9 4.85 L2.0 4.9 2.0 4.95 1.9 4.85" fill="url(#gradient1)" fill-rule="evenodd" stroke="none"/>
      <path d="M4.2 -4.3 L4.2 -2.0 3.2 0.2 Q-1.8 0.0 -3.5 -3.05 L-3.35 -4.4 Q-3.2 -5.5 -1.9 -7.4 0.1 -5.0 4.2 -4.3" fill="url(#gradient2)" fill-rule="evenodd" stroke="none"/>
      <path d="M-1.9 -7.4 L-0.75 -8.95 3.65 -6.7 4.2 -4.3 Q0.1 -5.0 -1.9 -7.4" fill="url(#gradient3)" fill-rule="evenodd" stroke="none"/>
      <path d="M3.2 0.2 L2.95 0.9 2.7 1.3 2.1 1.35 2.05 1.35 1.9 1.35 1.4 1.35 1.0 1.35 -0.45 1.05 Q-1.75 0.65 -2.7 -0.3 L-2.9 -0.45 -3.55 -1.25 -3.5 -3.05 Q-1.8 0.0 3.2 0.2" fill="url(#gradient4)" fill-rule="evenodd" stroke="none"/>
      <path d="M4.2 -4.3 L4.2 -2.0 3.2 0.2 2.95 0.9 2.7 1.3 M-3.55 -1.25 L-3.5 -3.05 -3.35 -4.4 Q-3.2 -5.5 -1.9 -7.4 L-0.75 -8.95 M3.65 -6.7 L4.2 -4.3" fill="none" stroke="#000000" stroke-linecap="round" stroke-linejoin="round" stroke-width="0.05"/>
      <path d="M2.7 1.3 L2.1 1.35 2.05 1.35 1.9 1.35 1.4 1.35 1.0 1.35 -0.45 1.05 Q-1.75 0.65 -2.7 -0.3 L-2.9 -0.45 -3.55 -1.25 M4.2 -4.3 Q0.1 -5.0 -1.9 -7.4 M3.2 0.2 Q-1.8 0.0 -3.5 -3.05" fill="none" stroke="#000000" stroke-linecap="round" stroke-linejoin="round" stroke-width="0.05"/>
    </g>
    <radialGradient cx="0" cy="0" gradientTransform="matrix(0.0133, 0.0026, -0.0018, 0.0144, 0.8, -7.0)" gradientUnits="userSpaceOnUse" id="gradient0" r="819.2" spreadMethod="pad">
      <stop offset="0.0" stop-color="#6a7249"/>
      <stop offset="1.0" stop-color="#393a2c"/>
    </radialGradient>
    <radialGradient cx="0" cy="0" gradientTransform="matrix(0.0038, 7.0E-4, -5.0E-4, 0.0041, -0.45, 6.05)" gradientUnits="userSpaceOnUse" id="gradient1" r="819.2" spreadMethod="pad">
      <stop offset="0.0" stop-color="#6a7249"/>
      <stop offset="1.0" stop-color="#393a2c"/>
    </radialGradient>
    <radialGradient cx="0" cy="0" gradientTransform="matrix(0.0067, 0.0, 0.0, 0.0067, -0.25, -4.0)" gradientUnits="userSpaceOnUse" id="gradient2" r="819.2" spreadMethod="pad">
      <stop offset="0.0" stop-color="#977646"/>
      <stop offset="0.7137254901960784" stop-color="#4b412c"/>
      <stop offset="1.0" stop-color="#8f7b4e"/>
    </radialGradient>
    <radialGradient cx="0" cy="0" gradientTransform="matrix(0.0057, 0.0, 0.0, 0.0057, 0.75, -7.0)" gradientUnits="userSpaceOnUse" id="gradient3" r="819.2" spreadMethod="pad">
      <stop offset="0.0" stop-color="#9198b3"/>
      <stop offset="0.7137254901960784" stop-color="#43434e"/>
      <stop offset="1.0" stop-color="#815c73"/>
    </radialGradient>
    <radialGradient cx="0" cy="0" gradientTransform="matrix(0.0062, 0.0, 0.0, 0.0062, -1.75, -0.75)" gradientUnits="userSpaceOnUse" id="gradient4" r="819.2" spreadMethod="pad">
      <stop offset="0.0" stop-color="#9198b3"/>
      <stop offset="0.7137254901960784" stop-color="#43434e"/>
      <stop offset="1.0" stop-color="#815c73"/>
    </radialGradient>
    <g id="shape3" transform="matrix(1.0, 0.0, 0.0, 1.0, 15.5, 15.5)">
      <path d="M15.0 15.0 L-15.0 15.0 -15.0 -15.0 15.0 -15.0 15.0 15.0 Z" fill="none" stroke="#000000" stroke-linecap="round" stroke-linejoin="round" stroke-width="1.0"/>
    </g>
  </defs>
</svg>
