<?xml version="1.0" encoding="UTF-8" standalone="no"?>
<svg xmlns:ffdec="https://www.free-decompiler.com/flash" xmlns:xlink="http://www.w3.org/1999/xlink" ffdec:objectType="frame" height="306.9px" width="203.9px" xmlns="http://www.w3.org/2000/svg">
  <g transform="matrix(2.0, 0.0, 0.0, 2.0, 105.4, 149.3)">
    <use ffdec:characterId="1928" height="31.0" transform="matrix(1.0, 0.0, 0.0, 1.0, -15.5, -15.5)" width="31.0" xlink:href="#shape0"/>
    <clipPath id="clipPath0" transform="matrix(1.0, 0.0, 0.0, 1.0, 0.0, 0.0)">
      <path d="M15.0 -15.0 L15.0 15.0 -15.0 15.0 -15.0 -15.0 15.0 -15.0" fill="#33cc33" fill-rule="evenodd" stroke="none"/>
      <path d="M15.0 -15.0 L15.0 15.0 -15.0 15.0 -15.0 -15.0 15.0 -15.0 Z" fill="none" stroke="#000000" stroke-linecap="round" stroke-linejoin="round" stroke-width="1.0"/>
    </clipPath>
    <g clip-path="url(#clipPath0)">
      <use ffdec:characterId="1824" height="33.65" transform="matrix(2.5789, 0.0, 0.0, 2.5789, -18.1737, -69.0211)" width="11.75" xlink:href="#sprite0"/>
    </g>
    <use ffdec:characterId="1912" height="31.0" transform="matrix(1.0, 0.0, 0.0, 1.0, -15.5, -15.5)" width="31.0" xlink:href="#shape3"/>
  </g>
  <defs>
    <g id="shape0" transform="matrix(1.0, 0.0, 0.0, 1.0, 15.5, 15.5)">
      <path d="M15.0 15.0 L-15.0 15.0 -15.0 -15.0 15.0 -15.0 15.0 15.0" fill="#000000" fill-rule="evenodd" stroke="none"/>
      <path d="M15.0 15.0 L-15.0 15.0 -15.0 -15.0 15.0 -15.0 15.0 15.0 Z" fill="none" stroke="#000000" stroke-linecap="round" stroke-linejoin="round" stroke-width="1.0"/>
    </g>
    <g id="sprite0" transform="matrix(1.0, 0.0, 0.0, 1.0, 6.0, 30.35)">
      <use ffdec:characterId="1823" height="33.65" transform="matrix(1.0, 0.0, 0.0, 1.0, -6.0, -30.35)" width="11.75" xlink:href="#shape2"/>
    </g>
    <g id="shape2" transform="matrix(1.0, 0.0, 0.0, 1.0, 6.0, 30.35)">
      <path d="M-2.45 -3.35 Q-2.25 -4.55 -1.45 -5.5 -0.3 -6.7 1.3 -6.7 2.9 -6.7 4.0 -5.5 5.15 -4.25 5.15 -2.55 L5.1 -1.85 5.0 -1.3 5.35 1.4 4.5 1.5 4.5 1.6 4.05 3.3 Q3.2 -0.05 -2.45 -3.35" fill="url(#gradient0)" fill-rule="evenodd" stroke="none"/>
      <path d="M4.05 3.3 L4.5 1.6 4.5 1.5 5.35 1.4 5.0 -1.3 5.1 -1.85 5.15 -2.55 Q5.15 -4.25 4.0 -5.5 2.9 -6.7 1.3 -6.7 -0.3 -6.7 -1.45 -5.5 -2.25 -4.55 -2.45 -3.35 M5.0 -1.3 L5.05 -1.6 5.1 -1.85" fill="none" stroke="#000000" stroke-linecap="round" stroke-linejoin="round" stroke-width="0.05"/>
      <path d="M-2.45 -3.35 Q3.2 -0.05 4.05 3.3" fill="none" stroke="#000000" stroke-linecap="round" stroke-linejoin="round" stroke-width="0.05"/>
      <path d="M-4.25 -16.75 L1.9 -2.05 -4.8 -13.2 -4.25 -16.75 M-6.0 -11.0 L1.15 -1.0 -6.0 -7.85 -6.0 -11.0 M-6.0 -24.95 L-3.85 -23.25 Q0.45 -20.85 4.75 -1.9 -0.35 -17.15 -6.0 -24.95" fill="url(#gradient1)" fill-rule="evenodd" stroke="none"/>
      <path d="M4.9 -1.7 L4.9 -1.6 4.9 -1.7 Q3.5 -16.2 -2.6 -30.35 L1.75 -23.85 2.55 -21.25 4.4 -20.75 Q5.65 -13.05 5.75 -9.25 5.85 -5.45 4.9 -1.7" fill="url(#gradient2)" fill-rule="evenodd" stroke="none"/>
    </g>
    <radialGradient cx="0" cy="0" gradientTransform="matrix(0.0075, 0.0, 0.0, 0.0075, 3.15, -2.5)" gradientUnits="userSpaceOnUse" id="gradient0" r="819.2" spreadMethod="pad">
      <stop offset="0.0" stop-color="#9198b3"/>
      <stop offset="0.7137254901960784" stop-color="#43434e"/>
      <stop offset="1.0" stop-color="#815c73"/>
    </radialGradient>
    <radialGradient cx="0" cy="0" gradientTransform="matrix(0.0134, -0.0032, 0.0086, 0.0365, 4.4, -0.6)" gradientUnits="userSpaceOnUse" id="gradient1" r="819.2" spreadMethod="pad">
      <stop offset="0.0" stop-color="#3d9625"/>
      <stop offset="0.49411764705882355" stop-color="#618349" stop-opacity="0.6"/>
      <stop offset="1.0" stop-color="#5f985f" stop-opacity="0.0"/>
    </radialGradient>
    <radialGradient cx="0" cy="0" gradientTransform="matrix(0.028, 0.0, 0.0, 0.028, 3.0, -4.6)" gradientUnits="userSpaceOnUse" id="gradient2" r="819.2" spreadMethod="pad">
      <stop offset="0.0" stop-color="#3d9625"/>
      <stop offset="0.49411764705882355" stop-color="#618349" stop-opacity="0.6"/>
      <stop offset="1.0" stop-color="#5f985f" stop-opacity="0.0"/>
    </radialGradient>
    <g id="shape3" transform="matrix(1.0, 0.0, 0.0, 1.0, 15.5, 15.5)">
      <path d="M15.0 15.0 L-15.0 15.0 -15.0 -15.0 15.0 -15.0 15.0 15.0 Z" fill="none" stroke="#000000" stroke-linecap="round" stroke-linejoin="round" stroke-width="1.0"/>
    </g>
  </defs>
</svg>
