<?xml version="1.0" encoding="UTF-8" standalone="no"?>
<svg xmlns:ffdec="https://www.free-decompiler.com/flash" xmlns:xlink="http://www.w3.org/1999/xlink" ffdec:objectType="frame" height="306.9px" width="203.9px" xmlns="http://www.w3.org/2000/svg">
  <g transform="matrix(2.0, 0.0, 0.0, 2.0, 105.4, 149.3)">
    <use ffdec:characterId="1928" height="31.0" transform="matrix(1.0, 0.0, 0.0, 1.0, -15.5, -15.5)" width="31.0" xlink:href="#shape0"/>
    <clipPath id="clipPath0" transform="matrix(1.0, 0.0, 0.0, 1.0, 0.0, 0.0)">
      <path d="M15.0 -15.0 L15.0 15.0 -15.0 15.0 -15.0 -15.0 15.0 -15.0" fill="#33cc33" fill-rule="evenodd" stroke="none"/>
      <path d="M15.0 -15.0 L15.0 15.0 -15.0 15.0 -15.0 -15.0 15.0 -15.0 Z" fill="none" stroke="#000000" stroke-linecap="round" stroke-linejoin="round" stroke-width="1.0"/>
    </clipPath>
    <g clip-path="url(#clipPath0)">
      <use ffdec:characterId="1799" height="16.45" transform="matrix(2.5789, 0.0, 0.0, 2.5789, -18.4605, -25.3684)" width="13.5" xlink:href="#sprite0"/>
    </g>
    <use ffdec:characterId="1912" height="31.0" transform="matrix(1.0, 0.0, 0.0, 1.0, -15.5, -15.5)" width="31.0" xlink:href="#shape3"/>
  </g>
  <defs>
    <g id="shape0" transform="matrix(1.0, 0.0, 0.0, 1.0, 15.5, 15.5)">
      <path d="M15.0 15.0 L-15.0 15.0 -15.0 -15.0 15.0 -15.0 15.0 15.0" fill="#000000" fill-rule="evenodd" stroke="none"/>
      <path d="M15.0 15.0 L-15.0 15.0 -15.0 -15.0 15.0 -15.0 15.0 15.0 Z" fill="none" stroke="#000000" stroke-linecap="round" stroke-linejoin="round" stroke-width="1.0"/>
    </g>
    <g id="sprite0" transform="matrix(1.0, 0.0, 0.0, 1.0, 6.15, 12.9)">
      <use ffdec:characterId="1605" height="16.45" transform="matrix(1.0, 0.0, 0.0, 1.0, -6.15, -12.9)" width="13.5" xlink:href="#shape2"/>
    </g>
    <g id="shape2" transform="matrix(1.0, 0.0, 0.0, 1.0, 6.15, 12.9)">
      <path d="M-6.15 -5.15 Q-4.35 -7.65 2.75 -9.75 5.2 -10.0 6.5 -12.9 8.85 -7.75 4.7 -4.55 1.4 -4.65 -1.0 -2.45 -0.75 -0.25 0.55 2.0 L-0.55 3.55 -0.9 0.9 Q-3.8 0.45 -6.15 -5.15" fill="url(#gradient0)" fill-rule="evenodd" stroke="none"/>
      <path d="M-0.9 0.9 Q-3.8 0.45 -6.15 -5.15" fill="none" stroke="#000000" stroke-linecap="round" stroke-linejoin="round" stroke-width="0.05"/>
      <path d="M-6.15 -5.15 Q-4.35 -7.65 2.75 -9.75 5.2 -10.0 6.5 -12.9 8.85 -7.75 4.7 -4.55 1.4 -4.65 -1.0 -2.45 -0.75 -0.25 0.55 2.0 L-0.55 3.55 -0.9 0.9" fill="none" stroke="#000000" stroke-linecap="round" stroke-linejoin="round" stroke-width="0.05"/>
      <path d="M1.8 -1.75 L5.1 -1.85 Q4.85 -0.4 3.55 0.2 2.15 -0.2 1.8 -1.75" fill="#ce33f7" fill-rule="evenodd" stroke="none"/>
      <path d="M1.8 -1.75 L5.1 -1.85 M1.8 -1.75 L-0.8 -1.8" fill="none" stroke="#000000" stroke-linecap="round" stroke-linejoin="round" stroke-width="0.05"/>
      <path d="M5.1 -1.85 Q4.85 -0.4 3.55 0.2 2.15 -0.2 1.8 -1.75" fill="none" stroke="#000000" stroke-linecap="round" stroke-linejoin="round" stroke-width="0.05"/>
    </g>
    <radialGradient cx="0" cy="0" gradientTransform="matrix(0.0171, 0.0, 0.0, 0.0171, 4.15, -9.65)" gradientUnits="userSpaceOnUse" id="gradient0" r="819.2" spreadMethod="pad">
      <stop offset="0.0" stop-color="#404040"/>
      <stop offset="0.6196078431372549" stop-color="#1e1e1e"/>
      <stop offset="1.0" stop-color="#333333"/>
    </radialGradient>
    <g id="shape3" transform="matrix(1.0, 0.0, 0.0, 1.0, 15.5, 15.5)">
      <path d="M15.0 15.0 L-15.0 15.0 -15.0 -15.0 15.0 -15.0 15.0 15.0 Z" fill="none" stroke="#000000" stroke-linecap="round" stroke-linejoin="round" stroke-width="1.0"/>
    </g>
  </defs>
</svg>
