<?xml version="1.0" encoding="UTF-8" standalone="no"?>
<svg xmlns:ffdec="https://www.free-decompiler.com/flash" xmlns:xlink="http://www.w3.org/1999/xlink" ffdec:objectType="frame" height="306.9px" width="203.9px" xmlns="http://www.w3.org/2000/svg">
  <g transform="matrix(2.0, 0.0, 0.0, 2.0, 105.4, 149.3)">
    <use ffdec:characterId="1928" height="31.0" transform="matrix(1.0, 0.0, 0.0, 1.0, -15.5, -15.5)" width="31.0" xlink:href="#shape0"/>
    <clipPath id="clipPath0" transform="matrix(1.0, 0.0, 0.0, 1.0, 0.0, 0.0)">
      <path d="M15.0 -15.0 L15.0 15.0 -15.0 15.0 -15.0 -15.0 15.0 -15.0" fill="#33cc33" fill-rule="evenodd" stroke="none"/>
      <path d="M15.0 -15.0 L15.0 15.0 -15.0 15.0 -15.0 -15.0 15.0 -15.0 Z" fill="none" stroke="#000000" stroke-linecap="round" stroke-linejoin="round" stroke-width="1.0"/>
    </clipPath>
    <g clip-path="url(#clipPath0)">
      <use ffdec:characterId="635" height="19.6" transform="matrix(2.5789, 0.0, 0.0, 2.5789, -25.7737, -16.6079)" width="15.25" xlink:href="#sprite0"/>
    </g>
    <use ffdec:characterId="1912" height="31.0" transform="matrix(1.0, 0.0, 0.0, 1.0, -15.5, -15.5)" width="31.0" xlink:href="#shape4"/>
  </g>
  <defs>
    <g id="shape0" transform="matrix(1.0, 0.0, 0.0, 1.0, 15.5, 15.5)">
      <path d="M15.0 15.0 L-15.0 15.0 -15.0 -15.0 15.0 -15.0 15.0 15.0" fill="#000000" fill-rule="evenodd" stroke="none"/>
      <path d="M15.0 15.0 L-15.0 15.0 -15.0 -15.0 15.0 -15.0 15.0 15.0 Z" fill="none" stroke="#000000" stroke-linecap="round" stroke-linejoin="round" stroke-width="1.0"/>
    </g>
    <g id="sprite0" transform="matrix(1.0, 0.0, 0.0, 1.0, 8.85, 7.7)">
      <use ffdec:characterId="634" height="19.6" transform="matrix(1.0, 0.0, 0.0, 1.0, -8.85, -7.7)" width="15.25" xlink:href="#shape2"/>
      <filter id="filter0">
        <feFlood flood-color="#00ff00" flood-opacity="1.0" result="filterResult0"/>
        <feComposite in="filterResult0" in2="SourceGraphic" operator="out" result="filterResult1"/>
        <feConvolveMatrix divisor="9.0" in="filterResult1" kernelMatrix="1 1 1 1 1 1 1 1 1" order="3 3" result="filterResult2"/>
        <feComposite in="filterResult2" in2="SourceGraphic" operator="in" result="filterResult3"/>
        <feComposite in="filterResult3" in2="SourceGraphic" operator="over" result="filterResult4"/>
        <feColorMatrix in="filterResult4" result="filterResult5" type="matrix" values="0 0 0 0 0.0,0 0 0 0 1.0,0 0 0 0 0.0,0 0 0 1 0"/>
        <feConvolveMatrix divisor="64.0" in="filterResult5" kernelMatrix="1 1 1 1 1 1 1 1 1 1 1 1 1 1 1 1 1 1 1 1 1 1 1 1 1 1 1 1 1 1 1 1 1 1 1 1 1 1 1 1 1 1 1 1 1 1 1 1 1 1 1 1 1 1 1 1 1 1 1 1 1 1 1 1" order="8 8" result="filterResult6"/>
        <feComposite in="filterResult4" in2="filterResult6" operator="over" result="filterResult7"/>
      </filter>
      <use ffdec:characterId="60" filter="url(#filter0)" height="3.0" transform="matrix(1.0, 0.0, 0.0, 1.0, 2.95, -0.35)" width="3.0" xlink:href="#sprite1"/>
    </g>
    <g id="shape2" transform="matrix(1.0, 0.0, 0.0, 1.0, 8.85, 7.7)">
      <path d="M2.15 0.45 L2.15 -0.35 4.25 -0.1 2.15 0.45 M2.1 1.7 L2.95 6.2 2.0 4.05 2.1 1.7" fill="url(#gradient0)" fill-rule="evenodd" stroke="none"/>
      <path d="M0.4 5.8 L0.2 6.1 -8.85 -0.45 -3.25 -3.45 -3.1 -3.2 0.4 5.8" fill="url(#gradient1)" fill-rule="evenodd" stroke="none"/>
      <path d="M2.15 0.45 L2.15 -0.35 4.25 -0.1 2.15 0.45 2.1 1.7 2.95 6.2 2.0 4.05 2.1 1.7 1.85 0.5 2.15 0.45 M0.2 6.1 L-8.85 -0.45 -3.25 -3.45 M-3.1 -3.2 L0.4 5.8" fill="none" stroke="#000000" stroke-linecap="round" stroke-linejoin="round" stroke-width="0.05"/>
      <path d="M5.4 -3.95 L6.4 -3.6 6.0 -0.7 2.9 0.3 -3.4 -4.75 -2.25 -6.7 -2.0 -6.7 -1.2 -6.4 5.4 -3.95" fill="url(#gradient2)" fill-rule="evenodd" stroke="none"/>
      <path d="M2.9 0.3 L2.5 4.45 4.25 11.9 1.25 9.65 -1.75 0.65 -4.1 -3.6 -3.4 -4.75 2.9 0.3" fill="url(#gradient3)" fill-rule="evenodd" stroke="none"/>
      <path d="M-1.2 -6.4 L-0.1 -7.7 4.75 -6.35 5.4 -3.95 -1.2 -6.4" fill="url(#gradient4)" fill-rule="evenodd" stroke="none"/>
      <path d="M5.4 -3.95 L6.4 -3.6 6.0 -0.7 2.9 0.3 2.5 4.45 4.25 11.9 1.25 9.65 -1.75 0.65 -4.1 -3.6 -3.4 -4.75 -2.25 -6.7 M-2.0 -6.7 L-1.2 -6.4 -0.1 -7.7 4.75 -6.35 5.4 -3.95 -1.2 -6.4 M2.9 0.3 L-3.4 -4.75" fill="none" stroke="#000000" stroke-linecap="round" stroke-linejoin="round" stroke-width="0.05"/>
    </g>
    <radialGradient cx="0" cy="0" gradientTransform="matrix(0.0101, 0.0, 0.0, 0.0101, 4.8, 7.5)" gradientUnits="userSpaceOnUse" id="gradient0" r="819.2" spreadMethod="pad">
      <stop offset="0.0" stop-color="#ffffff"/>
      <stop offset="0.42745098039215684" stop-color="#7c9aad"/>
      <stop offset="0.44313725490196076" stop-color="#58607c"/>
      <stop offset="0.6470588235294118" stop-color="#7e8aa3"/>
      <stop offset="1.0" stop-color="#c2cde7"/>
    </radialGradient>
    <radialGradient cx="0" cy="0" gradientTransform="matrix(0.0074, 0.0, 0.0, 0.0074, -3.1, 1.0)" gradientUnits="userSpaceOnUse" id="gradient1" r="819.2" spreadMethod="pad">
      <stop offset="0.0" stop-color="#fbfbfb"/>
      <stop offset="0.19607843137254902" stop-color="#7c707e"/>
      <stop offset="0.42745098039215684" stop-color="#3c383f"/>
      <stop offset="0.44313725490196076" stop-color="#0f0a10"/>
      <stop offset="0.6901960784313725" stop-color="#333135"/>
      <stop offset="1.0" stop-color="#564b56"/>
    </radialGradient>
    <radialGradient cx="0" cy="0" gradientTransform="matrix(0.0071, 0.0, 0.0, 0.0071, 2.1, -2.8)" gradientUnits="userSpaceOnUse" id="gradient2" r="819.2" spreadMethod="pad">
      <stop offset="0.0" stop-color="#55994d"/>
      <stop offset="0.5529411764705883" stop-color="#374730"/>
      <stop offset="1.0" stop-color="#423a2d"/>
    </radialGradient>
    <radialGradient cx="0" cy="0" gradientTransform="matrix(0.0188, 0.0, 0.0, 0.0188, 0.4, -3.0)" gradientUnits="userSpaceOnUse" id="gradient3" r="819.2" spreadMethod="pad">
      <stop offset="0.0" stop-color="#ffffff"/>
      <stop offset="0.42745098039215684" stop-color="#b7a273"/>
      <stop offset="0.44313725490196076" stop-color="#877b4e"/>
      <stop offset="0.6470588235294118" stop-color="#ae9c73"/>
      <stop offset="1.0" stop-color="#e3dfc6"/>
    </radialGradient>
    <radialGradient cx="0" cy="0" gradientTransform="matrix(0.0057, 0.0, 0.0, 0.0057, 3.4, -5.9)" gradientUnits="userSpaceOnUse" id="gradient4" r="819.2" spreadMethod="pad">
      <stop offset="0.0" stop-color="#fbfbfb"/>
      <stop offset="0.19607843137254902" stop-color="#7c707e"/>
      <stop offset="0.42745098039215684" stop-color="#3c383f"/>
      <stop offset="0.44313725490196076" stop-color="#0f0a10"/>
      <stop offset="0.6901960784313725" stop-color="#333135"/>
      <stop offset="1.0" stop-color="#564b56"/>
    </radialGradient>
    <g id="sprite1" transform="matrix(1.0, 0.0, 0.0, 1.0, 1.5, 1.5)">
      <use ffdec:characterId="59" height="1.3" transform="matrix(0.0046, 0.0, 0.0, 2.3077, -1.5245, -1.5116)" width="653.2" xlink:href="#shape3"/>
    </g>
    <g id="shape3" transform="matrix(1.0, 0.0, 0.0, 1.0, 277.5, 12.55)">
      <path d="M36.7 -12.55 L276.3 -12.4 Q375.7 -12.2 375.7 -11.9 375.7 -11.65 276.3 -11.45 L36.7 -11.25 -203.0 -11.45 Q-252.65 -11.55 -277.5 -11.9 -252.65 -12.3 -203.0 -12.4 L36.7 -12.55" fill="#ffffff" fill-rule="evenodd" stroke="none"/>
    </g>
    <g id="shape4" transform="matrix(1.0, 0.0, 0.0, 1.0, 15.5, 15.5)">
      <path d="M15.0 15.0 L-15.0 15.0 -15.0 -15.0 15.0 -15.0 15.0 15.0 Z" fill="none" stroke="#000000" stroke-linecap="round" stroke-linejoin="round" stroke-width="1.0"/>
    </g>
  </defs>
</svg>
