<?xml version="1.0" encoding="UTF-8" standalone="no"?>
<svg xmlns:ffdec="https://www.free-decompiler.com/flash" xmlns:xlink="http://www.w3.org/1999/xlink" ffdec:objectType="frame" height="306.9px" width="203.9px" xmlns="http://www.w3.org/2000/svg">
  <g transform="matrix(2.0, 0.0, 0.0, 2.0, 105.4, 149.3)">
    <use ffdec:characterId="1928" height="31.0" transform="matrix(1.0, 0.0, 0.0, 1.0, -15.5, -15.5)" width="31.0" xlink:href="#shape0"/>
    <clipPath id="clipPath0" transform="matrix(1.0, 0.0, 0.0, 1.0, 0.0, 0.0)">
      <path d="M15.0 -15.0 L15.0 15.0 -15.0 15.0 -15.0 -15.0 15.0 -15.0" fill="#33cc33" fill-rule="evenodd" stroke="none"/>
      <path d="M15.0 -15.0 L15.0 15.0 -15.0 15.0 -15.0 -15.0 15.0 -15.0 Z" fill="none" stroke="#000000" stroke-linecap="round" stroke-linejoin="round" stroke-width="1.0"/>
    </clipPath>
    <g clip-path="url(#clipPath0)">
      <use ffdec:characterId="543" height="13.6" transform="matrix(2.5789, 0.0, 0.0, 2.5789, -20.1, -15.8342)" width="12.75" xlink:href="#sprite0"/>
    </g>
    <use ffdec:characterId="1912" height="31.0" transform="matrix(1.0, 0.0, 0.0, 1.0, -15.5, -15.5)" width="31.0" xlink:href="#shape4"/>
  </g>
  <defs>
    <g id="shape0" transform="matrix(1.0, 0.0, 0.0, 1.0, 15.5, 15.5)">
      <path d="M15.0 15.0 L-15.0 15.0 -15.0 -15.0 15.0 -15.0 15.0 15.0" fill="#000000" fill-rule="evenodd" stroke="none"/>
      <path d="M15.0 15.0 L-15.0 15.0 -15.0 -15.0 15.0 -15.0 15.0 15.0 Z" fill="none" stroke="#000000" stroke-linecap="round" stroke-linejoin="round" stroke-width="1.0"/>
    </g>
    <g id="sprite0" transform="matrix(1.0, 0.0, 0.0, 1.0, 6.65, 7.4)">
      <use ffdec:characterId="542" height="13.6" transform="matrix(1.0, 0.0, 0.0, 1.0, -6.65, -7.4)" width="12.75" xlink:href="#shape2"/>
      <filter id="filter0">
        <feFlood flood-color="#ff33ff" flood-opacity="1.0" result="filterResult0"/>
        <feComposite in="filterResult0" in2="SourceGraphic" operator="out" result="filterResult1"/>
        <feConvolveMatrix divisor="9.0" in="filterResult1" kernelMatrix="1 1 1 1 1 1 1 1 1" order="3 3" result="filterResult2"/>
        <feComposite in="filterResult2" in2="SourceGraphic" operator="in" result="filterResult3"/>
        <feComposite in="filterResult3" in2="SourceGraphic" operator="over" result="filterResult4"/>
        <feColorMatrix in="filterResult4" result="filterResult5" type="matrix" values="0 0 0 0 0.4,0 0 0 0 0.0,0 0 0 0 1.0,0 0 0 1 0"/>
        <feConvolveMatrix divisor="4.0" in="filterResult5" kernelMatrix="1 1 1 1" order="2 2" result="filterResult6"/>
        <feComposite in="filterResult4" in2="filterResult6" operator="over" result="filterResult7"/>
      </filter>
      <use ffdec:characterId="60" filter="url(#filter0)" height="3.0" transform="matrix(1.0, 0.0, 0.0, 0.88, 1.6, -2.17)" width="3.0" xlink:href="#sprite1"/>
    </g>
    <g id="shape2" transform="matrix(1.0, 0.0, 0.0, 1.0, 6.65, 7.4)">
      <path d="M3.3 5.85 L3.55 6.2 1.8 4.9 0.85 0.6 1.8 -1.55 Q2.75 -0.9 4.65 -1.3 L4.65 0.9 3.3 5.85" fill="url(#gradient0)" fill-rule="evenodd" stroke="none"/>
      <path d="M1.8 4.9 L2.05 6.1 0.85 5.15 -2.45 4.6 Q-4.0 3.0 -4.75 2.6 L-6.65 2.6 -5.0 0.55 Q-3.3 -1.95 -2.45 -4.75 -2.0 -6.4 -0.55 -7.0 L1.8 -7.4 2.95 -6.9 4.0 -6.15 5.05 -5.15 6.1 -1.55 Q4.9 2.5 5.15 5.2 L3.3 5.85 4.65 0.9 4.65 -1.3 Q2.75 -0.9 1.8 -1.55 L0.85 0.6 1.8 4.9" fill="url(#gradient1)" fill-rule="evenodd" stroke="none"/>
      <path d="M1.8 4.9 L2.05 6.1 0.85 5.15 -2.45 4.6 Q-4.0 3.0 -4.75 2.6 L-6.65 2.6 -5.0 0.55 Q-3.3 -1.95 -2.45 -4.75 -2.0 -6.4 -0.55 -7.0 L1.8 -7.4 2.95 -6.9 4.0 -6.15 5.05 -5.15 6.1 -1.55 Q4.9 2.5 5.15 5.2 L3.3 5.85 4.65 0.9 4.65 -1.3 Q2.75 -0.9 1.8 -1.55 L0.85 0.6 1.8 4.9 Z" fill="none" stroke="#000000" stroke-linecap="round" stroke-linejoin="round" stroke-width="0.05"/>
    </g>
    <linearGradient gradientTransform="matrix(-1.0E-4, -0.0039, 0.0023, 0.0, 2.8, 1.65)" gradientUnits="userSpaceOnUse" id="gradient0" spreadMethod="pad" x1="-819.2" x2="819.2">
      <stop offset="0.0" stop-color="#000000" stop-opacity="0.0"/>
      <stop offset="0.7450980392156863" stop-color="#000000"/>
    </linearGradient>
    <radialGradient cx="0" cy="0" gradientTransform="matrix(0.0121, 0.0, 0.0, 0.0121, 1.3, -3.4)" gradientUnits="userSpaceOnUse" id="gradient1" r="819.2" spreadMethod="pad">
      <stop offset="0.0" stop-color="#47324e"/>
      <stop offset="1.0" stop-color="#1c161d"/>
    </radialGradient>
    <g id="sprite1" transform="matrix(1.0, 0.0, 0.0, 1.0, 1.5, 1.5)">
      <use ffdec:characterId="59" height="1.3" transform="matrix(0.0046, 0.0, 0.0, 2.3077, -1.5245, -1.5116)" width="653.2" xlink:href="#shape3"/>
    </g>
    <g id="shape3" transform="matrix(1.0, 0.0, 0.0, 1.0, 277.5, 12.55)">
      <path d="M36.7 -12.55 L276.3 -12.4 Q375.7 -12.2 375.7 -11.9 375.7 -11.65 276.3 -11.45 L36.7 -11.25 -203.0 -11.45 Q-252.65 -11.55 -277.5 -11.9 -252.65 -12.3 -203.0 -12.4 L36.7 -12.55" fill="#ffffff" fill-rule="evenodd" stroke="none"/>
    </g>
    <g id="shape4" transform="matrix(1.0, 0.0, 0.0, 1.0, 15.5, 15.5)">
      <path d="M15.0 15.0 L-15.0 15.0 -15.0 -15.0 15.0 -15.0 15.0 15.0 Z" fill="none" stroke="#000000" stroke-linecap="round" stroke-linejoin="round" stroke-width="1.0"/>
    </g>
  </defs>
</svg>
