<?xml version="1.0" encoding="UTF-8" standalone="no"?>
<svg xmlns:ffdec="https://www.free-decompiler.com/flash" xmlns:xlink="http://www.w3.org/1999/xlink" ffdec:objectType="frame" height="306.9px" width="203.9px" xmlns="http://www.w3.org/2000/svg">
  <g transform="matrix(2.0, 0.0, 0.0, 2.0, 105.4, 149.3)">
    <use ffdec:characterId="1928" height="31.0" transform="matrix(1.0, 0.0, 0.0, 1.0, -15.5, -15.5)" width="31.0" xlink:href="#shape0"/>
    <clipPath id="clipPath0" transform="matrix(1.0, 0.0, 0.0, 1.0, 0.0, 0.0)">
      <path d="M15.0 -15.0 L15.0 15.0 -15.0 15.0 -15.0 -15.0 15.0 -15.0" fill="#33cc33" fill-rule="evenodd" stroke="none"/>
      <path d="M15.0 -15.0 L15.0 15.0 -15.0 15.0 -15.0 -15.0 15.0 -15.0 Z" fill="none" stroke="#000000" stroke-linecap="round" stroke-linejoin="round" stroke-width="1.0"/>
    </clipPath>
    <g clip-path="url(#clipPath0)">
      <use ffdec:characterId="712" height="16.6" transform="matrix(2.5789, 0.0, 0.0, 2.5789, -21.9053, -22.1526)" width="14.6" xlink:href="#sprite0"/>
    </g>
    <use ffdec:characterId="1912" height="31.0" transform="matrix(1.0, 0.0, 0.0, 1.0, -15.5, -15.5)" width="31.0" xlink:href="#shape4"/>
  </g>
  <defs>
    <g id="shape0" transform="matrix(1.0, 0.0, 0.0, 1.0, 15.5, 15.5)">
      <path d="M15.0 15.0 L-15.0 15.0 -15.0 -15.0 15.0 -15.0 15.0 15.0" fill="#000000" fill-rule="evenodd" stroke="none"/>
      <path d="M15.0 15.0 L-15.0 15.0 -15.0 -15.0 15.0 -15.0 15.0 15.0 Z" fill="none" stroke="#000000" stroke-linecap="round" stroke-linejoin="round" stroke-width="1.0"/>
    </g>
    <g id="sprite0" transform="matrix(1.0, 0.0, 0.0, 1.0, 7.35, 9.85)">
      <use ffdec:characterId="711" height="16.6" transform="matrix(1.0, 0.0, 0.0, 1.0, -7.35, -9.85)" width="14.6" xlink:href="#shape2"/>
      <filter id="filter0">
        <feColorMatrix in="SourceGraphic" result="filterResult0" type="matrix" values="0 0 0 0 0.6,0 0 0 0 1.0,0 0 0 0 0.0,0 0 0 1 0"/>
        <feConvolveMatrix divisor="16.0" in="filterResult0" kernelMatrix="1 1 1 1 1 1 1 1 1 1 1 1 1 1 1 1" order="4 4" result="filterResult1"/>
        <feConvolveMatrix divisor="16.0" in="filterResult1" kernelMatrix="1 1 1 1 1 1 1 1 1 1 1 1 1 1 1 1" order="4 4" result="filterResult2"/>
        <feConvolveMatrix divisor="16.0" in="filterResult2" kernelMatrix="1 1 1 1 1 1 1 1 1 1 1 1 1 1 1 1" order="4 4" result="filterResult3"/>
        <feComposite in="SourceGraphic" in2="filterResult3" operator="over" result="filterResult4"/>
      </filter>
      <use ffdec:characterId="660" filter="url(#filter0)" height="1.45" transform="matrix(1.0, 0.0, 0.0, 1.0, 2.3, -1.85)" width="2.85" xlink:href="#sprite1"/>
    </g>
    <g id="shape2" transform="matrix(1.0, 0.0, 0.0, 1.0, 7.35, 9.85)">
      <path d="M7.2 -2.85 L7.1 -3.1 7.25 -2.9 7.2 -2.85" fill="#ffffff" fill-rule="evenodd" stroke="none"/>
      <path d="M7.0 -2.8 Q5.9 -1.05 5.3 0.85 L5.0 -1.3 5.05 -1.6 5.1 -1.85 5.15 -2.15 7.0 -2.8 M0.45 3.95 L3.7 4.65 4.5 1.6 4.5 1.5 5.1 1.45 Q4.35 3.95 4.4 6.65 L4.1 6.55 0.45 3.95" fill="#1a1a1a" fill-rule="evenodd" stroke="none"/>
      <path d="M5.15 -2.15 L5.1 -1.85 5.0 -2.05 5.15 -2.15" fill="#000000" fill-rule="evenodd" stroke="none"/>
      <path d="M7.0 -2.8 L5.15 -2.15 5.0 -2.05 Q0.5 -0.2 -0.5 3.25 L0.45 3.95 4.1 6.55 Q-2.5 6.2 -7.0 -0.15 -8.9 -0.45 0.15 -9.85 4.65 -7.1 7.1 -3.1 L7.2 -2.85 7.0 -2.8" fill="url(#gradient0)" fill-rule="evenodd" stroke="none"/>
      <path d="M5.1 -1.85 L5.05 -1.6 5.0 -1.3 5.3 0.85 Q5.9 -1.05 7.0 -2.8 L5.15 -2.15 5.1 -1.85 5.0 -1.3 M5.0 -2.05 Q0.5 -0.2 -0.5 3.25 L0.45 3.95 3.7 4.65 4.5 1.6 4.5 1.5 5.1 1.45 5.15 1.35 5.3 0.85 M7.1 -3.1 Q4.65 -7.1 0.15 -9.85 -8.9 -0.45 -7.0 -0.15 -2.5 6.2 4.1 6.55 L0.45 3.95 M7.0 -2.8 L7.2 -2.85 7.25 -2.9 7.1 -3.1 M5.0 -2.05 L5.15 -2.15 M4.1 6.55 L4.4 6.65 Q4.35 3.95 5.1 1.45 M4.1 6.55 L4.4 6.75 4.4 6.65" fill="none" stroke="#000000" stroke-linecap="round" stroke-linejoin="round" stroke-width="0.05"/>
    </g>
    <radialGradient cx="0" cy="0" gradientTransform="matrix(0.0138, 0.0, 0.0, 0.0138, 3.3, -4.0)" gradientUnits="userSpaceOnUse" id="gradient0" r="819.2" spreadMethod="pad">
      <stop offset="0.0" stop-color="#974f4f"/>
      <stop offset="1.0" stop-color="#422424"/>
    </radialGradient>
    <g id="sprite1" transform="matrix(1.0, 0.0, 0.0, 1.0, 1.8, 0.5)">
      <use ffdec:characterId="59" height="1.3" transform="matrix(0.0044, 0.0, 0.0, 1.1154, -1.811, -0.4981)" width="653.2" xlink:href="#shape3"/>
    </g>
    <g id="shape3" transform="matrix(1.0, 0.0, 0.0, 1.0, 277.5, 12.55)">
      <path d="M36.7 -12.55 L276.3 -12.4 Q375.7 -12.2 375.7 -11.9 375.7 -11.65 276.3 -11.45 L36.7 -11.25 -203.0 -11.45 Q-252.65 -11.55 -277.5 -11.9 -252.65 -12.3 -203.0 -12.4 L36.7 -12.55" fill="#ffffff" fill-rule="evenodd" stroke="none"/>
    </g>
    <g id="shape4" transform="matrix(1.0, 0.0, 0.0, 1.0, 15.5, 15.5)">
      <path d="M15.0 15.0 L-15.0 15.0 -15.0 -15.0 15.0 -15.0 15.0 15.0 Z" fill="none" stroke="#000000" stroke-linecap="round" stroke-linejoin="round" stroke-width="1.0"/>
    </g>
  </defs>
</svg>
