<?xml version="1.0" encoding="UTF-8" standalone="no"?>
<svg xmlns:ffdec="https://www.free-decompiler.com/flash" xmlns:xlink="http://www.w3.org/1999/xlink" ffdec:objectType="frame" height="306.9px" width="203.9px" xmlns="http://www.w3.org/2000/svg">
  <g transform="matrix(2.0, 0.0, 0.0, 2.0, 105.4, 149.3)">
    <use ffdec:characterId="1928" height="31.0" transform="matrix(1.0, 0.0, 0.0, 1.0, -15.5, -15.5)" width="31.0" xlink:href="#shape0"/>
    <clipPath id="clipPath0" transform="matrix(1.0, 0.0, 0.0, 1.0, 0.0, 0.0)">
      <path d="M15.0 -15.0 L15.0 15.0 -15.0 15.0 -15.0 -15.0 15.0 -15.0" fill="#33cc33" fill-rule="evenodd" stroke="none"/>
      <path d="M15.0 -15.0 L15.0 15.0 -15.0 15.0 -15.0 -15.0 15.0 -15.0 Z" fill="none" stroke="#000000" stroke-linecap="round" stroke-linejoin="round" stroke-width="1.0"/>
    </clipPath>
    <g clip-path="url(#clipPath0)">
      <use ffdec:characterId="1341" height="63.05" transform="matrix(1.1485, 0.0, 0.0, 1.1485, -14.2002, -13.5643)" width="32.8" xlink:href="#sprite0"/>
      <use ffdec:characterId="1330" height="18.8" transform="matrix(1.1485, 0.0, 0.0, 1.1485, -19.7369, -16.938)" width="16.2" xlink:href="#sprite2"/>
    </g>
    <use ffdec:characterId="1912" height="31.0" transform="matrix(1.0, 0.0, 0.0, 1.0, -15.5, -15.5)" width="31.0" xlink:href="#shape7"/>
  </g>
  <defs>
    <g id="shape0" transform="matrix(1.0, 0.0, 0.0, 1.0, 15.5, 15.5)">
      <path d="M15.0 15.0 L-15.0 15.0 -15.0 -15.0 15.0 -15.0 15.0 15.0" fill="#000000" fill-rule="evenodd" stroke="none"/>
      <path d="M15.0 15.0 L-15.0 15.0 -15.0 -15.0 15.0 -15.0 15.0 15.0 Z" fill="none" stroke="#000000" stroke-linecap="round" stroke-linejoin="round" stroke-width="1.0"/>
    </g>
    <g id="sprite0" transform="matrix(1.0, 0.0, 0.0, 1.0, 12.8, 16.6)">
      <use ffdec:characterId="1340" height="15.05" transform="matrix(1.0, 0.0, 0.0, 1.0, 4.6, -16.6)" width="7.45" xlink:href="#shape2"/>
      <filter id="filter0">
        <feColorMatrix in="SourceGraphic" result="filterResult0" type="matrix" values="0 0 0 0 1.0,0 0 0 0 0.8,0 0 0 0 0.0,0 0 0 1 0"/>
        <feConvolveMatrix divisor="25.0" in="filterResult0" kernelMatrix="1 1 1 1 1 1 1 1 1 1 1 1 1 1 1 1 1 1 1 1 1 1 1 1 1" order="5 5" result="filterResult1"/>
        <feComposite in="SourceGraphic" in2="filterResult1" operator="over" result="filterResult2"/>
      </filter>
      <use ffdec:characterId="719" filter="url(#filter0)" height="3.15" transform="matrix(1.0, 0.0, 0.0, 1.0, 7.1, -6.85)" width="4.75" xlink:href="#sprite1"/>
      <use ffdec:characterId="1339" height="62.85" transform="matrix(1.0, 0.0, 0.0, 1.0, -12.8, -16.4)" width="32.8" xlink:href="#shape4"/>
    </g>
    <g id="shape2" transform="matrix(1.0, 0.0, 0.0, 1.0, -4.6, 16.6)">
      <path d="M11.0 -5.95 Q9.05 -5.9 7.1 -6.85 L6.3 -7.25 4.6 -11.85 Q6.4 -13.3 6.05 -16.6 7.75 -11.35 12.05 -6.1 L11.0 -5.95" fill="url(#gradient0)" fill-rule="evenodd" stroke="none"/>
      <path d="M11.05 -3.7 Q10.8 -2.65 11.55 -1.65 9.9 -1.25 8.1 -2.2 L7.6 -4.45 Q9.25 -3.65 11.05 -3.7" fill="url(#gradient1)" fill-rule="evenodd" stroke="none"/>
      <path d="M11.0 -5.95 Q9.05 -5.9 7.1 -6.85 L6.3 -7.25 4.6 -11.85 Q6.4 -13.3 6.05 -16.6 7.75 -11.35 12.05 -6.1 L11.0 -5.95 Q10.95 -4.85 11.85 -3.75 L11.05 -3.7 Q10.8 -2.65 11.55 -1.65 9.9 -1.25 8.1 -2.2 M7.6 -4.45 Q9.25 -3.65 11.05 -3.7" fill="none" stroke="#000000" stroke-linecap="round" stroke-linejoin="round" stroke-width="0.05"/>
    </g>
    <radialGradient cx="0" cy="0" gradientTransform="matrix(0.0118, 0.0, 0.0, 0.0118, 6.0, -13.25)" gradientUnits="userSpaceOnUse" id="gradient0" r="819.2" spreadMethod="pad">
      <stop offset="0.0" stop-color="#f5cb23"/>
      <stop offset="1.0" stop-color="#c73916"/>
    </radialGradient>
    <radialGradient cx="0" cy="0" gradientTransform="matrix(0.0041, 0.0, 0.0, 0.0041, 9.15, -3.15)" gradientUnits="userSpaceOnUse" id="gradient1" r="819.2" spreadMethod="pad">
      <stop offset="0.0" stop-color="#f5cb23"/>
      <stop offset="1.0" stop-color="#c73916"/>
    </radialGradient>
    <g id="sprite1" transform="matrix(1.0, 0.0, 0.0, 1.0, 2.35, 1.6)">
      <use ffdec:characterId="718" height="3.15" transform="matrix(1.0, 0.0, 0.0, 1.0, -2.35, -1.6)" width="4.75" xlink:href="#shape3"/>
    </g>
    <g id="shape3" transform="matrix(1.0, 0.0, 0.0, 1.0, 2.35, 1.6)">
      <path d="M1.6 1.55 Q-0.2 1.6 -1.85 0.8 L-2.35 -1.6 Q-0.4 -0.65 1.55 -0.7 1.5 0.4 2.4 1.5 L1.6 1.55" fill="#ffffff" fill-rule="evenodd" stroke="none"/>
    </g>
    <g id="shape4" transform="matrix(1.0, 0.0, 0.0, 1.0, 12.8, 16.4)">
      <path d="M7.4 -7.8 L7.85 -7.65 7.5 -6.95 7.4 -7.8" fill="#836201" fill-rule="evenodd" stroke="none"/>
      <path d="M6.45 -9.5 L7.4 -7.8 7.5 -6.95 7.75 -4.2 7.3 -3.3 7.1 -2.95 6.75 -2.1 Q5.35 -3.9 3.4 -3.9 1.35 -3.9 -0.1 -1.95 -1.5 0.05 -1.5 2.85 L-1.35 4.65 -4.95 4.45 -4.95 4.4 Q-4.6 -0.75 -5.85 -4.35 L-6.15 -5.6 Q-3.4 -6.7 -2.4 -9.3 -1.95 -10.55 -1.9 -12.15 L5.2 -6.05 6.45 -9.5" fill="url(#gradient2)" fill-rule="evenodd" stroke="none"/>
      <path d="M5.7 10.05 L5.8 10.05 5.95 13.05 2.15 16.45 -5.0 12.6 -4.7 8.75 5.7 10.05" fill="url(#gradient3)" fill-rule="evenodd" stroke="none"/>
      <path d="M-5.1 4.45 L-5.1 4.4 -4.95 4.45 -5.1 4.45" fill="url(#gradient4)" fill-rule="evenodd" stroke="none"/>
      <path d="M-5.85 -4.35 L-6.4 -5.55 -6.15 -5.6 -5.85 -4.35" fill="#333333" fill-rule="evenodd" stroke="none"/>
      <path d="M-6.2 -5.7 L-6.25 -5.7 -6.3 -5.7 -6.2 -5.7" fill="url(#gradient5)" fill-rule="evenodd" stroke="none"/>
      <path d="M-1.75 -14.1 L-0.05 -16.4 4.4 -13.1 3.35 -12.35 -1.75 -14.1" fill="url(#gradient6)" fill-rule="evenodd" stroke="none"/>
      <path d="M-6.15 -5.6 L-6.2 -5.7 -6.3 -5.7 -9.9 -7.8 Q-9.9 -11.6 -5.2 -13.65 L-1.95 -14.05 -1.9 -12.65 -1.9 -12.15 Q-1.95 -10.55 -2.4 -9.3 -3.4 -6.7 -6.15 -5.6" fill="url(#gradient7)" fill-rule="evenodd" stroke="none"/>
      <path d="M3.35 -12.35 L5.4 -11.5 6.45 -9.5 5.2 -6.05 -1.9 -12.15 -1.9 -12.65 -1.95 -14.05 -1.75 -14.1 3.35 -12.35" fill="url(#gradient8)" fill-rule="evenodd" stroke="none"/>
      <path d="M6.75 -2.1 L6.55 -1.65 4.95 5.05 -1.35 4.65 -1.5 2.85 Q-1.5 0.05 -0.1 -1.95 1.35 -3.9 3.4 -3.9 5.35 -3.9 6.75 -2.1" fill="url(#gradient9)" fill-rule="evenodd" stroke="none"/>
      <path d="M4.95 5.05 L5.0 5.05 Q5.75 7.0 5.8 8.8 L5.7 10.05 -4.7 8.75 -5.1 4.45 -4.95 4.45 -1.35 4.65 4.95 5.05" fill="url(#gradient10)" fill-rule="evenodd" stroke="none"/>
      <path d="M3.35 -12.35 L5.4 -11.5 6.45 -9.5 7.4 -7.8 7.5 -6.95 7.75 -4.2 7.3 -3.3 7.1 -2.95 6.75 -2.1 6.55 -1.65 4.95 5.05 5.0 5.05 Q5.75 7.0 5.8 8.8 L5.7 10.05 5.8 10.05 5.95 13.05 M7.85 -7.65 L7.5 -6.95 M-5.0 12.6 L-4.7 8.75 -5.1 4.45 -5.1 4.4 -4.95 4.45 -4.95 4.4 Q-4.6 -0.75 -5.85 -4.35 L-6.15 -5.6 -6.2 -5.7 -6.25 -5.7 -6.3 -5.7 -9.9 -7.8 Q-9.9 -11.6 -5.2 -13.65 L-1.95 -14.05 -1.75 -14.1 -0.05 -16.4 4.4 -13.1 3.35 -12.35 -1.75 -14.1 M-1.9 -12.15 L5.2 -6.05 6.45 -9.5 M-1.9 -12.15 L-1.9 -12.65 -1.95 -14.05 M-6.15 -5.6 Q-3.4 -6.7 -2.4 -9.3 -1.95 -10.55 -1.9 -12.15 M-1.35 4.65 L-4.95 4.45 M-4.7 8.75 L5.7 10.05 M4.95 5.05 L-1.35 4.65" fill="none" stroke="#000000" stroke-linecap="round" stroke-linejoin="round" stroke-width="0.05"/>
      <path d="M1.5 9.55 Q1.0 15.9 1.3 21.75 L1.5 24.4 2.1 29.85 2.65 33.0 3.3 35.8 Q1.0 34.0 -1.25 35.1 L1.5 9.55" fill="url(#gradient11)" fill-rule="evenodd" stroke="none"/>
      <path d="M1.55 9.45 L1.5 9.55 -1.25 35.1 -1.65 38.9 Q-4.75 30.9 -12.8 26.8 -7.55 21.05 -4.3 8.45 L1.55 9.45" fill="url(#gradient12)" fill-rule="evenodd" stroke="none"/>
      <path d="M1.3 21.75 Q5.2 19.5 9.3 19.65 L10.25 21.8 Q5.45 21.9 1.5 24.4 L1.3 21.75 M12.15 25.8 L13.45 28.4 Q7.75 29.6 2.65 33.0 L2.1 29.85 Q6.75 26.3 12.15 25.8" fill="url(#gradient13)" fill-rule="evenodd" stroke="none"/>
      <path d="M9.3 19.65 Q7.3 15.05 5.75 10.3 10.35 17.9 17.0 23.8 14.55 25.95 14.1 29.55 L13.45 28.4 12.15 25.8 10.25 21.8 9.3 19.65" fill="url(#gradient14)" fill-rule="evenodd" stroke="none"/>
      <path d="M1.5 9.55 L1.55 9.45 5.7 10.15 5.75 10.3 Q7.3 15.05 9.3 19.65 5.2 19.5 1.3 21.75 1.0 15.9 1.5 9.55 M10.25 21.8 L12.15 25.8 Q6.75 26.3 2.1 29.85 L1.5 24.4 Q5.45 21.9 10.25 21.8 M13.45 28.4 L14.1 29.55 Q16.8 34.55 20.0 39.3 12.05 41.05 7.0 46.45 4.65 41.45 3.3 35.8 L2.65 33.0 Q7.75 29.6 13.45 28.4" fill="url(#gradient15)" fill-rule="evenodd" stroke="none"/>
      <path d="M1.5 9.55 Q1.0 15.9 1.3 21.75 L1.5 24.4 2.1 29.85 2.65 33.0 3.3 35.8 Q4.65 41.45 7.0 46.45 12.05 41.05 20.0 39.3 16.8 34.55 14.1 29.55 14.55 25.95 17.0 23.8 10.35 17.9 5.75 10.3 L5.7 10.15 1.55 9.45 -4.3 8.45 Q-7.55 21.05 -12.8 26.8 -4.75 30.9 -1.65 38.9 L-1.25 35.1 1.5 9.55 M9.3 19.65 Q7.3 15.05 5.75 10.3 M9.3 19.65 L10.25 21.8 12.15 25.8 13.45 28.4 14.1 29.55 M3.3 35.8 Q1.0 34.0 -1.25 35.1" fill="none" stroke="#000000" stroke-linecap="round" stroke-linejoin="round" stroke-width="0.05"/>
      <path d="M-3.8 -7.1 L-5.15 -9.6 -2.45 -12.85 3.2 -7.75 5.8 -7.3 7.15 -10.25 8.55 -4.75 7.65 -0.35 6.35 -0.1 4.05 0.25 -0.15 -3.65 -3.8 -7.1 M6.5 -5.1 L4.4 -5.35 -1.25 -8.55 3.55 -3.7 7.05 -3.65 7.5 -7.6 6.5 -5.1" fill="url(#gradient16)" fill-rule="evenodd" stroke="none"/>
      <path d="M-3.8 -7.1 L-0.15 -3.65 1.6 2.35 0.1 2.15 -4.25 -4.3 -3.8 -7.1" fill="url(#gradient17)" fill-rule="evenodd" stroke="none"/>
      <path d="M-0.15 -3.65 L4.05 0.25 6.35 -0.1 5.25 2.85 1.6 2.35 -0.15 -3.65" fill="url(#gradient18)" fill-rule="evenodd" stroke="none"/>
      <path d="M6.5 -5.1 L7.5 -7.6 7.05 -3.65 3.55 -3.7 -1.25 -8.55 4.4 -5.35 6.5 -5.1" fill="url(#gradient19)" fill-rule="evenodd" stroke="none"/>
      <path d="M6.35 -0.1 L7.65 -0.35 8.55 -4.75 7.15 -10.25 5.8 -7.3 3.2 -7.75 -2.45 -12.85 -5.15 -9.6 -3.8 -7.1 -0.15 -3.65 4.05 0.25 6.35 -0.1 5.25 2.85 1.6 2.35 0.1 2.15 -4.25 -4.3 -3.8 -7.1" fill="none" stroke="#000000" stroke-linecap="round" stroke-linejoin="round" stroke-width="0.05"/>
    </g>
    <radialGradient cx="0" cy="0" gradientTransform="matrix(0.0146, 5.0E-4, -8.0E-4, 0.0142, 1.15, -5.65)" gradientUnits="userSpaceOnUse" id="gradient2" r="819.2" spreadMethod="pad">
      <stop offset="0.0" stop-color="#454545"/>
      <stop offset="1.0" stop-color="#1b1b1b"/>
    </radialGradient>
    <radialGradient cx="0" cy="0" gradientTransform="matrix(0.0075, 3.0E-4, -4.0E-4, 0.0073, 0.45, 12.0)" gradientUnits="userSpaceOnUse" id="gradient3" r="819.2" spreadMethod="pad">
      <stop offset="0.0" stop-color="#454545"/>
      <stop offset="1.0" stop-color="#1b1b1b"/>
    </radialGradient>
    <radialGradient cx="0" cy="0" gradientTransform="matrix(0.0103, 4.0E-4, -5.0E-4, 0.0101, 3.05, 6.65)" gradientUnits="userSpaceOnUse" id="gradient4" r="819.2" spreadMethod="pad">
      <stop offset="0.0" stop-color="#a89786"/>
      <stop offset="1.0" stop-color="#484037"/>
    </radialGradient>
    <radialGradient cx="0" cy="0" gradientTransform="matrix(0.0077, 0.0, 0.0, 0.0077, -4.5, -11.0)" gradientUnits="userSpaceOnUse" id="gradient5" r="819.2" spreadMethod="pad">
      <stop offset="0.0" stop-color="#454545"/>
      <stop offset="1.0" stop-color="#1b1b1b"/>
    </radialGradient>
    <radialGradient cx="0" cy="0" gradientTransform="matrix(0.0059, 2.0E-4, -3.0E-4, 0.0057, -0.3, -13.9)" gradientUnits="userSpaceOnUse" id="gradient6" r="819.2" spreadMethod="pad">
      <stop offset="0.0" stop-color="#454545"/>
      <stop offset="1.0" stop-color="#1b1b1b"/>
    </radialGradient>
    <radialGradient cx="0" cy="0" gradientTransform="matrix(0.0077, 0.0, 0.0, 0.0077, -4.5, -11.0)" gradientUnits="userSpaceOnUse" id="gradient7" r="819.2" spreadMethod="pad">
      <stop offset="0.0" stop-color="#a2a2a2"/>
      <stop offset="1.0" stop-color="#6a6a6a"/>
    </radialGradient>
    <radialGradient cx="0" cy="0" gradientTransform="matrix(0.0146, 5.0E-4, -8.0E-4, 0.0142, 1.15, -5.65)" gradientUnits="userSpaceOnUse" id="gradient8" r="819.2" spreadMethod="pad">
      <stop offset="0.0" stop-color="#373737"/>
      <stop offset="1.0" stop-color="#040404"/>
    </radialGradient>
    <radialGradient cx="0" cy="0" gradientTransform="matrix(0.0086, 0.0, 0.0, 0.0086, 3.0, 2.75)" gradientUnits="userSpaceOnUse" id="gradient9" r="819.2" spreadMethod="pad">
      <stop offset="0.0" stop-color="#2b2b2b"/>
      <stop offset="1.0" stop-color="#1a1a1a"/>
    </radialGradient>
    <radialGradient cx="0" cy="0" gradientTransform="matrix(0.0099, 0.0, 0.0, 0.0099, 2.55, 7.15)" gradientUnits="userSpaceOnUse" id="gradient10" r="819.2" spreadMethod="pad">
      <stop offset="0.0" stop-color="#5f564b"/>
      <stop offset="1.0" stop-color="#4d372b"/>
    </radialGradient>
    <radialGradient cx="0" cy="0" gradientTransform="matrix(0.0292, 0.0, 0.0, 0.0292, 1.0, 33.05)" gradientUnits="userSpaceOnUse" id="gradient11" r="819.2" spreadMethod="pad">
      <stop offset="0.0" stop-color="#5f564b"/>
      <stop offset="1.0" stop-color="#4d372b"/>
    </radialGradient>
    <radialGradient cx="0" cy="0" gradientTransform="matrix(0.0245, 0.0, 0.0, 0.0245, -5.8, 28.15)" gradientUnits="userSpaceOnUse" id="gradient12" r="819.2" spreadMethod="pad">
      <stop offset="0.0" stop-color="#a83e3e"/>
      <stop offset="1.0" stop-color="#442222"/>
    </radialGradient>
    <radialGradient cx="0" cy="0" gradientTransform="matrix(0.0328, 0.0, 0.0, 0.0328, 10.45, 34.8)" gradientUnits="userSpaceOnUse" id="gradient13" r="819.2" spreadMethod="pad">
      <stop offset="0.0" stop-color="#a83e3e"/>
      <stop offset="1.0" stop-color="#442222"/>
    </radialGradient>
    <radialGradient cx="0" cy="0" gradientTransform="matrix(0.0214, 0.0, 0.0, 0.0214, 14.8, 25.35)" gradientUnits="userSpaceOnUse" id="gradient14" r="819.2" spreadMethod="pad">
      <stop offset="0.0" stop-color="#a83e3e"/>
      <stop offset="1.0" stop-color="#442222"/>
    </radialGradient>
    <radialGradient cx="0" cy="0" gradientTransform="matrix(0.0328, 0.0, 0.0, 0.0328, 10.45, 34.8)" gradientUnits="userSpaceOnUse" id="gradient15" r="819.2" spreadMethod="pad">
      <stop offset="0.0" stop-color="#f5cb23"/>
      <stop offset="1.0" stop-color="#c73916"/>
    </radialGradient>
    <radialGradient cx="0" cy="0" gradientTransform="matrix(0.0104, 0.0, 0.0, 0.0104, 2.9, -6.95)" gradientUnits="userSpaceOnUse" id="gradient16" r="819.2" spreadMethod="pad">
      <stop offset="0.0" stop-color="#f5cb23"/>
      <stop offset="1.0" stop-color="#c73916"/>
    </radialGradient>
    <radialGradient cx="0" cy="0" gradientTransform="matrix(0.0092, 0.0, 0.0, 0.0092, -3.0, -3.6)" gradientUnits="userSpaceOnUse" id="gradient17" r="819.2" spreadMethod="pad">
      <stop offset="0.0" stop-color="#d68432"/>
      <stop offset="1.0" stop-color="#a65837"/>
    </radialGradient>
    <radialGradient cx="0" cy="0" gradientTransform="matrix(0.0076, 0.0, 0.0, 0.0076, 3.0, 1.75)" gradientUnits="userSpaceOnUse" id="gradient18" r="819.2" spreadMethod="pad">
      <stop offset="0.0" stop-color="#9a5e21"/>
      <stop offset="1.0" stop-color="#733d26"/>
    </radialGradient>
    <radialGradient cx="0" cy="0" gradientTransform="matrix(0.0068, 0.0, 0.0, 0.0068, 3.25, -5.2)" gradientUnits="userSpaceOnUse" id="gradient19" r="819.2" spreadMethod="pad">
      <stop offset="0.0" stop-color="#ed981b"/>
      <stop offset="1.0" stop-color="#794028"/>
    </radialGradient>
    <g id="sprite2" transform="matrix(1.0, 0.0, 0.0, 1.0, 11.7, 9.35)">
      <use ffdec:characterId="1329" height="18.8" transform="matrix(1.0, 0.0, 0.0, 1.0, -11.7, -9.35)" width="16.2" xlink:href="#shape5"/>
      <filter id="filter1">
        <feColorMatrix in="SourceGraphic" result="filterResult3" type="matrix" values="0 0 0 0 1.0,0 0 0 0 0.8,0 0 0 0 0.0,0 0 0 1 0"/>
        <feConvolveMatrix divisor="25.0" in="filterResult3" kernelMatrix="1 1 1 1 1 1 1 1 1 1 1 1 1 1 1 1 1 1 1 1 1 1 1 1 1" order="5 5" result="filterResult4"/>
        <feComposite in="SourceGraphic" in2="filterResult4" operator="over" result="filterResult5"/>
      </filter>
      <use ffdec:characterId="706" filter="url(#filter1)" height="6.05" transform="matrix(1.0, 0.0, 0.0, 1.0, -11.65, 0.6)" width="14.0" xlink:href="#sprite3"/>
    </g>
    <g id="shape5" transform="matrix(1.0, 0.0, 0.0, 1.0, 11.7, 9.35)">
      <path d="M1.45 -9.35 Q1.0 -5.4 4.5 -3.55 L2.55 0.45 2.35 0.6 Q-3.35 4.2 -9.05 3.4 L-10.2 3.2 Q-3.25 -0.75 1.45 -9.35" fill="url(#gradient20)" fill-rule="evenodd" stroke="none"/>
      <path d="M1.0 4.5 L0.7 6.75 Q-5.4 9.8 -11.7 9.4 -10.45 8.0 -10.0 6.5 -4.95 7.15 1.0 4.5" fill="url(#gradient21)" fill-rule="evenodd" stroke="none"/>
      <path d="M1.45 -9.35 Q-3.25 -0.75 -10.2 3.2 L-9.05 3.4 Q-3.35 4.2 2.35 0.6 L2.55 0.45 4.5 -3.55 Q1.0 -5.4 1.45 -9.35 M1.0 4.5 L1.95 4.05 2.35 0.6 M1.0 4.5 Q-4.95 7.15 -10.0 6.5 -10.45 8.0 -11.7 9.4 -5.4 9.8 0.7 6.75 L1.0 4.5 M-9.05 3.4 Q-9.9 5.05 -11.65 6.15 L-10.0 6.5" fill="none" stroke="#000000" stroke-linecap="round" stroke-linejoin="round" stroke-width="0.05"/>
    </g>
    <radialGradient cx="0" cy="0" gradientTransform="matrix(0.0137, 0.0, 0.0, 0.0137, -3.25, 0.85)" gradientUnits="userSpaceOnUse" id="gradient20" r="819.2" spreadMethod="pad">
      <stop offset="0.0" stop-color="#f5cb23"/>
      <stop offset="1.0" stop-color="#c73916"/>
    </radialGradient>
    <radialGradient cx="0" cy="0" gradientTransform="matrix(0.0089, 0.0, 0.0, 0.0089, -4.85, 7.0)" gradientUnits="userSpaceOnUse" id="gradient21" r="819.2" spreadMethod="pad">
      <stop offset="0.0" stop-color="#f5cb23"/>
      <stop offset="1.0" stop-color="#c73916"/>
    </radialGradient>
    <g id="sprite3" transform="matrix(1.0, 0.0, 0.0, 1.0, 7.0, 3.0)">
      <use ffdec:characterId="705" height="6.05" transform="matrix(1.0, 0.0, 0.0, 1.0, -7.0, -3.0)" width="14.0" xlink:href="#shape6"/>
    </g>
    <g id="shape6" transform="matrix(1.0, 0.0, 0.0, 1.0, 7.0, 3.0)">
      <path d="M-5.35 2.9 L-7.0 2.55 Q-5.25 1.45 -4.4 -0.2 1.3 0.6 7.0 -3.0 L6.6 0.45 Q6.1 0.7 5.65 0.9 -0.3 3.55 -5.35 2.9" fill="#ffffff" fill-rule="evenodd" stroke="none"/>
    </g>
    <g id="shape7" transform="matrix(1.0, 0.0, 0.0, 1.0, 15.5, 15.5)">
      <path d="M15.0 15.0 L-15.0 15.0 -15.0 -15.0 15.0 -15.0 15.0 15.0 Z" fill="none" stroke="#000000" stroke-linecap="round" stroke-linejoin="round" stroke-width="1.0"/>
    </g>
  </defs>
</svg>
