<?xml version="1.0" encoding="UTF-8" standalone="no"?>
<svg xmlns:ffdec="https://www.free-decompiler.com/flash" xmlns:xlink="http://www.w3.org/1999/xlink" ffdec:objectType="frame" height="306.9px" width="203.9px" xmlns="http://www.w3.org/2000/svg">
  <g transform="matrix(2.0, 0.0, 0.0, 2.0, 105.4, 149.3)">
    <use ffdec:characterId="1928" height="31.0" transform="matrix(1.0, 0.0, 0.0, 1.0, -15.5, -15.5)" width="31.0" xlink:href="#shape0"/>
    <clipPath id="clipPath0" transform="matrix(1.0, 0.0, 0.0, 1.0, 0.0, 0.0)">
      <path d="M15.0 -15.0 L15.0 15.0 -15.0 15.0 -15.0 -15.0 15.0 -15.0" fill="#33cc33" fill-rule="evenodd" stroke="none"/>
      <path d="M15.0 -15.0 L15.0 15.0 -15.0 15.0 -15.0 -15.0 15.0 -15.0 Z" fill="none" stroke="#000000" stroke-linecap="round" stroke-linejoin="round" stroke-width="1.0"/>
    </clipPath>
    <g clip-path="url(#clipPath0)">
      <use ffdec:characterId="1586" height="63.65" transform="matrix(0.9256, -0.3755, 0.3755, 0.9256, -24.4242, -19.0948)" width="23.7" xlink:href="#sprite0"/>
    </g>
    <use ffdec:characterId="1912" height="31.0" transform="matrix(1.0, 0.0, 0.0, 1.0, -15.5, -15.5)" width="31.0" xlink:href="#shape4"/>
  </g>
  <defs>
    <g id="shape0" transform="matrix(1.0, 0.0, 0.0, 1.0, 15.5, 15.5)">
      <path d="M15.0 15.0 L-15.0 15.0 -15.0 -15.0 15.0 -15.0 15.0 15.0" fill="#000000" fill-rule="evenodd" stroke="none"/>
      <path d="M15.0 15.0 L-15.0 15.0 -15.0 -15.0 15.0 -15.0 15.0 15.0 Z" fill="none" stroke="#000000" stroke-linecap="round" stroke-linejoin="round" stroke-width="1.0"/>
    </g>
    <g id="sprite0" transform="matrix(1.0, 0.0, 0.0, 1.0, 12.95, 36.85)">
      <use ffdec:characterId="1585" height="60.9" transform="matrix(1.0, 0.0, 0.0, 1.0, -6.7, -34.1)" width="13.25" xlink:href="#shape2"/>
      <use ffdec:characterId="105" height="45.1" transform="matrix(0.0436, 0.0149, -0.1831, 0.5365, -4.7084, -36.8402)" width="355.1" xlink:href="#shape3"/>
    </g>
    <g id="shape2" transform="matrix(1.0, 0.0, 0.0, 1.0, 6.7, 34.1)">
      <path d="M3.1 -29.65 L2.85 -26.2 Q2.0 -24.75 1.4 -22.95 -2.75 -10.35 6.55 19.9 4.2 14.45 1.1 11.1 L-1.2 8.9 Q-3.45 -12.55 -0.05 -23.35 1.15 -27.2 3.1 -29.65" fill="url(#gradient0)" fill-rule="evenodd" stroke="none"/>
      <path d="M1.1 11.1 Q-0.95 17.7 1.1 26.8 L-1.65 26.3 -3.85 7.2 -1.2 8.9 1.1 11.1" fill="url(#gradient1)" fill-rule="evenodd" stroke="none"/>
      <path d="M3.1 -30.2 L3.1 -29.65 Q1.15 -27.2 -0.05 -23.35 -3.45 -12.55 -1.2 8.9 L-3.85 7.2 -4.05 7.1 Q-5.3 6.45 -6.65 6.05 -7.4 -19.35 3.35 -34.1 L3.1 -30.2" fill="url(#gradient2)" fill-rule="evenodd" stroke="none"/>
      <path d="M3.1 -30.2 L3.1 -29.65 M2.85 -26.2 Q2.0 -24.75 1.4 -22.95 -2.75 -10.35 6.55 19.9 4.2 14.45 1.1 11.1 L-1.2 8.9 -3.85 7.2 M-4.05 7.1 Q-5.3 6.45 -6.65 6.05" fill="none" stroke="#000000" stroke-linecap="round" stroke-linejoin="round" stroke-width="0.05"/>
      <path d="M3.1 -29.65 L2.85 -26.2 M1.1 11.1 Q-0.95 17.7 1.1 26.8 L-1.65 26.3 -3.85 7.2 -4.05 7.1 M-6.65 6.05 Q-7.4 -19.35 3.35 -34.1 L3.1 -30.2" fill="none" stroke="#000000" stroke-linecap="round" stroke-linejoin="round" stroke-width="0.05"/>
    </g>
    <radialGradient cx="0" cy="0" gradientTransform="matrix(0.0486, 0.0, 0.0, 0.0486, -0.75, -19.25)" gradientUnits="userSpaceOnUse" id="gradient0" r="819.2" spreadMethod="pad">
      <stop offset="0.0" stop-color="#777777"/>
      <stop offset="0.1607843137254902" stop-color="#ffffff"/>
      <stop offset="0.3333333333333333" stop-color="#555555"/>
      <stop offset="0.7725490196078432" stop-color="#7b7b7b"/>
      <stop offset="1.0" stop-color="#4d4d4d"/>
    </radialGradient>
    <radialGradient cx="0" cy="0" gradientTransform="matrix(0.022, 0.0, 0.0, 0.022, 0.25, 24.5)" gradientUnits="userSpaceOnUse" id="gradient1" r="819.2" spreadMethod="pad">
      <stop offset="0.0" stop-color="#3e3e39"/>
      <stop offset="0.9882352941176471" stop-color="#15130d"/>
    </radialGradient>
    <radialGradient cx="0" cy="0" gradientTransform="matrix(0.0366, 0.0, 0.0, 0.0366, -3.25, -21.0)" gradientUnits="userSpaceOnUse" id="gradient2" r="819.2" spreadMethod="pad">
      <stop offset="0.0" stop-color="#354e29"/>
      <stop offset="0.9882352941176471" stop-color="#0e1410"/>
    </radialGradient>
    <g id="shape3" transform="matrix(1.0, 0.0, 0.0, 1.0, 177.55, 22.55)">
      <path d="M125.55 -15.95 Q177.55 -9.35 177.55 0.0 177.55 9.35 125.55 15.95 73.6 22.55 0.0 22.55 -73.6 22.55 -125.55 15.95 -177.55 9.35 -177.55 0.0 -177.55 -9.35 -125.55 -15.95 -73.6 -22.55 0.0 -22.55 73.6 -22.55 125.55 -15.95" fill="url(#gradient3)" fill-rule="evenodd" stroke="none"/>
    </g>
    <radialGradient cx="0" cy="0" gradientTransform="matrix(0.2204, 0.0, 0.0, 0.028, -0.05, 0.0)" gradientUnits="userSpaceOnUse" id="gradient3" r="819.2" spreadMethod="pad">
      <stop offset="0.06274509803921569" stop-color="#66ff00"/>
      <stop offset="0.12941176470588237" stop-color="#66ff00" stop-opacity="0.8156863"/>
      <stop offset="0.21176470588235294" stop-color="#66ff00" stop-opacity="0.7647059"/>
      <stop offset="0.44313725490196076" stop-color="#66ff00" stop-opacity="0.21176471"/>
      <stop offset="0.9098039215686274" stop-color="#66ff00" stop-opacity="0.0"/>
    </radialGradient>
    <g id="shape4" transform="matrix(1.0, 0.0, 0.0, 1.0, 15.5, 15.5)">
      <path d="M15.0 15.0 L-15.0 15.0 -15.0 -15.0 15.0 -15.0 15.0 15.0 Z" fill="none" stroke="#000000" stroke-linecap="round" stroke-linejoin="round" stroke-width="1.0"/>
    </g>
  </defs>
</svg>
