<?xml version="1.0" encoding="UTF-8" standalone="no"?>
<svg xmlns:ffdec="https://www.free-decompiler.com/flash" xmlns:xlink="http://www.w3.org/1999/xlink" ffdec:objectType="frame" height="306.9px" width="203.9px" xmlns="http://www.w3.org/2000/svg">
  <g transform="matrix(2.0, 0.0, 0.0, 2.0, 105.4, 149.3)">
    <use ffdec:characterId="1928" height="31.0" transform="matrix(1.0, 0.0, 0.0, 1.0, -15.5, -15.5)" width="31.0" xlink:href="#shape0"/>
    <clipPath id="clipPath0" transform="matrix(1.0, 0.0, 0.0, 1.0, 0.0, 0.0)">
      <path d="M15.0 -15.0 L15.0 15.0 -15.0 15.0 -15.0 -15.0 15.0 -15.0" fill="#33cc33" fill-rule="evenodd" stroke="none"/>
      <path d="M15.0 -15.0 L15.0 15.0 -15.0 15.0 -15.0 -15.0 15.0 -15.0 Z" fill="none" stroke="#000000" stroke-linecap="round" stroke-linejoin="round" stroke-width="1.0"/>
    </clipPath>
    <g clip-path="url(#clipPath0)">
      <use ffdec:characterId="1766" height="82.25" transform="matrix(0.9337, 0.3549, -0.3549, 0.9337, 2.7722, -55.5213)" width="31.8" xlink:href="#sprite0"/>
    </g>
    <use ffdec:characterId="1912" height="31.0" transform="matrix(1.0, 0.0, 0.0, 1.0, -15.5, -15.5)" width="31.0" xlink:href="#shape4"/>
  </g>
  <defs>
    <g id="shape0" transform="matrix(1.0, 0.0, 0.0, 1.0, 15.5, 15.5)">
      <path d="M15.0 15.0 L-15.0 15.0 -15.0 -15.0 15.0 -15.0 15.0 15.0" fill="#000000" fill-rule="evenodd" stroke="none"/>
      <path d="M15.0 15.0 L-15.0 15.0 -15.0 -15.0 15.0 -15.0 15.0 15.0 Z" fill="none" stroke="#000000" stroke-linecap="round" stroke-linejoin="round" stroke-width="1.0"/>
    </g>
    <g id="sprite0" transform="matrix(1.0, 0.0, 0.0, 1.0, 16.45, 48.55)">
      <use ffdec:characterId="1765" height="82.25" transform="matrix(1.0, 0.0, 0.0, 1.0, -8.85, -48.55)" width="14.25" xlink:href="#shape2"/>
      <use ffdec:characterId="105" height="45.1" transform="matrix(-0.0805, 0.0127, -0.0701, -0.4434, 15.3288, 17.789)" width="355.1" xlink:href="#shape3"/>
    </g>
    <g id="shape2" transform="matrix(1.0, 0.0, 0.0, 1.0, 8.85, 48.55)">
      <path d="M-2.55 27.15 L-2.55 8.65 2.6 7.25 -0.4 33.7 -2.55 27.15" fill="url(#gradient0)" fill-rule="evenodd" stroke="none"/>
      <path d="M-2.55 27.15 L-2.55 8.65 2.6 7.25 -0.4 33.7 -2.55 27.15 Z" fill="none" stroke="#000000" stroke-linecap="round" stroke-linejoin="round" stroke-width="0.05"/>
      <path d="M5.25 2.85 L5.3 7.0 1.55 8.15 Q0.9 7.25 -0.5 7.25 -2.9 7.25 -3.0 9.55 L-6.15 10.55 -5.75 5.75 2.45 3.6 5.25 2.85" fill="url(#gradient1)" fill-rule="evenodd" stroke="none"/>
      <path d="M5.3 7.0 L5.4 13.25 -6.8 17.6 -6.15 10.55 -3.0 9.55 -3.0 9.75 Q-2.75 12.25 -0.5 12.25 2.0 12.25 2.0 9.7 L1.55 8.15 5.3 7.0" fill="url(#gradient2)" fill-rule="evenodd" stroke="none"/>
      <path d="M1.55 8.15 L2.0 9.7 Q2.0 12.25 -0.5 12.25 -2.75 12.25 -3.0 9.75 L-3.0 9.55 Q-2.9 7.25 -0.5 7.25 0.9 7.25 1.55 8.15" fill="#51f43e" fill-rule="evenodd" stroke="none"/>
      <path d="M-5.75 5.75 Q-3.8 -19.05 -3.95 -43.85 L-8.85 -48.55 2.05 -46.15 2.45 3.6 -5.75 5.75" fill="url(#gradient3)" fill-rule="evenodd" stroke="none"/>
      <path d="M2.05 -46.15 L4.55 -45.6 5.25 2.85 2.45 3.6 2.05 -46.15" fill="url(#gradient4)" fill-rule="evenodd" stroke="none"/>
      <path d="M2.05 -46.15 L4.55 -45.6 5.25 2.85 5.3 7.0 5.4 13.25 -6.8 17.6 -6.15 10.55 -5.75 5.75 Q-3.8 -19.05 -3.95 -43.85 L-8.85 -48.55 2.05 -46.15" fill="none" stroke="#000000" stroke-linecap="round" stroke-linejoin="round" stroke-width="0.05"/>
      <path d="M2.05 -46.15 L2.05 -46.7 M5.25 2.85 L2.45 3.6 -5.75 5.75" fill="none" stroke="#000000" stroke-linecap="round" stroke-linejoin="round" stroke-width="0.05"/>
    </g>
    <radialGradient cx="0" cy="0" gradientTransform="matrix(0.023, 0.0, 0.0, 0.023, -0.3, 25.9)" gradientUnits="userSpaceOnUse" id="gradient0" r="819.2" spreadMethod="pad">
      <stop offset="0.0" stop-color="#4d4d4d"/>
      <stop offset="1.0" stop-color="#151515"/>
    </radialGradient>
    <radialGradient cx="0" cy="0" gradientTransform="matrix(0.0187, 0.0, 0.0, 0.0187, 4.1, 6.8)" gradientUnits="userSpaceOnUse" id="gradient1" r="819.2" spreadMethod="pad">
      <stop offset="0.0" stop-color="#777777"/>
      <stop offset="1.0" stop-color="#404040"/>
    </radialGradient>
    <radialGradient cx="0" cy="0" gradientTransform="matrix(0.0187, 0.0, 0.0, 0.0187, 4.1, 6.8)" gradientUnits="userSpaceOnUse" id="gradient2" r="819.2" spreadMethod="pad">
      <stop offset="0.0" stop-color="#706243"/>
      <stop offset="1.0" stop-color="#392424"/>
    </radialGradient>
    <linearGradient gradientTransform="matrix(0.0142, -0.0042, 0.0091, 0.0312, -1.5, -23.0)" gradientUnits="userSpaceOnUse" id="gradient3" spreadMethod="pad" x1="-819.2" x2="819.2">
      <stop offset="0.0" stop-color="#7cc44d"/>
      <stop offset="0.5176470588235295" stop-color="#5b6b71"/>
      <stop offset="0.5411764705882353" stop-color="#484848"/>
      <stop offset="0.792156862745098" stop-color="#60757d"/>
      <stop offset="1.0" stop-color="#505b6b"/>
    </linearGradient>
    <linearGradient gradientTransform="matrix(0.0142, -0.0042, 0.0091, 0.0312, -1.5, -23.0)" gradientUnits="userSpaceOnUse" id="gradient4" spreadMethod="pad" x1="-819.2" x2="819.2">
      <stop offset="0.30980392156862746" stop-color="#75f43e"/>
      <stop offset="0.5176470588235295" stop-color="#b7b7b7"/>
      <stop offset="0.5411764705882353" stop-color="#848484"/>
      <stop offset="0.792156862745098" stop-color="#e1e1e1"/>
      <stop offset="1.0" stop-color="#cccccc"/>
    </linearGradient>
    <g id="shape3" transform="matrix(1.0, 0.0, 0.0, 1.0, 177.55, 22.55)">
      <path d="M125.55 -15.95 Q177.55 -9.35 177.55 0.0 177.55 9.35 125.55 15.95 73.6 22.55 0.0 22.55 -73.6 22.55 -125.55 15.95 -177.55 9.35 -177.55 0.0 -177.55 -9.35 -125.55 -15.95 -73.6 -22.55 0.0 -22.55 73.6 -22.55 125.55 -15.95" fill="url(#gradient5)" fill-rule="evenodd" stroke="none"/>
    </g>
    <radialGradient cx="0" cy="0" gradientTransform="matrix(0.2204, 0.0, 0.0, 0.028, -0.05, 0.0)" gradientUnits="userSpaceOnUse" id="gradient5" r="819.2" spreadMethod="pad">
      <stop offset="0.06274509803921569" stop-color="#99cc00"/>
      <stop offset="0.12941176470588237" stop-color="#99cc00" stop-opacity="0.8156863"/>
      <stop offset="0.21176470588235294" stop-color="#99cc00" stop-opacity="0.7647059"/>
      <stop offset="0.44313725490196076" stop-color="#99cc00" stop-opacity="0.21176471"/>
      <stop offset="0.9098039215686274" stop-color="#99cc00" stop-opacity="0.0"/>
    </radialGradient>
    <g id="shape4" transform="matrix(1.0, 0.0, 0.0, 1.0, 15.5, 15.5)">
      <path d="M15.0 15.0 L-15.0 15.0 -15.0 -15.0 15.0 -15.0 15.0 15.0 Z" fill="none" stroke="#000000" stroke-linecap="round" stroke-linejoin="round" stroke-width="1.0"/>
    </g>
  </defs>
</svg>
