<?xml version="1.0" encoding="UTF-8" standalone="no"?>
<svg xmlns:ffdec="https://www.free-decompiler.com/flash" xmlns:xlink="http://www.w3.org/1999/xlink" ffdec:objectType="frame" height="306.9px" width="203.9px" xmlns="http://www.w3.org/2000/svg">
  <g transform="matrix(2.0, 0.0, 0.0, 2.0, 105.4, 149.3)">
    <use ffdec:characterId="1928" height="31.0" transform="matrix(1.0, 0.0, 0.0, 1.0, -15.5, -15.5)" width="31.0" xlink:href="#shape0"/>
    <clipPath id="clipPath0" transform="matrix(1.0, 0.0, 0.0, 1.0, 0.0, 0.0)">
      <path d="M15.0 -15.0 L15.0 15.0 -15.0 15.0 -15.0 -15.0 15.0 -15.0" fill="#33cc33" fill-rule="evenodd" stroke="none"/>
      <path d="M15.0 -15.0 L15.0 15.0 -15.0 15.0 -15.0 -15.0 15.0 -15.0 Z" fill="none" stroke="#000000" stroke-linecap="round" stroke-linejoin="round" stroke-width="1.0"/>
    </clipPath>
    <g clip-path="url(#clipPath0)">
      <use ffdec:characterId="965" height="55.25" transform="matrix(0.9851, -0.5195, 0.5195, 0.9851, -20.6205, -19.8798)" width="12.6" xlink:href="#sprite0"/>
    </g>
    <use ffdec:characterId="1912" height="31.0" transform="matrix(1.0, 0.0, 0.0, 1.0, -15.5, -15.5)" width="31.0" xlink:href="#shape4"/>
  </g>
  <defs>
    <g id="shape0" transform="matrix(1.0, 0.0, 0.0, 1.0, 15.5, 15.5)">
      <path d="M15.0 15.0 L-15.0 15.0 -15.0 -15.0 15.0 -15.0 15.0 15.0" fill="#000000" fill-rule="evenodd" stroke="none"/>
      <path d="M15.0 15.0 L-15.0 15.0 -15.0 -15.0 15.0 -15.0 15.0 15.0 Z" fill="none" stroke="#000000" stroke-linecap="round" stroke-linejoin="round" stroke-width="1.0"/>
    </g>
    <g id="sprite0" transform="matrix(1.0, 0.0, 0.0, 1.0, 6.35, 31.6)">
      <use ffdec:characterId="964" height="55.25" transform="matrix(1.0, 0.0, 0.0, 1.0, -6.35, -31.6)" width="12.6" xlink:href="#shape2"/>
      <filter id="filter0">
        <feColorMatrix in="SourceGraphic" result="filterResult0" type="matrix" values="0 0 0 0 0.0,0 0 0 0 0.8,0 0 0 0 1.0,0 0 0 1 0"/>
        <feConvolveMatrix divisor="16.0" in="filterResult0" kernelMatrix="1 1 1 1 1 1 1 1 1 1 1 1 1 1 1 1" order="4 4" result="filterResult1"/>
        <feComposite in="SourceGraphic" in2="filterResult1" operator="over" result="filterResult2"/>
      </filter>
      <use ffdec:characterId="60" filter="url(#filter0)" height="3.0" transform="matrix(1.0, 0.0, 0.0, 1.0, -1.5, -15.0)" width="3.0" xlink:href="#sprite1"/>
      <filter id="filter1">
        <feColorMatrix in="SourceGraphic" result="filterResult3" type="matrix" values="0 0 0 0 0.0,0 0 0 0 0.8,0 0 0 0 1.0,0 0 0 1 0"/>
        <feConvolveMatrix divisor="16.0" in="filterResult3" kernelMatrix="1 1 1 1 1 1 1 1 1 1 1 1 1 1 1 1" order="4 4" result="filterResult4"/>
        <feComposite in="SourceGraphic" in2="filterResult4" operator="over" result="filterResult5"/>
      </filter>
      <use ffdec:characterId="60" filter="url(#filter1)" height="3.0" transform="matrix(1.0, 0.0, 0.0, 1.0, -1.5, -8.0)" width="3.0" xlink:href="#sprite1"/>
    </g>
    <g id="shape2" transform="matrix(1.0, 0.0, 0.0, 1.0, 6.35, 31.6)">
      <path d="M1.35 -5.6 L1.35 -2.25 -1.3 -2.25 -1.3 -5.6 1.35 -5.6" fill="url(#gradient0)" fill-rule="evenodd" stroke="none"/>
      <path d="M1.35 -0.5 L1.35 2.25 1.45 2.25 1.45 4.75 -1.4 4.75 -1.4 2.25 -1.3 2.25 -1.3 -0.5 1.35 -0.5 M1.45 6.5 L1.45 11.75 -1.4 11.75 -1.4 6.5 1.45 6.5 M1.45 13.5 L1.45 18.75 -1.4 18.75 -1.4 13.5 1.45 13.5 M1.45 20.5 L1.45 23.65 -1.4 23.65 -1.4 20.5 1.45 20.5" fill="url(#gradient1)" fill-rule="evenodd" stroke="none"/>
      <path d="M1.35 -2.25 L1.5 -2.25 1.5 -0.5 1.35 -0.5 -1.3 -0.5 -1.5 -0.5 -1.5 -2.25 -1.3 -2.25 1.35 -2.25" fill="url(#gradient2)" fill-rule="evenodd" stroke="none"/>
      <path d="M1.45 4.75 L1.5 4.75 1.5 6.5 1.45 6.5 -1.4 6.5 -1.5 6.5 -1.5 4.75 -1.4 4.75 1.45 4.75" fill="url(#gradient3)" fill-rule="evenodd" stroke="none"/>
      <path d="M1.45 11.75 L1.5 11.75 1.5 13.5 1.45 13.5 -1.4 13.5 -1.5 13.5 -1.5 11.75 -1.4 11.75 1.45 11.75" fill="url(#gradient4)" fill-rule="evenodd" stroke="none"/>
      <path d="M1.45 18.75 L1.5 18.75 1.5 20.5 1.45 20.5 -1.4 20.5 -1.5 20.5 -1.5 18.75 -1.4 18.75 1.45 18.75" fill="url(#gradient5)" fill-rule="evenodd" stroke="none"/>
      <path d="M1.35 -5.6 L1.35 -31.6 4.0 -11.75 Q3.5 -5.15 6.25 -0.4 L1.45 2.25 1.35 2.25 1.35 -0.5 1.5 -0.5 1.5 -2.25 1.35 -2.25 1.35 -5.6" fill="url(#gradient6)" fill-rule="evenodd" stroke="none"/>
      <path d="M-1.4 2.25 L-6.35 -0.9 Q-3.55 -5.4 -3.95 -11.75 L-1.3 -31.5 -1.3 -5.6 -1.3 -2.25 -1.5 -2.25 -1.5 -0.5 -1.3 -0.5 -1.3 2.25 -1.4 2.25" fill="url(#gradient7)" fill-rule="evenodd" stroke="none"/>
      <path d="M1.45 2.25 L6.25 -0.4 Q3.5 -5.15 4.0 -11.75 L1.35 -31.6 1.35 -5.6 1.35 -2.25 1.5 -2.25 1.5 -0.5 1.35 -0.5 1.35 2.25 1.45 2.25 1.45 4.75 1.5 4.75 1.5 6.5 1.45 6.5 1.45 11.75 1.5 11.75 1.5 13.5 1.45 13.5 1.45 18.75 1.5 18.75 1.5 20.5 1.45 20.5 1.45 23.65 -1.4 23.65 -1.4 20.5 -1.5 20.5 -1.5 18.75 -1.4 18.75 -1.4 13.5 -1.5 13.5 -1.5 11.75 -1.4 11.75 -1.4 6.5 -1.5 6.5 -1.5 4.75 -1.4 4.75 -1.4 2.25 -6.35 -0.9 Q-3.55 -5.4 -3.95 -11.75 L-1.3 -31.5 -1.3 -5.6 1.35 -5.6 M-1.3 -2.25 L-1.5 -2.25 -1.5 -0.5 -1.3 -0.5 1.35 -0.5 M-1.3 -5.6 L-1.3 -2.25 1.35 -2.25 M-1.3 -0.5 L-1.3 2.25 -1.4 2.25 M-1.4 6.5 L1.45 6.5 M-1.4 4.75 L1.45 4.75 M1.45 18.75 L-1.4 18.75 M-1.4 20.5 L1.45 20.5 M-1.4 11.75 L1.45 11.75 M1.45 13.5 L-1.4 13.5" fill="none" stroke="#000000" stroke-linecap="round" stroke-linejoin="round" stroke-width="0.05"/>
    </g>
    <linearGradient gradientTransform="matrix(0.0016, 0.0, 0.0, 0.002, 0.0, -3.95)" gradientUnits="userSpaceOnUse" id="gradient0" spreadMethod="pad" x1="-819.2" x2="819.2">
      <stop offset="0.0" stop-color="#393e4f"/>
      <stop offset="1.0" stop-color="#28251c"/>
    </linearGradient>
    <linearGradient gradientTransform="matrix(0.0017, 0.0, 0.0, 0.0147, 0.0, 11.55)" gradientUnits="userSpaceOnUse" id="gradient1" spreadMethod="pad" x1="-819.2" x2="819.2">
      <stop offset="0.0" stop-color="#393e4f"/>
      <stop offset="1.0" stop-color="#28251c"/>
    </linearGradient>
    <linearGradient gradientTransform="matrix(0.0018, 0.0, 0.0, 0.0011, 0.0, -1.4)" gradientUnits="userSpaceOnUse" id="gradient2" spreadMethod="pad" x1="-819.2" x2="819.2">
      <stop offset="0.0" stop-color="#efece4"/>
      <stop offset="0.41568627450980394" stop-color="#8d662e"/>
      <stop offset="0.42745098039215684" stop-color="#422c0b"/>
      <stop offset="0.7294117647058823" stop-color="#bf8837"/>
      <stop offset="1.0" stop-color="#cba670"/>
    </linearGradient>
    <linearGradient gradientTransform="matrix(0.0018, 0.0, 0.0, 0.0011, 0.0, 5.6)" gradientUnits="userSpaceOnUse" id="gradient3" spreadMethod="pad" x1="-819.2" x2="819.2">
      <stop offset="0.0" stop-color="#efece4"/>
      <stop offset="0.41568627450980394" stop-color="#8d662e"/>
      <stop offset="0.42745098039215684" stop-color="#422c0b"/>
      <stop offset="0.7294117647058823" stop-color="#bf8837"/>
      <stop offset="1.0" stop-color="#cba670"/>
    </linearGradient>
    <linearGradient gradientTransform="matrix(0.0018, 0.0, 0.0, 0.0011, 0.0, 12.6)" gradientUnits="userSpaceOnUse" id="gradient4" spreadMethod="pad" x1="-819.2" x2="819.2">
      <stop offset="0.0" stop-color="#efece4"/>
      <stop offset="0.41568627450980394" stop-color="#8d662e"/>
      <stop offset="0.42745098039215684" stop-color="#422c0b"/>
      <stop offset="0.7294117647058823" stop-color="#bf8837"/>
      <stop offset="1.0" stop-color="#cba670"/>
    </linearGradient>
    <linearGradient gradientTransform="matrix(0.0018, 0.0, 0.0, 0.0011, 0.0, 19.6)" gradientUnits="userSpaceOnUse" id="gradient5" spreadMethod="pad" x1="-819.2" x2="819.2">
      <stop offset="0.0" stop-color="#efece4"/>
      <stop offset="0.41568627450980394" stop-color="#8d662e"/>
      <stop offset="0.42745098039215684" stop-color="#422c0b"/>
      <stop offset="0.7294117647058823" stop-color="#bf8837"/>
      <stop offset="1.0" stop-color="#cba670"/>
    </linearGradient>
    <linearGradient gradientTransform="matrix(0.003, 0.0, 0.0, 0.0118, 3.8, -7.45)" gradientUnits="userSpaceOnUse" id="gradient6" spreadMethod="pad" x1="-819.2" x2="819.2">
      <stop offset="0.0" stop-color="#8fe7e7"/>
      <stop offset="0.41568627450980394" stop-color="#8d662e"/>
      <stop offset="0.42745098039215684" stop-color="#422c0b"/>
      <stop offset="0.7294117647058823" stop-color="#bf8837"/>
      <stop offset="1.0" stop-color="#cba670"/>
    </linearGradient>
    <linearGradient gradientTransform="matrix(-0.0031, 0.0, 0.0, -0.0118, -3.8, -7.4)" gradientUnits="userSpaceOnUse" id="gradient7" spreadMethod="pad" x1="-819.2" x2="819.2">
      <stop offset="0.0" stop-color="#8fe7e7"/>
      <stop offset="0.41568627450980394" stop-color="#8d662e"/>
      <stop offset="0.42745098039215684" stop-color="#422c0b"/>
      <stop offset="0.7294117647058823" stop-color="#bf8837"/>
      <stop offset="1.0" stop-color="#cba670"/>
    </linearGradient>
    <g id="sprite1" transform="matrix(1.0, 0.0, 0.0, 1.0, 1.5, 1.5)">
      <use ffdec:characterId="59" height="1.3" transform="matrix(0.0046, 0.0, 0.0, 2.3077, -1.5245, -1.5116)" width="653.2" xlink:href="#shape3"/>
    </g>
    <g id="shape3" transform="matrix(1.0, 0.0, 0.0, 1.0, 277.5, 12.55)">
      <path d="M36.7 -12.55 L276.3 -12.4 Q375.7 -12.2 375.7 -11.9 375.7 -11.65 276.3 -11.45 L36.7 -11.25 -203.0 -11.45 Q-252.65 -11.55 -277.5 -11.9 -252.65 -12.3 -203.0 -12.4 L36.7 -12.55" fill="#ffffff" fill-rule="evenodd" stroke="none"/>
    </g>
    <g id="shape4" transform="matrix(1.0, 0.0, 0.0, 1.0, 15.5, 15.5)">
      <path d="M15.0 15.0 L-15.0 15.0 -15.0 -15.0 15.0 -15.0 15.0 15.0 Z" fill="none" stroke="#000000" stroke-linecap="round" stroke-linejoin="round" stroke-width="1.0"/>
    </g>
  </defs>
</svg>
