<?xml version="1.0" encoding="UTF-8" standalone="no"?>
<svg xmlns:ffdec="https://www.free-decompiler.com/flash" xmlns:xlink="http://www.w3.org/1999/xlink" ffdec:objectType="frame" height="306.9px" width="203.9px" xmlns="http://www.w3.org/2000/svg">
  <g transform="matrix(2.0, 0.0, 0.0, 2.0, 105.4, 149.3)">
    <use ffdec:characterId="1928" height="31.0" transform="matrix(1.0, 0.0, 0.0, 1.0, -15.5, -15.5)" width="31.0" xlink:href="#shape0"/>
    <clipPath id="clipPath0" transform="matrix(1.0, 0.0, 0.0, 1.0, 0.0, 0.0)">
      <path d="M15.0 -15.0 L15.0 15.0 -15.0 15.0 -15.0 -15.0 15.0 -15.0" fill="#33cc33" fill-rule="evenodd" stroke="none"/>
      <path d="M15.0 -15.0 L15.0 15.0 -15.0 15.0 -15.0 -15.0 15.0 -15.0 Z" fill="none" stroke="#000000" stroke-linecap="round" stroke-linejoin="round" stroke-width="1.0"/>
    </clipPath>
    <g clip-path="url(#clipPath0)">
      <use ffdec:characterId="955" height="64.7" transform="matrix(0.87, 0.4914, -0.4914, 0.87, 5.7947, -35.1443)" width="27.3" xlink:href="#sprite0"/>
    </g>
    <use ffdec:characterId="1912" height="31.0" transform="matrix(1.0, 0.0, 0.0, 1.0, -15.5, -15.5)" width="31.0" xlink:href="#shape4"/>
  </g>
  <defs>
    <g id="shape0" transform="matrix(1.0, 0.0, 0.0, 1.0, 15.5, 15.5)">
      <path d="M15.0 15.0 L-15.0 15.0 -15.0 -15.0 15.0 -15.0 15.0 15.0" fill="#000000" fill-rule="evenodd" stroke="none"/>
      <path d="M15.0 15.0 L-15.0 15.0 -15.0 -15.0 15.0 -15.0 15.0 15.0 Z" fill="none" stroke="#000000" stroke-linecap="round" stroke-linejoin="round" stroke-width="1.0"/>
    </g>
    <g id="sprite0" transform="matrix(1.0, 0.0, 0.0, 1.0, 14.3, 36.4)">
      <use ffdec:characterId="954" height="46.15" transform="matrix(1.0, 0.0, 0.0, 1.0, -3.8, -17.85)" width="5.25" xlink:href="#shape2"/>
      <use ffdec:characterId="105" height="45.1" transform="matrix(-0.0583, 0.0092, -0.1457, -0.9221, 12.995, 5.2067)" width="355.1" xlink:href="#shape3"/>
    </g>
    <g id="shape2" transform="matrix(1.0, 0.0, 0.0, 1.0, 3.8, 17.85)">
      <path d="M0.6 17.7 Q-0.2 22.7 -0.1 27.6 -2.35 29.15 -3.8 27.3 L-2.35 17.2 Q-0.6 18.4 0.6 17.7" fill="#373737" fill-rule="evenodd" stroke="none"/>
      <path d="M1.2 14.45 L0.6 17.7 Q-0.6 18.4 -2.35 17.2 L-1.95 14.45 Q-0.4 15.4 1.2 14.45" fill="#524636" fill-rule="evenodd" stroke="none"/>
      <path d="M-1.95 14.45 L-1.95 14.2 Q-0.4 -1.5 -2.1 -17.85 L0.7 -12.7 Q1.9 1.2 1.2 14.45 -0.4 15.4 -1.95 14.45" fill="url(#gradient0)" fill-rule="evenodd" stroke="none"/>
      <path d="M-1.95 14.45 L-1.95 14.2 Q-0.4 -1.5 -2.1 -17.85 L0.7 -12.7 Q1.9 1.2 1.2 14.45 L0.6 17.7 Q-0.2 22.7 -0.1 27.6 -2.35 29.15 -3.8 27.3 L-2.35 17.2 -1.95 14.45 Q-0.4 15.4 1.2 14.45 M-2.35 17.2 Q-0.6 18.4 0.6 17.7" fill="none" stroke="#000000" stroke-linecap="round" stroke-linejoin="round" stroke-width="0.05"/>
    </g>
    <linearGradient gradientTransform="matrix(0.0088, -0.0142, 0.0103, 0.0064, -0.9, -1.0)" gradientUnits="userSpaceOnUse" id="gradient0" spreadMethod="pad" x1="-819.2" x2="819.2">
      <stop offset="0.0" stop-color="#1a4a13"/>
      <stop offset="1.0" stop-color="#91e33e"/>
    </linearGradient>
    <g id="shape3" transform="matrix(1.0, 0.0, 0.0, 1.0, 177.55, 22.55)">
      <path d="M125.55 -15.95 Q177.55 -9.35 177.55 0.0 177.55 9.35 125.55 15.95 73.6 22.55 0.0 22.55 -73.6 22.55 -125.55 15.95 -177.55 9.35 -177.55 0.0 -177.55 -9.35 -125.55 -15.95 -73.6 -22.55 0.0 -22.55 73.6 -22.55 125.55 -15.95" fill="url(#gradient1)" fill-rule="evenodd" stroke="none"/>
    </g>
    <radialGradient cx="0" cy="0" gradientTransform="matrix(0.2204, 0.0, 0.0, 0.028, -0.05, 0.0)" gradientUnits="userSpaceOnUse" id="gradient1" r="819.2" spreadMethod="pad">
      <stop offset="0.06274509803921569" stop-color="#3cff00" stop-opacity="0.69803923"/>
      <stop offset="0.12941176470588237" stop-color="#3cff00" stop-opacity="0.5686275"/>
      <stop offset="0.21176470588235294" stop-color="#3cff00" stop-opacity="0.53333336"/>
      <stop offset="0.44313725490196076" stop-color="#3cff00" stop-opacity="0.14509805"/>
      <stop offset="0.9098039215686274" stop-color="#3cff00" stop-opacity="0.0"/>
    </radialGradient>
    <g id="shape4" transform="matrix(1.0, 0.0, 0.0, 1.0, 15.5, 15.5)">
      <path d="M15.0 15.0 L-15.0 15.0 -15.0 -15.0 15.0 -15.0 15.0 15.0 Z" fill="none" stroke="#000000" stroke-linecap="round" stroke-linejoin="round" stroke-width="1.0"/>
    </g>
  </defs>
</svg>
