<?xml version="1.0" encoding="UTF-8" standalone="no"?>
<svg xmlns:ffdec="https://www.free-decompiler.com/flash" xmlns:xlink="http://www.w3.org/1999/xlink" ffdec:objectType="frame" height="306.9px" width="203.9px" xmlns="http://www.w3.org/2000/svg">
  <g transform="matrix(2.0, 0.0, 0.0, 2.0, 105.4, 149.3)">
    <use ffdec:characterId="1928" height="31.0" transform="matrix(1.0, 0.0, 0.0, 1.0, -15.5, -15.5)" width="31.0" xlink:href="#shape0"/>
    <clipPath id="clipPath0" transform="matrix(1.0, 0.0, 0.0, 1.0, 0.0, 0.0)">
      <path d="M15.0 -15.0 L15.0 15.0 -15.0 15.0 -15.0 -15.0 15.0 -15.0" fill="#33cc33" fill-rule="evenodd" stroke="none"/>
      <path d="M15.0 -15.0 L15.0 15.0 -15.0 15.0 -15.0 -15.0 15.0 -15.0 Z" fill="none" stroke="#000000" stroke-linecap="round" stroke-linejoin="round" stroke-width="1.0"/>
    </clipPath>
    <g clip-path="url(#clipPath0)">
      <use ffdec:characterId="1885" height="85.5" transform="matrix(0.7518, 0.3083, -0.3083, 0.7518, 8.8464, -41.2486)" width="17.5" xlink:href="#sprite0"/>
    </g>
    <use ffdec:characterId="1912" height="31.0" transform="matrix(1.0, 0.0, 0.0, 1.0, -15.5, -15.5)" width="31.0" xlink:href="#shape4"/>
  </g>
  <defs>
    <g id="shape0" transform="matrix(1.0, 0.0, 0.0, 1.0, 15.5, 15.5)">
      <path d="M15.0 15.0 L-15.0 15.0 -15.0 -15.0 15.0 -15.0 15.0 15.0" fill="#000000" fill-rule="evenodd" stroke="none"/>
      <path d="M15.0 15.0 L-15.0 15.0 -15.0 -15.0 15.0 -15.0 15.0 15.0 Z" fill="none" stroke="#000000" stroke-linecap="round" stroke-linejoin="round" stroke-width="1.0"/>
    </g>
    <g id="sprite0" transform="matrix(1.0, 0.0, 0.0, 1.0, 8.65, 57.9)">
      <use ffdec:characterId="1884" height="85.5" transform="matrix(1.0, 0.0, 0.0, 1.0, -8.65, -57.9)" width="17.5" xlink:href="#shape2"/>
      <filter id="filter0">
        <feFlood flood-color="#ff9933" flood-opacity="1.0" result="filterResult0"/>
        <feComposite in="filterResult0" in2="SourceGraphic" operator="out" result="filterResult1"/>
        <feConvolveMatrix divisor="25.0" in="filterResult1" kernelMatrix="1 1 1 1 1 1 1 1 1 1 1 1 1 1 1 1 1 1 1 1 1 1 1 1 1" order="5 5" result="filterResult2"/>
        <feComposite in="filterResult2" in2="SourceGraphic" operator="in" result="filterResult3"/>
        <feComposite in="filterResult3" in2="SourceGraphic" operator="over" result="filterResult4"/>
        <feColorMatrix in="filterResult4" result="filterResult5" type="matrix" values="0 0 0 0 1.0,0 0 0 0 0.2,0 0 0 0 0.0,0 0 0 1 0"/>
        <feConvolveMatrix divisor="25.0" in="filterResult5" kernelMatrix="1 1 1 1 1 1 1 1 1 1 1 1 1 1 1 1 1 1 1 1 1 1 1 1 1" order="5 5" result="filterResult6"/>
        <feComposite in="filterResult4" in2="filterResult6" operator="over" result="filterResult7"/>
      </filter>
      <use ffdec:characterId="1883" filter="url(#filter0)" height="37.45" transform="matrix(1.0, 0.0, 0.0, 1.0, -4.75, -39.5)" width="6.75" xlink:href="#sprite1"/>
    </g>
    <g id="shape2" transform="matrix(1.0, 0.0, 0.0, 1.0, 8.65, 57.9)">
      <path d="M0.75 2.35 L1.5 5.35 -1.5 5.35 -1.5 1.1 0.75 2.35 M1.5 11.85 L1.5 15.4 -1.5 13.45 -1.5 11.85 1.5 11.85 M1.5 18.85 L1.5 22.75 -1.5 20.2 -1.5 16.5 1.5 18.85 M1.5 26.0 L1.5 27.6 -1.5 27.6 -1.5 23.7 1.5 26.0" fill="url(#gradient0)" fill-rule="evenodd" stroke="none"/>
      <path d="M1.5 7.85 L1.5 9.35 -1.5 9.35 -1.5 7.85 1.5 7.85 M1.5 15.4 L1.5 18.85 -1.5 16.5 -1.5 13.45 1.5 15.4 M1.5 22.75 L1.5 26.0 -1.5 23.7 -1.5 20.2 1.5 22.75" fill="url(#gradient1)" fill-rule="evenodd" stroke="none"/>
      <path d="M-7.0 -47.05 L-8.65 -57.9 Q-6.0 -48.4 5.6 -36.9 L8.85 5.1 Q5.4 -15.8 2.6 -35.4 L-7.0 -47.05" fill="url(#gradient2)" fill-rule="evenodd" stroke="none"/>
      <path d="M1.5 5.35 L5.85 5.35 5.85 7.85 1.5 7.85 -1.5 7.85 -6.15 7.85 -6.15 5.35 -1.5 5.35 1.5 5.35" fill="url(#gradient3)" fill-rule="evenodd" stroke="none"/>
      <path d="M1.5 9.35 L3.1 9.35 3.1 11.85 1.5 11.85 -1.5 11.85 -3.4 11.85 -3.4 9.35 -1.5 9.35 1.5 9.35" fill="url(#gradient4)" fill-rule="evenodd" stroke="none"/>
      <path d="M8.85 5.1 Q3.85 0.25 0.5 1.85 L-1.75 0.6 -6.9 -4.15 Q-2.4 -23.2 -7.0 -47.05 L2.6 -35.4 Q5.4 -15.8 8.85 5.1" fill="url(#gradient5)" fill-rule="evenodd" stroke="none"/>
      <path d="M8.85 5.1 Q3.85 0.25 0.5 1.85 L-1.75 0.6 -6.9 -4.15 Q-2.4 -23.2 -7.0 -47.05 L-8.65 -57.9 Q-6.0 -48.4 5.6 -36.9 L8.85 5.1 Q5.4 -15.8 2.6 -35.4 L-7.0 -47.05 M0.75 2.35 L1.5 5.35 M1.5 7.85 L1.5 9.35 M1.5 11.85 L1.5 15.4 1.5 18.85 1.5 22.75 1.5 26.0 1.5 27.6 -1.5 27.6 -1.5 23.7 -1.5 20.2 -1.5 16.5 -1.5 13.45 -1.5 11.85 M-1.5 9.35 L-1.5 7.85 M-1.5 5.35 L-1.5 1.1" fill="none" stroke="#000000" stroke-linecap="round" stroke-linejoin="round" stroke-width="0.05"/>
      <path d="M1.5 5.35 L5.85 5.35 5.85 7.85 1.5 7.85 -1.5 7.85 -6.15 7.85 -6.15 5.35 -1.5 5.35 1.5 5.35 M1.5 9.35 L3.1 9.35 3.1 11.85 1.5 11.85 -1.5 11.85 -3.4 11.85 -3.4 9.35 -1.5 9.35 1.5 9.35 Z" fill="none" stroke="#000000" stroke-linecap="round" stroke-linejoin="round" stroke-width="0.05"/>
    </g>
    <linearGradient gradientTransform="matrix(0.0018, 0.0, 0.0, 0.0426, 0.0, -7.3)" gradientUnits="userSpaceOnUse" id="gradient0" spreadMethod="pad" x1="-819.2" x2="819.2">
      <stop offset="0.0" stop-color="#151515"/>
      <stop offset="1.0" stop-color="#3c3c3c"/>
    </linearGradient>
    <linearGradient gradientTransform="matrix(0.0018, 0.0, 0.0, 0.0426, 0.0, -7.3)" gradientUnits="userSpaceOnUse" id="gradient1" spreadMethod="pad" x1="-819.2" x2="819.2">
      <stop offset="0.0" stop-color="#333333"/>
      <stop offset="1.0" stop-color="#6a6a6a"/>
    </linearGradient>
    <radialGradient cx="0" cy="0" gradientTransform="matrix(0.0549, 0.0, 0.0, 0.0549, 2.75, -39.25)" gradientUnits="userSpaceOnUse" id="gradient2" r="819.2" spreadMethod="pad">
      <stop offset="0.0" stop-color="#efece4"/>
      <stop offset="0.41568627450980394" stop-color="#8d662e"/>
      <stop offset="0.4666666666666667" stop-color="#422c0b"/>
      <stop offset="0.7294117647058823" stop-color="#bf8837"/>
      <stop offset="1.0" stop-color="#cba670"/>
    </radialGradient>
    <radialGradient cx="0" cy="0" gradientTransform="matrix(0.0096, 0.0, 0.0, 0.0096, 1.5, 7.0)" gradientUnits="userSpaceOnUse" id="gradient3" r="819.2" spreadMethod="pad">
      <stop offset="0.0" stop-color="#efece4"/>
      <stop offset="0.41568627450980394" stop-color="#8d662e"/>
      <stop offset="0.4666666666666667" stop-color="#422c0b"/>
      <stop offset="0.7294117647058823" stop-color="#bf8837"/>
      <stop offset="1.0" stop-color="#cba670"/>
    </radialGradient>
    <radialGradient cx="0" cy="0" gradientTransform="matrix(0.0059, 0.0, 0.0, 0.0059, 1.25, 10.75)" gradientUnits="userSpaceOnUse" id="gradient4" r="819.2" spreadMethod="pad">
      <stop offset="0.0" stop-color="#efece4"/>
      <stop offset="0.41568627450980394" stop-color="#8d662e"/>
      <stop offset="0.4666666666666667" stop-color="#422c0b"/>
      <stop offset="0.7294117647058823" stop-color="#bf8837"/>
      <stop offset="1.0" stop-color="#cba670"/>
    </radialGradient>
    <linearGradient gradientTransform="matrix(-0.0034, 0.0284, -0.0092, -0.0011, -2.2, -22.9)" gradientUnits="userSpaceOnUse" id="gradient5" spreadMethod="pad" x1="-819.2" x2="819.2">
      <stop offset="0.0" stop-color="#0b0706"/>
      <stop offset="1.0" stop-color="#3e3128"/>
    </linearGradient>
    <g id="sprite1" transform="matrix(1.0, 0.0, 0.0, 1.0, 3.4, 18.75)">
      <use ffdec:characterId="1882" height="37.45" transform="matrix(1.0, 0.0, 0.0, 1.0, -3.4, -18.75)" width="6.75" xlink:href="#shape3"/>
    </g>
    <g id="shape3" transform="matrix(1.0, 0.0, 0.0, 1.0, 3.4, 18.75)">
      <path d="M0.3 -10.8 L-0.65 -10.75 Q-1.55 -10.75 -2.15 -13.25 -2.15 -14.25 -1.65 -14.25 2.3 -14.25 3.1 -10.8 3.1 -10.05 1.4 -8.55 -0.3 -7.1 -0.3 -5.45 -0.3 -4.05 0.2 -4.05 L2.65 -4.35 2.7 -5.05 0.95 -5.5 0.85 -6.0 1.9 -6.25 Q3.1 -6.25 3.35 -5.1 L2.95 -4.15 Q2.5 -3.4 2.1 -3.4 -1.7 -3.4 -0.9 -5.3 -0.9 -7.25 0.8 -8.9 L2.45 -10.9 1.45 -12.3 -0.05 -13.55 -1.65 -13.55 Q-1.4 -11.4 0.2 -11.0 L0.3 -10.8 M-2.4 -15.9 Q-3.45 -16.0 -3.3 -16.3 L-2.9 -16.9 Q-2.9 -17.55 -3.4 -18.4 L-3.15 -18.75 Q-1.0 -18.75 -1.3 -16.75 -1.45 -16.15 -2.4 -15.9 M-1.9 -17.15 Q-1.9 -17.8 -2.9 -18.05 -2.5 -17.55 -2.4 -16.65 L-1.9 -16.9 -1.9 -17.15 M-0.05 8.95 Q1.95 8.95 1.75 7.5 1.75 5.65 0.2 4.05 -1.4 2.45 -1.4 1.1 -1.4 -0.75 -0.15 -0.75 1.85 -0.75 2.35 0.65 2.35 2.25 1.6 2.5 L0.7 1.85 Q0.7 1.5 0.95 1.25 L1.1 1.2 Q1.4 1.4 1.1 1.75 L1.5 2.0 1.85 1.35 Q1.85 0.0 0.35 0.0 -1.2 0.0 -0.8 1.1 -0.8 1.75 0.8 3.65 2.35 5.55 2.35 7.5 2.35 9.5 0.4 9.5 -1.15 9.5 -1.25 9.05 L-1.15 7.85 -1.15 6.75 Q-1.3 6.5 -0.65 6.5 0.2 6.5 0.95 7.5 L0.85 7.85 Q0.1 7.75 -0.2 7.45 L-0.55 7.5 -0.05 8.95 M0.85 14.35 L1.35 14.0 Q1.35 13.3 0.4 12.95 0.7 13.1 0.7 14.25 L0.85 14.35 M1.75 14.7 L0.45 15.0 Q-0.15 13.7 -0.15 12.75 -0.15 12.15 0.35 12.25 1.85 13.15 1.85 13.95 L1.75 14.7 M1.1 17.5 L1.85 18.2 1.85 18.5 1.3 18.7 0.6 18.0 Q0.6 17.5 1.1 17.5" fill="#ffffff" fill-rule="evenodd" stroke="none"/>
    </g>
    <g id="shape4" transform="matrix(1.0, 0.0, 0.0, 1.0, 15.5, 15.5)">
      <path d="M15.0 15.0 L-15.0 15.0 -15.0 -15.0 15.0 -15.0 15.0 15.0 Z" fill="none" stroke="#000000" stroke-linecap="round" stroke-linejoin="round" stroke-width="1.0"/>
    </g>
  </defs>
</svg>
