<?xml version="1.0" encoding="UTF-8" standalone="no"?>
<svg xmlns:ffdec="https://www.free-decompiler.com/flash" xmlns:xlink="http://www.w3.org/1999/xlink" ffdec:objectType="frame" height="306.9px" width="203.9px" xmlns="http://www.w3.org/2000/svg">
  <g transform="matrix(2.0, 0.0, 0.0, 2.0, 105.4, 149.3)">
    <use ffdec:characterId="1928" height="31.0" transform="matrix(1.0, 0.0, 0.0, 1.0, -15.5, -15.5)" width="31.0" xlink:href="#shape0"/>
    <clipPath id="clipPath0" transform="matrix(1.0, 0.0, 0.0, 1.0, 0.0, 0.0)">
      <path d="M15.0 -15.0 L15.0 15.0 -15.0 15.0 -15.0 -15.0 15.0 -15.0" fill="#33cc33" fill-rule="evenodd" stroke="none"/>
      <path d="M15.0 -15.0 L15.0 15.0 -15.0 15.0 -15.0 -15.0 15.0 -15.0 Z" fill="none" stroke="#000000" stroke-linecap="round" stroke-linejoin="round" stroke-width="1.0"/>
    </clipPath>
    <g clip-path="url(#clipPath0)">
      <use ffdec:characterId="1764" height="70.6" transform="matrix(0.9671, 0.2513, -0.2513, 0.9671, -1.4573, -47.2228)" width="27.3" xlink:href="#sprite0"/>
    </g>
    <use ffdec:characterId="1912" height="31.0" transform="matrix(1.0, 0.0, 0.0, 1.0, -15.5, -15.5)" width="31.0" xlink:href="#shape4"/>
  </g>
  <defs>
    <g id="shape0" transform="matrix(1.0, 0.0, 0.0, 1.0, 15.5, 15.5)">
      <path d="M15.0 15.0 L-15.0 15.0 -15.0 -15.0 15.0 -15.0 15.0 15.0" fill="#000000" fill-rule="evenodd" stroke="none"/>
      <path d="M15.0 15.0 L-15.0 15.0 -15.0 -15.0 15.0 -15.0 15.0 15.0 Z" fill="none" stroke="#000000" stroke-linecap="round" stroke-linejoin="round" stroke-width="1.0"/>
    </g>
    <g id="sprite0" transform="matrix(1.0, 0.0, 0.0, 1.0, 13.8, 39.35)">
      <use ffdec:characterId="1763" height="67.05" transform="matrix(1.0, 0.0, 0.0, 1.0, -5.1, -39.35)" width="9.7" xlink:href="#shape2"/>
      <use ffdec:characterId="105" height="45.1" transform="matrix(-0.0583, 0.0092, -0.1457, -0.9221, 13.495, 27.9567)" width="355.1" xlink:href="#shape3"/>
    </g>
    <g id="shape2" transform="matrix(1.0, 0.0, 0.0, 1.0, 5.1, 39.35)">
      <path d="M-1.45 12.05 L1.4 14.7 0.9 27.7 -1.35 27.7 -1.85 12.45 -1.45 12.05" fill="url(#gradient0)" fill-rule="evenodd" stroke="none"/>
      <path d="M-1.85 12.45 L-1.35 27.7" fill="none" stroke="#000000" stroke-linecap="round" stroke-linejoin="round" stroke-width="0.05"/>
      <path d="M-1.35 27.7 L0.9 27.7 1.4 14.7 -1.45 12.05 -2.1 11.45" fill="none" stroke="#000000" stroke-linecap="round" stroke-linejoin="round" stroke-width="0.05"/>
      <path d="M-0.5 -25.9 Q4.95 -1.1 4.6 23.65 3.95 19.1 -2.7 8.4 0.2 -10.15 -5.1 -39.35 L-0.5 -25.9" fill="url(#gradient1)" fill-rule="evenodd" stroke="none"/>
      <path d="M-0.5 -25.9 Q4.95 -1.1 4.6 23.65 3.95 19.1 -2.7 8.4 0.2 -10.15 -5.1 -39.35 L-0.5 -25.9 Z" fill="none" stroke="#000000" stroke-linecap="round" stroke-linejoin="round" stroke-width="0.05"/>
      <path d="M-4.3 -35.15 L-1.5 -21.45 Q-0.85 0.75 4.35 23.0 2.6 16.45 -3.5 11.1 -0.25 -5.95 -4.3 -35.15" fill="url(#gradient2)" fill-rule="evenodd" stroke="none"/>
      <path d="M4.35 23.0 L4.6 24.05 M4.35 23.0 Q2.6 16.45 -3.5 11.1 -0.25 -5.95 -4.3 -35.15" fill="none" stroke="#000000" stroke-linecap="round" stroke-linejoin="round" stroke-width="0.05"/>
    </g>
    <linearGradient gradientTransform="matrix(7.0E-4, -0.0095, 0.0023, 2.0E-4, -0.5, 19.95)" gradientUnits="userSpaceOnUse" id="gradient0" spreadMethod="pad" x1="-819.2" x2="819.2">
      <stop offset="0.0" stop-color="#404040"/>
      <stop offset="1.0" stop-color="#211b1b"/>
    </linearGradient>
    <linearGradient gradientTransform="matrix(-0.0164, 0.018, -0.0224, -0.0204, -0.2, -7.8)" gradientUnits="userSpaceOnUse" id="gradient1" spreadMethod="pad" x1="-819.2" x2="819.2">
      <stop offset="0.0" stop-color="#efece4"/>
      <stop offset="0.41568627450980394" stop-color="#5a4836"/>
      <stop offset="0.4392156862745098" stop-color="#876456"/>
      <stop offset="0.7294117647058823" stop-color="#d2c5bd"/>
      <stop offset="0.8627450980392157" stop-color="#ffffff"/>
      <stop offset="1.0" stop-color="#9f9171"/>
    </linearGradient>
    <linearGradient gradientTransform="matrix(0.0071, -0.0021, 0.0101, 0.0347, -1.9, -5.0)" gradientUnits="userSpaceOnUse" id="gradient2" spreadMethod="pad" x1="-819.2" x2="819.2">
      <stop offset="0.0" stop-color="#404040"/>
      <stop offset="1.0" stop-color="#211b1b"/>
    </linearGradient>
    <g id="shape3" transform="matrix(1.0, 0.0, 0.0, 1.0, 177.55, 22.55)">
      <path d="M125.55 -15.95 Q177.55 -9.35 177.55 0.0 177.55 9.35 125.55 15.95 73.6 22.55 0.0 22.55 -73.6 22.55 -125.55 15.95 -177.55 9.35 -177.55 0.0 -177.55 -9.35 -125.55 -15.95 -73.6 -22.55 0.0 -22.55 73.6 -22.55 125.55 -15.95" fill="url(#gradient3)" fill-rule="evenodd" stroke="none"/>
    </g>
    <radialGradient cx="0" cy="0" gradientTransform="matrix(0.2204, 0.0, 0.0, 0.028, -0.05, 0.0)" gradientUnits="userSpaceOnUse" id="gradient3" r="819.2" spreadMethod="pad">
      <stop offset="0.06274509803921569" stop-color="#ff0000" stop-opacity="0.47843137"/>
      <stop offset="0.12941176470588237" stop-color="#ff0000" stop-opacity="0.3882353"/>
      <stop offset="0.21176470588235294" stop-color="#ff0000" stop-opacity="0.3647059"/>
      <stop offset="0.44313725490196076" stop-color="#ff0000" stop-opacity="0.09803922"/>
      <stop offset="0.9098039215686274" stop-color="#ff0000" stop-opacity="0.0"/>
    </radialGradient>
    <g id="shape4" transform="matrix(1.0, 0.0, 0.0, 1.0, 15.5, 15.5)">
      <path d="M15.0 15.0 L-15.0 15.0 -15.0 -15.0 15.0 -15.0 15.0 15.0 Z" fill="none" stroke="#000000" stroke-linecap="round" stroke-linejoin="round" stroke-width="1.0"/>
    </g>
  </defs>
</svg>
