<?xml version="1.0" encoding="UTF-8" standalone="no"?>
<svg xmlns:ffdec="https://www.free-decompiler.com/flash" xmlns:xlink="http://www.w3.org/1999/xlink" ffdec:objectType="frame" height="306.9px" width="203.9px" xmlns="http://www.w3.org/2000/svg">
  <g transform="matrix(2.0, 0.0, 0.0, 2.0, 105.4, 149.3)">
    <use ffdec:characterId="1928" height="31.0" transform="matrix(1.0, 0.0, 0.0, 1.0, -15.5, -15.5)" width="31.0" xlink:href="#shape0"/>
    <clipPath id="clipPath0" transform="matrix(1.0, 0.0, 0.0, 1.0, 0.0, 0.0)">
      <path d="M15.0 -15.0 L15.0 15.0 -15.0 15.0 -15.0 -15.0 15.0 -15.0" fill="#33cc33" fill-rule="evenodd" stroke="none"/>
      <path d="M15.0 -15.0 L15.0 15.0 -15.0 15.0 -15.0 -15.0 15.0 -15.0 Z" fill="none" stroke="#000000" stroke-linecap="round" stroke-linejoin="round" stroke-width="1.0"/>
    </clipPath>
    <g clip-path="url(#clipPath0)">
      <use ffdec:characterId="1746" height="135.5" transform="matrix(0.5441, -0.1515, 0.1515, 0.5441, -16.3627, -14.9601)" width="27.05" xlink:href="#sprite0"/>
    </g>
    <use ffdec:characterId="1912" height="31.0" transform="matrix(1.0, 0.0, 0.0, 1.0, -15.5, -15.5)" width="31.0" xlink:href="#shape5"/>
  </g>
  <defs>
    <g id="shape0" transform="matrix(1.0, 0.0, 0.0, 1.0, 15.5, 15.5)">
      <path d="M15.0 15.0 L-15.0 15.0 -15.0 -15.0 15.0 -15.0 15.0 15.0" fill="#000000" fill-rule="evenodd" stroke="none"/>
      <path d="M15.0 15.0 L-15.0 15.0 -15.0 -15.0 15.0 -15.0 15.0 15.0 Z" fill="none" stroke="#000000" stroke-linecap="round" stroke-linejoin="round" stroke-width="1.0"/>
    </g>
    <g id="sprite0" transform="matrix(1.0, 0.0, 0.0, 1.0, 13.45, 49.8)">
      <use ffdec:characterId="1745" height="113.0" transform="matrix(1.0, 0.0, 0.0, 1.0, -6.3, -32.55)" width="12.8" xlink:href="#shape2"/>
      <use ffdec:characterId="105" height="45.1" transform="matrix(0.0745, -3.0E-4, 0.0015, 0.4487, -13.4682, 65.4867)" width="355.1" xlink:href="#shape3"/>
      <use ffdec:characterId="105" height="45.1" transform="matrix(0.0745, -3.0E-4, 0.0015, 0.4487, -13.4682, 52.9867)" width="355.1" xlink:href="#shape3"/>
      <use ffdec:characterId="1744" height="45.0" transform="matrix(1.0, 0.0, 0.0, 1.0, -6.05, -44.55)" width="12.8" xlink:href="#shape4"/>
      <use ffdec:characterId="105" height="45.1" transform="matrix(-0.0745, 3.0E-4, -0.0015, -0.4487, 13.6182, -29.5867)" width="355.1" xlink:href="#shape3"/>
      <use ffdec:characterId="105" height="45.1" transform="matrix(-0.0745, 3.0E-4, -0.0015, -0.4487, 13.6182, -17.0867)" width="355.1" xlink:href="#shape3"/>
    </g>
    <g id="shape2" transform="matrix(1.0, 0.0, 0.0, 1.0, 6.3, 32.55)">
      <path d="M1.6 58.7 L6.5 58.7 Q3.35 70.55 4.7 80.45 L-4.25 80.45 Q-3.1 69.6 -6.3 58.7 L-1.15 58.7 1.6 58.7 M3.55 64.7 L3.55 61.2 -3.3 61.2 -3.3 64.7 3.55 64.7 M3.55 77.2 L3.55 73.7 -3.3 73.7 -3.3 77.2 3.55 77.2" fill="url(#gradient0)" fill-rule="evenodd" stroke="none"/>
      <path d="M3.55 77.2 L-3.3 77.2 -3.3 73.7 3.55 73.7 3.55 77.2 M3.55 64.7 L-3.3 64.7 -3.3 61.2 3.55 61.2 3.55 64.7" fill="#5effff" fill-rule="evenodd" stroke="none"/>
      <path d="M1.6 37.3 L2.5 37.7 3.25 43.7 -2.7 43.7 -2.55 35.45 -1.15 36.1 1.6 37.3 M3.85 48.5 L4.8 55.95 1.6 55.95 -1.15 55.95 -3.0 55.95 -2.8 48.55 3.85 48.5" fill="url(#gradient1)" fill-rule="evenodd" stroke="none"/>
      <path d="M3.25 43.7 L3.85 48.5 -2.8 48.55 -2.7 43.7 3.25 43.7" fill="url(#gradient2)" fill-rule="evenodd" stroke="none"/>
      <path d="M-1.1 17.95 L-1.1 -32.55 1.6 -32.55 1.6 17.95 -1.1 17.95" fill="url(#gradient3)" fill-rule="evenodd" stroke="none"/>
      <path d="M1.6 17.95 L1.6 37.3 -1.15 36.1 -1.15 17.95 -1.1 17.95 1.6 17.95 M1.6 55.95 L1.6 58.7 -1.15 58.7 -1.15 55.95 1.6 55.95" fill="url(#gradient4)" fill-rule="evenodd" stroke="none"/>
      <path d="M-1.1 17.95 L-1.1 -32.55 1.6 -32.55 1.6 17.95 1.6 37.3 2.5 37.7 3.25 43.7 3.85 48.5 4.8 55.95 1.6 55.95 1.6 58.7 6.5 58.7 Q3.35 70.55 4.7 80.45 L-4.25 80.45 Q-3.1 69.6 -6.3 58.7 L-1.15 58.7 -1.15 55.95 -3.0 55.95 -2.8 48.55 -2.7 43.7 -2.55 35.45 -1.15 36.1 -1.15 17.95 -1.1 17.95 M-1.15 58.7 L1.6 58.7 M1.6 55.95 L-1.15 55.95 M-1.15 36.1 L1.6 37.3" fill="none" stroke="#000000" stroke-linecap="round" stroke-linejoin="round" stroke-width="0.05"/>
    </g>
    <linearGradient gradientTransform="matrix(-0.0054, 0.0, 0.0, -0.0133, 0.25, 69.6)" gradientUnits="userSpaceOnUse" id="gradient0" spreadMethod="pad" x1="-819.2" x2="819.2">
      <stop offset="0.0" stop-color="#211b1b"/>
      <stop offset="0.5529411764705883" stop-color="#404040"/>
      <stop offset="1.0" stop-color="#211b1b"/>
    </linearGradient>
    <linearGradient gradientTransform="matrix(-0.0047, 0.0, 0.0, -0.0113, 0.9, 46.7)" gradientUnits="userSpaceOnUse" id="gradient1" spreadMethod="pad" x1="-819.2" x2="819.2">
      <stop offset="0.0" stop-color="#2d2e31"/>
      <stop offset="0.5058823529411764" stop-color="#636569"/>
      <stop offset="1.0" stop-color="#1f2025"/>
    </linearGradient>
    <linearGradient gradientTransform="matrix(-0.0047, 0.0, 0.0, -0.0113, 0.9, 46.7)" gradientUnits="userSpaceOnUse" id="gradient2" spreadMethod="pad" x1="-819.2" x2="819.2">
      <stop offset="0.0" stop-color="#2d2e31"/>
      <stop offset="0.5058823529411764" stop-color="#7caee0"/>
      <stop offset="1.0" stop-color="#1f2025"/>
    </linearGradient>
    <linearGradient gradientTransform="matrix(0.0017, 0.0, 0.0, 0.0308, 0.25, -7.3)" gradientUnits="userSpaceOnUse" id="gradient3" spreadMethod="pad" x1="-819.2" x2="819.2">
      <stop offset="0.0" stop-color="#090909"/>
      <stop offset="0.5019607843137255" stop-color="#1e1e1e"/>
      <stop offset="1.0" stop-color="#090909"/>
    </linearGradient>
    <linearGradient gradientTransform="matrix(-0.0017, 0.0, 0.0, -0.0308, 0.2, 43.2)" gradientUnits="userSpaceOnUse" id="gradient4" spreadMethod="pad" x1="-819.2" x2="819.2">
      <stop offset="0.0" stop-color="#090909"/>
      <stop offset="0.5019607843137255" stop-color="#1e1e1e"/>
      <stop offset="1.0" stop-color="#090909"/>
    </linearGradient>
    <g id="shape3" transform="matrix(1.0, 0.0, 0.0, 1.0, 177.55, 22.55)">
      <path d="M125.55 -15.95 Q177.55 -9.35 177.55 0.0 177.55 9.35 125.55 15.95 73.6 22.55 0.0 22.55 -73.6 22.55 -125.55 15.95 -177.55 9.35 -177.55 0.0 -177.55 -9.35 -125.55 -15.95 -73.6 -22.55 0.0 -22.55 73.6 -22.55 125.55 -15.95" fill="url(#gradient5)" fill-rule="evenodd" stroke="none"/>
    </g>
    <radialGradient cx="0" cy="0" gradientTransform="matrix(0.2204, 0.0, 0.0, 0.028, -0.05, 0.0)" gradientUnits="userSpaceOnUse" id="gradient5" r="819.2" spreadMethod="pad">
      <stop offset="0.06274509803921569" stop-color="#66ffff"/>
      <stop offset="0.12941176470588237" stop-color="#66ffff" stop-opacity="0.8156863"/>
      <stop offset="0.21176470588235294" stop-color="#66ffff" stop-opacity="0.7647059"/>
      <stop offset="0.44313725490196076" stop-color="#66ffff" stop-opacity="0.21176471"/>
      <stop offset="0.9098039215686274" stop-color="#66ffff" stop-opacity="0.0"/>
    </radialGradient>
    <g id="shape4" transform="matrix(1.0, 0.0, 0.0, 1.0, 6.05, 44.55)">
      <path d="M6.75 -22.8 L-6.05 -22.8 Q-2.9 -34.65 -4.25 -44.55 L4.7 -44.55 Q3.55 -33.65 6.75 -22.8" fill="url(#gradient6)" fill-rule="evenodd" stroke="none"/>
      <path d="M3.2 -7.8 L3.0 0.45 -2.05 -1.8 -2.75 -7.8 3.2 -7.8 M-3.35 -12.55 L-4.3 -20.05 3.45 -20.05 3.3 -12.6 -3.35 -12.55" fill="url(#gradient7)" fill-rule="evenodd" stroke="none"/>
      <path d="M3.3 -12.6 L3.2 -7.8 -2.75 -7.8 -3.35 -12.55 3.3 -12.6" fill="url(#gradient8)" fill-rule="evenodd" stroke="none"/>
      <path d="M3.3 -12.6 L3.2 -7.8 3.0 0.45 -2.05 -1.8 -2.75 -7.8 -3.35 -12.55 -4.3 -20.05 3.45 -20.05 3.3 -12.6 M6.75 -22.8 L-6.05 -22.8 Q-2.9 -34.65 -4.25 -44.55 L4.7 -44.55 Q3.55 -33.65 6.75 -22.8 Z" fill="none" stroke="#000000" stroke-linecap="round" stroke-linejoin="round" stroke-width="0.05"/>
      <path d="M3.75 -25.3 L-3.1 -25.3 -3.1 -28.8 3.75 -28.8 3.75 -25.3 M3.75 -37.8 L-3.1 -37.8 -3.1 -41.3 3.75 -41.3 3.75 -37.8" fill="#5effff" fill-rule="evenodd" stroke="none"/>
    </g>
    <linearGradient gradientTransform="matrix(0.0054, 0.0, 0.0, 0.0133, 0.2, -33.7)" gradientUnits="userSpaceOnUse" id="gradient6" spreadMethod="pad" x1="-819.2" x2="819.2">
      <stop offset="0.0" stop-color="#211b1b"/>
      <stop offset="0.5529411764705883" stop-color="#404040"/>
      <stop offset="1.0" stop-color="#211b1b"/>
    </linearGradient>
    <linearGradient gradientTransform="matrix(0.0047, 0.0, 0.0, 0.0113, -0.45, -10.8)" gradientUnits="userSpaceOnUse" id="gradient7" spreadMethod="pad" x1="-819.2" x2="819.2">
      <stop offset="0.0" stop-color="#2d2e31"/>
      <stop offset="0.5058823529411764" stop-color="#636569"/>
      <stop offset="1.0" stop-color="#1f2025"/>
    </linearGradient>
    <linearGradient gradientTransform="matrix(0.0047, 0.0, 0.0, 0.0113, -0.45, -10.8)" gradientUnits="userSpaceOnUse" id="gradient8" spreadMethod="pad" x1="-819.2" x2="819.2">
      <stop offset="0.0" stop-color="#2d2e31"/>
      <stop offset="0.5058823529411764" stop-color="#7caee0"/>
      <stop offset="1.0" stop-color="#1f2025"/>
    </linearGradient>
    <g id="shape5" transform="matrix(1.0, 0.0, 0.0, 1.0, 15.5, 15.5)">
      <path d="M15.0 15.0 L-15.0 15.0 -15.0 -15.0 15.0 -15.0 15.0 15.0 Z" fill="none" stroke="#000000" stroke-linecap="round" stroke-linejoin="round" stroke-width="1.0"/>
    </g>
  </defs>
</svg>
