<?xml version="1.0" encoding="UTF-8" standalone="no"?>
<svg xmlns:ffdec="https://www.free-decompiler.com/flash" xmlns:xlink="http://www.w3.org/1999/xlink" ffdec:objectType="frame" height="306.9px" width="203.9px" xmlns="http://www.w3.org/2000/svg">
  <g transform="matrix(2.0, 0.0, 0.0, 2.0, 105.4, 149.3)">
    <use ffdec:characterId="1928" height="31.0" transform="matrix(1.0, 0.0, 0.0, 1.0, -15.5, -15.5)" width="31.0" xlink:href="#shape0"/>
    <clipPath id="clipPath0" transform="matrix(1.0, 0.0, 0.0, 1.0, 0.0, 0.0)">
      <path d="M15.0 -15.0 L15.0 15.0 -15.0 15.0 -15.0 -15.0 15.0 -15.0" fill="#33cc33" fill-rule="evenodd" stroke="none"/>
      <path d="M15.0 -15.0 L15.0 15.0 -15.0 15.0 -15.0 -15.0 15.0 -15.0 Z" fill="none" stroke="#000000" stroke-linecap="round" stroke-linejoin="round" stroke-width="1.0"/>
    </clipPath>
    <g clip-path="url(#clipPath0)">
      <use ffdec:characterId="515" height="87.65" transform="matrix(0.9659, 0.2588, -0.2588, 0.9659, -5.9388, -42.3072)" width="21.6" xlink:href="#sprite0"/>
    </g>
    <use ffdec:characterId="1912" height="31.0" transform="matrix(1.0, 0.0, 0.0, 1.0, -15.5, -15.5)" width="31.0" xlink:href="#shape4"/>
  </g>
  <defs>
    <g id="shape0" transform="matrix(1.0, 0.0, 0.0, 1.0, 15.5, 15.5)">
      <path d="M15.0 15.0 L-15.0 15.0 -15.0 -15.0 15.0 -15.0 15.0 15.0" fill="#000000" fill-rule="evenodd" stroke="none"/>
      <path d="M15.0 15.0 L-15.0 15.0 -15.0 -15.0 15.0 -15.0 15.0 15.0 Z" fill="none" stroke="#000000" stroke-linecap="round" stroke-linejoin="round" stroke-width="1.0"/>
    </g>
    <g id="sprite0" transform="matrix(1.0, 0.0, 0.0, 1.0, 12.35, 59.85)">
      <use ffdec:characterId="514" height="68.95" transform="matrix(1.0, 0.0, 0.0, 1.0, -3.75, -41.15)" width="6.0" xlink:href="#shape2"/>
      <use ffdec:characterId="105" height="45.1" transform="matrix(0.0142, 0.1249, -0.3667, 0.0417, 4.2022, -59.8716)" width="355.1" xlink:href="#shape3"/>
    </g>
    <g id="shape2" transform="matrix(1.0, 0.0, 0.0, 1.0, 3.75, 41.15)">
      <path d="M1.35 10.2 L-0.15 27.1 Q-2.5 28.5 -3.75 27.1 -2.4 18.25 -1.55 9.95 L1.35 10.2" fill="url(#gradient0)" fill-rule="evenodd" stroke="none"/>
      <path d="M1.7 4.9 L1.35 10.2 -1.55 9.95 -1.1 5.05 1.7 4.9" fill="url(#gradient1)" fill-rule="evenodd" stroke="none"/>
      <path d="M-1.1 5.05 Q1.05 -20.55 -3.2 -41.15 L-0.15 -39.15 Q3.45 -25.1 1.7 4.9 L-1.1 5.05" fill="url(#gradient2)" fill-rule="evenodd" stroke="none"/>
      <path d="M-1.1 5.05 Q1.05 -20.55 -3.2 -41.15 L-0.15 -39.15 Q3.45 -25.1 1.7 4.9 L1.35 10.2 -0.15 27.1 Q-2.5 28.5 -3.75 27.1 -2.4 18.25 -1.55 9.95 L-1.1 5.05" fill="none" stroke="#000000" stroke-linecap="round" stroke-linejoin="round" stroke-width="0.05"/>
      <path d="M-1.1 5.05 L1.7 4.9 M-1.55 9.95 L1.35 10.2" fill="none" stroke="#000000" stroke-linecap="round" stroke-linejoin="round" stroke-width="0.05"/>
    </g>
    <linearGradient gradientTransform="matrix(0.0031, 0.0, 0.0, 0.0109, -1.2, 18.85)" gradientUnits="userSpaceOnUse" id="gradient0" spreadMethod="pad" x1="-819.2" x2="819.2">
      <stop offset="0.0" stop-color="#404040"/>
      <stop offset="1.0" stop-color="#111111"/>
    </linearGradient>
    <linearGradient gradientTransform="matrix(0.002, 0.0, 0.0, 0.0032, 0.05, 7.55)" gradientUnits="userSpaceOnUse" id="gradient1" spreadMethod="pad" x1="-819.2" x2="819.2">
      <stop offset="0.0" stop-color="#512f2f"/>
      <stop offset="1.0" stop-color="#130f0f"/>
    </linearGradient>
    <radialGradient cx="0" cy="0" gradientTransform="matrix(0.0538, 0.0, 0.0, 0.0538, -2.5, -39.0)" gradientUnits="userSpaceOnUse" id="gradient2" r="819.2" spreadMethod="pad">
      <stop offset="0.0" stop-color="#ffffff"/>
      <stop offset="0.12156862745098039" stop-color="#fad030"/>
      <stop offset="0.2823529411764706" stop-color="#ee7700"/>
      <stop offset="0.5294117647058824" stop-color="#a4490f"/>
      <stop offset="1.0" stop-color="#4d2922"/>
    </radialGradient>
    <g id="shape3" transform="matrix(1.0, 0.0, 0.0, 1.0, 177.55, 22.55)">
      <path d="M125.55 -15.95 Q177.55 -9.35 177.55 0.0 177.55 9.35 125.55 15.95 73.6 22.55 0.0 22.55 -73.6 22.55 -125.55 15.95 -177.55 9.35 -177.55 0.0 -177.55 -9.35 -125.55 -15.95 -73.6 -22.55 0.0 -22.55 73.6 -22.55 125.55 -15.95" fill="url(#gradient3)" fill-rule="evenodd" stroke="none"/>
    </g>
    <radialGradient cx="0" cy="0" gradientTransform="matrix(0.2204, 0.0, 0.0, 0.028, -0.05, 0.0)" gradientUnits="userSpaceOnUse" id="gradient3" r="819.2" spreadMethod="pad">
      <stop offset="0.06274509803921569" stop-color="#ff9900"/>
      <stop offset="0.12941176470588237" stop-color="#ff9900" stop-opacity="0.8156863"/>
      <stop offset="0.21176470588235294" stop-color="#ff9900" stop-opacity="0.7647059"/>
      <stop offset="0.44313725490196076" stop-color="#ff9900" stop-opacity="0.21176471"/>
      <stop offset="0.9098039215686274" stop-color="#ff9900" stop-opacity="0.0"/>
    </radialGradient>
    <g id="shape4" transform="matrix(1.0, 0.0, 0.0, 1.0, 15.5, 15.5)">
      <path d="M15.0 15.0 L-15.0 15.0 -15.0 -15.0 15.0 -15.0 15.0 15.0 Z" fill="none" stroke="#000000" stroke-linecap="round" stroke-linejoin="round" stroke-width="1.0"/>
    </g>
  </defs>
</svg>
