<?xml version="1.0" encoding="UTF-8" standalone="no"?>
<svg xmlns:ffdec="https://www.free-decompiler.com/flash" xmlns:xlink="http://www.w3.org/1999/xlink" ffdec:objectType="frame" height="306.9px" width="203.9px" xmlns="http://www.w3.org/2000/svg">
  <g transform="matrix(2.0, 0.0, 0.0, 2.0, 105.4, 149.3)">
    <use ffdec:characterId="1924" height="31.0" transform="matrix(1.0, 0.0, 0.0, 1.0, -15.5, -15.5)" width="31.0" xlink:href="#shape0"/>
    <clipPath id="clipPath0" transform="matrix(1.0, 0.0, 0.0, 1.0, 0.0, 0.0)">
      <path d="M15.0 -15.0 L15.0 15.0 -15.0 15.0 -15.0 -15.0 15.0 -15.0" fill="#33cc33" fill-rule="evenodd" stroke="none"/>
      <path d="M15.0 -15.0 L15.0 15.0 -15.0 15.0 -15.0 -15.0 15.0 -15.0 Z" fill="none" stroke="#000000" stroke-linecap="round" stroke-linejoin="round" stroke-width="1.0"/>
    </clipPath>
    <g clip-path="url(#clipPath0)">
      <use ffdec:characterId="1899" height="43.35" transform="matrix(1.3527, 1.1473, -0.9799, 1.1553, 4.7745, -15.5017)" width="7.55" xlink:href="#sprite0"/>
    </g>
    <use ffdec:characterId="1912" height="31.0" transform="matrix(1.0, 0.0, 0.0, 1.0, -15.5, -15.5)" width="31.0" xlink:href="#shape3"/>
  </g>
  <defs>
    <g id="shape0" transform="matrix(1.0, 0.0, 0.0, 1.0, 15.5, 15.5)">
      <path d="M15.0 -15.0 L15.0 15.0 -15.0 15.0 -15.0 -15.0 15.0 -15.0" fill="url(#gradient0)" fill-rule="evenodd" stroke="none"/>
      <path d="M15.0 -15.0 L15.0 15.0 -15.0 15.0 -15.0 -15.0 15.0 -15.0 Z" fill="none" stroke="#000000" stroke-linecap="round" stroke-linejoin="round" stroke-width="1.0"/>
    </g>
    <radialGradient cx="0" cy="0" gradientTransform="matrix(0.0259, 0.0, 0.0, 0.0259, 0.0, 0.0)" gradientUnits="userSpaceOnUse" id="gradient0" r="819.2" spreadMethod="pad">
      <stop offset="0.0" stop-color="#ffcc00"/>
      <stop offset="0.615686274509804" stop-color="#80231a"/>
      <stop offset="1.0" stop-color="#000000"/>
    </radialGradient>
    <g id="sprite0" transform="matrix(1.0, 0.0, 0.0, 1.0, 1.35, 17.4)">
      <use ffdec:characterId="1898" height="43.35" transform="matrix(1.0, 0.0, 0.0, 1.0, -1.35, -17.4)" width="7.55" xlink:href="#shape2"/>
    </g>
    <g id="shape2" transform="matrix(1.0, 0.0, 0.0, 1.0, 1.35, 17.4)">
      <path d="M1.15 -5.45 L1.3 -5.45 1.3 25.25 Q-0.35 26.7 -1.35 25.25 L-1.35 -5.45 -0.65 -5.45 1.15 -5.45" fill="url(#gradient1)" fill-rule="evenodd" stroke="none"/>
      <path d="M0.95 -8.15 L1.0 -8.15 1.0 -8.1 1.0 -7.55 0.95 -8.15" fill="#999999" fill-rule="evenodd" stroke="none"/>
      <path d="M5.15 -12.25 Q3.6 -16.05 1.65 -15.55 L1.6 -15.4 Q0.7 -13.1 0.95 -8.15 L1.0 -7.55 1.15 -5.45 -0.65 -5.45 -0.8 -7.55 Q-1.5 -18.65 3.15 -17.25 4.95 -16.75 6.2 -13.9 L5.15 -12.25" fill="url(#gradient2)" fill-rule="evenodd" stroke="none"/>
      <path d="M5.15 -12.25 Q3.6 -16.05 1.65 -15.55 L1.6 -15.4 Q0.7 -13.1 0.95 -8.15 L1.0 -7.55 1.15 -5.45 1.3 -5.45 1.3 25.25 Q-0.35 26.7 -1.35 25.25 L-1.35 -5.45 -0.65 -5.45 -0.8 -7.55 Q-1.5 -18.65 3.15 -17.25 4.95 -16.75 6.2 -13.9 M1.0 -8.15 L1.0 -8.1 1.0 -7.55 M1.15 -5.45 L-0.65 -5.45" fill="none" stroke="#000000" stroke-linecap="round" stroke-linejoin="round" stroke-width="0.05"/>
      <path d="M6.2 -13.9 L5.15 -12.25" fill="none" stroke="#000000" stroke-linecap="round" stroke-linejoin="round" stroke-width="0.05"/>
    </g>
    <radialGradient cx="0" cy="0" gradientTransform="matrix(0.0339, 0.0, 0.0, 0.0339, 0.65, -2.45)" gradientUnits="userSpaceOnUse" id="gradient1" r="819.2" spreadMethod="pad">
      <stop offset="0.0" stop-color="#a22222"/>
      <stop offset="1.0" stop-color="#431b1b"/>
    </radialGradient>
    <radialGradient cx="0" cy="0" gradientTransform="matrix(0.0148, 0.0, 0.0, 0.0148, 2.6, -17.15)" gradientUnits="userSpaceOnUse" id="gradient2" r="819.2" spreadMethod="pad">
      <stop offset="0.0" stop-color="#ffffff"/>
      <stop offset="1.0" stop-color="#737373"/>
    </radialGradient>
    <g id="shape3" transform="matrix(1.0, 0.0, 0.0, 1.0, 15.5, 15.5)">
      <path d="M15.0 15.0 L-15.0 15.0 -15.0 -15.0 15.0 -15.0 15.0 15.0 Z" fill="none" stroke="#000000" stroke-linecap="round" stroke-linejoin="round" stroke-width="1.0"/>
    </g>
  </defs>
</svg>
