<?xml version="1.0" encoding="UTF-8" standalone="no"?>
<svg xmlns:ffdec="https://www.free-decompiler.com/flash" xmlns:xlink="http://www.w3.org/1999/xlink" ffdec:objectType="frame" height="138.9px" width="86.2px" xmlns="http://www.w3.org/2000/svg">
  <g transform="matrix(2.0, 0.0, 0.0, 2.0, 43.1, 69.4)">
    <use ffdec:characterId="3072" height="69.45" transform="matrix(1.0, 0.0, 0.0, 1.0, -21.55, -34.7)" width="43.1" xlink:href="#shape0"/>
  </g>
  <defs>
    <g id="shape0" transform="matrix(1.0, 0.0, 0.0, 1.0, 21.55, 34.7)">
      <path d="M21.55 -19.25 L-21.55 -19.25 -21.55 -34.7 21.55 -34.7 21.55 -19.25" fill="#90bc62" fill-rule="evenodd" stroke="none"/>
      <path d="M21.55 -1.25 L-21.55 -1.25 -21.55 -16.7 21.55 -16.7 21.55 -1.25" fill="#c25c5c" fill-rule="evenodd" stroke="none"/>
      <path d="M-21.55 19.3 L21.55 19.3 21.55 34.75 -21.55 34.75 -21.55 19.3" fill="#9c7eb1" fill-rule="evenodd" stroke="none"/>
      <path d="M-21.55 1.75 L21.55 1.75 21.55 17.2 -21.55 17.2 -21.55 1.75" fill="#edb565" fill-rule="evenodd" stroke="none"/>
    </g>
  </defs>
</svg>
