<?xml version="1.0" encoding="UTF-8" standalone="no"?>
<svg xmlns:ffdec="https://www.free-decompiler.com/flash" xmlns:xlink="http://www.w3.org/1999/xlink" ffdec:objectType="frame" height="69.2px" width="49.1px" xmlns="http://www.w3.org/2000/svg">
  <g transform="matrix(2.0, 0.0, 0.0, 2.0, 24.6, 34.7)">
    <use ffdec:characterId="103" height="25.15" id="buffColor" transform="matrix(1.0, 0.0, 0.0, 1.0, -7.5, -12.55)" width="14.75" xlink:href="#sprite0"/>
    <use ffdec:characterId="101" height="26.35" transform="matrix(1.0, 0.0, 0.0, 1.0, -8.0, -13.25)" width="15.75" xlink:href="#shape1"/>
    <use ffdec:characterId="100" height="34.6" id="buffIcon" transform="matrix(1.0, 0.0, 0.0, 1.0, -7.05, -17.35)" width="13.6" xlink:href="#sprite1"/>
    <use ffdec:characterId="66" height="16.35" transform="matrix(1.0, 0.0, 0.0, 1.0, -12.3, -2.8)" width="24.55" xlink:href="#text0"/>
  </g>
  <defs>
    <g id="sprite0" transform="matrix(1.0, 0.0, 0.0, 1.0, 7.4, 12.55)">
      <use ffdec:characterId="102" height="25.15" transform="matrix(1.0, 0.0, 0.0, 1.0, -7.4, -12.55)" width="14.75" xlink:href="#shape0"/>
    </g>
    <g id="shape0" transform="matrix(1.0, 0.0, 0.0, 1.0, 7.4, 12.55)">
      <path d="M7.35 -12.55 L7.35 12.6 -7.4 12.6 -7.4 -12.55 7.35 -12.55" fill="#00ff66" fill-rule="evenodd" stroke="none"/>
    </g>
    <g id="shape1" transform="matrix(1.0, 0.0, 0.0, 1.0, 8.0, 13.25)">
      <path d="M7.25 -12.55 L7.5 -12.55 7.5 12.7 -7.5 12.7 -7.5 -12.55 -7.5 12.6 7.25 12.6 7.25 -12.55" fill="#00ff66" fill-rule="evenodd" stroke="none"/>
      <path d="M-7.5 -12.55 L-7.5 -12.75 7.25 -12.75 7.25 -12.55 7.25 12.6 -7.5 12.6 -7.5 -12.55" fill="url(#gradient0)" fill-rule="evenodd" stroke="none"/>
      <path d="M-7.5 -12.55 L-7.5 -12.75 7.25 -12.75 7.25 -12.55 7.25 12.6 -7.5 12.6 -7.5 -12.55 Z" fill="none" stroke="#000000" stroke-linecap="round" stroke-linejoin="round" stroke-width="1.0"/>
    </g>
    <linearGradient gradientTransform="matrix(0.0, 0.0155, -0.009, 0.0, -0.1, -0.1)" gradientUnits="userSpaceOnUse" id="gradient0" spreadMethod="pad" x1="-819.2" x2="819.2">
      <stop offset="0.0" stop-color="#ffffff"/>
      <stop offset="0.09411764705882353" stop-color="#efefef" stop-opacity="0.36078432"/>
      <stop offset="0.8627450980392157" stop-color="#000000" stop-opacity="0.5019608"/>
      <stop offset="1.0" stop-color="#ffffff" stop-opacity="0.0"/>
    </linearGradient>
    <g id="sprite1" transform="matrix(1.0, 0.0, 0.0, 1.0, 7.05, 17.35)">
      <clipPath id="clipPath0" transform="matrix(1.0, 0.0, 0.0, 1.0, 0.0, 0.0)">
        <path d="M-5.95 -10.95 L5.95 -10.95 5.95 10.95 -5.95 10.95 -5.95 -10.95" fill="#000000" fill-opacity="0.8" fill-rule="evenodd" stroke="none"/>
      </clipPath>
      <g clip-path="url(#clipPath0)">
        <use ffdec:characterId="68" height="30.0" transform="matrix(0.3967, 0.0, 0.0, 0.73, -5.95, -10.95)" width="30.0" xlink:href="#shape3"/>
      </g>
    </g>
    <g id="shape3" transform="matrix(1.0, 0.0, 0.0, 1.0, 0.0, 0.0)">
      <path d="M0.0 30.0 L0.0 0.0 30.0 0.0 30.0 30.0 0.0 30.0" fill="#000000" fill-opacity="0.9019608" fill-rule="evenodd" stroke="none"/>
    </g>
  </defs>
</svg>
