<?xml version="1.0" encoding="UTF-8" standalone="no"?>
<svg xmlns:ffdec="https://www.free-decompiler.com/flash" xmlns:xlink="http://www.w3.org/1999/xlink" ffdec:objectType="frame" height="44.0px" width="600.4px" xmlns="http://www.w3.org/2000/svg">
  <g transform="matrix(2.0, 0.0, 0.0, 2.0, 59.2, -11.0)">
    <filter id="filter21">
      <feColorMatrix in="SourceGraphic" result="filterResult0" type="matrix" values="0 0 0 0 0.0,0 0 0 0 0.0,0 0 0 0 0.0,0 0 0 1 0"/>
      <feConvolveMatrix divisor="16.0" in="filterResult0" kernelMatrix="1 1 1 1 1 1 1 1 1 1 1 1 1 1 1 1" order="4 4" result="filterResult1"/>
      <feComposite in="SourceGraphic" in2="filterResult1" operator="over" result="filterResult2"/>
    </filter>
    <use ffdec:characterId="3358" filter="url(#filter21)" height="22.0" transform="matrix(1.0, 0.0, 0.0, 1.0, -29.6, 5.5)" width="300.2" xlink:href="#sprite0"/>
  </g>
  <defs>
    <g id="sprite0" transform="matrix(1.0, 0.0, 0.0, 1.0, 159.35, 11.0)">
      <use ffdec:characterId="3357" height="22.0" transform="matrix(1.0, 0.0, 0.0, 1.0, -159.35, -11.0)" width="300.2" xlink:href="#text0"/>
    </g>
    <g id="text0" transform="matrix(1.0, 0.0, 0.0, 1.0, 2.0, 2.0)">
      <g transform="matrix(1.0, 0.0, 0.0, 1.0, -2.0, -2.0)">
        <use fill="#99ff00" height="22.0" transform="matrix(0.0088, 0.0, 0.0, 0.0088, 16.4, 16.65)" width="300.2" xlink:href="#font_copy_10_65__0"/>
      </g>
      <g transform="matrix(1.0, 0.0, 0.0, 1.0, -2.0, -2.0)">
        <use fill="#99ff00" height="22.0" transform="matrix(0.0088, 0.0, 0.0, 0.0088, 36.2, 16.65)" width="300.2" xlink:href="#font_copy_10_65_P0"/>
        <use fill="#99ff00" height="22.0" transform="matrix(0.0088, 0.0, 0.0, 0.0088, 48.35, 16.65)" width="300.2" xlink:href="#font_copy_10_65_r0"/>
        <use fill="#99ff00" height="22.0" transform="matrix(0.0088, 0.0, 0.0, 0.0088, 56.0, 16.65)" width="300.2" xlink:href="#font_copy_10_65_e0"/>
        <use fill="#99ff00" height="22.0" transform="matrix(0.0088, 0.0, 0.0, 0.0088, 65.9, 16.65)" width="300.2" xlink:href="#font_copy_10_65_s0"/>
        <use fill="#99ff00" height="22.0" transform="matrix(0.0088, 0.0, 0.0, 0.0088, 75.8, 16.65)" width="300.2" xlink:href="#font_copy_10_65_s0"/>
      </g>
      <g transform="matrix(1.0, 0.0, 0.0, 1.0, -2.0, -2.0)">
        <use fill="#99ff00" height="22.0" transform="matrix(0.0088, 0.0, 0.0, 0.0088, 93.35, 16.65)" width="300.2" xlink:href="#font_copy_10_65_S0"/>
        <use fill="#99ff00" height="22.0" transform="matrix(0.0088, 0.0, 0.0, 0.0088, 105.5, 16.65)" width="300.2" xlink:href="#font_copy_10_65_P0"/>
        <use fill="#99ff00" height="22.0" transform="matrix(0.0088, 0.0, 0.0, 0.0088, 117.65, 16.65)" width="300.2" xlink:href="#font_copy_10_65_A0"/>
        <use fill="#99ff00" height="22.0" transform="matrix(0.0088, 0.0, 0.0, 0.0088, 130.9, 16.65)" width="300.2" xlink:href="#font_copy_10_65_C0"/>
        <use fill="#99ff00" height="22.0" transform="matrix(0.0088, 0.0, 0.0, 0.0088, 143.05, 16.65)" width="300.2" xlink:href="#font_copy_10_65_E0"/>
        <use fill="#99ff00" height="22.0" transform="matrix(0.0088, 0.0, 0.0, 0.0088, 154.05, 16.65)" width="300.2" xlink:href="#font_copy_10_65_B0"/>
        <use fill="#99ff00" height="22.0" transform="matrix(0.0088, 0.0, 0.0, 0.0088, 166.2, 16.65)" width="300.2" xlink:href="#font_copy_10_65_A0"/>
        <use fill="#99ff00" height="22.0" transform="matrix(0.0088, 0.0, 0.0, 0.0088, 179.45, 16.65)" width="300.2" xlink:href="#font_copy_10_65_R0"/>
      </g>
      <g transform="matrix(1.0, 0.0, 0.0, 1.0, -2.0, -2.0)">
        <use fill="#99ff00" height="22.0" transform="matrix(0.0088, 0.0, 0.0, 0.0088, 199.25, 16.65)" width="300.2" xlink:href="#font_copy_10_65_t0"/>
        <use fill="#99ff00" height="22.0" transform="matrix(0.0088, 0.0, 0.0, 0.0088, 208.0, 16.65)" width="300.2" xlink:href="#font_copy_10_65_o0"/>
      </g>
      <g transform="matrix(1.0, 0.0, 0.0, 1.0, -2.0, -2.0)">
        <use fill="#99ff00" height="22.0" transform="matrix(0.0088, 0.0, 0.0, 0.0088, 225.55, 16.65)" width="300.2" xlink:href="#font_copy_10_65_S0"/>
        <use fill="#99ff00" height="22.0" transform="matrix(0.0088, 0.0, 0.0, 0.0088, 237.7, 16.65)" width="300.2" xlink:href="#font_copy_10_65_k0"/>
        <use fill="#99ff00" height="22.0" transform="matrix(0.0088, 0.0, 0.0, 0.0088, 248.7, 16.65)" width="300.2" xlink:href="#font_copy_10_65_i0"/>
        <use fill="#99ff00" height="22.0" transform="matrix(0.0088, 0.0, 0.0, 0.0088, 254.1, 16.65)" width="300.2" xlink:href="#font_copy_10_65_p0"/>
      </g>
      <g transform="matrix(1.0, 0.0, 0.0, 1.0, -2.0, -2.0)">
        <use fill="#99ff00" height="22.0" transform="matrix(0.0088, 0.0, 0.0, 0.0088, 271.65, 16.65)" width="300.2" xlink:href="#font_copy_10_65__2"/>
      </g>
    </g>
    <g id="font_copy_10_65__0">
      <path d="M512.0 -512.0 L512.0 -512.0 384.0 -512.0 384.0 -640.0 512.0 -640.0 512.0 -768.0 640.0 -768.0 640.0 -896.0 768.0 -896.0 768.0 -1024.0 896.0 -1024.0 896.0 -1152.0 640.0 -1152.0 640.0 -1024.0 512.0 -1024.0 512.0 -896.0 384.0 -896.0 384.0 -768.0 256.0 -768.0 256.0 -640.0 128.0 -640.0 128.0 -512.0 256.0 -512.0 256.0 -384.0 384.0 -384.0 384.0 -256.0 512.0 -256.0 512.0 -128.0 640.0 -128.0 640.0 0.0 896.0 0.0 896.0 -128.0 768.0 -128.0 768.0 -256.0 640.0 -256.0 640.0 -384.0 512.0 -384.0 512.0 -512.0" fill-rule="evenodd" stroke="none"/>
    </g>
    <g id="font_copy_10_65_P0">
      <path d="M1024.0 -640.0 L1024.0 -640.0 1024.0 -1152.0 896.0 -1152.0 896.0 -1280.0 0.0 -1280.0 0.0 0.0 256.0 0.0 256.0 -512.0 896.0 -512.0 896.0 -640.0 1024.0 -640.0 M768.0 -640.0 L768.0 -640.0 256.0 -640.0 256.0 -1152.0 768.0 -1152.0 768.0 -640.0" fill-rule="evenodd" stroke="none"/>
    </g>
    <g id="font_copy_10_65_r0">
      <path d="M512.0 -768.0 L512.0 -768.0 512.0 -896.0 256.0 -896.0 256.0 -768.0 128.0 -768.0 128.0 -896.0 0.0 -896.0 0.0 0.0 256.0 0.0 256.0 -640.0 384.0 -640.0 384.0 -768.0 512.0 -768.0" fill-rule="evenodd" stroke="none"/>
    </g>
    <g id="font_copy_10_65_e0">
      <path d="M256.0 -512.0 L256.0 -512.0 256.0 -768.0 512.0 -768.0 512.0 -512.0 256.0 -512.0 M512.0 -256.0 L512.0 -256.0 512.0 -128.0 256.0 -128.0 256.0 -384.0 768.0 -384.0 768.0 -768.0 640.0 -768.0 640.0 -896.0 128.0 -896.0 128.0 -768.0 0.0 -768.0 0.0 -128.0 128.0 -128.0 128.0 0.0 640.0 0.0 640.0 -128.0 768.0 -128.0 768.0 -256.0 512.0 -256.0" fill-rule="evenodd" stroke="none"/>
    </g>
    <g id="font_copy_10_65_s0">
      <path d="M256.0 -768.0 L256.0 -768.0 512.0 -768.0 512.0 -640.0 768.0 -640.0 768.0 -768.0 640.0 -768.0 640.0 -896.0 128.0 -896.0 128.0 -768.0 0.0 -768.0 0.0 -512.0 128.0 -512.0 128.0 -384.0 512.0 -384.0 512.0 -128.0 256.0 -128.0 256.0 -256.0 0.0 -256.0 0.0 -128.0 128.0 -128.0 128.0 0.0 640.0 0.0 640.0 -128.0 768.0 -128.0 768.0 -384.0 640.0 -384.0 640.0 -512.0 256.0 -512.0 256.0 -768.0" fill-rule="evenodd" stroke="none"/>
    </g>
    <g id="font_copy_10_65_S0">
      <path d="M512.0 -768.0 L512.0 -768.0 256.0 -768.0 256.0 -1152.0 768.0 -1152.0 768.0 -896.0 1024.0 -896.0 1024.0 -1152.0 896.0 -1152.0 896.0 -1280.0 128.0 -1280.0 128.0 -1152.0 0.0 -1152.0 0.0 -768.0 128.0 -768.0 128.0 -640.0 512.0 -640.0 512.0 -512.0 768.0 -512.0 768.0 -128.0 256.0 -128.0 256.0 -384.0 0.0 -384.0 0.0 -128.0 128.0 -128.0 128.0 0.0 896.0 0.0 896.0 -128.0 1024.0 -128.0 1024.0 -512.0 896.0 -512.0 896.0 -640.0 512.0 -640.0 512.0 -768.0" fill-rule="evenodd" stroke="none"/>
    </g>
    <g id="font_copy_10_65_A0">
      <path d="M896.0 -1024.0 L896.0 -1024.0 768.0 -1024.0 768.0 -1280.0 384.0 -1280.0 384.0 -1024.0 256.0 -1024.0 256.0 -768.0 128.0 -768.0 128.0 -384.0 0.0 -384.0 0.0 0.0 256.0 0.0 256.0 -384.0 896.0 -384.0 896.0 0.0 1152.0 0.0 1152.0 -384.0 1024.0 -384.0 1024.0 -768.0 896.0 -768.0 896.0 -1024.0 M640.0 -768.0 L640.0 -768.0 768.0 -768.0 768.0 -512.0 384.0 -512.0 384.0 -768.0 512.0 -768.0 512.0 -1023.0 640.0 -1023.0 640.0 -768.0" fill-rule="evenodd" stroke="none"/>
    </g>
    <g id="font_copy_10_65_C0">
      <path d="M768.0 -384.0 L768.0 -384.0 768.0 -128.0 256.0 -128.0 256.0 -1152.0 768.0 -1152.0 768.0 -896.0 1024.0 -896.0 1024.0 -1152.0 896.0 -1152.0 896.0 -1280.0 128.0 -1280.0 128.0 -1152.0 0.0 -1152.0 0.0 -128.0 128.0 -128.0 128.0 0.0 896.0 0.0 896.0 -128.0 1024.0 -128.0 1024.0 -384.0 768.0 -384.0" fill-rule="evenodd" stroke="none"/>
    </g>
    <g id="font_copy_10_65_E0">
      <path d="M0.0 0.0 L0.0 0.0 896.0 0.0 896.0 -128.0 256.0 -128.0 256.0 -640.0 768.0 -640.0 768.0 -768.0 256.0 -768.0 256.0 -1152.0 896.0 -1152.0 896.0 -1280.0 0.0 -1280.0 0.0 0.0" fill-rule="evenodd" stroke="none"/>
    </g>
    <g id="font_copy_10_65_B0">
      <path d="M1024.0 -768.0 L1024.0 -768.0 1024.0 -1152.0 896.0 -1152.0 896.0 -1280.0 0.0 -1280.0 0.0 0.0 896.0 0.0 896.0 -128.0 1024.0 -128.0 1024.0 -640.0 896.0 -640.0 896.0 -768.0 1024.0 -768.0 M768.0 -768.0 L768.0 -768.0 256.0 -768.0 256.0 -1152.0 768.0 -1152.0 768.0 -768.0 M768.0 -128.0 L768.0 -128.0 256.0 -128.0 256.0 -640.0 768.0 -640.0 768.0 -128.0" fill-rule="evenodd" stroke="none"/>
    </g>
    <g id="font_copy_10_65_R0">
      <path d="M768.0 -384.0 L768.0 -384.0 640.0 -384.0 640.0 -512.0 896.0 -512.0 896.0 -640.0 1024.0 -640.0 1024.0 -1152.0 896.0 -1152.0 896.0 -1280.0 0.0 -1280.0 0.0 0.0 256.0 0.0 256.0 -512.0 384.0 -512.0 384.0 -384.0 512.0 -384.0 512.0 -256.0 640.0 -256.0 640.0 -128.0 768.0 -128.0 768.0 0.0 1024.0 0.0 1024.0 -128.0 896.0 -128.0 896.0 -256.0 768.0 -256.0 768.0 -384.0 M768.0 -640.0 L768.0 -640.0 256.0 -640.0 256.0 -1152.0 768.0 -1152.0 768.0 -640.0" fill-rule="evenodd" stroke="none"/>
    </g>
    <g id="font_copy_10_65_t0">
      <path d="M128.0 -1280.0 L128.0 -1280.0 128.0 -896.0 0.0 -896.0 0.0 -768.0 128.0 -768.0 128.0 -128.0 256.0 -128.0 256.0 0.0 640.0 0.0 640.0 -128.0 384.0 -128.0 384.0 -768.0 640.0 -768.0 640.0 -896.0 384.0 -896.0 384.0 -1280.0 128.0 -1280.0" fill-rule="evenodd" stroke="none"/>
    </g>
    <g id="font_copy_10_65_o0">
      <path d="M640.0 -896.0 L640.0 -896.0 128.0 -896.0 128.0 -768.0 0.0 -768.0 0.0 -128.0 128.0 -128.0 128.0 0.0 640.0 0.0 640.0 -128.0 768.0 -128.0 768.0 -768.0 640.0 -768.0 640.0 -896.0 M256.0 -768.0 L256.0 -768.0 512.0 -768.0 512.0 -128.0 256.0 -128.0 256.0 -768.0" fill-rule="evenodd" stroke="none"/>
    </g>
    <g id="font_copy_10_65_k0">
      <path d="M896.0 -768.0 L896.0 -768.0 896.0 -896.0 640.0 -896.0 640.0 -768.0 512.0 -768.0 512.0 -640.0 384.0 -640.0 384.0 -512.0 256.0 -512.0 256.0 -1280.0 0.0 -1280.0 0.0 0.0 256.0 0.0 256.0 -384.0 384.0 -384.0 384.0 -256.0 512.0 -256.0 512.0 -128.0 640.0 -128.0 640.0 0.0 896.0 0.0 896.0 -128.0 768.0 -128.0 768.0 -256.0 640.0 -256.0 640.0 -384.0 512.0 -384.0 512.0 -512.0 640.0 -512.0 640.0 -640.0 768.0 -640.0 768.0 -768.0 896.0 -768.0" fill-rule="evenodd" stroke="none"/>
    </g>
    <g id="font_copy_10_65_i0">
      <path d="M0.0 -1280.0 L0.0 -1280.0 0.0 -1152.0 256.0 -1152.0 256.0 -1280.0 0.0 -1280.0 M0.0 -896.0 L0.0 -896.0 0.0 0.0 256.0 0.0 256.0 -896.0 0.0 -896.0" fill-rule="evenodd" stroke="none"/>
    </g>
    <g id="font_copy_10_65_p0">
      <path d="M640.0 -896.0 L640.0 -896.0 0.0 -896.0 0.0 384.0 256.0 384.0 256.0 0.0 640.0 0.0 640.0 -128.0 768.0 -128.0 768.0 -768.0 640.0 -768.0 640.0 -896.0 M256.0 -128.0 L256.0 -128.0 256.0 -768.0 512.0 -768.0 512.0 -128.0 256.0 -128.0" fill-rule="evenodd" stroke="none"/>
    </g>
    <g id="font_copy_10_65__2">
      <path d="M384.0 -384.0 L384.0 -384.0 384.0 -256.0 256.0 -256.0 256.0 -128.0 128.0 -128.0 128.0 0.0 384.0 0.0 384.0 -128.0 512.0 -128.0 512.0 -256.0 640.0 -256.0 640.0 -384.0 768.0 -384.0 768.0 -512.0 896.0 -512.0 896.0 -640.0 768.0 -640.0 768.0 -768.0 640.0 -768.0 640.0 -896.0 512.0 -896.0 512.0 -1024.0 384.0 -1024.0 384.0 -1152.0 128.0 -1152.0 128.0 -1024.0 256.0 -1024.0 256.0 -896.0 384.0 -896.0 384.0 -768.0 512.0 -768.0 512.0 -640.0 640.0 -640.0 640.0 -512.0 512.0 -512.0 512.0 -384.0 384.0 -384.0" fill-rule="evenodd" stroke="none"/>
    </g>
  </defs>
</svg>
