<?xml version="1.0" encoding="UTF-8" standalone="no"?>
<svg xmlns:ffdec="https://www.free-decompiler.com/flash" xmlns:xlink="http://www.w3.org/1999/xlink" ffdec:objectType="frame" height="60.7px" width="24.8px" xmlns="http://www.w3.org/2000/svg">
  <g transform="matrix(2.0, 0.0, 0.0, 2.0, 12.2, 30.3)">
    <use ffdec:characterId="942" height="30.35" transform="matrix(1.0, 0.0, 0.0, 1.0, -6.1, -15.15)" width="12.4" xlink:href="#shape0"/>
    <filter id="filter0">
      <feFlood flood-color="#66ffff" flood-opacity="1.0" result="filterResult0"/>
      <feComposite in="filterResult0" in2="SourceGraphic" operator="out" result="filterResult1"/>
      <feConvolveMatrix divisor="25.0" in="filterResult1" kernelMatrix="1 1 1 1 1 1 1 1 1 1 1 1 1 1 1 1 1 1 1 1 1 1 1 1 1" order="5 5" result="filterResult2"/>
      <feComposite in="filterResult2" in2="SourceGraphic" operator="in" result="filterResult3"/>
      <feComposite in="filterResult3" in2="SourceGraphic" operator="over" result="filterResult4"/>
      <feColorMatrix in="filterResult4" result="filterResult5" type="matrix" values="0 0 0 0 0.0,0 0 0 0 0.6,0 0 0 0 1.0,0 0 0 1 0"/>
      <feConvolveMatrix divisor="25.0" in="filterResult5" kernelMatrix="1 1 1 1 1 1 1 1 1 1 1 1 1 1 1 1 1 1 1 1 1 1 1 1 1" order="5 5" result="filterResult6"/>
      <feComposite in="filterResult4" in2="filterResult6" operator="over" result="filterResult7"/>
    </filter>
    <use ffdec:characterId="941" filter="url(#filter0)" height="6.1" transform="matrix(1.0, 0.0, 0.0, 1.0, -6.1, -8.4)" width="12.4" xlink:href="#sprite0"/>
  </g>
  <defs>
    <g id="shape0" transform="matrix(1.0, 0.0, 0.0, 1.0, 6.1, 15.15)">
      <path d="M-6.0 -7.5 L-5.9 -10.35 -4.95 -14.2 -4.95 -14.25 Q-4.55 -14.3 -4.35 -14.5 0.0 -13.55 3.7 -15.15 L6.2 -11.3 6.3 -8.4 Q-0.75 -5.65 -6.0 -7.5" fill="url(#gradient0)" fill-rule="evenodd" stroke="none"/>
      <path d="M5.35 -4.6 Q4.3 -2.35 3.65 -0.1 L3.45 4.85 1.85 13.3 Q0.7 14.15 -0.05 15.2 -2.25 13.95 -4.4 13.1 -4.4 8.85 -4.55 4.75 L-4.65 0.45 -5.85 -4.1 -1.6 -2.3 Q1.0 -3.45 5.35 -4.6" fill="url(#gradient1)" fill-rule="evenodd" stroke="none"/>
      <path d="M-6.0 -7.5 L-5.9 -10.35 -4.95 -14.2 -4.95 -14.25 Q-4.55 -14.3 -4.35 -14.5 0.0 -13.55 3.7 -15.15 L6.2 -11.3 6.3 -8.4 6.3 -7.1 6.3 -5.45 5.35 -4.6 Q4.3 -2.35 3.65 -0.1 L3.45 4.85 1.85 13.3 Q0.7 14.15 -0.05 15.2 -2.25 13.95 -4.4 13.1 -4.4 8.85 -4.55 4.75 L-4.65 0.45 -5.85 -4.1 -6.1 -4.75 -6.05 -6.1 -6.0 -7.5 Q-0.75 -5.65 6.3 -8.4 M-5.85 -4.1 L-1.6 -2.3 Q1.0 -3.45 5.35 -4.6" fill="none" stroke="#000000" stroke-linecap="round" stroke-linejoin="round" stroke-width="0.05"/>
    </g>
    <radialGradient cx="0" cy="0" gradientTransform="matrix(0.012, 0.0, 0.0, 0.012, 1.9, -13.4)" gradientUnits="userSpaceOnUse" id="gradient0" r="819.2" spreadMethod="pad">
      <stop offset="0.0" stop-color="#ffffff"/>
      <stop offset="0.42745098039215684" stop-color="#5caccd"/>
      <stop offset="0.44313725490196076" stop-color="#37619d"/>
      <stop offset="0.6470588235294118" stop-color="#6492bd"/>
      <stop offset="1.0" stop-color="#c4d9e6"/>
    </radialGradient>
    <radialGradient cx="0" cy="0" gradientTransform="matrix(0.0151, 0.0, 0.0, 0.0151, 0.4, 2.85)" gradientUnits="userSpaceOnUse" id="gradient1" r="819.2" spreadMethod="pad">
      <stop offset="0.0" stop-color="#587baf"/>
      <stop offset="0.3803921568627451" stop-color="#28272e"/>
      <stop offset="0.6823529411764706" stop-color="#101012"/>
      <stop offset="0.9725490196078431" stop-color="#4f424f"/>
    </radialGradient>
    <g id="sprite0" transform="matrix(1.0, 0.0, 0.0, 1.0, 6.2, 3.05)">
      <use ffdec:characterId="940" height="6.1" transform="matrix(1.0, 0.0, 0.0, 1.0, -6.2, -3.05)" width="12.4" xlink:href="#shape1"/>
    </g>
    <g id="shape1" transform="matrix(1.0, 0.0, 0.0, 1.0, 6.2, 3.05)">
      <path d="M6.2 -1.75 L6.2 -0.1 5.25 0.75 Q0.9 1.9 -1.7 3.05 L-5.95 1.25 -6.2 0.6 -6.15 -0.75 -6.1 -2.15 Q-0.85 -0.3 6.2 -3.05 L6.2 -1.75" fill="#ffffff" fill-rule="evenodd" stroke="none"/>
    </g>
  </defs>
</svg>
