<?xml version="1.0" encoding="UTF-8" standalone="no"?>
<svg xmlns:ffdec="https://www.free-decompiler.com/flash" xmlns:xlink="http://www.w3.org/1999/xlink" ffdec:objectType="frame" height="129.4px" width="54.6px" xmlns="http://www.w3.org/2000/svg">
  <g transform="matrix(2.0, 0.0, 0.0, 2.0, 28.6, 72.8)">
    <use ffdec:characterId="510" height="46.15" transform="matrix(1.0, 0.0, 0.0, 1.0, -3.8, -17.85)" width="5.25" xlink:href="#shape0"/>
    <use ffdec:characterId="105" height="45.1" transform="matrix(-0.0583, 0.0092, -0.1457, -0.9221, 12.995, 5.2067)" width="355.1" xlink:href="#shape1"/>
  </g>
  <defs>
    <g id="shape0" transform="matrix(1.0, 0.0, 0.0, 1.0, 3.8, 17.85)">
      <path d="M0.6 17.7 Q-0.2 22.7 -0.1 27.6 -2.35 29.15 -3.8 27.3 L-2.35 17.2 Q-0.6 18.4 0.6 17.7" fill="#373737" fill-rule="evenodd" stroke="none"/>
      <path d="M1.2 14.45 L0.6 17.7 Q-0.6 18.4 -2.35 17.2 L-1.95 14.45 Q-0.4 15.4 1.2 14.45" fill="#524636" fill-rule="evenodd" stroke="none"/>
      <path d="M-1.95 14.45 L-1.95 14.2 Q-0.4 -1.5 -2.1 -17.85 L0.7 -12.7 Q1.9 1.2 1.2 14.45 -0.4 15.4 -1.95 14.45" fill="url(#gradient0)" fill-rule="evenodd" stroke="none"/>
      <path d="M-1.95 14.45 L-1.95 14.2 Q-0.4 -1.5 -2.1 -17.85 L0.7 -12.7 Q1.9 1.2 1.2 14.45 L0.6 17.7 Q-0.2 22.7 -0.1 27.6 -2.35 29.15 -3.8 27.3 L-2.35 17.2 -1.95 14.45 Q-0.4 15.4 1.2 14.45 M-2.35 17.2 Q-0.6 18.4 0.6 17.7" fill="none" stroke="#000000" stroke-linecap="round" stroke-linejoin="round" stroke-width="0.05"/>
    </g>
    <radialGradient cx="0" cy="0" gradientTransform="matrix(0.035, 0.0, 0.0, 0.035, 0.5, 10.75)" gradientUnits="userSpaceOnUse" id="gradient0" r="819.2" spreadMethod="pad">
      <stop offset="0.0" stop-color="#412648"/>
      <stop offset="1.0" stop-color="#b957e3"/>
    </radialGradient>
    <g id="shape1" transform="matrix(1.0, 0.0, 0.0, 1.0, 177.55, 22.55)">
      <path d="M125.55 -15.95 Q177.55 -9.35 177.55 0.0 177.55 9.35 125.55 15.95 73.6 22.55 0.0 22.55 -73.6 22.55 -125.55 15.95 -177.55 9.35 -177.55 0.0 -177.55 -9.35 -125.55 -15.95 -73.6 -22.55 0.0 -22.55 73.6 -22.55 125.55 -15.95" fill="url(#gradient1)" fill-rule="evenodd" stroke="none"/>
    </g>
    <radialGradient cx="0" cy="0" gradientTransform="matrix(0.2204, 0.0, 0.0, 0.028, -0.05, 0.0)" gradientUnits="userSpaceOnUse" id="gradient1" r="819.2" spreadMethod="pad">
      <stop offset="0.06274509803921569" stop-color="#ff00ff" stop-opacity="0.69803923"/>
      <stop offset="0.12941176470588237" stop-color="#ff00ff" stop-opacity="0.5686275"/>
      <stop offset="0.21176470588235294" stop-color="#ff00ff" stop-opacity="0.53333336"/>
      <stop offset="0.44313725490196076" stop-color="#ff00ff" stop-opacity="0.14509805"/>
      <stop offset="0.9098039215686274" stop-color="#ff00ff" stop-opacity="0.0"/>
    </radialGradient>
  </defs>
</svg>
