<?xml version="1.0" encoding="UTF-8" standalone="no"?>
<svg xmlns:ffdec="https://www.free-decompiler.com/flash" xmlns:xlink="http://www.w3.org/1999/xlink" ffdec:objectType="frame" height="440.7px" width="496.1px" xmlns="http://www.w3.org/2000/svg">
  <g transform="matrix(2.0, 0.0, 0.0, 2.0, 219.2, 331.7)">
    <use ffdec:characterId="144" height="19.95" id="shadower" transform="matrix(1.069, 0.1557, 0.0132, 0.7314, -34.0227, 20.662)" width="65.05" xlink:href="#sprite0"/>
    <filter id="filter0"/>
    <use ffdec:characterId="2541" filter="url(#filter0)" height="47.15" id="hand1" transform="matrix(0.5777, 0.3278, -0.3278, 0.5777, -12.1148, -51.7194)" width="37.45" xlink:href="#sprite1"/>
    <filter id="filter1"/>
    <use ffdec:characterId="2541" filter="url(#filter1)" height="47.15" id="hand2" transform="matrix(0.6052, 0.0503, -0.0503, 0.6052, -11.9708, -17.8593)" width="37.45" xlink:href="#sprite1"/>
    <filter id="filter2"/>
    <use ffdec:characterId="2538" filter="url(#filter2)" height="34.85" id="leg3" transform="matrix(0.6495, 0.1563, -0.1563, 0.6495, -4.3869, 8.1815)" width="25.35" xlink:href="#sprite3"/>
    <use ffdec:characterId="2535" height="21.9" transform="matrix(1.0, 0.0, 0.0, 1.0, -36.2, 19.35)" width="74.65" xlink:href="#shape3"/>
    <use ffdec:characterId="2534" height="11.65" transform="matrix(1.0, 0.0, 0.0, 1.0, -21.3, 22.85)" width="36.75" xlink:href="#shape4"/>
    <filter id="filter3"/>
    <use ffdec:characterId="2533" filter="url(#filter3)" height="45.2" id="chest" transform="matrix(0.2263, -0.6281, 0.6281, 0.2263, -32.2851, -44.1074)" width="70.45" xlink:href="#sprite5"/>
    <filter id="filter5"/>
    <use ffdec:characterId="2530" filter="url(#filter5)" height="75.55" id="foot1" transform="matrix(-0.3905, -0.54, 0.54, -0.3905, -6.5749, -69.0676)" width="31.65" xlink:href="#sprite7"/>
    <filter id="filter7"/>
    <use ffdec:characterId="2527" filter="url(#filter7)" height="51.0" id="head" transform="matrix(-0.2315, -0.6261, 0.6261, -0.2315, 19.3524, -103.8012)" width="31.65" xlink:href="#sprite10"/>
  </g>
  <defs>
    <g id="sprite0" transform="matrix(1.0, 0.0, 0.0, 1.0, 32.5, 9.95)">
      <use ffdec:characterId="143" height="19.95" transform="matrix(1.0, 0.0, 0.0, 1.0, -32.5, -9.95)" width="65.05" xlink:href="#shape0"/>
    </g>
    <g id="shape0" transform="matrix(1.0, 0.0, 0.0, 1.0, 32.5, 9.95)">
      <path d="M1.45 8.25 Q-12.05 10.55 -22.0 9.8 -31.85 9.0 -32.45 5.6 -33.05 2.2 -24.0 -1.85 -14.9 -5.9 -1.4 -8.2 12.1 -10.55 22.0 -9.75 31.95 -9.0 32.5 -5.6 33.1 -2.2 24.0 1.85 14.95 5.9 1.45 8.25" fill="url(#gradient0)" fill-rule="evenodd" stroke="none"/>
    </g>
    <radialGradient cx="0" cy="0" gradientTransform="matrix(0.0432, -0.0074, 0.0018, 0.0106, 0.05, 0.0)" gradientUnits="userSpaceOnUse" id="gradient0" r="819.2" spreadMethod="pad">
      <stop offset="0.3333333333333333" stop-color="#000000" stop-opacity="0.22352941"/>
      <stop offset="0.8627450980392157" stop-color="#000000" stop-opacity="0.0"/>
      <stop offset="1.0" stop-color="#000000" stop-opacity="0.0"/>
    </radialGradient>
    <g id="sprite1" transform="matrix(1.0, 0.0, 0.0, 1.0, 17.35, 16.5)">
      <use ffdec:characterId="2540" height="47.15" transform="matrix(1.0, 0.0, 0.0, 1.0, -17.35, -16.5)" width="37.45" xlink:href="#sprite2"/>
    </g>
    <g id="sprite2" transform="matrix(1.0, 0.0, 0.0, 1.0, 17.35, 16.5)">
      <use ffdec:characterId="2539" height="47.15" transform="matrix(1.0, 0.0, 0.0, 1.0, -17.35, -16.5)" width="37.45" xlink:href="#shape1"/>
    </g>
    <g id="shape1" transform="matrix(1.0, 0.0, 0.0, 1.0, 17.35, 16.5)">
      <path d="M0.35 14.1 L6.3 7.85 12.65 19.7 9.35 21.95 0.45 14.5 0.35 14.1" fill="#141614" fill-rule="evenodd" stroke="none"/>
      <path d="M0.45 14.5 L9.35 21.95 12.65 19.7 6.3 7.85 0.35 14.1" fill="none" stroke="#000000" stroke-linecap="round" stroke-linejoin="round" stroke-width="0.05"/>
      <path d="M19.2 26.85 Q17.75 29.85 14.95 30.5 12.15 31.15 9.55 29.1 7.0 27.05 6.15 23.5 5.35 20.0 6.75 17.0 8.2 14.0 11.0 13.35 13.8 12.7 16.4 14.75 19.0 16.8 19.8 20.3 20.65 23.85 19.2 26.85" fill="url(#gradient1)" fill-rule="evenodd" stroke="none"/>
      <path d="M19.2 26.85 Q17.75 29.85 14.95 30.5 12.15 31.15 9.55 29.1 7.0 27.05 6.15 23.5 5.35 20.0 6.75 17.0 8.2 14.0 11.0 13.35 13.8 12.7 16.4 14.75 19.0 16.8 19.8 20.3 20.65 23.85 19.2 26.85 Z" fill="none" stroke="#000000" stroke-linecap="round" stroke-linejoin="round" stroke-width="0.05"/>
      <path d="M-17.35 -10.35 Q-10.15 -17.9 -0.95 -16.2 1.8 -2.7 9.6 11.15 5.1 13.4 3.5 18.7 L-3.05 13.2 Q-10.65 4.65 -16.35 -2.5 -13.3 -4.5 -17.35 -10.35" fill="url(#gradient2)" fill-rule="evenodd" stroke="none"/>
      <path d="M-17.35 -10.35 Q-13.3 -4.5 -16.35 -2.5 -10.65 4.65 -3.05 13.2 L3.5 18.7 Q5.1 13.4 9.6 11.15 1.8 -2.7 -0.95 -16.2 -10.15 -17.9 -17.35 -10.35 Z" fill="none" stroke="#000000" stroke-linecap="round" stroke-linejoin="round" stroke-width="0.05"/>
      <path d="M1.75 -8.15 L10.15 8.4 5.05 9.8 -8.7 -0.25 -10.4 -11.1 -2.15 -15.1 4.2 -13.8 Q9.95 -4.6 11.65 3.25 8.9 -1.95 3.5 -7.9 L1.75 -8.15" fill="url(#gradient3)" fill-rule="evenodd" stroke="none"/>
      <path d="M1.75 -8.15 L10.15 8.4 5.05 9.8 -8.7 -0.25 -10.4 -11.1 -2.15 -15.1 4.2 -13.8 Q9.95 -4.6 11.65 3.25 8.9 -1.95 3.5 -7.9 L1.75 -8.15 Z" fill="none" stroke="#000000" stroke-linecap="round" stroke-linejoin="round" stroke-width="0.05"/>
    </g>
    <radialGradient cx="0" cy="0" gradientTransform="matrix(0.0192, 0.0, 0.0, 0.0192, 11.3, 15.95)" gradientUnits="userSpaceOnUse" id="gradient1" r="819.2" spreadMethod="pad">
      <stop offset="0.0" stop-color="#ffffff"/>
      <stop offset="0.16862745098039217" stop-color="#606364"/>
      <stop offset="0.6392156862745098" stop-color="#111111"/>
      <stop offset="1.0" stop-color="#000000"/>
    </radialGradient>
    <radialGradient cx="0" cy="0" gradientTransform="matrix(0.0285, 0.0, 0.0, 0.0285, -7.2, 6.05)" gradientUnits="userSpaceOnUse" id="gradient2" r="819.2" spreadMethod="pad">
      <stop offset="0.0" stop-color="#597546"/>
      <stop offset="0.2549019607843137" stop-color="#263124"/>
      <stop offset="0.6235294117647059" stop-color="#0c1116"/>
      <stop offset="1.0" stop-color="#000000"/>
    </radialGradient>
    <radialGradient cx="0" cy="0" gradientTransform="matrix(0.0214, 0.0, 0.0, 0.0214, -2.95, -2.9)" gradientUnits="userSpaceOnUse" id="gradient3" r="819.2" spreadMethod="pad">
      <stop offset="0.0" stop-color="#5b4b35"/>
      <stop offset="1.0" stop-color="#343943"/>
    </radialGradient>
    <g id="sprite3" transform="matrix(1.0, 0.0, 0.0, 1.0, 12.15, 16.35)">
      <use ffdec:characterId="2537" height="34.85" transform="matrix(1.0, 0.0, 0.0, 1.0, -12.15, -16.35)" width="25.35" xlink:href="#sprite4"/>
    </g>
    <g id="sprite4" transform="matrix(1.0, 0.0, 0.0, 1.0, 12.15, 16.35)">
      <use ffdec:characterId="2536" height="34.85" transform="matrix(1.0, 0.0, 0.0, 1.0, -12.15, -16.35)" width="25.35" xlink:href="#shape2"/>
    </g>
    <g id="shape2" transform="matrix(1.0, 0.0, 0.0, 1.0, 12.15, 16.35)">
      <path d="M-3.3 -15.55 L3.05 -16.35 Q9.25 -8.0 11.9 1.15 L13.2 6.6 Q9.0 17.3 1.0 18.4 -4.3 19.45 -10.5 10.8 L-11.6 9.15 Q-13.2 -1.25 -10.1 -12.0 L-3.3 -15.55" fill="url(#gradient4)" fill-rule="evenodd" stroke="none"/>
      <path d="M-3.3 -15.55 L3.05 -16.35 Q9.25 -8.0 11.9 1.15 L13.2 6.6 Q9.0 17.3 1.0 18.4 -4.3 19.45 -10.5 10.8 L-11.6 9.15 Q-13.2 -1.25 -10.1 -12.0 L-3.3 -15.55 Z" fill="none" stroke="#000000" stroke-linecap="round" stroke-linejoin="round" stroke-width="0.05"/>
    </g>
    <radialGradient cx="0" cy="0" gradientTransform="matrix(0.0351, 0.0, 0.0, 0.0351, -3.15, -10.05)" gradientUnits="userSpaceOnUse" id="gradient4" r="819.2" spreadMethod="pad">
      <stop offset="0.0" stop-color="#597546"/>
      <stop offset="0.2549019607843137" stop-color="#263124"/>
      <stop offset="0.6235294117647059" stop-color="#0c1116"/>
      <stop offset="1.0" stop-color="#000000"/>
    </radialGradient>
    <g id="shape3" transform="matrix(1.0, 0.0, 0.0, 1.0, 37.3, 10.95)">
      <path d="M-8.8 -10.55 L-7.45 -5.7 1.7 -5.45 7.35 -8.2 8.4 -10.05 8.45 -10.15 12.05 -7.8 11.7 -5.05 15.55 -3.95 16.05 -1.45 25.8 -1.3 27.8 2.2 34.45 2.45 37.35 4.55 Q-2.0 17.8 -37.3 3.7 L-32.15 2.0 -30.2 -0.45 -22.95 -2.2 -21.4 -4.9 -15.7 -5.05 -12.9 -8.6 -8.95 -10.95 -8.8 -10.55" fill="url(#gradient5)" fill-rule="evenodd" stroke="none"/>
      <path d="M8.4 -10.05 L7.35 -8.2 1.7 -5.45 -7.45 -5.7 -8.8 -10.55 Q-0.2 -8.25 8.4 -10.05" fill="url(#gradient6)" fill-rule="evenodd" stroke="none"/>
      <path d="M-8.95 -10.95 L-12.9 -8.6 -15.7 -5.05 -21.4 -4.9 -22.95 -2.2 -30.2 -0.45 -32.15 2.0 -37.3 3.7 M37.35 4.55 L34.45 2.45 27.8 2.2 25.8 -1.3 16.05 -1.45 15.55 -3.95 11.7 -5.05 12.05 -7.8 8.45 -10.15" fill="none" stroke="url(#gradient7)" stroke-linecap="round" stroke-linejoin="round" stroke-width="0.05"/>
    </g>
    <radialGradient cx="0" cy="0" gradientTransform="matrix(0.0, 0.0215, -0.0482, 0.0, -0.1, -4.8)" gradientUnits="userSpaceOnUse" id="gradient5" r="819.2" spreadMethod="pad">
      <stop offset="0.0" stop-color="#565232"/>
      <stop offset="0.3411764705882353" stop-color="#434034"/>
      <stop offset="1.0" stop-color="#181812" stop-opacity="0.0"/>
    </radialGradient>
    <linearGradient gradientTransform="matrix(-2.0E-4, -0.0034, 0.0105, -5.0E-4, -0.1, -8.2)" gradientUnits="userSpaceOnUse" id="gradient6" spreadMethod="pad" x1="-819.2" x2="819.2">
      <stop offset="0.0" stop-color="#565232"/>
      <stop offset="1.0" stop-color="#53533e" stop-opacity="0.0"/>
    </linearGradient>
    <radialGradient cx="0" cy="0" gradientTransform="matrix(0.0468, 0.0, 0.0, 0.0468, 0.5, -5.2)" gradientUnits="userSpaceOnUse" id="gradient7" r="819.2" spreadMethod="pad">
      <stop offset="0.0" stop-color="#000000"/>
      <stop offset="1.0" stop-color="#000000" stop-opacity="0.0"/>
    </radialGradient>
    <g id="shape4" transform="matrix(1.0, 0.0, 0.0, 1.0, 18.4, 5.8)">
      <path d="M11.55 1.35 L15.45 -3.15 18.35 -2.1 17.05 0.7 Q10.4 4.05 3.45 3.3 7.9 2.85 11.55 1.35 M-9.05 -5.8 L-7.3 -2.15 8.2 -0.4 -7.35 0.65 -11.05 -3.3 -9.05 -5.8 M-18.2 2.2 L-18.4 0.25 -12.95 4.2 0.2 5.7 -12.7 5.85 -18.2 2.2" fill="#000000" fill-opacity="0.39215687" fill-rule="evenodd" stroke="none"/>
    </g>
    <g id="sprite5" transform="matrix(1.0, 0.0, 0.0, 1.0, 56.75, 37.8)">
      <use ffdec:characterId="2532" height="45.2" transform="matrix(1.0, 0.0, 0.0, 1.0, -56.75, -37.8)" width="70.45" xlink:href="#sprite6"/>
    </g>
    <g id="sprite6" transform="matrix(1.0, 0.0, 0.0, 1.0, 56.8, 37.75)">
      <use ffdec:characterId="2531" height="45.2" transform="matrix(1.0, 0.0, 0.0, 1.0, -56.8, -37.75)" width="70.45" xlink:href="#shape5"/>
    </g>
    <g id="shape5" transform="matrix(1.0, 0.0, 0.0, 1.0, 56.8, 37.75)">
      <path d="M-43.25 -6.1 L-45.75 -7.1 -38.15 -14.6 -32.25 -18.0 -28.95 -17.8 -18.1 -6.2 -20.95 2.0 -29.15 5.6 -29.8 4.55 -34.2 -2.45 -43.25 -6.1" fill="url(#gradient8)" fill-rule="evenodd" stroke="none"/>
      <path d="M-43.35 -5.85 L-43.25 -6.1 -34.2 -2.45 -29.8 4.55 -30.05 4.65 -34.4 7.45 -36.4 3.5 -46.9 0.0 -43.35 -5.85" fill="url(#gradient9)" fill-rule="evenodd" stroke="none"/>
      <path d="M-43.25 -6.1 L-45.75 -7.1 -38.15 -14.6 -32.25 -18.0 -31.05 -18.7 M-32.25 -18.0 L-28.95 -17.8 -18.1 -6.2 -20.95 2.0 -29.15 5.6 -29.8 4.55 -34.2 -2.45 -43.25 -6.1 M-30.05 4.65 L-34.4 7.45 -36.4 3.5 -46.9 0.0 -43.35 -5.85" fill="none" stroke="#000000" stroke-linecap="round" stroke-linejoin="round" stroke-width="0.05"/>
      <path d="M13.65 -12.95 Q6.0 -8.5 4.1 -1.0 L-1.1 -2.65 Q-7.5 -0.6 -10.65 2.6 L-13.0 0.0 Q-16.9 0.95 -21.45 5.2 -20.5 1.4 -21.7 -1.85 -22.5 -6.8 -26.85 -12.4 -29.15 -16.15 -36.85 -20.95 -25.15 -25.05 -17.2 -23.0 -14.2 -25.15 -17.7 -29.9 8.55 -21.95 13.65 -12.95" fill="url(#gradient10)" fill-rule="evenodd" stroke="none"/>
      <path d="M13.65 -12.95 Q8.55 -21.95 -17.7 -29.9 -14.2 -25.15 -17.2 -23.0 -25.15 -25.05 -36.85 -20.95 -29.15 -16.15 -26.85 -12.4 -22.5 -6.8 -21.7 -1.85 -20.5 1.4 -21.45 5.2 -16.9 0.95 -13.0 0.0 L-10.65 2.6 Q-7.5 -0.6 -1.1 -2.65 L4.1 -1.0 Q6.0 -8.5 13.65 -12.95 Z" fill="none" stroke="#000000" stroke-linecap="round" stroke-linejoin="round" stroke-width="0.05"/>
      <path d="M-56.8 -16.45 Q-41.1 -24.75 -25.45 -27.5 -27.45 -33.8 -34.05 -37.75 -16.15 -36.05 -10.5 -29.4 -9.7 -32.65 -13.65 -35.9 0.35 -31.6 8.0 -18.2 -0.6 -17.35 -3.95 -10.9 -10.8 -15.95 -20.3 -13.7 -25.3 -13.25 -23.95 -8.65 -34.0 -8.95 -34.6 -2.45 L-42.6 -0.6 Q-48.2 -1.3 -53.85 3.9 -50.6 -5.5 -42.6 -12.95 -47.3 -17.0 -56.8 -16.45" fill="url(#gradient11)" fill-rule="evenodd" stroke="none"/>
      <path d="M-56.8 -16.45 Q-41.1 -24.75 -25.45 -27.5 -27.45 -33.8 -34.05 -37.75 -16.15 -36.05 -10.5 -29.4 -9.7 -32.65 -13.65 -35.9 0.35 -31.6 8.0 -18.2 -0.6 -17.35 -3.95 -10.9 -10.8 -15.95 -20.3 -13.7 -25.3 -13.25 -23.95 -8.65 -34.0 -8.95 -34.6 -2.45 L-42.6 -0.6 Q-48.2 -1.3 -53.85 3.9 -50.6 -5.5 -42.6 -12.95 -47.3 -17.0 -56.8 -16.45 Z" fill="none" stroke="#000000" stroke-linecap="round" stroke-linejoin="round" stroke-width="0.05"/>
    </g>
    <radialGradient cx="0" cy="0" gradientTransform="matrix(0.0198, 0.0, 0.0, 0.0198, -29.55, -5.65)" gradientUnits="userSpaceOnUse" id="gradient8" r="819.2" spreadMethod="pad">
      <stop offset="0.0" stop-color="#5b4b35"/>
      <stop offset="1.0" stop-color="#343943"/>
    </radialGradient>
    <radialGradient cx="0" cy="0" gradientTransform="matrix(0.0135, 0.0, 0.0, 0.0135, -35.9, -1.15)" gradientUnits="userSpaceOnUse" id="gradient9" r="819.2" spreadMethod="pad">
      <stop offset="0.0" stop-color="#5b4b35"/>
      <stop offset="1.0" stop-color="#343943"/>
    </radialGradient>
    <radialGradient cx="0" cy="0" gradientTransform="matrix(0.0402, 0.0, 0.0, 0.0402, -5.25, -11.6)" gradientUnits="userSpaceOnUse" id="gradient10" r="819.2" spreadMethod="pad">
      <stop offset="0.0" stop-color="#5b4b35"/>
      <stop offset="1.0" stop-color="#343943"/>
    </radialGradient>
    <radialGradient cx="0" cy="0" gradientTransform="matrix(0.0431, -0.0179, 0.0218, 0.0525, -26.55, -27.65)" gradientUnits="userSpaceOnUse" id="gradient11" r="819.2" spreadMethod="pad">
      <stop offset="0.0" stop-color="#597546"/>
      <stop offset="0.2549019607843137" stop-color="#263124"/>
      <stop offset="0.6235294117647059" stop-color="#0c1116"/>
      <stop offset="1.0" stop-color="#000000"/>
    </radialGradient>
    <g id="sprite7" transform="matrix(1.0, 0.0, 0.0, 1.0, 17.25, 43.45)">
      <use ffdec:characterId="2529" height="75.55" transform="matrix(1.0, 0.0, 0.0, 1.0, -17.25, -43.45)" width="31.65" xlink:href="#sprite8"/>
    </g>
    <g id="sprite8" transform="matrix(1.0, 0.0, 0.0, 1.0, 17.2, 43.45)">
      <use ffdec:characterId="2500" height="61.5" transform="matrix(1.0, 0.0, 0.0, 1.0, -17.2, -29.4)" width="31.65" xlink:href="#shape6"/>
      <filter id="filter4">
        <feColorMatrix in="SourceGraphic" result="filterResult0" type="matrix" values="0 0 0 0 0.0,0 0 0 0 0.8,0 0 0 0 0.0,0 0 0 1 0"/>
        <feConvolveMatrix divisor="35.0" in="filterResult0" kernelMatrix="1 1 1 1 1 1 1 1 1 1 1 1 1 1 1 1 1 1 1 1 1 1 1 1 1 1 1 1 1 1 1 1 1 1 1" order="7 5" result="filterResult1"/>
        <feComposite in="SourceGraphic" in2="filterResult1" operator="over" result="filterResult2"/>
      </filter>
      <use ffdec:characterId="2476" filter="url(#filter4)" height="49.75" transform="matrix(1.0, 0.0, 0.0, 1.0, -13.2, -28.55)" width="22.85" xlink:href="#sprite9"/>
      <use ffdec:characterId="2528" height="57.05" transform="matrix(1.0, 0.0, 0.0, 1.0, -13.1, -43.45)" width="25.65" xlink:href="#shape8"/>
    </g>
    <g id="shape6" transform="matrix(1.0, 0.0, 0.0, 1.0, 17.2, 29.4)">
      <path d="M-6.0 -27.2 Q-4.05 -24.95 -4.05 -21.85 -4.05 -18.7 -6.0 -16.5 -7.95 -14.3 -10.65 -14.3 -11.95 -14.3 -13.1 -14.85 -14.25 -15.4 -15.25 -16.5 L-15.35 -16.65 Q-17.2 -18.8 -17.2 -21.85 -17.2 -24.95 -15.25 -27.2 -13.3 -29.4 -10.65 -29.4 -7.95 -29.4 -6.0 -27.2" fill="url(#gradient12)" fill-rule="evenodd" stroke="none"/>
      <path d="M-6.0 -27.2 Q-4.05 -24.95 -4.05 -21.85 -4.05 -18.7 -6.0 -16.5 -7.95 -14.3 -10.65 -14.3 -11.95 -14.3 -13.1 -14.85 -14.25 -15.4 -15.25 -16.5 L-15.35 -16.65 Q-17.2 -18.8 -17.2 -21.85 -17.2 -24.95 -15.25 -27.2 -13.3 -29.4 -10.65 -29.4 -7.95 -29.4 -6.0 -27.2 Z" fill="none" stroke="#000000" stroke-linecap="round" stroke-linejoin="round" stroke-width="0.05"/>
      <path d="M9.95 15.2 Q10.65 20.65 14.45 25.45 14.05 28.95 12.3 30.35 7.45 33.6 3.1 30.8 L1.65 23.1 -5.55 6.55 Q1.8 12.85 5.6 21.2 L9.95 15.2" fill="#141614" fill-rule="evenodd" stroke="none"/>
      <path d="M-5.55 6.55 L-6.05 6.15 Q-7.95 4.55 -10.1 3.1 -12.65 -3.85 -13.1 -11.15 L-13.15 -16.65 -13.15 -16.7 Q-8.1 -15.15 -4.5 -20.4 -2.3 -24.2 -3.4 -29.4 11.4 -10.05 11.2 13.4 L9.95 15.2 Q10.65 20.65 14.45 25.45 14.05 28.95 12.3 30.35 7.45 33.6 3.1 30.8 L1.65 23.1 -5.55 6.55 Q1.8 12.85 5.6 21.2 L9.95 15.2" fill="none" stroke="#000000" stroke-linecap="round" stroke-linejoin="round" stroke-width="0.05"/>
    </g>
    <radialGradient cx="0" cy="0" gradientTransform="matrix(0.0166, 0.0, 0.0, 0.0166, -10.45, -27.25)" gradientUnits="userSpaceOnUse" id="gradient12" r="819.2" spreadMethod="pad">
      <stop offset="0.0" stop-color="#ffffff"/>
      <stop offset="0.16862745098039217" stop-color="#606364"/>
      <stop offset="0.6392156862745098" stop-color="#111111"/>
      <stop offset="1.0" stop-color="#000000"/>
    </radialGradient>
    <g id="sprite9" transform="matrix(1.0, 0.0, 0.0, 1.0, 12.2, 24.45)">
      <use ffdec:characterId="2475" height="49.75" transform="matrix(1.0, 0.0, 0.0, 1.0, -12.2, -24.45)" width="22.85" xlink:href="#shape7"/>
    </g>
    <g id="shape7" transform="matrix(1.0, 0.0, 0.0, 1.0, 12.2, 24.45)">
      <path d="M-12.15 -12.55 L-12.15 -12.6 Q-2.6 -8.35 -1.65 -24.45 L10.65 16.65 6.6 25.3 Q2.8 16.95 -4.55 10.65 L-5.05 10.25 -9.1 7.2 Q-11.65 0.25 -12.1 -7.05 L-12.15 -12.55" fill="#ffffff" fill-rule="evenodd" stroke="none"/>
    </g>
    <g id="shape8" transform="matrix(1.0, 0.0, 0.0, 1.0, 13.1, 43.45)">
      <path d="M-4.65 -11.7 L-4.8 -11.9 -2.8 -22.35 Q-2.15 -30.65 -7.4 -43.45 12.1 -18.45 12.55 12.5 L7.8 12.05 Q2.85 0.35 -4.65 -11.7" fill="url(#gradient13)" fill-rule="evenodd" stroke="none"/>
      <path d="M-4.65 -11.7 L-4.8 -11.9 -2.8 -22.35 Q-2.15 -30.65 -7.4 -43.45 12.1 -18.45 12.55 12.5 L7.8 12.05 Q2.85 0.35 -4.65 -11.7 M11.35 13.1 L11.35 13.6" fill="none" stroke="#000000" stroke-linecap="round" stroke-linejoin="round" stroke-width="0.05"/>
      <path d="M-6.95 5.5 L-7.7 -6.35 -13.1 -10.9 M-4.65 -11.7 L-7.7 -6.35" fill="none" stroke="#009900" stroke-linecap="round" stroke-linejoin="round" stroke-width="0.05"/>
    </g>
    <radialGradient cx="0" cy="0" gradientTransform="matrix(0.0372, 0.0, 0.0, 0.0372, 5.6, -16.8)" gradientUnits="userSpaceOnUse" id="gradient13" r="819.2" spreadMethod="pad">
      <stop offset="0.0" stop-color="#597546"/>
      <stop offset="0.2549019607843137" stop-color="#263124"/>
      <stop offset="0.6235294117647059" stop-color="#0c1116"/>
      <stop offset="1.0" stop-color="#000000"/>
    </radialGradient>
    <g id="sprite10" transform="matrix(1.0, 0.0, 0.0, 1.0, 16.5, 15.2)">
      <use ffdec:characterId="2526" height="51.0" transform="matrix(1.0, 0.0, 0.0, 1.0, -16.5, -15.2)" width="31.65" xlink:href="#sprite11"/>
    </g>
    <g id="sprite11" transform="matrix(1.0, 0.0, 0.0, 1.0, 16.85, 15.3)">
      <use ffdec:characterId="2525" height="51.0" transform="matrix(1.0, 0.0, 0.0, 1.0, -16.85, -15.3)" width="31.65" xlink:href="#shape9"/>
      <filter id="filter6">
        <feColorMatrix in="SourceGraphic" result="filterResult3" type="matrix" values="0 0 0 0 0.0,0 0 0 0 0.8,0 0 0 0 0.0,0 0 0 1 0"/>
        <feConvolveMatrix divisor="25.0" in="filterResult3" kernelMatrix="1 1 1 1 1 1 1 1 1 1 1 1 1 1 1 1 1 1 1 1 1 1 1 1 1" order="5 5" result="filterResult4"/>
        <feComposite in="SourceGraphic" in2="filterResult4" operator="over" result="filterResult5"/>
      </filter>
      <use ffdec:characterId="2524" filter="url(#filter6)" height="6.05" transform="matrix(1.0, 0.0, 0.0, 1.0, -2.75, -5.15)" width="4.7" xlink:href="#sprite12"/>
    </g>
    <g id="shape9" transform="matrix(1.0, 0.0, 0.0, 1.0, 16.85, 15.3)">
      <path d="M-10.55 -3.6 L-10.65 -3.7 Q-11.05 -4.15 -13.25 -4.35 -7.25 -7.9 -4.1 -15.3 7.3 -1.45 14.8 35.7 8.05 21.3 -3.0 6.2 L-10.55 -3.6" fill="url(#gradient14)" fill-rule="evenodd" stroke="none"/>
      <path d="M-10.55 -3.6 L-3.0 6.2 -5.85 6.75 Q1.6 15.75 5.3 25.5 -2.8 13.45 -16.85 3.25 L-10.55 -3.6" fill="#141614" fill-rule="evenodd" stroke="none"/>
      <path d="M-3.0 6.2 Q8.05 21.3 14.8 35.7 7.3 -1.45 -4.1 -15.3 -7.25 -7.9 -13.25 -4.35 -11.05 -4.15 -10.65 -3.7 L-10.55 -3.6 -3.0 6.2 -5.85 6.75 Q1.6 15.75 5.3 25.5 -2.8 13.45 -16.85 3.25 L-10.55 -3.6" fill="none" stroke="#000000" stroke-linecap="round" stroke-linejoin="round" stroke-width="0.05"/>
    </g>
    <radialGradient cx="0" cy="0" gradientTransform="matrix(0.0404, 0.0, 0.0, 0.0404, 5.9, 4.4)" gradientUnits="userSpaceOnUse" id="gradient14" r="819.2" spreadMethod="pad">
      <stop offset="0.0" stop-color="#597546"/>
      <stop offset="0.2549019607843137" stop-color="#263124"/>
      <stop offset="0.6235294117647059" stop-color="#0c1116"/>
      <stop offset="1.0" stop-color="#000000"/>
    </radialGradient>
    <g id="sprite12" transform="matrix(1.0, 0.0, 0.0, 1.0, 2.35, 3.05)">
      <use ffdec:characterId="2523" height="6.05" transform="matrix(1.0, 0.0, 0.0, 1.0, -2.35, -3.05)" width="4.7" xlink:href="#shape10"/>
    </g>
    <g id="shape10" transform="matrix(1.0, 0.0, 0.0, 1.0, 2.35, 3.05)">
      <path d="M2.3 -0.35 Q2.5 0.95 1.95 1.85 1.4 2.8 0.45 2.95 -0.5 3.1 -1.3 2.35 -2.1 1.6 -2.3 0.3 -2.45 -0.95 -1.9 -1.9 -1.35 -2.85 -0.4 -3.0 0.55 -3.15 1.35 -2.4 2.15 -1.6 2.3 -0.35" fill="url(#gradient15)" fill-rule="evenodd" stroke="none"/>
    </g>
    <radialGradient cx="0" cy="0" gradientTransform="matrix(0.0048, 0.0, 0.0, 0.0048, 0.0, -0.05)" gradientUnits="userSpaceOnUse" id="gradient15" r="819.2" spreadMethod="pad">
      <stop offset="0.0" stop-color="#f5f0c5"/>
      <stop offset="1.0" stop-color="#40de18"/>
    </radialGradient>
  </defs>
</svg>
