<?xml version="1.0" encoding="UTF-8" standalone="no"?>
<svg xmlns:ffdec="https://www.free-decompiler.com/flash" xmlns:xlink="http://www.w3.org/1999/xlink" ffdec:objectType="frame" height="133.3px" width="462.5px" xmlns="http://www.w3.org/2000/svg">
  <g transform="matrix(2.0, 0.0, 0.0, 2.0, 0.9, 5.3)">
    <use ffdec:characterId="3766" height="61.25" transform="matrix(1.0, 0.0, 0.0, 1.0, 151.9, 0.0)" width="74.7" xlink:href="#sprite0"/>
    <use ffdec:characterId="3764" height="59.6" transform="matrix(0.9991, 0.0307, -0.0307, 0.9991, 1.75, 0.8)" width="75.75" xlink:href="#sprite1"/>
  </g>
  <defs>
    <g id="sprite0" transform="matrix(1.0, 0.0, 0.0, 1.0, 0.0, 0.0)">
      <use ffdec:characterId="3765" height="61.25" transform="matrix(1.0, 0.0, 0.0, 1.0, 0.0, 0.0)" width="74.7" xlink:href="#shape0"/>
    </g>
    <g id="shape0" transform="matrix(1.0, 0.0, 0.0, 1.0, 0.0, 0.0)">
      <path d="M55.5 42.55 Q62.35 42.75 64.6 43.8 L64.6 43.85 61.15 43.55 Q62.6 43.8 64.65 45.15 L68.5 48.0 68.4 47.7 Q68.4 47.45 68.7 47.25 70.55 48.5 71.9 50.05 73.4 51.65 73.65 52.8 L73.95 55.6 Q74.05 57.3 74.65 58.5 74.8 58.7 74.3 58.7 L74.2 58.7 74.15 58.75 Q74.0 58.95 73.5 58.95 L62.3 58.45 57.7 58.95 51.95 59.45 48.5 59.95 44.15 60.05 41.3 60.0 36.0 60.3 28.1 60.55 17.25 60.05 15.15 59.55 9.85 59.75 Q9.95 60.05 8.9 60.2 L3.6 60.3 3.3 60.6 1.7 60.85 1.15 60.8 0.85 61.25 0.4 61.2 0.45 60.85 Q0.0 60.4 0.0 59.3 L0.25 58.2 0.2 57.7 0.6 55.8 1.2 53.95 Q1.5 52.6 2.2 52.0 2.55 51.7 4.45 51.1 L7.15 50.3 7.05 50.2 7.0 49.85 Q7.0 49.3 13.35 46.95 20.7 44.25 22.9 42.8 L22.3 42.95 22.25 42.65 23.2 41.95 Q24.3 41.1 24.75 39.7 L25.55 38.2 25.1 38.0 Q23.65 36.8 22.55 34.85 L21.3 31.75 Q20.2 29.2 19.7 29.2 19.25 29.2 19.1 27.65 L18.85 25.2 18.85 22.55 19.05 22.55 Q18.6 21.5 18.3 20.3 L16.95 14.9 16.9 14.9 17.45 19.15 Q17.85 21.65 18.6 23.4 L18.6 23.45 Q17.55 22.6 16.95 19.5 16.5 17.15 16.5 15.05 L16.55 14.25 16.9 13.95 17.35 15.1 17.1 12.65 Q16.1 12.45 16.1 11.55 16.1 10.8 16.5 10.05 L17.05 8.45 17.95 6.0 19.8 3.35 Q21.1 1.7 22.8 1.0 28.05 -1.2 35.25 1.4 39.9 3.05 41.35 4.85 43.85 5.9 43.85 7.25 43.85 7.8 42.1 8.9 L42.6 9.4 42.75 8.95 43.15 8.95 43.65 12.75 44.0 16.8 44.0 17.7 44.6 17.7 44.65 19.05 Q44.65 22.7 43.65 28.5 L42.7 32.8 43.0 33.0 43.05 33.3 43.2 33.2 43.1 33.5 43.15 34.25 Q43.3 35.1 43.6 35.55 L44.6 37.45 Q47.65 40.2 53.8 42.45 L55.5 42.55 M57.25 43.7 Q63.4 45.85 66.5 47.4 65.4 46.6 63.8 45.7 L60.1 43.75 60.05 43.55 57.55 43.65 57.25 43.7 M40.8 5.95 L40.2 5.45 40.75 6.0 40.8 5.95 M43.05 7.1 L41.95 6.15 41.95 6.45 Q42.05 7.05 41.3 7.1 L41.8 8.3 43.05 7.1 M32.9 1.75 L28.2 1.85 27.95 2.15 29.9 2.55 32.3 2.8 33.95 2.6 32.9 1.75 M17.3 11.4 L17.2 11.1 17.0 11.4 16.5 11.8 16.45 11.8 17.05 12.3 17.05 12.2 17.1 11.6 17.3 11.4 M17.85 14.6 L17.85 14.65 18.0 13.6 17.7 13.0 17.85 14.6 M17.5 15.8 L17.9 17.35 17.5 15.75 17.5 15.8 M18.7 17.55 L18.85 19.4 19.55 22.6 19.6 22.65 19.95 21.05 19.9 21.0 Q18.95 19.35 18.8 18.1 L18.7 17.55 M25.25 33.5 L26.15 34.4 27.2 35.2 25.2 33.45 25.25 33.5 M24.0 34.35 Q24.35 35.25 26.0 36.6 L26.4 36.9 26.3 36.4 26.4 36.0 26.5 35.95 23.95 34.3 24.0 34.35 M29.2 38.55 L29.5 39.2 29.55 38.05 29.4 38.15 29.2 38.55 M28.6 38.6 L28.7 37.85 27.45 36.75 28.2 37.7 28.25 38.35 28.6 38.6 M28.6 40.1 L29.35 41.3 29.45 40.4 28.85 40.0 28.2 39.2 28.6 40.1 M27.45 37.75 L27.3 37.5 26.7 36.75 27.1 37.5 27.45 37.75 M26.95 37.9 L26.85 37.75 26.5 37.55 26.5 37.6 26.45 38.05 26.6 38.15 26.85 38.15 27.1 38.1 26.95 37.9 M26.7 38.55 Q26.05 39.7 26.05 40.15 L26.05 40.25 26.35 40.05 27.6 38.9 26.7 38.55 M41.8 35.45 L41.8 35.25 41.75 35.3 41.8 35.45 M42.7 36.2 L42.8 37.35 42.8 37.4 43.0 37.65 43.0 37.4 42.9 36.45 42.7 36.2 M42.5 34.95 L42.7 35.25 42.45 34.45 42.45 34.5 42.5 34.95 M39.35 38.55 L39.4 38.55 39.4 37.45 Q39.2 37.6 39.05 38.8 L39.35 38.55 M47.6 40.45 L46.65 40.65 46.25 40.6 Q48.0 41.45 50.2 41.95 L47.6 40.45 M44.0 39.0 Q44.6 39.7 45.2 40.05 L45.4 40.15 44.8 39.5 44.15 38.25 44.0 39.0 M45.4 39.45 Q45.95 40.1 47.2 40.2 L45.05 38.55 45.4 39.45" fill="#000000" fill-rule="evenodd" stroke="none"/>
    </g>
    <g id="sprite1" transform="matrix(1.0, 0.0, 0.0, 1.0, 0.0, 0.0)">
      <use ffdec:characterId="3763" height="59.6" transform="matrix(1.0, 0.0, 0.0, 1.0, 0.0, 0.0)" width="75.75" xlink:href="#shape1"/>
    </g>
    <g id="shape1" transform="matrix(1.0, 0.0, 0.0, 1.0, 0.0, 0.0)">
      <path d="M61.4 0.85 L62.55 1.25 62.2 1.05 61.4 0.85 M62.9 0.5 L64.25 2.15 Q67.7 5.0 67.7 5.45 L67.35 5.9 66.75 6.15 66.35 6.15 Q67.9 7.1 68.7 8.1 69.8 9.4 69.8 11.35 69.8 12.9 67.85 24.65 L67.85 24.75 Q67.85 25.75 66.6 27.6 L64.8 30.0 63.1 32.3 63.8 31.05 62.35 33.25 60.85 36.0 60.55 35.55 59.45 37.6 58.45 38.05 Q57.6 38.3 57.5 38.45 57.5 39.0 57.0 39.3 56.55 38.9 56.85 38.6 55.6 38.9 52.1 37.45 L51.85 38.5 51.75 39.4 56.4 41.25 62.15 41.75 64.7 43.05 64.35 43.5 61.6 43.75 66.2 44.6 66.45 44.6 66.3 44.25 66.35 43.95 66.6 43.95 Q67.0 44.3 67.75 44.65 L67.45 44.4 Q68.3 44.45 69.25 45.2 L69.9 45.4 Q71.75 45.95 71.75 47.1 L71.6 47.55 71.45 47.7 71.85 48.2 72.95 49.15 Q73.4 49.4 73.5 50.0 L73.9 52.15 73.9 52.3 74.1 52.65 73.8 52.5 73.75 52.55 75.05 57.45 75.4 57.6 75.75 57.95 75.35 58.35 75.1 58.4 75.1 59.0 74.95 59.15 74.5 59.1 74.4 58.45 71.8 58.75 Q71.15 58.8 70.65 59.35 L68.05 59.25 65.45 59.55 66.1 59.6 54.3 58.95 41.6 58.25 39.2 58.5 29.45 58.8 8.85 57.8 0.75 57.3 0.25 57.3 0.15 57.05 0.05 56.95 0.0 56.6 0.3 55.75 0.55 54.25 Q0.8 52.8 1.45 52.2 L1.25 53.3 2.25 50.9 3.35 48.55 2.85 48.65 2.5 48.35 Q4.65 45.25 8.7 43.1 L10.25 42.4 10.45 42.2 13.1 40.3 12.1 40.1 14.95 39.3 16.0 39.05 16.75 38.9 18.4 38.4 24.35 38.05 25.55 37.45 26.1 37.0 Q26.65 35.85 28.45 35.45 L32.05 34.85 Q34.15 34.4 35.55 33.2 L36.7 32.0 37.5 29.1 37.8 28.95 38.2 29.6 38.8 27.5 Q39.15 25.8 39.65 24.85 L39.65 23.95 39.6 23.35 38.75 25.35 38.4 25.3 38.3 24.9 39.3 21.6 40.9 15.7 Q41.2 14.2 42.4 11.05 L42.55 10.65 42.45 10.8 Q40.4 15.25 39.3 16.8 L40.35 14.35 Q40.9 13.2 40.9 12.05 40.9 11.65 41.55 10.45 L42.35 9.15 42.5 9.0 40.55 9.55 40.05 9.4 42.25 8.0 44.25 6.55 45.5 5.15 Q46.45 4.2 47.45 3.8 L51.2 2.0 54.1 1.45 53.95 0.7 Q54.0 0.2 54.9 0.2 L58.2 0.7 Q59.6 0.7 61.4 0.1 62.4 -0.25 62.9 0.5 M61.05 1.4 Q60.3 1.4 60.3 2.5 L60.35 3.15 60.4 3.35 63.1 4.55 63.9 4.9 63.7 3.65 63.3 2.3 Q63.05 1.95 62.15 1.65 L61.05 1.4 M64.3 3.1 Q64.45 5.5 65.75 5.5 L66.9 5.3 65.4 3.9 Q64.55 3.05 64.3 3.1 M55.7 2.2 L53.8 2.45 56.25 2.3 55.7 2.2 M58.05 2.5 L59.0 2.75 59.8 3.1 59.8 1.45 57.15 1.1 54.75 0.9 54.7 1.5 Q56.6 1.7 57.9 2.4 L58.05 2.5 M51.55 2.85 L53.0 2.55 Q53.45 2.25 53.15 2.2 51.15 2.4 50.55 2.9 L50.65 3.1 51.55 2.85 M45.25 7.3 L46.8 6.3 46.75 5.9 46.8 5.55 45.25 7.2 45.25 7.3 M43.85 8.0 L44.0 7.75 43.6 7.9 43.85 8.0 M49.2 4.45 Q47.9 5.1 47.5 5.85 L49.9 4.25 49.6 4.3 49.2 4.45 M41.5 16.05 L43.1 11.2 Q41.8 13.8 41.5 16.05 M50.5 35.95 L51.3 36.15 50.55 35.9 50.5 35.95 M58.7 36.35 Q57.9 37.1 57.85 37.55 L57.85 37.7 Q58.85 37.4 59.35 36.55 L59.85 35.5 58.7 36.35 M57.5 36.8 Q54.4 37.05 52.95 36.8 L52.4 36.6 52.35 36.75 53.35 37.2 55.35 37.9 Q56.9 37.9 57.1 37.5 L57.5 36.8 M57.55 42.05 L59.35 42.75 61.1 43.15 63.75 43.1 61.85 42.3 57.45 42.0 57.55 42.05 M69.25 46.25 L69.4 46.35 69.3 46.25 69.2 46.2 69.25 46.25 M38.8 30.0 L38.1 31.35 38.05 31.5 37.8 32.35 Q38.3 31.75 38.8 30.0 M35.95 34.65 L36.25 33.5 Q34.7 34.8 32.35 35.55 L34.6 35.15 35.8 35.2 35.95 34.65 M27.65 36.45 L27.1 36.7 28.85 36.3 27.65 36.45 M32.75 36.15 L31.1 36.5 33.0 36.15 32.75 36.15" fill="#000000" fill-rule="evenodd" stroke="none"/>
    </g>
  </defs>
</svg>
