<?xml version="1.0" encoding="UTF-8" standalone="no"?>
<svg xmlns:ffdec="https://www.free-decompiler.com/flash" xmlns:xlink="http://www.w3.org/1999/xlink" ffdec:objectType="frame" height="306.9px" width="203.9px" xmlns="http://www.w3.org/2000/svg">
  <g transform="matrix(2.0, 0.0, 0.0, 2.0, 105.4, 149.3)">
    <filter id="filter0">
      <feFlood flood-color="#000000" flood-opacity="1.0" result="filterResult0"/>
      <feOffset dx="3.0783426603864057" dy="3.9400262010861233" in="SourceGraphic" result="filterResult1"/>
      <feComposite in="filterResult0" in2="filterResult1" operator="out" result="filterResult2"/>
      <feConvolveMatrix divisor="25.0" in="filterResult2" kernelMatrix="1 1 1 1 1 1 1 1 1 1 1 1 1 1 1 1 1 1 1 1 1 1 1 1 1" order="5 5" result="filterResult3"/>
      <feComposite in="filterResult3" in2="SourceGraphic" operator="in" result="filterResult4"/>
      <feComposite in="filterResult4" in2="SourceGraphic" operator="over" result="filterResult5"/>
    </filter>
    <use ffdec:characterId="2983" filter="url(#filter0)" height="31.0" transform="matrix(1.0, 0.0, 0.0, 1.0, -15.5, -15.5)" width="31.0" xlink:href="#sprite0"/>
    <use ffdec:characterId="2064" height="153.45" id="inner" transform="matrix(1.0, 0.0, 0.0, 1.0, -52.7, -74.65)" width="101.95" xlink:href="#sprite1"/>
    <use ffdec:characterId="3012" height="32.0" transform="matrix(1.0, 0.0, 0.0, 1.0, -16.0, -16.0)" width="32.0" xlink:href="#button0"/>
  </g>
  <defs>
    <g id="sprite0" transform="matrix(1.0, 0.0, 0.0, 1.0, 15.5, 15.5)">
      <use ffdec:characterId="2982" height="31.0" transform="matrix(1.0, 0.0, 0.0, 1.0, -15.5, -15.5)" width="31.0" xlink:href="#shape0"/>
    </g>
    <g id="shape0" transform="matrix(1.0, 0.0, 0.0, 1.0, 15.5, 15.5)">
      <path d="M15.0 15.0 L-15.0 15.0 -15.0 -15.0 15.0 -15.0 15.0 15.0" fill="url(#gradient0)" fill-rule="evenodd" stroke="none"/>
      <path d="M15.0 15.0 L-15.0 15.0 -15.0 -15.0 15.0 -15.0 15.0 15.0 Z" fill="none" stroke="#000000" stroke-linecap="round" stroke-linejoin="round" stroke-width="1.0"/>
    </g>
    <linearGradient gradientTransform="matrix(0.0, 0.0183, -0.0183, 0.0, 0.0, 0.0)" gradientUnits="userSpaceOnUse" id="gradient0" spreadMethod="pad" x1="-819.2" x2="819.2">
      <stop offset="0.0" stop-color="#090909"/>
      <stop offset="1.0" stop-color="#262626"/>
      <stop offset="1.0" stop-color="#000000"/>
    </linearGradient>
  </defs>
</svg>
