<?xml version="1.0" encoding="UTF-8" standalone="no"?>
<svg xmlns:ffdec="https://www.free-decompiler.com/flash" xmlns:xlink="http://www.w3.org/1999/xlink" ffdec:objectType="frame" height="128.3px" width="75.8px" xmlns="http://www.w3.org/2000/svg">
  <g transform="matrix(2.0, 0.0, 0.0, 2.0, 39.1, 30.6)">
    <use ffdec:characterId="2472" height="62.55" transform="matrix(1.0, 0.0, 0.0, 1.0, -19.55, -15.3)" width="37.9" xlink:href="#shape0"/>
    <filter id="filter0">
      <feColorMatrix in="SourceGraphic" result="filterResult0" type="matrix" values="0 0 0 0 0.2,0 0 0 0 1.0,0 0 0 0 1.0,0 0 0 1 0"/>
      <feConvolveMatrix divisor="25.0" in="filterResult0" kernelMatrix="1 1 1 1 1 1 1 1 1 1 1 1 1 1 1 1 1 1 1 1 1 1 1 1 1" order="5 5" result="filterResult1"/>
      <feComposite in="SourceGraphic" in2="filterResult1" operator="over" result="filterResult2"/>
    </filter>
    <use ffdec:characterId="60" filter="url(#filter0)" height="3.0" transform="matrix(1.0, 0.0, 0.0, 1.0, 12.9, 45.85)" width="3.0" xlink:href="#sprite0"/>
  </g>
  <defs>
    <g id="shape0" transform="matrix(1.0, 0.0, 0.0, 1.0, 19.55, 15.3)">
      <path d="M-10.55 -3.6 L-10.65 -3.7 Q-11.05 -4.15 -13.25 -4.35 -7.25 -7.9 -4.1 -15.3 7.3 -1.45 14.8 35.7 8.05 21.3 -3.0 6.2 L-10.55 -3.6" fill="url(#gradient0)" fill-rule="evenodd" stroke="none"/>
      <path d="M-10.55 -3.6 L-3.0 6.2 -5.85 6.75 Q1.6 15.75 5.3 25.5 -2.8 13.45 -16.85 3.25 L-10.55 -3.6" fill="url(#gradient1)" fill-rule="evenodd" stroke="none"/>
      <path d="M-3.0 6.2 Q8.05 21.3 14.8 35.7 7.3 -1.45 -4.1 -15.3 -7.25 -7.9 -13.25 -4.35 -11.05 -4.15 -10.65 -3.7 L-10.55 -3.6 -3.0 6.2 -5.85 6.75 Q1.6 15.75 5.3 25.5 -2.8 13.45 -16.85 3.25 L-10.55 -3.6" fill="none" stroke="#000000" stroke-linecap="round" stroke-linejoin="round" stroke-width="0.05"/>
      <path d="M-8.05 18.7 L-11.25 19.45 -19.05 9.65 -16.55 -5.05 -3.5 -13.4 4.85 -12.75 17.85 29.6 14.6 30.95 9.65 33.0 -2.45 17.4 -8.05 18.7" fill="url(#gradient2)" fill-rule="evenodd" stroke="none"/>
      <path d="M-8.05 18.7 L-2.45 17.4 9.65 33.0 14.6 30.95 15.65 38.2 15.2 38.4 8.55 40.75 6.7 41.4 -8.05 18.7" fill="url(#gradient3)" fill-rule="evenodd" stroke="none"/>
      <path d="M15.2 38.4 L15.4 38.95 16.95 44.8 11.25 46.75 8.55 40.75 15.2 38.4" fill="url(#gradient4)" fill-rule="evenodd" stroke="none"/>
      <path d="M14.6 30.95 L17.85 29.6 4.85 -12.75 -3.5 -13.4 -16.55 -5.05 -19.05 9.65 -11.25 19.45 -8.05 18.7 -2.45 17.4 9.65 33.0 14.6 30.95 15.65 38.2 15.2 38.4 8.55 40.75 6.7 41.4 -8.05 18.7 M15.4 38.95 L16.95 44.8 11.25 46.75 8.55 40.75" fill="none" stroke="#000000" stroke-linecap="round" stroke-linejoin="round" stroke-width="1.0"/>
      <path d="M-11.05 18.3 L-2.15 3.8 M-17.1 -0.1 L10.2 5.8" fill="none" stroke="#000000" stroke-linecap="round" stroke-linejoin="round" stroke-width="1.0"/>
    </g>
    <radialGradient cx="0" cy="0" gradientTransform="matrix(0.0404, 0.0, 0.0, 0.0404, 5.9, 4.4)" gradientUnits="userSpaceOnUse" id="gradient0" r="819.2" spreadMethod="pad">
      <stop offset="0.0" stop-color="#806a3c"/>
      <stop offset="0.2549019607843137" stop-color="#39361c"/>
      <stop offset="0.6235294117647059" stop-color="#17130b"/>
      <stop offset="1.0" stop-color="#000000"/>
    </radialGradient>
    <radialGradient cx="0" cy="0" gradientTransform="matrix(0.0297, 0.0, 0.0, 0.0297, -9.65, 6.3)" gradientUnits="userSpaceOnUse" id="gradient1" r="819.2" spreadMethod="pad">
      <stop offset="0.0" stop-color="#806a3c"/>
      <stop offset="0.2549019607843137" stop-color="#39361c"/>
      <stop offset="0.6235294117647059" stop-color="#17130b"/>
      <stop offset="1.0" stop-color="#000000"/>
    </radialGradient>
    <radialGradient cx="0" cy="0" gradientTransform="matrix(0.0509, 0.0, 0.0, 0.0509, -2.5, -6.8)" gradientUnits="userSpaceOnUse" id="gradient2" r="819.2" spreadMethod="pad">
      <stop offset="0.0" stop-color="#ffffff"/>
      <stop offset="0.43529411764705883" stop-color="#7c9aad"/>
      <stop offset="0.44313725490196076" stop-color="#58607c"/>
      <stop offset="0.6470588235294118" stop-color="#7e8aa3"/>
      <stop offset="1.0" stop-color="#c2cde7"/>
    </radialGradient>
    <radialGradient cx="0" cy="0" gradientTransform="matrix(0.0336, 0.0, 0.0, 0.0336, 13.5, 35.8)" gradientUnits="userSpaceOnUse" id="gradient3" r="819.2" spreadMethod="pad">
      <stop offset="0.0" stop-color="#ffffff"/>
      <stop offset="0.42745098039215684" stop-color="#836549"/>
      <stop offset="0.44313725490196076" stop-color="#392d24"/>
      <stop offset="0.6980392156862745" stop-color="#7a615a"/>
      <stop offset="1.0" stop-color="#a27a77"/>
    </radialGradient>
    <radialGradient cx="0" cy="0" gradientTransform="matrix(0.007, 0.0, 0.0, 0.007, 13.8, 42.95)" gradientUnits="userSpaceOnUse" id="gradient4" r="819.2" spreadMethod="pad">
      <stop offset="0.0" stop-color="#313546"/>
      <stop offset="1.0" stop-color="#111111"/>
    </radialGradient>
    <g id="sprite0" transform="matrix(1.0, 0.0, 0.0, 1.0, 1.5, 1.5)">
      <use ffdec:characterId="59" height="1.3" transform="matrix(0.0046, 0.0, 0.0, 2.3077, -1.5245, -1.5116)" width="653.2" xlink:href="#shape1"/>
    </g>
    <g id="shape1" transform="matrix(1.0, 0.0, 0.0, 1.0, 277.5, 12.55)">
      <path d="M36.7 -12.55 L276.3 -12.4 Q375.7 -12.2 375.7 -11.9 375.7 -11.65 276.3 -11.45 L36.7 -11.25 -203.0 -11.45 Q-252.65 -11.55 -277.5 -11.9 -252.65 -12.3 -203.0 -12.4 L36.7 -12.55" fill="#ffffff" fill-rule="evenodd" stroke="none"/>
    </g>
  </defs>
</svg>
