<?xml version="1.0" encoding="UTF-8" standalone="no"?>
<svg xmlns:ffdec="https://www.free-decompiler.com/flash" xmlns:xlink="http://www.w3.org/1999/xlink" ffdec:objectType="frame" height="72.6px" width="48.1px" xmlns="http://www.w3.org/2000/svg">
  <g transform="matrix(2.0, 0.0, 0.0, 2.0, 25.1, 32.0)">
    <use ffdec:characterId="2593" height="36.3" transform="matrix(1.0, 0.0, 0.0, 1.0, -12.55, -16.0)" width="24.05" xlink:href="#shape0"/>
  </g>
  <defs>
    <g id="shape0" transform="matrix(1.0, 0.0, 0.0, 1.0, 12.55, 16.0)">
      <path d="M-12.5 -6.4 L-12.45 -6.15 -12.55 -6.4 -12.5 -6.4" fill="#8f7b67" fill-rule="evenodd" stroke="none"/>
      <path d="M-12.45 -6.15 L-12.5 -6.4 Q-9.35 -13.95 -1.95 -15.7 0.7 -17.0 7.75 -12.3 9.85 -10.05 11.5 0.8 9.95 4.8 10.35 8.75 11.6 12.95 10.6 15.8 L10.6 16.15 8.5 19.5 -1.35 19.8 -6.6 9.05 -7.15 7.8 Q-8.15 5.55 -10.6 3.8 -10.65 -1.0 -12.45 -6.15" fill="url(#gradient0)" fill-rule="evenodd" stroke="none"/>
      <path d="M-12.45 -6.15 L-12.5 -6.4 -12.55 -6.4 -12.45 -6.15 Q-10.65 -1.0 -10.6 3.8 -8.15 5.55 -7.15 7.8 L-6.6 9.05 -1.35 19.8 8.5 19.5 10.6 16.15 M10.6 15.8 Q11.6 12.95 10.35 8.75 9.95 4.8 11.5 0.8 9.85 -10.05 7.75 -12.3" fill="none" stroke="#000000" stroke-linecap="round" stroke-linejoin="round" stroke-width="0.05"/>
      <path d="M-6.25 -0.4 Q-4.55 4.1 -0.4 4.95 L1.4 6.2 1.95 6.35 Q0.4 8.35 -4.35 9.6 -4.25 10.25 -1.65 12.9 2.15 15.2 5.25 14.8 1.25 16.85 -1.5 15.9 0.15 18.45 1.9 20.25 L-1.35 19.8 -6.6 9.05 -7.15 7.8 Q-8.15 5.55 -10.6 3.8 -10.65 -1.0 -12.45 -6.15 L-12.5 -6.4 Q-10.3 -11.75 -5.95 -14.15 L-5.6 -14.35 -6.0 -13.85 Q-7.55 -10.5 -7.3 -6.85 -7.95 -3.25 -6.25 -0.4 M10.35 8.75 L9.95 8.9 7.6 5.4 7.65 5.35 Q9.6 1.8 10.25 -5.95 L11.5 0.8 Q9.95 4.8 10.35 8.75" fill="#000000" fill-opacity="0.4" fill-rule="evenodd" stroke="none"/>
    </g>
    <radialGradient cx="0" cy="0" gradientTransform="matrix(0.0356, 0.0, 0.0, 0.0356, 0.35, -8.5)" gradientUnits="userSpaceOnUse" id="gradient0" r="819.2" spreadMethod="pad">
      <stop offset="0.0" stop-color="#3c332b"/>
      <stop offset="1.0" stop-color="#130a06"/>
    </radialGradient>
  </defs>
</svg>
