<?xml version="1.0" encoding="UTF-8" standalone="no"?>
<svg xmlns:ffdec="https://www.free-decompiler.com/flash" xmlns:xlink="http://www.w3.org/1999/xlink" ffdec:objectType="frame" height="41.7px" width="25.2px" xmlns="http://www.w3.org/2000/svg">
  <g transform="matrix(2.0, 0.0, 0.0, 2.0, 12.6, 15.4)">
    <use ffdec:characterId="1595" height="11.65" transform="matrix(1.0, 0.0, 0.0, 1.0, -2.25, -6.25)" width="7.7" xlink:href="#shape0"/>
    <use ffdec:characterId="1592" height="20.85" transform="matrix(1.0, 0.0, 0.0, 1.0, -6.3, -7.7)" width="12.6" xlink:href="#sprite0"/>
  </g>
  <defs>
    <g id="shape0" transform="matrix(1.0, 0.0, 0.0, 1.0, 2.25, 6.25)">
      <path d="M5.4 -1.4 L5.3 -0.85 5.25 1.45 4.8 1.95 4.8 2.05 3.85 5.4 -0.05 2.5 -0.75 1.15 -1.0 0.95 -1.15 0.8 Q-2.25 -0.4 -2.25 -2.1 -2.25 -3.8 -1.15 -5.05 0.0 -6.25 1.6 -6.25 3.2 -6.25 4.3 -5.05 5.45 -3.8 5.45 -2.1 L5.4 -1.4" fill="url(#gradient0)" fill-rule="evenodd" stroke="none"/>
      <path d="M5.4 -1.4 L5.3 -0.85 5.25 1.45 4.8 1.95 4.8 2.05 3.85 5.4 -0.05 2.5 -0.75 1.15 -1.0 0.95 -1.15 0.8 Q-2.25 -0.4 -2.25 -2.1 -2.25 -3.8 -1.15 -5.05 0.0 -6.25 1.6 -6.25 3.2 -6.25 4.3 -5.05 5.45 -3.8 5.45 -2.1 L5.4 -1.4 Z" fill="none" stroke="#000000" stroke-linecap="round" stroke-linejoin="round" stroke-width="0.05"/>
      <path d="M3.55 -0.3 L2.75 -0.45 Q3.0 -1.2 3.95 -1.2 4.5 -1.2 4.5 -0.75 4.5 -0.3 3.55 -0.3" fill="#000000" fill-rule="evenodd" stroke="none"/>
      <path d="M4.5 1.95 Q4.5 2.85 3.8 2.85 3.25 2.85 3.15 2.55 3.05 2.8 3.05 2.4 L4.25 1.8 Q4.5 1.8 4.5 1.95" fill="#e75c5c" fill-rule="evenodd" stroke="none"/>
    </g>
    <radialGradient cx="0" cy="0" gradientTransform="matrix(0.0101, 0.0, 0.0, 0.0101, 5.0, -2.2)" gradientUnits="userSpaceOnUse" id="gradient0" r="819.2" spreadMethod="pad">
      <stop offset="0.0" stop-color="#f7c85e"/>
      <stop offset="0.6352941176470588" stop-color="#f79d44"/>
      <stop offset="1.0" stop-color="#f1ad6b"/>
    </radialGradient>
    <g id="sprite0" transform="matrix(1.0, 0.0, 0.0, 1.0, 6.85, 5.4)">
      <use ffdec:characterId="1591" height="20.85" transform="matrix(1.0, 0.0, 0.0, 1.0, -6.85, -5.4)" width="12.6" xlink:href="#shape1"/>
    </g>
    <g id="shape1" transform="matrix(1.0, 0.0, 0.0, 1.0, 6.85, 5.4)">
      <path d="M-4.95 -2.7 Q2.3 -9.25 5.75 0.05 L4.7 -0.1 Q1.05 3.95 1.05 8.1 L1.05 15.45 Q0.2 14.75 0.1 12.0 L0.2 6.0 Q-0.3 6.75 -0.15 10.2 -0.1 10.45 -0.7 10.75 -1.3 11.0 -2.4 10.3 -3.55 9.6 -2.85 4.95 -3.5 5.65 -3.85 8.65 -5.0 7.6 -5.05 6.7 -5.2 5.75 -3.65 0.25 L-3.65 0.2 Q-3.85 0.3 -6.25 4.95 -7.05 4.8 -6.8 3.4 -6.6 2.0 -4.95 -1.2 -4.7 -1.75 -4.95 -2.7" fill="url(#gradient1)" fill-rule="evenodd" stroke="none"/>
    </g>
    <radialGradient cx="0" cy="0" gradientTransform="matrix(0.0179, 0.0, 0.0, 0.0179, -1.35, 0.95)" gradientUnits="userSpaceOnUse" id="gradient1" r="819.2" spreadMethod="pad">
      <stop offset="0.0" stop-color="#95651e"/>
      <stop offset="1.0" stop-color="#000000"/>
    </radialGradient>
  </defs>
</svg>
