<?xml version="1.0" encoding="UTF-8" standalone="no"?>
<svg xmlns:ffdec="https://www.free-decompiler.com/flash" xmlns:xlink="http://www.w3.org/1999/xlink" ffdec:objectType="frame" height="69.5px" width="49.0px" xmlns="http://www.w3.org/2000/svg">
  <g transform="matrix(2.0, 0.0, 0.0, 2.0, 24.5, 34.3)">
    <use ffdec:characterId="3163" height="34.75" transform="matrix(1.0, 0.0, 0.0, 1.0, -12.25, -17.15)" width="24.5" xlink:href="#shape0"/>
  </g>
  <defs>
    <g id="shape0" transform="matrix(1.0, 0.0, 0.0, 1.0, 12.25, 17.15)">
      <path d="M6.6 -13.9 L-6.65 -13.9 -6.65 -17.15 6.6 -17.15 6.6 -13.9 M6.6 -7.65 L-6.65 -7.65 -6.65 -11.9 6.6 -11.9 6.6 -7.65 M-12.25 17.6 L-12.25 15.6 12.25 15.6 12.25 17.6 -12.25 17.6 M-1.25 12.85 L-12.25 1.15 -12.25 0.85 -7.0 0.85 -7.0 -5.65 6.25 -5.65 6.25 0.85 12.25 0.85 1.2 12.85 -1.25 12.85" fill="#ffffff" fill-rule="evenodd" stroke="none"/>
    </g>
  </defs>
</svg>
