<?xml version="1.0" encoding="UTF-8" standalone="no"?>
<svg xmlns:ffdec="https://www.free-decompiler.com/flash" xmlns:xlink="http://www.w3.org/1999/xlink" ffdec:objectType="frame" height="15.1px" width="23.1px" xmlns="http://www.w3.org/2000/svg">
  <g transform="matrix(2.0, 0.0, 0.0, 2.0, 8.0, 14.8)">
    <use ffdec:characterId="1000" height="7.55" transform="matrix(1.0, 0.0, 0.0, 1.0, -4.0, -7.4)" width="11.55" xlink:href="#shape0"/>
    <filter id="filter0">
      <feColorMatrix in="SourceGraphic" result="filterResult0" type="matrix" values="0 0 0 0 1.0,0 0 0 0 1.0,0 0 0 0 0.4,0 0 0 1 0"/>
      <feConvolveMatrix divisor="25.0" in="filterResult0" kernelMatrix="1 1 1 1 1 1 1 1 1 1 1 1 1 1 1 1 1 1 1 1 1 1 1 1 1" order="5 5" result="filterResult1"/>
      <feComposite in="SourceGraphic" in2="filterResult1" operator="over" result="filterResult2"/>
    </filter>
    <use ffdec:characterId="999" filter="url(#filter0)" height="2.7" transform="matrix(1.0, 0.0, 0.0, 1.0, 3.65, -5.7)" width="2.3" xlink:href="#sprite0"/>
  </g>
  <defs>
    <g id="shape0" transform="matrix(1.0, 0.0, 0.0, 1.0, 4.0, 7.4)">
      <path d="M5.15 -1.9 L5.0 -0.5 3.7 0.15 1.5 -0.45 1.55 -1.1 5.15 -1.9" fill="#000000" fill-rule="evenodd" stroke="none"/>
      <path d="M1.55 -1.1 L-2.85 -0.15 -2.95 -0.15 -3.15 -0.1 -3.95 0.15 -4.0 -0.35 -3.55 -0.95 -3.8 -3.75 -2.35 -6.6 3.25 -7.4 5.8 -3.1 7.05 -3.1 7.55 -2.4 5.15 -1.9 1.55 -1.1" fill="url(#gradient0)" fill-rule="evenodd" stroke="none"/>
      <path d="M1.55 -1.1 L-2.85 -0.15 -2.95 -0.15 -3.15 -0.1 -3.95 0.15 -4.0 -0.35 -3.55 -0.95 -3.8 -3.75 -2.35 -6.6 3.25 -7.4 5.8 -3.1 7.05 -3.1 7.55 -2.4 5.15 -1.9 5.0 -0.5 3.7 0.15 1.5 -0.45 1.55 -1.1 5.15 -1.9" fill="none" stroke="#000000" stroke-linecap="round" stroke-linejoin="round" stroke-width="0.05"/>
      <path d="M4.2 -0.45 L3.8 -0.25 Q3.55 -0.25 3.4 -0.45 3.25 -0.65 3.25 -0.9 L3.4 -1.35 Q3.55 -1.55 3.8 -1.55 L4.2 -1.35 4.35 -0.9 4.2 -0.45 Z" fill="none" stroke="#000000" stroke-linecap="round" stroke-linejoin="round" stroke-width="0.05"/>
    </g>
    <radialGradient cx="0" cy="0" gradientTransform="matrix(0.0114, 0.0, 0.0, 0.0114, -0.85, -6.45)" gradientUnits="userSpaceOnUse" id="gradient0" r="819.2" spreadMethod="pad">
      <stop offset="0.0" stop-color="#eea600"/>
      <stop offset="1.0" stop-color="#a04001"/>
    </radialGradient>
    <g id="sprite0" transform="matrix(1.0, 0.0, 0.0, 1.0, 1.15, 1.35)">
      <use ffdec:characterId="59" height="1.3" transform="matrix(0.0035, 0.0, 0.0, 2.0769, -1.1281, -1.3653)" width="653.2" xlink:href="#shape1"/>
    </g>
    <g id="shape1" transform="matrix(1.0, 0.0, 0.0, 1.0, 277.5, 12.55)">
      <path d="M36.7 -12.55 L276.3 -12.4 Q375.7 -12.2 375.7 -11.9 375.7 -11.65 276.3 -11.45 L36.7 -11.25 -203.0 -11.45 Q-252.65 -11.55 -277.5 -11.9 -252.65 -12.3 -203.0 -12.4 L36.7 -12.55" fill="#ffffff" fill-rule="evenodd" stroke="none"/>
    </g>
  </defs>
</svg>
