<?xml version="1.0" encoding="UTF-8" standalone="no"?>
<svg xmlns:ffdec="https://www.free-decompiler.com/flash" xmlns:xlink="http://www.w3.org/1999/xlink" ffdec:objectType="frame" height="104.5px" width="114.7px" xmlns="http://www.w3.org/2000/svg">
  <g transform="matrix(2.0, 0.0, 0.0, 2.0, 45.4, 50.5)">
    <clipPath id="clipPath0" transform="matrix(1.0, 0.0, 0.0, 1.0, 0.0, 0.0)">
      <path d="M13.15 18.4 L-13.15 18.4 -13.15 -18.6 13.15 -18.6 13.15 18.4" fill="#333333" fill-rule="evenodd" stroke="none"/>
    </clipPath>
    <g clip-path="url(#clipPath0)">
      <use ffdec:characterId="2936" height="36.85" transform="matrix(1.0, 0.0, 0.0, 1.0, -13.45, -18.65)" width="27.15" xlink:href="#shape1"/>
      <use ffdec:characterId="2935" height="36.05" style="mix-blend-mode: multiply" transform="matrix(1.0, 0.0, 0.0, 1.0, -13.65, -18.2)" width="27.0" xlink:href="#sprite0"/>
      <use ffdec:characterId="2933" height="14.1" transform="matrix(1.0, 0.0, 0.0, 1.0, -6.3, -4.6)" width="10.2" xlink:href="#shape3"/>
      <use ffdec:characterId="2901" height="6.7" style="mix-blend-mode: screen" transform="matrix(8.5215, -0.6467, 0.0018, 1.3541, -22.7124, -5.2775)" width="4.65" xlink:href="#sprite1"/>
      <use ffdec:characterId="2901" height="6.7" style="mix-blend-mode: screen" transform="matrix(3.4487, -0.3389, 0.2521, 2.6956, -8.8821, -9.3942)" width="4.65" xlink:href="#sprite1"/>
      <use ffdec:characterId="2901" height="6.7" style="mix-blend-mode: screen" transform="matrix(2.3856, -0.2344, 0.1743, 1.8646, -7.7704, -7.3196)" width="4.65" xlink:href="#sprite1"/>
      <use ffdec:characterId="2901" height="6.7" style="mix-blend-mode: screen" transform="matrix(2.3856, -0.2344, 0.1743, 1.8646, -6.9204, -7.7696)" width="4.65" xlink:href="#sprite1"/>
    </g>
    <use ffdec:characterId="2897" height="37.5" transform="matrix(1.0, 0.0, 0.0, 1.0, -13.9, -19.1)" width="27.65" xlink:href="#shape5"/>
  </g>
  <defs>
    <g id="shape1" transform="matrix(1.0, 0.0, 0.0, 1.0, 13.45, 18.65)">
      <path d="M13.15 18.15 L-13.45 18.15 -13.45 -18.65 13.15 -18.65 13.15 18.15" fill="#000000" fill-rule="evenodd" stroke="none"/>
      <path d="M-4.8 -0.65 L-4.5 0.5 -8.55 -1.8 -5.35 -0.8 -4.8 -0.65 M3.6 5.2 L5.35 6.25 4.7 7.6 3.95 6.95 3.95 6.0 3.6 6.0 3.6 5.2 M2.65 11.1 L2.2 10.95 0.05 10.8 -0.1 10.8 -0.35 10.8 -0.4 10.8 -0.5 10.8 -0.8 10.8 -3.35 11.65 -2.05 12.05 -0.55 12.45 -0.9 12.25 -1.25 11.9 Q-1.25 11.35 -0.55 11.35 0.15 11.3 0.3 12.15 L0.15 12.4 -0.05 12.5 0.15 12.5 Q1.1 12.5 2.7 11.75 L3.0 11.65 Q4.5 10.9 4.8 10.85 L4.9 10.9 4.95 11.1 Q4.95 11.65 1.65 13.35 0.95 14.0 -1.3 14.15 L-2.1 13.85 Q-2.65 13.5 -3.45 13.35 L-3.45 12.75 Q-3.5 12.6 -3.9 12.6 L-3.8 12.9 -4.15 12.45 -4.35 11.9 -4.7 12.0 -4.8 11.7 Q-4.8 10.8 -3.55 10.4 L-3.6 10.35 Q-2.95 9.25 -0.45 9.45 L0.0 9.35 Q2.1 8.9 2.1 9.7 L1.85 10.25 3.35 10.5 3.4 10.45 3.45 10.7 Q3.45 11.15 2.9 11.15 L2.65 11.1 M1.95 14.65 L2.1 14.8 2.05 14.85 1.95 14.65 M-4.15 6.4 L-5.05 7.3 -5.25 6.45 -4.15 6.4 M-4.05 12.3 Q-4.05 12.0 -3.5 12.0 -4.0 11.8 -4.1 12.15 L-4.05 12.3 M-0.95 14.95 L-1.05 14.95 -0.95 14.8 -0.95 14.95" fill="#000000" fill-rule="evenodd" stroke="none"/>
      <path d="M-2.7 8.7 L-3.55 8.7 -2.75 8.15 Q0.4 6.8 3.25 8.65 -1.9 8.6 -2.7 8.7" fill="#8a514a" fill-rule="evenodd" stroke="none"/>
      <path d="M5.3 -14.85 Q9.05 -12.1 9.7 -9.1 10.35 -6.1 9.8 -4.1 L8.75 -0.8 Q7.75 2.1 7.6 5.2 L7.4 5.95 5.55 9.5 4.8 8.6 Q7.7 4.15 7.15 -0.8 L6.85 -2.5 6.75 -3.05 Q7.4 -6.3 7.0 -9.35 L6.25 -12.5 5.3 -14.85 M13.2 -3.5 L13.65 -4.1 13.7 -0.8 Q13.5 4.45 11.35 9.8 L8.05 18.2 5.7 18.2 Q8.75 8.7 12.2 -0.8 L13.2 -3.5 M-11.65 -0.8 Q-8.7 8.55 -5.95 18.2 L-7.5 18.2 Q-11.1 9.0 -13.3 -0.75 L-13.3 -0.8 Q-13.45 -1.85 -12.5 -2.75 L-12.25 -2.75 -11.65 -0.8" fill="#bf6326" fill-rule="evenodd" stroke="none"/>
      <path d="M3.6 6.0 L3.6 6.1 -0.1 6.25 1.35 5.0 1.5 4.95 3.55 5.15 3.6 5.15 3.6 5.2 3.6 6.0 M3.0 11.65 L2.7 11.75 Q1.1 12.5 0.15 12.5 L-0.05 12.5 0.15 12.4 0.3 12.15 Q0.15 11.3 -0.55 11.35 -1.25 11.35 -1.25 11.9 L-0.9 12.25 -0.55 12.45 -2.05 12.05 -3.35 11.65 -0.8 10.8 -0.5 10.8 -0.4 10.8 -0.35 10.8 -0.1 10.8 0.05 10.8 2.2 10.95 2.65 11.1 3.1 11.5 3.0 11.65 M-5.25 6.45 L-5.4 6.45 -3.75 4.75 -2.85 4.85 Q-2.5 5.9 -1.8 6.3 L-4.15 6.4 -5.25 6.45" fill="#d6ae76" fill-rule="evenodd" stroke="none"/>
      <path d="M-4.8 -0.65 L-8.2 -14.7 Q-2.6 -17.2 3.9 -15.55 3.0 -10.1 2.65 -4.6 2.45 -1.95 1.05 0.55 -1.4 4.8 -4.5 0.5 L-4.8 -0.65" fill="#e28d69" fill-rule="evenodd" stroke="none"/>
    </g>
    <g id="sprite0" transform="matrix(1.0, 0.0, 0.0, 1.0, -2.4, -1.55)">
      <use ffdec:characterId="2934" height="36.05" transform="matrix(1.0, 0.0, 0.0, 1.0, 2.4, 1.55)" width="27.0" xlink:href="#shape2"/>
    </g>
    <g id="shape2" transform="matrix(1.0, 0.0, 0.0, 1.0, -2.4, -1.55)">
      <path d="M2.4 37.6 L2.4 1.55 29.4 1.55 29.4 37.6 2.4 37.6" fill="url(#gradient0)" fill-rule="evenodd" stroke="none"/>
    </g>
    <radialGradient cx="0" cy="0" gradientTransform="matrix(0.0201, 0.0, 0.0, 0.0694, 16.4, 28.45)" gradientUnits="userSpaceOnUse" id="gradient0" r="819.2" spreadMethod="pad">
      <stop offset="0.0" stop-color="#edaa9a" stop-opacity="0.0"/>
      <stop offset="0.3803921568627451" stop-color="#a43a0f"/>
      <stop offset="0.8627450980392157" stop-color="#1b1551"/>
    </radialGradient>
    <g id="shape3" transform="matrix(1.0, 0.0, 0.0, 1.0, 6.3, 4.6)">
      <path d="M-2.8 -0.85 L-3.7 -1.4 -4.1 -2.75 0.95 -2.55 -0.8 -0.8 -2.8 -0.85" fill="#ffffff" fill-rule="evenodd" stroke="none"/>
      <path d="M-5.65 7.2 L-3.7 7.2 -5.85 9.5 -6.0 8.95 -6.15 8.75 -6.3 8.55 -5.95 7.6 -5.65 7.2 M3.9 7.75 L3.65 8.2 3.2 8.5 2.1 7.55 1.8 7.2 3.8 7.2 3.9 7.75" fill="#000000" fill-rule="evenodd" stroke="none"/>
      <path d="M0.65 -0.15 Q0.25 0.9 -1.35 0.9 -3.15 0.9 -3.75 -0.15 -4.1 -0.7 -4.05 -1.25 L-4.05 -1.4 -4.2 -2.05 Q-4.2 -3.9 -1.55 -4.5 1.1 -5.1 1.1 -2.2 L0.8 -0.9 0.65 -0.15 M-2.45 -1.35 Q-2.45 -0.75 -1.5 -0.75 -1.1 -0.75 -0.7 -1.05 -0.35 -1.4 -0.35 -1.8 -0.35 -2.75 -1.4 -2.4 -2.45 -2.0 -2.45 -1.35" fill="#ff3300" fill-rule="evenodd" stroke="none"/>
      <path d="M-0.8 -2.0 L-0.75 -1.8 Q-0.75 -1.25 -1.4 -1.25 L-1.8 -1.35 -1.8 -1.65 -1.6 -2.05 -0.9 -2.0 -0.8 -2.0" fill="#ffffff" fill-rule="evenodd" stroke="none"/>
      <path d="M-0.8 -2.0 L-0.9 -2.0 -1.6 -2.05 -1.8 -1.65 -1.8 -1.35 -1.4 -1.25 Q-0.75 -1.25 -0.75 -1.8 L-0.8 -2.0 M-2.45 -1.35 Q-2.45 -2.0 -1.4 -2.4 -0.35 -2.75 -0.35 -1.8 -0.35 -1.4 -0.7 -1.05 -1.1 -0.75 -1.5 -0.75 -2.45 -0.75 -2.45 -1.35" fill="#ffe711" fill-rule="evenodd" stroke="none"/>
    </g>
    <g id="sprite1" transform="matrix(1.0, 0.0, 0.0, 1.0, -2.85, -0.75)">
      <use ffdec:characterId="2900" height="6.7" transform="matrix(1.0, 0.0, 0.0, 1.0, 2.85, 0.75)" width="4.65" xlink:href="#shape4"/>
    </g>
    <g id="shape4" transform="matrix(1.0, 0.0, 0.0, 1.0, -2.85, -0.75)">
      <path d="M6.8 6.45 Q6.15 7.45 5.15 7.45 4.2 7.45 3.5 6.45 2.85 5.5 2.85 4.1 2.85 2.7 3.5 1.7 4.2 0.75 5.15 0.75 6.15 0.75 6.8 1.7 7.5 2.7 7.5 4.1 7.5 5.5 6.8 6.45" fill="url(#gradient1)" fill-rule="evenodd" stroke="none"/>
    </g>
    <radialGradient cx="0" cy="0" gradientTransform="matrix(0.0046, 0.0, 0.0, 0.0046, 4.85, 4.15)" gradientUnits="userSpaceOnUse" id="gradient1" r="819.2" spreadMethod="pad">
      <stop offset="0.0" stop-color="#dd8400"/>
      <stop offset="0.615686274509804" stop-color="#da6d03" stop-opacity="0.0"/>
    </radialGradient>
    <g id="shape5" transform="matrix(1.0, 0.0, 0.0, 1.0, 13.9, 19.1)">
      <path d="M13.25 17.9 L-13.4 17.9 -13.4 -18.6 13.25 -18.6 13.25 17.9 Z" fill="none" stroke="#000000" stroke-linecap="round" stroke-linejoin="round" stroke-width="1.0"/>
    </g>
  </defs>
</svg>
