<?xml version="1.0" encoding="UTF-8" standalone="no"?>
<svg xmlns:ffdec="https://www.free-decompiler.com/flash" xmlns:xlink="http://www.w3.org/1999/xlink" ffdec:objectType="frame" height="104.5px" width="114.7px" xmlns="http://www.w3.org/2000/svg">
  <g transform="matrix(2.0, 0.0, 0.0, 2.0, 45.4, 50.5)">
    <clipPath id="clipPath0" transform="matrix(1.0, 0.0, 0.0, 1.0, 0.0, 0.0)">
      <path d="M13.15 18.4 L-13.15 18.4 -13.15 -18.6 13.15 -18.6 13.15 18.4" fill="#333333" fill-rule="evenodd" stroke="none"/>
    </clipPath>
    <g clip-path="url(#clipPath0)">
      <use ffdec:characterId="2941" height="37.3" transform="matrix(1.0, 0.0, 0.0, 1.0, -13.8, -19.05)" width="26.9" xlink:href="#shape1"/>
      <use ffdec:characterId="2939" height="36.05" style="mix-blend-mode: overlay" transform="matrix(1.0, 0.0, 0.0, 1.0, -13.65, -18.2)" width="27.0" xlink:href="#sprite0"/>
      <use ffdec:characterId="2938" height="9.7" transform="matrix(1.0, 0.0, 0.0, 1.0, -2.0, -4.6)" width="3.75" xlink:href="#shape3"/>
      <use ffdec:characterId="2901" height="6.7" style="mix-blend-mode: hard-light" transform="matrix(9.8345, -0.0072, -0.1083, 1.3093, -21.8529, -8.1884)" width="4.65" xlink:href="#sprite1"/>
      <use ffdec:characterId="2901" height="6.7" transform="matrix(3.4125, -0.0869, 0.0, 2.9673, -7.7244, -13.8721)" width="4.65" xlink:href="#sprite1"/>
      <use ffdec:characterId="2901" height="6.7" transform="matrix(7.1699, -0.0052, -0.0789, 0.9546, -15.7751, -6.2989)" width="4.65" xlink:href="#sprite1"/>
      <use ffdec:characterId="2901" height="6.7" transform="matrix(2.3085, -0.0588, 0.0, 2.0074, -5.1207, -1.612)" width="4.65" xlink:href="#sprite1"/>
      <use ffdec:characterId="2901" height="6.7" style="mix-blend-mode: hard-light" transform="matrix(4.6807, -0.1192, 0.0, 4.0701, -10.8099, -18.587)" width="4.65" xlink:href="#sprite1"/>
      <use ffdec:characterId="2901" height="6.7" style="mix-blend-mode: hard-light" transform="matrix(3.1665, -0.0806, 0.0, 4.9314, -7.0756, -15.9811)" width="4.65" xlink:href="#sprite1"/>
      <use ffdec:characterId="2937" height="9.4" transform="matrix(1.0, 0.0, 0.0, 1.0, -1.6, -4.3)" width="2.6" xlink:href="#shape5"/>
    </g>
    <use ffdec:characterId="2897" height="37.5" transform="matrix(1.0, 0.0, 0.0, 1.0, -13.9, -19.1)" width="27.65" xlink:href="#shape6"/>
  </g>
  <defs>
    <g id="shape1" transform="matrix(1.0, 0.0, 0.0, 1.0, 13.8, 19.05)">
      <path d="M-13.2 11.15 L-13.0 -18.6 13.1 -18.6 13.1 17.8 -6.4 17.8 -13.3 18.0 -13.2 11.4 -13.0 12.35 -13.2 11.15" fill="#000000" fill-rule="evenodd" stroke="none"/>
      <path d="M-13.2 11.15 L-13.0 12.35 -13.2 11.4 -13.6 9.55 -13.8 8.65 -13.6 8.65 -13.6 8.55 -13.2 11.15 M-5.7 18.15 L-5.65 18.25 -5.75 18.25 -5.7 18.15" fill="#515151" fill-rule="evenodd" stroke="none"/>
      <path d="M9.1 -17.05 Q7.55 -18.4 7.5 -19.05 L8.75 -19.05 Q10.7 -16.85 11.2 -12.65 11.35 -9.3 11.85 -4.3 12.3 0.7 10.0 9.05 7.65 17.35 6.7 17.6 5.7 17.85 5.6 18.1 L3.45 18.1 Q6.15 14.75 7.15 8.8 8.2 2.8 9.2 1.65 10.15 0.5 10.0 -1.5 9.85 -3.55 10.25 -9.65 10.6 -15.75 9.1 -17.05" fill="#4b6b78" fill-rule="evenodd" stroke="none"/>
    </g>
    <g id="sprite0" transform="matrix(1.0, 0.0, 0.0, 1.0, -2.4, -1.55)">
      <use ffdec:characterId="2902" height="36.05" transform="matrix(1.0, 0.0, 0.0, 1.0, 2.4, 1.55)" width="27.0" xlink:href="#shape2"/>
    </g>
    <g id="shape2" transform="matrix(1.0, 0.0, 0.0, 1.0, -2.4, -1.55)">
      <path d="M2.4 37.6 L2.4 1.55 29.4 1.55 29.4 37.6 2.4 37.6" fill="url(#gradient0)" fill-rule="evenodd" stroke="none"/>
    </g>
    <radialGradient cx="0" cy="0" gradientTransform="matrix(0.0284, 0.0, 0.0, 0.0284, 16.1, 18.8)" gradientUnits="userSpaceOnUse" id="gradient0" r="819.2" spreadMethod="pad">
      <stop offset="0.0" stop-color="#e9916b"/>
      <stop offset="0.8784313725490196" stop-color="#0f1424"/>
    </radialGradient>
    <g id="shape3" transform="matrix(1.0, 0.0, 0.0, 1.0, 2.0, 4.6)">
      <path d="M1.3 -1.75 Q0.65 -1.15 -0.55 -1.1 L-0.75 -1.1 Q-1.75 -1.1 -2.0 -3.3 -2.0 -4.2 -0.55 -4.45 L-0.1 -4.55 Q1.75 -4.8 1.75 -2.8 L1.3 -1.75 M-0.4 5.05 L-0.55 4.6 -0.55 4.55 Q-0.55 3.95 -0.15 3.8 0.3 3.55 0.95 4.4 0.45 5.1 -0.05 5.1 L-0.4 5.05" fill="#ffffff" fill-rule="evenodd" stroke="none"/>
    </g>
    <g id="sprite1" transform="matrix(1.0, 0.0, 0.0, 1.0, -2.85, -0.75)">
      <use ffdec:characterId="2900" height="6.7" transform="matrix(1.0, 0.0, 0.0, 1.0, 2.85, 0.75)" width="4.65" xlink:href="#shape4"/>
    </g>
    <g id="shape4" transform="matrix(1.0, 0.0, 0.0, 1.0, -2.85, -0.75)">
      <path d="M6.8 6.45 Q6.15 7.45 5.15 7.45 4.2 7.45 3.5 6.45 2.85 5.5 2.85 4.1 2.85 2.7 3.5 1.7 4.2 0.75 5.15 0.75 6.15 0.75 6.8 1.7 7.5 2.7 7.5 4.1 7.5 5.5 6.8 6.45" fill="url(#gradient1)" fill-rule="evenodd" stroke="none"/>
    </g>
    <radialGradient cx="0" cy="0" gradientTransform="matrix(0.0046, 0.0, 0.0, 0.0046, 4.85, 4.15)" gradientUnits="userSpaceOnUse" id="gradient1" r="819.2" spreadMethod="pad">
      <stop offset="0.0" stop-color="#dd8400"/>
      <stop offset="0.615686274509804" stop-color="#da6d03" stop-opacity="0.0"/>
    </radialGradient>
    <g id="shape5" transform="matrix(1.0, 0.0, 0.0, 1.0, 1.6, 4.3)">
      <path d="M0.85 -1.85 L-0.1 -1.85 -0.55 -1.85 Q-1.95 -2.0 -1.5 -2.85 -1.5 -4.05 -0.55 -4.25 L0.85 -4.2 1.0 -3.1 0.85 -1.85 M0.0 5.1 L-0.05 4.8 0.1 4.5 0.3 4.45 0.6 4.75 0.3 5.1 0.0 5.1" fill="#ffffff" fill-rule="evenodd" stroke="none"/>
    </g>
    <g id="shape6" transform="matrix(1.0, 0.0, 0.0, 1.0, 13.9, 19.1)">
      <path d="M13.25 17.9 L-13.4 17.9 -13.4 -18.6 13.25 -18.6 13.25 17.9 Z" fill="none" stroke="#000000" stroke-linecap="round" stroke-linejoin="round" stroke-width="1.0"/>
    </g>
  </defs>
</svg>
