<?xml version="1.0" encoding="UTF-8" standalone="no"?>
<svg xmlns:ffdec="https://www.free-decompiler.com/flash" xmlns:xlink="http://www.w3.org/1999/xlink" ffdec:objectType="frame" height="104.5px" width="114.7px" xmlns="http://www.w3.org/2000/svg">
  <g transform="matrix(2.0, 0.0, 0.0, 2.0, 45.4, 50.5)">
    <clipPath id="clipPath0" transform="matrix(1.0, 0.0, 0.0, 1.0, 0.0, 0.0)">
      <path d="M13.15 18.4 L-13.15 18.4 -13.15 -18.6 13.15 -18.6 13.15 18.4" fill="#333333" fill-rule="evenodd" stroke="none"/>
    </clipPath>
    <g clip-path="url(#clipPath0)">
      <use ffdec:characterId="2947" height="39.25" transform="matrix(1.0, 0.0, 0.0, 1.0, -13.45, -18.65)" width="26.6" xlink:href="#shape1"/>
      <use ffdec:characterId="2946" height="37.8" style="mix-blend-mode: multiply" transform="matrix(1.0, 0.0, 0.0, 1.0, -14.75, -19.3)" width="28.6" xlink:href="#sprite0"/>
      <use ffdec:characterId="2906" height="37.3" style="mix-blend-mode: overlay" transform="matrix(1.0, 0.0, 0.0, 1.0, -14.75, -19.3)" width="28.1" xlink:href="#sprite1"/>
    </g>
    <use ffdec:characterId="2897" height="37.5" transform="matrix(1.0, 0.0, 0.0, 1.0, -13.9, -19.1)" width="27.65" xlink:href="#shape4"/>
  </g>
  <defs>
    <g id="shape1" transform="matrix(1.0, 0.0, 0.0, 1.0, 13.45, 18.65)">
      <path d="M13.15 -18.65 L13.15 18.15 -13.45 18.15 -13.45 -18.65 13.15 -18.65" fill="#000000" fill-rule="evenodd" stroke="none"/>
      <path d="M8.65 -4.45 Q10.25 -4.45 12.65 -3.5 L11.7 -3.3 Q10.7 -3.3 9.65 -3.65 8.8 -3.85 8.45 -4.1 L8.65 -4.45 M-8.3 -5.3 L-8.55 -5.75 -8.0 -6.2 -7.5 -5.5 -7.1 -4.55 -7.2 -4.05 -7.95 -4.8 -8.3 -5.3 M-6.9 -5.65 L-7.55 -7.2 -7.05 -7.45 Q-6.4 -7.0 -6.0 -5.95 L-5.45 -4.4 Q-6.3 -4.55 -6.8 -5.5 L-6.9 -5.65" fill="#000000" fill-rule="evenodd" stroke="none"/>
      <path d="M3.45 -16.1 L3.55 -16.1 4.15 -15.8 4.6 -16.0 4.9 -16.45 Q4.9 -17.6 4.25 -18.2 L6.7 -17.45 6.65 -17.3 Q6.45 -16.6 7.8 -14.75 9.05 -13.0 8.65 -11.6 L8.2 -9.45 2.5 -8.9 Q3.4 -10.25 3.65 -11.55 L6.45 -11.95 6.3 -12.6 3.65 -12.3 3.35 -13.9 4.1 -14.0 4.2 -14.45 4.1 -14.75 Q3.4 -15.0 3.15 -14.75 L3.1 -15.1 Q3.1 -15.45 3.45 -16.1 M3.1 -18.45 Q2.95 -18.15 2.95 -17.45 L3.05 -16.85 2.85 -16.5 2.6 -15.75 Q2.6 -14.75 3.05 -13.6 L3.15 -13.25 -3.85 -13.45 -2.5 -12.9 Q-0.2 -12.35 2.05 -12.9 L3.2 -13.15 3.4 -12.25 -1.3 -11.85 -2.15 -12.7 -1.95 -11.2 -3.55 -12.85 -3.25 -10.9 -4.45 -10.5 -3.9 -10.15 -3.1 -10.45 -2.9 -8.8 -8.25 -8.5 -5.85 -14.1 -7.0 -12.3 -8.95 -12.35 -9.25 -12.85 -9.4 -13.2 Q-4.1 -19.5 3.1 -18.45 M8.0 -7.9 L8.0 -7.85 7.95 -7.85 8.0 -7.9 M8.8 -2.0 L9.2 -1.8 10.45 -1.2 10.4 -0.95 8.75 -1.95 8.8 -2.0 M9.5 -0.55 L9.25 -0.7 10.35 -0.5 10.25 0.15 9.5 -0.55 M8.05 -1.15 L9.0 -0.15 10.1 0.9 10.0 1.35 9.2 2.3 Q8.5 3.5 7.95 4.95 L7.6 5.05 7.6 2.6 8.15 2.55 7.6 2.2 7.5 -0.55 8.05 -1.15 M9.3 -2.65 L9.8 -3.2 10.6 -2.4 10.55 -1.95 10.3 -2.1 9.3 -2.65 M1.3 -0.05 L1.35 -0.05 1.45 0.4 1.4 0.4 1.3 -0.05 M0.35 -3.45 L1.2 -0.5 -1.35 -0.6 -1.0 -2.1 -0.35 -2.3 0.35 -3.45 M1.05 -8.75 L0.4 -9.05 0.35 -11.15 3.2 -11.5 2.45 -10.05 1.75 -8.8 1.05 -8.75 M8.0 -7.8 Q8.0 -6.9 8.15 -6.3 L3.2 -6.05 1.65 -6.1 8.0 -7.8 M8.05 -8.6 L8.1 -8.45 6.15 -8.2 8.1 -9.0 8.05 -8.6 M-10.7 -7.4 L-9.3 -7.45 -9.7 -6.45 Q-10.2 -6.6 -10.45 -6.9 L-10.7 -7.4 M-8.3 -5.3 L-9.6 -4.95 -8.55 -7.6 -5.8 -7.75 -5.25 -7.4 -3.3 -7.3 -3.3 -6.65 -6.0 -5.95 Q-6.4 -7.0 -7.05 -7.45 L-7.55 -7.2 -6.9 -5.65 -7.5 -5.5 -8.0 -6.2 -8.55 -5.75 -8.3 -5.3 M-1.1 -10.9 L-0.35 -11.1 -0.75 -8.85 -1.1 -10.9 M-0.75 -6.5 L-0.8 -7.35 0.0 -7.05 -0.05 -6.3 -0.75 -6.5 M-1.8 -6.65 L-1.7 -7.4 -1.75 -6.65 -1.8 -6.65 M-8.7 -8.75 L-8.95 -8.3 -10.85 -8.0 -9.45 -8.4 -8.7 -8.75 M-8.1 -9.9 Q-8.2 -10.65 -8.85 -12.05 L-7.1 -12.1 -8.1 -9.9 M-1.4 -8.85 L-2.0 -8.8 -2.05 -10.65 -1.4 -8.85 M-9.45 -0.8 L-10.1 -1.5 -9.6 -1.4 -8.65 -1.6 -7.2 -1.6 -9.45 -0.8 M-4.3 -0.5 L-5.75 -0.3 -4.15 -1.3 -4.3 -0.5 M-7.95 3.55 L-9.45 3.2 -10.85 -0.5 -7.95 3.55 M-5.25 5.15 L-6.35 3.9 -5.85 0.4 -4.35 -0.35 -5.25 5.15 M-7.6 3.6 L-8.95 0.6 -6.25 0.45 -6.95 3.4 -7.6 3.6 M-2.45 4.5 L-2.4 3.15 -1.9 3.4 Q-2.1 3.55 -2.1 4.3 L-2.05 4.6 -2.45 4.5 M-1.6 3.3 L-1.85 1.25 -1.45 -0.2 0.95 -0.05 0.85 0.6 0.9 0.7 0.75 0.75 -0.35 1.35 0.4 1.6 1.05 1.35 1.15 2.25 0.95 3.95 0.3 3.85 0.25 4.05 Q-0.25 4.1 -0.55 4.3 L-0.9 3.9 -1.6 3.3 M-8.0 5.8 Q-6.15 8.1 -6.75 11.05 L-6.95 10.65 -8.45 5.25 -8.0 5.8 M-1.6 12.05 L-1.6 12.4 -1.8 12.7 -2.15 12.65 -1.9 11.85 -1.6 12.05 M1.95 2.25 L1.95 2.0 3.05 2.4 2.85 4.1 1.75 4.0 1.95 2.25 M7.05 2.7 L7.35 4.95 Q5.7 5.4 5.05 3.5 L4.85 2.6 7.05 2.7 M6.6 0.05 L7.0 1.8 4.55 0.5 4.45 -0.55 6.6 0.05 M-4.65 19.5 L-2.5 19.85 -2.2 20.6 -4.65 19.5 M-2.4 14.9 L-2.35 15.35 -2.75 15.6 -2.75 15.8 -2.4 16.05 -2.15 16.05 -2.1 16.05 Q-1.55 16.25 -1.75 16.05 L-0.5 16.0 -0.35 16.2 0.1 16.95 -1.0 16.95 Q-2.0 17.5 -2.95 16.95 L-3.35 16.5 -3.25 15.9 -3.75 15.65 -3.9 13.2 -3.65 13.8 -3.5 14.1 -3.7 14.55 -3.35 15.45 -3.3 15.55 -3.25 15.25 -3.05 14.6 -2.4 14.9 M-1.3 15.1 L-1.3 14.8 -0.7 14.5 -0.5 14.45 -0.7 14.75 -0.6 14.8 -1.3 15.1 M-0.75 13.1 L-1.1 13.15 -1.55 12.8 -1.45 12.1 -0.7 12.75 -0.75 13.1 M-4.5 8.9 L-4.05 7.3 -3.7 7.25 -2.8 8.4 -2.4 8.85 -4.5 8.9 M3.65 7.65 L2.3 8.65 1.75 8.7 3.1 7.35 3.65 7.65 M2.25 11.25 L2.35 11.5 2.95 12.0 2.85 12.15 2.4 12.55 Q2.2 12.55 2.15 12.25 L2.2 11.3 2.25 11.25 M5.1 13.25 L3.8 15.55 4.65 12.0 5.1 13.25 M0.45 14.7 L0.25 14.4 -0.05 14.05 0.05 13.95 Q0.95 14.0 1.9 14.45 L2.8 15.0 2.1 15.4 Q1.75 14.6 0.45 14.7 M2.25 12.65 L2.05 12.7 2.0 12.7 0.0 13.0 0.0 12.7 0.75 12.6 0.65 11.4 1.2 12.65 2.25 12.65" fill="#ffffff" fill-rule="evenodd" stroke="none"/>
    </g>
    <g id="sprite0" transform="matrix(1.0, 0.0, 0.0, 1.0, 0.0, 0.0)">
      <use ffdec:characterId="2945" height="37.8" transform="matrix(1.0, 0.0, 0.0, 1.0, 0.0, 0.0)" width="28.6" xlink:href="#shape2"/>
    </g>
    <g id="shape2" transform="matrix(1.0, 0.0, 0.0, 1.0, 0.0, 0.0)">
      <path d="M2.85 0.0 L3.3 0.4 2.8 0.55 2.7 0.0 2.85 0.0 M0.3 2.8 L0.5 2.95 0.45 3.05 0.3 2.8 M0.1 29.55 L0.0 30.4 0.0 29.65 0.1 29.55 M0.1 29.05 L0.0 29.1 0.0 29.05 0.1 29.05 M0.05 0.85 L0.0 0.9 0.0 0.0 0.45 0.0 0.05 0.85 M1.1 36.6 L1.1 36.8 0.0 36.8 0.0 36.4 1.1 36.6" fill="url(#gradient0)" fill-rule="evenodd" stroke="none"/>
      <path d="M1.1 36.8 L1.1 36.6 1.1 0.85 28.1 0.85 28.1 37.3 1.1 37.3 1.1 36.8" fill="url(#gradient1)" fill-rule="evenodd" stroke="none"/>
      <path d="M1.1 36.8 L1.1 36.6 1.1 0.85 28.1 0.85 28.1 37.3 1.1 37.3 1.1 36.8 Z" fill="none" stroke="#756c4f" stroke-linecap="round" stroke-linejoin="round" stroke-width="1.0"/>
    </g>
    <radialGradient cx="0" cy="0" gradientTransform="matrix(0.018, 0.0, 0.0, 0.0279, 13.25, 19.2)" gradientUnits="userSpaceOnUse" id="gradient0" r="819.2" spreadMethod="pad">
      <stop offset="0.16470588235294117" stop-color="#eccd57"/>
      <stop offset="0.8470588235294118" stop-color="#5f8a53"/>
    </radialGradient>
    <radialGradient cx="0" cy="0" gradientTransform="matrix(0.0277, 0.0, 0.0, 0.0277, 14.6, 19.05)" gradientUnits="userSpaceOnUse" id="gradient1" r="819.2" spreadMethod="pad">
      <stop offset="0.00392156862745098" stop-color="#faf1af"/>
      <stop offset="0.49411764705882355" stop-color="#d0c773"/>
      <stop offset="0.8470588235294118" stop-color="#5f8a53"/>
    </radialGradient>
    <g id="sprite1" transform="matrix(1.0, 0.0, 0.0, 1.0, 0.0, 0.0)">
      <use ffdec:characterId="2905" height="37.3" transform="matrix(1.0, 0.0, 0.0, 1.0, 0.0, 0.0)" width="28.1" xlink:href="#shape3"/>
    </g>
    <g id="shape3" transform="matrix(1.0, 0.0, 0.0, 1.0, 0.0, 0.0)">
      <path d="M2.85 0.0 L3.3 0.4 2.8 0.55 2.7 0.0 2.85 0.0 M0.05 0.85 L0.0 0.9 0.0 0.0 0.45 0.0 0.05 0.85 M0.3 2.8 L0.5 2.95 0.45 3.05 0.3 2.8 M1.1 36.8 L0.0 36.8 0.0 36.4 1.1 36.6 1.1 36.8 M0.1 29.05 L0.0 29.1 0.0 29.05 0.1 29.05 M0.1 29.55 L0.0 30.4 0.0 29.65 0.1 29.55" fill="url(#gradient2)" fill-rule="evenodd" stroke="none"/>
      <path d="M1.1 36.8 L1.1 36.6 1.1 0.85 28.1 0.85 28.1 37.3 1.1 37.3 1.1 36.8" fill="url(#gradient3)" fill-rule="evenodd" stroke="none"/>
    </g>
    <radialGradient cx="0" cy="0" gradientTransform="matrix(0.018, 0.0, 0.0, 0.0279, 13.25, 19.2)" gradientUnits="userSpaceOnUse" id="gradient2" r="819.2" spreadMethod="pad">
      <stop offset="0.16470588235294117" stop-color="#eccd57"/>
      <stop offset="0.8470588235294118" stop-color="#5f8a53"/>
    </radialGradient>
    <linearGradient gradientTransform="matrix(0.0078, 0.0013, -0.0037, 0.0219, 15.6, 21.8)" gradientUnits="userSpaceOnUse" id="gradient3" spreadMethod="pad" x1="-819.2" x2="819.2">
      <stop offset="0.0" stop-color="#f4e13e" stop-opacity="0.0"/>
      <stop offset="1.0" stop-color="#abd20b"/>
    </linearGradient>
    <g id="shape4" transform="matrix(1.0, 0.0, 0.0, 1.0, 13.9, 19.1)">
      <path d="M13.25 17.9 L-13.4 17.9 -13.4 -18.6 13.25 -18.6 13.25 17.9 Z" fill="none" stroke="#000000" stroke-linecap="round" stroke-linejoin="round" stroke-width="1.0"/>
    </g>
  </defs>
</svg>
