<?xml version="1.0" encoding="UTF-8" standalone="no"?>
<svg xmlns:ffdec="https://www.free-decompiler.com/flash" xmlns:xlink="http://www.w3.org/1999/xlink" ffdec:objectType="frame" height="104.5px" width="114.7px" xmlns="http://www.w3.org/2000/svg">
  <g transform="matrix(2.0, 0.0, 0.0, 2.0, 45.4, 50.5)">
    <clipPath id="clipPath0" transform="matrix(1.0, 0.0, 0.0, 1.0, 0.0, 0.0)">
      <path d="M13.15 18.4 L-13.15 18.4 -13.15 -18.6 13.15 -18.6 13.15 18.4" fill="#333333" fill-rule="evenodd" stroke="none"/>
    </clipPath>
    <g clip-path="url(#clipPath0)">
      <use ffdec:characterId="2948" height="36.8" transform="matrix(1.0, 0.0, 0.0, 1.0, -13.45, -18.65)" width="26.6" xlink:href="#shape1"/>
      <use ffdec:characterId="2908" height="37.8" style="mix-blend-mode: multiply" transform="matrix(1.0, 0.0, 0.0, 1.0, -14.75, -19.3)" width="28.6" xlink:href="#sprite0"/>
      <use ffdec:characterId="2906" height="37.3" style="mix-blend-mode: overlay" transform="matrix(1.0, 0.0, 0.0, 1.0, -14.75, -19.3)" width="28.1" xlink:href="#sprite1"/>
    </g>
    <use ffdec:characterId="2897" height="37.5" transform="matrix(1.0, 0.0, 0.0, 1.0, -13.9, -19.1)" width="27.65" xlink:href="#shape4"/>
  </g>
  <defs>
    <g id="shape1" transform="matrix(1.0, 0.0, 0.0, 1.0, 13.45, 18.65)">
      <path d="M-13.45 -18.65 L13.15 -18.65 13.15 18.15 -13.45 18.15 -13.45 -18.65" fill="#000000" fill-rule="evenodd" stroke="none"/>
      <path d="M5.5 -14.15 L5.0 -17.45 6.9 -14.05 7.9 -9.25 6.25 -5.95 -0.65 -5.7 -1.55 -8.5 1.1 -9.0 Q1.5 -7.7 1.95 -8.65 L2.2 -9.25 Q3.6 -9.25 4.6 -10.5 5.6 -11.75 5.6 -13.45 L5.6 -13.5 5.5 -14.15 M8.0 -8.9 L8.1 -9.05 11.45 -7.05 6.55 -6.0 8.0 -8.9 M-6.0 -8.1 L-3.65 -8.25 -3.45 -6.6 -3.35 -6.0 Q-7.65 -6.55 -11.95 -8.1 L-9.75 -8.0 Q-9.6 -7.35 -8.85 -7.75 L-8.7 -8.0 -6.45 -8.1 Q-6.4 -7.55 -6.1 -7.85 L-6.0 -8.1 M-1.8 -8.5 L-0.9 -5.75 -3.05 -5.95 -3.1 -6.4 -3.4 -8.3 -1.8 -8.5" fill="#343f27" fill-rule="evenodd" stroke="none"/>
      <path d="M2.45 14.05 L2.45 14.1 2.45 14.05 M5.8 6.95 Q5.35 7.0 4.95 6.45 3.1 3.7 5.25 5.25 L5.8 6.95 M0.1 10.75 L0.5 10.65 0.6 11.0 1.5 13.75 1.45 14.45 0.2 14.55 -2.15 14.05 -2.25 13.5 Q-1.85 12.5 -1.85 11.5 L-2.4 12.7 -2.7 11.8 -2.75 11.6 -2.2 11.15 Q-1.4 10.65 -0.4 10.55 -0.2 10.75 0.1 10.75 M0.9 11.4 L0.65 10.55 Q1.75 10.6 2.65 11.15 L2.7 11.2 1.8 13.1 1.6 13.5 0.9 11.4 M0.25 7.5 L0.75 8.0 0.25 8.6 -0.9 8.8 -2.05 8.6 -2.5 8.0 -2.05 7.5 -0.9 7.2 Q-0.25 7.2 0.25 7.5 M3.25 8.05 L3.05 8.45 2.45 8.6 1.95 8.45 Q1.65 8.25 1.65 8.05 1.65 7.85 1.95 7.7 L2.45 7.55 3.05 7.7 3.25 8.05 M7.9 0.65 L7.9 0.75 7.85 0.75 7.95 0.5 8.5 -0.75 7.9 0.65 M2.95 -0.25 Q2.95 -0.8 3.8 -1.15 L5.95 -1.55 8.05 -1.15 8.15 -1.1 7.55 0.1 7.25 0.9 5.95 1.0 3.8 0.65 Q2.95 0.25 2.95 -0.25 M1.95 -1.65 L1.55 -1.55 1.2 -1.65 1.0 -2.0 1.2 -2.35 1.55 -2.5 1.95 -2.35 2.15 -2.0 1.95 -1.65 M0.1 -3.5 L0.45 -3.15 0.65 -2.2 0.45 -1.2 Q0.15 -0.85 -0.15 -0.85 L-0.65 -1.2 -0.95 -2.2 -0.65 -3.15 -0.15 -3.55 0.4 -2.7 0.1 -3.5 M-5.3 8.65 L-5.95 11.9 -5.7 8.15 -3.85 5.35 -5.3 8.65 M-3.45 -0.45 L-0.6 -0.7 1.2 4.4 -0.8 4.95 -1.05 1.6 -3.15 3.55 -4.95 2.45 -4.15 1.35 -4.55 1.6 -3.4 0.4 -6.0 1.5 -8.25 -2.9 -3.45 -0.45" fill="#956d48" fill-rule="evenodd" stroke="none"/>
      <path d="M5.5 -14.15 L5.6 -13.5 Q4.9 -14.0 5.5 -14.15 M2.2 -9.25 L1.95 -8.65 Q1.5 -7.7 1.1 -9.0 L-0.2 -10.8 Q1.55 -10.7 1.0 -12.3 0.0 -15.25 1.15 -15.8 L2.65 -11.4 2.85 -11.15 Q2.8 -10.7 2.15 -10.35 L2.2 -9.25 M3.2 -13.15 L3.25 -12.9 Q2.85 -11.9 3.2 -13.15 M-12.55 -10.0 Q-12.05 -10.25 -12.6 -9.9 L-12.55 -10.0 M-10.4 -14.95 L-10.3 -14.6 -10.4 -14.25 Q-10.5 -14.1 -10.7 -14.1 -10.85 -14.1 -10.95 -14.25 L-11.1 -14.6 -10.95 -14.95 -10.7 -15.05 -10.4 -14.95 M-6.0 -8.1 L-6.1 -7.85 Q-6.4 -7.55 -6.45 -8.1 L-6.1 -10.3 -6.0 -8.1 M-8.7 -8.0 L-8.85 -7.75 Q-9.6 -7.35 -9.75 -8.0 L-8.85 -13.2 -8.7 -8.0" fill="#353e28" fill-rule="evenodd" stroke="none"/>
    </g>
    <g id="sprite0" transform="matrix(1.0, 0.0, 0.0, 1.0, 0.0, 0.0)">
      <use ffdec:characterId="2907" height="37.8" transform="matrix(1.0, 0.0, 0.0, 1.0, 0.0, 0.0)" width="28.6" xlink:href="#shape2"/>
    </g>
    <g id="shape2" transform="matrix(1.0, 0.0, 0.0, 1.0, 0.0, 0.0)">
      <path d="M2.85 0.0 L3.3 0.4 2.8 0.55 2.7 0.0 2.85 0.0 M0.3 2.8 L0.5 2.95 0.45 3.05 0.3 2.8 M0.1 29.55 L0.0 30.4 0.0 29.65 0.1 29.55 M0.1 29.05 L0.0 29.1 0.0 29.05 0.1 29.05 M0.05 0.85 L0.0 0.9 0.0 0.0 0.45 0.0 0.05 0.85 M1.1 36.6 L1.1 36.8 0.0 36.8 0.0 36.4 1.1 36.6" fill="url(#gradient0)" fill-rule="evenodd" stroke="none"/>
      <path d="M1.1 36.8 L1.1 36.6 1.1 0.85 28.1 0.85 28.1 37.3 1.1 37.3 1.1 36.8" fill="url(#gradient1)" fill-rule="evenodd" stroke="none"/>
      <path d="M1.1 36.8 L1.1 36.6 1.1 0.85 28.1 0.85 28.1 37.3 1.1 37.3 1.1 36.8 Z" fill="none" stroke="#756c4f" stroke-linecap="round" stroke-linejoin="round" stroke-width="1.0"/>
    </g>
    <radialGradient cx="0" cy="0" gradientTransform="matrix(0.018, 0.0, 0.0, 0.0279, 13.25, 19.2)" gradientUnits="userSpaceOnUse" id="gradient0" r="819.2" spreadMethod="pad">
      <stop offset="0.16470588235294117" stop-color="#eccd57"/>
      <stop offset="0.8470588235294118" stop-color="#5f8a53"/>
    </radialGradient>
    <radialGradient cx="0" cy="0" gradientTransform="matrix(0.0277, 0.0, 0.0, 0.0277, 14.6, 19.05)" gradientUnits="userSpaceOnUse" id="gradient1" r="819.2" spreadMethod="pad">
      <stop offset="0.00392156862745098" stop-color="#faf1af"/>
      <stop offset="0.49411764705882355" stop-color="#d0c773"/>
      <stop offset="0.8470588235294118" stop-color="#5f8a53"/>
    </radialGradient>
    <g id="sprite1" transform="matrix(1.0, 0.0, 0.0, 1.0, 0.0, 0.0)">
      <use ffdec:characterId="2905" height="37.3" transform="matrix(1.0, 0.0, 0.0, 1.0, 0.0, 0.0)" width="28.1" xlink:href="#shape3"/>
    </g>
    <g id="shape3" transform="matrix(1.0, 0.0, 0.0, 1.0, 0.0, 0.0)">
      <path d="M2.85 0.0 L3.3 0.4 2.8 0.55 2.7 0.0 2.85 0.0 M0.05 0.85 L0.0 0.9 0.0 0.0 0.45 0.0 0.05 0.85 M0.3 2.8 L0.5 2.95 0.45 3.05 0.3 2.8 M1.1 36.8 L0.0 36.8 0.0 36.4 1.1 36.6 1.1 36.8 M0.1 29.05 L0.0 29.1 0.0 29.05 0.1 29.05 M0.1 29.55 L0.0 30.4 0.0 29.65 0.1 29.55" fill="url(#gradient2)" fill-rule="evenodd" stroke="none"/>
      <path d="M1.1 36.8 L1.1 36.6 1.1 0.85 28.1 0.85 28.1 37.3 1.1 37.3 1.1 36.8" fill="url(#gradient3)" fill-rule="evenodd" stroke="none"/>
    </g>
    <radialGradient cx="0" cy="0" gradientTransform="matrix(0.018, 0.0, 0.0, 0.0279, 13.25, 19.2)" gradientUnits="userSpaceOnUse" id="gradient2" r="819.2" spreadMethod="pad">
      <stop offset="0.16470588235294117" stop-color="#eccd57"/>
      <stop offset="0.8470588235294118" stop-color="#5f8a53"/>
    </radialGradient>
    <linearGradient gradientTransform="matrix(0.0078, 0.0013, -0.0037, 0.0219, 15.6, 21.8)" gradientUnits="userSpaceOnUse" id="gradient3" spreadMethod="pad" x1="-819.2" x2="819.2">
      <stop offset="0.0" stop-color="#f4e13e" stop-opacity="0.0"/>
      <stop offset="1.0" stop-color="#abd20b"/>
    </linearGradient>
    <g id="shape4" transform="matrix(1.0, 0.0, 0.0, 1.0, 13.9, 19.1)">
      <path d="M13.25 17.9 L-13.4 17.9 -13.4 -18.6 13.25 -18.6 13.25 17.9 Z" fill="none" stroke="#000000" stroke-linecap="round" stroke-linejoin="round" stroke-width="1.0"/>
    </g>
  </defs>
</svg>
