<?xml version="1.0" encoding="UTF-8" standalone="no"?>
<svg xmlns:ffdec="https://www.free-decompiler.com/flash" xmlns:xlink="http://www.w3.org/1999/xlink" ffdec:objectType="frame" height="104.5px" width="114.7px" xmlns="http://www.w3.org/2000/svg">
  <g transform="matrix(2.0, 0.0, 0.0, 2.0, 45.4, 50.5)">
    <clipPath id="clipPath0" transform="matrix(1.0, 0.0, 0.0, 1.0, 0.0, 0.0)">
      <path d="M13.15 18.4 L-13.15 18.4 -13.15 -18.6 13.15 -18.6 13.15 18.4" fill="#333333" fill-rule="evenodd" stroke="none"/>
    </clipPath>
    <g clip-path="url(#clipPath0)">
      <use ffdec:characterId="2950" height="36.8" transform="matrix(1.0, 0.0, 0.0, 1.0, -13.45, -18.65)" width="26.6" xlink:href="#shape1"/>
      <use ffdec:characterId="2920" height="37.8" style="mix-blend-mode: multiply" transform="matrix(1.0, 0.0, 0.0, 1.0, -14.75, -19.3)" width="28.6" xlink:href="#sprite0"/>
      <use ffdec:characterId="2906" height="37.3" style="mix-blend-mode: overlay" transform="matrix(1.0, 0.0, 0.0, 1.0, -14.75, -19.3)" width="28.1" xlink:href="#sprite1"/>
      <filter id="filter0">
        <feConvolveMatrix divisor="36.0" in="SourceGraphic" kernelMatrix="1 1 1 1 1 1 1 1 1 1 1 1 1 1 1 1 1 1 1 1 1 1 1 1 1 1 1 1 1 1 1 1 1 1 1 1" order="6 6" result="filterResult0"/>
      </filter>
      <use ffdec:characterId="2949" filter="url(#filter0)" height="0.0" transform="matrix(1.0, 0.0, 0.0, 1.0, -14.75, -21.25)" width="0.0" xlink:href="#sprite2"/>
      <filter id="filter1">
        <feConvolveMatrix divisor="36.0" in="SourceGraphic" kernelMatrix="1 1 1 1 1 1 1 1 1 1 1 1 1 1 1 1 1 1 1 1 1 1 1 1 1 1 1 1 1 1 1 1 1 1 1 1" order="6 6" result="filterResult1"/>
      </filter>
      <use ffdec:characterId="2949" filter="url(#filter1)" height="0.0" transform="matrix(1.0, 0.0, 0.0, 1.0, -14.75, -21.25)" width="0.0" xlink:href="#sprite2"/>
      <filter id="filter2">
        <feConvolveMatrix divisor="36.0" in="SourceGraphic" kernelMatrix="1 1 1 1 1 1 1 1 1 1 1 1 1 1 1 1 1 1 1 1 1 1 1 1 1 1 1 1 1 1 1 1 1 1 1 1" order="6 6" result="filterResult2"/>
      </filter>
      <use ffdec:characterId="2949" filter="url(#filter2)" height="0.0" transform="matrix(1.0, 0.0, 0.0, 1.0, -14.75, -21.25)" width="0.0" xlink:href="#sprite2"/>
      <filter id="filter3">
        <feConvolveMatrix divisor="36.0" in="SourceGraphic" kernelMatrix="1 1 1 1 1 1 1 1 1 1 1 1 1 1 1 1 1 1 1 1 1 1 1 1 1 1 1 1 1 1 1 1 1 1 1 1" order="6 6" result="filterResult3"/>
      </filter>
      <use ffdec:characterId="2949" filter="url(#filter3)" height="0.0" transform="matrix(1.0, 0.0, 0.0, 1.0, -14.75, -21.25)" width="0.0" xlink:href="#sprite2"/>
      <filter id="filter4">
        <feConvolveMatrix divisor="36.0" in="SourceGraphic" kernelMatrix="1 1 1 1 1 1 1 1 1 1 1 1 1 1 1 1 1 1 1 1 1 1 1 1 1 1 1 1 1 1 1 1 1 1 1 1" order="6 6" result="filterResult4"/>
      </filter>
      <use ffdec:characterId="2949" filter="url(#filter4)" height="0.0" transform="matrix(1.0, 0.0, 0.0, 1.0, -14.75, -21.25)" width="0.0" xlink:href="#sprite2"/>
      <filter id="filter5">
        <feConvolveMatrix divisor="36.0" in="SourceGraphic" kernelMatrix="1 1 1 1 1 1 1 1 1 1 1 1 1 1 1 1 1 1 1 1 1 1 1 1 1 1 1 1 1 1 1 1 1 1 1 1" order="6 6" result="filterResult5"/>
      </filter>
      <use ffdec:characterId="2949" filter="url(#filter5)" height="0.0" transform="matrix(1.0, 0.0, 0.0, 1.0, -14.75, -21.25)" width="0.0" xlink:href="#sprite2"/>
      <filter id="filter6">
        <feConvolveMatrix divisor="4.0" in="SourceGraphic" kernelMatrix="1 1 1 1" order="2 2" result="filterResult6"/>
      </filter>
      <use ffdec:characterId="2949" filter="url(#filter6)" height="0.0" transform="matrix(1.0, 0.0, 0.0, 1.0, -14.75, -21.25)" width="0.0" xlink:href="#sprite2"/>
      <use ffdec:characterId="2949" height="0.0" transform="matrix(1.0, 0.0, 0.0, 1.0, -14.75, -21.25)" width="0.0" xlink:href="#sprite2"/>
    </g>
    <use ffdec:characterId="2897" height="37.5" transform="matrix(1.0, 0.0, 0.0, 1.0, -13.9, -19.1)" width="27.65" xlink:href="#shape4"/>
  </g>
  <defs>
    <g id="shape1" transform="matrix(1.0, 0.0, 0.0, 1.0, 13.45, 18.65)">
      <path d="M13.15 18.15 L-13.45 18.15 -13.45 -18.65 13.15 -18.65 13.15 18.15" fill="#000000" fill-rule="evenodd" stroke="none"/>
      <path d="M8.9 3.65 L8.8 3.8 8.9 3.5 8.9 3.65" fill="url(#gradient0)" fill-rule="evenodd" stroke="none"/>
      <path d="M3.85 -15.5 L4.15 -15.4 4.75 -15.15 7.0 -14.25 7.85 -8.1 8.2 -5.7 Q8.3 -5.1 8.85 -4.8 7.95 -3.2 6.5 -2.05 L4.35 -0.45 Q2.55 0.65 1.85 1.65 1.15 2.6 1.05 4.55 0.9 6.5 1.05 8.5 L1.2 12.8 1.2 13.65 1.25 13.9 1.95 13.85 2.55 13.55 2.5 13.5 4.9 12.35 6.5 10.9 6.7 10.75 7.1 10.35 7.55 9.85 9.6 7.25 9.15 8.1 7.95 9.8 5.25 13.15 Q3.4 15.1 0.55 15.2 L-0.6 1.7 Q2.25 0.35 4.4 -1.95 L6.9 -4.65 6.55 -6.5 Q4.5 -4.0 1.45 -3.2 L-1.4 -2.8 Q-3.3 -2.85 -5.05 -3.45 -7.0 -4.15 -8.8 -5.15 L-8.9 -3.7 -4.65 1.1 Q-4.05 7.15 -4.4 13.75 L-4.5 15.05 Q-5.8 14.45 -6.8 13.05 -7.8 11.65 -7.3 10.95 -6.45 13.1 -5.15 13.25 L-5.1 12.3 Q-4.75 8.75 -4.75 7.0 -4.8 5.25 -5.2 4.0 L-6.3 1.4 -7.4 -0.6 -9.75 -3.85 -9.25 -6.0 Q-6.85 -4.35 -4.0 -3.95 L-0.65 -3.45 0.75 -5.7 0.35 -5.45 0.65 -6.05 3.3 -8.45 3.75 -8.75 1.55 -9.35 3.3 -10.4 3.4 -10.55 1.65 -10.95 2.55 -12.1 0.85 -12.0 Q-0.4 -12.15 -1.3 -13.0 L-1.85 -13.55 Q-0.85 -15.75 1.35 -15.95 L3.85 -15.5" fill="url(#gradient1)" fill-rule="evenodd" stroke="none"/>
    </g>
    <radialGradient cx="0" cy="0" gradientTransform="matrix(2.0E-4, 0.0, 0.0, 2.0E-4, 8.85, 3.65)" gradientUnits="userSpaceOnUse" id="gradient0" r="819.2" spreadMethod="pad">
      <stop offset="0.3686274509803922" stop-color="#aeb8bf"/>
      <stop offset="0.41568627450980394" stop-color="#000000"/>
      <stop offset="1.0" stop-color="#c9dce0"/>
    </radialGradient>
    <radialGradient cx="0" cy="0" gradientTransform="matrix(0.0204, 0.0, 0.0, 0.0204, -0.05, -0.35)" gradientUnits="userSpaceOnUse" id="gradient1" r="819.2" spreadMethod="pad">
      <stop offset="0.3686274509803922" stop-color="#aeb8bf"/>
      <stop offset="0.41568627450980394" stop-color="#000000"/>
      <stop offset="1.0" stop-color="#c9dce0"/>
    </radialGradient>
    <g id="sprite0" transform="matrix(1.0, 0.0, 0.0, 1.0, 0.0, 0.0)">
      <use ffdec:characterId="2919" height="37.8" transform="matrix(1.0, 0.0, 0.0, 1.0, 0.0, 0.0)" width="28.6" xlink:href="#shape2"/>
    </g>
    <g id="shape2" transform="matrix(1.0, 0.0, 0.0, 1.0, 0.0, 0.0)">
      <path d="M2.85 0.0 L3.3 0.4 2.8 0.55 2.7 0.0 2.85 0.0 M0.3 2.8 L0.5 2.95 0.45 3.05 0.3 2.8 M0.1 29.55 L0.0 30.4 0.0 29.65 0.1 29.55 M0.1 29.05 L0.0 29.1 0.0 29.05 0.1 29.05 M0.05 0.85 L0.0 0.9 0.0 0.0 0.45 0.0 0.05 0.85 M1.1 36.6 L1.1 36.8 0.0 36.8 0.0 36.4 1.1 36.6" fill="url(#gradient2)" fill-rule="evenodd" stroke="none"/>
      <path d="M1.1 36.8 L1.1 36.6 1.1 0.85 28.1 0.85 28.1 37.3 1.1 37.3 1.1 36.8" fill="url(#gradient3)" fill-rule="evenodd" stroke="none"/>
      <path d="M1.1 36.8 L1.1 36.6 1.1 0.85 28.1 0.85 28.1 37.3 1.1 37.3 1.1 36.8 Z" fill="none" stroke="#756c4f" stroke-linecap="round" stroke-linejoin="round" stroke-width="1.0"/>
    </g>
    <radialGradient cx="0" cy="0" gradientTransform="matrix(0.018, 0.0, 0.0, 0.0279, 13.25, 19.2)" gradientUnits="userSpaceOnUse" id="gradient2" r="819.2" spreadMethod="pad">
      <stop offset="0.16470588235294117" stop-color="#eccd57"/>
      <stop offset="0.8470588235294118" stop-color="#5f8a53"/>
    </radialGradient>
    <radialGradient cx="0" cy="0" gradientTransform="matrix(0.0271, 0.0, 0.0, 0.0553, 13.75, 6.05)" gradientUnits="userSpaceOnUse" id="gradient3" r="819.2" spreadMethod="pad">
      <stop offset="0.17647058823529413" stop-color="#ffffff"/>
      <stop offset="0.49411764705882355" stop-color="#d0c773"/>
      <stop offset="0.8470588235294118" stop-color="#5f8a53"/>
    </radialGradient>
    <g id="sprite1" transform="matrix(1.0, 0.0, 0.0, 1.0, 0.0, 0.0)">
      <use ffdec:characterId="2905" height="37.3" transform="matrix(1.0, 0.0, 0.0, 1.0, 0.0, 0.0)" width="28.1" xlink:href="#shape3"/>
    </g>
    <g id="shape3" transform="matrix(1.0, 0.0, 0.0, 1.0, 0.0, 0.0)">
      <path d="M2.85 0.0 L3.3 0.4 2.8 0.55 2.7 0.0 2.85 0.0 M0.05 0.85 L0.0 0.9 0.0 0.0 0.45 0.0 0.05 0.85 M0.3 2.8 L0.5 2.95 0.45 3.05 0.3 2.8 M1.1 36.8 L0.0 36.8 0.0 36.4 1.1 36.6 1.1 36.8 M0.1 29.05 L0.0 29.1 0.0 29.05 0.1 29.05 M0.1 29.55 L0.0 30.4 0.0 29.65 0.1 29.55" fill="url(#gradient4)" fill-rule="evenodd" stroke="none"/>
      <path d="M1.1 36.8 L1.1 36.6 1.1 0.85 28.1 0.85 28.1 37.3 1.1 37.3 1.1 36.8" fill="url(#gradient5)" fill-rule="evenodd" stroke="none"/>
    </g>
    <radialGradient cx="0" cy="0" gradientTransform="matrix(0.018, 0.0, 0.0, 0.0279, 13.25, 19.2)" gradientUnits="userSpaceOnUse" id="gradient4" r="819.2" spreadMethod="pad">
      <stop offset="0.16470588235294117" stop-color="#eccd57"/>
      <stop offset="0.8470588235294118" stop-color="#5f8a53"/>
    </radialGradient>
    <linearGradient gradientTransform="matrix(0.0078, 0.0013, -0.0037, 0.0219, 15.6, 21.8)" gradientUnits="userSpaceOnUse" id="gradient5" spreadMethod="pad" x1="-819.2" x2="819.2">
      <stop offset="0.0" stop-color="#f4e13e" stop-opacity="0.0"/>
      <stop offset="1.0" stop-color="#abd20b"/>
    </linearGradient>
    <g id="shape4" transform="matrix(1.0, 0.0, 0.0, 1.0, 13.9, 19.1)">
      <path d="M13.25 17.9 L-13.4 17.9 -13.4 -18.6 13.25 -18.6 13.25 17.9 Z" fill="none" stroke="#000000" stroke-linecap="round" stroke-linejoin="round" stroke-width="1.0"/>
    </g>
  </defs>
</svg>
