<?xml version="1.0" encoding="UTF-8" standalone="no"?>
<svg xmlns:ffdec="https://www.free-decompiler.com/flash" xmlns:xlink="http://www.w3.org/1999/xlink" ffdec:objectType="frame" height="104.5px" width="114.7px" xmlns="http://www.w3.org/2000/svg">
  <g transform="matrix(2.0, 0.0, 0.0, 2.0, 45.4, 50.5)">
    <clipPath id="clipPath0" transform="matrix(1.0, 0.0, 0.0, 1.0, 0.0, 0.0)">
      <path d="M13.15 18.4 L-13.15 18.4 -13.15 -18.6 13.15 -18.6 13.15 18.4" fill="#333333" fill-rule="evenodd" stroke="none"/>
    </clipPath>
    <g clip-path="url(#clipPath0)">
      <use ffdec:characterId="2954" height="36.85" transform="matrix(1.0, 0.0, 0.0, 1.0, -13.45, -18.65)" width="27.15" xlink:href="#shape1"/>
      <use ffdec:characterId="2901" height="6.7" transform="matrix(8.174, 0.0, 0.0, 0.7266, -16.954, -4.655)" width="4.65" xlink:href="#sprite0"/>
      <use ffdec:characterId="2901" height="6.7" transform="matrix(8.174, 0.0, 0.0, 2.6866, -16.054, -11.2851)" width="4.65" xlink:href="#sprite0"/>
      <use ffdec:characterId="2901" height="6.7" transform="matrix(2.5958, 0.0, 0.0, 1.8846, -6.702, -8.6865)" width="4.65" xlink:href="#sprite0"/>
      <use ffdec:characterId="2901" height="6.7" transform="matrix(2.5958, 0.0, 0.0, 1.8846, -6.702, -8.6865)" width="4.65" xlink:href="#sprite0"/>
      <use ffdec:characterId="2920" height="37.8" style="mix-blend-mode: multiply" transform="matrix(1.0, 0.0, 0.0, 1.0, -14.75, -19.3)" width="28.6" xlink:href="#sprite1"/>
      <use ffdec:characterId="2906" height="37.3" style="mix-blend-mode: overlay" transform="matrix(1.0, 0.0, 0.0, 1.0, -14.75, -19.3)" width="28.1" xlink:href="#sprite2"/>
      <use ffdec:characterId="2953" height="37.3" style="mix-blend-mode: overlay" transform="matrix(1.0, 0.0, 0.0, 1.0, -14.75, -19.3)" width="28.1" xlink:href="#sprite3"/>
      <use ffdec:characterId="2951" height="3.05" transform="matrix(1.0, 0.0, 0.0, 1.0, -4.0, -3.8)" width="5.95" xlink:href="#shape6"/>
    </g>
    <use ffdec:characterId="2897" height="37.5" transform="matrix(1.0, 0.0, 0.0, 1.0, -13.9, -19.1)" width="27.65" xlink:href="#shape7"/>
  </g>
  <defs>
    <g id="shape1" transform="matrix(1.0, 0.0, 0.0, 1.0, 13.45, 18.65)">
      <path d="M13.15 -18.65 L13.15 18.15 -13.45 18.15 -13.45 -18.65 13.15 -18.65" fill="#000000" fill-rule="evenodd" stroke="none"/>
      <path d="M12.3 -18.65 L13.5 -18.3 13.5 -0.3 Q12.35 -3.6 10.6 -6.45 L8.3 -10.35 8.25 -10.4 8.2 -10.3 13.5 2.15 13.3 17.0 13.5 17.95 13.0 18.1 12.15 18.2 10.9 18.0 8.85 17.95 8.4 17.55 8.25 17.35 Q7.5 16.55 7.95 15.35 10.05 14.45 11.4 12.85 12.3 11.85 12.25 10.45 L12.25 10.4 12.2 10.45 11.05 11.75 11.5 10.2 12.0 6.15 Q12.2 3.8 11.2 1.45 10.1 -1.2 8.4 -3.85 L4.7 -9.65 Q2.45 -13.35 -0.45 -16.15 L0.55 -15.75 Q2.2 -15.0 3.35 -13.65 L2.85 -15.05 3.05 -15.1 6.7 -11.95 6.85 -12.0 6.65 -12.25 6.15 -12.75 3.5 -15.6 2.9 -16.65 3.0 -16.8 4.1 -16.65 7.9 -14.8 Q4.3 -17.85 -0.25 -18.1 -1.25 -17.6 -2.3 -17.4 -6.0 -16.15 -8.65 -13.4 -10.95 -11.05 -11.6 -7.95 L-11.1 -7.75 -10.05 -9.7 Q-8.25 -13.55 -4.3 -14.85 L-5.85 -13.35 -4.55 -13.35 -4.1 -13.85 -3.7 -14.15 -3.35 -14.3 -3.1 -14.35 -2.9 -14.3 Q-2.85 -13.85 -3.15 -13.6 L-3.95 -12.75 -8.25 -6.35 -10.85 -1.95 Q-12.5 1.15 -12.5 4.55 L-12.5 5.0 -12.35 4.5 -11.05 1.25 -11.4 2.55 -12.0 4.9 Q-12.65 7.15 -12.15 9.4 L-11.3 11.6 Q-9.45 14.9 -6.5 17.1 L-6.75 17.8 -7.5 18.0 Q-10.55 18.35 -13.3 17.25 L-13.4 16.95 -13.4 16.2 Q-12.6 12.25 -13.35 8.35 L-13.45 6.9 -13.45 -18.65 12.3 -18.65 M6.15 -9.2 L5.3 -10.15 8.05 -6.15 6.15 -9.2 M6.8 15.5 L6.55 15.7 6.55 15.8 6.65 15.8 3.5 17.55 4.75 17.5 2.4 17.8 1.1 17.95 Q-0.85 18.45 -2.35 17.05 L-1.6 16.55 -3.8 15.6 -3.95 15.85 -4.1 15.95 -5.35 15.85 -6.0 13.55 Q-6.9 11.05 -7.1 8.55 L-7.3 7.75 -7.65 6.45 Q-7.9 5.3 -7.25 4.7 L-7.0 4.85 -6.35 4.7 -6.2 4.45 -5.75 5.25 -5.3 6.3 -5.1 6.55 -4.95 6.45 -5.05 6.3 -3.3 2.8 -2.25 3.9 Q-2.15 4.65 -2.2 5.7 L-1.95 6.65 Q-1.45 7.3 -0.5 7.1 0.0 6.65 -0.1 6.15 L-0.3 5.25 -0.05 4.8 -0.05 3.1 0.7 2.9 1.25 3.0 2.65 4.35 4.25 7.55 3.6 6.6 4.7 9.65 4.6 8.3 5.05 7.05 4.6 6.05 4.75 5.65 5.3 5.65 4.9 5.3 5.2 4.8 5.65 4.85 7.45 8.2 6.55 9.15 6.5 12.1 7.05 12.45 6.6 13.2 6.7 13.7 4.15 15.3 6.15 14.9 Q5.8 15.25 6.1 15.2 6.75 14.9 6.8 15.5 M-7.25 -0.05 L2.1 -0.3 2.4 -0.25 Q3.5 -0.2 3.35 0.7 L1.25 1.3 3.5 0.9 5.95 0.3 6.6 0.5 6.45 1.15 Q7.3 1.15 7.45 1.9 L8.7 1.5 Q9.15 3.1 8.1 4.75 L7.85 4.85 7.2 4.0 6.55 2.25 6.35 1.25 5.65 1.6 Q5.05 1.75 4.65 2.05 L4.8 2.3 5.3 3.05 Q6.55 2.6 6.35 3.2 5.9 3.95 5.1 3.9 3.0 3.9 1.5 2.5 L1.5 2.6 -0.25 2.65 -0.2 2.55 -0.8 2.55 -0.7 2.65 -3.55 2.65 -3.6 2.7 -4.4 3.3 -6.25 3.55 -6.35 3.75 -6.95 3.2 -7.05 2.6 -5.75 2.65 -5.45 2.4 -7.0 1.9 -7.6 1.65 -8.0 1.45 -9.1 0.55 -7.3 0.0 -7.25 -0.05 M2.9 2.25 L3.6 2.65 4.0 2.8 3.75 2.35 4.1 2.8 4.75 3.0 4.45 2.15 2.9 2.25 M1.1 5.85 L0.6 5.75 0.6 5.95 0.5 6.7 -0.05 7.9 Q-0.25 8.35 -0.75 8.45 L-1.1 8.4 Q-1.85 8.05 -2.35 7.0 L-2.9 5.9 -3.75 6.2 -4.3 6.7 -4.25 7.0 -4.2 7.4 -3.9 8.65 -3.55 9.5 -3.55 10.5 -3.0 11.0 -1.85 10.55 -2.45 9.2 0.65 9.3 -0.85 10.8 -0.75 11.35 0.55 10.55 1.35 10.85 1.6 9.55 3.15 9.95 2.95 9.45 Q2.35 7.4 1.1 5.85 M3.45 8.7 L2.9 8.55 3.7 12.25 Q4.5 10.8 3.7 9.15 L3.45 8.7 M5.15 7.2 L5.7 8.5 5.45 7.8 5.15 7.2 M2.3 12.15 L2.3 12.0 1.5 12.05 2.3 12.15 M2.2 12.85 L2.2 12.7 2.0 12.75 -0.75 13.6 Q-2.35 14.05 -3.4 13.15 L-3.4 12.4 -4.0 12.45 -4.05 12.35 -4.2 12.35 -4.2 12.5 -3.9 13.85 -3.35 13.9 0.7 14.0 1.2 14.85 1.95 14.8 2.1 13.4 2.25 13.05 2.2 12.85 M-9.75 -0.25 L-9.7 -0.45 -9.35 0.5 Q-9.15 1.4 -9.5 2.25 L-9.85 4.0 Q-9.85 7.75 -8.15 11.2 -7.45 12.65 -6.9 14.15 L-6.95 14.5 -8.9 13.5 -11.55 9.5 -9.75 -0.25 M-2.0 3.45 L-1.8 3.45 -1.9 3.65 -2.0 3.45 M-5.3 2.6 Q-4.6 2.7 -5.1 2.6 L-5.3 2.6 M-6.95 3.35 L-6.9 3.4 -7.25 3.15 -6.95 3.35 M-10.7 16.15 L-9.25 17.05 Q-8.15 17.7 -6.8 17.75 L-6.9 17.6 -12.4 14.7 Q-11.95 15.45 -10.7 16.15 M-3.55 15.05 L-3.05 15.15 -3.8 14.35 -3.55 15.05" fill="#000000" fill-rule="evenodd" stroke="none"/>
      <path d="M13.5 -18.3 L12.3 -18.65 13.45 -18.45 13.5 -18.3 M-12.35 4.5 L-12.5 5.0 -12.5 4.55 -12.35 4.5 M8.4 17.55 L8.85 17.95 8.0 18.05 8.4 17.55 M6.15 -9.2 L8.05 -6.15 5.3 -10.15 6.15 -9.2 M11.0 11.75 L11.05 11.75 11.0 11.75 M-7.25 -0.05 L-7.3 0.0 -7.35 -0.05 -7.25 -0.05" fill="#ffffff" fill-rule="evenodd" stroke="none"/>
      <path d="M12.2 10.45 L12.25 10.4 12.25 10.45 12.2 10.45 M8.2 -10.3 L8.25 -10.4 8.3 -10.35 8.2 -10.3 M6.55 15.7 L6.65 15.8 6.55 15.8 6.55 15.7 M-8.0 1.45 L-7.6 1.65 -7.25 3.15 -6.9 3.4 -6.95 3.35 -6.95 3.2 -6.35 3.75 -6.25 3.55 -4.4 3.3 -5.25 3.95 -5.75 5.25 -6.2 4.45 -6.35 4.7 -7.0 4.85 -7.25 4.7 -7.55 4.4 Q-8.5 3.25 -8.3 1.95 L-8.0 1.45 M-7.0 1.9 L-5.45 2.4 -5.75 2.65 -7.05 2.6 -7.0 1.9 M-3.55 2.65 L-0.7 2.65 -0.5 2.85 -0.25 2.65 1.5 2.6 1.5 2.5 Q3.0 3.9 5.1 3.9 5.9 3.95 6.35 3.2 6.55 2.6 5.3 3.05 L4.8 2.3 6.55 2.25 7.2 4.0 6.35 4.45 6.1 4.4 Q5.35 4.0 5.65 4.85 L5.2 4.8 4.9 5.3 5.3 5.65 4.75 5.65 2.65 4.35 1.25 3.0 1.2 2.8 1.4 2.65 0.7 2.9 -0.05 3.1 -0.05 4.8 -0.3 5.25 -0.1 6.15 Q0.0 6.65 -0.5 7.1 -1.45 7.3 -1.95 6.65 L-2.2 5.7 Q-2.15 4.65 -2.25 3.9 L-3.3 2.8 -3.55 2.65 M3.6 2.65 L3.6 2.4 3.75 2.35 2.9 2.25 4.45 2.15 4.75 3.0 4.1 2.8 3.75 2.35 4.0 2.8 3.6 2.65 M0.5 6.7 L0.6 5.95 0.6 5.75 1.1 5.85 0.5 6.7 M1.6 9.55 L1.35 10.85 0.55 10.55 -0.75 11.35 -0.85 10.8 0.65 9.3 0.85 8.5 1.15 8.25 1.45 8.4 1.65 9.0 1.6 9.55 M-2.45 9.2 L-1.85 10.55 -3.0 11.0 -3.55 10.5 -3.55 9.5 -3.1 9.05 -2.65 9.05 -2.45 9.2 M-3.75 6.2 L-2.9 5.9 -2.35 7.0 -3.75 6.2 M4.6 8.3 L4.7 9.65 3.6 6.6 4.25 7.55 4.6 8.3 M4.9 5.3 L4.75 4.9 4.3 4.7 4.9 5.3 M3.45 8.7 L3.7 9.15 Q4.5 10.8 3.7 12.25 L2.9 8.55 3.45 8.7 M2.2 12.85 L2.25 13.05 2.1 13.4 0.7 14.0 -3.35 13.9 -4.0 12.45 -3.4 12.4 -3.4 13.15 Q-2.35 14.05 -0.75 13.6 L2.0 12.75 2.2 12.85 M-5.3 2.6 L-5.1 2.6 Q-4.6 2.7 -5.3 2.6 M-2.0 3.45 L-1.9 3.65 -1.8 3.45 -2.0 3.45" fill="#e8ca86" fill-rule="evenodd" stroke="none"/>
      <path d="M-6.5 17.1 Q-9.45 14.9 -11.3 11.6 L-12.15 9.4 Q-12.65 7.15 -12.0 4.9 L-11.4 2.55 -11.05 1.25 -12.35 4.5 -12.5 4.55 Q-12.5 1.15 -10.85 -1.95 L-8.25 -6.35 -3.95 -12.75 -3.15 -13.6 Q-2.85 -13.85 -2.9 -14.3 L-3.1 -14.35 -3.35 -14.3 -3.7 -14.15 -4.1 -13.85 -4.55 -13.35 -5.85 -13.35 -4.3 -14.85 Q-8.25 -13.55 -10.05 -9.7 L-11.1 -7.75 -11.6 -7.95 Q-10.95 -11.05 -8.65 -13.4 -6.0 -16.15 -2.3 -17.4 -1.25 -17.6 -0.25 -18.1 4.3 -17.85 7.9 -14.8 L4.1 -16.65 3.0 -16.8 2.9 -16.65 3.5 -15.6 6.15 -12.75 6.65 -12.25 6.85 -12.0 6.7 -11.95 3.05 -15.1 2.85 -15.05 3.35 -13.65 Q2.2 -15.0 0.55 -15.75 L-0.45 -16.15 Q2.45 -13.35 4.7 -9.65 L8.4 -3.85 Q10.1 -1.2 11.2 1.45 12.2 3.8 12.0 6.15 L11.5 10.2 11.05 11.75 12.2 10.45 12.25 10.45 Q12.3 11.85 11.4 12.85 10.05 14.45 7.95 15.35 L6.65 15.8 6.55 15.7 6.8 15.5 11.0 11.75 11.2 10.45 Q11.55 8.55 11.15 6.5 L10.4 3.85 Q9.15 0.0 7.05 -3.35 L4.4 -7.55 1.65 -11.65 -1.3 -15.7 -4.1 -11.4 -7.35 -5.75 -9.75 -0.25 -11.55 9.5 -8.9 13.5 -6.45 16.5 -6.5 17.1 M13.5 2.15 L8.2 -10.3 8.3 -10.35 10.6 -6.45 Q12.35 -3.6 13.5 -0.3 L13.7 2.65 13.5 2.15 M11.0 11.75 L11.05 11.75 11.0 11.75 M6.7 13.7 L10.0 9.65 Q9.55 11.65 8.15 12.95 L6.15 14.9 4.15 15.3 6.7 13.7 M-10.7 16.15 Q-11.95 15.45 -12.4 14.7 L-6.9 17.6 -6.8 17.75 Q-8.15 17.7 -9.25 17.05 L-10.7 16.15" fill="#557780" fill-rule="evenodd" stroke="none"/>
    </g>
    <g id="sprite0" transform="matrix(1.0, 0.0, 0.0, 1.0, -2.85, -0.75)">
      <use ffdec:characterId="2900" height="6.7" transform="matrix(1.0, 0.0, 0.0, 1.0, 2.85, 0.75)" width="4.65" xlink:href="#shape2"/>
    </g>
    <g id="shape2" transform="matrix(1.0, 0.0, 0.0, 1.0, -2.85, -0.75)">
      <path d="M6.8 6.45 Q6.15 7.45 5.15 7.45 4.2 7.45 3.5 6.45 2.85 5.5 2.85 4.1 2.85 2.7 3.5 1.7 4.2 0.75 5.15 0.75 6.15 0.75 6.8 1.7 7.5 2.7 7.5 4.1 7.5 5.5 6.8 6.45" fill="url(#gradient0)" fill-rule="evenodd" stroke="none"/>
    </g>
    <radialGradient cx="0" cy="0" gradientTransform="matrix(0.0046, 0.0, 0.0, 0.0046, 4.85, 4.15)" gradientUnits="userSpaceOnUse" id="gradient0" r="819.2" spreadMethod="pad">
      <stop offset="0.0" stop-color="#00ffff"/>
      <stop offset="0.615686274509804" stop-color="#00ffff" stop-opacity="0.0"/>
    </radialGradient>
    <g id="sprite1" transform="matrix(1.0, 0.0, 0.0, 1.0, 0.0, 0.0)">
      <use ffdec:characterId="2919" height="37.8" transform="matrix(1.0, 0.0, 0.0, 1.0, 0.0, 0.0)" width="28.6" xlink:href="#shape3"/>
    </g>
    <g id="shape3" transform="matrix(1.0, 0.0, 0.0, 1.0, 0.0, 0.0)">
      <path d="M2.85 0.0 L3.3 0.4 2.8 0.55 2.7 0.0 2.85 0.0 M0.3 2.8 L0.5 2.95 0.45 3.05 0.3 2.8 M0.1 29.55 L0.0 30.4 0.0 29.65 0.1 29.55 M0.1 29.05 L0.0 29.1 0.0 29.05 0.1 29.05 M0.05 0.85 L0.0 0.9 0.0 0.0 0.45 0.0 0.05 0.85 M1.1 36.6 L1.1 36.8 0.0 36.8 0.0 36.4 1.1 36.6" fill="url(#gradient1)" fill-rule="evenodd" stroke="none"/>
      <path d="M1.1 36.8 L1.1 36.6 1.1 0.85 28.1 0.85 28.1 37.3 1.1 37.3 1.1 36.8" fill="url(#gradient2)" fill-rule="evenodd" stroke="none"/>
      <path d="M1.1 36.8 L1.1 36.6 1.1 0.85 28.1 0.85 28.1 37.3 1.1 37.3 1.1 36.8 Z" fill="none" stroke="#756c4f" stroke-linecap="round" stroke-linejoin="round" stroke-width="1.0"/>
    </g>
    <radialGradient cx="0" cy="0" gradientTransform="matrix(0.018, 0.0, 0.0, 0.0279, 13.25, 19.2)" gradientUnits="userSpaceOnUse" id="gradient1" r="819.2" spreadMethod="pad">
      <stop offset="0.16470588235294117" stop-color="#eccd57"/>
      <stop offset="0.8470588235294118" stop-color="#5f8a53"/>
    </radialGradient>
    <radialGradient cx="0" cy="0" gradientTransform="matrix(0.0271, 0.0, 0.0, 0.0553, 13.75, 6.05)" gradientUnits="userSpaceOnUse" id="gradient2" r="819.2" spreadMethod="pad">
      <stop offset="0.17647058823529413" stop-color="#ffffff"/>
      <stop offset="0.49411764705882355" stop-color="#d0c773"/>
      <stop offset="0.8470588235294118" stop-color="#5f8a53"/>
    </radialGradient>
    <g id="sprite2" transform="matrix(1.0, 0.0, 0.0, 1.0, 0.0, 0.0)">
      <use ffdec:characterId="2905" height="37.3" transform="matrix(1.0, 0.0, 0.0, 1.0, 0.0, 0.0)" width="28.1" xlink:href="#shape4"/>
    </g>
    <g id="shape4" transform="matrix(1.0, 0.0, 0.0, 1.0, 0.0, 0.0)">
      <path d="M2.85 0.0 L3.3 0.4 2.8 0.55 2.7 0.0 2.85 0.0 M0.05 0.85 L0.0 0.9 0.0 0.0 0.45 0.0 0.05 0.85 M0.3 2.8 L0.5 2.95 0.45 3.05 0.3 2.8 M1.1 36.8 L0.0 36.8 0.0 36.4 1.1 36.6 1.1 36.8 M0.1 29.05 L0.0 29.1 0.0 29.05 0.1 29.05 M0.1 29.55 L0.0 30.4 0.0 29.65 0.1 29.55" fill="url(#gradient3)" fill-rule="evenodd" stroke="none"/>
      <path d="M1.1 36.8 L1.1 36.6 1.1 0.85 28.1 0.85 28.1 37.3 1.1 37.3 1.1 36.8" fill="url(#gradient4)" fill-rule="evenodd" stroke="none"/>
    </g>
    <radialGradient cx="0" cy="0" gradientTransform="matrix(0.018, 0.0, 0.0, 0.0279, 13.25, 19.2)" gradientUnits="userSpaceOnUse" id="gradient3" r="819.2" spreadMethod="pad">
      <stop offset="0.16470588235294117" stop-color="#eccd57"/>
      <stop offset="0.8470588235294118" stop-color="#5f8a53"/>
    </radialGradient>
    <linearGradient gradientTransform="matrix(0.0078, 0.0013, -0.0037, 0.0219, 15.6, 21.8)" gradientUnits="userSpaceOnUse" id="gradient4" spreadMethod="pad" x1="-819.2" x2="819.2">
      <stop offset="0.0" stop-color="#f4e13e" stop-opacity="0.0"/>
      <stop offset="1.0" stop-color="#abd20b"/>
    </linearGradient>
    <g id="sprite3" transform="matrix(1.0, 0.0, 0.0, 1.0, 0.0, 0.0)">
      <use ffdec:characterId="2952" height="37.3" transform="matrix(1.0, 0.0, 0.0, 1.0, 0.0, 0.0)" width="28.1" xlink:href="#shape5"/>
    </g>
    <g id="shape5" transform="matrix(1.0, 0.0, 0.0, 1.0, 0.0, 0.0)">
      <path d="M2.85 0.0 L3.3 0.4 2.8 0.55 2.7 0.0 2.85 0.0 M0.05 0.85 L0.0 0.9 0.0 0.0 0.45 0.0 0.05 0.85 M0.3 2.8 L0.5 2.95 0.45 3.05 0.3 2.8 M1.1 36.8 L0.0 36.8 0.0 36.4 1.1 36.6 1.1 36.8 M0.1 29.05 L0.0 29.1 0.0 29.05 0.1 29.05 M0.1 29.55 L0.0 30.4 0.0 29.65 0.1 29.55" fill="url(#gradient5)" fill-rule="evenodd" stroke="none"/>
      <path d="M1.1 36.8 L1.1 36.6 1.1 0.85 28.1 0.85 28.1 37.3 1.1 37.3 1.1 36.8" fill="url(#gradient6)" fill-rule="evenodd" stroke="none"/>
    </g>
    <radialGradient cx="0" cy="0" gradientTransform="matrix(0.018, 0.0, 0.0, 0.0279, 13.25, 19.2)" gradientUnits="userSpaceOnUse" id="gradient5" r="819.2" spreadMethod="pad">
      <stop offset="0.16470588235294117" stop-color="#eccd57"/>
      <stop offset="0.8470588235294118" stop-color="#5f8a53"/>
    </radialGradient>
    <linearGradient gradientTransform="matrix(0.0016, 0.0078, -0.0218, 0.0044, 14.1, 31.8)" gradientUnits="userSpaceOnUse" id="gradient6" spreadMethod="pad" x1="-819.2" x2="819.2">
      <stop offset="0.0" stop-color="#f4e13e" stop-opacity="0.0"/>
      <stop offset="1.0" stop-color="#abd20b"/>
    </linearGradient>
    <g id="shape6" transform="matrix(1.0, 0.0, 0.0, 1.0, 4.0, 3.8)">
      <path d="M1.2 -1.05 L-0.4 -0.75 Q-2.3 -0.75 -3.3 -1.4 -4.0 -1.85 -4.0 -2.3 -4.0 -4.0 -1.0 -3.8 1.95 -3.6 1.95 -1.75 1.95 -1.35 1.2 -1.05" fill="#ffffff" fill-rule="evenodd" stroke="none"/>
    </g>
    <g id="shape7" transform="matrix(1.0, 0.0, 0.0, 1.0, 13.9, 19.1)">
      <path d="M13.25 17.9 L-13.4 17.9 -13.4 -18.6 13.25 -18.6 13.25 17.9 Z" fill="none" stroke="#000000" stroke-linecap="round" stroke-linejoin="round" stroke-width="1.0"/>
    </g>
  </defs>
</svg>
