<?xml version="1.0" encoding="UTF-8" standalone="no"?>
<svg xmlns:ffdec="https://www.free-decompiler.com/flash" xmlns:xlink="http://www.w3.org/1999/xlink" ffdec:objectType="frame" height="104.5px" width="114.7px" xmlns="http://www.w3.org/2000/svg">
  <g transform="matrix(2.0, 0.0, 0.0, 2.0, 45.4, 50.5)">
    <clipPath id="clipPath0" transform="matrix(1.0, 0.0, 0.0, 1.0, 0.0, 0.0)">
      <path d="M13.15 18.4 L-13.15 18.4 -13.15 -18.6 13.15 -18.6 13.15 18.4" fill="#333333" fill-rule="evenodd" stroke="none"/>
    </clipPath>
    <g clip-path="url(#clipPath0)">
      <use ffdec:characterId="2955" height="36.8" transform="matrix(1.0, 0.0, 0.0, 1.0, -13.45, -18.65)" width="27.15" xlink:href="#shape1"/>
      <use ffdec:characterId="2901" height="6.7" transform="matrix(8.174, 0.0, 0.0, 0.7266, -16.954, -4.655)" width="4.65" xlink:href="#sprite0"/>
      <use ffdec:characterId="2901" height="6.7" transform="matrix(8.174, 0.0, 0.0, 2.6866, -16.054, -11.2851)" width="4.65" xlink:href="#sprite0"/>
      <use ffdec:characterId="2901" height="6.7" transform="matrix(2.5958, 0.0, 0.0, 1.8846, -6.702, -8.6865)" width="4.65" xlink:href="#sprite0"/>
      <use ffdec:characterId="2901" height="6.7" transform="matrix(2.5958, 0.0, 0.0, 1.8846, -6.702, -8.6865)" width="4.65" xlink:href="#sprite0"/>
      <use ffdec:characterId="2920" height="37.8" style="mix-blend-mode: overlay" transform="matrix(1.0, 0.0, 0.0, 1.0, -14.75, -19.3)" width="28.6" xlink:href="#sprite1"/>
      <use ffdec:characterId="2906" height="37.3" style="mix-blend-mode: overlay" transform="matrix(1.0, 0.0, 0.0, 1.0, -14.75, -19.3)" width="28.1" xlink:href="#sprite2"/>
      <use ffdec:characterId="2953" height="37.3" style="mix-blend-mode: overlay" transform="matrix(1.0, 0.0, 0.0, 1.0, -14.75, -19.3)" width="28.1" xlink:href="#sprite3"/>
      <use ffdec:characterId="2951" height="3.05" transform="matrix(1.0, 0.0, 0.0, 1.0, -4.0, -3.8)" width="5.95" xlink:href="#shape6"/>
    </g>
    <use ffdec:characterId="2897" height="37.5" transform="matrix(1.0, 0.0, 0.0, 1.0, -13.9, -19.1)" width="27.65" xlink:href="#shape7"/>
  </g>
  <defs>
    <g id="shape1" transform="matrix(1.0, 0.0, 0.0, 1.0, 13.45, 18.65)">
      <path d="M13.15 18.15 L-13.45 18.15 -13.45 -18.65 13.15 -18.65 13.15 18.15" fill="#000000" fill-rule="evenodd" stroke="none"/>
      <path d="M-6.5 17.1 L-6.75 17.8 -8.35 18.1 -10.05 18.1 -11.65 17.85 -13.3 17.25 -13.4 15.7 -13.35 14.25 -13.2 12.3 -13.2 10.35 -13.45 6.9 -13.45 -18.65 12.3 -18.65 13.5 -18.3 13.5 -0.3 12.5 -2.7 Q10.6 -6.5 8.3 -10.35 L8.25 -10.4 8.2 -10.3 13.5 2.15 13.5 17.95 12.15 18.05 8.85 17.95 8.4 17.55 7.95 16.8 Q7.7 16.2 7.95 15.35 L9.25 14.75 Q11.85 13.35 12.25 10.45 L12.25 10.4 12.2 10.45 11.05 11.75 Q13.55 4.95 10.05 -1.25 5.5 -9.3 -0.45 -16.15 L0.85 -15.55 3.35 -13.65 2.85 -15.05 5.75 -13.05 3.6 -15.65 2.95 -16.7 7.9 -14.8 Q4.2 -17.35 -0.25 -18.1 L-3.0 -17.05 Q-9.45 -14.45 -11.6 -7.95 L-11.1 -7.75 Q-9.05 -12.65 -4.3 -14.85 L-5.85 -13.35 -4.55 -13.35 -3.7 -14.15 -3.35 -14.3 -3.1 -14.35 -2.9 -13.85 -7.65 -7.85 Q-11.7 -2.15 -12.5 4.55 L-12.5 5.0 -12.35 4.5 -11.05 1.25 -11.8 4.95 Q-12.9 12.45 -6.5 17.1 M6.1 4.35 L6.8 3.6 6.9 3.9 6.15 6.05 Q5.35 8.35 5.1 10.05 L4.95 10.1 Q4.8 9.5 4.8 8.1 L4.8 7.95 5.0 5.8 Q5.25 5.2 6.1 4.35 M5.45 4.5 Q4.95 4.5 5.45 4.2 L5.45 4.5 M1.05 5.85 L1.05 5.9 0.8 7.05 0.6 7.2 0.35 6.65 0.2 6.15 0.45 4.95 1.05 5.05 1.05 5.55 1.05 5.85 M3.65 8.5 Q4.65 10.75 4.65 12.15 L4.1 12.8 Q3.7 12.25 3.15 10.45 2.6 8.8 2.6 8.4 2.6 6.25 3.65 8.5 M0.8 7.85 L0.15 8.75 Q-0.5 9.3 -1.0 9.3 -1.4 9.3 -2.05 8.55 L-2.45 8.0 -2.7 7.5 -2.9 7.2 -3.0 6.8 -3.0 6.75 -3.45 6.9 -3.65 6.35 -3.65 6.3 -3.7 6.2 -3.75 5.9 -3.9 6.3 -4.2 5.6 Q-4.2 3.35 -2.25 6.35 L-2.25 7.25 -2.1 7.4 -1.85 7.65 -1.8 7.35 -1.6 7.2 -1.25 7.4 -1.05 7.7 -0.5 7.3 0.2 6.9 0.8 7.85 M-0.25 12.75 L-1.65 12.15 -1.65 12.0 -1.35 11.9 0.35 12.3 0.85 12.2 1.35 12.2 1.4 11.95 1.4 11.6 2.75 11.8 Q3.45 12.1 3.45 12.45 L3.45 13.25 2.3 13.55 1.85 13.4 -0.25 12.75 M-5.0 10.7 L-4.95 11.55 -5.0 12.75 -5.25 12.9 -7.0 8.6 Q-8.4 4.9 -8.4 4.2 -8.4 3.75 -8.0 3.75 L-8.1 4.05 Q-8.1 4.45 -7.1 6.05 L-6.5 7.0 Q-5.25 8.95 -5.0 10.7 M-8.05 17.65 L-6.9 17.6 -12.4 14.7 Q-10.8 16.35 -8.6 17.3 L-8.05 17.65" fill="#000000" fill-rule="evenodd" stroke="none"/>
      <path d="M-12.35 4.5 L-12.5 5.0 -12.5 4.55 -12.35 4.5 M8.4 17.55 L8.85 17.95 8.0 18.05 8.4 17.55 M11.05 11.75 L11.0 11.75 11.05 11.75 M-7.35 -0.05 L-7.25 -0.05 -7.3 0.0 -7.35 -0.05" fill="#ffffff" fill-rule="evenodd" stroke="none"/>
      <path d="M12.2 10.45 L12.25 10.4 12.25 10.45 12.2 10.45 M8.2 -10.3 L8.25 -10.4 8.3 -10.35 8.2 -10.3 M7.2 4.0 L7.15 4.0 7.15 3.95 7.2 4.0 M4.8 8.1 L4.4 8.85 3.6 6.6 4.0 7.2 3.3 4.8 2.65 4.35 1.2 2.9 1.25 2.8 Q2.9 3.7 5.5 3.7 L6.15 3.85 6.1 4.35 Q5.25 5.2 5.0 5.8 L4.8 7.95 4.8 8.1 M5.45 4.5 L5.45 4.2 Q4.95 4.5 5.45 4.5 M1.05 5.9 L1.05 5.85 1.1 5.85 1.05 5.9 M-2.45 8.0 L-2.05 8.55 Q-1.4 9.3 -1.0 9.3 -0.5 9.3 0.15 8.75 L0.8 7.85 1.1 7.8 1.85 10.0 Q-0.25 8.85 -0.8 9.5 L-1.55 9.25 Q-1.55 9.1 -2.15 9.45 L-3.4 10.3 -3.6 9.9 -2.5 8.0 -2.45 8.0 M-3.7 6.2 L-3.65 6.3 -3.75 6.2 -3.7 6.2 M0.15 10.25 L1.1 10.65 1.85 10.7 0.65 11.25 -3.3 10.7 0.15 10.25 M1.85 13.4 L0.85 14.2 -1.85 14.2 -2.25 13.3 -0.25 12.75 1.85 13.4 M-7.1 6.05 L-7.4 4.85 -7.45 4.5 -5.9 3.6 -5.3 3.6 -4.4 3.3 -4.75 3.55 -5.5 5.85 -5.75 6.35 -5.15 8.55 -4.5 7.45 -4.55 9.3 Q-4.45 10.3 -4.5 11.4 L-5.0 10.7 Q-5.25 8.95 -6.5 7.0 L-7.1 6.05 M-1.4 3.25 L-1.1 2.65 Q-0.2 4.15 -0.2 6.0 L-0.25 6.9 -1.65 6.95 -1.9 6.75 -2.05 6.45 -2.2 5.7 -1.4 3.25 M-6.95 2.0 L-7.0 2.1 -7.0 1.9 -6.95 2.0" fill="#e8ca86" fill-rule="evenodd" stroke="none"/>
      <path d="M-6.5 17.1 Q-12.9 12.45 -11.8 4.95 L-11.05 1.25 -12.35 4.5 -12.5 4.55 Q-11.7 -2.15 -7.65 -7.85 L-2.9 -13.85 -3.1 -14.35 -3.35 -14.3 -3.7 -14.15 -4.55 -13.35 -5.85 -13.35 -4.3 -14.85 Q-9.05 -12.65 -11.1 -7.75 L-11.6 -7.95 Q-9.45 -14.45 -3.0 -17.05 L-0.25 -18.1 Q4.2 -17.35 7.9 -14.8 L2.95 -16.7 3.6 -15.65 5.75 -13.05 2.85 -15.05 3.35 -13.65 0.85 -15.55 -0.45 -16.15 Q5.5 -9.3 10.05 -1.25 13.55 4.95 11.05 11.75 L12.2 10.45 12.25 10.45 Q11.85 13.35 9.25 14.75 L7.95 15.35 6.65 15.8 6.6 15.7 6.8 15.5 11.0 11.75 11.05 11.75 11.0 11.75 Q11.95 8.0 10.55 4.25 8.7 -0.85 5.75 -5.45 L-1.3 -15.7 -2.85 -13.2 Q-6.8 -7.05 -9.75 -0.25 L-11.55 9.5 -6.45 16.5 -6.5 17.1 M13.5 2.15 L8.2 -10.3 8.3 -10.35 Q10.6 -6.5 12.5 -2.7 L13.5 -0.3 13.7 2.65 13.5 2.15 M10.0 9.65 L9.55 10.55 Q8.4 13.0 6.15 14.9 L4.15 15.3 6.7 13.7 10.0 9.65 M-8.05 17.65 L-8.6 17.3 Q-10.8 16.35 -12.4 14.7 L-6.9 17.6 -8.05 17.65" fill="#557780" fill-rule="evenodd" stroke="none"/>
    </g>
    <g id="sprite0" transform="matrix(1.0, 0.0, 0.0, 1.0, -2.85, -0.75)">
      <use ffdec:characterId="2900" height="6.7" transform="matrix(1.0, 0.0, 0.0, 1.0, 2.85, 0.75)" width="4.65" xlink:href="#shape2"/>
    </g>
    <g id="shape2" transform="matrix(1.0, 0.0, 0.0, 1.0, -2.85, -0.75)">
      <path d="M6.8 6.45 Q6.15 7.45 5.15 7.45 4.2 7.45 3.5 6.45 2.85 5.5 2.85 4.1 2.85 2.7 3.5 1.7 4.2 0.75 5.15 0.75 6.15 0.75 6.8 1.7 7.5 2.7 7.5 4.1 7.5 5.5 6.8 6.45" fill="url(#gradient0)" fill-rule="evenodd" stroke="none"/>
    </g>
    <radialGradient cx="0" cy="0" gradientTransform="matrix(0.0046, 0.0, 0.0, 0.0046, 4.85, 4.15)" gradientUnits="userSpaceOnUse" id="gradient0" r="819.2" spreadMethod="pad">
      <stop offset="0.0" stop-color="#ffcc00"/>
      <stop offset="0.615686274509804" stop-color="#ffcc00" stop-opacity="0.0"/>
    </radialGradient>
    <g id="sprite1" transform="matrix(1.0, 0.0, 0.0, 1.0, 0.0, 0.0)">
      <use ffdec:characterId="2919" height="37.8" transform="matrix(1.0, 0.0, 0.0, 1.0, 0.0, 0.0)" width="28.6" xlink:href="#shape3"/>
    </g>
    <g id="shape3" transform="matrix(1.0, 0.0, 0.0, 1.0, 0.0, 0.0)">
      <path d="M2.85 0.0 L3.3 0.4 2.8 0.55 2.7 0.0 2.85 0.0 M0.3 2.8 L0.5 2.95 0.45 3.05 0.3 2.8 M0.1 29.55 L0.0 30.4 0.0 29.65 0.1 29.55 M0.1 29.05 L0.0 29.1 0.0 29.05 0.1 29.05 M0.05 0.85 L0.0 0.9 0.0 0.0 0.45 0.0 0.05 0.85 M1.1 36.6 L1.1 36.8 0.0 36.8 0.0 36.4 1.1 36.6" fill="url(#gradient1)" fill-rule="evenodd" stroke="none"/>
      <path d="M1.1 36.8 L1.1 36.6 1.1 0.85 28.1 0.85 28.1 37.3 1.1 37.3 1.1 36.8" fill="url(#gradient2)" fill-rule="evenodd" stroke="none"/>
      <path d="M1.1 36.8 L1.1 36.6 1.1 0.85 28.1 0.85 28.1 37.3 1.1 37.3 1.1 36.8 Z" fill="none" stroke="#756c4f" stroke-linecap="round" stroke-linejoin="round" stroke-width="1.0"/>
    </g>
    <radialGradient cx="0" cy="0" gradientTransform="matrix(0.018, 0.0, 0.0, 0.0279, 13.25, 19.2)" gradientUnits="userSpaceOnUse" id="gradient1" r="819.2" spreadMethod="pad">
      <stop offset="0.16470588235294117" stop-color="#eccd57"/>
      <stop offset="0.8470588235294118" stop-color="#5f8a53"/>
    </radialGradient>
    <radialGradient cx="0" cy="0" gradientTransform="matrix(0.0271, 0.0, 0.0, 0.0553, 13.75, 6.05)" gradientUnits="userSpaceOnUse" id="gradient2" r="819.2" spreadMethod="pad">
      <stop offset="0.17647058823529413" stop-color="#ffffff"/>
      <stop offset="0.49411764705882355" stop-color="#d0c773"/>
      <stop offset="0.8470588235294118" stop-color="#5f8a53"/>
    </radialGradient>
    <g id="sprite2" transform="matrix(1.0, 0.0, 0.0, 1.0, 0.0, 0.0)">
      <use ffdec:characterId="2905" height="37.3" transform="matrix(1.0, 0.0, 0.0, 1.0, 0.0, 0.0)" width="28.1" xlink:href="#shape4"/>
    </g>
    <g id="shape4" transform="matrix(1.0, 0.0, 0.0, 1.0, 0.0, 0.0)">
      <path d="M2.85 0.0 L3.3 0.4 2.8 0.55 2.7 0.0 2.85 0.0 M0.05 0.85 L0.0 0.9 0.0 0.0 0.45 0.0 0.05 0.85 M0.3 2.8 L0.5 2.95 0.45 3.05 0.3 2.8 M1.1 36.8 L0.0 36.8 0.0 36.4 1.1 36.6 1.1 36.8 M0.1 29.05 L0.0 29.1 0.0 29.05 0.1 29.05 M0.1 29.55 L0.0 30.4 0.0 29.65 0.1 29.55" fill="url(#gradient3)" fill-rule="evenodd" stroke="none"/>
      <path d="M1.1 36.8 L1.1 36.6 1.1 0.85 28.1 0.85 28.1 37.3 1.1 37.3 1.1 36.8" fill="url(#gradient4)" fill-rule="evenodd" stroke="none"/>
    </g>
    <radialGradient cx="0" cy="0" gradientTransform="matrix(0.018, 0.0, 0.0, 0.0279, 13.25, 19.2)" gradientUnits="userSpaceOnUse" id="gradient3" r="819.2" spreadMethod="pad">
      <stop offset="0.16470588235294117" stop-color="#eccd57"/>
      <stop offset="0.8470588235294118" stop-color="#5f8a53"/>
    </radialGradient>
    <linearGradient gradientTransform="matrix(0.0078, 0.0013, -0.0037, 0.0219, 15.6, 21.8)" gradientUnits="userSpaceOnUse" id="gradient4" spreadMethod="pad" x1="-819.2" x2="819.2">
      <stop offset="0.0" stop-color="#f4e13e" stop-opacity="0.0"/>
      <stop offset="1.0" stop-color="#abd20b"/>
    </linearGradient>
    <g id="sprite3" transform="matrix(1.0, 0.0, 0.0, 1.0, 0.0, 0.0)">
      <use ffdec:characterId="2952" height="37.3" transform="matrix(1.0, 0.0, 0.0, 1.0, 0.0, 0.0)" width="28.1" xlink:href="#shape5"/>
    </g>
    <g id="shape5" transform="matrix(1.0, 0.0, 0.0, 1.0, 0.0, 0.0)">
      <path d="M2.85 0.0 L3.3 0.4 2.8 0.55 2.7 0.0 2.85 0.0 M0.05 0.85 L0.0 0.9 0.0 0.0 0.45 0.0 0.05 0.85 M0.3 2.8 L0.5 2.95 0.45 3.05 0.3 2.8 M1.1 36.8 L0.0 36.8 0.0 36.4 1.1 36.6 1.1 36.8 M0.1 29.05 L0.0 29.1 0.0 29.05 0.1 29.05 M0.1 29.55 L0.0 30.4 0.0 29.65 0.1 29.55" fill="url(#gradient5)" fill-rule="evenodd" stroke="none"/>
      <path d="M1.1 36.8 L1.1 36.6 1.1 0.85 28.1 0.85 28.1 37.3 1.1 37.3 1.1 36.8" fill="url(#gradient6)" fill-rule="evenodd" stroke="none"/>
    </g>
    <radialGradient cx="0" cy="0" gradientTransform="matrix(0.018, 0.0, 0.0, 0.0279, 13.25, 19.2)" gradientUnits="userSpaceOnUse" id="gradient5" r="819.2" spreadMethod="pad">
      <stop offset="0.16470588235294117" stop-color="#eccd57"/>
      <stop offset="0.8470588235294118" stop-color="#5f8a53"/>
    </radialGradient>
    <linearGradient gradientTransform="matrix(0.0016, 0.0078, -0.0218, 0.0044, 14.1, 31.8)" gradientUnits="userSpaceOnUse" id="gradient6" spreadMethod="pad" x1="-819.2" x2="819.2">
      <stop offset="0.0" stop-color="#f4e13e" stop-opacity="0.0"/>
      <stop offset="1.0" stop-color="#abd20b"/>
    </linearGradient>
    <g id="shape6" transform="matrix(1.0, 0.0, 0.0, 1.0, 4.0, 3.8)">
      <path d="M1.2 -1.05 L-0.4 -0.75 Q-2.3 -0.75 -3.3 -1.4 -4.0 -1.85 -4.0 -2.3 -4.0 -4.0 -1.0 -3.8 1.95 -3.6 1.95 -1.75 1.95 -1.35 1.2 -1.05" fill="#ffffff" fill-rule="evenodd" stroke="none"/>
    </g>
    <g id="shape7" transform="matrix(1.0, 0.0, 0.0, 1.0, 13.9, 19.1)">
      <path d="M13.25 17.9 L-13.4 17.9 -13.4 -18.6 13.25 -18.6 13.25 17.9 Z" fill="none" stroke="#000000" stroke-linecap="round" stroke-linejoin="round" stroke-width="1.0"/>
    </g>
  </defs>
</svg>
