<?xml version="1.0" encoding="UTF-8" standalone="no"?>
<svg xmlns:ffdec="https://www.free-decompiler.com/flash" xmlns:xlink="http://www.w3.org/1999/xlink" ffdec:objectType="frame" height="104.5px" width="114.7px" xmlns="http://www.w3.org/2000/svg">
  <g transform="matrix(2.0, 0.0, 0.0, 2.0, 45.4, 50.5)">
    <clipPath id="clipPath0" transform="matrix(1.0, 0.0, 0.0, 1.0, 0.0, 0.0)">
      <path d="M13.15 18.4 L-13.15 18.4 -13.15 -18.6 13.15 -18.6 13.15 18.4" fill="#333333" fill-rule="evenodd" stroke="none"/>
    </clipPath>
    <g clip-path="url(#clipPath0)">
      <use ffdec:characterId="2960" height="36.9" transform="matrix(1.0, 0.0, 0.0, 1.0, -13.55, -19.0)" width="27.0" xlink:href="#shape1"/>
      <filter id="filter0">
        <feColorMatrix in="SourceGraphic" result="filterResult0" type="matrix" values="0 0 0 0 1.0,0 0 0 0 0.0,0 0 0 0 0.0,0 0 0 1 0"/>
        <feConvolveMatrix divisor="144.0" in="filterResult0" kernelMatrix="1 1 1 1 1 1 1 1 1 1 1 1 1 1 1 1 1 1 1 1 1 1 1 1 1 1 1 1 1 1 1 1 1 1 1 1 1 1 1 1 1 1 1 1 1 1 1 1 1 1 1 1 1 1 1 1 1 1 1 1 1 1 1 1 1 1 1 1 1 1 1 1 1 1 1 1 1 1 1 1 1 1 1 1 1 1 1 1 1 1 1 1 1 1 1 1 1 1 1 1 1 1 1 1 1 1 1 1 1 1 1 1 1 1 1 1 1 1 1 1 1 1 1 1 1 1 1 1 1 1 1 1 1 1 1 1 1 1 1 1 1 1 1 1" order="12 12" result="filterResult1"/>
        <feComposite in="SourceGraphic" in2="filterResult1" operator="over" result="filterResult2"/>
        <feConvolveMatrix divisor="441.0" in="filterResult2" kernelMatrix="1 1 1 1 1 1 1 1 1 1 1 1 1 1 1 1 1 1 1 1 1 1 1 1 1 1 1 1 1 1 1 1 1 1 1 1 1 1 1 1 1 1 1 1 1 1 1 1 1 1 1 1 1 1 1 1 1 1 1 1 1 1 1 1 1 1 1 1 1 1 1 1 1 1 1 1 1 1 1 1 1 1 1 1 1 1 1 1 1 1 1 1 1 1 1 1 1 1 1 1 1 1 1 1 1 1 1 1 1 1 1 1 1 1 1 1 1 1 1 1 1 1 1 1 1 1 1 1 1 1 1 1 1 1 1 1 1 1 1 1 1 1 1 1 1 1 1 1 1 1 1 1 1 1 1 1 1 1 1 1 1 1 1 1 1 1 1 1 1 1 1 1 1 1 1 1 1 1 1 1 1 1 1 1 1 1 1 1 1 1 1 1 1 1 1 1 1 1 1 1 1 1 1 1 1 1 1 1 1 1 1 1 1 1 1 1 1 1 1 1 1 1 1 1 1 1 1 1 1 1 1 1 1 1 1 1 1 1 1 1 1 1 1 1 1 1 1 1 1 1 1 1 1 1 1 1 1 1 1 1 1 1 1 1 1 1 1 1 1 1 1 1 1 1 1 1 1 1 1 1 1 1 1 1 1 1 1 1 1 1 1 1 1 1 1 1 1 1 1 1 1 1 1 1 1 1 1 1 1 1 1 1 1 1 1 1 1 1 1 1 1 1 1 1 1 1 1 1 1 1 1 1 1 1 1 1 1 1 1 1 1 1 1 1 1 1 1 1 1 1 1 1 1 1 1 1 1 1 1 1 1 1 1 1 1 1 1 1 1 1 1 1 1 1 1 1 1 1 1 1 1 1 1 1 1 1 1 1 1 1 1 1 1 1 1 1 1 1 1 1 1 1 1 1 1 1 1 1 1 1 1 1 1 1 1 1 1 1 1 1 1 1 1 1 1 1 1 1 1 1 1 1 1 1 1 1 1 1 1 1 1" order="21 21" result="filterResult3"/>
      </filter>
      <use ffdec:characterId="2959" filter="url(#filter0)" height="4.05" style="mix-blend-mode: screen" transform="matrix(1.1412, 0.2713, 0.0, 2.8049, -11.55, -16.45)" width="17.7" xlink:href="#sprite0"/>
      <filter id="filter1">
        <feConvolveMatrix divisor="0.0" in="SourceGraphic" kernelMatrix="" order="0 1" result="filterResult4"/>
      </filter>
      <use ffdec:characterId="2957" filter="url(#filter1)" height="42.35" transform="matrix(0.8227, 0.0, 0.0, 1.0, -13.3, -21.0)" width="34.35" xlink:href="#sprite1"/>
    </g>
    <use ffdec:characterId="2897" height="37.5" transform="matrix(1.0, 0.0, 0.0, 1.0, -13.9, -19.1)" width="27.65" xlink:href="#shape4"/>
  </g>
  <defs>
    <g id="shape1" transform="matrix(1.0, 0.0, 0.0, 1.0, 13.55, 19.0)">
      <path d="M13.45 -16.8 L13.1 -16.8 13.1 17.9 -13.55 17.9 -13.55 -18.85 -12.7 -18.85 -12.7 -18.7 13.45 -18.7 13.45 -16.8" fill="#000000" fill-rule="evenodd" stroke="none"/>
      <path d="M8.85 -13.2 L8.9 -13.3 8.25 -14.1 8.25 -14.05 8.85 -13.2 M8.9 -15.6 Q10.35 -13.8 10.75 -12.4 L10.85 -11.5 10.65 -10.75 11.35 -9.85 11.1 -9.5 9.6 -10.65 Q9.0 -10.8 8.4 -11.2 L8.05 -11.45 6.95 -11.65 5.9 -11.6 5.0 -11.4 Q-0.95 -15.8 -8.2 -16.15 L-8.85 -16.15 -4.55 -16.3 Q-3.1 -16.3 -2.9 -17.15 L-2.95 -17.95 -3.0 -18.0 -2.95 -18.25 -2.55 -18.7 2.0 -19.0 Q5.05 -19.0 7.3 -17.25 L8.9 -15.6" fill="#000000" fill-rule="evenodd" stroke="none"/>
      <path d="M1.05 11.95 L0.9 11.95 0.9 11.9 0.95 11.9 1.1 11.9 1.05 11.95" fill="#cfb75a" fill-rule="evenodd" stroke="none"/>
      <path d="M1.9 5.15 L2.0 5.5 Q2.0 5.8 0.6 6.15 L0.0 6.3 -0.55 6.45 -0.75 6.45 -0.75 6.4 -1.9 6.6 -2.0 6.2 -0.75 5.55 -0.75 5.5 -0.65 5.5 -0.25 5.4 1.8 5.2 1.9 5.15 M-2.65 5.85 L-2.35 6.35 -2.85 6.55 -3.3 5.85 Q-3.2 5.6 -2.65 5.85" fill="#d30000" fill-rule="evenodd" stroke="none"/>
      <path d="M9.5 -9.2 Q8.85 -8.9 6.9 -8.55 L3.5 -8.05 3.15 -8.05 Q5.1 -6.6 5.25 -5.6 L5.55 -5.6 6.05 -5.4 Q6.25 -5.2 6.55 -5.2 L8.15 -5.5 7.8 -5.75 6.5 -6.75 8.2 -6.7 9.4 -6.0 10.3 -6.45 Q9.8 -6.6 9.45 -6.9 9.75 -7.2 10.35 -7.1 10.4 -2.35 11.0 2.2 L10.95 3.9 10.9 4.4 10.45 4.55 10.45 4.35 10.35 4.5 8.65 6.15 8.45 6.15 8.4 5.65 7.45 6.35 6.35 7.1 8.45 6.6 10.35 6.7 10.4 6.7 Q9.85 7.6 9.6 8.6 L8.55 10.75 8.05 11.85 7.55 13.35 7.45 14.05 Q4.1 14.1 0.6 15.05 L-3.45 15.25 -4.3 14.85 -6.65 12.55 -6.65 12.5 -7.1 12.1 -8.55 10.5 -9.25 9.7 -9.4 9.3 -8.85 9.3 -9.6 8.95 -9.6 8.9 -10.1 7.0 -9.7 7.15 -9.8 6.85 -10.25 5.85 -10.3 5.85 -10.35 5.2 -10.2 3.7 -10.1 3.5 -11.65 1.25 -11.5 1.2 Q-11.1 1.4 -9.85 2.35 L-9.8 1.8 -10.0 1.65 -10.9 -1.0 -10.95 -1.95 Q-10.85 -2.65 -11.3 -3.0 L-11.65 -3.5 -10.35 -4.7 -10.35 -4.75 -10.3 -4.75 -10.25 -4.8 Q-4.1 -7.6 2.45 -9.25 L7.1 -10.75 8.25 -11.15 9.35 -10.45 9.75 -9.55 9.5 -9.2 M2.6 -3.45 L2.75 -3.45 2.8 -2.85 3.8 -1.15 4.05 -0.7 4.0 -1.4 4.1 -1.4 4.8 0.65 5.4 2.15 5.95 2.2 5.95 2.0 6.35 1.1 5.05 0.1 5.0 -0.45 6.15 -0.35 4.7 -1.65 Q5.9 -2.05 8.05 -0.5 L8.15 -0.6 2.95 -5.0 2.45 -5.2 Q2.85 -4.55 2.85 -3.65 L2.6 -3.45 M1.55 -4.35 L1.2 -5.05 0.3 -5.4 Q-0.5 -5.4 -0.9 -5.0 L-1.55 -4.35 -1.95 -4.4 -2.1 -4.8 -2.05 -5.2 -2.5 -5.15 Q-2.85 -5.15 -3.65 -6.35 L-5.5 -5.45 -4.65 -5.2 -4.6 -4.35 Q-4.6 -3.35 -5.25 -3.35 -5.85 -3.35 -6.35 -3.75 L-7.15 -4.35 -7.4 -3.6 -7.15 -2.8 -6.15 -2.6 -5.55 -2.7 Q-4.95 -2.7 -4.3 -2.3 L-3.65 -1.75 -2.8 -1.6 -2.1 -1.6 -2.25 -2.5 -1.6 -3.5 Q-0.9 -4.1 -0.2 -4.1 0.05 -4.1 0.75 -3.5 1.55 -3.95 1.55 -4.35 M1.35 -0.85 Q-0.1 0.8 -0.55 0.8 L-0.5 1.35 -0.5 1.4 0.1 1.35 2.25 1.7 Q2.0 0.9 1.9 -0.35 L2.0 -0.45 2.75 0.5 2.95 1.45 2.95 1.75 4.3 2.0 4.25 1.75 Q2.95 -0.6 2.35 -2.05 L1.35 -0.85 M-8.65 -0.65 L-8.55 -0.35 Q-7.8 2.5 -7.1 3.7 L-6.9 3.45 -6.65 3.25 Q-7.2 2.7 -7.2 1.25 -7.2 0.65 -6.8 0.65 L-6.05 2.05 -5.9 2.5 -4.65 1.7 -4.8 0.95 -4.8 0.65 -8.2 -1.75 -8.65 -0.65 M-0.7 2.45 Q-1.25 2.6 -1.55 2.95 -2.1 3.55 -3.3 3.9 L-2.15 4.05 -1.45 3.85 Q-1.25 2.8 0.65 2.75 L2.75 2.7 2.3 2.45 2.45 2.4 2.1 2.0 -0.6 2.05 -0.7 2.3 -0.7 2.45 M-5.0 4.4 L-5.1 4.1 -5.05 3.75 -3.45 3.9 Q-3.3 3.35 -3.75 3.0 L-4.0 3.15 Q-4.55 2.1 -5.25 2.75 -5.95 3.4 -5.95 4.4 L-6.05 4.5 -6.0 4.85 -5.65 4.8 -5.55 4.65 -4.7 4.65 -4.65 4.55 -5.0 4.4 M-3.15 6.2 L-3.15 5.95 -5.05 5.95 -5.1 6.35 Q-5.1 6.9 -5.05 6.55 L-1.9 7.2 -1.15 6.85 Q0.1 6.8 1.35 6.2 L1.4 6.2 1.95 5.85 2.5 5.55 2.75 5.2 2.95 5.1 2.8 5.15 2.8 4.9 2.75 4.5 2.65 4.55 0.9 4.85 1.05 5.25 1.05 5.35 0.65 5.4 0.25 4.95 -1.3 5.35 -1.3 5.65 -1.35 6.05 -1.8 6.3 -1.85 5.6 -1.85 5.5 -2.85 5.85 -2.85 6.2 -3.15 6.2 M-2.95 6.35 L-3.15 6.5 -3.15 6.35 -2.95 6.35 M-9.05 3.0 L-8.75 3.25 -8.5 3.45 -9.05 2.65 -9.05 3.0 M-7.85 5.85 L-8.2 5.85 -8.45 5.9 -7.2 8.4 -6.25 8.75 Q-5.5 8.75 -4.1 8.0 L-3.7 7.75 -5.5 7.2 Q-6.8 6.8 -8.0 6.2 L-7.65 6.0 -7.85 5.85 M-7.6 4.2 L-7.55 4.1 -7.8 4.0 -7.6 4.2 M-7.1 10.2 L-7.75 10.0 -7.3 10.25 -7.1 10.2 M1.7 9.4 L0.55 9.7 0.3 9.95 -0.7 10.95 Q-1.25 10.95 -1.75 9.85 L-2.35 10.2 Q-2.1 10.7 -2.1 11.8 L-2.3 13.3 -0.6 13.9 -0.4 13.7 0.4 13.45 1.65 13.75 2.9 13.25 2.6 9.5 1.8 9.3 1.7 9.3 1.35 9.25 1.7 9.4 M9.2 2.5 Q9.2 2.7 7.65 3.35 L4.35 5.8 3.4 6.55 2.1 7.45 3.1 7.65 Q7.2 4.05 9.7 3.15 L9.8 3.0 9.35 2.45 9.2 2.4 9.2 2.5 M7.0 2.35 L6.85 2.4 6.9 2.4 7.0 2.35 M3.55 12.85 L5.4 12.0 5.85 11.8 5.4 11.45 4.3 10.45 3.4 9.85 3.85 11.5 3.5 12.8 3.45 12.95 3.55 12.85" fill="#000000" fill-rule="evenodd" stroke="none"/>
      <path d="M10.35 4.5 L10.45 4.35 10.45 4.55 10.35 4.5 M1.7 9.4 L1.35 9.25 1.7 9.3 1.7 9.4 M9.35 2.45 L9.2 2.5 9.2 2.4 9.35 2.45 M3.5 12.8 L3.55 12.85 3.45 12.95 3.5 12.8" fill="#ffffff" fill-rule="evenodd" stroke="none"/>
      <path d="M-0.7 2.45 L-0.7 2.3 -0.6 2.05 2.1 2.0 2.45 2.4 2.3 2.45 2.75 2.7 0.65 2.75 Q-1.25 2.8 -1.45 3.85 L-2.15 4.05 -3.3 3.9 Q-2.1 3.55 -1.55 2.95 -1.25 2.6 -0.7 2.45 M-5.0 4.4 L-4.65 4.55 -4.7 4.65 -5.55 4.65 -5.65 4.8 -6.0 4.85 -6.05 4.5 -5.95 4.4 Q-5.95 3.4 -5.25 2.75 -4.55 2.1 -4.0 3.15 L-3.75 3.0 Q-3.3 3.35 -3.45 3.9 L-5.05 3.75 -5.1 4.1 -5.0 4.4 M-3.15 6.2 L-3.45 6.15 -3.55 6.25 -3.15 6.35 -3.15 6.5 -2.95 6.35 -2.0 6.45 -2.1 6.55 -1.7 6.45 -1.4 6.4 -1.45 6.4 1.75 5.25 1.05 5.35 1.05 5.25 0.9 4.85 2.65 4.55 2.75 4.5 2.8 4.9 2.8 5.15 2.75 5.2 2.5 5.55 1.95 5.85 1.4 6.2 1.35 6.2 Q0.1 6.8 -1.15 6.85 L-1.9 7.2 -5.05 6.55 Q-5.1 6.9 -5.1 6.35 L-5.05 5.95 -3.15 5.95 -3.15 6.2 M-1.35 6.05 L-1.3 5.65 -1.3 5.35 0.25 4.95 0.65 5.4 0.0 5.55 -1.35 6.05 M-2.85 6.2 L-2.85 5.85 -1.85 5.5 -1.85 5.6 -1.8 6.3 -2.85 6.2" fill="#551111" fill-rule="evenodd" stroke="none"/>
      <path d="M-10.35 -4.7 L-11.65 -3.5 -11.75 -3.85 -11.65 -4.15 -10.35 -4.7 M2.75 5.2 L2.8 5.15 2.95 5.1 2.75 5.2 M7.0 2.35 L6.9 2.4 6.85 2.4 7.0 2.35" fill="url(#gradient0)" fill-rule="evenodd" stroke="none"/>
      <path d="M1.8 9.3 L1.7 9.4 1.7 9.3 1.8 9.3" fill="url(#gradient1)" fill-rule="evenodd" stroke="none"/>
      <path d="M-9.05 3.0 L-9.05 2.65 -8.5 3.45 -8.75 3.25 -9.05 3.0 M-7.6 4.2 L-7.8 4.0 -7.55 4.1 -7.6 4.2" fill="url(#gradient2)" fill-rule="evenodd" stroke="none"/>
      <path d="M-3.15 6.35 L-3.55 6.25 -3.45 6.15 -3.15 6.2 -2.85 6.2 -1.8 6.3 -1.35 6.05 0.0 5.55 0.65 5.4 1.05 5.35 1.75 5.25 -1.45 6.4 -1.4 6.4 -1.7 6.45 -2.1 6.55 -2.0 6.45 -2.95 6.35 -3.15 6.35" fill="#d30000" fill-rule="evenodd" stroke="none"/>
      <path d="M10.35 -7.1 Q9.75 -7.2 9.45 -6.9 9.8 -6.6 10.3 -6.45 L9.4 -6.0 8.2 -6.7 6.5 -6.75 7.8 -5.75 8.15 -5.5 6.55 -5.2 Q6.25 -5.2 6.05 -5.4 L5.55 -5.6 5.25 -5.6 Q5.1 -6.6 3.15 -8.05 L3.5 -8.05 6.9 -8.55 Q8.85 -8.9 9.5 -9.2 L10.4 -8.65 10.35 -7.85 10.35 -7.1 M10.4 6.7 L10.35 6.7 8.45 6.6 6.35 7.1 7.45 6.35 8.4 5.65 8.45 6.15 8.65 6.15 10.35 4.5 10.45 4.55 10.9 4.4 10.7 6.05 10.65 6.35 10.4 6.7 M1.35 -0.85 L2.35 -2.05 Q2.95 -0.6 4.25 1.75 L4.3 2.0 2.95 1.75 2.95 1.45 2.75 0.5 2.0 -0.45 1.9 -0.35 Q2.0 0.9 2.25 1.7 L0.1 1.35 -0.5 1.4 -0.5 1.35 -0.55 0.8 Q-0.1 0.8 1.35 -0.85 M1.55 -4.35 Q1.55 -3.95 0.75 -3.5 0.05 -4.1 -0.2 -4.1 -0.9 -4.1 -1.6 -3.5 L-2.25 -2.5 -2.1 -1.6 -2.8 -1.6 -3.65 -1.75 -4.3 -2.3 Q-4.95 -2.7 -5.55 -2.7 L-6.15 -2.6 -7.15 -2.8 -7.4 -3.6 -7.15 -4.35 -6.35 -3.75 Q-5.85 -3.35 -5.25 -3.35 -4.6 -3.35 -4.6 -4.35 L-4.65 -5.2 -5.5 -5.45 -3.65 -6.35 Q-2.85 -5.15 -2.5 -5.15 L-2.05 -5.2 -2.1 -4.8 -1.95 -4.4 -1.55 -4.35 -0.9 -5.0 Q-0.5 -5.4 0.3 -5.4 L1.2 -5.05 1.55 -4.35 M2.6 -3.45 L2.85 -3.65 Q2.85 -4.55 2.45 -5.2 L2.95 -5.0 8.15 -0.6 8.05 -0.5 Q5.9 -2.05 4.7 -1.65 L6.15 -0.35 5.0 -0.45 5.05 0.1 6.35 1.1 5.95 2.0 5.95 2.2 5.4 2.15 4.8 0.65 4.1 -1.4 4.0 -1.4 4.05 -0.7 3.8 -1.15 2.8 -2.85 2.75 -3.45 2.6 -3.45 M-8.65 -0.65 L-8.2 -1.75 -4.8 0.65 -4.8 0.95 -4.65 1.7 -5.9 2.5 -6.05 2.05 -6.8 0.65 Q-7.2 0.65 -7.2 1.25 -7.2 2.7 -6.65 3.25 L-6.9 3.45 -7.1 3.7 Q-7.8 2.5 -8.55 -0.35 L-8.65 -0.65 M-7.85 5.85 L-7.65 6.0 -8.0 6.2 Q-6.8 6.8 -5.5 7.2 L-3.7 7.75 -4.1 8.0 Q-5.5 8.75 -6.25 8.75 L-7.2 8.4 -8.45 5.9 -8.2 5.85 -7.85 5.85 M1.8 9.3 L2.6 9.5 2.9 13.25 1.65 13.75 0.4 13.45 -0.4 13.7 -0.6 13.9 -2.3 13.3 -2.1 11.8 Q-2.1 10.7 -2.35 10.2 L-1.75 9.85 Q-1.25 10.95 -0.7 10.95 L0.3 9.95 0.55 9.7 1.7 9.4 1.8 9.3 M9.2 2.5 L9.35 2.45 9.8 3.0 9.7 3.15 Q7.2 4.05 3.1 7.65 L2.1 7.45 3.4 6.55 4.35 5.8 7.65 3.35 Q9.2 2.7 9.2 2.5 M3.5 12.8 L3.85 11.5 3.4 9.85 4.3 10.45 5.4 11.45 5.85 11.8 5.4 12.0 3.55 12.85 3.5 12.8" fill="url(#gradient3)" fill-rule="evenodd" stroke="none"/>
    </g>
    <radialGradient cx="0" cy="0" gradientTransform="matrix(0.0157, 0.0, -1.0E-4, 0.0235, -0.1, -0.35)" gradientUnits="userSpaceOnUse" id="gradient0" r="819.2" spreadMethod="pad">
      <stop offset="0.1607843137254902" stop-color="#9dad85"/>
      <stop offset="0.8313725490196079" stop-color="#000000"/>
    </radialGradient>
    <radialGradient cx="0" cy="0" gradientTransform="matrix(0.0145, 0.0, 0.0, 0.0118, 2.1, 18.65)" gradientUnits="userSpaceOnUse" id="gradient1" r="819.2" spreadMethod="pad">
      <stop offset="0.1607843137254902" stop-color="#9dad85"/>
      <stop offset="0.8313725490196079" stop-color="#000000"/>
    </radialGradient>
    <radialGradient cx="0" cy="0" gradientTransform="matrix(0.018, 0.0, 0.0, 0.0146, -5.8, -7.0)" gradientUnits="userSpaceOnUse" id="gradient2" r="819.2" spreadMethod="pad">
      <stop offset="0.1607843137254902" stop-color="#9dad85"/>
      <stop offset="0.8313725490196079" stop-color="#000000"/>
    </radialGradient>
    <radialGradient cx="0" cy="0" gradientTransform="matrix(0.0157, 0.0, -1.0E-4, 0.0235, -0.1, -0.35)" gradientUnits="userSpaceOnUse" id="gradient3" r="819.2" spreadMethod="pad">
      <stop offset="0.27058823529411763" stop-color="#78675c"/>
      <stop offset="1.0" stop-color="#000000"/>
    </radialGradient>
    <g id="sprite0" transform="matrix(1.0, 0.0, 0.0, 1.0, 0.0, 0.0)">
      <use ffdec:characterId="2958" height="4.05" transform="matrix(1.0, 0.0, 0.0, 1.0, 0.0, 0.0)" width="17.7" xlink:href="#shape2"/>
    </g>
    <g id="shape2" transform="matrix(1.0, 0.0, 0.0, 1.0, 0.0, 0.0)">
      <path d="M17.7 0.0 L15.85 1.9 Q14.05 3.3 11.8 3.3 L8.7 3.05 8.05 2.75 Q7.2 2.75 5.85 3.4 L3.2 4.05 0.9 3.5 Q0.0 3.0 0.0 2.6 0.0 1.75 0.8 1.85 L2.4 2.1 11.5 0.95 17.7 0.0" fill="#ffffff" fill-rule="evenodd" stroke="none"/>
    </g>
    <g id="sprite1" transform="matrix(1.0, 0.0, 0.0, 1.0, 0.0, 0.0)">
      <use ffdec:characterId="2956" height="42.35" transform="matrix(1.0, 0.0, 0.0, 1.0, 0.0, 0.0)" width="34.35" xlink:href="#shape3"/>
    </g>
    <g id="shape3" transform="matrix(1.0, 0.0, 0.0, 1.0, 0.0, 0.0)">
      <path d="M27.0 7.2 Q27.55 8.9 32.25 9.45 L31.35 9.6 Q27.9 9.6 26.85 8.15 26.45 7.6 26.45 6.45 L20.15 4.65 Q19.4 4.65 17.7 5.5 16.4 6.1 15.75 6.55 L16.05 7.45 Q16.05 8.2 15.4 8.75 14.45 9.6 13.9 10.8 L13.75 10.8 Q14.05 10.15 14.85 9.2 15.45 8.45 15.45 7.85 L15.3 7.2 15.1 6.55 Q15.1 5.4 17.75 4.7 L16.85 4.15 Q16.1 3.45 15.9 3.45 14.45 3.45 13.45 5.05 L12.25 6.6 11.05 6.4 11.1 6.0 Q12.45 5.45 14.65 3.55 16.65 2.4 18.7 4.45 L20.7 4.5 23.4 4.9 24.3 5.05 23.7 4.4 22.85 3.3 22.95 3.0 Q23.8 3.15 24.95 5.2 L25.0 5.25 Q26.55 5.75 26.95 6.95 27.1 5.75 26.0 3.85 L24.0 0.0 Q25.25 0.3 26.4 2.3 27.45 4.1 27.45 5.3 L27.2 7.2 27.0 7.2 M20.6 16.3 Q21.05 16.3 21.2 16.7 21.35 17.05 21.85 17.05 L22.6 16.7 Q23.2 16.3 24.15 16.3 25.1 16.3 26.0 17.5 L26.4 17.5 26.2 17.8 Q27.15 19.2 28.3 19.2 L29.9 18.15 Q31.55 17.1 33.15 17.1 33.75 17.1 34.35 17.5 L34.25 17.85 34.2 17.5 Q33.3 17.5 30.8 18.7 L28.4 19.9 Q27.0 19.9 25.75 18.35 L25.6 18.15 25.4 18.2 23.8 18.55 Q23.35 18.55 23.25 18.3 23.45 18.15 24.8 17.75 L25.25 17.65 24.75 16.8 Q23.25 16.8 22.85 17.2 L21.95 17.55 Q21.3 17.55 20.75 16.5 L20.1 16.65 Q19.75 16.65 19.25 16.25 L18.65 15.7 19.65 16.0 20.6 16.3 M25.2 32.25 Q26.9 33.3 27.1 34.25 L27.0 36.0 Q27.0 37.1 27.7 38.2 L29.3 40.65 28.95 40.95 26.4 36.9 26.45 36.8 24.5 35.4 24.6 35.15 24.6 35.1 25.75 35.65 26.55 36.15 26.6 34.2 Q26.6 33.8 25.8 33.35 25.0 32.9 24.95 32.25 L25.2 32.25 M25.35 38.45 Q26.25 39.9 25.95 40.65 L25.8 40.8 23.55 37.1 Q24.45 36.95 25.35 38.45 M18.0 36.3 L16.95 39.3 Q16.3 41.05 16.2 42.3 L16.05 42.35 Q15.9 42.15 15.9 41.45 15.9 40.4 16.35 38.8 16.95 36.45 18.0 36.3 M7.3 7.5 Q7.75 7.2 7.9 7.2 8.3 7.2 8.8 7.85 L9.3 8.7 8.75 8.15 Q8.4 7.8 7.95 7.8 L7.05 8.25 Q6.2 8.25 5.2 7.1 4.35 6.05 2.1 6.55 L1.95 6.3 1.95 6.1 Q4.35 5.4 5.4 6.5 6.05 7.8 6.45 7.8 L7.3 7.5 M10.95 32.0 L11.1 32.1 11.1 32.35 9.8 33.35 11.1 33.1 13.5 32.75 12.6 33.5 11.35 34.05 9.3 33.8 9.2 33.8 Q8.5 34.35 8.5 34.85 L8.65 35.25 8.8 35.55 9.0 35.55 8.55 36.25 8.45 36.5 Q9.55 35.7 11.5 34.65 L11.6 34.75 11.65 35.0 Q11.65 35.65 10.05 36.45 8.3 37.3 8.1 38.0 L7.65 39.5 Q7.3 40.5 6.55 41.0 L6.25 40.8 7.1 39.0 7.5 37.2 8.05 36.75 7.95 36.55 8.2 35.9 8.55 35.65 8.35 35.1 8.1 34.35 Q8.1 33.75 9.05 33.2 L10.95 32.0 M6.45 29.6 Q6.45 30.6 5.1 31.55 3.75 32.45 3.75 32.9 3.75 33.25 4.2 33.75 L4.45 34.1 Q5.7 33.1 6.6 33.0 L6.7 33.3 Q6.7 33.75 4.4 35.4 2.1 37.05 1.95 37.95 L1.8 37.95 1.65 37.05 Q1.65 36.55 3.45 34.9 L4.05 34.4 3.6 33.9 Q3.25 33.55 3.25 33.0 3.25 31.85 4.65 31.35 5.8 30.85 6.0 29.8 L4.6 28.55 Q3.85 27.75 3.85 26.85 3.85 25.3 2.35 24.75 0.25 24.0 0.0 23.7 2.25 23.5 3.5 24.5 4.5 25.25 4.45 26.15 L4.5 26.4 Q5.35 26.75 5.95 28.0 L6.2 28.6 6.45 29.35 6.45 29.45 6.45 29.6 M14.35 38.35 Q14.0 39.75 13.65 40.2 L13.45 40.1 13.35 39.8 13.65 37.9 13.95 36.15 13.95 36.0 Q14.65 35.95 14.65 36.85 L14.35 38.35" fill="#980101" fill-rule="evenodd" stroke="none"/>
    </g>
    <g id="shape4" transform="matrix(1.0, 0.0, 0.0, 1.0, 13.9, 19.1)">
      <path d="M13.25 17.9 L-13.4 17.9 -13.4 -18.6 13.25 -18.6 13.25 17.9 Z" fill="none" stroke="#000000" stroke-linecap="round" stroke-linejoin="round" stroke-width="1.0"/>
    </g>
  </defs>
</svg>
