<?xml version="1.0" encoding="UTF-8" standalone="no"?>
<svg xmlns:ffdec="https://www.free-decompiler.com/flash" xmlns:xlink="http://www.w3.org/1999/xlink" ffdec:objectType="frame" height="104.5px" width="114.7px" xmlns="http://www.w3.org/2000/svg">
  <g transform="matrix(2.0, 0.0, 0.0, 2.0, 45.4, 50.5)">
    <clipPath id="clipPath0" transform="matrix(1.0, 0.0, 0.0, 1.0, 0.0, 0.0)">
      <path d="M13.15 18.4 L-13.15 18.4 -13.15 -18.6 13.15 -18.6 13.15 18.4" fill="#333333" fill-rule="evenodd" stroke="none"/>
    </clipPath>
    <g clip-path="url(#clipPath0)">
      <use ffdec:characterId="2917" height="42.3" transform="matrix(1.0, 0.0, 0.0, 1.0, -16.85, -24.15)" width="30.3" xlink:href="#shape1"/>
      <use ffdec:characterId="2916" height="36.05" style="mix-blend-mode: multiply" transform="matrix(1.0, 0.0, 0.0, 1.0, -13.65, -18.2)" width="27.0" xlink:href="#sprite0"/>
      <use ffdec:characterId="2914" height="14.0" transform="matrix(1.0, 0.0, 0.0, 1.0, -14.65, -23.75)" width="27.05" xlink:href="#shape3"/>
    </g>
    <use ffdec:characterId="2897" height="37.5" transform="matrix(1.0, 0.0, 0.0, 1.0, -13.9, -19.1)" width="27.65" xlink:href="#shape4"/>
  </g>
  <defs>
    <g id="shape1" transform="matrix(1.0, 0.0, 0.0, 1.0, 16.85, 24.15)">
      <path d="M13.45 -18.6 L13.45 18.15 -12.9 18.15 -12.9 -18.6 13.45 -18.6" fill="#000000" fill-rule="evenodd" stroke="none"/>
      <path d="M0.25 -24.15 Q1.25 -24.0 2.1 -23.4 4.1 -22.1 6.3 -22.1 L10.0 -16.9 7.35 -18.7 8.05 -16.3 3.85 -15.45 1.6 -14.7 5.25 -12.95 2.1 -13.15 3.6 -11.0 2.5 -10.9 -0.6 -12.35 -0.9 -12.55 -1.7 -12.5 Q-2.0 -12.9 -2.2 -12.0 L-2.7 -10.65 -6.6 -11.5 -4.35 -11.7 Q-6.05 -11.95 -5.3 -13.05 L-5.35 -13.15 -12.2 -10.6 -11.25 -9.7 -10.9 -9.95 Q-9.95 -10.2 -10.3 -9.55 L-10.15 -9.55 -6.2 -9.35 -4.15 -8.8 -4.1 -9.1 -1.65 -8.6 -1.55 -8.95 Q-1.35 -9.5 -0.6 -8.6 L-1.3 -8.0 1.05 -6.65 1.4 -5.0 1.5 2.15 3.65 1.6 2.05 4.05 0.1 4.35 -3.1 2.65 -2.35 0.3 -0.85 2.15 -0.7 -4.35 Q-1.2 -5.7 -2.2 -6.45 -4.1 -7.9 -6.8 -8.6 -9.9 -9.1 -10.45 -7.05 -7.85 -5.45 -5.3 -5.1 L-3.6 -5.2 -3.25 -1.0 -4.95 3.25 -1.9 5.2 -6.55 7.35 -6.05 3.3 -7.55 1.2 -6.7 -1.75 -7.75 1.05 -10.5 -1.55 -7.8 -4.45 -12.05 -2.7 -12.35 -1.75 -12.55 -0.8 -13.4 -5.7 -12.7 -8.3 -12.65 -8.7 Q-13.4 -9.45 -12.7 -8.3 L-15.3 -7.85 -16.15 -3.2 -16.3 -7.75 Q-16.8 -7.95 -16.85 -8.45 L-16.8 -8.8 -16.7 -9.05 -13.65 -10.0 -13.5 -12.05 Q-14.5 -12.1 -14.05 -12.9 -12.95 -14.9 -12.2 -16.9 -11.55 -18.5 -10.2 -19.65 L-9.85 -20.05 -8.15 -21.45 -7.05 -22.15 Q-3.65 -23.9 0.25 -24.15 M10.6 -12.8 L10.6 -13.1 Q11.7 -12.65 11.4 -11.5 L11.3 -8.4 Q10.6 -10.45 10.6 -12.8 M1.05 -15.15 L-0.25 -15.3 -6.75 -14.75 0.8 -15.1 1.05 -15.15 M3.0 14.9 L3.7 13.5 5.35 12.25 4.15 16.05 4.15 15.75 Q4.0 14.8 3.85 15.5 3.65 16.35 3.2 15.85 3.0 15.75 2.6 16.55 L2.35 16.55 0.85 16.7 -3.15 16.5 Q-5.2 15.95 -6.45 14.3 L-6.65 10.9 -3.45 14.9 Q-2.85 14.1 -2.1 13.65 -1.05 12.95 0.15 13.15 L1.3 13.65 3.0 14.9 M4.85 -2.75 L4.9 -3.45 5.7 -3.1 Q6.55 -2.9 8.6 -3.1 10.55 -3.3 9.75 -2.65 L8.15 -1.45 Q7.4 -0.95 6.6 -0.95 5.85 -0.95 5.3 -1.45 4.85 -2.05 4.85 -2.75 M8.95 -6.35 Q8.6 -6.65 8.45 -7.05 6.55 -7.2 4.95 -6.6 3.75 -6.25 3.75 -7.25 L5.9 -8.1 4.25 -9.35 10.0 -9.05 7.65 -8.4 10.05 -6.75 10.0 -6.65 Q9.45 -6.1 8.95 -6.35 M-3.7 -16.8 L-5.3 -16.9 Q-5.9 -16.55 -4.65 -16.5 -3.5 -16.6 -3.7 -16.8 M-11.85 -8.4 Q-12.95 -8.45 -12.7 -7.65 -12.55 -7.05 -11.65 -7.55 L-11.4 -7.7 Q-10.65 -7.9 -10.9 -8.8 -11.55 -9.3 -11.85 -8.6 L-11.85 -8.4 M-12.25 -6.55 Q-13.2 -4.6 -11.55 -6.25 -11.1 -6.65 -11.25 -6.75 -11.75 -7.2 -12.25 -6.55 M-2.6 -7.8 Q-1.5 -7.0 -2.8 -8.2 -4.05 -8.95 -2.6 -7.8 M-4.15 8.8 Q-4.85 8.0 -3.45 8.5 L4.0 9.15 -1.45 11.15 Q-3.05 10.1 -4.15 8.8 M-8.3 7.85 L-8.0 10.5 -10.15 7.6 -11.85 13.35 -11.8 5.2 -13.05 -0.2 -10.3 3.65 -8.3 7.85" fill="#ffffff" fill-rule="evenodd" stroke="none"/>
    </g>
    <g id="sprite0" transform="matrix(1.0, 0.0, 0.0, 1.0, -2.4, -1.55)">
      <use ffdec:characterId="2915" height="36.05" transform="matrix(1.0, 0.0, 0.0, 1.0, 2.4, 1.55)" width="27.0" xlink:href="#shape2"/>
    </g>
    <g id="shape2" transform="matrix(1.0, 0.0, 0.0, 1.0, -2.4, -1.55)">
      <path d="M2.4 37.6 L2.4 1.55 29.4 1.55 29.4 37.6 2.4 37.6" fill="url(#gradient0)" fill-rule="evenodd" stroke="none"/>
    </g>
    <radialGradient cx="0" cy="0" fx="67.2" fy="0" gradientTransform="matrix(0.025, 0.0, 0.0, 0.0455, 16.0, 14.55)" gradientUnits="userSpaceOnUse" id="gradient0" r="819.2" spreadMethod="pad">
      <stop offset="0.16470588235294117" stop-color="#f59f67" stop-opacity="0.2901961"/>
      <stop offset="0.6745098039215687" stop-color="#423968"/>
      <stop offset="1.0" stop-color="#000000"/>
    </radialGradient>
    <g id="shape3" transform="matrix(1.0, 0.0, 0.0, 1.0, 14.65, 23.75)">
      <path d="M9.7 -19.95 L9.95 -20.0 10.4 -20.05 10.05 -19.9 9.7 -19.95 M-8.65 -15.55 Q-8.9 -15.3 -9.05 -15.3 L-8.95 -15.35 -8.65 -15.55 M-6.6 -17.4 Q-7.15 -17.05 -7.85 -16.8 L-9.0 -16.2 -8.5 -17.15 -2.65 -20.15 Q-5.0 -18.7 -5.8 -18.05 L-6.35 -17.65 -6.6 -17.4 M-10.6 -16.5 L-11.55 -16.2 -14.15 -9.75 -14.65 -19.35 -13.4 -20.35 Q-13.2 -19.95 -12.15 -19.6 L-12.05 -19.55 Q-12.65 -19.5 -12.85 -19.15 -13.45 -18.95 -13.35 -18.25 L-10.9 -18.8 -14.0 -14.1 -13.3 -14.85 -13.6 -14.4 -11.75 -16.35 -10.6 -16.5 M7.25 -21.65 L7.6 -21.85 8.05 -21.55 7.25 -21.65 M-9.3 -22.05 L-6.8 -23.0 -1.65 -21.75 -12.3 -21.25 -8.8 -23.75 -9.3 -22.05 M-10.9 -14.8 L-11.0 -14.7 Q-10.6 -15.3 -10.9 -14.8 M-13.0 -10.25 Q-13.05 -10.1 -13.3 -10.0 -12.3 -12.05 -13.0 -10.25" fill="#ffd944" fill-rule="evenodd" stroke="none"/>
      <path d="M9.7 -19.95 Q8.55 -19.7 9.65 -19.6 L10.25 -19.85 10.7 -20.1 10.4 -20.05 9.95 -20.0 9.7 -19.95 M6.75 -21.35 L6.85 -21.35 7.65 -21.25 8.2 -21.2 9.3 -21.0 12.2 -19.95 11.1 -17.3 10.75 -14.3 10.65 -13.4 10.6 -13.1 10.4 -13.75 9.1 -18.4 6.5 -18.2 6.35 -18.5 6.4 -18.8 5.8 -18.95 5.55 -18.9 4.9 -18.05 4.6 -17.6 4.3 -17.25 Q3.85 -17.6 4.25 -18.1 L0.85 -16.1 0.85 -16.2 0.75 -16.9 6.45 -21.15 -6.6 -14.95 -5.45 -15.65 2.35 -20.35 2.05 -20.2 -7.15 -16.45 -7.45 -16.35 -8.65 -15.55 -8.95 -15.35 -9.05 -15.3 Q-9.4 -15.3 -9.6 -15.55 L-9.7 -15.65 -9.4 -15.9 -8.25 -16.5 Q-7.3 -16.85 -6.6 -17.4 L-6.35 -17.65 -5.8 -18.05 -2.2 -20.4 -2.65 -20.15 -8.5 -17.15 -8.85 -17.0 -9.8 -16.6 -10.6 -16.5 -11.75 -16.35 -11.9 -16.35 -13.3 -14.85 -14.0 -14.1 -10.9 -18.8 -13.35 -18.25 Q-13.45 -18.95 -12.85 -19.15 L-12.45 -19.25 Q-11.9 -19.4 -12.05 -19.55 L-12.15 -19.6 Q-13.2 -19.95 -13.4 -20.35 L-13.4 -20.4 -12.7 -20.95 -2.05 -21.45 6.65 -21.35 6.75 -21.35 M4.1 -19.3 L4.0 -19.25 Q5.2 -19.45 4.1 -19.3" fill="#000000" fill-rule="evenodd" stroke="none"/>
      <path d="M-6.6 -14.95 L-6.45 -15.15 -6.45 -15.2 -6.75 -15.0 -9.1 -13.15 -7.15 -16.45 2.05 -20.2 -6.25 -15.25 -5.45 -15.65 -6.6 -14.95 M6.65 -21.35 L6.85 -21.45 6.75 -21.35 6.65 -21.35" fill="url(#gradient1)" fill-rule="evenodd" stroke="none"/>
      <path d="M0.8 -16.15 L0.85 -16.2 0.85 -16.1 0.8 -16.15" fill="url(#gradient2)" fill-rule="evenodd" stroke="none"/>
      <path d="M0.85 -16.2 L-7.4 -12.25 -7.25 -12.55 Q-6.8 -12.95 -6.7 -13.25 L-7.1 -13.05 -7.5 -13.1 -8.0 -13.05 -6.6 -14.95 6.45 -21.15 0.75 -16.9 0.85 -16.2" fill="url(#gradient3)" fill-rule="evenodd" stroke="none"/>
      <path d="M10.75 -14.3 L11.0 -13.4 11.5 -17.6 12.4 -15.2 11.85 -14.1 11.75 -11.65 10.65 -13.4 10.75 -14.3" fill="url(#gradient4)" fill-rule="evenodd" stroke="none"/>
      <path d="M10.4 -13.75 L9.05 -15.9 7.4 -15.65 0.25 -10.15 4.7 -16.65 -5.0 -10.65 1.25 -15.4 -1.05 -14.2 0.8 -16.15 0.85 -16.1 4.25 -18.1 Q3.85 -17.6 4.3 -17.25 L4.6 -17.6 4.7 -17.55 5.3 -18.35 5.8 -18.95 6.4 -18.8 6.35 -18.5 6.5 -18.2 9.1 -18.4 10.4 -13.75" fill="url(#gradient5)" fill-rule="evenodd" stroke="none"/>
    </g>
    <linearGradient gradientTransform="matrix(0.0131, 0.0, 0.0, 0.0069, 1.65, -15.8)" gradientUnits="userSpaceOnUse" id="gradient1" spreadMethod="pad" x1="-819.2" x2="819.2">
      <stop offset="0.0" stop-color="#ffd944"/>
      <stop offset="1.0" stop-color="#47a7a7"/>
    </linearGradient>
    <linearGradient gradientTransform="matrix(0.0131, 0.0, 0.0, 0.0069, 1.65, -15.8)" gradientUnits="userSpaceOnUse" id="gradient2" spreadMethod="pad" x1="-819.2" x2="819.2">
      <stop offset="0.0" stop-color="#ffd944"/>
      <stop offset="1.0" stop-color="#788965"/>
    </linearGradient>
    <linearGradient gradientTransform="matrix(0.0043, -0.0021, 6.0E-4, 0.0012, -2.8, -15.6)" gradientUnits="userSpaceOnUse" id="gradient3" spreadMethod="pad" x1="-819.2" x2="819.2">
      <stop offset="0.0" stop-color="#ffd944"/>
      <stop offset="1.0" stop-color="#788965"/>
    </linearGradient>
    <linearGradient gradientTransform="matrix(3.0E-4, -0.0023, 9.0E-4, 1.0E-4, 11.55, -14.7)" gradientUnits="userSpaceOnUse" id="gradient4" spreadMethod="pad" x1="-819.2" x2="819.2">
      <stop offset="0.0" stop-color="#ffd944"/>
      <stop offset="1.0" stop-color="#788965"/>
    </linearGradient>
    <linearGradient gradientTransform="matrix(0.0031, -0.0035, 0.0044, 0.0038, 5.1, -14.85)" gradientUnits="userSpaceOnUse" id="gradient5" spreadMethod="pad" x1="-819.2" x2="819.2">
      <stop offset="0.0" stop-color="#ffd944"/>
      <stop offset="1.0" stop-color="#788965"/>
    </linearGradient>
    <g id="shape4" transform="matrix(1.0, 0.0, 0.0, 1.0, 13.9, 19.1)">
      <path d="M13.25 17.9 L-13.4 17.9 -13.4 -18.6 13.25 -18.6 13.25 17.9 Z" fill="none" stroke="#000000" stroke-linecap="round" stroke-linejoin="round" stroke-width="1.0"/>
    </g>
  </defs>
</svg>
