<?xml version="1.0" encoding="UTF-8" standalone="no"?>
<svg xmlns:ffdec="https://www.free-decompiler.com/flash" xmlns:xlink="http://www.w3.org/1999/xlink" ffdec:objectType="frame" height="51.9px" width="402.0px" xmlns="http://www.w3.org/2000/svg">
  <g transform="matrix(2.0, 0.0, 0.0, 2.0, 201.0, 25.9)">
    <use ffdec:characterId="3412" height="12.0" id="fB2" transform="matrix(0.787, 0.0, 0.0, 1.0, -100.0, 0.0)" width="200.0" xlink:href="#sprite0"/>
    <use ffdec:characterId="3410" height="12.0" id="lB2" transform="matrix(0.787, 0.0, 0.0, 1.0, -100.0, -12.0)" width="200.0" xlink:href="#sprite1"/>
    <use ffdec:characterId="2847" height="24.0" transform="matrix(1.0, 0.0, 0.0, 1.0, -100.0, -12.0)" width="157.4" xlink:href="#shape2"/>
    <use ffdec:characterId="3412" height="12.0" id="fB" transform="matrix(0.787, 0.0, 0.0, 1.0, -100.0, 0.0)" width="200.0" xlink:href="#sprite0"/>
    <use ffdec:characterId="3409" height="0.0" id="fB3" transform="matrix(0.787, 0.0, 0.0, 1.0, -100.0, 6.5)" width="0.0" xlink:href="#sprite3"/>
    <use ffdec:characterId="333" height="372.95" transform="matrix(0.0697, 0.0, 0.0, 0.0652, 57.5098, -12.1527)" width="608.0" xlink:href="#shape3"/>
    <use ffdec:characterId="3410" height="12.0" id="lB" transform="matrix(0.787, 0.0, 0.0, 1.0, -100.0, -12.0)" width="200.0" xlink:href="#sprite1"/>
    <use ffdec:characterId="3409" height="0.0" id="lB3" transform="matrix(0.787, 0.0, 0.0, 1.0, -100.0, -5.5)" width="0.0" xlink:href="#sprite3"/>
    <use ffdec:characterId="3408" height="25.95" transform="matrix(1.0, 0.0, 0.0, 1.0, -100.5, -12.95)" width="201.0" xlink:href="#shape4"/>
  </g>
  <defs>
    <g id="sprite0" transform="matrix(1.0, 0.0, 0.0, 1.0, 0.0, 6.5)">
      <use ffdec:characterId="3411" height="12.0" transform="matrix(1.0, 0.0, 0.0, 1.0, 0.0, -6.5)" width="200.0" xlink:href="#shape0"/>
    </g>
    <g id="shape0" transform="matrix(1.0, 0.0, 0.0, 1.0, 0.0, 6.5)">
      <path d="M200.0 -6.5 L200.0 5.5 0.0 5.5 0.0 -6.5 200.0 -6.5" fill="#0099cc" fill-rule="evenodd" stroke="none"/>
    </g>
    <g id="sprite1" transform="matrix(1.0, 0.0, 0.0, 1.0, 0.0, 6.5)">
      <use ffdec:characterId="55" height="12.0" id="LCC" transform="matrix(1.0, 0.0, 0.0, 1.0, 0.0, -6.5)" width="200.0" xlink:href="#sprite2"/>
    </g>
    <g id="sprite2" transform="matrix(1.0, 0.0, 0.0, 1.0, 100.0, 6.0)">
      <use ffdec:characterId="54" height="12.0" transform="matrix(1.0, 0.0, 0.0, 1.0, -100.0, -6.0)" width="200.0" xlink:href="#shape1"/>
    </g>
    <g id="shape1" transform="matrix(1.0, 0.0, 0.0, 1.0, 100.0, 6.0)">
      <path d="M100.0 -6.0 L100.0 6.0 -100.0 6.0 -100.0 -6.0 100.0 -6.0" fill="#990000" fill-rule="evenodd" stroke="none"/>
    </g>
    <g id="shape2" transform="matrix(1.0, 0.0, 0.0, 1.0, 100.0, 12.0)">
      <path d="M-100.0 -12.0 L57.4 -12.0 57.4 12.0 -100.0 12.0 -100.0 -12.0" fill="#000000" fill-opacity="0.7019608" fill-rule="evenodd" stroke="none"/>
    </g>
    <g id="shape3" transform="matrix(1.0, 0.0, 0.0, 1.0, -26.7, -26.05)">
      <path d="M634.7 26.05 L634.7 399.0 26.7 399.0 26.7 26.05 634.7 26.05" fill="#000000" fill-rule="evenodd" stroke="none"/>
    </g>
    <g id="shape4" transform="matrix(1.0, 0.0, 0.0, 1.0, 100.5, 12.95)">
      <path d="M-100.0 0.1 L-100.0 -12.45 100.0 -12.45 100.0 0.1 -100.0 0.1" fill="url(#gradient0)" fill-rule="evenodd" stroke="none"/>
      <path d="M100.0 0.1 L100.0 12.5 -100.0 12.5 -100.0 0.1 100.0 0.1" fill="url(#gradient1)" fill-rule="evenodd" stroke="none"/>
      <path d="M100.0 0.1 L100.0 12.5 -100.0 12.5 -100.0 0.1 -100.0 -12.45 100.0 -12.45 100.0 0.1 -100.0 0.1" fill="none" stroke="#000000" stroke-linecap="round" stroke-linejoin="round" stroke-width="1.0"/>
    </g>
    <linearGradient gradientTransform="matrix(0.0, -0.0103, 0.1221, 0.0, 0.0, -4.05)" gradientUnits="userSpaceOnUse" id="gradient0" spreadMethod="pad" x1="-819.2" x2="819.2">
      <stop offset="0.0" stop-color="#ffffff" stop-opacity="0.0"/>
      <stop offset="0.08627450980392157" stop-color="#000000" stop-opacity="0.21176471"/>
      <stop offset="0.788235294117647" stop-color="#ffffff" stop-opacity="0.2627451"/>
      <stop offset="1.0" stop-color="#ffffff" stop-opacity="0.9529412"/>
    </linearGradient>
    <linearGradient gradientTransform="matrix(0.0, 0.0076, -0.1221, 0.0, 0.0, 6.3)" gradientUnits="userSpaceOnUse" id="gradient1" spreadMethod="pad" x1="-819.2" x2="819.2">
      <stop offset="0.0" stop-color="#ffffff" stop-opacity="0.0"/>
      <stop offset="0.08627450980392157" stop-color="#000000" stop-opacity="0.21176471"/>
      <stop offset="0.788235294117647" stop-color="#ffffff" stop-opacity="0.2627451"/>
      <stop offset="1.0" stop-color="#ffffff" stop-opacity="0.9529412"/>
    </linearGradient>
  </defs>
</svg>
