<?xml version="1.0" encoding="UTF-8" standalone="no"?>
<svg xmlns:ffdec="https://www.free-decompiler.com/flash" xmlns:xlink="http://www.w3.org/1999/xlink" ffdec:objectType="frame" height="48.2px" width="35.1px" xmlns="http://www.w3.org/2000/svg">
  <g transform="matrix(2.0, 0.0, 0.0, 2.0, 16.1, 34.7)">
    <use ffdec:characterId="604" height="24.1" transform="matrix(1.0, 0.0, 0.0, 1.0, -8.05, -17.35)" width="17.55" xlink:href="#shape0"/>
    <filter id="filter0">
      <feFlood flood-color="#ff9900" flood-opacity="1.0" result="filterResult0"/>
      <feComposite in="filterResult0" in2="SourceGraphic" operator="out" result="filterResult1"/>
      <feConvolveMatrix divisor="9.0" in="filterResult1" kernelMatrix="1 1 1 1 1 1 1 1 1" order="3 3" result="filterResult2"/>
      <feComposite in="filterResult2" in2="SourceGraphic" operator="in" result="filterResult3"/>
      <feComposite in="filterResult3" in2="SourceGraphic" operator="over" result="filterResult4"/>
      <feColorMatrix in="filterResult4" result="filterResult5" type="matrix" values="0 0 0 0 1.0,0 0 0 0 0.4,0 0 0 0 0.0,0 0 0 1 0"/>
      <feConvolveMatrix divisor="64.0" in="filterResult5" kernelMatrix="1 1 1 1 1 1 1 1 1 1 1 1 1 1 1 1 1 1 1 1 1 1 1 1 1 1 1 1 1 1 1 1 1 1 1 1 1 1 1 1 1 1 1 1 1 1 1 1 1 1 1 1 1 1 1 1 1 1 1 1 1 1 1 1" order="8 8" result="filterResult6"/>
      <feComposite in="filterResult4" in2="filterResult6" operator="over" result="filterResult7"/>
    </filter>
    <use ffdec:characterId="60" filter="url(#filter0)" height="3.0" transform="matrix(1.0, 0.0, 0.0, 0.6667, 3.0, -0.7)" width="3.0" xlink:href="#sprite0"/>
  </g>
  <defs>
    <g id="shape0" transform="matrix(1.0, 0.0, 0.0, 1.0, 8.05, 17.35)">
      <path d="M0.6 -1.6 Q0.35 -2.9 0.7 -4.0 L4.9 -3.75 5.15 -4.0 5.3 -3.7 6.85 -3.9 5.3 -0.5 Q4.3 -0.45 2.6 -1.35 2.9 1.15 2.45 3.15 L2.4 3.5 Q0.25 3.2 -0.5 4.3 L-0.65 4.5 -0.9 5.5 -8.05 0.55 -5.95 -0.75 Q-4.0 1.2 -1.25 2.65 -0.7 1.7 0.45 1.75 0.95 0.25 0.6 -1.6" fill="url(#gradient0)" fill-rule="evenodd" stroke="none"/>
      <path d="M5.15 -4.0 L4.9 -3.75 0.7 -4.0 Q0.35 -2.9 0.6 -1.6 -1.7 -1.65 -3.85 -2.6 -3.2 -3.1 -3.0 -3.9 L-2.4 -4.7 Q2.1 -10.0 5.15 -4.0" fill="url(#gradient1)" fill-rule="evenodd" stroke="none"/>
      <path d="M-3.85 -2.6 Q-1.7 -1.65 0.6 -1.6 0.95 0.25 0.45 1.75 -0.7 1.7 -1.25 2.65 -4.0 1.2 -5.95 -0.75 L-5.55 -1.05 Q-4.25 -1.35 -3.85 -2.6" fill="url(#gradient2)" fill-rule="evenodd" stroke="none"/>
      <path d="M-0.65 4.5 L-0.5 4.3 Q0.25 3.2 2.4 3.5 L2.45 3.15 Q2.95 4.1 3.7 4.15 L4.15 6.75 Q2.1 5.15 -0.65 4.5" fill="url(#gradient3)" fill-rule="evenodd" stroke="none"/>
      <path d="M0.6 -1.6 Q0.35 -2.9 0.7 -4.0 L4.9 -3.75 5.15 -4.0 Q2.1 -10.0 -2.4 -4.7 L-3.0 -3.9 Q-3.2 -3.1 -3.85 -2.6 -1.7 -1.65 0.6 -1.6 0.95 0.25 0.45 1.75 -0.7 1.7 -1.25 2.65 -4.0 1.2 -5.95 -0.75 L-8.05 0.55 -0.9 5.5 -0.65 4.5 -0.5 4.3 Q0.25 3.2 2.4 3.5 L2.45 3.15 Q2.9 1.15 2.6 -1.35 4.3 -0.45 5.3 -0.5 L6.85 -3.9 5.3 -3.7 5.15 -4.0 M-0.65 4.5 Q2.1 5.15 4.15 6.75 L3.7 4.15 Q2.95 4.1 2.45 3.15 M-3.85 -2.6 Q-4.25 -1.35 -5.55 -1.05 L-5.95 -0.75" fill="none" stroke="#000000" stroke-linecap="round" stroke-linejoin="round" stroke-width="0.05"/>
      <path d="M7.95 -5.85 L4.85 -1.95 -0.25 -4.45 Q-0.5 -11.0 -6.25 -17.35 L-0.4 -14.0 0.9 -6.2 4.65 -4.2 6.65 -6.35 5.75 -14.1 9.5 -16.55 Q7.0 -11.35 7.95 -5.85" fill="url(#gradient4)" fill-rule="evenodd" stroke="none"/>
      <path d="M7.95 -5.85 L4.85 -1.95 -0.25 -4.45 Q-0.5 -11.0 -6.25 -17.35 L-0.4 -14.0 0.9 -6.2 4.65 -4.2 6.65 -6.35 5.75 -14.1 9.5 -16.55 Q7.0 -11.35 7.95 -5.85 Z" fill="none" stroke="#000000" stroke-linecap="round" stroke-linejoin="round" stroke-width="0.05"/>
    </g>
    <radialGradient cx="0" cy="0" gradientTransform="matrix(0.0153, 0.0, 0.0, 0.0153, 3.75, -3.6)" gradientUnits="userSpaceOnUse" id="gradient0" r="819.2" spreadMethod="pad">
      <stop offset="0.0" stop-color="#c88a2f"/>
      <stop offset="1.0" stop-color="#643e35"/>
    </radialGradient>
    <radialGradient cx="0" cy="0" gradientTransform="matrix(0.0075, 0.0, 0.0, 0.0075, -1.0, -3.5)" gradientUnits="userSpaceOnUse" id="gradient1" r="819.2" spreadMethod="pad">
      <stop offset="0.0" stop-color="#5b6568"/>
      <stop offset="0.30980392156862746" stop-color="#2c2f34"/>
      <stop offset="1.0" stop-color="#18161d"/>
    </radialGradient>
    <radialGradient cx="0" cy="0" gradientTransform="matrix(0.0055, 0.0, 0.0, 0.0055, -3.0, 0.65)" gradientUnits="userSpaceOnUse" id="gradient2" r="819.2" spreadMethod="pad">
      <stop offset="0.0" stop-color="#5b6568"/>
      <stop offset="0.30980392156862746" stop-color="#2c2f34"/>
      <stop offset="1.0" stop-color="#18161d"/>
    </radialGradient>
    <radialGradient cx="0" cy="0" gradientTransform="matrix(0.0052, 0.0, 0.0, 0.0052, 3.4, 5.65)" gradientUnits="userSpaceOnUse" id="gradient3" r="819.2" spreadMethod="pad">
      <stop offset="0.0" stop-color="#5b6568"/>
      <stop offset="0.30980392156862746" stop-color="#2c2f34"/>
      <stop offset="1.0" stop-color="#18161d"/>
    </radialGradient>
    <radialGradient cx="0" cy="0" gradientTransform="matrix(0.0147, 0.0, 0.0, 0.0147, 4.15, -3.5)" gradientUnits="userSpaceOnUse" id="gradient4" r="819.2" spreadMethod="pad">
      <stop offset="0.0" stop-color="#ffffff"/>
      <stop offset="0.42745098039215684" stop-color="#dcb04e"/>
      <stop offset="0.44313725490196076" stop-color="#a7762e"/>
      <stop offset="0.6470588235294118" stop-color="#deaf43"/>
      <stop offset="1.0" stop-color="#ecdebd"/>
    </radialGradient>
    <g id="sprite0" transform="matrix(1.0, 0.0, 0.0, 1.0, 1.5, 1.5)">
      <use ffdec:characterId="59" height="1.3" transform="matrix(0.0046, 0.0, 0.0, 2.3077, -1.5245, -1.5116)" width="653.2" xlink:href="#shape1"/>
    </g>
    <g id="shape1" transform="matrix(1.0, 0.0, 0.0, 1.0, 277.5, 12.55)">
      <path d="M36.7 -12.55 L276.3 -12.4 Q375.7 -12.2 375.7 -11.9 375.7 -11.65 276.3 -11.45 L36.7 -11.25 -203.0 -11.45 Q-252.65 -11.55 -277.5 -11.9 -252.65 -12.3 -203.0 -12.4 L36.7 -12.55" fill="#ffffff" fill-rule="evenodd" stroke="none"/>
    </g>
  </defs>
</svg>
