<?xml version="1.0" encoding="UTF-8" standalone="no"?>
<svg xmlns:ffdec="https://www.free-decompiler.com/flash" xmlns:xlink="http://www.w3.org/1999/xlink" ffdec:objectType="frame" height="57.5px" width="400.9px" xmlns="http://www.w3.org/2000/svg">
  <g transform="matrix(2.0, 0.0, 0.0, 2.0, 202.9, 27.7)">
    <use ffdec:characterId="3406" height="25.35" transform="matrix(1.0, 0.0, 0.0, 1.0, -59.0, -12.35)" width="1.0" xlink:href="#shape0"/>
    <use ffdec:characterId="3405" height="16.0" transform="matrix(1.0, 0.0, 0.0, 1.0, -2.05, -13.85)" width="100.2" xlink:href="#text0"/>
    <use ffdec:characterId="3404" height="16.0" transform="matrix(1.0, 0.0, 0.0, 1.0, -101.45, -13.1)" width="42.9" xlink:href="#text1"/>
    <use ffdec:characterId="3403" height="16.0" transform="matrix(1.0, 0.0, 0.0, 1.0, -101.45, -1.1)" width="42.9" xlink:href="#text2"/>
    <use ffdec:characterId="3402" height="16.0" transform="matrix(1.0, 0.0, 0.0, 1.0, -58.1, -13.1)" width="42.9" xlink:href="#text3"/>
    <use ffdec:characterId="3401" height="16.0" transform="matrix(1.0, 0.0, 0.0, 1.0, -58.1, -1.1)" width="42.9" xlink:href="#text4"/>
  </g>
  <defs>
    <g id="shape0" transform="matrix(1.0, 0.0, 0.0, 1.0, 59.0, 12.35)">
      <path d="M-58.5 -11.85 L-58.5 12.5" fill="none" stroke="#000000" stroke-linecap="round" stroke-linejoin="round" stroke-width="1.0"/>
    </g>
  </defs>
</svg>
