<?xml version="1.0" encoding="UTF-8" standalone="no"?>
<svg xmlns:ffdec="https://www.free-decompiler.com/flash" xmlns:xlink="http://www.w3.org/1999/xlink" ffdec:objectType="frame" height="122.1px" width="49.0px" xmlns="http://www.w3.org/2000/svg">
  <g transform="matrix(2.0, 0.0, 0.0, 2.0, 24.5, 61.0)">
    <use ffdec:characterId="3110" height="61.05" transform="matrix(1.0, 0.0, 0.0, 1.0, -12.25, -30.5)" width="24.5" xlink:href="#shape0"/>
    <use ffdec:characterId="3111" height="40.5" transform="matrix(1.0, 0.0, 0.0, 1.0, -5.5, -22.5)" width="11.0" xlink:href="#shape1"/>
  </g>
  <defs>
    <g id="shape0" transform="matrix(1.0, 0.0, 0.0, 1.0, 12.25, 30.5)">
      <path d="M-11.75 -30.0 L11.75 -30.0 11.75 30.05 -11.75 30.05 -11.75 -30.0" fill="url(#gradient0)" fill-rule="evenodd" stroke="none"/>
      <path d="M-11.75 -30.0 L11.75 -30.0 11.75 30.05 -11.75 30.05 -11.75 -30.0 Z" fill="none" stroke="#000000" stroke-linecap="round" stroke-linejoin="round" stroke-width="1.0"/>
    </g>
    <linearGradient gradientTransform="matrix(0.0143, 0.0, 0.0, 0.0367, 0.0, 0.0)" gradientUnits="userSpaceOnUse" id="gradient0" spreadMethod="pad" x1="-819.2" x2="819.2">
      <stop offset="0.0" stop-color="#808080"/>
      <stop offset="0.1411764705882353" stop-color="#151515"/>
      <stop offset="0.7725490196078432" stop-color="#373737"/>
      <stop offset="1.0" stop-color="#000000"/>
    </linearGradient>
    <g id="shape1" transform="matrix(1.0, 0.0, 0.0, 1.0, 5.5, 22.5)">
      <path d="M0.1 -21.8 L5.5 18.0 -5.5 18.0 0.1 -22.5 0.1 -21.8" fill="url(#gradient1)" fill-rule="evenodd" stroke="none"/>
    </g>
    <radialGradient cx="0" cy="0" gradientTransform="matrix(0.0313, 0.0, 0.0, 0.0313, 0.0, -7.0)" gradientUnits="userSpaceOnUse" id="gradient1" r="819.2" spreadMethod="pad">
      <stop offset="0.0" stop-color="#ad6d0e"/>
      <stop offset="1.0" stop-color="#5e3f11"/>
    </radialGradient>
  </defs>
</svg>
