<?xml version="1.0" encoding="UTF-8" standalone="no"?>
<svg xmlns:ffdec="https://www.free-decompiler.com/flash" xmlns:xlink="http://www.w3.org/1999/xlink" ffdec:objectType="frame" height="42.7px" width="16.5px" xmlns="http://www.w3.org/2000/svg">
  <g transform="matrix(2.0, 0.0, 0.0, 2.0, 8.2, 21.3)">
    <use ffdec:characterId="1291" height="21.35" transform="matrix(1.0, 0.0, 0.0, 1.0, -4.1, -10.65)" width="8.25" xlink:href="#shape0"/>
    <filter id="filter0">
      <feFlood flood-color="#ffff66" flood-opacity="1.0" result="filterResult0"/>
      <feComposite in="filterResult0" in2="SourceGraphic" operator="out" result="filterResult1"/>
      <feConvolveMatrix divisor="25.0" in="filterResult1" kernelMatrix="1 1 1 1 1 1 1 1 1 1 1 1 1 1 1 1 1 1 1 1 1 1 1 1 1" order="5 5" result="filterResult2"/>
      <feComposite in="filterResult2" in2="SourceGraphic" operator="in" result="filterResult3"/>
      <feComposite in="filterResult3" in2="SourceGraphic" operator="over" result="filterResult4"/>
      <feColorMatrix in="filterResult4" result="filterResult5" type="matrix" values="0 0 0 0 1.0,0 0 0 0 0.6,0 0 0 0 0.0,0 0 0 1 0"/>
      <feConvolveMatrix divisor="25.0" in="filterResult5" kernelMatrix="1 1 1 1 1 1 1 1 1 1 1 1 1 1 1 1 1 1 1 1 1 1 1 1 1" order="5 5" result="filterResult6"/>
      <feComposite in="filterResult4" in2="filterResult6" operator="over" result="filterResult7"/>
    </filter>
    <use ffdec:characterId="947" filter="url(#filter0)" height="15.5" transform="matrix(1.0, 0.0, 0.0, 1.0, -0.85, -9.1)" width="5.0" xlink:href="#sprite0"/>
  </g>
  <defs>
    <g id="shape0" transform="matrix(1.0, 0.0, 0.0, 1.0, 4.1, 10.65)">
      <path d="M2.3 5.9 L2.25 5.65 2.4 5.75 2.4 5.8 2.3 5.9" fill="url(#gradient0)" fill-rule="evenodd" stroke="none"/>
      <path d="M2.25 5.65 L2.4 5.7 2.4 5.75 2.25 5.65" fill="url(#gradient1)" fill-rule="evenodd" stroke="none"/>
      <path d="M2.3 5.9 L1.1 7.95 1.55 9.75 0.2 10.7 -4.1 7.1 -3.4 4.7 Q-2.05 6.15 -0.35 6.35 0.9 6.5 2.3 5.9" fill="url(#gradient2)" fill-rule="evenodd" stroke="none"/>
      <path d="M-3.4 4.7 L-3.4 4.65 Q-2.55 1.8 -3.6 -1.2 L-3.45 -5.3 Q-3.2 -7.1 -0.8 -10.65 L1.8 -9.1 Q-2.05 -1.85 -0.35 6.35 -2.05 6.15 -3.4 4.7" fill="url(#gradient3)" fill-rule="evenodd" stroke="none"/>
      <path d="M2.25 5.65 Q1.1 3.65 2.85 0.95 L4.05 -2.45 Q4.35 -4.95 3.55 -8.05 M2.4 5.7 L2.4 5.75 2.4 5.8 2.3 5.9 1.1 7.95 1.55 9.75 0.2 10.7 -4.1 7.1 -3.4 4.7 -3.4 4.65 Q-2.55 1.8 -3.6 -1.2 L-3.45 -5.3 Q-3.2 -7.1 -0.8 -10.65 M1.8 -9.1 Q-2.05 -1.85 -0.35 6.35 0.9 6.5 2.3 5.9 M2.25 5.65 L2.4 5.75 M-3.4 4.7 Q-2.05 6.15 -0.35 6.35" fill="none" stroke="#000000" stroke-linecap="round" stroke-linejoin="round" stroke-width="0.05"/>
    </g>
    <radialGradient cx="0" cy="0" gradientTransform="matrix(0.0155, 0.003, -0.0021, 0.0167, 1.0, -8.15)" gradientUnits="userSpaceOnUse" id="gradient0" r="819.2" spreadMethod="pad">
      <stop offset="0.0" stop-color="#525252"/>
      <stop offset="1.0" stop-color="#272727"/>
    </radialGradient>
    <radialGradient cx="0" cy="0" gradientTransform="matrix(0.0044, 9.0E-4, -6.0E-4, 0.0048, -0.45, 7.05)" gradientUnits="userSpaceOnUse" id="gradient1" r="819.2" spreadMethod="pad">
      <stop offset="0.0" stop-color="#929292"/>
      <stop offset="1.0" stop-color="#525252"/>
    </radialGradient>
    <radialGradient cx="0" cy="0" gradientTransform="matrix(0.0059, 0.0, 0.0, 0.0059, -0.4, 8.5)" gradientUnits="userSpaceOnUse" id="gradient2" r="819.2" spreadMethod="pad">
      <stop offset="0.0" stop-color="#817d8a"/>
      <stop offset="0.3803921568627451" stop-color="#413e4a"/>
      <stop offset="0.6823529411764706" stop-color="#221f25"/>
      <stop offset="0.9725490196078431" stop-color="#8c879a"/>
    </radialGradient>
    <radialGradient cx="0" cy="0" gradientTransform="matrix(0.0155, 0.003, -0.0021, 0.0167, 1.0, -8.15)" gradientUnits="userSpaceOnUse" id="gradient3" r="819.2" spreadMethod="pad">
      <stop offset="0.0" stop-color="#b3adb8"/>
      <stop offset="0.4235294117647059" stop-color="#222024"/>
      <stop offset="0.44313725490196076" stop-color="#222024"/>
      <stop offset="0.6470588235294118" stop-color="#4e434d"/>
      <stop offset="1.0" stop-color="#3c2b3a"/>
    </radialGradient>
    <g id="sprite0" transform="matrix(1.0, 0.0, 0.0, 1.0, 2.45, 7.75)">
      <use ffdec:characterId="946" height="15.5" transform="matrix(1.0, 0.0, 0.0, 1.0, -2.45, -7.75)" width="5.0" xlink:href="#shape1"/>
    </g>
    <g id="shape1" transform="matrix(1.0, 0.0, 0.0, 1.0, 2.45, 7.75)">
      <path d="M1.95 -6.7 Q2.75 -3.6 2.45 -1.1 L1.25 2.3 Q-0.5 5.0 0.65 7.0 L0.7 7.25 Q-0.7 7.85 -1.95 7.7 -3.65 -0.5 0.2 -7.75 L1.95 -6.7" fill="#ffffff" fill-rule="evenodd" stroke="none"/>
    </g>
  </defs>
</svg>
