<?xml version="1.0" encoding="UTF-8" standalone="no"?>
<svg xmlns:ffdec="https://www.free-decompiler.com/flash" xmlns:xlink="http://www.w3.org/1999/xlink" ffdec:objectType="frame" height="1152.4px" width="1625.9px" xmlns="http://www.w3.org/2000/svg">
  <g transform="matrix(2.0, 0.0, 0.0, 2.0, 812.9, 576.1)">
    <use ffdec:characterId="2847" height="24.0" transform="matrix(5.1649, 0.0, 0.0, 24.0083, -406.4371, -288.05)" width="157.4" xlink:href="#shape0"/>
    <filter id="filter1">
      <feOffset dx="3.5355799791601" dy="3.535487832104965" in="SourceGraphic" result="filterResult6"/>
      <feColorMatrix in="filterResult6" result="filterResult7" type="matrix" values="0 0 0 0 0.0,0 0 0 0 0.0,0 0 0 0 0.0,0 0 0 1 0"/>
      <feConvolveMatrix divisor="25.0" in="filterResult7" kernelMatrix="1 1 1 1 1 1 1 1 1 1 1 1 1 1 1 1 1 1 1 1 1 1 1 1 1" order="5 5" result="filterResult8"/>
      <feComposite in="SourceGraphic" in2="filterResult8" operator="over" result="filterResult9"/>
    </filter>
    <use ffdec:characterId="2846" filter="url(#filter1)" height="248.2" transform="matrix(1.0, 0.0, 0.0, 1.0, -237.25, -181.75)" width="474.5" xlink:href="#sprite0"/>
    <use ffdec:characterId="2842" height="19.05" transform="matrix(1.0, 0.0, 0.0, 1.0, -111.0, 24.8)" width="222.0" xlink:href="#text0"/>
    <use ffdec:characterId="2841" height="30.0" transform="matrix(8.0433, 0.0, 0.0, 1.0, -120.65, 18.0)" width="30.0" xlink:href="#button0"/>
  </g>
  <defs>
    <g id="shape0" transform="matrix(1.0, 0.0, 0.0, 1.0, 100.0, 12.0)">
      <path d="M-100.0 -12.0 L57.4 -12.0 57.4 12.0 -100.0 12.0 -100.0 -12.0" fill="#000000" fill-opacity="0.7019608" fill-rule="evenodd" stroke="none"/>
    </g>
    <g id="sprite0" transform="matrix(1.0, 0.0, 0.0, 1.0, 237.25, 124.1)">
      <use ffdec:characterId="2845" height="248.2" transform="matrix(1.0, 0.0, 0.0, 1.0, -237.25, -124.1)" width="474.5" xlink:href="#shape1"/>
      <filter id="filter0">
        <feFlood flood-color="#000000" flood-opacity="1.0" result="filterResult0"/>
        <feOffset dx="3.5355799791601" dy="3.535487832104965" in="SourceGraphic" result="filterResult1"/>
        <feComposite in="filterResult0" in2="filterResult1" operator="out" result="filterResult2"/>
        <feConvolveMatrix divisor="169.0" in="filterResult2" kernelMatrix="1 1 1 1 1 1 1 1 1 1 1 1 1 1 1 1 1 1 1 1 1 1 1 1 1 1 1 1 1 1 1 1 1 1 1 1 1 1 1 1 1 1 1 1 1 1 1 1 1 1 1 1 1 1 1 1 1 1 1 1 1 1 1 1 1 1 1 1 1 1 1 1 1 1 1 1 1 1 1 1 1 1 1 1 1 1 1 1 1 1 1 1 1 1 1 1 1 1 1 1 1 1 1 1 1 1 1 1 1 1 1 1 1 1 1 1 1 1 1 1 1 1 1 1 1 1 1 1 1 1 1 1 1 1 1 1 1 1 1 1 1 1 1 1 1 1 1 1 1 1 1 1 1 1 1 1 1 1 1 1 1 1 1 1 1 1 1 1 1" order="13 13" result="filterResult3"/>
        <feComposite in="filterResult3" in2="SourceGraphic" operator="in" result="filterResult4"/>
        <feComposite in="filterResult4" in2="SourceGraphic" operator="over" result="filterResult5"/>
      </filter>
      <use ffdec:characterId="2844" filter="url(#filter0)" height="223.25" transform="matrix(1.0, 0.0, 0.0, 1.0, -224.25, -111.6)" width="448.5" xlink:href="#sprite1"/>
    </g>
    <g id="shape1" transform="matrix(1.0, 0.0, 0.0, 1.0, 237.25, 124.1)">
      <path d="M236.75 123.6 L-236.75 123.6 -236.75 -123.6 236.75 -123.6 236.75 123.6" fill="url(#gradient0)" fill-rule="evenodd" stroke="none"/>
      <path d="M236.75 123.6 L-236.75 123.6 -236.75 -123.6 236.75 -123.6 236.75 123.6 Z" fill="none" stroke="#000000" stroke-linecap="round" stroke-linejoin="round" stroke-width="1.0"/>
    </g>
    <linearGradient gradientTransform="matrix(0.0, -0.1509, 0.289, 0.0, 0.0, 0.0)" gradientUnits="userSpaceOnUse" id="gradient0" spreadMethod="pad" x1="-819.2" x2="819.2">
      <stop offset="0.0" stop-color="#32333d"/>
      <stop offset="1.0" stop-color="#5e7377"/>
    </linearGradient>
    <g id="sprite1" transform="matrix(1.0, 0.0, 0.0, 1.0, 224.25, 111.6)">
      <use ffdec:characterId="2843" height="223.25" transform="matrix(1.0, 0.0, 0.0, 1.0, -224.25, -111.6)" width="448.5" xlink:href="#shape2"/>
    </g>
    <g id="shape2" transform="matrix(1.0, 0.0, 0.0, 1.0, 224.25, 111.6)">
      <path d="M-224.25 -111.6 L224.25 -111.6 224.25 111.65 -224.25 111.65 -224.25 -111.6" fill="url(#gradient1)" fill-rule="evenodd" stroke="none"/>
    </g>
    <radialGradient cx="0" cy="0" gradientTransform="matrix(0.527, 0.0, 0.0, 0.2868, -69.5, -60.55)" gradientUnits="userSpaceOnUse" id="gradient1" r="819.2" spreadMethod="pad">
      <stop offset="0.0" stop-color="#e1e1e1"/>
      <stop offset="1.0" stop-color="#777777"/>
    </radialGradient>
  </defs>
</svg>
