<?xml version="1.0" encoding="UTF-8" standalone="no"?>
<svg xmlns:ffdec="https://www.free-decompiler.com/flash" xmlns:xlink="http://www.w3.org/1999/xlink" ffdec:objectType="frame" height="113.2px" width="141.6px" xmlns="http://www.w3.org/2000/svg">
  <g transform="matrix(2.0, 0.0, 0.0, 2.0, 65.9, 57.2)">
    <use ffdec:characterId="2103" height="32.85" transform="matrix(1.0, 0.0, 0.0, 1.0, -9.9, -16.4)" width="19.85" xlink:href="#shape0"/>
    <filter id="filter0">
      <feColorMatrix in="SourceGraphic" result="filterResult0" type="matrix" values="0 0 0 0 1.0,0 0 0 0 0.0,0 0 0 0 0.0,0 0 0 1 0"/>
      <feConvolveMatrix divisor="36.0" in="filterResult0" kernelMatrix="1 1 1 1 1 1 1 1 1 1 1 1 1 1 1 1 1 1 1 1 1 1 1 1 1 1 1 1 1 1 1 1 1 1 1 1" order="6 6" result="filterResult1"/>
      <feComposite in="SourceGraphic" in2="filterResult1" operator="over" result="filterResult2"/>
    </filter>
    <use ffdec:characterId="2102" filter="url(#filter0)" height="21.7" transform="matrix(1.0, 0.0, 0.0, 1.0, -8.4, -13.3)" width="16.05" xlink:href="#sprite0"/>
    <filter id="filter1">
      <feFlood flood-color="#ffff99" flood-opacity="1.0" result="filterResult3"/>
      <feComposite in="filterResult3" in2="SourceGraphic" operator="out" result="filterResult4"/>
      <feConvolveMatrix divisor="25.0" in="filterResult4" kernelMatrix="1 1 1 1 1 1 1 1 1 1 1 1 1 1 1 1 1 1 1 1 1 1 1 1 1" order="5 5" result="filterResult5"/>
      <feComposite in="filterResult5" in2="SourceGraphic" operator="in" result="filterResult6"/>
      <feComposite in="filterResult6" in2="SourceGraphic" operator="over" result="filterResult7"/>
      <feColorMatrix in="filterResult7" result="filterResult8" type="matrix" values="0 0 0 0 1.0,0 0 0 0 0.8,0 0 0 0 0.0,0 0 0 1 0"/>
      <feConvolveMatrix divisor="25.0" in="filterResult8" kernelMatrix="1 1 1 1 1 1 1 1 1 1 1 1 1 1 1 1 1 1 1 1 1 1 1 1 1" order="5 5" result="filterResult9"/>
      <feComposite in="filterResult7" in2="filterResult9" operator="over" result="filterResult10"/>
    </filter>
    <use ffdec:characterId="2100" filter="url(#filter1)" height="18.0" transform="matrix(1.0, 0.0, 0.0, 1.0, -4.8, -7.8)" width="13.55" xlink:href="#sprite1"/>
    <use ffdec:characterId="885" height="56.6" transform="matrix(1.0, 0.0, 0.0, 1.0, -32.95, -28.6)" width="70.8" xlink:href="#sprite2"/>
  </g>
  <defs>
    <g id="shape0" transform="matrix(1.0, 0.0, 0.0, 1.0, 9.9, 16.4)">
      <path d="M7.85 -7.65 L7.5 -6.95 7.4 -7.8 7.85 -7.65 M-5.85 -4.35 L-6.4 -5.55 -6.15 -5.6 -5.85 -4.35" fill="url(#gradient0)" fill-rule="evenodd" stroke="none"/>
      <path d="M5.7 10.05 L5.8 10.05 5.95 13.05 2.15 16.45 -5.0 12.6 -4.7 8.75 -2.3 9.05 5.7 10.05" fill="url(#gradient1)" fill-rule="evenodd" stroke="none"/>
      <path d="M6.55 -1.7 L6.55 -1.65 4.95 5.05 5.0 5.05 5.65 7.35 Q5.85 8.75 5.7 10.05 L-2.3 9.05 -2.5 6.7 Q-2.5 2.85 -0.65 0.1 1.2 -2.6 3.8 -2.6 L4.65 -2.5 Q5.65 -2.35 6.55 -1.7" fill="url(#gradient2)" fill-rule="evenodd" stroke="none"/>
      <path d="M7.5 -6.95 L7.75 -4.2 7.3 -3.3 7.1 -2.95 6.55 -1.7 Q5.65 -2.35 4.65 -2.5 L3.8 -2.6 Q1.2 -2.6 -0.65 0.1 -2.5 2.85 -2.5 6.7 L-2.3 9.05 -4.7 8.75 -5.1 4.45 -4.95 4.45 -4.95 4.4 Q-4.6 -0.75 -5.85 -4.35 L-6.15 -5.6 Q-3.4 -6.7 -2.4 -9.3 -1.95 -10.55 -1.9 -12.15 L-1.9 -12.65 -1.95 -14.05 -1.75 -14.1 -0.05 -16.4 4.4 -13.1 3.35 -12.35 5.4 -11.5 7.4 -7.8 7.5 -6.95" fill="url(#gradient3)" fill-rule="evenodd" stroke="none"/>
      <path d="M-6.15 -5.6 L-6.2 -5.7 -6.25 -5.7 -9.9 -7.8 Q-9.9 -11.6 -5.2 -13.65 L-1.95 -14.05 -1.9 -12.65 -1.9 -12.15 Q-1.95 -10.55 -2.4 -9.3 -3.4 -6.7 -6.15 -5.6" fill="url(#gradient4)" fill-rule="evenodd" stroke="none"/>
      <path d="M4.4 -13.1 L4.65 -13.1 Q9.15 -11.95 9.95 -9.1 L7.85 -7.65 7.4 -7.8 5.4 -11.5 3.35 -12.35 4.4 -13.1" fill="url(#gradient5)" fill-rule="evenodd" stroke="none"/>
      <path d="M4.65 -13.1 Q9.15 -11.95 9.95 -9.1 M7.85 -7.65 L7.5 -6.95 7.75 -4.2 7.3 -3.3 7.1 -2.95 6.55 -1.7 6.55 -1.65 4.95 5.05 5.0 5.05 5.65 7.35 Q5.85 8.75 5.7 10.05 L5.8 10.05 5.95 13.05 M-5.0 12.6 L-4.7 8.75 -5.1 4.45 -5.1 4.4 -4.95 4.45 -4.95 4.4 Q-4.6 -0.75 -5.85 -4.35 L-6.15 -5.6 -6.2 -5.7 -6.25 -5.7 M-9.9 -7.8 Q-9.9 -11.6 -5.2 -13.65 L-1.95 -14.05 -1.75 -14.1 -0.05 -16.4 4.4 -13.1 3.35 -12.35 M7.4 -7.8 L7.5 -6.95 M-2.3 9.05 L5.7 10.05 M-2.3 9.05 L-4.7 8.75" fill="none" stroke="#000000" stroke-linecap="round" stroke-linejoin="round" stroke-width="0.05"/>
      <path d="M0.9 -13.6 Q0.7 -15.15 1.4 -15.15 2.4 -15.15 3.05 -13.75 L3.55 -12.35 4.6 -12.35 Q5.25 -12.35 5.25 -11.75 L4.8 -11.1 4.7 -11.15 4.7 -11.1 4.2 -10.7 4.8 -11.05 4.95 -11.15 5.6 -11.0 5.7 -10.95 Q3.85 -9.9 3.65 -9.9 2.2 -9.9 -2.0 -11.9 L-2.0 -12.0 -3.0 -12.2 -3.8 -11.85 -4.5 -11.85 -4.55 -12.05 Q-4.55 -12.45 -2.1 -12.95 L-1.85 -12.85 -0.65 -12.5 1.2 -12.4 0.9 -13.6 M4.35 -9.35 Q4.95 -7.85 4.95 -4.5 L4.65 -2.8 5.1 -2.5 Q5.65 -2.15 6.5 -2.1 L6.6 -1.8 Q6.6 -1.5 5.9 -1.5 L4.35 -2.2 4.25 -2.0 4.25 -1.95 4.25 -1.3 5.0 -0.75 4.2 -0.65 3.65 4.1 4.6 4.25 4.95 4.55 4.95 4.65 3.6 4.65 3.3 6.65 3.2 6.75 2.7 5.6 2.7 4.7 1.15 5.1 Q0.6 5.4 0.35 5.85 L0.3 5.55 Q0.3 4.2 2.75 4.1 2.8 1.2 3.3 -0.5 0.9 -0.1 0.8 0.75 L0.75 0.8 Q0.3 0.8 0.3 0.45 0.3 -1.25 3.55 -1.35 L4.0 -2.15 3.9 -2.3 Q3.9 -3.0 4.4 -4.65 L4.4 -4.75 3.95 -8.85 Q3.95 -9.3 4.35 -9.35" fill="#000000" fill-opacity="0.3019608" fill-rule="evenodd" stroke="none"/>
    </g>
    <radialGradient cx="0" cy="0" gradientTransform="matrix(0.0222, 0.0, 0.0, 0.0222, 2.85, -1.75)" gradientUnits="userSpaceOnUse" id="gradient0" r="819.2" spreadMethod="pad">
      <stop offset="0.0" stop-color="#6a7249"/>
      <stop offset="1.0" stop-color="#393a2c"/>
    </radialGradient>
    <radialGradient cx="0" cy="0" gradientTransform="matrix(0.0076, 0.0, 0.0, 0.0076, 0.4, 10.45)" gradientUnits="userSpaceOnUse" id="gradient1" r="819.2" spreadMethod="pad">
      <stop offset="0.0" stop-color="#595959"/>
      <stop offset="1.0" stop-color="#000000"/>
    </radialGradient>
    <radialGradient cx="0" cy="0" gradientTransform="matrix(0.0148, 0.0, 0.0, 0.0148, 3.45, 9.45)" gradientUnits="userSpaceOnUse" id="gradient2" r="819.2" spreadMethod="pad">
      <stop offset="0.0" stop-color="#3d292e"/>
      <stop offset="0.49411764705882355" stop-color="#120e14"/>
      <stop offset="0.6784313725490196" stop-color="#000000"/>
      <stop offset="1.0" stop-color="#211b20"/>
    </radialGradient>
    <radialGradient cx="0" cy="0" gradientTransform="matrix(0.0098, 0.0011, -0.0018, 0.0157, 0.8, -3.65)" gradientUnits="userSpaceOnUse" id="gradient3" r="819.2" spreadMethod="pad">
      <stop offset="0.0" stop-color="#3d292e"/>
      <stop offset="0.49411764705882355" stop-color="#120e14"/>
      <stop offset="0.6784313725490196" stop-color="#000000"/>
      <stop offset="1.0" stop-color="#211b20"/>
    </radialGradient>
    <radialGradient cx="0" cy="0" gradientTransform="matrix(0.0076, 0.0, 0.0, 0.0076, -6.55, -9.95)" gradientUnits="userSpaceOnUse" id="gradient4" r="819.2" spreadMethod="pad">
      <stop offset="0.0" stop-color="#3d292e"/>
      <stop offset="0.49411764705882355" stop-color="#120e14"/>
      <stop offset="0.6784313725490196" stop-color="#000000"/>
      <stop offset="1.0" stop-color="#211b20"/>
    </radialGradient>
    <radialGradient cx="0" cy="0" gradientTransform="matrix(0.0065, 0.0, 0.0, 0.0065, 7.6, -9.15)" gradientUnits="userSpaceOnUse" id="gradient5" r="819.2" spreadMethod="pad">
      <stop offset="0.0" stop-color="#3d292e"/>
      <stop offset="0.49411764705882355" stop-color="#120e14"/>
      <stop offset="0.6784313725490196" stop-color="#000000"/>
      <stop offset="1.0" stop-color="#211b20"/>
    </radialGradient>
    <g id="sprite0" transform="matrix(1.0, 0.0, 0.0, 1.0, 8.05, 10.85)">
      <use ffdec:characterId="2101" height="21.7" transform="matrix(1.0, 0.0, 0.0, 1.0, -8.05, -10.85)" width="16.05" xlink:href="#shape1"/>
    </g>
    <g id="shape1" transform="matrix(1.0, 0.0, 0.0, 1.0, 8.05, 10.85)">
      <path d="M3.25 -6.55 L4.2 -3.8 Q6.4 -3.95 6.85 -4.6 L7.6 -6.05 Q8.0 -5.8 8.0 -5.45 8.0 -3.3 4.35 -3.0 L4.35 -2.3 Q4.35 -1.6 2.3 -0.55 0.25 0.5 0.25 2.2 0.25 3.4 1.45 3.55 2.35 3.45 2.45 3.2 L2.45 2.5 1.9 2.75 1.45 2.45 1.45 1.9 Q1.8 1.55 2.4 1.55 L3.1 1.85 Q3.35 1.75 3.35 2.4 3.35 4.35 1.6 4.35 0.5 4.35 -0.15 3.45 L-0.65 2.4 Q-0.65 -0.05 1.5 -1.05 3.25 -1.9 3.55 -2.95 L2.9 -2.95 Q1.15 -2.95 -0.35 -5.15 L-0.4 -5.3 -0.4 -5.15 Q-0.4 -4.05 -0.65 -3.55 L-1.0 -3.55 Q-0.3 -8.4 -4.9 -10.6 L-4.4 -10.85 Q-1.2 -10.85 -0.5 -6.1 L0.55 -5.0 Q1.85 -3.8 2.9 -3.8 L3.55 -3.8 2.95 -6.3 3.25 -6.55 M2.75 7.95 L2.5 8.45 Q2.5 8.85 4.2 10.5 L4.15 10.7 3.6 10.85 Q1.8 10.85 1.6 8.4 1.6 7.7 2.6 7.15 3.45 6.7 4.0 6.7 5.85 6.7 5.45 7.85 L5.4 8.35 Q5.6 8.55 5.0 8.55 4.55 8.55 4.6 8.1 4.6 7.6 4.1 7.6 L2.75 7.95 M-8.05 -9.7 Q-7.9 -9.9 -7.75 -9.9 -3.25 -9.9 -1.9 -2.8 -1.9 -0.75 -3.65 2.45 L-3.95 2.45 -2.55 -2.85 Q-2.55 -4.4 -4.0 -6.45 -5.7 -8.75 -8.0 -9.3 L-8.05 -9.7" fill="#fe8989" fill-rule="evenodd" stroke="none"/>
    </g>
    <g id="sprite1" transform="matrix(1.0, 0.0, 0.0, 1.0, 6.8, 9.0)">
      <use ffdec:characterId="2099" height="18.0" transform="matrix(1.0, 0.0, 0.0, 1.0, -6.8, -9.0)" width="13.55" xlink:href="#shape2"/>
    </g>
    <g id="shape2" transform="matrix(1.0, 0.0, 0.0, 1.0, 6.8, 9.0)">
      <path d="M4.85 -7.8 L5.35 -8.6 5.8 -9.0 6.4 -8.95 6.65 -8.85 6.75 -8.75 6.75 -8.6 6.6 -8.4 5.85 -8.1 5.5 -7.3 5.45 -7.15 5.1 -6.8 4.25 -5.9 4.05 -5.65 4.1 -5.6 4.2 -5.45 3.9 -3.05 3.8 -0.35 Q3.8 1.1 3.0 2.0 2.35 0.95 2.7 -0.65 L3.05 -3.65 3.15 -4.6 3.0 -4.45 2.4 -3.85 2.4 -3.7 2.4 -3.55 2.4 -3.25 2.4 -2.95 2.4 -2.8 2.35 -2.65 1.4 -2.05 1.4 -1.25 1.15 0.5 0.8 2.15 Q-0.05 2.1 0.1 1.05 L0.2 -0.6 0.2 -1.3 0.15 -1.3 Q-1.0 -0.5 -1.75 0.75 -1.4 1.7 -1.6 3.0 L-1.9 6.0 Q-1.95 7.55 -2.6 8.6 -3.4 7.5 -3.0 5.65 -2.7 4.15 -2.7 2.65 L-2.7 2.45 -3.4 3.55 -3.55 3.55 -3.6 3.55 -3.55 4.1 -3.55 5.45 -3.7 6.8 -3.8 6.95 -3.95 7.1 -4.2 7.2 -4.35 7.3 -4.4 7.4 -4.4 7.7 -4.4 8.15 -4.5 8.7 -4.8 9.0 Q-5.45 8.25 -5.3 6.95 L-5.1 4.7 -5.05 4.3 -4.95 3.7 -5.1 3.55 Q-5.9 3.75 -6.8 3.55 L-5.6 2.6 -5.25 2.2 -4.4 1.45 Q-4.1 1.05 -4.2 0.55 L-4.0 0.25 -3.55 -0.15 -3.5 -0.15 Q-3.35 -1.4 -1.9 -2.65 L-0.35 -3.85 -0.8 -4.35 -0.8 -4.5 -0.7 -4.8 -0.45 -5.2 -0.2 -5.4 0.4 -5.35 0.65 -5.3 0.75 -5.15 0.8 -4.85 0.8 -4.65 2.05 -5.4 3.0 -6.0 3.85 -6.8 4.2 -7.05 4.8 -7.8 4.85 -7.8 M1.6 -7.6 Q2.1 -7.5 1.9 -7.05 1.75 -6.65 1.35 -6.95 1.0 -7.2 1.35 -7.45 L1.6 -7.6 M-3.4 -4.2 Q-2.95 -4.1 -3.0 -3.65 -3.05 -3.25 -3.4 -3.25 L-4.25 -3.35 -4.4 -3.45 -4.35 -3.7 -3.65 -4.15 -3.4 -4.2" fill="#ffffff" fill-rule="evenodd" stroke="none"/>
    </g>
    <g id="sprite2" transform="matrix(1.0, 0.0, 0.0, 1.0, 36.75, 32.65)">
      <filter id="filter2">
        <feColorMatrix in="SourceGraphic" result="filterResult11" type="matrix" values="0 0 0 0 1.0,0 0 0 0 0.8,0 0 0 0 0.0,0 0 0 1 0"/>
        <feConvolveMatrix divisor="81.0" in="filterResult11" kernelMatrix="1 1 1 1 1 1 1 1 1 1 1 1 1 1 1 1 1 1 1 1 1 1 1 1 1 1 1 1 1 1 1 1 1 1 1 1 1 1 1 1 1 1 1 1 1 1 1 1 1 1 1 1 1 1 1 1 1 1 1 1 1 1 1 1 1 1 1 1 1 1 1 1 1 1 1 1 1 1 1 1 1" order="9 9" result="filterResult12"/>
        <feComposite in="SourceGraphic" in2="filterResult12" operator="over" result="filterResult13"/>
      </filter>
      <use ffdec:characterId="884" filter="url(#filter2)" height="130.05" transform="matrix(0.4351, 0.0, 0.0, 0.4351, -36.7708, -32.6399)" width="162.75" xlink:href="#sprite3"/>
    </g>
    <g id="sprite3" transform="matrix(1.0, 0.0, 0.0, 1.0, 79.0, 69.85)">
      <use ffdec:characterId="867" height="87.75" transform="matrix(1.0, 0.0, 0.0, 1.0, -28.55, -43.85)" width="64.6" xlink:href="#shape3"/>
    </g>
    <g id="shape3" transform="matrix(1.0, 0.0, 0.0, 1.0, 28.55, 43.85)">
      <path d="M17.5 -42.1 L10.65 -30.45 Q6.5 -23.35 2.45 -20.1 1.95 -20.2 1.95 -21.35 2.45 -21.45 2.45 -20.85 L10.15 -33.85 Q15.9 -43.85 17.95 -43.85 18.5 -43.85 21.0 -40.25 21.0 -37.95 17.1 -27.8 15.15 -22.7 14.6 -20.0 L18.1 -17.8 Q21.9 -15.4 23.25 -15.1 L23.7 -14.35 Q23.35 -13.7 22.5 -13.3 L22.75 -13.2 Q22.75 -11.4 20.55 -10.15 L15.6 -8.2 Q8.4 -5.4 8.25 0.15 8.15 2.95 4.3 7.5 L-2.05 14.7 Q-8.1 22.7 -18.8 43.9 -20.05 42.9 -20.05 40.5 -20.05 38.4 -15.65 28.0 L-11.05 17.45 -10.55 17.9 -15.25 28.6 Q-19.55 38.75 -19.55 40.5 L-19.05 42.95 -18.9 43.15 -11.7 29.15 Q-6.95 20.2 -2.8 14.4 L3.3 7.55 Q7.3 2.9 7.0 0.15 5.8 -10.7 20.0 -12.35 L20.25 -12.6 11.7 -12.2 Q8.5 -12.2 6.85 -13.0 L3.95 -14.85 3.75 -15.6 3.85 -16.05 4.7 -16.2 14.7 -14.7 Q13.35 -15.85 12.2 -17.75 L12.25 -17.9 12.2 -18.0 12.2 -19.35 Q12.2 -21.2 15.7 -30.05 19.2 -38.9 19.2 -40.35 18.35 -41.75 17.5 -42.1 M28.5 19.95 Q28.45 20.45 27.2 20.45 22.55 20.45 16.7 15.45 11.35 10.85 11.45 8.9 L12.2 8.4 17.55 13.45 Q21.55 17.05 24.75 17.95 L21.3 14.9 Q18.75 12.4 18.75 10.65 18.8 6.7 15.8 5.1 L13.7 4.15 Q12.75 3.7 12.75 3.15 12.75 1.9 14.25 1.2 L19.95 6.15 Q21.5 7.45 21.2 8.75 L20.5 10.75 Q20.5 12.0 24.3 15.3 28.25 18.65 28.5 19.95 M-23.7 -11.95 Q-15.6 -12.55 -11.65 -13.45 -10.9 -13.05 -10.65 -12.45 L-12.05 -12.35 -12.55 -12.8 Q-14.3 -13.2 -26.3 -10.2 L-26.3 -10.1 Q-6.2 -6.4 -2.15 -5.2 L-2.05 -4.85 Q-1.55 -4.2 -2.8 -4.2 -5.9 -4.2 -14.55 -5.85 -24.05 -7.65 -28.4 -9.45 L-28.55 -10.2 Q-28.55 -11.6 -23.7 -11.95" fill="#ffffff" fill-rule="evenodd" stroke="none"/>
      <path d="M14.85 -10.5 Q14.5 -10.55 14.5 -11.35 14.5 -13.75 17.55 -13.35 17.8 -13.6 17.8 -12.35 17.8 -11.65 16.5 -10.5 L14.85 -10.5 M35.8 -19.35 Q36.05 -19.5 36.05 -18.25 L35.8 -17.1 Q36.25 -16.85 35.0 -16.85 L32.8 -17.1 32.3 -18.4 32.5 -19.35 34.25 -19.6 35.8 -19.35 M25.8 1.25 Q26.0 0.85 26.0 2.1 L25.8 3.05 Q26.75 3.5 25.5 3.5 23.65 3.5 22.75 3.0 22.5 3.25 22.5 2.0 L22.55 1.25 24.25 1.0 25.8 1.25 M-20.35 -23.35 Q-21.05 -22.35 -22.25 -22.35 L-23.75 -22.6 -24.1 -23.55 Q-24.1 -25.5 -22.25 -25.5 -20.7 -25.5 -20.35 -23.35 M-20.5 5.35 L-20.6 6.75 -22.5 7.05 Q-23.55 7.05 -24.35 6.05 -24.5 6.6 -24.5 5.35 -24.5 4.55 -22.0 3.5 -20.5 3.8 -20.5 5.35" fill="#ffffff" fill-rule="evenodd" stroke="none"/>
    </g>
  </defs>
</svg>
