<?xml version="1.0" encoding="UTF-8" standalone="no"?>
<svg xmlns:ffdec="https://www.free-decompiler.com/flash" xmlns:xlink="http://www.w3.org/1999/xlink" ffdec:objectType="frame" height="628.2px" width="1114.3px" xmlns="http://www.w3.org/2000/svg">
  <g transform="matrix(2.0, 0.0, 0.0, 2.0, 557.1, 314.1)">
    <use ffdec:characterId="2870" height="300.0" transform="matrix(1.0453, 0.0, 0.0, 1.047, -278.55, -157.05)" width="533.0" xlink:href="#shape0"/>
    <use ffdec:characterId="3785" height="61.45" transform="matrix(1.0, 0.0, 0.0, 1.0, -158.9, -26.75)" width="321.75" xlink:href="#text0"/>
  </g>
  <defs>
    <g id="shape0" transform="matrix(1.0, 0.0, 0.0, 1.0, 0.0, 0.0)">
      <path d="M533.0 300.0 L0.0 300.0 0.0 0.0 533.0 0.0 533.0 300.0" fill="#ffffff" fill-rule="evenodd" stroke="none"/>
    </g>
    <g id="text0" transform="matrix(1.0, 0.0, 0.0, 1.0, -52.5, -5.35)">
      <g transform="matrix(1.0, 0.0, 0.0, 1.0, 0.0, 0.0)">
        <use fill="#000000" height="61.45" transform="matrix(0.0264, 0.0, 0.0, 0.0264, 52.0, 26.0)" width="321.75" xlink:href="#font_Rockwell_w0"/>
        <use fill="#000000" height="61.45" transform="matrix(0.0264, 0.0, 0.0, 0.0264, 73.95, 26.0)" width="321.75" xlink:href="#font_Rockwell_w0"/>
        <use fill="#000000" height="61.45" transform="matrix(0.0264, 0.0, 0.0, 0.0264, 95.9, 26.0)" width="321.75" xlink:href="#font_Rockwell_w0"/>
        <use fill="#000000" height="61.45" transform="matrix(0.0264, 0.0, 0.0, 0.0264, 117.85, 26.0)" width="321.75" xlink:href="#font_Rockwell_.0"/>
        <use fill="#000000" height="61.45" transform="matrix(0.0264, 0.0, 0.0, 0.0264, 127.4, 26.0)" width="321.75" xlink:href="#font_Rockwell_A0"/>
        <use fill="#000000" height="61.45" transform="matrix(0.0264, 0.0, 0.0, 0.0264, 146.25, 26.0)" width="321.75" xlink:href="#font_Rockwell_r0"/>
        <use fill="#000000" height="61.45" transform="matrix(0.0264, 0.0, 0.0, 0.0264, 158.35, 26.0)" width="321.75" xlink:href="#font_Rockwell_m0"/>
        <use fill="#000000" height="61.45" transform="matrix(0.0264, 0.0, 0.0, 0.0264, 185.1, 26.0)" width="321.75" xlink:href="#font_Rockwell_o0"/>
        <use fill="#000000" height="61.45" transform="matrix(0.0264, 0.0, 0.0, 0.0264, 200.6, 26.0)" width="321.75" xlink:href="#font_Rockwell_r0"/>
        <use fill="#000000" height="61.45" transform="matrix(0.0264, 0.0, 0.0, 0.0264, 212.7, 26.0)" width="321.75" xlink:href="#font_Rockwell_G0"/>
        <use fill="#000000" height="61.45" transform="matrix(0.0264, 0.0, 0.0, 0.0264, 235.5, 26.0)" width="321.75" xlink:href="#font_Rockwell_a0"/>
        <use fill="#000000" height="61.45" transform="matrix(0.0264, 0.0, 0.0, 0.0264, 251.25, 26.0)" width="321.75" xlink:href="#font_Rockwell_m0"/>
        <use fill="#000000" height="61.45" transform="matrix(0.0264, 0.0, 0.0, 0.0264, 278.0, 26.0)" width="321.75" xlink:href="#font_Rockwell_e0"/>
        <use fill="#000000" height="61.45" transform="matrix(0.0264, 0.0, 0.0, 0.0264, 293.5, 26.0)" width="321.75" xlink:href="#font_Rockwell_s0"/>
        <use fill="#000000" height="61.45" transform="matrix(0.0264, 0.0, 0.0, 0.0264, 307.25, 26.0)" width="321.75" xlink:href="#font_Rockwell_.0"/>
        <use fill="#000000" height="61.45" transform="matrix(0.0264, 0.0, 0.0, 0.0264, 316.8, 26.0)" width="321.75" xlink:href="#font_Rockwell_c0"/>
        <use fill="#000000" height="61.45" transform="matrix(0.0264, 0.0, 0.0, 0.0264, 332.0, 26.0)" width="321.75" xlink:href="#font_Rockwell_o0"/>
        <use fill="#000000" height="61.45" transform="matrix(0.0264, 0.0, 0.0, 0.0264, 347.5, 26.0)" width="321.75" xlink:href="#font_Rockwell_m0"/>
      </g>
      <g transform="matrix(1.0, 0.0, 0.0, 1.0, 0.0, 0.0)">
        <use fill="#000000" height="61.45" transform="matrix(0.0264, 0.0, 0.0, 0.0264, 157.0, 60.0)" width="321.75" xlink:href="#font_Rockwell_p0"/>
        <use fill="#000000" height="61.45" transform="matrix(0.0264, 0.0, 0.0, 0.0264, 173.9, 60.0)" width="321.75" xlink:href="#font_Rockwell_r0"/>
        <use fill="#000000" height="61.45" transform="matrix(0.0264, 0.0, 0.0, 0.0264, 186.0, 60.0)" width="321.75" xlink:href="#font_Rockwell_e0"/>
        <use fill="#000000" height="61.45" transform="matrix(0.0264, 0.0, 0.0, 0.0264, 201.5, 60.0)" width="321.75" xlink:href="#font_Rockwell_s0"/>
        <use fill="#000000" height="61.45" transform="matrix(0.0264, 0.0, 0.0, 0.0264, 215.25, 60.0)" width="321.75" xlink:href="#font_Rockwell_e0"/>
        <use fill="#000000" height="61.45" transform="matrix(0.0264, 0.0, 0.0, 0.0264, 230.75, 60.0)" width="321.75" xlink:href="#font_Rockwell_n0"/>
        <use fill="#000000" height="61.45" transform="matrix(0.0264, 0.0, 0.0, 0.0264, 247.65, 60.0)" width="321.75" xlink:href="#font_Rockwell_t0"/>
        <use fill="#000000" height="61.45" transform="matrix(0.0264, 0.0, 0.0, 0.0264, 256.95, 60.0)" width="321.75" xlink:href="#font_Rockwell_s0"/>
      </g>
    </g>
    <g id="font_Rockwell_w0">
      <path d="M325.5 8.0 L325.5 8.0 418.5 -277.0 513.5 8.0 647.0 8.0 772.0 -372.0 832.0 -372.0 832.0 -484.0 600.0 -484.0 600.0 -372.0 653.0 -372.0 595.0 -195.0 499.0 -484.0 367.5 -484.0 272.5 -194.0 213.0 -372.0 268.0 -372.0 268.0 -484.0 4.0 -484.0 4.0 -372.0 64.0 -372.0 190.5 8.0 325.5 8.0" fill-rule="evenodd" stroke="none"/>
    </g>
    <g id="font_Rockwell_.0">
      <path d="M268.0 0.0 L268.0 0.0 268.0 -168.0 100.0 -168.0 100.0 0.0 268.0 0.0" fill-rule="evenodd" stroke="none"/>
    </g>
    <g id="font_Rockwell_A0">
      <path d="M281.0 -340.0 L281.0 -340.0 343.5 -550.5 401.5 -340.0 281.0 -340.0 M632.0 -116.0 L632.0 -116.0 486.5 -580.0 580.0 -580.0 580.0 -696.0 128.0 -696.0 128.0 -580.0 219.0 -580.0 84.0 -116.0 -4.0 -116.0 -4.0 0.0 304.0 0.0 304.0 -116.0 212.5 -116.0 249.5 -236.0 429.5 -236.0 462.5 -116.0 372.0 -116.0 372.0 0.0 716.0 0.0 716.0 -116.0 632.0 -116.0" fill-rule="evenodd" stroke="none"/>
    </g>
    <g id="font_Rockwell_r0">
      <path d="M272.0 -112.0 L272.0 -112.0 272.0 -172.0 Q272.0 -232.5 296.0 -277.0 320.0 -321.5 357.0 -335.0 393.5 -348.0 452.0 -348.0 L452.0 -495.5 Q437.5 -496.0 427.0 -496.0 364.5 -496.0 319.0 -457.0 273.0 -417.5 260.0 -364.0 L260.0 -484.0 32.0 -484.0 32.0 -372.0 116.0 -372.0 116.0 -112.0 28.0 -112.0 28.0 0.0 368.0 0.0 368.0 -112.0 272.0 -112.0" fill-rule="evenodd" stroke="none"/>
    </g>
    <g id="font_Rockwell_m0">
      <path d="M108.0 -372.0 L108.0 -372.0 108.0 -112.0 28.0 -112.0 28.0 0.0 344.0 0.0 344.0 -112.0 264.0 -112.0 264.0 -331.0 Q326.5 -364.0 374.5 -364.0 436.0 -364.0 436.0 -282.5 L436.0 0.0 672.0 0.0 672.0 -112.0 592.0 -112.0 592.0 -331.0 Q650.5 -364.0 700.5 -364.0 764.0 -364.0 764.0 -287.0 L764.0 0.0 1000.0 0.0 1000.0 -112.0 920.0 -112.0 920.0 -298.5 Q920.0 -375.0 906.0 -413.0 892.5 -451.0 855.0 -473.5 817.5 -496.0 757.5 -496.0 656.5 -496.0 564.0 -428.0 513.0 -496.0 420.0 -496.0 342.5 -496.0 264.0 -448.0 L264.0 -484.0 28.0 -484.0 28.0 -372.0 108.0 -372.0" fill-rule="evenodd" stroke="none"/>
    </g>
    <g id="font_Rockwell_o0">
      <path d="M293.5 -108.0 L293.5 -108.0 Q246.5 -108.0 223.5 -144.5 200.0 -181.5 200.0 -238.0 200.0 -376.0 293.5 -376.0 337.0 -376.0 362.5 -341.0 388.0 -306.5 388.0 -244.5 388.0 -174.0 362.0 -141.0 335.5 -108.0 293.5 -108.0 M294.0 12.0 L294.0 12.0 Q403.0 12.0 475.5 -56.5 548.0 -125.0 548.0 -242.0 548.0 -360.0 474.5 -428.0 401.5 -496.0 294.0 -496.0 187.0 -496.0 113.5 -428.0 40.0 -360.0 40.0 -242.0 40.0 -123.5 113.5 -56.0 187.0 12.0 294.0 12.0" fill-rule="evenodd" stroke="none"/>
    </g>
    <g id="font_Rockwell_G0">
      <path d="M612.0 -236.0 L612.0 -236.0 Q596.0 -179.5 555.0 -147.5 513.5 -116.0 451.0 -116.0 366.0 -116.0 307.0 -178.5 248.0 -241.5 248.0 -361.0 248.0 -465.5 306.0 -525.0 364.0 -584.0 446.0 -584.0 508.5 -584.0 563.0 -547.5 617.5 -511.0 636.0 -448.0 L756.0 -448.0 756.0 -696.0 636.0 -696.0 636.0 -640.0 Q558.5 -708.0 419.0 -708.0 320.0 -708.0 236.0 -665.5 151.5 -623.5 102.0 -540.0 52.0 -456.5 52.0 -348.0 52.0 -191.5 152.5 -89.5 253.5 12.0 442.0 12.0 550.0 12.0 637.5 -31.0 724.5 -74.0 770.5 -149.0 816.0 -224.0 816.0 -352.0 L488.0 -352.0 488.0 -236.0 612.0 -236.0" fill-rule="evenodd" stroke="none"/>
    </g>
    <g id="font_Rockwell_a0">
      <path d="M348.0 -134.5 L348.0 -134.5 Q294.0 -84.0 250.5 -84.0 223.0 -84.0 205.5 -103.0 188.0 -121.5 188.0 -148.0 188.0 -177.0 210.0 -192.5 231.5 -208.0 258.5 -208.0 292.0 -208.0 348.0 -173.0 L348.0 -134.5 M504.0 -112.0 L504.0 -112.0 504.0 -288.0 Q504.0 -355.0 495.0 -385.0 485.5 -414.5 463.0 -439.5 440.5 -464.5 394.5 -480.5 348.5 -496.0 278.5 -496.0 98.0 -496.0 44.0 -385.5 L168.0 -364.0 Q204.5 -400.0 256.5 -400.0 298.5 -400.0 323.0 -374.5 348.0 -349.0 348.0 -309.5 L348.0 -279.5 Q285.0 -304.0 236.5 -304.0 150.0 -304.0 95.0 -257.0 40.0 -209.5 40.0 -139.5 40.0 -70.5 92.0 -29.0 144.5 12.0 216.0 12.0 285.5 12.0 348.0 -35.0 L348.0 0.0 584.0 0.0 584.0 -112.0 504.0 -112.0" fill-rule="evenodd" stroke="none"/>
    </g>
    <g id="font_Rockwell_e0">
      <path d="M196.0 -296.0 L196.0 -296.0 Q210.0 -400.0 294.0 -400.0 338.5 -400.0 365.0 -369.5 391.5 -339.0 396.0 -296.0 L196.0 -296.0 M429.0 -144.0 L429.0 -144.0 Q373.0 -84.0 317.5 -84.0 275.5 -84.0 237.5 -112.0 199.5 -140.5 196.0 -208.0 L552.0 -208.0 Q552.0 -285.5 528.5 -348.5 505.0 -411.5 445.0 -453.5 384.5 -496.0 302.0 -496.0 187.5 -496.0 114.0 -421.0 40.0 -345.5 40.0 -233.5 40.0 -123.0 112.0 -55.5 183.5 12.0 312.0 12.0 472.5 12.0 548.0 -105.5 L429.0 -144.0" fill-rule="evenodd" stroke="none"/>
    </g>
    <g id="font_Rockwell_s0">
      <path d="M172.0 0.0 L172.0 0.0 172.0 -25.5 Q204.5 12.0 291.5 12.0 385.5 12.0 437.0 -34.0 488.0 -79.5 488.0 -151.5 488.0 -202.0 461.0 -238.5 434.0 -274.5 389.0 -290.0 344.0 -306.0 253.0 -321.5 196.0 -331.0 182.0 -339.0 168.0 -346.5 168.0 -361.0 168.0 -400.0 239.5 -400.0 336.0 -400.0 352.0 -348.0 L456.0 -348.0 456.0 -484.0 352.0 -484.0 352.0 -470.5 Q293.0 -496.0 225.5 -496.0 141.5 -496.0 90.5 -454.5 40.0 -413.0 40.0 -352.5 40.0 -288.0 92.5 -249.0 145.0 -210.0 263.5 -190.0 320.5 -180.0 340.5 -169.5 360.0 -159.0 360.0 -139.5 360.0 -119.0 338.5 -105.5 317.0 -92.0 278.5 -92.0 234.0 -92.0 204.0 -112.5 173.5 -133.5 172.0 -168.0 L60.0 -168.0 60.0 0.0 172.0 0.0" fill-rule="evenodd" stroke="none"/>
    </g>
    <g id="font_Rockwell_c0">
      <path d="M432.0 -484.0 L432.0 -484.0 432.0 -444.0 Q364.0 -496.0 285.5 -496.0 187.5 -496.0 114.0 -428.5 40.0 -361.0 40.0 -244.0 40.0 -127.5 115.5 -57.5 190.5 12.0 317.0 12.0 485.0 12.0 552.0 -134.0 L432.0 -184.0 Q412.0 -149.5 379.5 -129.0 346.5 -108.0 310.0 -108.0 263.5 -108.0 232.0 -141.5 200.0 -175.0 200.0 -245.0 200.0 -303.0 229.5 -337.5 259.0 -372.0 309.0 -372.0 387.5 -372.0 424.0 -292.0 L536.0 -292.0 536.0 -484.0 432.0 -484.0" fill-rule="evenodd" stroke="none"/>
    </g>
    <g id="font_Rockwell_p0">
      <path d="M444.0 -243.5 L444.0 -243.5 Q444.0 -176.0 417.5 -144.0 391.5 -112.0 350.5 -112.0 305.5 -112.0 279.0 -147.5 252.0 -183.0 252.0 -241.5 252.0 -306.5 279.0 -339.0 306.0 -372.0 349.5 -372.0 392.0 -372.0 418.0 -340.0 444.0 -308.0 444.0 -243.5 M256.0 108.0 L256.0 108.0 256.0 -48.0 Q319.5 12.0 396.5 12.0 491.0 12.0 547.5 -59.5 604.0 -130.5 604.0 -239.0 604.0 -342.0 549.0 -419.0 494.5 -496.0 399.0 -496.0 320.0 -496.0 256.0 -426.0 L256.0 -484.0 32.0 -484.0 32.0 -372.0 100.0 -372.0 100.0 108.0 20.0 108.0 20.0 220.0 352.0 220.0 352.0 108.0 256.0 108.0" fill-rule="evenodd" stroke="none"/>
    </g>
    <g id="font_Rockwell_n0">
      <path d="M112.0 -372.0 L112.0 -372.0 112.0 -112.0 32.0 -112.0 32.0 0.0 344.0 0.0 344.0 -112.0 268.0 -112.0 268.0 -332.5 Q311.0 -364.0 352.0 -364.0 375.5 -364.0 385.5 -349.5 396.0 -335.0 396.0 -295.0 L396.0 0.0 632.0 0.0 632.0 -112.0 552.0 -112.0 552.0 -307.0 Q552.0 -496.0 408.0 -496.0 337.0 -496.0 268.0 -444.0 L268.0 -484.0 32.0 -484.0 32.0 -372.0 112.0 -372.0" fill-rule="evenodd" stroke="none"/>
    </g>
    <g id="font_Rockwell_t0">
      <path d="M80.0 -372.0 L80.0 -372.0 80.0 -115.5 Q80.0 12.0 207.5 12.0 264.5 12.0 324.0 -12.0 L324.0 -118.0 Q297.5 -108.0 276.0 -108.0 250.5 -108.0 243.0 -118.0 236.0 -128.0 236.0 -157.0 L236.0 -372.0 324.0 -372.0 324.0 -484.0 236.0 -484.0 236.0 -672.0 80.0 -560.0 80.0 -484.0 20.0 -484.0 20.0 -372.0 80.0 -372.0" fill-rule="evenodd" stroke="none"/>
    </g>
  </defs>
</svg>
