<?xml version="1.0" encoding="UTF-8" standalone="no"?>
<svg xmlns:ffdec="https://www.free-decompiler.com/flash" xmlns:xlink="http://www.w3.org/1999/xlink" ffdec:objectType="frame" height="260.0px" width="841.5px" xmlns="http://www.w3.org/2000/svg">
  <g transform="matrix(2.0, 0.0, 0.0, 2.0, 0.0, 0.0)">
    <use ffdec:characterId="3931" height="130.0" transform="matrix(1.0, 0.0, 0.0, 1.0, 0.0, 0.0)" width="420.75" xlink:href="#morphshape0"/>
  </g>
  <defs>
    <g id="morphshape0" transform="matrix(1.0, 0.0, 0.0, 1.0, 0.0, 0.0)">
      <path d="M0.0 65.0 Q0.0 91.9 61.6 110.95 123.25 130.0 210.35 130.0 297.5 130.0 359.1 110.95 420.75 91.9 420.75 65.0 420.75 38.1 359.1 19.05 297.5 0.0 210.35 0.0 123.25 0.0 61.6 19.05 0.0 38.1 0.0 65.0" fill="#010101" fill-opacity="0.0" fill-rule="evenodd" stroke="none"/>
      <path d="M0.0 65.0 Q0.0 38.1 61.6 19.05 123.25 0.0 210.35 0.0 297.5 0.0 359.1 19.05 420.75 38.1 420.75 65.0 420.75 91.9 359.1 110.95 297.5 130.0 210.35 130.0 123.25 130.0 61.6 110.95 0.0 91.9 0.0 65.0 Z" fill="none" stroke="#000000" stroke-linecap="round" stroke-linejoin="round" stroke-opacity="0.0" stroke-width="0.0"/>
    </g>
  </defs>
</svg>
