<?xml version="1.0" encoding="UTF-8" standalone="no"?>
<svg xmlns:ffdec="https://www.free-decompiler.com/flash" xmlns:xlink="http://www.w3.org/1999/xlink" ffdec:objectType="frame" height="32.2px" width="33.6px" xmlns="http://www.w3.org/2000/svg">
  <g transform="matrix(2.0, 0.0, 0.0, 2.0, 21.2, 19.3)">
    <use ffdec:characterId="1299" height="16.1" transform="matrix(1.0, 0.0, 0.0, 1.0, -10.6, -9.65)" width="16.8" xlink:href="#shape0"/>
    <filter id="filter0">
      <feFlood flood-color="#00ff00" flood-opacity="1.0" result="filterResult0"/>
      <feComposite in="filterResult0" in2="SourceGraphic" operator="out" result="filterResult1"/>
      <feConvolveMatrix divisor="25.0" in="filterResult1" kernelMatrix="1 1 1 1 1 1 1 1 1 1 1 1 1 1 1 1 1 1 1 1 1 1 1 1 1" order="5 5" result="filterResult2"/>
      <feComposite in="filterResult2" in2="SourceGraphic" operator="in" result="filterResult3"/>
      <feComposite in="filterResult3" in2="SourceGraphic" operator="over" result="filterResult4"/>
      <feColorMatrix in="filterResult4" result="filterResult5" type="matrix" values="0 0 0 0 0.0,0 0 0 0 1.0,0 0 0 0 0.0,0 0 0 1 0"/>
      <feConvolveMatrix divisor="49.0" in="filterResult5" kernelMatrix="1 1 1 1 1 1 1 1 1 1 1 1 1 1 1 1 1 1 1 1 1 1 1 1 1 1 1 1 1 1 1 1 1 1 1 1 1 1 1 1 1 1 1 1 1 1 1 1 1" order="7 7" result="filterResult6"/>
      <feComposite in="filterResult4" in2="filterResult6" operator="over" result="filterResult7"/>
    </filter>
    <use ffdec:characterId="517" filter="url(#filter0)" height="4.15" transform="matrix(1.0, 0.0, 0.0, 1.0, -10.6, -0.5)" width="10.8" xlink:href="#sprite0"/>
  </g>
  <defs>
    <g id="shape0" transform="matrix(1.0, 0.0, 0.0, 1.0, 10.6, 9.65)">
      <path d="M4.2 -3.55 L5.15 -2.05 5.15 -2.0 Q0.7 3.65 -10.55 3.65 L-10.25 0.9 Q-1.85 1.4 4.15 -3.55 L4.2 -3.55" fill="#0f0e14" fill-rule="evenodd" stroke="none"/>
      <path d="M4.25 -4.25 L4.2 -3.55 4.15 -3.55 Q-1.85 1.4 -10.25 0.9 L-10.5 0.9 -8.45 -0.6 Q-1.75 -0.65 4.25 -4.25" fill="#140e0e" fill-rule="evenodd" stroke="none"/>
      <path d="M-8.45 -0.6 Q-7.65 -3.9 -3.85 -7.55 -0.25 -7.6 3.2 -9.65 L4.5 -7.8 4.1 -4.75 4.25 -4.25 Q-1.75 -0.65 -8.45 -0.6" fill="url(#gradient0)" fill-rule="evenodd" stroke="none"/>
      <path d="M5.15 -2.0 L5.2 -2.1 6.2 -1.2 Q5.55 3.05 2.35 4.75 -4.5 6.8 -9.3 6.35 L-10.6 3.65 -10.55 3.65 Q0.7 3.65 5.15 -2.0" fill="url(#gradient1)" fill-rule="evenodd" stroke="none"/>
      <path d="M-8.45 -0.6 Q-7.65 -3.9 -3.85 -7.55 -0.25 -7.6 3.2 -9.65 L4.5 -7.8 4.1 -4.75 4.25 -4.25 4.2 -3.55 5.15 -2.05 5.15 -2.0 M5.2 -2.1 L6.2 -1.2 Q5.55 3.05 2.35 4.75 -4.5 6.8 -9.3 6.35 L-10.6 3.65 M-10.55 3.65 L-10.25 0.9 M-10.5 0.9 L-8.45 -0.6 M4.2 -3.55 L4.15 -3.55" fill="none" stroke="#000000" stroke-linecap="round" stroke-linejoin="round" stroke-width="0.05"/>
    </g>
    <radialGradient cx="0" cy="0" gradientTransform="matrix(0.0146, 0.0, 0.0, 0.0117, -3.95, -7.3)" gradientUnits="userSpaceOnUse" id="gradient0" r="819.2" spreadMethod="pad">
      <stop offset="0.0" stop-color="#333e28"/>
      <stop offset="0.5333333333333333" stop-color="#152616"/>
      <stop offset="0.9019607843137255" stop-color="#446a40"/>
    </radialGradient>
    <radialGradient cx="0" cy="0" gradientTransform="matrix(0.0189, 0.0, 0.0, 0.0189, -7.7, 4.8)" gradientUnits="userSpaceOnUse" id="gradient1" r="819.2" spreadMethod="pad">
      <stop offset="0.0" stop-color="#e9d7af"/>
      <stop offset="0.40784313725490196" stop-color="#9d8837"/>
      <stop offset="0.4588235294117647" stop-color="#86622d"/>
      <stop offset="0.48627450980392156" stop-color="#c6a939"/>
      <stop offset="1.0" stop-color="#452e18"/>
    </radialGradient>
    <g id="sprite0" transform="matrix(1.0, 0.0, 0.0, 1.0, 7.9, 0.55)">
      <use ffdec:characterId="516" height="4.15" transform="matrix(1.0, 0.0, 0.0, 1.0, -7.9, -0.55)" width="10.8" xlink:href="#shape1"/>
    </g>
    <g id="shape1" transform="matrix(1.0, 0.0, 0.0, 1.0, 7.9, 0.55)">
      <path d="M-7.85 0.85 L-7.8 0.85 Q-2.5 1.2 1.9 -0.55 L2.9 1.7 Q-1.35 3.6 -7.9 3.6 L-7.85 0.85" fill="#ffffff" fill-rule="evenodd" stroke="none"/>
    </g>
  </defs>
</svg>
