<?xml version="1.0" encoding="UTF-8" standalone="no"?>
<svg xmlns:ffdec="https://www.free-decompiler.com/flash" xmlns:xlink="http://www.w3.org/1999/xlink" ffdec:objectType="frame" height="137.6px" width="93.0px" xmlns="http://www.w3.org/2000/svg">
  <g transform="matrix(2.0, 0.0, 0.0, 2.0, 46.5, 73.9)">
    <filter id="filter0">
      <feColorMatrix in="SourceGraphic" result="filterResult0" type="matrix" values="0 0 0 0 1.0,0 0 0 0 1.0,0 0 0 0 1.0,0 0 0 1 0"/>
      <feConvolveMatrix divisor="169.0" in="filterResult0" kernelMatrix="1 1 1 1 1 1 1 1 1 1 1 1 1 1 1 1 1 1 1 1 1 1 1 1 1 1 1 1 1 1 1 1 1 1 1 1 1 1 1 1 1 1 1 1 1 1 1 1 1 1 1 1 1 1 1 1 1 1 1 1 1 1 1 1 1 1 1 1 1 1 1 1 1 1 1 1 1 1 1 1 1 1 1 1 1 1 1 1 1 1 1 1 1 1 1 1 1 1 1 1 1 1 1 1 1 1 1 1 1 1 1 1 1 1 1 1 1 1 1 1 1 1 1 1 1 1 1 1 1 1 1 1 1 1 1 1 1 1 1 1 1 1 1 1 1 1 1 1 1 1 1 1 1 1 1 1 1 1 1 1 1 1 1 1 1 1 1 1 1" order="13 13" result="filterResult1"/>
      <feComposite in="SourceGraphic" in2="filterResult1" operator="over" result="filterResult2"/>
    </filter>
    <use ffdec:characterId="2670" filter="url(#filter0)" height="49.35" transform="matrix(1.0, 0.0, 0.0, 1.0, -23.25, -24.7)" width="46.5" xlink:href="#sprite0"/>
    <use ffdec:characterId="2673" height="20.9" transform="matrix(2.2121, 0.0, 0.0, 2.2121, -9.0121, -30.6167)" width="8.55" xlink:href="#sprite1"/>
  </g>
  <defs>
    <g id="sprite0" transform="matrix(1.0, 0.0, 0.0, 1.0, 23.25, 24.7)">
      <use ffdec:characterId="2669" height="49.35" transform="matrix(1.0, 0.0, 0.0, 1.0, -23.25, -24.7)" width="46.5" xlink:href="#shape0"/>
    </g>
    <g id="shape0" transform="matrix(1.0, 0.0, 0.0, 1.0, 23.25, 24.7)">
      <path d="M21.25 -5.45 Q21.25 1.7 15.0 6.75 9.85 10.95 2.95 11.65 0.95 16.0 -4.75 22.65 -2.1 17.6 -2.5 11.7 -9.7 11.05 -15.05 6.75 -21.25 1.7 -21.25 -5.45 -21.25 -12.6 -15.05 -17.65 -8.8 -22.7 0.0 -22.7 8.8 -22.7 15.0 -17.65 21.25 -12.6 21.25 -5.45" fill="url(#gradient0)" fill-rule="evenodd" stroke="none"/>
      <path d="M16.25 -19.2 Q23.3 -13.5 23.25 -5.45 23.3 2.6 16.25 8.3 11.1 12.5 4.25 13.5 2.05 17.75 -3.25 23.95 L-3.2 23.95 Q-3.7 24.55 -4.45 24.65 L-4.5 24.65 Q-5.25 24.75 -5.85 24.3 L-5.85 24.35 -6.7 23.2 -6.7 23.15 Q-6.85 22.4 -6.5 21.7 -4.5 17.85 -4.45 13.5 -11.15 12.45 -16.3 8.3 -23.3 2.6 -23.25 -5.45 -23.3 -13.5 -16.3 -19.2 -9.55 -24.7 0.0 -24.7 9.55 -24.7 16.25 -19.2 M21.25 -5.45 Q21.25 -12.6 15.0 -17.65 8.8 -22.7 0.0 -22.7 -8.8 -22.7 -15.05 -17.65 -21.25 -12.6 -21.25 -5.45 -21.25 1.7 -15.05 6.75 -9.7 11.05 -2.5 11.7 -2.1 17.6 -4.75 22.65 0.95 16.0 2.95 11.65 9.85 10.95 15.0 6.75 21.25 1.7 21.25 -5.45" fill="#000000" fill-rule="evenodd" stroke="none"/>
    </g>
    <radialGradient cx="0" cy="0" gradientTransform="matrix(0.0476, 0.0, 0.0, 0.0476, 0.5, -16.0)" gradientUnits="userSpaceOnUse" id="gradient0" r="819.2" spreadMethod="pad">
      <stop offset="0.0" stop-color="#555555"/>
      <stop offset="1.0" stop-color="#000000"/>
    </radialGradient>
    <g id="sprite1" transform="matrix(1.0, 0.0, 0.0, 1.0, 4.3, 10.45)">
      <filter id="filter1">
        <feColorMatrix in="SourceGraphic" result="filterResult3" type="matrix" values="0 0 0 0 1.0,0 0 0 0 0.8,0 0 0 0 0.0,0 0 0 1 0"/>
        <feConvolveMatrix divisor="100.0" in="filterResult3" kernelMatrix="1 1 1 1 1 1 1 1 1 1 1 1 1 1 1 1 1 1 1 1 1 1 1 1 1 1 1 1 1 1 1 1 1 1 1 1 1 1 1 1 1 1 1 1 1 1 1 1 1 1 1 1 1 1 1 1 1 1 1 1 1 1 1 1 1 1 1 1 1 1 1 1 1 1 1 1 1 1 1 1 1 1 1 1 1 1 1 1 1 1 1 1 1 1 1 1 1 1 1 1" order="10 10" result="filterResult4"/>
        <feComposite in="SourceGraphic" in2="filterResult4" operator="over" result="filterResult5"/>
      </filter>
      <use ffdec:characterId="2672" filter="url(#filter1)" height="42.95" transform="matrix(0.4882, 0.0, 0.0, 0.4872, -4.2959, -10.4744)" width="17.55" xlink:href="#sprite2"/>
    </g>
    <g id="sprite2" transform="matrix(1.0, 0.0, 0.0, 1.0, 8.8, 21.5)">
      <use ffdec:characterId="2671" height="42.95" transform="matrix(1.0, 0.0, 0.0, 1.0, -8.8, -21.5)" width="17.55" xlink:href="#shape1"/>
    </g>
    <g id="shape1" transform="matrix(1.0, 0.0, 0.0, 1.0, 8.8, 21.5)">
      <path d="M-8.4 -21.45 L-8.4 -21.5 6.2 -19.75 7.85 5.55 -2.95 7.0 -7.9 -17.05 -8.4 -21.45 -8.4 -18.2 -8.8 -21.5 -8.4 -21.45 M-0.55 12.9 L7.4 12.4 8.75 19.75 -0.05 21.45 -0.55 12.9" fill="#fefefe" fill-rule="evenodd" stroke="none"/>
    </g>
  </defs>
</svg>
