<?xml version="1.0" encoding="UTF-8" standalone="no"?>
<svg xmlns:ffdec="https://www.free-decompiler.com/flash" xmlns:xlink="http://www.w3.org/1999/xlink" ffdec:objectType="frame" height="290.0px" width="297.0px" xmlns="http://www.w3.org/2000/svg">
  <g transform="matrix(2.0, 0.0, 0.0, 2.0, 87.4, 164.6)">
    <use ffdec:characterId="144" height="19.95" id="shadower" transform="matrix(1.0332, 0.0, 0.0, 1.0, -32.7276, 26.0)" width="65.05" xlink:href="#sprite0"/>
    <filter id="filter0"/>
    <use ffdec:characterId="130" filter="url(#filter0)" height="19.65" id="arm2" transform="matrix(0.721, -0.3333, 0.3333, 0.721, -0.4255, 1.8174)" width="7.1" xlink:href="#sprite1"/>
    <filter id="filter1"/>
    <use ffdec:characterId="121" filter="url(#filter1)" height="18.35" id="hand2" transform="matrix(-0.5159, 0.6068, 0.6068, 0.5159, 5.2289, 8.8251)" width="7.05" xlink:href="#sprite3"/>
    <filter id="filter2"/>
    <use ffdec:characterId="124" filter="url(#filter2)" height="68.95" id="weapon2" transform="matrix(-0.0285, 0.7985, -0.7985, -0.0285, 49.2127, 30.4502)" width="6.0" xlink:href="#sprite5"/>
    <filter id="filter3"/>
    <use ffdec:characterId="142" filter="url(#filter3)" height="5.3" id="foot2" transform="matrix(-0.3188, 0.7316, -0.7316, -0.3188, -0.3463, 26.565)" width="11.75" xlink:href="#sprite7"/>
    <filter id="filter4"/>
    <use ffdec:characterId="130" filter="url(#filter4)" height="19.65" id="leg2" transform="matrix(0.7902, -0.5394, 0.4495, 0.6585, 7.9901, 21.4115)" width="7.1" xlink:href="#sprite1"/>
    <filter id="filter5"/>
    <use ffdec:characterId="139" filter="url(#filter5)" height="30.4" id="leg4" transform="matrix(-0.0215, 0.7934, -0.7934, -0.0215, 20.5584, 27.0269)" width="9.25" xlink:href="#sprite9"/>
    <filter id="filter6"/>
    <use ffdec:characterId="142" filter="url(#filter6)" height="5.3" id="foot1" transform="matrix(-0.2793, 0.9567, -0.9567, -0.2793, -23.3311, 32.5433)" width="11.75" xlink:href="#sprite7"/>
    <filter id="filter7"/>
    <use ffdec:characterId="130" filter="url(#filter7)" height="19.65" id="leg1" transform="matrix(0.9496, 0.7185, -0.5988, 0.7914, 5.0467, 16.444)" width="7.1" xlink:href="#sprite1"/>
    <filter id="filter8"/>
    <use ffdec:characterId="139" filter="url(#filter8)" height="30.4" id="leg3" transform="matrix(-0.0266, 0.9964, -0.9964, -0.0266, 1.3171, 31.6207)" width="9.25" xlink:href="#sprite9"/>
    <filter id="filter9"/>
    <use ffdec:characterId="136" filter="url(#filter9)" height="32.85" id="chest" transform="matrix(0.8872, -0.4534, 0.4534, 0.8872, -14.1197, -0.6119)" width="19.85" xlink:href="#sprite11"/>
    <filter id="filter10"/>
    <use ffdec:characterId="130" filter="url(#filter10)" height="19.65" id="arm1" transform="matrix(0.7662, 0.0304, -0.0394, 0.9925, -10.5339, 2.2652)" width="7.1" xlink:href="#sprite1"/>
    <filter id="filter11"/>
    <use ffdec:characterId="133" filter="url(#filter11)" height="11.35" id="head" transform="matrix(0.976, 0.1995, -0.1995, 0.976, -0.9522, -12.7475)" width="7.9" xlink:href="#sprite13"/>
    <filter id="filter12"/>
    <use ffdec:characterId="127" filter="url(#filter12)" height="8.45" id="shoulder" transform="matrix(0.9245, -0.3749, 0.3749, 0.9245, -13.3915, 1.4206)" width="8.0" xlink:href="#sprite15"/>
    <filter id="filter13"/>
    <use ffdec:characterId="124" filter="url(#filter13)" height="68.95" id="weapon1" transform="matrix(-0.0184, 0.9979, -0.9979, -0.0184, 28.9682, 41.1417)" width="6.0" xlink:href="#sprite5"/>
    <filter id="filter14"/>
    <use ffdec:characterId="121" filter="url(#filter14)" height="18.35" id="hand1" transform="matrix(0.9767, -0.1902, 0.1902, 0.9767, -13.3076, 18.1881)" width="7.05" xlink:href="#sprite3"/>
  </g>
  <defs>
    <g id="sprite0" transform="matrix(1.0, 0.0, 0.0, 1.0, 32.5, 9.95)">
      <use ffdec:characterId="143" height="19.95" transform="matrix(1.0, 0.0, 0.0, 1.0, -32.5, -9.95)" width="65.05" xlink:href="#shape0"/>
    </g>
    <g id="shape0" transform="matrix(1.0, 0.0, 0.0, 1.0, 32.5, 9.95)">
      <path d="M1.45 8.25 Q-12.05 10.55 -22.0 9.8 -31.85 9.0 -32.45 5.6 -33.05 2.2 -24.0 -1.85 -14.9 -5.9 -1.4 -8.2 12.1 -10.55 22.0 -9.75 31.95 -9.0 32.5 -5.6 33.1 -2.2 24.0 1.85 14.95 5.9 1.45 8.25" fill="url(#gradient0)" fill-rule="evenodd" stroke="none"/>
    </g>
    <radialGradient cx="0" cy="0" gradientTransform="matrix(0.0432, -0.0074, 0.0018, 0.0106, 0.05, 0.0)" gradientUnits="userSpaceOnUse" id="gradient0" r="819.2" spreadMethod="pad">
      <stop offset="0.3333333333333333" stop-color="#000000" stop-opacity="0.68235296"/>
      <stop offset="0.8627450980392157" stop-color="#000000" stop-opacity="0.0"/>
      <stop offset="1.0" stop-color="#000000" stop-opacity="0.0"/>
    </radialGradient>
    <g id="sprite1" transform="matrix(1.0, 0.0, 0.0, 1.0, 3.55, 9.8)">
      <use ffdec:characterId="129" height="19.65" transform="matrix(1.0, 0.0, 0.0, 1.0, -3.55, -9.8)" width="7.1" xlink:href="#sprite2"/>
    </g>
    <g id="sprite2" transform="matrix(1.0, 0.0, 0.0, 1.0, 3.55, 9.8)">
      <use ffdec:characterId="128" height="19.65" transform="matrix(1.0, 0.0, 0.0, 1.0, -3.55, -9.8)" width="7.1" xlink:href="#shape1"/>
    </g>
    <g id="shape1" transform="matrix(1.0, 0.0, 0.0, 1.0, 3.55, 9.8)">
      <path d="M-3.5 4.0 L-3.55 3.6 -3.35 -0.7 Q-3.2 -2.85 -2.6 -4.1 L-2.2 -5.25 -1.8 -5.85 -0.5 -6.75 Q1.35 -7.55 3.3 -5.75 L3.45 -2.35 3.55 3.3 3.55 3.6 3.55 4.0 Q-0.2 6.9 -3.5 4.0" fill="url(#gradient1)" fill-rule="evenodd" stroke="none"/>
      <path d="M-3.5 4.0 L-3.55 3.6 -3.35 -0.7 Q-3.2 -2.85 -2.6 -4.1 L-2.2 -5.25 -1.8 -5.85 -0.5 -6.75 Q1.35 -7.55 3.3 -5.75 L3.45 -2.35 3.55 3.3 3.55 3.6 3.55 4.0" fill="none" stroke="#000000" stroke-linecap="round" stroke-linejoin="round" stroke-width="0.05"/>
      <path d="M3.55 4.0 Q-0.2 6.9 -3.5 4.0" fill="none" stroke="#000000" stroke-linecap="round" stroke-linejoin="round" stroke-width="0.05"/>
      <path d="M-3.5 -2.65 L-3.55 -2.9 -3.35 -5.7 Q-3.2 -7.1 -2.6 -7.9 L-2.2 -8.65 -1.8 -9.05 -0.5 -9.65 Q1.35 -10.15 3.3 -8.95 L3.45 -6.75 3.55 -3.1 3.55 -2.9 3.55 -2.65 Q-0.2 -0.75 -3.5 -2.65 M2.85 4.1 L2.3 6.5 Q1.8 8.45 0.45 9.85 L-0.5 9.5 Q-1.55 9.05 -1.9 8.15 -2.5 6.85 -2.6 5.5 L-2.8 4.0 Q-0.75 5.0 2.85 4.1" fill="url(#gradient2)" fill-rule="evenodd" stroke="none"/>
      <path d="M-3.5 -2.65 L-3.55 -2.9 -3.35 -5.7 Q-3.2 -7.1 -2.6 -7.9 L-2.2 -8.65 -1.8 -9.05 -0.5 -9.65 Q1.35 -10.15 3.3 -8.95 L3.45 -6.75 3.55 -3.1 3.55 -2.9 3.55 -2.65 M2.85 4.1 L2.3 6.5 Q1.8 8.45 0.45 9.85 L-0.5 9.5 Q-1.55 9.05 -1.9 8.15 -2.5 6.85 -2.6 5.5 L-2.8 4.0" fill="none" stroke="#000000" stroke-linecap="round" stroke-linejoin="round" stroke-width="0.05"/>
      <path d="M3.55 -2.65 Q-0.2 -0.75 -3.5 -2.65 M-2.8 4.0 Q-0.75 5.0 2.85 4.1" fill="none" stroke="#000000" stroke-linecap="round" stroke-linejoin="round" stroke-width="0.05"/>
    </g>
    <radialGradient cx="0" cy="0" gradientTransform="matrix(0.0189, -0.0017, 2.0E-4, 0.0292, -0.2, 16.65)" gradientUnits="userSpaceOnUse" id="gradient1" r="819.2" spreadMethod="pad">
      <stop offset="0.0" stop-color="#161616"/>
      <stop offset="1.0" stop-color="#000000"/>
    </radialGradient>
    <radialGradient cx="0" cy="0" gradientTransform="matrix(0.0189, -0.0011, 2.0E-4, 0.019, -0.2, 5.6)" gradientUnits="userSpaceOnUse" id="gradient2" r="819.2" spreadMethod="pad">
      <stop offset="0.0" stop-color="#161616"/>
      <stop offset="1.0" stop-color="#000000"/>
    </radialGradient>
    <g id="sprite3" transform="matrix(1.0, 0.0, 0.0, 1.0, 3.55, 9.15)">
      <use ffdec:characterId="120" height="18.35" transform="matrix(1.0, 0.0, 0.0, 1.0, -3.55, -9.15)" width="7.05" xlink:href="#sprite4"/>
    </g>
    <g id="sprite4" transform="matrix(1.0, 0.0, 0.0, 1.0, 3.55, 9.15)">
      <use ffdec:characterId="119" height="18.35" transform="matrix(1.0, 0.0, 0.0, 1.0, -3.55, -9.15)" width="7.05" xlink:href="#shape2"/>
    </g>
    <g id="shape2" transform="matrix(1.0, 0.0, 0.0, 1.0, 3.55, 9.15)">
      <path d="M2.0 4.95 L2.0 5.0 1.95 5.05 2.0 4.95" fill="url(#gradient3)" fill-rule="evenodd" stroke="none"/>
      <path d="M1.9 4.85 L2.0 4.9 2.0 4.95 1.9 4.85" fill="url(#gradient4)" fill-rule="evenodd" stroke="none"/>
      <path d="M3.0 -6.9 Q3.7 -4.25 3.45 -2.1 2.75 -0.55 2.4 0.8 0.9 3.15 1.9 4.85 L2.0 4.95 1.95 5.05 Q-0.9 6.25 -2.95 4.05 L-2.95 4.0 Q-2.25 1.55 -3.15 -1.05 L-3.0 -4.55 Q-2.8 -6.1 -0.75 -9.15 L3.0 -6.9" fill="url(#gradient5)" fill-rule="evenodd" stroke="none"/>
      <path d="M1.95 5.05 L0.9 6.85 1.3 8.4 0.15 9.2 -3.55 6.1 -2.95 4.05 Q-0.9 6.25 1.95 5.05" fill="url(#gradient6)" fill-rule="evenodd" stroke="none"/>
      <path d="M3.0 -6.9 Q3.7 -4.25 3.45 -2.1 2.75 -0.55 2.4 0.8 0.9 3.15 1.9 4.85 L2.0 4.95 2.0 5.0 1.95 5.05 0.9 6.85 1.3 8.4 0.15 9.2 -3.55 6.1 -2.95 4.05 -2.95 4.0 Q-2.25 1.55 -3.15 -1.05 L-3.0 -4.55 Q-2.8 -6.1 -0.75 -9.15 M2.0 4.9 L2.0 4.95 M1.95 5.05 Q-0.9 6.25 -2.95 4.05" fill="none" stroke="#000000" stroke-linecap="round" stroke-linejoin="round" stroke-width="0.05"/>
    </g>
    <radialGradient cx="0" cy="0" gradientTransform="matrix(0.0133, 0.0026, -0.0018, 0.0144, 0.8, -7.0)" gradientUnits="userSpaceOnUse" id="gradient3" r="819.2" spreadMethod="pad">
      <stop offset="0.0" stop-color="#161616"/>
      <stop offset="1.0" stop-color="#000000"/>
    </radialGradient>
    <radialGradient cx="0" cy="0" gradientTransform="matrix(0.0038, 7.0E-4, -5.0E-4, 0.0041, -0.45, 6.05)" gradientUnits="userSpaceOnUse" id="gradient4" r="819.2" spreadMethod="pad">
      <stop offset="0.0" stop-color="#161616"/>
      <stop offset="1.0" stop-color="#000000"/>
    </radialGradient>
    <radialGradient cx="0" cy="0" gradientTransform="matrix(0.0133, 0.0026, -0.0018, 0.0144, 0.8, -7.0)" gradientUnits="userSpaceOnUse" id="gradient5" r="819.2" spreadMethod="pad">
      <stop offset="0.0" stop-color="#262116"/>
      <stop offset="1.0" stop-color="#090906"/>
    </radialGradient>
    <radialGradient cx="0" cy="0" gradientTransform="matrix(0.0038, 7.0E-4, -5.0E-4, 0.0041, -0.45, 6.05)" gradientUnits="userSpaceOnUse" id="gradient6" r="819.2" spreadMethod="pad">
      <stop offset="0.0" stop-color="#262116"/>
      <stop offset="1.0" stop-color="#090906"/>
    </radialGradient>
    <g id="sprite5" transform="matrix(1.0, 0.0, 0.0, 1.0, 5.2, 36.9)">
      <use ffdec:characterId="123" height="68.95" transform="matrix(1.0, 0.0, 0.0, 1.0, -5.2, -36.9)" width="6.0" xlink:href="#sprite6"/>
    </g>
    <g id="sprite6" transform="matrix(1.0, 0.0, 0.0, 1.0, 3.75, 41.15)">
      <use ffdec:characterId="122" height="68.95" transform="matrix(1.0, 0.0, 0.0, 1.0, -3.75, -41.15)" width="6.0" xlink:href="#shape3"/>
    </g>
    <g id="shape3" transform="matrix(1.0, 0.0, 0.0, 1.0, 3.75, 41.15)">
      <path d="M1.35 10.2 L-0.15 27.1 Q-2.5 28.5 -3.75 27.1 -2.4 18.25 -1.55 9.95 L1.35 10.2" fill="url(#gradient7)" fill-rule="evenodd" stroke="none"/>
      <path d="M1.7 4.9 L1.35 10.2 -1.55 9.95 -1.1 5.05 1.7 4.9" fill="url(#gradient8)" fill-rule="evenodd" stroke="none"/>
      <path d="M-1.1 5.05 Q1.05 -20.55 -3.2 -41.15 L-0.15 -39.15 Q3.45 -25.1 1.7 4.9 L-1.1 5.05" fill="url(#gradient9)" fill-rule="evenodd" stroke="none"/>
      <path d="M-1.1 5.05 Q1.05 -20.55 -3.2 -41.15 L-0.15 -39.15 Q3.45 -25.1 1.7 4.9 L1.35 10.2 -0.15 27.1 Q-2.5 28.5 -3.75 27.1 -2.4 18.25 -1.55 9.95 L-1.1 5.05" fill="none" stroke="#000000" stroke-linecap="round" stroke-linejoin="round" stroke-width="0.05"/>
      <path d="M-1.1 5.05 L1.7 4.9 M-1.55 9.95 L1.35 10.2" fill="none" stroke="#000000" stroke-linecap="round" stroke-linejoin="round" stroke-width="0.05"/>
    </g>
    <linearGradient gradientTransform="matrix(0.0031, 0.0, 0.0, 0.0109, -1.2, 18.85)" gradientUnits="userSpaceOnUse" id="gradient7" spreadMethod="pad" x1="-819.2" x2="819.2">
      <stop offset="0.0" stop-color="#2c2c2c"/>
      <stop offset="1.0" stop-color="#0b0b0b"/>
    </linearGradient>
    <linearGradient gradientTransform="matrix(0.002, 0.0, 0.0, 0.0032, 0.05, 7.55)" gradientUnits="userSpaceOnUse" id="gradient8" spreadMethod="pad" x1="-819.2" x2="819.2">
      <stop offset="0.0" stop-color="#382020"/>
      <stop offset="1.0" stop-color="#0d0a0a"/>
    </linearGradient>
    <radialGradient cx="0" cy="0" gradientTransform="matrix(0.0419, 0.0, 0.0, 0.0419, -0.25, -29.25)" gradientUnits="userSpaceOnUse" id="gradient9" r="819.2" spreadMethod="pad">
      <stop offset="0.0" stop-color="#a7a59f"/>
      <stop offset="0.41568627450980394" stop-color="#624720"/>
      <stop offset="0.4666666666666667" stop-color="#2e1e07"/>
      <stop offset="0.7294117647058823" stop-color="#855f26"/>
      <stop offset="1.0" stop-color="#8d744e"/>
    </radialGradient>
    <g id="sprite7" transform="matrix(1.0, 0.0, 0.0, 1.0, 5.85, 2.65)">
      <use ffdec:characterId="141" height="5.3" transform="matrix(1.0, 0.0, 0.0, 1.0, -5.85, -2.65)" width="11.75" xlink:href="#sprite8"/>
    </g>
    <g id="sprite8" transform="matrix(1.0, 0.0, 0.0, 1.0, 5.85, 2.65)">
      <use ffdec:characterId="140" height="5.3" transform="matrix(1.0, 0.0, 0.0, 1.0, -5.85, -2.65)" width="11.75" xlink:href="#shape4"/>
    </g>
    <g id="shape4" transform="matrix(1.0, 0.0, 0.0, 1.0, 5.85, 2.65)">
      <path d="M-1.35 -2.65 L3.0 -2.4 5.05 -1.5 5.7 1.25 5.25 2.15 4.25 2.45 3.35 2.5 2.65 2.65 -5.7 1.2 -5.85 0.65 -5.6 -2.2 -1.35 -2.65" fill="url(#gradient10)" fill-rule="evenodd" stroke="none"/>
      <path d="M5.7 1.25 L5.85 2.0 5.9 2.2 4.25 2.45 2.65 2.65 3.35 2.5 4.25 2.45 5.25 2.15 5.7 1.25 M-5.7 1.2 L-5.85 1.15 -5.85 0.65 -5.7 1.2 M5.85 2.0 L5.25 2.15 5.85 2.0" fill="url(#gradient11)" fill-rule="evenodd" stroke="none"/>
      <path d="M-1.35 -2.65 L3.0 -2.4 5.05 -1.5 5.7 1.25 5.85 2.0 5.25 2.15 4.25 2.45 3.35 2.5 2.65 2.65 -5.7 1.2 -5.85 0.65 -5.6 -2.2" fill="none" stroke="#000000" stroke-linecap="round" stroke-linejoin="round" stroke-width="0.05"/>
    </g>
    <radialGradient cx="0" cy="0" gradientTransform="matrix(0.0102, -0.0022, 0.0029, 0.0122, 2.2, -1.4)" gradientUnits="userSpaceOnUse" id="gradient10" r="819.2" spreadMethod="pad">
      <stop offset="0.0" stop-color="#161616"/>
      <stop offset="1.0" stop-color="#000000"/>
    </radialGradient>
    <radialGradient cx="0" cy="0" gradientTransform="matrix(0.0114, 0.0, 0.0, 0.0114, -2.75, -1.4)" gradientUnits="userSpaceOnUse" id="gradient11" r="819.2" spreadMethod="pad">
      <stop offset="0.0" stop-color="#161616"/>
      <stop offset="1.0" stop-color="#000000"/>
    </radialGradient>
    <g id="sprite9" transform="matrix(1.0, 0.0, 0.0, 1.0, 4.6, 15.2)">
      <use ffdec:characterId="138" height="30.4" transform="matrix(1.0, 0.0, 0.0, 1.0, -4.6, -15.2)" width="9.25" xlink:href="#sprite10"/>
    </g>
    <g id="sprite10" transform="matrix(1.0, 0.0, 0.0, 1.0, 4.6, 15.2)">
      <use ffdec:characterId="137" height="30.4" transform="matrix(1.0, 0.0, 0.0, 1.0, -4.6, -15.2)" width="9.25" xlink:href="#shape5"/>
    </g>
    <g id="shape5" transform="matrix(1.0, 0.0, 0.0, 1.0, 4.6, 15.2)">
      <path d="M3.85 -11.35 L4.65 -5.5 4.05 -4.65 -1.3 -2.3 -4.5 -4.25 -4.6 -4.9 -3.9 -10.65 -1.0 -9.25 3.85 -11.35" fill="url(#gradient12)" fill-rule="evenodd" stroke="none"/>
      <path d="M2.85 4.95 L1.6 13.4 -0.1 15.2 -3.55 13.15 -3.6 4.8 Q-0.95 6.8 2.85 4.95" fill="url(#gradient13)" fill-rule="evenodd" stroke="none"/>
      <path d="M4.05 -4.65 L3.0 -0.15 2.85 4.95 Q-0.95 6.8 -3.6 4.8 L-3.7 0.5 -4.5 -4.25 -1.3 -2.3 4.05 -4.65" fill="url(#gradient14)" fill-rule="evenodd" stroke="none"/>
      <path d="M-3.9 -10.65 L-3.1 -14.5 -3.1 -14.55 -2.75 -14.8 Q-0.05 -13.75 2.3 -15.2 L3.85 -11.35 -1.0 -9.25 -3.9 -10.65" fill="url(#gradient15)" fill-rule="evenodd" stroke="none"/>
      <path d="M-3.9 -10.65 L-3.1 -14.5 -3.1 -14.55 -2.75 -14.8 Q-0.05 -13.75 2.3 -15.2 L3.85 -11.35 4.65 -5.5 4.05 -4.65 3.0 -0.15 2.85 4.95 1.6 13.4 -0.1 15.2 -3.55 13.15 -3.6 4.8 -3.7 0.5 -4.5 -4.25 -4.6 -4.9 -3.9 -10.65 -1.0 -9.25 3.85 -11.35 M-4.5 -4.25 L-1.3 -2.3 4.05 -4.65 M2.85 4.95 Q-0.95 6.8 -3.6 4.8" fill="none" stroke="#000000" stroke-linecap="round" stroke-linejoin="round" stroke-width="0.05"/>
    </g>
    <radialGradient cx="0" cy="0" gradientTransform="matrix(0.009, -3.0E-4, -2.0E-4, 0.0083, -2.0, -8.15)" gradientUnits="userSpaceOnUse" id="gradient12" r="819.2" spreadMethod="pad">
      <stop offset="0.0" stop-color="#161616"/>
      <stop offset="1.0" stop-color="#000000"/>
    </radialGradient>
    <radialGradient cx="0" cy="0" gradientTransform="matrix(0.0091, -3.0E-4, -2.0E-4, 0.0085, -1.2, 8.4)" gradientUnits="userSpaceOnUse" id="gradient13" r="819.2" spreadMethod="pad">
      <stop offset="0.0" stop-color="#161616"/>
      <stop offset="1.0" stop-color="#000000"/>
    </radialGradient>
    <radialGradient cx="0" cy="0" gradientTransform="matrix(0.0106, -3.0E-4, -2.0E-4, 0.0098, -1.8, -1.65)" gradientUnits="userSpaceOnUse" id="gradient14" r="819.2" spreadMethod="pad">
      <stop offset="0.0" stop-color="#262116"/>
      <stop offset="1.0" stop-color="#090906"/>
    </radialGradient>
    <radialGradient cx="0" cy="0" gradientTransform="matrix(0.0077, -2.0E-4, -2.0E-4, 0.0071, -2.05, -13.2)" gradientUnits="userSpaceOnUse" id="gradient15" r="819.2" spreadMethod="pad">
      <stop offset="0.0" stop-color="#262116"/>
      <stop offset="1.0" stop-color="#090906"/>
    </radialGradient>
    <g id="sprite11" transform="matrix(1.0, 0.0, 0.0, 1.0, 9.9, 16.4)">
      <use ffdec:characterId="135" height="32.85" transform="matrix(1.0, 0.0, 0.0, 1.0, -9.9, -16.4)" width="19.85" xlink:href="#sprite12"/>
    </g>
    <g id="sprite12" transform="matrix(1.0, 0.0, 0.0, 1.0, 9.9, 16.4)">
      <use ffdec:characterId="134" height="32.85" transform="matrix(1.0, 0.0, 0.0, 1.0, -9.9, -16.4)" width="19.85" xlink:href="#shape6"/>
    </g>
    <g id="shape6" transform="matrix(1.0, 0.0, 0.0, 1.0, 9.9, 16.4)">
      <path d="M7.85 -7.65 L7.5 -6.95 7.4 -7.8 7.85 -7.65" fill="#836201" fill-rule="evenodd" stroke="none"/>
      <path d="M-5.1 4.45 L-5.1 4.4 -4.95 4.45 -5.1 4.45" fill="url(#gradient16)" fill-rule="evenodd" stroke="none"/>
      <path d="M-5.85 -4.35 L-6.4 -5.55 -6.15 -5.6 -5.85 -4.35" fill="#333333" fill-rule="evenodd" stroke="none"/>
      <path d="M-6.2 -5.7 L-6.25 -5.7 -6.3 -5.7 -6.2 -5.7" fill="url(#gradient17)" fill-rule="evenodd" stroke="none"/>
      <path d="M7.5 -6.95 L7.75 -4.2 7.3 -3.3 7.1 -2.95 6.75 -2.1 Q5.35 -3.9 3.4 -3.9 1.35 -3.9 -0.1 -1.95 -1.5 0.05 -1.5 2.85 L-1.35 4.65 -4.95 4.45 Q-4.55 -0.75 -5.85 -4.35 L-6.15 -5.6 Q-3.4 -6.7 -2.4 -9.3 -1.95 -10.55 -1.9 -12.15 L5.2 -6.05 6.45 -9.5 7.4 -7.8 7.5 -6.95" fill="url(#gradient18)" fill-rule="evenodd" stroke="none"/>
      <path d="M6.75 -2.1 L6.55 -1.65 4.95 5.05 -1.35 4.65 -1.5 2.85 Q-1.5 0.05 -0.1 -1.95 1.35 -3.9 3.4 -3.9 5.35 -3.9 6.75 -2.1" fill="url(#gradient19)" fill-rule="evenodd" stroke="none"/>
      <path d="M5.7 10.05 L5.8 10.05 5.95 13.05 2.15 16.45 -5.0 12.6 -4.7 8.75 5.7 10.05" fill="url(#gradient20)" fill-rule="evenodd" stroke="none"/>
      <path d="M-1.75 -14.1 L-0.05 -16.4 4.4 -13.1 3.35 -12.35 -1.75 -14.1" fill="url(#gradient21)" fill-rule="evenodd" stroke="none"/>
      <path d="M-6.15 -5.6 L-6.2 -5.7 -6.3 -5.7 -9.9 -7.8 Q-9.9 -11.6 -5.2 -13.65 L-1.95 -14.05 -1.9 -12.65 -1.9 -12.15 Q-1.95 -10.55 -2.4 -9.3 -3.4 -6.7 -6.15 -5.6" fill="url(#gradient22)" fill-rule="evenodd" stroke="none"/>
      <path d="M4.95 5.05 L5.0 5.05 Q5.75 7.0 5.8 8.8 L5.7 10.05 -4.7 8.75 -5.1 4.45 -4.95 4.45 -1.35 4.65 4.95 5.05" fill="url(#gradient23)" fill-rule="evenodd" stroke="none"/>
      <path d="M-1.95 -14.05 L-1.75 -14.1 3.35 -12.35 5.4 -11.5 6.45 -9.5 5.2 -6.05 -1.9 -12.15 -1.9 -12.65 -1.95 -14.05" fill="url(#gradient24)" fill-rule="evenodd" stroke="none"/>
      <path d="M4.4 -13.1 L4.65 -13.1 Q9.15 -11.95 9.95 -9.1 L7.85 -7.65 7.4 -7.8 6.45 -9.5 5.4 -11.5 3.35 -12.35 4.4 -13.1" fill="url(#gradient25)" fill-rule="evenodd" stroke="none"/>
      <path d="M4.65 -13.1 Q9.15 -11.95 9.95 -9.1 L7.85 -7.65 7.5 -6.95 7.75 -4.2 7.3 -3.3 7.1 -2.95 6.75 -2.1 6.55 -1.65 4.95 5.05 5.0 5.05 Q5.75 7.0 5.8 8.8 L5.7 10.05 5.8 10.05 5.95 13.05 M-5.0 12.6 L-4.7 8.75 -5.1 4.45 -5.1 4.4 -4.95 4.45 Q-4.55 -0.75 -5.85 -4.35 L-6.15 -5.6 -6.2 -5.7 -6.25 -5.7 -6.3 -5.7 -9.9 -7.8 Q-9.9 -11.6 -5.2 -13.65 L-1.95 -14.05 -1.75 -14.1 -0.05 -16.4 4.4 -13.1 3.35 -12.35 5.4 -11.5 6.45 -9.5 7.4 -7.8 7.5 -6.95 M6.45 -9.5 L5.2 -6.05 -1.9 -12.15 Q-1.95 -10.55 -2.4 -9.3 -3.4 -6.7 -6.15 -5.6 M-1.35 4.65 L4.95 5.05 M-1.9 -12.15 L-1.9 -12.65 -1.95 -14.05 M-1.35 4.65 L-4.95 4.45 M3.35 -12.35 L-1.75 -14.1 M-4.7 8.75 L5.7 10.05" fill="none" stroke="#000000" stroke-linecap="round" stroke-linejoin="round" stroke-width="0.05"/>
    </g>
    <radialGradient cx="0" cy="0" gradientTransform="matrix(0.0103, 4.0E-4, -5.0E-4, 0.0101, 3.05, 6.65)" gradientUnits="userSpaceOnUse" id="gradient16" r="819.2" spreadMethod="pad">
      <stop offset="0.0" stop-color="#a89786"/>
      <stop offset="1.0" stop-color="#484037"/>
    </radialGradient>
    <radialGradient cx="0" cy="0" gradientTransform="matrix(0.0077, 0.0, 0.0, 0.0077, -4.5, -11.0)" gradientUnits="userSpaceOnUse" id="gradient17" r="819.2" spreadMethod="pad">
      <stop offset="0.0" stop-color="#454545"/>
      <stop offset="1.0" stop-color="#1b1b1b"/>
    </radialGradient>
    <radialGradient cx="0" cy="0" gradientTransform="matrix(0.0146, 5.0E-4, -8.0E-4, 0.0142, 1.15, -5.65)" gradientUnits="userSpaceOnUse" id="gradient18" r="819.2" spreadMethod="pad">
      <stop offset="0.0" stop-color="#262626"/>
      <stop offset="1.0" stop-color="#000000"/>
    </radialGradient>
    <radialGradient cx="0" cy="0" gradientTransform="matrix(0.0086, 0.0, 0.0, 0.0086, 3.0, 2.75)" gradientUnits="userSpaceOnUse" id="gradient19" r="819.2" spreadMethod="pad">
      <stop offset="0.0" stop-color="#262626"/>
      <stop offset="1.0" stop-color="#000000"/>
    </radialGradient>
    <radialGradient cx="0" cy="0" gradientTransform="matrix(0.0075, 3.0E-4, -4.0E-4, 0.0073, 0.45, 12.0)" gradientUnits="userSpaceOnUse" id="gradient20" r="819.2" spreadMethod="pad">
      <stop offset="0.0" stop-color="#262626"/>
      <stop offset="1.0" stop-color="#000000"/>
    </radialGradient>
    <radialGradient cx="0" cy="0" gradientTransform="matrix(0.0059, 2.0E-4, -3.0E-4, 0.0057, -0.3, -13.9)" gradientUnits="userSpaceOnUse" id="gradient21" r="819.2" spreadMethod="pad">
      <stop offset="0.0" stop-color="#262626"/>
      <stop offset="1.0" stop-color="#000000"/>
    </radialGradient>
    <radialGradient cx="0" cy="0" gradientTransform="matrix(0.0077, 0.0, 0.0, 0.0077, -4.5, -11.0)" gradientUnits="userSpaceOnUse" id="gradient22" r="819.2" spreadMethod="pad">
      <stop offset="0.0" stop-color="#403726"/>
      <stop offset="1.0" stop-color="#10100a"/>
    </radialGradient>
    <radialGradient cx="0" cy="0" gradientTransform="matrix(0.0103, 4.0E-4, -5.0E-4, 0.0101, 3.05, 6.65)" gradientUnits="userSpaceOnUse" id="gradient23" r="819.2" spreadMethod="pad">
      <stop offset="0.0" stop-color="#403726"/>
      <stop offset="1.0" stop-color="#10100a"/>
    </radialGradient>
    <radialGradient cx="0" cy="0" gradientTransform="matrix(0.0146, 5.0E-4, -8.0E-4, 0.0142, 1.15, -5.65)" gradientUnits="userSpaceOnUse" id="gradient24" r="819.2" spreadMethod="pad">
      <stop offset="0.0" stop-color="#403726"/>
      <stop offset="1.0" stop-color="#10100a"/>
    </radialGradient>
    <radialGradient cx="0" cy="0" gradientTransform="matrix(0.0062, 2.0E-4, -3.0E-4, 0.0061, 8.1, -10.65)" gradientUnits="userSpaceOnUse" id="gradient25" r="819.2" spreadMethod="pad">
      <stop offset="0.0" stop-color="#403726"/>
      <stop offset="1.0" stop-color="#10100a"/>
    </radialGradient>
    <g id="sprite13" transform="matrix(1.0, 0.0, 0.0, 1.0, 2.55, 6.7)">
      <use ffdec:characterId="132" height="11.35" transform="matrix(1.0, 0.0, 0.0, 1.0, -2.55, -6.7)" width="7.9" xlink:href="#sprite14"/>
    </g>
    <g id="sprite14" transform="matrix(1.0, 0.0, 0.0, 1.0, 2.55, 6.7)">
      <use ffdec:characterId="131" height="11.35" transform="matrix(1.0, 0.0, 0.0, 1.0, -2.55, -6.7)" width="7.9" xlink:href="#shape7"/>
    </g>
    <g id="shape7" transform="matrix(1.0, 0.0, 0.0, 1.0, 2.55, 6.7)">
      <path d="M-2.55 -2.8 Q-2.45 -4.35 -1.45 -5.5 -0.3 -6.7 1.3 -6.7 2.9 -6.7 4.0 -5.5 5.15 -4.25 5.15 -2.55 L5.15 -2.25 Q1.55 -2.45 -0.1 -1.05 L-2.55 -2.8" fill="url(#gradient26)" fill-rule="evenodd" stroke="none"/>
      <path d="M5.25 0.65 L5.35 1.4 4.5 1.5 4.5 1.6 3.7 4.65 -0.6 3.7 -1.05 0.7 -1.3 0.5 -1.45 0.35 -2.3 -1.05 -2.55 -2.55 -2.55 -2.8 -0.1 -1.05 Q2.4 0.3 5.15 -0.15 L5.25 0.65" fill="url(#gradient27)" fill-rule="evenodd" stroke="none"/>
      <path d="M5.15 -2.25 L5.1 -1.85 5.0 -1.3 5.25 0.65 5.35 1.4 4.5 1.5 4.5 1.6 3.7 4.65 -0.6 3.7 -1.05 0.7 -1.3 0.5 -1.45 0.35 -2.3 -1.05 -2.55 -2.55 -2.55 -2.8 Q-2.45 -4.35 -1.45 -5.5 -0.3 -6.7 1.3 -6.7 2.9 -6.7 4.0 -5.5 5.15 -4.25 5.15 -2.55 L5.15 -2.25 M5.15 -0.15 L5.25 0.65" fill="none" stroke="#000000" stroke-linecap="round" stroke-linejoin="round" stroke-width="0.05"/>
      <path d="M5.15 -2.25 Q1.55 -2.45 -0.1 -1.05 2.4 0.3 5.15 -0.15" fill="none" stroke="#000000" stroke-linecap="round" stroke-linejoin="round" stroke-width="0.05"/>
    </g>
    <radialGradient cx="0" cy="0" gradientTransform="matrix(0.0101, 0.0, 0.0, 0.0101, 4.7, -2.65)" gradientUnits="userSpaceOnUse" id="gradient26" r="819.2" spreadMethod="pad">
      <stop offset="0.0" stop-color="#2b2b2b"/>
      <stop offset="0.6666666666666666" stop-color="#040404"/>
      <stop offset="1.0" stop-color="#404040"/>
    </radialGradient>
    <radialGradient cx="0" cy="0" gradientTransform="matrix(0.0086, 0.0, 0.0, 0.0086, 3.6, 0.45)" gradientUnits="userSpaceOnUse" id="gradient27" r="819.2" spreadMethod="pad">
      <stop offset="0.0" stop-color="#2b2b2b"/>
      <stop offset="0.6666666666666666" stop-color="#040404"/>
      <stop offset="1.0" stop-color="#404040"/>
    </radialGradient>
    <g id="sprite15" transform="matrix(1.0, 0.0, 0.0, 1.0, 4.0, 4.25)">
      <use ffdec:characterId="126" height="8.45" transform="matrix(1.0, 0.0, 0.0, 1.0, -4.0, -4.25)" width="8.0" xlink:href="#sprite16"/>
    </g>
    <g id="sprite16" transform="matrix(1.0, 0.0, 0.0, 1.0, 4.0, 4.25)">
      <use ffdec:characterId="125" height="8.45" transform="matrix(1.0, 0.0, 0.0, 1.0, -4.0, -4.25)" width="8.0" xlink:href="#shape8"/>
    </g>
    <g id="shape8" transform="matrix(1.0, 0.0, 0.0, 1.0, 4.0, 4.25)">
      <path d="M4.0 -2.85 L4.0 -2.35 Q3.95 -0.75 3.5 0.5 2.5 3.1 -0.25 4.2 L-0.3 4.1 -0.35 4.1 -4.0 2.0 Q-4.0 -1.8 0.7 -3.85 L3.95 -4.25 4.0 -2.85" fill="url(#gradient28)" fill-rule="evenodd" stroke="none"/>
      <path d="M4.0 -2.85 L3.95 -4.25 0.7 -3.85 Q-4.0 -1.8 -4.0 2.0 L-0.35 4.1 -0.3 4.1 -0.25 4.2 Q2.5 3.1 3.5 0.5 3.95 -0.75 4.0 -2.35 L4.0 -2.85 Z" fill="none" stroke="#000000" stroke-linecap="round" stroke-linejoin="round" stroke-width="0.05"/>
    </g>
    <radialGradient cx="0" cy="0" gradientTransform="matrix(0.0073, 2.0E-4, -4.0E-4, 0.0072, -0.45, -0.2)" gradientUnits="userSpaceOnUse" id="gradient28" r="819.2" spreadMethod="pad">
      <stop offset="0.0" stop-color="#403726"/>
      <stop offset="1.0" stop-color="#10100a"/>
    </radialGradient>
  </defs>
</svg>
