<?xml version="1.0" encoding="UTF-8" standalone="no"?>
<svg xmlns:ffdec="https://www.free-decompiler.com/flash" xmlns:xlink="http://www.w3.org/1999/xlink" ffdec:objectType="frame" height="42.7px" width="40.3px" xmlns="http://www.w3.org/2000/svg">
  <g transform="matrix(2.0, 0.0, 0.0, 2.0, 35.8, 14.0)">
    <use ffdec:characterId="2040" height="21.35" transform="matrix(1.0, 0.0, 0.0, 1.0, -17.9, -7.0)" width="20.15" xlink:href="#shape0"/>
    <filter id="filter0">
      <feColorMatrix in="SourceGraphic" result="filterResult0" type="matrix" values="0 0 0 0 1.0,0 0 0 0 1.0,0 0 0 0 0.6,0 0 0 1 0"/>
      <feConvolveMatrix divisor="25.0" in="filterResult0" kernelMatrix="1 1 1 1 1 1 1 1 1 1 1 1 1 1 1 1 1 1 1 1 1 1 1 1 1" order="5 5" result="filterResult1"/>
      <feComposite in="SourceGraphic" in2="filterResult1" operator="over" result="filterResult2"/>
    </filter>
    <use ffdec:characterId="909" filter="url(#filter0)" height="11.75" transform="matrix(1.0, 0.0, 0.0, 1.0, -14.4, -6.0)" width="9.65" xlink:href="#sprite0"/>
  </g>
  <defs>
    <g id="shape0" transform="matrix(1.0, 0.0, 0.0, 1.0, 17.9, 7.0)">
      <path d="M-0.7 -1.35 L2.25 -0.4 Q-3.45 5.65 -5.55 14.35 L-15.35 11.3 Q-14.15 10.25 -13.85 8.95 L-6.6 11.2 Q-4.9 4.05 -0.7 -1.35" fill="url(#gradient0)" fill-rule="evenodd" stroke="none"/>
      <path d="M-14.9 5.8 L-17.9 4.85 Q-11.5 0.4 -8.3 -7.0 L0.15 -6.7 -1.75 -4.45 Q-5.95 0.9 -7.65 8.05 L-14.9 5.8" fill="url(#gradient1)" fill-rule="evenodd" stroke="none"/>
      <path d="M-13.85 8.95 L-16.5 8.15 Q-15.25 7.1 -14.9 5.8 L-7.65 8.05 Q-5.95 0.9 -1.75 -4.45 L1.2 -3.55 -0.7 -1.35 Q-4.9 4.05 -6.6 11.2 L-13.85 8.95" fill="url(#gradient2)" fill-rule="evenodd" stroke="none"/>
      <path d="M-0.7 -1.35 L2.25 -0.4 Q-3.45 5.65 -5.55 14.35 L-15.35 11.3 Q-14.15 10.25 -13.85 8.95 L-16.5 8.15 Q-15.25 7.1 -14.9 5.8 L-17.9 4.85 Q-11.5 0.4 -8.3 -7.0 L0.15 -6.7 -1.75 -4.45 1.2 -3.55 -0.7 -1.35 Z" fill="none" stroke="#000000" stroke-linecap="round" stroke-linejoin="round" stroke-width="0.05"/>
    </g>
    <radialGradient cx="0" cy="0" gradientTransform="matrix(0.0231, -0.0044, 0.0044, 0.0231, 3.05, 19.85)" gradientUnits="userSpaceOnUse" id="gradient0" r="819.2" spreadMethod="pad">
      <stop offset="0.0" stop-color="#404040"/>
      <stop offset="1.0" stop-color="#000000"/>
    </radialGradient>
    <radialGradient cx="0" cy="0" gradientTransform="matrix(0.0156, -0.003, 0.003, 0.0156, -12.3, -2.95)" gradientUnits="userSpaceOnUse" id="gradient1" r="819.2" spreadMethod="pad">
      <stop offset="0.0" stop-color="#382d39"/>
      <stop offset="0.6941176470588235" stop-color="#111012"/>
      <stop offset="0.9803921568627451" stop-color="#120e14"/>
    </radialGradient>
    <radialGradient cx="0" cy="0" gradientTransform="matrix(0.0187, -0.0036, 0.0036, 0.0187, -15.0, -3.45)" gradientUnits="userSpaceOnUse" id="gradient2" r="819.2" spreadMethod="pad">
      <stop offset="0.0" stop-color="#9b8c53"/>
      <stop offset="0.6588235294117647" stop-color="#51352f"/>
      <stop offset="1.0" stop-color="#202835"/>
    </radialGradient>
    <g id="sprite0" transform="matrix(1.0, 0.0, 0.0, 1.0, 4.85, 5.9)">
      <use ffdec:characterId="908" height="11.75" transform="matrix(1.0, 0.0, 0.0, 1.0, -4.85, -5.9)" width="9.65" xlink:href="#shape1"/>
    </g>
    <g id="shape1" transform="matrix(1.0, 0.0, 0.0, 1.0, 4.85, 5.9)">
      <path d="M2.8 -4.15 L2.75 -3.9 Q1.75 -4.45 1.8 -4.6 1.8 -5.9 2.55 -5.9 5.05 -5.9 4.8 -4.45 4.8 -3.0 2.6 -2.15 0.4 -1.3 0.4 0.05 0.4 0.6 1.55 1.2 2.3 1.2 3.3 0.6 L3.3 0.1 Q3.15 0.1 2.3 0.6 2.0 0.25 2.0 -0.65 1.7 -0.7 2.3 -0.7 3.9 -0.7 3.9 0.3 L3.4 1.35 2.55 1.85 Q-0.9 1.85 -0.2 0.0 -0.2 -1.7 2.05 -2.6 4.3 -3.55 4.3 -4.45 L3.5 -5.3 2.3 -4.65 Q2.3 -4.45 2.8 -4.15 M-0.2 4.1 L-0.45 3.35 Q-0.8 3.25 -0.2 3.25 2.05 3.25 1.65 4.45 1.65 5.85 0.55 5.85 -3.45 5.85 -2.45 2.6 -4.0 2.6 -4.45 3.95 L-4.85 3.95 Q-4.7 3.4 -3.85 2.75 L-2.7 2.1 Q-2.35 2.35 -1.95 4.0 -1.65 5.25 0.15 5.25 L1.05 4.6 Q0.45 4.15 -0.2 4.1" fill="#f5dd81" fill-rule="evenodd" stroke="none"/>
    </g>
  </defs>
</svg>
