<?xml version="1.0" encoding="UTF-8" standalone="no"?>
<svg xmlns:ffdec="https://www.free-decompiler.com/flash" xmlns:xlink="http://www.w3.org/1999/xlink" ffdec:objectType="frame" height="50.0px" width="568.9px" xmlns="http://www.w3.org/2000/svg">
  <g transform="matrix(2.0, 0.0, 0.0, 2.0, 284.4, 25.0)">
    <clipPath id="clipPath0" transform="matrix(0.4678, 0.0, 0.0, 0.067, -154.7, -14.25)">
      <path d="M634.7 26.05 L634.7 399.0 26.7 399.0 26.7 26.05 634.7 26.05" fill="#000000" fill-rule="evenodd" stroke="none"/>
    </clipPath>
    <g clip-path="url(#clipPath0)">
      <use ffdec:characterId="3175" height="25.0" transform="matrix(1.0, 0.0, 0.0, 1.0, -142.2, -12.5)" width="284.45" xlink:href="#shape1"/>
      <filter id="filter18">
        <feColorMatrix in="SourceGraphic" result="filterResult0" type="matrix" values="0 0 0 0 0.0,0 0 0 0 1.0,0 0 0 0 0.0,0 0 0 1 0"/>
        <feConvolveMatrix divisor="64.0" in="filterResult0" kernelMatrix="1 1 1 1 1 1 1 1 1 1 1 1 1 1 1 1 1 1 1 1 1 1 1 1 1 1 1 1 1 1 1 1 1 1 1 1 1 1 1 1 1 1 1 1 1 1 1 1 1 1 1 1 1 1 1 1 1 1 1 1 1 1 1 1" order="8 8" result="filterResult1"/>
        <feComposite in="SourceGraphic" in2="filterResult1" operator="over" result="filterResult2"/>
      </filter>
      <use ffdec:characterId="3174" filter="url(#filter18)" height="11.75" transform="matrix(1.0, 0.0, 0.0, 1.0, -101.75, -3.25)" width="199.0" xlink:href="#text0"/>
    </g>
    <use ffdec:characterId="2688" height="30.0" transform="matrix(9.4715, 0.0, 0.0, 0.832, -142.122, -12.48)" width="30.0" xlink:href="#button0"/>
  </g>
  <defs>
    <g id="shape1" transform="matrix(1.0, 0.0, 0.0, 1.0, 142.2, 12.5)">
      <path d="M142.25 12.5 L-142.2 12.5 -142.2 -12.5 142.25 -12.5 142.25 12.5" fill="url(#gradient0)" fill-rule="evenodd" stroke="none"/>
      <path d="M142.25 -12.5 L142.25 12.5 -142.2 12.5 -142.2 -12.5 142.25 -12.5" fill="url(#gradient1)" fill-rule="evenodd" stroke="none"/>
      <path d="M138.2 -4.75 L138.2 -2.5 -139.3 -2.5 -139.3 -4.75 Q-139.3 -9.5 -129.1 -9.5 L128.0 -9.5 Q138.2 -9.5 138.2 -4.75" fill="url(#gradient2)" fill-rule="evenodd" stroke="none"/>
    </g>
    <radialGradient cx="0" cy="0" gradientTransform="matrix(0.2093, 0.0, 0.0, 0.0948, -2.0, 12.0)" gradientUnits="userSpaceOnUse" id="gradient0" r="819.2" spreadMethod="pad">
      <stop offset="0.0" stop-color="#7bcd29"/>
      <stop offset="0.6901960784313725" stop-color="#293f1f"/>
      <stop offset="1.0" stop-color="#000000"/>
    </radialGradient>
    <linearGradient gradientTransform="matrix(0.0, 0.0153, -0.1736, 0.0, 0.05, 0.0)" gradientUnits="userSpaceOnUse" id="gradient1" spreadMethod="pad" x1="-819.2" x2="819.2">
      <stop offset="0.0" stop-color="#000000" stop-opacity="0.5019608"/>
      <stop offset="0.5176470588235295" stop-color="#000000" stop-opacity="0.0"/>
      <stop offset="0.5294117647058824" stop-color="#000000" stop-opacity="0.44313726"/>
      <stop offset="1.0" stop-color="#000000" stop-opacity="0.73333335"/>
    </linearGradient>
    <linearGradient gradientTransform="matrix(0.0, -0.0043, 0.1694, 0.0, -0.55, -6.0)" gradientUnits="userSpaceOnUse" id="gradient2" spreadMethod="pad" x1="-819.2" x2="819.2">
      <stop offset="0.0" stop-color="#ffffff" stop-opacity="0.0"/>
      <stop offset="0.7019607843137254" stop-color="#ffffff" stop-opacity="0.24313726"/>
      <stop offset="1.0" stop-color="#ffffff" stop-opacity="0.5137255"/>
    </linearGradient>
    <g id="text0" transform="matrix(1.0, 0.0, 0.0, 1.0, -28.75, -2.75)">
      <g transform="matrix(1.0, 0.0, 0.0, 1.0, 0.0, 0.0)">
        <use fill="#e5ffc6" height="11.75" transform="matrix(0.0098, 0.0, 0.0, 0.0098, 29.0, 11.0)" width="199.0" xlink:href="#font_standard_07_52_w0"/>
        <use fill="#e5ffc6" height="11.75" transform="matrix(0.0098, 0.0, 0.0, 0.0098, 42.25, 11.0)" width="199.0" xlink:href="#font_standard_07_52_w0"/>
        <use fill="#e5ffc6" height="11.75" transform="matrix(0.0098, 0.0, 0.0, 0.0098, 55.5, 11.0)" width="199.0" xlink:href="#font_standard_07_52_w0"/>
        <use fill="#e5ffc6" height="11.75" transform="matrix(0.0098, 0.0, 0.0, 0.0098, 68.75, 11.0)" width="199.0" xlink:href="#font_standard_07_52_.0"/>
        <use fill="#e5ffc6" height="11.75" transform="matrix(0.0098, 0.0, 0.0, 0.0098, 74.5, 11.0)" width="199.0" xlink:href="#font_standard_07_52_a0"/>
        <use fill="#e5ffc6" height="11.75" transform="matrix(0.0098, 0.0, 0.0, 0.0098, 85.25, 11.0)" width="199.0" xlink:href="#font_standard_07_52_r0"/>
        <use fill="#e5ffc6" height="11.75" transform="matrix(0.0098, 0.0, 0.0, 0.0098, 94.75, 11.0)" width="199.0" xlink:href="#font_standard_07_52_m0"/>
        <use fill="#e5ffc6" height="11.75" transform="matrix(0.0098, 0.0, 0.0, 0.0098, 110.5, 11.0)" width="199.0" xlink:href="#font_standard_07_52_o0"/>
        <use fill="#e5ffc6" height="11.75" transform="matrix(0.0098, 0.0, 0.0, 0.0098, 121.25, 11.0)" width="199.0" xlink:href="#font_standard_07_52_r0"/>
        <use fill="#e5ffc6" height="11.75" transform="matrix(0.0098, 0.0, 0.0, 0.0098, 130.75, 11.0)" width="199.0" xlink:href="#font_standard_07_52_g0"/>
        <use fill="#e5ffc6" height="11.75" transform="matrix(0.0098, 0.0, 0.0, 0.0098, 141.5, 11.0)" width="199.0" xlink:href="#font_standard_07_52_a0"/>
        <use fill="#e5ffc6" height="11.75" transform="matrix(0.0098, 0.0, 0.0, 0.0098, 152.25, 11.0)" width="199.0" xlink:href="#font_standard_07_52_m0"/>
        <use fill="#e5ffc6" height="11.75" transform="matrix(0.0098, 0.0, 0.0, 0.0098, 168.0, 11.0)" width="199.0" xlink:href="#font_standard_07_52_e0"/>
        <use fill="#e5ffc6" height="11.75" transform="matrix(0.0098, 0.0, 0.0, 0.0098, 178.75, 11.0)" width="199.0" xlink:href="#font_standard_07_52_s0"/>
        <use fill="#e5ffc6" height="11.75" transform="matrix(0.0098, 0.0, 0.0, 0.0098, 189.5, 11.0)" width="199.0" xlink:href="#font_standard_07_52_.0"/>
        <use fill="#e5ffc6" height="11.75" transform="matrix(0.0098, 0.0, 0.0, 0.0098, 195.25, 11.0)" width="199.0" xlink:href="#font_standard_07_52_c0"/>
        <use fill="#e5ffc6" height="11.75" transform="matrix(0.0098, 0.0, 0.0, 0.0098, 206.0, 11.0)" width="199.0" xlink:href="#font_standard_07_52_o0"/>
        <use fill="#e5ffc6" height="11.75" transform="matrix(0.0098, 0.0, 0.0, 0.0098, 216.75, 11.0)" width="199.0" xlink:href="#font_standard_07_52_m0"/>
      </g>
    </g>
    <g id="font_standard_07_52_w0">
      <path d="M768.0 0.0 L768.0 0.0 768.0 -128.0 896.0 -128.0 896.0 -640.0 768.0 -640.0 768.0 -128.0 512.0 -128.0 512.0 -640.0 384.0 -640.0 384.0 -128.0 128.0 -128.0 128.0 -640.0 0.0 -640.0 0.0 -128.0 128.0 -128.0 128.0 0.0 384.0 0.0 384.0 -128.0 512.0 -128.0 512.0 0.0 768.0 0.0" fill-rule="evenodd" stroke="none"/>
    </g>
    <g id="font_standard_07_52_.0">
      <path d="M0.0 0.0 L0.0 0.0 128.0 0.0 128.0 -128.0 0.0 -128.0 0.0 0.0" fill-rule="evenodd" stroke="none"/>
    </g>
    <g id="font_standard_07_52_a0">
      <path d="M0.0 -512.0 L0.0 -512.0 0.0 -128.0 128.0 -128.0 128.0 0.0 640.0 0.0 640.0 -640.0 128.0 -640.0 128.0 -512.0 0.0 -512.0 M133.0 -512.0 L133.0 -512.0 512.0 -512.0 512.0 -128.0 133.0 -128.0 133.0 -512.0" fill-rule="evenodd" stroke="none"/>
    </g>
    <g id="font_standard_07_52_r0">
      <path d="M256.0 -512.0 L256.0 -512.0 128.0 -512.0 128.0 -640.0 0.0 -640.0 0.0 0.0 128.0 0.0 128.0 -384.0 256.0 -384.0 256.0 -512.0 512.0 -512.0 512.0 -640.0 256.0 -640.0 256.0 -512.0" fill-rule="evenodd" stroke="none"/>
    </g>
    <g id="font_standard_07_52_m0">
      <path d="M640.0 -512.0 L640.0 -512.0 512.0 -512.0 512.0 -640.0 0.0 -640.0 0.0 0.0 128.0 0.0 128.0 -512.0 512.0 -512.0 512.0 0.0 640.0 0.0 640.0 -512.0 1024.0 -512.0 1024.0 0.0 1152.0 0.0 1152.0 -512.0 1024.0 -512.0 1024.0 -640.0 640.0 -640.0 640.0 -512.0" fill-rule="evenodd" stroke="none"/>
    </g>
    <g id="font_standard_07_52_o0">
      <path d="M128.0 -640.0 L128.0 -640.0 128.0 -512.0 0.0 -512.0 0.0 -128.0 128.0 -128.0 128.0 0.0 512.0 0.0 512.0 -128.0 640.0 -128.0 640.0 -512.0 512.0 -512.0 512.0 -640.0 128.0 -640.0 M512.0 -507.0 L512.0 -507.0 512.0 -133.0 128.0 -133.0 128.0 -507.0 512.0 -507.0" fill-rule="evenodd" stroke="none"/>
    </g>
    <g id="font_standard_07_52_g0">
      <path d="M128.0 256.0 L128.0 256.0 512.0 256.0 512.0 128.0 640.0 128.0 640.0 -640.0 128.0 -640.0 128.0 -512.0 0.0 -512.0 0.0 -128.0 128.0 -128.0 128.0 0.0 512.0 0.0 512.0 128.0 128.0 128.0 128.0 256.0 M512.0 -512.0 L512.0 -512.0 512.0 -128.0 133.0 -128.0 133.0 -512.0 512.0 -512.0" fill-rule="evenodd" stroke="none"/>
    </g>
    <g id="font_standard_07_52_e0">
      <path d="M512.0 -384.0 L512.0 -384.0 128.0 -384.0 128.0 -507.0 512.0 -507.0 512.0 -384.0 M0.0 -512.0 L0.0 -512.0 0.0 -128.0 128.0 -128.0 128.0 0.0 512.0 0.0 512.0 -128.0 128.0 -128.0 128.0 -256.0 640.0 -256.0 640.0 -512.0 512.0 -512.0 512.0 -640.0 128.0 -640.0 128.0 -512.0 0.0 -512.0" fill-rule="evenodd" stroke="none"/>
    </g>
    <g id="font_standard_07_52_s0">
      <path d="M640.0 -640.0 L640.0 -640.0 128.0 -640.0 128.0 -512.0 0.0 -512.0 0.0 -384.0 128.0 -384.0 128.0 -256.0 512.0 -256.0 512.0 -128.0 0.0 -128.0 0.0 0.0 512.0 0.0 512.0 -128.0 640.0 -128.0 640.0 -256.0 512.0 -256.0 512.0 -384.0 128.0 -384.0 128.0 -512.0 640.0 -512.0 640.0 -640.0" fill-rule="evenodd" stroke="none"/>
    </g>
    <g id="font_standard_07_52_c0">
      <path d="M640.0 -512.0 L640.0 -512.0 512.0 -512.0 512.0 -640.0 128.0 -640.0 128.0 -512.0 0.0 -512.0 0.0 -128.0 128.0 -128.0 128.0 0.0 512.0 0.0 512.0 -128.0 640.0 -128.0 640.0 -256.0 512.0 -256.0 512.0 -128.0 128.0 -128.0 128.0 -512.0 512.0 -512.0 512.0 -384.0 640.0 -384.0 640.0 -512.0" fill-rule="evenodd" stroke="none"/>
    </g>
  </defs>
</svg>
