<?xml version="1.0" encoding="UTF-8" standalone="no"?>
<svg xmlns:ffdec="https://www.free-decompiler.com/flash" xmlns:xlink="http://www.w3.org/1999/xlink" ffdec:objectType="shape" height="114.1px" width="51.3px" xmlns="http://www.w3.org/2000/svg">
  <g transform="matrix(2.0, 0.0, 0.0, 2.0, 26.2, 86.9)">
    <path d="M-4.65 -11.7 L-4.8 -11.9 -2.8 -22.35 Q-2.15 -30.65 -7.4 -43.45 12.1 -18.45 12.55 12.5 L7.8 12.05 Q2.85 0.35 -4.65 -11.7" fill="url(#gradient0)" fill-rule="evenodd" stroke="none"/>
    <path d="M-4.65 -11.7 L-4.8 -11.9 -2.8 -22.35 Q-2.15 -30.65 -7.4 -43.45 12.1 -18.45 12.55 12.5 L7.8 12.05 Q2.85 0.35 -4.65 -11.7 M11.35 13.1 L11.35 13.6" fill="none" stroke="#000000" stroke-linecap="round" stroke-linejoin="round" stroke-width="0.05"/>
    <path d="M-6.95 5.5 L-7.7 -6.35 -13.1 -10.9 M-4.65 -11.7 L-7.7 -6.35" fill="none" stroke="#009900" stroke-linecap="round" stroke-linejoin="round" stroke-width="0.05"/>
  </g>
  <defs>
    <radialGradient cx="0" cy="0" gradientTransform="matrix(0.0372, 0.0, 0.0, 0.0372, 5.6, -16.8)" gradientUnits="userSpaceOnUse" id="gradient0" r="819.2" spreadMethod="pad">
      <stop offset="0.0" stop-color="#597546"/>
      <stop offset="0.2549019607843137" stop-color="#263124"/>
      <stop offset="0.6235294117647059" stop-color="#0c1116"/>
      <stop offset="1.0" stop-color="#000000"/>
    </radialGradient>
  </defs>
</svg>
