<?xml version="1.0" encoding="UTF-8" standalone="no"?>
<svg xmlns:ffdec="https://www.free-decompiler.com/flash" xmlns:xlink="http://www.w3.org/1999/xlink" ffdec:objectType="shape" height="74.6px" width="53.8px" xmlns="http://www.w3.org/2000/svg">
  <g transform="matrix(2.0, 0.0, 0.0, 2.0, 27.6, 38.1)">
    <path d="M-13.2 11.15 L-13.0 -18.6 13.1 -18.6 13.1 17.8 -6.4 17.8 -13.3 18.0 -13.2 11.4 -13.0 12.35 -13.2 11.15" fill="#000000" fill-rule="evenodd" stroke="none"/>
    <path d="M-13.2 11.15 L-13.0 12.35 -13.2 11.4 -13.6 9.55 -13.8 8.65 -13.6 8.65 -13.6 8.55 -13.2 11.15 M-5.7 18.15 L-5.65 18.25 -5.75 18.25 -5.7 18.15" fill="#515151" fill-rule="evenodd" stroke="none"/>
    <path d="M9.1 -17.05 Q7.55 -18.4 7.5 -19.05 L8.75 -19.05 Q10.7 -16.85 11.2 -12.65 11.35 -9.3 11.85 -4.3 12.3 0.7 10.0 9.05 7.65 17.35 6.7 17.6 5.7 17.85 5.6 18.1 L3.45 18.1 Q6.15 14.75 7.15 8.8 8.2 2.8 9.2 1.65 10.15 0.5 10.0 -1.5 9.85 -3.55 10.25 -9.65 10.6 -15.75 9.1 -17.05" fill="#4b6b78" fill-rule="evenodd" stroke="none"/>
  </g>
</svg>
