<?xml version="1.0" encoding="UTF-8" standalone="no"?>
<svg xmlns:ffdec="https://www.free-decompiler.com/flash" xmlns:xlink="http://www.w3.org/1999/xlink" ffdec:objectType="shape" height="54.5px" width="252.3px" xmlns="http://www.w3.org/2000/svg">
  <g transform="matrix(2.0, 0.0, 0.0, 2.0, 126.1, 27.2)">
    <path d="M60.7 -1.25 Q62.55 -0.35 62.95 1.0 L63.1 3.05 Q63.1 5.05 60.65 8.9 57.65 13.65 54.2 13.65 49.5 13.65 46.6 9.65 L44.6 5.5 Q44.6 3.2 46.45 0.85 48.35 -1.55 51.85 -3.5 L57.2 -3.65 60.7 -1.25 M-62.95 -3.8 L-63.05 -5.7 Q-63.05 -8.95 -62.1 -10.25 -60.45 -12.45 -54.8 -13.6 -46.0 -13.9 -43.0 -10.25 -41.55 -8.45 -41.55 -5.25 -41.55 -2.7 -43.8 0.45 -46.85 4.75 -51.95 4.75 -59.2 4.75 -61.8 -0.25 -62.65 -1.85 -62.95 -3.8" fill="#ffffff" fill-rule="evenodd" stroke="none"/>
  </g>
</svg>
