<?xml version="1.0" encoding="UTF-8" standalone="no"?>
<svg xmlns:ffdec="https://www.free-decompiler.com/flash" xmlns:xlink="http://www.w3.org/1999/xlink" ffdec:objectType="shape" height="92.3px" width="10.5px" xmlns="http://www.w3.org/2000/svg">
  <g transform="matrix(2.0, 0.0, 0.0, 2.0, 7.6, 35.7)">
    <path d="M0.6 17.7 Q-0.2 22.7 -0.1 27.6 -2.35 29.15 -3.8 27.3 L-2.35 17.2 Q-0.6 18.4 0.6 17.7" fill="#373737" fill-rule="evenodd" stroke="none"/>
    <path d="M1.2 14.45 L0.6 17.7 Q-0.6 18.4 -2.35 17.2 L-1.95 14.45 Q-0.4 15.4 1.2 14.45" fill="#524636" fill-rule="evenodd" stroke="none"/>
    <path d="M-1.95 14.45 L-1.95 14.2 Q-0.4 -1.5 -2.1 -17.85 L0.7 -12.7 Q1.9 1.2 1.2 14.45 -0.4 15.4 -1.95 14.45" fill="url(#gradient0)" fill-rule="evenodd" stroke="none"/>
    <path d="M-1.95 14.45 L-1.95 14.2 Q-0.4 -1.5 -2.1 -17.85 L0.7 -12.7 Q1.9 1.2 1.2 14.45 L0.6 17.7 Q-0.2 22.7 -0.1 27.6 -2.35 29.15 -3.8 27.3 L-2.35 17.2 -1.95 14.45 Q-0.4 15.4 1.2 14.45 M-2.35 17.2 Q-0.6 18.4 0.6 17.7" fill="none" stroke="#000000" stroke-linecap="round" stroke-linejoin="round" stroke-width="0.05"/>
  </g>
  <defs>
    <radialGradient cx="0" cy="0" gradientTransform="matrix(0.035, 0.0, 0.0, 0.035, 0.5, 10.75)" gradientUnits="userSpaceOnUse" id="gradient0" r="819.2" spreadMethod="pad">
      <stop offset="0.0" stop-color="#412648"/>
      <stop offset="1.0" stop-color="#b957e3"/>
    </radialGradient>
  </defs>
</svg>
