<?xml version="1.0" encoding="UTF-8" standalone="no"?>
<svg xmlns:ffdec="https://www.free-decompiler.com/flash" xmlns:xlink="http://www.w3.org/1999/xlink" ffdec:objectType="frame" height="254.7px" width="375.7px" xmlns="http://www.w3.org/2000/svg">
  <g transform="matrix(2.0, 0.0, 0.0, 2.0, 175.2, 124.7)">
    <use ffdec:characterId="1775" height="70.75" transform="matrix(1.0, 0.0, 0.0, 1.0, -37.85, -60.75)" width="84.4" xlink:href="#shape0"/>
    <use ffdec:characterId="1774" height="93.2" transform="matrix(1.0, 0.0, 0.0, 1.0, -85.0, -32.1)" width="160.05" xlink:href="#sprite0"/>
  </g>
  <defs>
    <g id="shape0" transform="matrix(1.0, 0.0, 0.0, 1.0, 37.85, 60.75)">
      <path d="M-27.1 -21.5 Q-25.6 -20.55 -25.6 -18.1 -25.6 -16.45 -28.2 -12.3 -30.85 -8.1 -30.85 -6.65 -30.85 -2.85 -24.5 -2.0 -16.45 -0.95 -14.1 1.25 -13.45 1.85 -13.4 3.5 -13.35 5.55 -13.1 6.25 -12.25 8.5 -8.05 9.1 L-9.75 10.0 -11.05 9.95 -17.75 8.45 -17.85 8.4 -17.8 8.35 -21.15 6.85 Q-20.85 6.05 -20.85 5.3 -21.5 5.65 -22.0 6.4 L-28.2 2.5 Q-37.85 -4.3 -37.85 -7.1 -37.85 -8.8 -36.1 -12.2 -34.35 -15.55 -34.35 -16.85 -34.35 -17.8 -35.2 -19.3 -36.15 -21.0 -37.5 -21.75 L-37.0 -22.0 -35.25 -22.35 Q-35.5 -23.0 -37.4 -23.0 L-37.4 -23.2 Q-29.6 -23.1 -27.1 -21.5 M-18.45 -36.3 Q-16.8 -38.0 -16.15 -41.05 L-15.35 -45.7 Q-14.85 -47.85 -13.5 -47.85 -10.7 -47.85 -8.85 -46.75 -10.9 -41.85 -11.8 -40.75 -14.25 -37.75 -18.45 -36.3 M12.25 -50.35 Q11.05 -50.35 11.05 -49.75 L11.8 -49.5 11.75 -49.5 Q11.1 -49.5 10.8 -49.1 17.25 -39.15 20.05 -36.95 24.9 -33.25 35.3 -33.25 40.6 -33.25 45.9 -37.35 46.55 -36.8 46.55 -36.15 46.55 -32.7 42.2 -30.2 L33.2 -26.1 31.8 -26.2 Q31.8 -27.35 31.3 -27.25 L27.0 -27.35 Q19.75 -26.5 17.55 -25.7 L17.2 -25.6 16.55 -25.05 Q16.55 -24.25 16.65 -24.3 L16.75 -24.5 18.85 -23.65 Q24.7 -18.85 36.25 -12.6 35.6 -10.65 30.15 -8.0 24.8 -5.4 24.55 -4.1 28.55 -2.0 28.55 -1.0 25.3 7.5 22.3 7.5 20.35 7.5 19.8 0.0 19.25 -4.45 13.3 -4.15 L10.8 -4.0 10.8 -4.15 10.8 -4.45 10.8 -5.85 Q10.8 -11.7 4.35 -13.5 7.35 -16.25 11.65 -25.0 L11.9 -25.15 12.3 -25.35 11.8 -25.35 13.25 -28.55 Q13.25 -29.3 13.05 -29.35 L14.05 -31.35 Q14.8 -32.8 14.8 -35.55 14.8 -38.0 13.7 -39.95 L13.55 -41.0 12.95 -41.05 12.25 -41.8 Q10.6 -43.45 6.6 -45.6 2.4 -47.9 0.95 -49.2 -1.6 -51.55 -1.6 -54.8 L-1.7 -55.55 Q-1.65 -56.3 -1.1 -56.9 0.65 -58.75 7.0 -58.75 L8.1 -58.1 Q9.0 -57.5 13.0 -57.5 L21.05 -60.75 Q45.05 -60.75 45.05 -51.9 45.05 -51.05 43.85 -49.2 L43.75 -49.25 Q42.5 -49.25 41.7 -48.7 L40.05 -47.5 Q36.85 -45.75 27.0 -45.75 19.35 -45.75 15.75 -48.05 13.45 -50.35 12.25 -50.35" fill="#ffffff" fill-rule="evenodd" stroke="none"/>
    </g>
    <g id="sprite0" transform="matrix(1.0, 0.0, 0.0, 1.0, 80.05, 46.6)">
      <use ffdec:characterId="1773" height="93.2" transform="matrix(1.0, 0.0, 0.0, 1.0, -80.05, -46.6)" width="160.05" xlink:href="#shape1"/>
    </g>
    <g id="shape1" transform="matrix(1.0, 0.0, 0.0, 1.0, 80.05, 46.6)">
      <path d="M-57.05 -44.9 L-58.3 -44.9 Q-58.55 -44.95 -58.55 -45.75 -58.55 -47.0 -58.05 -46.4 L-56.9 -46.4 -56.15 -45.4 Q-56.35 -45.05 -57.05 -44.9 M-70.4 -17.15 L-71.05 -16.4 -72.15 -16.4 Q-72.65 -16.85 -72.65 -17.5 -72.65 -18.75 -71.55 -18.5 -70.9 -18.25 -70.55 -17.9 L-70.4 -17.15 M-70.9 -4.35 L-70.7 -4.55 Q-70.55 -4.6 -70.55 -3.8 L-70.65 -3.15 -71.3 -3.1 Q-71.55 -2.4 -71.55 -3.65 L-71.4 -4.15 -70.9 -4.35 M-40.05 35.9 L-38.55 33.6 -37.55 34.1 Q-37.9 35.15 -38.65 35.9 L-40.05 35.9 M-79.55 21.6 Q-78.45 22.0 -78.15 22.6 L-78.35 23.05 -78.3 23.15 -78.45 23.3 -78.8 23.85 -79.5 23.5 Q-80.05 23.1 -80.05 22.35 -80.05 21.6 -79.8 21.55 L-79.55 21.6 M-79.9 28.95 L-79.8 28.4 -79.4 28.4 -78.3 29.15 Q-78.7 29.9 -79.65 29.9 -79.9 30.2 -79.9 28.95 M78.95 10.6 Q79.9 10.7 80.0 11.4 79.95 12.1 78.45 12.65 L77.5 12.75 Q77.25 12.75 77.25 11.95 77.25 11.45 78.1 11.45 78.95 11.4 78.95 10.6 M72.7 14.6 Q71.45 14.6 71.45 12.85 L71.95 12.6 73.25 13.75 73.2 14.4 Q73.95 14.6 72.7 14.6 M75.45 20.1 L76.45 20.6 75.45 21.6 Q74.0 21.4 73.95 21.1 L75.45 20.1 M45.2 45.1 Q45.7 45.4 45.95 46.15 L45.7 46.6 44.5 46.4 44.25 45.1 45.2 45.1 M50.25 44.4 Q50.5 44.1 51.2 44.1 L51.35 43.95 51.5 44.75 51.2 45.6 50.5 45.6 Q50.25 45.15 50.25 44.4" fill="#ffd9c6" fill-rule="evenodd" stroke="none"/>
    </g>
  </defs>
</svg>
