<?xml version="1.0" encoding="UTF-8" standalone="no"?>
<svg xmlns:ffdec="https://www.free-decompiler.com/flash" xmlns:xlink="http://www.w3.org/1999/xlink" ffdec:objectType="frame" height="254.7px" width="375.7px" xmlns="http://www.w3.org/2000/svg">
  <g transform="matrix(2.0, 0.0, 0.0, 2.0, 175.2, 124.7)">
    <use ffdec:characterId="1776" height="72.3" transform="matrix(1.0, 0.0, 0.0, 1.0, -36.35, -61.75)" width="75.35" xlink:href="#shape0"/>
    <use ffdec:characterId="1774" height="93.2" transform="matrix(1.0, 0.0, 0.0, 1.0, -85.0, -30.4)" width="160.05" xlink:href="#sprite0"/>
  </g>
  <defs>
    <g id="shape0" transform="matrix(1.0, 0.0, 0.0, 1.0, 36.35, 61.75)">
      <path d="M-28.8 -1.05 L-22.6 -2.35 Q-17.7 -2.35 -15.8 -0.75 -14.7 0.1 -13.85 2.75 -13.05 5.35 -11.6 6.45 -9.4 8.05 -4.5 8.45 -7.85 10.55 -12.85 10.55 -14.05 10.55 -21.8 4.05 -25.9 0.6 -28.8 -1.05 M-24.6 -21.85 Q-23.85 -20.85 -23.85 -19.75 -27.3 -13.1 -30.7 -9.5 L-33.85 -9.1 -32.35 -16.4 Q-32.35 -18.65 -33.05 -19.45 -33.9 -20.4 -36.35 -21.2 -34.9 -21.45 -33.6 -22.05 -31.55 -23.0 -26.85 -23.0 -25.5 -23.0 -24.6 -21.85 M-15.1 -58.45 Q-13.3 -59.85 -10.35 -59.85 -3.35 -59.85 -2.45 -54.6 L-3.05 -54.2 Q-5.1 -52.75 -8.6 -52.75 -13.35 -52.75 -15.1 -58.45 M3.3 -13.0 Q4.9 -18.65 6.05 -20.65 8.8 -25.5 13.75 -25.5 L21.05 -24.8 21.0 -24.5 24.6 -20.95 Q24.8 -20.55 24.8 -18.35 24.8 -15.6 23.55 -14.45 20.8 -12.35 17.75 -9.25 19.9 -8.55 21.8 -6.7 23.75 -4.75 23.75 -3.25 23.35 2.35 18.95 2.5 17.55 1.0 14.25 -0.05 L12.5 -0.65 12.5 -0.6 10.05 -1.8 10.1 -1.85 Q8.75 -2.7 8.55 -3.55 L9.05 -5.2 Q9.4 -6.5 8.05 -7.85 L7.55 -7.75 7.5 -7.15 7.25 -6.9 4.0 -11.6 4.05 -13.1 3.3 -13.0 M20.9 -43.2 L23.4 -40.15 Q25.9 -37.65 32.65 -36.95 23.9 -36.55 20.5 -35.35 L17.8 -34.1 Q16.65 -33.5 14.5 -33.5 13.1 -33.5 12.3 -34.85 11.8 -35.75 11.8 -36.35 11.8 -37.65 14.8 -40.25 17.8 -42.85 17.8 -45.0 L18.0 -45.35 Q19.7 -44.5 20.9 -43.2 M13.8 -52.85 L13.85 -53.7 13.5 -53.75 13.25 -53.5 13.05 -52.75 Q13.75 -51.5 14.95 -50.4 L14.9 -50.3 13.3 -51.45 Q8.75 -54.35 8.75 -56.8 8.75 -58.75 10.75 -58.75 20.9 -58.75 24.65 -60.25 L26.65 -61.3 28.75 -61.75 Q37.6 -61.75 38.6 -58.15 L39.0 -55.15 38.2 -54.25 36.65 -51.9 Q33.75 -48.75 24.25 -48.75 18.9 -48.75 16.05 -50.25 13.8 -51.4 13.8 -52.85" fill="#ffffff" fill-rule="evenodd" stroke="none"/>
    </g>
    <g id="sprite0" transform="matrix(1.0, 0.0, 0.0, 1.0, 80.05, 46.6)">
      <use ffdec:characterId="1773" height="93.2" transform="matrix(1.0, 0.0, 0.0, 1.0, -80.05, -46.6)" width="160.05" xlink:href="#shape1"/>
    </g>
    <g id="shape1" transform="matrix(1.0, 0.0, 0.0, 1.0, 80.05, 46.6)">
      <path d="M-57.05 -44.9 L-58.3 -44.9 Q-58.55 -44.95 -58.55 -45.75 -58.55 -47.0 -58.05 -46.4 L-56.9 -46.4 -56.15 -45.4 Q-56.35 -45.05 -57.05 -44.9 M-70.4 -17.15 L-71.05 -16.4 -72.15 -16.4 Q-72.65 -16.85 -72.65 -17.5 -72.65 -18.75 -71.55 -18.5 -70.9 -18.25 -70.55 -17.9 L-70.4 -17.15 M-70.9 -4.35 L-70.7 -4.55 Q-70.55 -4.6 -70.55 -3.8 L-70.65 -3.15 -71.3 -3.1 Q-71.55 -2.4 -71.55 -3.65 L-71.4 -4.15 -70.9 -4.35 M-40.05 35.9 L-38.55 33.6 -37.55 34.1 Q-37.9 35.15 -38.65 35.9 L-40.05 35.9 M-79.55 21.6 Q-78.45 22.0 -78.15 22.6 L-78.35 23.05 -78.3 23.15 -78.45 23.3 -78.8 23.85 -79.5 23.5 Q-80.05 23.1 -80.05 22.35 -80.05 21.6 -79.8 21.55 L-79.55 21.6 M-79.9 28.95 L-79.8 28.4 -79.4 28.4 -78.3 29.15 Q-78.7 29.9 -79.65 29.9 -79.9 30.2 -79.9 28.95 M78.95 10.6 Q79.9 10.7 80.0 11.4 79.95 12.1 78.45 12.65 L77.5 12.75 Q77.25 12.75 77.25 11.95 77.25 11.45 78.1 11.45 78.95 11.4 78.95 10.6 M72.7 14.6 Q71.45 14.6 71.45 12.85 L71.95 12.6 73.25 13.75 73.2 14.4 Q73.95 14.6 72.7 14.6 M75.45 20.1 L76.45 20.6 75.45 21.6 Q74.0 21.4 73.95 21.1 L75.45 20.1 M45.2 45.1 Q45.7 45.4 45.95 46.15 L45.7 46.6 44.5 46.4 44.25 45.1 45.2 45.1 M50.25 44.4 Q50.5 44.1 51.2 44.1 L51.35 43.95 51.5 44.75 51.2 45.6 50.5 45.6 Q50.25 45.15 50.25 44.4" fill="#ffa171" fill-rule="evenodd" stroke="none"/>
    </g>
  </defs>
</svg>
