<?xml version="1.0" encoding="UTF-8" standalone="no"?>
<svg xmlns:ffdec="https://www.free-decompiler.com/flash" xmlns:xlink="http://www.w3.org/1999/xlink" ffdec:objectType="frame" height="254.7px" width="375.7px" xmlns="http://www.w3.org/2000/svg">
  <g transform="matrix(2.0, 0.0, 0.0, 2.0, 175.2, 124.7)">
    <use ffdec:characterId="1777" height="64.45" transform="matrix(1.0, 0.0, 0.0, 1.0, -33.0, -49.5)" width="71.6" xlink:href="#shape0"/>
    <use ffdec:characterId="1774" height="93.2" transform="matrix(1.0, 0.0, 0.0, 1.0, -85.0, -29.85)" width="160.05" xlink:href="#sprite0"/>
  </g>
  <defs>
    <g id="shape0" transform="matrix(1.0, 0.0, 0.0, 1.0, 33.0, 49.5)">
      <path d="M-18.25 5.85 Q-13.6 6.05 -12.15 7.6 -10.65 10.95 -7.6 12.8 L-8.5 13.8 -10.2 14.95 -11.05 14.9 Q-13.6 13.7 -15.95 11.65 L-20.9 7.3 -18.25 5.85 M-28.35 -8.85 Q-30.6 -8.85 -32.0 -10.35 -33.0 -11.45 -33.0 -12.25 L-32.8 -13.1 -32.0 -13.65 Q-30.6 -14.5 -29.0 -14.5 -21.45 -14.5 -21.35 -10.35 L-21.55 -9.65 Q-22.3 -8.85 -28.35 -8.85 M-3.25 -45.9 L-5.6 -45.0 Q-10.0 -45.0 -10.0 -47.25 L-9.9 -48.85 Q-6.85 -49.75 -4.95 -48.85 -3.25 -48.1 -3.25 -46.55 L-3.25 -45.9 M13.15 -4.3 L9.65 -7.0 Q8.05 -8.4 8.05 -9.75 10.15 -15.75 15.3 -15.75 21.8 -15.75 21.8 -13.75 23.2 -12.05 26.0 -11.25 25.85 -9.45 23.9 -7.8 21.8 -6.0 21.8 -4.25 21.8 -2.95 23.8 -0.3 25.75 2.35 25.75 3.45 25.75 3.95 19.65 8.4 L18.25 4.45 Q18.25 1.3 16.05 -1.5 15.2 -3.1 14.0 -4.5 L13.5 -4.0 13.15 -4.3 M24.8 -29.5 L24.65 -29.15 Q23.25 -28.9 21.0 -27.8 18.05 -26.35 16.75 -26.35 14.5 -26.35 14.05 -27.85 L14.05 -29.75 Q14.05 -31.65 16.8 -34.65 18.65 -36.6 19.25 -37.95 21.7 -36.7 23.65 -34.6 25.55 -32.5 25.55 -31.75 25.55 -31.0 24.8 -29.5 M15.0 -48.35 L21.3 -49.5 Q22.15 -47.25 30.0 -47.25 L38.6 -47.1 Q38.0 -45.4 36.65 -43.85 32.75 -39.25 22.85 -39.25 L19.5 -39.7 Q19.0 -41.7 15.45 -43.85 11.3 -46.3 11.3 -46.8 11.3 -48.05 11.55 -48.1 L15.0 -48.35" fill="#ffffff" fill-rule="evenodd" stroke="none"/>
    </g>
    <g id="sprite0" transform="matrix(1.0, 0.0, 0.0, 1.0, 80.05, 46.6)">
      <use ffdec:characterId="1773" height="93.2" transform="matrix(1.0, 0.0, 0.0, 1.0, -80.05, -46.6)" width="160.05" xlink:href="#shape1"/>
    </g>
    <g id="shape1" transform="matrix(1.0, 0.0, 0.0, 1.0, 80.05, 46.6)">
      <path d="M-57.05 -44.9 L-58.3 -44.9 Q-58.55 -44.95 -58.55 -45.75 -58.55 -47.0 -58.05 -46.4 L-56.9 -46.4 -56.15 -45.4 Q-56.35 -45.05 -57.05 -44.9 M-70.4 -17.15 L-71.05 -16.4 -72.15 -16.4 Q-72.65 -16.85 -72.65 -17.5 -72.65 -18.75 -71.55 -18.5 -70.9 -18.25 -70.55 -17.9 L-70.4 -17.15 M-70.9 -4.35 L-70.7 -4.55 Q-70.55 -4.6 -70.55 -3.8 L-70.65 -3.15 -71.3 -3.1 Q-71.55 -2.4 -71.55 -3.65 L-71.4 -4.15 -70.9 -4.35 M-40.05 35.9 L-38.55 33.6 -37.55 34.1 Q-37.9 35.15 -38.65 35.9 L-40.05 35.9 M-79.55 21.6 Q-78.45 22.0 -78.15 22.6 L-78.35 23.05 -78.3 23.15 -78.45 23.3 -78.8 23.85 -79.5 23.5 Q-80.05 23.1 -80.05 22.35 -80.05 21.6 -79.8 21.55 L-79.55 21.6 M-79.9 28.95 L-79.8 28.4 -79.4 28.4 -78.3 29.15 Q-78.7 29.9 -79.65 29.9 -79.9 30.2 -79.9 28.95 M78.95 10.6 Q79.9 10.7 80.0 11.4 79.95 12.1 78.45 12.65 L77.5 12.75 Q77.25 12.75 77.25 11.95 77.25 11.45 78.1 11.45 78.95 11.4 78.95 10.6 M72.7 14.6 Q71.45 14.6 71.45 12.85 L71.95 12.6 73.25 13.75 73.2 14.4 Q73.95 14.6 72.7 14.6 M75.45 20.1 L76.45 20.6 75.45 21.6 Q74.0 21.4 73.95 21.1 L75.45 20.1 M45.2 45.1 Q45.7 45.4 45.95 46.15 L45.7 46.6 44.5 46.4 44.25 45.1 45.2 45.1 M50.25 44.4 Q50.5 44.1 51.2 44.1 L51.35 43.95 51.5 44.75 51.2 45.6 50.5 45.6 Q50.25 45.15 50.25 44.4" fill="#ff8e55" fill-rule="evenodd" stroke="none"/>
    </g>
  </defs>
</svg>
