<?xml version="1.0" encoding="UTF-8" standalone="no"?>
<svg xmlns:ffdec="https://www.free-decompiler.com/flash" xmlns:xlink="http://www.w3.org/1999/xlink" ffdec:objectType="frame" height="151.1px" width="63.3px" xmlns="http://www.w3.org/2000/svg">
  <g transform="matrix(2.0, 0.0, 0.0, 2.0, 34.4, 86.9)">
    <use ffdec:characterId="2500" height="61.5" transform="matrix(1.0, 0.0, 0.0, 1.0, -17.2, -29.4)" width="31.65" xlink:href="#shape0"/>
    <filter id="filter0">
      <feColorMatrix in="SourceGraphic" result="filterResult0" type="matrix" values="0 0 0 0 0.0,0 0 0 0 0.8,0 0 0 0 0.0,0 0 0 1 0"/>
      <feConvolveMatrix divisor="35.0" in="filterResult0" kernelMatrix="1 1 1 1 1 1 1 1 1 1 1 1 1 1 1 1 1 1 1 1 1 1 1 1 1 1 1 1 1 1 1 1 1 1 1" order="7 5" result="filterResult1"/>
      <feComposite in="SourceGraphic" in2="filterResult1" operator="over" result="filterResult2"/>
    </filter>
    <use ffdec:characterId="2476" filter="url(#filter0)" height="49.75" transform="matrix(1.0, 0.0, 0.0, 1.0, -13.2, -28.55)" width="22.85" xlink:href="#sprite0"/>
    <use ffdec:characterId="2528" height="57.05" transform="matrix(1.0, 0.0, 0.0, 1.0, -13.1, -43.45)" width="25.65" xlink:href="#shape2"/>
  </g>
  <defs>
    <g id="shape0" transform="matrix(1.0, 0.0, 0.0, 1.0, 17.2, 29.4)">
      <path d="M-6.0 -27.2 Q-4.05 -24.95 -4.05 -21.85 -4.05 -18.7 -6.0 -16.5 -7.95 -14.3 -10.65 -14.3 -11.95 -14.3 -13.1 -14.85 -14.25 -15.4 -15.25 -16.5 L-15.35 -16.65 Q-17.2 -18.8 -17.2 -21.85 -17.2 -24.95 -15.25 -27.2 -13.3 -29.4 -10.65 -29.4 -7.95 -29.4 -6.0 -27.2" fill="url(#gradient0)" fill-rule="evenodd" stroke="none"/>
      <path d="M-6.0 -27.2 Q-4.05 -24.95 -4.05 -21.85 -4.05 -18.7 -6.0 -16.5 -7.95 -14.3 -10.65 -14.3 -11.95 -14.3 -13.1 -14.85 -14.25 -15.4 -15.25 -16.5 L-15.35 -16.65 Q-17.2 -18.8 -17.2 -21.85 -17.2 -24.95 -15.25 -27.2 -13.3 -29.4 -10.65 -29.4 -7.95 -29.4 -6.0 -27.2 Z" fill="none" stroke="#000000" stroke-linecap="round" stroke-linejoin="round" stroke-width="0.05"/>
      <path d="M9.95 15.2 Q10.65 20.65 14.45 25.45 14.05 28.95 12.3 30.35 7.45 33.6 3.1 30.8 L1.65 23.1 -5.55 6.55 Q1.8 12.85 5.6 21.2 L9.95 15.2" fill="#141614" fill-rule="evenodd" stroke="none"/>
      <path d="M-5.55 6.55 L-6.05 6.15 Q-7.95 4.55 -10.1 3.1 -12.65 -3.85 -13.1 -11.15 L-13.15 -16.65 -13.15 -16.7 Q-8.1 -15.15 -4.5 -20.4 -2.3 -24.2 -3.4 -29.4 11.4 -10.05 11.2 13.4 L9.95 15.2 Q10.65 20.65 14.45 25.45 14.05 28.95 12.3 30.35 7.45 33.6 3.1 30.8 L1.65 23.1 -5.55 6.55 Q1.8 12.85 5.6 21.2 L9.95 15.2" fill="none" stroke="#000000" stroke-linecap="round" stroke-linejoin="round" stroke-width="0.05"/>
    </g>
    <radialGradient cx="0" cy="0" gradientTransform="matrix(0.0166, 0.0, 0.0, 0.0166, -10.45, -27.25)" gradientUnits="userSpaceOnUse" id="gradient0" r="819.2" spreadMethod="pad">
      <stop offset="0.0" stop-color="#ffffff"/>
      <stop offset="0.16862745098039217" stop-color="#606364"/>
      <stop offset="0.6392156862745098" stop-color="#111111"/>
      <stop offset="1.0" stop-color="#000000"/>
    </radialGradient>
    <g id="sprite0" transform="matrix(1.0, 0.0, 0.0, 1.0, 12.2, 24.45)">
      <use ffdec:characterId="2475" height="49.75" transform="matrix(1.0, 0.0, 0.0, 1.0, -12.2, -24.45)" width="22.85" xlink:href="#shape1"/>
    </g>
    <g id="shape1" transform="matrix(1.0, 0.0, 0.0, 1.0, 12.2, 24.45)">
      <path d="M-12.15 -12.55 L-12.15 -12.6 Q-2.6 -8.35 -1.65 -24.45 L10.65 16.65 6.6 25.3 Q2.8 16.95 -4.55 10.65 L-5.05 10.25 -9.1 7.2 Q-11.65 0.25 -12.1 -7.05 L-12.15 -12.55" fill="#ffffff" fill-rule="evenodd" stroke="none"/>
    </g>
    <g id="shape2" transform="matrix(1.0, 0.0, 0.0, 1.0, 13.1, 43.45)">
      <path d="M-4.65 -11.7 L-4.8 -11.9 -2.8 -22.35 Q-2.15 -30.65 -7.4 -43.45 12.1 -18.45 12.55 12.5 L7.8 12.05 Q2.85 0.35 -4.65 -11.7" fill="url(#gradient1)" fill-rule="evenodd" stroke="none"/>
      <path d="M-4.65 -11.7 L-4.8 -11.9 -2.8 -22.35 Q-2.15 -30.65 -7.4 -43.45 12.1 -18.45 12.55 12.5 L7.8 12.05 Q2.85 0.35 -4.65 -11.7 M11.35 13.1 L11.35 13.6" fill="none" stroke="#000000" stroke-linecap="round" stroke-linejoin="round" stroke-width="0.05"/>
      <path d="M-6.95 5.5 L-7.7 -6.35 -13.1 -10.9 M-4.65 -11.7 L-7.7 -6.35" fill="none" stroke="#009900" stroke-linecap="round" stroke-linejoin="round" stroke-width="0.05"/>
    </g>
    <radialGradient cx="0" cy="0" gradientTransform="matrix(0.0372, 0.0, 0.0, 0.0372, 5.6, -16.8)" gradientUnits="userSpaceOnUse" id="gradient1" r="819.2" spreadMethod="pad">
      <stop offset="0.0" stop-color="#597546"/>
      <stop offset="0.2549019607843137" stop-color="#263124"/>
      <stop offset="0.6235294117647059" stop-color="#0c1116"/>
      <stop offset="1.0" stop-color="#000000"/>
    </radialGradient>
  </defs>
</svg>
