<?xml version="1.0" encoding="UTF-8" standalone="no"?>
<svg xmlns:ffdec="https://www.free-decompiler.com/flash" xmlns:xlink="http://www.w3.org/1999/xlink" ffdec:objectType="frame" height="16.0px" width="10.0px" xmlns="http://www.w3.org/2000/svg">
  <g transform="matrix(2.0, 0.0, 0.0, 2.0, 0.0, 0.0)">
    <use ffdec:characterId="231" height="7.0" transform="matrix(1.0, 0.0, 0.0, 1.0, 0.0, 1.0)" width="5.0" xlink:href="#shape0"/>
    <use ffdec:characterId="231" height="7.0" transform="matrix(1.0, 0.0, 0.0, 1.0, 0.0, 0.0)" width="5.0" xlink:href="#shape0"/>
  </g>
  <defs>
    <g id="shape0" transform="matrix(1.0, 0.0, 0.0, 1.0, 0.0, 0.0)">
      <path d="M5.0 1.0 L0.0 1.0 0.0 0.0 5.0 0.0 5.0 1.0 M5.0 3.0 L0.0 3.0 0.0 2.0 5.0 2.0 5.0 3.0 M0.0 5.0 L0.0 4.0 5.0 4.0 5.0 5.0 0.0 5.0 M5.0 6.0 L5.0 7.0 0.0 7.0 0.0 6.0 5.0 6.0" fill="#aab3b3" fill-rule="evenodd" stroke="none"/>
    </g>
  </defs>
</svg>
