<?xml version="1.0" encoding="UTF-8" standalone="no"?>
<svg xmlns:ffdec="https://www.free-decompiler.com/flash" xmlns:xlink="http://www.w3.org/1999/xlink" ffdec:objectType="frame" height="295.4px" width="313.7px" xmlns="http://www.w3.org/2000/svg">
  <g transform="matrix(2.0, 0.0, 0.0, 2.0, 139.5, 143.6)">
    <use ffdec:characterId="2427" height="48.7" id="thing0" transform="matrix(1.0, 0.0, 0.0, 1.0, -20.25, -71.8)" width="57.85" xlink:href="#sprite0"/>
    <use ffdec:characterId="2427" height="48.7" id="thing4" transform="matrix(1.0, 0.0, 0.0, 1.0, -20.25, 27.2)" width="57.85" xlink:href="#sprite0"/>
    <use ffdec:characterId="2427" height="48.7" id="thing2" transform="matrix(1.0, 0.0, 0.0, 1.0, 29.25, -22.6)" width="57.85" xlink:href="#sprite0"/>
    <use ffdec:characterId="2427" height="48.7" id="thing6" transform="matrix(1.0, 0.0, 0.0, 1.0, -69.75, -22.6)" width="57.85" xlink:href="#sprite0"/>
    <use ffdec:characterId="2427" height="48.7" id="thing7" transform="matrix(1.0, 0.0, 0.0, 1.0, -55.2494, -57.2993)" width="57.85" xlink:href="#sprite0"/>
    <use ffdec:characterId="2427" height="48.7" id="thing3" transform="matrix(1.0, 0.0, 0.0, 1.0, 14.7506, 12.7007)" width="57.85" xlink:href="#sprite0"/>
    <use ffdec:characterId="2427" height="48.7" id="thing1" transform="matrix(1.0, 0.0, 0.0, 1.0, 14.5506, -57.4993)" width="57.85" xlink:href="#sprite0"/>
    <use ffdec:characterId="2427" height="48.7" id="thing5" transform="matrix(1.0, 0.0, 0.0, 1.0, -55.4494, 12.5007)" width="57.85" xlink:href="#sprite0"/>
    <use ffdec:characterId="3381" height="22.5" id="thingo2" transform="matrix(1.1628, 0.0, 0.0, 1.1628, 36.4185, -12.7315)" width="22.5" xlink:href="#button0"/>
    <use ffdec:characterId="3380" height="22.5" id="thingo6" transform="matrix(1.1628, 0.0, 0.0, 1.1628, -62.6315, -12.7315)" width="22.5" xlink:href="#button1"/>
    <use ffdec:characterId="3379" height="22.5" id="thingo0" transform="matrix(1.1628, 0.0, 0.0, 1.1628, -13.0815, -62.2315)" width="22.5" xlink:href="#button2"/>
    <use ffdec:characterId="3378" height="22.5" id="thingo4" transform="matrix(1.1628, 0.0, 0.0, 1.1628, -13.0815, 36.8185)" width="22.5" xlink:href="#button3"/>
    <use ffdec:characterId="3377" height="22.5" id="thingo3" transform="matrix(1.1628, 0.0, 0.0, 1.1628, 21.9187, 22.3187)" width="22.5" xlink:href="#button4"/>
    <use ffdec:characterId="3376" height="22.5" id="thingo7" transform="matrix(1.1628, 0.0, 0.0, 1.1628, -48.1313, -47.7313)" width="22.5" xlink:href="#button5"/>
    <use ffdec:characterId="3375" height="22.5" id="thingo1" transform="matrix(1.1628, 0.0, 0.0, 1.1628, 21.9187, -47.6813)" width="22.5" xlink:href="#button6"/>
    <use ffdec:characterId="3374" height="22.5" id="thingo5" transform="matrix(1.1628, 0.0, 0.0, 1.1628, -48.1313, 22.3687)" width="22.5" xlink:href="#button7"/>
  </g>
  <defs>
    <g id="sprite0" transform="matrix(1.0, 0.0, 0.0, 1.0, 20.25, 22.6)">
      <clipPath id="clipPath0" transform="matrix(1.0, 0.0, 0.0, 1.0, 0.0, 0.0)">
        <path d="M11.5 0.0 Q11.5 4.75 8.15 8.15 4.8 11.5 0.0 11.5 -4.8 11.5 -8.15 8.15 -11.5 4.75 -11.5 0.0 L-11.4 -1.3 -11.35 -1.85 Q-10.8 -5.45 -8.15 -8.15 -4.8 -11.5 0.0 -11.5 L2.95 -11.15 Q5.85 -10.45 8.15 -8.15 10.4 -5.85 11.2 -2.9 L11.3 -2.45 11.5 0.0" fill="#ffcc00" fill-rule="evenodd" stroke="none"/>
      </clipPath>
      <use ffdec:characterId="2241" height="23.0" id="bfilter" transform="matrix(1.0, 0.0, 0.0, 1.0, -11.5, -11.5)" width="23.0" xlink:href="#sprite1"/>
    </g>
    <g id="sprite1" transform="matrix(1.0, 0.0, 0.0, 1.0, 11.5, 11.5)">
      <use ffdec:characterId="2240" height="23.0" transform="matrix(1.0, 0.0, 0.0, 1.0, -11.5, -11.5)" width="23.0" xlink:href="#shape1"/>
    </g>
    <g id="shape1" transform="matrix(1.0, 0.0, 0.0, 1.0, 11.5, 11.5)">
      <path d="M11.5 0.0 Q11.5 4.75 8.15 8.15 4.8 11.5 0.0 11.5 -4.8 11.5 -8.15 8.15 -11.5 4.75 -11.5 0.0 L-11.4 -1.3 -11.35 -1.85 Q-10.8 -5.45 -8.15 -8.15 -4.8 -11.5 0.0 -11.5 L2.95 -11.15 Q5.85 -10.45 8.15 -8.15 10.4 -5.85 11.2 -2.9 L11.3 -2.45 11.5 0.0" fill="#000000" fill-rule="evenodd" stroke="none"/>
    </g>
    <g id="button0" transform="matrix(1.0, 0.0, 0.0, 1.0, 11.25, 11.25)">
      <use ffdec:characterId="2434" height="21.0" transform="matrix(1.0, 0.0, 0.0, 1.0, -10.5, -10.5)" width="21.0" xlink:href="#shape2"/>
    </g>
    <g id="shape2" transform="matrix(1.0, 0.0, 0.0, 1.0, 10.5, 10.5)">
      <path d="M10.5 -0.15 L10.5 0.0 10.4 1.8 10.4 1.95 10.4 1.9 10.3 2.2 10.3 2.3 10.25 2.55 9.35 4.85 9.2 5.2 7.55 7.35 7.45 7.4 7.35 7.5 5.95 8.7 Q3.35 10.5 0.0 10.5 -3.15 10.5 -5.6 8.9 L-5.9 8.7 -7.3 7.5 -7.4 7.4 -7.45 7.35 -7.5 7.3 -7.55 7.25 -9.25 4.95 -9.35 4.75 -9.45 4.55 -10.3 1.95 -10.35 1.7 -10.5 0.0 -10.5 -0.15 Q-10.45 -4.35 -7.5 -7.35 L-7.4 -7.45 -7.3 -7.55 Q-4.3 -10.55 0.0 -10.5 4.3 -10.55 7.35 -7.55 L7.45 -7.45 7.55 -7.35 Q10.45 -4.35 10.5 -0.15 M0.0 -9.5 Q-3.95 -9.55 -6.7 -6.75 -9.5 -3.95 -9.5 0.0 L-9.35 1.55 Q-9.15 3.0 -8.45 4.3 L-6.7 6.7 -5.25 7.95 Q-2.95 9.5 0.0 9.5 2.95 9.5 5.3 7.95 L6.75 6.7 8.4 4.55 Q9.05 3.4 9.35 2.1 L9.35 2.05 9.4 1.7 9.4 1.65 9.5 0.0 Q9.5 -3.95 6.75 -6.75 3.95 -9.55 0.0 -9.5" fill="#000000" fill-rule="evenodd" stroke="none"/>
    </g>
    <g id="button1" transform="matrix(1.0, 0.0, 0.0, 1.0, 11.25, 11.25)">
      <use ffdec:characterId="2434" height="21.0" transform="matrix(1.0, 0.0, 0.0, 1.0, -10.5, -10.5)" width="21.0" xlink:href="#shape2"/>
    </g>
    <g id="button2" transform="matrix(1.0, 0.0, 0.0, 1.0, 11.25, 11.25)">
      <use ffdec:characterId="2434" height="21.0" transform="matrix(1.0, 0.0, 0.0, 1.0, -10.5, -10.5)" width="21.0" xlink:href="#shape2"/>
    </g>
    <g id="button3" transform="matrix(1.0, 0.0, 0.0, 1.0, 11.25, 11.25)">
      <use ffdec:characterId="2434" height="21.0" transform="matrix(1.0, 0.0, 0.0, 1.0, -10.5, -10.5)" width="21.0" xlink:href="#shape2"/>
    </g>
    <g id="button4" transform="matrix(1.0, 0.0, 0.0, 1.0, 11.25, 11.25)">
      <use ffdec:characterId="2434" height="21.0" transform="matrix(1.0, 0.0, 0.0, 1.0, -10.5, -10.5)" width="21.0" xlink:href="#shape2"/>
    </g>
    <g id="button5" transform="matrix(1.0, 0.0, 0.0, 1.0, 11.25, 11.25)">
      <use ffdec:characterId="2434" height="21.0" transform="matrix(1.0, 0.0, 0.0, 1.0, -10.5, -10.5)" width="21.0" xlink:href="#shape2"/>
    </g>
    <g id="button6" transform="matrix(1.0, 0.0, 0.0, 1.0, 11.25, 11.25)">
      <use ffdec:characterId="2434" height="21.0" transform="matrix(1.0, 0.0, 0.0, 1.0, -10.5, -10.5)" width="21.0" xlink:href="#shape2"/>
    </g>
    <g id="button7" transform="matrix(1.0, 0.0, 0.0, 1.0, 11.25, 11.25)">
      <use ffdec:characterId="2434" height="21.0" transform="matrix(1.0, 0.0, 0.0, 1.0, -10.5, -10.5)" width="21.0" xlink:href="#shape2"/>
    </g>
  </defs>
</svg>
