<?xml version="1.0" encoding="UTF-8" standalone="no"?>
<svg xmlns:ffdec="https://www.free-decompiler.com/flash" xmlns:xlink="http://www.w3.org/1999/xlink" ffdec:objectType="frame" height="268.1px" width="436.8px" xmlns="http://www.w3.org/2000/svg">
  <g transform="matrix(2.0, 0.0, 0.0, 2.0, 1.1, 2.0)">
    <clipPath id="clipPath0" transform="matrix(1.0, 0.0, 0.0, 1.0, 0.0, 0.0)">
      <path d="M217.35 133.05 L0.0 133.05 0.0 0.0 217.35 0.0 217.35 133.05" fill="#262626" fill-rule="evenodd" stroke="none"/>
    </clipPath>
    <g clip-path="url(#clipPath0)">
      <use ffdec:characterId="3119" height="133.0" transform="matrix(1.0, 0.0, 0.0, 1.0, -0.05, -0.5)" width="217.4" xlink:href="#shape1"/>
      <use ffdec:characterId="3118" height="0.0" id="talentPool2" transform="matrix(1.0, 0.0, 0.0, 1.0, 0.0, 0.0)" width="0.0" xlink:href="#sprite0"/>
    </g>
    <use ffdec:characterId="3116" height="134.05" transform="matrix(1.0, 0.0, 0.0, 1.0, -0.55, -1.0)" width="218.4" xlink:href="#shape2"/>
    <use ffdec:characterId="3115" height="61.05" transform="matrix(1.0, 0.0, 0.0, 1.0, 190.7, 2.95)" width="24.5" xlink:href="#button0"/>
    <use ffdec:characterId="3114" height="61.05" transform="matrix(1.0, 0.0, 0.0, -1.0, 190.7, 127.95)" width="24.5" xlink:href="#button1"/>
  </g>
  <defs>
    <g id="shape1" transform="matrix(1.0, 0.0, 0.0, 1.0, 0.05, 0.5)">
      <path d="M-0.05 -0.5 L217.35 -0.5 217.35 132.5 -0.05 132.5 -0.05 -0.5" fill="#1e1e1e" fill-rule="evenodd" stroke="none"/>
    </g>
    <g id="shape2" transform="matrix(1.0, 0.0, 0.0, 1.0, 0.55, 1.0)">
      <path d="M217.35 132.5 L217.35 133.05 0.0 133.05 0.0 132.5 217.35 132.5" fill="#262626" fill-rule="evenodd" stroke="none"/>
      <path d="M0.0 132.5 L-0.05 132.5 -0.05 -0.5 217.35 -0.5 217.35 132.5 0.0 132.5 Z" fill="none" stroke="#000000" stroke-linecap="round" stroke-linejoin="round" stroke-width="1.0"/>
      <path d="M217.35 -0.5 L217.35 132.5 -0.05 132.5 -0.05 -0.5 217.35 -0.5" fill="url(#gradient0)" fill-rule="evenodd" stroke="none"/>
    </g>
    <linearGradient gradientTransform="matrix(0.0, -0.0812, 0.1327, 0.0, 108.65, 66.0)" gradientUnits="userSpaceOnUse" id="gradient0" spreadMethod="pad" x1="-819.2" x2="819.2">
      <stop offset="0.0" stop-color="#000000"/>
      <stop offset="0.20784313725490197" stop-color="#000000" stop-opacity="0.0"/>
      <stop offset="0.7725490196078432" stop-color="#000000" stop-opacity="0.0"/>
      <stop offset="1.0" stop-color="#000000"/>
    </linearGradient>
    <g id="button0" transform="matrix(1.0, 0.0, 0.0, 1.0, 12.25, 30.5)">
      <use ffdec:characterId="3110" height="61.05" transform="matrix(1.0, 0.0, 0.0, 1.0, -12.25, -30.5)" width="24.5" xlink:href="#shape3"/>
      <use ffdec:characterId="3111" height="40.5" transform="matrix(1.0, 0.0, 0.0, 1.0, -5.5, -22.5)" width="11.0" xlink:href="#shape4"/>
    </g>
    <g id="shape3" transform="matrix(1.0, 0.0, 0.0, 1.0, 12.25, 30.5)">
      <path d="M-11.75 -30.0 L11.75 -30.0 11.75 30.05 -11.75 30.05 -11.75 -30.0" fill="url(#gradient1)" fill-rule="evenodd" stroke="none"/>
      <path d="M-11.75 -30.0 L11.75 -30.0 11.75 30.05 -11.75 30.05 -11.75 -30.0 Z" fill="none" stroke="#000000" stroke-linecap="round" stroke-linejoin="round" stroke-width="1.0"/>
    </g>
    <linearGradient gradientTransform="matrix(0.0143, 0.0, 0.0, 0.0367, 0.0, 0.0)" gradientUnits="userSpaceOnUse" id="gradient1" spreadMethod="pad" x1="-819.2" x2="819.2">
      <stop offset="0.0" stop-color="#808080"/>
      <stop offset="0.1411764705882353" stop-color="#151515"/>
      <stop offset="0.7725490196078432" stop-color="#373737"/>
      <stop offset="1.0" stop-color="#000000"/>
    </linearGradient>
    <g id="shape4" transform="matrix(1.0, 0.0, 0.0, 1.0, 5.5, 22.5)">
      <path d="M0.1 -21.8 L5.5 18.0 -5.5 18.0 0.1 -22.5 0.1 -21.8" fill="url(#gradient2)" fill-rule="evenodd" stroke="none"/>
    </g>
    <radialGradient cx="0" cy="0" gradientTransform="matrix(0.0313, 0.0, 0.0, 0.0313, 0.0, -7.0)" gradientUnits="userSpaceOnUse" id="gradient2" r="819.2" spreadMethod="pad">
      <stop offset="0.0" stop-color="#ad6d0e"/>
      <stop offset="1.0" stop-color="#5e3f11"/>
    </radialGradient>
    <g id="button1" transform="matrix(1.0, 0.0, 0.0, 1.0, 12.25, 30.5)">
      <use ffdec:characterId="3110" height="61.05" transform="matrix(1.0, 0.0, 0.0, 1.0, -12.25, -30.5)" width="24.5" xlink:href="#shape3"/>
      <use ffdec:characterId="3111" height="40.5" transform="matrix(1.0, 0.0, 0.0, 1.0, -5.5, -22.5)" width="11.0" xlink:href="#shape4"/>
    </g>
  </defs>
</svg>
