<?xml version="1.0" encoding="UTF-8" standalone="no"?>
<svg xmlns:ffdec="https://www.free-decompiler.com/flash" xmlns:xlink="http://www.w3.org/1999/xlink" ffdec:objectType="frame" height="97.4px" width="137.1px" xmlns="http://www.w3.org/2000/svg">
  <g transform="matrix(2.0, 0.0, 0.0, 2.0, -16.5, 45.1)">
    <filter id="filter0">
      <feOffset dx="3.5355799791601" dy="3.535487832104965" in="SourceGraphic" result="filterResult0"/>
      <feColorMatrix in="filterResult0" result="filterResult1" type="matrix" values="0 0 0 0 0.0,0 0 0 0 0.0,0 0 0 0 0.0,0 0 0 1 0"/>
      <feConvolveMatrix divisor="25.0" in="filterResult1" kernelMatrix="1 1 1 1 1 1 1 1 1 1 1 1 1 1 1 1 1 1 1 1 1 1 1 1 1" order="5 5" result="filterResult2"/>
      <feComposite in="SourceGraphic" in2="filterResult2" operator="over" result="filterResult3"/>
    </filter>
    <use ffdec:characterId="2440" filter="url(#filter0)" height="32.0" transform="matrix(1.0, 0.0, 0.0, 1.0, 12.9, -15.95)" width="63.9" xlink:href="#sprite0"/>
    <use ffdec:characterId="2438" height="30.0" transform="matrix(1.0, 0.0, 0.0, 1.0, 13.9, -14.95)" width="61.95" xlink:href="#shape1"/>
    <use ffdec:characterId="2427" height="48.7" id="inner" transform="matrix(1.0, 0.0, 0.0, 1.0, 8.2506, -22.5493)" width="57.85" xlink:href="#sprite1"/>
    <use ffdec:characterId="2437" height="22.5" id="thingo1" transform="matrix(1.1628, 0.0, 0.0, 1.1628, 15.7187, -13.0813)" width="22.5" xlink:href="#button0"/>
  </g>
  <defs>
    <g id="sprite0" transform="matrix(1.0, 0.0, 0.0, 1.0, 92.4, 16.0)">
      <use ffdec:characterId="2439" height="32.0" transform="matrix(1.0, 0.0, 0.0, 1.0, -92.4, -16.0)" width="63.9" xlink:href="#shape0"/>
    </g>
    <g id="shape0" transform="matrix(1.0, 0.0, 0.0, 1.0, 92.4, 16.0)">
      <path d="M-65.1 -11.3 L-63.35 -9.2 -28.5 -9.2 -28.5 9.2 -63.3 9.2 -65.1 11.3 Q-69.8 16.0 -76.4 16.0 -83.0 16.0 -87.7 11.3 -92.4 6.6 -92.4 0.0 -92.4 -6.6 -87.7 -11.3 -83.0 -16.0 -76.4 -16.0 -69.8 -16.0 -65.1 -11.3" fill="url(#gradient0)" fill-rule="evenodd" stroke="none"/>
    </g>
    <linearGradient gradientTransform="matrix(0.0, 0.0195, -0.1128, 0.0, 0.05, 0.0)" gradientUnits="userSpaceOnUse" id="gradient0" spreadMethod="pad" x1="-819.2" x2="819.2">
      <stop offset="0.0" stop-color="#000000"/>
      <stop offset="1.0" stop-color="#000000"/>
    </linearGradient>
    <g id="shape1" transform="matrix(1.0, 0.0, 0.0, 1.0, -13.9, 14.95)">
      <path d="M39.5 -10.55 L41.45 -8.15 75.85 -8.15 75.85 8.25 41.5 8.25 39.5 10.65 Q35.1 15.05 28.9 15.05 22.7 15.05 18.3 10.65 13.9 6.25 13.9 0.05 13.9 -6.15 18.3 -10.55 22.7 -14.95 28.9 -14.95 35.1 -14.95 39.5 -10.55" fill="#ffffff" fill-rule="evenodd" stroke="none"/>
      <path d="M39.5 -10.55 L41.45 -8.15 75.85 -8.15 75.85 8.25 41.5 8.25 39.5 10.65 Q35.1 15.05 28.9 15.05 22.7 15.05 18.3 10.65 13.9 6.25 13.9 0.05 13.9 -6.15 18.3 -10.55 22.7 -14.95 28.9 -14.95 35.1 -14.95 39.5 -10.55" fill="url(#gradient1)" fill-rule="evenodd" stroke="none"/>
    </g>
    <linearGradient gradientTransform="matrix(0.0, 0.0183, -0.1116, 0.0, 105.35, 0.05)" gradientUnits="userSpaceOnUse" id="gradient1" spreadMethod="pad" x1="-819.2" x2="819.2">
      <stop offset="0.0" stop-color="#000000" stop-opacity="0.6313726"/>
      <stop offset="0.4588235294117647" stop-color="#000000" stop-opacity="0.0"/>
      <stop offset="0.49019607843137253" stop-color="#000000" stop-opacity="0.6117647"/>
      <stop offset="1.0" stop-color="#000000" stop-opacity="0.3137255"/>
    </linearGradient>
    <g id="sprite1" transform="matrix(1.0, 0.0, 0.0, 1.0, 20.25, 22.6)">
      <clipPath id="clipPath0" transform="matrix(1.0, 0.0, 0.0, 1.0, 0.0, 0.0)">
        <path d="M11.5 0.0 Q11.5 4.75 8.15 8.15 4.8 11.5 0.0 11.5 -4.8 11.5 -8.15 8.15 -11.5 4.75 -11.5 0.0 L-11.4 -1.3 -11.35 -1.85 Q-10.8 -5.45 -8.15 -8.15 -4.8 -11.5 0.0 -11.5 L2.95 -11.15 Q5.85 -10.45 8.15 -8.15 10.4 -5.85 11.2 -2.9 L11.3 -2.45 11.5 0.0" fill="#ffcc00" fill-rule="evenodd" stroke="none"/>
      </clipPath>
      <use ffdec:characterId="2241" height="23.0" id="bfilter" transform="matrix(1.0, 0.0, 0.0, 1.0, -11.5, -11.5)" width="23.0" xlink:href="#sprite2"/>
    </g>
    <g id="sprite2" transform="matrix(1.0, 0.0, 0.0, 1.0, 11.5, 11.5)">
      <use ffdec:characterId="2240" height="23.0" transform="matrix(1.0, 0.0, 0.0, 1.0, -11.5, -11.5)" width="23.0" xlink:href="#shape3"/>
    </g>
    <g id="shape3" transform="matrix(1.0, 0.0, 0.0, 1.0, 11.5, 11.5)">
      <path d="M11.5 0.0 Q11.5 4.75 8.15 8.15 4.8 11.5 0.0 11.5 -4.8 11.5 -8.15 8.15 -11.5 4.75 -11.5 0.0 L-11.4 -1.3 -11.35 -1.85 Q-10.8 -5.45 -8.15 -8.15 -4.8 -11.5 0.0 -11.5 L2.95 -11.15 Q5.85 -10.45 8.15 -8.15 10.4 -5.85 11.2 -2.9 L11.3 -2.45 11.5 0.0" fill="#000000" fill-rule="evenodd" stroke="none"/>
    </g>
    <g id="button0" transform="matrix(1.0, 0.0, 0.0, 1.0, 11.25, 11.25)">
      <use ffdec:characterId="2434" height="21.0" transform="matrix(1.0, 0.0, 0.0, 1.0, -10.5, -10.5)" width="21.0" xlink:href="#shape4"/>
    </g>
    <g id="shape4" transform="matrix(1.0, 0.0, 0.0, 1.0, 10.5, 10.5)">
      <path d="M10.5 -0.15 L10.5 0.0 10.4 1.8 10.4 1.95 10.4 1.9 10.3 2.2 10.3 2.3 10.25 2.55 9.35 4.85 9.2 5.2 7.55 7.35 7.45 7.4 7.35 7.5 5.95 8.7 Q3.35 10.5 0.0 10.5 -3.15 10.5 -5.6 8.9 L-5.9 8.7 -7.3 7.5 -7.4 7.4 -7.45 7.35 -7.5 7.3 -7.55 7.25 -9.25 4.95 -9.35 4.75 -9.45 4.55 -10.3 1.95 -10.35 1.7 -10.5 0.0 -10.5 -0.15 Q-10.45 -4.35 -7.5 -7.35 L-7.4 -7.45 -7.3 -7.55 Q-4.3 -10.55 0.0 -10.5 4.3 -10.55 7.35 -7.55 L7.45 -7.45 7.55 -7.35 Q10.45 -4.35 10.5 -0.15 M0.0 -9.5 Q-3.95 -9.55 -6.7 -6.75 -9.5 -3.95 -9.5 0.0 L-9.35 1.55 Q-9.15 3.0 -8.45 4.3 L-6.7 6.7 -5.25 7.95 Q-2.95 9.5 0.0 9.5 2.95 9.5 5.3 7.95 L6.75 6.7 8.4 4.55 Q9.05 3.4 9.35 2.1 L9.35 2.05 9.4 1.7 9.4 1.65 9.5 0.0 Q9.5 -3.95 6.75 -6.75 3.95 -9.55 0.0 -9.5" fill="#000000" fill-rule="evenodd" stroke="none"/>
    </g>
  </defs>
</svg>
