<?xml version="1.0" encoding="UTF-8" standalone="no"?>
<svg xmlns:ffdec="https://www.free-decompiler.com/flash" xmlns:xlink="http://www.w3.org/1999/xlink" ffdec:objectType="frame" height="23.8px" width="18.2px" xmlns="http://www.w3.org/2000/svg">
  <g transform="matrix(2.0, 0.0, 0.0, 2.0, 5.1, 13.4)">
    <use ffdec:characterId="1414" height="11.9" transform="matrix(1.0, 0.0, 0.0, 1.0, -2.55, -6.7)" width="9.1" xlink:href="#shape0"/>
    <filter id="filter0">
      <feColorMatrix in="SourceGraphic" result="filterResult0" type="matrix" values="0 0 0 0 1.0,0 0 0 0 0.2,0 0 0 0 0.0,0 0 0 1 0"/>
      <feConvolveMatrix divisor="16.0" in="filterResult0" kernelMatrix="1 1 1 1 1 1 1 1 1 1 1 1 1 1 1 1" order="4 4" result="filterResult1"/>
      <feConvolveMatrix divisor="16.0" in="filterResult1" kernelMatrix="1 1 1 1 1 1 1 1 1 1 1 1 1 1 1 1" order="4 4" result="filterResult2"/>
      <feConvolveMatrix divisor="16.0" in="filterResult2" kernelMatrix="1 1 1 1 1 1 1 1 1 1 1 1 1 1 1 1" order="4 4" result="filterResult3"/>
      <feComposite in="SourceGraphic" in2="filterResult3" operator="over" result="filterResult4"/>
    </filter>
    <use ffdec:characterId="660" filter="url(#filter0)" height="1.45" transform="matrix(1.0, 0.0, 0.0, 1.0, 2.3, -1.85)" width="2.85" xlink:href="#sprite0"/>
  </g>
  <defs>
    <g id="shape0" transform="matrix(1.0, 0.0, 0.0, 1.0, 2.55, 6.7)">
      <path d="M3.8 5.2 Q1.45 5.05 -0.6 3.65 L-1.05 0.7 -1.3 0.5 -1.45 0.35 Q-2.55 -0.85 -2.55 -2.55 -2.55 -4.25 -1.45 -5.5 -0.6 -6.4 0.5 -6.6 -1.25 -2.8 2.0 -1.2 L3.8 5.2" fill="url(#gradient0)" fill-rule="evenodd" stroke="none"/>
      <path d="M5.0 -1.3 Q4.6 -0.15 6.55 4.9 L3.8 5.2 2.0 -1.2 Q-1.25 -2.8 0.5 -6.6 L1.3 -6.7 Q2.9 -6.7 4.0 -5.5 5.15 -4.25 5.15 -2.55 L5.1 -1.85 5.0 -1.3" fill="url(#gradient1)" fill-rule="evenodd" stroke="none"/>
      <path d="M5.1 -1.85 L5.05 -1.6 5.0 -1.35 5.0 -1.3 Q4.6 -0.15 6.55 4.9 L3.8 5.2 Q1.45 5.05 -0.6 3.65 L-1.05 0.7 -1.3 0.5 -1.45 0.35 Q-2.55 -0.85 -2.55 -2.55 -2.55 -4.25 -1.45 -5.5 -0.6 -6.4 0.5 -6.6 L1.3 -6.7 Q2.9 -6.7 4.0 -5.5 5.15 -4.25 5.15 -2.55 L5.1 -1.85 5.0 -1.3 M3.8 5.2 L2.0 -1.2 Q-1.25 -2.8 0.5 -6.6" fill="none" stroke="#000000" stroke-linecap="round" stroke-linejoin="round" stroke-width="0.05"/>
    </g>
    <radialGradient cx="0" cy="0" gradientTransform="matrix(0.0116, 0.0, 0.0, 0.0116, -2.0, -2.35)" gradientUnits="userSpaceOnUse" id="gradient0" r="819.2" spreadMethod="pad">
      <stop offset="0.0" stop-color="#c7c5b8"/>
      <stop offset="0.24705882352941178" stop-color="#312736"/>
      <stop offset="0.6666666666666666" stop-color="#362d27"/>
      <stop offset="1.0" stop-color="#6f4a33"/>
    </radialGradient>
    <radialGradient cx="0" cy="0" gradientTransform="matrix(0.012, 0.0, 0.0, 0.012, 1.4, -3.5)" gradientUnits="userSpaceOnUse" id="gradient1" r="819.2" spreadMethod="pad">
      <stop offset="0.0" stop-color="#c7c5b8"/>
      <stop offset="0.24705882352941178" stop-color="#bf7748"/>
      <stop offset="0.6666666666666666" stop-color="#683f17"/>
      <stop offset="0.7137254901960784" stop-color="#ba6934"/>
      <stop offset="1.0" stop-color="#523625"/>
    </radialGradient>
    <g id="sprite0" transform="matrix(1.0, 0.0, 0.0, 1.0, 1.8, 0.5)">
      <use ffdec:characterId="59" height="1.3" transform="matrix(0.0044, 0.0, 0.0, 1.1154, -1.811, -0.4981)" width="653.2" xlink:href="#shape1"/>
    </g>
    <g id="shape1" transform="matrix(1.0, 0.0, 0.0, 1.0, 277.5, 12.55)">
      <path d="M36.7 -12.55 L276.3 -12.4 Q375.7 -12.2 375.7 -11.9 375.7 -11.65 276.3 -11.45 L36.7 -11.25 -203.0 -11.45 Q-252.65 -11.55 -277.5 -11.9 -252.65 -12.3 -203.0 -12.4 L36.7 -12.55" fill="#ffffff" fill-rule="evenodd" stroke="none"/>
    </g>
  </defs>
</svg>
