<?xml version="1.0" encoding="UTF-8" standalone="no"?>
<svg xmlns:ffdec="https://www.free-decompiler.com/flash" xmlns:xlink="http://www.w3.org/1999/xlink" ffdec:objectType="frame" height="60.8px" width="18.6px" xmlns="http://www.w3.org/2000/svg">
  <g transform="matrix(2.0, 0.0, 0.0, 2.0, 9.2, 30.4)">
    <use ffdec:characterId="2089" height="30.4" transform="matrix(1.0, 0.0, 0.0, 1.0, -4.6, -15.2)" width="9.3" xlink:href="#shape0"/>
    <filter id="filter0">
      <feColorMatrix in="SourceGraphic" result="filterResult0" type="matrix" values="0 0 0 0 1.0,0 0 0 0 0.0,0 0 0 0 0.0,0 0 0 1 0"/>
      <feConvolveMatrix divisor="25.0" in="filterResult0" kernelMatrix="1 1 1 1 1 1 1 1 1 1 1 1 1 1 1 1 1 1 1 1 1 1 1 1 1" order="5 5" result="filterResult1"/>
      <feComposite in="SourceGraphic" in2="filterResult1" operator="over" result="filterResult2"/>
    </filter>
    <use ffdec:characterId="2088" filter="url(#filter0)" height="6.05" transform="matrix(1.0, 0.0, 0.0, 1.0, -2.4, -0.55)" width="6.3" xlink:href="#sprite0"/>
  </g>
  <defs>
    <g id="shape0" transform="matrix(1.0, 0.0, 0.0, 1.0, 4.6, 15.2)">
      <path d="M2.3 -15.2 L3.85 -11.35 4.65 -5.5 4.05 -4.65 3.0 -0.15 2.85 4.95 1.6 13.4 0.15 14.95 -0.55 9.85 Q-1.8 0.2 -2.0 -10.35 L-2.0 -14.55 Q0.3 -13.95 2.3 -15.2" fill="url(#gradient0)" fill-rule="evenodd" stroke="none"/>
      <path d="M0.15 14.95 L-0.1 15.2 -3.55 13.15 -3.7 0.5 -4.6 -4.9 -3.1 -14.5 -3.1 -14.55 -2.75 -14.8 -2.0 -14.55 -2.0 -10.35 Q-1.8 0.2 -0.55 9.85 L0.15 14.95" fill="url(#gradient1)" fill-rule="evenodd" stroke="none"/>
      <path d="M2.3 -15.2 L3.85 -11.35 4.65 -5.5 4.05 -4.65 3.0 -0.15 2.85 4.95 1.6 13.4 M-3.55 13.15 L-3.7 0.5 -4.6 -4.9 -3.1 -14.5 -3.1 -14.55 -2.75 -14.8" fill="none" stroke="#000000" stroke-linecap="round" stroke-linejoin="round" stroke-width="0.05"/>
      <path d="M1.1 -7.2 L2.7 -6.75 2.85 -6.75 3.65 -7.55 3.8 -7.45 3.9 -8.3 4.2 -8.4 4.45 -7.75 4.65 -7.5 4.55 -6.8 4.55 -6.1 4.7 -5.7 Q3.15 -2.0 3.15 0.2 3.25 0.35 2.85 0.35 L2.85 0.3 2.85 0.9 2.85 1.4 2.9 2.9 2.75 5.55 2.6 5.55 2.35 1.85 2.25 0.75 Q1.45 -1.25 0.6 -4.3 L-0.3 -8.15 -0.3 -8.2 -0.3 -8.25 -0.05 -8.85 0.05 -8.65 1.1 -7.15 1.1 -7.2 M3.75 -7.05 L3.75 -7.1 3.55 -6.85 3.75 -6.95 3.75 -7.05" fill="#000000" fill-opacity="0.3019608" fill-rule="evenodd" stroke="none"/>
    </g>
    <radialGradient cx="0" cy="0" gradientTransform="matrix(0.006, 0.0, 0.0, 0.0248, 1.6, -8.65)" gradientUnits="userSpaceOnUse" id="gradient0" r="819.2" spreadMethod="pad">
      <stop offset="0.0" stop-color="#3d292e"/>
      <stop offset="0.49411764705882355" stop-color="#120e14"/>
      <stop offset="0.6784313725490196" stop-color="#000000"/>
      <stop offset="1.0" stop-color="#211b20"/>
    </radialGradient>
    <radialGradient cx="0" cy="0" gradientTransform="matrix(0.008, 0.0, 0.0, 0.0211, -5.75, -1.05)" gradientUnits="userSpaceOnUse" id="gradient1" r="819.2" spreadMethod="pad">
      <stop offset="0.0" stop-color="#3d292e"/>
      <stop offset="0.49411764705882355" stop-color="#120e14"/>
      <stop offset="0.6784313725490196" stop-color="#000000"/>
      <stop offset="1.0" stop-color="#211b20"/>
    </radialGradient>
    <g id="sprite0" transform="matrix(1.0, 0.0, 0.0, 1.0, 3.15, 3.0)">
      <use ffdec:characterId="2087" height="6.05" transform="matrix(1.0, 0.0, 0.0, 1.0, -3.15, -3.0)" width="6.3" xlink:href="#shape1"/>
    </g>
    <g id="shape1" transform="matrix(1.0, 0.0, 0.0, 1.0, 3.15, 3.0)">
      <path d="M2.25 -2.6 Q2.8 -2.35 2.8 -1.9 2.8 -0.65 0.1 -0.65 -2.4 -0.65 -3.15 -2.75 L-2.75 -3.0 Q-1.35 -1.8 0.0 -1.8 L2.25 -2.6 M2.6 1.1 Q3.15 1.45 3.15 1.85 3.15 3.05 2.05 3.05 -2.75 3.05 -2.75 1.7 L-2.75 1.3 -2.25 1.05 Q-1.9 1.8 0.25 1.8 2.3 1.8 2.6 1.1" fill="#fe7070" fill-rule="evenodd" stroke="none"/>
    </g>
  </defs>
</svg>
