<?xml version="1.0" encoding="UTF-8" standalone="no"?>
<svg xmlns:ffdec="https://www.free-decompiler.com/flash" xmlns:xlink="http://www.w3.org/1999/xlink" ffdec:objectType="frame" height="386.2px" width="855.3px" xmlns="http://www.w3.org/2000/svg">
  <g transform="matrix(2.0, 0.0, 0.0, 2.0, 285.0, 0.4)">
    <filter id="filter18">
      <feFlood flood-color="#000000" flood-opacity="1.0" result="filterResult20"/>
      <feOffset dx="3.5355799791601" dy="3.535487832104965" in="SourceGraphic" result="filterResult21"/>
      <feComposite in="filterResult20" in2="filterResult21" operator="out" result="filterResult22"/>
      <feConvolveMatrix divisor="25.0" in="filterResult22" kernelMatrix="1 1 1 1 1 1 1 1 1 1 1 1 1 1 1 1 1 1 1 1 1 1 1 1 1" order="5 5" result="filterResult23"/>
      <feComposite in="filterResult23" in2="SourceGraphic" operator="in" result="filterResult24"/>
      <feColorMatrix in="filterResult24" result="filterResult25" type="matrix" values="1 0 0 0 0,0 1 0 0 0,0 0 1 0 0,0 0 0 0.71875 0"/>
      <feComposite in="filterResult25" in2="SourceGraphic" operator="over" result="filterResult26"/>
    </filter>
    <use ffdec:characterId="3311" filter="url(#filter18)" height="31.3" id="p5" transform="matrix(1.0, 0.0, 0.0, 1.0, -28.4, 24.65)" width="285.0" xlink:href="#sprite0"/>
    <filter id="filter19">
      <feFlood flood-color="#000000" flood-opacity="1.0" result="filterResult27"/>
      <feOffset dx="3.5355799791601" dy="3.535487832104965" in="SourceGraphic" result="filterResult28"/>
      <feComposite in="filterResult27" in2="filterResult28" operator="out" result="filterResult29"/>
      <feConvolveMatrix divisor="25.0" in="filterResult29" kernelMatrix="1 1 1 1 1 1 1 1 1 1 1 1 1 1 1 1 1 1 1 1 1 1 1 1 1" order="5 5" result="filterResult30"/>
      <feComposite in="filterResult30" in2="SourceGraphic" operator="in" result="filterResult31"/>
      <feColorMatrix in="filterResult31" result="filterResult32" type="matrix" values="1 0 0 0 0,0 1 0 0 0,0 0 1 0 0,0 0 0 0.71875 0"/>
      <feComposite in="filterResult32" in2="SourceGraphic" operator="over" result="filterResult33"/>
    </filter>
    <use ffdec:characterId="3311" filter="url(#filter19)" height="31.3" id="p3" transform="matrix(1.0, 0.0, 0.0, 1.0, -28.4, 62.15)" width="285.0" xlink:href="#sprite0"/>
  </g>
  <defs>
    <g id="sprite0" transform="matrix(1.0, 0.0, 0.0, 1.0, 142.5, 12.8)">
      <use ffdec:characterId="3309" height="31.3" transform="matrix(1.0, 0.0, 0.0, 1.0, -142.5, -12.8)" width="285.0" xlink:href="#shape0"/>
      <use ffdec:characterId="3308" height="16.0" transform="matrix(1.0, 0.0, 0.0, 1.0, -136.5, -5.15)" width="132.05" xlink:href="#text0"/>
      <filter id="filter13">
        <feOffset dx="1.41423199166404" dy="1.4141951328419862" in="SourceGraphic" result="filterResult0"/>
        <feColorMatrix in="filterResult0" result="filterResult1" type="matrix" values="0 0 0 0 0.0,0 0 0 0 0.0,0 0 0 0 0.0,0 0 0 1 0"/>
        <feConvolveMatrix divisor="25.0" in="filterResult1" kernelMatrix="1 1 1 1 1 1 1 1 1 1 1 1 1 1 1 1 1 1 1 1 1 1 1 1 1" order="5 5" result="filterResult2"/>
        <feComposite in="SourceGraphic" in2="filterResult2" operator="over" result="filterResult3"/>
      </filter>
      <use ffdec:characterId="3306" filter="url(#filter13)" height="23.0" id="b3" transform="matrix(1.0, 0.0, 0.0, 1.0, 37.9, -7.8)" width="35.7" xlink:href="#sprite1"/>
      <filter id="filter14">
        <feOffset dx="1.41423199166404" dy="1.4141951328419862" in="SourceGraphic" result="filterResult4"/>
        <feColorMatrix in="filterResult4" result="filterResult5" type="matrix" values="0 0 0 0 0.0,0 0 0 0 0.0,0 0 0 0 0.0,0 0 0 1 0"/>
        <feConvolveMatrix divisor="25.0" in="filterResult5" kernelMatrix="1 1 1 1 1 1 1 1 1 1 1 1 1 1 1 1 1 1 1 1 1 1 1 1 1" order="5 5" result="filterResult6"/>
        <feComposite in="SourceGraphic" in2="filterResult6" operator="over" result="filterResult7"/>
      </filter>
      <use ffdec:characterId="3306" filter="url(#filter14)" height="23.0" id="b4" transform="matrix(1.0, 0.0, 0.0, 1.0, 69.9, -7.8)" width="35.7" xlink:href="#sprite1"/>
      <filter id="filter15">
        <feOffset dx="1.41423199166404" dy="1.4141951328419862" in="SourceGraphic" result="filterResult8"/>
        <feColorMatrix in="filterResult8" result="filterResult9" type="matrix" values="0 0 0 0 0.0,0 0 0 0 0.0,0 0 0 0 0.0,0 0 0 1 0"/>
        <feConvolveMatrix divisor="25.0" in="filterResult9" kernelMatrix="1 1 1 1 1 1 1 1 1 1 1 1 1 1 1 1 1 1 1 1 1 1 1 1 1" order="5 5" result="filterResult10"/>
        <feComposite in="SourceGraphic" in2="filterResult10" operator="over" result="filterResult11"/>
      </filter>
      <use ffdec:characterId="3306" filter="url(#filter15)" height="23.0" id="b1" transform="matrix(1.0, 0.0, 0.0, 1.0, -26.1, -7.8)" width="35.7" xlink:href="#sprite1"/>
      <filter id="filter16">
        <feOffset dx="1.41423199166404" dy="1.4141951328419862" in="SourceGraphic" result="filterResult12"/>
        <feColorMatrix in="filterResult12" result="filterResult13" type="matrix" values="0 0 0 0 0.0,0 0 0 0 0.0,0 0 0 0 0.0,0 0 0 1 0"/>
        <feConvolveMatrix divisor="25.0" in="filterResult13" kernelMatrix="1 1 1 1 1 1 1 1 1 1 1 1 1 1 1 1 1 1 1 1 1 1 1 1 1" order="5 5" result="filterResult14"/>
        <feComposite in="SourceGraphic" in2="filterResult14" operator="over" result="filterResult15"/>
      </filter>
      <use ffdec:characterId="3306" filter="url(#filter16)" height="23.0" id="b2" transform="matrix(1.0, 0.0, 0.0, 1.0, 5.9, -7.8)" width="35.7" xlink:href="#sprite1"/>
      <filter id="filter17">
        <feOffset dx="1.41423199166404" dy="1.4141951328419862" in="SourceGraphic" result="filterResult16"/>
        <feColorMatrix in="filterResult16" result="filterResult17" type="matrix" values="0 0 0 0 0.0,0 0 0 0 0.0,0 0 0 0 0.0,0 0 0 1 0"/>
        <feConvolveMatrix divisor="25.0" in="filterResult17" kernelMatrix="1 1 1 1 1 1 1 1 1 1 1 1 1 1 1 1 1 1 1 1 1 1 1 1 1" order="5 5" result="filterResult18"/>
        <feComposite in="SourceGraphic" in2="filterResult18" operator="over" result="filterResult19"/>
      </filter>
      <use ffdec:characterId="3306" filter="url(#filter17)" height="23.0" id="b5" transform="matrix(1.0, 0.0, 0.0, 1.0, 101.9, -7.8)" width="35.7" xlink:href="#sprite1"/>
    </g>
    <g id="shape0" transform="matrix(1.0, 0.0, 0.0, 1.0, 142.5, 12.8)">
      <path d="M-142.0 18.0 L-142.0 -12.3 142.0 -12.3 142.0 18.0 -142.0 18.0" fill="url(#gradient0)" fill-rule="evenodd" stroke="none"/>
      <path d="M-142.0 18.0 L-142.0 -12.3 142.0 -12.3 142.0 18.0 -142.0 18.0 Z" fill="none" stroke="#000000" stroke-linecap="round" stroke-linejoin="round" stroke-width="1.0"/>
    </g>
    <radialGradient cx="0" cy="0" gradientTransform="matrix(0.174, 0.0, 0.0, 0.2143, 0.0, 2.85)" gradientUnits="userSpaceOnUse" id="gradient0" r="819.2" spreadMethod="pad">
      <stop offset="0.0784313725490196" stop-color="#2b2b2b"/>
      <stop offset="1.0" stop-color="#111111"/>
    </radialGradient>
    <g id="text0" transform="matrix(1.0, 0.0, 0.0, 1.0, 2.0, 2.0)">
      <g transform="matrix(1.0, 0.0, 0.0, 1.0, -2.0, -2.0)">
        <use fill="#ffffff" height="16.0" transform="matrix(0.0059, 0.0, 0.0, 0.0059, 0.0, 11.75)" width="132.05" xlink:href="#font_copy_10_65_T0"/>
        <use fill="#ffffff" height="16.0" transform="matrix(0.0059, 0.0, 0.0, 0.0059, 6.75, 11.75)" width="132.05" xlink:href="#font_copy_10_65_h0"/>
        <use fill="#ffffff" height="16.0" transform="matrix(0.0059, 0.0, 0.0, 0.0059, 12.0, 11.75)" width="132.05" xlink:href="#font_copy_10_65_u0"/>
        <use fill="#ffffff" height="16.0" transform="matrix(0.0059, 0.0, 0.0, 0.0059, 17.25, 11.75)" width="132.05" xlink:href="#font_copy_10_65_r0"/>
        <use fill="#ffffff" height="16.0" transform="matrix(0.0059, 0.0, 0.0, 0.0059, 21.0, 11.75)" width="132.05" xlink:href="#font_copy_10_65_m0"/>
        <use fill="#ffffff" height="16.0" transform="matrix(0.0059, 0.0, 0.0, 0.0059, 29.25, 11.75)" width="132.05" xlink:href="#font_copy_10_65_a0"/>
        <use fill="#ffffff" height="16.0" transform="matrix(0.0059, 0.0, 0.0, 0.0059, 34.5, 11.75)" width="132.05" xlink:href="#font_copy_10_65_n0"/>
      </g>
      <g transform="matrix(1.0, 0.0, 0.0, 1.0, -2.0, -2.0)">
        <use fill="#ffffff" height="16.0" transform="matrix(0.0059, 0.0, 0.0, 0.0059, 43.5, 11.75)" width="132.05" xlink:href="#font_copy_10_65_M0"/>
        <use fill="#ffffff" height="16.0" transform="matrix(0.0059, 0.0, 0.0, 0.0059, 52.5, 11.75)" width="132.05" xlink:href="#font_copy_10_65_c0"/>
        <use fill="#ffffff" height="16.0" transform="matrix(0.0059, 0.0, 0.0, 0.0059, 57.75, 11.75)" width="132.05" xlink:href="#font_copy_10_65_P0"/>
        <use fill="#ffffff" height="16.0" transform="matrix(0.0059, 0.0, 0.0, 0.0059, 64.5, 11.75)" width="132.05" xlink:href="#font_copy_10_65_o0"/>
        <use fill="#ffffff" height="16.0" transform="matrix(0.0059, 0.0, 0.0, 0.0059, 69.75, 11.75)" width="132.05" xlink:href="#font_copy_10_65_w0"/>
        <use fill="#ffffff" height="16.0" transform="matrix(0.0059, 0.0, 0.0, 0.0059, 78.0, 11.75)" width="132.05" xlink:href="#font_copy_10_65_n0"/>
      </g>
    </g>
    <g id="font_copy_10_65_T0">
      <path d="M0.0 -1152.0 L0.0 -1152.0 384.0 -1152.0 384.0 0.0 640.0 0.0 640.0 -1152.0 1024.0 -1152.0 1024.0 -1280.0 0.0 -1280.0 0.0 -1152.0" fill-rule="evenodd" stroke="none"/>
    </g>
    <g id="font_copy_10_65_h0">
      <path d="M256.0 -896.0 L256.0 -896.0 256.0 -1280.0 0.0 -1280.0 0.0 0.0 256.0 0.0 256.0 -768.0 512.0 -768.0 512.0 0.0 768.0 0.0 768.0 -768.0 640.0 -768.0 640.0 -896.0 256.0 -896.0" fill-rule="evenodd" stroke="none"/>
    </g>
    <g id="font_copy_10_65_u0">
      <path d="M512.0 0.0 L512.0 0.0 512.0 -128.0 640.0 -128.0 640.0 0.0 768.0 0.0 768.0 -896.0 512.0 -896.0 512.0 -256.0 384.0 -256.0 384.0 -128.0 256.0 -128.0 256.0 -896.0 0.0 -896.0 0.0 -128.0 128.0 -128.0 128.0 0.0 512.0 0.0" fill-rule="evenodd" stroke="none"/>
    </g>
    <g id="font_copy_10_65_r0">
      <path d="M512.0 -768.0 L512.0 -768.0 512.0 -896.0 256.0 -896.0 256.0 -768.0 128.0 -768.0 128.0 -896.0 0.0 -896.0 0.0 0.0 256.0 0.0 256.0 -640.0 384.0 -640.0 384.0 -768.0 512.0 -768.0" fill-rule="evenodd" stroke="none"/>
    </g>
    <g id="font_copy_10_65_m0">
      <path d="M768.0 -768.0 L768.0 -768.0 640.0 -768.0 640.0 -896.0 256.0 -896.0 256.0 -768.0 128.0 -768.0 128.0 -896.0 0.0 -896.0 0.0 0.0 256.0 0.0 256.0 -640.0 384.0 -640.0 384.0 -768.0 512.0 -768.0 512.0 0.0 768.0 0.0 768.0 -640.0 896.0 -640.0 896.0 -768.0 1024.0 -768.0 1024.0 0.0 1280.0 0.0 1280.0 -768.0 1152.0 -768.0 1152.0 -896.0 768.0 -896.0 768.0 -768.0" fill-rule="evenodd" stroke="none"/>
    </g>
    <g id="font_copy_10_65_a0">
      <path d="M0.0 -128.0 L0.0 -128.0 128.0 -128.0 128.0 0.0 768.0 0.0 768.0 -768.0 640.0 -768.0 640.0 -896.0 128.0 -896.0 128.0 -768.0 512.0 -768.0 512.0 -512.0 128.0 -512.0 128.0 -384.0 0.0 -384.0 0.0 -128.0 M256.0 -384.0 L256.0 -384.0 512.0 -384.0 512.0 -128.0 256.0 -128.0 256.0 -384.0" fill-rule="evenodd" stroke="none"/>
    </g>
    <g id="font_copy_10_65_n0">
      <path d="M256.0 -768.0 L256.0 -768.0 128.0 -768.0 128.0 -896.0 0.0 -896.0 0.0 0.0 256.0 0.0 256.0 -640.0 384.0 -640.0 384.0 -768.0 512.0 -768.0 512.0 0.0 768.0 0.0 768.0 -768.0 640.0 -768.0 640.0 -896.0 256.0 -896.0 256.0 -768.0" fill-rule="evenodd" stroke="none"/>
    </g>
    <g id="font_copy_10_65_M0">
      <path d="M768.0 0.0 L768.0 0.0 768.0 -128.0 896.0 -128.0 896.0 -384.0 1024.0 -384.0 1024.0 -640.0 1152.0 -640.0 1152.0 0.0 1408.0 0.0 1408.0 -1280.0 1152.0 -1280.0 1152.0 -1152.0 1024.0 -1152.0 1024.0 -896.0 896.0 -896.0 896.0 -640.0 768.0 -640.0 768.0 -384.0 640.0 -384.0 640.0 -640.0 512.0 -640.0 512.0 -896.0 384.0 -896.0 384.0 -1152.0 256.0 -1152.0 256.0 -1280.0 0.0 -1280.0 0.0 0.0 256.0 0.0 256.0 -640.0 384.0 -640.0 384.0 -384.0 512.0 -384.0 512.0 -128.0 640.0 -128.0 640.0 0.0 768.0 0.0" fill-rule="evenodd" stroke="none"/>
    </g>
    <g id="font_copy_10_65_c0">
      <path d="M512.0 -256.0 L512.0 -256.0 512.0 -128.0 256.0 -128.0 256.0 -768.0 512.0 -768.0 512.0 -640.0 768.0 -640.0 768.0 -768.0 640.0 -768.0 640.0 -896.0 128.0 -896.0 128.0 -768.0 0.0 -768.0 0.0 -128.0 128.0 -128.0 128.0 0.0 640.0 0.0 640.0 -128.0 768.0 -128.0 768.0 -256.0 512.0 -256.0" fill-rule="evenodd" stroke="none"/>
    </g>
    <g id="font_copy_10_65_P0">
      <path d="M1024.0 -640.0 L1024.0 -640.0 1024.0 -1152.0 896.0 -1152.0 896.0 -1280.0 0.0 -1280.0 0.0 0.0 256.0 0.0 256.0 -512.0 896.0 -512.0 896.0 -640.0 1024.0 -640.0 M768.0 -640.0 L768.0 -640.0 256.0 -640.0 256.0 -1152.0 768.0 -1152.0 768.0 -640.0" fill-rule="evenodd" stroke="none"/>
    </g>
    <g id="font_copy_10_65_o0">
      <path d="M640.0 -896.0 L640.0 -896.0 128.0 -896.0 128.0 -768.0 0.0 -768.0 0.0 -128.0 128.0 -128.0 128.0 0.0 640.0 0.0 640.0 -128.0 768.0 -128.0 768.0 -768.0 640.0 -768.0 640.0 -896.0 M256.0 -768.0 L256.0 -768.0 512.0 -768.0 512.0 -128.0 256.0 -128.0 256.0 -768.0" fill-rule="evenodd" stroke="none"/>
    </g>
    <g id="font_copy_10_65_w0">
      <path d="M1024.0 -512.0 L1024.0 -512.0 896.0 -512.0 896.0 -384.0 768.0 -384.0 768.0 -768.0 512.0 -768.0 512.0 -384.0 384.0 -384.0 384.0 -512.0 256.0 -512.0 256.0 -896.0 0.0 -896.0 0.0 -512.0 128.0 -512.0 128.0 -256.0 256.0 -256.0 256.0 0.0 512.0 0.0 512.0 -256.0 768.0 -256.0 768.0 0.0 1024.0 0.0 1024.0 -256.0 1152.0 -256.0 1152.0 -512.0 1280.0 -512.0 1280.0 -896.0 1024.0 -896.0 1024.0 -512.0" fill-rule="evenodd" stroke="none"/>
    </g>
    <g id="sprite1" transform="matrix(1.0, 0.0, 0.0, 1.0, 18.9, 9.95)">
      <use ffdec:characterId="3305" height="23.0" id="PIC" transform="matrix(1.0, 0.0, 0.0, 1.0, -18.9, -9.95)" width="35.7" xlink:href="#sprite2"/>
      <use ffdec:characterId="3293" height="13.3" id="COVER" transform="matrix(1.0, 0.0, 0.0, 1.0, -13.75, -6.4)" width="27.9" xlink:href="#sprite3"/>
      <use ffdec:characterId="3289" height="30.0" transform="matrix(0.9321, 0.0, 0.0, 0.4443, -13.7812, -6.415)" width="30.0" xlink:href="#button0"/>
    </g>
    <g id="sprite2" transform="matrix(1.0, 0.0, 0.0, 1.0, 19.1, 10.2)">
      <use ffdec:characterId="3295" height="13.3" transform="matrix(1.0, 0.0, 0.0, 1.0, -13.95, -6.65)" width="27.9" xlink:href="#shape1"/>
      <clipPath id="clipPath0" transform="matrix(1.0, 0.0, 0.0, 1.0, 0.0, 0.0)">
        <path d="M13.95 6.65 L-13.95 6.65 -13.95 -6.65 13.95 -6.65 13.95 6.65" fill="#357425" fill-rule="evenodd" stroke="none"/>
      </clipPath>
      <g clip-path="url(#clipPath0)">
        <use ffdec:characterId="3296" height="19.4" transform="matrix(1.0, 0.0, 0.0, 1.0, -11.95, -8.4)" width="23.3" xlink:href="#shape2"/>
      </g>
      <use ffdec:characterId="3294" height="13.3" transform="matrix(1.0, 0.0, 0.0, 1.0, -13.95, -6.65)" width="27.9" xlink:href="#shape3"/>
    </g>
    <g id="shape1" transform="matrix(1.0, 0.0, 0.0, 1.0, 13.95, 6.65)">
      <path d="M13.95 6.65 L-13.95 6.65 -13.95 -6.65 13.95 -6.65 13.95 6.65" fill="#357425" fill-rule="evenodd" stroke="none"/>
    </g>
    <g id="shape2" transform="matrix(1.0, 0.0, 0.0, 1.0, 11.95, 8.4)">
      <path d="M-11.95 -8.4 L-5.6 -8.4 -6.65 1.5 -9.95 1.5 -11.95 -8.4 M1.75 0.05 L3.5 11.0 -2.55 10.7 -1.55 0.05 1.75 0.05 M4.95 -8.4 L11.35 -8.4 10.4 1.7 6.7 1.9 4.95 -8.4" fill="#ffffff" fill-rule="evenodd" stroke="none"/>
    </g>
    <g id="shape3" transform="matrix(1.0, 0.0, 0.0, 1.0, 13.95, 6.65)">
      <path d="M13.95 6.65 L-13.95 6.65 -13.95 -6.65 13.95 -6.65 13.95 6.65 Z" fill="none" stroke="#000000" stroke-linecap="round" stroke-linejoin="round" stroke-width="0.05"/>
    </g>
    <g id="sprite3" transform="matrix(1.0, 0.0, 0.0, 1.0, 13.95, 6.65)">
      <use ffdec:characterId="3290" height="13.3" transform="matrix(1.0, 0.0, 0.0, 1.0, -13.95, -6.65)" width="27.9" xlink:href="#shape4"/>
    </g>
    <g id="shape4" transform="matrix(1.0, 0.0, 0.0, 1.0, 13.95, 6.65)">
      <path d="M13.95 6.65 L-13.95 6.65 -13.95 -6.65 13.95 -6.65 13.95 6.65" fill="url(#gradient1)" fill-rule="evenodd" stroke="none"/>
      <path d="M11.95 -5.7 L11.95 2.75 -12.2 2.75 -12.2 -5.7 11.95 -5.7" fill="url(#gradient2)" fill-rule="evenodd" stroke="none"/>
    </g>
    <radialGradient cx="0" cy="0" gradientTransform="matrix(0.0189, 0.0, 0.0, 0.0189, 0.0, 0.0)" gradientUnits="userSpaceOnUse" id="gradient1" r="819.2" spreadMethod="pad">
      <stop offset="0.17647058823529413" stop-color="#000000" stop-opacity="0.67058825"/>
      <stop offset="1.0" stop-color="#000000"/>
    </radialGradient>
    <linearGradient gradientTransform="matrix(0.0, 0.0052, -0.0147, 0.0, -0.1, -1.5)" gradientUnits="userSpaceOnUse" id="gradient2" spreadMethod="pad" x1="-819.2" x2="819.2">
      <stop offset="0.06274509803921569" stop-color="#ffffff"/>
      <stop offset="0.23921568627450981" stop-color="#ffffff" stop-opacity="0.38039216"/>
      <stop offset="1.0" stop-color="#ffffff" stop-opacity="0.0"/>
    </linearGradient>
  </defs>
</svg>
