<?xml version="1.0" encoding="UTF-8" standalone="no"?>
<svg xmlns:ffdec="https://www.free-decompiler.com/flash" xmlns:xlink="http://www.w3.org/1999/xlink" ffdec:objectType="frame" height="102.0px" width="63.3px" xmlns="http://www.w3.org/2000/svg">
  <g transform="matrix(2.0, 0.0, 0.0, 2.0, 33.7, 30.6)">
    <use ffdec:characterId="2525" height="51.0" transform="matrix(1.0, 0.0, 0.0, 1.0, -16.85, -15.3)" width="31.65" xlink:href="#shape0"/>
    <filter id="filter0">
      <feColorMatrix in="SourceGraphic" result="filterResult0" type="matrix" values="0 0 0 0 0.0,0 0 0 0 0.8,0 0 0 0 0.0,0 0 0 1 0"/>
      <feConvolveMatrix divisor="25.0" in="filterResult0" kernelMatrix="1 1 1 1 1 1 1 1 1 1 1 1 1 1 1 1 1 1 1 1 1 1 1 1 1" order="5 5" result="filterResult1"/>
      <feComposite in="SourceGraphic" in2="filterResult1" operator="over" result="filterResult2"/>
    </filter>
    <use ffdec:characterId="2524" filter="url(#filter0)" height="6.05" transform="matrix(1.0, 0.0, 0.0, 1.0, -2.75, -5.15)" width="4.7" xlink:href="#sprite0"/>
  </g>
  <defs>
    <g id="shape0" transform="matrix(1.0, 0.0, 0.0, 1.0, 16.85, 15.3)">
      <path d="M-10.55 -3.6 L-10.65 -3.7 Q-11.05 -4.15 -13.25 -4.35 -7.25 -7.9 -4.1 -15.3 7.3 -1.45 14.8 35.7 8.05 21.3 -3.0 6.2 L-10.55 -3.6" fill="url(#gradient0)" fill-rule="evenodd" stroke="none"/>
      <path d="M-10.55 -3.6 L-3.0 6.2 -5.85 6.75 Q1.6 15.75 5.3 25.5 -2.8 13.45 -16.85 3.25 L-10.55 -3.6" fill="#141614" fill-rule="evenodd" stroke="none"/>
      <path d="M-3.0 6.2 Q8.05 21.3 14.8 35.7 7.3 -1.45 -4.1 -15.3 -7.25 -7.9 -13.25 -4.35 -11.05 -4.15 -10.65 -3.7 L-10.55 -3.6 -3.0 6.2 -5.85 6.75 Q1.6 15.75 5.3 25.5 -2.8 13.45 -16.85 3.25 L-10.55 -3.6" fill="none" stroke="#000000" stroke-linecap="round" stroke-linejoin="round" stroke-width="0.05"/>
    </g>
    <radialGradient cx="0" cy="0" gradientTransform="matrix(0.0404, 0.0, 0.0, 0.0404, 5.9, 4.4)" gradientUnits="userSpaceOnUse" id="gradient0" r="819.2" spreadMethod="pad">
      <stop offset="0.0" stop-color="#597546"/>
      <stop offset="0.2549019607843137" stop-color="#263124"/>
      <stop offset="0.6235294117647059" stop-color="#0c1116"/>
      <stop offset="1.0" stop-color="#000000"/>
    </radialGradient>
    <g id="sprite0" transform="matrix(1.0, 0.0, 0.0, 1.0, 2.35, 3.05)">
      <use ffdec:characterId="2523" height="6.05" transform="matrix(1.0, 0.0, 0.0, 1.0, -2.35, -3.05)" width="4.7" xlink:href="#shape1"/>
    </g>
    <g id="shape1" transform="matrix(1.0, 0.0, 0.0, 1.0, 2.35, 3.05)">
      <path d="M2.3 -0.35 Q2.5 0.95 1.95 1.85 1.4 2.8 0.45 2.95 -0.5 3.1 -1.3 2.35 -2.1 1.6 -2.3 0.3 -2.45 -0.95 -1.9 -1.9 -1.35 -2.85 -0.4 -3.0 0.55 -3.15 1.35 -2.4 2.15 -1.6 2.3 -0.35" fill="url(#gradient1)" fill-rule="evenodd" stroke="none"/>
    </g>
    <radialGradient cx="0" cy="0" gradientTransform="matrix(0.0048, 0.0, 0.0, 0.0048, 0.0, -0.05)" gradientUnits="userSpaceOnUse" id="gradient1" r="819.2" spreadMethod="pad">
      <stop offset="0.0" stop-color="#f5f0c5"/>
      <stop offset="1.0" stop-color="#40de18"/>
    </radialGradient>
  </defs>
</svg>
