<?xml version="1.0" encoding="UTF-8" standalone="no"?>
<svg xmlns:ffdec="https://www.free-decompiler.com/flash" xmlns:xlink="http://www.w3.org/1999/xlink" ffdec:objectType="frame" height="140.0px" width="278.0px" xmlns="http://www.w3.org/2000/svg">
  <g transform="matrix(2.0, 0.0, 0.0, 2.0, 139.0, 70.0)">
    <use ffdec:characterId="2876" height="70.0" id="tt_0" transform="matrix(1.0, 0.0, 0.0, 1.0, -69.5, -35.0)" width="13.0" xlink:href="#sprite0"/>
    <use ffdec:characterId="2876" height="70.0" id="tt_1" transform="matrix(1.0, 0.0, 0.0, 1.0, -51.5, -35.0)" width="13.0" xlink:href="#sprite0"/>
    <use ffdec:characterId="2876" height="70.0" id="tt_2" transform="matrix(1.0, 0.0, 0.0, 1.0, -33.5, -35.0)" width="13.0" xlink:href="#sprite0"/>
    <use ffdec:characterId="2876" height="70.0" id="tt_3" transform="matrix(1.0, 0.0, 0.0, 1.0, -15.5, -35.0)" width="13.0" xlink:href="#sprite0"/>
    <use ffdec:characterId="2876" height="70.0" id="tt_4" transform="matrix(1.0, 0.0, 0.0, 1.0, 2.5, -35.0)" width="13.0" xlink:href="#sprite0"/>
    <use ffdec:characterId="2876" height="70.0" id="tt_5" transform="matrix(1.0, 0.0, 0.0, 1.0, 20.5, -35.0)" width="13.0" xlink:href="#sprite0"/>
    <use ffdec:characterId="2876" height="70.0" id="tt_6" transform="matrix(1.0, 0.0, 0.0, 1.0, 38.5, -35.0)" width="13.0" xlink:href="#sprite0"/>
    <use ffdec:characterId="2876" height="70.0" id="tt_7" transform="matrix(1.0, 0.0, 0.0, 1.0, 56.5, -35.0)" width="13.0" xlink:href="#sprite0"/>
    <use ffdec:characterId="2873" height="68.0" id="ybar0" transform="matrix(1.0, 0.0, 0.0, 1.0, -68.5, -34.25)" width="11.0" xlink:href="#sprite2"/>
    <use ffdec:characterId="2873" height="68.0" id="ybar1" transform="matrix(1.0, 0.0, 0.0, 1.0, -50.5, -34.25)" width="11.0" xlink:href="#sprite2"/>
    <use ffdec:characterId="2873" height="68.0" id="ybar2" transform="matrix(1.0, 0.0, 0.0, 1.0, -32.5, -34.25)" width="11.0" xlink:href="#sprite2"/>
    <use ffdec:characterId="2873" height="68.0" id="ybar3" transform="matrix(1.0, 0.0, 0.0, 1.0, -14.5, -34.25)" width="11.0" xlink:href="#sprite2"/>
    <use ffdec:characterId="2873" height="68.0" id="ybar4" transform="matrix(1.0, 0.0, 0.0, 1.0, 3.5, -34.25)" width="11.0" xlink:href="#sprite2"/>
    <use ffdec:characterId="2873" height="68.0" id="ybar5" transform="matrix(1.0, 0.0, 0.0, 1.0, 21.5, -34.25)" width="11.0" xlink:href="#sprite2"/>
    <use ffdec:characterId="2873" height="68.0" id="ybar6" transform="matrix(1.0, 0.0, 0.0, 1.0, 39.5, -34.25)" width="11.0" xlink:href="#sprite2"/>
    <use ffdec:characterId="2873" height="68.0" id="ybar7" transform="matrix(1.0, 0.0, 0.0, 1.0, 57.5, -34.25)" width="11.0" xlink:href="#sprite2"/>
    <use ffdec:characterId="2874" height="68.0" transform="matrix(1.0, 0.0, 0.0, 1.0, -68.5, -34.25)" width="137.0" xlink:href="#shape2"/>
    <use ffdec:characterId="2873" height="68.0" id="bar0" transform="matrix(1.0, 0.0, 0.0, 1.0, -68.5, -34.25)" width="11.0" xlink:href="#sprite2"/>
    <use ffdec:characterId="2873" height="68.0" id="bar1" transform="matrix(1.0, 0.0, 0.0, 1.0, -50.5, -34.25)" width="11.0" xlink:href="#sprite2"/>
    <use ffdec:characterId="2873" height="68.0" id="bar2" transform="matrix(1.0, 0.0, 0.0, 1.0, -32.5, -34.25)" width="11.0" xlink:href="#sprite2"/>
    <use ffdec:characterId="2873" height="68.0" id="bar3" transform="matrix(1.0, 0.0, 0.0, 1.0, -14.5, -34.25)" width="11.0" xlink:href="#sprite2"/>
    <use ffdec:characterId="2873" height="68.0" id="bar4" transform="matrix(1.0, 0.0, 0.0, 1.0, 3.5, -34.25)" width="11.0" xlink:href="#sprite2"/>
    <use ffdec:characterId="2873" height="68.0" id="bar5" transform="matrix(1.0, 0.0, 0.0, 1.0, 21.5, -34.25)" width="11.0" xlink:href="#sprite2"/>
    <use ffdec:characterId="2873" height="68.0" id="bar6" transform="matrix(1.0, 0.0, 0.0, 1.0, 39.5, -34.25)" width="11.0" xlink:href="#sprite2"/>
    <use ffdec:characterId="2873" height="68.0" id="bar7" transform="matrix(1.0, 0.0, 0.0, 1.0, 57.5, -34.25)" width="11.0" xlink:href="#sprite2"/>
    <use ffdec:characterId="2872" height="68.0" id="gbar0" transform="matrix(1.0, 0.0, 0.0, 1.0, -68.5, -34.25)" width="11.0" xlink:href="#sprite4"/>
    <use ffdec:characterId="2872" height="68.0" id="gbar1" transform="matrix(1.0, 0.0, 0.0, 1.0, -50.5, -34.25)" width="11.0" xlink:href="#sprite4"/>
    <use ffdec:characterId="2872" height="68.0" id="gbar2" transform="matrix(1.0, 0.0, 0.0, 1.0, -32.5, -34.25)" width="11.0" xlink:href="#sprite4"/>
    <use ffdec:characterId="2872" height="68.0" id="gbar3" transform="matrix(1.0, 0.0, 0.0, 1.0, -14.5, -34.25)" width="11.0" xlink:href="#sprite4"/>
    <use ffdec:characterId="2872" height="68.0" id="gbar4" transform="matrix(1.0, 0.0, 0.0, 1.0, 3.5, -34.25)" width="11.0" xlink:href="#sprite4"/>
    <use ffdec:characterId="2872" height="68.0" id="gbar5" transform="matrix(1.0, 0.0, 0.0, 1.0, 21.5, -34.25)" width="11.0" xlink:href="#sprite4"/>
    <use ffdec:characterId="2872" height="68.0" id="gbar6" transform="matrix(1.0, 0.0, 0.0, 1.0, 39.5, -34.25)" width="11.0" xlink:href="#sprite4"/>
    <use ffdec:characterId="2872" height="68.0" id="gbar7" transform="matrix(1.0, 0.0, 0.0, 1.0, 57.5, -34.25)" width="11.0" xlink:href="#sprite4"/>
    <use ffdec:characterId="2872" height="68.0" id="xbar0" transform="matrix(1.0, 0.0, 0.0, 1.0, -68.5, -34.25)" width="11.0" xlink:href="#sprite4"/>
    <use ffdec:characterId="2872" height="68.0" id="xbar1" transform="matrix(1.0, 0.0, 0.0, 1.0, -50.5, -34.25)" width="11.0" xlink:href="#sprite4"/>
    <use ffdec:characterId="2872" height="68.0" id="xbar2" transform="matrix(1.0, 0.0, 0.0, 1.0, -32.5, -34.25)" width="11.0" xlink:href="#sprite4"/>
    <use ffdec:characterId="2872" height="68.0" id="xbar3" transform="matrix(1.0, 0.0, 0.0, 1.0, -14.5, -34.25)" width="11.0" xlink:href="#sprite4"/>
    <use ffdec:characterId="2872" height="68.0" id="xbar4" transform="matrix(1.0, 0.0, 0.0, 1.0, 3.5, -34.25)" width="11.0" xlink:href="#sprite4"/>
    <use ffdec:characterId="2872" height="68.0" id="xbar5" transform="matrix(1.0, 0.0, 0.0, 1.0, 21.5, -34.25)" width="11.0" xlink:href="#sprite4"/>
    <use ffdec:characterId="2872" height="68.0" id="xbar6" transform="matrix(1.0, 0.0, 0.0, 1.0, 39.5, -34.25)" width="11.0" xlink:href="#sprite4"/>
    <use ffdec:characterId="2872" height="68.0" id="xbar7" transform="matrix(1.0, 0.0, 0.0, 1.0, 57.5, -34.25)" width="11.0" xlink:href="#sprite4"/>
  </g>
  <defs>
    <g id="sprite0" transform="matrix(1.0, 0.0, 0.0, 1.0, 6.5, 35.0)">
      <use ffdec:characterId="2875" height="70.0" transform="matrix(1.0, 0.0, 0.0, 1.0, -6.5, -35.0)" width="13.0" xlink:href="#sprite1"/>
    </g>
    <g id="sprite1" transform="matrix(1.0, 0.0, 0.0, 1.0, 6.5, 35.0)">
      <use ffdec:characterId="333" height="372.95" transform="matrix(0.0214, 0.0, 0.0, 0.1877, -6.4792, -35.0105)" width="608.0" xlink:href="#shape0"/>
    </g>
    <g id="shape0" transform="matrix(1.0, 0.0, 0.0, 1.0, -26.7, -26.05)">
      <path d="M634.7 26.05 L634.7 399.0 26.7 399.0 26.7 26.05 634.7 26.05" fill="#000000" fill-rule="evenodd" stroke="none"/>
    </g>
    <g id="sprite2" transform="matrix(1.0, 0.0, 0.0, 1.0, 5.5, 68.0)">
      <use ffdec:characterId="2871" height="68.0" id="inner" transform="matrix(1.0, 0.0, 0.0, 1.0, -5.5, -68.0)" width="11.0" xlink:href="#sprite3"/>
    </g>
    <g id="sprite3" transform="matrix(1.0, 0.0, 0.0, 1.0, 5.5, 34.0)">
      <use ffdec:characterId="2870" height="300.0" transform="matrix(0.0206, 0.0, 0.0, 0.2267, -5.5, -34.0)" width="533.0" xlink:href="#shape1"/>
    </g>
    <g id="shape1" transform="matrix(1.0, 0.0, 0.0, 1.0, 0.0, 0.0)">
      <path d="M533.0 300.0 L0.0 300.0 0.0 0.0 533.0 0.0 533.0 300.0" fill="#191919" fill-rule="evenodd" stroke="none"/>
    </g>
    <g id="shape2" transform="matrix(1.0, 0.0, 0.0, 1.0, 68.5, 34.25)">
      <path d="M-57.5 -34.25 L-57.5 33.75 -68.5 33.75 -68.5 -34.25 -57.5 -34.25" fill="url(#gradient0)" fill-rule="evenodd" stroke="none"/>
      <path d="M-39.5 -34.25 L-39.5 33.75 -50.5 33.75 -50.5 -34.25 -39.5 -34.25" fill="url(#gradient1)" fill-rule="evenodd" stroke="none"/>
      <path d="M-21.5 -34.25 L-21.5 33.75 -32.5 33.75 -32.5 -34.25 -21.5 -34.25" fill="url(#gradient2)" fill-rule="evenodd" stroke="none"/>
      <path d="M-3.5 -34.25 L-3.5 33.75 -14.5 33.75 -14.5 -34.25 -3.5 -34.25" fill="url(#gradient3)" fill-rule="evenodd" stroke="none"/>
      <path d="M14.5 -34.25 L14.5 33.75 3.5 33.75 3.5 -34.25 14.5 -34.25" fill="url(#gradient4)" fill-rule="evenodd" stroke="none"/>
      <path d="M32.5 -34.25 L32.5 33.75 21.5 33.75 21.5 -34.25 32.5 -34.25" fill="url(#gradient5)" fill-rule="evenodd" stroke="none"/>
      <path d="M50.5 -34.25 L50.5 33.75 39.5 33.75 39.5 -34.25 50.5 -34.25" fill="url(#gradient6)" fill-rule="evenodd" stroke="none"/>
      <path d="M68.5 -34.25 L68.5 33.75 57.5 33.75 57.5 -34.25 68.5 -34.25" fill="url(#gradient7)" fill-rule="evenodd" stroke="none"/>
    </g>
    <linearGradient gradientTransform="matrix(0.0067, 0.0, 0.0, 0.0415, -63.0, -0.25)" gradientUnits="userSpaceOnUse" id="gradient0" spreadMethod="pad" x1="-819.2" x2="819.2">
      <stop offset="0.0" stop-color="#000000" stop-opacity="0.7019608"/>
      <stop offset="0.18823529411764706" stop-color="#000000" stop-opacity="0.2"/>
      <stop offset="0.7764705882352941" stop-color="#000000" stop-opacity="0.2"/>
      <stop offset="1.0" stop-color="#000000" stop-opacity="0.7019608"/>
      <stop offset="1.0" stop-color="#000000"/>
    </linearGradient>
    <linearGradient gradientTransform="matrix(0.0067, 0.0, 0.0, 0.0415, -45.0, -0.25)" gradientUnits="userSpaceOnUse" id="gradient1" spreadMethod="pad" x1="-819.2" x2="819.2">
      <stop offset="0.0" stop-color="#000000" stop-opacity="0.7019608"/>
      <stop offset="0.18823529411764706" stop-color="#000000" stop-opacity="0.2"/>
      <stop offset="0.7764705882352941" stop-color="#000000" stop-opacity="0.2"/>
      <stop offset="1.0" stop-color="#000000" stop-opacity="0.7019608"/>
      <stop offset="1.0" stop-color="#000000"/>
    </linearGradient>
    <linearGradient gradientTransform="matrix(0.0067, 0.0, 0.0, 0.0415, -27.0, -0.25)" gradientUnits="userSpaceOnUse" id="gradient2" spreadMethod="pad" x1="-819.2" x2="819.2">
      <stop offset="0.0" stop-color="#000000" stop-opacity="0.7019608"/>
      <stop offset="0.18823529411764706" stop-color="#000000" stop-opacity="0.2"/>
      <stop offset="0.7764705882352941" stop-color="#000000" stop-opacity="0.2"/>
      <stop offset="1.0" stop-color="#000000" stop-opacity="0.7019608"/>
      <stop offset="1.0" stop-color="#000000"/>
    </linearGradient>
    <linearGradient gradientTransform="matrix(0.0067, 0.0, 0.0, 0.0415, -9.0, -0.25)" gradientUnits="userSpaceOnUse" id="gradient3" spreadMethod="pad" x1="-819.2" x2="819.2">
      <stop offset="0.0" stop-color="#000000" stop-opacity="0.7019608"/>
      <stop offset="0.18823529411764706" stop-color="#000000" stop-opacity="0.2"/>
      <stop offset="0.7764705882352941" stop-color="#000000" stop-opacity="0.2"/>
      <stop offset="1.0" stop-color="#000000" stop-opacity="0.7019608"/>
      <stop offset="1.0" stop-color="#000000"/>
    </linearGradient>
    <linearGradient gradientTransform="matrix(0.0067, 0.0, 0.0, 0.0415, 9.0, -0.25)" gradientUnits="userSpaceOnUse" id="gradient4" spreadMethod="pad" x1="-819.2" x2="819.2">
      <stop offset="0.0" stop-color="#000000" stop-opacity="0.7019608"/>
      <stop offset="0.18823529411764706" stop-color="#000000" stop-opacity="0.2"/>
      <stop offset="0.7764705882352941" stop-color="#000000" stop-opacity="0.2"/>
      <stop offset="1.0" stop-color="#000000" stop-opacity="0.7019608"/>
      <stop offset="1.0" stop-color="#000000"/>
    </linearGradient>
    <linearGradient gradientTransform="matrix(0.0067, 0.0, 0.0, 0.0415, 27.0, -0.25)" gradientUnits="userSpaceOnUse" id="gradient5" spreadMethod="pad" x1="-819.2" x2="819.2">
      <stop offset="0.0" stop-color="#000000" stop-opacity="0.7019608"/>
      <stop offset="0.18823529411764706" stop-color="#000000" stop-opacity="0.2"/>
      <stop offset="0.7764705882352941" stop-color="#000000" stop-opacity="0.2"/>
      <stop offset="1.0" stop-color="#000000" stop-opacity="0.7019608"/>
      <stop offset="1.0" stop-color="#000000"/>
    </linearGradient>
    <linearGradient gradientTransform="matrix(0.0067, 0.0, 0.0, 0.0415, 45.0, -0.25)" gradientUnits="userSpaceOnUse" id="gradient6" spreadMethod="pad" x1="-819.2" x2="819.2">
      <stop offset="0.0" stop-color="#000000" stop-opacity="0.7019608"/>
      <stop offset="0.18823529411764706" stop-color="#000000" stop-opacity="0.2"/>
      <stop offset="0.7764705882352941" stop-color="#000000" stop-opacity="0.2"/>
      <stop offset="1.0" stop-color="#000000" stop-opacity="0.7019608"/>
      <stop offset="1.0" stop-color="#000000"/>
    </linearGradient>
    <linearGradient gradientTransform="matrix(0.0067, 0.0, 0.0, 0.0415, 63.0, -0.25)" gradientUnits="userSpaceOnUse" id="gradient7" spreadMethod="pad" x1="-819.2" x2="819.2">
      <stop offset="0.0" stop-color="#000000" stop-opacity="0.7019608"/>
      <stop offset="0.18823529411764706" stop-color="#000000" stop-opacity="0.2"/>
      <stop offset="0.7764705882352941" stop-color="#000000" stop-opacity="0.2"/>
      <stop offset="1.0" stop-color="#000000" stop-opacity="0.7019608"/>
      <stop offset="1.0" stop-color="#000000"/>
    </linearGradient>
    <g id="sprite4" transform="matrix(1.0, 0.0, 0.0, 1.0, 5.5, 68.0)">
      <filter id="filter0">
        <feColorMatrix in="SourceGraphic" result="filterResult0" type="matrix" values="0 0 0 0 1.0,0 0 0 0 1.0,0 0 0 0 1.0,0 0 0 1 0"/>
        <feConvolveMatrix divisor="81.0" in="filterResult0" kernelMatrix="1 1 1 1 1 1 1 1 1 1 1 1 1 1 1 1 1 1 1 1 1 1 1 1 1 1 1 1 1 1 1 1 1 1 1 1 1 1 1 1 1 1 1 1 1 1 1 1 1 1 1 1 1 1 1 1 1 1 1 1 1 1 1 1 1 1 1 1 1 1 1 1 1 1 1 1 1 1 1 1 1" order="9 9" result="filterResult1"/>
        <feConvolveMatrix divisor="81.0" in="filterResult1" kernelMatrix="1 1 1 1 1 1 1 1 1 1 1 1 1 1 1 1 1 1 1 1 1 1 1 1 1 1 1 1 1 1 1 1 1 1 1 1 1 1 1 1 1 1 1 1 1 1 1 1 1 1 1 1 1 1 1 1 1 1 1 1 1 1 1 1 1 1 1 1 1 1 1 1 1 1 1 1 1 1 1 1 1" order="9 9" result="filterResult2"/>
        <feConvolveMatrix divisor="81.0" in="filterResult2" kernelMatrix="1 1 1 1 1 1 1 1 1 1 1 1 1 1 1 1 1 1 1 1 1 1 1 1 1 1 1 1 1 1 1 1 1 1 1 1 1 1 1 1 1 1 1 1 1 1 1 1 1 1 1 1 1 1 1 1 1 1 1 1 1 1 1 1 1 1 1 1 1 1 1 1 1 1 1 1 1 1 1 1 1" order="9 9" result="filterResult3"/>
        <feComposite in="SourceGraphic" in2="filterResult3" operator="over" result="filterResult4"/>
      </filter>
      <use ffdec:characterId="2871" filter="url(#filter0)" height="68.0" id="inner" transform="matrix(1.0, 0.0, 0.0, 1.0, -5.5, -68.0)" width="11.0" xlink:href="#sprite3"/>
    </g>
  </defs>
</svg>
