<?xml version="1.0" encoding="UTF-8" standalone="no"?>
<svg xmlns:ffdec="https://www.free-decompiler.com/flash" xmlns:xlink="http://www.w3.org/1999/xlink" ffdec:objectType="frame" height="733.5px" width="2357.6px" xmlns="http://www.w3.org/2000/svg">
  <g transform="matrix(2.0, 0.0, 0.0, 2.0, 1204.8, 378.2)">
    <use ffdec:characterId="3443" height="154.05" transform="matrix(1.0, 0.0, 0.0, 1.0, -437.1, -157.1)" width="831.55" xlink:href="#shape0"/>
    <filter id="filter0">
      <feConvolveMatrix divisor="49.0" in="SourceGraphic" kernelMatrix="1 1 1 1 1 1 1 1 1 1 1 1 1 1 1 1 1 1 1 1 1 1 1 1 1 1 1 1 1 1 1 1 1 1 1 1 1 1 1 1 1 1 1 1 1 1 1 1 1" order="7 7" result="filterResult0"/>
    </filter>
    <use ffdec:characterId="3441" filter="url(#filter0)" height="37.45" transform="matrix(1.0, 0.0, 0.0, 1.0, -230.8, -135.35)" width="135.25" xlink:href="#sprite0"/>
    <filter id="filter1">
      <feConvolveMatrix divisor="49.0" in="SourceGraphic" kernelMatrix="1 1 1 1 1 1 1 1 1 1 1 1 1 1 1 1 1 1 1 1 1 1 1 1 1 1 1 1 1 1 1 1 1 1 1 1 1 1 1 1 1 1 1 1 1 1 1 1 1" order="7 7" result="filterResult1"/>
    </filter>
    <use ffdec:characterId="3441" filter="url(#filter1)" height="37.45" transform="matrix(1.0, 0.0, 0.0, 1.0, 121.7, -132.55)" width="135.25" xlink:href="#sprite0"/>
    <filter id="filter2">
      <feConvolveMatrix divisor="49.0" in="SourceGraphic" kernelMatrix="1 1 1 1 1 1 1 1 1 1 1 1 1 1 1 1 1 1 1 1 1 1 1 1 1 1 1 1 1 1 1 1 1 1 1 1 1 1 1 1 1 1 1 1 1 1 1 1 1" order="7 7" result="filterResult2"/>
    </filter>
    <use ffdec:characterId="3439" filter="url(#filter2)" height="53.6" transform="matrix(1.0, 0.0, 0.0, 1.0, -383.9, -161.15)" width="134.45" xlink:href="#sprite1"/>
    <filter id="filter3">
      <feConvolveMatrix divisor="49.0" in="SourceGraphic" kernelMatrix="1 1 1 1 1 1 1 1 1 1 1 1 1 1 1 1 1 1 1 1 1 1 1 1 1 1 1 1 1 1 1 1 1 1 1 1 1 1 1 1 1 1 1 1 1 1 1 1 1" order="7 7" result="filterResult3"/>
    </filter>
    <use ffdec:characterId="3439" filter="url(#filter3)" height="53.6" transform="matrix(1.0, 0.0, 0.0, 1.0, -57.9, -152.85)" width="134.45" xlink:href="#sprite1"/>
    <filter id="filter4">
      <feConvolveMatrix divisor="49.0" in="SourceGraphic" kernelMatrix="1 1 1 1 1 1 1 1 1 1 1 1 1 1 1 1 1 1 1 1 1 1 1 1 1 1 1 1 1 1 1 1 1 1 1 1 1 1 1 1 1 1 1 1 1 1 1 1 1" order="7 7" result="filterResult4"/>
    </filter>
    <use ffdec:characterId="3439" filter="url(#filter4)" height="53.6" transform="matrix(1.0, 0.0, 0.0, 1.0, 282.05, -148.55)" width="134.45" xlink:href="#sprite1"/>
  </g>
  <defs>
    <g id="shape0" transform="matrix(1.0, 0.0, 0.0, 1.0, 437.1, 157.1)">
      <path d="M385.7 -3.05 L-387.5 -3.05 -387.5 -157.1 385.7 -157.1 385.7 -3.05" fill="url(#gradient0)" fill-rule="evenodd" stroke="none"/>
      <path d="M16.65 -108.5 L19.8 -110.1 Q22.5 -111.6 25.35 -112.8 29.1 -117.1 33.8 -119.65 38.7 -122.35 43.4 -123.5 L56.55 -123.15 57.0 -123.1 57.85 -123.5 59.7 -122.85 60.5 -123.5 Q62.65 -123.1 64.3 -121.6 L68.3 -117.95 71.35 -114.65 72.65 -113.2 Q114.6 -116.45 152.2 -94.5 182.5 -76.7 205.95 -111.15 208.05 -114.2 211.05 -114.2 236.1 -114.6 256.9 -119.6 261.2 -120.65 265.65 -120.7 L295.7 -114.7 304.1 -113.2 Q306.0 -110.85 306.5 -107.7 307.1 -104.0 308.4 -100.8 309.35 -98.45 310.7 -96.3 L311.55 -94.8 Q312.7 -92.5 314.95 -91.15 330.45 -95.65 342.6 -82.15 347.15 -77.05 353.45 -79.5 368.95 -85.5 384.3 -86.15 L384.7 -86.15 385.85 -90.2 Q386.45 -91.85 387.6 -93.0 L389.2 -93.15 Q390.4 -93.0 391.35 -92.15 L393.5 -89.7 Q394.6 -80.0 394.4 -70.0 L394.15 -43.2 394.2 -40.1 -379.8 -40.1 Q-396.75 -54.7 -391.85 -89.2 L-391.05 -90.45 -389.15 -91.8 -389.0 -91.8 -389.2 -92.05 -389.55 -93.5 -389.8 -94.95 -389.85 -96.3 -389.8 -97.7 -389.55 -100.5 Q-369.6 -107.6 -349.75 -118.65 -346.6 -120.35 -343.2 -121.15 L-342.85 -121.15 Q-341.85 -122.8 -340.55 -123.1 -335.2 -122.85 -331.3 -117.7 L-323.55 -113.35 Q-316.3 -109.3 -309.8 -103.65 -306.35 -100.65 -304.1 -96.85 -292.15 -100.45 -280.55 -103.2 -275.05 -104.6 -268.85 -104.6 -267.35 -106.0 -265.6 -106.15 L-252.45 -106.0 -251.35 -105.8 Q-228.55 -114.95 -204.4 -104.7 -199.45 -102.65 -194.75 -98.85 -181.25 -88.2 -165.6 -89.05 L-165.6 -89.15 Q-163.7 -91.45 -161.75 -91.55 -156.9 -92.15 -153.2 -87.45 -149.7 -82.95 -145.4 -80.65 L-142.9 -79.05 Q-132.2 -80.15 -121.7 -88.8 -113.3 -95.8 -104.2 -101.15 -97.55 -105.0 -90.7 -108.5 -78.1 -106.1 -65.35 -104.85 -56.15 -104.0 -49.05 -99.05 L-44.7 -98.8 -43.05 -98.2 -40.75 -97.15 -39.1 -96.3 -38.85 -95.15 Q-28.1 -94.2 -16.1 -90.05 -9.05 -87.55 -1.65 -89.2 4.55 -96.2 10.55 -103.65 13.25 -107.0 16.65 -108.5" fill="url(#gradient1)" fill-rule="evenodd" stroke="none"/>
      <path d="M111.1 -132.95 Q111.8 -132.95 111.4 -132.7 L110.95 -132.65 Q110.8 -132.85 111.1 -132.95 M83.8 -124.1 Q84.65 -123.8 84.2 -123.45 83.75 -123.1 83.35 -123.45 82.75 -124.0 83.8 -124.05 L83.8 -124.1 M84.8 -141.95 Q86.05 -141.9 85.7 -140.6 85.45 -139.45 84.6 -140.7 84.05 -141.5 84.8 -141.95 M150.25 -145.05 Q150.3 -145.4 150.65 -145.4 150.75 -144.9 151.0 -144.8 L150.65 -144.65 Q150.2 -144.45 150.25 -145.05 M131.25 -144.05 Q131.65 -143.8 131.5 -143.4 131.1 -142.7 131.05 -143.15 130.9 -143.8 131.2 -144.05 L131.25 -144.05 M123.85 -120.45 Q123.4 -119.9 123.15 -120.2 122.6 -120.8 123.25 -121.15 124.45 -121.2 123.85 -120.45 M146.95 -123.55 Q146.65 -124.2 147.25 -124.4 148.2 -124.2 147.8 -123.4 147.4 -122.65 146.95 -123.55 M149.4 -113.95 Q149.8 -113.45 149.05 -113.75 148.5 -113.95 148.55 -114.5 L148.6 -114.55 Q149.1 -114.35 149.4 -113.95 M15.05 -124.7 L14.7 -124.65 Q14.1 -124.9 14.55 -125.2 L14.85 -125.3 Q15.2 -125.05 15.05 -124.7 M24.0 -146.55 L23.25 -146.35 Q22.65 -146.35 23.05 -146.85 23.25 -147.1 23.65 -147.2 24.45 -147.0 24.0 -146.55 M52.0 -146.55 Q51.8 -146.3 51.55 -146.4 51.3 -146.5 51.75 -146.75 L51.95 -146.85 52.0 -146.55 M69.8 -131.4 Q69.5 -130.6 69.0 -130.85 68.05 -131.2 68.85 -131.85 L69.05 -132.0 Q70.05 -132.2 69.8 -131.4 M266.35 -127.7 Q266.55 -127.05 267.0 -127.0 L266.6 -126.95 Q265.75 -126.8 266.2 -127.65 L266.35 -127.7 M265.7 -146.95 L266.05 -147.0 Q266.6 -146.85 266.45 -146.55 266.25 -145.95 266.0 -146.05 265.1 -146.35 265.7 -146.95 M256.45 -132.0 Q257.0 -132.0 256.6 -131.65 L256.3 -131.6 Q256.2 -131.8 256.45 -132.0 M303.95 -125.85 Q304.4 -125.1 303.25 -124.9 L302.95 -124.85 302.65 -125.1 Q302.4 -125.5 302.65 -125.85 L302.9 -126.3 303.3 -126.7 303.45 -126.8 Q304.35 -127.0 304.1 -126.3 L303.95 -125.85 M287.0 -140.1 Q286.8 -139.5 286.4 -139.85 286.0 -140.3 286.5 -140.75 L286.65 -140.85 Q287.3 -140.8 287.0 -140.1 M227.7 -149.75 Q227.8 -149.2 227.55 -149.65 L227.15 -150.25 227.35 -150.3 227.7 -149.75 M193.6 -142.15 Q194.35 -142.1 193.9 -141.45 193.5 -140.9 193.3 -141.2 193.0 -141.7 193.45 -142.1 L193.6 -142.15 M181.1 -131.3 L181.5 -130.95 Q181.8 -130.45 181.35 -130.6 180.95 -130.75 181.0 -131.15 L181.1 -131.3 M170.95 -108.4 L171.65 -108.25 172.2 -107.55 171.9 -106.85 171.75 -106.65 Q171.1 -106.65 170.6 -106.95 170.3 -107.15 170.35 -107.65 170.35 -108.05 170.8 -108.3 L170.9 -108.35 170.95 -108.4 M224.95 -135.2 L225.15 -135.65 225.35 -135.9 225.85 -136.25 225.95 -136.25 226.25 -135.25 Q226.25 -134.85 225.85 -134.8 L225.1 -135.0 224.95 -135.2 M203.5 -131.75 Q204.4 -131.95 204.35 -131.15 L204.15 -130.8 Q203.15 -130.25 203.15 -131.15 203.15 -131.65 203.5 -131.75 M333.5 -147.35 Q334.55 -146.95 333.6 -146.25 332.95 -145.75 333.3 -146.5 L333.45 -147.35 333.5 -147.35 M326.15 -141.2 Q326.55 -140.95 326.15 -140.75 L325.35 -140.4 324.95 -140.3 325.05 -140.5 325.15 -140.8 325.2 -141.25 325.25 -141.4 325.3 -141.5 325.45 -141.55 325.45 -141.6 326.15 -141.2 M330.85 -116.55 L331.3 -116.25 331.7 -115.75 331.7 -115.65 331.05 -115.75 Q330.05 -115.55 330.05 -116.35 L330.25 -116.85 330.4 -116.95 330.85 -116.55 M352.15 -105.35 L352.65 -104.85 353.0 -104.3 352.9 -104.25 Q352.8 -104.25 352.65 -104.35 L352.4 -104.55 352.1 -104.7 351.9 -104.9 351.9 -105.25 352.1 -105.35 352.15 -105.35 M381.6 -147.2 L381.4 -146.75 380.9 -146.25 380.1 -145.9 379.85 -145.85 379.9 -146.35 380.0 -146.65 380.1 -147.1 380.2 -147.55 380.35 -147.8 380.35 -147.85 380.75 -147.7 380.95 -147.65 381.4 -147.4 381.6 -147.2 M364.9 -138.8 L364.35 -138.85 Q364.0 -139.25 364.6 -139.55 365.25 -139.5 364.9 -138.8 M379.45 -126.45 Q378.7 -126.25 379.15 -126.7 379.5 -127.1 380.1 -127.2 L380.45 -127.3 Q380.25 -126.7 379.45 -126.45 M377.25 -112.9 Q377.65 -112.65 377.6 -112.2 377.55 -111.8 377.75 -111.5 L378.15 -110.9 378.15 -110.7 377.7 -110.8 376.75 -111.05 376.25 -111.05 376.15 -111.2 376.35 -111.45 Q376.8 -111.65 376.85 -112.1 L376.9 -112.6 Q376.85 -112.95 377.25 -112.9 M-329.55 -148.65 L-329.4 -148.75 Q-328.45 -149.0 -328.45 -148.2 -328.4 -147.75 -328.8 -147.35 L-329.6 -147.4 -329.65 -147.6 -329.55 -147.75 -329.3 -147.95 -329.45 -148.25 -329.55 -148.6 -329.55 -148.65 M-366.85 -136.5 Q-367.3 -136.05 -367.35 -136.6 -367.45 -137.15 -366.85 -137.25 L-366.8 -137.25 Q-366.5 -136.85 -366.85 -136.5 M-376.85 -147.15 L-376.8 -146.95 -376.85 -146.8 -377.85 -146.7 -378.05 -146.95 -378.2 -147.2 -378.2 -147.45 -378.0 -147.7 -377.9 -147.9 -377.75 -148.1 -377.7 -148.2 -377.2 -147.95 -377.05 -147.65 -376.85 -147.15 M-380.6 -118.2 Q-380.1 -117.8 -380.4 -117.65 L-380.8 -117.25 Q-381.0 -116.85 -381.45 -117.0 L-381.6 -117.1 -381.55 -117.35 -381.4 -117.75 -380.95 -118.1 -380.7 -118.2 -380.6 -118.2 M-352.1 -139.25 Q-351.4 -139.2 -351.65 -138.55 -351.9 -138.0 -352.15 -138.55 L-352.1 -139.15 -352.1 -139.25 M-214.0 -136.95 Q-213.2 -136.9 -213.35 -136.25 L-213.6 -135.9 Q-214.35 -136.3 -214.05 -136.85 L-214.0 -136.95 M-240.3 -140.55 Q-239.7 -140.45 -240.0 -139.8 -240.25 -139.4 -240.55 -139.8 -240.85 -140.25 -240.3 -140.55 M-219.25 -121.15 Q-218.6 -121.15 -218.85 -120.45 -219.1 -119.95 -219.55 -120.45 -219.9 -120.85 -219.3 -121.1 L-219.25 -121.15 M-172.25 -146.2 Q-171.45 -146.05 -171.75 -145.15 -172.0 -144.35 -172.5 -145.15 -172.85 -145.75 -172.25 -146.2 M-165.05 -133.45 Q-165.25 -132.95 -165.8 -132.85 -166.5 -132.65 -165.85 -133.25 L-165.6 -133.5 -165.55 -133.7 -165.5 -133.85 -165.4 -133.9 -165.35 -133.95 Q-164.75 -134.0 -165.05 -133.45 M-201.45 -145.05 Q-201.1 -144.4 -201.7 -144.15 -202.35 -143.85 -202.0 -144.35 L-201.45 -145.05 M-189.45 -117.1 Q-188.65 -116.95 -188.85 -116.6 L-189.2 -116.3 -189.95 -116.65 -190.4 -117.1 -190.45 -117.4 -190.35 -117.5 -190.35 -117.55 Q-189.8 -117.6 -189.6 -117.25 L-189.45 -117.1 M-294.6 -142.95 Q-295.25 -142.75 -294.8 -143.2 -294.45 -143.6 -293.9 -143.75 L-293.8 -143.75 Q-293.9 -143.15 -294.6 -142.95 M-291.9 -126.8 Q-291.1 -126.9 -290.9 -126.2 -290.7 -125.6 -291.15 -125.15 -291.7 -124.65 -292.4 -124.85 L-292.5 -125.0 -292.5 -125.25 -292.4 -125.75 -292.2 -126.25 -292.15 -126.65 -292.1 -126.7 -291.95 -126.75 -291.9 -126.8 M-318.9 -125.15 Q-317.95 -125.4 -318.05 -124.6 L-318.25 -124.25 Q-319.25 -123.7 -319.2 -124.6 L-318.9 -125.15 M-295.85 -115.55 L-295.8 -115.55 -295.4 -115.0 -295.6 -114.4 -295.2 -114.45 -294.8 -114.5 Q-295.55 -113.45 -296.15 -114.4 L-296.15 -114.75 -296.05 -115.2 -295.85 -115.55 M-258.7 -130.45 Q-258.1 -130.45 -258.25 -129.9 L-258.6 -129.15 -259.05 -129.05 -259.55 -129.05 -259.6 -129.3 -259.5 -129.7 -258.95 -130.25 -258.75 -130.4 -258.7 -130.45 M-245.55 -124.7 L-245.85 -124.35 -247.05 -124.2 -247.15 -124.35 Q-247.2 -124.7 -246.9 -124.85 -246.35 -125.05 -245.85 -125.45 L-245.55 -125.65 -245.5 -125.65 Q-245.45 -125.05 -245.55 -124.7 M-56.45 -150.65 Q-55.8 -150.35 -56.15 -149.8 L-56.6 -149.45 -57.6 -149.6 -57.8 -149.9 -57.7 -150.05 -57.55 -150.15 -56.8 -150.55 -56.55 -150.65 -56.45 -150.65 M-63.4 -132.8 L-63.25 -132.65 -62.95 -132.4 -62.8 -132.15 -62.95 -132.05 Q-63.1 -131.95 -63.3 -131.9 L-63.45 -132.0 Q-63.5 -132.55 -64.05 -132.8 L-63.8 -132.95 -63.4 -132.8 M-48.55 -121.05 L-48.45 -120.3 Q-48.45 -119.75 -48.65 -120.15 L-48.8 -120.95 Q-48.8 -121.1 -48.55 -121.05 M-9.4 -146.65 L-10.3 -147.05 -10.2 -147.1 -9.2 -146.85 -9.1 -146.55 -9.15 -146.05 -9.1 -145.95 Q-9.8 -145.45 -9.65 -145.85 L-9.35 -146.55 -9.4 -146.65 M-1.35 -126.75 Q-1.25 -126.05 -1.8 -126.75 -2.35 -127.4 -1.9 -127.65 -1.45 -127.25 -1.35 -126.75 M-34.85 -129.1 L-34.2 -128.85 -34.25 -128.8 -34.9 -128.85 Q-35.15 -129.0 -34.85 -129.1 M-8.2 -118.35 L-8.7 -118.65 -8.95 -118.95 -8.9 -119.1 -8.9 -119.15 -7.85 -118.95 -7.9 -118.85 -8.15 -118.4 -8.2 -118.35 M-15.1 -106.25 L-15.05 -106.25 -14.9 -105.5 Q-14.85 -105.15 -15.1 -104.95 L-15.55 -104.95 -15.65 -105.45 -15.55 -105.85 -15.1 -106.25 M-144.9 -150.3 L-144.65 -149.85 -144.4 -149.4 Q-144.35 -149.15 -144.55 -149.0 L-144.8 -148.85 Q-144.75 -149.25 -144.95 -149.55 L-145.1 -149.85 -145.1 -150.2 -145.0 -150.3 -144.9 -150.3 M-123.95 -138.65 Q-122.95 -138.4 -123.2 -138.2 L-123.75 -137.85 Q-124.9 -137.35 -124.3 -138.3 L-123.95 -138.65 M-133.5 -126.1 Q-132.65 -126.05 -132.85 -125.35 -133.1 -124.6 -133.6 -125.0 -134.1 -125.35 -133.6 -125.95 L-133.5 -126.1 M-155.9 -117.95 Q-155.85 -117.45 -156.2 -117.3 L-156.8 -117.2 -157.7 -117.45 -157.7 -117.7 -157.55 -117.95 -157.05 -118.4 -156.8 -118.6 Q-155.95 -118.7 -155.9 -117.95 M-135.7 -109.55 Q-135.25 -109.3 -135.45 -108.9 -135.65 -108.55 -135.45 -108.0 -135.3 -107.65 -135.8 -107.55 L-136.0 -107.6 -136.5 -108.0 -136.35 -107.75 Q-136.05 -107.3 -136.45 -107.0 -137.15 -107.0 -137.05 -107.85 -136.95 -108.45 -136.45 -108.9 L-135.85 -109.5 -135.7 -109.55 M-90.2 -137.15 L-90.1 -137.25 Q-89.35 -137.2 -89.8 -136.55 -90.25 -136.0 -90.4 -136.25 -90.65 -136.75 -90.2 -137.15 M-115.95 -121.95 Q-116.2 -121.7 -116.5 -121.75 L-116.95 -122.05 -116.7 -122.2 -116.5 -122.3 -116.75 -122.6 -116.9 -122.95 -116.85 -123.1 -116.7 -123.2 -115.95 -123.4 -115.7 -123.45 -115.65 -123.45 -114.9 -122.85 Q-114.6 -122.4 -114.85 -122.05 L-115.2 -122.1 Q-115.4 -122.35 -115.8 -122.4 L-115.85 -122.15 -115.95 -121.95 M-99.3 -118.6 Q-98.5 -118.3 -98.7 -117.25 -98.95 -116.2 -99.4 -117.35 -99.65 -118.05 -99.3 -118.6" fill="#ffffff" fill-rule="evenodd" stroke="none"/>
      <path d="M-432.1 -128.0 L-430.15 -127.4 Q-429.5 -127.15 -429.0 -126.65 L-427.9 -125.25 -427.1 -123.75 -427.15 -123.0 Q-427.25 -122.25 -427.5 -121.55 -427.95 -120.25 -429.05 -119.55 -430.5 -118.65 -432.1 -118.0 -433.75 -118.65 -435.2 -119.5 -436.75 -120.45 -437.05 -122.25 -437.25 -123.85 -436.55 -125.25 L-436.1 -126.0 -435.35 -126.75 -434.3 -127.3 -432.15 -127.9 -432.1 -128.0" fill="#ffff66" fill-rule="evenodd" stroke="none"/>
    </g>
    <linearGradient gradientTransform="matrix(0.0, 0.094, -0.4719, 0.0, -0.9, -80.1)" gradientUnits="userSpaceOnUse" id="gradient0" spreadMethod="pad" x1="-819.2" x2="819.2">
      <stop offset="0.0" stop-color="#3d2747"/>
      <stop offset="0.7333333333333333" stop-color="#3f4574"/>
    </linearGradient>
    <linearGradient gradientTransform="matrix(0.0043, 0.0759, -0.4792, 0.0273, 0.45, -80.1)" gradientUnits="userSpaceOnUse" id="gradient1" spreadMethod="pad" x1="-819.2" x2="819.2">
      <stop offset="0.0" stop-color="#2d2026" stop-opacity="0.8"/>
      <stop offset="1.0" stop-color="#2c1f2e" stop-opacity="0.32156864"/>
    </linearGradient>
    <g id="sprite0" transform="matrix(1.0, 0.0, 0.0, 1.0, 67.65, 18.75)">
      <use ffdec:characterId="3440" height="37.45" transform="matrix(1.0, 0.0, 0.0, 1.0, -67.65, -18.75)" width="135.25" xlink:href="#shape1"/>
    </g>
    <g id="shape1" transform="matrix(1.0, 0.0, 0.0, 1.0, 67.65, 18.75)">
      <path d="M11.8 -8.4 L11.85 -8.2 11.9 -7.7 11.9 -6.5 11.7 -5.55 12.0 -5.35 Q13.3 -4.15 14.45 -4.15 16.25 -4.15 19.35 -5.35 22.65 -6.75 24.9 -6.9 L24.65 -7.7 24.5 -8.4 24.4 -9.0 Q39.4 -28.45 54.4 -9.0 L54.65 -8.4 54.8 -7.7 54.9 -6.65 Q54.9 -5.3 54.5 -3.65 L54.05 -2.25 Q54.05 -0.85 55.85 0.55 57.35 1.7 59.5 2.15 L65.35 0.05 Q67.15 0.05 67.6 1.5 L66.2 2.95 64.45 3.85 Q64.2 4.45 62.9 5.05 61.35 5.75 60.1 5.75 52.45 5.75 44.1 -4.55 L34.85 -0.85 33.6 -0.3 Q31.35 0.65 31.4 1.05 31.35 1.7 33.0 2.5 L33.6 2.7 36.6 3.9 Q41.75 6.0 41.75 8.15 41.7 8.6 41.05 8.8 L39.3 9.2 Q36.15 9.9 33.6 12.35 L33.3 12.6 31.9 14.8 Q30.75 16.0 28.35 16.6 28.3 17.35 27.15 18.0 L25.95 18.35 23.65 18.7 Q12.3 18.65 9.2 15.4 8.15 14.3 8.1 12.9 L8.2 11.35 Q8.05 9.55 6.15 8.9 L2.0 8.35 -2.0 7.85 Q-3.85 7.3 -3.85 5.8 -3.85 4.05 -1.9 1.95 L0.0 -0.2 Q0.0 -0.8 -2.75 -2.05 -11.55 -2.1 -12.8 0.45 -13.25 1.2 -12.9 2.15 L-12.4 3.05 Q-12.4 3.75 -14.35 4.7 -16.3 5.65 -16.3 5.85 L-15.45 8.4 Q-14.6 10.3 -14.6 11.05 L-14.7 12.65 Q-14.95 13.4 -15.85 13.85 -18.05 14.85 -26.5 14.85 -32.1 14.85 -34.55 16.4 L-36.05 17.5 Q-36.85 17.95 -37.8 18.0 -47.1 17.95 -51.0 15.05 -52.95 13.55 -53.05 12.05 -53.05 11.4 -51.35 8.6 -54.2 4.45 -58.4 4.45 -61.4 4.45 -62.05 5.85 -62.4 6.65 -62.0 7.6 L-61.85 7.6 -61.85 8.05 -62.25 8.2 -63.4 8.3 Q-64.8 8.25 -65.7 7.7 L-66.15 8.0 Q-67.65 7.1 -67.65 5.3 -67.7 -0.35 -63.65 -0.35 -54.55 -0.4 -49.6 2.8 -48.25 3.7 -47.4 4.55 L-45.0 5.55 -29.25 2.55 -32.7 -0.65 Q-33.7 -1.8 -33.7 -3.35 -33.7 -4.95 -32.45 -5.8 -29.6 -7.75 -21.25 -6.55 L-20.6 -7.7 -20.4 -7.95 -20.0 -8.4 -19.4 -9.0 Q-11.7 -28.35 11.65 -9.0 L11.8 -8.4 M55.85 2.8 L55.85 2.75 55.85 2.8" fill="url(#gradient2)" fill-rule="evenodd" stroke="none"/>
    </g>
    <linearGradient gradientTransform="matrix(-0.0016, 0.0253, -0.0821, -0.005, 0.25, -0.35)" gradientUnits="userSpaceOnUse" id="gradient2" spreadMethod="pad" x1="-819.2" x2="819.2">
      <stop offset="0.0" stop-color="#ffffff" stop-opacity="0.101960786"/>
      <stop offset="1.0" stop-color="#ffffff" stop-opacity="0.0"/>
    </linearGradient>
    <g id="sprite1" transform="matrix(1.0, 0.0, 0.0, 1.0, 67.2, 26.8)">
      <use ffdec:characterId="3438" height="53.6" transform="matrix(1.0, 0.0, 0.0, 1.0, -67.2, -26.8)" width="134.45" xlink:href="#shape2"/>
    </g>
    <g id="shape2" transform="matrix(1.0, 0.0, 0.0, 1.0, 67.2, 26.8)">
      <path d="M-48.15 -17.3 L-47.3 -17.75 -45.55 -18.6 -45.35 -19.3 Q-45.05 -22.65 -42.65 -24.2 -38.8 -26.8 -28.4 -26.8 -15.75 -26.8 -13.7 -21.8 -13.1 -20.2 -13.4 -17.75 L-13.7 -15.85 -12.4 -15.05 -11.8 -14.7 -7.3 -14.8 Q-4.5 -14.85 -3.3 -12.1 -2.85 -11.05 -1.9 -6.15 -1.1 -2.05 0.35 -0.15 2.45 2.55 6.75 2.55 7.75 2.55 8.9 1.7 L11.35 -0.05 Q15.25 -2.4 22.25 -1.45 L22.4 -1.5 22.55 -2.05 21.4 -3.6 18.9 -6.25 Q15.2 -10.4 15.2 -13.5 15.2 -15.2 19.15 -16.55 24.55 -18.35 35.2 -18.35 37.1 -18.4 38.25 -16.85 39.0 -15.85 39.0 -15.2 L36.8 -10.75 Q36.8 -10.2 38.85 -8.55 40.85 -6.95 41.5 -6.95 L47.1 -7.3 51.65 -8.1 50.2 -10.55 Q49.85 -11.3 49.9 -12.75 L49.9 -14.05 Q50.3 -14.8 52.95 -14.8 58.7 -14.8 62.5 -12.15 L64.15 -10.85 Q65.95 -9.85 67.25 -6.55 L65.75 -4.6 Q64.3 -5.65 61.9 -6.35 61.3 -5.45 61.35 -4.95 61.3 -4.5 61.9 -3.95 62.5 -3.4 62.5 -2.95 62.5 -1.8 61.5 -1.4 L59.3 -1.05 Q56.05 -0.65 56.05 2.2 56.05 3.55 55.3 4.0 L50.3 4.65 43.7 4.1 Q42.0 3.65 41.1 2.7 L39.4 0.8 Q38.1 -0.45 35.6 -1.4 33.7 0.4 33.7 1.05 33.7 1.75 35.5 3.7 37.25 5.6 37.25 6.1 37.2 6.75 36.15 7.3 L34.0 8.35 Q38.4 16.5 38.4 18.15 L38.1 19.5 Q37.45 21.15 35.95 22.5 31.05 26.8 19.15 26.8 14.65 26.75 10.2 24.2 7.05 22.4 5.1 20.15 L2.25 21.8 Q-0.25 23.15 -2.0 23.15 -13.5 23.1 -15.2 17.6 -15.75 15.8 -15.3 13.3 L-14.75 10.25 Q-14.8 9.8 -24.15 2.85 L-33.7 -4.0 Q-37.25 -4.0 -38.25 -2.55 L-38.6 -1.55 -38.55 -1.05 Q-38.6 1.9 -34.75 5.75 L-32.1 8.3 Q-30.95 9.55 -30.95 10.25 L-30.65 11.55 Q-30.55 12.4 -31.1 13.0 -32.75 14.6 -41.3 14.6 -44.65 14.6 -47.55 12.55 L-48.15 12.15 -49.45 11.15 Q-50.4 10.5 -51.1 10.5 L-54.2 11.05 -58.1 11.6 Q-60.6 11.6 -61.5 10.75 L-62.55 9.4 Q-64.95 8.45 -66.2 5.45 -67.25 3.0 -67.2 0.7 -67.25 -3.4 -65.6 -6.85 -63.0 -12.35 -57.0 -12.85 L-55.75 -12.9 -54.8 -12.85 -53.1 -13.8 Q-51.35 -15.6 -48.15 -17.3 M-56.8 -11.65 L-56.75 -11.3 -56.25 -11.7 -56.8 -11.65" fill="url(#gradient3)" fill-rule="evenodd" stroke="none"/>
    </g>
    <linearGradient gradientTransform="matrix(-0.0026, 0.0455, -0.2891, -0.0063, 170.3, -7.2)" gradientUnits="userSpaceOnUse" id="gradient3" spreadMethod="pad" x1="-819.2" x2="819.2">
      <stop offset="0.0" stop-color="#ffffff" stop-opacity="0.2627451"/>
      <stop offset="1.0" stop-color="#ffffff" stop-opacity="0.0"/>
    </linearGradient>
  </defs>
</svg>
