<?xml version="1.0" encoding="UTF-8" standalone="no"?>
<svg xmlns:ffdec="https://www.free-decompiler.com/flash" xmlns:xlink="http://www.w3.org/1999/xlink" ffdec:objectType="frame" height="733.5px" width="2357.6px" xmlns="http://www.w3.org/2000/svg">
  <g transform="matrix(2.0, 0.0, 0.0, 2.0, 1204.8, 378.2)">
    <use ffdec:characterId="3447" height="154.05" transform="matrix(1.0, 0.0, 0.0, 1.0, -387.5, -157.1)" width="773.2" xlink:href="#shape0"/>
    <filter id="filter0">
      <feConvolveMatrix divisor="100.0" in="SourceGraphic" kernelMatrix="1 1 1 1 1 1 1 1 1 1 1 1 1 1 1 1 1 1 1 1 1 1 1 1 1 1 1 1 1 1 1 1 1 1 1 1 1 1 1 1 1 1 1 1 1 1 1 1 1 1 1 1 1 1 1 1 1 1 1 1 1 1 1 1 1 1 1 1 1 1 1 1 1 1 1 1 1 1 1 1 1 1 1 1 1 1 1 1 1 1 1 1 1 1 1 1 1 1 1 1" order="20 5" result="filterResult0"/>
    </filter>
    <use ffdec:characterId="3446" filter="url(#filter0)" height="183.35" transform="matrix(1.0, 0.0, 0.0, 1.0, -602.4, -158.8)" width="1178.8" xlink:href="#sprite0"/>
  </g>
  <defs>
    <g id="shape0" transform="matrix(1.0, 0.0, 0.0, 1.0, 387.5, 157.1)">
      <path d="M385.7 -3.05 L-387.5 -3.05 -387.5 -157.1 385.7 -157.1 385.7 -3.05" fill="url(#gradient0)" fill-rule="evenodd" stroke="none"/>
    </g>
    <linearGradient gradientTransform="matrix(0.0, 0.094, -0.4719, 0.0, -0.9, -80.1)" gradientUnits="userSpaceOnUse" id="gradient0" spreadMethod="pad" x1="-819.2" x2="819.2">
      <stop offset="0.15294117647058825" stop-color="#070a0a"/>
      <stop offset="1.0" stop-color="#161c25"/>
    </linearGradient>
    <g id="sprite0" transform="matrix(1.0, 0.0, 0.0, 1.0, 1082.1, 82.8)">
      <use ffdec:characterId="3445" height="165.55" transform="matrix(1.0, 0.0, 0.0, 1.0, -96.7, -82.8)" width="193.4" xlink:href="#shape1"/>
    </g>
    <g id="shape1" transform="matrix(1.0, 0.0, 0.0, 1.0, 96.7, 82.8)">
      <path d="M-96.7 -82.45 L-77.05 -82.8 96.7 66.05 82.0 82.75 50.05 80.9 -96.7 -82.45" fill="#070a0a" fill-rule="evenodd" stroke="none"/>
    </g>
  </defs>
</svg>
