<?xml version="1.0" encoding="UTF-8" standalone="no"?>
<svg xmlns:ffdec="https://www.free-decompiler.com/flash" xmlns:xlink="http://www.w3.org/1999/xlink" ffdec:objectType="frame" height="733.5px" width="2357.6px" xmlns="http://www.w3.org/2000/svg">
  <g transform="matrix(2.0, 0.0, 0.0, 2.0, 1204.8, 378.2)">
    <use ffdec:characterId="3449" height="176.0" transform="matrix(1.0, 0.0, 0.0, 1.0, -401.95, -157.1)" width="814.4" xlink:href="#shape0"/>
    <filter id="filter0">
      <feConvolveMatrix divisor="49.0" in="SourceGraphic" kernelMatrix="1 1 1 1 1 1 1 1 1 1 1 1 1 1 1 1 1 1 1 1 1 1 1 1 1 1 1 1 1 1 1 1 1 1 1 1 1 1 1 1 1 1 1 1 1 1 1 1 1" order="7 7" result="filterResult0"/>
    </filter>
    <use ffdec:characterId="3441" filter="url(#filter0)" height="37.45" transform="matrix(1.0, 0.0, 0.0, 1.0, -230.8, -104.15)" width="135.25" xlink:href="#sprite0"/>
    <filter id="filter1">
      <feConvolveMatrix divisor="49.0" in="SourceGraphic" kernelMatrix="1 1 1 1 1 1 1 1 1 1 1 1 1 1 1 1 1 1 1 1 1 1 1 1 1 1 1 1 1 1 1 1 1 1 1 1 1 1 1 1 1 1 1 1 1 1 1 1 1" order="7 7" result="filterResult1"/>
    </filter>
    <use ffdec:characterId="3441" filter="url(#filter1)" height="37.45" transform="matrix(1.0, 0.0, 0.0, 1.0, 121.7, -101.35)" width="135.25" xlink:href="#sprite0"/>
    <filter id="filter2">
      <feConvolveMatrix divisor="49.0" in="SourceGraphic" kernelMatrix="1 1 1 1 1 1 1 1 1 1 1 1 1 1 1 1 1 1 1 1 1 1 1 1 1 1 1 1 1 1 1 1 1 1 1 1 1 1 1 1 1 1 1 1 1 1 1 1 1" order="7 7" result="filterResult2"/>
    </filter>
    <use ffdec:characterId="3439" filter="url(#filter2)" height="53.6" transform="matrix(1.0, 0.0, 0.0, 1.0, -383.9, -129.95)" width="134.45" xlink:href="#sprite1"/>
    <filter id="filter3">
      <feConvolveMatrix divisor="49.0" in="SourceGraphic" kernelMatrix="1 1 1 1 1 1 1 1 1 1 1 1 1 1 1 1 1 1 1 1 1 1 1 1 1 1 1 1 1 1 1 1 1 1 1 1 1 1 1 1 1 1 1 1 1 1 1 1 1" order="7 7" result="filterResult3"/>
    </filter>
    <use ffdec:characterId="3439" filter="url(#filter3)" height="53.6" transform="matrix(1.0, 0.0, 0.0, 1.0, -57.9, -121.65)" width="134.45" xlink:href="#sprite1"/>
    <filter id="filter4">
      <feConvolveMatrix divisor="49.0" in="SourceGraphic" kernelMatrix="1 1 1 1 1 1 1 1 1 1 1 1 1 1 1 1 1 1 1 1 1 1 1 1 1 1 1 1 1 1 1 1 1 1 1 1 1 1 1 1 1 1 1 1 1 1 1 1 1" order="7 7" result="filterResult4"/>
    </filter>
    <use ffdec:characterId="3439" filter="url(#filter4)" height="53.6" transform="matrix(1.0, 0.0, 0.0, 1.0, 282.05, -117.35)" width="134.45" xlink:href="#sprite1"/>
  </g>
  <defs>
    <g id="shape0" transform="matrix(1.0, 0.0, 0.0, 1.0, 401.95, 157.1)">
      <path d="M385.7 -3.05 L-387.5 -3.05 -387.5 -157.1 385.7 -157.1 385.7 -3.05" fill="url(#gradient0)" fill-rule="evenodd" stroke="none"/>
      <path d="M31.45 -48.4 L89.45 -48.4 98.45 -91.35 140.45 -92.75 151.45 -76.3 191.45 -74.85 211.45 -121.4 215.4 -121.8 292.45 -119.2 300.4 -121.8 352.45 -68.45 394.45 -68.45 412.45 -49.1 407.45 18.9 -398.75 13.25 -401.95 -39.9 -362.5 -97.05 -333.5 -95.6 -320.5 -71.3 -285.5 -72.0 -271.5 -115.85 -226.2 -113.6 -210.5 -79.9 -149.55 -67.0 -135.55 -50.55 -105.55 -50.55 -90.55 -89.2 -90.55 -89.9 -71.55 -92.05 -56.55 -44.1 -25.55 -39.8 -14.55 -62.7 19.45 -64.85 31.45 -48.4" fill="url(#gradient1)" fill-rule="evenodd" stroke="none"/>
    </g>
    <linearGradient gradientTransform="matrix(0.0, 0.094, -0.4719, 0.0, -0.9, -80.1)" gradientUnits="userSpaceOnUse" id="gradient0" spreadMethod="pad" x1="-819.2" x2="819.2">
      <stop offset="0.0" stop-color="#0e0911"/>
      <stop offset="0.396078431372549" stop-color="#1f0c0c"/>
      <stop offset="1.0" stop-color="#502116"/>
    </linearGradient>
    <linearGradient gradientTransform="matrix(0.0, 0.0859, -0.4971, 0.0, 5.25, -51.45)" gradientUnits="userSpaceOnUse" id="gradient1" spreadMethod="pad" x1="-819.2" x2="819.2">
      <stop offset="0.0" stop-color="#000000" stop-opacity="0.38039216"/>
      <stop offset="1.0" stop-color="#000000" stop-opacity="0.11372549"/>
    </linearGradient>
    <g id="sprite0" transform="matrix(1.0, 0.0, 0.0, 1.0, 67.65, 18.75)">
      <use ffdec:characterId="3440" height="37.45" transform="matrix(1.0, 0.0, 0.0, 1.0, -67.65, -18.75)" width="135.25" xlink:href="#shape1"/>
    </g>
    <g id="shape1" transform="matrix(1.0, 0.0, 0.0, 1.0, 67.65, 18.75)">
      <path d="M11.8 -8.4 L11.85 -8.2 11.9 -7.7 11.9 -6.5 11.7 -5.55 12.0 -5.35 Q13.3 -4.15 14.45 -4.15 16.25 -4.15 19.35 -5.35 22.65 -6.75 24.9 -6.9 L24.65 -7.7 24.5 -8.4 24.4 -9.0 Q39.4 -28.45 54.4 -9.0 L54.65 -8.4 54.8 -7.7 54.9 -6.65 Q54.9 -5.3 54.5 -3.65 L54.05 -2.25 Q54.05 -0.85 55.85 0.55 57.35 1.7 59.5 2.15 L65.35 0.05 Q67.15 0.05 67.6 1.5 L66.2 2.95 64.45 3.85 Q64.2 4.45 62.9 5.05 61.35 5.75 60.1 5.75 52.45 5.75 44.1 -4.55 L34.85 -0.85 33.6 -0.3 Q31.35 0.65 31.4 1.05 31.35 1.7 33.0 2.5 L33.6 2.7 36.6 3.9 Q41.75 6.0 41.75 8.15 41.7 8.6 41.05 8.8 L39.3 9.2 Q36.15 9.9 33.6 12.35 L33.3 12.6 31.9 14.8 Q30.75 16.0 28.35 16.6 28.3 17.35 27.15 18.0 L25.95 18.35 23.65 18.7 Q12.3 18.65 9.2 15.4 8.15 14.3 8.1 12.9 L8.2 11.35 Q8.05 9.55 6.15 8.9 L2.0 8.35 -2.0 7.85 Q-3.85 7.3 -3.85 5.8 -3.85 4.05 -1.9 1.95 L0.0 -0.2 Q0.0 -0.8 -2.75 -2.05 -11.55 -2.1 -12.8 0.45 -13.25 1.2 -12.9 2.15 L-12.4 3.05 Q-12.4 3.75 -14.35 4.7 -16.3 5.65 -16.3 5.85 L-15.45 8.4 Q-14.6 10.3 -14.6 11.05 L-14.7 12.65 Q-14.95 13.4 -15.85 13.85 -18.05 14.85 -26.5 14.85 -32.1 14.85 -34.55 16.4 L-36.05 17.5 Q-36.85 17.95 -37.8 18.0 -47.1 17.95 -51.0 15.05 -52.95 13.55 -53.05 12.05 -53.05 11.4 -51.35 8.6 -54.2 4.45 -58.4 4.45 -61.4 4.45 -62.05 5.85 -62.4 6.65 -62.0 7.6 L-61.85 7.6 -61.85 8.05 -62.25 8.2 -63.4 8.3 Q-64.8 8.25 -65.7 7.7 L-66.15 8.0 Q-67.65 7.1 -67.65 5.3 -67.7 -0.35 -63.65 -0.35 -54.55 -0.4 -49.6 2.8 -48.25 3.7 -47.4 4.55 L-45.0 5.55 -29.25 2.55 -32.7 -0.65 Q-33.7 -1.8 -33.7 -3.35 -33.7 -4.95 -32.45 -5.8 -29.6 -7.75 -21.25 -6.55 L-20.6 -7.7 -20.4 -7.95 -20.0 -8.4 -19.4 -9.0 Q-11.7 -28.35 11.65 -9.0 L11.8 -8.4 M55.85 2.8 L55.85 2.75 55.85 2.8" fill="url(#gradient2)" fill-rule="evenodd" stroke="none"/>
    </g>
    <linearGradient gradientTransform="matrix(-0.0016, 0.0253, -0.0821, -0.005, 0.25, -0.35)" gradientUnits="userSpaceOnUse" id="gradient2" spreadMethod="pad" x1="-819.2" x2="819.2">
      <stop offset="0.0" stop-color="#cc3300" stop-opacity="0.101960786"/>
      <stop offset="1.0" stop-color="#cc3300" stop-opacity="0.0"/>
    </linearGradient>
    <g id="sprite1" transform="matrix(1.0, 0.0, 0.0, 1.0, 67.2, 26.8)">
      <use ffdec:characterId="3438" height="53.6" transform="matrix(1.0, 0.0, 0.0, 1.0, -67.2, -26.8)" width="134.45" xlink:href="#shape2"/>
    </g>
    <g id="shape2" transform="matrix(1.0, 0.0, 0.0, 1.0, 67.2, 26.8)">
      <path d="M-48.15 -17.3 L-47.3 -17.75 -45.55 -18.6 -45.35 -19.3 Q-45.05 -22.65 -42.65 -24.2 -38.8 -26.8 -28.4 -26.8 -15.75 -26.8 -13.7 -21.8 -13.1 -20.2 -13.4 -17.75 L-13.7 -15.85 -12.4 -15.05 -11.8 -14.7 -7.3 -14.8 Q-4.5 -14.85 -3.3 -12.1 -2.85 -11.05 -1.9 -6.15 -1.1 -2.05 0.35 -0.15 2.45 2.55 6.75 2.55 7.75 2.55 8.9 1.7 L11.35 -0.05 Q15.25 -2.4 22.25 -1.45 L22.4 -1.5 22.55 -2.05 21.4 -3.6 18.9 -6.25 Q15.2 -10.4 15.2 -13.5 15.2 -15.2 19.15 -16.55 24.55 -18.35 35.2 -18.35 37.1 -18.4 38.25 -16.85 39.0 -15.85 39.0 -15.2 L36.8 -10.75 Q36.8 -10.2 38.85 -8.55 40.85 -6.95 41.5 -6.95 L47.1 -7.3 51.65 -8.1 50.2 -10.55 Q49.85 -11.3 49.9 -12.75 L49.9 -14.05 Q50.3 -14.8 52.95 -14.8 58.7 -14.8 62.5 -12.15 L64.15 -10.85 Q65.95 -9.85 67.25 -6.55 L65.75 -4.6 Q64.3 -5.65 61.9 -6.35 61.3 -5.45 61.35 -4.95 61.3 -4.5 61.9 -3.95 62.5 -3.4 62.5 -2.95 62.5 -1.8 61.5 -1.4 L59.3 -1.05 Q56.05 -0.65 56.05 2.2 56.05 3.55 55.3 4.0 L50.3 4.65 43.7 4.1 Q42.0 3.65 41.1 2.7 L39.4 0.8 Q38.1 -0.45 35.6 -1.4 33.7 0.4 33.7 1.05 33.7 1.75 35.5 3.7 37.25 5.6 37.25 6.1 37.2 6.75 36.15 7.3 L34.0 8.35 Q38.4 16.5 38.4 18.15 L38.1 19.5 Q37.45 21.15 35.95 22.5 31.05 26.8 19.15 26.8 14.65 26.75 10.2 24.2 7.05 22.4 5.1 20.15 L2.25 21.8 Q-0.25 23.15 -2.0 23.15 -13.5 23.1 -15.2 17.6 -15.75 15.8 -15.3 13.3 L-14.75 10.25 Q-14.8 9.8 -24.15 2.85 L-33.7 -4.0 Q-37.25 -4.0 -38.25 -2.55 L-38.6 -1.55 -38.55 -1.05 Q-38.6 1.9 -34.75 5.75 L-32.1 8.3 Q-30.95 9.55 -30.95 10.25 L-30.65 11.55 Q-30.55 12.4 -31.1 13.0 -32.75 14.6 -41.3 14.6 -44.65 14.6 -47.55 12.55 L-48.15 12.15 -49.45 11.15 Q-50.4 10.5 -51.1 10.5 L-54.2 11.05 -58.1 11.6 Q-60.6 11.6 -61.5 10.75 L-62.55 9.4 Q-64.95 8.45 -66.2 5.45 -67.25 3.0 -67.2 0.7 -67.25 -3.4 -65.6 -6.85 -63.0 -12.35 -57.0 -12.85 L-55.75 -12.9 -54.8 -12.85 -53.1 -13.8 Q-51.35 -15.6 -48.15 -17.3 M-56.8 -11.65 L-56.75 -11.3 -56.25 -11.7 -56.8 -11.65" fill="url(#gradient3)" fill-rule="evenodd" stroke="none"/>
    </g>
    <linearGradient gradientTransform="matrix(-0.0026, 0.0455, -0.2891, -0.0063, 170.3, -7.2)" gradientUnits="userSpaceOnUse" id="gradient3" spreadMethod="pad" x1="-819.2" x2="819.2">
      <stop offset="0.0" stop-color="#cc3300" stop-opacity="0.2627451"/>
      <stop offset="1.0" stop-color="#cc3300" stop-opacity="0.0"/>
    </linearGradient>
  </defs>
</svg>
