<?xml version="1.0" encoding="UTF-8" standalone="no"?>
<svg xmlns:ffdec="https://www.free-decompiler.com/flash" xmlns:xlink="http://www.w3.org/1999/xlink" ffdec:objectType="frame" height="733.5px" width="2357.6px" xmlns="http://www.w3.org/2000/svg">
  <g transform="matrix(2.0, 0.0, 0.0, 2.0, 1204.8, 378.2)">
    <use ffdec:characterId="3451" height="166.75" transform="matrix(1.0, 0.0, 0.0, 1.0, -437.1, -187.85)" width="847.35" xlink:href="#shape0"/>
    <filter id="filter0">
      <feConvolveMatrix divisor="49.0" in="SourceGraphic" kernelMatrix="1 1 1 1 1 1 1 1 1 1 1 1 1 1 1 1 1 1 1 1 1 1 1 1 1 1 1 1 1 1 1 1 1 1 1 1 1 1 1 1 1 1 1 1 1 1 1 1 1" order="7 7" result="filterResult0"/>
    </filter>
    <use ffdec:characterId="3441" filter="url(#filter0)" height="37.45" transform="matrix(1.0, 0.0, 0.0, 1.0, -230.8, -136.35)" width="135.25" xlink:href="#sprite0"/>
    <filter id="filter1">
      <feConvolveMatrix divisor="49.0" in="SourceGraphic" kernelMatrix="1 1 1 1 1 1 1 1 1 1 1 1 1 1 1 1 1 1 1 1 1 1 1 1 1 1 1 1 1 1 1 1 1 1 1 1 1 1 1 1 1 1 1 1 1 1 1 1 1" order="7 7" result="filterResult1"/>
    </filter>
    <use ffdec:characterId="3441" filter="url(#filter1)" height="37.45" transform="matrix(1.0, 0.0, 0.0, 1.0, 121.7, -113.55)" width="135.25" xlink:href="#sprite0"/>
    <filter id="filter2">
      <feConvolveMatrix divisor="49.0" in="SourceGraphic" kernelMatrix="1 1 1 1 1 1 1 1 1 1 1 1 1 1 1 1 1 1 1 1 1 1 1 1 1 1 1 1 1 1 1 1 1 1 1 1 1 1 1 1 1 1 1 1 1 1 1 1 1" order="7 7" result="filterResult2"/>
    </filter>
    <use ffdec:characterId="3439" filter="url(#filter2)" height="53.6" transform="matrix(1.0, 0.0, 0.0, 1.0, -383.9, -131.15)" width="134.45" xlink:href="#sprite1"/>
    <filter id="filter3">
      <feConvolveMatrix divisor="49.0" in="SourceGraphic" kernelMatrix="1 1 1 1 1 1 1 1 1 1 1 1 1 1 1 1 1 1 1 1 1 1 1 1 1 1 1 1 1 1 1 1 1 1 1 1 1 1 1 1 1 1 1 1 1 1 1 1 1" order="7 7" result="filterResult3"/>
    </filter>
    <use ffdec:characterId="3439" filter="url(#filter3)" height="53.6" transform="matrix(1.0, 0.0, 0.0, 1.0, -57.9, -122.85)" width="134.45" xlink:href="#sprite1"/>
    <filter id="filter4">
      <feConvolveMatrix divisor="49.0" in="SourceGraphic" kernelMatrix="1 1 1 1 1 1 1 1 1 1 1 1 1 1 1 1 1 1 1 1 1 1 1 1 1 1 1 1 1 1 1 1 1 1 1 1 1 1 1 1 1 1 1 1 1 1 1 1 1" order="7 7" result="filterResult4"/>
    </filter>
    <use ffdec:characterId="3439" filter="url(#filter4)" height="53.6" transform="matrix(1.0, 0.0, 0.0, 1.0, 282.05, -128.55)" width="134.45" xlink:href="#sprite1"/>
    <use ffdec:characterId="3450" height="116.9" transform="matrix(1.0, 0.0, 0.0, 1.0, -391.25, -162.65)" width="774.6" xlink:href="#shape3"/>
  </g>
  <defs>
    <g id="shape0" transform="matrix(1.0, 0.0, 0.0, 1.0, 437.1, 187.85)">
      <path d="M393.45 -21.1 L-392.5 -21.1 -392.5 -164.1 393.45 -164.1 393.45 -21.1" fill="url(#gradient0)" fill-rule="evenodd" stroke="none"/>
      <path d="M131.25 -125.1 L152.4 -135.5 Q161.85 -107.9 166.3 -88.65 168.65 -79.75 169.75 -70.85 L192.7 -71.85 Q194.05 -83.3 200.55 -96.5 L206.1 -108.55 Q209.3 -115.4 213.45 -123.0 L230.45 -127.15 Q228.05 -108.85 238.65 -93.3 L262.6 -90.8 Q261.6 -98.05 260.55 -108.05 L274.55 -108.9 275.5 -109.0 Q287.7 -92.75 293.65 -80.5 296.9 -73.0 298.5 -65.45 L319.45 -71.9 Q323.55 -84.75 321.65 -101.15 320.55 -112.05 317.25 -127.7 L328.7 -125.35 Q331.4 -124.65 334.25 -124.3 348.45 -97.8 350.45 -80.5 L360.4 -81.7 Q368.4 -98.15 361.75 -131.35 L359.0 -143.0 363.15 -143.3 394.9 -145.4 Q399.15 -125.2 403.4 -108.6 L405.15 -29.05 Q2.35 -26.1 -400.45 -29.95 L-405.3 -29.95 Q-404.8 -68.1 -404.65 -108.4 L-400.65 -115.1 Q-391.25 -130.75 -377.45 -145.55 L-375.45 -145.7 -343.5 -148.6 Q-351.05 -125.8 -353.0 -106.4 -354.95 -89.55 -351.45 -74.45 L-339.75 -74.65 -337.1 -74.7 Q-331.75 -74.7 -326.4 -74.85 -322.4 -80.3 -320.2 -86.95 -316.6 -96.35 -317.55 -112.9 L-307.5 -110.7 -296.45 -108.3 Q-288.2 -93.05 -280.3 -81.15 -275.5 -88.7 -274.7 -96.6 -274.05 -101.85 -275.4 -108.45 L-254.85 -113.25 -250.4 -114.3 Q-237.95 -90.4 -237.25 -71.1 L-208.2 -67.3 Q-215.4 -87.7 -208.4 -117.85 L-205.5 -117.15 -180.2 -111.05 Q-179.1 -88.85 -173.4 -74.65 -170.7 -67.6 -167.15 -60.55 L-158.2 -60.25 Q-149.9 -71.35 -150.0 -82.6 L-144.5 -82.35 -136.95 -82.0 -135.95 -76.85 -133.1 -62.1 -96.1 -61.1 Q-94.15 -68.2 -90.55 -75.1 -86.0 -83.15 -78.8 -93.15 L-75.95 -93.7 -65.8 -95.75 Q-63.35 -82.9 -60.9 -73.45 L-27.0 -64.65 Q-24.25 -70.45 -22.9 -77.05 -19.75 -88.35 -21.95 -111.85 L0.9 -115.3 Q5.55 -95.25 8.75 -82.75 12.95 -67.05 14.75 -53.1 L48.7 -50.1 Q49.25 -61.75 58.95 -73.75 L70.95 -74.85 Q67.65 -62.6 80.7 -49.7 97.2 -52.75 113.7 -56.15 122.9 -81.1 119.7 -119.65 L131.25 -125.1" fill="url(#gradient1)" fill-rule="evenodd" stroke="none"/>
      <path d="M166.3 -88.65 L170.8 -89.3 Q173.85 -110.35 176.3 -140.35 L187.3 -141.4 Q190.05 -116.45 192.8 -96.65 196.6 -96.5 200.55 -96.5 194.05 -83.3 192.7 -71.85 L169.75 -70.85 Q168.65 -79.75 166.3 -88.65 M206.1 -108.55 L207.0 -159.5 226.95 -161.65 238.35 -108.95 238.6 -109.05 257.5 -115.55 257.2 -139.4 269.15 -141.8 Q271.85 -124.25 274.55 -108.9 L260.55 -108.05 Q261.6 -98.05 262.6 -90.8 L238.65 -93.3 Q228.05 -108.85 230.45 -127.15 L213.45 -123.0 Q209.3 -115.4 206.1 -108.55 M293.65 -80.5 L298.5 -80.95 Q298.65 -105.1 297.95 -150.0 L307.85 -153.65 Q311.95 -123.45 315.45 -100.4 L321.65 -101.15 Q323.55 -84.75 319.45 -71.9 L298.5 -65.45 Q296.9 -73.0 293.65 -80.5 M328.7 -125.35 L328.8 -159.5 341.75 -160.25 345.25 -126.15 361.2 -126.75 361.75 -131.35 Q368.4 -98.15 360.4 -81.7 L350.45 -80.5 Q348.45 -97.8 334.25 -124.3 331.4 -124.65 328.7 -125.35 M363.15 -143.3 Q365.6 -167.7 368.4 -187.85 388.45 -181.05 408.65 -172.4 L409.9 -81.0 410.1 -45.95 410.2 -28.45 410.25 -21.15 -400.45 -21.15 -400.45 -29.95 Q2.35 -26.1 405.15 -29.05 L403.4 -108.6 Q399.15 -125.2 394.9 -145.4 L363.15 -143.3 M-400.65 -115.1 L-402.25 -176.3 Q-390.15 -171.35 -378.0 -165.8 L-375.45 -145.7 -377.45 -145.55 Q-391.25 -130.75 -400.65 -115.1 M-353.0 -106.4 Q-349.75 -111.15 -346.65 -116.5 L-334.65 -114.85 Q-336.9 -92.25 -339.75 -74.65 L-351.45 -74.45 Q-354.95 -89.55 -353.0 -106.4 M-337.1 -74.7 L-327.4 -87.6 -320.2 -86.95 Q-322.4 -80.3 -326.4 -74.85 -331.75 -74.7 -337.1 -74.7 M-307.5 -110.7 Q-305.35 -128.95 -303.4 -149.35 L-288.35 -148.4 -285.3 -99.85 -284.3 -99.85 Q-279.5 -98.05 -274.7 -96.6 -275.5 -88.7 -280.3 -81.15 -288.2 -93.05 -296.45 -108.3 L-307.5 -110.7 M-254.85 -113.25 L-254.85 -132.75 -240.8 -130.45 -237.2 -89.6 -225.15 -93.65 Q-226.25 -116.6 -228.15 -146.75 L-211.05 -145.45 Q-208.1 -131.1 -205.5 -117.15 L-208.4 -117.85 Q-215.4 -87.7 -208.2 -67.3 L-237.25 -71.1 Q-237.95 -90.4 -250.4 -114.3 L-254.85 -113.25 M-173.4 -74.65 L-166.05 -74.6 -165.95 -97.5 -145.95 -96.4 -144.5 -82.35 -150.0 -82.6 Q-149.9 -71.35 -158.2 -60.25 L-167.15 -60.55 Q-170.7 -67.6 -173.4 -74.65 M-135.95 -76.85 L-131.5 -76.65 Q-124.4 -93.7 -118.3 -123.35 L-111.25 -122.95 Q-110.7 -92.9 -110.95 -75.85 L-90.55 -75.1 Q-94.15 -68.2 -96.1 -61.1 L-133.1 -62.1 -135.95 -76.85 M-75.95 -93.7 L-79.1 -117.45 -67.05 -114.45 Q-60.3 -92.8 -54.35 -79.7 L-22.9 -77.05 Q-24.25 -70.45 -27.0 -64.65 L-60.9 -73.45 Q-63.35 -82.9 -65.8 -95.75 L-75.95 -93.7 M8.75 -82.75 L19.15 -85.45 Q21.15 -100.55 22.75 -121.6 L34.8 -120.6 Q38.15 -93.85 41.05 -78.25 L67.0 -79.6 Q68.2 -86.95 69.0 -97.5 L86.0 -99.3 Q89.05 -83.55 91.9 -73.0 98.9 -72.75 105.85 -72.65 110.25 -97.3 113.4 -143.9 L127.35 -145.1 131.25 -125.1 119.7 -119.65 Q122.9 -81.1 113.7 -56.15 97.2 -52.75 80.7 -49.7 67.65 -62.6 70.95 -74.85 L58.95 -73.75 Q49.25 -61.75 48.7 -50.1 L14.75 -53.1 Q12.95 -67.05 8.75 -82.75" fill="url(#gradient2)" fill-rule="evenodd" stroke="none"/>
      <path d="M-432.1 -128.0 L-430.15 -127.4 Q-429.5 -127.15 -429.0 -126.65 L-427.9 -125.25 -427.1 -123.75 -427.15 -123.0 Q-427.25 -122.25 -427.5 -121.55 -427.95 -120.25 -429.05 -119.55 -430.5 -118.65 -432.1 -118.0 -433.75 -118.65 -435.2 -119.5 -436.75 -120.45 -437.05 -122.25 -437.25 -123.85 -436.55 -125.25 L-436.1 -126.0 -435.35 -126.75 -434.3 -127.3 -432.15 -127.9 -432.1 -128.0" fill="#ffff66" fill-rule="evenodd" stroke="none"/>
    </g>
    <radialGradient cx="0" cy="0" gradientTransform="matrix(6.0E-4, 0.1306, -0.3982, 0.0019, -3.0, -35.0)" gradientUnits="userSpaceOnUse" id="gradient0" r="819.2" spreadMethod="pad">
      <stop offset="0.0" stop-color="#556039"/>
      <stop offset="1.0" stop-color="#263223"/>
    </radialGradient>
    <linearGradient gradientTransform="matrix(0.0, -0.0671, 0.4947, 0.0, -0.05, -84.1)" gradientUnits="userSpaceOnUse" id="gradient1" spreadMethod="pad" x1="-819.2" x2="819.2">
      <stop offset="0.0" stop-color="#000000" stop-opacity="0.21176471"/>
      <stop offset="1.0" stop-color="#000000" stop-opacity="0.73333335"/>
    </linearGradient>
    <linearGradient gradientTransform="matrix(0.0055, -0.1139, 0.4981, 0.024, 5.0, -87.1)" gradientUnits="userSpaceOnUse" id="gradient2" spreadMethod="pad" x1="-819.2" x2="819.2">
      <stop offset="0.0" stop-color="#000000" stop-opacity="0.03137255"/>
      <stop offset="1.0" stop-color="#000000" stop-opacity="0.4509804"/>
    </linearGradient>
    <g id="sprite0" transform="matrix(1.0, 0.0, 0.0, 1.0, 67.65, 18.75)">
      <use ffdec:characterId="3440" height="37.45" transform="matrix(1.0, 0.0, 0.0, 1.0, -67.65, -18.75)" width="135.25" xlink:href="#shape1"/>
    </g>
    <g id="shape1" transform="matrix(1.0, 0.0, 0.0, 1.0, 67.65, 18.75)">
      <path d="M11.8 -8.4 L11.85 -8.2 11.9 -7.7 11.9 -6.5 11.7 -5.55 12.0 -5.35 Q13.3 -4.15 14.45 -4.15 16.25 -4.15 19.35 -5.35 22.65 -6.75 24.9 -6.9 L24.65 -7.7 24.5 -8.4 24.4 -9.0 Q39.4 -28.45 54.4 -9.0 L54.65 -8.4 54.8 -7.7 54.9 -6.65 Q54.9 -5.3 54.5 -3.65 L54.05 -2.25 Q54.05 -0.85 55.85 0.55 57.35 1.7 59.5 2.15 L65.35 0.05 Q67.15 0.05 67.6 1.5 L66.2 2.95 64.45 3.85 Q64.2 4.45 62.9 5.05 61.35 5.75 60.1 5.75 52.45 5.75 44.1 -4.55 L34.85 -0.85 33.6 -0.3 Q31.35 0.65 31.4 1.05 31.35 1.7 33.0 2.5 L33.6 2.7 36.6 3.9 Q41.75 6.0 41.75 8.15 41.7 8.6 41.05 8.8 L39.3 9.2 Q36.15 9.9 33.6 12.35 L33.3 12.6 31.9 14.8 Q30.75 16.0 28.35 16.6 28.3 17.35 27.15 18.0 L25.95 18.35 23.65 18.7 Q12.3 18.65 9.2 15.4 8.15 14.3 8.1 12.9 L8.2 11.35 Q8.05 9.55 6.15 8.9 L2.0 8.35 -2.0 7.85 Q-3.85 7.3 -3.85 5.8 -3.85 4.05 -1.9 1.95 L0.0 -0.2 Q0.0 -0.8 -2.75 -2.05 -11.55 -2.1 -12.8 0.45 -13.25 1.2 -12.9 2.15 L-12.4 3.05 Q-12.4 3.75 -14.35 4.7 -16.3 5.65 -16.3 5.85 L-15.45 8.4 Q-14.6 10.3 -14.6 11.05 L-14.7 12.65 Q-14.95 13.4 -15.85 13.85 -18.05 14.85 -26.5 14.85 -32.1 14.85 -34.55 16.4 L-36.05 17.5 Q-36.85 17.95 -37.8 18.0 -47.1 17.95 -51.0 15.05 -52.95 13.55 -53.05 12.05 -53.05 11.4 -51.35 8.6 -54.2 4.45 -58.4 4.45 -61.4 4.45 -62.05 5.85 -62.4 6.65 -62.0 7.6 L-61.85 7.6 -61.85 8.05 -62.25 8.2 -63.4 8.3 Q-64.8 8.25 -65.7 7.7 L-66.15 8.0 Q-67.65 7.1 -67.65 5.3 -67.7 -0.35 -63.65 -0.35 -54.55 -0.4 -49.6 2.8 -48.25 3.7 -47.4 4.55 L-45.0 5.55 -29.25 2.55 -32.7 -0.65 Q-33.7 -1.8 -33.7 -3.35 -33.7 -4.95 -32.45 -5.8 -29.6 -7.75 -21.25 -6.55 L-20.6 -7.7 -20.4 -7.95 -20.0 -8.4 -19.4 -9.0 Q-11.7 -28.35 11.65 -9.0 L11.8 -8.4 M55.85 2.8 L55.85 2.75 55.85 2.8" fill="url(#gradient3)" fill-rule="evenodd" stroke="none"/>
    </g>
    <linearGradient gradientTransform="matrix(-0.0016, 0.0253, -0.0821, -0.005, 0.25, -0.35)" gradientUnits="userSpaceOnUse" id="gradient3" spreadMethod="pad" x1="-819.2" x2="819.2">
      <stop offset="0.0" stop-color="#ffff6f" stop-opacity="0.101960786"/>
      <stop offset="1.0" stop-color="#ffff6f" stop-opacity="0.0"/>
    </linearGradient>
    <g id="sprite1" transform="matrix(1.0, 0.0, 0.0, 1.0, 67.2, 26.8)">
      <use ffdec:characterId="3438" height="53.6" transform="matrix(1.0, 0.0, 0.0, 1.0, -67.2, -26.8)" width="134.45" xlink:href="#shape2"/>
    </g>
    <g id="shape2" transform="matrix(1.0, 0.0, 0.0, 1.0, 67.2, 26.8)">
      <path d="M-48.15 -17.3 L-47.3 -17.75 -45.55 -18.6 -45.35 -19.3 Q-45.05 -22.65 -42.65 -24.2 -38.8 -26.8 -28.4 -26.8 -15.75 -26.8 -13.7 -21.8 -13.1 -20.2 -13.4 -17.75 L-13.7 -15.85 -12.4 -15.05 -11.8 -14.7 -7.3 -14.8 Q-4.5 -14.85 -3.3 -12.1 -2.85 -11.05 -1.9 -6.15 -1.1 -2.05 0.35 -0.15 2.45 2.55 6.75 2.55 7.75 2.55 8.9 1.7 L11.35 -0.05 Q15.25 -2.4 22.25 -1.45 L22.4 -1.5 22.55 -2.05 21.4 -3.6 18.9 -6.25 Q15.2 -10.4 15.2 -13.5 15.2 -15.2 19.15 -16.55 24.55 -18.35 35.2 -18.35 37.1 -18.4 38.25 -16.85 39.0 -15.85 39.0 -15.2 L36.8 -10.75 Q36.8 -10.2 38.85 -8.55 40.85 -6.95 41.5 -6.95 L47.1 -7.3 51.65 -8.1 50.2 -10.55 Q49.85 -11.3 49.9 -12.75 L49.9 -14.05 Q50.3 -14.8 52.95 -14.8 58.7 -14.8 62.5 -12.15 L64.15 -10.85 Q65.95 -9.85 67.25 -6.55 L65.75 -4.6 Q64.3 -5.65 61.9 -6.35 61.3 -5.45 61.35 -4.95 61.3 -4.5 61.9 -3.95 62.5 -3.4 62.5 -2.95 62.5 -1.8 61.5 -1.4 L59.3 -1.05 Q56.05 -0.65 56.05 2.2 56.05 3.55 55.3 4.0 L50.3 4.65 43.7 4.1 Q42.0 3.65 41.1 2.7 L39.4 0.8 Q38.1 -0.45 35.6 -1.4 33.7 0.4 33.7 1.05 33.7 1.75 35.5 3.7 37.25 5.6 37.25 6.1 37.2 6.75 36.15 7.3 L34.0 8.35 Q38.4 16.5 38.4 18.15 L38.1 19.5 Q37.45 21.15 35.95 22.5 31.05 26.8 19.15 26.8 14.65 26.75 10.2 24.2 7.05 22.4 5.1 20.15 L2.25 21.8 Q-0.25 23.15 -2.0 23.15 -13.5 23.1 -15.2 17.6 -15.75 15.8 -15.3 13.3 L-14.75 10.25 Q-14.8 9.8 -24.15 2.85 L-33.7 -4.0 Q-37.25 -4.0 -38.25 -2.55 L-38.6 -1.55 -38.55 -1.05 Q-38.6 1.9 -34.75 5.75 L-32.1 8.3 Q-30.95 9.55 -30.95 10.25 L-30.65 11.55 Q-30.55 12.4 -31.1 13.0 -32.75 14.6 -41.3 14.6 -44.65 14.6 -47.55 12.55 L-48.15 12.15 -49.45 11.15 Q-50.4 10.5 -51.1 10.5 L-54.2 11.05 -58.1 11.6 Q-60.6 11.6 -61.5 10.75 L-62.55 9.4 Q-64.95 8.45 -66.2 5.45 -67.25 3.0 -67.2 0.7 -67.25 -3.4 -65.6 -6.85 -63.0 -12.35 -57.0 -12.85 L-55.75 -12.9 -54.8 -12.85 -53.1 -13.8 Q-51.35 -15.6 -48.15 -17.3 M-56.8 -11.65 L-56.75 -11.3 -56.25 -11.7 -56.8 -11.65" fill="url(#gradient4)" fill-rule="evenodd" stroke="none"/>
    </g>
    <linearGradient gradientTransform="matrix(-0.0026, 0.0455, -0.2891, -0.0063, 170.3, -7.2)" gradientUnits="userSpaceOnUse" id="gradient4" spreadMethod="pad" x1="-819.2" x2="819.2">
      <stop offset="0.0" stop-color="#ffff6f" stop-opacity="0.2627451"/>
      <stop offset="1.0" stop-color="#ffff6f" stop-opacity="0.0"/>
    </linearGradient>
    <g id="shape3" transform="matrix(1.0, 0.0, 0.0, 1.0, 391.25, 162.65)">
      <path d="M131.9 -102.55 Q132.3 -101.65 131.3 -102.3 130.2 -102.8 130.85 -103.65 L131.9 -102.55 M148.05 -100.15 Q147.95 -100.35 148.2 -100.55 L148.85 -101.3 148.85 -101.4 150.35 -100.65 Q151.55 -99.6 150.5 -98.9 L148.65 -99.0 148.25 -99.4 148.05 -99.8 148.05 -100.15 M56.05 -59.8 L56.45 -59.95 57.2 -59.3 56.85 -59.2 Q55.85 -59.1 56.05 -59.8 M63.9 -62.2 L64.75 -61.65 Q65.3 -60.8 64.25 -61.1 63.2 -61.3 63.7 -62.1 L63.9 -62.2 M28.3 -93.9 L28.5 -93.05 28.45 -92.8 Q28.05 -92.9 28.0 -93.35 27.75 -93.85 28.3 -93.9 M20.1 -77.9 Q20.95 -77.75 20.55 -77.2 20.3 -76.95 19.85 -76.9 18.05 -76.75 19.2 -77.35 19.75 -77.55 20.1 -77.9 M1.2 -86.65 Q2.5 -86.85 2.55 -85.85 2.45 -85.05 1.7 -85.05 0.45 -85.05 0.75 -86.2 0.8 -86.55 1.2 -86.65 M31.5 -67.4 Q32.5 -67.3 32.05 -66.55 31.7 -65.95 31.3 -66.55 31.0 -66.85 31.45 -67.35 L31.5 -67.4 M67.8 -47.2 Q68.8 -46.65 68.4 -46.1 67.95 -45.35 67.3 -46.2 66.55 -47.0 67.8 -47.2 M143.35 -79.35 Q143.05 -78.05 142.15 -78.5 140.8 -79.05 142.05 -80.4 L142.35 -80.7 Q143.55 -80.45 143.35 -79.35 M131.15 -71.8 L130.55 -71.7 131.55 -72.7 131.85 -72.8 133.5 -73.35 133.95 -73.3 Q134.8 -73.0 134.2 -72.7 L132.85 -72.4 Q131.8 -72.2 131.15 -71.8 M152.0 -63.8 Q152.3 -64.2 152.75 -64.4 L153.75 -64.45 Q152.9 -63.8 153.0 -62.9 153.1 -61.55 152.0 -62.4 151.7 -62.3 151.6 -62.6 151.35 -62.8 151.45 -63.15 L151.6 -63.45 152.0 -63.8 M113.8 -91.05 L114.05 -91.15 Q115.0 -91.15 114.5 -90.35 114.05 -89.6 113.6 -90.0 112.9 -90.45 113.8 -91.05 M82.95 -78.95 Q82.65 -78.1 81.9 -78.05 81.0 -77.95 80.65 -78.45 L82.05 -78.65 Q82.6 -78.8 81.95 -79.5 81.6 -79.8 82.05 -80.05 82.1 -80.0 82.15 -80.1 83.15 -79.65 82.95 -78.95 M90.35 -62.4 Q89.85 -62.45 89.9 -62.7 L90.35 -62.9 91.45 -63.05 91.85 -63.1 91.9 -63.05 91.35 -62.65 Q90.85 -62.35 90.35 -62.4 M246.65 -101.5 L247.2 -100.9 247.1 -100.55 Q246.65 -100.45 246.55 -100.75 246.2 -101.35 246.65 -101.5 M308.1 -110.85 L307.9 -109.7 Q307.75 -109.4 307.6 -109.85 307.45 -110.2 307.7 -110.55 L308.1 -110.85 M181.1 -117.45 Q181.9 -117.2 182.3 -116.5 182.9 -115.05 181.5 -115.8 180.45 -116.1 180.95 -117.2 L181.1 -117.45 M185.45 -101.2 Q185.65 -100.45 185.0 -100.05 L184.55 -99.85 184.75 -100.75 185.45 -101.2 M225.35 -131.15 L226.5 -130.9 Q227.5 -130.2 226.7 -130.3 225.9 -130.15 225.25 -130.95 225.1 -131.05 225.35 -131.15 M219.1 -138.1 Q219.15 -138.25 219.4 -138.2 220.25 -137.35 219.65 -136.85 218.85 -136.2 218.65 -136.55 218.2 -137.05 219.1 -138.1 M215.3 -106.85 L215.65 -106.4 216.0 -106.0 216.35 -105.5 216.45 -104.65 Q216.1 -104.3 216.1 -104.5 L215.7 -104.85 Q215.1 -105.5 214.9 -106.35 214.75 -106.8 215.15 -106.85 L215.3 -106.85 M238.6 -80.5 Q238.5 -81.2 239.15 -81.5 L239.75 -80.95 Q239.9 -80.5 239.6 -80.0 239.25 -79.6 239.3 -79.2 L239.15 -79.05 Q238.75 -79.2 238.75 -79.55 238.6 -79.95 238.6 -80.5 M223.15 -92.2 Q221.45 -91.4 220.95 -92.8 L220.85 -93.55 220.9 -93.7 221.0 -93.85 221.2 -94.05 222.2 -93.75 Q222.85 -93.2 222.25 -92.8 L222.15 -92.75 Q222.65 -92.4 223.35 -92.45 L223.15 -92.2 M204.8 -83.8 L203.7 -83.75 Q203.8 -84.85 204.9 -85.1 205.75 -84.45 204.8 -83.8 M214.3 -59.95 L214.5 -60.6 214.9 -60.95 215.15 -61.0 215.25 -61.0 Q215.3 -60.3 215.75 -60.2 216.8 -60.1 215.65 -59.6 L214.4 -59.25 214.3 -59.95 M175.95 -82.6 Q176.35 -81.8 175.75 -81.2 L174.65 -81.25 Q174.25 -82.2 175.4 -82.55 L175.95 -82.6 M179.35 -56.4 Q177.65 -56.7 178.5 -57.8 178.7 -58.2 179.1 -58.2 L179.15 -58.25 179.65 -58.1 180.15 -57.7 Q180.35 -57.5 180.55 -57.45 L180.75 -57.0 Q180.25 -56.1 179.35 -56.4 M308.1 -85.25 L307.4 -84.4 306.8 -84.3 Q306.45 -84.25 306.25 -84.55 306.7 -84.55 307.1 -84.9 L307.35 -85.4 Q307.35 -85.75 307.7 -86.1 L308.0 -86.3 308.15 -86.3 Q308.65 -85.6 308.1 -85.25 M270.6 -97.95 Q271.75 -97.55 271.3 -96.3 270.9 -95.4 270.05 -95.9 268.25 -96.8 270.2 -97.65 L270.6 -97.95 M262.8 -74.5 Q263.05 -74.2 263.7 -74.25 L263.8 -74.05 Q261.65 -72.3 261.5 -74.55 261.35 -75.45 262.15 -75.9 262.5 -76.05 263.05 -76.35 L263.2 -76.4 Q263.75 -75.7 263.05 -75.35 262.25 -74.85 262.8 -74.5 M372.35 -161.75 L373.45 -162.0 373.85 -162.4 374.2 -162.65 374.35 -162.65 Q375.35 -161.75 374.7 -161.0 373.95 -160.25 373.2 -160.3 372.1 -160.2 371.95 -161.7 L372.35 -161.75 M382.75 -156.1 L383.35 -155.15 383.3 -154.8 Q382.9 -154.7 382.7 -155.35 382.55 -155.65 382.75 -156.1 M338.55 -142.35 L339.0 -141.55 338.75 -140.7 Q338.0 -139.8 338.25 -141.45 L338.55 -142.35 M327.95 -102.6 Q327.95 -101.6 328.7 -102.15 328.85 -102.0 329.0 -102.0 L329.0 -101.85 Q328.35 -101.35 327.7 -101.2 L327.7 -101.6 Q327.55 -102.55 326.8 -102.7 326.1 -102.7 325.75 -103.5 325.45 -103.9 325.95 -103.85 L325.95 -104.0 327.45 -103.6 Q327.9 -103.3 327.95 -102.6 M347.65 -109.1 L347.9 -109.7 348.75 -108.85 348.35 -108.4 Q347.3 -107.85 347.65 -109.1 M373.5 -116.9 Q373.05 -115.6 372.35 -116.5 371.6 -117.2 372.6 -118.05 L372.8 -118.25 Q373.95 -118.1 373.5 -116.9 M375.35 -98.7 Q376.8 -98.4 376.45 -97.25 376.15 -95.9 375.05 -96.95 374.0 -97.9 375.35 -98.6 L375.35 -98.7 M338.2 -86.95 Q336.05 -85.9 336.1 -87.6 L336.1 -88.7 Q336.05 -89.3 336.75 -89.65 L336.95 -89.75 336.95 -89.85 Q337.85 -89.75 337.9 -89.0 337.8 -88.25 337.25 -87.85 L337.05 -87.7 Q337.45 -87.15 338.2 -86.95 M-365.7 -125.45 Q-365.35 -126.45 -364.2 -125.65 -363.95 -125.35 -363.7 -125.4 L-363.4 -125.65 Q-363.25 -125.75 -363.25 -126.0 L-362.75 -126.2 Q-362.8 -125.05 -363.45 -124.65 -363.9 -124.05 -364.5 -124.25 -365.05 -124.25 -365.6 -125.0 L-365.7 -125.45 M-390.95 -147.35 L-389.75 -146.3 Q-389.1 -145.6 -390.25 -146.1 -391.75 -146.7 -391.0 -147.3 -390.9 -147.25 -390.95 -147.35 M-376.65 -120.65 Q-376.1 -119.8 -376.15 -119.15 -376.1 -118.25 -376.65 -119.15 -376.85 -119.6 -376.85 -120.6 L-376.65 -120.65 M-329.25 -82.35 Q-328.85 -81.7 -329.6 -81.45 -329.9 -81.3 -330.0 -81.55 L-329.8 -82.15 -329.25 -82.35 M-345.05 -93.9 Q-346.15 -94.55 -345.45 -95.55 L-345.25 -95.65 Q-344.05 -95.75 -344.05 -94.8 -344.05 -93.15 -345.05 -93.9 M-372.15 -86.75 Q-371.95 -86.0 -372.35 -85.6 L-372.55 -85.3 -372.85 -85.3 -372.75 -86.4 -372.65 -87.5 -372.55 -88.2 -372.4 -88.35 -372.15 -88.0 Q-372.35 -87.4 -372.15 -86.75 M-220.25 -131.2 Q-218.6 -131.3 -219.35 -130.75 L-220.15 -130.25 Q-220.6 -129.65 -220.4 -131.0 L-220.25 -131.2 M-294.05 -116.95 Q-292.9 -116.8 -293.3 -115.6 -293.55 -114.35 -294.0 -115.1 -294.3 -115.95 -294.2 -116.8 L-294.05 -116.95 M-300.75 -135.0 Q-299.8 -134.9 -299.25 -134.2 -298.75 -133.8 -300.2 -134.35 -301.8 -134.8 -300.75 -135.0 M-248.5 -119.0 Q-247.05 -118.4 -247.55 -116.75 -247.8 -114.75 -248.6 -116.5 -249.15 -117.95 -248.5 -119.0 M-254.85 -97.15 L-255.05 -96.7 Q-254.35 -96.2 -255.65 -95.85 L-256.4 -95.95 -256.5 -96.4 -256.5 -96.75 -256.3 -97.45 -255.7 -98.05 Q-255.6 -98.0 -255.65 -98.15 -254.35 -97.95 -254.85 -97.15 M-262.45 -91.6 L-263.2 -91.85 -263.7 -92.2 -264.05 -92.6 -264.05 -92.8 -263.95 -92.9 -263.75 -92.95 Q-263.65 -92.9 -263.7 -93.05 L-262.85 -92.5 -262.25 -91.7 Q-262.15 -91.55 -262.45 -91.6 M-258.05 -72.3 L-257.6 -72.4 -257.5 -71.7 -257.5 -71.0 -257.6 -70.3 Q-257.6 -69.95 -257.75 -69.75 L-257.95 -70.3 -258.1 -71.35 -258.05 -72.3 M-297.85 -90.5 Q-297.85 -91.1 -297.25 -91.05 L-297.15 -91.05 Q-296.55 -90.45 -297.1 -90.05 -297.45 -89.5 -297.2 -89.1 -296.7 -88.4 -297.35 -88.3 L-298.05 -88.35 -298.05 -89.05 -297.95 -89.75 -297.85 -90.5 M-310.9 -94.05 L-311.2 -93.75 Q-311.8 -93.65 -312.0 -93.95 -312.1 -94.25 -311.8 -94.55 -310.75 -94.7 -310.9 -94.05 M-305.1 -74.75 Q-305.25 -73.8 -304.8 -73.2 L-305.05 -73.15 Q-305.6 -73.5 -305.7 -74.2 -305.6 -74.95 -306.05 -75.5 -306.35 -75.95 -306.05 -76.75 L-305.8 -77.0 Q-304.9 -76.9 -304.95 -76.15 -304.85 -75.35 -305.1 -74.75 M-288.2 -69.6 L-287.3 -68.45 Q-286.9 -67.8 -288.05 -68.3 -288.95 -68.7 -288.45 -69.5 -288.25 -69.55 -288.2 -69.6 M-299.0 -64.15 Q-298.3 -63.75 -298.55 -63.1 L-298.45 -62.5 -297.6 -61.8 -297.85 -61.75 -298.9 -62.35 -299.1 -62.85 -299.1 -63.25 -299.4 -63.55 -299.85 -63.9 -300.05 -64.25 -300.0 -64.55 -299.8 -64.7 -299.0 -64.15 M-190.1 -97.55 Q-190.0 -97.5 -190.05 -97.65 -188.45 -97.0 -189.45 -95.7 -190.25 -94.2 -190.6 -95.65 -190.95 -96.8 -190.1 -97.55 M-193.1 -80.75 L-192.55 -80.5 -192.05 -79.9 -192.05 -79.4 -192.25 -78.75 -192.65 -78.8 -192.9 -79.35 Q-192.8 -79.65 -193.05 -79.95 L-193.2 -80.6 -193.15 -80.7 Q-193.05 -80.65 -193.1 -80.75 M-192.05 -56.95 L-191.65 -56.05 Q-191.45 -55.65 -191.6 -55.4 -191.6 -54.75 -191.2 -54.5 L-191.1 -54.25 Q-192.05 -53.4 -192.55 -53.7 -194.45 -54.55 -193.3 -56.35 -192.8 -56.85 -192.05 -56.95 M-204.3 -97.5 L-204.6 -96.9 Q-204.7 -96.65 -205.0 -96.75 -205.5 -96.9 -206.0 -97.2 L-205.45 -97.9 -205.05 -98.4 -204.5 -98.55 -204.1 -98.65 Q-204.05 -98.6 -204.0 -98.7 L-204.3 -97.5 M-221.15 -82.05 Q-220.15 -81.95 -220.75 -81.45 -221.1 -81.05 -221.4 -81.25 -221.7 -81.55 -221.2 -82.0 -221.1 -81.95 -221.15 -82.05 M-216.1 -60.35 Q-215.35 -59.9 -215.15 -59.4 -214.9 -58.9 -215.65 -58.6 L-216.95 -58.4 -217.2 -58.55 -217.45 -59.25 -217.3 -59.55 -216.55 -60.25 -216.2 -60.35 -216.1 -60.35 M-69.3 -101.2 L-68.05 -101.05 -66.7 -100.7 -66.55 -100.55 Q-66.6 -100.3 -66.8 -100.4 -67.95 -100.5 -68.65 -99.75 -68.95 -99.4 -69.45 -99.25 -70.65 -98.7 -70.05 -100.15 L-69.3 -101.2 M-118.65 -97.0 L-118.25 -97.2 Q-117.55 -96.4 -118.4 -96.2 -119.0 -95.85 -119.0 -96.05 -119.15 -96.45 -118.65 -97.0 M-116.1 -82.85 L-116.15 -82.85 -116.15 -82.8 Q-116.2 -81.7 -116.8 -82.35 -117.4 -83.1 -117.0 -83.4 -117.2 -83.65 -116.75 -83.7 L-116.35 -83.35 -116.1 -83.05 -116.1 -82.95 -116.1 -82.85 M-118.15 -51.35 Q-116.65 -51.35 -117.5 -50.9 L-118.65 -50.15 Q-119.7 -49.65 -118.75 -50.95 L-118.15 -51.35 M-157.75 -89.35 Q-158.2 -89.8 -157.4 -90.2 -156.05 -89.7 -156.5 -88.95 -156.65 -88.45 -157.75 -89.35 M-145.5 -74.75 Q-144.6 -74.65 -145.1 -74.1 -145.2 -73.8 -145.45 -73.9 -145.9 -74.3 -145.55 -74.65 L-145.5 -74.75 M-142.45 -67.1 L-142.15 -67.4 -141.8 -67.7 Q-141.5 -67.75 -141.35 -67.95 -141.25 -67.9 -141.3 -68.0 L-141.1 -68.05 Q-141.0 -68.0 -141.05 -68.1 -140.05 -68.05 -140.6 -67.4 L-141.1 -66.65 Q-141.55 -66.0 -142.2 -66.75 L-142.45 -67.1 M-14.05 -91.4 Q-14.0 -90.0 -12.7 -89.8 L-13.75 -89.75 Q-14.85 -89.65 -14.55 -91.1 -14.5 -91.45 -14.05 -91.4 M-8.2 -68.0 L-7.6 -68.55 -6.4 -69.0 -6.3 -69.0 Q-5.25 -68.6 -5.55 -67.8 -5.7 -67.05 -6.65 -67.05 -7.3 -67.0 -8.1 -67.5 -8.2 -67.45 -8.3 -67.75 L-8.2 -68.0 M-5.0 -60.05 L-4.9 -60.05 -5.1 -59.85 Q-5.35 -59.5 -5.75 -59.55 L-5.85 -59.65 Q-5.45 -60.05 -5.0 -60.05 M-73.4 -70.75 Q-71.95 -70.85 -72.05 -69.95 -72.05 -69.45 -72.45 -69.35 -73.9 -68.9 -73.9 -70.0 -73.85 -70.5 -73.4 -70.75 M-72.3 -55.85 L-71.9 -56.4 Q-71.65 -56.45 -71.55 -56.65 L-70.55 -56.35 Q-69.95 -56.0 -70.35 -55.65 L-70.85 -54.7 Q-70.9 -54.45 -71.1 -54.35 L-71.5 -54.15 -72.8 -54.2 -73.0 -54.4 -72.9 -54.7 -72.6 -55.35 -72.3 -55.85 M-41.75 -57.1 Q-42.4 -55.6 -42.8 -57.05 -42.95 -58.25 -41.9 -58.45 -41.25 -57.8 -41.75 -57.1 M-12.7 -48.75 Q-14.15 -49.3 -12.6 -50.25 -11.0 -49.85 -11.15 -48.6 -11.05 -48.1 -12.7 -48.75" fill="#ffd066" fill-rule="evenodd" stroke="none"/>
    </g>
  </defs>
</svg>
