<?xml version="1.0" encoding="UTF-8" standalone="no"?>
<svg xmlns:ffdec="https://www.free-decompiler.com/flash" xmlns:xlink="http://www.w3.org/1999/xlink" ffdec:objectType="frame" height="54.3px" width="44.8px" xmlns="http://www.w3.org/2000/svg">
  <g transform="matrix(2.0, 0.0, 0.0, 2.0, 21.3, 36.3)">
    <use ffdec:characterId="15" height="27.1" transform="matrix(1.0, 0.0, 0.0, 1.0, -7.95, -18.1)" width="17.55" xlink:href="#shape0"/>
    <use ffdec:characterId="14" height="24.1" id="KN" transform="matrix(1.0, 0.0, 0.0, 1.0, -6.95, -17.1)" width="14.05" xlink:href="#sprite0"/>
    <use ffdec:characterId="12" height="24.1" transform="matrix(1.0, 0.0, 0.0, 1.0, -6.95, -17.1)" width="14.05" xlink:href="#shape2"/>
  </g>
  <defs>
    <g id="shape0" transform="matrix(1.0, 0.0, 0.0, 1.0, 7.95, 18.1)">
      <path d="M5.45 -15.2 L5.5 -15.15 Q8.35 -12.9 8.3 -9.7 8.3 -6.85 6.75 -5.15 9.6 -3.2 9.6 1.1 9.6 3.95 7.35 6.35 4.75 9.0 0.75 9.0 -2.9 9.0 -6.0 6.9 L-6.25 6.65 -7.5 5.9 -7.8 5.55 -7.95 5.05 -7.95 1.6 -7.7 0.95 Q-7.5 0.7 -7.1 0.65 L-6.45 0.75 Q-3.25 2.5 -0.75 2.55 0.65 2.55 1.6 1.6 2.4 0.8 2.45 0.0 2.45 -1.05 1.95 -1.75 L0.6 -1.95 -1.45 -1.95 Q-1.85 -1.95 -2.15 -2.25 L-2.45 -2.95 -2.95 -2.95 Q-3.35 -2.95 -3.65 -3.25 L-3.95 -3.95 -3.95 -7.5 -3.65 -8.2 -2.95 -8.5 -0.95 -8.5 Q-0.05 -8.5 0.6 -9.05 L0.65 -9.05 Q1.2 -9.7 1.2 -10.6 L1.0 -11.7 0.8 -11.7 -1.0 -11.35 -3.2 -10.55 -3.85 -10.55 -4.4 -10.9 -4.6 -11.5 -4.6 -11.6 -4.7 -11.55 -5.35 -11.55 Q-5.7 -11.65 -5.9 -11.9 L-6.1 -12.5 -6.1 -15.85 -5.95 -16.35 -5.55 -16.7 Q-3.05 -18.1 -0.65 -18.1 2.05 -18.1 3.55 -16.6 4.65 -16.15 5.45 -15.2" fill="#000000" fill-rule="evenodd" stroke="none"/>
    </g>
    <g id="sprite0" transform="matrix(1.0, 0.0, 0.0, 1.0, 7.0, 12.05)">
      <use ffdec:characterId="13" height="24.1" transform="matrix(1.0, 0.0, 0.0, 1.0, -7.0, -12.05)" width="14.05" xlink:href="#shape1"/>
    </g>
    <g id="shape1" transform="matrix(1.0, 0.0, 0.0, 1.0, 7.0, 12.05)">
      <path d="M5.75 -5.65 Q5.75 -2.45 3.45 -0.9 7.05 0.65 7.05 5.15 7.05 7.6 5.05 9.7 2.75 12.05 -0.8 12.05 -4.15 12.05 -7.0 10.1 L-7.0 6.65 Q-3.55 8.6 -0.8 8.6 1.0 8.6 2.25 7.35 3.4 6.2 3.4 5.05 3.4 3.2 2.25 2.15 1.15 1.1 -0.95 1.1 L-3.0 1.1 -3.0 -2.45 -1.0 -2.45 Q0.35 -2.45 1.25 -3.3 2.15 -4.2 2.15 -5.55 2.15 -6.95 1.35 -7.75 0.5 -8.65 -0.75 -8.65 L-2.85 -8.25 -5.15 -7.45 -5.15 -10.8 Q-2.85 -12.05 -0.7 -12.05 1.95 -12.05 3.25 -10.35 5.75 -8.4 5.75 -5.65" fill="#9966cc" fill-rule="evenodd" stroke="none"/>
    </g>
    <g id="shape2" transform="matrix(1.0, 0.0, 0.0, 1.0, 6.95, 17.1)">
      <path d="M2.2 -10.6 Q2.2 -12.0 1.4 -12.8 0.55 -13.7 -0.7 -13.7 L-2.8 -13.3 -5.1 -12.5 -5.1 -15.85 Q-2.8 -17.1 -0.65 -17.1 2.0 -17.1 3.3 -15.4 5.8 -13.45 5.8 -10.7 5.8 -7.5 3.5 -5.95 7.1 -4.4 7.1 0.1 7.1 2.55 5.1 4.65 2.8 7.0 -0.75 7.0 -4.1 7.0 -6.95 5.05 L-6.95 1.6 Q-3.5 3.55 -0.75 3.55 1.05 3.55 2.3 2.3 3.45 1.15 3.45 0.0 3.45 -1.85 2.3 -2.9 1.2 -3.95 -0.9 -3.95 L-2.95 -3.95 -2.95 -7.5 -0.95 -7.5 Q0.4 -7.5 1.3 -8.35 2.2 -9.25 2.2 -10.6" fill="url(#gradient0)" fill-rule="evenodd" stroke="none"/>
    </g>
    <linearGradient gradientTransform="matrix(0.0, 0.0147, -0.134, 0.0, 61.95, -5.1)" gradientUnits="userSpaceOnUse" id="gradient0" spreadMethod="pad" x1="-819.2" x2="819.2">
      <stop offset="0.0" stop-color="#ffffff" stop-opacity="0.0"/>
      <stop offset="1.0" stop-color="#ffffff" stop-opacity="0.49019608"/>
    </linearGradient>
  </defs>
</svg>
