<?xml version="1.0" encoding="UTF-8" standalone="no"?>
<svg xmlns:ffdec="https://www.free-decompiler.com/flash" xmlns:xlink="http://www.w3.org/1999/xlink" ffdec:objectType="frame" height="54.3px" width="44.8px" xmlns="http://www.w3.org/2000/svg">
  <g transform="matrix(2.0, 0.0, 0.0, 2.0, 21.3, 36.3)">
    <use ffdec:characterId="19" height="25.8" transform="matrix(1.0, 0.0, 0.0, 1.0, -9.45, -17.45)" width="20.2" xlink:href="#shape0"/>
    <use ffdec:characterId="18" height="22.8" id="KN" transform="matrix(1.0, 0.0, 0.0, 1.0, -8.45, -16.45)" width="16.7" xlink:href="#sprite0"/>
    <use ffdec:characterId="16" height="22.8" transform="matrix(1.0, 0.0, 0.0, 1.0, -8.45, -16.45)" width="16.7" xlink:href="#shape2"/>
  </g>
  <defs>
    <g id="shape0" transform="matrix(1.0, 0.0, 0.0, 1.0, 9.45, 17.45)">
      <path d="M6.5 -16.15 L6.8 -15.45 6.8 -4.7 8.25 -4.7 8.95 -4.4 9.25 -3.7 9.75 -3.7 10.45 -3.4 10.75 -2.7 10.75 0.8 10.45 1.5 9.75 1.8 6.8 1.8 6.8 7.35 6.5 8.05 5.8 8.35 2.15 8.35 1.45 8.05 Q1.15 7.75 1.15 7.35 L0.65 7.35 Q0.25 7.35 -0.05 7.05 L-0.35 6.35 -0.35 1.8 -6.95 1.8 -7.65 1.5 -7.95 0.8 -8.45 0.8 -9.15 0.5 -9.45 -0.2 -9.45 -3.45 -9.25 -4.0 0.05 -17.0 0.4 -17.35 0.85 -17.45 4.3 -17.45 5.0 -17.15 5.3 -16.45 5.8 -16.45 6.5 -16.15" fill="#000000" fill-rule="evenodd" stroke="none"/>
    </g>
    <g id="sprite0" transform="matrix(1.0, 0.0, 0.0, 1.0, 8.35, 11.4)">
      <use ffdec:characterId="17" height="22.8" transform="matrix(1.0, 0.0, 0.0, 1.0, -8.35, -11.4)" width="16.7" xlink:href="#shape1"/>
    </g>
    <g id="shape1" transform="matrix(1.0, 0.0, 0.0, 1.0, 8.35, 11.4)">
      <path d="M4.4 1.35 L8.35 1.35 8.35 4.85 4.4 4.85 4.4 11.4 0.75 11.4 0.75 4.85 -8.35 4.85 -8.35 1.6 0.95 -11.4 4.4 -11.4 4.4 1.35 M0.75 -6.05 L-4.25 1.35 0.75 1.35 0.75 -6.05" fill="#9966cc" fill-rule="evenodd" stroke="none"/>
    </g>
    <g id="shape2" transform="matrix(1.0, 0.0, 0.0, 1.0, 8.45, 16.45)">
      <path d="M4.3 -3.7 L8.25 -3.7 8.25 -0.2 4.3 -0.2 4.3 6.35 0.65 6.35 0.65 -0.2 -8.45 -0.2 -8.45 -3.45 0.85 -16.45 4.3 -16.45 4.3 -3.7 M0.65 -11.1 L-4.35 -3.7 0.65 -3.7 0.65 -11.1" fill="url(#gradient0)" fill-rule="evenodd" stroke="none"/>
    </g>
    <linearGradient gradientTransform="matrix(0.0, 0.0147, -0.134, 0.0, 38.45, -5.1)" gradientUnits="userSpaceOnUse" id="gradient0" spreadMethod="pad" x1="-819.2" x2="819.2">
      <stop offset="0.0" stop-color="#ffffff" stop-opacity="0.0"/>
      <stop offset="1.0" stop-color="#ffffff" stop-opacity="0.49019608"/>
    </linearGradient>
  </defs>
</svg>
