<?xml version="1.0" encoding="UTF-8" standalone="no"?>
<svg xmlns:ffdec="https://www.free-decompiler.com/flash" xmlns:xlink="http://www.w3.org/1999/xlink" ffdec:objectType="frame" height="54.3px" width="44.8px" xmlns="http://www.w3.org/2000/svg">
  <g transform="matrix(2.0, 0.0, 0.0, 2.0, 21.3, 36.3)">
    <use ffdec:characterId="23" height="26.45" transform="matrix(1.0, 0.0, 0.0, 1.0, -7.55, -17.45)" width="17.3" xlink:href="#shape0"/>
    <use ffdec:characterId="22" height="23.45" id="KN" transform="matrix(1.0, 0.0, 0.0, 1.0, -6.55, -16.45)" width="13.8" xlink:href="#sprite0"/>
    <use ffdec:characterId="20" height="23.45" transform="matrix(1.0, 0.0, 0.0, 1.0, -6.55, -16.45)" width="13.8" xlink:href="#shape2"/>
  </g>
  <defs>
    <g id="shape0" transform="matrix(1.0, 0.0, 0.0, 1.0, 7.55, 17.45)">
      <path d="M8.65 -15.45 L8.65 -12.1 8.35 -11.4 Q8.05 -11.1 7.65 -11.1 L0.2 -11.1 0.2 -9.1 Q3.15 -8.8 5.25 -7.05 L7.2 -5.65 Q9.75 -3.3 9.75 0.25 9.75 4.25 6.85 6.75 4.25 9.0 0.55 9.0 -2.6 9.0 -5.4 7.9 L-5.85 7.5 -6.0 7.2 -6.9 6.9 -7.35 6.5 -7.55 5.95 -7.55 2.35 -7.35 1.75 -6.8 1.4 -6.15 1.45 Q-3.55 2.45 -1.3 2.45 0.25 2.45 1.4 1.6 L1.45 1.55 Q2.6 0.7 2.6 -0.75 2.6 -1.6 2.1 -2.5 L0.35 -2.65 -4.45 -2.65 Q-4.85 -2.65 -5.15 -2.95 L-5.45 -3.65 -5.95 -3.65 Q-6.35 -3.65 -6.65 -3.95 L-6.95 -4.65 -6.95 -16.45 -6.65 -17.15 -5.95 -17.45 6.15 -17.45 6.85 -17.15 7.15 -16.45 7.65 -16.45 8.35 -16.15 8.65 -15.45" fill="#000000" fill-rule="evenodd" stroke="none"/>
    </g>
    <g id="sprite0" transform="matrix(1.0, 0.0, 0.0, 1.0, 6.9, 11.75)">
      <use ffdec:characterId="21" height="23.45" transform="matrix(1.0, 0.0, 0.0, 1.0, -6.9, -11.75)" width="13.8" xlink:href="#shape1"/>
    </g>
    <g id="shape1" transform="matrix(1.0, 0.0, 0.0, 1.0, 6.9, 11.75)">
      <path d="M6.9 3.95 Q6.9 7.5 4.35 9.7 2.0 11.7 -1.3 11.7 -4.25 11.7 -6.9 10.65 L-6.9 7.05 Q-4.1 8.15 -1.65 8.15 0.25 8.15 1.65 7.05 3.25 5.9 3.25 3.95 3.25 2.35 1.95 0.65 0.75 0.05 -1.5 0.05 L-6.3 0.05 -6.3 -11.75 5.8 -11.75 5.8 -8.4 -2.65 -8.4 -2.65 -3.45 -1.4 -3.45 Q2.3 -3.45 4.65 -1.25 6.9 0.85 6.9 3.95" fill="#9966cc" fill-rule="evenodd" stroke="none"/>
    </g>
    <g id="shape2" transform="matrix(1.0, 0.0, 0.0, 1.0, 6.55, 16.45)">
      <path d="M7.25 -0.75 Q7.25 2.8 4.7 5.0 2.35 7.0 -0.95 7.0 -3.9 7.0 -6.55 5.95 L-6.55 2.35 Q-3.75 3.45 -1.3 3.45 0.6 3.45 2.0 2.35 3.6 1.2 3.6 -0.75 3.6 -2.35 2.3 -4.05 1.1 -4.65 -1.15 -4.65 L-5.95 -4.65 -5.95 -16.45 6.15 -16.45 6.15 -13.1 -2.3 -13.1 -2.3 -8.15 -1.05 -8.15 Q2.65 -8.15 5.0 -5.95 7.25 -3.85 7.25 -0.75" fill="url(#gradient0)" fill-rule="evenodd" stroke="none"/>
    </g>
    <linearGradient gradientTransform="matrix(0.0, 0.0147, -0.134, 0.0, 15.95, -5.1)" gradientUnits="userSpaceOnUse" id="gradient0" spreadMethod="pad" x1="-819.2" x2="819.2">
      <stop offset="0.0" stop-color="#ffffff" stop-opacity="0.0"/>
      <stop offset="1.0" stop-color="#ffffff" stop-opacity="0.49019608"/>
    </linearGradient>
  </defs>
</svg>
