<?xml version="1.0" encoding="UTF-8" standalone="no"?>
<svg xmlns:ffdec="https://www.free-decompiler.com/flash" xmlns:xlink="http://www.w3.org/1999/xlink" ffdec:objectType="frame" height="54.3px" width="44.8px" xmlns="http://www.w3.org/2000/svg">
  <g transform="matrix(2.0, 0.0, 0.0, 2.0, 21.3, 36.3)">
    <use ffdec:characterId="27" height="27.1" transform="matrix(1.0, 0.0, 0.0, 1.0, -8.75, -18.1)" width="18.4" xlink:href="#shape0"/>
    <use ffdec:characterId="26" height="24.1" id="KN" transform="matrix(1.0, 0.0, 0.0, 1.0, -7.75, -17.1)" width="14.9" xlink:href="#sprite0"/>
    <use ffdec:characterId="24" height="24.1" transform="matrix(1.0, 0.0, 0.0, 1.0, -7.75, -17.1)" width="14.9" xlink:href="#shape2"/>
  </g>
  <defs>
    <g id="shape0" transform="matrix(1.0, 0.0, 0.0, 1.0, 8.75, 18.1)">
      <path d="M7.95 -15.4 L7.95 -12.0 7.75 -11.4 7.25 -11.05 6.65 -11.05 3.65 -11.65 Q1.25 -11.6 -0.2 -9.2 L-0.2 -9.15 -0.6 -8.4 0.45 -8.5 Q3.2 -8.5 4.75 -6.95 6.05 -6.4 6.9 -5.2 9.65 -2.7 9.65 0.75 9.65 4.15 7.35 6.6 L7.3 6.6 Q4.9 9.0 1.7 9.0 -1.35 9.0 -3.4 7.25 -5.7 6.1 -7.1 3.3 -8.75 -0.05 -8.75 -4.75 -8.75 -10.1 -6.2 -13.7 -3.25 -18.1 2.2 -18.1 3.6 -18.1 5.8 -17.35 L6.3 -16.95 6.45 -16.6 7.3 -16.35 7.8 -15.95 7.95 -15.4 M1.9 -2.0 Q0.85 -2.0 -0.2 -1.3 L-1.25 -0.25 Q-1.1 1.15 -0.3 2.45 L-0.25 2.5 0.25 2.55 Q1.15 2.55 1.85 1.8 2.6 0.95 2.6 -0.3 2.6 -1.3 2.25 -1.95 L1.9 -2.0" fill="#000000" fill-rule="evenodd" stroke="none"/>
    </g>
    <g id="sprite0" transform="matrix(1.0, 0.0, 0.0, 1.0, 7.45, 12.05)">
      <use ffdec:characterId="25" height="24.1" transform="matrix(1.0, 0.0, 0.0, 1.0, -7.45, -12.05)" width="14.9" xlink:href="#shape1"/>
    </g>
    <g id="shape1" transform="matrix(1.0, 0.0, 0.0, 1.0, 7.45, 12.05)">
      <path d="M7.45 4.8 Q7.45 7.8 5.4 9.95 3.3 12.05 0.5 12.05 -3.8 12.05 -5.9 7.9 -7.45 4.75 -7.45 0.3 -7.45 -4.7 -5.1 -8.1 -2.4 -12.05 2.5 -12.05 L5.75 -11.35 5.75 -7.95 2.45 -8.6 Q-0.5 -8.6 -2.25 -5.65 -3.75 -3.15 -3.75 -0.2 -2.15 -2.45 0.75 -2.45 3.55 -2.45 4.9 -0.55 7.45 1.7 7.45 4.8 M3.05 2.05 Q2.2 1.05 0.7 1.05 -0.65 1.05 -1.95 1.9 -2.95 2.55 -3.5 3.5 -3.4 5.4 -2.35 7.05 -1.25 8.6 0.55 8.6 1.9 8.6 2.9 7.5 3.9 6.4 3.9 4.75 3.9 3.05 3.05 2.05" fill="#9966cc" fill-rule="evenodd" stroke="none"/>
    </g>
    <g id="shape2" transform="matrix(1.0, 0.0, 0.0, 1.0, 7.75, 17.1)">
      <path d="M7.15 -0.25 Q7.15 2.75 5.1 4.9 3.0 7.0 0.2 7.0 -4.1 7.0 -6.2 2.85 -7.75 -0.3 -7.75 -4.75 -7.75 -9.75 -5.4 -13.15 -2.7 -17.1 2.2 -17.1 3.45 -17.1 5.45 -16.4 L5.45 -13.0 2.15 -13.65 Q-0.8 -13.65 -2.55 -10.7 -4.05 -8.2 -4.05 -5.25 -2.45 -7.5 0.45 -7.5 3.25 -7.5 4.6 -5.6 7.15 -3.35 7.15 -0.25 M2.75 -3.0 Q1.9 -4.0 0.4 -4.0 -0.95 -4.0 -2.25 -3.15 -3.25 -2.5 -3.8 -1.55 -3.7 0.35 -2.65 2.0 -1.55 3.55 0.25 3.55 1.6 3.55 2.6 2.45 3.6 1.35 3.6 -0.3 3.6 -2.0 2.75 -3.0" fill="url(#gradient0)" fill-rule="evenodd" stroke="none"/>
    </g>
    <linearGradient gradientTransform="matrix(0.0, 0.0147, -0.134, 0.0, -8.55, -5.1)" gradientUnits="userSpaceOnUse" id="gradient0" spreadMethod="pad" x1="-819.2" x2="819.2">
      <stop offset="0.0" stop-color="#ffffff" stop-opacity="0.0"/>
      <stop offset="1.0" stop-color="#ffffff" stop-opacity="0.49019608"/>
    </linearGradient>
  </defs>
</svg>
