<?xml version="1.0" encoding="UTF-8" standalone="no"?>
<svg xmlns:ffdec="https://www.free-decompiler.com/flash" xmlns:xlink="http://www.w3.org/1999/xlink" ffdec:objectType="frame" height="54.3px" width="44.8px" xmlns="http://www.w3.org/2000/svg">
  <g transform="matrix(2.0, 0.0, 0.0, 2.0, 21.3, 36.3)">
    <use ffdec:characterId="31" height="25.8" transform="matrix(1.0, 0.0, 0.0, 1.0, -6.95, -17.45)" width="17.85" xlink:href="#shape0"/>
    <use ffdec:characterId="30" height="22.8" id="KN" transform="matrix(1.0, 0.0, 0.0, 1.0, -5.95, -16.45)" width="14.35" xlink:href="#sprite0"/>
    <use ffdec:characterId="28" height="22.8" transform="matrix(1.0, 0.0, 0.0, 1.0, -5.95, -16.45)" width="14.35" xlink:href="#shape2"/>
  </g>
  <defs>
    <g id="shape0" transform="matrix(1.0, 0.0, 0.0, 1.0, 6.95, 17.45)">
      <path d="M10.9 -15.45 L10.9 -12.3 10.65 -11.65 6.2 -6.4 Q3.45 -3.15 2.1 -0.65 0.4 2.55 0.4 5.65 L0.5 7.25 0.4 7.8 0.05 8.2 -0.5 8.35 -4.15 8.35 -4.8 8.1 -5.15 7.5 -5.15 7.35 -5.65 7.35 -6.3 7.1 -6.65 6.5 -6.8 4.65 Q-6.8 0.8 -4.75 -3.2 L-4.75 -3.25 Q-3.6 -5.85 -0.85 -9.2 L-0.85 -9.25 0.75 -11.1 -4.45 -11.1 Q-4.85 -11.1 -5.15 -11.4 L-5.45 -12.1 -5.95 -12.1 Q-6.35 -12.1 -6.65 -12.4 L-6.95 -13.1 -6.95 -16.45 -6.65 -17.15 -5.95 -17.45 8.4 -17.45 9.1 -17.15 9.4 -16.45 9.9 -16.45 10.6 -16.15 10.9 -15.45" fill="#000000" fill-rule="evenodd" stroke="none"/>
    </g>
    <g id="sprite0" transform="matrix(1.0, 0.0, 0.0, 1.0, 7.15, 11.4)">
      <use ffdec:characterId="29" height="22.8" transform="matrix(1.0, 0.0, 0.0, 1.0, -7.15, -11.4)" width="14.35" xlink:href="#shape1"/>
    </g>
    <g id="shape1" transform="matrix(1.0, 0.0, 0.0, 1.0, 7.15, 11.4)">
      <path d="M2.7 -3.0 Q-0.1 0.35 -1.5 2.9 -3.3 6.35 -3.3 9.7 L-3.2 11.4 -6.85 11.4 -7.0 9.7 Q-7.0 6.05 -5.05 2.25 -3.95 -0.25 -1.3 -3.55 L2.8 -8.05 -7.15 -8.05 -7.15 -11.4 7.2 -11.4 7.2 -8.25 2.7 -3.0" fill="#9966cc" fill-rule="evenodd" stroke="none"/>
    </g>
    <g id="shape2" transform="matrix(1.0, 0.0, 0.0, 1.0, 5.95, 16.45)">
      <path d="M8.4 -13.3 L3.9 -8.05 Q1.1 -4.7 -0.3 -2.15 -2.1 1.3 -2.1 4.65 L-2.0 6.35 -5.65 6.35 -5.8 4.65 Q-5.8 1.0 -3.85 -2.8 -2.75 -5.3 -0.1 -8.6 L4.0 -13.1 -5.95 -13.1 -5.95 -16.45 8.4 -16.45 8.4 -13.3" fill="url(#gradient0)" fill-rule="evenodd" stroke="none"/>
    </g>
    <linearGradient gradientTransform="matrix(0.0, 0.0147, -0.134, 0.0, -30.05, -5.1)" gradientUnits="userSpaceOnUse" id="gradient0" spreadMethod="pad" x1="-819.2" x2="819.2">
      <stop offset="0.0" stop-color="#ffffff" stop-opacity="0.0"/>
      <stop offset="1.0" stop-color="#ffffff" stop-opacity="0.49019608"/>
    </linearGradient>
  </defs>
</svg>
