<?xml version="1.0" encoding="UTF-8" standalone="no"?>
<svg xmlns:ffdec="https://www.free-decompiler.com/flash" xmlns:xlink="http://www.w3.org/1999/xlink" ffdec:objectType="frame" height="54.3px" width="44.8px" xmlns="http://www.w3.org/2000/svg">
  <g transform="matrix(2.0, 0.0, 0.0, 2.0, 21.3, 36.3)">
    <use ffdec:characterId="35" height="27.1" transform="matrix(1.0, 0.0, 0.0, 1.0, -8.2, -18.1)" width="18.3" xlink:href="#shape0"/>
    <use ffdec:characterId="34" height="24.1" id="KN" transform="matrix(1.0, 0.0, 0.0, 1.0, -7.2, -17.1)" width="14.8" xlink:href="#sprite0"/>
    <use ffdec:characterId="32" height="24.1" transform="matrix(1.0, 0.0, 0.0, 1.0, -7.2, -17.1)" width="14.8" xlink:href="#shape2"/>
  </g>
  <defs>
    <g id="shape0" transform="matrix(1.0, 0.0, 0.0, 1.0, 8.2, 18.1)">
      <path d="M5.45 -16.55 L5.5 -16.5 5.75 -16.3 6.95 -15.55 7.0 -15.5 Q9.3 -13.7 9.3 -10.25 9.35 -7.3 6.55 -5.05 L8.45 -3.35 Q10.1 -1.3 10.1 1.4 10.1 4.35 8.05 6.55 5.65 9.0 1.7 9.0 -1.9 9.0 -4.1 7.1 L-6.1 5.6 Q-8.2 3.45 -8.2 0.4 -8.2 -2.3 -6.3 -4.45 L-6.25 -4.5 -6.25 -4.55 -4.6 -6.05 Q-7.45 -8.3 -7.4 -11.25 -7.4 -14.7 -5.05 -16.5 L-5.05 -16.55 Q-3.1 -18.1 0.2 -18.1 3.5 -18.1 5.45 -16.55 M2.2 -11.75 L1.7 -11.8 0.25 -11.55 0.2 -11.5 Q-0.35 -10.95 -0.35 -10.25 -0.25 -9.8 0.4 -9.1 L1.4 -10.0 1.45 -10.0 2.3 -11.25 2.2 -11.75 M2.4 1.95 L2.45 1.9 Q3.05 1.2 3.05 0.4 2.95 -0.8 1.65 -1.95 -1.05 -0.35 -1.15 1.4 L-0.7 2.65 0.2 2.75 Q1.55 2.75 2.4 1.95" fill="#000000" fill-rule="evenodd" stroke="none"/>
    </g>
    <g id="sprite0" transform="matrix(1.0, 0.0, 0.0, 1.0, 7.4, 12.05)">
      <use ffdec:characterId="33" height="24.1" transform="matrix(1.0, 0.0, 0.0, 1.0, -7.4, -12.05)" width="14.8" xlink:href="#shape1"/>
    </g>
    <g id="shape1" transform="matrix(1.0, 0.0, 0.0, 1.0, 7.4, 12.05)">
      <path d="M2.0 -8.35 L0.0 -8.75 -2.0 -8.35 Q-3.05 -7.45 -3.05 -6.2 -3.05 -5.35 -1.9 -4.25 L0.0 -2.8 1.9 -4.25 Q3.1 -5.35 3.1 -6.2 3.1 -7.45 2.0 -8.35 M6.6 -6.2 Q6.6 -3.15 3.0 -1.0 5.05 0.2 5.95 1.3 7.4 3.1 7.4 5.45 7.4 8.0 5.6 9.9 3.5 12.05 0.0 12.05 -3.55 12.05 -5.6 9.95 -7.4 8.1 -7.4 5.45 -7.4 3.05 -5.7 1.15 -5.05 0.2 -3.0 -1.0 -6.6 -3.15 -6.6 -6.2 -6.6 -9.15 -4.65 -10.7 -2.9 -12.05 0.0 -12.05 2.9 -12.05 4.65 -10.7 6.6 -9.15 6.6 -6.2 M3.85 5.45 Q3.85 3.05 0.0 0.85 -3.85 3.0 -3.85 5.45 -3.85 6.6 -2.95 7.6 -1.85 8.8 0.0 8.8 1.85 8.8 2.95 7.65 3.85 6.65 3.85 5.45" fill="#9966cc" fill-rule="evenodd" stroke="none"/>
    </g>
    <g id="shape2" transform="matrix(1.0, 0.0, 0.0, 1.0, 7.2, 17.1)">
      <path d="M0.2 -13.8 Q-1.1 -13.8 -1.8 -13.4 -2.85 -12.5 -2.85 -11.25 -2.85 -10.4 -1.7 -9.3 -0.75 -8.35 0.2 -7.85 L2.1 -9.3 Q3.3 -10.4 3.3 -11.25 3.3 -12.5 2.2 -13.4 L0.2 -13.8 M4.85 -15.75 Q6.8 -14.2 6.8 -11.25 6.8 -8.2 3.2 -6.05 5.25 -4.85 6.15 -3.75 7.6 -1.95 7.6 0.4 7.6 2.95 5.8 4.85 3.7 7.0 0.2 7.0 -3.35 7.0 -5.4 4.9 -7.2 3.05 -7.2 0.4 -7.2 -2.0 -5.5 -3.9 -4.85 -4.85 -2.8 -6.05 -6.4 -8.2 -6.4 -11.25 -6.4 -14.2 -4.45 -15.75 -2.7 -17.1 0.2 -17.1 3.1 -17.1 4.85 -15.75 M4.05 0.4 Q4.05 -2.0 0.2 -4.2 -3.65 -2.05 -3.65 0.4 -3.65 1.55 -2.75 2.55 -1.65 3.75 0.2 3.75 2.05 3.75 3.15 2.6 4.05 1.6 4.05 0.4" fill="url(#gradient0)" fill-rule="evenodd" stroke="none"/>
    </g>
    <linearGradient gradientTransform="matrix(0.0, 0.0147, -0.134, 0.0, -53.55, -5.1)" gradientUnits="userSpaceOnUse" id="gradient0" spreadMethod="pad" x1="-819.2" x2="819.2">
      <stop offset="0.0" stop-color="#ffffff" stop-opacity="0.0"/>
      <stop offset="1.0" stop-color="#ffffff" stop-opacity="0.49019608"/>
    </linearGradient>
  </defs>
</svg>
