<?xml version="1.0" encoding="UTF-8" standalone="no"?>
<svg xmlns:ffdec="https://www.free-decompiler.com/flash" xmlns:xlink="http://www.w3.org/1999/xlink" ffdec:objectType="frame" height="54.3px" width="44.8px" xmlns="http://www.w3.org/2000/svg">
  <g transform="matrix(2.0, 0.0, 0.0, 2.0, 21.3, 36.3)">
    <use ffdec:characterId="7" height="25.8" transform="matrix(1.0, 0.0, 0.0, 1.0, -6.35, -17.45)" width="10.9" xlink:href="#shape0"/>
    <use ffdec:characterId="6" height="22.8" id="KN" transform="matrix(1.0, 0.0, 0.0, 1.0, -5.35, -16.45)" width="7.4" xlink:href="#sprite0"/>
    <use ffdec:characterId="4" height="22.8" transform="matrix(1.0, 0.0, 0.0, 1.0, -5.35, -16.45)" width="7.4" xlink:href="#shape2"/>
  </g>
  <defs>
    <g id="shape0" transform="matrix(1.0, 0.0, 0.0, 1.0, 6.35, 17.45)">
      <path d="M4.25 -16.15 L4.55 -15.45 4.55 7.35 4.25 8.05 Q3.95 8.35 3.55 8.35 L-0.15 8.35 Q-0.55 8.35 -0.85 8.05 L-1.15 7.35 -1.65 7.35 Q-2.05 7.35 -2.35 7.05 L-2.65 6.35 -2.65 -8.3 -3.1 -8.8 -3.5 -8.8 -3.95 -9.1 -6.05 -11.35 -6.35 -12.05 -6.05 -12.75 -1.75 -17.15 -1.05 -17.45 2.05 -17.45 2.75 -17.15 3.05 -16.45 3.55 -16.45 Q3.95 -16.45 4.25 -16.15" fill="#000000" fill-rule="evenodd" stroke="none"/>
    </g>
    <g id="sprite0" transform="matrix(1.0, 0.0, 0.0, 1.0, 3.7, 11.4)">
      <use ffdec:characterId="5" height="22.8" transform="matrix(1.0, 0.0, 0.0, 1.0, -3.7, -11.4)" width="7.4" xlink:href="#shape1"/>
    </g>
    <g id="shape1" transform="matrix(1.0, 0.0, 0.0, 1.0, 3.7, 11.4)">
      <path d="M0.6 -11.4 L3.7 -11.4 3.7 11.4 0.0 11.4 0.0 -6.65 -1.6 -4.75 -3.7 -7.0 0.6 -11.4" fill="#9966cc" fill-rule="evenodd" stroke="none"/>
    </g>
    <g id="shape2" transform="matrix(1.0, 0.0, 0.0, 1.0, 5.35, 16.45)">
      <path d="M-1.05 -16.45 L2.05 -16.45 2.05 6.35 -1.65 6.35 -1.65 -11.7 -3.25 -9.8 -5.35 -12.05 -1.05 -16.45" fill="url(#gradient0)" fill-rule="evenodd" stroke="none"/>
    </g>
    <linearGradient gradientTransform="matrix(0.0, 0.0147, -0.134, 0.0, 104.45, -5.1)" gradientUnits="userSpaceOnUse" id="gradient0" spreadMethod="pad" x1="-819.2" x2="819.2">
      <stop offset="0.0" stop-color="#ffffff" stop-opacity="0.0"/>
      <stop offset="1.0" stop-color="#ffffff" stop-opacity="0.49019608"/>
    </linearGradient>
  </defs>
</svg>
