<?xml version="1.0" encoding="UTF-8" standalone="no"?>
<svg xmlns:ffdec="https://www.free-decompiler.com/flash" xmlns:xlink="http://www.w3.org/1999/xlink" ffdec:objectType="frame" height="54.3px" width="44.8px" xmlns="http://www.w3.org/2000/svg">
  <g transform="matrix(2.0, 0.0, 0.0, 2.0, 21.3, 36.3)">
    <use ffdec:characterId="39" height="27.15" transform="matrix(1.0, 0.0, 0.0, 1.0, -8.5, -18.15)" width="18.25" xlink:href="#shape0"/>
    <use ffdec:characterId="38" height="24.15" id="KN" transform="matrix(1.0, 0.0, 0.0, 1.0, -7.5, -17.15)" width="14.75" xlink:href="#sprite0"/>
    <use ffdec:characterId="36" height="24.15" transform="matrix(1.0, 0.0, 0.0, 1.0, -7.5, -17.15)" width="14.75" xlink:href="#shape2"/>
  </g>
  <defs>
    <g id="shape0" transform="matrix(1.0, 0.0, 0.0, 1.0, 8.5, 18.15)">
      <path d="M1.4 -11.35 L1.2 -11.65 0.75 -11.7 Q-0.15 -11.7 -0.8 -10.95 -1.55 -10.15 -1.55 -8.85 -1.55 -7.7 -1.05 -6.95 L-0.9 -6.95 Q0.25 -6.95 1.3 -7.6 L1.25 -7.55 Q1.95 -8.05 2.3 -8.65 2.2 -10.15 1.4 -11.35 M9.75 -4.25 Q9.75 1.7 7.45 5.1 4.65 9.0 -0.85 9.0 -3.3 9.0 -5.5 7.85 L-5.9 7.5 -5.95 7.3 -7.0 6.85 -7.4 6.5 -7.55 5.95 -7.55 2.55 -7.35 1.95 -6.8 1.6 -6.15 1.65 -2.35 2.5 Q0.85 2.4 2.0 -0.6 L0.6 -0.5 Q-2.15 -0.5 -4.1 -2.2 -5.35 -2.8 -6.35 -3.9 -8.5 -6.3 -8.5 -9.9 -8.5 -13.3 -6.2 -15.7 L-6.2 -15.75 Q-3.85 -18.15 -0.7 -18.15 2.35 -18.15 4.4 -16.35 6.75 -15.2 8.15 -12.3 9.75 -9.0 9.75 -4.25" fill="#000000" fill-rule="evenodd" stroke="none"/>
    </g>
    <g id="sprite0" transform="matrix(1.0, 0.0, 0.0, 1.0, 7.4, 12.1)">
      <use ffdec:characterId="37" height="24.15" transform="matrix(1.0, 0.0, 0.0, 1.0, -7.4, -12.1)" width="14.75" xlink:href="#shape1"/>
    </g>
    <g id="shape1" transform="matrix(1.0, 0.0, 0.0, 1.0, 7.4, 12.1)">
      <path d="M3.4 -3.4 Q3.35 -5.3 2.35 -6.85 1.2 -8.65 -0.65 -8.65 -2.0 -8.65 -2.95 -7.6 -3.95 -6.5 -3.95 -4.8 -3.95 -3.05 -3.05 -2.0 -2.15 -0.9 -0.8 -0.9 0.6 -0.9 1.9 -1.7 2.95 -2.4 3.4 -3.4 M7.35 -0.2 Q7.35 5.4 5.2 8.55 2.7 12.05 -2.25 12.05 -4.45 12.05 -6.45 11.0 L-6.45 7.6 Q-4.05 8.55 -2.25 8.55 3.7 8.55 3.7 0.3 2.1 2.55 -0.8 2.55 -3.6 2.55 -5.5 0.45 -7.4 -1.65 -7.4 -4.85 -7.4 -7.85 -5.4 -10.0 -3.35 -12.1 -0.6 -12.1 3.8 -12.1 5.85 -7.85 7.35 -4.7 7.35 -0.2" fill="#9966cc" fill-rule="evenodd" stroke="none"/>
    </g>
    <g id="shape2" transform="matrix(1.0, 0.0, 0.0, 1.0, 7.5, 17.15)">
      <path d="M7.25 -5.25 Q7.25 0.35 5.1 3.5 2.6 7.0 -2.35 7.0 -4.55 7.0 -6.55 5.95 L-6.55 2.55 Q-4.15 3.5 -2.35 3.5 3.6 3.5 3.6 -4.75 2.0 -2.5 -0.9 -2.5 -3.7 -2.5 -5.6 -4.6 -7.5 -6.7 -7.5 -9.9 -7.5 -12.9 -5.5 -15.05 -3.45 -17.15 -0.7 -17.15 3.7 -17.15 5.75 -12.9 7.25 -9.75 7.25 -5.25 M2.25 -11.9 Q1.1 -13.7 -0.75 -13.7 -2.1 -13.7 -3.05 -12.65 -4.05 -11.55 -4.05 -9.85 -4.05 -8.1 -3.15 -7.05 -2.25 -5.95 -0.9 -5.95 0.5 -5.95 1.8 -6.75 2.85 -7.45 3.3 -8.45 3.25 -10.35 2.25 -11.9" fill="url(#gradient0)" fill-rule="evenodd" stroke="none"/>
    </g>
    <linearGradient gradientTransform="matrix(0.0, 0.0147, -0.134, 0.0, -77.05, -5.1)" gradientUnits="userSpaceOnUse" id="gradient0" spreadMethod="pad" x1="-819.2" x2="819.2">
      <stop offset="0.0" stop-color="#ffffff" stop-opacity="0.0"/>
      <stop offset="1.0" stop-color="#ffffff" stop-opacity="0.49019608"/>
    </linearGradient>
  </defs>
</svg>
