<?xml version="1.0" encoding="UTF-8" standalone="no"?>
<svg xmlns:ffdec="https://www.free-decompiler.com/flash" xmlns:xlink="http://www.w3.org/1999/xlink" ffdec:objectType="frame" height="54.3px" width="44.8px" xmlns="http://www.w3.org/2000/svg">
  <g transform="matrix(2.0, 0.0, 0.0, 2.0, 21.3, 36.3)">
    <use ffdec:characterId="43" height="27.1" transform="matrix(1.0, 0.0, 0.0, 1.0, -10.65, -18.1)" width="22.4" xlink:href="#shape0"/>
    <use ffdec:characterId="42" height="24.1" id="KN" transform="matrix(1.0, 0.0, 0.0, 1.0, -9.65, -17.1)" width="18.9" xlink:href="#sprite0"/>
    <use ffdec:characterId="40" height="24.1" transform="matrix(1.0, 0.0, 0.0, 1.0, -9.65, -17.1)" width="18.9" xlink:href="#shape2"/>
  </g>
  <defs>
    <g id="shape0" transform="matrix(1.0, 0.0, 0.0, 1.0, 10.65, 18.1)">
      <path d="M2.5 -11.45 L1.3 -11.65 Q-0.85 -11.6 -2.2 -9.4 L-2.2 -9.45 Q-3.5 -7.2 -3.5 -4.05 -3.5 -0.9 -2.2 1.35 L-1.45 2.35 -0.2 2.55 Q1.95 2.5 3.25 0.35 4.6 -1.9 4.6 -5.05 4.6 -8.2 3.25 -10.4 L3.25 -10.45 2.5 -11.45 M11.75 -4.05 Q11.75 1.35 9.4 4.8 L9.4 4.75 Q6.6 9.0 1.3 9.0 -2.4 9.0 -4.85 6.95 -6.9 5.85 -8.3 3.75 -10.65 0.35 -10.65 -5.05 -10.65 -10.45 -8.3 -13.85 -5.5 -18.1 -0.2 -18.1 3.5 -18.1 5.95 -16.05 7.95 -15.0 9.4 -12.85 11.75 -9.4 11.75 -4.05" fill="#000000" fill-rule="evenodd" stroke="none"/>
    </g>
    <g id="sprite0" transform="matrix(1.0, 0.0, 0.0, 1.0, 9.45, 12.05)">
      <use ffdec:characterId="41" height="24.1" transform="matrix(1.0, 0.0, 0.0, 1.0, -9.45, -12.05)" width="18.9" xlink:href="#shape1"/>
    </g>
    <g id="shape1" transform="matrix(1.0, 0.0, 0.0, 1.0, 9.45, 12.05)">
      <path d="M4.3 -5.9 Q2.7 -8.6 0.0 -8.6 -2.7 -8.6 -4.35 -5.9 -5.8 -3.45 -5.8 0.0 -5.8 3.45 -4.35 5.9 -2.7 8.6 0.0 8.6 2.7 8.6 4.3 5.9 5.8 3.45 5.8 0.0 5.8 -3.45 4.3 -5.9 M9.45 0.0 Q9.45 5.05 7.25 8.25 4.75 12.05 0.0 12.05 -4.75 12.05 -7.3 8.25 -9.45 5.05 -9.45 0.0 -9.45 -5.05 -7.3 -8.25 -4.75 -12.05 0.0 -12.05 4.75 -12.05 7.25 -8.25 9.45 -5.0 9.45 0.0" fill="#9966cc" fill-rule="evenodd" stroke="none"/>
    </g>
    <g id="shape2" transform="matrix(1.0, 0.0, 0.0, 1.0, 9.65, 17.1)">
      <path d="M9.25 -5.05 Q9.25 0.0 7.05 3.2 4.55 7.0 -0.2 7.0 -4.95 7.0 -7.5 3.2 -9.65 0.0 -9.65 -5.05 -9.65 -10.1 -7.5 -13.3 -4.95 -17.1 -0.2 -17.1 4.55 -17.1 7.05 -13.3 9.25 -10.05 9.25 -5.05 M4.1 -10.95 Q2.5 -13.65 -0.2 -13.65 -2.9 -13.65 -4.55 -10.95 -6.0 -8.5 -6.0 -5.05 -6.0 -1.6 -4.55 0.85 -2.9 3.55 -0.2 3.55 2.5 3.55 4.1 0.85 5.6 -1.6 5.6 -5.05 5.6 -8.5 4.1 -10.95" fill="url(#gradient0)" fill-rule="evenodd" stroke="none"/>
    </g>
    <linearGradient gradientTransform="matrix(0.0, 0.0147, -0.134, 0.0, -100.55, -5.1)" gradientUnits="userSpaceOnUse" id="gradient0" spreadMethod="pad" x1="-819.2" x2="819.2">
      <stop offset="0.0" stop-color="#ffffff" stop-opacity="0.0"/>
      <stop offset="1.0" stop-color="#ffffff" stop-opacity="0.49019608"/>
    </linearGradient>
  </defs>
</svg>
