<?xml version="1.0" encoding="UTF-8" standalone="no"?>
<svg xmlns:ffdec="https://www.free-decompiler.com/flash" xmlns:xlink="http://www.w3.org/1999/xlink" ffdec:objectType="frame" height="54.3px" width="44.8px" xmlns="http://www.w3.org/2000/svg">
  <g transform="matrix(2.0, 0.0, 0.0, 2.0, 21.3, 36.3)">
    <use ffdec:characterId="11" height="26.45" transform="matrix(1.0, 0.0, 0.0, 1.0, -8.05, -18.1)" width="17.5" xlink:href="#shape0"/>
    <use ffdec:characterId="10" height="23.45" id="KN" transform="matrix(1.0, 0.0, 0.0, 1.0, -7.05, -17.1)" width="14.0" xlink:href="#sprite0"/>
    <use ffdec:characterId="8" height="23.45" transform="matrix(1.0, 0.0, 0.0, 1.0, -7.05, -17.1)" width="14.0" xlink:href="#shape2"/>
  </g>
  <defs>
    <g id="shape0" transform="matrix(1.0, 0.0, 0.0, 1.0, 8.05, 18.1)">
      <path d="M5.45 -16.25 L7.1 -15.15 7.05 -15.15 Q9.45 -13.15 9.45 -9.65 9.5 -6.2 6.4 -3.6 L6.35 -3.55 1.6 -0.1 1.7 -0.15 Q0.6 0.8 0.05 1.85 L6.75 1.85 Q7.15 1.85 7.45 2.15 L7.75 2.85 8.25 2.85 Q8.65 2.85 8.95 3.15 L9.25 3.85 9.25 7.35 8.95 8.05 8.25 8.35 -5.15 8.35 -5.8 8.1 -6.15 7.45 -6.15 7.35 -6.65 7.35 -7.3 7.1 -7.65 6.45 -7.75 4.5 Q-7.75 -0.65 -4.8 -3.95 L-4.8 -4.0 0.25 -8.05 Q2.15 -9.45 2.25 -10.65 L2.1 -11.55 1.6 -11.6 Q-0.9 -11.6 -2.4 -9.3 L-2.85 -8.95 -3.4 -8.9 -3.9 -9.15 -4.7 -9.9 -4.9 -9.9 -5.4 -10.15 -7.7 -12.3 -8.05 -12.9 -7.9 -13.55 Q-6.4 -16.2 -3.2 -17.4 L-3.3 -17.3 Q-1.85 -18.1 0.1 -18.1 3.3 -18.1 5.45 -16.25" fill="#000000" fill-rule="evenodd" stroke="none"/>
    </g>
    <g id="sprite0" transform="matrix(1.0, 0.0, 0.0, 1.0, 7.0, 11.75)">
      <use ffdec:characterId="9" height="23.45" transform="matrix(1.0, 0.0, 0.0, 1.0, -7.0, -11.75)" width="14.0" xlink:href="#shape1"/>
    </g>
    <g id="shape1" transform="matrix(1.0, 0.0, 0.0, 1.0, 7.0, 11.75)">
      <path d="M4.95 -10.05 Q7.0 -8.3 7.0 -5.3 7.0 -2.3 4.3 0.0 L-0.45 3.45 Q-2.9 5.65 -2.9 8.2 L6.8 8.2 6.8 11.7 -6.6 11.7 -6.7 9.85 Q-6.7 5.1 -4.0 2.0 -3.05 0.85 0.85 -1.9 3.3 -3.65 3.3 -5.3 3.3 -8.25 0.15 -8.25 -2.85 -8.25 -4.7 -5.55 L-7.0 -7.7 Q-5.65 -10.05 -2.8 -11.1 -1.55 -11.75 0.15 -11.75 3.05 -11.75 4.95 -10.05" fill="#9966cc" fill-rule="evenodd" stroke="none"/>
    </g>
    <g id="shape2" transform="matrix(1.0, 0.0, 0.0, 1.0, 7.05, 17.1)">
      <path d="M6.95 -10.65 Q6.95 -7.65 4.25 -5.35 L-0.5 -1.9 Q-2.95 0.3 -2.95 2.85 L6.75 2.85 6.75 6.35 -6.65 6.35 -6.75 4.5 Q-6.75 -0.25 -4.05 -3.35 -3.1 -4.5 0.8 -7.25 3.25 -9.0 3.25 -10.65 3.25 -13.6 0.1 -13.6 -2.9 -13.6 -4.75 -10.9 L-7.05 -13.05 Q-5.7 -15.4 -2.85 -16.45 L0.1 -17.1 Q3.0 -17.1 4.9 -15.4 6.95 -13.65 6.95 -10.65" fill="url(#gradient0)" fill-rule="evenodd" stroke="none"/>
    </g>
    <linearGradient gradientTransform="matrix(0.0, 0.0147, -0.134, 0.0, 84.95, -5.1)" gradientUnits="userSpaceOnUse" id="gradient0" spreadMethod="pad" x1="-819.2" x2="819.2">
      <stop offset="0.0" stop-color="#ffffff" stop-opacity="0.0"/>
      <stop offset="1.0" stop-color="#ffffff" stop-opacity="0.49019608"/>
    </linearGradient>
  </defs>
</svg>
