<?xml version="1.0" encoding="UTF-8" standalone="no"?>
<svg xmlns:ffdec="https://www.free-decompiler.com/flash" xmlns:xlink="http://www.w3.org/1999/xlink" ffdec:objectType="frame" height="140.9px" width="88.2px" xmlns="http://www.w3.org/2000/svg">
  <g transform="matrix(2.0, 0.0, 0.0, 2.0, 44.1, 70.4)">
    <use ffdec:characterId="3074" height="70.45" transform="matrix(1.0, 0.0, 0.0, 1.0, -22.05, -35.2)" width="44.1" xlink:href="#shape0"/>
  </g>
  <defs>
    <g id="shape0" transform="matrix(1.0, 0.0, 0.0, 1.0, 22.05, 35.2)">
      <path d="M21.55 -19.25 L-21.55 -19.25 -21.55 -34.7 21.55 -34.7 21.55 -19.25 M21.55 -1.25 L-21.55 -1.25 -21.55 -16.7 21.55 -16.7 21.55 -1.25 M-21.55 19.3 L21.55 19.3 21.55 34.75 -21.55 34.75 -21.55 19.3 M-21.55 1.75 L21.55 1.75 21.55 17.2 -21.55 17.2 -21.55 1.75" fill="#666666" fill-rule="evenodd" stroke="none"/>
      <path d="M21.55 -19.25 L-21.55 -19.25 -21.55 -34.7 21.55 -34.7 21.55 -19.25 M21.55 -1.25 L-21.55 -1.25 -21.55 -16.7 21.55 -16.7 21.55 -1.25 M-21.55 19.3 L21.55 19.3 21.55 34.75 -21.55 34.75 -21.55 19.3 M-21.55 1.75 L21.55 1.75 21.55 17.2 -21.55 17.2 -21.55 1.75 Z" fill="none" stroke="#000000" stroke-linecap="round" stroke-linejoin="round" stroke-width="1.0"/>
    </g>
  </defs>
</svg>
