<?xml version="1.0" encoding="UTF-8" standalone="no"?>
<svg xmlns:ffdec="https://www.free-decompiler.com/flash" xmlns:xlink="http://www.w3.org/1999/xlink" ffdec:objectType="frame" height="41.8px" width="17.1px" xmlns="http://www.w3.org/2000/svg">
  <g transform="matrix(2.0, 0.0, 0.0, 2.0, 8.6, 20.9)">
    <filter id="filter0">
      <feColorMatrix in="SourceGraphic" result="filterResult0" type="matrix" values="0 0 0 0 1.0,0 0 0 0 0.8,0 0 0 0 0.0,0 0 0 1 0"/>
      <feConvolveMatrix divisor="100.0" in="filterResult0" kernelMatrix="1 1 1 1 1 1 1 1 1 1 1 1 1 1 1 1 1 1 1 1 1 1 1 1 1 1 1 1 1 1 1 1 1 1 1 1 1 1 1 1 1 1 1 1 1 1 1 1 1 1 1 1 1 1 1 1 1 1 1 1 1 1 1 1 1 1 1 1 1 1 1 1 1 1 1 1 1 1 1 1 1 1 1 1 1 1 1 1 1 1 1 1 1 1 1 1 1 1 1 1" order="10 10" result="filterResult1"/>
      <feComposite in="SourceGraphic" in2="filterResult1" operator="over" result="filterResult2"/>
    </filter>
    <use ffdec:characterId="2672" filter="url(#filter0)" height="42.95" transform="matrix(0.4882, 0.0, 0.0, 0.4872, -4.2959, -10.4744)" width="17.55" xlink:href="#sprite0"/>
  </g>
  <defs>
    <g id="sprite0" transform="matrix(1.0, 0.0, 0.0, 1.0, 8.8, 21.5)">
      <use ffdec:characterId="2671" height="42.95" transform="matrix(1.0, 0.0, 0.0, 1.0, -8.8, -21.5)" width="17.55" xlink:href="#shape0"/>
    </g>
    <g id="shape0" transform="matrix(1.0, 0.0, 0.0, 1.0, 8.8, 21.5)">
      <path d="M-8.4 -21.45 L-8.4 -21.5 6.2 -19.75 7.85 5.55 -2.95 7.0 -7.9 -17.05 -8.4 -21.45 -8.4 -18.2 -8.8 -21.5 -8.4 -21.45 M-0.55 12.9 L7.4 12.4 8.75 19.75 -0.05 21.45 -0.55 12.9" fill="#ffffff" fill-rule="evenodd" stroke="none"/>
    </g>
  </defs>
</svg>
