<?xml version="1.0" encoding="UTF-8" standalone="no"?>
<svg xmlns:ffdec="https://www.free-decompiler.com/flash" xmlns:xlink="http://www.w3.org/1999/xlink" ffdec:objectType="frame" height="44.2px" width="26.5px" xmlns="http://www.w3.org/2000/svg">
  <g transform="matrix(2.0, 0.0, 0.0, 2.0, 14.0, 27.1)">
    <use ffdec:characterId="743" height="16.6" transform="matrix(1.0, 0.0, 0.0, 1.0, -6.65, -8.05)" width="11.9" xlink:href="#shape0"/>
    <filter id="filter0">
      <feColorMatrix in="SourceGraphic" result="filterResult0" type="matrix" values="0 0 0 0 0.0,0 0 0 0 1.0,0 0 0 0 1.0,0 0 0 1 0"/>
      <feConvolveMatrix divisor="25.0" in="filterResult0" kernelMatrix="1 1 1 1 1 1 1 1 1 1 1 1 1 1 1 1 1 1 1 1 1 1 1 1 1" order="5 5" result="filterResult1"/>
      <feComposite in="SourceGraphic" in2="filterResult1" operator="over" result="filterResult2"/>
    </filter>
    <use ffdec:characterId="494" filter="url(#filter0)" height="6.0" transform="matrix(1.0, 0.0, 0.0, 1.0, 1.2, -2.95)" width="3.4" xlink:href="#sprite0"/>
    <use ffdec:characterId="757" height="14.0" transform="matrix(1.0, 0.0, 0.0, 1.0, -7.0, -13.55)" width="13.25" xlink:href="#shape2"/>
  </g>
  <defs>
    <g id="shape0" transform="matrix(1.0, 0.0, 0.0, 1.0, 6.65, 8.05)">
      <path d="M3.6 4.85 L3.55 4.95 5.15 6.6 3.6 8.55 Q1.6 5.65 -4.25 2.45 L-4.95 -1.25 -6.65 -4.25 -0.55 -8.05 1.5 -7.15 -2.75 -3.15 -1.3 -1.3 -0.7 1.1 3.6 4.85" fill="url(#gradient0)" fill-rule="evenodd" stroke="none"/>
      <path d="M1.5 -7.15 Q3.35 -6.15 4.65 -4.85 5.05 -2.45 4.75 -0.6 L5.25 2.25 4.25 2.65 3.6 4.85 -0.7 1.1 -1.3 -1.3 -2.75 -3.15 1.5 -7.15" fill="url(#gradient1)" fill-rule="evenodd" stroke="none"/>
      <path d="M1.5 -7.15 Q3.35 -6.15 4.65 -4.85 5.05 -2.45 4.75 -0.6 L5.25 2.25 4.25 2.65 3.6 4.85 3.55 4.95 5.15 6.6 3.6 8.55 Q1.6 5.65 -4.25 2.45 L-4.95 -1.25 -6.65 -4.25 -0.55 -8.05 1.5 -7.15 Z" fill="none" stroke="#000000" stroke-linecap="round" stroke-linejoin="round" stroke-width="0.05"/>
    </g>
    <radialGradient cx="0" cy="0" gradientTransform="matrix(0.0139, 0.0, 0.0, 0.0139, 0.15, 3.35)" gradientUnits="userSpaceOnUse" id="gradient0" r="819.2" spreadMethod="pad">
      <stop offset="0.0" stop-color="#423835"/>
      <stop offset="1.0" stop-color="#17151e"/>
    </radialGradient>
    <radialGradient cx="0" cy="0" gradientTransform="matrix(0.0104, 0.0, 0.0, 0.0104, 4.15, 1.0)" gradientUnits="userSpaceOnUse" id="gradient1" r="819.2" spreadMethod="pad">
      <stop offset="0.0" stop-color="#252f38"/>
      <stop offset="1.0" stop-color="#0f0e14"/>
    </radialGradient>
    <g id="sprite0" transform="matrix(1.0, 0.0, 0.0, 1.0, 1.7, 3.0)">
      <use ffdec:characterId="493" height="6.0" transform="matrix(1.0, 0.0, 0.0, 1.0, -1.7, -3.0)" width="3.4" xlink:href="#shape1"/>
    </g>
    <g id="shape1" transform="matrix(1.0, 0.0, 0.0, 1.0, 1.7, 3.0)">
      <path d="M1.1 2.35 L0.4 3.0 -1.7 -0.05 1.1 2.35 M1.7 -0.7 L0.9 -0.2 -1.6 -3.0 1.7 -0.7" fill="#ffffff" fill-rule="evenodd" stroke="none"/>
    </g>
    <g id="shape2" transform="matrix(1.0, 0.0, 0.0, 1.0, 7.0, 13.55)">
      <path d="M6.1 -3.3 L6.25 0.45 -7.0 -4.25 Q0.35 -13.25 6.1 -3.3" fill="url(#gradient2)" fill-rule="evenodd" stroke="none"/>
      <path d="M6.1 -3.3 Q0.35 -13.25 -7.0 -4.25 L6.25 0.45 6.1 -3.3 Z" fill="none" stroke="#000000" stroke-linecap="round" stroke-linejoin="round" stroke-width="0.05"/>
      <path d="M-2.5 -5.4 L-1.75 -4.85 Q-0.85 -3.95 -0.85 -2.75 -0.85 -1.55 -1.75 -0.7 -2.6 0.2 -3.8 0.2 -5.0 0.2 -5.9 -0.7 -6.75 -1.55 -6.75 -2.75 -6.75 -3.95 -5.9 -4.85 -5.25 -5.45 -4.45 -5.6 L-3.8 -5.7 -2.5 -5.4" fill="url(#gradient3)" fill-rule="evenodd" stroke="none"/>
      <path d="M-4.45 -5.6 L-2.9 -13.55 -1.9 -13.2 -2.5 -5.4 -3.8 -5.7 -4.45 -5.6" fill="url(#gradient4)" fill-rule="evenodd" stroke="none"/>
      <path d="M-4.45 -5.6 L-2.9 -13.55 -1.9 -13.2 -2.5 -5.4 -1.75 -4.85 Q-0.85 -3.95 -0.85 -2.75 -0.85 -1.55 -1.75 -0.7 -2.6 0.2 -3.8 0.2 -5.0 0.2 -5.9 -0.7 -6.75 -1.55 -6.75 -2.75 -6.75 -3.95 -5.9 -4.85 -5.25 -5.45 -4.45 -5.6 L-3.8 -5.7 -2.5 -5.4" fill="none" stroke="#000000" stroke-linecap="round" stroke-linejoin="round" stroke-width="0.05"/>
    </g>
    <radialGradient cx="0" cy="0" gradientTransform="matrix(0.0114, 0.0, 0.0, 0.0114, -0.75, -5.65)" gradientUnits="userSpaceOnUse" id="gradient2" r="819.2" spreadMethod="pad">
      <stop offset="0.0" stop-color="#7da7ce"/>
      <stop offset="0.396078431372549" stop-color="#2c466d"/>
      <stop offset="1.0" stop-color="#362b3c"/>
    </radialGradient>
    <radialGradient cx="0" cy="0" gradientTransform="matrix(0.0056, 0.0, 0.0, 0.0056, -2.6, -3.9)" gradientUnits="userSpaceOnUse" id="gradient3" r="819.2" spreadMethod="pad">
      <stop offset="0.0" stop-color="#9c8d6b"/>
      <stop offset="1.0" stop-color="#362d39"/>
    </radialGradient>
    <radialGradient cx="0" cy="0" gradientTransform="matrix(0.0078, 0.0, 0.0, 0.0078, -2.6, -11.75)" gradientUnits="userSpaceOnUse" id="gradient4" r="819.2" spreadMethod="pad">
      <stop offset="0.0" stop-color="#9c8d6b"/>
      <stop offset="1.0" stop-color="#362d39"/>
    </radialGradient>
  </defs>
</svg>
