<?xml version="1.0" encoding="UTF-8" standalone="no"?>
<svg xmlns:ffdec="https://www.free-decompiler.com/flash" xmlns:xlink="http://www.w3.org/1999/xlink" ffdec:objectType="frame" height="251.4px" width="251.4px" xmlns="http://www.w3.org/2000/svg">
  <g transform="matrix(2.0, 0.0, 0.0, 2.0, 125.7, 125.7)">
    <use ffdec:characterId="3371" height="125.7" transform="matrix(0.5718, 0.0, 0.0, 0.5717, -35.9352, -36.2324)" width="125.7" xlink:href="#shape0"/>
    <use ffdec:characterId="3370" height="9.0" transform="matrix(2.1625, 0.0, 0.0, 2.1625, -9.7313, -9.7313)" width="9.0" xlink:href="#sprite0"/>
  </g>
  <defs>
    <g id="shape0" transform="matrix(1.0, 0.0, 0.0, 1.0, 62.85, 62.85)">
      <path d="M44.45 -44.45 Q62.85 -26.05 62.85 0.0 62.85 26.05 44.45 44.45 26.05 62.85 0.0 62.85 -26.05 62.85 -44.45 44.45 -62.85 26.05 -62.85 0.0 -62.85 -26.05 -44.45 -44.45 L-43.85 -45.0 Q-25.65 -62.85 0.0 -62.85 25.65 -62.85 43.9 -45.0 L44.45 -44.45 M36.9 -38.65 Q21.6 -54.65 0.0 -54.65 -21.6 -54.65 -36.9 -38.65 -52.2 -22.65 -52.2 0.0 -52.2 22.65 -36.9 38.65 -21.6 54.65 0.0 54.65 21.6 54.65 36.9 38.65 52.2 22.65 52.2 0.0 52.2 -22.65 36.9 -38.65" fill="#ffffff" fill-rule="evenodd" stroke="none"/>
    </g>
    <g id="sprite0" transform="matrix(1.0, 0.0, 0.0, 1.0, 4.5, 4.5)">
      <use ffdec:characterId="1129" height="18.0" transform="matrix(0.0296, 0.0, 0.0, 0.5, -4.5146, -4.525)" width="304.05" xlink:href="#shape1"/>
    </g>
    <g id="shape1" transform="matrix(1.0, 0.0, 0.0, 1.0, 115.35, 20.95)">
      <path d="M188.7 -11.95 Q188.7 -8.2 144.1 -5.55 99.65 -2.95 36.7 -2.95 -26.3 -2.95 -70.8 -5.55 -115.35 -8.2 -115.35 -11.95 -115.35 -15.65 -70.8 -18.3 -26.3 -20.95 36.7 -20.95 99.65 -20.95 144.1 -18.3 188.7 -15.65 188.7 -11.95" fill="#ffffff" fill-rule="evenodd" stroke="none"/>
    </g>
  </defs>
</svg>
