<?xml version="1.0" encoding="UTF-8" standalone="no"?>
<svg xmlns:ffdec="https://www.free-decompiler.com/flash" xmlns:xlink="http://www.w3.org/1999/xlink" ffdec:objectType="frame" height="39.2px" width="56.6px" xmlns="http://www.w3.org/2000/svg">
  <g transform="matrix(2.0, 0.0, 0.0, 2.0, 39.1, 18.4)">
    <use ffdec:characterId="1631" height="13.25" transform="matrix(1.0, 0.0, 0.0, 1.0, -12.5, -6.95)" width="17.85" xlink:href="#shape0"/>
    <use ffdec:characterId="105" height="45.1" transform="matrix(0.071, 0.0155, -0.0682, 0.3126, -16.4729, -9.2022)" width="355.1" xlink:href="#shape1"/>
  </g>
  <defs>
    <g id="shape0" transform="matrix(1.0, 0.0, 0.0, 1.0, 12.5, 6.95)">
      <path d="M-9.95 -1.75 Q-7.45 -4.9 -3.2 -6.95 L-2.4 -6.4 Q-0.6 -5.55 2.65 -6.3 5.15 -2.45 5.35 0.0 1.0 2.85 0.85 6.3 -7.25 5.6 -12.5 2.7 L-11.7 0.9 -11.05 -0.2 -9.25 0.9 Q-5.9 2.5 0.1 3.0 L0.85 1.55 -3.75 0.9 Q-7.7 0.05 -9.95 -1.75" fill="url(#gradient0)" fill-rule="evenodd" stroke="none"/>
      <path d="M-11.05 -0.2 L-9.95 -1.75 Q-7.7 0.05 -3.75 0.9 L0.85 1.55 0.1 3.0 Q-5.9 2.5 -9.25 0.9 L-11.05 -0.2" fill="#99ff00" fill-rule="evenodd" stroke="none"/>
      <path d="M-9.95 -1.75 Q-7.45 -4.9 -3.2 -6.95 L-2.4 -6.4 Q-0.6 -5.55 2.65 -6.3 5.15 -2.45 5.35 0.0 1.0 2.85 0.85 6.3 -7.25 5.6 -12.5 2.7 L-11.7 0.9 -11.05 -0.2 -9.95 -1.75 Z" fill="none" stroke="#000000" stroke-linecap="round" stroke-linejoin="round" stroke-width="0.05"/>
    </g>
    <radialGradient cx="0" cy="0" gradientTransform="matrix(0.0043, 0.0108, -0.0151, 0.006, -4.45, -0.55)" gradientUnits="userSpaceOnUse" id="gradient0" r="819.2" spreadMethod="pad">
      <stop offset="0.0" stop-color="#515151"/>
      <stop offset="0.5333333333333333" stop-color="#0d0d0d"/>
      <stop offset="1.0" stop-color="#3c3c3c"/>
    </radialGradient>
    <g id="shape1" transform="matrix(1.0, 0.0, 0.0, 1.0, 177.55, 22.55)">
      <path d="M125.55 -15.95 Q177.55 -9.35 177.55 0.0 177.55 9.35 125.55 15.95 73.6 22.55 0.0 22.55 -73.6 22.55 -125.55 15.95 -177.55 9.35 -177.55 0.0 -177.55 -9.35 -125.55 -15.95 -73.6 -22.55 0.0 -22.55 73.6 -22.55 125.55 -15.95" fill="url(#gradient1)" fill-rule="evenodd" stroke="none"/>
    </g>
    <radialGradient cx="0" cy="0" gradientTransform="matrix(0.2204, 0.0, 0.0, 0.028, -0.05, 0.0)" gradientUnits="userSpaceOnUse" id="gradient1" r="819.2" spreadMethod="pad">
      <stop offset="0.06274509803921569" stop-color="#99ff00"/>
      <stop offset="0.12941176470588237" stop-color="#99ff00" stop-opacity="0.8156863"/>
      <stop offset="0.21176470588235294" stop-color="#99ff00" stop-opacity="0.7647059"/>
      <stop offset="0.44313725490196076" stop-color="#99ff00" stop-opacity="0.21176471"/>
      <stop offset="0.9098039215686274" stop-color="#99ff00" stop-opacity="0.0"/>
    </radialGradient>
  </defs>
</svg>
