<?xml version="1.0" encoding="UTF-8" standalone="no"?>
<svg xmlns:ffdec="https://www.free-decompiler.com/flash" xmlns:xlink="http://www.w3.org/1999/xlink" ffdec:objectType="frame" height="60.8px" width="25.8px" xmlns="http://www.w3.org/2000/svg">
  <g transform="matrix(2.0, 0.0, 0.0, 2.0, 12.4, 30.4)">
    <use ffdec:characterId="2016" height="30.4" transform="matrix(1.0, 0.0, 0.0, 1.0, -6.2, -15.2)" width="12.9" xlink:href="#shape0"/>
    <filter id="filter0">
      <feColorMatrix in="SourceGraphic" result="filterResult0" type="matrix" values="0 0 0 0 1.0,0 0 0 0 1.0,0 0 0 0 0.6,0 0 0 1 0"/>
      <feConvolveMatrix divisor="36.0" in="filterResult0" kernelMatrix="1 1 1 1 1 1 1 1 1 1 1 1 1 1 1 1 1 1 1 1 1 1 1 1 1 1 1 1 1 1 1 1 1 1 1 1" order="6 6" result="filterResult1"/>
      <feComposite in="SourceGraphic" in2="filterResult1" operator="over" result="filterResult2"/>
    </filter>
    <use ffdec:characterId="917" filter="url(#filter0)" height="14.25" transform="matrix(1.0, 0.0, 0.0, 1.0, -1.65, -6.25)" width="3.5" xlink:href="#sprite0"/>
  </g>
  <defs>
    <g id="shape0" transform="matrix(1.0, 0.0, 0.0, 1.0, 6.2, 15.2)">
      <path d="M2.3 -15.2 L3.85 -11.35 4.65 -5.5 4.05 -4.65 3.0 -0.15 2.85 4.95 1.6 13.4 0.15 14.95 Q-2.05 1.1 -2.0 -14.55 0.3 -13.95 2.3 -15.2" fill="url(#gradient0)" fill-rule="evenodd" stroke="none"/>
      <path d="M0.15 14.95 L-0.1 15.2 -3.55 13.15 -3.7 0.5 -4.6 -4.9 -3.1 -14.5 -3.1 -14.55 -2.75 -14.8 -2.0 -14.55 Q-2.05 1.1 0.15 14.95" fill="url(#gradient1)" fill-rule="evenodd" stroke="none"/>
      <path d="M2.3 -15.2 L3.85 -11.35 4.65 -5.5 4.05 -4.65 3.0 -0.15 2.85 4.95 1.6 13.4 M-3.55 13.15 L-3.7 0.5 -4.6 -4.9 -3.1 -14.5 -3.1 -14.55 -2.75 -14.8" fill="none" stroke="#000000" stroke-linecap="round" stroke-linejoin="round" stroke-width="0.05"/>
      <path d="M-4.45 7.45 Q-4.5 0.15 -6.2 -8.6 -2.1 -6.3 6.7 -8.65 4.6 -0.65 3.95 7.45 -0.25 9.45 -4.45 7.45" fill="url(#gradient2)" fill-rule="evenodd" stroke="none"/>
      <path d="M3.95 7.45 L3.65 13.2 Q-0.6 15.85 -4.75 13.45 -4.45 10.6 -4.45 7.45 -0.25 9.45 3.95 7.45" fill="url(#gradient3)" fill-rule="evenodd" stroke="none"/>
      <path d="M3.95 7.45 L3.65 13.2 Q-0.6 15.85 -4.75 13.45 -4.45 10.6 -4.45 7.45 -4.5 0.15 -6.2 -8.6 -2.1 -6.3 6.7 -8.65 4.6 -0.65 3.95 7.45" fill="none" stroke="#000000" stroke-linecap="round" stroke-linejoin="round" stroke-width="0.05"/>
      <path d="M3.95 7.45 Q-0.25 9.45 -4.45 7.45" fill="none" stroke="#000000" stroke-linecap="round" stroke-linejoin="round" stroke-width="0.05"/>
    </g>
    <linearGradient gradientTransform="matrix(0.0046, -7.0E-4, 0.0027, 0.0178, 1.7, -0.2)" gradientUnits="userSpaceOnUse" id="gradient0" spreadMethod="pad" x1="-819.2" x2="819.2">
      <stop offset="0.0" stop-color="#efece4"/>
      <stop offset="0.41568627450980394" stop-color="#8d662e"/>
      <stop offset="0.4666666666666667" stop-color="#422c0b"/>
      <stop offset="0.7294117647058823" stop-color="#bf8837"/>
      <stop offset="1.0" stop-color="#cba670"/>
    </linearGradient>
    <linearGradient gradientTransform="matrix(0.0034, -5.0E-4, 0.0028, 0.0181, -2.6, 0.4)" gradientUnits="userSpaceOnUse" id="gradient1" spreadMethod="pad" x1="-819.2" x2="819.2">
      <stop offset="0.0" stop-color="#efece4"/>
      <stop offset="0.41568627450980394" stop-color="#8d662e"/>
      <stop offset="0.4666666666666667" stop-color="#422c0b"/>
      <stop offset="0.7294117647058823" stop-color="#bf8837"/>
      <stop offset="1.0" stop-color="#cba670"/>
    </linearGradient>
    <radialGradient cx="0" cy="0" gradientTransform="matrix(0.0254, 0.0, 0.0, 0.0254, 0.65, -5.95)" gradientUnits="userSpaceOnUse" id="gradient2" r="819.2" spreadMethod="pad">
      <stop offset="0.0" stop-color="#382d39"/>
      <stop offset="0.6941176470588235" stop-color="#111012"/>
      <stop offset="0.9803921568627451" stop-color="#120e14"/>
    </radialGradient>
    <radialGradient cx="0" cy="0" gradientTransform="matrix(0.0082, 0.0, 0.0, 0.0082, 0.0, 9.25)" gradientUnits="userSpaceOnUse" id="gradient3" r="819.2" spreadMethod="pad">
      <stop offset="0.0" stop-color="#9b8c53"/>
      <stop offset="0.6588235294117647" stop-color="#51352f"/>
      <stop offset="1.0" stop-color="#202835"/>
    </radialGradient>
    <g id="sprite0" transform="matrix(1.0, 0.0, 0.0, 1.0, 1.75, 7.1)">
      <use ffdec:characterId="916" height="14.25" transform="matrix(1.0, 0.0, 0.0, 1.0, -1.75, -7.1)" width="3.5" xlink:href="#shape1"/>
    </g>
    <g id="shape1" transform="matrix(1.0, 0.0, 0.0, 1.0, 1.75, 7.1)">
      <path d="M0.4 -6.4 Q-1.1 -6.4 -1.1 -5.05 -1.1 -4.6 -0.25 -4.15 L-0.25 -4.05 1.05 -5.6 Q1.05 -6.25 0.4 -6.4 M0.6 -3.65 L-0.5 -2.0 0.15 -1.0 1.0 -1.25 0.05 -1.75 0.05 -2.1 0.65 -2.15 Q1.75 -2.15 1.75 -1.3 1.75 -0.35 0.45 -0.35 -1.1 -0.35 -1.25 -2.15 -1.25 -2.65 -0.45 -3.75 L-0.4 -3.85 -0.6 -3.85 Q-2.05 -3.85 -1.7 -5.1 -1.7 -7.1 -0.1 -7.1 2.0 -7.1 1.65 -5.6 1.65 -4.9 0.6 -3.65 M-1.0 2.0 Q-1.2 2.75 -0.75 3.4 -0.45 3.5 -1.05 3.5 -1.6 3.5 -1.6 2.65 -1.6 1.4 -0.85 1.4 0.95 1.4 1.15 2.9 L0.3 4.05 Q-0.6 4.8 -0.6 5.3 L-0.35 6.4 -0.35 6.5 Q0.45 6.4 0.55 6.05 -0.1 5.9 -0.2 5.65 L-0.2 5.5 0.15 5.3 Q1.15 5.85 1.15 5.95 1.15 7.15 0.65 7.15 -1.25 7.15 -1.2 5.25 -1.2 4.7 -0.4 3.95 0.4 3.2 0.4 2.7 L0.3 2.4 -0.2 1.9 -1.0 2.0" fill="#f5dd81" fill-rule="evenodd" stroke="none"/>
    </g>
  </defs>
</svg>
