<?xml version="1.0" encoding="UTF-8" standalone="no"?>
<svg xmlns:ffdec="https://www.free-decompiler.com/flash" xmlns:xlink="http://www.w3.org/1999/xlink" ffdec:objectType="frame" height="43.7px" width="53.6px" xmlns="http://www.w3.org/2000/svg">
  <g transform="matrix(2.0, 0.0, 0.0, 2.0, 20.8, 27.0)">
    <use ffdec:characterId="2037" height="15.35" transform="matrix(1.0, 0.0, 0.0, 1.0, -5.95, -7.15)" width="14.8" xlink:href="#shape0"/>
    <use ffdec:characterId="105" height="45.1" transform="matrix(-0.0073, 0.0321, -0.5365, -0.122, 16.3947, -7.9958)" width="355.1" xlink:href="#shape1"/>
    <use ffdec:characterId="105" height="45.1" transform="matrix(-0.0073, 0.0321, -0.5365, -0.122, 16.3947, -3.0458)" width="355.1" xlink:href="#shape1"/>
  </g>
  <defs>
    <g id="shape0" transform="matrix(1.0, 0.0, 0.0, 1.0, 5.95, 7.15)">
      <path d="M5.45 2.1 L5.75 2.3 5.85 2.5 Q6.6 4.7 8.85 6.55 L8.15 8.2 4.7 4.95 -0.55 3.3 -1.5 3.4 Q-2.65 0.6 -5.95 -1.6 -2.85 -3.9 -0.7 -6.75 L-0.7 -6.8 -0.3 -7.15 -0.5 -5.95 -0.65 -4.4 -0.65 -3.25 -0.6 -2.45 -0.6 -2.3 -0.5 -1.85 Q1.8 0.8 5.45 2.1" fill="url(#gradient0)" fill-rule="evenodd" stroke="none"/>
      <path d="M6.25 -0.15 L6.1 0.95 5.5 1.85 5.45 2.1 Q1.8 0.8 -0.5 -1.85 L-0.6 -2.3 6.25 -0.15 M-0.5 -5.95 Q1.7 -7.85 4.65 -6.5 L5.85 -4.85 6.25 -3.3 -0.65 -4.4 -0.5 -5.95" fill="#ffeb3c" fill-rule="evenodd" stroke="none"/>
      <path d="M6.25 -3.3 L6.25 -3.2 6.25 -0.15 -0.6 -2.3 -0.6 -2.45 -0.65 -3.25 -0.65 -4.4 6.25 -3.3" fill="url(#gradient1)" fill-rule="evenodd" stroke="none"/>
      <path d="M6.25 -3.2 L6.25 -0.15 6.1 0.95 5.5 1.85 5.45 2.1 5.75 2.3 5.85 2.5 Q6.6 4.7 8.85 6.55 L8.15 8.2 4.7 4.95 -0.55 3.3 -1.5 3.4 Q-2.65 0.6 -5.95 -1.6 -2.85 -3.9 -0.7 -6.75 L-0.7 -6.8 -0.3 -7.15 -0.5 -5.95 Q1.7 -7.85 4.65 -6.5 L5.85 -4.85 6.25 -3.3 M-0.65 -4.4 L-0.65 -3.25 -0.6 -2.45 M-0.6 -2.3 L-0.5 -1.85 Q1.8 0.8 5.45 2.1 M-0.65 -4.4 L-0.5 -5.95" fill="none" stroke="#000000" stroke-linecap="round" stroke-linejoin="round" stroke-width="0.05"/>
      <path d="M6.25 -3.3 L6.25 -3.2 M6.25 -3.3 L-0.65 -4.4 M-0.6 -2.45 L-0.6 -2.3 6.25 -0.15" fill="none" stroke="#000000" stroke-linecap="round" stroke-linejoin="round" stroke-width="0.05"/>
    </g>
    <radialGradient cx="0" cy="0" gradientTransform="matrix(0.0118, 0.0, 0.0, 0.0118, 0.55, 2.25)" gradientUnits="userSpaceOnUse" id="gradient0" r="819.2" spreadMethod="pad">
      <stop offset="0.0" stop-color="#332f37"/>
      <stop offset="0.0" stop-color="#322e36"/>
      <stop offset="0.5333333333333333" stop-color="#0f0b0b"/>
      <stop offset="0.9176470588235294" stop-color="#5f4b4b"/>
    </radialGradient>
    <linearGradient gradientTransform="matrix(0.0046, 0.0014, -5.0E-4, 0.0018, 2.95, -2.75)" gradientUnits="userSpaceOnUse" id="gradient1" spreadMethod="pad" x1="-819.2" x2="819.2">
      <stop offset="0.0" stop-color="#332f37"/>
      <stop offset="0.0" stop-color="#322e36"/>
      <stop offset="0.5333333333333333" stop-color="#0f0b0b"/>
      <stop offset="0.9176470588235294" stop-color="#5f4b4b"/>
    </linearGradient>
    <g id="shape1" transform="matrix(1.0, 0.0, 0.0, 1.0, 177.55, 22.55)">
      <path d="M125.55 -15.95 Q177.55 -9.35 177.55 0.0 177.55 9.35 125.55 15.95 73.6 22.55 0.0 22.55 -73.6 22.55 -125.55 15.95 -177.55 9.35 -177.55 0.0 -177.55 -9.35 -125.55 -15.95 -73.6 -22.55 0.0 -22.55 73.6 -22.55 125.55 -15.95" fill="url(#gradient2)" fill-rule="evenodd" stroke="none"/>
    </g>
    <radialGradient cx="0" cy="0" gradientTransform="matrix(0.2204, 0.0, 0.0, 0.028, -0.05, 0.0)" gradientUnits="userSpaceOnUse" id="gradient2" r="819.2" spreadMethod="pad">
      <stop offset="0.06274509803921569" stop-color="#ffcc00"/>
      <stop offset="0.12941176470588237" stop-color="#ffcc00" stop-opacity="0.8156863"/>
      <stop offset="0.21176470588235294" stop-color="#ffcc00" stop-opacity="0.7647059"/>
      <stop offset="0.44313725490196076" stop-color="#ffcc00" stop-opacity="0.21176471"/>
      <stop offset="0.9098039215686274" stop-color="#ffcc00" stop-opacity="0.0"/>
    </radialGradient>
  </defs>
</svg>
