<?xml version="1.0" encoding="UTF-8" standalone="no"?>
<svg xmlns:ffdec="https://www.free-decompiler.com/flash" xmlns:xlink="http://www.w3.org/1999/xlink" ffdec:objectType="frame" height="147.9px" width="141.6px" xmlns="http://www.w3.org/2000/svg">
  <g transform="matrix(2.0, 0.0, 0.0, 2.0, 65.9, 57.2)">
    <use ffdec:characterId="888" height="65.75" transform="matrix(1.0, 0.0, 0.0, 1.0, -14.1, -20.4)" width="27.75" xlink:href="#shape0"/>
    <filter id="filter0">
      <feFlood flood-color="#ffff66" flood-opacity="1.0" result="filterResult0"/>
      <feComposite in="filterResult0" in2="SourceGraphic" operator="out" result="filterResult1"/>
      <feConvolveMatrix divisor="25.0" in="filterResult1" kernelMatrix="1 1 1 1 1 1 1 1 1 1 1 1 1 1 1 1 1 1 1 1 1 1 1 1 1" order="5 5" result="filterResult2"/>
      <feComposite in="filterResult2" in2="SourceGraphic" operator="in" result="filterResult3"/>
      <feComposite in="filterResult3" in2="SourceGraphic" operator="over" result="filterResult4"/>
      <feColorMatrix in="filterResult4" result="filterResult5" type="matrix" values="0 0 0 0 1.0,0 0 0 0 0.8,0 0 0 0 0.0,0 0 0 1 0"/>
      <feConvolveMatrix divisor="25.0" in="filterResult5" kernelMatrix="1 1 1 1 1 1 1 1 1 1 1 1 1 1 1 1 1 1 1 1 1 1 1 1 1" order="5 5" result="filterResult6"/>
      <feComposite in="filterResult4" in2="filterResult6" operator="over" result="filterResult7"/>
    </filter>
    <use ffdec:characterId="887" filter="url(#filter0)" height="14.15" transform="matrix(1.0, 0.0, 0.0, 1.0, -14.1, -20.4)" width="27.15" xlink:href="#sprite0"/>
    <use ffdec:characterId="885" height="56.6" transform="matrix(1.0, 0.0, 0.0, 1.0, -32.95, -28.6)" width="70.8" xlink:href="#sprite1"/>
  </g>
  <defs>
    <g id="shape0" transform="matrix(1.0, 0.0, 0.0, 1.0, 14.1, 20.4)">
      <path d="M4.7 -14.5 L3.35 -13.85 1.95 -14.8 -0.25 -16.25 -0.2 -16.4 3.3 -14.0 4.7 -14.5 M3.5 -5.35 L3.55 -5.35 3.5 -5.15 3.5 -5.35 3.5 -5.2 3.55 -5.35 3.5 -5.2 3.5 -5.35 M-2.2 -15.6 L-2.15 -15.65 -0.95 -15.25 -0.3 -16.3 -0.25 -16.25 -0.95 -15.25 -2.2 -15.6" fill="#8776cd" fill-rule="evenodd" stroke="none"/>
      <path d="M-0.2 -16.4 L-0.25 -16.25 -0.3 -16.3 -0.2 -16.4" fill="url(#gradient0)" fill-rule="evenodd" stroke="none"/>
      <path d="M0.6 -1.75 L0.65 -1.65 0.6 -1.75" fill="url(#gradient1)" fill-rule="evenodd" stroke="none"/>
      <path d="M-4.6 8.6 L-5.2 5.4 Q-4.9 0.25 -6.2 -5.4 L-9.2 -7.25 Q-3.8 -8.05 -0.05 -4.3 L0.15 -4.25 0.6 -1.75 0.55 -1.7 Q-2.9 1.2 -2.4 9.0 L-4.6 8.6" fill="url(#gradient2)" fill-rule="evenodd" stroke="none"/>
      <path d="M-5.55 -17.45 L-3.5 -19.75 Q0.35 -20.6 3.5 -19.1 L4.9 -17.55 6.3 -15.95 5.35 -15.65 5.15 -15.6 5.15 -14.75 5.2 -14.7 4.7 -14.5 3.3 -14.0 -0.2 -16.4 -0.3 -16.3 -0.95 -15.25 -2.15 -15.65 -4.45 -16.4 -6.7 -16.25 -5.55 -17.45" fill="url(#gradient3)" fill-rule="evenodd" stroke="none"/>
      <path d="M7.55 -5.35 L7.8 -3.75 6.05 0.1 6.35 -1.65 6.9 -4.05 7.15 -4.15 7.55 -5.35" fill="url(#gradient4)" fill-rule="evenodd" stroke="none"/>
      <path d="M4.9 5.0 Q5.7 6.55 5.55 8.1 L0.7 7.65 0.4 9.5 -2.4 9.0 Q-2.9 1.2 0.55 -1.7 L0.65 -1.65 Q1.1 1.7 1.0 4.6 L4.9 5.0" fill="url(#gradient5)" fill-rule="evenodd" stroke="none"/>
      <path d="M1.95 -14.8 L3.35 -13.85 4.7 -14.5 6.15 -6.4 3.55 -5.35 3.5 -5.35 1.95 -14.8" fill="url(#gradient6)" fill-rule="evenodd" stroke="none"/>
      <path d="M-0.25 -16.25 L1.95 -14.8 3.5 -5.35 3.5 -5.15 0.3 -5.95 -2.2 -15.6 -0.95 -15.25 -0.25 -16.25" fill="url(#gradient7)" fill-rule="evenodd" stroke="none"/>
      <path d="M8.1 -6.45 L7.55 -5.35 7.15 -4.15 6.9 -4.05 6.35 -1.65 Q3.8 -3.4 0.65 -1.65 L0.6 -1.75 0.15 -4.25 -0.05 -4.3 Q-3.8 -8.05 -9.2 -7.25 L-10.35 -7.05 -10.3 -7.9 -11.85 -10.0 -11.55 -11.6 -11.5 -11.75 Q-11.0 -13.4 -9.95 -14.5 L-9.7 -14.75 -8.05 -15.75 -6.7 -16.25 -4.45 -16.4 -2.15 -15.65 -2.2 -15.6 0.3 -5.95 3.5 -5.15 3.55 -5.35 6.15 -6.4 4.7 -14.5 5.2 -14.7 Q6.95 -10.65 7.6 -6.55 L8.1 -6.45" fill="url(#gradient8)" fill-rule="evenodd" stroke="none"/>
      <path d="M11.25 -12.6 L12.15 -10.7 9.9 -7.1 9.55 -8.25 Q8.3 -12.15 5.95 -15.0 L5.35 -15.65 6.3 -15.95 7.2 -15.95 Q8.45 -15.85 9.5 -14.9 10.45 -14.05 11.25 -12.6" fill="url(#gradient9)" fill-rule="evenodd" stroke="none"/>
      <path d="M5.55 8.1 L5.55 9.1 6.15 9.75 6.3 13.1 5.85 13.55 Q8.05 26.7 13.65 38.55 L1.85 45.35 Q-1.05 34.0 -1.45 22.2 L-1.55 16.85 -1.5 14.7 -5.35 12.25 -5.0 10.55 -4.65 8.6 -4.6 8.6 -2.4 9.0 0.4 9.5 0.7 7.65 5.55 8.1 M7.4 32.45 L8.9 28.1 7.4 32.45 3.5 43.6 7.4 32.45 0.5 28.1 -0.5 27.45 0.5 28.1 7.4 32.45 M-1.55 16.85 L0.75 16.8 5.2 16.7 4.5 10.75 4.5 10.7 4.25 8.85 4.5 10.7 4.5 10.75 5.2 16.7 5.5 19.1 6.0 18.6 5.5 19.1 5.2 16.7 0.75 16.8 -1.55 16.85 M4.5 10.7 L-2.35 10.2 -2.55 10.15 -3.35 11.95 -5.0 10.55 -3.35 11.95 -2.55 10.15 -3.1 10.1 -2.55 10.15 -2.35 10.2 4.5 10.7 M-3.35 11.95 L0.75 16.8 -3.35 11.95 M5.5 19.1 L-0.55 24.95 0.5 28.1 -0.55 24.95 -1.45 22.2 -0.55 24.95 5.5 19.1" fill="url(#gradient10)" fill-rule="evenodd" stroke="none"/>
      <path d="M6.05 0.1 L5.6 5.05 4.9 5.0 1.0 4.6 Q1.1 1.7 0.65 -1.65 3.8 -3.4 6.35 -1.65 L6.05 0.1" fill="#29241b" fill-rule="evenodd" stroke="none"/>
      <path d="M9.5 -14.9 L11.8 -17.15 13.05 -15.65 11.25 -12.6 12.15 -10.7 9.9 -7.1 9.2 -6.25 8.1 -6.45 7.55 -5.35 7.8 -3.75 6.05 0.1 5.6 5.05 4.9 5.0 Q5.7 6.55 5.55 8.1 L5.55 9.1 6.15 9.75 6.3 13.1 5.85 13.55 Q8.05 26.7 13.65 38.55 L1.85 45.35 Q-1.05 34.0 -1.45 22.2 L-1.55 16.85 -1.5 14.7 -5.35 12.25 -5.0 10.55 -4.65 8.6 -4.6 8.6 -5.2 5.4 Q-4.9 0.25 -6.2 -5.4 L-9.2 -7.25 -10.35 -7.05 -10.3 -7.9 -11.85 -10.0 -11.55 -11.6 -11.5 -11.75 -14.1 -14.15 -13.1 -16.25 -9.95 -14.5 -9.7 -14.75 -8.05 -15.75 -9.35 -19.85 -8.05 -20.4 -5.55 -17.45 -3.5 -19.75 Q0.35 -20.6 3.5 -19.1 L4.9 -17.55 6.55 -19.95 7.75 -19.6 7.2 -15.95 Q8.45 -15.85 9.5 -14.9 10.45 -14.05 11.25 -12.6 M1.95 -14.8 L3.35 -13.85 4.7 -14.5 3.3 -14.0 -0.2 -16.4 -0.25 -16.25 1.95 -14.8 3.5 -5.35 3.55 -5.35 6.15 -6.4 4.7 -14.5 5.2 -14.7 5.15 -14.75 5.15 -15.6 5.35 -15.65 6.3 -15.95 4.9 -17.55 M6.3 -15.95 L7.2 -15.95 M5.35 -15.65 L5.95 -15.0 Q8.3 -12.15 9.55 -8.25 L9.9 -7.1 M8.1 -6.45 L7.6 -6.55 Q6.95 -10.65 5.2 -14.7 M3.55 -5.35 L3.5 -5.15 0.3 -5.95 -2.2 -15.6 -0.95 -15.25 -2.15 -15.65 -4.45 -16.4 -6.7 -16.25 -8.05 -15.75 M3.5 -5.35 L3.5 -5.2 3.55 -5.35 M3.5 -5.15 L3.5 -5.35 M0.55 -1.7 L0.6 -1.75 0.15 -4.25 -0.05 -4.3 Q-3.8 -8.05 -9.2 -7.25 M0.6 -1.75 L0.65 -1.65 Q1.1 1.7 1.0 4.6 L4.9 5.0 M-2.4 9.0 L0.4 9.5 0.7 7.65 5.55 8.1 M6.35 -1.65 L6.9 -4.05 7.15 -4.15 7.55 -5.35 M6.35 -1.65 L6.05 0.1 M-6.7 -16.25 L-5.55 -17.45 M-0.25 -16.25 L-0.3 -16.3 -0.95 -15.25 -0.25 -16.25 M-11.5 -11.75 Q-11.0 -13.4 -9.95 -14.5 M-2.4 9.0 L-4.6 8.6" fill="none" stroke="#000000" stroke-linecap="round" stroke-linejoin="round" stroke-width="0.05"/>
      <path d="M4.25 8.85 L4.5 10.7 4.5 10.75 5.2 16.7 5.5 19.1 6.0 18.6 M5.2 16.7 L0.75 16.8 -1.55 16.85 M3.5 43.6 L7.4 32.45 0.5 28.1 -0.5 27.45 M8.9 28.1 L7.4 32.45 M-5.0 10.55 L-3.35 11.95 -2.55 10.15 -3.1 10.1 M-2.55 10.15 L-2.35 10.2 4.5 10.7 M0.5 28.1 L-0.55 24.95 -1.45 22.2 M-0.55 24.95 L5.5 19.1 M0.75 16.8 L-3.35 11.95" fill="none" stroke="#111a16" stroke-linecap="round" stroke-linejoin="round" stroke-width="0.05"/>
    </g>
    <radialGradient cx="0" cy="0" gradientTransform="matrix(0.0102, 0.0, 0.0, 0.0102, 1.5, -17.85)" gradientUnits="userSpaceOnUse" id="gradient0" r="819.2" spreadMethod="pad">
      <stop offset="0.0" stop-color="#372f26"/>
      <stop offset="1.0" stop-color="#160d0c"/>
    </radialGradient>
    <radialGradient cx="0" cy="0" gradientTransform="matrix(0.024, 0.0, 0.0, 0.024, 4.9, -2.85)" gradientUnits="userSpaceOnUse" id="gradient1" r="819.2" spreadMethod="pad">
      <stop offset="0.0" stop-color="#5a5e72"/>
      <stop offset="0.4117647058823529" stop-color="#1e2026"/>
      <stop offset="0.6901960784313725" stop-color="#090b11"/>
      <stop offset="1.0" stop-color="#141b27"/>
    </radialGradient>
    <radialGradient cx="0" cy="0" gradientTransform="matrix(0.0165, 0.0, 0.0, 0.0165, -3.75, 5.15)" gradientUnits="userSpaceOnUse" id="gradient2" r="819.2" spreadMethod="pad">
      <stop offset="0.0" stop-color="#1e2540"/>
      <stop offset="1.0" stop-color="#0c0c16"/>
    </radialGradient>
    <radialGradient cx="0" cy="0" gradientTransform="matrix(0.0102, 0.0, 0.0, 0.0102, 1.5, -17.85)" gradientUnits="userSpaceOnUse" id="gradient3" r="819.2" spreadMethod="pad">
      <stop offset="0.0" stop-color="#1e2540"/>
      <stop offset="1.0" stop-color="#0c0c16"/>
    </radialGradient>
    <radialGradient cx="0" cy="0" gradientTransform="matrix(0.0046, 0.0, 0.0, 0.0046, 6.4, -1.85)" gradientUnits="userSpaceOnUse" id="gradient4" r="819.2" spreadMethod="pad">
      <stop offset="0.0" stop-color="#1e2540"/>
      <stop offset="1.0" stop-color="#0c0c16"/>
    </radialGradient>
    <radialGradient cx="0" cy="0" gradientTransform="matrix(0.0304, 0.0, 0.0, 0.0109, 3.0, 6.9)" gradientUnits="userSpaceOnUse" id="gradient5" r="819.2" spreadMethod="pad">
      <stop offset="0.0" stop-color="#0e131d"/>
      <stop offset="1.0" stop-color="#06060b"/>
    </radialGradient>
    <linearGradient gradientTransform="matrix(-5.0E-4, -0.0058, 0.0021, -2.0E-4, 4.1, -10.15)" gradientUnits="userSpaceOnUse" id="gradient6" spreadMethod="pad" x1="-819.2" x2="819.2">
      <stop offset="0.0" stop-color="#88884d"/>
      <stop offset="0.4980392156862745" stop-color="#171c1c"/>
      <stop offset="1.0" stop-color="#140f0e"/>
    </linearGradient>
    <linearGradient gradientTransform="matrix(-5.0E-4, -0.0069, 0.003, -2.0E-4, 0.65, -10.6)" gradientUnits="userSpaceOnUse" id="gradient7" spreadMethod="pad" x1="-819.2" x2="819.2">
      <stop offset="0.0" stop-color="#88884d"/>
      <stop offset="0.4980392156862745" stop-color="#171c1c"/>
      <stop offset="1.0" stop-color="#140f0e"/>
    </linearGradient>
    <radialGradient cx="0" cy="0" gradientTransform="matrix(0.024, 0.0, 0.0, 0.024, 4.9, -2.85)" gradientUnits="userSpaceOnUse" id="gradient8" r="819.2" spreadMethod="pad">
      <stop offset="0.0" stop-color="#efece4"/>
      <stop offset="0.41568627450980394" stop-color="#8d662e"/>
      <stop offset="0.4666666666666667" stop-color="#422c0b"/>
      <stop offset="0.7294117647058823" stop-color="#bf8837"/>
      <stop offset="1.0" stop-color="#cba670"/>
    </radialGradient>
    <radialGradient cx="0" cy="0" gradientTransform="matrix(0.0086, 0.0, 0.0, 0.0086, 10.4, -10.75)" gradientUnits="userSpaceOnUse" id="gradient9" r="819.2" spreadMethod="pad">
      <stop offset="0.0" stop-color="#efece4"/>
      <stop offset="0.41568627450980394" stop-color="#8d662e"/>
      <stop offset="0.4666666666666667" stop-color="#422c0b"/>
      <stop offset="0.7294117647058823" stop-color="#bf8837"/>
      <stop offset="1.0" stop-color="#cba670"/>
    </radialGradient>
    <radialGradient cx="0" cy="0" gradientTransform="matrix(0.0314, 0.0, 0.0, 0.0314, 2.25, 19.65)" gradientUnits="userSpaceOnUse" id="gradient10" r="819.2" spreadMethod="pad">
      <stop offset="0.0" stop-color="#fbe795"/>
      <stop offset="0.4235294117647059" stop-color="#946827"/>
      <stop offset="1.0" stop-color="#3b4f67"/>
    </radialGradient>
    <g id="sprite0" transform="matrix(1.0, 0.0, 0.0, 1.0, 13.6, 7.1)">
      <use ffdec:characterId="886" height="14.15" transform="matrix(1.0, 0.0, 0.0, 1.0, -13.6, -7.1)" width="27.15" xlink:href="#shape1"/>
    </g>
    <g id="shape1" transform="matrix(1.0, 0.0, 0.0, 1.0, 13.6, 7.1)">
      <path d="M8.25 -6.3 L7.7 -2.65 6.8 -2.65 5.4 -4.25 7.05 -6.65 8.25 -6.3 M5.65 -1.45 L5.65 -2.3 5.85 -2.35 6.45 -1.7 Q8.8 1.15 10.05 5.05 L10.4 6.2 9.7 7.05 8.1 6.75 Q7.45 2.65 5.7 -1.4 L5.65 -1.45 M13.55 -2.35 L11.75 0.7 Q10.95 -0.75 10.0 -1.6 L12.3 -3.85 13.55 -2.35 M-9.45 -1.2 Q-10.5 -0.1 -11.0 1.55 L-13.6 -0.85 -12.6 -2.95 -9.45 -1.2 M-7.55 -7.1 L-5.05 -4.15 -6.2 -2.95 -7.55 -2.45 -8.85 -6.55 -7.55 -7.1" fill="#ffffff" fill-rule="evenodd" stroke="none"/>
    </g>
    <g id="sprite1" transform="matrix(1.0, 0.0, 0.0, 1.0, 36.75, 32.65)">
      <filter id="filter1">
        <feColorMatrix in="SourceGraphic" result="filterResult8" type="matrix" values="0 0 0 0 1.0,0 0 0 0 0.8,0 0 0 0 0.0,0 0 0 1 0"/>
        <feConvolveMatrix divisor="81.0" in="filterResult8" kernelMatrix="1 1 1 1 1 1 1 1 1 1 1 1 1 1 1 1 1 1 1 1 1 1 1 1 1 1 1 1 1 1 1 1 1 1 1 1 1 1 1 1 1 1 1 1 1 1 1 1 1 1 1 1 1 1 1 1 1 1 1 1 1 1 1 1 1 1 1 1 1 1 1 1 1 1 1 1 1 1 1 1 1" order="9 9" result="filterResult9"/>
        <feComposite in="SourceGraphic" in2="filterResult9" operator="over" result="filterResult10"/>
      </filter>
      <use ffdec:characterId="884" filter="url(#filter1)" height="130.05" transform="matrix(0.4351, 0.0, 0.0, 0.4351, -36.7708, -32.6399)" width="162.75" xlink:href="#sprite2"/>
    </g>
    <g id="sprite2" transform="matrix(1.0, 0.0, 0.0, 1.0, 79.0, 69.85)">
      <use ffdec:characterId="867" height="87.75" transform="matrix(1.0, 0.0, 0.0, 1.0, -28.55, -43.85)" width="64.6" xlink:href="#shape2"/>
    </g>
    <g id="shape2" transform="matrix(1.0, 0.0, 0.0, 1.0, 28.55, 43.85)">
      <path d="M17.5 -42.1 L10.65 -30.45 Q6.5 -23.35 2.45 -20.1 1.95 -20.2 1.95 -21.35 2.45 -21.45 2.45 -20.85 L10.15 -33.85 Q15.9 -43.85 17.95 -43.85 18.5 -43.85 21.0 -40.25 21.0 -37.95 17.1 -27.8 15.15 -22.7 14.6 -20.0 L18.1 -17.8 Q21.9 -15.4 23.25 -15.1 L23.7 -14.35 Q23.35 -13.7 22.5 -13.3 L22.75 -13.2 Q22.75 -11.4 20.55 -10.15 L15.6 -8.2 Q8.4 -5.4 8.25 0.15 8.15 2.95 4.3 7.5 L-2.05 14.7 Q-8.1 22.7 -18.8 43.9 -20.05 42.9 -20.05 40.5 -20.05 38.4 -15.65 28.0 L-11.05 17.45 -10.55 17.9 -15.25 28.6 Q-19.55 38.75 -19.55 40.5 L-19.05 42.95 -18.9 43.15 -11.7 29.15 Q-6.95 20.2 -2.8 14.4 L3.3 7.55 Q7.3 2.9 7.0 0.15 5.8 -10.7 20.0 -12.35 L20.25 -12.6 11.7 -12.2 Q8.5 -12.2 6.85 -13.0 L3.95 -14.85 3.75 -15.6 3.85 -16.05 4.7 -16.2 14.7 -14.7 Q13.35 -15.85 12.2 -17.75 L12.25 -17.9 12.2 -18.0 12.2 -19.35 Q12.2 -21.2 15.7 -30.05 19.2 -38.9 19.2 -40.35 18.35 -41.75 17.5 -42.1 M28.5 19.95 Q28.45 20.45 27.2 20.45 22.55 20.45 16.7 15.45 11.35 10.85 11.45 8.9 L12.2 8.4 17.55 13.45 Q21.55 17.05 24.75 17.95 L21.3 14.9 Q18.75 12.4 18.75 10.65 18.8 6.7 15.8 5.1 L13.7 4.15 Q12.75 3.7 12.75 3.15 12.75 1.9 14.25 1.2 L19.95 6.15 Q21.5 7.45 21.2 8.75 L20.5 10.75 Q20.5 12.0 24.3 15.3 28.25 18.65 28.5 19.95 M-23.7 -11.95 Q-15.6 -12.55 -11.65 -13.45 -10.9 -13.05 -10.65 -12.45 L-12.05 -12.35 -12.55 -12.8 Q-14.3 -13.2 -26.3 -10.2 L-26.3 -10.1 Q-6.2 -6.4 -2.15 -5.2 L-2.05 -4.85 Q-1.55 -4.2 -2.8 -4.2 -5.9 -4.2 -14.55 -5.85 -24.05 -7.65 -28.4 -9.45 L-28.55 -10.2 Q-28.55 -11.6 -23.7 -11.95" fill="#ffffff" fill-rule="evenodd" stroke="none"/>
      <path d="M14.85 -10.5 Q14.5 -10.55 14.5 -11.35 14.5 -13.75 17.55 -13.35 17.8 -13.6 17.8 -12.35 17.8 -11.65 16.5 -10.5 L14.85 -10.5 M35.8 -19.35 Q36.05 -19.5 36.05 -18.25 L35.8 -17.1 Q36.25 -16.85 35.0 -16.85 L32.8 -17.1 32.3 -18.4 32.5 -19.35 34.25 -19.6 35.8 -19.35 M25.8 1.25 Q26.0 0.85 26.0 2.1 L25.8 3.05 Q26.75 3.5 25.5 3.5 23.65 3.5 22.75 3.0 22.5 3.25 22.5 2.0 L22.55 1.25 24.25 1.0 25.8 1.25 M-20.35 -23.35 Q-21.05 -22.35 -22.25 -22.35 L-23.75 -22.6 -24.1 -23.55 Q-24.1 -25.5 -22.25 -25.5 -20.7 -25.5 -20.35 -23.35 M-20.5 5.35 L-20.6 6.75 -22.5 7.05 Q-23.55 7.05 -24.35 6.05 -24.5 6.6 -24.5 5.35 -24.5 4.55 -22.0 3.5 -20.5 3.8 -20.5 5.35" fill="#ffffff" fill-rule="evenodd" stroke="none"/>
    </g>
  </defs>
</svg>
