<?xml version="1.0" encoding="UTF-8" standalone="no"?>
<svg xmlns:ffdec="https://www.free-decompiler.com/flash" xmlns:xlink="http://www.w3.org/1999/xlink" ffdec:objectType="frame" height="81.8px" width="19.6px" xmlns="http://www.w3.org/2000/svg">
  <g transform="matrix(2.0, 0.0, 0.0, 2.0, 11.1, 18.3)">
    <use ffdec:characterId="1134" height="39.25" transform="matrix(1.0, 0.0, 0.0, 1.0, -5.55, -9.15)" width="9.6" xlink:href="#shape0"/>
    <filter id="filter0">
      <feFlood flood-color="#ffff99" flood-opacity="1.0" result="filterResult0"/>
      <feComposite in="filterResult0" in2="SourceGraphic" operator="out" result="filterResult1"/>
      <feConvolveMatrix divisor="25.0" in="filterResult1" kernelMatrix="1 1 1 1 1 1 1 1 1 1 1 1 1 1 1 1 1 1 1 1 1 1 1 1 1" order="5 5" result="filterResult2"/>
      <feComposite in="filterResult2" in2="SourceGraphic" operator="in" result="filterResult3"/>
      <feComposite in="filterResult3" in2="SourceGraphic" operator="over" result="filterResult4"/>
      <feColorMatrix in="filterResult4" result="filterResult5" type="matrix" values="0 0 0 0 1.0,0 0 0 0 0.8,0 0 0 0 0.0,0 0 0 1 0"/>
      <feConvolveMatrix divisor="25.0" in="filterResult5" kernelMatrix="1 1 1 1 1 1 1 1 1 1 1 1 1 1 1 1 1 1 1 1 1 1 1 1 1" order="5 5" result="filterResult6"/>
      <feComposite in="filterResult4" in2="filterResult6" operator="over" result="filterResult7"/>
    </filter>
    <use ffdec:characterId="1130" filter="url(#filter0)" height="4.6" transform="matrix(1.0, 0.0, 0.0, 1.0, -2.85, -0.55)" width="3.3" xlink:href="#sprite0"/>
    <use ffdec:characterId="1133" height="26.45" transform="matrix(1.0, 0.0, 0.0, 1.0, -3.95, 5.3)" width="8.2" xlink:href="#shape2"/>
  </g>
  <defs>
    <g id="shape0" transform="matrix(1.0, 0.0, 0.0, 1.0, 5.55, 9.15)">
      <path d="M2.0 4.95 L2.0 5.0 1.95 5.05 1.9 4.85 2.0 4.95" fill="url(#gradient0)" fill-rule="evenodd" stroke="none"/>
      <path d="M1.9 4.85 L2.0 4.9 2.0 4.95 1.9 4.85" fill="url(#gradient1)" fill-rule="evenodd" stroke="none"/>
      <path d="M1.95 5.05 L0.9 6.85 1.3 8.4 0.15 9.2 -3.55 6.1 -2.95 4.05 Q-0.9 6.25 1.95 5.05" fill="url(#gradient2)" fill-rule="evenodd" stroke="none"/>
      <path d="M3.0 -6.9 Q3.7 -4.25 3.45 -2.1 2.75 -0.55 2.4 0.8 0.9 3.15 1.9 4.85 L1.95 5.05 Q-0.9 6.25 -2.95 4.05 L-2.95 4.0 Q-2.25 1.55 -3.15 -1.05 L-3.0 -4.55 Q-2.8 -6.1 -0.75 -9.15 L3.0 -6.9" fill="url(#gradient3)" fill-rule="evenodd" stroke="none"/>
      <path d="M3.0 -6.9 Q3.7 -4.25 3.45 -2.1 2.75 -0.55 2.4 0.8 0.9 3.15 1.9 4.85 L2.0 4.95 2.0 5.0 1.95 5.05 0.9 6.85 1.3 8.4 0.15 9.2 -3.55 6.1 -2.95 4.05 -2.95 4.0 Q-2.25 1.55 -3.15 -1.05 L-3.0 -4.55 Q-2.8 -6.1 -0.75 -9.15 M2.0 4.9 L2.0 4.95" fill="none" stroke="#000000" stroke-linecap="round" stroke-linejoin="round" stroke-width="0.05"/>
      <path d="M2.0 4.95 L2.0 5.0 1.95 5.05 1.9 4.85 2.0 4.95" fill="url(#gradient4)" fill-rule="evenodd" stroke="none"/>
      <path d="M1.9 4.85 L2.0 4.9 2.0 4.95 1.9 4.85" fill="url(#gradient5)" fill-rule="evenodd" stroke="none"/>
      <path d="M1.95 5.05 L0.9 6.85 1.3 8.4 0.15 9.2 -0.25 8.85 -0.25 5.45 1.95 5.05 M-0.6 5.4 L-2.1 5.4 -2.1 7.3 -3.55 6.1 -2.95 4.05 -2.25 4.65 Q-1.5 5.25 -0.6 5.4" fill="url(#gradient6)" fill-rule="evenodd" stroke="none"/>
      <path d="M-2.95 4.05 L-2.95 4.0 Q-2.25 1.55 -3.15 -1.05 L-3.0 -4.55 -2.25 -6.6 Q0.5 -5.25 3.3 -5.65 L3.45 -2.1 Q2.75 -0.55 2.4 0.8 1.0 3.05 1.8 4.65 L1.9 4.85 1.95 5.05 -0.25 5.45 -0.25 5.4 -0.6 5.4 Q-1.5 5.25 -2.25 4.65 L-2.95 4.05" fill="url(#gradient7)" fill-rule="evenodd" stroke="none"/>
      <path d="M-2.95 4.05 L-2.95 4.0 Q-2.25 1.55 -3.15 -1.05 L-3.0 -4.55 -2.25 -6.6 Q0.5 -5.25 3.3 -5.65 L3.45 -2.1 Q2.75 -0.55 2.4 0.8 1.0 3.05 1.8 4.65 L1.9 4.85 2.0 4.95 2.0 5.0 1.95 5.05 0.9 6.85 1.3 8.4 0.15 9.2 -0.25 8.85 M2.0 4.9 L2.0 4.95 M-2.1 7.3 L-3.55 6.1 -2.95 4.05" fill="none" stroke="#000000" stroke-linecap="round" stroke-linejoin="round" stroke-width="0.05"/>
      <path d="M-2.8 30.1 Q-6.9 18.45 -4.9 7.7 -2.9 7.1 -2.1 11.05 -4.0 19.5 -2.8 30.1" fill="url(#gradient8)" fill-rule="evenodd" stroke="none"/>
      <path d="M-2.8 30.1 Q-6.9 18.45 -4.9 7.7 -2.9 7.1 -2.1 11.05 -4.0 19.5 -2.8 30.1 Z" fill="none" stroke="#000000" stroke-linecap="round" stroke-linejoin="round" stroke-width="0.05"/>
      <path d="M-2.0 8.3 L-2.1 8.2 -2.0 8.25 -2.0 8.3" fill="url(#gradient9)" fill-rule="evenodd" stroke="none"/>
      <path d="M-2.0 8.25 Q-3.4 7.15 -3.9 5.55 L-3.25 2.65 Q-2.85 0.6 -3.95 -0.85 L-3.65 -3.7 Q-0.15 -0.9 4.05 -2.0 L2.65 1.65 1.7 3.2 2.5 5.4 1.45 6.9 2.1 8.6 0.65 10.35 -2.0 8.3 -2.0 8.25" fill="url(#gradient10)" fill-rule="evenodd" stroke="none"/>
      <path d="M-2.0 8.25 Q-3.4 7.15 -3.9 5.55 L-3.25 2.65 Q-2.85 0.6 -3.95 -0.85 L-3.65 -3.7 Q-0.15 -0.9 4.05 -2.0 L2.65 1.65 1.7 3.2 2.5 5.4 1.45 6.9 2.1 8.6 0.65 10.35 -2.0 8.3 -2.1 8.2" fill="none" stroke="#000000" stroke-linecap="round" stroke-linejoin="round" stroke-width="0.05"/>
    </g>
    <radialGradient cx="0" cy="0" gradientTransform="matrix(0.0133, 0.0026, -0.0018, 0.0144, 0.8, -7.0)" gradientUnits="userSpaceOnUse" id="gradient0" r="819.2" spreadMethod="pad">
      <stop offset="0.0" stop-color="#6a7249"/>
      <stop offset="1.0" stop-color="#393a2c"/>
    </radialGradient>
    <radialGradient cx="0" cy="0" gradientTransform="matrix(0.0038, 7.0E-4, -5.0E-4, 0.0041, -0.45, 6.05)" gradientUnits="userSpaceOnUse" id="gradient1" r="819.2" spreadMethod="pad">
      <stop offset="0.0" stop-color="#6a7249"/>
      <stop offset="1.0" stop-color="#393a2c"/>
    </radialGradient>
    <radialGradient cx="0" cy="0" gradientTransform="matrix(0.0062, 0.0, 0.0, 0.0062, 0.1, 8.1)" gradientUnits="userSpaceOnUse" id="gradient2" r="819.2" spreadMethod="pad">
      <stop offset="0.0" stop-color="#b63030"/>
      <stop offset="0.6980392156862745" stop-color="#3f1616"/>
      <stop offset="1.0" stop-color="#412525"/>
    </radialGradient>
    <radialGradient cx="0" cy="0" gradientTransform="matrix(0.0104, 0.0, 0.0, 0.0104, 0.0, -2.6)" gradientUnits="userSpaceOnUse" id="gradient3" r="819.2" spreadMethod="pad">
      <stop offset="0.0" stop-color="#6b677e"/>
      <stop offset="0.792156862745098" stop-color="#1e1e1e"/>
      <stop offset="1.0" stop-color="#333333"/>
    </radialGradient>
    <radialGradient cx="0" cy="0" gradientTransform="matrix(0.0133, 0.0026, -0.0018, 0.0144, 0.8, -7.0)" gradientUnits="userSpaceOnUse" id="gradient4" r="819.2" spreadMethod="pad">
      <stop offset="0.0" stop-color="#6a7249"/>
      <stop offset="1.0" stop-color="#393a2c"/>
    </radialGradient>
    <radialGradient cx="0" cy="0" gradientTransform="matrix(0.0038, 7.0E-4, -5.0E-4, 0.0041, -0.45, 6.05)" gradientUnits="userSpaceOnUse" id="gradient5" r="819.2" spreadMethod="pad">
      <stop offset="0.0" stop-color="#6a7249"/>
      <stop offset="1.0" stop-color="#393a2c"/>
    </radialGradient>
    <radialGradient cx="0" cy="0" gradientTransform="matrix(0.0049, 0.0, 0.0, 0.0049, -0.2, 7.0)" gradientUnits="userSpaceOnUse" id="gradient6" r="819.2" spreadMethod="pad">
      <stop offset="0.0" stop-color="#ddd0c4"/>
      <stop offset="0.396078431372549" stop-color="#b39577"/>
      <stop offset="1.0" stop-color="#4b3834"/>
    </radialGradient>
    <radialGradient cx="0" cy="0" gradientTransform="matrix(0.0076, 0.0, 0.0, 0.0076, -0.5, -5.75)" gradientUnits="userSpaceOnUse" id="gradient7" r="819.2" spreadMethod="pad">
      <stop offset="0.0" stop-color="#a59785"/>
      <stop offset="0.4588235294117647" stop-color="#797464"/>
      <stop offset="1.0" stop-color="#361f1f"/>
    </radialGradient>
    <radialGradient cx="0" cy="0" gradientTransform="matrix(0.024, 0.0, 0.0, 0.024, -3.5, 27.25)" gradientUnits="userSpaceOnUse" id="gradient8" r="819.2" spreadMethod="pad">
      <stop offset="0.0" stop-color="#fecb81"/>
      <stop offset="0.3411764705882353" stop-color="#ff9900"/>
      <stop offset="0.6549019607843137" stop-color="#746250"/>
      <stop offset="1.0" stop-color="#361f1f"/>
    </radialGradient>
    <radialGradient cx="0" cy="0" gradientTransform="matrix(0.016, 0.0, 0.0, 0.016, -0.55, -2.7)" gradientUnits="userSpaceOnUse" id="gradient9" r="819.2" spreadMethod="pad">
      <stop offset="0.0" stop-color="#5f2929"/>
      <stop offset="1.0" stop-color="#242017"/>
    </radialGradient>
    <radialGradient cx="0" cy="0" gradientTransform="matrix(0.0115, 0.0, 0.0, 0.0115, -1.3, 1.15)" gradientUnits="userSpaceOnUse" id="gradient10" r="819.2" spreadMethod="pad">
      <stop offset="0.0" stop-color="#554a33"/>
      <stop offset="1.0" stop-color="#1f1f1d"/>
    </radialGradient>
    <g id="sprite0" transform="matrix(1.0, 0.0, 0.0, 1.0, 1.65, 2.3)">
      <use ffdec:characterId="1129" height="18.0" transform="matrix(0.0108, 0.0, 0.0, 0.2556, -1.6514, -2.3039)" width="304.05" xlink:href="#shape1"/>
    </g>
    <g id="shape1" transform="matrix(1.0, 0.0, 0.0, 1.0, 115.35, 20.95)">
      <path d="M188.7 -11.95 Q188.7 -8.2 144.1 -5.55 99.65 -2.95 36.7 -2.95 -26.3 -2.95 -70.8 -5.55 -115.35 -8.2 -115.35 -11.95 -115.35 -15.65 -70.8 -18.3 -26.3 -20.95 36.7 -20.95 99.65 -20.95 144.1 -18.3 188.7 -15.65 188.7 -11.95" fill="#ffffff" fill-rule="evenodd" stroke="none"/>
    </g>
    <g id="shape2" transform="matrix(1.0, 0.0, 0.0, 1.0, 3.95, -5.3)">
      <path d="M-0.25 10.1 L-0.55 12.0 -0.65 12.7 Q-1.8 8.8 -3.75 9.7 L-3.6 8.4 -3.35 6.9 Q-0.85 2.55 -0.25 10.1" fill="url(#gradient11)" fill-rule="evenodd" stroke="none"/>
      <path d="M-3.75 9.7 Q-1.8 8.8 -0.65 12.7 -1.8 21.4 0.25 31.75 -4.85 20.75 -3.75 9.7" fill="url(#gradient12)" fill-rule="evenodd" stroke="none"/>
      <path d="M-0.65 12.7 L-0.55 12.0 -0.25 10.1 M-3.35 6.9 L-3.6 8.4 -3.75 9.7 Q-1.8 8.8 -0.65 12.7 -1.8 21.4 0.25 31.75 -4.85 20.75 -3.75 9.7" fill="none" stroke="#000000" stroke-linecap="round" stroke-linejoin="round" stroke-width="0.05"/>
      <path d="M-1.45 10.0 L-1.35 8.7 -1.25 7.15 Q0.95 2.65 2.1 10.0 L1.95 11.95 1.9 12.6 Q0.45 8.85 -1.45 10.0" fill="url(#gradient13)" fill-rule="evenodd" stroke="none"/>
      <path d="M1.9 12.6 Q1.4 21.4 4.25 31.5 -1.7 21.1 -1.45 10.0 0.45 8.85 1.9 12.6" fill="url(#gradient14)" fill-rule="evenodd" stroke="none"/>
      <path d="M1.9 12.6 Q1.4 21.4 4.25 31.5 -1.7 21.1 -1.45 10.0 L-1.35 8.7 -1.25 7.15 M2.1 10.0 L1.95 11.95 1.9 12.6 Q0.45 8.85 -1.45 10.0" fill="none" stroke="#000000" stroke-linecap="round" stroke-linejoin="round" stroke-width="0.05"/>
    </g>
    <radialGradient cx="0" cy="0" gradientTransform="matrix(0.007, 0.0, 0.0, 0.0086, -2.0, 5.85)" gradientUnits="userSpaceOnUse" id="gradient11" r="819.2" spreadMethod="pad">
      <stop offset="0.0" stop-color="#554a33"/>
      <stop offset="1.0" stop-color="#1f1f1d"/>
    </radialGradient>
    <radialGradient cx="0" cy="0" gradientTransform="matrix(0.0236, 0.0, 0.0, 0.0236, -0.75, 28.65)" gradientUnits="userSpaceOnUse" id="gradient12" r="819.2" spreadMethod="pad">
      <stop offset="0.0" stop-color="#fecb81"/>
      <stop offset="0.3411764705882353" stop-color="#ff9900"/>
      <stop offset="0.6549019607843137" stop-color="#746250"/>
      <stop offset="1.0" stop-color="#361f1f"/>
    </radialGradient>
    <radialGradient cx="0" cy="0" gradientTransform="matrix(0.007, -8.0E-4, 7.0E-4, 0.0085, 0.05, 6.0)" gradientUnits="userSpaceOnUse" id="gradient13" r="819.2" spreadMethod="pad">
      <stop offset="0.0" stop-color="#554a33"/>
      <stop offset="1.0" stop-color="#1f1f1d"/>
    </radialGradient>
    <radialGradient cx="0" cy="0" gradientTransform="matrix(0.0244, 0.0, 0.0, 0.0244, 3.15, 29.25)" gradientUnits="userSpaceOnUse" id="gradient14" r="819.2" spreadMethod="pad">
      <stop offset="0.0" stop-color="#fecb81"/>
      <stop offset="0.3411764705882353" stop-color="#ff9900"/>
      <stop offset="0.6549019607843137" stop-color="#746250"/>
      <stop offset="1.0" stop-color="#361f1f"/>
    </radialGradient>
  </defs>
</svg>
