<?xml version="1.0" encoding="UTF-8" standalone="no"?>
<svg xmlns:ffdec="https://www.free-decompiler.com/flash" xmlns:xlink="http://www.w3.org/1999/xlink" ffdec:objectType="frame" height="308.8px" width="1116.6px" xmlns="http://www.w3.org/2000/svg">
  <g transform="matrix(2.0, 0.0, 0.0, 2.0, 543.9, 116.8)">
    <use ffdec:characterId="144" height="19.95" id="shadower" transform="matrix(0.6089, 0.1301, -0.2084, 0.9751, -17.7156, 23.7695)" width="65.05" xlink:href="#sprite0"/>
    <use ffdec:characterId="1768" height="50.65" transform="matrix(1.0, 0.0, 0.0, 1.0, -13.9, -11.75)" width="27.4" xlink:href="#sprite1"/>
    <use ffdec:characterId="105" height="45.1" transform="matrix(0.4351, 0.0, 0.0, 1.0, -77.2447, -19.95)" width="355.1" xlink:href="#shape2"/>
  </g>
  <defs>
    <g id="sprite0" transform="matrix(1.0, 0.0, 0.0, 1.0, 32.5, 9.95)">
      <use ffdec:characterId="143" height="19.95" transform="matrix(1.0, 0.0, 0.0, 1.0, -32.5, -9.95)" width="65.05" xlink:href="#shape0"/>
    </g>
    <g id="shape0" transform="matrix(1.0, 0.0, 0.0, 1.0, 32.5, 9.95)">
      <path d="M1.45 8.25 Q-12.05 10.55 -22.0 9.8 -31.85 9.0 -32.45 5.6 -33.05 2.2 -24.0 -1.85 -14.9 -5.9 -1.4 -8.2 12.1 -10.55 22.0 -9.75 31.95 -9.0 32.5 -5.6 33.1 -2.2 24.0 1.85 14.95 5.9 1.45 8.25" fill="url(#gradient0)" fill-rule="evenodd" stroke="none"/>
    </g>
    <radialGradient cx="0" cy="0" gradientTransform="matrix(0.0432, -0.0074, 0.0018, 0.0106, 0.05, 0.0)" gradientUnits="userSpaceOnUse" id="gradient0" r="819.2" spreadMethod="pad">
      <stop offset="0.3333333333333333" stop-color="#000000" stop-opacity="0.68235296"/>
      <stop offset="0.8627450980392157" stop-color="#000000" stop-opacity="0.0"/>
      <stop offset="1.0" stop-color="#000000" stop-opacity="0.0"/>
    </radialGradient>
    <g id="sprite1" transform="matrix(1.0, 0.0, 0.0, 1.0, 13.9, 19.0)">
      <use ffdec:characterId="1767" height="50.65" transform="matrix(1.0, 0.0, 0.0, 1.0, -13.9, -19.0)" width="27.4" xlink:href="#shape1"/>
    </g>
    <g id="shape1" transform="matrix(1.0, 0.0, 0.0, 1.0, 13.9, 19.0)">
      <path d="M8.65 -15.4 Q12.25 -11.8 12.25 -6.75 12.25 -1.7 8.65 1.9 5.05 5.5 0.0 5.5 -5.05 5.5 -8.65 1.9 -12.25 -1.7 -12.25 -6.75 -12.25 -11.8 -8.65 -15.4 -5.05 -19.0 0.0 -19.0 5.05 -19.0 8.65 -15.4" fill="url(#gradient1)" fill-rule="evenodd" stroke="none"/>
      <path d="M3.85 -3.5 Q1.65 -1.3 -1.5 -1.3 -4.65 -1.3 -6.85 -3.5 -9.05 -5.7 -9.05 -8.85 -9.05 -12.0 -6.85 -14.2 -4.65 -16.4 -1.5 -16.4 1.65 -16.4 3.85 -14.2 6.05 -12.0 6.05 -8.85 6.05 -5.7 3.85 -3.5" fill="url(#gradient2)" fill-rule="evenodd" stroke="none"/>
      <path d="M12.25 -6.75 Q12.25 -1.7 8.65 1.9 5.05 5.5 0.0 5.5 -5.05 5.5 -8.65 1.9 -12.25 -1.7 -12.25 -6.75 -12.25 -11.8 -8.65 -15.4 -5.05 -19.0 0.0 -19.0 5.05 -19.0 8.65 -15.4 12.25 -11.8 12.25 -6.75 Z" fill="none" stroke="#000000" stroke-linecap="round" stroke-linejoin="round" stroke-width="0.05"/>
      <path d="M3.45 18.95 Q3.75 22.9 3.0 26.75 2.65 29.35 5.85 30.95 1.2 32.7 -7.05 30.15 -5.95 29.6 -4.9 28.7 -3.4 27.35 -2.0 25.25 L-1.6 24.5 Q1.1 23.35 3.45 18.95" fill="url(#gradient3)" fill-rule="evenodd" stroke="none"/>
      <path d="M-3.8 6.65 Q-6.05 1.75 -10.15 -3.0 -4.2 -0.85 -0.5 5.25 L-0.45 5.3 Q-1.1 7.45 -3.1 8.2 L-3.8 6.65" fill="url(#gradient4)" fill-rule="evenodd" stroke="none"/>
      <path d="M-1.55 17.3 L-4.35 9.0 Q-2.9 10.95 -1.6 13.45 0.3 17.5 -0.55 21.45 L-1.55 17.3" fill="url(#gradient5)" fill-rule="evenodd" stroke="none"/>
      <path d="M0.75 7.55 Q1.45 6.45 2.3 5.5 L2.8 4.9 Q7.35 4.25 10.05 -0.1 L10.4 -0.2 Q11.55 -0.55 13.5 1.5 5.8 3.25 2.65 14.05 L1.75 10.1 0.75 7.55" fill="#171713" fill-rule="evenodd" stroke="none"/>
      <path d="M-4.9 28.7 L-5.65 26.95 Q-2.6 25.35 -1.55 17.3 L-0.55 21.45 Q-0.85 23.0 -1.6 24.5 L-2.0 25.25 Q-3.4 27.35 -4.9 28.7" fill="#34412e" fill-rule="evenodd" stroke="none"/>
      <path d="M-4.35 9.0 Q-7.85 3.2 -13.9 4.1 -8.3 -0.55 -3.8 6.65 L-3.1 8.2 Q-2.1 10.8 -1.6 13.45 -2.9 10.95 -4.35 9.0" fill="#2f3640" fill-rule="evenodd" stroke="none"/>
      <path d="M0.75 7.55 L1.75 10.1 2.65 14.05 Q3.25 16.5 3.45 18.95 1.1 23.35 -1.6 24.5 -0.85 23.0 -0.55 21.45 0.3 17.5 -1.6 13.45 -2.1 10.8 -3.1 8.2 -1.1 7.45 -0.45 5.3 L0.75 7.55" fill="url(#gradient6)" fill-rule="evenodd" stroke="none"/>
      <path d="M2.65 14.05 Q5.8 3.25 13.5 1.5 11.55 -0.55 10.4 -0.2 L10.05 -0.1 Q7.35 4.25 2.8 4.9 L2.3 5.5 Q1.45 6.45 0.75 7.55 L1.75 10.1 2.65 14.05 Q3.25 16.5 3.45 18.95 3.75 22.9 3.0 26.75 2.65 29.35 5.85 30.95 1.2 32.7 -7.05 30.15 -5.95 29.6 -4.9 28.7 L-5.65 26.95 Q-2.6 25.35 -1.55 17.3 L-4.35 9.0 Q-7.85 3.2 -13.9 4.1 -8.3 -0.55 -3.8 6.65 -6.05 1.75 -10.15 -3.0 -4.2 -0.85 -0.5 5.25 L-0.45 5.3 0.75 7.55 M-3.1 8.2 L-3.8 6.65 M-0.45 5.3 Q-1.1 7.45 -3.1 8.2 -2.1 10.8 -1.6 13.45 0.3 17.5 -0.55 21.45 -0.85 23.0 -1.6 24.5 1.1 23.35 3.45 18.95 M-1.55 17.3 L-0.55 21.45 M-1.6 13.45 Q-2.9 10.95 -4.35 9.0 M-1.6 24.5 L-2.0 25.25 Q-3.4 27.35 -4.9 28.7" fill="none" stroke="#000000" stroke-linecap="round" stroke-linejoin="round" stroke-width="0.05"/>
    </g>
    <radialGradient cx="0" cy="0" gradientTransform="matrix(0.0156, 0.0, 0.0, 0.0156, 0.0, -6.75)" gradientUnits="userSpaceOnUse" id="gradient1" r="819.2" spreadMethod="pad">
      <stop offset="0.0" stop-color="#ff6fe2"/>
      <stop offset="0.37254901960784315" stop-color="#8a4a8a"/>
      <stop offset="0.9294117647058824" stop-color="#1f141f"/>
    </radialGradient>
    <radialGradient cx="0" cy="0" gradientTransform="matrix(0.0172, 0.0, 0.0, 0.0172, -4.5, -14.5)" gradientUnits="userSpaceOnUse" id="gradient2" r="819.2" spreadMethod="pad">
      <stop offset="0.01568627450980392" stop-color="#ffffff"/>
      <stop offset="0.30980392156862746" stop-color="#ffffff" stop-opacity="0.17254902"/>
      <stop offset="1.0" stop-color="#ffffff" stop-opacity="0.0"/>
    </radialGradient>
    <linearGradient gradientTransform="matrix(-0.0062, 4.0E-4, -5.0E-4, -0.0076, -3.55, 25.8)" gradientUnits="userSpaceOnUse" id="gradient3" spreadMethod="pad" x1="-819.2" x2="819.2">
      <stop offset="0.0" stop-color="#504d38"/>
      <stop offset="1.0" stop-color="#2e2934"/>
    </linearGradient>
    <linearGradient gradientTransform="matrix(0.0019, -0.0014, 0.0048, 0.0066, -5.3, 1.75)" gradientUnits="userSpaceOnUse" id="gradient4" spreadMethod="pad" x1="-819.2" x2="819.2">
      <stop offset="0.0" stop-color="#504d38"/>
      <stop offset="1.0" stop-color="#2e2934"/>
    </linearGradient>
    <linearGradient gradientTransform="matrix(0.0025, 0.0, 0.0, 0.0076, -2.35, 15.2)" gradientUnits="userSpaceOnUse" id="gradient5" spreadMethod="pad" x1="-819.2" x2="819.2">
      <stop offset="0.0" stop-color="#604428"/>
      <stop offset="1.0" stop-color="#242d39"/>
    </linearGradient>
    <linearGradient gradientTransform="matrix(-0.0056, 0.0033, -0.0049, -0.0085, -0.95, 14.95)" gradientUnits="userSpaceOnUse" id="gradient6" spreadMethod="pad" x1="-819.2" x2="819.2">
      <stop offset="0.0" stop-color="#775b34"/>
      <stop offset="0.1607843137254902" stop-color="#c5a576"/>
      <stop offset="0.27058823529411763" stop-color="#856536"/>
      <stop offset="1.0" stop-color="#221f25"/>
    </linearGradient>
    <g id="shape2" transform="matrix(1.0, 0.0, 0.0, 1.0, 177.55, 22.55)">
      <path d="M125.55 -15.95 Q177.55 -9.35 177.55 0.0 177.55 9.35 125.55 15.95 73.6 22.55 0.0 22.55 -73.6 22.55 -125.55 15.95 -177.55 9.35 -177.55 0.0 -177.55 -9.35 -125.55 -15.95 -73.6 -22.55 0.0 -22.55 73.6 -22.55 125.55 -15.95" fill="url(#gradient7)" fill-rule="evenodd" stroke="none"/>
    </g>
    <radialGradient cx="0" cy="0" gradientTransform="matrix(0.2204, 0.0, 0.0, 0.028, -0.05, 0.0)" gradientUnits="userSpaceOnUse" id="gradient7" r="819.2" spreadMethod="pad">
      <stop offset="0.06274509803921569" stop-color="#fffdff" stop-opacity="0.21960784"/>
      <stop offset="0.12941176470588237" stop-color="#fffdff" stop-opacity="0.18039216"/>
      <stop offset="0.21176470588235294" stop-color="#fffdff" stop-opacity="0.16862746"/>
      <stop offset="0.44313725490196076" stop-color="#fffdff" stop-opacity="0.047058824"/>
      <stop offset="0.9098039215686274" stop-color="#fffdff" stop-opacity="0.0"/>
    </radialGradient>
  </defs>
</svg>
