<?xml version="1.0" encoding="UTF-8" standalone="no"?>
<svg xmlns:ffdec="https://www.free-decompiler.com/flash" xmlns:xlink="http://www.w3.org/1999/xlink" ffdec:objectType="frame" height="308.8px" width="1116.6px" xmlns="http://www.w3.org/2000/svg">
  <g transform="matrix(2.0, 0.0, 0.0, 2.0, 558.3, 126.9)">
    <use ffdec:characterId="1791" height="65.05" transform="matrix(1.228, 0.0, 0.0, 1.2299, -45.2268, -56.7729)" width="65.6" xlink:href="#shape0"/>
    <use ffdec:characterId="1791" height="65.05" transform="matrix(1.228, 0.0, 0.0, 1.2299, -59.6768, -37.7729)" width="65.6" xlink:href="#shape0"/>
    <use ffdec:characterId="1791" height="65.05" transform="matrix(1.228, 0.0, 0.0, 1.2299, -23.7768, -47.6229)" width="65.6" xlink:href="#shape0"/>
    <filter id="filter0">
      <feColorMatrix in="SourceGraphic" result="filterResult0" type="matrix" values="0 0 0 0 1.0,0 0 0 0 0.6,0 0 0 0 0.0,0 0 0 1 0"/>
      <feConvolveMatrix divisor="16.0" in="filterResult0" kernelMatrix="1 1 1 1 1 1 1 1 1 1 1 1 1 1 1 1" order="4 4" result="filterResult1"/>
      <feConvolveMatrix divisor="16.0" in="filterResult1" kernelMatrix="1 1 1 1 1 1 1 1 1 1 1 1 1 1 1 1" order="4 4" result="filterResult2"/>
      <feConvolveMatrix divisor="16.0" in="filterResult2" kernelMatrix="1 1 1 1 1 1 1 1 1 1 1 1 1 1 1 1" order="4 4" result="filterResult3"/>
      <feComposite in="SourceGraphic" in2="filterResult3" operator="over" result="filterResult4"/>
    </filter>
    <use ffdec:characterId="1793" filter="url(#filter0)" height="59.95" transform="matrix(1.0, 0.0, 0.0, 1.0, -24.6, -32.95)" width="50.65" xlink:href="#sprite0"/>
    <use ffdec:characterId="1790" height="129.3" transform="matrix(1.0, 0.0, 0.0, 1.0, -94.0, -46.3)" width="187.85" xlink:href="#sprite1"/>
  </g>
  <defs>
    <g id="shape0" transform="matrix(1.0, 0.0, 0.0, 1.0, 32.8, 32.5)">
      <path d="M32.8 -0.4 Q33.0 13.15 23.5 22.75 14.0 32.4 0.45 32.55 -13.05 32.75 -22.85 23.35 -32.6 14.0 -32.8 0.45 -33.0 -13.05 -23.5 -22.7 -13.95 -32.3 -0.45 -32.5 13.1 -32.65 22.85 -23.3 32.6 -13.9 32.8 -0.4" fill="url(#gradient0)" fill-rule="evenodd" stroke="none"/>
    </g>
    <radialGradient cx="0" cy="0" gradientTransform="matrix(0.041, 0.0, 0.0, 0.041, 0.0, 0.0)" gradientUnits="userSpaceOnUse" id="gradient0" r="819.2" spreadMethod="pad">
      <stop offset="0.0" stop-color="#808080" stop-opacity="0.7921569"/>
      <stop offset="0.3843137254901961" stop-color="#5e5e5e" stop-opacity="0.8901961"/>
      <stop offset="1.0" stop-color="#394334" stop-opacity="0.0"/>
    </radialGradient>
    <g id="sprite0" transform="matrix(1.0, 0.0, 0.0, 1.0, 25.5, 21.85)">
      <use ffdec:characterId="1792" height="59.95" transform="matrix(1.0, 0.0, 0.0, 1.0, -25.5, -21.85)" width="50.65" xlink:href="#shape1"/>
    </g>
    <g id="shape1" transform="matrix(1.0, 0.0, 0.0, 1.0, 25.5, 21.85)">
      <path d="M12.85 -19.8 Q11.4 -19.8 11.4 -20.95 11.4 -21.75 11.6 -21.8 L12.1 -21.8 12.9 -21.75 Q13.1 -21.75 13.1 -21.0 L12.85 -19.8 M2.85 -7.05 Q2.4 -6.2 1.85 -6.05 L1.35 -6.05 1.4 -7.8 2.35 -7.8 2.85 -7.05 M24.85 5.8 L23.85 5.8 23.4 4.6 24.1 4.1 25.15 4.6 24.85 5.8 M10.5 7.65 L10.65 8.45 Q10.65 9.7 9.9 10.3 L9.1 10.1 Q8.9 10.2 8.9 8.95 L9.15 7.85 10.35 7.8 10.5 7.65 M9.65 21.1 L10.15 21.85 Q9.85 22.3 9.15 22.3 L8.9 21.55 Q9.35 21.1 9.65 21.1 M0.9 31.65 Q0.9 30.15 2.1 29.6 2.95 29.85 3.35 31.3 L2.9 32.35 1.1 32.3 Q0.9 32.9 0.9 31.65 M-12.15 -18.2 L-13.25 -18.2 Q-13.65 -18.75 -13.65 -19.5 L-13.5 -20.3 -12.65 -20.3 Q-11.9 -20.2 -11.4 -19.7 -11.4 -18.85 -12.15 -18.2 M-23.4 5.85 L-23.5 6.1 -24.75 6.3 -25.5 5.55 Q-25.1 4.35 -23.75 4.35 L-23.4 5.85 M-21.9 36.05 Q-21.9 35.2 -20.65 35.55 L-20.5 36.1 -21.9 36.05 M-13.0 38.1 L-14.25 38.1 -14.4 37.55 Q-14.15 37.2 -13.15 37.55 L-13.0 38.1" fill="#ffffff" fill-rule="evenodd" stroke="none"/>
    </g>
    <g id="sprite1" transform="matrix(1.0, 0.0, 0.0, 1.0, 88.2, 63.75)">
      <filter id="filter1">
        <feColorMatrix in="SourceGraphic" result="filterResult5" type="matrix" values="0 0 0 0 1.0,0 0 0 0 0.8,0 0 0 0 0.0,0 0 0 1 0"/>
        <feConvolveMatrix divisor="729.0" in="filterResult5" kernelMatrix="1 1 1 1 1 1 1 1 1 1 1 1 1 1 1 1 1 1 1 1 1 1 1 1 1 1 1 1 1 1 1 1 1 1 1 1 1 1 1 1 1 1 1 1 1 1 1 1 1 1 1 1 1 1 1 1 1 1 1 1 1 1 1 1 1 1 1 1 1 1 1 1 1 1 1 1 1 1 1 1 1 1 1 1 1 1 1 1 1 1 1 1 1 1 1 1 1 1 1 1 1 1 1 1 1 1 1 1 1 1 1 1 1 1 1 1 1 1 1 1 1 1 1 1 1 1 1 1 1 1 1 1 1 1 1 1 1 1 1 1 1 1 1 1 1 1 1 1 1 1 1 1 1 1 1 1 1 1 1 1 1 1 1 1 1 1 1 1 1 1 1 1 1 1 1 1 1 1 1 1 1 1 1 1 1 1 1 1 1 1 1 1 1 1 1 1 1 1 1 1 1 1 1 1 1 1 1 1 1 1 1 1 1 1 1 1 1 1 1 1 1 1 1 1 1 1 1 1 1 1 1 1 1 1 1 1 1 1 1 1 1 1 1 1 1 1 1 1 1 1 1 1 1 1 1 1 1 1 1 1 1 1 1 1 1 1 1 1 1 1 1 1 1 1 1 1 1 1 1 1 1 1 1 1 1 1 1 1 1 1 1 1 1 1 1 1 1 1 1 1 1 1 1 1 1 1 1 1 1 1 1 1 1 1 1 1 1 1 1 1 1 1 1 1 1 1 1 1 1 1 1 1 1 1 1 1 1 1 1 1 1 1 1 1 1 1 1 1 1 1 1 1 1 1 1 1 1 1 1 1 1 1 1 1 1 1 1 1 1 1 1 1 1 1 1 1 1 1 1 1 1 1 1 1 1 1 1 1 1 1 1 1 1 1 1 1 1 1 1 1 1 1 1 1 1 1 1 1 1 1 1 1 1 1 1 1 1 1 1 1 1 1 1 1 1 1 1 1 1 1 1 1 1 1 1 1 1 1 1 1 1 1 1 1 1 1 1 1 1 1 1 1 1 1 1 1 1 1 1 1 1 1 1 1 1 1 1 1 1 1 1 1 1 1 1 1 1 1 1 1 1 1 1 1 1 1 1 1 1 1 1 1 1 1 1 1 1 1 1 1 1 1 1 1 1 1 1 1 1 1 1 1 1 1 1 1 1 1 1 1 1 1 1 1 1 1 1 1 1 1 1 1 1 1 1 1 1 1 1 1 1 1 1 1 1 1 1 1 1 1 1 1 1 1 1 1 1 1 1 1 1 1 1 1 1 1 1 1 1 1 1 1 1 1 1 1 1 1 1 1 1 1 1 1 1 1 1 1 1 1 1 1 1 1 1 1 1 1 1 1 1 1 1 1 1 1 1 1 1 1 1 1 1 1 1 1 1 1 1 1 1 1 1 1 1 1 1 1 1 1 1 1 1 1 1 1 1 1 1 1 1 1 1 1 1 1 1 1 1 1 1 1 1 1 1 1 1 1 1 1 1 1 1 1 1 1 1 1 1 1 1 1 1 1 1 1 1 1 1 1 1 1 1 1 1 1 1 1 1 1 1 1 1 1 1 1 1 1 1 1 1 1 1 1 1 1 1 1 1 1 1 1 1 1 1 1 1 1 1 1 1 1 1 1 1 1 1 1 1" order="27 27" result="filterResult6"/>
        <feComposite in="SourceGraphic" in2="filterResult6" operator="over" result="filterResult7"/>
      </filter>
      <use ffdec:characterId="1789" filter="url(#filter1)" height="117.85" transform="matrix(0.5478, 0.0, 0.0, 0.5676, -44.6478, -44.0229)" width="160.4" xlink:href="#sprite2"/>
      <filter id="filter2">
        <feColorMatrix in="SourceGraphic" result="filterResult8" type="matrix" values="0 0 0 0 1.0,0 0 0 0 1.0,0 0 0 0 1.0,0 0 0 1 0"/>
        <feConvolveMatrix divisor="144.0" in="filterResult8" kernelMatrix="1 1 1 1 1 1 1 1 1 1 1 1 1 1 1 1 1 1 1 1 1 1 1 1 1 1 1 1 1 1 1 1 1 1 1 1 1 1 1 1 1 1 1 1 1 1 1 1 1 1 1 1 1 1 1 1 1 1 1 1 1 1 1 1 1 1 1 1 1 1 1 1 1 1 1 1 1 1 1 1 1 1 1 1 1 1 1 1 1 1 1 1 1 1 1 1 1 1 1 1 1 1 1 1 1 1 1 1 1 1 1 1 1 1 1 1 1 1 1 1 1 1 1 1 1 1 1 1 1 1 1 1 1 1 1 1 1 1 1 1 1 1 1 1" order="12 12" result="filterResult9"/>
        <feComposite in="SourceGraphic" in2="filterResult9" operator="over" result="filterResult10"/>
      </filter>
      <use ffdec:characterId="1779" filter="url(#filter2)" height="127.35" transform="matrix(0.5478, 0.0, 0.0, 0.5676, -46.8891, -42.9377)" width="187.85" xlink:href="#sprite3"/>
    </g>
    <g id="sprite2" transform="matrix(1.0, 0.0, 0.0, 1.0, 83.6, 64.35)">
      <use ffdec:characterId="1780" height="100.75" transform="matrix(1.0, 0.0, 0.0, 1.0, -74.05, -55.7)" width="150.85" xlink:href="#shape2"/>
    </g>
    <g id="shape2" transform="matrix(1.0, 0.0, 0.0, 1.0, 74.05, 55.7)">
      <path d="M7.95 -55.7 Q13.9 -55.75 16.1 -54.35 L17.65 -52.75 Q18.2 -53.2 19.25 -53.6 21.15 -54.4 22.0 -54.4 26.35 -54.45 25.75 -49.05 25.7 -44.9 23.9 -44.85 20.2 -46.05 19.05 -46.0 18.55 -44.95 17.3 -44.15 14.75 -42.6 10.95 -43.9 L9.6 -43.85 Q10.5 -42.35 10.5 -41.05 L10.25 -38.9 11.2 -39.0 Q13.45 -39.05 15.7 -37.6 L17.85 -36.15 20.7 -37.1 Q23.4 -38.1 26.4 -38.1 29.45 -38.1 32.75 -37.1 L34.3 -36.6 34.7 -36.85 36.5 -37.4 37.45 -37.85 Q46.25 -33.8 46.65 -33.8 48.0 -33.8 50.35 -31.75 51.8 -30.45 52.45 -29.4 53.3 -28.5 53.3 -27.75 L53.15 -26.35 Q52.5 -26.0 51.35 -25.95 L45.6 -26.45 Q43.7 -26.45 42.85 -27.55 41.7 -25.75 38.1 -26.65 38.55 -25.25 38.6 -24.05 L37.7 -20.95 38.8 -21.65 39.75 -20.95 Q38.7 -19.85 37.15 -19.5 L36.2 -17.25 36.95 -17.5 45.15 -16.15 Q52.6 -14.7 55.15 -13.6 L60.9 -11.0 65.4 -10.8 70.75 -9.6 Q75.95 -8.3 76.8 -7.7 L76.15 -5.2 68.35 -5.7 Q67.8 -5.7 66.15 -4.1 64.4 -2.55 63.95 -2.55 60.2 -2.55 57.95 -4.2 55.1 -0.55 51.7 -0.55 46.9 -0.55 44.85 -1.7 L42.1 -3.25 Q41.7 -1.85 40.95 -0.8 39.6 1.0 36.5 1.15 37.15 3.7 37.2 8.3 37.2 12.65 36.9 13.35 L32.85 19.55 Q36.75 20.2 39.1 24.95 40.45 27.7 40.9 30.45 40.85 33.35 40.2 34.8 43.05 34.9 43.7 39.4 43.7 40.5 42.55 42.5 41.1 45.05 39.25 45.05 33.6 45.05 32.65 42.7 32.0 41.2 32.85 40.1 24.45 38.6 22.8 34.55 L21.4 31.4 Q20.65 30.45 19.3 29.75 15.75 31.5 6.1 31.55 -5.25 31.55 -13.1 26.2 -15.65 24.45 -17.45 22.4 -18.8 20.85 -18.75 20.55 L-18.7 20.35 -18.65 20.25 -18.85 20.3 Q-23.05 22.0 -31.65 21.45 -32.35 23.65 -36.05 25.6 L-38.55 27.25 -38.6 27.3 Q-39.4 28.0 -39.35 28.5 -39.15 28.0 -38.35 27.55 L-37.95 27.8 -39.2 30.25 Q-40.15 31.75 -41.8 31.8 -46.1 31.75 -46.75 28.35 -47.55 27.4 -47.55 26.05 -47.55 25.05 -45.25 22.9 L-42.95 20.65 Q-42.95 19.1 -51.2 8.7 -60.25 -2.65 -64.45 -2.65 -73.2 -2.65 -74.05 -6.9 L-73.9 -7.45 -73.45 -7.55 -73.25 -7.4 -73.35 -8.85 Q-73.35 -12.0 -71.6 -12.65 -69.25 -13.6 -58.75 -13.6 L-53.45 -16.95 Q-48.05 -20.4 -45.5 -20.35 L-37.95 -19.65 -37.85 -19.55 -37.05 -20.0 -37.05 -20.05 -38.4 -22.8 Q-39.75 -25.7 -39.7 -26.5 -39.75 -28.85 -38.7 -30.95 -38.05 -32.4 -37.2 -33.1 -39.4 -34.9 -38.35 -38.1 -43.2 -40.15 -44.3 -41.95 L-44.3 -42.1 Q-37.0 -52.5 -31.65 -52.45 -27.5 -52.45 -26.0 -50.2 L-25.2 -48.75 Q-24.85 -48.05 -24.4 -48.05 -23.75 -48.05 -22.3 -48.85 -20.95 -49.75 -20.6 -49.75 -14.45 -49.75 -11.6 -46.35 L-10.4 -44.4 -8.5 -45.95 Q-5.7 -47.8 -3.1 -47.8 L3.65 -47.2 Q3.1 -47.9 3.1 -48.6 3.1 -50.3 4.05 -52.4 5.4 -55.75 7.95 -55.7 M11.4 -54.2 Q5.75 -54.2 4.8 -50.8 4.2 -48.75 5.2 -46.95 L4.9 -46.7 5.05 -46.65 5.1 -46.65 5.9 -46.4 5.9 -45.7 1.75 -46.25 Q-5.8 -46.25 -8.5 -44.25 L-9.75 -42.8 -9.3 -41.5 -9.65 -40.8 -10.55 -41.5 -11.05 -42.1 -12.9 -44.7 Q-15.15 -48.05 -17.15 -48.05 -21.35 -48.05 -22.2 -47.15 -23.1 -46.25 -24.3 -46.25 -25.9 -46.25 -26.9 -48.6 -27.9 -50.95 -29.1 -50.9 -35.4 -50.9 -36.85 -47.75 L-38.35 -44.85 Q-38.95 -43.95 -39.9 -43.2 -39.15 -41.5 -37.1 -40.2 -34.25 -38.35 -30.95 -38.3 -29.75 -38.35 -27.95 -39.3 L-25.65 -40.65 -24.9 -40.65 Q-24.6 -40.6 -24.6 -39.85 -24.6 -38.75 -27.45 -34.7 -29.9 -31.25 -30.95 -30.15 -25.8 -30.05 -22.3 -32.6 -20.5 -33.9 -19.2 -35.55 -18.15 -36.25 -18.15 -35.05 -18.2 -32.35 -26.1 -26.1 -31.2 -22.15 -35.55 -19.65 L-36.35 -17.8 -37.2 -17.9 -37.05 -17.7 -37.95 -17.25 -39.25 -18.2 Q-39.85 -18.65 -41.55 -18.65 -48.75 -18.65 -52.5 -15.65 -56.35 -12.7 -62.3 -12.65 -70.55 -12.7 -72.35 -10.55 L-72.6 -10.2 -72.85 -9.55 -72.6 -7.6 -72.2 -7.65 -72.4 -8.5 -72.4 -10.1 -72.2 -10.5 Q-69.45 -6.05 -67.0 -6.05 -58.1 -6.05 -56.45 -7.75 -56.05 -8.2 -55.85 -9.2 -55.65 -10.25 -55.15 -10.7 -53.4 -6.85 -52.45 -5.7 -49.7 -2.45 -44.8 -2.4 -36.35 -2.45 -36.35 -12.6 L-35.55 -12.6 Q-34.75 -11.85 -34.2 -8.5 -33.45 -4.45 -32.6 -2.45 -29.2 5.4 -16.7 5.4 L-15.95 5.6 -15.85 4.45 -15.4 4.45 Q-15.1 5.4 -15.1 6.3 L-15.4 6.8 -15.6 6.8 -15.6 6.85 Q-15.0 10.15 -13.35 12.35 -9.8 17.3 1.05 17.3 9.35 17.3 13.05 1.95 L13.8 1.65 Q14.8 1.65 15.4 3.4 15.95 5.15 18.55 5.15 28.55 5.15 31.25 1.2 32.6 -0.85 31.95 -2.9 31.95 -4.2 32.35 -4.75 L32.2 -4.8 32.85 -4.9 33.5 -4.35 33.9 -6.75 Q34.05 -9.2 34.9 -10.25 35.6 -9.65 41.15 -6.85 44.4 -6.85 46.45 -8.1 48.5 -9.45 48.8 -9.4 49.85 -9.4 50.85 -8.55 51.8 -7.8 52.0 -7.8 55.45 -7.8 56.6 -9.75 L57.25 -10.8 54.85 -11.8 Q46.5 -14.95 41.1 -12.9 L39.9 -14.6 Q38.8 -15.95 37.65 -15.95 36.95 -15.95 35.15 -14.75 L34.55 -14.75 34.45 -15.4 33.75 -15.45 Q33.55 -15.6 33.55 -16.35 33.55 -17.25 36.15 -18.6 L36.85 -19.45 35.5 -19.35 Q31.7 -19.35 28.25 -21.85 26.2 -23.35 25.3 -24.65 L23.5 -25.05 Q23.0 -25.35 22.75 -26.2 L23.2 -26.65 Q23.7 -25.75 25.25 -25.75 L25.5 -25.75 Q33.05 -25.8 34.5 -30.05 35.1 -32.05 34.65 -34.9 L33.95 -35.2 33.5 -35.05 33.4 -34.85 33.3 -35.45 Q30.55 -36.4 28.0 -36.35 22.0 -36.35 19.4 -34.95 L17.15 -33.2 15.2 -35.6 Q13.35 -37.15 9.65 -37.75 L8.85 -37.15 8.0 -37.3 7.9 -37.1 Q7.75 -37.1 7.75 -37.8 7.75 -38.15 8.45 -39.2 9.1 -40.25 9.1 -40.8 L7.7 -45.7 11.85 -45.1 Q16.4 -45.1 17.4 -46.45 L17.85 -47.5 Q18.05 -48.15 18.55 -48.35 L22.05 -46.65 Q23.25 -46.65 24.05 -47.1 L24.1 -49.2 Q24.1 -52.8 22.55 -52.8 L19.65 -51.95 18.65 -51.5 Q18.95 -51.1 17.9 -51.05 L17.15 -50.95 Q17.0 -50.95 17.0 -51.2 15.8 -51.5 14.15 -52.6 11.8 -54.2 11.4 -54.2 M18.7 -16.45 L19.05 -18.25 20.35 -18.3 20.85 -18.9 Q21.1 -18.7 21.4 -18.65 L21.55 -17.8 Q21.5 -16.05 19.75 -14.55 17.1 -3.05 8.7 -3.0 -3.65 -3.05 -9.55 -11.9 -12.5 -16.35 -13.0 -20.8 L-12.75 -21.45 -12.85 -21.9 Q-12.9 -23.1 -12.3 -23.3 -11.1 -20.15 -8.4 -17.4 -3.0 -12.0 5.75 -11.95 12.95 -12.0 15.9 -14.0 17.0 -14.75 18.7 -16.45 M27.0 -24.25 L27.3 -24.55 26.65 -24.55 27.0 -24.25 M42.05 -28.65 L42.4 -28.55 42.35 -28.7 42.05 -28.65 M58.85 -5.45 L58.7 -5.2 58.75 -5.2 58.85 -5.45 M-26.7 -38.1 L-26.7 -38.45 -26.75 -38.45 -26.7 -38.1 M-22.7 -30.75 L-22.9 -30.65 -22.9 -30.4 -22.7 -30.75 M-37.45 -18.6 L-37.45 -18.55 -37.45 -18.6 M-35.1 -8.6 L-35.35 -8.85 -35.35 -8.75 -35.1 -8.6 M-17.25 19.45 L-17.5 19.65 -17.15 19.6 -17.25 19.45 M-39.7 28.5 L-39.8 28.8 -39.9 29.0 -39.45 28.8 -39.35 28.5 -39.7 28.5 M-45.95 26.2 L-46.15 26.1 -46.15 26.15 -46.15 26.35 -45.95 26.2" fill="#ffffff" fill-rule="evenodd" stroke="none"/>
    </g>
    <g id="sprite3" transform="matrix(1.0, 0.0, 0.0, 1.0, 87.6, 62.35)">
      <use ffdec:characterId="1769" height="109.55" transform="matrix(1.0, 0.0, 0.0, 1.0, -82.4, -54.2)" width="163.65" xlink:href="#shape3"/>
    </g>
    <g id="shape3" transform="matrix(1.0, 0.0, 0.0, 1.0, 82.4, 54.2)">
      <path d="M14.15 -52.6 Q15.8 -51.5 17.0 -51.2 17.0 -50.95 17.15 -50.95 L17.9 -51.05 18.15 -51.05 Q18.9 -51.15 18.65 -51.5 L19.65 -51.95 22.55 -52.8 Q24.1 -52.8 24.1 -49.2 L24.05 -47.1 Q23.25 -46.65 22.05 -46.65 L18.55 -48.35 Q18.05 -48.15 17.85 -47.5 L17.4 -46.45 Q16.4 -45.1 11.85 -45.1 L7.7 -45.7 9.1 -40.8 Q9.1 -40.25 8.45 -39.2 7.75 -38.15 7.75 -37.8 7.75 -37.1 7.9 -37.1 L8.0 -37.3 8.85 -37.15 9.65 -37.75 Q13.35 -37.15 15.2 -35.6 L17.15 -33.2 19.4 -34.95 Q22.0 -36.35 28.0 -36.35 30.55 -36.4 33.3 -35.45 L33.4 -34.85 33.5 -35.05 33.95 -35.2 34.65 -34.9 Q35.1 -32.05 34.5 -30.05 33.05 -25.8 25.5 -25.75 L25.25 -25.75 Q23.7 -25.75 23.2 -26.65 L22.75 -26.2 Q23.0 -25.35 23.5 -25.05 L25.3 -24.65 Q26.2 -23.35 28.25 -21.85 31.7 -19.35 35.5 -19.35 L36.85 -19.45 36.15 -18.6 Q33.55 -17.25 33.55 -16.35 33.55 -15.6 33.75 -15.45 L34.45 -15.4 34.55 -14.75 35.15 -14.75 Q36.95 -15.95 37.65 -15.95 38.8 -15.95 39.9 -14.6 L41.1 -12.9 Q46.5 -14.95 54.85 -11.8 L57.25 -10.8 56.6 -9.75 Q55.45 -7.8 52.0 -7.8 51.8 -7.8 50.85 -8.55 49.85 -9.4 48.8 -9.4 48.5 -9.45 46.45 -8.1 44.4 -6.85 41.15 -6.85 35.6 -9.65 34.9 -10.25 34.05 -9.2 33.9 -6.75 L33.5 -4.35 32.85 -4.9 32.2 -4.8 32.35 -4.75 Q31.95 -4.2 31.95 -2.9 32.6 -0.85 31.25 1.2 28.55 5.15 18.55 5.15 15.95 5.15 15.4 3.4 14.8 1.65 13.8 1.65 L13.05 1.95 Q9.35 17.3 1.05 17.3 -9.8 17.3 -13.35 12.35 -15.0 10.15 -15.6 6.85 L-15.4 6.8 -15.1 6.3 Q-15.1 5.4 -15.4 4.45 L-15.85 4.45 -15.95 5.6 -16.7 5.4 Q-29.2 5.4 -32.6 -2.45 -33.45 -4.45 -34.2 -8.5 -34.75 -11.85 -35.55 -12.6 L-36.35 -12.6 Q-36.35 -2.45 -44.8 -2.4 -49.7 -2.45 -52.45 -5.7 -53.4 -6.85 -55.15 -10.7 -55.65 -10.25 -55.85 -9.2 -56.05 -8.2 -56.45 -7.75 -58.1 -6.05 -67.0 -6.05 -69.45 -6.05 -72.2 -10.5 L-72.4 -10.1 -72.6 -10.2 -72.35 -10.55 Q-70.55 -12.7 -62.3 -12.65 -56.35 -12.7 -52.5 -15.65 -48.75 -18.65 -41.55 -18.65 -39.85 -18.65 -39.25 -18.2 L-37.95 -17.25 -37.05 -17.7 -37.2 -17.9 -36.35 -17.8 -35.55 -19.65 Q-31.2 -22.15 -26.1 -26.1 -18.2 -32.35 -18.15 -35.05 -18.15 -36.25 -19.2 -35.55 -20.5 -33.9 -22.3 -32.6 -25.8 -30.05 -30.95 -30.15 -29.9 -31.25 -27.45 -34.7 -24.6 -38.75 -24.6 -39.85 -24.6 -40.6 -24.9 -40.65 L-25.65 -40.65 -27.95 -39.3 Q-29.75 -38.35 -30.95 -38.3 -34.25 -38.35 -37.1 -40.2 -39.15 -41.5 -39.9 -43.2 -38.95 -43.95 -38.35 -44.85 L-36.85 -47.75 Q-35.4 -50.9 -29.1 -50.9 -27.9 -50.95 -26.9 -48.6 -25.9 -46.25 -24.3 -46.25 -23.1 -46.25 -22.2 -47.15 -21.35 -48.05 -17.15 -48.05 -15.15 -48.05 -12.9 -44.7 L-11.05 -42.1 -10.55 -41.5 -9.65 -40.8 -9.3 -41.5 -9.75 -42.8 -8.5 -44.25 Q-5.8 -46.25 1.75 -46.25 L5.9 -45.7 5.9 -46.4 5.1 -46.65 5.05 -46.65 5.2 -46.95 Q4.2 -48.75 4.8 -50.8 5.75 -54.2 11.4 -54.2 11.8 -54.2 14.15 -52.6 M32.6 -49.9 Q32.6 -47.8 31.7 -47.8 L28.0 -47.9 27.55 -51.05 27.8 -52.1 30.3 -52.3 Q33.3 -52.35 32.6 -49.9 M8.7 -3.0 Q17.1 -3.05 19.75 -14.55 21.5 -16.05 21.55 -17.8 L21.4 -18.65 Q21.1 -18.7 20.85 -18.9 L20.35 -18.3 19.05 -18.25 18.7 -16.45 Q17.0 -14.75 15.9 -14.0 12.95 -12.0 5.75 -11.95 -3.0 -12.0 -8.4 -17.4 -11.1 -20.15 -12.3 -23.3 -12.9 -23.1 -12.85 -21.9 L-12.75 -21.45 -13.0 -20.8 Q-12.5 -16.35 -9.55 -11.9 -3.65 -3.05 8.7 -3.0 M44.05 -32.4 Q44.75 -31.75 44.75 -31.25 44.75 -29.35 43.1 -29.35 41.9 -29.35 40.75 -30.85 L40.75 -33.0 41.5 -33.25 Q43.1 -33.25 44.05 -32.4 M54.75 -20.3 Q54.75 -22.95 57.45 -22.95 60.55 -22.95 60.7 -19.8 60.65 -18.2 58.0 -18.2 56.3 -18.2 55.35 -19.2 L54.75 -20.3 M78.4 -6.05 L78.35 -5.85 Q78.25 -5.85 78.25 -6.55 78.25 -8.5 79.8 -8.5 L81.25 -8.4 Q81.0 -7.0 81.2 -6.3 80.9 -5.95 80.15 -5.9 L78.4 -6.05 M43.2 49.5 Q44.25 49.5 45.95 50.85 47.6 52.15 47.6 53.05 47.6 53.9 46.85 54.65 46.1 55.3 45.25 55.35 43.3 55.3 42.5 53.4 42.0 52.3 42.05 51.2 42.0 50.25 42.55 49.5 L43.2 49.5 M31.5 33.75 Q28.85 33.75 27.45 30.5 26.55 28.35 26.55 26.5 26.55 26.0 27.45 25.25 28.25 24.55 28.5 24.55 33.25 24.55 34.55 30.1 34.55 33.75 31.5 33.75 M-46.85 -51.75 Q-44.55 -51.75 -43.1 -50.35 -42.05 -49.35 -42.0 -48.75 -42.05 -45.55 -45.5 -45.55 -49.05 -45.55 -49.7 -48.75 -49.7 -49.65 -48.7 -50.7 -47.65 -51.75 -46.85 -51.75 M-57.45 -45.55 Q-60.1 -45.55 -60.75 -47.25 -60.8 -50.35 -59.05 -50.35 -55.4 -50.35 -55.4 -48.05 -55.4 -47.3 -55.95 -46.5 -56.6 -45.55 -57.45 -45.55 M-29.6 11.85 L-29.25 13.6 Q-29.25 15.75 -31.25 18.0 -33.5 20.55 -36.55 20.55 -38.0 20.55 -39.0 19.05 -39.75 17.9 -39.75 17.0 -39.15 10.25 -34.5 10.25 -30.75 10.25 -29.6 11.85 M-78.65 10.3 Q-81.6 10.3 -82.4 8.2 L-82.4 4.95 Q-82.55 4.65 -81.4 4.7 -78.6 4.65 -77.1 5.85 -76.2 6.5 -76.2 7.15 -76.2 7.65 -77.05 8.9 -77.95 10.3 -78.65 10.3" fill="#ffffff" fill-rule="evenodd" stroke="none"/>
    </g>
  </defs>
</svg>
