<?xml version="1.0" encoding="UTF-8" standalone="no"?>
<svg xmlns:ffdec="https://www.free-decompiler.com/flash" xmlns:xlink="http://www.w3.org/1999/xlink" ffdec:objectType="frame" height="39.3px" width="14.7px" xmlns="http://www.w3.org/2000/svg">
  <g transform="matrix(2.0, 0.0, 0.0, 2.0, 7.6, 19.6)">
    <use ffdec:characterId="2107" height="19.65" transform="matrix(1.0, 0.0, 0.0, 1.0, -3.55, -9.8)" width="7.1" xlink:href="#shape0"/>
    <filter id="filter0">
      <feColorMatrix in="SourceGraphic" result="filterResult0" type="matrix" values="0 0 0 0 1.0,0 0 0 0 0.0,0 0 0 0 0.0,0 0 0 1 0"/>
      <feConvolveMatrix divisor="25.0" in="filterResult0" kernelMatrix="1 1 1 1 1 1 1 1 1 1 1 1 1 1 1 1 1 1 1 1 1 1 1 1 1" order="5 5" result="filterResult1"/>
      <feComposite in="SourceGraphic" in2="filterResult1" operator="over" result="filterResult2"/>
    </filter>
    <use ffdec:characterId="2106" filter="url(#filter0)" height="8.85" transform="matrix(1.0, 0.0, 0.0, 1.0, -3.8, -6.05)" width="3.65" xlink:href="#sprite0"/>
  </g>
  <defs>
    <g id="shape0" transform="matrix(1.0, 0.0, 0.0, 1.0, 3.55, 9.8)">
      <path d="M-3.5 -2.25 L-3.45 -2.2 -3.5 -2.25 M-3.1 -2.0 L-3.0 -2.1 -3.05 -1.95 -3.1 -2.0" fill="url(#gradient0)" fill-rule="evenodd" stroke="none"/>
      <path d="M-1.65 -0.9 Q-2.35 -0.45 -3.05 1.2 L-3.4 -1.6 -3.5 -2.25 -3.45 -2.2 -3.15 -1.9 -3.1 -2.0 -3.05 -1.95 -1.65 -0.9" fill="url(#gradient1)" fill-rule="evenodd" stroke="none"/>
      <path d="M3.55 -4.95 L3.55 -3.1 3.4 0.3 2.95 3.4 2.6 5.2 2.3 6.5 2.2 6.95 Q1.05 4.8 0.3 2.45 0.3 1.1 -0.95 -0.25 L-0.6 -1.0 -1.65 -0.9 -3.05 -1.95 -3.0 -2.1 Q-2.95 -3.5 -0.15 -6.05 -1.1 -6.2 -2.5 -4.8 L-3.55 -3.5 -3.4 -5.2 -3.35 -5.7 Q-3.2 -7.1 -2.6 -7.9 L-2.2 -8.65 -1.8 -9.05 -1.35 -9.3 -0.5 -9.65 Q1.35 -10.15 3.3 -8.95 L3.45 -6.75 3.55 -4.95" fill="url(#gradient2)" fill-rule="evenodd" stroke="none"/>
      <path d="M2.2 6.95 Q1.6 8.65 0.45 9.85 L0.4 9.85 -0.5 9.5 Q-1.55 9.05 -1.9 8.15 -2.5 6.85 -2.6 5.5 L-2.9 2.8 -2.95 2.65 -0.95 -0.25 Q0.3 1.1 0.3 2.45 1.05 4.8 2.2 6.95" fill="url(#gradient3)" fill-rule="evenodd" stroke="none"/>
      <path d="M3.55 -4.95 L3.55 -3.1 3.4 0.3 2.95 3.4 2.6 5.2 2.3 6.5 2.2 6.95 Q1.6 8.65 0.45 9.85 L0.4 9.85 -0.5 9.5 Q-1.55 9.05 -1.9 8.15 -2.5 6.85 -2.6 5.5 L-2.9 2.8 -2.95 2.65 M-3.05 1.2 L-3.4 -1.6 -3.5 -2.25 M-3.55 -3.5 L-3.4 -5.2" fill="none" stroke="#000000" stroke-linecap="round" stroke-linejoin="round" stroke-width="0.05"/>
    </g>
    <radialGradient cx="0" cy="0" gradientTransform="matrix(0.0062, -8.0E-4, 0.0016, 0.0128, 0.3, -7.9)" gradientUnits="userSpaceOnUse" id="gradient0" r="819.2" spreadMethod="pad">
      <stop offset="0.0" stop-color="#79b999"/>
      <stop offset="0.49019607843137253" stop-color="#527072"/>
      <stop offset="0.6784313725490196" stop-color="#535368"/>
      <stop offset="1.0" stop-color="#262233"/>
    </radialGradient>
    <radialGradient cx="0" cy="0" gradientTransform="matrix(0.0058, -0.0013, 0.0042, 0.0186, -4.85, 0.0)" gradientUnits="userSpaceOnUse" id="gradient1" r="819.2" spreadMethod="pad">
      <stop offset="0.0" stop-color="#3d292e"/>
      <stop offset="0.49411764705882355" stop-color="#302332"/>
      <stop offset="0.6784313725490196" stop-color="#261c28"/>
      <stop offset="1.0" stop-color="#262233"/>
    </radialGradient>
    <radialGradient cx="0" cy="0" gradientTransform="matrix(0.0062, -8.0E-4, 0.0016, 0.0128, 0.3, -7.9)" gradientUnits="userSpaceOnUse" id="gradient2" r="819.2" spreadMethod="pad">
      <stop offset="0.0" stop-color="#3d292e"/>
      <stop offset="0.49411764705882355" stop-color="#120e14"/>
      <stop offset="0.6784313725490196" stop-color="#000000"/>
      <stop offset="1.0" stop-color="#211b20"/>
    </radialGradient>
    <radialGradient cx="0" cy="0" gradientTransform="matrix(0.0058, -0.0013, 0.0042, 0.0186, -4.85, 0.0)" gradientUnits="userSpaceOnUse" id="gradient3" r="819.2" spreadMethod="pad">
      <stop offset="0.0" stop-color="#3d292e"/>
      <stop offset="0.49411764705882355" stop-color="#120e14"/>
      <stop offset="0.6784313725490196" stop-color="#000000"/>
      <stop offset="1.0" stop-color="#211b20"/>
    </radialGradient>
    <g id="sprite0" transform="matrix(1.0, 0.0, 0.0, 1.0, 1.85, 4.45)">
      <use ffdec:characterId="2105" height="8.85" transform="matrix(1.0, 0.0, 0.0, 1.0, -1.85, -4.45)" width="3.65" xlink:href="#shape1"/>
    </g>
    <g id="shape1" transform="matrix(1.0, 0.0, 0.0, 1.0, 1.85, 4.45)">
      <path d="M1.35 0.6 L1.0 1.35 -1.0 4.25 -1.15 4.4 -1.45 4.35 -1.55 3.9 -1.1 2.8 Q-0.4 1.15 0.3 0.7 L1.35 0.6 M-0.55 -3.2 Q0.85 -4.6 1.8 -4.45 -1.0 -1.9 -1.05 -0.5 L-1.15 -0.4 -1.2 -0.3 -1.5 -0.6 -1.55 -0.65 -1.85 -1.2 -1.6 -1.9 -0.55 -3.2" fill="#fe7070" fill-rule="evenodd" stroke="none"/>
    </g>
  </defs>
</svg>
