<?xml version="1.0" encoding="UTF-8" standalone="no"?>
<svg xmlns:ffdec="https://www.free-decompiler.com/flash" xmlns:xlink="http://www.w3.org/1999/xlink" ffdec:objectType="frame" height="38.9px" width="24.1px" xmlns="http://www.w3.org/2000/svg">
  <g transform="matrix(2.0, 0.0, 0.0, 2.0, 12.2, 29.2)">
    <use ffdec:characterId="620" height="19.45" transform="matrix(1.0, 0.0, 0.0, 1.0, -6.1, -14.6)" width="12.05" xlink:href="#shape0"/>
    <filter id="filter0">
      <feFlood flood-color="#ffff99" flood-opacity="1.0" result="filterResult0"/>
      <feComposite in="filterResult0" in2="SourceGraphic" operator="out" result="filterResult1"/>
      <feConvolveMatrix divisor="25.0" in="filterResult1" kernelMatrix="1 1 1 1 1 1 1 1 1 1 1 1 1 1 1 1 1 1 1 1 1 1 1 1 1" order="5 5" result="filterResult2"/>
      <feComposite in="filterResult2" in2="SourceGraphic" operator="in" result="filterResult3"/>
      <feComposite in="filterResult3" in2="SourceGraphic" operator="over" result="filterResult4"/>
      <feColorMatrix in="filterResult4" result="filterResult5" type="matrix" values="0 0 0 0 1.0,0 0 0 0 0.6,0 0 0 0 0.0,0 0 0 1 0"/>
      <feConvolveMatrix divisor="25.0" in="filterResult5" kernelMatrix="1 1 1 1 1 1 1 1 1 1 1 1 1 1 1 1 1 1 1 1 1 1 1 1 1" order="5 5" result="filterResult6"/>
      <feComposite in="filterResult4" in2="filterResult6" operator="over" result="filterResult7"/>
    </filter>
    <use ffdec:characterId="619" filter="url(#filter0)" height="1.65" transform="matrix(1.0, 0.0, 0.0, 1.0, 1.4, -2.6)" width="3.1" xlink:href="#sprite0"/>
  </g>
  <defs>
    <g id="shape0" transform="matrix(1.0, 0.0, 0.0, 1.0, 6.1, 14.6)">
      <path d="M-0.4 3.0 Q-0.3 -3.2 5.6 -3.85 3.85 0.55 4.25 4.45 L-0.4 3.0" fill="#333333" fill-rule="evenodd" stroke="none"/>
      <path d="M-0.4 3.0 Q-0.3 -3.2 5.6 -3.85 3.85 0.55 4.25 4.45 L-0.4 3.0 Z" fill="none" stroke="#000000" stroke-linecap="round" stroke-linejoin="round" stroke-width="0.25"/>
      <path d="M4.35 -2.4 L4.25 -1.85 4.2 0.6 3.7 1.15 3.7 1.25 2.7 4.8 -1.4 1.7 -2.15 0.3 -2.4 0.1 -2.55 -0.1 Q-3.75 -1.35 -3.75 -3.15 -3.75 -4.95 -2.55 -6.25 -1.35 -7.55 0.35 -7.55 2.0 -7.55 3.2 -6.25 4.4 -4.95 4.4 -3.15 L4.35 -2.4" fill="url(#gradient0)" fill-rule="evenodd" stroke="none"/>
      <path d="M4.35 -2.4 L4.25 -1.85 4.2 0.6 3.7 1.15 3.7 1.25 2.7 4.8 -1.4 1.7 -2.15 0.3 -2.4 0.1 -2.55 -0.1 Q-3.75 -1.35 -3.75 -3.15 -3.75 -4.95 -2.55 -6.25 -1.35 -7.55 0.35 -7.55 2.0 -7.55 3.2 -6.25 4.4 -4.95 4.4 -3.15 L4.35 -2.4 Z" fill="none" stroke="#000000" stroke-linecap="round" stroke-linejoin="round" stroke-width="0.05"/>
      <path d="M2.4 -1.25 L1.55 -1.4 Q1.8 -2.2 2.8 -2.2 3.4 -2.2 3.4 -1.7 3.4 -1.25 2.4 -1.25" fill="#000000" fill-rule="evenodd" stroke="none"/>
      <path d="M3.4 1.15 Q3.4 2.1 2.65 2.1 2.1 2.1 1.95 1.75 1.85 2.05 1.85 1.6 L3.15 0.95 Q3.4 0.95 3.4 1.15" fill="#e75c5c" fill-rule="evenodd" stroke="none"/>
      <path d="M-6.0 -4.25 Q-2.2 -8.05 -0.9 -14.5 5.15 -7.45 5.85 -3.1 1.2 -2.95 -0.5 1.85 -0.5 2.9 0.85 4.75 -2.25 4.1 -4.35 2.1 -4.45 -1.85 -6.0 -4.25" fill="url(#gradient1)" fill-rule="evenodd" stroke="none"/>
      <path d="M-6.0 -4.25 Q-4.45 -1.85 -4.35 2.1 -2.25 4.1 0.85 4.75 -0.5 2.9 -0.5 1.85 1.2 -2.95 5.85 -3.1 5.15 -7.45 -0.9 -14.5 -2.2 -8.05 -6.0 -4.25 Z" fill="none" stroke="#000000" stroke-linecap="round" stroke-linejoin="round" stroke-width="0.25"/>
    </g>
    <radialGradient cx="0" cy="0" gradientTransform="matrix(0.0085, 0.0, 0.0, 0.0085, 0.5, -0.55)" gradientUnits="userSpaceOnUse" id="gradient0" r="819.2" spreadMethod="pad">
      <stop offset="0.20392156862745098" stop-color="#e2c2a5"/>
      <stop offset="0.5607843137254902" stop-color="#e1b87b"/>
      <stop offset="1.0" stop-color="#cca277"/>
    </radialGradient>
    <radialGradient cx="0" cy="0" gradientTransform="matrix(0.0123, 0.0, 0.0, 0.0123, -0.05, -4.85)" gradientUnits="userSpaceOnUse" id="gradient1" r="819.2" spreadMethod="pad">
      <stop offset="0.0" stop-color="#47324e"/>
      <stop offset="1.0" stop-color="#1c161d"/>
    </radialGradient>
    <g id="sprite0" transform="matrix(1.0, 0.0, 0.0, 1.0, 0.75, 1.2)">
      <use ffdec:characterId="618" height="1.65" transform="matrix(1.0, 0.0, 0.0, 1.0, -0.75, -1.2)" width="3.1" xlink:href="#shape1"/>
    </g>
    <g id="shape1" transform="matrix(1.0, 0.0, 0.0, 1.0, 0.75, 1.2)">
      <path d="M2.35 -1.2 L2.05 0.25 2.0 0.35 -0.75 0.45 1.1 -1.2 2.35 -1.2" fill="#ffffff" fill-rule="evenodd" stroke="none"/>
    </g>
  </defs>
</svg>
